<?xml version="1.0" encoding="UTF-8" standalone="no"?>
<!DOCTYPE svg PUBLIC "-//W3C//DTD SVG 1.1//EN"
 "http://www.w3.org/Graphics/SVG/1.1/DTD/svg11.dtd">
<!-- Generated by graphviz version 2.43.0 (0)
 -->
<!-- Title: VisToolPointOfContact Pages: 1 -->
<svg width="481pt" height="1699pt"
 viewBox="0.00 0.00 481.00 1699.00" xmlns="http://www.w3.org/2000/svg" xmlns:xlink="http://www.w3.org/1999/xlink">
<g id="graph0" class="graph" transform="scale(1 1) rotate(0) translate(4 1695)">
<title>VisToolPointOfContact</title>
<!-- Node1 -->
<g id="Node000001" class="node">
<title>Node1</title>
<g id="a_Node000001"><a xlink:title=" ">
<polygon fill="#999999" stroke="transparent" points="423.5,-169 278.5,-169 278.5,0 423.5,0 423.5,-169"/>
<text text-anchor="start" x="297" y="-156.5" font-family="Helvetica,sans-Serif" font-size="10.00">VisToolPointOfContact</text>
<text text-anchor="start" x="285.5" y="-141.5" font-family="Helvetica,sans-Serif" font-size="10.00">&#45;</text>
<text text-anchor="start" x="296" y="-141.5" font-family="Helvetica,sans-Serif" font-size="10.00">lineP2Id</text>
<text text-anchor="start" x="285.5" y="-126.5" font-family="Helvetica,sans-Serif" font-size="10.00">&#45;</text>
<text text-anchor="start" x="296" y="-126.5" font-family="Helvetica,sans-Serif" font-size="10.00">radiusId</text>
<text text-anchor="start" x="285.5" y="-111.5" font-family="Helvetica,sans-Serif" font-size="10.00">&#45;</text>
<text text-anchor="start" x="296" y="-111.5" font-family="Helvetica,sans-Serif" font-size="10.00">radius</text>
<text text-anchor="start" x="283" y="-96.5" font-family="Helvetica,sans-Serif" font-size="10.00">+</text>
<text text-anchor="start" x="296" y="-96.5" font-family="Helvetica,sans-Serif" font-size="10.00">VisToolPointOfContact()</text>
<text text-anchor="start" x="283" y="-81.5" font-family="Helvetica,sans-Serif" font-size="10.00">+</text>
<text text-anchor="start" x="296" y="-81.5" font-family="Helvetica,sans-Serif" font-size="10.00">~VisToolPointOfContact()</text>
<text text-anchor="start" x="283" y="-66.5" font-family="Helvetica,sans-Serif" font-size="10.00">+</text>
<text text-anchor="start" x="296" y="-66.5" font-family="Helvetica,sans-Serif" font-size="10.00">RefreshGeometry()</text>
<text text-anchor="start" x="283" y="-51.5" font-family="Helvetica,sans-Serif" font-size="10.00">+</text>
<text text-anchor="start" x="296" y="-51.5" font-family="Helvetica,sans-Serif" font-size="10.00">setLineP2Id()</text>
<text text-anchor="start" x="283" y="-36.5" font-family="Helvetica,sans-Serif" font-size="10.00">+</text>
<text text-anchor="start" x="296" y="-36.5" font-family="Helvetica,sans-Serif" font-size="10.00">setRadiusId()</text>
<text text-anchor="start" x="283" y="-21.5" font-family="Helvetica,sans-Serif" font-size="10.00">+</text>
<text text-anchor="start" x="296" y="-21.5" font-family="Helvetica,sans-Serif" font-size="10.00">setRadius()</text>
<text text-anchor="start" x="283" y="-6.5" font-family="Helvetica,sans-Serif" font-size="10.00">+</text>
<text text-anchor="start" x="296" y="-6.5" font-family="Helvetica,sans-Serif" font-size="10.00">type()</text>
<polygon fill="#666666" stroke="#666666" points="279,-151.5 279,-151.5 424,-151.5 424,-151.5 279,-151.5"/>
<polygon fill="#666666" stroke="#666666" points="279,-106.5 279,-106.5 294,-106.5 294,-106.5 279,-106.5"/>
<polygon fill="#666666" stroke="#666666" points="294,-106.5 294,-106.5 424,-106.5 424,-106.5 294,-106.5"/>
<polygon fill="none" stroke="#666666" points="278.5,0 278.5,-169 423.5,-169 423.5,0 278.5,0"/>
</a>
</g>
</g>
<!-- Node2 -->
<g id="Node000002" class="node">
<title>Node2</title>
<g id="a_Node000002"><a xlink:href="../../de/d0e/classVisLine.html" target="_top" xlink:title=" ">
<polygon fill="white" stroke="transparent" points="334,-459 242,-459 242,-260 334,-260 334,-459"/>
<text text-anchor="start" x="270" y="-446.5" font-family="Helvetica,sans-Serif" font-size="10.00">VisLine</text>
<text text-anchor="start" x="286" y="-431.5" font-family="Helvetica,sans-Serif" font-size="10.00"> </text>
<text text-anchor="start" x="246" y="-416.5" font-family="Helvetica,sans-Serif" font-size="10.00">+</text>
<text text-anchor="start" x="259" y="-416.5" font-family="Helvetica,sans-Serif" font-size="10.00">VisLine()</text>
<text text-anchor="start" x="246" y="-401.5" font-family="Helvetica,sans-Serif" font-size="10.00">+</text>
<text text-anchor="start" x="259" y="-401.5" font-family="Helvetica,sans-Serif" font-size="10.00">~VisLine()</text>
<text text-anchor="start" x="246" y="-386.5" font-family="Helvetica,sans-Serif" font-size="10.00">+</text>
<text text-anchor="start" x="259" y="-386.5" font-family="Helvetica,sans-Serif" font-size="10.00">type()</text>
<text text-anchor="start" x="246" y="-371.5" font-family="Helvetica,sans-Serif" font-size="10.00">+</text>
<text text-anchor="start" x="259" y="-371.5" font-family="Helvetica,sans-Serif" font-size="10.00">CorrectAngle()</text>
<text text-anchor="start" x="246" y="-356.5" font-family="Helvetica,sans-Serif" font-size="10.00">#</text>
<text text-anchor="start" x="259" y="-356.5" font-family="Helvetica,sans-Serif" font-size="10.00">Ray()</text>
<text text-anchor="start" x="246" y="-341.5" font-family="Helvetica,sans-Serif" font-size="10.00">#</text>
<text text-anchor="start" x="259" y="-341.5" font-family="Helvetica,sans-Serif" font-size="10.00">Ray()</text>
<text text-anchor="start" x="246" y="-326.5" font-family="Helvetica,sans-Serif" font-size="10.00">#</text>
<text text-anchor="start" x="259" y="-326.5" font-family="Helvetica,sans-Serif" font-size="10.00">Axis()</text>
<text text-anchor="start" x="246" y="-311.5" font-family="Helvetica,sans-Serif" font-size="10.00">#</text>
<text text-anchor="start" x="259" y="-311.5" font-family="Helvetica,sans-Serif" font-size="10.00">Axis()</text>
<text text-anchor="start" x="246" y="-296.5" font-family="Helvetica,sans-Serif" font-size="10.00">#</text>
<text text-anchor="start" x="259" y="-296.5" font-family="Helvetica,sans-Serif" font-size="10.00">initPen()</text>
<text text-anchor="start" x="246" y="-281.5" font-family="Helvetica,sans-Serif" font-size="10.00">#</text>
<text text-anchor="start" x="259" y="-281.5" font-family="Helvetica,sans-Serif" font-size="10.00">AddOnScene()</text>
<text text-anchor="start" x="246" y="-266.5" font-family="Helvetica,sans-Serif" font-size="10.00">#</text>
<text text-anchor="start" x="259" y="-266.5" font-family="Helvetica,sans-Serif" font-size="10.00">DrawRay()</text>
<polygon fill="#666666" stroke="#666666" points="242,-441.5 242,-441.5 334,-441.5 334,-441.5 242,-441.5"/>
<polygon fill="#666666" stroke="#666666" points="242,-426.5 242,-426.5 334,-426.5 334,-426.5 242,-426.5"/>
<polygon fill="none" stroke="#666666" points="242,-260 242,-459 334,-459 334,-260 242,-260"/>
</a>
</g>
</g>
<!-- Node2&#45;&gt;Node1 -->
<g id="edge1_Node000001_Node000002" class="edge">
<title>Node2&#45;&gt;Node1</title>
<g id="a_edge1_Node000001_Node000002"><a xlink:title=" ">
<path fill="none" stroke="#63b8ff" d="M313.02,-250.08C319.24,-223.12 325.82,-194.62 331.72,-169.06"/>
<polygon fill="none" stroke="#63b8ff" points="309.58,-249.41 310.74,-259.94 316.4,-250.98 309.58,-249.41"/>
</a>
</g>
</g>
<!-- Node3 -->
<g id="Node000003" class="node">
<title>Node3</title>
<g id="a_Node000003"><a xlink:href="../../d7/d24/classVisualization.html" target="_top" xlink:title=" ">
<polygon fill="white" stroke="transparent" points="206.5,-1085 91.5,-1085 91.5,-496 206.5,-496 206.5,-1085"/>
<text text-anchor="start" x="117.5" y="-1072.5" font-family="Helvetica,sans-Serif" font-size="10.00">Visualization</text>
<text text-anchor="start" x="96" y="-1057.5" font-family="Helvetica,sans-Serif" font-size="10.00">#</text>
<text text-anchor="start" x="109" y="-1057.5" font-family="Helvetica,sans-Serif" font-size="10.00">scenePos</text>
<text text-anchor="start" x="96" y="-1042.5" font-family="Helvetica,sans-Serif" font-size="10.00">#</text>
<text text-anchor="start" x="109" y="-1042.5" font-family="Helvetica,sans-Serif" font-size="10.00">mainColor</text>
<text text-anchor="start" x="96" y="-1027.5" font-family="Helvetica,sans-Serif" font-size="10.00">#</text>
<text text-anchor="start" x="109" y="-1027.5" font-family="Helvetica,sans-Serif" font-size="10.00">supportColor</text>
<text text-anchor="start" x="96" y="-1012.5" font-family="Helvetica,sans-Serif" font-size="10.00">#</text>
<text text-anchor="start" x="109" y="-1012.5" font-family="Helvetica,sans-Serif" font-size="10.00">lineStyle</text>
<text text-anchor="start" x="96" y="-997.5" font-family="Helvetica,sans-Serif" font-size="10.00">#</text>
<text text-anchor="start" x="109" y="-997.5" font-family="Helvetica,sans-Serif" font-size="10.00">lineWeight</text>
<text text-anchor="start" x="96" y="-982.5" font-family="Helvetica,sans-Serif" font-size="10.00">#</text>
<text text-anchor="start" x="109" y="-982.5" font-family="Helvetica,sans-Serif" font-size="10.00">object1Id</text>
<text text-anchor="start" x="96" y="-967.5" font-family="Helvetica,sans-Serif" font-size="10.00">#</text>
<text text-anchor="start" x="109" y="-967.5" font-family="Helvetica,sans-Serif" font-size="10.00">toolTip</text>
<text text-anchor="start" x="96" y="-952.5" font-family="Helvetica,sans-Serif" font-size="10.00">#</text>
<text text-anchor="start" x="109" y="-952.5" font-family="Helvetica,sans-Serif" font-size="10.00">mode</text>
<text text-anchor="start" x="96" y="-937.5" font-family="Helvetica,sans-Serif" font-size="10.00">+</text>
<text text-anchor="start" x="109" y="-937.5" font-family="Helvetica,sans-Serif" font-size="10.00">Visualization()</text>
<text text-anchor="start" x="96" y="-922.5" font-family="Helvetica,sans-Serif" font-size="10.00">+</text>
<text text-anchor="start" x="109" y="-922.5" font-family="Helvetica,sans-Serif" font-size="10.00">~Visualization()</text>
<text text-anchor="start" x="96" y="-907.5" font-family="Helvetica,sans-Serif" font-size="10.00">+</text>
<text text-anchor="start" x="109" y="-907.5" font-family="Helvetica,sans-Serif" font-size="10.00">RefreshGeometry()</text>
<text text-anchor="start" x="96" y="-892.5" font-family="Helvetica,sans-Serif" font-size="10.00">+</text>
<text text-anchor="start" x="109" y="-892.5" font-family="Helvetica,sans-Serif" font-size="10.00">setObject1Id()</text>
<text text-anchor="start" x="96" y="-877.5" font-family="Helvetica,sans-Serif" font-size="10.00">+</text>
<text text-anchor="start" x="109" y="-877.5" font-family="Helvetica,sans-Serif" font-size="10.00">setLineStyle()</text>
<text text-anchor="start" x="96" y="-862.5" font-family="Helvetica,sans-Serif" font-size="10.00">+</text>
<text text-anchor="start" x="109" y="-862.5" font-family="Helvetica,sans-Serif" font-size="10.00">setLineWeight()</text>
<text text-anchor="start" x="96" y="-847.5" font-family="Helvetica,sans-Serif" font-size="10.00">+</text>
<text text-anchor="start" x="109" y="-847.5" font-family="Helvetica,sans-Serif" font-size="10.00">setScenePos()</text>
<text text-anchor="start" x="96" y="-832.5" font-family="Helvetica,sans-Serif" font-size="10.00">+</text>
<text text-anchor="start" x="109" y="-832.5" font-family="Helvetica,sans-Serif" font-size="10.00">VisualMode()</text>
<text text-anchor="start" x="96" y="-817.5" font-family="Helvetica,sans-Serif" font-size="10.00">+</text>
<text text-anchor="start" x="109" y="-817.5" font-family="Helvetica,sans-Serif" font-size="10.00">setMainColor()</text>
<text text-anchor="start" x="96" y="-802.5" font-family="Helvetica,sans-Serif" font-size="10.00">+</text>
<text text-anchor="start" x="109" y="-802.5" font-family="Helvetica,sans-Serif" font-size="10.00">getData()</text>
<text text-anchor="start" x="96" y="-787.5" font-family="Helvetica,sans-Serif" font-size="10.00">+</text>
<text text-anchor="start" x="109" y="-787.5" font-family="Helvetica,sans-Serif" font-size="10.00">setData()</text>
<text text-anchor="start" x="96" y="-772.5" font-family="Helvetica,sans-Serif" font-size="10.00">+</text>
<text text-anchor="start" x="109" y="-772.5" font-family="Helvetica,sans-Serif" font-size="10.00">GetMode()</text>
<text text-anchor="start" x="96" y="-757.5" font-family="Helvetica,sans-Serif" font-size="10.00">+</text>
<text text-anchor="start" x="109" y="-757.5" font-family="Helvetica,sans-Serif" font-size="10.00">SetMode()</text>
<text text-anchor="start" x="96" y="-742.5" font-family="Helvetica,sans-Serif" font-size="10.00">+</text>
<text text-anchor="start" x="109" y="-742.5" font-family="Helvetica,sans-Serif" font-size="10.00">CurrentToolTip()</text>
<text text-anchor="start" x="96" y="-727.5" font-family="Helvetica,sans-Serif" font-size="10.00">+</text>
<text text-anchor="start" x="109" y="-727.5" font-family="Helvetica,sans-Serif" font-size="10.00">FindLength()</text>
<text text-anchor="start" x="96" y="-712.5" font-family="Helvetica,sans-Serif" font-size="10.00">+</text>
<text text-anchor="start" x="109" y="-712.5" font-family="Helvetica,sans-Serif" font-size="10.00">FindVal()</text>
<text text-anchor="start" x="96" y="-697.5" font-family="Helvetica,sans-Serif" font-size="10.00">+</text>
<text text-anchor="start" x="109" y="-697.5" font-family="Helvetica,sans-Serif" font-size="10.00">mousePos()</text>
<text text-anchor="start" x="96" y="-682.5" font-family="Helvetica,sans-Serif" font-size="10.00">#</text>
<text text-anchor="start" x="109" y="-682.5" font-family="Helvetica,sans-Serif" font-size="10.00">initPen()</text>
<text text-anchor="start" x="96" y="-667.5" font-family="Helvetica,sans-Serif" font-size="10.00">#</text>
<text text-anchor="start" x="109" y="-667.5" font-family="Helvetica,sans-Serif" font-size="10.00">AddOnScene()</text>
<text text-anchor="start" x="96" y="-652.5" font-family="Helvetica,sans-Serif" font-size="10.00">#</text>
<text text-anchor="start" x="109" y="-652.5" font-family="Helvetica,sans-Serif" font-size="10.00">InitPoint()</text>
<text text-anchor="start" x="96" y="-637.5" font-family="Helvetica,sans-Serif" font-size="10.00">#</text>
<text text-anchor="start" x="109" y="-637.5" font-family="Helvetica,sans-Serif" font-size="10.00">DrawPoint()</text>
<text text-anchor="start" x="96" y="-622.5" font-family="Helvetica,sans-Serif" font-size="10.00">#</text>
<text text-anchor="start" x="109" y="-622.5" font-family="Helvetica,sans-Serif" font-size="10.00">DrawLine()</text>
<text text-anchor="start" x="96" y="-607.5" font-family="Helvetica,sans-Serif" font-size="10.00">#</text>
<text text-anchor="start" x="109" y="-607.5" font-family="Helvetica,sans-Serif" font-size="10.00">DrawPath()</text>
<text text-anchor="start" x="96" y="-592.5" font-family="Helvetica,sans-Serif" font-size="10.00">#</text>
<text text-anchor="start" x="109" y="-592.5" font-family="Helvetica,sans-Serif" font-size="10.00">DrawPath()</text>
<text text-anchor="start" x="96" y="-577.5" font-family="Helvetica,sans-Serif" font-size="10.00">#</text>
<text text-anchor="start" x="109" y="-577.5" font-family="Helvetica,sans-Serif" font-size="10.00">drawArrowedLine()</text>
<text text-anchor="start" x="96" y="-562.5" font-family="Helvetica,sans-Serif" font-size="10.00">#</text>
<text text-anchor="start" x="109" y="-562.5" font-family="Helvetica,sans-Serif" font-size="10.00">drawArrow()</text>
<text text-anchor="start" x="96" y="-547.5" font-family="Helvetica,sans-Serif" font-size="10.00">#</text>
<text text-anchor="start" x="109" y="-547.5" font-family="Helvetica,sans-Serif" font-size="10.00">addItem()</text>
<text text-anchor="start" x="96" y="-532.5" font-family="Helvetica,sans-Serif" font-size="10.00">#</text>
<text text-anchor="start" x="109" y="-532.5" font-family="Helvetica,sans-Serif" font-size="10.00">InitItem()</text>
<text text-anchor="start" x="96" y="-517.5" font-family="Helvetica,sans-Serif" font-size="10.00">#</text>
<text text-anchor="start" x="109" y="-517.5" font-family="Helvetica,sans-Serif" font-size="10.00">GetPointItem()</text>
<text text-anchor="start" x="98.5" y="-502.5" font-family="Helvetica,sans-Serif" font-size="10.00">&#45;</text>
<text text-anchor="start" x="109" y="-502.5" font-family="Helvetica,sans-Serif" font-size="10.00">initPointItem()</text>
<polygon fill="#666666" stroke="#666666" points="92,-1067.5 92,-1067.5 207,-1067.5 207,-1067.5 92,-1067.5"/>
<polygon fill="#666666" stroke="#666666" points="92,-947.5 92,-947.5 107,-947.5 107,-947.5 92,-947.5"/>
<polygon fill="#666666" stroke="#666666" points="107,-947.5 107,-947.5 207,-947.5 207,-947.5 107,-947.5"/>
<polygon fill="none" stroke="#666666" points="91.5,-496 91.5,-1085 206.5,-1085 206.5,-496 91.5,-496"/>
</a>
</g>
</g>
<!-- Node3&#45;&gt;Node2 -->
<g id="edge2_Node000002_Node000003" class="edge">
<title>Node3&#45;&gt;Node2</title>
<g id="a_edge2_Node000002_Node000003"><a xlink:title=" ">
<path fill="none" stroke="#63b8ff" d="M209.55,-552.02C215.43,-532.96 221.6,-514.09 228,-496 232.25,-483.99 237.09,-471.56 242.15,-459.32"/>
<polygon fill="none" stroke="#63b8ff" points="206.17,-551.11 206.59,-561.7 212.86,-553.16 206.17,-551.11"/>
</a>
</g>
</g>
<!-- Node4 -->
<g id="Node000004" class="node">
<title>Node4</title>
<g id="a_Node000004"><a xlink:title=" ">
<polygon fill="white" stroke="transparent" points="50,-1436 0,-1436 0,-1387 50,-1387 50,-1436"/>
<text text-anchor="start" x="5" y="-1423.5" font-family="Helvetica,sans-Serif" font-size="10.00">QObject</text>
<text text-anchor="start" x="23" y="-1408.5" font-family="Helvetica,sans-Serif" font-size="10.00"> </text>
<text text-anchor="start" x="23" y="-1393.5" font-family="Helvetica,sans-Serif" font-size="10.00"> </text>
<polygon fill="#666666" stroke="#666666" points="0,-1418.5 0,-1418.5 50,-1418.5 50,-1418.5 0,-1418.5"/>
<polygon fill="#666666" stroke="#666666" points="0,-1403.5 0,-1403.5 50,-1403.5 50,-1403.5 0,-1403.5"/>
<polygon fill="none" stroke="#666666" points="0,-1387 0,-1436 50,-1436 50,-1387 0,-1387"/>
</a>
</g>
</g>
<!-- Node4&#45;&gt;Node3 -->
<g id="edge3_Node000003_Node000004" class="edge">
<title>Node4&#45;&gt;Node3</title>
<g id="a_edge3_Node000003_Node000004"><a xlink:title=" ">
<path fill="none" stroke="#63b8ff" d="M27.62,-1376.74C32.04,-1324.12 42.18,-1219.49 59,-1132 67.86,-1085.92 79.5,-1036.86 91.45,-990.75"/>
<polygon fill="none" stroke="#63b8ff" points="24.12,-1376.6 26.79,-1386.86 31.1,-1377.18 24.12,-1376.6"/>
</a>
</g>
</g>
<!-- Node5 -->
<g id="Node000005" class="node">
<title>Node5</title>
<g id="a_Node000005"><a xlink:href="../../d2/d83/classVContainer.html" target="_top" xlink:title="The VContainer class container of all variables.">
<polygon fill="white" stroke="transparent" points="230,-1691 68,-1691 68,-1132 230,-1132 230,-1691"/>
<text text-anchor="start" x="121.5" y="-1678.5" font-family="Helvetica,sans-Serif" font-size="10.00">VContainer</text>
<text text-anchor="start" x="74.5" y="-1663.5" font-family="Helvetica,sans-Serif" font-size="10.00">&#45;</text>
<text text-anchor="start" x="85" y="-1663.5" font-family="Helvetica,sans-Serif" font-size="10.00">d</text>
<text text-anchor="start" x="74.5" y="-1648.5" font-family="Helvetica,sans-Serif" font-size="10.00">&#45;</text>
<text text-anchor="start" x="85" y="-1648.5" font-family="Helvetica,sans-Serif" font-size="10.00">_id</text>
<text text-anchor="start" x="74.5" y="-1633.5" font-family="Helvetica,sans-Serif" font-size="10.00">&#45;</text>
<text text-anchor="start" x="85" y="-1633.5" font-family="Helvetica,sans-Serif" font-size="10.00">_size</text>
<text text-anchor="start" x="74.5" y="-1618.5" font-family="Helvetica,sans-Serif" font-size="10.00">&#45;</text>
<text text-anchor="start" x="85" y="-1618.5" font-family="Helvetica,sans-Serif" font-size="10.00">_height</text>
<text text-anchor="start" x="74.5" y="-1603.5" font-family="Helvetica,sans-Serif" font-size="10.00">&#45;</text>
<text text-anchor="start" x="85" y="-1603.5" font-family="Helvetica,sans-Serif" font-size="10.00">uniqueNames</text>
<text text-anchor="start" x="72" y="-1588.5" font-family="Helvetica,sans-Serif" font-size="10.00">+</text>
<text text-anchor="start" x="85" y="-1588.5" font-family="Helvetica,sans-Serif" font-size="10.00">VContainer()</text>
<text text-anchor="start" x="72" y="-1573.5" font-family="Helvetica,sans-Serif" font-size="10.00">+</text>
<text text-anchor="start" x="85" y="-1573.5" font-family="Helvetica,sans-Serif" font-size="10.00">VContainer()</text>
<text text-anchor="start" x="72" y="-1558.5" font-family="Helvetica,sans-Serif" font-size="10.00">+</text>
<text text-anchor="start" x="85" y="-1558.5" font-family="Helvetica,sans-Serif" font-size="10.00">~VContainer()</text>
<text text-anchor="start" x="72" y="-1543.5" font-family="Helvetica,sans-Serif" font-size="10.00">+</text>
<text text-anchor="start" x="85" y="-1543.5" font-family="Helvetica,sans-Serif" font-size="10.00">operator=()</text>
<text text-anchor="start" x="72" y="-1528.5" font-family="Helvetica,sans-Serif" font-size="10.00">+</text>
<text text-anchor="start" x="85" y="-1528.5" font-family="Helvetica,sans-Serif" font-size="10.00">Swap()</text>
<text text-anchor="start" x="72" y="-1513.5" font-family="Helvetica,sans-Serif" font-size="10.00">+</text>
<text text-anchor="start" x="85" y="-1513.5" font-family="Helvetica,sans-Serif" font-size="10.00">GeometricObject()</text>
<text text-anchor="start" x="72" y="-1498.5" font-family="Helvetica,sans-Serif" font-size="10.00">+</text>
<text text-anchor="start" x="85" y="-1498.5" font-family="Helvetica,sans-Serif" font-size="10.00">GetGObject()</text>
<text text-anchor="start" x="72" y="-1483.5" font-family="Helvetica,sans-Serif" font-size="10.00">+</text>
<text text-anchor="start" x="85" y="-1483.5" font-family="Helvetica,sans-Serif" font-size="10.00">GetPiece()</text>
<text text-anchor="start" x="72" y="-1468.5" font-family="Helvetica,sans-Serif" font-size="10.00">+</text>
<text text-anchor="start" x="85" y="-1468.5" font-family="Helvetica,sans-Serif" font-size="10.00">GetPiecePath()</text>
<text text-anchor="start" x="72" y="-1453.5" font-family="Helvetica,sans-Serif" font-size="10.00">+</text>
<text text-anchor="start" x="85" y="-1453.5" font-family="Helvetica,sans-Serif" font-size="10.00">getVariable()</text>
<text text-anchor="start" x="85" y="-1438.5" font-family="Helvetica,sans-Serif" font-size="10.00">and 34 more...</text>
<text text-anchor="start" x="72" y="-1423.5" font-family="Helvetica,sans-Serif" font-size="10.00">+</text>
<text text-anchor="start" x="85" y="-1423.5" font-family="Helvetica,sans-Serif" font-size="10.00">GetFakeGObject()</text>
<text text-anchor="start" x="72" y="-1408.5" font-family="Helvetica,sans-Serif" font-size="10.00">+</text>
<text text-anchor="start" x="85" y="-1408.5" font-family="Helvetica,sans-Serif" font-size="10.00">getId()</text>
<text text-anchor="start" x="72" y="-1393.5" font-family="Helvetica,sans-Serif" font-size="10.00">+</text>
<text text-anchor="start" x="85" y="-1393.5" font-family="Helvetica,sans-Serif" font-size="10.00">getNextId()</text>
<text text-anchor="start" x="72" y="-1378.5" font-family="Helvetica,sans-Serif" font-size="10.00">+</text>
<text text-anchor="start" x="85" y="-1378.5" font-family="Helvetica,sans-Serif" font-size="10.00">UpdateId()</text>
<text text-anchor="start" x="72" y="-1363.5" font-family="Helvetica,sans-Serif" font-size="10.00">+</text>
<text text-anchor="start" x="85" y="-1363.5" font-family="Helvetica,sans-Serif" font-size="10.00">ClearUniqueNames()</text>
<text text-anchor="start" x="72" y="-1348.5" font-family="Helvetica,sans-Serif" font-size="10.00">+</text>
<text text-anchor="start" x="85" y="-1348.5" font-family="Helvetica,sans-Serif" font-size="10.00">clearUniqueVariableNames()</text>
<text text-anchor="start" x="72" y="-1333.5" font-family="Helvetica,sans-Serif" font-size="10.00">+</text>
<text text-anchor="start" x="85" y="-1333.5" font-family="Helvetica,sans-Serif" font-size="10.00">setSize()</text>
<text text-anchor="start" x="72" y="-1318.5" font-family="Helvetica,sans-Serif" font-size="10.00">+</text>
<text text-anchor="start" x="85" y="-1318.5" font-family="Helvetica,sans-Serif" font-size="10.00">setHeight()</text>
<text text-anchor="start" x="72" y="-1303.5" font-family="Helvetica,sans-Serif" font-size="10.00">+</text>
<text text-anchor="start" x="85" y="-1303.5" font-family="Helvetica,sans-Serif" font-size="10.00">size()</text>
<text text-anchor="start" x="72" y="-1288.5" font-family="Helvetica,sans-Serif" font-size="10.00">+</text>
<text text-anchor="start" x="85" y="-1288.5" font-family="Helvetica,sans-Serif" font-size="10.00">rsize()</text>
<text text-anchor="start" x="72" y="-1273.5" font-family="Helvetica,sans-Serif" font-size="10.00">+</text>
<text text-anchor="start" x="85" y="-1273.5" font-family="Helvetica,sans-Serif" font-size="10.00">height()</text>
<text text-anchor="start" x="72" y="-1258.5" font-family="Helvetica,sans-Serif" font-size="10.00">+</text>
<text text-anchor="start" x="85" y="-1258.5" font-family="Helvetica,sans-Serif" font-size="10.00">rheight()</text>
<text text-anchor="start" x="72" y="-1243.5" font-family="Helvetica,sans-Serif" font-size="10.00">+</text>
<text text-anchor="start" x="85" y="-1243.5" font-family="Helvetica,sans-Serif" font-size="10.00">IsUnique()</text>
<text text-anchor="start" x="72" y="-1228.5" font-family="Helvetica,sans-Serif" font-size="10.00">+</text>
<text text-anchor="start" x="85" y="-1228.5" font-family="Helvetica,sans-Serif" font-size="10.00">AllUniqueNames()</text>
<text text-anchor="start" x="74.5" y="-1213.5" font-family="Helvetica,sans-Serif" font-size="10.00">&#45;</text>
<text text-anchor="start" x="85" y="-1213.5" font-family="Helvetica,sans-Serif" font-size="10.00">AddCurve()</text>
<text text-anchor="start" x="74.5" y="-1198.5" font-family="Helvetica,sans-Serif" font-size="10.00">&#45;</text>
<text text-anchor="start" x="85" y="-1198.5" font-family="Helvetica,sans-Serif" font-size="10.00">qHash()</text>
<text text-anchor="start" x="74.5" y="-1183.5" font-family="Helvetica,sans-Serif" font-size="10.00">&#45;</text>
<text text-anchor="start" x="85" y="-1183.5" font-family="Helvetica,sans-Serif" font-size="10.00">GetObject()</text>
<text text-anchor="start" x="74.5" y="-1168.5" font-family="Helvetica,sans-Serif" font-size="10.00">&#45;</text>
<text text-anchor="start" x="85" y="-1168.5" font-family="Helvetica,sans-Serif" font-size="10.00">UpdateObject()</text>
<text text-anchor="start" x="74.5" y="-1153.5" font-family="Helvetica,sans-Serif" font-size="10.00">&#45;</text>
<text text-anchor="start" x="85" y="-1153.5" font-family="Helvetica,sans-Serif" font-size="10.00">DataVar()</text>
<text text-anchor="start" x="74.5" y="-1138.5" font-family="Helvetica,sans-Serif" font-size="10.00">&#45;</text>
<text text-anchor="start" x="85" y="-1138.5" font-family="Helvetica,sans-Serif" font-size="10.00">AddObject()</text>
<polygon fill="#666666" stroke="#666666" points="68,-1673.5 68,-1673.5 230,-1673.5 230,-1673.5 68,-1673.5"/>
<polygon fill="#666666" stroke="#666666" points="68,-1598.5 68,-1598.5 83,-1598.5 83,-1598.5 68,-1598.5"/>
<polygon fill="#666666" stroke="#666666" points="83,-1598.5 83,-1598.5 230,-1598.5 230,-1598.5 83,-1598.5"/>
<polygon fill="none" stroke="#666666" points="68,-1132 68,-1691 230,-1691 230,-1132 68,-1132"/>
</a>
</g>
</g>
<!-- Node5&#45;&gt;Node3 -->
<g id="edge4_Node000003_Node000005" class="edge">
<title>Node5&#45;&gt;Node3</title>
<g id="a_edge4_Node000003_Node000005"><a xlink:title=" ">
<path fill="none" stroke="#63b8ff" d="M149,-1131.78C149,-1120.47 149,-1109.11 149,-1097.74"/>
<polygon fill="none" stroke="#63b8ff" points="149,-1097.42 145,-1091.42 149,-1085.42 153,-1091.42 149,-1097.42"/>
</a>
</g>
<text text-anchor="middle" x="166" y="-1106" font-family="Helvetica,sans-Serif" font-size="10.00" fill="grey"> #data</text>
</g>
<!-- Node6 -->
<g id="Node000006" class="node">
<title>Node6</title>
<g id="a_Node000006"><a xlink:href="../../dd/da2/classVScaledLine.html" target="_top" xlink:title=" ">
<polygon fill="white" stroke="transparent" points="338.5,-860 237.5,-860 237.5,-721 338.5,-721 338.5,-860"/>
<text text-anchor="start" x="258.5" y="-847.5" font-family="Helvetica,sans-Serif" font-size="10.00">VScaledLine</text>
<text text-anchor="start" x="244.5" y="-832.5" font-family="Helvetica,sans-Serif" font-size="10.00">&#45;</text>
<text text-anchor="start" x="255" y="-832.5" font-family="Helvetica,sans-Serif" font-size="10.00">basicWidth</text>
<text text-anchor="start" x="242" y="-817.5" font-family="Helvetica,sans-Serif" font-size="10.00">+</text>
<text text-anchor="start" x="255" y="-817.5" font-family="Helvetica,sans-Serif" font-size="10.00">VScaledLine()</text>
<text text-anchor="start" x="242" y="-802.5" font-family="Helvetica,sans-Serif" font-size="10.00">+</text>
<text text-anchor="start" x="255" y="-802.5" font-family="Helvetica,sans-Serif" font-size="10.00">VScaledLine()</text>
<text text-anchor="start" x="242" y="-787.5" font-family="Helvetica,sans-Serif" font-size="10.00">+</text>
<text text-anchor="start" x="255" y="-787.5" font-family="Helvetica,sans-Serif" font-size="10.00">~VScaledLine()</text>
<text text-anchor="start" x="242" y="-772.5" font-family="Helvetica,sans-Serif" font-size="10.00">+</text>
<text text-anchor="start" x="255" y="-772.5" font-family="Helvetica,sans-Serif" font-size="10.00">type()</text>
<text text-anchor="start" x="242" y="-757.5" font-family="Helvetica,sans-Serif" font-size="10.00">+</text>
<text text-anchor="start" x="255" y="-757.5" font-family="Helvetica,sans-Serif" font-size="10.00">paint()</text>
<text text-anchor="start" x="242" y="-742.5" font-family="Helvetica,sans-Serif" font-size="10.00">+</text>
<text text-anchor="start" x="255" y="-742.5" font-family="Helvetica,sans-Serif" font-size="10.00">GetBasicWidth()</text>
<text text-anchor="start" x="242" y="-727.5" font-family="Helvetica,sans-Serif" font-size="10.00">+</text>
<text text-anchor="start" x="255" y="-727.5" font-family="Helvetica,sans-Serif" font-size="10.00">setBasicWidth()</text>
<polygon fill="#666666" stroke="#666666" points="238,-842.5 238,-842.5 339,-842.5 339,-842.5 238,-842.5"/>
<polygon fill="#666666" stroke="#666666" points="238,-827.5 238,-827.5 253,-827.5 253,-827.5 238,-827.5"/>
<polygon fill="#666666" stroke="#666666" points="253,-827.5 253,-827.5 339,-827.5 339,-827.5 253,-827.5"/>
<polygon fill="none" stroke="#666666" points="237.5,-721 237.5,-860 338.5,-860 338.5,-721 237.5,-721"/>
</a>
</g>
</g>
<!-- Node6&#45;&gt;Node2 -->
<g id="edge5_Node000002_Node000006" class="edge">
<title>Node6&#45;&gt;Node2</title>
<g id="a_edge5_Node000002_Node000006"><a xlink:title=" ">
<path fill="none" stroke="#63b8ff" d="M288,-710.38C288,-639.57 288,-535.47 288,-459.23"/>
<polygon fill="none" stroke="#63b8ff" points="284.5,-710.57 288,-720.57 291.5,-710.57 284.5,-710.57"/>
</a>
</g>
</g>
<!-- Node7 -->
<g id="Node000007" class="node">
<title>Node7</title>
<g id="a_Node000007"><a xlink:title=" ">
<polygon fill="white" stroke="transparent" points="352,-1436 248,-1436 248,-1387 352,-1387 352,-1436"/>
<text text-anchor="start" x="253" y="-1423.5" font-family="Helvetica,sans-Serif" font-size="10.00">QGraphicsLineItem</text>
<text text-anchor="start" x="298" y="-1408.5" font-family="Helvetica,sans-Serif" font-size="10.00"> </text>
<text text-anchor="start" x="298" y="-1393.5" font-family="Helvetica,sans-Serif" font-size="10.00"> </text>
<polygon fill="#666666" stroke="#666666" points="248,-1418.5 248,-1418.5 352,-1418.5 352,-1418.5 248,-1418.5"/>
<polygon fill="#666666" stroke="#666666" points="248,-1403.5 248,-1403.5 352,-1403.5 352,-1403.5 248,-1403.5"/>
<polygon fill="none" stroke="#666666" points="248,-1387 248,-1436 352,-1436 352,-1387 248,-1387"/>
</a>
</g>
</g>
<!-- Node7&#45;&gt;Node6 -->
<g id="edge6_Node000006_Node000007" class="edge">
<title>Node7&#45;&gt;Node6</title>
<g id="a_edge6_Node000006_Node000007"><a xlink:title=" ">
<path fill="none" stroke="#63b8ff" d="M299.35,-1376.78C297.45,-1278.74 291.89,-992.38 289.33,-860.03"/>
<polygon fill="none" stroke="#63b8ff" points="295.85,-1377.06 299.54,-1386.99 302.85,-1376.92 295.85,-1377.06"/>
</a>
</g>
</g>
<!-- Node8 -->
<g id="Node000008" class="node">
<title>Node8</title>
<g id="a_Node000008"><a xlink:href="../../d8/dbf/classVScaledEllipse.html" target="_top" xlink:title=" ">
<polygon fill="white" stroke="transparent" points="465.5,-406.5 356.5,-406.5 356.5,-312.5 465.5,-312.5 465.5,-406.5"/>
<text text-anchor="start" x="375.5" y="-394.5" font-family="Helvetica,sans-Serif" font-size="10.00">VScaledEllipse</text>
<text text-anchor="start" x="409.5" y="-379.5" font-family="Helvetica,sans-Serif" font-size="10.00"> </text>
<text text-anchor="start" x="361" y="-364.5" font-family="Helvetica,sans-Serif" font-size="10.00">+</text>
<text text-anchor="start" x="374" y="-364.5" font-family="Helvetica,sans-Serif" font-size="10.00">VScaledEllipse()</text>
<text text-anchor="start" x="361" y="-349.5" font-family="Helvetica,sans-Serif" font-size="10.00">+</text>
<text text-anchor="start" x="374" y="-349.5" font-family="Helvetica,sans-Serif" font-size="10.00">~VScaledEllipse()</text>
<text text-anchor="start" x="361" y="-334.5" font-family="Helvetica,sans-Serif" font-size="10.00">+</text>
<text text-anchor="start" x="374" y="-334.5" font-family="Helvetica,sans-Serif" font-size="10.00">type()</text>
<text text-anchor="start" x="361" y="-319.5" font-family="Helvetica,sans-Serif" font-size="10.00">+</text>
<text text-anchor="start" x="374" y="-319.5" font-family="Helvetica,sans-Serif" font-size="10.00">paint()</text>
<polygon fill="#666666" stroke="#666666" points="357,-389.5 357,-389.5 466,-389.5 466,-389.5 357,-389.5"/>
<polygon fill="#666666" stroke="#666666" points="357,-374.5 357,-374.5 466,-374.5 466,-374.5 357,-374.5"/>
<polygon fill="none" stroke="#666666" points="356.5,-312.5 356.5,-406.5 465.5,-406.5 465.5,-312.5 356.5,-312.5"/>
</a>
</g>
</g>
<!-- Node8&#45;&gt;Node1 -->
<g id="edge7_Node000001_Node000008" class="edge">
<title>Node8&#45;&gt;Node1</title>
<g id="a_edge7_Node000001_Node000008"><a xlink:title=" ">
<path fill="none" stroke="#63b8ff" d="M400.89,-312.5C393.01,-276.65 381.8,-225.64 372,-181.06"/>
<polygon fill="none" stroke="#63b8ff" points="371.99,-180.99 366.79,-175.99 369.41,-169.27 374.61,-174.27 371.99,-180.99"/>
</a>
</g>
<text text-anchor="middle" x="411" y="-234" font-family="Helvetica,sans-Serif" font-size="10.00" fill="grey"> &#45;arc_point</text>
<text text-anchor="middle" x="411" y="-223" font-family="Helvetica,sans-Serif" font-size="10.00" fill="grey">&#45;circle</text>
<text text-anchor="middle" x="411" y="-212" font-family="Helvetica,sans-Serif" font-size="10.00" fill="grey">&#45;lineP1</text>
<text text-anchor="middle" x="411" y="-201" font-family="Helvetica,sans-Serif" font-size="10.00" fill="grey">&#45;lineP2</text>
<text text-anchor="middle" x="411" y="-190" font-family="Helvetica,sans-Serif" font-size="10.00" fill="grey">&#45;point</text>
</g>
<!-- Node9 -->
<g id="Node000009" class="node">
<title>Node9</title>
<g id="a_Node000009"><a xlink:title=" ">
<polygon fill="white" stroke="transparent" points="473,-815 357,-815 357,-766 473,-766 473,-815"/>
<text text-anchor="start" x="362" y="-802.5" font-family="Helvetica,sans-Serif" font-size="10.00">QGraphicsEllipseItem</text>
<text text-anchor="start" x="413" y="-787.5" font-family="Helvetica,sans-Serif" font-size="10.00"> </text>
<text text-anchor="start" x="413" y="-772.5" font-family="Helvetica,sans-Serif" font-size="10.00"> </text>
<polygon fill="#666666" stroke="#666666" points="357,-797.5 357,-797.5 473,-797.5 473,-797.5 357,-797.5"/>
<polygon fill="#666666" stroke="#666666" points="357,-782.5 357,-782.5 473,-782.5 473,-782.5 357,-782.5"/>
<polygon fill="none" stroke="#666666" points="357,-766 357,-815 473,-815 473,-766 357,-766"/>
</a>
</g>
</g>
<!-- Node9&#45;&gt;Node8 -->
<g id="edge8_Node000008_Node000009" class="edge">
<title>Node9&#45;&gt;Node8</title>
<g id="a_edge8_Node000008_Node000009"><a xlink:title=" ">
<path fill="none" stroke="#63b8ff" d="M414.69,-755.81C413.97,-679.51 412.24,-493.41 411.43,-406.55"/>
<polygon fill="none" stroke="#63b8ff" points="411.19,-755.86 414.78,-765.82 418.19,-755.79 411.19,-755.86"/>
</a>
</g>
</g>
</g>
</svg>
