<?xml version="1.0" encoding="UTF-8" standalone="no"?>
<!DOCTYPE svg PUBLIC "-//W3C//DTD SVG 1.1//EN"
 "http://www.w3.org/Graphics/SVG/1.1/DTD/svg11.dtd">
<!-- Generated by graphviz version 2.43.0 (0)
 -->
<!-- Title: ImageItem Pages: 1 -->
<!--zoomable 837 -->
<svg id="main" version="1.1" xmlns="http://www.w3.org/2000/svg" xmlns:xlink="http://www.w3.org/1999/xlink" xml:space="preserve" onload="init(evt)">
<style type="text/css"><![CDATA[
.edge:hover path { stroke: red; }
.edge:hover polygon { stroke: red; fill: red; }
]]></style>
<script type="text/javascript"><![CDATA[
var edges = document.getElementsByTagName('g');
if (edges && edges.length) {
  for (var i=0;i<edges.length;i++) {
    if (edges[i].id.substr(0,4)=='edge') {
      edges[i].setAttribute('class','edge');
    }
  }
}
]]></script>
        <defs>
                <circle id="rim" cx="0" cy="0" r="7"/>
                <circle id="rim2" cx="0" cy="0" r="3.5"/>
                <g id="zoomPlus">
                        <use xlink:href="#rim" fill="#404040">
                                <set attributeName="fill" to="#808080" begin="zoomplus.mouseover" end="zoomplus.mouseout"/>
                        </use>
                        <path d="M-4,0h8M0,-4v8" fill="none" stroke="white" stroke-width="1.5" pointer-events="none"/>
                </g>
                <g id="zoomMin">
                        <use xlink:href="#rim" fill="#404040">
                                <set attributeName="fill" to="#808080" begin="zoomminus.mouseover" end="zoomminus.mouseout"/>
                        </use>
                        <path d="M-4,0h8" fill="none" stroke="white" stroke-width="1.5" pointer-events="none"/>
                </g>
                <g id="dirArrow">
                        <path fill="none" stroke="white" stroke-width="1.5" d="M0,-3.0v7 M-2.5,-0.5L0,-3.0L2.5,-0.5"/>
                </g>
               <g id="resetDef">
                       <use xlink:href="#rim2" fill="#404040">
                               <set attributeName="fill" to="#808080" begin="reset.mouseover" end="reset.mouseout"/>
                       </use>
               </g>
        </defs>

<script type="text/javascript">
var viewWidth = 541;
var viewHeight = 837;
var sectionId = 'dynsection-1';
</script>
<script xlink:href="../../svgpan.js"/>
<svg id="graph" class="graph">
<g id="viewport">
<title>ImageItem</title>
<polygon fill="white" stroke="transparent" points="-4,4 -4,-833 536.5,-833 536.5,4 -4,4"/>
<!-- Node1 -->
<g id="node1" class="node">
<title>Node1</title>
<g id="a_node1"><a xlink:title="The ImageItem class pointer label.">
<polygon fill="#bfbfbf" stroke="black" points="190.5,-0.5 190.5,-464.5 351.5,-464.5 351.5,-0.5 190.5,-0.5"/>
<text text-anchor="middle" x="271" y="-452.5" font-family="Helvetica,sans-Serif" font-size="10.00">ImageItem</text>
<polyline fill="none" stroke="black" points="190.5,-445.5 351.5,-445.5 "/>
<text text-anchor="start" x="198.5" y="-433.5" font-family="Helvetica,sans-Serif" font-size="10.00">+ maxImageZvalue</text>
<text text-anchor="start" x="198.5" y="-422.5" font-family="Helvetica,sans-Serif" font-size="10.00">&#45; m_offset</text>
<text text-anchor="start" x="198.5" y="-411.5" font-family="Helvetica,sans-Serif" font-size="10.00">&#45; m_boundingRect</text>
<text text-anchor="start" x="198.5" y="-400.5" font-family="Helvetica,sans-Serif" font-size="10.00">&#45; m_handleRect</text>
<text text-anchor="start" x="198.5" y="-389.5" font-family="Helvetica,sans-Serif" font-size="10.00">&#45; m_actualRect</text>
<text text-anchor="start" x="198.5" y="-378.5" font-family="Helvetica,sans-Serif" font-size="10.00">&#45; m_resizePosition</text>
<text text-anchor="start" x="198.5" y="-367.5" font-family="Helvetica,sans-Serif" font-size="10.00">&#45; m_rotateLine</text>
<text text-anchor="start" x="198.5" y="-356.5" font-family="Helvetica,sans-Serif" font-size="10.00">&#45; m_angleHandle</text>
<text text-anchor="start" x="198.5" y="-345.5" font-family="Helvetica,sans-Serif" font-size="10.00">&#45; m_angle</text>
<text text-anchor="start" x="198.5" y="-334.5" font-family="Helvetica,sans-Serif" font-size="10.00">&#45; m_mousePressed</text>
<text text-anchor="start" x="198.5" y="-323.5" font-family="Helvetica,sans-Serif" font-size="10.00">&#45; m_isHovered</text>
<text text-anchor="start" x="198.5" y="-312.5" font-family="Helvetica,sans-Serif" font-size="10.00">&#45; m_selectionType</text>
<text text-anchor="start" x="198.5" y="-301.5" font-family="Helvetica,sans-Serif" font-size="10.00">&#45; m_transformationMode</text>
<text text-anchor="start" x="198.5" y="-290.5" font-family="Helvetica,sans-Serif" font-size="10.00">&#45; m_pixmapWidth</text>
<text text-anchor="start" x="198.5" y="-279.5" font-family="Helvetica,sans-Serif" font-size="10.00">&#45; m_pixmapHeight</text>
<text text-anchor="start" x="198.5" y="-268.5" font-family="Helvetica,sans-Serif" font-size="10.00">&#45; m_selectable</text>
<polyline fill="none" stroke="black" points="190.5,-261.5 351.5,-261.5 "/>
<text text-anchor="start" x="198.5" y="-249.5" font-family="Helvetica,sans-Serif" font-size="10.00">+ ImageItem()</text>
<text text-anchor="start" x="198.5" y="-238.5" font-family="Helvetica,sans-Serif" font-size="10.00">+ ~ImageItem()</text>
<text text-anchor="start" x="198.5" y="-227.5" font-family="Helvetica,sans-Serif" font-size="10.00">+ type()</text>
<text text-anchor="start" x="198.5" y="-216.5" font-family="Helvetica,sans-Serif" font-size="10.00">+ boundingRect()</text>
<text text-anchor="start" x="198.5" y="-205.5" font-family="Helvetica,sans-Serif" font-size="10.00">+ paint()</text>
<text text-anchor="start" x="198.5" y="-194.5" font-family="Helvetica,sans-Serif" font-size="10.00">+ moveToBottom()</text>
<text text-anchor="start" x="198.5" y="-183.5" font-family="Helvetica,sans-Serif" font-size="10.00">+ moveToTop()</text>
<text text-anchor="start" x="198.5" y="-172.5" font-family="Helvetica,sans-Serif" font-size="10.00">+ moveUp()</text>
<text text-anchor="start" x="198.5" y="-161.5" font-family="Helvetica,sans-Serif" font-size="10.00">+ moveDown()</text>
<text text-anchor="start" x="198.5" y="-150.5" font-family="Helvetica,sans-Serif" font-size="10.00">+ getImage()</text>
<text text-anchor="start" x="198.5" y="-139.5" font-family="Helvetica,sans-Serif" font-size="10.00">and 7 more...</text>
<text text-anchor="start" x="198.5" y="-128.5" font-family="Helvetica,sans-Serif" font-size="10.00"># hoverEnterEvent()</text>
<text text-anchor="start" x="198.5" y="-117.5" font-family="Helvetica,sans-Serif" font-size="10.00"># hoverMoveEvent()</text>
<text text-anchor="start" x="198.5" y="-106.5" font-family="Helvetica,sans-Serif" font-size="10.00"># hoverLeaveEvent()</text>
<text text-anchor="start" x="198.5" y="-95.5" font-family="Helvetica,sans-Serif" font-size="10.00"># contextMenuEvent()</text>
<text text-anchor="start" x="198.5" y="-84.5" font-family="Helvetica,sans-Serif" font-size="10.00"># mousePressEvent()</text>
<text text-anchor="start" x="198.5" y="-73.5" font-family="Helvetica,sans-Serif" font-size="10.00"># mouseMoveEvent()</text>
<text text-anchor="start" x="198.5" y="-62.5" font-family="Helvetica,sans-Serif" font-size="10.00"># mouseReleaseEvent()</text>
<text text-anchor="start" x="198.5" y="-51.5" font-family="Helvetica,sans-Serif" font-size="10.00"># keyReleaseEvent()</text>
<text text-anchor="start" x="198.5" y="-40.5" font-family="Helvetica,sans-Serif" font-size="10.00">&#45; initializeItem()</text>
<text text-anchor="start" x="198.5" y="-29.5" font-family="Helvetica,sans-Serif" font-size="10.00">&#45; updateFromHandles()</text>
<text text-anchor="start" x="198.5" y="-18.5" font-family="Helvetica,sans-Serif" font-size="10.00">&#45; setPixmap()</text>
<text text-anchor="start" x="198.5" y="-7.5" font-family="Helvetica,sans-Serif" font-size="10.00">&#45; showImageStatusMessage()</text>
</a>
</g>
</g>
<!-- Node2 -->
<g id="node2" class="node">
<title>Node2</title>
<g id="a_node2"><a xlink:title=" ">
<polygon fill="white" stroke="#bfbfbf" points="0,-766 0,-823 56,-823 56,-766 0,-766"/>
<text text-anchor="middle" x="28" y="-811" font-family="Helvetica,sans-Serif" font-size="10.00">QObject</text>
<polyline fill="none" stroke="#bfbfbf" points="0,-804 56,-804 "/>
<text text-anchor="middle" x="28" y="-792" font-family="Helvetica,sans-Serif" font-size="10.00"> </text>
<polyline fill="none" stroke="#bfbfbf" points="0,-785 56,-785 "/>
<text text-anchor="middle" x="28" y="-773" font-family="Helvetica,sans-Serif" font-size="10.00"> </text>
</a>
</g>
</g>
<!-- Node2&#45;&gt;Node1 -->
<g id="edge1" class="edge">
<title>Node2&#45;&gt;Node1</title>
<path fill="none" stroke="midnightblue" d="M28.43,-755.51C30.27,-700 38.35,-594.38 72,-512 100.14,-443.09 148.38,-374.95 190.32,-323.31"/>
<polygon fill="none" stroke="midnightblue" points="24.93,-755.5 28.15,-765.6 31.93,-755.7 24.93,-755.5"/>
</g>
<!-- Node5 -->
<g id="node5" class="node">
<title>Node5</title>
<g id="a_node5"><a xlink:href="../../d0/de9/classResizeHandlesItem.html" target="_top" xlink:title=" ">
<polygon fill="white" stroke="black" points="81.5,-512.5 81.5,-712.5 224.5,-712.5 224.5,-512.5 81.5,-512.5"/>
<text text-anchor="middle" x="153" y="-700.5" font-family="Helvetica,sans-Serif" font-size="10.00">ResizeHandlesItem</text>
<polyline fill="none" stroke="black" points="81.5,-693.5 224.5,-693.5 "/>
<text text-anchor="start" x="89.5" y="-681.5" font-family="Helvetica,sans-Serif" font-size="10.00">&#45; m_parentRect</text>
<text text-anchor="start" x="89.5" y="-670.5" font-family="Helvetica,sans-Serif" font-size="10.00">&#45; m_lockAspectRatio</text>
<text text-anchor="start" x="89.5" y="-659.5" font-family="Helvetica,sans-Serif" font-size="10.00">&#45; m_parentRotation</text>
<polyline fill="none" stroke="black" points="81.5,-652.5 224.5,-652.5 "/>
<text text-anchor="start" x="89.5" y="-640.5" font-family="Helvetica,sans-Serif" font-size="10.00">+ ResizeHandlesItem()</text>
<text text-anchor="start" x="89.5" y="-629.5" font-family="Helvetica,sans-Serif" font-size="10.00">+ ~ResizeHandlesItem()</text>
<text text-anchor="start" x="89.5" y="-618.5" font-family="Helvetica,sans-Serif" font-size="10.00">+ type()</text>
<text text-anchor="start" x="89.5" y="-607.5" font-family="Helvetica,sans-Serif" font-size="10.00">+ boundingRect()</text>
<text text-anchor="start" x="89.5" y="-596.5" font-family="Helvetica,sans-Serif" font-size="10.00">+ paint()</text>
<text text-anchor="start" x="89.5" y="-585.5" font-family="Helvetica,sans-Serif" font-size="10.00">+ setTopLeft()</text>
<text text-anchor="start" x="89.5" y="-574.5" font-family="Helvetica,sans-Serif" font-size="10.00">+ setTop()</text>
<text text-anchor="start" x="89.5" y="-563.5" font-family="Helvetica,sans-Serif" font-size="10.00">+ setTopRight()</text>
<text text-anchor="start" x="89.5" y="-552.5" font-family="Helvetica,sans-Serif" font-size="10.00">+ setRight()</text>
<text text-anchor="start" x="89.5" y="-541.5" font-family="Helvetica,sans-Serif" font-size="10.00">+ setBottomRight()</text>
<text text-anchor="start" x="89.5" y="-530.5" font-family="Helvetica,sans-Serif" font-size="10.00">and 6 more...</text>
<text text-anchor="start" x="89.5" y="-519.5" font-family="Helvetica,sans-Serif" font-size="10.00">&#45; updateHandlePositions()</text>
</a>
</g>
</g>
<!-- Node2&#45;&gt;Node5 -->
<g id="edge5" class="edge">
<title>Node2&#45;&gt;Node5</title>
<path fill="none" stroke="midnightblue" d="M52.99,-757.51C62.12,-744.37 72.93,-728.8 84.02,-712.82"/>
<polygon fill="none" stroke="midnightblue" points="50.09,-755.56 47.26,-765.77 55.84,-759.55 50.09,-755.56"/>
</g>
<!-- Node3 -->
<g id="node3" class="node">
<title>Node3</title>
<g id="a_node3"><a xlink:title=" ">
<polygon fill="white" stroke="#bfbfbf" points="239.5,-766 239.5,-823 328.5,-823 328.5,-766 239.5,-766"/>
<text text-anchor="middle" x="284" y="-811" font-family="Helvetica,sans-Serif" font-size="10.00">QGraphicsItem</text>
<polyline fill="none" stroke="#bfbfbf" points="239.5,-804 328.5,-804 "/>
<text text-anchor="middle" x="284" y="-792" font-family="Helvetica,sans-Serif" font-size="10.00"> </text>
<polyline fill="none" stroke="#bfbfbf" points="239.5,-785 328.5,-785 "/>
<text text-anchor="middle" x="284" y="-773" font-family="Helvetica,sans-Serif" font-size="10.00"> </text>
</a>
</g>
</g>
<!-- Node3&#45;&gt;Node1 -->
<g id="edge2" class="edge">
<title>Node3&#45;&gt;Node1</title>
<path fill="none" stroke="midnightblue" d="M283.12,-755.63C281.73,-695.84 278.93,-574.97 276.36,-464.58"/>
<polygon fill="none" stroke="midnightblue" points="279.62,-755.81 283.36,-765.73 286.62,-755.65 279.62,-755.81"/>
</g>
<!-- Node3&#45;&gt;Node5 -->
<g id="edge6" class="edge">
<title>Node3&#45;&gt;Node5</title>
<path fill="none" stroke="midnightblue" d="M257.72,-757.39C248.02,-744.06 236.5,-728.23 224.71,-712.04"/>
<polygon fill="none" stroke="midnightblue" points="255.1,-759.74 263.82,-765.77 260.76,-755.62 255.1,-759.74"/>
</g>
<!-- Node4 -->
<g id="node4" class="node">
<title>Node4</title>
<g id="a_node4"><a xlink:href="../../d3/df8/structDraftImage.html" target="_top" xlink:title=" ">
<polygon fill="white" stroke="black" points="299,-529 299,-696 389,-696 389,-529 299,-529"/>
<text text-anchor="middle" x="344" y="-684" font-family="Helvetica,sans-Serif" font-size="10.00">DraftImage</text>
<polyline fill="none" stroke="black" points="299,-677 389,-677 "/>
<text text-anchor="start" x="307" y="-665" font-family="Helvetica,sans-Serif" font-size="10.00">+ id</text>
<text text-anchor="start" x="307" y="-654" font-family="Helvetica,sans-Serif" font-size="10.00">+ name</text>
<text text-anchor="start" x="307" y="-643" font-family="Helvetica,sans-Serif" font-size="10.00">+ filename</text>
<text text-anchor="start" x="307" y="-632" font-family="Helvetica,sans-Serif" font-size="10.00">+ pixmap</text>
<text text-anchor="start" x="307" y="-621" font-family="Helvetica,sans-Serif" font-size="10.00">+ locked</text>
<text text-anchor="start" x="307" y="-610" font-family="Helvetica,sans-Serif" font-size="10.00">+ origin</text>
<text text-anchor="start" x="307" y="-599" font-family="Helvetica,sans-Serif" font-size="10.00">+ anchor</text>
<text text-anchor="start" x="307" y="-588" font-family="Helvetica,sans-Serif" font-size="10.00">+ xPos</text>
<text text-anchor="start" x="307" y="-577" font-family="Helvetica,sans-Serif" font-size="10.00">+ yPos</text>
<text text-anchor="start" x="307" y="-566" font-family="Helvetica,sans-Serif" font-size="10.00">+ width</text>
<text text-anchor="start" x="307" y="-555" font-family="Helvetica,sans-Serif" font-size="10.00">and 9 more...</text>
<polyline fill="none" stroke="black" points="299,-548 389,-548 "/>
<text text-anchor="start" x="307" y="-536" font-family="Helvetica,sans-Serif" font-size="10.00">+ DraftImage()</text>
</a>
</g>
</g>
<!-- Node4&#45;&gt;Node1 -->
<g id="edge3" class="edge">
<title>Node4&#45;&gt;Node1</title>
<path fill="none" stroke="#404040" d="M327.98,-528.55C324.87,-512.43 321.46,-494.78 317.91,-476.4"/>
<polygon fill="none" stroke="#404040" points="317.89,-476.32 312.83,-471.19 315.62,-464.54 320.68,-469.67 317.89,-476.32"/>
<text text-anchor="middle" x="346.5" y="-486" font-family="Helvetica,sans-Serif" font-size="10.00"> &#45;m_image</text>
</g>
<!-- Node5&#45;&gt;Node1 -->
<g id="edge4" class="edge">
<title>Node5&#45;&gt;Node1</title>
<path fill="none" stroke="#404040" d="M160.02,-512.41C161.62,-502.4 163.59,-492.45 166,-483 171.44,-461.67 178.4,-439.8 186.14,-418.29"/>
<polygon fill="none" stroke="#404040" points="186.25,-418 184.57,-410.99 190.39,-406.74 192.08,-413.75 186.25,-418"/>
<text text-anchor="middle" x="211.5" y="-486" font-family="Helvetica,sans-Serif" font-size="10.00"> &#45;m_resizeHandles</text>
</g>
<!-- Node6 -->
<g id="node6" class="node">
<title>Node6</title>
<g id="a_node6"><a xlink:href="../../d1/d4a/classQList.html" target="_top" xlink:title=" ">
<polygon fill="white" stroke="black" points="74.5,-760.5 74.5,-828.5 221.5,-828.5 221.5,-760.5 74.5,-760.5"/>
<text text-anchor="start" x="82.5" y="-816.5" font-family="Helvetica,sans-Serif" font-size="10.00">QList&lt; ResizeHandlesItem</text>
<text text-anchor="middle" x="148" y="-805.5" font-family="Helvetica,sans-Serif" font-size="10.00">::HandleItem * &gt;</text>
<polyline fill="none" stroke="black" points="74.5,-798.5 221.5,-798.5 "/>
<text text-anchor="middle" x="148" y="-786.5" font-family="Helvetica,sans-Serif" font-size="10.00"> </text>
<polyline fill="none" stroke="black" points="74.5,-779.5 221.5,-779.5 "/>
<text text-anchor="middle" x="148" y="-767.5" font-family="Helvetica,sans-Serif" font-size="10.00"> </text>
</a>
</g>
</g>
<!-- Node6&#45;&gt;Node5 -->
<g id="edge7" class="edge">
<title>Node6&#45;&gt;Node5</title>
<path fill="none" stroke="#404040" d="M148.42,-760.41C148.57,-750.92 148.76,-740.55 149,-731 149.05,-728.93 149.11,-726.84 149.16,-724.74"/>
<polygon fill="none" stroke="#404040" points="149.17,-724.54 145.34,-718.43 149.5,-712.54 153.33,-718.65 149.17,-724.54"/>
<text text-anchor="middle" x="190.5" y="-734" font-family="Helvetica,sans-Serif" font-size="10.00"> &#45;m_handleItems</text>
</g>
<!-- Node7 -->
<g id="node7" class="node">
<title>Node7</title>
<g id="a_node7"><a xlink:href="../../d1/d4a/classQList.html" target="_top" xlink:title=" ">
<polygon fill="white" stroke="black" points="407.5,-584 407.5,-641 532.5,-641 532.5,-584 407.5,-584"/>
<text text-anchor="middle" x="470" y="-629" font-family="Helvetica,sans-Serif" font-size="10.00">QList&lt; ImageItem * &gt;</text>
<polyline fill="none" stroke="black" points="407.5,-622 532.5,-622 "/>
<text text-anchor="middle" x="470" y="-610" font-family="Helvetica,sans-Serif" font-size="10.00"> </text>
<polyline fill="none" stroke="black" points="407.5,-603 532.5,-603 "/>
<text text-anchor="middle" x="470" y="-591" font-family="Helvetica,sans-Serif" font-size="10.00"> </text>
</a>
</g>
</g>
<!-- Node7&#45;&gt;Node1 -->
<g id="edge8" class="edge">
<title>Node7&#45;&gt;Node1</title>
<path fill="none" stroke="#404040" d="M455.37,-583.7C434.54,-544.13 394.71,-468.48 357.38,-397.59"/>
<polygon fill="none" stroke="#404040" points="357.25,-397.33 350.91,-393.88 351.66,-386.71 357.99,-390.16 357.25,-397.33"/>
<text text-anchor="middle" x="446" y="-486" font-family="Helvetica,sans-Serif" font-size="10.00"> +allImageItems</text>
</g>
</g>
</svg>
        <g id="navigator" transform="translate(0 0)" fill="#404254">
                <rect fill="#f2f5e9" fill-opacity="0.5" stroke="#606060" stroke-width=".5" x="0" y="0" width="60" height="60"/>
                <use id="zoomplus" xlink:href="#zoomPlus" x="17" y="9" onmousedown="handleZoom(evt,'in')"/>
                <use id="zoomminus" xlink:href="#zoomMin" x="42" y="9" onmousedown="handleZoom(evt,'out')"/>
                <use id="reset" xlink:href="#resetDef" x="30" y="36" onmousedown="handleReset()"/>
                <g id="arrowUp" xlink:href="#dirArrow" transform="translate(30 24)" onmousedown="handlePan(0,-1)">
                  <use xlink:href="#rim" fill="#404040">
                        <set attributeName="fill" to="#808080" begin="arrowUp.mouseover" end="arrowUp.mouseout"/>
                  </use>
                  <path fill="none" stroke="white" stroke-width="1.5" d="M0,-3.0v7 M-2.5,-0.5L0,-3.0L2.5,-0.5"/>
                </g>
                <g id="arrowRight" xlink:href="#dirArrow" transform="rotate(90) translate(36 -43)" onmousedown="handlePan(1,0)">
                  <use xlink:href="#rim" fill="#404040">
                        <set attributeName="fill" to="#808080" begin="arrowRight.mouseover" end="arrowRight.mouseout"/>
                  </use>
                  <path fill="none" stroke="white" stroke-width="1.5" d="M0,-3.0v7 M-2.5,-0.5L0,-3.0L2.5,-0.5"/>
                </g>
                <g id="arrowDown" xlink:href="#dirArrow" transform="rotate(180) translate(-30 -48)" onmousedown="handlePan(0,1)">
                  <use xlink:href="#rim" fill="#404040">
                        <set attributeName="fill" to="#808080" begin="arrowDown.mouseover" end="arrowDown.mouseout"/>
                  </use>
                  <path fill="none" stroke="white" stroke-width="1.5" d="M0,-3.0v7 M-2.5,-0.5L0,-3.0L2.5,-0.5"/>
                </g>
                <g id="arrowLeft" xlink:href="#dirArrow" transform="rotate(270) translate(-36 17)" onmousedown="handlePan(-1,0)">
                  <use xlink:href="#rim" fill="#404040">
                        <set attributeName="fill" to="#808080" begin="arrowLeft.mouseover" end="arrowLeft.mouseout"/>
                  </use>
                  <path fill="none" stroke="white" stroke-width="1.5" d="M0,-3.0v7 M-2.5,-0.5L0,-3.0L2.5,-0.5"/>
                </g>
        </g>
        <svg viewBox="0 0 15 15" width="100%" height="30px" preserveAspectRatio="xMaxYMin meet">
         <g id="arrow_out" transform="scale(0.3 0.3)">
          <a xlink:href="classImageItem__coll__graph_org.svg" target="_base">
           <rect id="button" ry="5" rx="5" y="6" x="6" height="38" width="38"
                fill="#f2f5e9" fill-opacity="0.5" stroke="#606060" stroke-width="1.0"/>
           <path id="arrow"
             d="M 11.500037,31.436501 C 11.940474,20.09759 22.043105,11.32322 32.158766,21.979434 L 37.068811,17.246167 C 37.068811,17.246167 37.088388,32 37.088388,32 L 22.160133,31.978069 C 22.160133,31.978069 26.997745,27.140456 26.997745,27.140456 C 18.528582,18.264221 13.291696,25.230495 11.500037,31.436501 z"
             style="fill:#404040;"/>
          </a>
         </g>
        </svg>
</svg>
