<?xml version="1.0" encoding="UTF-8" standalone="no"?>
<!DOCTYPE svg PUBLIC "-//W3C//DTD SVG 1.1//EN"
 "http://www.w3.org/Graphics/SVG/1.1/DTD/svg11.dtd">
<!-- Generated by graphviz version 2.43.0 (0)
 -->
<!-- Title: src/app/seamly2d/dialogs/abstractlayout_dialog.h Pages: 1 -->
<svg width="4179pt" height="307pt"
 viewBox="0.00 0.00 4178.50 307.00" xmlns="http://www.w3.org/2000/svg" xmlns:xlink="http://www.w3.org/1999/xlink">
<g id="graph0" class="graph" transform="scale(1 1) rotate(0) translate(4 303)">
<title>src/app/seamly2d/dialogs/abstractlayout_dialog.h</title>
<polygon fill="white" stroke="transparent" points="-4,4 -4,-303 4174.5,-303 4174.5,4 -4,4"/>
<!-- Node1 -->
<g id="node1" class="node">
<title>Node1</title>
<g id="a_node1"><a xlink:title=" ">
<polygon fill="#bfbfbf" stroke="black" points="1873.5,-268.5 1873.5,-298.5 2014.5,-298.5 2014.5,-268.5 1873.5,-268.5"/>
<text text-anchor="start" x="1881.5" y="-286.5" font-family="Helvetica,sans-Serif" font-size="10.00">src/app/seamly2d/dialogs</text>
<text text-anchor="middle" x="1944" y="-275.5" font-family="Helvetica,sans-Serif" font-size="10.00">/abstractlayout_dialog.h</text>
</a>
</g>
</g>
<!-- Node2 -->
<g id="node2" class="node">
<title>Node2</title>
<g id="a_node2"><a xlink:href="../../dd/db4/abstractlayout__dialog_8cpp.html" target="_top" xlink:title=" ">
<polygon fill="white" stroke="black" points="0,-0.5 0,-30.5 146,-30.5 146,-0.5 0,-0.5"/>
<text text-anchor="start" x="8" y="-18.5" font-family="Helvetica,sans-Serif" font-size="10.00">src/app/seamly2d/dialogs</text>
<text text-anchor="middle" x="73" y="-7.5" font-family="Helvetica,sans-Serif" font-size="10.00">/abstractlayout_dialog.cpp</text>
</a>
</g>
</g>
<!-- Node1&#45;&gt;Node2 -->
<g id="edge1" class="edge">
<title>Node1&#45;&gt;Node2</title>
<path fill="none" stroke="midnightblue" d="M1863.25,-271.81C1654.2,-244.05 1078.14,-167.01 599,-98 401.47,-69.55 351.94,-63.27 155,-31 152.15,-30.53 149.24,-30.05 146.3,-29.56"/>
<polygon fill="midnightblue" stroke="midnightblue" points="1862.85,-275.29 1873.23,-273.13 1863.77,-268.35 1862.85,-275.29"/>
</g>
<!-- Node3 -->
<g id="node3" class="node">
<title>Node3</title>
<g id="a_node3"><a xlink:href="../../d3/dd8/layoutsettings__dialog_8h.html" target="_top" xlink:title=" ">
<polygon fill="white" stroke="black" points="1873.5,-201.5 1873.5,-231.5 2014.5,-231.5 2014.5,-201.5 1873.5,-201.5"/>
<text text-anchor="start" x="1881.5" y="-219.5" font-family="Helvetica,sans-Serif" font-size="10.00">src/app/seamly2d/dialogs</text>
<text text-anchor="middle" x="1944" y="-208.5" font-family="Helvetica,sans-Serif" font-size="10.00">/layoutsettings_dialog.h</text>
</a>
</g>
</g>
<!-- Node1&#45;&gt;Node3 -->
<g id="edge2" class="edge">
<title>Node1&#45;&gt;Node3</title>
<path fill="none" stroke="midnightblue" d="M1944,-258.11C1944,-249.15 1944,-239.32 1944,-231.58"/>
<polygon fill="midnightblue" stroke="midnightblue" points="1940.5,-258.4 1944,-268.4 1947.5,-258.4 1940.5,-258.4"/>
</g>
<!-- Node30 -->
<g id="node30" class="node">
<title>Node30</title>
<g id="a_node30"><a xlink:href="../../d1/d8e/export__layout__dialog_8h.html" target="_top" xlink:title=" ">
<polygon fill="white" stroke="black" points="3789.5,-201.5 3789.5,-231.5 3930.5,-231.5 3930.5,-201.5 3789.5,-201.5"/>
<text text-anchor="start" x="3797.5" y="-219.5" font-family="Helvetica,sans-Serif" font-size="10.00">src/app/seamly2d/dialogs</text>
<text text-anchor="middle" x="3860" y="-208.5" font-family="Helvetica,sans-Serif" font-size="10.00">/export_layout_dialog.h</text>
</a>
</g>
</g>
<!-- Node1&#45;&gt;Node30 -->
<g id="edge36" class="edge">
<title>Node1&#45;&gt;Node30</title>
<path fill="none" stroke="midnightblue" d="M2024.75,-279.76C2340.93,-269.03 3491.96,-229.99 3789.44,-219.89"/>
<polygon fill="midnightblue" stroke="midnightblue" points="2024.63,-276.26 2014.75,-280.1 2024.86,-283.26 2024.63,-276.26"/>
</g>
<!-- Node4 -->
<g id="node4" class="node">
<title>Node4</title>
<g id="a_node4"><a xlink:href="../../dd/d57/vcmdexport_8h.html" target="_top" xlink:title=" ">
<polygon fill="white" stroke="black" points="1939.5,-134.5 1939.5,-164.5 2066.5,-164.5 2066.5,-134.5 1939.5,-134.5"/>
<text text-anchor="start" x="1947.5" y="-152.5" font-family="Helvetica,sans-Serif" font-size="10.00">src/app/seamly2d/core</text>
<text text-anchor="middle" x="2003" y="-141.5" font-family="Helvetica,sans-Serif" font-size="10.00">/vcmdexport.h</text>
</a>
</g>
</g>
<!-- Node3&#45;&gt;Node4 -->
<g id="edge3" class="edge">
<title>Node3&#45;&gt;Node4</title>
<path fill="none" stroke="midnightblue" d="M1963.75,-193.74C1972.48,-184.12 1982.5,-173.09 1990.22,-164.58"/>
<polygon fill="midnightblue" stroke="midnightblue" points="1960.93,-191.64 1956.8,-201.4 1966.11,-196.34 1960.93,-191.64"/>
</g>
<!-- Node5 -->
<g id="node5" class="node">
<title>Node5</title>
<g id="a_node5"><a xlink:href="../../df/d9b/vcmdexport_8cpp.html" target="_top" xlink:title=" ">
<polygon fill="white" stroke="black" points="1807.5,-67.5 1807.5,-97.5 1934.5,-97.5 1934.5,-67.5 1807.5,-67.5"/>
<text text-anchor="start" x="1815.5" y="-85.5" font-family="Helvetica,sans-Serif" font-size="10.00">src/app/seamly2d/core</text>
<text text-anchor="middle" x="1871" y="-74.5" font-family="Helvetica,sans-Serif" font-size="10.00">/vcmdexport.cpp</text>
</a>
</g>
</g>
<!-- Node3&#45;&gt;Node5 -->
<g id="edge33" class="edge">
<title>Node3&#45;&gt;Node5</title>
<path fill="none" stroke="midnightblue" d="M1931.27,-192.48C1916.11,-165.07 1891.29,-120.19 1878.76,-97.52"/>
<polygon fill="midnightblue" stroke="midnightblue" points="1928.29,-194.32 1936.19,-201.37 1934.41,-190.93 1928.29,-194.32"/>
</g>
<!-- Node21 -->
<g id="node21" class="node">
<title>Node21</title>
<g id="a_node21"><a xlink:href="../../d0/dfa/layoutsettings__dialog_8cpp.html" target="_top" xlink:title=" ">
<polygon fill="white" stroke="black" points="164.5,-0.5 164.5,-30.5 309.5,-30.5 309.5,-0.5 164.5,-0.5"/>
<text text-anchor="start" x="172.5" y="-18.5" font-family="Helvetica,sans-Serif" font-size="10.00">src/app/seamly2d/dialogs</text>
<text text-anchor="middle" x="237" y="-7.5" font-family="Helvetica,sans-Serif" font-size="10.00">/layoutsettings_dialog.cpp</text>
</a>
</g>
</g>
<!-- Node3&#45;&gt;Node21 -->
<g id="edge34" class="edge">
<title>Node3&#45;&gt;Node21</title>
<path fill="none" stroke="midnightblue" d="M1862.98,-208.16C1625.17,-186.23 908.71,-117.29 318,-31 315.31,-30.61 312.58,-30.19 309.82,-29.76"/>
<polygon fill="midnightblue" stroke="midnightblue" points="1862.99,-211.68 1873.27,-209.11 1863.63,-204.71 1862.99,-211.68"/>
</g>
<!-- Node25 -->
<g id="node25" class="node">
<title>Node25</title>
<g id="a_node25"><a xlink:href="../../d8/de8/mainwindowsnogui_8cpp.html" target="_top" xlink:title=" ">
<polygon fill="white" stroke="black" points="3949.5,-6 3949.5,-25 4170.5,-25 4170.5,-6 3949.5,-6"/>
<text text-anchor="middle" x="4060" y="-13" font-family="Helvetica,sans-Serif" font-size="10.00">src/app/seamly2d/mainwindowsnogui.cpp</text>
</a>
</g>
</g>
<!-- Node3&#45;&gt;Node25 -->
<g id="edge35" class="edge">
<title>Node3&#45;&gt;Node25</title>
<path fill="none" stroke="midnightblue" d="M2025.06,-213.2C2268.59,-205.58 3014.77,-176.96 3628,-98 3775.42,-79.02 3948.55,-41.75 4022.96,-25"/>
<polygon fill="midnightblue" stroke="midnightblue" points="2024.77,-209.71 2014.88,-213.52 2024.98,-216.71 2024.77,-209.71"/>
</g>
<!-- Node4&#45;&gt;Node5 -->
<g id="edge4" class="edge">
<title>Node4&#45;&gt;Node5</title>
<path fill="none" stroke="midnightblue" d="M1965.13,-129.85C1944.26,-119.58 1918.77,-107.03 1899.59,-97.58"/>
<polygon fill="midnightblue" stroke="midnightblue" points="1963.84,-133.12 1974.36,-134.4 1966.93,-126.84 1963.84,-133.12"/>
</g>
<!-- Node6 -->
<g id="node6" class="node">
<title>Node6</title>
<g id="a_node6"><a xlink:href="../../d7/d61/application__2d_8h.html" target="_top" xlink:title=" ">
<polygon fill="white" stroke="black" points="1952.5,-67.5 1952.5,-97.5 2079.5,-97.5 2079.5,-67.5 1952.5,-67.5"/>
<text text-anchor="start" x="1960.5" y="-85.5" font-family="Helvetica,sans-Serif" font-size="10.00">src/app/seamly2d/core</text>
<text text-anchor="middle" x="2016" y="-74.5" font-family="Helvetica,sans-Serif" font-size="10.00">/application_2d.h</text>
</a>
</g>
</g>
<!-- Node4&#45;&gt;Node6 -->
<g id="edge5" class="edge">
<title>Node4&#45;&gt;Node6</title>
<path fill="none" stroke="midnightblue" d="M2007.82,-124.4C2009.63,-115.37 2011.62,-105.41 2013.18,-97.58"/>
<polygon fill="midnightblue" stroke="midnightblue" points="2004.35,-123.9 2005.82,-134.4 2011.21,-125.28 2004.35,-123.9"/>
</g>
<!-- Node29 -->
<g id="node29" class="node">
<title>Node29</title>
<g id="a_node29"><a xlink:href="../../d9/d53/mainwindow_8h.html" target="_top" xlink:title=" ">
<polygon fill="white" stroke="black" points="3443,-73 3443,-92 3619,-92 3619,-73 3443,-73"/>
<text text-anchor="middle" x="3531" y="-80" font-family="Helvetica,sans-Serif" font-size="10.00">src/app/seamly2d/mainwindow.h</text>
</a>
</g>
</g>
<!-- Node4&#45;&gt;Node29 -->
<g id="edge29" class="edge">
<title>Node4&#45;&gt;Node29</title>
<path fill="none" stroke="midnightblue" d="M2076.94,-145.35C2331.06,-134.54 3168.05,-98.94 3442.78,-87.25"/>
<polygon fill="midnightblue" stroke="midnightblue" points="2076.55,-141.87 2066.71,-145.79 2076.85,-148.86 2076.55,-141.87"/>
</g>
<!-- Node6&#45;&gt;Node2 -->
<g id="edge6" class="edge">
<title>Node6&#45;&gt;Node2</title>
<path fill="none" stroke="midnightblue" d="M1942.18,-67.08C1151.03,17.67 942.67,-108.1 155,-31 152.12,-30.72 149.19,-30.39 146.24,-30.03"/>
<polygon fill="midnightblue" stroke="midnightblue" points="1942.08,-70.59 1952.4,-68.18 1942.83,-63.63 1942.08,-70.59"/>
</g>
<!-- Node7 -->
<g id="node7" class="node">
<title>Node7</title>
<g id="a_node7"><a xlink:href="../../d7/dfa/calculator__dialog_8cpp.html" target="_top" xlink:title=" ">
<polygon fill="white" stroke="black" points="1599.5,-0.5 1599.5,-30.5 1740.5,-30.5 1740.5,-0.5 1599.5,-0.5"/>
<text text-anchor="start" x="1607.5" y="-18.5" font-family="Helvetica,sans-Serif" font-size="10.00">src/app/seamly2d/dialogs</text>
<text text-anchor="middle" x="1670" y="-7.5" font-family="Helvetica,sans-Serif" font-size="10.00">/calculator_dialog.cpp</text>
</a>
</g>
</g>
<!-- Node6&#45;&gt;Node7 -->
<g id="edge7" class="edge">
<title>Node6&#45;&gt;Node7</title>
<path fill="none" stroke="midnightblue" d="M1942.26,-66.87C1867.66,-52.6 1793.53,-38.95 1740.75,-29.32"/>
<polygon fill="midnightblue" stroke="midnightblue" points="1941.83,-70.35 1952.31,-68.8 1943.15,-63.48 1941.83,-70.35"/>
</g>
<!-- Node8 -->
<g id="node8" class="node">
<title>Node8</title>
<g id="a_node8"><a xlink:href="../../d9/d70/preferencesgraphicsviewpage_8cpp.html" target="_top" xlink:title=" ">
<polygon fill="white" stroke="black" points="1759,-0.5 1759,-30.5 2007,-30.5 2007,-0.5 1759,-0.5"/>
<text text-anchor="start" x="1767" y="-18.5" font-family="Helvetica,sans-Serif" font-size="10.00">src/app/seamly2d/dialogs</text>
<text text-anchor="middle" x="1883" y="-7.5" font-family="Helvetica,sans-Serif" font-size="10.00">/configpages/preferencesgraphicsviewpage.cpp</text>
</a>
</g>
</g>
<!-- Node6&#45;&gt;Node8 -->
<g id="edge8" class="edge">
<title>Node6&#45;&gt;Node8</title>
<path fill="none" stroke="midnightblue" d="M1978.13,-62.99C1957.05,-52.69 1931.22,-40.07 1911.8,-30.58"/>
<polygon fill="midnightblue" stroke="midnightblue" points="1976.62,-66.15 1987.14,-67.4 1979.69,-59.86 1976.62,-66.15"/>
</g>
<!-- Node9 -->
<g id="node9" class="node">
<title>Node9</title>
<g id="a_node9"><a xlink:href="../../d2/d2d/preferencesconfigurationpage_8cpp.html" target="_top" xlink:title=" ">
<polygon fill="white" stroke="black" points="2025.5,-0.5 2025.5,-30.5 2272.5,-30.5 2272.5,-0.5 2025.5,-0.5"/>
<text text-anchor="start" x="2033.5" y="-18.5" font-family="Helvetica,sans-Serif" font-size="10.00">src/app/seamly2d/dialogs</text>
<text text-anchor="middle" x="2149" y="-7.5" font-family="Helvetica,sans-Serif" font-size="10.00">/configpages/preferencesconfigurationpage.cpp</text>
</a>
</g>
</g>
<!-- Node6&#45;&gt;Node9 -->
<g id="edge9" class="edge">
<title>Node6&#45;&gt;Node9</title>
<path fill="none" stroke="midnightblue" d="M2053.87,-62.99C2074.95,-52.69 2100.78,-40.07 2120.2,-30.58"/>
<polygon fill="midnightblue" stroke="midnightblue" points="2052.31,-59.86 2044.86,-67.4 2055.38,-66.15 2052.31,-59.86"/>
</g>
<!-- Node10 -->
<g id="node10" class="node">
<title>Node10</title>
<g id="a_node10"><a xlink:href="../../d2/d00/vtooloptionspropertybrowser_8cpp.html" target="_top" xlink:title=" ">
<polygon fill="white" stroke="black" points="2291,-0.5 2291,-30.5 2471,-30.5 2471,-0.5 2291,-0.5"/>
<text text-anchor="start" x="2299" y="-18.5" font-family="Helvetica,sans-Serif" font-size="10.00">src/app/seamly2d/core</text>
<text text-anchor="middle" x="2381" y="-7.5" font-family="Helvetica,sans-Serif" font-size="10.00">/vtooloptionspropertybrowser.cpp</text>
</a>
</g>
</g>
<!-- Node6&#45;&gt;Node10 -->
<g id="edge10" class="edge">
<title>Node6&#45;&gt;Node10</title>
<path fill="none" stroke="midnightblue" d="M2089.63,-68.39C2151.32,-57.4 2239.18,-41.76 2302.26,-30.52"/>
<polygon fill="midnightblue" stroke="midnightblue" points="2088.81,-64.98 2079.58,-70.18 2090.04,-71.87 2088.81,-64.98"/>
</g>
<!-- Node11 -->
<g id="node11" class="node">
<title>Node11</title>
<g id="a_node11"><a xlink:href="../../dc/d20/preferencespathpage_8cpp.html" target="_top" xlink:title=" ">
<polygon fill="white" stroke="black" points="2489.5,-0.5 2489.5,-30.5 2694.5,-30.5 2694.5,-0.5 2489.5,-0.5"/>
<text text-anchor="start" x="2497.5" y="-18.5" font-family="Helvetica,sans-Serif" font-size="10.00">src/app/seamly2d/dialogs</text>
<text text-anchor="middle" x="2592" y="-7.5" font-family="Helvetica,sans-Serif" font-size="10.00">/configpages/preferencespathpage.cpp</text>
</a>
</g>
</g>
<!-- Node6&#45;&gt;Node11 -->
<g id="edge11" class="edge">
<title>Node6&#45;&gt;Node11</title>
<path fill="none" stroke="midnightblue" d="M2089.85,-73.93C2181.44,-64.43 2342.34,-47.4 2480,-31 2483.12,-30.63 2486.28,-30.25 2489.47,-29.86"/>
<polygon fill="midnightblue" stroke="midnightblue" points="2089.43,-70.46 2079.84,-74.97 2090.15,-77.42 2089.43,-70.46"/>
</g>
<!-- Node12 -->
<g id="node12" class="node">
<title>Node12</title>
<g id="a_node12"><a xlink:href="../../dc/d63/preferencespatternpage_8cpp.html" target="_top" xlink:title=" ">
<polygon fill="white" stroke="black" points="2713,-0.5 2713,-30.5 2931,-30.5 2931,-0.5 2713,-0.5"/>
<text text-anchor="start" x="2721" y="-18.5" font-family="Helvetica,sans-Serif" font-size="10.00">src/app/seamly2d/dialogs</text>
<text text-anchor="middle" x="2822" y="-7.5" font-family="Helvetica,sans-Serif" font-size="10.00">/configpages/preferencespatternpage.cpp</text>
</a>
</g>
</g>
<!-- Node6&#45;&gt;Node12 -->
<g id="edge12" class="edge">
<title>Node6&#45;&gt;Node12</title>
<path fill="none" stroke="midnightblue" d="M2089.83,-77.24C2215.78,-69.7 2480.14,-52.76 2703,-31 2706.21,-30.69 2709.47,-30.36 2712.76,-30.02"/>
<polygon fill="midnightblue" stroke="midnightblue" points="2089.32,-73.76 2079.55,-77.85 2089.74,-80.75 2089.32,-73.76"/>
</g>
<!-- Node13 -->
<g id="node13" class="node">
<title>Node13</title>
<g id="a_node13"><a xlink:href="../../dd/dc2/decimalchart__dialog_8cpp.html" target="_top" xlink:title=" ">
<polygon fill="white" stroke="black" points="2949.5,-0.5 2949.5,-30.5 3090.5,-30.5 3090.5,-0.5 2949.5,-0.5"/>
<text text-anchor="start" x="2957.5" y="-18.5" font-family="Helvetica,sans-Serif" font-size="10.00">src/app/seamly2d/dialogs</text>
<text text-anchor="middle" x="3020" y="-7.5" font-family="Helvetica,sans-Serif" font-size="10.00">/decimalchart_dialog.cpp</text>
</a>
</g>
</g>
<!-- Node6&#45;&gt;Node13 -->
<g id="edge13" class="edge">
<title>Node6&#45;&gt;Node13</title>
<path fill="none" stroke="midnightblue" d="M2089.53,-80.59C2246.35,-77.97 2625.01,-68.01 2940,-31 2943.08,-30.64 2946.23,-30.23 2949.4,-29.79"/>
<polygon fill="midnightblue" stroke="midnightblue" points="2089.47,-77.09 2079.53,-80.75 2089.58,-84.09 2089.47,-77.09"/>
</g>
<!-- Node14 -->
<g id="node14" class="node">
<title>Node14</title>
<g id="a_node14"><a xlink:href="../../dd/d64/dialogaboutapp_8cpp.html" target="_top" xlink:title=" ">
<polygon fill="white" stroke="black" points="3108.5,-0.5 3108.5,-30.5 3249.5,-30.5 3249.5,-0.5 3108.5,-0.5"/>
<text text-anchor="start" x="3116.5" y="-18.5" font-family="Helvetica,sans-Serif" font-size="10.00">src/app/seamly2d/dialogs</text>
<text text-anchor="middle" x="3179" y="-7.5" font-family="Helvetica,sans-Serif" font-size="10.00">/dialogaboutapp.cpp</text>
</a>
</g>
</g>
<!-- Node6&#45;&gt;Node14 -->
<g id="edge14" class="edge">
<title>Node6&#45;&gt;Node14</title>
<path fill="none" stroke="midnightblue" d="M2089.87,-81.43C2265.43,-80.52 2721.25,-73.85 3099,-31 3102.09,-30.65 3105.23,-30.25 3108.4,-29.82"/>
<polygon fill="midnightblue" stroke="midnightblue" points="2089.69,-77.93 2079.71,-81.47 2089.73,-84.93 2089.69,-77.93"/>
</g>
<!-- Node15 -->
<g id="node15" class="node">
<title>Node15</title>
<g id="a_node15"><a xlink:href="../../df/d3e/application__2d_8cpp.html" target="_top" xlink:title=" ">
<polygon fill="white" stroke="black" points="3643.5,-0.5 3643.5,-30.5 3770.5,-30.5 3770.5,-0.5 3643.5,-0.5"/>
<text text-anchor="start" x="3651.5" y="-18.5" font-family="Helvetica,sans-Serif" font-size="10.00">src/app/seamly2d/core</text>
<text text-anchor="middle" x="3707" y="-7.5" font-family="Helvetica,sans-Serif" font-size="10.00">/application_2d.cpp</text>
</a>
</g>
</g>
<!-- Node6&#45;&gt;Node15 -->
<g id="edge15" class="edge">
<title>Node6&#45;&gt;Node15</title>
<path fill="none" stroke="midnightblue" d="M2090.1,-80.81C2365.36,-78 3328.85,-65.83 3634,-31 3637.08,-30.65 3640.23,-30.24 3643.4,-29.78"/>
<polygon fill="midnightblue" stroke="midnightblue" points="2089.79,-77.31 2079.83,-80.91 2089.86,-84.31 2089.79,-77.31"/>
</g>
<!-- Node16 -->
<g id="node16" class="node">
<title>Node16</title>
<g id="a_node16"><a xlink:href="../../d6/d89/dialoglayoutprogress_8cpp.html" target="_top" xlink:title=" ">
<polygon fill="white" stroke="black" points="327.5,-0.5 327.5,-30.5 470.5,-30.5 470.5,-0.5 327.5,-0.5"/>
<text text-anchor="start" x="335.5" y="-18.5" font-family="Helvetica,sans-Serif" font-size="10.00">src/app/seamly2d/dialogs</text>
<text text-anchor="middle" x="399" y="-7.5" font-family="Helvetica,sans-Serif" font-size="10.00">/dialoglayoutprogress.cpp</text>
</a>
</g>
</g>
<!-- Node6&#45;&gt;Node16 -->
<g id="edge16" class="edge">
<title>Node6&#45;&gt;Node16</title>
<path fill="none" stroke="midnightblue" d="M1942.34,-67.09C1294.34,3.62 1123.16,-96.9 479,-31 476.33,-30.73 473.62,-30.41 470.88,-30.07"/>
<polygon fill="midnightblue" stroke="midnightblue" points="1942.08,-70.58 1952.4,-68.2 1942.84,-63.63 1942.08,-70.58"/>
</g>
<!-- Node17 -->
<g id="node17" class="node">
<title>Node17</title>
<g id="a_node17"><a xlink:href="../../d5/dc5/dialogpreferences_8cpp.html" target="_top" xlink:title=" ">
<polygon fill="white" stroke="black" points="488.5,-0.5 488.5,-30.5 629.5,-30.5 629.5,-0.5 488.5,-0.5"/>
<text text-anchor="start" x="496.5" y="-18.5" font-family="Helvetica,sans-Serif" font-size="10.00">src/app/seamly2d/dialogs</text>
<text text-anchor="middle" x="559" y="-7.5" font-family="Helvetica,sans-Serif" font-size="10.00">/dialogpreferences.cpp</text>
</a>
</g>
</g>
<!-- Node6&#45;&gt;Node17 -->
<g id="edge17" class="edge">
<title>Node6&#45;&gt;Node17</title>
<path fill="none" stroke="midnightblue" d="M1942.14,-67.07C1364.62,-3.29 1211.67,-91.2 638,-31 635.23,-30.71 632.4,-30.37 629.56,-30.01"/>
<polygon fill="midnightblue" stroke="midnightblue" points="1942.07,-70.58 1952.4,-68.21 1942.85,-63.62 1942.07,-70.58"/>
</g>
<!-- Node18 -->
<g id="node18" class="node">
<title>Node18</title>
<g id="a_node18"><a xlink:href="../../d5/d18/dialogpatternproperties_8cpp.html" target="_top" xlink:title=" ">
<polygon fill="white" stroke="black" points="647.5,-0.5 647.5,-30.5 802.5,-30.5 802.5,-0.5 647.5,-0.5"/>
<text text-anchor="start" x="655.5" y="-18.5" font-family="Helvetica,sans-Serif" font-size="10.00">src/app/seamly2d/dialogs</text>
<text text-anchor="middle" x="725" y="-7.5" font-family="Helvetica,sans-Serif" font-size="10.00">/dialogpatternproperties.cpp</text>
</a>
</g>
</g>
<!-- Node6&#45;&gt;Node18 -->
<g id="edge18" class="edge">
<title>Node6&#45;&gt;Node18</title>
<path fill="none" stroke="midnightblue" d="M1942.37,-67.09C1441.15,-10.71 1308.58,-80.63 811,-31 808.29,-30.73 805.53,-30.43 802.75,-30.09"/>
<polygon fill="midnightblue" stroke="midnightblue" points="1942.06,-70.58 1952.4,-68.23 1942.85,-63.62 1942.06,-70.58"/>
</g>
<!-- Node19 -->
<g id="node19" class="node">
<title>Node19</title>
<g id="a_node19"><a xlink:href="../../dd/d54/export__layout__dialog_8cpp.html" target="_top" xlink:title=" ">
<polygon fill="white" stroke="black" points="3788.5,-0.5 3788.5,-30.5 3931.5,-30.5 3931.5,-0.5 3788.5,-0.5"/>
<text text-anchor="start" x="3796.5" y="-18.5" font-family="Helvetica,sans-Serif" font-size="10.00">src/app/seamly2d/dialogs</text>
<text text-anchor="middle" x="3860" y="-7.5" font-family="Helvetica,sans-Serif" font-size="10.00">/export_layout_dialog.cpp</text>
</a>
</g>
</g>
<!-- Node6&#45;&gt;Node19 -->
<g id="edge19" class="edge">
<title>Node6&#45;&gt;Node19</title>
<path fill="none" stroke="midnightblue" d="M2089.91,-80.87C2380.43,-78.16 3444.41,-66.02 3780,-31 3782.67,-30.72 3785.38,-30.4 3788.12,-30.06"/>
<polygon fill="midnightblue" stroke="midnightblue" points="2089.87,-77.37 2079.9,-80.96 2089.94,-84.37 2089.87,-77.37"/>
</g>
<!-- Node20 -->
<g id="node20" class="node">
<title>Node20</title>
<g id="a_node20"><a xlink:href="../../db/d5c/groups__widget_8cpp.html" target="_top" xlink:title=" ">
<polygon fill="white" stroke="black" points="820.5,-0.5 820.5,-30.5 961.5,-30.5 961.5,-0.5 820.5,-0.5"/>
<text text-anchor="start" x="828.5" y="-18.5" font-family="Helvetica,sans-Serif" font-size="10.00">src/app/seamly2d/dialogs</text>
<text text-anchor="middle" x="891" y="-7.5" font-family="Helvetica,sans-Serif" font-size="10.00">/groups_widget.cpp</text>
</a>
</g>
</g>
<!-- Node6&#45;&gt;Node20 -->
<g id="edge20" class="edge">
<title>Node6&#45;&gt;Node20</title>
<path fill="none" stroke="midnightblue" d="M1942.16,-67.06C1511.41,-17.64 1396.8,-77.82 970,-31 967.23,-30.7 964.41,-30.35 961.56,-29.97"/>
<polygon fill="midnightblue" stroke="midnightblue" points="1942.06,-70.57 1952.39,-68.25 1942.86,-63.62 1942.06,-70.57"/>
</g>
<!-- Node6&#45;&gt;Node21 -->
<g id="edge21" class="edge">
<title>Node6&#45;&gt;Node21</title>
<path fill="none" stroke="midnightblue" d="M1942.31,-67.09C1223.14,10.61 1033.48,-102.53 318,-31 315.3,-30.73 312.55,-30.42 309.78,-30.08"/>
<polygon fill="midnightblue" stroke="midnightblue" points="1942.08,-70.59 1952.4,-68.19 1942.84,-63.63 1942.08,-70.59"/>
</g>
<!-- Node22 -->
<g id="node22" class="node">
<title>Node22</title>
<g id="a_node22"><a xlink:href="../../df/d69/welcome__dialog_8cpp.html" target="_top" xlink:title=" ">
<polygon fill="white" stroke="black" points="979.5,-0.5 979.5,-30.5 1120.5,-30.5 1120.5,-0.5 979.5,-0.5"/>
<text text-anchor="start" x="987.5" y="-18.5" font-family="Helvetica,sans-Serif" font-size="10.00">src/app/seamly2d/dialogs</text>
<text text-anchor="middle" x="1050" y="-7.5" font-family="Helvetica,sans-Serif" font-size="10.00">/welcome_dialog.cpp</text>
</a>
</g>
</g>
<!-- Node6&#45;&gt;Node22 -->
<g id="edge22" class="edge">
<title>Node6&#45;&gt;Node22</title>
<path fill="none" stroke="midnightblue" d="M1942.46,-67.09C1581.75,-24.46 1485.58,-71.42 1129,-31 1126.23,-30.69 1123.41,-30.33 1120.56,-29.95"/>
<polygon fill="midnightblue" stroke="midnightblue" points="1942.05,-70.56 1952.39,-68.27 1942.88,-63.61 1942.05,-70.56"/>
</g>
<!-- Node23 -->
<g id="node23" class="node">
<title>Node23</title>
<g id="a_node23"><a xlink:href="../../dc/d14/app_2seamly2d_2main_8cpp.html" target="_top" xlink:title=" ">
<polygon fill="white" stroke="black" points="3267.5,-6 3267.5,-25 3418.5,-25 3418.5,-6 3267.5,-6"/>
<text text-anchor="middle" x="3343" y="-13" font-family="Helvetica,sans-Serif" font-size="10.00">src/app/seamly2d/main.cpp</text>
</a>
</g>
</g>
<!-- Node6&#45;&gt;Node23 -->
<g id="edge23" class="edge">
<title>Node6&#45;&gt;Node23</title>
<path fill="none" stroke="midnightblue" d="M2089.54,-81.8C2282.02,-81.86 2816.28,-77.46 3258,-31 3271.55,-29.57 3286.2,-27.33 3299.47,-25.03"/>
<polygon fill="midnightblue" stroke="midnightblue" points="2089.55,-78.3 2079.54,-81.79 2089.54,-85.3 2089.55,-78.3"/>
</g>
<!-- Node24 -->
<g id="node24" class="node">
<title>Node24</title>
<g id="a_node24"><a xlink:href="../../dd/d84/shortcuts__dialog_8cpp.html" target="_top" xlink:title=" ">
<polygon fill="white" stroke="black" points="1138.5,-0.5 1138.5,-30.5 1279.5,-30.5 1279.5,-0.5 1138.5,-0.5"/>
<text text-anchor="start" x="1146.5" y="-18.5" font-family="Helvetica,sans-Serif" font-size="10.00">src/app/seamly2d/dialogs</text>
<text text-anchor="middle" x="1209" y="-7.5" font-family="Helvetica,sans-Serif" font-size="10.00">/shortcuts_dialog.cpp</text>
</a>
</g>
</g>
<!-- Node6&#45;&gt;Node24 -->
<g id="edge24" class="edge">
<title>Node6&#45;&gt;Node24</title>
<path fill="none" stroke="midnightblue" d="M1942.41,-67.07C1652,-31.28 1574.26,-65 1288,-31 1285.23,-30.67 1282.41,-30.31 1279.57,-29.91"/>
<polygon fill="midnightblue" stroke="midnightblue" points="1942.03,-70.55 1952.39,-68.31 1942.9,-63.6 1942.03,-70.55"/>
</g>
<!-- Node6&#45;&gt;Node25 -->
<g id="edge25" class="edge">
<title>Node6&#45;&gt;Node25</title>
<path fill="none" stroke="midnightblue" d="M2089.86,-80.5C2396.6,-76.22 3571.16,-58.32 3941,-31 3959.99,-29.6 3980.61,-27.34 3999.27,-25.03"/>
<polygon fill="midnightblue" stroke="midnightblue" points="2089.7,-77 2079.75,-80.64 2089.8,-84 2089.7,-77"/>
</g>
<!-- Node26 -->
<g id="node26" class="node">
<title>Node26</title>
<g id="a_node26"><a xlink:href="../../d2/df4/show__info__dialog_8cpp.html" target="_top" xlink:title=" ">
<polygon fill="white" stroke="black" points="1297.5,-0.5 1297.5,-30.5 1438.5,-30.5 1438.5,-0.5 1297.5,-0.5"/>
<text text-anchor="start" x="1305.5" y="-18.5" font-family="Helvetica,sans-Serif" font-size="10.00">src/app/seamly2d/dialogs</text>
<text text-anchor="middle" x="1368" y="-7.5" font-family="Helvetica,sans-Serif" font-size="10.00">/show_info_dialog.cpp</text>
</a>
</g>
</g>
<!-- Node6&#45;&gt;Node26 -->
<g id="edge26" class="edge">
<title>Node6&#45;&gt;Node26</title>
<path fill="none" stroke="midnightblue" d="M1942.45,-67.05C1722.24,-38.03 1663.03,-58.58 1447,-31 1444.23,-30.65 1441.42,-30.26 1438.58,-29.85"/>
<polygon fill="midnightblue" stroke="midnightblue" points="1942,-70.53 1952.38,-68.38 1942.93,-63.59 1942,-70.53"/>
</g>
<!-- Node27 -->
<g id="node27" class="node">
<title>Node27</title>
<g id="a_node27"><a xlink:href="../../d8/dd9/mainwindow_8cpp.html" target="_top" xlink:title=" ">
<polygon fill="white" stroke="black" points="3437,-6 3437,-25 3625,-25 3625,-6 3437,-6"/>
<text text-anchor="middle" x="3531" y="-13" font-family="Helvetica,sans-Serif" font-size="10.00">src/app/seamly2d/mainwindow.cpp</text>
</a>
</g>
</g>
<!-- Node6&#45;&gt;Node27 -->
<g id="edge27" class="edge">
<title>Node6&#45;&gt;Node27</title>
<path fill="none" stroke="midnightblue" d="M2090.06,-81.53C2300.03,-81.03 2917.01,-75.56 3427,-31 3443.53,-29.56 3461.44,-27.31 3477.68,-25.01"/>
<polygon fill="midnightblue" stroke="midnightblue" points="2089.77,-78.03 2079.78,-81.55 2089.79,-85.03 2089.77,-78.03"/>
</g>
<!-- Node28 -->
<g id="node28" class="node">
<title>Node28</title>
<g id="a_node28"><a xlink:href="../../d3/d49/vpattern_8cpp.html" target="_top" xlink:title=" ">
<polygon fill="white" stroke="black" points="1456.5,-0.5 1456.5,-30.5 1581.5,-30.5 1581.5,-0.5 1456.5,-0.5"/>
<text text-anchor="start" x="1464.5" y="-18.5" font-family="Helvetica,sans-Serif" font-size="10.00">src/app/seamly2d/xml</text>
<text text-anchor="middle" x="1519" y="-7.5" font-family="Helvetica,sans-Serif" font-size="10.00">/vpattern.cpp</text>
</a>
</g>
</g>
<!-- Node6&#45;&gt;Node28 -->
<g id="edge28" class="edge">
<title>Node6&#45;&gt;Node28</title>
<path fill="none" stroke="midnightblue" d="M1942.34,-67.01C1785.31,-44.06 1742.7,-54.32 1590,-31 1587.26,-30.58 1584.47,-30.13 1581.66,-29.65"/>
<polygon fill="midnightblue" stroke="midnightblue" points="1941.96,-70.49 1952.36,-68.49 1942.98,-63.56 1941.96,-70.49"/>
</g>
<!-- Node29&#45;&gt;Node15 -->
<g id="edge30" class="edge">
<title>Node29&#45;&gt;Node15</title>
<path fill="none" stroke="midnightblue" d="M3563.91,-69.35C3593.74,-58.33 3637.7,-42.09 3669.02,-30.53"/>
<polygon fill="midnightblue" stroke="midnightblue" points="3562.54,-66.12 3554.37,-72.87 3564.96,-72.69 3562.54,-66.12"/>
</g>
<!-- Node29&#45;&gt;Node23 -->
<g id="edge31" class="edge">
<title>Node29&#45;&gt;Node23</title>
<path fill="none" stroke="midnightblue" d="M3496.11,-69.44C3458.81,-56.54 3400.63,-36.42 3367.77,-25.06"/>
<polygon fill="midnightblue" stroke="midnightblue" points="3495.44,-72.91 3506.04,-72.87 3497.73,-66.29 3495.44,-72.91"/>
</g>
<!-- Node29&#45;&gt;Node27 -->
<g id="edge32" class="edge">
<title>Node29&#45;&gt;Node27</title>
<path fill="none" stroke="midnightblue" d="M3531,-62.54C3531,-50.17 3531,-34.62 3531,-25.13"/>
<polygon fill="midnightblue" stroke="midnightblue" points="3527.5,-62.73 3531,-72.73 3534.5,-62.73 3527.5,-62.73"/>
</g>
<!-- Node30&#45;&gt;Node19 -->
<g id="edge37" class="edge">
<title>Node30&#45;&gt;Node19</title>
<path fill="none" stroke="midnightblue" d="M3834.23,-194.3C3826.16,-186.09 3818.26,-176.01 3814,-165 3795.29,-116.68 3830.52,-57.31 3849.3,-30.64"/>
<polygon fill="midnightblue" stroke="midnightblue" points="3831.92,-196.94 3841.58,-201.29 3836.75,-191.86 3831.92,-196.94"/>
</g>
<!-- Node30&#45;&gt;Node25 -->
<g id="edge41" class="edge">
<title>Node30&#45;&gt;Node25</title>
<path fill="none" stroke="midnightblue" d="M3940.49,-202.05C3982.26,-193.37 4027.37,-180.76 4041,-165 4076.7,-123.71 4066.62,-50.24 4061.84,-25.16"/>
<polygon fill="midnightblue" stroke="midnightblue" points="3939.64,-198.65 3930.53,-204.06 3941.03,-205.51 3939.64,-198.65"/>
</g>
<!-- Node31 -->
<g id="node31" class="node">
<title>Node31</title>
<g id="a_node31"><a xlink:href="../../d1/d82/mainwindowsnogui_8h.html" target="_top" xlink:title=" ">
<polygon fill="white" stroke="black" points="3822.5,-140 3822.5,-159 4031.5,-159 4031.5,-140 3822.5,-140"/>
<text text-anchor="middle" x="3927" y="-147" font-family="Helvetica,sans-Serif" font-size="10.00">src/app/seamly2d/mainwindowsnogui.h</text>
</a>
</g>
</g>
<!-- Node30&#45;&gt;Node31 -->
<g id="edge38" class="edge">
<title>Node30&#45;&gt;Node31</title>
<path fill="none" stroke="midnightblue" d="M3881.82,-194.34C3894.12,-182.4 3908.82,-168.14 3918.04,-159.19"/>
<polygon fill="midnightblue" stroke="midnightblue" points="3879.28,-191.92 3874.54,-201.4 3884.15,-196.94 3879.28,-191.92"/>
</g>
<!-- Node31&#45;&gt;Node25 -->
<g id="edge40" class="edge">
<title>Node31&#45;&gt;Node25</title>
<path fill="none" stroke="midnightblue" d="M3942.86,-132.76C3971.17,-104.66 4029.49,-46.78 4051.41,-25.02"/>
<polygon fill="midnightblue" stroke="midnightblue" points="3940.36,-130.31 3935.73,-139.84 3945.29,-135.28 3940.36,-130.31"/>
</g>
<!-- Node31&#45;&gt;Node29 -->
<g id="edge39" class="edge">
<title>Node31&#45;&gt;Node29</title>
<path fill="none" stroke="midnightblue" d="M3864.69,-138.27C3786.98,-125.52 3655.53,-103.94 3582.98,-92.03"/>
<polygon fill="midnightblue" stroke="midnightblue" points="3864.39,-141.77 3874.82,-139.94 3865.52,-134.86 3864.39,-141.77"/>
</g>
</g>
</svg>
