<?xml version="1.0" encoding="UTF-8" standalone="no"?>
<!DOCTYPE svg PUBLIC "-//W3C//DTD SVG 1.1//EN"
 "http://www.w3.org/Graphics/SVG/1.1/DTD/svg11.dtd">
<!-- Generated by graphviz version 2.43.0 (0)
 -->
<!-- Title: src/app/seamly2d/dialogs/abstractlayout_dialog.h Pages: 1 -->
<!--zoomable 307 -->
<svg id="main" version="1.1" xmlns="http://www.w3.org/2000/svg" xmlns:xlink="http://www.w3.org/1999/xlink" xml:space="preserve" onload="init(evt)">
<style type="text/css"><![CDATA[
.edge:hover path { stroke: red; }
.edge:hover polygon { stroke: red; fill: red; }
]]></style>
<script type="text/javascript"><![CDATA[
var edges = document.getElementsByTagName('g');
if (edges && edges.length) {
  for (var i=0;i<edges.length;i++) {
    if (edges[i].id.substr(0,4)=='edge') {
      edges[i].setAttribute('class','edge');
    }
  }
}
]]></script>
        <defs>
                <circle id="rim" cx="0" cy="0" r="7"/>
                <circle id="rim2" cx="0" cy="0" r="3.5"/>
                <g id="zoomPlus">
                        <use xlink:href="#rim" fill="#404040">
                                <set attributeName="fill" to="#808080" begin="zoomplus.mouseover" end="zoomplus.mouseout"/>
                        </use>
                        <path d="M-4,0h8M0,-4v8" fill="none" stroke="white" stroke-width="1.5" pointer-events="none"/>
                </g>
                <g id="zoomMin">
                        <use xlink:href="#rim" fill="#404040">
                                <set attributeName="fill" to="#808080" begin="zoomminus.mouseover" end="zoomminus.mouseout"/>
                        </use>
                        <path d="M-4,0h8" fill="none" stroke="white" stroke-width="1.5" pointer-events="none"/>
                </g>
                <g id="dirArrow">
                        <path fill="none" stroke="white" stroke-width="1.5" d="M0,-3.0v7 M-2.5,-0.5L0,-3.0L2.5,-0.5"/>
                </g>
               <g id="resetDef">
                       <use xlink:href="#rim2" fill="#404040">
                               <set attributeName="fill" to="#808080" begin="reset.mouseover" end="reset.mouseout"/>
                       </use>
               </g>
        </defs>

<script type="text/javascript">
var viewWidth = 4177;
var viewHeight = 307;
var sectionId = 'dynsection-1';
</script>
<script xlink:href="../../svgpan.js"/>
<svg id="graph" class="graph">
<g id="viewport">
<title>src/app/seamly2d/dialogs/abstractlayout_dialog.h</title>
<polygon fill="white" stroke="transparent" points="-4,4 -4,-303 4172.5,-303 4172.5,4 -4,4"/>
<!-- Node1 -->
<g id="node1" class="node">
<title>Node1</title>
<g id="a_node1"><a xlink:title=" ">
<polygon fill="#bfbfbf" stroke="black" points="2267.5,-268.5 2267.5,-298.5 2408.5,-298.5 2408.5,-268.5 2267.5,-268.5"/>
<text text-anchor="start" x="2275.5" y="-286.5" font-family="Helvetica,sans-Serif" font-size="10.00">src/app/seamly2d/dialogs</text>
<text text-anchor="middle" x="2338" y="-275.5" font-family="Helvetica,sans-Serif" font-size="10.00">/abstractlayout_dialog.h</text>
</a>
</g>
</g>
<!-- Node2 -->
<g id="node2" class="node">
<title>Node2</title>
<g id="a_node2"><a xlink:href="../../dd/db4/abstractlayout__dialog_8cpp.html" target="_top" xlink:title=" ">
<polygon fill="white" stroke="black" points="0,-0.5 0,-30.5 146,-30.5 146,-0.5 0,-0.5"/>
<text text-anchor="start" x="8" y="-18.5" font-family="Helvetica,sans-Serif" font-size="10.00">src/app/seamly2d/dialogs</text>
<text text-anchor="middle" x="73" y="-7.5" font-family="Helvetica,sans-Serif" font-size="10.00">/abstractlayout_dialog.cpp</text>
</a>
</g>
</g>
<!-- Node1&#45;&gt;Node2 -->
<g id="edge1" class="edge">
<title>Node1&#45;&gt;Node2</title>
<path fill="none" stroke="midnightblue" d="M2256.99,-278.71C1995.28,-265.59 1149.46,-216.25 460,-98 343.43,-78.01 208.52,-48.02 132.73,-30.54"/>
<polygon fill="midnightblue" stroke="midnightblue" points="2257,-282.22 2267.16,-279.22 2257.35,-275.23 2257,-282.22"/>
</g>
<!-- Node3 -->
<g id="node3" class="node">
<title>Node3</title>
<g id="a_node3"><a xlink:href="../../d1/d8e/export__layout__dialog_8h.html" target="_top" xlink:title=" ">
<polygon fill="white" stroke="black" points="2267.5,-201.5 2267.5,-231.5 2408.5,-231.5 2408.5,-201.5 2267.5,-201.5"/>
<text text-anchor="start" x="2275.5" y="-219.5" font-family="Helvetica,sans-Serif" font-size="10.00">src/app/seamly2d/dialogs</text>
<text text-anchor="middle" x="2338" y="-208.5" font-family="Helvetica,sans-Serif" font-size="10.00">/export_layout_dialog.h</text>
</a>
</g>
</g>
<!-- Node1&#45;&gt;Node3 -->
<g id="edge2" class="edge">
<title>Node1&#45;&gt;Node3</title>
<path fill="none" stroke="midnightblue" d="M2338,-258.11C2338,-249.15 2338,-239.32 2338,-231.58"/>
<polygon fill="midnightblue" stroke="midnightblue" points="2334.5,-258.4 2338,-268.4 2341.5,-258.4 2334.5,-258.4"/>
</g>
<!-- Node11 -->
<g id="node11" class="node">
<title>Node11</title>
<g id="a_node11"><a xlink:href="../../d3/dd8/layoutsettings__dialog_8h.html" target="_top" xlink:title=" ">
<polygon fill="white" stroke="black" points="2426.5,-201.5 2426.5,-231.5 2567.5,-231.5 2567.5,-201.5 2426.5,-201.5"/>
<text text-anchor="start" x="2434.5" y="-219.5" font-family="Helvetica,sans-Serif" font-size="10.00">src/app/seamly2d/dialogs</text>
<text text-anchor="middle" x="2497" y="-208.5" font-family="Helvetica,sans-Serif" font-size="10.00">/layoutsettings_dialog.h</text>
</a>
</g>
</g>
<!-- Node1&#45;&gt;Node11 -->
<g id="edge11" class="edge">
<title>Node1&#45;&gt;Node11</title>
<path fill="none" stroke="midnightblue" d="M2381.92,-264.54C2407.37,-254.14 2438.93,-241.24 2462.57,-231.58"/>
<polygon fill="midnightblue" stroke="midnightblue" points="2380.43,-261.37 2372.5,-268.4 2383.08,-267.85 2380.43,-261.37"/>
</g>
<!-- Node4 -->
<g id="node4" class="node">
<title>Node4</title>
<g id="a_node4"><a xlink:href="../../dd/d54/export__layout__dialog_8cpp.html" target="_top" xlink:title=" ">
<polygon fill="white" stroke="black" points="164.5,-0.5 164.5,-30.5 307.5,-30.5 307.5,-0.5 164.5,-0.5"/>
<text text-anchor="start" x="172.5" y="-18.5" font-family="Helvetica,sans-Serif" font-size="10.00">src/app/seamly2d/dialogs</text>
<text text-anchor="middle" x="236" y="-7.5" font-family="Helvetica,sans-Serif" font-size="10.00">/export_layout_dialog.cpp</text>
</a>
</g>
</g>
<!-- Node3&#45;&gt;Node4 -->
<g id="edge3" class="edge">
<title>Node3&#45;&gt;Node4</title>
<path fill="none" stroke="midnightblue" d="M2256.93,-213.68C2011.69,-207.37 1256.57,-181.99 637,-98 513.28,-81.23 370.43,-49.07 293.04,-30.56"/>
<polygon fill="midnightblue" stroke="midnightblue" points="2257.09,-217.19 2267.18,-213.94 2257.27,-210.19 2257.09,-217.19"/>
</g>
<!-- Node5 -->
<g id="node5" class="node">
<title>Node5</title>
<g id="a_node5"><a xlink:href="../../d1/d82/mainwindowsnogui_8h.html" target="_top" xlink:title=" ">
<polygon fill="white" stroke="black" points="2240.5,-140 2240.5,-159 2449.5,-159 2449.5,-140 2240.5,-140"/>
<text text-anchor="middle" x="2345" y="-147" font-family="Helvetica,sans-Serif" font-size="10.00">src/app/seamly2d/mainwindowsnogui.h</text>
</a>
</g>
</g>
<!-- Node3&#45;&gt;Node5 -->
<g id="edge4" class="edge">
<title>Node3&#45;&gt;Node5</title>
<path fill="none" stroke="midnightblue" d="M2340.61,-191.25C2341.82,-180.02 2343.18,-167.38 2344.06,-159.19"/>
<polygon fill="midnightblue" stroke="midnightblue" points="2337.11,-191.08 2339.52,-201.4 2344.07,-191.83 2337.11,-191.08"/>
</g>
<!-- Node10 -->
<g id="node10" class="node">
<title>Node10</title>
<g id="a_node10"><a xlink:href="../../d8/de8/mainwindowsnogui_8cpp.html" target="_top" xlink:title=" ">
<polygon fill="white" stroke="black" points="3784.5,-6 3784.5,-25 4005.5,-25 4005.5,-6 3784.5,-6"/>
<text text-anchor="middle" x="3895" y="-13" font-family="Helvetica,sans-Serif" font-size="10.00">src/app/seamly2d/mainwindowsnogui.cpp</text>
</a>
</g>
</g>
<!-- Node3&#45;&gt;Node10 -->
<g id="edge10" class="edge">
<title>Node3&#45;&gt;Node10</title>
<path fill="none" stroke="midnightblue" d="M2418.76,-200.77C2891.07,-128.02 3013.06,-125.5 3484,-67 3603.86,-52.11 3743.4,-35.02 3825.18,-25.02"/>
<polygon fill="midnightblue" stroke="midnightblue" points="2417.95,-197.35 2408.6,-202.34 2419.02,-204.27 2417.95,-197.35"/>
</g>
<!-- Node6 -->
<g id="node6" class="node">
<title>Node6</title>
<g id="a_node6"><a xlink:href="../../d9/d53/mainwindow_8h.html" target="_top" xlink:title=" ">
<polygon fill="white" stroke="black" points="646,-73 646,-92 822,-92 822,-73 646,-73"/>
<text text-anchor="middle" x="734" y="-80" font-family="Helvetica,sans-Serif" font-size="10.00">src/app/seamly2d/mainwindow.h</text>
</a>
</g>
</g>
<!-- Node5&#45;&gt;Node6 -->
<g id="edge5" class="edge">
<title>Node5&#45;&gt;Node6</title>
<path fill="none" stroke="midnightblue" d="M2276.1,-138.69C2261.25,-136.87 2245.62,-135.17 2231,-134 1697.35,-91.15 1053.86,-84.56 822.32,-83.62"/>
<polygon fill="midnightblue" stroke="midnightblue" points="2275.88,-142.19 2286.23,-139.97 2276.75,-135.25 2275.88,-142.19"/>
</g>
<!-- Node5&#45;&gt;Node10 -->
<g id="edge9" class="edge">
<title>Node5&#45;&gt;Node10</title>
<path fill="none" stroke="midnightblue" d="M2415.9,-138.56C2541.3,-121.34 2810.58,-85.98 3039,-67 3365.38,-39.89 3448.67,-58.66 3775,-31 3793.4,-29.44 3813.33,-27.24 3831.56,-25.02"/>
<polygon fill="midnightblue" stroke="midnightblue" points="2415.09,-135.14 2405.67,-139.97 2416.05,-142.07 2415.09,-135.14"/>
</g>
<!-- Node7 -->
<g id="node7" class="node">
<title>Node7</title>
<g id="a_node7"><a xlink:href="../../df/d3e/application__2d_8cpp.html" target="_top" xlink:title=" ">
<polygon fill="white" stroke="black" points="325.5,-0.5 325.5,-30.5 452.5,-30.5 452.5,-0.5 325.5,-0.5"/>
<text text-anchor="start" x="333.5" y="-18.5" font-family="Helvetica,sans-Serif" font-size="10.00">src/app/seamly2d/core</text>
<text text-anchor="middle" x="389" y="-7.5" font-family="Helvetica,sans-Serif" font-size="10.00">/application_2d.cpp</text>
</a>
</g>
</g>
<!-- Node6&#45;&gt;Node7 -->
<g id="edge6" class="edge">
<title>Node6&#45;&gt;Node7</title>
<path fill="none" stroke="midnightblue" d="M676.66,-71.16C621.38,-61.14 535.4,-45.37 461,-31 458.25,-30.47 455.43,-29.92 452.59,-29.36"/>
<polygon fill="midnightblue" stroke="midnightblue" points="676.15,-74.63 686.61,-72.97 677.4,-67.74 676.15,-74.63"/>
</g>
<!-- Node8 -->
<g id="node8" class="node">
<title>Node8</title>
<g id="a_node8"><a xlink:href="../../dc/d14/app_2seamly2d_2main_8cpp.html" target="_top" xlink:title=" ">
<polygon fill="white" stroke="black" points="470.5,-6 470.5,-25 621.5,-25 621.5,-6 470.5,-6"/>
<text text-anchor="middle" x="546" y="-13" font-family="Helvetica,sans-Serif" font-size="10.00">src/app/seamly2d/main.cpp</text>
</a>
</g>
</g>
<!-- Node6&#45;&gt;Node8 -->
<g id="edge7" class="edge">
<title>Node6&#45;&gt;Node8</title>
<path fill="none" stroke="midnightblue" d="M699.11,-69.44C661.81,-56.54 603.63,-36.42 570.77,-25.06"/>
<polygon fill="midnightblue" stroke="midnightblue" points="698.44,-72.91 709.04,-72.87 700.73,-66.29 698.44,-72.91"/>
</g>
<!-- Node9 -->
<g id="node9" class="node">
<title>Node9</title>
<g id="a_node9"><a xlink:href="../../d8/dd9/mainwindow_8cpp.html" target="_top" xlink:title=" ">
<polygon fill="white" stroke="black" points="640,-6 640,-25 828,-25 828,-6 640,-6"/>
<text text-anchor="middle" x="734" y="-13" font-family="Helvetica,sans-Serif" font-size="10.00">src/app/seamly2d/mainwindow.cpp</text>
</a>
</g>
</g>
<!-- Node6&#45;&gt;Node9 -->
<g id="edge8" class="edge">
<title>Node6&#45;&gt;Node9</title>
<path fill="none" stroke="midnightblue" d="M734,-62.54C734,-50.17 734,-34.62 734,-25.13"/>
<polygon fill="midnightblue" stroke="midnightblue" points="730.5,-62.73 734,-72.73 737.5,-62.73 730.5,-62.73"/>
</g>
<!-- Node11&#45;&gt;Node10 -->
<g id="edge41" class="edge">
<title>Node11&#45;&gt;Node10</title>
<path fill="none" stroke="midnightblue" d="M2577.96,-210.61C2688.69,-203.39 2893.45,-188.2 3067,-165 3371.71,-124.26 3735.14,-50.11 3854.71,-25.04"/>
<polygon fill="midnightblue" stroke="midnightblue" points="2577.62,-207.12 2567.87,-211.26 2578.07,-214.11 2577.62,-207.12"/>
</g>
<!-- Node12 -->
<g id="node12" class="node">
<title>Node12</title>
<g id="a_node12"><a xlink:href="../../dd/d57/vcmdexport_8h.html" target="_top" xlink:title=" ">
<polygon fill="white" stroke="black" points="2095.5,-134.5 2095.5,-164.5 2222.5,-164.5 2222.5,-134.5 2095.5,-134.5"/>
<text text-anchor="start" x="2103.5" y="-152.5" font-family="Helvetica,sans-Serif" font-size="10.00">src/app/seamly2d/core</text>
<text text-anchor="middle" x="2159" y="-141.5" font-family="Helvetica,sans-Serif" font-size="10.00">/vcmdexport.h</text>
</a>
</g>
</g>
<!-- Node11&#45;&gt;Node12 -->
<g id="edge12" class="edge">
<title>Node11&#45;&gt;Node12</title>
<path fill="none" stroke="midnightblue" d="M2416.42,-200.44C2363.65,-190.52 2293.19,-177.17 2231,-165 2228.25,-164.46 2225.44,-163.91 2222.6,-163.35"/>
<polygon fill="midnightblue" stroke="midnightblue" points="2415.92,-203.91 2426.39,-202.32 2417.21,-197.03 2415.92,-203.91"/>
</g>
<!-- Node26 -->
<g id="node26" class="node">
<title>Node26</title>
<g id="a_node26"><a xlink:href="../../d0/dfa/layoutsettings__dialog_8cpp.html" target="_top" xlink:title=" ">
<polygon fill="white" stroke="black" points="4023.5,-0.5 4023.5,-30.5 4168.5,-30.5 4168.5,-0.5 4023.5,-0.5"/>
<text text-anchor="start" x="4031.5" y="-18.5" font-family="Helvetica,sans-Serif" font-size="10.00">src/app/seamly2d/dialogs</text>
<text text-anchor="middle" x="4096" y="-7.5" font-family="Helvetica,sans-Serif" font-size="10.00">/layoutsettings_dialog.cpp</text>
</a>
</g>
</g>
<!-- Node11&#45;&gt;Node26 -->
<g id="edge40" class="edge">
<title>Node11&#45;&gt;Node26</title>
<path fill="none" stroke="midnightblue" d="M2577.99,-211.74C2705.94,-205.29 2962.58,-190.31 3179,-165 3552.75,-121.29 3644,-93.93 4015,-31 4017.68,-30.55 4020.4,-30.08 4023.15,-29.61"/>
<polygon fill="midnightblue" stroke="midnightblue" points="2577.69,-208.25 2567.88,-212.24 2578.04,-215.24 2577.69,-208.25"/>
</g>
<!-- Node31 -->
<g id="node31" class="node">
<title>Node31</title>
<g id="a_node31"><a xlink:href="../../df/d9b/vcmdexport_8cpp.html" target="_top" xlink:title=" ">
<polygon fill="white" stroke="black" points="2334.5,-67.5 2334.5,-97.5 2461.5,-97.5 2461.5,-67.5 2334.5,-67.5"/>
<text text-anchor="start" x="2342.5" y="-85.5" font-family="Helvetica,sans-Serif" font-size="10.00">src/app/seamly2d/core</text>
<text text-anchor="middle" x="2398" y="-74.5" font-family="Helvetica,sans-Serif" font-size="10.00">/vcmdexport.cpp</text>
</a>
</g>
</g>
<!-- Node11&#45;&gt;Node31 -->
<g id="edge39" class="edge">
<title>Node11&#45;&gt;Node31</title>
<path fill="none" stroke="midnightblue" d="M2488.63,-191.45C2481.96,-174.37 2471.52,-151.46 2458,-134 2447,-119.79 2431.39,-106.81 2418.85,-97.56"/>
<polygon fill="midnightblue" stroke="midnightblue" points="2485.5,-193.08 2492.28,-201.23 2492.06,-190.63 2485.5,-193.08"/>
</g>
<!-- Node12&#45;&gt;Node6 -->
<g id="edge38" class="edge">
<title>Node12&#45;&gt;Node6</title>
<path fill="none" stroke="midnightblue" d="M2085.43,-145.14C1845.01,-134.18 1083.01,-99.42 822.4,-87.53"/>
<polygon fill="midnightblue" stroke="midnightblue" points="2085.32,-148.64 2095.47,-145.6 2085.64,-141.65 2085.32,-148.64"/>
</g>
<!-- Node13 -->
<g id="node13" class="node">
<title>Node13</title>
<g id="a_node13"><a xlink:href="../../d7/d61/application__2d_8h.html" target="_top" xlink:title=" ">
<polygon fill="white" stroke="black" points="2095.5,-67.5 2095.5,-97.5 2222.5,-97.5 2222.5,-67.5 2095.5,-67.5"/>
<text text-anchor="start" x="2103.5" y="-85.5" font-family="Helvetica,sans-Serif" font-size="10.00">src/app/seamly2d/core</text>
<text text-anchor="middle" x="2159" y="-74.5" font-family="Helvetica,sans-Serif" font-size="10.00">/application_2d.h</text>
</a>
</g>
</g>
<!-- Node12&#45;&gt;Node13 -->
<g id="edge13" class="edge">
<title>Node12&#45;&gt;Node13</title>
<path fill="none" stroke="midnightblue" d="M2159,-124.11C2159,-115.15 2159,-105.32 2159,-97.58"/>
<polygon fill="midnightblue" stroke="midnightblue" points="2155.5,-124.4 2159,-134.4 2162.5,-124.4 2155.5,-124.4"/>
</g>
<!-- Node12&#45;&gt;Node31 -->
<g id="edge37" class="edge">
<title>Node12&#45;&gt;Node31</title>
<path fill="none" stroke="midnightblue" d="M2220.22,-131.85C2259.19,-121.25 2309.1,-107.68 2346.12,-97.61"/>
<polygon fill="midnightblue" stroke="midnightblue" points="2219.3,-128.47 2210.57,-134.48 2221.13,-135.23 2219.3,-128.47"/>
</g>
<!-- Node13&#45;&gt;Node2 -->
<g id="edge15" class="edge">
<title>Node13&#45;&gt;Node2</title>
<path fill="none" stroke="midnightblue" d="M2084.71,-81.12C1769.36,-79.27 540.2,-69.69 155,-31 152.12,-30.71 149.2,-30.38 146.24,-30.01"/>
<polygon fill="midnightblue" stroke="midnightblue" points="2085.08,-84.62 2095.1,-81.18 2085.12,-77.62 2085.08,-84.62"/>
</g>
<!-- Node13&#45;&gt;Node4 -->
<g id="edge27" class="edge">
<title>Node13&#45;&gt;Node4</title>
<path fill="none" stroke="midnightblue" d="M2084.82,-80.97C1785.75,-78.61 667.81,-67.49 316,-31 313.33,-30.72 310.62,-30.41 307.88,-30.06"/>
<polygon fill="midnightblue" stroke="midnightblue" points="2085.08,-84.47 2095.11,-81.05 2085.14,-77.47 2085.08,-84.47"/>
</g>
<!-- Node13&#45;&gt;Node7 -->
<g id="edge14" class="edge">
<title>Node13&#45;&gt;Node7</title>
<path fill="none" stroke="midnightblue" d="M2085.04,-80.96C1801.36,-78.65 782.62,-67.9 461,-31 458.21,-30.68 455.37,-30.31 452.51,-29.9"/>
<polygon fill="midnightblue" stroke="midnightblue" points="2085.19,-84.47 2095.22,-81.05 2085.25,-77.47 2085.19,-84.47"/>
</g>
<!-- Node13&#45;&gt;Node8 -->
<g id="edge33" class="edge">
<title>Node13&#45;&gt;Node8</title>
<path fill="none" stroke="midnightblue" d="M2085.09,-80.39C1820.09,-76.2 918.14,-60.1 631,-31 617.3,-29.61 602.47,-27.35 589.09,-25.02"/>
<polygon fill="midnightblue" stroke="midnightblue" points="2085.31,-83.89 2095.37,-80.55 2085.42,-76.89 2085.31,-83.89"/>
</g>
<!-- Node13&#45;&gt;Node9 -->
<g id="edge36" class="edge">
<title>Node13&#45;&gt;Node9</title>
<path fill="none" stroke="midnightblue" d="M2085.08,-81.31C1884.14,-80.22 1311.18,-73.32 837,-31 820.72,-29.55 803.08,-27.31 787.07,-25.02"/>
<polygon fill="midnightblue" stroke="midnightblue" points="2085.2,-84.81 2095.22,-81.36 2085.24,-77.81 2085.2,-84.81"/>
</g>
<!-- Node13&#45;&gt;Node10 -->
<g id="edge34" class="edge">
<title>Node13&#45;&gt;Node10</title>
<path fill="none" stroke="midnightblue" d="M2232.76,-74.06C2261.51,-71.43 2294.77,-68.69 2325,-67 2968.63,-30.93 3132.05,-77.72 3775,-31 3794.26,-29.6 3815.17,-27.33 3834.06,-25.01"/>
<polygon fill="midnightblue" stroke="midnightblue" points="2232.42,-70.58 2222.78,-74.99 2233.07,-77.55 2232.42,-70.58"/>
</g>
<!-- Node14 -->
<g id="node14" class="node">
<title>Node14</title>
<g id="a_node14"><a xlink:href="../../d7/dfa/calculator__dialog_8cpp.html" target="_top" xlink:title=" ">
<polygon fill="white" stroke="black" points="846.5,-0.5 846.5,-30.5 987.5,-30.5 987.5,-0.5 846.5,-0.5"/>
<text text-anchor="start" x="854.5" y="-18.5" font-family="Helvetica,sans-Serif" font-size="10.00">src/app/seamly2d/dialogs</text>
<text text-anchor="middle" x="917" y="-7.5" font-family="Helvetica,sans-Serif" font-size="10.00">/calculator_dialog.cpp</text>
</a>
</g>
</g>
<!-- Node13&#45;&gt;Node14 -->
<g id="edge16" class="edge">
<title>Node13&#45;&gt;Node14</title>
<path fill="none" stroke="midnightblue" d="M2085.3,-81.82C1901.04,-81.86 1405.72,-77.27 996,-31 993.23,-30.69 990.41,-30.33 987.56,-29.95"/>
<polygon fill="midnightblue" stroke="midnightblue" points="2085.41,-85.32 2095.41,-81.82 2085.41,-78.32 2085.41,-85.32"/>
</g>
<!-- Node15 -->
<g id="node15" class="node">
<title>Node15</title>
<g id="a_node15"><a xlink:href="../../dc/d20/preferencespathpage_8cpp.html" target="_top" xlink:title=" ">
<polygon fill="white" stroke="black" points="1005.5,-0.5 1005.5,-30.5 1210.5,-30.5 1210.5,-0.5 1005.5,-0.5"/>
<text text-anchor="start" x="1013.5" y="-18.5" font-family="Helvetica,sans-Serif" font-size="10.00">src/app/seamly2d/dialogs</text>
<text text-anchor="middle" x="1108" y="-7.5" font-family="Helvetica,sans-Serif" font-size="10.00">/configpages/preferencespathpage.cpp</text>
</a>
</g>
</g>
<!-- Node13&#45;&gt;Node15 -->
<g id="edge17" class="edge">
<title>Node13&#45;&gt;Node15</title>
<path fill="none" stroke="midnightblue" d="M2085.21,-79.45C1926.47,-74.62 1540.87,-60.63 1219,-31 1216.29,-30.75 1213.55,-30.49 1210.78,-30.21"/>
<polygon fill="midnightblue" stroke="midnightblue" points="2085.23,-82.95 2095.33,-79.75 2085.44,-75.95 2085.23,-82.95"/>
</g>
<!-- Node16 -->
<g id="node16" class="node">
<title>Node16</title>
<g id="a_node16"><a xlink:href="../../d9/d70/preferencesgraphicsviewpage_8cpp.html" target="_top" xlink:title=" ">
<polygon fill="white" stroke="black" points="1228,-0.5 1228,-30.5 1476,-30.5 1476,-0.5 1228,-0.5"/>
<text text-anchor="start" x="1236" y="-18.5" font-family="Helvetica,sans-Serif" font-size="10.00">src/app/seamly2d/dialogs</text>
<text text-anchor="middle" x="1352" y="-7.5" font-family="Helvetica,sans-Serif" font-size="10.00">/configpages/preferencesgraphicsviewpage.cpp</text>
</a>
</g>
</g>
<!-- Node13&#45;&gt;Node16 -->
<g id="edge18" class="edge">
<title>Node13&#45;&gt;Node16</title>
<path fill="none" stroke="midnightblue" d="M2085.14,-76.79C1961.06,-68.68 1702.93,-51.04 1485,-31 1482.11,-30.73 1479.18,-30.46 1476.23,-30.18"/>
<polygon fill="midnightblue" stroke="midnightblue" points="2085.08,-80.29 2095.29,-77.45 2085.53,-73.3 2085.08,-80.29"/>
</g>
<!-- Node17 -->
<g id="node17" class="node">
<title>Node17</title>
<g id="a_node17"><a xlink:href="../../d2/d00/vtooloptionspropertybrowser_8cpp.html" target="_top" xlink:title=" ">
<polygon fill="white" stroke="black" points="1494,-0.5 1494,-30.5 1674,-30.5 1674,-0.5 1494,-0.5"/>
<text text-anchor="start" x="1502" y="-18.5" font-family="Helvetica,sans-Serif" font-size="10.00">src/app/seamly2d/core</text>
<text text-anchor="middle" x="1584" y="-7.5" font-family="Helvetica,sans-Serif" font-size="10.00">/vtooloptionspropertybrowser.cpp</text>
</a>
</g>
</g>
<!-- Node13&#45;&gt;Node17 -->
<g id="edge19" class="edge">
<title>Node13&#45;&gt;Node17</title>
<path fill="none" stroke="midnightblue" d="M2085.17,-74.58C1991.5,-65.6 1825.05,-48.93 1683,-31 1680.07,-30.63 1677.09,-30.25 1674.09,-29.85"/>
<polygon fill="midnightblue" stroke="midnightblue" points="2085.1,-78.09 2095.39,-75.56 2085.77,-71.13 2085.1,-78.09"/>
</g>
<!-- Node18 -->
<g id="node18" class="node">
<title>Node18</title>
<g id="a_node18"><a xlink:href="../../dd/dc2/decimalchart__dialog_8cpp.html" target="_top" xlink:title=" ">
<polygon fill="white" stroke="black" points="1692.5,-0.5 1692.5,-30.5 1833.5,-30.5 1833.5,-0.5 1692.5,-0.5"/>
<text text-anchor="start" x="1700.5" y="-18.5" font-family="Helvetica,sans-Serif" font-size="10.00">src/app/seamly2d/dialogs</text>
<text text-anchor="middle" x="1763" y="-7.5" font-family="Helvetica,sans-Serif" font-size="10.00">/decimalchart_dialog.cpp</text>
</a>
</g>
</g>
<!-- Node13&#45;&gt;Node18 -->
<g id="edge20" class="edge">
<title>Node13&#45;&gt;Node18</title>
<path fill="none" stroke="midnightblue" d="M2085.37,-70.18C2021.28,-60.22 1925.92,-45.14 1843,-31 1839.94,-30.48 1836.81,-29.94 1833.66,-29.39"/>
<polygon fill="midnightblue" stroke="midnightblue" points="2084.97,-73.66 2095.38,-71.73 2086.04,-66.74 2084.97,-73.66"/>
</g>
<!-- Node19 -->
<g id="node19" class="node">
<title>Node19</title>
<g id="a_node19"><a xlink:href="../../dc/d63/preferencespatternpage_8cpp.html" target="_top" xlink:title=" ">
<polygon fill="white" stroke="black" points="1852,-0.5 1852,-30.5 2070,-30.5 2070,-0.5 1852,-0.5"/>
<text text-anchor="start" x="1860" y="-18.5" font-family="Helvetica,sans-Serif" font-size="10.00">src/app/seamly2d/dialogs</text>
<text text-anchor="middle" x="1961" y="-7.5" font-family="Helvetica,sans-Serif" font-size="10.00">/configpages/preferencespatternpage.cpp</text>
</a>
</g>
</g>
<!-- Node13&#45;&gt;Node19 -->
<g id="edge21" class="edge">
<title>Node13&#45;&gt;Node19</title>
<path fill="none" stroke="midnightblue" d="M2106.39,-64.23C2074.36,-53.71 2033.96,-40.45 2003.88,-30.58"/>
<polygon fill="midnightblue" stroke="midnightblue" points="2105.44,-67.6 2116.04,-67.4 2107.63,-60.95 2105.44,-67.6"/>
</g>
<!-- Node20 -->
<g id="node20" class="node">
<title>Node20</title>
<g id="a_node20"><a xlink:href="../../dd/d64/dialogaboutapp_8cpp.html" target="_top" xlink:title=" ">
<polygon fill="white" stroke="black" points="2088.5,-0.5 2088.5,-30.5 2229.5,-30.5 2229.5,-0.5 2088.5,-0.5"/>
<text text-anchor="start" x="2096.5" y="-18.5" font-family="Helvetica,sans-Serif" font-size="10.00">src/app/seamly2d/dialogs</text>
<text text-anchor="middle" x="2159" y="-7.5" font-family="Helvetica,sans-Serif" font-size="10.00">/dialogaboutapp.cpp</text>
</a>
</g>
</g>
<!-- Node13&#45;&gt;Node20 -->
<g id="edge22" class="edge">
<title>Node13&#45;&gt;Node20</title>
<path fill="none" stroke="midnightblue" d="M2159,-57.11C2159,-48.15 2159,-38.32 2159,-30.58"/>
<polygon fill="midnightblue" stroke="midnightblue" points="2155.5,-57.4 2159,-67.4 2162.5,-57.4 2155.5,-57.4"/>
</g>
<!-- Node21 -->
<g id="node21" class="node">
<title>Node21</title>
<g id="a_node21"><a xlink:href="../../d2/d2d/preferencesconfigurationpage_8cpp.html" target="_top" xlink:title=" ">
<polygon fill="white" stroke="black" points="2247.5,-0.5 2247.5,-30.5 2494.5,-30.5 2494.5,-0.5 2247.5,-0.5"/>
<text text-anchor="start" x="2255.5" y="-18.5" font-family="Helvetica,sans-Serif" font-size="10.00">src/app/seamly2d/dialogs</text>
<text text-anchor="middle" x="2371" y="-7.5" font-family="Helvetica,sans-Serif" font-size="10.00">/configpages/preferencesconfigurationpage.cpp</text>
</a>
</g>
</g>
<!-- Node13&#45;&gt;Node21 -->
<g id="edge23" class="edge">
<title>Node13&#45;&gt;Node21</title>
<path fill="none" stroke="midnightblue" d="M2214.63,-64.44C2248.99,-53.91 2292.56,-40.55 2324.98,-30.61"/>
<polygon fill="midnightblue" stroke="midnightblue" points="2213.27,-61.2 2204.74,-67.48 2215.33,-67.89 2213.27,-61.2"/>
</g>
<!-- Node22 -->
<g id="node22" class="node">
<title>Node22</title>
<g id="a_node22"><a xlink:href="../../d6/d89/dialoglayoutprogress_8cpp.html" target="_top" xlink:title=" ">
<polygon fill="white" stroke="black" points="2512.5,-0.5 2512.5,-30.5 2655.5,-30.5 2655.5,-0.5 2512.5,-0.5"/>
<text text-anchor="start" x="2520.5" y="-18.5" font-family="Helvetica,sans-Serif" font-size="10.00">src/app/seamly2d/dialogs</text>
<text text-anchor="middle" x="2584" y="-7.5" font-family="Helvetica,sans-Serif" font-size="10.00">/dialoglayoutprogress.cpp</text>
</a>
</g>
</g>
<!-- Node13&#45;&gt;Node22 -->
<g id="edge24" class="edge">
<title>Node13&#45;&gt;Node22</title>
<path fill="none" stroke="midnightblue" d="M2232.82,-71.35C2302.55,-61.59 2410.02,-46.14 2503,-31 2506.1,-30.49 2509.27,-29.97 2512.47,-29.43"/>
<polygon fill="midnightblue" stroke="midnightblue" points="2232.23,-67.89 2222.81,-72.74 2233.2,-74.83 2232.23,-67.89"/>
</g>
<!-- Node23 -->
<g id="node23" class="node">
<title>Node23</title>
<g id="a_node23"><a xlink:href="../../d5/dc5/dialogpreferences_8cpp.html" target="_top" xlink:title=" ">
<polygon fill="white" stroke="black" points="2673.5,-0.5 2673.5,-30.5 2814.5,-30.5 2814.5,-0.5 2673.5,-0.5"/>
<text text-anchor="start" x="2681.5" y="-18.5" font-family="Helvetica,sans-Serif" font-size="10.00">src/app/seamly2d/dialogs</text>
<text text-anchor="middle" x="2744" y="-7.5" font-family="Helvetica,sans-Serif" font-size="10.00">/dialogpreferences.cpp</text>
</a>
</g>
</g>
<!-- Node13&#45;&gt;Node23 -->
<g id="edge25" class="edge">
<title>Node13&#45;&gt;Node23</title>
<path fill="none" stroke="midnightblue" d="M2232.81,-74.85C2352.25,-63.96 2582.71,-42.41 2664,-31 2667.08,-30.57 2670.21,-30.1 2673.38,-29.61"/>
<polygon fill="midnightblue" stroke="midnightblue" points="2232.3,-71.38 2222.65,-75.77 2232.93,-78.35 2232.3,-71.38"/>
</g>
<!-- Node24 -->
<g id="node24" class="node">
<title>Node24</title>
<g id="a_node24"><a xlink:href="../../d5/d18/dialogpatternproperties_8cpp.html" target="_top" xlink:title=" ">
<polygon fill="white" stroke="black" points="2832.5,-0.5 2832.5,-30.5 2987.5,-30.5 2987.5,-0.5 2832.5,-0.5"/>
<text text-anchor="start" x="2840.5" y="-18.5" font-family="Helvetica,sans-Serif" font-size="10.00">src/app/seamly2d/dialogs</text>
<text text-anchor="middle" x="2910" y="-7.5" font-family="Helvetica,sans-Serif" font-size="10.00">/dialogpatternproperties.cpp</text>
</a>
</g>
</g>
<!-- Node13&#45;&gt;Node24 -->
<g id="edge26" class="edge">
<title>Node13&#45;&gt;Node24</title>
<path fill="none" stroke="midnightblue" d="M2232.81,-74.81C2261.57,-72.27 2294.82,-69.41 2325,-67 2546.21,-49.34 2602.65,-57.27 2823,-31 2826.04,-30.64 2829.14,-30.24 2832.26,-29.82"/>
<polygon fill="midnightblue" stroke="midnightblue" points="2232.48,-71.33 2222.83,-75.7 2233.1,-78.3 2232.48,-71.33"/>
</g>
<!-- Node25 -->
<g id="node25" class="node">
<title>Node25</title>
<g id="a_node25"><a xlink:href="../../db/d5c/groups__widget_8cpp.html" target="_top" xlink:title=" ">
<polygon fill="white" stroke="black" points="3005.5,-0.5 3005.5,-30.5 3146.5,-30.5 3146.5,-0.5 3005.5,-0.5"/>
<text text-anchor="start" x="3013.5" y="-18.5" font-family="Helvetica,sans-Serif" font-size="10.00">src/app/seamly2d/dialogs</text>
<text text-anchor="middle" x="3076" y="-7.5" font-family="Helvetica,sans-Serif" font-size="10.00">/groups_widget.cpp</text>
</a>
</g>
</g>
<!-- Node13&#45;&gt;Node25 -->
<g id="edge28" class="edge">
<title>Node13&#45;&gt;Node25</title>
<path fill="none" stroke="midnightblue" d="M2232.78,-74.52C2261.55,-71.94 2294.8,-69.13 2325,-67 2622.91,-46 2699.37,-65.7 2996,-31 2999.08,-30.64 3002.23,-30.23 3005.4,-29.79"/>
<polygon fill="midnightblue" stroke="midnightblue" points="2232.46,-71.04 2222.81,-75.42 2233.09,-78.01 2232.46,-71.04"/>
</g>
<!-- Node13&#45;&gt;Node26 -->
<g id="edge29" class="edge">
<title>Node13&#45;&gt;Node26</title>
<path fill="none" stroke="midnightblue" d="M2232.75,-74.01C2261.51,-71.36 2294.77,-68.64 2325,-67 3075.18,-26.29 3267.41,-105.42 4015,-31 4017.7,-30.73 4020.45,-30.42 4023.22,-30.08"/>
<polygon fill="midnightblue" stroke="midnightblue" points="2232.41,-70.53 2222.78,-74.94 2233.06,-77.5 2232.41,-70.53"/>
</g>
<!-- Node27 -->
<g id="node27" class="node">
<title>Node27</title>
<g id="a_node27"><a xlink:href="../../dd/d84/shortcuts__dialog_8cpp.html" target="_top" xlink:title=" ">
<polygon fill="white" stroke="black" points="3164.5,-0.5 3164.5,-30.5 3305.5,-30.5 3305.5,-0.5 3164.5,-0.5"/>
<text text-anchor="start" x="3172.5" y="-18.5" font-family="Helvetica,sans-Serif" font-size="10.00">src/app/seamly2d/dialogs</text>
<text text-anchor="middle" x="3235" y="-7.5" font-family="Helvetica,sans-Serif" font-size="10.00">/shortcuts_dialog.cpp</text>
</a>
</g>
</g>
<!-- Node13&#45;&gt;Node27 -->
<g id="edge30" class="edge">
<title>Node13&#45;&gt;Node27</title>
<path fill="none" stroke="midnightblue" d="M2232.77,-74.36C2261.53,-71.76 2294.79,-68.97 2325,-67 2693.45,-42.93 2788.05,-72.02 3155,-31 3158.09,-30.66 3161.23,-30.26 3164.41,-29.83"/>
<polygon fill="midnightblue" stroke="midnightblue" points="2232.44,-70.87 2222.8,-75.27 2233.08,-77.85 2232.44,-70.87"/>
</g>
<!-- Node28 -->
<g id="node28" class="node">
<title>Node28</title>
<g id="a_node28"><a xlink:href="../../d2/df4/show__info__dialog_8cpp.html" target="_top" xlink:title=" ">
<polygon fill="white" stroke="black" points="3323.5,-0.5 3323.5,-30.5 3464.5,-30.5 3464.5,-0.5 3323.5,-0.5"/>
<text text-anchor="start" x="3331.5" y="-18.5" font-family="Helvetica,sans-Serif" font-size="10.00">src/app/seamly2d/dialogs</text>
<text text-anchor="middle" x="3394" y="-7.5" font-family="Helvetica,sans-Serif" font-size="10.00">/show_info_dialog.cpp</text>
</a>
</g>
</g>
<!-- Node13&#45;&gt;Node28 -->
<g id="edge31" class="edge">
<title>Node13&#45;&gt;Node28</title>
<path fill="none" stroke="midnightblue" d="M2232.77,-74.25C2261.52,-71.63 2294.78,-68.87 2325,-67 2764.01,-39.85 2876.71,-78.34 3314,-31 3317.09,-30.67 3320.23,-30.28 3323.41,-29.86"/>
<polygon fill="midnightblue" stroke="midnightblue" points="2232.43,-70.76 2222.79,-75.17 2233.07,-77.73 2232.43,-70.76"/>
</g>
<!-- Node29 -->
<g id="node29" class="node">
<title>Node29</title>
<g id="a_node29"><a xlink:href="../../df/d69/welcome__dialog_8cpp.html" target="_top" xlink:title=" ">
<polygon fill="white" stroke="black" points="3482.5,-0.5 3482.5,-30.5 3623.5,-30.5 3623.5,-0.5 3482.5,-0.5"/>
<text text-anchor="start" x="3490.5" y="-18.5" font-family="Helvetica,sans-Serif" font-size="10.00">src/app/seamly2d/dialogs</text>
<text text-anchor="middle" x="3553" y="-7.5" font-family="Helvetica,sans-Serif" font-size="10.00">/welcome_dialog.cpp</text>
</a>
</g>
</g>
<!-- Node13&#45;&gt;Node29 -->
<g id="edge32" class="edge">
<title>Node13&#45;&gt;Node29</title>
<path fill="none" stroke="midnightblue" d="M2232.76,-74.17C2261.52,-71.54 2294.78,-68.79 2325,-67 2834.58,-36.78 2965.36,-84.67 3473,-31 3476.09,-30.67 3479.24,-30.3 3482.41,-29.88"/>
<polygon fill="midnightblue" stroke="midnightblue" points="2232.42,-70.68 2222.79,-75.09 2233.07,-77.65 2232.42,-70.68"/>
</g>
<!-- Node30 -->
<g id="node30" class="node">
<title>Node30</title>
<g id="a_node30"><a xlink:href="../../d3/d49/vpattern_8cpp.html" target="_top" xlink:title=" ">
<polygon fill="white" stroke="black" points="3641.5,-0.5 3641.5,-30.5 3766.5,-30.5 3766.5,-0.5 3641.5,-0.5"/>
<text text-anchor="start" x="3649.5" y="-18.5" font-family="Helvetica,sans-Serif" font-size="10.00">src/app/seamly2d/xml</text>
<text text-anchor="middle" x="3704" y="-7.5" font-family="Helvetica,sans-Serif" font-size="10.00">/vpattern.cpp</text>
</a>
</g>
</g>
<!-- Node13&#45;&gt;Node30 -->
<g id="edge35" class="edge">
<title>Node13&#45;&gt;Node30</title>
<path fill="none" stroke="midnightblue" d="M2232.76,-74.11C2261.52,-71.47 2294.77,-68.73 2325,-67 2905.15,-33.7 3054.61,-96.6 3632,-31 3635.04,-30.65 3638.14,-30.25 3641.27,-29.79"/>
<polygon fill="midnightblue" stroke="midnightblue" points="2232.42,-70.62 2222.79,-75.03 2233.07,-77.59 2232.42,-70.62"/>
</g>
</g>
</svg>
        <g id="navigator" transform="translate(0 0)" fill="#404254">
                <rect fill="#f2f5e9" fill-opacity="0.5" stroke="#606060" stroke-width=".5" x="0" y="0" width="60" height="60"/>
                <use id="zoomplus" xlink:href="#zoomPlus" x="17" y="9" onmousedown="handleZoom(evt,'in')"/>
                <use id="zoomminus" xlink:href="#zoomMin" x="42" y="9" onmousedown="handleZoom(evt,'out')"/>
                <use id="reset" xlink:href="#resetDef" x="30" y="36" onmousedown="handleReset()"/>
                <g id="arrowUp" xlink:href="#dirArrow" transform="translate(30 24)" onmousedown="handlePan(0,-1)">
                  <use xlink:href="#rim" fill="#404040">
                        <set attributeName="fill" to="#808080" begin="arrowUp.mouseover" end="arrowUp.mouseout"/>
                  </use>
                  <path fill="none" stroke="white" stroke-width="1.5" d="M0,-3.0v7 M-2.5,-0.5L0,-3.0L2.5,-0.5"/>
                </g>
                <g id="arrowRight" xlink:href="#dirArrow" transform="rotate(90) translate(36 -43)" onmousedown="handlePan(1,0)">
                  <use xlink:href="#rim" fill="#404040">
                        <set attributeName="fill" to="#808080" begin="arrowRight.mouseover" end="arrowRight.mouseout"/>
                  </use>
                  <path fill="none" stroke="white" stroke-width="1.5" d="M0,-3.0v7 M-2.5,-0.5L0,-3.0L2.5,-0.5"/>
                </g>
                <g id="arrowDown" xlink:href="#dirArrow" transform="rotate(180) translate(-30 -48)" onmousedown="handlePan(0,1)">
                  <use xlink:href="#rim" fill="#404040">
                        <set attributeName="fill" to="#808080" begin="arrowDown.mouseover" end="arrowDown.mouseout"/>
                  </use>
                  <path fill="none" stroke="white" stroke-width="1.5" d="M0,-3.0v7 M-2.5,-0.5L0,-3.0L2.5,-0.5"/>
                </g>
                <g id="arrowLeft" xlink:href="#dirArrow" transform="rotate(270) translate(-36 17)" onmousedown="handlePan(-1,0)">
                  <use xlink:href="#rim" fill="#404040">
                        <set attributeName="fill" to="#808080" begin="arrowLeft.mouseover" end="arrowLeft.mouseout"/>
                  </use>
                  <path fill="none" stroke="white" stroke-width="1.5" d="M0,-3.0v7 M-2.5,-0.5L0,-3.0L2.5,-0.5"/>
                </g>
        </g>
        <svg viewBox="0 0 15 15" width="100%" height="30px" preserveAspectRatio="xMaxYMin meet">
         <g id="arrow_out" transform="scale(0.3 0.3)">
          <a xlink:href="abstractlayout__dialog_8h__dep__incl_org.svg" target="_base">
           <rect id="button" ry="5" rx="5" y="6" x="6" height="38" width="38"
                fill="#f2f5e9" fill-opacity="0.5" stroke="#606060" stroke-width="1.0"/>
           <path id="arrow"
             d="M 11.500037,31.436501 C 11.940474,20.09759 22.043105,11.32322 32.158766,21.979434 L 37.068811,17.246167 C 37.068811,17.246167 37.088388,32 37.088388,32 L 22.160133,31.978069 C 22.160133,31.978069 26.997745,27.140456 26.997745,27.140456 C 18.528582,18.264221 13.291696,25.230495 11.500037,31.436501 z"
             style="fill:#404040;"/>
          </a>
         </g>
        </svg>
</svg>
