<?xml version="1.0" encoding="UTF-8" standalone="no"?>
<!DOCTYPE svg PUBLIC "-//W3C//DTD SVG 1.1//EN"
 "http://www.w3.org/Graphics/SVG/1.1/DTD/svg11.dtd">
<!-- Generated by graphviz version 2.43.0 (0)
 -->
<!-- Title: src/app/seamly2d/dialogs/abstractlayout_dialog.h Pages: 1 -->
<svg width="4178pt" height="302pt"
 viewBox="0.00 0.00 4177.50 302.00" xmlns="http://www.w3.org/2000/svg" xmlns:xlink="http://www.w3.org/1999/xlink">
<g id="graph0" class="graph" transform="scale(1 1) rotate(0) translate(4 298)">
<title>src/app/seamly2d/dialogs/abstractlayout_dialog.h</title>
<!-- Node1 -->
<g id="Node000001" class="node">
<title>Node1</title>
<g id="a_Node000001"><a xlink:title=" ">
<polygon fill="#999999" stroke="#666666" points="417.5,-294 276.5,-294 276.5,-264 417.5,-264 417.5,-294"/>
<text text-anchor="start" x="284.5" y="-282" font-family="Helvetica,sans-Serif" font-size="10.00">src/app/seamly2d/dialogs</text>
<text text-anchor="middle" x="347" y="-271" font-family="Helvetica,sans-Serif" font-size="10.00">/abstractlayout_dialog.h</text>
</a>
</g>
</g>
<!-- Node2 -->
<g id="Node000002" class="node">
<title>Node2</title>
<g id="a_Node000002"><a xlink:href="../../dd/db4/abstractlayout__dialog_8cpp.html" target="_top" xlink:title=" ">
<polygon fill="white" stroke="#666666" points="146,-30 0,-30 0,0 146,0 146,-30"/>
<text text-anchor="start" x="8" y="-18" font-family="Helvetica,sans-Serif" font-size="10.00">src/app/seamly2d/dialogs</text>
<text text-anchor="middle" x="73" y="-7" font-family="Helvetica,sans-Serif" font-size="10.00">/abstractlayout_dialog.cpp</text>
</a>
</g>
</g>
<!-- Node1&#45;&gt;Node2 -->
<g id="edge1_Node000001_Node000002" class="edge">
<title>Node1&#45;&gt;Node2</title>
<g id="a_edge1_Node000001_Node000002"><a xlink:title=" ">
<path fill="none" stroke="#63b8ff" d="M311.86,-258.85C297.36,-250.24 280.76,-239.45 267,-228 188.39,-162.57 111.28,-65.99 83.67,-30.1"/>
<polygon fill="#63b8ff" stroke="#63b8ff" points="310.16,-261.91 320.57,-263.91 313.68,-255.86 310.16,-261.91"/>
</a>
</g>
</g>
<!-- Node3 -->
<g id="Node000003" class="node">
<title>Node3</title>
<g id="a_Node000003"><a xlink:href="../../d1/d8e/export__layout__dialog_8h.html" target="_top" xlink:title=" ">
<polygon fill="white" stroke="#666666" points="417.5,-228 276.5,-228 276.5,-198 417.5,-198 417.5,-228"/>
<text text-anchor="start" x="284.5" y="-216" font-family="Helvetica,sans-Serif" font-size="10.00">src/app/seamly2d/dialogs</text>
<text text-anchor="middle" x="347" y="-205" font-family="Helvetica,sans-Serif" font-size="10.00">/export_layout_dialog.h</text>
</a>
</g>
</g>
<!-- Node1&#45;&gt;Node3 -->
<g id="edge2_Node000001_Node000003" class="edge">
<title>Node1&#45;&gt;Node3</title>
<g id="a_edge2_Node000001_Node000003"><a xlink:title=" ">
<path fill="none" stroke="#63b8ff" d="M347,-253.54C347,-244.96 347,-235.61 347,-228.16"/>
<polygon fill="#63b8ff" stroke="#63b8ff" points="343.5,-253.8 347,-263.8 350.5,-253.8 343.5,-253.8"/>
</a>
</g>
</g>
<!-- Node11 -->
<g id="Node000011" class="node">
<title>Node11</title>
<g id="a_Node000011"><a xlink:href="../../d3/dd8/layoutsettings__dialog_8h.html" target="_top" xlink:title=" ">
<polygon fill="white" stroke="#666666" points="1948.5,-228 1807.5,-228 1807.5,-198 1948.5,-198 1948.5,-228"/>
<text text-anchor="start" x="1815.5" y="-216" font-family="Helvetica,sans-Serif" font-size="10.00">src/app/seamly2d/dialogs</text>
<text text-anchor="middle" x="1878" y="-205" font-family="Helvetica,sans-Serif" font-size="10.00">/layoutsettings_dialog.h</text>
</a>
</g>
</g>
<!-- Node1&#45;&gt;Node11 -->
<g id="edge11_Node000001_Node000011" class="edge">
<title>Node1&#45;&gt;Node11</title>
<g id="a_edge11_Node000001_Node000011"><a xlink:title=" ">
<path fill="none" stroke="#63b8ff" d="M427.56,-274.63C695.47,-263.43 1553.86,-227.55 1807.06,-216.97"/>
<polygon fill="#63b8ff" stroke="#63b8ff" points="427.36,-271.14 417.52,-275.05 427.66,-278.13 427.36,-271.14"/>
</a>
</g>
</g>
<!-- Node4 -->
<g id="Node000004" class="node">
<title>Node4</title>
<g id="a_Node000004"><a xlink:href="../../dd/d54/export__layout__dialog_8cpp.html" target="_top" xlink:title=" ">
<polygon fill="white" stroke="#666666" points="546.5,-30 403.5,-30 403.5,0 546.5,0 546.5,-30"/>
<text text-anchor="start" x="411.5" y="-18" font-family="Helvetica,sans-Serif" font-size="10.00">src/app/seamly2d/dialogs</text>
<text text-anchor="middle" x="475" y="-7" font-family="Helvetica,sans-Serif" font-size="10.00">/export_layout_dialog.cpp</text>
</a>
</g>
</g>
<!-- Node3&#45;&gt;Node4 -->
<g id="edge3_Node000003_Node000004" class="edge">
<title>Node3&#45;&gt;Node4</title>
<g id="a_edge3_Node000003_Node000004"><a xlink:title=" ">
<path fill="none" stroke="#63b8ff" d="M349.4,-187.96C351.83,-171.44 356.62,-149.43 366,-132 389.18,-88.93 432.41,-49.96 456.89,-30.02"/>
<polygon fill="#63b8ff" stroke="#63b8ff" points="345.93,-187.56 348.13,-197.92 352.87,-188.45 345.93,-187.56"/>
</a>
</g>
</g>
<!-- Node5 -->
<g id="Node000005" class="node">
<title>Node5</title>
<g id="a_Node000005"><a xlink:href="../../d8/de8/mainwindowsnogui_8cpp.html" target="_top" xlink:title=" ">
<polygon fill="white" stroke="#666666" points="385.5,-24.5 164.5,-24.5 164.5,-5.5 385.5,-5.5 385.5,-24.5"/>
<text text-anchor="middle" x="275" y="-12.5" font-family="Helvetica,sans-Serif" font-size="10.00">src/app/seamly2d/mainwindowsnogui.cpp</text>
</a>
</g>
</g>
<!-- Node3&#45;&gt;Node5 -->
<g id="edge4_Node000003_Node000005" class="edge">
<title>Node3&#45;&gt;Node5</title>
<g id="a_edge4_Node000003_Node000005"><a xlink:title=" ">
<path fill="none" stroke="#63b8ff" d="M338.33,-188.39C322.29,-144.74 288.7,-53.3 278.21,-24.73"/>
<polygon fill="#63b8ff" stroke="#63b8ff" points="335.09,-189.72 341.82,-197.9 341.66,-187.31 335.09,-189.72"/>
</a>
</g>
</g>
<!-- Node6 -->
<g id="Node000006" class="node">
<title>Node6</title>
<g id="a_Node000006"><a xlink:href="../../d1/d82/mainwindowsnogui_8h.html" target="_top" xlink:title=" ">
<polygon fill="white" stroke="#666666" points="584.5,-156.5 375.5,-156.5 375.5,-137.5 584.5,-137.5 584.5,-156.5"/>
<text text-anchor="middle" x="480" y="-144.5" font-family="Helvetica,sans-Serif" font-size="10.00">src/app/seamly2d/mainwindowsnogui.h</text>
</a>
</g>
</g>
<!-- Node3&#45;&gt;Node6 -->
<g id="edge5_Node000003_Node000006" class="edge">
<title>Node3&#45;&gt;Node6</title>
<g id="a_edge5_Node000003_Node000006"><a xlink:title=" ">
<path fill="none" stroke="#63b8ff" d="M385.53,-193.46C410.86,-181.27 442.8,-165.9 462.3,-156.52"/>
<polygon fill="#63b8ff" stroke="#63b8ff" points="383.68,-190.46 376.19,-197.95 386.72,-196.77 383.68,-190.46"/>
</a>
</g>
</g>
<!-- Node6&#45;&gt;Node5 -->
<g id="edge10_Node000006_Node000005" class="edge">
<title>Node6&#45;&gt;Node5</title>
<g id="a_edge10_Node000006_Node000005"><a xlink:title=" ">
<path fill="none" stroke="#63b8ff" d="M458.04,-132.07C415.54,-105.12 323.16,-46.54 288.5,-24.56"/>
<polygon fill="#63b8ff" stroke="#63b8ff" points="456.23,-135.07 466.55,-137.47 459.98,-129.16 456.23,-135.07"/>
</a>
</g>
</g>
<!-- Node7 -->
<g id="Node000007" class="node">
<title>Node7</title>
<g id="a_Node000007"><a xlink:href="../../d9/d53/mainwindow_8h.html" target="_top" xlink:title=" ">
<polygon fill="white" stroke="#666666" points="873,-90.5 697,-90.5 697,-71.5 873,-71.5 873,-90.5"/>
<text text-anchor="middle" x="785" y="-78.5" font-family="Helvetica,sans-Serif" font-size="10.00">src/app/seamly2d/mainwindow.h</text>
</a>
</g>
</g>
<!-- Node6&#45;&gt;Node7 -->
<g id="edge6_Node000006_Node000007" class="edge">
<title>Node6&#45;&gt;Node7</title>
<g id="a_edge6_Node000006_Node000007"><a xlink:title=" ">
<path fill="none" stroke="#63b8ff" d="M530.82,-135.34C590.8,-122.75 689.31,-102.08 744.42,-90.51"/>
<polygon fill="#63b8ff" stroke="#63b8ff" points="529.89,-131.96 520.82,-137.44 531.32,-138.81 529.89,-131.96"/>
</a>
</g>
</g>
<!-- Node8 -->
<g id="Node000008" class="node">
<title>Node8</title>
<g id="a_Node000008"><a xlink:href="../../df/d3e/application__2d_8cpp.html" target="_top" xlink:title=" ">
<polygon fill="white" stroke="#666666" points="691.5,-30 564.5,-30 564.5,0 691.5,0 691.5,-30"/>
<text text-anchor="start" x="572.5" y="-18" font-family="Helvetica,sans-Serif" font-size="10.00">src/app/seamly2d/core</text>
<text text-anchor="middle" x="628" y="-7" font-family="Helvetica,sans-Serif" font-size="10.00">/application_2d.cpp</text>
</a>
</g>
</g>
<!-- Node7&#45;&gt;Node8 -->
<g id="edge7_Node000007_Node000008" class="edge">
<title>Node7&#45;&gt;Node8</title>
<g id="a_edge7_Node000007_Node000008"><a xlink:title=" ">
<path fill="none" stroke="#63b8ff" d="M754.35,-67.5C728.01,-56.77 690.06,-41.3 662.63,-30.12"/>
<polygon fill="#63b8ff" stroke="#63b8ff" points="753.24,-70.83 763.83,-71.37 755.89,-64.35 753.24,-70.83"/>
</a>
</g>
</g>
<!-- Node9 -->
<g id="Node000009" class="node">
<title>Node9</title>
<g id="a_Node000009"><a xlink:href="../../dc/d14/app_2seamly2d_2main_8cpp.html" target="_top" xlink:title=" ">
<polygon fill="white" stroke="#666666" points="860.5,-24.5 709.5,-24.5 709.5,-5.5 860.5,-5.5 860.5,-24.5"/>
<text text-anchor="middle" x="785" y="-12.5" font-family="Helvetica,sans-Serif" font-size="10.00">src/app/seamly2d/main.cpp</text>
</a>
</g>
</g>
<!-- Node7&#45;&gt;Node9 -->
<g id="edge8_Node000007_Node000009" class="edge">
<title>Node7&#45;&gt;Node9</title>
<g id="a_edge8_Node000007_Node000009"><a xlink:title=" ">
<path fill="none" stroke="#63b8ff" d="M785,-61.08C785,-49.13 785,-34.22 785,-24.91"/>
<polygon fill="#63b8ff" stroke="#63b8ff" points="781.5,-61.37 785,-71.37 788.5,-61.37 781.5,-61.37"/>
</a>
</g>
</g>
<!-- Node10 -->
<g id="Node000010" class="node">
<title>Node10</title>
<g id="a_Node000010"><a xlink:href="../../d8/dd9/mainwindow_8cpp.html" target="_top" xlink:title=" ">
<polygon fill="white" stroke="#666666" points="1067,-24.5 879,-24.5 879,-5.5 1067,-5.5 1067,-24.5"/>
<text text-anchor="middle" x="973" y="-12.5" font-family="Helvetica,sans-Serif" font-size="10.00">src/app/seamly2d/mainwindow.cpp</text>
</a>
</g>
</g>
<!-- Node7&#45;&gt;Node10 -->
<g id="edge9_Node000007_Node000010" class="edge">
<title>Node7&#45;&gt;Node10</title>
<g id="a_edge9_Node000007_Node000010"><a xlink:title=" ">
<path fill="none" stroke="#63b8ff" d="M820.25,-68C857.37,-55.36 914.91,-35.78 947.75,-24.6"/>
<polygon fill="#63b8ff" stroke="#63b8ff" points="818.69,-64.83 810.35,-71.37 820.95,-71.46 818.69,-64.83"/>
</a>
</g>
</g>
<!-- Node11&#45;&gt;Node5 -->
<g id="edge41_Node000011_Node000005" class="edge">
<title>Node11&#45;&gt;Node5</title>
<g id="a_edge41_Node000011_Node000005"><a xlink:title=" ">
<path fill="none" stroke="#63b8ff" d="M1797.26,-206.77C1604.64,-193.7 1103.22,-156.32 688,-96 548.69,-75.76 385.03,-40.65 312.66,-24.53"/>
<polygon fill="#63b8ff" stroke="#63b8ff" points="1797.09,-210.26 1807.3,-207.44 1797.56,-203.28 1797.09,-210.26"/>
</a>
</g>
</g>
<!-- Node12 -->
<g id="Node000012" class="node">
<title>Node12</title>
<g id="a_Node000012"><a xlink:href="../../df/d9b/vcmdexport_8cpp.html" target="_top" xlink:title=" ">
<polygon fill="white" stroke="#666666" points="2086.5,-96 1959.5,-96 1959.5,-66 2086.5,-66 2086.5,-96"/>
<text text-anchor="start" x="1967.5" y="-84" font-family="Helvetica,sans-Serif" font-size="10.00">src/app/seamly2d/core</text>
<text text-anchor="middle" x="2023" y="-73" font-family="Helvetica,sans-Serif" font-size="10.00">/vcmdexport.cpp</text>
</a>
</g>
</g>
<!-- Node11&#45;&gt;Node12 -->
<g id="edge12_Node000011_Node000012" class="edge">
<title>Node11&#45;&gt;Node12</title>
<g id="a_edge12_Node000011_Node000012"><a xlink:title=" ">
<path fill="none" stroke="#63b8ff" d="M1909.66,-192.25C1922.65,-183.59 1937.53,-172.91 1950,-162 1973.91,-141.07 1998.06,-112.91 2011.72,-96.19"/>
<polygon fill="#63b8ff" stroke="#63b8ff" points="1907.47,-189.5 1901.02,-197.91 1911.3,-195.36 1907.47,-189.5"/>
</a>
</g>
</g>
<!-- Node13 -->
<g id="Node000013" class="node">
<title>Node13</title>
<g id="a_Node000013"><a xlink:href="../../dd/d57/vcmdexport_8h.html" target="_top" xlink:title=" ">
<polygon fill="white" stroke="#666666" points="1941.5,-162 1814.5,-162 1814.5,-132 1941.5,-132 1941.5,-162"/>
<text text-anchor="start" x="1822.5" y="-150" font-family="Helvetica,sans-Serif" font-size="10.00">src/app/seamly2d/core</text>
<text text-anchor="middle" x="1878" y="-139" font-family="Helvetica,sans-Serif" font-size="10.00">/vcmdexport.h</text>
</a>
</g>
</g>
<!-- Node11&#45;&gt;Node13 -->
<g id="edge13_Node000011_Node000013" class="edge">
<title>Node11&#45;&gt;Node13</title>
<g id="a_edge13_Node000011_Node000013"><a xlink:title=" ">
<path fill="none" stroke="#63b8ff" d="M1878,-187.54C1878,-178.96 1878,-169.61 1878,-162.16"/>
<polygon fill="#63b8ff" stroke="#63b8ff" points="1874.5,-187.8 1878,-197.8 1881.5,-187.8 1874.5,-187.8"/>
</a>
</g>
</g>
<!-- Node27 -->
<g id="Node000027" class="node">
<title>Node27</title>
<g id="a_Node000027"><a xlink:href="../../d0/dfa/layoutsettings__dialog_8cpp.html" target="_top" xlink:title=" ">
<polygon fill="white" stroke="#666666" points="4169.5,-30 4024.5,-30 4024.5,0 4169.5,0 4169.5,-30"/>
<text text-anchor="start" x="4032.5" y="-18" font-family="Helvetica,sans-Serif" font-size="10.00">src/app/seamly2d/dialogs</text>
<text text-anchor="middle" x="4097" y="-7" font-family="Helvetica,sans-Serif" font-size="10.00">/layoutsettings_dialog.cpp</text>
</a>
</g>
</g>
<!-- Node11&#45;&gt;Node27 -->
<g id="edge40_Node000011_Node000027" class="edge">
<title>Node11&#45;&gt;Node27</title>
<g id="a_edge40_Node000011_Node000027"><a xlink:title=" ">
<path fill="none" stroke="#63b8ff" d="M1959.03,-207.63C2242.7,-191.79 3217.19,-132.84 4016,-30 4018.69,-29.65 4021.43,-29.28 4024.19,-28.89"/>
<polygon fill="#63b8ff" stroke="#63b8ff" points="1958.62,-204.15 1948.83,-208.2 1959.01,-211.13 1958.62,-204.15"/>
</a>
</g>
</g>
<!-- Node13&#45;&gt;Node7 -->
<g id="edge39_Node000013_Node000007" class="edge">
<title>Node13&#45;&gt;Node7</title>
<g id="a_edge39_Node000013_Node000007"><a xlink:title=" ">
<path fill="none" stroke="#63b8ff" d="M1803.98,-141.67C1609.23,-130.26 1083.17,-99.46 873.25,-87.17"/>
<polygon fill="#63b8ff" stroke="#63b8ff" points="1803.92,-145.17 1814.11,-142.26 1804.33,-138.18 1803.92,-145.17"/>
</a>
</g>
</g>
<!-- Node13&#45;&gt;Node12 -->
<g id="edge38_Node000013_Node000012" class="edge">
<title>Node13&#45;&gt;Node12</title>
<g id="a_edge38_Node000013_Node000012"><a xlink:title=" ">
<path fill="none" stroke="#63b8ff" d="M1919.27,-127.78C1942.13,-117.69 1970.12,-105.34 1991.25,-96.01"/>
<polygon fill="#63b8ff" stroke="#63b8ff" points="1917.56,-124.71 1909.82,-131.95 1920.38,-131.12 1917.56,-124.71"/>
</a>
</g>
</g>
<!-- Node14 -->
<g id="Node000014" class="node">
<title>Node14</title>
<g id="a_Node000014"><a xlink:href="../../d7/d61/application__2d_8h.html" target="_top" xlink:title=" ">
<polygon fill="white" stroke="#666666" points="1941.5,-96 1814.5,-96 1814.5,-66 1941.5,-66 1941.5,-96"/>
<text text-anchor="start" x="1822.5" y="-84" font-family="Helvetica,sans-Serif" font-size="10.00">src/app/seamly2d/core</text>
<text text-anchor="middle" x="1878" y="-73" font-family="Helvetica,sans-Serif" font-size="10.00">/application_2d.h</text>
</a>
</g>
</g>
<!-- Node13&#45;&gt;Node14 -->
<g id="edge14_Node000013_Node000014" class="edge">
<title>Node13&#45;&gt;Node14</title>
<g id="a_edge14_Node000013_Node000014"><a xlink:title=" ">
<path fill="none" stroke="#63b8ff" d="M1878,-121.54C1878,-112.96 1878,-103.61 1878,-96.16"/>
<polygon fill="#63b8ff" stroke="#63b8ff" points="1874.5,-121.8 1878,-131.8 1881.5,-121.8 1874.5,-121.8"/>
</a>
</g>
</g>
<!-- Node14&#45;&gt;Node2 -->
<g id="edge17_Node000014_Node000002" class="edge">
<title>Node14&#45;&gt;Node2</title>
<g id="a_edge17_Node000014_Node000002"><a xlink:title=" ">
<path fill="none" stroke="#63b8ff" d="M1803.96,-79.23C1517.57,-76.06 482.25,-62.52 155,-30 152.13,-29.71 149.2,-29.39 146.25,-29.03"/>
<polygon fill="#63b8ff" stroke="#63b8ff" points="1804.19,-82.74 1814.23,-79.35 1804.27,-75.74 1804.19,-82.74"/>
</a>
</g>
</g>
<!-- Node14&#45;&gt;Node4 -->
<g id="edge28_Node000014_Node000004" class="edge">
<title>Node14&#45;&gt;Node4</title>
<g id="a_edge28_Node000014_Node000004"><a xlink:title=" ">
<path fill="none" stroke="#63b8ff" d="M1804.3,-80.71C1603.32,-81.88 1029.05,-80.2 555,-30 552.34,-29.72 549.63,-29.4 546.89,-29.05"/>
<polygon fill="#63b8ff" stroke="#63b8ff" points="1804.46,-84.21 1814.44,-80.64 1804.42,-77.21 1804.46,-84.21"/>
</a>
</g>
</g>
<!-- Node14&#45;&gt;Node5 -->
<g id="edge36_Node000014_Node000005" class="edge">
<title>Node14&#45;&gt;Node5</title>
<g id="a_edge36_Node000014_Node000005"><a xlink:title=" ">
<path fill="none" stroke="#63b8ff" d="M1803.95,-79.69C1586.97,-78.3 933.96,-70.79 394,-30 376.06,-28.64 356.65,-26.61 338.82,-24.5"/>
<polygon fill="#63b8ff" stroke="#63b8ff" points="1804.23,-83.19 1814.26,-79.75 1804.28,-76.19 1804.23,-83.19"/>
</a>
</g>
</g>
<!-- Node14&#45;&gt;Node8 -->
<g id="edge15_Node000014_Node000008" class="edge">
<title>Node14&#45;&gt;Node8</title>
<g id="a_edge15_Node000014_Node000008"><a xlink:title=" ">
<path fill="none" stroke="#63b8ff" d="M1803.99,-80.69C1617.82,-81.6 1115.25,-78.91 700,-30 697.22,-29.67 694.38,-29.3 691.52,-28.89"/>
<polygon fill="#63b8ff" stroke="#63b8ff" points="1804.22,-84.19 1814.21,-80.64 1804.19,-77.19 1804.22,-84.19"/>
</a>
</g>
</g>
<!-- Node14&#45;&gt;Node9 -->
<g id="edge34_Node000014_Node000009" class="edge">
<title>Node14&#45;&gt;Node9</title>
<g id="a_edge34_Node000014_Node000009"><a xlink:title=" ">
<path fill="none" stroke="#63b8ff" d="M1804.27,-79.21C1637.42,-76.79 1218.34,-67.2 870,-30 857.21,-28.63 843.42,-26.61 830.75,-24.51"/>
<polygon fill="#63b8ff" stroke="#63b8ff" points="1804.36,-82.71 1814.41,-79.35 1804.46,-75.71 1804.36,-82.71"/>
</a>
</g>
</g>
<!-- Node14&#45;&gt;Node10 -->
<g id="edge35_Node000014_Node000010" class="edge">
<title>Node14&#45;&gt;Node10</title>
<g id="a_edge35_Node000014_Node000010"><a xlink:title=" ">
<path fill="none" stroke="#63b8ff" d="M1804.17,-77.2C1662.65,-71.42 1343.49,-56.48 1076,-30 1061.09,-28.52 1045.03,-26.53 1030.12,-24.52"/>
<polygon fill="#63b8ff" stroke="#63b8ff" points="1804.32,-80.71 1814.45,-77.61 1804.6,-73.71 1804.32,-80.71"/>
</a>
</g>
</g>
<!-- Node15 -->
<g id="Node000015" class="node">
<title>Node15</title>
<g id="a_Node000015"><a xlink:href="../../d2/d00/vtooloptionspropertybrowser_8cpp.html" target="_top" xlink:title=" ">
<polygon fill="white" stroke="#666666" points="3092,-30 2912,-30 2912,0 3092,0 3092,-30"/>
<text text-anchor="start" x="2920" y="-18" font-family="Helvetica,sans-Serif" font-size="10.00">src/app/seamly2d/core</text>
<text text-anchor="middle" x="3002" y="-7" font-family="Helvetica,sans-Serif" font-size="10.00">/vtooloptionspropertybrowser.cpp</text>
</a>
</g>
</g>
<!-- Node14&#45;&gt;Node15 -->
<g id="edge16_Node000014_Node000015" class="edge">
<title>Node14&#45;&gt;Node15</title>
<g id="a_edge16_Node000014_Node000015"><a xlink:title=" ">
<path fill="none" stroke="#63b8ff" d="M1951.52,-65.95C2372.35,-18.22 2483.54,-67.11 2902,-30 2905.23,-29.71 2908.52,-29.4 2911.83,-29.05"/>
<polygon fill="#63b8ff" stroke="#63b8ff" points="1951.06,-62.48 1941.52,-67.1 1951.85,-69.44 1951.06,-62.48"/>
</a>
</g>
</g>
<!-- Node16 -->
<g id="Node000016" class="node">
<title>Node16</title>
<g id="a_Node000016"><a xlink:href="../../d7/dfa/calculator__dialog_8cpp.html" target="_top" xlink:title=" ">
<polygon fill="white" stroke="#666666" points="3251.5,-30 3110.5,-30 3110.5,0 3251.5,0 3251.5,-30"/>
<text text-anchor="start" x="3118.5" y="-18" font-family="Helvetica,sans-Serif" font-size="10.00">src/app/seamly2d/dialogs</text>
<text text-anchor="middle" x="3181" y="-7" font-family="Helvetica,sans-Serif" font-size="10.00">/calculator_dialog.cpp</text>
</a>
</g>
</g>
<!-- Node14&#45;&gt;Node16 -->
<g id="edge18_Node000014_Node000016" class="edge">
<title>Node14&#45;&gt;Node16</title>
<g id="a_edge18_Node000014_Node000016"><a xlink:title=" ">
<path fill="none" stroke="#63b8ff" d="M1951.69,-65.94C2460.39,-9.93 2595.22,-81.9 3101,-30 3104.09,-29.68 3107.23,-29.32 3110.41,-28.91"/>
<polygon fill="#63b8ff" stroke="#63b8ff" points="1951.07,-62.49 1941.52,-67.07 1951.84,-69.45 1951.07,-62.49"/>
</a>
</g>
</g>
<!-- Node17 -->
<g id="Node000017" class="node">
<title>Node17</title>
<g id="a_Node000017"><a xlink:href="../../d2/d2d/preferencesconfigurationpage_8cpp.html" target="_top" xlink:title=" ">
<polygon fill="white" stroke="#666666" points="3516.5,-30 3269.5,-30 3269.5,0 3516.5,0 3516.5,-30"/>
<text text-anchor="start" x="3277.5" y="-18" font-family="Helvetica,sans-Serif" font-size="10.00">src/app/seamly2d/dialogs</text>
<text text-anchor="middle" x="3393" y="-7" font-family="Helvetica,sans-Serif" font-size="10.00">/configpages/preferencesconfigurationpage.cpp</text>
</a>
</g>
</g>
<!-- Node14&#45;&gt;Node17 -->
<g id="edge19_Node000014_Node000017" class="edge">
<title>Node14&#45;&gt;Node17</title>
<g id="a_edge19_Node000014_Node000017"><a xlink:title=" ">
<path fill="none" stroke="#63b8ff" d="M1951.8,-65.93C2531.15,-2.93 2682.81,-68.54 3261,-30 3263.76,-29.82 3266.55,-29.62 3269.36,-29.41"/>
<polygon fill="#63b8ff" stroke="#63b8ff" points="1951.08,-62.49 1941.52,-67.06 1951.84,-69.45 1951.08,-62.49"/>
</a>
</g>
</g>
<!-- Node18 -->
<g id="Node000018" class="node">
<title>Node18</title>
<g id="a_Node000018"><a xlink:href="../../d9/d70/preferencesgraphicsviewpage_8cpp.html" target="_top" xlink:title=" ">
<polygon fill="white" stroke="#666666" points="3783,-30 3535,-30 3535,0 3783,0 3783,-30"/>
<text text-anchor="start" x="3543" y="-18" font-family="Helvetica,sans-Serif" font-size="10.00">src/app/seamly2d/dialogs</text>
<text text-anchor="middle" x="3659" y="-7" font-family="Helvetica,sans-Serif" font-size="10.00">/configpages/preferencesgraphicsviewpage.cpp</text>
</a>
</g>
</g>
<!-- Node14&#45;&gt;Node18 -->
<g id="edge20_Node000014_Node000018" class="edge">
<title>Node14&#45;&gt;Node18</title>
<g id="a_edge20_Node000014_Node000018"><a xlink:title=" ">
<path fill="none" stroke="#63b8ff" d="M1951.55,-65.97C2648.31,8.34 2830.13,-74.5 3526,-30 3528.9,-29.81 3531.83,-29.61 3534.78,-29.4"/>
<polygon fill="#63b8ff" stroke="#63b8ff" points="1951.08,-62.5 1941.51,-67.05 1951.83,-69.46 1951.08,-62.5"/>
</a>
</g>
</g>
<!-- Node19 -->
<g id="Node000019" class="node">
<title>Node19</title>
<g id="a_Node000019"><a xlink:href="../../dc/d20/preferencespathpage_8cpp.html" target="_top" xlink:title=" ">
<polygon fill="white" stroke="#666666" points="4006.5,-30 3801.5,-30 3801.5,0 4006.5,0 4006.5,-30"/>
<text text-anchor="start" x="3809.5" y="-18" font-family="Helvetica,sans-Serif" font-size="10.00">src/app/seamly2d/dialogs</text>
<text text-anchor="middle" x="3904" y="-7" font-family="Helvetica,sans-Serif" font-size="10.00">/configpages/preferencespathpage.cpp</text>
</a>
</g>
</g>
<!-- Node14&#45;&gt;Node19 -->
<g id="edge21_Node000014_Node000019" class="edge">
<title>Node14&#45;&gt;Node19</title>
<g id="a_edge21_Node000014_Node000019"><a xlink:title=" ">
<path fill="none" stroke="#63b8ff" d="M1951.73,-65.95C2766.01,19.56 2978.69,-88.62 3792,-30 3795.03,-29.78 3798.1,-29.54 3801.2,-29.27"/>
<polygon fill="#63b8ff" stroke="#63b8ff" points="1951.09,-62.5 1941.51,-67.03 1951.83,-69.46 1951.09,-62.5"/>
</a>
</g>
</g>
<!-- Node20 -->
<g id="Node000020" class="node">
<title>Node20</title>
<g id="a_Node000020"><a xlink:href="../../dc/d63/preferencespatternpage_8cpp.html" target="_top" xlink:title=" ">
<polygon fill="white" stroke="#666666" points="1303,-30 1085,-30 1085,0 1303,0 1303,-30"/>
<text text-anchor="start" x="1093" y="-18" font-family="Helvetica,sans-Serif" font-size="10.00">src/app/seamly2d/dialogs</text>
<text text-anchor="middle" x="1194" y="-7" font-family="Helvetica,sans-Serif" font-size="10.00">/configpages/preferencespatternpage.cpp</text>
</a>
</g>
</g>
<!-- Node14&#45;&gt;Node20 -->
<g id="edge22_Node000014_Node000020" class="edge">
<title>Node14&#45;&gt;Node20</title>
<g id="a_edge22_Node000014_Node000020"><a xlink:title=" ">
<path fill="none" stroke="#63b8ff" d="M1804.13,-74.19C1696,-65.51 1488.33,-48.24 1312,-30 1309.13,-29.7 1306.22,-29.4 1303.28,-29.08"/>
<polygon fill="#63b8ff" stroke="#63b8ff" points="1804.03,-77.69 1814.28,-75 1804.59,-70.71 1804.03,-77.69"/>
</a>
</g>
</g>
<!-- Node21 -->
<g id="Node000021" class="node">
<title>Node21</title>
<g id="a_Node000021"><a xlink:href="../../dd/dc2/decimalchart__dialog_8cpp.html" target="_top" xlink:title=" ">
<polygon fill="white" stroke="#666666" points="1462.5,-30 1321.5,-30 1321.5,0 1462.5,0 1462.5,-30"/>
<text text-anchor="start" x="1329.5" y="-18" font-family="Helvetica,sans-Serif" font-size="10.00">src/app/seamly2d/dialogs</text>
<text text-anchor="middle" x="1392" y="-7" font-family="Helvetica,sans-Serif" font-size="10.00">/decimalchart_dialog.cpp</text>
</a>
</g>
</g>
<!-- Node14&#45;&gt;Node21 -->
<g id="edge23_Node000014_Node000021" class="edge">
<title>Node14&#45;&gt;Node21</title>
<g id="a_edge23_Node000014_Node000021"><a xlink:title=" ">
<path fill="none" stroke="#63b8ff" d="M1804.23,-72.13C1722.57,-63.14 1587.13,-47.41 1471,-30 1468.24,-29.59 1465.44,-29.15 1462.6,-28.7"/>
<polygon fill="#63b8ff" stroke="#63b8ff" points="1804.09,-75.64 1814.41,-73.25 1804.85,-68.68 1804.09,-75.64"/>
</a>
</g>
</g>
<!-- Node22 -->
<g id="Node000022" class="node">
<title>Node22</title>
<g id="a_Node000022"><a xlink:href="../../dd/d64/dialogaboutapp_8cpp.html" target="_top" xlink:title=" ">
<polygon fill="white" stroke="#666666" points="1621.5,-30 1480.5,-30 1480.5,0 1621.5,0 1621.5,-30"/>
<text text-anchor="start" x="1488.5" y="-18" font-family="Helvetica,sans-Serif" font-size="10.00">src/app/seamly2d/dialogs</text>
<text text-anchor="middle" x="1551" y="-7" font-family="Helvetica,sans-Serif" font-size="10.00">/dialogaboutapp.cpp</text>
</a>
</g>
</g>
<!-- Node14&#45;&gt;Node22 -->
<g id="edge24_Node000014_Node000022" class="edge">
<title>Node14&#45;&gt;Node22</title>
<g id="a_edge24_Node000014_Node000022"><a xlink:title=" ">
<path fill="none" stroke="#63b8ff" d="M1804.21,-65.56C1749.6,-54.87 1675.64,-40.39 1621.76,-29.85"/>
<polygon fill="#63b8ff" stroke="#63b8ff" points="1803.69,-69.02 1814.17,-67.51 1805.03,-62.15 1803.69,-69.02"/>
</a>
</g>
</g>
<!-- Node23 -->
<g id="Node000023" class="node">
<title>Node23</title>
<g id="a_Node000023"><a xlink:href="../../d6/d89/dialoglayoutprogress_8cpp.html" target="_top" xlink:title=" ">
<polygon fill="white" stroke="#666666" points="1782.5,-30 1639.5,-30 1639.5,0 1782.5,0 1782.5,-30"/>
<text text-anchor="start" x="1647.5" y="-18" font-family="Helvetica,sans-Serif" font-size="10.00">src/app/seamly2d/dialogs</text>
<text text-anchor="middle" x="1711" y="-7" font-family="Helvetica,sans-Serif" font-size="10.00">/dialoglayoutprogress.cpp</text>
</a>
</g>
</g>
<!-- Node14&#45;&gt;Node23 -->
<g id="edge25_Node000014_Node000023" class="edge">
<title>Node14&#45;&gt;Node23</title>
<g id="a_edge25_Node000014_Node000023"><a xlink:title=" ">
<path fill="none" stroke="#63b8ff" d="M1831.87,-62.32C1805.29,-52.14 1772.34,-39.51 1747.56,-30.01"/>
<polygon fill="#63b8ff" stroke="#63b8ff" points="1830.76,-65.64 1841.35,-65.95 1833.27,-59.11 1830.76,-65.64"/>
</a>
</g>
</g>
<!-- Node24 -->
<g id="Node000024" class="node">
<title>Node24</title>
<g id="a_Node000024"><a xlink:href="../../d5/d18/dialogpatternproperties_8cpp.html" target="_top" xlink:title=" ">
<polygon fill="white" stroke="#666666" points="1955.5,-30 1800.5,-30 1800.5,0 1955.5,0 1955.5,-30"/>
<text text-anchor="start" x="1808.5" y="-18" font-family="Helvetica,sans-Serif" font-size="10.00">src/app/seamly2d/dialogs</text>
<text text-anchor="middle" x="1878" y="-7" font-family="Helvetica,sans-Serif" font-size="10.00">/dialogpatternproperties.cpp</text>
</a>
</g>
</g>
<!-- Node14&#45;&gt;Node24 -->
<g id="edge26_Node000014_Node000024" class="edge">
<title>Node14&#45;&gt;Node24</title>
<g id="a_edge26_Node000014_Node000024"><a xlink:title=" ">
<path fill="none" stroke="#63b8ff" d="M1878,-55.54C1878,-46.96 1878,-37.61 1878,-30.16"/>
<polygon fill="#63b8ff" stroke="#63b8ff" points="1874.5,-55.8 1878,-65.8 1881.5,-55.8 1874.5,-55.8"/>
</a>
</g>
</g>
<!-- Node25 -->
<g id="Node000025" class="node">
<title>Node25</title>
<g id="a_Node000025"><a xlink:href="../../d5/dc5/dialogpreferences_8cpp.html" target="_top" xlink:title=" ">
<polygon fill="white" stroke="#666666" points="2114.5,-30 1973.5,-30 1973.5,0 2114.5,0 2114.5,-30"/>
<text text-anchor="start" x="1981.5" y="-18" font-family="Helvetica,sans-Serif" font-size="10.00">src/app/seamly2d/dialogs</text>
<text text-anchor="middle" x="2044" y="-7" font-family="Helvetica,sans-Serif" font-size="10.00">/dialogpreferences.cpp</text>
</a>
</g>
</g>
<!-- Node14&#45;&gt;Node25 -->
<g id="edge27_Node000014_Node000025" class="edge">
<title>Node14&#45;&gt;Node25</title>
<g id="a_edge27_Node000014_Node000025"><a xlink:title=" ">
<path fill="none" stroke="#63b8ff" d="M1923.85,-62.32C1950.27,-52.14 1983.02,-39.51 2007.66,-30.01"/>
<polygon fill="#63b8ff" stroke="#63b8ff" points="1922.5,-59.09 1914.43,-65.95 1925.02,-65.62 1922.5,-59.09"/>
</a>
</g>
</g>
<!-- Node26 -->
<g id="Node000026" class="node">
<title>Node26</title>
<g id="a_Node000026"><a xlink:href="../../db/d5c/groups__widget_8cpp.html" target="_top" xlink:title=" ">
<polygon fill="white" stroke="#666666" points="2273.5,-30 2132.5,-30 2132.5,0 2273.5,0 2273.5,-30"/>
<text text-anchor="start" x="2140.5" y="-18" font-family="Helvetica,sans-Serif" font-size="10.00">src/app/seamly2d/dialogs</text>
<text text-anchor="middle" x="2203" y="-7" font-family="Helvetica,sans-Serif" font-size="10.00">/groups_widget.cpp</text>
</a>
</g>
</g>
<!-- Node14&#45;&gt;Node26 -->
<g id="edge29_Node000014_Node000026" class="edge">
<title>Node14&#45;&gt;Node26</title>
<g id="a_edge29_Node000014_Node000026"><a xlink:title=" ">
<path fill="none" stroke="#63b8ff" d="M1951.7,-65.49C2005.8,-54.83 2078.87,-40.44 2132.27,-29.93"/>
<polygon fill="#63b8ff" stroke="#63b8ff" points="1950.96,-62.07 1941.82,-67.43 1952.31,-68.93 1950.96,-62.07"/>
</a>
</g>
</g>
<!-- Node14&#45;&gt;Node27 -->
<g id="edge30_Node000014_Node000027" class="edge">
<title>Node14&#45;&gt;Node27</title>
<g id="a_edge30_Node000014_Node000027"><a xlink:title=" ">
<path fill="none" stroke="#63b8ff" d="M1951.61,-65.97C2865.08,28.94 3105.07,-116.14 4016,-30 4018.7,-29.74 4021.44,-29.45 4024.21,-29.12"/>
<polygon fill="#63b8ff" stroke="#63b8ff" points="1951.09,-62.51 1941.51,-67.03 1951.82,-69.47 1951.09,-62.51"/>
</a>
</g>
</g>
<!-- Node28 -->
<g id="Node000028" class="node">
<title>Node28</title>
<g id="a_Node000028"><a xlink:href="../../dd/d84/shortcuts__dialog_8cpp.html" target="_top" xlink:title=" ">
<polygon fill="white" stroke="#666666" points="2432.5,-30 2291.5,-30 2291.5,0 2432.5,0 2432.5,-30"/>
<text text-anchor="start" x="2299.5" y="-18" font-family="Helvetica,sans-Serif" font-size="10.00">src/app/seamly2d/dialogs</text>
<text text-anchor="middle" x="2362" y="-7" font-family="Helvetica,sans-Serif" font-size="10.00">/shortcuts_dialog.cpp</text>
</a>
</g>
</g>
<!-- Node14&#45;&gt;Node28 -->
<g id="edge31_Node000014_Node000028" class="edge">
<title>Node14&#45;&gt;Node28</title>
<g id="a_edge31_Node000014_Node000028"><a xlink:title=" ">
<path fill="none" stroke="#63b8ff" d="M1951.84,-65.8C2098.53,-44.12 2138.35,-50.34 2282,-30 2285.07,-29.57 2288.21,-29.1 2291.37,-28.62"/>
<polygon fill="#63b8ff" stroke="#63b8ff" points="1950.92,-62.4 1941.55,-67.34 1951.96,-69.32 1950.92,-62.4"/>
</a>
</g>
</g>
<!-- Node29 -->
<g id="Node000029" class="node">
<title>Node29</title>
<g id="a_Node000029"><a xlink:href="../../d2/df4/show__info__dialog_8cpp.html" target="_top" xlink:title=" ">
<polygon fill="white" stroke="#666666" points="2591.5,-30 2450.5,-30 2450.5,0 2591.5,0 2591.5,-30"/>
<text text-anchor="start" x="2458.5" y="-18" font-family="Helvetica,sans-Serif" font-size="10.00">src/app/seamly2d/dialogs</text>
<text text-anchor="middle" x="2521" y="-7" font-family="Helvetica,sans-Serif" font-size="10.00">/show_info_dialog.cpp</text>
</a>
</g>
</g>
<!-- Node14&#45;&gt;Node29 -->
<g id="edge32_Node000014_Node000029" class="edge">
<title>Node14&#45;&gt;Node29</title>
<g id="a_edge32_Node000014_Node000029"><a xlink:title=" ">
<path fill="none" stroke="#63b8ff" d="M1951.65,-65.89C2168.65,-37.66 2227.14,-56.49 2441,-30 2444.08,-29.62 2447.22,-29.2 2450.39,-28.75"/>
<polygon fill="#63b8ff" stroke="#63b8ff" points="1950.99,-62.44 1941.54,-67.22 1951.91,-69.38 1950.99,-62.44"/>
</a>
</g>
</g>
<!-- Node30 -->
<g id="Node000030" class="node">
<title>Node30</title>
<g id="a_Node000030"><a xlink:href="../../df/d69/welcome__dialog_8cpp.html" target="_top" xlink:title=" ">
<polygon fill="white" stroke="#666666" points="2750.5,-30 2609.5,-30 2609.5,0 2750.5,0 2750.5,-30"/>
<text text-anchor="start" x="2617.5" y="-18" font-family="Helvetica,sans-Serif" font-size="10.00">src/app/seamly2d/dialogs</text>
<text text-anchor="middle" x="2680" y="-7" font-family="Helvetica,sans-Serif" font-size="10.00">/welcome_dialog.cpp</text>
</a>
</g>
</g>
<!-- Node14&#45;&gt;Node30 -->
<g id="edge33_Node000014_Node000030" class="edge">
<title>Node14&#45;&gt;Node30</title>
<g id="a_edge33_Node000014_Node000030"><a xlink:title=" ">
<path fill="none" stroke="#63b8ff" d="M1951.83,-65.89C2238.92,-31.06 2315.92,-62.61 2600,-30 2603.08,-29.65 2606.22,-29.25 2609.4,-28.82"/>
<polygon fill="#63b8ff" stroke="#63b8ff" points="1951.03,-62.46 1941.53,-67.16 1951.88,-69.41 1951.03,-62.46"/>
</a>
</g>
</g>
<!-- Node31 -->
<g id="Node000031" class="node">
<title>Node31</title>
<g id="a_Node000031"><a xlink:href="../../d3/d49/vpattern_8cpp.html" target="_top" xlink:title=" ">
<polygon fill="white" stroke="#666666" points="2893.5,-30 2768.5,-30 2768.5,0 2893.5,0 2893.5,-30"/>
<text text-anchor="start" x="2776.5" y="-18" font-family="Helvetica,sans-Serif" font-size="10.00">src/app/seamly2d/xml</text>
<text text-anchor="middle" x="2831" y="-7" font-family="Helvetica,sans-Serif" font-size="10.00">/vpattern.cpp</text>
</a>
</g>
</g>
<!-- Node14&#45;&gt;Node31 -->
<g id="edge37_Node000014_Node000031" class="edge">
<title>Node14&#45;&gt;Node31</title>
<g id="a_edge37_Node000014_Node000031"><a xlink:title=" ">
<path fill="none" stroke="#63b8ff" d="M1951.64,-65.93C2309.17,-24.44 2404.92,-72.07 2759,-30 2762.03,-29.64 2765.13,-29.22 2768.26,-28.77"/>
<polygon fill="#63b8ff" stroke="#63b8ff" points="1951.05,-62.48 1941.52,-67.12 1951.86,-69.43 1951.05,-62.48"/>
</a>
</g>
</g>
</g>
</svg>
