<?xml version="1.0" encoding="UTF-8" standalone="no"?>
<!DOCTYPE svg PUBLIC "-//W3C//DTD SVG 1.1//EN"
 "http://www.w3.org/Graphics/SVG/1.1/DTD/svg11.dtd">
<!-- Generated by graphviz version 2.43.0 (0)
 -->
<!-- Title: src/app/seamly2d/dialogs/abstractlayout_dialog.h Pages: 1 -->
<!--zoomable 307 -->
<svg id="main" version="1.1" xmlns="http://www.w3.org/2000/svg" xmlns:xlink="http://www.w3.org/1999/xlink" xml:space="preserve" onload="init(evt)">
<style type="text/css"><![CDATA[
.edge:hover path { stroke: red; }
.edge:hover polygon { stroke: red; fill: red; }
]]></style>
<script type="text/javascript"><![CDATA[
var edges = document.getElementsByTagName('g');
if (edges && edges.length) {
  for (var i=0;i<edges.length;i++) {
    if (edges[i].id.substr(0,4)=='edge') {
      edges[i].setAttribute('class','edge');
    }
  }
}
]]></script>
        <defs>
                <circle id="rim" cx="0" cy="0" r="7"/>
                <circle id="rim2" cx="0" cy="0" r="3.5"/>
                <g id="zoomPlus">
                        <use xlink:href="#rim" fill="#404040">
                                <set attributeName="fill" to="#808080" begin="zoomplus.mouseover" end="zoomplus.mouseout"/>
                        </use>
                        <path d="M-4,0h8M0,-4v8" fill="none" stroke="white" stroke-width="1.5" pointer-events="none"/>
                </g>
                <g id="zoomMin">
                        <use xlink:href="#rim" fill="#404040">
                                <set attributeName="fill" to="#808080" begin="zoomminus.mouseover" end="zoomminus.mouseout"/>
                        </use>
                        <path d="M-4,0h8" fill="none" stroke="white" stroke-width="1.5" pointer-events="none"/>
                </g>
                <g id="dirArrow">
                        <path fill="none" stroke="white" stroke-width="1.5" d="M0,-3.0v7 M-2.5,-0.5L0,-3.0L2.5,-0.5"/>
                </g>
               <g id="resetDef">
                       <use xlink:href="#rim2" fill="#404040">
                               <set attributeName="fill" to="#808080" begin="reset.mouseover" end="reset.mouseout"/>
                       </use>
               </g>
        </defs>

<script type="text/javascript">
var viewWidth = 4177;
var viewHeight = 307;
var sectionId = 'dynsection-1';
</script>
<script xlink:href="../../svgpan.js"/>
<svg id="graph" class="graph">
<g id="viewport">
<title>src/app/seamly2d/dialogs/abstractlayout_dialog.h</title>
<polygon fill="white" stroke="transparent" points="-4,4 -4,-303 4172.5,-303 4172.5,4 -4,4"/>
<!-- Node1 -->
<g id="node1" class="node">
<title>Node1</title>
<g id="a_node1"><a xlink:title=" ">
<polygon fill="#bfbfbf" stroke="black" points="2373.5,-268.5 2373.5,-298.5 2514.5,-298.5 2514.5,-268.5 2373.5,-268.5"/>
<text text-anchor="start" x="2381.5" y="-286.5" font-family="Helvetica,sans-Serif" font-size="10.00">src/app/seamly2d/dialogs</text>
<text text-anchor="middle" x="2444" y="-275.5" font-family="Helvetica,sans-Serif" font-size="10.00">/abstractlayout_dialog.h</text>
</a>
</g>
</g>
<!-- Node2 -->
<g id="node2" class="node">
<title>Node2</title>
<g id="a_node2"><a xlink:href="../../dd/db4/abstractlayout__dialog_8cpp.html" target="_top" xlink:title=" ">
<polygon fill="white" stroke="black" points="0,-0.5 0,-30.5 146,-30.5 146,-0.5 0,-0.5"/>
<text text-anchor="start" x="8" y="-18.5" font-family="Helvetica,sans-Serif" font-size="10.00">src/app/seamly2d/dialogs</text>
<text text-anchor="middle" x="73" y="-7.5" font-family="Helvetica,sans-Serif" font-size="10.00">/abstractlayout_dialog.cpp</text>
</a>
</g>
</g>
<!-- Node1&#45;&gt;Node2 -->
<g id="edge1" class="edge">
<title>Node1&#45;&gt;Node2</title>
<path fill="none" stroke="midnightblue" d="M2363.03,-279.57C2091.92,-268.77 1191.9,-225.04 460,-98 343.64,-77.8 208.94,-47.96 133.07,-30.54"/>
<polygon fill="midnightblue" stroke="midnightblue" points="2363.05,-283.07 2373.18,-279.97 2363.32,-276.08 2363.05,-283.07"/>
</g>
<!-- Node3 -->
<g id="node3" class="node">
<title>Node3</title>
<g id="a_node3"><a xlink:href="../../d1/d8e/export__layout__dialog_8h.html" target="_top" xlink:title=" ">
<polygon fill="white" stroke="black" points="2373.5,-201.5 2373.5,-231.5 2514.5,-231.5 2514.5,-201.5 2373.5,-201.5"/>
<text text-anchor="start" x="2381.5" y="-219.5" font-family="Helvetica,sans-Serif" font-size="10.00">src/app/seamly2d/dialogs</text>
<text text-anchor="middle" x="2444" y="-208.5" font-family="Helvetica,sans-Serif" font-size="10.00">/export_layout_dialog.h</text>
</a>
</g>
</g>
<!-- Node1&#45;&gt;Node3 -->
<g id="edge2" class="edge">
<title>Node1&#45;&gt;Node3</title>
<path fill="none" stroke="midnightblue" d="M2444,-258.11C2444,-249.15 2444,-239.32 2444,-231.58"/>
<polygon fill="midnightblue" stroke="midnightblue" points="2440.5,-258.4 2444,-268.4 2447.5,-258.4 2440.5,-258.4"/>
</g>
<!-- Node11 -->
<g id="node11" class="node">
<title>Node11</title>
<g id="a_node11"><a xlink:href="../../d3/dd8/layoutsettings__dialog_8h.html" target="_top" xlink:title=" ">
<polygon fill="white" stroke="black" points="2532.5,-201.5 2532.5,-231.5 2673.5,-231.5 2673.5,-201.5 2532.5,-201.5"/>
<text text-anchor="start" x="2540.5" y="-219.5" font-family="Helvetica,sans-Serif" font-size="10.00">src/app/seamly2d/dialogs</text>
<text text-anchor="middle" x="2603" y="-208.5" font-family="Helvetica,sans-Serif" font-size="10.00">/layoutsettings_dialog.h</text>
</a>
</g>
</g>
<!-- Node1&#45;&gt;Node11 -->
<g id="edge11" class="edge">
<title>Node1&#45;&gt;Node11</title>
<path fill="none" stroke="midnightblue" d="M2487.92,-264.54C2513.37,-254.14 2544.93,-241.24 2568.57,-231.58"/>
<polygon fill="midnightblue" stroke="midnightblue" points="2486.43,-261.37 2478.5,-268.4 2489.08,-267.85 2486.43,-261.37"/>
</g>
<!-- Node4 -->
<g id="node4" class="node">
<title>Node4</title>
<g id="a_node4"><a xlink:href="../../dd/d54/export__layout__dialog_8cpp.html" target="_top" xlink:title=" ">
<polygon fill="white" stroke="black" points="164.5,-0.5 164.5,-30.5 307.5,-30.5 307.5,-0.5 164.5,-0.5"/>
<text text-anchor="start" x="172.5" y="-18.5" font-family="Helvetica,sans-Serif" font-size="10.00">src/app/seamly2d/dialogs</text>
<text text-anchor="middle" x="236" y="-7.5" font-family="Helvetica,sans-Serif" font-size="10.00">/export_layout_dialog.cpp</text>
</a>
</g>
</g>
<!-- Node3&#45;&gt;Node4 -->
<g id="edge3" class="edge">
<title>Node3&#45;&gt;Node4</title>
<path fill="none" stroke="midnightblue" d="M2363.2,-214.15C2108.46,-209.04 1299.73,-186.48 637,-98 513.07,-81.45 370.01,-49.14 292.7,-30.56"/>
<polygon fill="midnightblue" stroke="midnightblue" points="2363.41,-217.65 2373.48,-214.35 2363.55,-210.65 2363.41,-217.65"/>
</g>
<!-- Node5 -->
<g id="node5" class="node">
<title>Node5</title>
<g id="a_node5"><a xlink:href="../../d1/d82/mainwindowsnogui_8h.html" target="_top" xlink:title=" ">
<polygon fill="white" stroke="black" points="2346.5,-140 2346.5,-159 2555.5,-159 2555.5,-140 2346.5,-140"/>
<text text-anchor="middle" x="2451" y="-147" font-family="Helvetica,sans-Serif" font-size="10.00">src/app/seamly2d/mainwindowsnogui.h</text>
</a>
</g>
</g>
<!-- Node3&#45;&gt;Node5 -->
<g id="edge4" class="edge">
<title>Node3&#45;&gt;Node5</title>
<path fill="none" stroke="midnightblue" d="M2446.61,-191.25C2447.82,-180.02 2449.18,-167.38 2450.06,-159.19"/>
<polygon fill="midnightblue" stroke="midnightblue" points="2443.11,-191.08 2445.52,-201.4 2450.07,-191.83 2443.11,-191.08"/>
</g>
<!-- Node10 -->
<g id="node10" class="node">
<title>Node10</title>
<g id="a_node10"><a xlink:href="../../d8/de8/mainwindowsnogui_8cpp.html" target="_top" xlink:title=" ">
<polygon fill="white" stroke="black" points="3784.5,-6 3784.5,-25 4005.5,-25 4005.5,-6 3784.5,-6"/>
<text text-anchor="middle" x="3895" y="-13" font-family="Helvetica,sans-Serif" font-size="10.00">src/app/seamly2d/mainwindowsnogui.cpp</text>
</a>
</g>
</g>
<!-- Node3&#45;&gt;Node10 -->
<g id="edge10" class="edge">
<title>Node3&#45;&gt;Node10</title>
<path fill="none" stroke="midnightblue" d="M2524.74,-200.76C2964.95,-130.89 3078.53,-125.84 3517,-67 3627.41,-52.18 3755.96,-35.03 3831.12,-25.01"/>
<polygon fill="midnightblue" stroke="midnightblue" points="2523.93,-197.34 2514.61,-202.37 2525.03,-204.26 2523.93,-197.34"/>
</g>
<!-- Node6 -->
<g id="node6" class="node">
<title>Node6</title>
<g id="a_node6"><a xlink:href="../../d9/d53/mainwindow_8h.html" target="_top" xlink:title=" ">
<polygon fill="white" stroke="black" points="646,-73 646,-92 822,-92 822,-73 646,-73"/>
<text text-anchor="middle" x="734" y="-80" font-family="Helvetica,sans-Serif" font-size="10.00">src/app/seamly2d/mainwindow.h</text>
</a>
</g>
</g>
<!-- Node5&#45;&gt;Node6 -->
<g id="edge5" class="edge">
<title>Node5&#45;&gt;Node6</title>
<path fill="none" stroke="midnightblue" d="M2382.35,-138.7C2367.43,-136.87 2351.71,-135.16 2337,-134 1760.7,-88.38 1064.78,-83.54 822.35,-83.34"/>
<polygon fill="midnightblue" stroke="midnightblue" points="2382.17,-142.2 2392.53,-139.98 2383.05,-135.26 2382.17,-142.2"/>
</g>
<!-- Node5&#45;&gt;Node10 -->
<g id="edge9" class="edge">
<title>Node5&#45;&gt;Node10</title>
<path fill="none" stroke="midnightblue" d="M2518.61,-138.48C2637.11,-121.28 2890.16,-86.13 3105,-67 3402.03,-40.55 3477.92,-56.9 3775,-31 3793.29,-29.41 3813.1,-27.21 3831.25,-25"/>
<polygon fill="midnightblue" stroke="midnightblue" points="2517.99,-135.04 2508.59,-139.94 2518.99,-141.96 2517.99,-135.04"/>
</g>
<!-- Node7 -->
<g id="node7" class="node">
<title>Node7</title>
<g id="a_node7"><a xlink:href="../../df/d3e/application__2d_8cpp.html" target="_top" xlink:title=" ">
<polygon fill="white" stroke="black" points="325.5,-0.5 325.5,-30.5 452.5,-30.5 452.5,-0.5 325.5,-0.5"/>
<text text-anchor="start" x="333.5" y="-18.5" font-family="Helvetica,sans-Serif" font-size="10.00">src/app/seamly2d/core</text>
<text text-anchor="middle" x="389" y="-7.5" font-family="Helvetica,sans-Serif" font-size="10.00">/application_2d.cpp</text>
</a>
</g>
</g>
<!-- Node6&#45;&gt;Node7 -->
<g id="edge6" class="edge">
<title>Node6&#45;&gt;Node7</title>
<path fill="none" stroke="midnightblue" d="M676.66,-71.16C621.38,-61.14 535.4,-45.37 461,-31 458.25,-30.47 455.43,-29.92 452.59,-29.36"/>
<polygon fill="midnightblue" stroke="midnightblue" points="676.15,-74.63 686.61,-72.97 677.4,-67.74 676.15,-74.63"/>
</g>
<!-- Node8 -->
<g id="node8" class="node">
<title>Node8</title>
<g id="a_node8"><a xlink:href="../../dc/d14/app_2seamly2d_2main_8cpp.html" target="_top" xlink:title=" ">
<polygon fill="white" stroke="black" points="470.5,-6 470.5,-25 621.5,-25 621.5,-6 470.5,-6"/>
<text text-anchor="middle" x="546" y="-13" font-family="Helvetica,sans-Serif" font-size="10.00">src/app/seamly2d/main.cpp</text>
</a>
</g>
</g>
<!-- Node6&#45;&gt;Node8 -->
<g id="edge7" class="edge">
<title>Node6&#45;&gt;Node8</title>
<path fill="none" stroke="midnightblue" d="M699.11,-69.44C661.81,-56.54 603.63,-36.42 570.77,-25.06"/>
<polygon fill="midnightblue" stroke="midnightblue" points="698.44,-72.91 709.04,-72.87 700.73,-66.29 698.44,-72.91"/>
</g>
<!-- Node9 -->
<g id="node9" class="node">
<title>Node9</title>
<g id="a_node9"><a xlink:href="../../d8/dd9/mainwindow_8cpp.html" target="_top" xlink:title=" ">
<polygon fill="white" stroke="black" points="640,-6 640,-25 828,-25 828,-6 640,-6"/>
<text text-anchor="middle" x="734" y="-13" font-family="Helvetica,sans-Serif" font-size="10.00">src/app/seamly2d/mainwindow.cpp</text>
</a>
</g>
</g>
<!-- Node6&#45;&gt;Node9 -->
<g id="edge8" class="edge">
<title>Node6&#45;&gt;Node9</title>
<path fill="none" stroke="midnightblue" d="M734,-62.54C734,-50.17 734,-34.62 734,-25.13"/>
<polygon fill="midnightblue" stroke="midnightblue" points="730.5,-62.73 734,-72.73 737.5,-62.73 730.5,-62.73"/>
</g>
<!-- Node11&#45;&gt;Node10 -->
<g id="edge41" class="edge">
<title>Node11&#45;&gt;Node10</title>
<path fill="none" stroke="midnightblue" d="M2683.69,-210.27C2787.84,-202.95 2974.53,-187.94 3133,-165 3413.79,-124.36 3748.02,-50.15 3857.95,-25.05"/>
<polygon fill="midnightblue" stroke="midnightblue" points="2683.29,-206.79 2673.56,-210.97 2683.78,-213.77 2683.29,-206.79"/>
</g>
<!-- Node12 -->
<g id="node12" class="node">
<title>Node12</title>
<g id="a_node12"><a xlink:href="../../dd/d57/vcmdexport_8h.html" target="_top" xlink:title=" ">
<polygon fill="white" stroke="black" points="2201.5,-134.5 2201.5,-164.5 2328.5,-164.5 2328.5,-134.5 2201.5,-134.5"/>
<text text-anchor="start" x="2209.5" y="-152.5" font-family="Helvetica,sans-Serif" font-size="10.00">src/app/seamly2d/core</text>
<text text-anchor="middle" x="2265" y="-141.5" font-family="Helvetica,sans-Serif" font-size="10.00">/vcmdexport.h</text>
</a>
</g>
</g>
<!-- Node11&#45;&gt;Node12 -->
<g id="edge12" class="edge">
<title>Node11&#45;&gt;Node12</title>
<path fill="none" stroke="midnightblue" d="M2522.42,-200.44C2469.65,-190.52 2399.19,-177.17 2337,-165 2334.25,-164.46 2331.44,-163.91 2328.6,-163.35"/>
<polygon fill="midnightblue" stroke="midnightblue" points="2521.92,-203.91 2532.39,-202.32 2523.21,-197.03 2521.92,-203.91"/>
</g>
<!-- Node26 -->
<g id="node26" class="node">
<title>Node26</title>
<g id="a_node26"><a xlink:href="../../d0/dfa/layoutsettings__dialog_8cpp.html" target="_top" xlink:title=" ">
<polygon fill="white" stroke="black" points="4023.5,-0.5 4023.5,-30.5 4168.5,-30.5 4168.5,-0.5 4023.5,-0.5"/>
<text text-anchor="start" x="4031.5" y="-18.5" font-family="Helvetica,sans-Serif" font-size="10.00">src/app/seamly2d/dialogs</text>
<text text-anchor="middle" x="4096" y="-7.5" font-family="Helvetica,sans-Serif" font-size="10.00">/layoutsettings_dialog.cpp</text>
</a>
</g>
</g>
<!-- Node11&#45;&gt;Node26 -->
<g id="edge40" class="edge">
<title>Node11&#45;&gt;Node26</title>
<path fill="none" stroke="midnightblue" d="M2683.97,-211.44C2804.89,-204.83 3039.69,-189.93 3238,-165 3585.69,-121.29 3669.86,-91.65 4015,-31 4017.67,-30.53 4020.4,-30.05 4023.15,-29.56"/>
<polygon fill="midnightblue" stroke="midnightblue" points="2683.49,-207.96 2673.69,-211.99 2683.86,-214.95 2683.49,-207.96"/>
</g>
<!-- Node31 -->
<g id="node31" class="node">
<title>Node31</title>
<g id="a_node31"><a xlink:href="../../df/d9b/vcmdexport_8cpp.html" target="_top" xlink:title=" ">
<polygon fill="white" stroke="black" points="2440.5,-67.5 2440.5,-97.5 2567.5,-97.5 2567.5,-67.5 2440.5,-67.5"/>
<text text-anchor="start" x="2448.5" y="-85.5" font-family="Helvetica,sans-Serif" font-size="10.00">src/app/seamly2d/core</text>
<text text-anchor="middle" x="2504" y="-74.5" font-family="Helvetica,sans-Serif" font-size="10.00">/vcmdexport.cpp</text>
</a>
</g>
</g>
<!-- Node11&#45;&gt;Node31 -->
<g id="edge39" class="edge">
<title>Node11&#45;&gt;Node31</title>
<path fill="none" stroke="midnightblue" d="M2594.63,-191.45C2587.96,-174.37 2577.52,-151.46 2564,-134 2553,-119.79 2537.39,-106.81 2524.85,-97.56"/>
<polygon fill="midnightblue" stroke="midnightblue" points="2591.5,-193.08 2598.28,-201.23 2598.06,-190.63 2591.5,-193.08"/>
</g>
<!-- Node12&#45;&gt;Node6 -->
<g id="edge38" class="edge">
<title>Node12&#45;&gt;Node6</title>
<path fill="none" stroke="midnightblue" d="M2190.92,-145.35C1936.3,-134.54 1097.66,-98.94 822.39,-87.25"/>
<polygon fill="midnightblue" stroke="midnightblue" points="2191.02,-148.86 2201.16,-145.79 2191.32,-141.87 2191.02,-148.86"/>
</g>
<!-- Node13 -->
<g id="node13" class="node">
<title>Node13</title>
<g id="a_node13"><a xlink:href="../../d7/d61/application__2d_8h.html" target="_top" xlink:title=" ">
<polygon fill="white" stroke="black" points="2201.5,-67.5 2201.5,-97.5 2328.5,-97.5 2328.5,-67.5 2201.5,-67.5"/>
<text text-anchor="start" x="2209.5" y="-85.5" font-family="Helvetica,sans-Serif" font-size="10.00">src/app/seamly2d/core</text>
<text text-anchor="middle" x="2265" y="-74.5" font-family="Helvetica,sans-Serif" font-size="10.00">/application_2d.h</text>
</a>
</g>
</g>
<!-- Node12&#45;&gt;Node13 -->
<g id="edge13" class="edge">
<title>Node12&#45;&gt;Node13</title>
<path fill="none" stroke="midnightblue" d="M2265,-124.11C2265,-115.15 2265,-105.32 2265,-97.58"/>
<polygon fill="midnightblue" stroke="midnightblue" points="2261.5,-124.4 2265,-134.4 2268.5,-124.4 2261.5,-124.4"/>
</g>
<!-- Node12&#45;&gt;Node31 -->
<g id="edge37" class="edge">
<title>Node12&#45;&gt;Node31</title>
<path fill="none" stroke="midnightblue" d="M2326.22,-131.85C2365.19,-121.25 2415.1,-107.68 2452.12,-97.61"/>
<polygon fill="midnightblue" stroke="midnightblue" points="2325.3,-128.47 2316.57,-134.48 2327.13,-135.23 2325.3,-128.47"/>
</g>
<!-- Node13&#45;&gt;Node2 -->
<g id="edge14" class="edge">
<title>Node13&#45;&gt;Node2</title>
<path fill="none" stroke="midnightblue" d="M2191.09,-81.23C1866.12,-79.81 562.36,-71.66 155,-31 152.12,-30.71 149.19,-30.38 146.24,-30.02"/>
<polygon fill="midnightblue" stroke="midnightblue" points="2191.31,-84.73 2201.33,-81.27 2191.34,-77.73 2191.31,-84.73"/>
</g>
<!-- Node13&#45;&gt;Node4 -->
<g id="edge27" class="edge">
<title>Node13&#45;&gt;Node4</title>
<path fill="none" stroke="midnightblue" d="M2191.2,-81.1C1882.05,-79.21 689.91,-69.5 316,-31 313.33,-30.73 310.62,-30.41 307.88,-30.07"/>
<polygon fill="midnightblue" stroke="midnightblue" points="2191.37,-84.6 2201.39,-81.16 2191.41,-77.6 2191.37,-84.6"/>
</g>
<!-- Node13&#45;&gt;Node7 -->
<g id="edge15" class="edge">
<title>Node13&#45;&gt;Node7</title>
<path fill="none" stroke="midnightblue" d="M2190.89,-81.11C1895.87,-79.31 804.42,-70.1 461,-31 458.21,-30.68 455.37,-30.31 452.51,-29.9"/>
<polygon fill="midnightblue" stroke="midnightblue" points="2191.02,-84.61 2201.04,-81.17 2191.06,-77.61 2191.02,-84.61"/>
</g>
<!-- Node13&#45;&gt;Node8 -->
<g id="edge33" class="edge">
<title>Node13&#45;&gt;Node8</title>
<path fill="none" stroke="midnightblue" d="M2191.13,-80.57C1914.51,-76.89 939.96,-61.98 631,-31 617.3,-29.63 602.46,-27.37 589.08,-25.04"/>
<polygon fill="midnightblue" stroke="midnightblue" points="2191.41,-84.08 2201.45,-80.71 2191.5,-77.08 2191.41,-84.08"/>
</g>
<!-- Node13&#45;&gt;Node9 -->
<g id="edge36" class="edge">
<title>Node13&#45;&gt;Node9</title>
<path fill="none" stroke="midnightblue" d="M2191.11,-81.61C1979.62,-81.32 1353.97,-76.4 837,-31 820.63,-29.56 802.88,-27.31 786.81,-25.01"/>
<polygon fill="midnightblue" stroke="midnightblue" points="2191.16,-85.11 2201.16,-81.62 2191.16,-78.11 2191.16,-85.11"/>
</g>
<!-- Node13&#45;&gt;Node10 -->
<g id="edge34" class="edge">
<title>Node13&#45;&gt;Node10</title>
<path fill="none" stroke="midnightblue" d="M2338.76,-74.1C2367.51,-71.46 2400.77,-68.72 2431,-67 3027.58,-32.99 3179.07,-74.89 3775,-31 3794.15,-29.59 3814.94,-27.34 3833.75,-25.02"/>
<polygon fill="midnightblue" stroke="midnightblue" points="2338.42,-70.61 2328.79,-75.02 2339.07,-77.58 2338.42,-70.61"/>
</g>
<!-- Node14 -->
<g id="node14" class="node">
<title>Node14</title>
<g id="a_node14"><a xlink:href="../../d2/d2d/preferencesconfigurationpage_8cpp.html" target="_top" xlink:title=" ">
<polygon fill="white" stroke="black" points="846.5,-0.5 846.5,-30.5 1093.5,-30.5 1093.5,-0.5 846.5,-0.5"/>
<text text-anchor="start" x="854.5" y="-18.5" font-family="Helvetica,sans-Serif" font-size="10.00">src/app/seamly2d/dialogs</text>
<text text-anchor="middle" x="970" y="-7.5" font-family="Helvetica,sans-Serif" font-size="10.00">/configpages/preferencesconfigurationpage.cpp</text>
</a>
</g>
</g>
<!-- Node13&#45;&gt;Node14 -->
<g id="edge16" class="edge">
<title>Node13&#45;&gt;Node14</title>
<path fill="none" stroke="midnightblue" d="M2191.14,-79.98C2007.01,-75.84 1512.87,-62.45 1102,-31 1099.24,-30.79 1096.45,-30.57 1093.64,-30.33"/>
<polygon fill="midnightblue" stroke="midnightblue" points="2191.17,-83.49 2201.25,-80.21 2191.33,-76.49 2191.17,-83.49"/>
</g>
<!-- Node15 -->
<g id="node15" class="node">
<title>Node15</title>
<g id="a_node15"><a xlink:href="../../d7/dfa/calculator__dialog_8cpp.html" target="_top" xlink:title=" ">
<polygon fill="white" stroke="black" points="1111.5,-0.5 1111.5,-30.5 1252.5,-30.5 1252.5,-0.5 1111.5,-0.5"/>
<text text-anchor="start" x="1119.5" y="-18.5" font-family="Helvetica,sans-Serif" font-size="10.00">src/app/seamly2d/dialogs</text>
<text text-anchor="middle" x="1182" y="-7.5" font-family="Helvetica,sans-Serif" font-size="10.00">/calculator_dialog.cpp</text>
</a>
</g>
</g>
<!-- Node13&#45;&gt;Node15 -->
<g id="edge17" class="edge">
<title>Node13&#45;&gt;Node15</title>
<path fill="none" stroke="midnightblue" d="M2191.28,-81.04C2024.97,-79.28 1608.09,-70.91 1262,-31 1258.92,-30.64 1255.77,-30.24 1252.6,-29.81"/>
<polygon fill="midnightblue" stroke="midnightblue" points="2191.36,-84.54 2201.4,-81.14 2191.43,-77.54 2191.36,-84.54"/>
</g>
<!-- Node16 -->
<g id="node16" class="node">
<title>Node16</title>
<g id="a_node16"><a xlink:href="../../d2/d00/vtooloptionspropertybrowser_8cpp.html" target="_top" xlink:title=" ">
<polygon fill="white" stroke="black" points="1271,-0.5 1271,-30.5 1451,-30.5 1451,-0.5 1271,-0.5"/>
<text text-anchor="start" x="1279" y="-18.5" font-family="Helvetica,sans-Serif" font-size="10.00">src/app/seamly2d/core</text>
<text text-anchor="middle" x="1361" y="-7.5" font-family="Helvetica,sans-Serif" font-size="10.00">/vtooloptionspropertybrowser.cpp</text>
</a>
</g>
</g>
<!-- Node13&#45;&gt;Node16 -->
<g id="edge18" class="edge">
<title>Node13&#45;&gt;Node16</title>
<path fill="none" stroke="midnightblue" d="M2191.13,-78.91C2049.18,-73.49 1728.52,-59.04 1460,-31 1457.06,-30.69 1454.08,-30.36 1451.07,-30.01"/>
<polygon fill="midnightblue" stroke="midnightblue" points="2191.33,-82.42 2201.45,-79.3 2191.59,-75.43 2191.33,-82.42"/>
</g>
<!-- Node17 -->
<g id="node17" class="node">
<title>Node17</title>
<g id="a_node17"><a xlink:href="../../d9/d70/preferencesgraphicsviewpage_8cpp.html" target="_top" xlink:title=" ">
<polygon fill="white" stroke="black" points="1469,-0.5 1469,-30.5 1717,-30.5 1717,-0.5 1469,-0.5"/>
<text text-anchor="start" x="1477" y="-18.5" font-family="Helvetica,sans-Serif" font-size="10.00">src/app/seamly2d/dialogs</text>
<text text-anchor="middle" x="1593" y="-7.5" font-family="Helvetica,sans-Serif" font-size="10.00">/configpages/preferencesgraphicsviewpage.cpp</text>
</a>
</g>
</g>
<!-- Node13&#45;&gt;Node17 -->
<g id="edge19" class="edge">
<title>Node13&#45;&gt;Node17</title>
<path fill="none" stroke="midnightblue" d="M2191.43,-74.96C2087.63,-65.66 1892.28,-47.85 1726,-31 1723.11,-30.71 1720.19,-30.41 1717.24,-30.11"/>
<polygon fill="midnightblue" stroke="midnightblue" points="2191.22,-78.46 2201.49,-75.86 2191.85,-71.49 2191.22,-78.46"/>
</g>
<!-- Node18 -->
<g id="node18" class="node">
<title>Node18</title>
<g id="a_node18"><a xlink:href="../../dc/d63/preferencespatternpage_8cpp.html" target="_top" xlink:title=" ">
<polygon fill="white" stroke="black" points="1735,-0.5 1735,-30.5 1953,-30.5 1953,-0.5 1735,-0.5"/>
<text text-anchor="start" x="1743" y="-18.5" font-family="Helvetica,sans-Serif" font-size="10.00">src/app/seamly2d/dialogs</text>
<text text-anchor="middle" x="1844" y="-7.5" font-family="Helvetica,sans-Serif" font-size="10.00">/configpages/preferencespatternpage.cpp</text>
</a>
</g>
</g>
<!-- Node13&#45;&gt;Node18 -->
<g id="edge20" class="edge">
<title>Node13&#45;&gt;Node18</title>
<path fill="none" stroke="midnightblue" d="M2190.8,-70.04C2119.38,-59.02 2011.25,-42.32 1934.75,-30.51"/>
<polygon fill="midnightblue" stroke="midnightblue" points="2190.64,-73.56 2201.06,-71.63 2191.71,-66.64 2190.64,-73.56"/>
</g>
<!-- Node19 -->
<g id="node19" class="node">
<title>Node19</title>
<g id="a_node19"><a xlink:href="../../dc/d20/preferencespathpage_8cpp.html" target="_top" xlink:title=" ">
<polygon fill="white" stroke="black" points="1971.5,-0.5 1971.5,-30.5 2176.5,-30.5 2176.5,-0.5 1971.5,-0.5"/>
<text text-anchor="start" x="1979.5" y="-18.5" font-family="Helvetica,sans-Serif" font-size="10.00">src/app/seamly2d/dialogs</text>
<text text-anchor="middle" x="2074" y="-7.5" font-family="Helvetica,sans-Serif" font-size="10.00">/configpages/preferencespathpage.cpp</text>
</a>
</g>
</g>
<!-- Node13&#45;&gt;Node19 -->
<g id="edge21" class="edge">
<title>Node13&#45;&gt;Node19</title>
<path fill="none" stroke="midnightblue" d="M2213.85,-64.09C2183.01,-53.6 2144.25,-40.41 2115.36,-30.58"/>
<polygon fill="midnightblue" stroke="midnightblue" points="2212.96,-67.49 2223.56,-67.4 2215.22,-60.86 2212.96,-67.49"/>
</g>
<!-- Node20 -->
<g id="node20" class="node">
<title>Node20</title>
<g id="a_node20"><a xlink:href="../../dd/dc2/decimalchart__dialog_8cpp.html" target="_top" xlink:title=" ">
<polygon fill="white" stroke="black" points="2194.5,-0.5 2194.5,-30.5 2335.5,-30.5 2335.5,-0.5 2194.5,-0.5"/>
<text text-anchor="start" x="2202.5" y="-18.5" font-family="Helvetica,sans-Serif" font-size="10.00">src/app/seamly2d/dialogs</text>
<text text-anchor="middle" x="2265" y="-7.5" font-family="Helvetica,sans-Serif" font-size="10.00">/decimalchart_dialog.cpp</text>
</a>
</g>
</g>
<!-- Node13&#45;&gt;Node20 -->
<g id="edge22" class="edge">
<title>Node13&#45;&gt;Node20</title>
<path fill="none" stroke="midnightblue" d="M2265,-57.11C2265,-48.15 2265,-38.32 2265,-30.58"/>
<polygon fill="midnightblue" stroke="midnightblue" points="2261.5,-57.4 2265,-67.4 2268.5,-57.4 2261.5,-57.4"/>
</g>
<!-- Node21 -->
<g id="node21" class="node">
<title>Node21</title>
<g id="a_node21"><a xlink:href="../../dd/d64/dialogaboutapp_8cpp.html" target="_top" xlink:title=" ">
<polygon fill="white" stroke="black" points="2353.5,-0.5 2353.5,-30.5 2494.5,-30.5 2494.5,-0.5 2353.5,-0.5"/>
<text text-anchor="start" x="2361.5" y="-18.5" font-family="Helvetica,sans-Serif" font-size="10.00">src/app/seamly2d/dialogs</text>
<text text-anchor="middle" x="2424" y="-7.5" font-family="Helvetica,sans-Serif" font-size="10.00">/dialogaboutapp.cpp</text>
</a>
</g>
</g>
<!-- Node13&#45;&gt;Node21 -->
<g id="edge23" class="edge">
<title>Node13&#45;&gt;Node21</title>
<path fill="none" stroke="midnightblue" d="M2308.92,-63.54C2334.37,-53.14 2365.93,-40.24 2389.57,-30.58"/>
<polygon fill="midnightblue" stroke="midnightblue" points="2307.43,-60.37 2299.5,-67.4 2310.08,-66.85 2307.43,-60.37"/>
</g>
<!-- Node22 -->
<g id="node22" class="node">
<title>Node22</title>
<g id="a_node22"><a xlink:href="../../d6/d89/dialoglayoutprogress_8cpp.html" target="_top" xlink:title=" ">
<polygon fill="white" stroke="black" points="2512.5,-0.5 2512.5,-30.5 2655.5,-30.5 2655.5,-0.5 2512.5,-0.5"/>
<text text-anchor="start" x="2520.5" y="-18.5" font-family="Helvetica,sans-Serif" font-size="10.00">src/app/seamly2d/dialogs</text>
<text text-anchor="middle" x="2584" y="-7.5" font-family="Helvetica,sans-Serif" font-size="10.00">/dialoglayoutprogress.cpp</text>
</a>
</g>
</g>
<!-- Node13&#45;&gt;Node22 -->
<g id="edge24" class="edge">
<title>Node13&#45;&gt;Node22</title>
<path fill="none" stroke="midnightblue" d="M2338.82,-66.46C2391.95,-55.63 2463.11,-41.13 2515.07,-30.54"/>
<polygon fill="midnightblue" stroke="midnightblue" points="2337.89,-63.08 2328.79,-68.5 2339.29,-69.94 2337.89,-63.08"/>
</g>
<!-- Node23 -->
<g id="node23" class="node">
<title>Node23</title>
<g id="a_node23"><a xlink:href="../../d5/d18/dialogpatternproperties_8cpp.html" target="_top" xlink:title=" ">
<polygon fill="white" stroke="black" points="2673.5,-0.5 2673.5,-30.5 2828.5,-30.5 2828.5,-0.5 2673.5,-0.5"/>
<text text-anchor="start" x="2681.5" y="-18.5" font-family="Helvetica,sans-Serif" font-size="10.00">src/app/seamly2d/dialogs</text>
<text text-anchor="middle" x="2751" y="-7.5" font-family="Helvetica,sans-Serif" font-size="10.00">/dialogpatternproperties.cpp</text>
</a>
</g>
</g>
<!-- Node13&#45;&gt;Node23 -->
<g id="edge25" class="edge">
<title>Node13&#45;&gt;Node23</title>
<path fill="none" stroke="midnightblue" d="M2338.68,-73.05C2418.84,-63.66 2550.71,-47.6 2664,-31 2667.03,-30.56 2670.12,-30.09 2673.24,-29.62"/>
<polygon fill="midnightblue" stroke="midnightblue" points="2338.21,-69.58 2328.68,-74.22 2339.02,-76.54 2338.21,-69.58"/>
</g>
<!-- Node24 -->
<g id="node24" class="node">
<title>Node24</title>
<g id="a_node24"><a xlink:href="../../d5/dc5/dialogpreferences_8cpp.html" target="_top" xlink:title=" ">
<polygon fill="white" stroke="black" points="2846.5,-0.5 2846.5,-30.5 2987.5,-30.5 2987.5,-0.5 2846.5,-0.5"/>
<text text-anchor="start" x="2854.5" y="-18.5" font-family="Helvetica,sans-Serif" font-size="10.00">src/app/seamly2d/dialogs</text>
<text text-anchor="middle" x="2917" y="-7.5" font-family="Helvetica,sans-Serif" font-size="10.00">/dialogpreferences.cpp</text>
</a>
</g>
</g>
<!-- Node13&#45;&gt;Node24 -->
<g id="edge26" class="edge">
<title>Node13&#45;&gt;Node24</title>
<path fill="none" stroke="midnightblue" d="M2338.95,-75.01C2492.22,-61.57 2830.89,-31.82 2837,-31 2840.08,-30.59 2843.22,-30.14 2846.39,-29.66"/>
<polygon fill="midnightblue" stroke="midnightblue" points="2338.34,-71.55 2328.68,-75.92 2338.95,-78.53 2338.34,-71.55"/>
</g>
<!-- Node25 -->
<g id="node25" class="node">
<title>Node25</title>
<g id="a_node25"><a xlink:href="../../db/d5c/groups__widget_8cpp.html" target="_top" xlink:title=" ">
<polygon fill="white" stroke="black" points="3005.5,-0.5 3005.5,-30.5 3146.5,-30.5 3146.5,-0.5 3005.5,-0.5"/>
<text text-anchor="start" x="3013.5" y="-18.5" font-family="Helvetica,sans-Serif" font-size="10.00">src/app/seamly2d/dialogs</text>
<text text-anchor="middle" x="3076" y="-7.5" font-family="Helvetica,sans-Serif" font-size="10.00">/groups_widget.cpp</text>
</a>
</g>
</g>
<!-- Node13&#45;&gt;Node25 -->
<g id="edge28" class="edge">
<title>Node13&#45;&gt;Node25</title>
<path fill="none" stroke="midnightblue" d="M2338.8,-74.68C2367.56,-72.12 2400.81,-69.28 2431,-67 2681.91,-48.05 2746.23,-61.49 2996,-31 2999.08,-30.62 3002.23,-30.21 3005.4,-29.75"/>
<polygon fill="midnightblue" stroke="midnightblue" points="2338.47,-71.19 2328.82,-75.57 2339.09,-78.17 2338.47,-71.19"/>
</g>
<!-- Node13&#45;&gt;Node26 -->
<g id="edge29" class="edge">
<title>Node13&#45;&gt;Node26</title>
<path fill="none" stroke="midnightblue" d="M2338.75,-74.03C2367.51,-71.39 2400.77,-68.66 2431,-67 3134.12,-28.34 3314.33,-101.25 4015,-31 4017.7,-30.73 4020.45,-30.42 4023.22,-30.08"/>
<polygon fill="midnightblue" stroke="midnightblue" points="2338.41,-70.55 2328.78,-74.96 2339.06,-77.52 2338.41,-70.55"/>
</g>
<!-- Node27 -->
<g id="node27" class="node">
<title>Node27</title>
<g id="a_node27"><a xlink:href="../../dd/d84/shortcuts__dialog_8cpp.html" target="_top" xlink:title=" ">
<polygon fill="white" stroke="black" points="3164.5,-0.5 3164.5,-30.5 3305.5,-30.5 3305.5,-0.5 3164.5,-0.5"/>
<text text-anchor="start" x="3172.5" y="-18.5" font-family="Helvetica,sans-Serif" font-size="10.00">src/app/seamly2d/dialogs</text>
<text text-anchor="middle" x="3235" y="-7.5" font-family="Helvetica,sans-Serif" font-size="10.00">/shortcuts_dialog.cpp</text>
</a>
</g>
</g>
<!-- Node13&#45;&gt;Node27 -->
<g id="edge30" class="edge">
<title>Node13&#45;&gt;Node27</title>
<path fill="none" stroke="midnightblue" d="M2338.78,-74.46C2367.54,-71.87 2400.79,-69.07 2431,-67 2752.42,-44.98 2834.93,-67.81 3155,-31 3158.09,-30.65 3161.23,-30.24 3164.4,-29.81"/>
<polygon fill="midnightblue" stroke="midnightblue" points="2338.45,-70.97 2328.81,-75.36 2339.08,-77.95 2338.45,-70.97"/>
</g>
<!-- Node28 -->
<g id="node28" class="node">
<title>Node28</title>
<g id="a_node28"><a xlink:href="../../d2/df4/show__info__dialog_8cpp.html" target="_top" xlink:title=" ">
<polygon fill="white" stroke="black" points="3323.5,-0.5 3323.5,-30.5 3464.5,-30.5 3464.5,-0.5 3323.5,-0.5"/>
<text text-anchor="start" x="3331.5" y="-18.5" font-family="Helvetica,sans-Serif" font-size="10.00">src/app/seamly2d/dialogs</text>
<text text-anchor="middle" x="3394" y="-7.5" font-family="Helvetica,sans-Serif" font-size="10.00">/show_info_dialog.cpp</text>
</a>
</g>
</g>
<!-- Node13&#45;&gt;Node28 -->
<g id="edge31" class="edge">
<title>Node13&#45;&gt;Node28</title>
<path fill="none" stroke="midnightblue" d="M2338.77,-74.32C2367.53,-71.71 2400.78,-68.93 2431,-67 2822.97,-41.9 2923.6,-74.13 3314,-31 3317.09,-30.66 3320.23,-30.27 3323.41,-29.84"/>
<polygon fill="midnightblue" stroke="midnightblue" points="2338.44,-70.83 2328.8,-75.23 2339.08,-77.8 2338.44,-70.83"/>
</g>
<!-- Node29 -->
<g id="node29" class="node">
<title>Node29</title>
<g id="a_node29"><a xlink:href="../../df/d69/welcome__dialog_8cpp.html" target="_top" xlink:title=" ">
<polygon fill="white" stroke="black" points="3482.5,-0.5 3482.5,-30.5 3623.5,-30.5 3623.5,-0.5 3482.5,-0.5"/>
<text text-anchor="start" x="3490.5" y="-18.5" font-family="Helvetica,sans-Serif" font-size="10.00">src/app/seamly2d/dialogs</text>
<text text-anchor="middle" x="3553" y="-7.5" font-family="Helvetica,sans-Serif" font-size="10.00">/welcome_dialog.cpp</text>
</a>
</g>
</g>
<!-- Node13&#45;&gt;Node29 -->
<g id="edge32" class="edge">
<title>Node13&#45;&gt;Node29</title>
<path fill="none" stroke="midnightblue" d="M2338.76,-74.22C2367.52,-71.6 2400.78,-68.84 2431,-67 2893.53,-38.83 3012.26,-80.45 3473,-31 3476.09,-30.67 3479.24,-30.29 3482.41,-29.87"/>
<polygon fill="midnightblue" stroke="midnightblue" points="2338.43,-70.73 2328.79,-75.14 2339.07,-77.71 2338.43,-70.73"/>
</g>
<!-- Node30 -->
<g id="node30" class="node">
<title>Node30</title>
<g id="a_node30"><a xlink:href="../../d3/d49/vpattern_8cpp.html" target="_top" xlink:title=" ">
<polygon fill="white" stroke="black" points="3641.5,-0.5 3641.5,-30.5 3766.5,-30.5 3766.5,-0.5 3641.5,-0.5"/>
<text text-anchor="start" x="3649.5" y="-18.5" font-family="Helvetica,sans-Serif" font-size="10.00">src/app/seamly2d/xml</text>
<text text-anchor="middle" x="3704" y="-7.5" font-family="Helvetica,sans-Serif" font-size="10.00">/vpattern.cpp</text>
</a>
</g>
</g>
<!-- Node13&#45;&gt;Node30 -->
<g id="edge35" class="edge">
<title>Node13&#45;&gt;Node30</title>
<path fill="none" stroke="midnightblue" d="M2338.76,-74.15C2367.52,-71.52 2400.77,-68.77 2431,-67 2964.1,-35.75 3101.47,-91.93 3632,-31 3635.04,-30.65 3638.14,-30.24 3641.27,-29.78"/>
<polygon fill="midnightblue" stroke="midnightblue" points="2338.42,-70.66 2328.79,-75.07 2339.07,-77.63 2338.42,-70.66"/>
</g>
</g>
</svg>
        <g id="navigator" transform="translate(0 0)" fill="#404254">
                <rect fill="#f2f5e9" fill-opacity="0.5" stroke="#606060" stroke-width=".5" x="0" y="0" width="60" height="60"/>
                <use id="zoomplus" xlink:href="#zoomPlus" x="17" y="9" onmousedown="handleZoom(evt,'in')"/>
                <use id="zoomminus" xlink:href="#zoomMin" x="42" y="9" onmousedown="handleZoom(evt,'out')"/>
                <use id="reset" xlink:href="#resetDef" x="30" y="36" onmousedown="handleReset()"/>
                <g id="arrowUp" xlink:href="#dirArrow" transform="translate(30 24)" onmousedown="handlePan(0,-1)">
                  <use xlink:href="#rim" fill="#404040">
                        <set attributeName="fill" to="#808080" begin="arrowUp.mouseover" end="arrowUp.mouseout"/>
                  </use>
                  <path fill="none" stroke="white" stroke-width="1.5" d="M0,-3.0v7 M-2.5,-0.5L0,-3.0L2.5,-0.5"/>
                </g>
                <g id="arrowRight" xlink:href="#dirArrow" transform="rotate(90) translate(36 -43)" onmousedown="handlePan(1,0)">
                  <use xlink:href="#rim" fill="#404040">
                        <set attributeName="fill" to="#808080" begin="arrowRight.mouseover" end="arrowRight.mouseout"/>
                  </use>
                  <path fill="none" stroke="white" stroke-width="1.5" d="M0,-3.0v7 M-2.5,-0.5L0,-3.0L2.5,-0.5"/>
                </g>
                <g id="arrowDown" xlink:href="#dirArrow" transform="rotate(180) translate(-30 -48)" onmousedown="handlePan(0,1)">
                  <use xlink:href="#rim" fill="#404040">
                        <set attributeName="fill" to="#808080" begin="arrowDown.mouseover" end="arrowDown.mouseout"/>
                  </use>
                  <path fill="none" stroke="white" stroke-width="1.5" d="M0,-3.0v7 M-2.5,-0.5L0,-3.0L2.5,-0.5"/>
                </g>
                <g id="arrowLeft" xlink:href="#dirArrow" transform="rotate(270) translate(-36 17)" onmousedown="handlePan(-1,0)">
                  <use xlink:href="#rim" fill="#404040">
                        <set attributeName="fill" to="#808080" begin="arrowLeft.mouseover" end="arrowLeft.mouseout"/>
                  </use>
                  <path fill="none" stroke="white" stroke-width="1.5" d="M0,-3.0v7 M-2.5,-0.5L0,-3.0L2.5,-0.5"/>
                </g>
        </g>
        <svg viewBox="0 0 15 15" width="100%" height="30px" preserveAspectRatio="xMaxYMin meet">
         <g id="arrow_out" transform="scale(0.3 0.3)">
          <a xlink:href="abstractlayout__dialog_8h__dep__incl_org.svg" target="_base">
           <rect id="button" ry="5" rx="5" y="6" x="6" height="38" width="38"
                fill="#f2f5e9" fill-opacity="0.5" stroke="#606060" stroke-width="1.0"/>
           <path id="arrow"
             d="M 11.500037,31.436501 C 11.940474,20.09759 22.043105,11.32322 32.158766,21.979434 L 37.068811,17.246167 C 37.068811,17.246167 37.088388,32 37.088388,32 L 22.160133,31.978069 C 22.160133,31.978069 26.997745,27.140456 26.997745,27.140456 C 18.528582,18.264221 13.291696,25.230495 11.500037,31.436501 z"
             style="fill:#404040;"/>
          </a>
         </g>
        </svg>
</svg>
