<?xml version="1.0" encoding="UTF-8" standalone="no"?>
<!DOCTYPE svg PUBLIC "-//W3C//DTD SVG 1.1//EN"
 "http://www.w3.org/Graphics/SVG/1.1/DTD/svg11.dtd">
<!-- Generated by graphviz version 2.43.0 (0)
 -->
<!-- Title: src/app/seamly2d/dialogs/abstractlayout_dialog.h Pages: 1 -->
<svg width="4178pt" height="307pt"
 viewBox="0.00 0.00 4177.50 307.00" xmlns="http://www.w3.org/2000/svg" xmlns:xlink="http://www.w3.org/1999/xlink">
<g id="graph0" class="graph" transform="scale(1 1) rotate(0) translate(4 303)">
<title>src/app/seamly2d/dialogs/abstractlayout_dialog.h</title>
<polygon fill="white" stroke="transparent" points="-4,4 -4,-303 4173.5,-303 4173.5,4 -4,4"/>
<!-- Node1 -->
<g id="node1" class="node">
<title>Node1</title>
<g id="a_node1"><a xlink:title=" ">
<polygon fill="#bfbfbf" stroke="black" points="276.5,-268.5 276.5,-298.5 417.5,-298.5 417.5,-268.5 276.5,-268.5"/>
<text text-anchor="start" x="284.5" y="-286.5" font-family="Helvetica,sans-Serif" font-size="10.00">src/app/seamly2d/dialogs</text>
<text text-anchor="middle" x="347" y="-275.5" font-family="Helvetica,sans-Serif" font-size="10.00">/abstractlayout_dialog.h</text>
</a>
</g>
</g>
<!-- Node2 -->
<g id="node2" class="node">
<title>Node2</title>
<g id="a_node2"><a xlink:href="../../dd/db4/abstractlayout__dialog_8cpp.html" target="_top" xlink:title=" ">
<polygon fill="white" stroke="black" points="0,-0.5 0,-30.5 146,-30.5 146,-0.5 0,-0.5"/>
<text text-anchor="start" x="8" y="-18.5" font-family="Helvetica,sans-Serif" font-size="10.00">src/app/seamly2d/dialogs</text>
<text text-anchor="middle" x="73" y="-7.5" font-family="Helvetica,sans-Serif" font-size="10.00">/abstractlayout_dialog.cpp</text>
</a>
</g>
</g>
<!-- Node1&#45;&gt;Node2 -->
<g id="edge1" class="edge">
<title>Node1&#45;&gt;Node2</title>
<path fill="none" stroke="midnightblue" d="M312.15,-263.36C297.57,-254.64 280.83,-243.66 267,-232 187.91,-165.32 110.79,-66.83 83.44,-30.56"/>
<polygon fill="midnightblue" stroke="midnightblue" points="310.51,-266.45 320.91,-268.48 314.05,-260.41 310.51,-266.45"/>
</g>
<!-- Node3 -->
<g id="node3" class="node">
<title>Node3</title>
<g id="a_node3"><a xlink:href="../../d1/d8e/export__layout__dialog_8h.html" target="_top" xlink:title=" ">
<polygon fill="white" stroke="black" points="276.5,-201.5 276.5,-231.5 417.5,-231.5 417.5,-201.5 276.5,-201.5"/>
<text text-anchor="start" x="284.5" y="-219.5" font-family="Helvetica,sans-Serif" font-size="10.00">src/app/seamly2d/dialogs</text>
<text text-anchor="middle" x="347" y="-208.5" font-family="Helvetica,sans-Serif" font-size="10.00">/export_layout_dialog.h</text>
</a>
</g>
</g>
<!-- Node1&#45;&gt;Node3 -->
<g id="edge2" class="edge">
<title>Node1&#45;&gt;Node3</title>
<path fill="none" stroke="midnightblue" d="M347,-258.11C347,-249.15 347,-239.32 347,-231.58"/>
<polygon fill="midnightblue" stroke="midnightblue" points="343.5,-258.4 347,-268.4 350.5,-258.4 343.5,-258.4"/>
</g>
<!-- Node11 -->
<g id="node11" class="node">
<title>Node11</title>
<g id="a_node11"><a xlink:href="../../d3/dd8/layoutsettings__dialog_8h.html" target="_top" xlink:title=" ">
<polygon fill="white" stroke="black" points="1723.5,-201.5 1723.5,-231.5 1864.5,-231.5 1864.5,-201.5 1723.5,-201.5"/>
<text text-anchor="start" x="1731.5" y="-219.5" font-family="Helvetica,sans-Serif" font-size="10.00">src/app/seamly2d/dialogs</text>
<text text-anchor="middle" x="1794" y="-208.5" font-family="Helvetica,sans-Serif" font-size="10.00">/layoutsettings_dialog.h</text>
</a>
</g>
</g>
<!-- Node1&#45;&gt;Node11 -->
<g id="edge11" class="edge">
<title>Node1&#45;&gt;Node11</title>
<path fill="none" stroke="midnightblue" d="M427.78,-278.87C684.83,-267.32 1481.12,-231.55 1723.36,-220.67"/>
<polygon fill="midnightblue" stroke="midnightblue" points="427.6,-275.38 417.77,-279.32 427.92,-282.37 427.6,-275.38"/>
</g>
<!-- Node4 -->
<g id="node4" class="node">
<title>Node4</title>
<g id="a_node4"><a xlink:href="../../dd/d54/export__layout__dialog_8cpp.html" target="_top" xlink:title=" ">
<polygon fill="white" stroke="black" points="403.5,-0.5 403.5,-30.5 546.5,-30.5 546.5,-0.5 403.5,-0.5"/>
<text text-anchor="start" x="411.5" y="-18.5" font-family="Helvetica,sans-Serif" font-size="10.00">src/app/seamly2d/dialogs</text>
<text text-anchor="middle" x="475" y="-7.5" font-family="Helvetica,sans-Serif" font-size="10.00">/export_layout_dialog.cpp</text>
</a>
</g>
</g>
<!-- Node3&#45;&gt;Node4 -->
<g id="edge3" class="edge">
<title>Node3&#45;&gt;Node4</title>
<path fill="none" stroke="midnightblue" d="M349.32,-191.33C351.7,-174.47 356.49,-151.89 366,-134 389.11,-90.51 432.37,-50.99 456.87,-30.74"/>
<polygon fill="midnightblue" stroke="midnightblue" points="345.82,-191.12 348.07,-201.47 352.76,-191.97 345.82,-191.12"/>
</g>
<!-- Node5 -->
<g id="node5" class="node">
<title>Node5</title>
<g id="a_node5"><a xlink:href="../../d8/de8/mainwindowsnogui_8cpp.html" target="_top" xlink:title=" ">
<polygon fill="white" stroke="black" points="164.5,-6 164.5,-25 385.5,-25 385.5,-6 164.5,-6"/>
<text text-anchor="middle" x="275" y="-13" font-family="Helvetica,sans-Serif" font-size="10.00">src/app/seamly2d/mainwindowsnogui.cpp</text>
</a>
</g>
</g>
<!-- Node3&#45;&gt;Node5 -->
<g id="edge4" class="edge">
<title>Node3&#45;&gt;Node5</title>
<path fill="none" stroke="midnightblue" d="M338.33,-191.53C322.29,-147.21 288.7,-54.38 278.21,-25.36"/>
<polygon fill="midnightblue" stroke="midnightblue" points="335.13,-192.98 341.82,-201.19 341.71,-190.59 335.13,-192.98"/>
</g>
<!-- Node6 -->
<g id="node6" class="node">
<title>Node6</title>
<g id="a_node6"><a xlink:href="../../d1/d82/mainwindowsnogui_8h.html" target="_top" xlink:title=" ">
<polygon fill="white" stroke="black" points="375.5,-140 375.5,-159 584.5,-159 584.5,-140 375.5,-140"/>
<text text-anchor="middle" x="480" y="-147" font-family="Helvetica,sans-Serif" font-size="10.00">src/app/seamly2d/mainwindowsnogui.h</text>
</a>
</g>
</g>
<!-- Node3&#45;&gt;Node6 -->
<g id="edge5" class="edge">
<title>Node3&#45;&gt;Node6</title>
<path fill="none" stroke="midnightblue" d="M384.92,-196.97C410.47,-184.48 442.97,-168.6 462.59,-159.01"/>
<polygon fill="midnightblue" stroke="midnightblue" points="383.31,-193.86 375.86,-201.4 386.38,-200.15 383.31,-193.86"/>
</g>
<!-- Node6&#45;&gt;Node5 -->
<g id="edge10" class="edge">
<title>Node6&#45;&gt;Node5</title>
<path fill="none" stroke="midnightblue" d="M458.02,-134.35C415.4,-106.9 322.68,-47.2 288.23,-25.02"/>
<polygon fill="midnightblue" stroke="midnightblue" points="456.25,-137.37 466.55,-139.84 460.04,-131.48 456.25,-137.37"/>
</g>
<!-- Node7 -->
<g id="node7" class="node">
<title>Node7</title>
<g id="a_node7"><a xlink:href="../../d9/d53/mainwindow_8h.html" target="_top" xlink:title=" ">
<polygon fill="white" stroke="black" points="697,-73 697,-92 873,-92 873,-73 697,-73"/>
<text text-anchor="middle" x="785" y="-80" font-family="Helvetica,sans-Serif" font-size="10.00">src/app/seamly2d/mainwindow.h</text>
</a>
</g>
</g>
<!-- Node6&#45;&gt;Node7 -->
<g id="edge6" class="edge">
<title>Node6&#45;&gt;Node7</title>
<path fill="none" stroke="midnightblue" d="M530.19,-137.8C590.21,-125.01 689.48,-103.86 744.72,-92.08"/>
<polygon fill="midnightblue" stroke="midnightblue" points="529.24,-134.43 520.19,-139.94 530.7,-141.27 529.24,-134.43"/>
</g>
<!-- Node8 -->
<g id="node8" class="node">
<title>Node8</title>
<g id="a_node8"><a xlink:href="../../df/d3e/application__2d_8cpp.html" target="_top" xlink:title=" ">
<polygon fill="white" stroke="black" points="564.5,-0.5 564.5,-30.5 691.5,-30.5 691.5,-0.5 564.5,-0.5"/>
<text text-anchor="start" x="572.5" y="-18.5" font-family="Helvetica,sans-Serif" font-size="10.00">src/app/seamly2d/core</text>
<text text-anchor="middle" x="628" y="-7.5" font-family="Helvetica,sans-Serif" font-size="10.00">/application_2d.cpp</text>
</a>
</g>
</g>
<!-- Node7&#45;&gt;Node8 -->
<g id="edge7" class="edge">
<title>Node7&#45;&gt;Node8</title>
<path fill="none" stroke="midnightblue" d="M754.6,-68.91C728.01,-57.91 689.45,-41.94 661.88,-30.53"/>
<polygon fill="midnightblue" stroke="midnightblue" points="753.57,-72.28 764.15,-72.87 756.25,-65.81 753.57,-72.28"/>
</g>
<!-- Node9 -->
<g id="node9" class="node">
<title>Node9</title>
<g id="a_node9"><a xlink:href="../../dc/d14/app_2seamly2d_2main_8cpp.html" target="_top" xlink:title=" ">
<polygon fill="white" stroke="black" points="709.5,-6 709.5,-25 860.5,-25 860.5,-6 709.5,-6"/>
<text text-anchor="middle" x="785" y="-13" font-family="Helvetica,sans-Serif" font-size="10.00">src/app/seamly2d/main.cpp</text>
</a>
</g>
</g>
<!-- Node7&#45;&gt;Node9 -->
<g id="edge8" class="edge">
<title>Node7&#45;&gt;Node9</title>
<path fill="none" stroke="midnightblue" d="M785,-62.54C785,-50.17 785,-34.62 785,-25.13"/>
<polygon fill="midnightblue" stroke="midnightblue" points="781.5,-62.73 785,-72.73 788.5,-62.73 781.5,-62.73"/>
</g>
<!-- Node10 -->
<g id="node10" class="node">
<title>Node10</title>
<g id="a_node10"><a xlink:href="../../d8/dd9/mainwindow_8cpp.html" target="_top" xlink:title=" ">
<polygon fill="white" stroke="black" points="879,-6 879,-25 1067,-25 1067,-6 879,-6"/>
<text text-anchor="middle" x="973" y="-13" font-family="Helvetica,sans-Serif" font-size="10.00">src/app/seamly2d/mainwindow.cpp</text>
</a>
</g>
</g>
<!-- Node7&#45;&gt;Node10 -->
<g id="edge9" class="edge">
<title>Node7&#45;&gt;Node10</title>
<path fill="none" stroke="midnightblue" d="M819.89,-69.44C857.19,-56.54 915.37,-36.42 948.23,-25.06"/>
<polygon fill="midnightblue" stroke="midnightblue" points="818.27,-66.29 809.96,-72.87 820.56,-72.91 818.27,-66.29"/>
</g>
<!-- Node11&#45;&gt;Node5 -->
<g id="edge41" class="edge">
<title>Node11&#45;&gt;Node5</title>
<path fill="none" stroke="midnightblue" d="M1713.11,-209.39C1529.96,-195.01 1069.77,-155.83 688,-98 548.54,-76.87 384.62,-41.28 312.39,-25.04"/>
<polygon fill="midnightblue" stroke="midnightblue" points="1712.96,-212.89 1723.2,-210.18 1713.5,-205.91 1712.96,-212.89"/>
</g>
<!-- Node12 -->
<g id="node12" class="node">
<title>Node12</title>
<g id="a_node12"><a xlink:href="../../dd/d57/vcmdexport_8h.html" target="_top" xlink:title=" ">
<polygon fill="white" stroke="black" points="1730.5,-134.5 1730.5,-164.5 1857.5,-164.5 1857.5,-134.5 1730.5,-134.5"/>
<text text-anchor="start" x="1738.5" y="-152.5" font-family="Helvetica,sans-Serif" font-size="10.00">src/app/seamly2d/core</text>
<text text-anchor="middle" x="1794" y="-141.5" font-family="Helvetica,sans-Serif" font-size="10.00">/vcmdexport.h</text>
</a>
</g>
</g>
<!-- Node11&#45;&gt;Node12 -->
<g id="edge12" class="edge">
<title>Node11&#45;&gt;Node12</title>
<path fill="none" stroke="midnightblue" d="M1794,-191.11C1794,-182.15 1794,-172.32 1794,-164.58"/>
<polygon fill="midnightblue" stroke="midnightblue" points="1790.5,-191.4 1794,-201.4 1797.5,-191.4 1790.5,-191.4"/>
</g>
<!-- Node25 -->
<g id="node25" class="node">
<title>Node25</title>
<g id="a_node25"><a xlink:href="../../d0/dfa/layoutsettings__dialog_8cpp.html" target="_top" xlink:title=" ">
<polygon fill="white" stroke="black" points="4024.5,-0.5 4024.5,-30.5 4169.5,-30.5 4169.5,-0.5 4024.5,-0.5"/>
<text text-anchor="start" x="4032.5" y="-18.5" font-family="Helvetica,sans-Serif" font-size="10.00">src/app/seamly2d/dialogs</text>
<text text-anchor="middle" x="4097" y="-7.5" font-family="Helvetica,sans-Serif" font-size="10.00">/layoutsettings_dialog.cpp</text>
</a>
</g>
</g>
<!-- Node11&#45;&gt;Node25 -->
<g id="edge40" class="edge">
<title>Node11&#45;&gt;Node25</title>
<path fill="none" stroke="midnightblue" d="M1874.75,-211.49C2164.99,-196.49 3182.16,-138.99 4015,-31 4018.01,-30.61 4021.08,-30.19 4024.18,-29.74"/>
<polygon fill="midnightblue" stroke="midnightblue" points="1874.54,-207.99 1864.74,-212 1874.9,-214.98 1874.54,-207.99"/>
</g>
<!-- Node31 -->
<g id="node31" class="node">
<title>Node31</title>
<g id="a_node31"><a xlink:href="../../df/d9b/vcmdexport_8cpp.html" target="_top" xlink:title=" ">
<polygon fill="white" stroke="black" points="1875.5,-67.5 1875.5,-97.5 2002.5,-97.5 2002.5,-67.5 1875.5,-67.5"/>
<text text-anchor="start" x="1883.5" y="-85.5" font-family="Helvetica,sans-Serif" font-size="10.00">src/app/seamly2d/core</text>
<text text-anchor="middle" x="1939" y="-74.5" font-family="Helvetica,sans-Serif" font-size="10.00">/vcmdexport.cpp</text>
</a>
</g>
</g>
<!-- Node11&#45;&gt;Node31 -->
<g id="edge39" class="edge">
<title>Node11&#45;&gt;Node31</title>
<path fill="none" stroke="midnightblue" d="M1825.4,-195.76C1838.47,-186.98 1853.48,-176.12 1866,-165 1890.15,-143.56 1914.42,-114.66 1928,-97.65"/>
<polygon fill="midnightblue" stroke="midnightblue" points="1823.14,-193.06 1816.72,-201.49 1826.99,-198.91 1823.14,-193.06"/>
</g>
<!-- Node12&#45;&gt;Node7 -->
<g id="edge38" class="edge">
<title>Node12&#45;&gt;Node7</title>
<path fill="none" stroke="midnightblue" d="M1720.11,-143.74C1538.13,-132.02 1068.95,-101.79 873.01,-89.17"/>
<polygon fill="midnightblue" stroke="midnightblue" points="1719.91,-147.23 1730.12,-144.38 1720.36,-140.25 1719.91,-147.23"/>
</g>
<!-- Node13 -->
<g id="node13" class="node">
<title>Node13</title>
<g id="a_node13"><a xlink:href="../../d7/d61/application__2d_8h.html" target="_top" xlink:title=" ">
<polygon fill="white" stroke="black" points="1730.5,-67.5 1730.5,-97.5 1857.5,-97.5 1857.5,-67.5 1730.5,-67.5"/>
<text text-anchor="start" x="1738.5" y="-85.5" font-family="Helvetica,sans-Serif" font-size="10.00">src/app/seamly2d/core</text>
<text text-anchor="middle" x="1794" y="-74.5" font-family="Helvetica,sans-Serif" font-size="10.00">/application_2d.h</text>
</a>
</g>
</g>
<!-- Node12&#45;&gt;Node13 -->
<g id="edge13" class="edge">
<title>Node12&#45;&gt;Node13</title>
<path fill="none" stroke="midnightblue" d="M1794,-124.11C1794,-115.15 1794,-105.32 1794,-97.58"/>
<polygon fill="midnightblue" stroke="midnightblue" points="1790.5,-124.4 1794,-134.4 1797.5,-124.4 1790.5,-124.4"/>
</g>
<!-- Node12&#45;&gt;Node31 -->
<g id="edge37" class="edge">
<title>Node12&#45;&gt;Node31</title>
<path fill="none" stroke="midnightblue" d="M1834.67,-130.27C1857.76,-119.92 1886.24,-107.15 1907.6,-97.58"/>
<polygon fill="midnightblue" stroke="midnightblue" points="1833.16,-127.11 1825.46,-134.4 1836.02,-133.5 1833.16,-127.11"/>
</g>
<!-- Node13&#45;&gt;Node2 -->
<g id="edge15" class="edge">
<title>Node13&#45;&gt;Node2</title>
<path fill="none" stroke="midnightblue" d="M1719.9,-80.64C1442.41,-77.19 464.81,-63 155,-31 152.12,-30.7 149.2,-30.36 146.24,-29.99"/>
<polygon fill="midnightblue" stroke="midnightblue" points="1720.21,-84.14 1730.25,-80.77 1720.3,-77.14 1720.21,-84.14"/>
</g>
<!-- Node13&#45;&gt;Node4 -->
<g id="edge27" class="edge">
<title>Node13&#45;&gt;Node4</title>
<path fill="none" stroke="midnightblue" d="M1719.97,-82.05C1527.36,-82.71 994.93,-79.6 555,-31 552.33,-30.71 549.62,-30.37 546.89,-30.02"/>
<polygon fill="midnightblue" stroke="midnightblue" points="1720.27,-85.55 1730.26,-82.01 1720.24,-78.55 1720.27,-85.55"/>
</g>
<!-- Node13&#45;&gt;Node5 -->
<g id="edge34" class="edge">
<title>Node13&#45;&gt;Node5</title>
<path fill="none" stroke="midnightblue" d="M1720.18,-81.05C1511.59,-79.3 900.08,-70.89 394,-31 375.33,-29.53 355.08,-27.3 336.66,-25.03"/>
<polygon fill="midnightblue" stroke="midnightblue" points="1720.37,-84.55 1730.4,-81.13 1720.43,-77.55 1720.37,-84.55"/>
</g>
<!-- Node13&#45;&gt;Node8 -->
<g id="edge14" class="edge">
<title>Node13&#45;&gt;Node8</title>
<path fill="none" stroke="midnightblue" d="M1719.97,-81.97C1542.97,-82.24 1081.61,-77.96 700,-31 697.22,-30.66 694.38,-30.27 691.52,-29.84"/>
<polygon fill="midnightblue" stroke="midnightblue" points="1720.21,-85.47 1730.21,-81.95 1720.2,-78.47 1720.21,-85.47"/>
</g>
<!-- Node13&#45;&gt;Node9 -->
<g id="edge32" class="edge">
<title>Node13&#45;&gt;Node9</title>
<path fill="none" stroke="midnightblue" d="M1720.5,-80.33C1563.74,-77.22 1185.18,-66.38 870,-31 856.76,-29.51 842.45,-27.31 829.42,-25.06"/>
<polygon fill="midnightblue" stroke="midnightblue" points="1720.43,-83.83 1730.5,-80.53 1720.57,-76.84 1720.43,-83.83"/>
</g>
<!-- Node13&#45;&gt;Node10 -->
<g id="edge36" class="edge">
<title>Node13&#45;&gt;Node10</title>
<path fill="none" stroke="midnightblue" d="M1720.23,-78.01C1589.95,-71.47 1310.73,-55.75 1076,-31 1060.56,-29.37 1043.86,-27.2 1028.51,-25.04"/>
<polygon fill="midnightblue" stroke="midnightblue" points="1720.32,-81.52 1730.48,-78.52 1720.67,-74.53 1720.32,-81.52"/>
</g>
<!-- Node14 -->
<g id="node14" class="node">
<title>Node14</title>
<g id="a_node14"><a xlink:href="../../d2/d2d/preferencesconfigurationpage_8cpp.html" target="_top" xlink:title=" ">
<polygon fill="white" stroke="black" points="2834.5,-0.5 2834.5,-30.5 3081.5,-30.5 3081.5,-0.5 2834.5,-0.5"/>
<text text-anchor="start" x="2842.5" y="-18.5" font-family="Helvetica,sans-Serif" font-size="10.00">src/app/seamly2d/dialogs</text>
<text text-anchor="middle" x="2958" y="-7.5" font-family="Helvetica,sans-Serif" font-size="10.00">/configpages/preferencesconfigurationpage.cpp</text>
</a>
</g>
</g>
<!-- Node13&#45;&gt;Node14 -->
<g id="edge16" class="edge">
<title>Node13&#45;&gt;Node14</title>
<path fill="none" stroke="midnightblue" d="M1867.58,-66.94C2291.29,-17.44 2402.94,-61.89 2825,-31 2828.13,-30.77 2831.29,-30.53 2834.49,-30.27"/>
<polygon fill="midnightblue" stroke="midnightblue" points="1867.04,-63.48 1857.51,-68.13 1867.85,-70.44 1867.04,-63.48"/>
</g>
<!-- Node15 -->
<g id="node15" class="node">
<title>Node15</title>
<g id="a_node15"><a xlink:href="../../d9/d70/preferencesgraphicsviewpage_8cpp.html" target="_top" xlink:title=" ">
<polygon fill="white" stroke="black" points="3100,-0.5 3100,-30.5 3348,-30.5 3348,-0.5 3100,-0.5"/>
<text text-anchor="start" x="3108" y="-18.5" font-family="Helvetica,sans-Serif" font-size="10.00">src/app/seamly2d/dialogs</text>
<text text-anchor="middle" x="3224" y="-7.5" font-family="Helvetica,sans-Serif" font-size="10.00">/configpages/preferencesgraphicsviewpage.cpp</text>
</a>
</g>
</g>
<!-- Node13&#45;&gt;Node15 -->
<g id="edge17" class="edge">
<title>Node13&#45;&gt;Node15</title>
<path fill="none" stroke="midnightblue" d="M1867.53,-66.96C2408.87,-5.78 2550.93,-68.32 3091,-31 3093.9,-30.8 3096.83,-30.58 3099.78,-30.36"/>
<polygon fill="midnightblue" stroke="midnightblue" points="1867.05,-63.49 1857.51,-68.1 1867.84,-70.45 1867.05,-63.49"/>
</g>
<!-- Node16 -->
<g id="node16" class="node">
<title>Node16</title>
<g id="a_node16"><a xlink:href="../../dc/d20/preferencespathpage_8cpp.html" target="_top" xlink:title=" ">
<polygon fill="white" stroke="black" points="3366.5,-0.5 3366.5,-30.5 3571.5,-30.5 3571.5,-0.5 3366.5,-0.5"/>
<text text-anchor="start" x="3374.5" y="-18.5" font-family="Helvetica,sans-Serif" font-size="10.00">src/app/seamly2d/dialogs</text>
<text text-anchor="middle" x="3469" y="-7.5" font-family="Helvetica,sans-Serif" font-size="10.00">/configpages/preferencespathpage.cpp</text>
</a>
</g>
</g>
<!-- Node13&#45;&gt;Node16 -->
<g id="edge18" class="edge">
<title>Node13&#45;&gt;Node16</title>
<path fill="none" stroke="midnightblue" d="M1867.73,-66.95C2526.52,5.81 2699.46,-81.36 3357,-31 3360.03,-30.77 3363.1,-30.51 3366.21,-30.23"/>
<polygon fill="midnightblue" stroke="midnightblue" points="1867.06,-63.5 1857.51,-68.08 1867.83,-70.46 1867.06,-63.5"/>
</g>
<!-- Node17 -->
<g id="node17" class="node">
<title>Node17</title>
<g id="a_node17"><a xlink:href="../../d2/d00/vtooloptionspropertybrowser_8cpp.html" target="_top" xlink:title=" ">
<polygon fill="white" stroke="black" points="3590,-0.5 3590,-30.5 3770,-30.5 3770,-0.5 3590,-0.5"/>
<text text-anchor="start" x="3598" y="-18.5" font-family="Helvetica,sans-Serif" font-size="10.00">src/app/seamly2d/core</text>
<text text-anchor="middle" x="3680" y="-7.5" font-family="Helvetica,sans-Serif" font-size="10.00">/vtooloptionspropertybrowser.cpp</text>
</a>
</g>
</g>
<!-- Node13&#45;&gt;Node17 -->
<g id="edge19" class="edge">
<title>Node13&#45;&gt;Node17</title>
<path fill="none" stroke="midnightblue" d="M1867.58,-66.97C2625.54,15.62 2824.59,-94.09 3581,-31 3583.94,-30.75 3586.93,-30.48 3589.95,-30.17"/>
<polygon fill="midnightblue" stroke="midnightblue" points="1867.07,-63.5 1857.51,-68.07 1867.83,-70.46 1867.07,-63.5"/>
</g>
<!-- Node18 -->
<g id="node18" class="node">
<title>Node18</title>
<g id="a_node18"><a xlink:href="../../dc/d63/preferencespatternpage_8cpp.html" target="_top" xlink:title=" ">
<polygon fill="white" stroke="black" points="3788,-0.5 3788,-30.5 4006,-30.5 4006,-0.5 3788,-0.5"/>
<text text-anchor="start" x="3796" y="-18.5" font-family="Helvetica,sans-Serif" font-size="10.00">src/app/seamly2d/dialogs</text>
<text text-anchor="middle" x="3897" y="-7.5" font-family="Helvetica,sans-Serif" font-size="10.00">/configpages/preferencespatternpage.cpp</text>
</a>
</g>
</g>
<!-- Node13&#45;&gt;Node18 -->
<g id="edge20" class="edge">
<title>Node13&#45;&gt;Node18</title>
<path fill="none" stroke="midnightblue" d="M1867.73,-66.98C2305.29,-21.46 3358.18,-60.73 3779,-31 3781.88,-30.8 3784.8,-30.57 3787.75,-30.33"/>
<polygon fill="midnightblue" stroke="midnightblue" points="1867.08,-63.52 1857.51,-68.07 1867.82,-70.49 1867.08,-63.52"/>
</g>
<!-- Node19 -->
<g id="node19" class="node">
<title>Node19</title>
<g id="a_node19"><a xlink:href="../../dd/dc2/decimalchart__dialog_8cpp.html" target="_top" xlink:title=" ">
<polygon fill="white" stroke="black" points="1085.5,-0.5 1085.5,-30.5 1226.5,-30.5 1226.5,-0.5 1085.5,-0.5"/>
<text text-anchor="start" x="1093.5" y="-18.5" font-family="Helvetica,sans-Serif" font-size="10.00">src/app/seamly2d/dialogs</text>
<text text-anchor="middle" x="1156" y="-7.5" font-family="Helvetica,sans-Serif" font-size="10.00">/decimalchart_dialog.cpp</text>
</a>
</g>
</g>
<!-- Node13&#45;&gt;Node19 -->
<g id="edge21" class="edge">
<title>Node13&#45;&gt;Node19</title>
<path fill="none" stroke="midnightblue" d="M1720.44,-77.01C1613.31,-69.97 1408.26,-54.68 1235,-31 1232.24,-30.62 1229.42,-30.22 1226.58,-29.79"/>
<polygon fill="midnightblue" stroke="midnightblue" points="1720.29,-80.5 1730.49,-77.66 1720.74,-73.52 1720.29,-80.5"/>
</g>
<!-- Node20 -->
<g id="node20" class="node">
<title>Node20</title>
<g id="a_node20"><a xlink:href="../../dd/d64/dialogaboutapp_8cpp.html" target="_top" xlink:title=" ">
<polygon fill="white" stroke="black" points="1244.5,-0.5 1244.5,-30.5 1385.5,-30.5 1385.5,-0.5 1244.5,-0.5"/>
<text text-anchor="start" x="1252.5" y="-18.5" font-family="Helvetica,sans-Serif" font-size="10.00">src/app/seamly2d/dialogs</text>
<text text-anchor="middle" x="1315" y="-7.5" font-family="Helvetica,sans-Serif" font-size="10.00">/dialogaboutapp.cpp</text>
</a>
</g>
</g>
<!-- Node13&#45;&gt;Node20 -->
<g id="edge22" class="edge">
<title>Node13&#45;&gt;Node20</title>
<path fill="none" stroke="midnightblue" d="M1720.44,-73.46C1640.06,-64.39 1507.6,-48.58 1394,-31 1391.24,-30.57 1388.44,-30.13 1385.6,-29.66"/>
<polygon fill="midnightblue" stroke="midnightblue" points="1720.13,-76.95 1730.46,-74.59 1720.91,-69.99 1720.13,-76.95"/>
</g>
<!-- Node21 -->
<g id="node21" class="node">
<title>Node21</title>
<g id="a_node21"><a xlink:href="../../d7/dfa/calculator__dialog_8cpp.html" target="_top" xlink:title=" ">
<polygon fill="white" stroke="black" points="1403.5,-0.5 1403.5,-30.5 1544.5,-30.5 1544.5,-0.5 1403.5,-0.5"/>
<text text-anchor="start" x="1411.5" y="-18.5" font-family="Helvetica,sans-Serif" font-size="10.00">src/app/seamly2d/dialogs</text>
<text text-anchor="middle" x="1474" y="-7.5" font-family="Helvetica,sans-Serif" font-size="10.00">/calculator_dialog.cpp</text>
</a>
</g>
</g>
<!-- Node13&#45;&gt;Node21 -->
<g id="edge23" class="edge">
<title>Node13&#45;&gt;Node21</title>
<path fill="none" stroke="midnightblue" d="M1720.31,-66.53C1666.94,-55.69 1595.29,-41.14 1543.03,-30.52"/>
<polygon fill="midnightblue" stroke="midnightblue" points="1719.9,-70.02 1730.4,-68.58 1721.29,-63.16 1719.9,-70.02"/>
</g>
<!-- Node22 -->
<g id="node22" class="node">
<title>Node22</title>
<g id="a_node22"><a xlink:href="../../d6/d89/dialoglayoutprogress_8cpp.html" target="_top" xlink:title=" ">
<polygon fill="white" stroke="black" points="1562.5,-0.5 1562.5,-30.5 1705.5,-30.5 1705.5,-0.5 1562.5,-0.5"/>
<text text-anchor="start" x="1570.5" y="-18.5" font-family="Helvetica,sans-Serif" font-size="10.00">src/app/seamly2d/dialogs</text>
<text text-anchor="middle" x="1634" y="-7.5" font-family="Helvetica,sans-Serif" font-size="10.00">/dialoglayoutprogress.cpp</text>
</a>
</g>
</g>
<!-- Node13&#45;&gt;Node22 -->
<g id="edge24" class="edge">
<title>Node13&#45;&gt;Node22</title>
<path fill="none" stroke="midnightblue" d="M1749.8,-63.54C1724.2,-53.14 1692.43,-40.24 1668.65,-30.58"/>
<polygon fill="midnightblue" stroke="midnightblue" points="1748.7,-66.87 1759.28,-67.4 1751.34,-60.39 1748.7,-66.87"/>
</g>
<!-- Node23 -->
<g id="node23" class="node">
<title>Node23</title>
<g id="a_node23"><a xlink:href="../../d5/dc5/dialogpreferences_8cpp.html" target="_top" xlink:title=" ">
<polygon fill="white" stroke="black" points="1723.5,-0.5 1723.5,-30.5 1864.5,-30.5 1864.5,-0.5 1723.5,-0.5"/>
<text text-anchor="start" x="1731.5" y="-18.5" font-family="Helvetica,sans-Serif" font-size="10.00">src/app/seamly2d/dialogs</text>
<text text-anchor="middle" x="1794" y="-7.5" font-family="Helvetica,sans-Serif" font-size="10.00">/dialogpreferences.cpp</text>
</a>
</g>
</g>
<!-- Node13&#45;&gt;Node23 -->
<g id="edge25" class="edge">
<title>Node13&#45;&gt;Node23</title>
<path fill="none" stroke="midnightblue" d="M1794,-57.11C1794,-48.15 1794,-38.32 1794,-30.58"/>
<polygon fill="midnightblue" stroke="midnightblue" points="1790.5,-57.4 1794,-67.4 1797.5,-57.4 1790.5,-57.4"/>
</g>
<!-- Node24 -->
<g id="node24" class="node">
<title>Node24</title>
<g id="a_node24"><a xlink:href="../../d5/d18/dialogpatternproperties_8cpp.html" target="_top" xlink:title=" ">
<polygon fill="white" stroke="black" points="1882.5,-0.5 1882.5,-30.5 2037.5,-30.5 2037.5,-0.5 1882.5,-0.5"/>
<text text-anchor="start" x="1890.5" y="-18.5" font-family="Helvetica,sans-Serif" font-size="10.00">src/app/seamly2d/dialogs</text>
<text text-anchor="middle" x="1960" y="-7.5" font-family="Helvetica,sans-Serif" font-size="10.00">/dialogpatternproperties.cpp</text>
</a>
</g>
</g>
<!-- Node13&#45;&gt;Node24 -->
<g id="edge26" class="edge">
<title>Node13&#45;&gt;Node24</title>
<path fill="none" stroke="midnightblue" d="M1839.51,-63.68C1866.13,-53.26 1899.27,-40.28 1924.05,-30.58"/>
<polygon fill="midnightblue" stroke="midnightblue" points="1838.05,-60.49 1830.02,-67.4 1840.61,-67.01 1838.05,-60.49"/>
</g>
<!-- Node13&#45;&gt;Node25 -->
<g id="edge28" class="edge">
<title>Node13&#45;&gt;Node25</title>
<path fill="none" stroke="midnightblue" d="M1867.52,-67C2357.21,-16.47 3542.82,-76.41 4015,-31 4018.02,-30.71 4021.1,-30.37 4024.2,-29.99"/>
<polygon fill="midnightblue" stroke="midnightblue" points="1867.08,-63.53 1857.51,-68.06 1867.82,-70.49 1867.08,-63.53"/>
</g>
<!-- Node26 -->
<g id="node26" class="node">
<title>Node26</title>
<g id="a_node26"><a xlink:href="../../db/d5c/groups__widget_8cpp.html" target="_top" xlink:title=" ">
<polygon fill="white" stroke="black" points="2055.5,-0.5 2055.5,-30.5 2196.5,-30.5 2196.5,-0.5 2055.5,-0.5"/>
<text text-anchor="start" x="2063.5" y="-18.5" font-family="Helvetica,sans-Serif" font-size="10.00">src/app/seamly2d/dialogs</text>
<text text-anchor="middle" x="2126" y="-7.5" font-family="Helvetica,sans-Serif" font-size="10.00">/groups_widget.cpp</text>
</a>
</g>
</g>
<!-- Node13&#45;&gt;Node26 -->
<g id="edge29" class="edge">
<title>Node13&#45;&gt;Node26</title>
<path fill="none" stroke="midnightblue" d="M1867.79,-66.65C1936.85,-53.01 2005.5,-39.7 2055.35,-30.09"/>
<polygon fill="midnightblue" stroke="midnightblue" points="1866.73,-63.29 1857.6,-68.67 1868.09,-70.16 1866.73,-63.29"/>
</g>
<!-- Node27 -->
<g id="node27" class="node">
<title>Node27</title>
<g id="a_node27"><a xlink:href="../../dd/d84/shortcuts__dialog_8cpp.html" target="_top" xlink:title=" ">
<polygon fill="white" stroke="black" points="2214.5,-0.5 2214.5,-30.5 2355.5,-30.5 2355.5,-0.5 2214.5,-0.5"/>
<text text-anchor="start" x="2222.5" y="-18.5" font-family="Helvetica,sans-Serif" font-size="10.00">src/app/seamly2d/dialogs</text>
<text text-anchor="middle" x="2285" y="-7.5" font-family="Helvetica,sans-Serif" font-size="10.00">/shortcuts_dialog.cpp</text>
</a>
</g>
</g>
<!-- Node13&#45;&gt;Node27 -->
<g id="edge30" class="edge">
<title>Node13&#45;&gt;Node27</title>
<path fill="none" stroke="midnightblue" d="M1867.58,-66.84C2017.5,-44.37 2058.25,-52.06 2205,-31 2208.07,-30.56 2211.21,-30.09 2214.38,-29.59"/>
<polygon fill="midnightblue" stroke="midnightblue" points="1866.91,-63.41 1857.55,-68.37 1867.96,-70.33 1866.91,-63.41"/>
</g>
<!-- Node28 -->
<g id="node28" class="node">
<title>Node28</title>
<g id="a_node28"><a xlink:href="../../df/d69/welcome__dialog_8cpp.html" target="_top" xlink:title=" ">
<polygon fill="white" stroke="black" points="2373.5,-0.5 2373.5,-30.5 2514.5,-30.5 2514.5,-0.5 2373.5,-0.5"/>
<text text-anchor="start" x="2381.5" y="-18.5" font-family="Helvetica,sans-Serif" font-size="10.00">src/app/seamly2d/dialogs</text>
<text text-anchor="middle" x="2444" y="-7.5" font-family="Helvetica,sans-Serif" font-size="10.00">/welcome_dialog.cpp</text>
</a>
</g>
</g>
<!-- Node13&#45;&gt;Node28 -->
<g id="edge31" class="edge">
<title>Node13&#45;&gt;Node28</title>
<path fill="none" stroke="midnightblue" d="M1867.46,-66.91C2087.61,-37.66 2147.07,-58.42 2364,-31 2367.08,-30.61 2370.22,-30.18 2373.39,-29.72"/>
<polygon fill="midnightblue" stroke="midnightblue" points="1866.97,-63.45 1857.53,-68.25 1867.91,-70.38 1866.97,-63.45"/>
</g>
<!-- Node29 -->
<g id="node29" class="node">
<title>Node29</title>
<g id="a_node29"><a xlink:href="../../d2/df4/show__info__dialog_8cpp.html" target="_top" xlink:title=" ">
<polygon fill="white" stroke="black" points="2532.5,-0.5 2532.5,-30.5 2673.5,-30.5 2673.5,-0.5 2532.5,-0.5"/>
<text text-anchor="start" x="2540.5" y="-18.5" font-family="Helvetica,sans-Serif" font-size="10.00">src/app/seamly2d/dialogs</text>
<text text-anchor="middle" x="2603" y="-7.5" font-family="Helvetica,sans-Serif" font-size="10.00">/show_info_dialog.cpp</text>
</a>
</g>
</g>
<!-- Node13&#45;&gt;Node29 -->
<g id="edge33" class="edge">
<title>Node13&#45;&gt;Node29</title>
<path fill="none" stroke="midnightblue" d="M1867.5,-66.93C2157.84,-30.82 2235.82,-64.76 2523,-31 2526.08,-30.64 2529.23,-30.23 2532.4,-29.79"/>
<polygon fill="midnightblue" stroke="midnightblue" points="1867,-63.47 1857.52,-68.19 1867.88,-70.41 1867,-63.47"/>
</g>
<!-- Node30 -->
<g id="node30" class="node">
<title>Node30</title>
<g id="a_node30"><a xlink:href="../../d3/d49/vpattern_8cpp.html" target="_top" xlink:title=" ">
<polygon fill="white" stroke="black" points="2691.5,-0.5 2691.5,-30.5 2816.5,-30.5 2816.5,-0.5 2691.5,-0.5"/>
<text text-anchor="start" x="2699.5" y="-18.5" font-family="Helvetica,sans-Serif" font-size="10.00">src/app/seamly2d/xml</text>
<text text-anchor="middle" x="2754" y="-7.5" font-family="Helvetica,sans-Serif" font-size="10.00">/vpattern.cpp</text>
</a>
</g>
</g>
<!-- Node13&#45;&gt;Node30 -->
<g id="edge35" class="edge">
<title>Node13&#45;&gt;Node30</title>
<path fill="none" stroke="midnightblue" d="M1867.45,-66.96C2228.09,-23.96 2324.91,-74.57 2682,-31 2685.04,-30.63 2688.14,-30.2 2691.26,-29.73"/>
<polygon fill="midnightblue" stroke="midnightblue" points="1867.02,-63.48 1857.52,-68.15 1867.86,-70.43 1867.02,-63.48"/>
</g>
</g>
</svg>
