<?xml version="1.0" encoding="UTF-8" standalone="no"?>
<!DOCTYPE svg PUBLIC "-//W3C//DTD SVG 1.1//EN"
 "http://www.w3.org/Graphics/SVG/1.1/DTD/svg11.dtd">
<!-- Generated by graphviz version 2.43.0 (0)
 -->
<!-- Title: src/app/seamly2d/dialogs/abstractlayout_dialog.h Pages: 1 -->
<!--zoomable 307 -->
<svg id="main" version="1.1" xmlns="http://www.w3.org/2000/svg" xmlns:xlink="http://www.w3.org/1999/xlink" xml:space="preserve" onload="init(evt)">
<style type="text/css"><![CDATA[
.edge:hover path { stroke: red; }
.edge:hover polygon { stroke: red; fill: red; }
]]></style>
<script type="text/javascript"><![CDATA[
var edges = document.getElementsByTagName('g');
if (edges && edges.length) {
  for (var i=0;i<edges.length;i++) {
    if (edges[i].id.substr(0,4)=='edge') {
      edges[i].setAttribute('class','edge');
    }
  }
}
]]></script>
        <defs>
                <circle id="rim" cx="0" cy="0" r="7"/>
                <circle id="rim2" cx="0" cy="0" r="3.5"/>
                <g id="zoomPlus">
                        <use xlink:href="#rim" fill="#404040">
                                <set attributeName="fill" to="#808080" begin="zoomplus.mouseover" end="zoomplus.mouseout"/>
                        </use>
                        <path d="M-4,0h8M0,-4v8" fill="none" stroke="white" stroke-width="1.5" pointer-events="none"/>
                </g>
                <g id="zoomMin">
                        <use xlink:href="#rim" fill="#404040">
                                <set attributeName="fill" to="#808080" begin="zoomminus.mouseover" end="zoomminus.mouseout"/>
                        </use>
                        <path d="M-4,0h8" fill="none" stroke="white" stroke-width="1.5" pointer-events="none"/>
                </g>
                <g id="dirArrow">
                        <path fill="none" stroke="white" stroke-width="1.5" d="M0,-3.0v7 M-2.5,-0.5L0,-3.0L2.5,-0.5"/>
                </g>
               <g id="resetDef">
                       <use xlink:href="#rim2" fill="#404040">
                               <set attributeName="fill" to="#808080" begin="reset.mouseover" end="reset.mouseout"/>
                       </use>
               </g>
        </defs>

<script type="text/javascript">
var viewWidth = 4178;
var viewHeight = 307;
var sectionId = 'dynsection-1';
</script>
<script xlink:href="../../svgpan.js"/>
<svg id="graph" class="graph">
<g id="viewport">
<title>src/app/seamly2d/dialogs/abstractlayout_dialog.h</title>
<polygon fill="white" stroke="transparent" points="-4,4 -4,-303 4173.5,-303 4173.5,4 -4,4"/>
<!-- Node1 -->
<g id="node1" class="node">
<title>Node1</title>
<g id="a_node1"><a xlink:title=" ">
<polygon fill="#bfbfbf" stroke="black" points="2281.5,-268.5 2281.5,-298.5 2422.5,-298.5 2422.5,-268.5 2281.5,-268.5"/>
<text text-anchor="start" x="2289.5" y="-286.5" font-family="Helvetica,sans-Serif" font-size="10.00">src/app/seamly2d/dialogs</text>
<text text-anchor="middle" x="2352" y="-275.5" font-family="Helvetica,sans-Serif" font-size="10.00">/abstractlayout_dialog.h</text>
</a>
</g>
</g>
<!-- Node2 -->
<g id="node2" class="node">
<title>Node2</title>
<g id="a_node2"><a xlink:href="../../dd/db4/abstractlayout__dialog_8cpp.html" target="_top" xlink:title=" ">
<polygon fill="white" stroke="black" points="0,-0.5 0,-30.5 146,-30.5 146,-0.5 0,-0.5"/>
<text text-anchor="start" x="8" y="-18.5" font-family="Helvetica,sans-Serif" font-size="10.00">src/app/seamly2d/dialogs</text>
<text text-anchor="middle" x="73" y="-7.5" font-family="Helvetica,sans-Serif" font-size="10.00">/abstractlayout_dialog.cpp</text>
</a>
</g>
</g>
<!-- Node1&#45;&gt;Node2 -->
<g id="edge1" class="edge">
<title>Node1&#45;&gt;Node2</title>
<path fill="none" stroke="midnightblue" d="M2270.84,-278.79C2007.71,-265.85 1154.99,-216.92 460,-98 343.43,-78.05 208.52,-48.05 132.73,-30.56"/>
<polygon fill="midnightblue" stroke="midnightblue" points="2270.91,-282.29 2281.07,-279.29 2271.25,-275.3 2270.91,-282.29"/>
</g>
<!-- Node3 -->
<g id="node3" class="node">
<title>Node3</title>
<g id="a_node3"><a xlink:href="../../d1/d8e/export__layout__dialog_8h.html" target="_top" xlink:title=" ">
<polygon fill="white" stroke="black" points="2281.5,-201.5 2281.5,-231.5 2422.5,-231.5 2422.5,-201.5 2281.5,-201.5"/>
<text text-anchor="start" x="2289.5" y="-219.5" font-family="Helvetica,sans-Serif" font-size="10.00">src/app/seamly2d/dialogs</text>
<text text-anchor="middle" x="2352" y="-208.5" font-family="Helvetica,sans-Serif" font-size="10.00">/export_layout_dialog.h</text>
</a>
</g>
</g>
<!-- Node1&#45;&gt;Node3 -->
<g id="edge2" class="edge">
<title>Node1&#45;&gt;Node3</title>
<path fill="none" stroke="midnightblue" d="M2352,-258.11C2352,-249.15 2352,-239.32 2352,-231.58"/>
<polygon fill="midnightblue" stroke="midnightblue" points="2348.5,-258.4 2352,-268.4 2355.5,-258.4 2348.5,-258.4"/>
</g>
<!-- Node11 -->
<g id="node11" class="node">
<title>Node11</title>
<g id="a_node11"><a xlink:href="../../d3/dd8/layoutsettings__dialog_8h.html" target="_top" xlink:title=" ">
<polygon fill="white" stroke="black" points="2440.5,-201.5 2440.5,-231.5 2581.5,-231.5 2581.5,-201.5 2440.5,-201.5"/>
<text text-anchor="start" x="2448.5" y="-219.5" font-family="Helvetica,sans-Serif" font-size="10.00">src/app/seamly2d/dialogs</text>
<text text-anchor="middle" x="2511" y="-208.5" font-family="Helvetica,sans-Serif" font-size="10.00">/layoutsettings_dialog.h</text>
</a>
</g>
</g>
<!-- Node1&#45;&gt;Node11 -->
<g id="edge11" class="edge">
<title>Node1&#45;&gt;Node11</title>
<path fill="none" stroke="midnightblue" d="M2395.92,-264.54C2421.37,-254.14 2452.93,-241.24 2476.57,-231.58"/>
<polygon fill="midnightblue" stroke="midnightblue" points="2394.43,-261.37 2386.5,-268.4 2397.08,-267.85 2394.43,-261.37"/>
</g>
<!-- Node4 -->
<g id="node4" class="node">
<title>Node4</title>
<g id="a_node4"><a xlink:href="../../dd/d54/export__layout__dialog_8cpp.html" target="_top" xlink:title=" ">
<polygon fill="white" stroke="black" points="164.5,-0.5 164.5,-30.5 307.5,-30.5 307.5,-0.5 164.5,-0.5"/>
<text text-anchor="start" x="172.5" y="-18.5" font-family="Helvetica,sans-Serif" font-size="10.00">src/app/seamly2d/dialogs</text>
<text text-anchor="middle" x="236" y="-7.5" font-family="Helvetica,sans-Serif" font-size="10.00">/export_layout_dialog.cpp</text>
</a>
</g>
</g>
<!-- Node3&#45;&gt;Node4 -->
<g id="edge3" class="edge">
<title>Node3&#45;&gt;Node4</title>
<path fill="none" stroke="midnightblue" d="M2271.12,-213.75C2024.78,-207.61 1262.4,-182.6 637,-98 513.27,-81.26 370.43,-49.09 293.04,-30.57"/>
<polygon fill="midnightblue" stroke="midnightblue" points="2271.33,-217.26 2281.42,-214 2271.51,-210.26 2271.33,-217.26"/>
</g>
<!-- Node5 -->
<g id="node5" class="node">
<title>Node5</title>
<g id="a_node5"><a xlink:href="../../d1/d82/mainwindowsnogui_8h.html" target="_top" xlink:title=" ">
<polygon fill="white" stroke="black" points="2254.5,-140 2254.5,-159 2463.5,-159 2463.5,-140 2254.5,-140"/>
<text text-anchor="middle" x="2359" y="-147" font-family="Helvetica,sans-Serif" font-size="10.00">src/app/seamly2d/mainwindowsnogui.h</text>
</a>
</g>
</g>
<!-- Node3&#45;&gt;Node5 -->
<g id="edge4" class="edge">
<title>Node3&#45;&gt;Node5</title>
<path fill="none" stroke="midnightblue" d="M2354.61,-191.25C2355.82,-180.02 2357.18,-167.38 2358.06,-159.19"/>
<polygon fill="midnightblue" stroke="midnightblue" points="2351.11,-191.08 2353.52,-201.4 2358.07,-191.83 2351.11,-191.08"/>
</g>
<!-- Node10 -->
<g id="node10" class="node">
<title>Node10</title>
<g id="a_node10"><a xlink:href="../../d8/de8/mainwindowsnogui_8cpp.html" target="_top" xlink:title=" ">
<polygon fill="white" stroke="black" points="3785.5,-6 3785.5,-25 4006.5,-25 4006.5,-6 3785.5,-6"/>
<text text-anchor="middle" x="3896" y="-13" font-family="Helvetica,sans-Serif" font-size="10.00">src/app/seamly2d/mainwindowsnogui.cpp</text>
</a>
</g>
</g>
<!-- Node3&#45;&gt;Node10 -->
<g id="edge10" class="edge">
<title>Node3&#45;&gt;Node10</title>
<path fill="none" stroke="midnightblue" d="M2432.68,-200.78C2901.09,-128.37 3022.03,-125.54 3489,-67 3607.69,-52.12 3745.88,-35.02 3826.86,-25.02"/>
<polygon fill="midnightblue" stroke="midnightblue" points="2431.95,-197.35 2422.6,-202.34 2433.02,-204.27 2431.95,-197.35"/>
</g>
<!-- Node6 -->
<g id="node6" class="node">
<title>Node6</title>
<g id="a_node6"><a xlink:href="../../d9/d53/mainwindow_8h.html" target="_top" xlink:title=" ">
<polygon fill="white" stroke="black" points="646,-73 646,-92 822,-92 822,-73 646,-73"/>
<text text-anchor="middle" x="734" y="-80" font-family="Helvetica,sans-Serif" font-size="10.00">src/app/seamly2d/mainwindow.h</text>
</a>
</g>
</g>
<!-- Node5&#45;&gt;Node6 -->
<g id="edge5" class="edge">
<title>Node5&#45;&gt;Node6</title>
<path fill="none" stroke="midnightblue" d="M2290.1,-138.69C2275.25,-136.87 2259.62,-135.17 2245,-134 1705.71,-90.79 1055.27,-84.42 822.3,-83.58"/>
<polygon fill="midnightblue" stroke="midnightblue" points="2289.88,-142.19 2300.23,-139.96 2290.75,-135.24 2289.88,-142.19"/>
</g>
<!-- Node5&#45;&gt;Node10 -->
<g id="edge9" class="edge">
<title>Node5&#45;&gt;Node10</title>
<path fill="none" stroke="midnightblue" d="M2429.28,-138.56C2553.6,-121.34 2820.54,-85.98 3047,-67 3370.26,-39.9 3452.77,-58.47 3776,-31 3794.4,-29.44 3814.33,-27.23 3832.56,-25.02"/>
<polygon fill="midnightblue" stroke="midnightblue" points="2428.56,-135.13 2419.14,-139.97 2429.52,-142.06 2428.56,-135.13"/>
</g>
<!-- Node7 -->
<g id="node7" class="node">
<title>Node7</title>
<g id="a_node7"><a xlink:href="../../df/d3e/application__2d_8cpp.html" target="_top" xlink:title=" ">
<polygon fill="white" stroke="black" points="325.5,-0.5 325.5,-30.5 452.5,-30.5 452.5,-0.5 325.5,-0.5"/>
<text text-anchor="start" x="333.5" y="-18.5" font-family="Helvetica,sans-Serif" font-size="10.00">src/app/seamly2d/core</text>
<text text-anchor="middle" x="389" y="-7.5" font-family="Helvetica,sans-Serif" font-size="10.00">/application_2d.cpp</text>
</a>
</g>
</g>
<!-- Node6&#45;&gt;Node7 -->
<g id="edge6" class="edge">
<title>Node6&#45;&gt;Node7</title>
<path fill="none" stroke="midnightblue" d="M676.66,-71.16C621.38,-61.14 535.4,-45.37 461,-31 458.25,-30.47 455.43,-29.92 452.59,-29.36"/>
<polygon fill="midnightblue" stroke="midnightblue" points="676.15,-74.63 686.61,-72.97 677.4,-67.74 676.15,-74.63"/>
</g>
<!-- Node8 -->
<g id="node8" class="node">
<title>Node8</title>
<g id="a_node8"><a xlink:href="../../dc/d14/app_2seamly2d_2main_8cpp.html" target="_top" xlink:title=" ">
<polygon fill="white" stroke="black" points="470.5,-6 470.5,-25 621.5,-25 621.5,-6 470.5,-6"/>
<text text-anchor="middle" x="546" y="-13" font-family="Helvetica,sans-Serif" font-size="10.00">src/app/seamly2d/main.cpp</text>
</a>
</g>
</g>
<!-- Node6&#45;&gt;Node8 -->
<g id="edge7" class="edge">
<title>Node6&#45;&gt;Node8</title>
<path fill="none" stroke="midnightblue" d="M699.11,-69.44C661.81,-56.54 603.63,-36.42 570.77,-25.06"/>
<polygon fill="midnightblue" stroke="midnightblue" points="698.44,-72.91 709.04,-72.87 700.73,-66.29 698.44,-72.91"/>
</g>
<!-- Node9 -->
<g id="node9" class="node">
<title>Node9</title>
<g id="a_node9"><a xlink:href="../../d8/dd9/mainwindow_8cpp.html" target="_top" xlink:title=" ">
<polygon fill="white" stroke="black" points="640,-6 640,-25 828,-25 828,-6 640,-6"/>
<text text-anchor="middle" x="734" y="-13" font-family="Helvetica,sans-Serif" font-size="10.00">src/app/seamly2d/mainwindow.cpp</text>
</a>
</g>
</g>
<!-- Node6&#45;&gt;Node9 -->
<g id="edge8" class="edge">
<title>Node6&#45;&gt;Node9</title>
<path fill="none" stroke="midnightblue" d="M734,-62.54C734,-50.17 734,-34.62 734,-25.13"/>
<polygon fill="midnightblue" stroke="midnightblue" points="730.5,-62.73 734,-72.73 737.5,-62.73 730.5,-62.73"/>
</g>
<!-- Node11&#45;&gt;Node10 -->
<g id="edge41" class="edge">
<title>Node11&#45;&gt;Node10</title>
<path fill="none" stroke="midnightblue" d="M2591.57,-210.57C2701.24,-203.33 2903.53,-188.14 3075,-165 3377.17,-124.23 3737.51,-50.1 3856.05,-25.04"/>
<polygon fill="midnightblue" stroke="midnightblue" points="2591.32,-207.07 2581.57,-211.22 2591.78,-214.06 2591.32,-207.07"/>
</g>
<!-- Node12 -->
<g id="node12" class="node">
<title>Node12</title>
<g id="a_node12"><a xlink:href="../../dd/d57/vcmdexport_8h.html" target="_top" xlink:title=" ">
<polygon fill="white" stroke="black" points="2109.5,-134.5 2109.5,-164.5 2236.5,-164.5 2236.5,-134.5 2109.5,-134.5"/>
<text text-anchor="start" x="2117.5" y="-152.5" font-family="Helvetica,sans-Serif" font-size="10.00">src/app/seamly2d/core</text>
<text text-anchor="middle" x="2173" y="-141.5" font-family="Helvetica,sans-Serif" font-size="10.00">/vcmdexport.h</text>
</a>
</g>
</g>
<!-- Node11&#45;&gt;Node12 -->
<g id="edge12" class="edge">
<title>Node11&#45;&gt;Node12</title>
<path fill="none" stroke="midnightblue" d="M2430.42,-200.44C2377.65,-190.52 2307.19,-177.17 2245,-165 2242.25,-164.46 2239.44,-163.91 2236.6,-163.35"/>
<polygon fill="midnightblue" stroke="midnightblue" points="2429.92,-203.91 2440.39,-202.32 2431.21,-197.03 2429.92,-203.91"/>
</g>
<!-- Node25 -->
<g id="node25" class="node">
<title>Node25</title>
<g id="a_node25"><a xlink:href="../../d0/dfa/layoutsettings__dialog_8cpp.html" target="_top" xlink:title=" ">
<polygon fill="white" stroke="black" points="4024.5,-0.5 4024.5,-30.5 4169.5,-30.5 4169.5,-0.5 4024.5,-0.5"/>
<text text-anchor="start" x="4032.5" y="-18.5" font-family="Helvetica,sans-Serif" font-size="10.00">src/app/seamly2d/dialogs</text>
<text text-anchor="middle" x="4097" y="-7.5" font-family="Helvetica,sans-Serif" font-size="10.00">/layoutsettings_dialog.cpp</text>
</a>
</g>
</g>
<!-- Node11&#45;&gt;Node25 -->
<g id="edge40" class="edge">
<title>Node11&#45;&gt;Node25</title>
<path fill="none" stroke="midnightblue" d="M2591.66,-211.7C2718.48,-205.21 2972.09,-190.22 3186,-165 3557.09,-121.24 3647.63,-93.7 4016,-31 4018.68,-30.54 4021.4,-30.08 4024.15,-29.6"/>
<polygon fill="midnightblue" stroke="midnightblue" points="2591.45,-208.2 2581.64,-212.2 2591.81,-215.19 2591.45,-208.2"/>
</g>
<!-- Node31 -->
<g id="node31" class="node">
<title>Node31</title>
<g id="a_node31"><a xlink:href="../../df/d9b/vcmdexport_8cpp.html" target="_top" xlink:title=" ">
<polygon fill="white" stroke="black" points="2348.5,-67.5 2348.5,-97.5 2475.5,-97.5 2475.5,-67.5 2348.5,-67.5"/>
<text text-anchor="start" x="2356.5" y="-85.5" font-family="Helvetica,sans-Serif" font-size="10.00">src/app/seamly2d/core</text>
<text text-anchor="middle" x="2412" y="-74.5" font-family="Helvetica,sans-Serif" font-size="10.00">/vcmdexport.cpp</text>
</a>
</g>
</g>
<!-- Node11&#45;&gt;Node31 -->
<g id="edge39" class="edge">
<title>Node11&#45;&gt;Node31</title>
<path fill="none" stroke="midnightblue" d="M2502.63,-191.45C2495.96,-174.37 2485.52,-151.46 2472,-134 2461,-119.79 2445.39,-106.81 2432.85,-97.56"/>
<polygon fill="midnightblue" stroke="midnightblue" points="2499.5,-193.08 2506.28,-201.23 2506.06,-190.63 2499.5,-193.08"/>
</g>
<!-- Node12&#45;&gt;Node6 -->
<g id="edge38" class="edge">
<title>Node12&#45;&gt;Node6</title>
<path fill="none" stroke="midnightblue" d="M2099.19,-145.17C1856.68,-134.21 1084.95,-99.35 822.42,-87.49"/>
<polygon fill="midnightblue" stroke="midnightblue" points="2099.16,-148.67 2109.31,-145.62 2099.48,-141.68 2099.16,-148.67"/>
</g>
<!-- Node13 -->
<g id="node13" class="node">
<title>Node13</title>
<g id="a_node13"><a xlink:href="../../d7/d61/application__2d_8h.html" target="_top" xlink:title=" ">
<polygon fill="white" stroke="black" points="2109.5,-67.5 2109.5,-97.5 2236.5,-97.5 2236.5,-67.5 2109.5,-67.5"/>
<text text-anchor="start" x="2117.5" y="-85.5" font-family="Helvetica,sans-Serif" font-size="10.00">src/app/seamly2d/core</text>
<text text-anchor="middle" x="2173" y="-74.5" font-family="Helvetica,sans-Serif" font-size="10.00">/application_2d.h</text>
</a>
</g>
</g>
<!-- Node12&#45;&gt;Node13 -->
<g id="edge13" class="edge">
<title>Node12&#45;&gt;Node13</title>
<path fill="none" stroke="midnightblue" d="M2173,-124.11C2173,-115.15 2173,-105.32 2173,-97.58"/>
<polygon fill="midnightblue" stroke="midnightblue" points="2169.5,-124.4 2173,-134.4 2176.5,-124.4 2169.5,-124.4"/>
</g>
<!-- Node12&#45;&gt;Node31 -->
<g id="edge37" class="edge">
<title>Node12&#45;&gt;Node31</title>
<path fill="none" stroke="midnightblue" d="M2234.22,-131.85C2273.19,-121.25 2323.1,-107.68 2360.12,-97.61"/>
<polygon fill="midnightblue" stroke="midnightblue" points="2233.3,-128.47 2224.57,-134.48 2235.13,-135.23 2233.3,-128.47"/>
</g>
<!-- Node13&#45;&gt;Node2 -->
<g id="edge15" class="edge">
<title>Node13&#45;&gt;Node2</title>
<path fill="none" stroke="midnightblue" d="M2098.72,-81.13C1782.01,-79.35 543.1,-69.95 155,-31 152.12,-30.71 149.2,-30.38 146.24,-30.01"/>
<polygon fill="midnightblue" stroke="midnightblue" points="2099.13,-84.64 2109.15,-81.19 2099.17,-77.64 2099.13,-84.64"/>
</g>
<!-- Node13&#45;&gt;Node4 -->
<g id="edge27" class="edge">
<title>Node13&#45;&gt;Node4</title>
<path fill="none" stroke="midnightblue" d="M2098.76,-80.99C1798.17,-78.69 670.69,-67.75 316,-31 313.33,-30.72 310.62,-30.41 307.88,-30.06"/>
<polygon fill="midnightblue" stroke="midnightblue" points="2099.07,-84.49 2109.1,-81.07 2099.13,-77.49 2099.07,-84.49"/>
</g>
<!-- Node13&#45;&gt;Node7 -->
<g id="edge14" class="edge">
<title>Node13&#45;&gt;Node7</title>
<path fill="none" stroke="midnightblue" d="M2098.92,-80.98C1813.57,-78.74 785.46,-68.19 461,-31 458.21,-30.68 455.37,-30.31 452.51,-29.9"/>
<polygon fill="midnightblue" stroke="midnightblue" points="2099.13,-84.49 2109.15,-81.06 2099.18,-77.49 2099.13,-84.49"/>
</g>
<!-- Node13&#45;&gt;Node8 -->
<g id="edge33" class="edge">
<title>Node13&#45;&gt;Node8</title>
<path fill="none" stroke="midnightblue" d="M2098.87,-80.41C1832.02,-76.29 920.93,-60.34 631,-31 617.3,-29.61 602.47,-27.35 589.09,-25.02"/>
<polygon fill="midnightblue" stroke="midnightblue" points="2099.16,-83.92 2109.22,-80.57 2099.27,-76.92 2099.16,-83.92"/>
</g>
<!-- Node13&#45;&gt;Node9 -->
<g id="edge36" class="edge">
<title>Node13&#45;&gt;Node9</title>
<path fill="none" stroke="midnightblue" d="M2099.02,-81.35C1896.6,-80.37 1316.77,-73.73 837,-31 820.72,-29.55 803.08,-27.31 787.07,-25.03"/>
<polygon fill="midnightblue" stroke="midnightblue" points="2099.22,-84.85 2109.23,-81.4 2099.25,-77.85 2099.22,-84.85"/>
</g>
<!-- Node13&#45;&gt;Node10 -->
<g id="edge34" class="edge">
<title>Node13&#45;&gt;Node10</title>
<path fill="none" stroke="midnightblue" d="M2246.76,-74.07C2275.51,-71.43 2308.77,-68.7 2339,-67 2976.86,-31.19 3138.82,-77.37 3776,-31 3795.26,-29.6 3816.17,-27.33 3835.06,-25"/>
<polygon fill="midnightblue" stroke="midnightblue" points="2246.42,-70.58 2236.78,-75 2247.07,-77.55 2246.42,-70.58"/>
</g>
<!-- Node14 -->
<g id="node14" class="node">
<title>Node14</title>
<g id="a_node14"><a xlink:href="../../d7/dfa/calculator__dialog_8cpp.html" target="_top" xlink:title=" ">
<polygon fill="white" stroke="black" points="846.5,-0.5 846.5,-30.5 987.5,-30.5 987.5,-0.5 846.5,-0.5"/>
<text text-anchor="start" x="854.5" y="-18.5" font-family="Helvetica,sans-Serif" font-size="10.00">src/app/seamly2d/dialogs</text>
<text text-anchor="middle" x="917" y="-7.5" font-family="Helvetica,sans-Serif" font-size="10.00">/calculator_dialog.cpp</text>
</a>
</g>
</g>
<!-- Node13&#45;&gt;Node14 -->
<g id="edge16" class="edge">
<title>Node13&#45;&gt;Node14</title>
<path fill="none" stroke="midnightblue" d="M2099.08,-81.88C1913.14,-82.06 1411.15,-77.78 996,-31 993.23,-30.69 990.41,-30.34 987.56,-29.95"/>
<polygon fill="midnightblue" stroke="midnightblue" points="2099.29,-85.38 2109.29,-81.86 2099.28,-78.38 2099.29,-85.38"/>
</g>
<!-- Node15 -->
<g id="node15" class="node">
<title>Node15</title>
<g id="a_node15"><a xlink:href="../../d2/d2d/preferencesconfigurationpage_8cpp.html" target="_top" xlink:title=" ">
<polygon fill="white" stroke="black" points="1005.5,-0.5 1005.5,-30.5 1252.5,-30.5 1252.5,-0.5 1005.5,-0.5"/>
<text text-anchor="start" x="1013.5" y="-18.5" font-family="Helvetica,sans-Serif" font-size="10.00">src/app/seamly2d/dialogs</text>
<text text-anchor="middle" x="1129" y="-7.5" font-family="Helvetica,sans-Serif" font-size="10.00">/configpages/preferencesconfigurationpage.cpp</text>
</a>
</g>
</g>
<!-- Node13&#45;&gt;Node15 -->
<g id="edge17" class="edge">
<title>Node13&#45;&gt;Node15</title>
<path fill="none" stroke="midnightblue" d="M2098.97,-78.76C1943.55,-72.71 1571.91,-56.67 1261,-31 1258.24,-30.77 1255.45,-30.53 1252.64,-30.29"/>
<polygon fill="midnightblue" stroke="midnightblue" points="2099.21,-82.27 2109.34,-79.16 2099.49,-75.28 2099.21,-82.27"/>
</g>
<!-- Node16 -->
<g id="node16" class="node">
<title>Node16</title>
<g id="a_node16"><a xlink:href="../../dc/d20/preferencespathpage_8cpp.html" target="_top" xlink:title=" ">
<polygon fill="white" stroke="black" points="1270.5,-0.5 1270.5,-30.5 1475.5,-30.5 1475.5,-0.5 1270.5,-0.5"/>
<text text-anchor="start" x="1278.5" y="-18.5" font-family="Helvetica,sans-Serif" font-size="10.00">src/app/seamly2d/dialogs</text>
<text text-anchor="middle" x="1373" y="-7.5" font-family="Helvetica,sans-Serif" font-size="10.00">/configpages/preferencespathpage.cpp</text>
</a>
</g>
</g>
<!-- Node13&#45;&gt;Node16 -->
<g id="edge18" class="edge">
<title>Node13&#45;&gt;Node16</title>
<path fill="none" stroke="midnightblue" d="M2099.04,-77.42C1972.89,-70.16 1708.1,-53.61 1485,-31 1481.88,-30.68 1478.71,-30.35 1475.51,-30"/>
<polygon fill="midnightblue" stroke="midnightblue" points="2099.16,-80.93 2109.35,-78.01 2099.56,-73.95 2099.16,-80.93"/>
</g>
<!-- Node17 -->
<g id="node17" class="node">
<title>Node17</title>
<g id="a_node17"><a xlink:href="../../dc/d63/preferencespatternpage_8cpp.html" target="_top" xlink:title=" ">
<polygon fill="white" stroke="black" points="1494,-0.5 1494,-30.5 1712,-30.5 1712,-0.5 1494,-0.5"/>
<text text-anchor="start" x="1502" y="-18.5" font-family="Helvetica,sans-Serif" font-size="10.00">src/app/seamly2d/dialogs</text>
<text text-anchor="middle" x="1603" y="-7.5" font-family="Helvetica,sans-Serif" font-size="10.00">/configpages/preferencespatternpage.cpp</text>
</a>
</g>
</g>
<!-- Node13&#45;&gt;Node17 -->
<g id="edge19" class="edge">
<title>Node13&#45;&gt;Node17</title>
<path fill="none" stroke="midnightblue" d="M2099.3,-73.52C2009.8,-63.77 1854.28,-46.63 1721,-31 1718.13,-30.66 1715.22,-30.32 1712.29,-29.97"/>
<polygon fill="midnightblue" stroke="midnightblue" points="2099.03,-77.01 2109.35,-74.61 2099.79,-70.05 2099.03,-77.01"/>
</g>
<!-- Node18 -->
<g id="node18" class="node">
<title>Node18</title>
<g id="a_node18"><a xlink:href="../../dd/dc2/decimalchart__dialog_8cpp.html" target="_top" xlink:title=" ">
<polygon fill="white" stroke="black" points="1730.5,-0.5 1730.5,-30.5 1871.5,-30.5 1871.5,-0.5 1730.5,-0.5"/>
<text text-anchor="start" x="1738.5" y="-18.5" font-family="Helvetica,sans-Serif" font-size="10.00">src/app/seamly2d/dialogs</text>
<text text-anchor="middle" x="1801" y="-7.5" font-family="Helvetica,sans-Serif" font-size="10.00">/decimalchart_dialog.cpp</text>
</a>
</g>
</g>
<!-- Node13&#45;&gt;Node18 -->
<g id="edge20" class="edge">
<title>Node13&#45;&gt;Node18</title>
<path fill="none" stroke="midnightblue" d="M2099.22,-69.01C2039.95,-58.92 1954.58,-44.27 1880,-31 1877.25,-30.51 1874.46,-30.01 1871.63,-29.5"/>
<polygon fill="midnightblue" stroke="midnightblue" points="2098.79,-72.49 2109.24,-70.71 2099.96,-65.59 2098.79,-72.49"/>
</g>
<!-- Node19 -->
<g id="node19" class="node">
<title>Node19</title>
<g id="a_node19"><a xlink:href="../../dd/d64/dialogaboutapp_8cpp.html" target="_top" xlink:title=" ">
<polygon fill="white" stroke="black" points="1889.5,-0.5 1889.5,-30.5 2030.5,-30.5 2030.5,-0.5 1889.5,-0.5"/>
<text text-anchor="start" x="1897.5" y="-18.5" font-family="Helvetica,sans-Serif" font-size="10.00">src/app/seamly2d/dialogs</text>
<text text-anchor="middle" x="1960" y="-7.5" font-family="Helvetica,sans-Serif" font-size="10.00">/dialogaboutapp.cpp</text>
</a>
</g>
</g>
<!-- Node13&#45;&gt;Node19 -->
<g id="edge21" class="edge">
<title>Node13&#45;&gt;Node19</title>
<path fill="none" stroke="midnightblue" d="M2117.11,-64.44C2082.58,-53.91 2038.81,-40.55 2006.24,-30.61"/>
<polygon fill="midnightblue" stroke="midnightblue" points="2116.46,-67.9 2127.04,-67.48 2118.5,-61.21 2116.46,-67.9"/>
</g>
<!-- Node20 -->
<g id="node20" class="node">
<title>Node20</title>
<g id="a_node20"><a xlink:href="../../d9/d70/preferencesgraphicsviewpage_8cpp.html" target="_top" xlink:title=" ">
<polygon fill="white" stroke="black" points="2049,-0.5 2049,-30.5 2297,-30.5 2297,-0.5 2049,-0.5"/>
<text text-anchor="start" x="2057" y="-18.5" font-family="Helvetica,sans-Serif" font-size="10.00">src/app/seamly2d/dialogs</text>
<text text-anchor="middle" x="2173" y="-7.5" font-family="Helvetica,sans-Serif" font-size="10.00">/configpages/preferencesgraphicsviewpage.cpp</text>
</a>
</g>
</g>
<!-- Node13&#45;&gt;Node20 -->
<g id="edge22" class="edge">
<title>Node13&#45;&gt;Node20</title>
<path fill="none" stroke="midnightblue" d="M2173,-57.11C2173,-48.15 2173,-38.32 2173,-30.58"/>
<polygon fill="midnightblue" stroke="midnightblue" points="2169.5,-57.4 2173,-67.4 2176.5,-57.4 2169.5,-57.4"/>
</g>
<!-- Node21 -->
<g id="node21" class="node">
<title>Node21</title>
<g id="a_node21"><a xlink:href="../../d2/d00/vtooloptionspropertybrowser_8cpp.html" target="_top" xlink:title=" ">
<polygon fill="white" stroke="black" points="2315,-0.5 2315,-30.5 2495,-30.5 2495,-0.5 2315,-0.5"/>
<text text-anchor="start" x="2323" y="-18.5" font-family="Helvetica,sans-Serif" font-size="10.00">src/app/seamly2d/core</text>
<text text-anchor="middle" x="2405" y="-7.5" font-family="Helvetica,sans-Serif" font-size="10.00">/vtooloptionspropertybrowser.cpp</text>
</a>
</g>
</g>
<!-- Node13&#45;&gt;Node21 -->
<g id="edge23" class="edge">
<title>Node13&#45;&gt;Node21</title>
<path fill="none" stroke="midnightblue" d="M2232.91,-64.71C2270.66,-54.14 2318.86,-40.63 2354.63,-30.61"/>
<polygon fill="midnightblue" stroke="midnightblue" points="2231.74,-61.41 2223.05,-67.48 2233.63,-68.15 2231.74,-61.41"/>
</g>
<!-- Node22 -->
<g id="node22" class="node">
<title>Node22</title>
<g id="a_node22"><a xlink:href="../../d6/d89/dialoglayoutprogress_8cpp.html" target="_top" xlink:title=" ">
<polygon fill="white" stroke="black" points="2513.5,-0.5 2513.5,-30.5 2656.5,-30.5 2656.5,-0.5 2513.5,-0.5"/>
<text text-anchor="start" x="2521.5" y="-18.5" font-family="Helvetica,sans-Serif" font-size="10.00">src/app/seamly2d/dialogs</text>
<text text-anchor="middle" x="2585" y="-7.5" font-family="Helvetica,sans-Serif" font-size="10.00">/dialoglayoutprogress.cpp</text>
</a>
</g>
</g>
<!-- Node13&#45;&gt;Node22 -->
<g id="edge24" class="edge">
<title>Node13&#45;&gt;Node22</title>
<path fill="none" stroke="midnightblue" d="M2246.59,-70.83C2313.72,-60.96 2415.63,-45.65 2504,-31 2507.1,-30.49 2510.27,-29.95 2513.46,-29.41"/>
<polygon fill="midnightblue" stroke="midnightblue" points="2245.92,-67.39 2236.53,-72.3 2246.93,-74.31 2245.92,-67.39"/>
</g>
<!-- Node23 -->
<g id="node23" class="node">
<title>Node23</title>
<g id="a_node23"><a xlink:href="../../d5/dc5/dialogpreferences_8cpp.html" target="_top" xlink:title=" ">
<polygon fill="white" stroke="black" points="2674.5,-0.5 2674.5,-30.5 2815.5,-30.5 2815.5,-0.5 2674.5,-0.5"/>
<text text-anchor="start" x="2682.5" y="-18.5" font-family="Helvetica,sans-Serif" font-size="10.00">src/app/seamly2d/dialogs</text>
<text text-anchor="middle" x="2745" y="-7.5" font-family="Helvetica,sans-Serif" font-size="10.00">/dialogpreferences.cpp</text>
</a>
</g>
</g>
<!-- Node13&#45;&gt;Node23 -->
<g id="edge25" class="edge">
<title>Node13&#45;&gt;Node23</title>
<path fill="none" stroke="midnightblue" d="M2247.09,-74.6C2364.05,-63.59 2586.29,-42.16 2665,-31 2668.07,-30.56 2671.21,-30.1 2674.38,-29.6"/>
<polygon fill="midnightblue" stroke="midnightblue" points="2246.42,-71.15 2236.79,-75.57 2247.08,-78.12 2246.42,-71.15"/>
</g>
<!-- Node24 -->
<g id="node24" class="node">
<title>Node24</title>
<g id="a_node24"><a xlink:href="../../d5/d18/dialogpatternproperties_8cpp.html" target="_top" xlink:title=" ">
<polygon fill="white" stroke="black" points="2833.5,-0.5 2833.5,-30.5 2988.5,-30.5 2988.5,-0.5 2833.5,-0.5"/>
<text text-anchor="start" x="2841.5" y="-18.5" font-family="Helvetica,sans-Serif" font-size="10.00">src/app/seamly2d/dialogs</text>
<text text-anchor="middle" x="2911" y="-7.5" font-family="Helvetica,sans-Serif" font-size="10.00">/dialogpatternproperties.cpp</text>
</a>
</g>
</g>
<!-- Node13&#45;&gt;Node24 -->
<g id="edge26" class="edge">
<title>Node13&#45;&gt;Node24</title>
<path fill="none" stroke="midnightblue" d="M2246.81,-74.85C2275.57,-72.31 2308.82,-69.44 2339,-67 2554.45,-49.6 2609.4,-56.79 2824,-31 2827.04,-30.63 2830.14,-30.24 2833.26,-29.82"/>
<polygon fill="midnightblue" stroke="midnightblue" points="2246.49,-71.36 2236.83,-75.73 2247.1,-78.33 2246.49,-71.36"/>
</g>
<!-- Node13&#45;&gt;Node25 -->
<g id="edge28" class="edge">
<title>Node13&#45;&gt;Node25</title>
<path fill="none" stroke="midnightblue" d="M2246.75,-74.01C2275.51,-71.37 2308.77,-68.64 2339,-67 3083.41,-26.54 3274.17,-104.91 4016,-31 4018.7,-30.73 4021.45,-30.42 4024.22,-30.08"/>
<polygon fill="midnightblue" stroke="midnightblue" points="2246.41,-70.53 2236.78,-74.94 2247.06,-77.5 2246.41,-70.53"/>
</g>
<!-- Node26 -->
<g id="node26" class="node">
<title>Node26</title>
<g id="a_node26"><a xlink:href="../../db/d5c/groups__widget_8cpp.html" target="_top" xlink:title=" ">
<polygon fill="white" stroke="black" points="3006.5,-0.5 3006.5,-30.5 3147.5,-30.5 3147.5,-0.5 3006.5,-0.5"/>
<text text-anchor="start" x="3014.5" y="-18.5" font-family="Helvetica,sans-Serif" font-size="10.00">src/app/seamly2d/dialogs</text>
<text text-anchor="middle" x="3077" y="-7.5" font-family="Helvetica,sans-Serif" font-size="10.00">/groups_widget.cpp</text>
</a>
</g>
</g>
<!-- Node13&#45;&gt;Node26 -->
<g id="edge29" class="edge">
<title>Node13&#45;&gt;Node26</title>
<path fill="none" stroke="midnightblue" d="M2246.79,-74.54C2275.55,-71.96 2308.8,-69.14 2339,-67 2631.15,-46.25 2706.12,-65.18 2997,-31 3000.08,-30.64 3003.23,-30.23 3006.4,-29.79"/>
<polygon fill="midnightblue" stroke="midnightblue" points="2246.46,-71.05 2236.81,-75.44 2247.09,-78.02 2246.46,-71.05"/>
</g>
<!-- Node27 -->
<g id="node27" class="node">
<title>Node27</title>
<g id="a_node27"><a xlink:href="../../d2/df4/show__info__dialog_8cpp.html" target="_top" xlink:title=" ">
<polygon fill="white" stroke="black" points="3165.5,-0.5 3165.5,-30.5 3306.5,-30.5 3306.5,-0.5 3165.5,-0.5"/>
<text text-anchor="start" x="3173.5" y="-18.5" font-family="Helvetica,sans-Serif" font-size="10.00">src/app/seamly2d/dialogs</text>
<text text-anchor="middle" x="3236" y="-7.5" font-family="Helvetica,sans-Serif" font-size="10.00">/show_info_dialog.cpp</text>
</a>
</g>
</g>
<!-- Node13&#45;&gt;Node27 -->
<g id="edge30" class="edge">
<title>Node13&#45;&gt;Node27</title>
<path fill="none" stroke="midnightblue" d="M2246.77,-74.37C2275.53,-71.77 2308.79,-68.98 2339,-67 2701.68,-43.18 2794.8,-71.5 3156,-31 3159.09,-30.65 3162.23,-30.26 3165.41,-29.83"/>
<polygon fill="midnightblue" stroke="midnightblue" points="2246.44,-70.89 2236.8,-75.28 2247.08,-77.86 2246.44,-70.89"/>
</g>
<!-- Node28 -->
<g id="node28" class="node">
<title>Node28</title>
<g id="a_node28"><a xlink:href="../../df/d69/welcome__dialog_8cpp.html" target="_top" xlink:title=" ">
<polygon fill="white" stroke="black" points="3324.5,-0.5 3324.5,-30.5 3465.5,-30.5 3465.5,-0.5 3324.5,-0.5"/>
<text text-anchor="start" x="3332.5" y="-18.5" font-family="Helvetica,sans-Serif" font-size="10.00">src/app/seamly2d/dialogs</text>
<text text-anchor="middle" x="3395" y="-7.5" font-family="Helvetica,sans-Serif" font-size="10.00">/welcome_dialog.cpp</text>
</a>
</g>
</g>
<!-- Node13&#45;&gt;Node28 -->
<g id="edge31" class="edge">
<title>Node13&#45;&gt;Node28</title>
<path fill="none" stroke="midnightblue" d="M2246.77,-74.26C2275.53,-71.64 2308.78,-68.88 2339,-67 2772.24,-40.11 2883.46,-77.83 3315,-31 3318.09,-30.67 3321.23,-30.28 3324.41,-29.86"/>
<polygon fill="midnightblue" stroke="midnightblue" points="2246.43,-70.77 2236.79,-75.17 2247.07,-77.74 2246.43,-70.77"/>
</g>
<!-- Node29 -->
<g id="node29" class="node">
<title>Node29</title>
<g id="a_node29"><a xlink:href="../../dd/d84/shortcuts__dialog_8cpp.html" target="_top" xlink:title=" ">
<polygon fill="white" stroke="black" points="3483.5,-0.5 3483.5,-30.5 3624.5,-30.5 3624.5,-0.5 3483.5,-0.5"/>
<text text-anchor="start" x="3491.5" y="-18.5" font-family="Helvetica,sans-Serif" font-size="10.00">src/app/seamly2d/dialogs</text>
<text text-anchor="middle" x="3554" y="-7.5" font-family="Helvetica,sans-Serif" font-size="10.00">/shortcuts_dialog.cpp</text>
</a>
</g>
</g>
<!-- Node13&#45;&gt;Node29 -->
<g id="edge32" class="edge">
<title>Node13&#45;&gt;Node29</title>
<path fill="none" stroke="midnightblue" d="M2246.76,-74.17C2275.52,-71.55 2308.78,-68.8 2339,-67 2842.81,-37.03 2972.11,-84.15 3474,-31 3477.09,-30.67 3480.24,-30.3 3483.41,-29.88"/>
<polygon fill="midnightblue" stroke="midnightblue" points="2246.43,-70.69 2236.79,-75.1 2247.07,-77.66 2246.43,-70.69"/>
</g>
<!-- Node30 -->
<g id="node30" class="node">
<title>Node30</title>
<g id="a_node30"><a xlink:href="../../d3/d49/vpattern_8cpp.html" target="_top" xlink:title=" ">
<polygon fill="white" stroke="black" points="3642.5,-0.5 3642.5,-30.5 3767.5,-30.5 3767.5,-0.5 3642.5,-0.5"/>
<text text-anchor="start" x="3650.5" y="-18.5" font-family="Helvetica,sans-Serif" font-size="10.00">src/app/seamly2d/xml</text>
<text text-anchor="middle" x="3705" y="-7.5" font-family="Helvetica,sans-Serif" font-size="10.00">/vpattern.cpp</text>
</a>
</g>
</g>
<!-- Node13&#45;&gt;Node30 -->
<g id="edge35" class="edge">
<title>Node13&#45;&gt;Node30</title>
<path fill="none" stroke="midnightblue" d="M2246.76,-74.11C2275.52,-71.48 2308.77,-68.74 2339,-67 2913.38,-33.95 3061.35,-96.03 3633,-31 3636.04,-30.65 3639.14,-30.25 3642.27,-29.79"/>
<polygon fill="midnightblue" stroke="midnightblue" points="2246.42,-70.63 2236.79,-75.04 2247.07,-77.6 2246.42,-70.63"/>
</g>
</g>
</svg>
        <g id="navigator" transform="translate(0 0)" fill="#404254">
                <rect fill="#f2f5e9" fill-opacity="0.5" stroke="#606060" stroke-width=".5" x="0" y="0" width="60" height="60"/>
                <use id="zoomplus" xlink:href="#zoomPlus" x="17" y="9" onmousedown="handleZoom(evt,'in')"/>
                <use id="zoomminus" xlink:href="#zoomMin" x="42" y="9" onmousedown="handleZoom(evt,'out')"/>
                <use id="reset" xlink:href="#resetDef" x="30" y="36" onmousedown="handleReset()"/>
                <g id="arrowUp" xlink:href="#dirArrow" transform="translate(30 24)" onmousedown="handlePan(0,-1)">
                  <use xlink:href="#rim" fill="#404040">
                        <set attributeName="fill" to="#808080" begin="arrowUp.mouseover" end="arrowUp.mouseout"/>
                  </use>
                  <path fill="none" stroke="white" stroke-width="1.5" d="M0,-3.0v7 M-2.5,-0.5L0,-3.0L2.5,-0.5"/>
                </g>
                <g id="arrowRight" xlink:href="#dirArrow" transform="rotate(90) translate(36 -43)" onmousedown="handlePan(1,0)">
                  <use xlink:href="#rim" fill="#404040">
                        <set attributeName="fill" to="#808080" begin="arrowRight.mouseover" end="arrowRight.mouseout"/>
                  </use>
                  <path fill="none" stroke="white" stroke-width="1.5" d="M0,-3.0v7 M-2.5,-0.5L0,-3.0L2.5,-0.5"/>
                </g>
                <g id="arrowDown" xlink:href="#dirArrow" transform="rotate(180) translate(-30 -48)" onmousedown="handlePan(0,1)">
                  <use xlink:href="#rim" fill="#404040">
                        <set attributeName="fill" to="#808080" begin="arrowDown.mouseover" end="arrowDown.mouseout"/>
                  </use>
                  <path fill="none" stroke="white" stroke-width="1.5" d="M0,-3.0v7 M-2.5,-0.5L0,-3.0L2.5,-0.5"/>
                </g>
                <g id="arrowLeft" xlink:href="#dirArrow" transform="rotate(270) translate(-36 17)" onmousedown="handlePan(-1,0)">
                  <use xlink:href="#rim" fill="#404040">
                        <set attributeName="fill" to="#808080" begin="arrowLeft.mouseover" end="arrowLeft.mouseout"/>
                  </use>
                  <path fill="none" stroke="white" stroke-width="1.5" d="M0,-3.0v7 M-2.5,-0.5L0,-3.0L2.5,-0.5"/>
                </g>
        </g>
        <svg viewBox="0 0 15 15" width="100%" height="30px" preserveAspectRatio="xMaxYMin meet">
         <g id="arrow_out" transform="scale(0.3 0.3)">
          <a xlink:href="abstractlayout__dialog_8h__dep__incl_org.svg" target="_base">
           <rect id="button" ry="5" rx="5" y="6" x="6" height="38" width="38"
                fill="#f2f5e9" fill-opacity="0.5" stroke="#606060" stroke-width="1.0"/>
           <path id="arrow"
             d="M 11.500037,31.436501 C 11.940474,20.09759 22.043105,11.32322 32.158766,21.979434 L 37.068811,17.246167 C 37.068811,17.246167 37.088388,32 37.088388,32 L 22.160133,31.978069 C 22.160133,31.978069 26.997745,27.140456 26.997745,27.140456 C 18.528582,18.264221 13.291696,25.230495 11.500037,31.436501 z"
             style="fill:#404040;"/>
          </a>
         </g>
        </svg>
</svg>
