<?xml version="1.0" encoding="UTF-8" standalone="no"?>
<!DOCTYPE svg PUBLIC "-//W3C//DTD SVG 1.1//EN"
 "http://www.w3.org/Graphics/SVG/1.1/DTD/svg11.dtd">
<!-- Generated by graphviz version 2.43.0 (0)
 -->
<!-- Title: VCommonSettings Pages: 1 -->
<svg width="181pt" height="498pt"
 viewBox="0.00 0.00 181.00 498.00" xmlns="http://www.w3.org/2000/svg" xmlns:xlink="http://www.w3.org/1999/xlink">
<g id="graph0" class="graph" transform="scale(1 1) rotate(0) translate(4 494)">
<title>VCommonSettings</title>
<!-- Node1 -->
<g id="Node000001" class="node">
<title>Node1</title>
<g id="a_Node000001"><a xlink:title=" ">
<polygon fill="#999999" stroke="transparent" points="173,-405 0,-405 0,0 173,0 173,-405"/>
<text text-anchor="start" x="41.5" y="-392.5" font-family="Helvetica,sans-Serif" font-size="10.00">VCommonSettings</text>
<text text-anchor="start" x="4.5" y="-377.5" font-family="Helvetica,sans-Serif" font-size="10.00">+</text>
<text text-anchor="start" x="17.5" y="-377.5" font-family="Helvetica,sans-Serif" font-size="10.00">unixStandardSharePath</text>
<text text-anchor="start" x="4.5" y="-362.5" font-family="Helvetica,sans-Serif" font-size="10.00">+</text>
<text text-anchor="start" x="17.5" y="-362.5" font-family="Helvetica,sans-Serif" font-size="10.00">VCommonSettings()</text>
<text text-anchor="start" x="4.5" y="-347.5" font-family="Helvetica,sans-Serif" font-size="10.00">+</text>
<text text-anchor="start" x="17.5" y="-347.5" font-family="Helvetica,sans-Serif" font-size="10.00">getIndividualSizePath()</text>
<text text-anchor="start" x="4.5" y="-332.5" font-family="Helvetica,sans-Serif" font-size="10.00">+</text>
<text text-anchor="start" x="17.5" y="-332.5" font-family="Helvetica,sans-Serif" font-size="10.00">setIndividualSizePath()</text>
<text text-anchor="start" x="4.5" y="-317.5" font-family="Helvetica,sans-Serif" font-size="10.00">+</text>
<text text-anchor="start" x="17.5" y="-317.5" font-family="Helvetica,sans-Serif" font-size="10.00">getMultisizePath()</text>
<text text-anchor="start" x="4.5" y="-302.5" font-family="Helvetica,sans-Serif" font-size="10.00">+</text>
<text text-anchor="start" x="17.5" y="-302.5" font-family="Helvetica,sans-Serif" font-size="10.00">setMultisizePath()</text>
<text text-anchor="start" x="4.5" y="-287.5" font-family="Helvetica,sans-Serif" font-size="10.00">+</text>
<text text-anchor="start" x="17.5" y="-287.5" font-family="Helvetica,sans-Serif" font-size="10.00">getBodyScansPath()</text>
<text text-anchor="start" x="4.5" y="-272.5" font-family="Helvetica,sans-Serif" font-size="10.00">+</text>
<text text-anchor="start" x="17.5" y="-272.5" font-family="Helvetica,sans-Serif" font-size="10.00">setBodyScansPath()</text>
<text text-anchor="start" x="4.5" y="-257.5" font-family="Helvetica,sans-Serif" font-size="10.00">+</text>
<text text-anchor="start" x="17.5" y="-257.5" font-family="Helvetica,sans-Serif" font-size="10.00">getTemplatePath()</text>
<text text-anchor="start" x="4.5" y="-242.5" font-family="Helvetica,sans-Serif" font-size="10.00">+</text>
<text text-anchor="start" x="17.5" y="-242.5" font-family="Helvetica,sans-Serif" font-size="10.00">setTemplatePath()</text>
<text text-anchor="start" x="4.5" y="-227.5" font-family="Helvetica,sans-Serif" font-size="10.00">+</text>
<text text-anchor="start" x="17.5" y="-227.5" font-family="Helvetica,sans-Serif" font-size="10.00">getLabelTemplatePath()</text>
<text text-anchor="start" x="17.5" y="-212.5" font-family="Helvetica,sans-Serif" font-size="10.00">and 263 more...</text>
<text text-anchor="start" x="4.5" y="-197.5" font-family="Helvetica,sans-Serif" font-size="10.00">+</text>
<text text-anchor="start" x="17.5" y="-197.5" font-family="Helvetica,sans-Serif" font-size="10.00">SharePath()</text>
<text text-anchor="start" x="4.5" y="-182.5" font-family="Helvetica,sans-Serif" font-size="10.00">+</text>
<text text-anchor="start" x="17.5" y="-182.5" font-family="Helvetica,sans-Serif" font-size="10.00">MultisizeTablesPath()</text>
<text text-anchor="start" x="4.5" y="-167.5" font-family="Helvetica,sans-Serif" font-size="10.00">+</text>
<text text-anchor="start" x="17.5" y="-167.5" font-family="Helvetica,sans-Serif" font-size="10.00">StandardTemplatesPath()</text>
<text text-anchor="start" x="4.5" y="-152.5" font-family="Helvetica,sans-Serif" font-size="10.00">+</text>
<text text-anchor="start" x="17.5" y="-152.5" font-family="Helvetica,sans-Serif" font-size="10.00">PrepareStandardTemplates()</text>
<text text-anchor="start" x="4.5" y="-137.5" font-family="Helvetica,sans-Serif" font-size="10.00">+</text>
<text text-anchor="start" x="17.5" y="-137.5" font-family="Helvetica,sans-Serif" font-size="10.00">prepareMultisizeTables()</text>
<text text-anchor="start" x="4.5" y="-122.5" font-family="Helvetica,sans-Serif" font-size="10.00">+</text>
<text text-anchor="start" x="17.5" y="-122.5" font-family="Helvetica,sans-Serif" font-size="10.00">getDefaultIndividualSize</text>
<text text-anchor="start" x="17.5" y="-111.5" font-family="Helvetica,sans-Serif" font-size="10.00">Path()</text>
<text text-anchor="start" x="4.5" y="-96.5" font-family="Helvetica,sans-Serif" font-size="10.00">+</text>
<text text-anchor="start" x="17.5" y="-96.5" font-family="Helvetica,sans-Serif" font-size="10.00">getDefaultMultisizePath()</text>
<text text-anchor="start" x="4.5" y="-81.5" font-family="Helvetica,sans-Serif" font-size="10.00">+</text>
<text text-anchor="start" x="17.5" y="-81.5" font-family="Helvetica,sans-Serif" font-size="10.00">getDefaultBodyScansPath()</text>
<text text-anchor="start" x="4.5" y="-66.5" font-family="Helvetica,sans-Serif" font-size="10.00">+</text>
<text text-anchor="start" x="17.5" y="-66.5" font-family="Helvetica,sans-Serif" font-size="10.00">getDefaultTemplatePath()</text>
<text text-anchor="start" x="4.5" y="-51.5" font-family="Helvetica,sans-Serif" font-size="10.00">+</text>
<text text-anchor="start" x="17.5" y="-51.5" font-family="Helvetica,sans-Serif" font-size="10.00">getDefaultLabelTemplatePath()</text>
<text text-anchor="start" x="4.5" y="-36.5" font-family="Helvetica,sans-Serif" font-size="10.00">+</text>
<text text-anchor="start" x="17.5" y="-36.5" font-family="Helvetica,sans-Serif" font-size="10.00">getDefaultImageFilePath()</text>
<text text-anchor="start" x="4.5" y="-21.5" font-family="Helvetica,sans-Serif" font-size="10.00">+</text>
<text text-anchor="start" x="17.5" y="-21.5" font-family="Helvetica,sans-Serif" font-size="10.00">PredefinedDateFormats()</text>
<text text-anchor="start" x="4.5" y="-6.5" font-family="Helvetica,sans-Serif" font-size="10.00">+</text>
<text text-anchor="start" x="17.5" y="-6.5" font-family="Helvetica,sans-Serif" font-size="10.00">PredefinedTimeFormats()</text>
<polygon fill="#666666" stroke="#666666" points="0.5,-387.5 0.5,-387.5 173.5,-387.5 173.5,-387.5 0.5,-387.5"/>
<polygon fill="#666666" stroke="#666666" points="0.5,-372.5 0.5,-372.5 15.5,-372.5 15.5,-372.5 0.5,-372.5"/>
<polygon fill="#666666" stroke="#666666" points="15.5,-372.5 15.5,-372.5 173.5,-372.5 173.5,-372.5 15.5,-372.5"/>
<polygon fill="none" stroke="#666666" points="0,0 0,-405 173,-405 173,0 0,0"/>
</a>
</g>
</g>
<!-- Node2 -->
<g id="Node000002" class="node">
<title>Node2</title>
<g id="a_Node000002"><a xlink:title=" ">
<polygon fill="white" stroke="transparent" points="115.5,-490 57.5,-490 57.5,-441 115.5,-441 115.5,-490"/>
<text text-anchor="start" x="62.5" y="-477.5" font-family="Helvetica,sans-Serif" font-size="10.00">QSettings</text>
<text text-anchor="start" x="84.5" y="-462.5" font-family="Helvetica,sans-Serif" font-size="10.00"> </text>
<text text-anchor="start" x="84.5" y="-447.5" font-family="Helvetica,sans-Serif" font-size="10.00"> </text>
<polygon fill="#666666" stroke="#666666" points="57.5,-472.5 57.5,-472.5 115.5,-472.5 115.5,-472.5 57.5,-472.5"/>
<polygon fill="#666666" stroke="#666666" points="57.5,-457.5 57.5,-457.5 115.5,-457.5 115.5,-457.5 57.5,-457.5"/>
<polygon fill="none" stroke="#666666" points="57.5,-441 57.5,-490 115.5,-490 115.5,-441 57.5,-441"/>
</a>
</g>
</g>
<!-- Node2&#45;&gt;Node1 -->
<g id="edge1_Node000001_Node000002" class="edge">
<title>Node2&#45;&gt;Node1</title>
<g id="a_edge1_Node000001_Node000002"><a xlink:title=" ">
<path fill="none" stroke="#63b8ff" d="M86.5,-430.8C86.5,-423.17 86.5,-414.53 86.5,-405.2"/>
<polygon fill="none" stroke="#63b8ff" points="83,-430.88 86.5,-440.88 90,-430.88 83,-430.88"/>
</a>
</g>
</g>
</g>
</svg>
