<?xml version="1.0" encoding="UTF-8" standalone="no"?>
<!DOCTYPE svg PUBLIC "-//W3C//DTD SVG 1.1//EN"
 "http://www.w3.org/Graphics/SVG/1.1/DTD/svg11.dtd">
<!-- Generated by graphviz version 2.43.0 (0)
 -->
<!-- Title: src/libs/vmisc/vsettings.h Pages: 1 -->
<svg width="5575pt" height="341pt"
 viewBox="0.00 0.00 5575.00 341.00" xmlns="http://www.w3.org/2000/svg" xmlns:xlink="http://www.w3.org/1999/xlink">
<g id="graph0" class="graph" transform="scale(1 1) rotate(0) translate(4 337)">
<title>src/libs/vmisc/vsettings.h</title>
<polygon fill="white" stroke="transparent" points="-4,4 -4,-337 5571,-337 5571,4 -4,4"/>
<!-- Node1 -->
<g id="node1" class="node">
<title>Node1</title>
<g id="a_node1"><a xlink:title=" ">
<polygon fill="#bfbfbf" stroke="black" points="2459,-313.5 2459,-332.5 2599,-332.5 2599,-313.5 2459,-313.5"/>
<text text-anchor="middle" x="2529" y="-320.5" font-family="Helvetica,sans-Serif" font-size="10.00">src/libs/vmisc/vsettings.h</text>
</a>
</g>
</g>
<!-- Node2 -->
<g id="node2" class="node">
<title>Node2</title>
<g id="a_node2"><a xlink:href="../../d2/d47/image__dialog_8cpp.html" target="_top" xlink:title=" ">
<polygon fill="white" stroke="black" points="0,-56.5 0,-86.5 112,-86.5 112,-56.5 0,-56.5"/>
<text text-anchor="start" x="8" y="-74.5" font-family="Helvetica,sans-Serif" font-size="10.00">src/libs/tools/image</text>
<text text-anchor="middle" x="56" y="-63.5" font-family="Helvetica,sans-Serif" font-size="10.00">_dialog.cpp</text>
</a>
</g>
</g>
<!-- Node1&#45;&gt;Node2 -->
<g id="edge1" class="edge">
<title>Node1&#45;&gt;Node2</title>
<path fill="none" stroke="midnightblue" d="M2448.59,-321.62C2032.65,-319.31 141,-304.24 51,-221 13.5,-186.32 37,-116.45 49.57,-86.57"/>
<polygon fill="midnightblue" stroke="midnightblue" points="2448.7,-325.12 2458.72,-321.68 2448.74,-318.12 2448.7,-325.12"/>
</g>
<!-- Node3 -->
<g id="node3" class="node">
<title>Node3</title>
<g id="a_node3"><a xlink:href="../../d5/d74/vabstractapplication_8h.html" target="_top" xlink:title=" ">
<polygon fill="white" stroke="black" points="2369.5,-257.5 2369.5,-276.5 2564.5,-276.5 2564.5,-257.5 2369.5,-257.5"/>
<text text-anchor="middle" x="2467" y="-264.5" font-family="Helvetica,sans-Serif" font-size="10.00">src/libs/vmisc/vabstractapplication.h</text>
</a>
</g>
</g>
<!-- Node1&#45;&gt;Node3 -->
<g id="edge2" class="edge">
<title>Node1&#45;&gt;Node3</title>
<path fill="none" stroke="midnightblue" d="M2511.25,-306.54C2500.19,-296.91 2486.37,-284.87 2477.14,-276.83"/>
<polygon fill="midnightblue" stroke="midnightblue" points="2509.2,-309.4 2519.04,-313.32 2513.8,-304.12 2509.2,-309.4"/>
</g>
<!-- Node57 -->
<g id="node47" class="node">
<title>Node57</title>
<g id="a_node47"><a xlink:href="../../d2/d31/vmaingraphicsview_8cpp.html" target="_top" xlink:title=" ">
<polygon fill="white" stroke="black" points="5351,-196 5351,-215 5567,-215 5567,-196 5351,-196"/>
<text text-anchor="middle" x="5459" y="-203" font-family="Helvetica,sans-Serif" font-size="10.00">src/libs/vwidgets/vmaingraphicsview.cpp</text>
</a>
</g>
</g>
<!-- Node1&#45;&gt;Node57 -->
<g id="edge56" class="edge">
<title>Node1&#45;&gt;Node57</title>
<path fill="none" stroke="midnightblue" d="M2543.37,-305.57C2558.4,-289.72 2583.6,-266.75 2611,-257 2753.96,-206.15 5190.62,-231.35 5342,-221 5361.09,-219.7 5381.85,-217.41 5400.5,-215.03"/>
<polygon fill="midnightblue" stroke="midnightblue" points="2540.64,-303.36 2536.47,-313.1 2545.81,-308.09 2540.64,-303.36"/>
</g>
<!-- Node60 -->
<g id="node50" class="node">
<title>Node60</title>
<g id="a_node50"><a xlink:href="../../db/d28/vsettings_8cpp.html" target="_top" xlink:title=" ">
<polygon fill="white" stroke="black" points="2620,-257.5 2620,-276.5 2772,-276.5 2772,-257.5 2620,-257.5"/>
<text text-anchor="middle" x="2696" y="-264.5" font-family="Helvetica,sans-Serif" font-size="10.00">src/libs/vmisc/vsettings.cpp</text>
</a>
</g>
</g>
<!-- Node1&#45;&gt;Node60 -->
<g id="edge55" class="edge">
<title>Node1&#45;&gt;Node60</title>
<path fill="none" stroke="midnightblue" d="M2565.17,-310.3C2596.64,-300.13 2641.49,-285.62 2669.66,-276.52"/>
<polygon fill="midnightblue" stroke="midnightblue" points="2563.9,-307.04 2555.46,-313.44 2566.05,-313.7 2563.9,-307.04"/>
</g>
<!-- Node3&#45;&gt;Node2 -->
<g id="edge14" class="edge">
<title>Node3&#45;&gt;Node2</title>
<path fill="none" stroke="midnightblue" d="M2358.92,-265.87C1897.99,-265.1 118.05,-259.62 75,-221 36.69,-186.64 46.28,-116.6 52.58,-86.62"/>
<polygon fill="midnightblue" stroke="midnightblue" points="2359.23,-269.37 2369.23,-265.89 2359.24,-262.37 2359.23,-269.37"/>
</g>
<!-- Node4 -->
<g id="node4" class="node">
<title>Node4</title>
<g id="a_node4"><a xlink:href="../../d4/d90/fvupdater_8cpp.html" target="_top" xlink:title=" ">
<polygon fill="white" stroke="black" points="4977.5,-196 4977.5,-215 5130.5,-215 5130.5,-196 4977.5,-196"/>
<text text-anchor="middle" x="5054" y="-203" font-family="Helvetica,sans-Serif" font-size="10.00">src/libs/fervor/fvupdater.cpp</text>
</a>
</g>
</g>
<!-- Node3&#45;&gt;Node4 -->
<g id="edge3" class="edge">
<title>Node3&#45;&gt;Node4</title>
<path fill="none" stroke="midnightblue" d="M2574.72,-257.16C2575.82,-257.11 2576.91,-257.05 2578,-257 3107.45,-231.57 4434.92,-266.82 4963,-221 4977.98,-219.7 4994.23,-217.4 5008.8,-215.01"/>
<polygon fill="midnightblue" stroke="midnightblue" points="2574.52,-253.67 2564.73,-257.72 2574.91,-260.66 2574.52,-253.67"/>
</g>
<!-- Node5 -->
<g id="node5" class="node">
<title>Node5</title>
<g id="a_node5"><a xlink:href="../../d1/d8d/image__item_8h.html" target="_top" xlink:title=" ">
<polygon fill="white" stroke="black" points="652,-190.5 652,-220.5 764,-220.5 764,-190.5 652,-190.5"/>
<text text-anchor="start" x="660" y="-208.5" font-family="Helvetica,sans-Serif" font-size="10.00">src/libs/tools/image</text>
<text text-anchor="middle" x="708" y="-197.5" font-family="Helvetica,sans-Serif" font-size="10.00">_item.h</text>
</a>
</g>
</g>
<!-- Node3&#45;&gt;Node5 -->
<g id="edge4" class="edge">
<title>Node3&#45;&gt;Node5</title>
<path fill="none" stroke="midnightblue" d="M2359.01,-265.85C2036.18,-264.99 1081.7,-259.17 773,-221 770.13,-220.65 767.2,-220.22 764.25,-219.75"/>
<polygon fill="midnightblue" stroke="midnightblue" points="2359.3,-269.35 2369.31,-265.88 2359.32,-262.35 2359.3,-269.35"/>
</g>
<!-- Node17 -->
<g id="node9" class="node">
<title>Node17</title>
<g id="a_node9"><a xlink:href="../../dd/d70/vlayoutpiece_8cpp.html" target="_top" xlink:title=" ">
<polygon fill="white" stroke="black" points="1519.5,-0.5 1519.5,-19.5 1696.5,-19.5 1696.5,-0.5 1519.5,-0.5"/>
<text text-anchor="middle" x="1608" y="-7.5" font-family="Helvetica,sans-Serif" font-size="10.00">src/libs/vlayout/vlayoutpiece.cpp</text>
</a>
</g>
</g>
<!-- Node3&#45;&gt;Node17 -->
<g id="edge28" class="edge">
<title>Node3&#45;&gt;Node17</title>
<path fill="none" stroke="midnightblue" d="M2574.28,-257.27C2755.59,-254.71 5147.39,-245.95 5172,-221 5181.67,-211.19 5179.33,-201.67 5172,-190 5106,-84.91 4750.53,-61.22 4702,-56 4396.88,-23.19 2171.47,-13.1 1696.88,-11.31"/>
<polygon fill="midnightblue" stroke="midnightblue" points="2573.95,-253.78 2564.03,-257.48 2574.1,-260.77 2573.95,-253.78"/>
</g>
<!-- Node18 -->
<g id="node10" class="node">
<title>Node18</title>
<g id="a_node10"><a xlink:href="../../d8/d70/vtextmanager_8cpp.html" target="_top" xlink:title=" ">
<polygon fill="white" stroke="black" points="4511,-62 4511,-81 4693,-81 4693,-62 4511,-62"/>
<text text-anchor="middle" x="4602" y="-69" font-family="Helvetica,sans-Serif" font-size="10.00">src/libs/vlayout/vtextmanager.cpp</text>
</a>
</g>
</g>
<!-- Node3&#45;&gt;Node18 -->
<g id="edge29" class="edge">
<title>Node3&#45;&gt;Node18</title>
<path fill="none" stroke="midnightblue" d="M2574.16,-257.27C2753.34,-254.71 5115.7,-245.65 5140,-221 5239.1,-120.5 5325.72,-215.58 4953,-123 4866.06,-101.41 4764.57,-88.04 4693.14,-80.53"/>
<polygon fill="midnightblue" stroke="midnightblue" points="2573.95,-253.77 2564.03,-257.49 2574.1,-260.77 2573.95,-253.77"/>
</g>
<!-- Node24 -->
<g id="node12" class="node">
<title>Node24</title>
<g id="a_node12"><a xlink:href="../../de/d22/vsimplecurve_8cpp.html" target="_top" xlink:title=" ">
<polygon fill="white" stroke="black" points="3354,-62 3354,-81 3542,-81 3542,-62 3354,-62"/>
<text text-anchor="middle" x="3448" y="-69" font-family="Helvetica,sans-Serif" font-size="10.00">src/libs/vwidgets/vsimplecurve.cpp</text>
</a>
</g>
</g>
<!-- Node3&#45;&gt;Node24 -->
<g id="edge51" class="edge">
<title>Node3&#45;&gt;Node24</title>
<path fill="none" stroke="midnightblue" d="M2574.09,-257.23C2753.16,-254.41 4885.24,-266.45 4930,-221 4960.56,-189.97 4960.27,-154.32 4930,-123 4905.81,-97.97 3864.39,-79.18 3542.07,-73.96"/>
<polygon fill="midnightblue" stroke="midnightblue" points="2573.93,-253.74 2564.03,-257.49 2574.11,-260.73 2573.93,-253.74"/>
</g>
<!-- Node26 -->
<g id="node14" class="node">
<title>Node26</title>
<g id="a_node14"><a xlink:href="../../d9/dc8/dxiface_8cpp.html" target="_top" xlink:title=" ">
<polygon fill="white" stroke="black" points="84.5,-196 84.5,-215 219.5,-215 219.5,-196 84.5,-196"/>
<text text-anchor="middle" x="152" y="-203" font-family="Helvetica,sans-Serif" font-size="10.00">src/libs/vdxf/dxiface.cpp</text>
</a>
</g>
</g>
<!-- Node3&#45;&gt;Node26 -->
<g id="edge15" class="edge">
<title>Node3&#45;&gt;Node26</title>
<path fill="none" stroke="midnightblue" d="M2359.22,-266.24C1971.53,-266.73 648.65,-265.04 228,-221 215.58,-219.7 202.15,-217.43 190.09,-215.07"/>
<polygon fill="midnightblue" stroke="midnightblue" points="2359.32,-269.74 2369.31,-266.23 2359.31,-262.74 2359.32,-269.74"/>
</g>
<!-- Node27 -->
<g id="node15" class="node">
<title>Node27</title>
<g id="a_node15"><a xlink:href="../../da/d75/vabstractarc__p_8h.html" target="_top" xlink:title=" ">
<polygon fill="white" stroke="black" points="5225.5,-190.5 5225.5,-220.5 5332.5,-220.5 5332.5,-190.5 5225.5,-190.5"/>
<text text-anchor="start" x="5233.5" y="-208.5" font-family="Helvetica,sans-Serif" font-size="10.00">src/libs/vgeometry</text>
<text text-anchor="middle" x="5279" y="-197.5" font-family="Helvetica,sans-Serif" font-size="10.00">/vabstractarc_p.h</text>
</a>
</g>
</g>
<!-- Node3&#45;&gt;Node27 -->
<g id="edge16" class="edge">
<title>Node3&#45;&gt;Node27</title>
<path fill="none" stroke="midnightblue" d="M2574.72,-257.16C2575.82,-257.1 2576.91,-257.05 2578,-257 3162.51,-229.34 4629.49,-286.33 5211,-221 5215.68,-220.47 5220.51,-219.77 5225.34,-218.96"/>
<polygon fill="midnightblue" stroke="midnightblue" points="2574.53,-253.67 2564.73,-257.71 2574.91,-260.66 2574.53,-253.67"/>
</g>
<!-- Node29 -->
<g id="node17" class="node">
<title>Node29</title>
<g id="a_node17"><a xlink:href="../../dc/da3/varc__p_8h.html" target="_top" xlink:title=" ">
<polygon fill="white" stroke="black" points="237.5,-190.5 237.5,-220.5 344.5,-220.5 344.5,-190.5 237.5,-190.5"/>
<text text-anchor="start" x="245.5" y="-208.5" font-family="Helvetica,sans-Serif" font-size="10.00">src/libs/vgeometry</text>
<text text-anchor="middle" x="291" y="-197.5" font-family="Helvetica,sans-Serif" font-size="10.00">/varc_p.h</text>
</a>
</g>
</g>
<!-- Node3&#45;&gt;Node29 -->
<g id="edge18" class="edge">
<title>Node3&#45;&gt;Node29</title>
<path fill="none" stroke="midnightblue" d="M2359.03,-265.02C1955.97,-261.19 552.28,-246.14 353,-221 350.26,-220.65 347.46,-220.24 344.64,-219.77"/>
<polygon fill="midnightblue" stroke="midnightblue" points="2359.19,-268.52 2369.23,-265.12 2359.26,-261.52 2359.19,-268.52"/>
</g>
<!-- Node31 -->
<g id="node19" class="node">
<title>Node31</title>
<g id="a_node19"><a xlink:href="../../d5/d8e/vcubicbezier__p_8h.html" target="_top" xlink:title=" ">
<polygon fill="white" stroke="black" points="362.5,-190.5 362.5,-220.5 469.5,-220.5 469.5,-190.5 362.5,-190.5"/>
<text text-anchor="start" x="370.5" y="-208.5" font-family="Helvetica,sans-Serif" font-size="10.00">src/libs/vgeometry</text>
<text text-anchor="middle" x="416" y="-197.5" font-family="Helvetica,sans-Serif" font-size="10.00">/vcubicbezier_p.h</text>
</a>
</g>
</g>
<!-- Node3&#45;&gt;Node31 -->
<g id="edge20" class="edge">
<title>Node3&#45;&gt;Node31</title>
<path fill="none" stroke="midnightblue" d="M2359.28,-266.21C2001.07,-266.51 851.78,-264 484,-221 479.32,-220.45 474.49,-219.74 469.67,-218.91"/>
<polygon fill="midnightblue" stroke="midnightblue" points="2359.39,-269.71 2369.39,-266.21 2359.39,-262.71 2359.39,-269.71"/>
</g>
<!-- Node33 -->
<g id="node21" class="node">
<title>Node33</title>
<g id="a_node21"><a xlink:href="../../df/dde/vellipticalarc__p_8h.html" target="_top" xlink:title=" ">
<polygon fill="white" stroke="black" points="526.5,-190.5 526.5,-220.5 633.5,-220.5 633.5,-190.5 526.5,-190.5"/>
<text text-anchor="start" x="534.5" y="-208.5" font-family="Helvetica,sans-Serif" font-size="10.00">src/libs/vgeometry</text>
<text text-anchor="middle" x="580" y="-197.5" font-family="Helvetica,sans-Serif" font-size="10.00">/vellipticalarc_p.h</text>
</a>
</g>
</g>
<!-- Node3&#45;&gt;Node33 -->
<g id="edge22" class="edge">
<title>Node3&#45;&gt;Node33</title>
<path fill="none" stroke="midnightblue" d="M2359.28,-266.19C2020.29,-266.34 978.05,-263.25 643,-221 639.99,-220.62 636.92,-220.16 633.83,-219.64"/>
<polygon fill="midnightblue" stroke="midnightblue" points="2359.35,-269.69 2369.35,-266.18 2359.34,-262.69 2359.35,-269.69"/>
</g>
<!-- Node34 -->
<g id="node22" class="node">
<title>Node34</title>
<g id="a_node22"><a xlink:href="../../d6/dfb/vellipticalarc_8cpp.html" target="_top" xlink:title=" ">
<polygon fill="white" stroke="black" points="508.5,-123.5 508.5,-153.5 615.5,-153.5 615.5,-123.5 508.5,-123.5"/>
<text text-anchor="start" x="516.5" y="-141.5" font-family="Helvetica,sans-Serif" font-size="10.00">src/libs/vgeometry</text>
<text text-anchor="middle" x="562" y="-130.5" font-family="Helvetica,sans-Serif" font-size="10.00">/vellipticalarc.cpp</text>
</a>
</g>
</g>
<!-- Node3&#45;&gt;Node34 -->
<g id="edge24" class="edge">
<title>Node3&#45;&gt;Node34</title>
<path fill="none" stroke="midnightblue" d="M2359.22,-265.53C1954.86,-263.52 549.41,-254.17 517,-221 497.57,-201.12 524.56,-171.16 544.37,-153.64"/>
<polygon fill="midnightblue" stroke="midnightblue" points="2359.43,-269.03 2369.45,-265.58 2359.47,-262.03 2359.43,-269.03"/>
</g>
<!-- Node35 -->
<g id="node23" class="node">
<title>Node35</title>
<g id="a_node23"><a xlink:href="../../d1/d76/vspline__p_8h.html" target="_top" xlink:title=" ">
<polygon fill="white" stroke="black" points="1871.5,-190.5 1871.5,-220.5 1978.5,-220.5 1978.5,-190.5 1871.5,-190.5"/>
<text text-anchor="start" x="1879.5" y="-208.5" font-family="Helvetica,sans-Serif" font-size="10.00">src/libs/vgeometry</text>
<text text-anchor="middle" x="1925" y="-197.5" font-family="Helvetica,sans-Serif" font-size="10.00">/vspline_p.h</text>
</a>
</g>
</g>
<!-- Node3&#45;&gt;Node35 -->
<g id="edge25" class="edge">
<title>Node3&#45;&gt;Node35</title>
<path fill="none" stroke="midnightblue" d="M2358.88,-260.09C2261.24,-253.74 2113.86,-241.68 1987,-221 1984.27,-220.56 1981.49,-220.06 1978.68,-219.53"/>
<polygon fill="midnightblue" stroke="midnightblue" points="2358.85,-263.59 2369.06,-260.74 2359.3,-256.6 2358.85,-263.59"/>
</g>
<!-- Node37 -->
<g id="node25" class="node">
<title>Node37</title>
<g id="a_node25"><a xlink:href="../../d9/d15/vabstractpiece_8cpp.html" target="_top" xlink:title=" ">
<polygon fill="white" stroke="black" points="782,-196 782,-215 968,-215 968,-196 782,-196"/>
<text text-anchor="middle" x="875" y="-203" font-family="Helvetica,sans-Serif" font-size="10.00">src/libs/vlayout/vabstractpiece.cpp</text>
</a>
</g>
</g>
<!-- Node3&#45;&gt;Node37 -->
<g id="edge27" class="edge">
<title>Node3&#45;&gt;Node37</title>
<path fill="none" stroke="midnightblue" d="M2358.97,-264.3C2063.39,-259.39 1245.52,-244.07 977,-221 960.69,-219.6 943.01,-217.35 927.02,-215.03"/>
<polygon fill="midnightblue" stroke="midnightblue" points="2359.21,-267.8 2369.27,-264.47 2359.33,-260.8 2359.21,-267.8"/>
</g>
<!-- Node38 -->
<g id="node26" class="node">
<title>Node38</title>
<g id="a_node26"><a xlink:href="../../db/d65/dialogexporttocsv_8cpp.html" target="_top" xlink:title=" ">
<polygon fill="white" stroke="black" points="986.5,-190.5 986.5,-220.5 1113.5,-220.5 1113.5,-190.5 986.5,-190.5"/>
<text text-anchor="start" x="994.5" y="-208.5" font-family="Helvetica,sans-Serif" font-size="10.00">src/libs/vmisc/dialogs</text>
<text text-anchor="middle" x="1050" y="-197.5" font-family="Helvetica,sans-Serif" font-size="10.00">/dialogexporttocsv.cpp</text>
</a>
</g>
</g>
<!-- Node3&#45;&gt;Node38 -->
<g id="edge30" class="edge">
<title>Node3&#45;&gt;Node38</title>
<path fill="none" stroke="midnightblue" d="M2358.98,-264.65C2083.82,-260.85 1361.43,-248.49 1123,-221 1119.92,-220.64 1116.77,-220.23 1113.61,-219.77"/>
<polygon fill="midnightblue" stroke="midnightblue" points="2359.32,-268.16 2369.37,-264.79 2359.42,-261.16 2359.32,-268.16"/>
</g>
<!-- Node39 -->
<g id="node27" class="node">
<title>Node39</title>
<g id="a_node27"><a xlink:href="../../d6/d0b/def_8cpp.html" target="_top" xlink:title=" ">
<polygon fill="white" stroke="black" points="1132,-196 1132,-215 1254,-215 1254,-196 1132,-196"/>
<text text-anchor="middle" x="1193" y="-203" font-family="Helvetica,sans-Serif" font-size="10.00">src/libs/vmisc/def.cpp</text>
</a>
</g>
</g>
<!-- Node3&#45;&gt;Node39 -->
<g id="edge31" class="edge">
<title>Node3&#45;&gt;Node39</title>
<path fill="none" stroke="midnightblue" d="M2359.03,-264.27C2104.64,-259.83 1473.31,-246.53 1263,-221 1251.67,-219.62 1239.44,-217.36 1228.42,-215.03"/>
<polygon fill="midnightblue" stroke="midnightblue" points="2359.33,-267.78 2369.39,-264.45 2359.45,-260.78 2359.33,-267.78"/>
</g>
<!-- Node40 -->
<g id="node28" class="node">
<title>Node40</title>
<g id="a_node28"><a xlink:href="../../d0/df6/vabstractapplication_8cpp.html" target="_top" xlink:title=" ">
<polygon fill="white" stroke="black" points="1272,-196 1272,-215 1478,-215 1478,-196 1272,-196"/>
<text text-anchor="middle" x="1375" y="-203" font-family="Helvetica,sans-Serif" font-size="10.00">src/libs/vmisc/vabstractapplication.cpp</text>
</a>
</g>
</g>
<!-- Node3&#45;&gt;Node40 -->
<g id="edge32" class="edge">
<title>Node3&#45;&gt;Node40</title>
<path fill="none" stroke="midnightblue" d="M2359.42,-263.97C2178.83,-259.92 1803.39,-248.7 1487,-221 1469.62,-219.48 1450.78,-217.26 1433.61,-215.02"/>
<polygon fill="midnightblue" stroke="midnightblue" points="2359.38,-267.47 2369.45,-264.2 2359.53,-260.48 2359.38,-267.47"/>
</g>
<!-- Node41 -->
<g id="node29" class="node">
<title>Node41</title>
<g id="a_node29"><a xlink:href="../../d4/d4f/pmsystems_8cpp.html" target="_top" xlink:title=" ">
<polygon fill="white" stroke="black" points="1496.5,-190.5 1496.5,-220.5 1603.5,-220.5 1603.5,-190.5 1496.5,-190.5"/>
<text text-anchor="start" x="1504.5" y="-208.5" font-family="Helvetica,sans-Serif" font-size="10.00">src/libs/vpatterndb</text>
<text text-anchor="middle" x="1550" y="-197.5" font-family="Helvetica,sans-Serif" font-size="10.00">/pmsystems.cpp</text>
</a>
</g>
</g>
<!-- Node3&#45;&gt;Node41 -->
<g id="edge33" class="edge">
<title>Node3&#45;&gt;Node41</title>
<path fill="none" stroke="midnightblue" d="M2359.32,-266.43C2196.63,-265.7 1878.85,-258.92 1612,-221 1609.26,-220.61 1606.47,-220.16 1603.66,-219.66"/>
<polygon fill="midnightblue" stroke="midnightblue" points="2359.32,-269.93 2369.33,-266.46 2359.34,-262.93 2359.32,-269.93"/>
</g>
<!-- Node42 -->
<g id="node30" class="node">
<title>Node42</title>
<g id="a_node30"><a xlink:href="../../db/d11/vformula_8cpp.html" target="_top" xlink:title=" ">
<polygon fill="white" stroke="black" points="1621.5,-190.5 1621.5,-220.5 1728.5,-220.5 1728.5,-190.5 1621.5,-190.5"/>
<text text-anchor="start" x="1629.5" y="-208.5" font-family="Helvetica,sans-Serif" font-size="10.00">src/libs/vpatterndb</text>
<text text-anchor="middle" x="1675" y="-197.5" font-family="Helvetica,sans-Serif" font-size="10.00">/vformula.cpp</text>
</a>
</g>
</g>
<!-- Node3&#45;&gt;Node42 -->
<g id="edge34" class="edge">
<title>Node3&#45;&gt;Node42</title>
<path fill="none" stroke="midnightblue" d="M2359.25,-265.01C2216.31,-262.4 1956.46,-253.19 1737,-221 1734.27,-220.6 1731.47,-220.14 1728.66,-219.63"/>
<polygon fill="midnightblue" stroke="midnightblue" points="2359.28,-268.51 2369.34,-265.18 2359.4,-261.51 2359.28,-268.51"/>
</g>
<!-- Node43 -->
<g id="node31" class="node">
<title>Node43</title>
<g id="a_node31"><a xlink:href="../../df/d7a/vpiece_8cpp.html" target="_top" xlink:title=" ">
<polygon fill="white" stroke="black" points="1746.5,-190.5 1746.5,-220.5 1853.5,-220.5 1853.5,-190.5 1746.5,-190.5"/>
<text text-anchor="start" x="1754.5" y="-208.5" font-family="Helvetica,sans-Serif" font-size="10.00">src/libs/vpatterndb</text>
<text text-anchor="middle" x="1800" y="-197.5" font-family="Helvetica,sans-Serif" font-size="10.00">/vpiece.cpp</text>
</a>
</g>
</g>
<!-- Node3&#45;&gt;Node43 -->
<g id="edge35" class="edge">
<title>Node3&#45;&gt;Node43</title>
<path fill="none" stroke="midnightblue" d="M2359.24,-263.04C2237.8,-258.53 2034.78,-247.47 1862,-221 1859.27,-220.58 1856.48,-220.11 1853.67,-219.59"/>
<polygon fill="midnightblue" stroke="midnightblue" points="2359.17,-266.54 2369.29,-263.4 2359.42,-259.54 2359.17,-266.54"/>
</g>
<!-- Node44 -->
<g id="node32" class="node">
<title>Node44</title>
<g id="a_node32"><a xlink:href="../../df/dba/vpiecenode__p_8h.html" target="_top" xlink:title=" ">
<polygon fill="white" stroke="black" points="4813.5,-190.5 4813.5,-220.5 4920.5,-220.5 4920.5,-190.5 4813.5,-190.5"/>
<text text-anchor="start" x="4821.5" y="-208.5" font-family="Helvetica,sans-Serif" font-size="10.00">src/libs/vpatterndb</text>
<text text-anchor="middle" x="4867" y="-197.5" font-family="Helvetica,sans-Serif" font-size="10.00">/vpiecenode_p.h</text>
</a>
</g>
</g>
<!-- Node3&#45;&gt;Node44 -->
<g id="edge36" class="edge">
<title>Node3&#45;&gt;Node44</title>
<path fill="none" stroke="midnightblue" d="M2574.72,-257.16C2575.82,-257.11 2576.91,-257.05 2578,-257 3072.37,-232.99 4313.78,-281.7 4805,-221 4807.74,-220.66 4810.54,-220.25 4813.36,-219.78"/>
<polygon fill="midnightblue" stroke="midnightblue" points="2574.52,-253.67 2564.73,-257.72 2574.91,-260.66 2574.52,-253.67"/>
</g>
<!-- Node46 -->
<g id="node34" class="node">
<title>Node46</title>
<g id="a_node34"><a xlink:href="../../d6/d46/vcontainer_8cpp.html" target="_top" xlink:title=" ">
<polygon fill="white" stroke="black" points="1996.5,-190.5 1996.5,-220.5 2103.5,-220.5 2103.5,-190.5 1996.5,-190.5"/>
<text text-anchor="start" x="2004.5" y="-208.5" font-family="Helvetica,sans-Serif" font-size="10.00">src/libs/vpatterndb</text>
<text text-anchor="middle" x="2050" y="-197.5" font-family="Helvetica,sans-Serif" font-size="10.00">/vcontainer.cpp</text>
</a>
</g>
</g>
<!-- Node3&#45;&gt;Node46 -->
<g id="edge38" class="edge">
<title>Node3&#45;&gt;Node46</title>
<path fill="none" stroke="midnightblue" d="M2370.47,-256.36C2299.08,-248.59 2199.62,-236.43 2113,-221 2109.91,-220.45 2106.74,-219.84 2103.54,-219.21"/>
<polygon fill="midnightblue" stroke="midnightblue" points="2370.48,-259.88 2380.8,-257.47 2371.23,-252.92 2370.48,-259.88"/>
</g>
<!-- Node47 -->
<g id="node35" class="node">
<title>Node47</title>
<g id="a_node35"><a xlink:href="../../de/d3e/vtranslatevars_8cpp.html" target="_top" xlink:title=" ">
<polygon fill="white" stroke="black" points="2122,-190.5 2122,-220.5 2232,-220.5 2232,-190.5 2122,-190.5"/>
<text text-anchor="start" x="2130" y="-208.5" font-family="Helvetica,sans-Serif" font-size="10.00">src/libs/vpatterndb</text>
<text text-anchor="middle" x="2177" y="-197.5" font-family="Helvetica,sans-Serif" font-size="10.00">/vtranslatevars.cpp</text>
</a>
</g>
</g>
<!-- Node3&#45;&gt;Node47 -->
<g id="edge39" class="edge">
<title>Node3&#45;&gt;Node47</title>
<path fill="none" stroke="midnightblue" d="M2412.31,-255.53C2366.49,-246.65 2299.39,-233.42 2241,-221 2238.1,-220.38 2235.13,-219.74 2232.14,-219.09"/>
<polygon fill="midnightblue" stroke="midnightblue" points="2411.85,-259 2422.33,-257.46 2413.18,-252.13 2411.85,-259"/>
</g>
<!-- Node21 -->
<g id="node36" class="node">
<title>Node21</title>
<g id="a_node36"><a xlink:href="../../df/d40/export__format__combobox_8cpp.html" target="_top" xlink:title=" ">
<polygon fill="white" stroke="black" points="2250.5,-190.5 2250.5,-220.5 2383.5,-220.5 2383.5,-190.5 2250.5,-190.5"/>
<text text-anchor="start" x="2258.5" y="-208.5" font-family="Helvetica,sans-Serif" font-size="10.00">src/libs/vwidgets/export</text>
<text text-anchor="middle" x="2317" y="-197.5" font-family="Helvetica,sans-Serif" font-size="10.00">_format_combobox.cpp</text>
</a>
</g>
</g>
<!-- Node3&#45;&gt;Node21 -->
<g id="edge40" class="edge">
<title>Node3&#45;&gt;Node21</title>
<path fill="none" stroke="midnightblue" d="M2436.04,-253.72C2411.69,-244.06 2377.76,-230.6 2352.35,-220.52"/>
<polygon fill="midnightblue" stroke="midnightblue" points="2434.92,-257.04 2445.51,-257.48 2437.5,-250.53 2434.92,-257.04"/>
</g>
<!-- Node23 -->
<g id="node37" class="node">
<title>Node23</title>
<g id="a_node37"><a xlink:href="../../d2/d28/page__format__combobox_8cpp.html" target="_top" xlink:title=" ">
<polygon fill="white" stroke="black" points="2401.5,-190.5 2401.5,-220.5 2532.5,-220.5 2532.5,-190.5 2401.5,-190.5"/>
<text text-anchor="start" x="2409.5" y="-208.5" font-family="Helvetica,sans-Serif" font-size="10.00">src/libs/vwidgets/page</text>
<text text-anchor="middle" x="2467" y="-197.5" font-family="Helvetica,sans-Serif" font-size="10.00">_format_combobox.cpp</text>
</a>
</g>
</g>
<!-- Node3&#45;&gt;Node23 -->
<g id="edge41" class="edge">
<title>Node3&#45;&gt;Node23</title>
<path fill="none" stroke="midnightblue" d="M2467,-247.23C2467,-238.59 2467,-228.5 2467,-220.52"/>
<polygon fill="midnightblue" stroke="midnightblue" points="2463.5,-247.48 2467,-257.48 2470.5,-247.48 2463.5,-247.48"/>
</g>
<!-- Node48 -->
<g id="node38" class="node">
<title>Node48</title>
<g id="a_node38"><a xlink:href="../../d7/d1b/pen__toolbar_8cpp.html" target="_top" xlink:title=" ">
<polygon fill="white" stroke="black" points="2550.5,-190.5 2550.5,-220.5 2669.5,-220.5 2669.5,-190.5 2550.5,-190.5"/>
<text text-anchor="start" x="2558.5" y="-208.5" font-family="Helvetica,sans-Serif" font-size="10.00">src/libs/vwidgets/pen</text>
<text text-anchor="middle" x="2610" y="-197.5" font-family="Helvetica,sans-Serif" font-size="10.00">_toolbar.cpp</text>
</a>
</g>
</g>
<!-- Node3&#45;&gt;Node48 -->
<g id="edge42" class="edge">
<title>Node3&#45;&gt;Node48</title>
<path fill="none" stroke="midnightblue" d="M2496.83,-253.59C2520.01,-243.94 2552.18,-230.56 2576.3,-220.52"/>
<polygon fill="midnightblue" stroke="midnightblue" points="2495.38,-250.4 2487.49,-257.48 2498.07,-256.86 2495.38,-250.4"/>
</g>
<!-- Node49 -->
<g id="node39" class="node">
<title>Node49</title>
<g id="a_node39"><a xlink:href="../../d3/d4f/mouse__coordinates_8cpp.html" target="_top" xlink:title=" ">
<polygon fill="white" stroke="black" points="2688,-190.5 2688,-220.5 2822,-220.5 2822,-190.5 2688,-190.5"/>
<text text-anchor="start" x="2696" y="-208.5" font-family="Helvetica,sans-Serif" font-size="10.00">src/libs/vwidgets/mouse</text>
<text text-anchor="middle" x="2755" y="-197.5" font-family="Helvetica,sans-Serif" font-size="10.00">_coordinates.cpp</text>
</a>
</g>
</g>
<!-- Node3&#45;&gt;Node49 -->
<g id="edge43" class="edge">
<title>Node3&#45;&gt;Node49</title>
<path fill="none" stroke="midnightblue" d="M2518.29,-255.4C2565.61,-245.63 2636.18,-231.05 2687.96,-220.35"/>
<polygon fill="midnightblue" stroke="midnightblue" points="2517.35,-252.02 2508.26,-257.48 2518.76,-258.88 2517.35,-252.02"/>
</g>
<!-- Node50 -->
<g id="node40" class="node">
<title>Node50</title>
<g id="a_node40"><a xlink:href="../../d8/d76/scene__rect_8cpp.html" target="_top" xlink:title=" ">
<polygon fill="white" stroke="black" points="2840,-190.5 2840,-220.5 2970,-220.5 2970,-190.5 2840,-190.5"/>
<text text-anchor="start" x="2848" y="-208.5" font-family="Helvetica,sans-Serif" font-size="10.00">src/libs/vwidgets/scene</text>
<text text-anchor="middle" x="2905" y="-197.5" font-family="Helvetica,sans-Serif" font-size="10.00">_rect.cpp</text>
</a>
</g>
</g>
<!-- Node3&#45;&gt;Node50 -->
<g id="edge44" class="edge">
<title>Node3&#45;&gt;Node50</title>
<path fill="none" stroke="midnightblue" d="M2559.82,-256.35C2633.53,-248.25 2739.12,-235.66 2831,-221 2833.84,-220.55 2836.75,-220.06 2839.67,-219.56"/>
<polygon fill="midnightblue" stroke="midnightblue" points="2559.2,-252.9 2549.64,-257.46 2559.96,-259.86 2559.2,-252.9"/>
</g>
<!-- Node51 -->
<g id="node41" class="node">
<title>Node51</title>
<g id="a_node41"><a xlink:href="../../dd/df6/vabstractmainwindow_8cpp.html" target="_top" xlink:title=" ">
<polygon fill="white" stroke="black" points="2988.5,-196 2988.5,-215 3217.5,-215 3217.5,-196 2988.5,-196"/>
<text text-anchor="middle" x="3103" y="-203" font-family="Helvetica,sans-Serif" font-size="10.00">src/libs/vwidgets/vabstractmainwindow.cpp</text>
</a>
</g>
</g>
<!-- Node3&#45;&gt;Node51 -->
<g id="edge45" class="edge">
<title>Node3&#45;&gt;Node51</title>
<path fill="none" stroke="midnightblue" d="M2574.85,-256.89C2701.32,-246.14 2903.32,-228.75 2979,-221 2996.57,-219.2 3015.52,-217.08 3033.2,-215.02"/>
<polygon fill="midnightblue" stroke="midnightblue" points="2574.41,-253.41 2564.74,-257.75 2575,-260.39 2574.41,-253.41"/>
</g>
<!-- Node52 -->
<g id="node42" class="node">
<title>Node52</title>
<g id="a_node42"><a xlink:href="../../d1/d90/vgrainlineitem_8cpp.html" target="_top" xlink:title=" ">
<polygon fill="white" stroke="black" points="3235.5,-196 3235.5,-215 3428.5,-215 3428.5,-196 3235.5,-196"/>
<text text-anchor="middle" x="3332" y="-203" font-family="Helvetica,sans-Serif" font-size="10.00">src/libs/vwidgets/vgrainlineitem.cpp</text>
</a>
</g>
</g>
<!-- Node3&#45;&gt;Node52 -->
<g id="edge46" class="edge">
<title>Node3&#45;&gt;Node52</title>
<path fill="none" stroke="midnightblue" d="M2574.73,-257.23C2575.82,-257.15 2576.91,-257.07 2578,-257 2865.77,-237.34 2938.88,-248.57 3226,-221 3242.27,-219.44 3259.88,-217.24 3275.99,-215.02"/>
<polygon fill="midnightblue" stroke="midnightblue" points="2574.47,-253.73 2564.75,-257.94 2574.97,-260.72 2574.47,-253.73"/>
</g>
<!-- Node53 -->
<g id="node43" class="node">
<title>Node53</title>
<g id="a_node43"><a xlink:href="../../de/d45/vcontrolpointspline_8cpp.html" target="_top" xlink:title=" ">
<polygon fill="white" stroke="black" points="3446.5,-196 3446.5,-215 3661.5,-215 3661.5,-196 3446.5,-196"/>
<text text-anchor="middle" x="3554" y="-203" font-family="Helvetica,sans-Serif" font-size="10.00">src/libs/vwidgets/vcontrolpointspline.cpp</text>
</a>
</g>
</g>
<!-- Node3&#45;&gt;Node53 -->
<g id="edge47" class="edge">
<title>Node3&#45;&gt;Node53</title>
<path fill="none" stroke="midnightblue" d="M2574.73,-257.2C2575.82,-257.13 2576.91,-257.07 2578,-257 2959.84,-233.54 3056.76,-252.75 3438,-221 3456.1,-219.49 3475.72,-217.27 3493.59,-215.01"/>
<polygon fill="midnightblue" stroke="midnightblue" points="2574.49,-253.71 2564.74,-257.86 2574.95,-260.7 2574.49,-253.71"/>
</g>
<!-- Node54 -->
<g id="node44" class="node">
<title>Node54</title>
<g id="a_node44"><a xlink:href="../../de/dec/vgraphicssimpletextitem_8cpp.html" target="_top" xlink:title=" ">
<polygon fill="white" stroke="black" points="3680,-196 3680,-215 3924,-215 3924,-196 3680,-196"/>
<text text-anchor="middle" x="3802" y="-203" font-family="Helvetica,sans-Serif" font-size="10.00">src/libs/vwidgets/vgraphicssimpletextitem.cpp</text>
</a>
</g>
</g>
<!-- Node3&#45;&gt;Node54 -->
<g id="edge48" class="edge">
<title>Node3&#45;&gt;Node54</title>
<path fill="none" stroke="midnightblue" d="M2574.73,-257.19C2575.82,-257.13 2576.91,-257.06 2578,-257 3063.25,-229.35 3186.2,-255.76 3671,-221 3691.54,-219.53 3713.83,-217.3 3734.1,-215.03"/>
<polygon fill="midnightblue" stroke="midnightblue" points="2574.5,-253.7 2564.74,-257.81 2574.94,-260.68 2574.5,-253.7"/>
</g>
<!-- Node55 -->
<g id="node45" class="node">
<title>Node55</title>
<g id="a_node45"><a xlink:href="../../d1/d88/vmaingraphicsscene_8cpp.html" target="_top" xlink:title=" ">
<polygon fill="white" stroke="black" points="3942,-196 3942,-215 4164,-215 4164,-196 3942,-196"/>
<text text-anchor="middle" x="4053" y="-203" font-family="Helvetica,sans-Serif" font-size="10.00">src/libs/vwidgets/vmaingraphicsscene.cpp</text>
</a>
</g>
</g>
<!-- Node3&#45;&gt;Node55 -->
<g id="edge49" class="edge">
<title>Node3&#45;&gt;Node55</title>
<path fill="none" stroke="midnightblue" d="M2574.73,-257.18C2575.82,-257.12 2576.91,-257.06 2578,-257 3179.57,-224.64 3332.19,-265.18 3933,-221 3952.15,-219.59 3972.94,-217.34 3991.75,-215.02"/>
<polygon fill="midnightblue" stroke="midnightblue" points="2574.51,-253.69 2564.74,-257.78 2574.93,-260.67 2574.51,-253.69"/>
</g>
<!-- Node56 -->
<g id="node46" class="node">
<title>Node56</title>
<g id="a_node46"><a xlink:href="../../d0/d5d/vscenepoint_8cpp.html" target="_top" xlink:title=" ">
<polygon fill="white" stroke="black" points="4182.5,-196 4182.5,-215 4363.5,-215 4363.5,-196 4182.5,-196"/>
<text text-anchor="middle" x="4273" y="-203" font-family="Helvetica,sans-Serif" font-size="10.00">src/libs/vwidgets/vscenepoint.cpp</text>
</a>
</g>
</g>
<!-- Node3&#45;&gt;Node56 -->
<g id="edge50" class="edge">
<title>Node3&#45;&gt;Node56</title>
<path fill="none" stroke="midnightblue" d="M2574.72,-257.17C2575.82,-257.11 2576.91,-257.06 2578,-257 3286.12,-220.33 3466.39,-279.98 4173,-221 4189.17,-219.65 4206.71,-217.38 4222.52,-215.04"/>
<polygon fill="midnightblue" stroke="midnightblue" points="2574.51,-253.68 2564.74,-257.76 2574.92,-260.67 2574.51,-253.68"/>
</g>
<!-- Node3&#45;&gt;Node57 -->
<g id="edge52" class="edge">
<title>Node3&#45;&gt;Node57</title>
<path fill="none" stroke="midnightblue" d="M2574.72,-257.16C2575.82,-257.1 2576.91,-257.05 2578,-257 3805.19,-199.32 4116.3,-304.68 5342,-221 5361.09,-219.7 5381.85,-217.41 5400.5,-215.03"/>
<polygon fill="midnightblue" stroke="midnightblue" points="2574.53,-253.66 2564.73,-257.71 2574.91,-260.65 2574.53,-253.66"/>
</g>
<!-- Node58 -->
<g id="node48" class="node">
<title>Node58</title>
<g id="a_node48"><a xlink:href="../../df/d38/vsimplepoint_8cpp.html" target="_top" xlink:title=" ">
<polygon fill="white" stroke="black" points="4381.5,-196 4381.5,-215 4566.5,-215 4566.5,-196 4381.5,-196"/>
<text text-anchor="middle" x="4474" y="-203" font-family="Helvetica,sans-Serif" font-size="10.00">src/libs/vwidgets/vsimplepoint.cpp</text>
</a>
</g>
</g>
<!-- Node3&#45;&gt;Node58 -->
<g id="edge53" class="edge">
<title>Node3&#45;&gt;Node58</title>
<path fill="none" stroke="midnightblue" d="M2574.72,-257.17C2575.82,-257.11 2576.91,-257.05 2578,-257 3374.92,-216.74 3577.7,-285.82 4373,-221 4389.42,-219.66 4407.24,-217.38 4423.27,-215.02"/>
<polygon fill="midnightblue" stroke="midnightblue" points="2574.52,-253.68 2564.73,-257.74 2574.92,-260.66 2574.52,-253.68"/>
</g>
<!-- Node59 -->
<g id="node49" class="node">
<title>Node59</title>
<g id="a_node49"><a xlink:href="../../df/df5/vtextgraphicsitem_8cpp.html" target="_top" xlink:title=" ">
<polygon fill="white" stroke="black" points="4584.5,-196 4584.5,-215 4795.5,-215 4795.5,-196 4584.5,-196"/>
<text text-anchor="middle" x="4690" y="-203" font-family="Helvetica,sans-Serif" font-size="10.00">src/libs/vwidgets/vtextgraphicsitem.cpp</text>
</a>
</g>
</g>
<!-- Node3&#45;&gt;Node59 -->
<g id="edge54" class="edge">
<title>Node3&#45;&gt;Node59</title>
<path fill="none" stroke="midnightblue" d="M2574.72,-257.17C2575.82,-257.11 2576.91,-257.05 2578,-257 3465.06,-213.09 3690.17,-285.13 4576,-221 4594.51,-219.66 4614.61,-217.38 4632.71,-215.02"/>
<polygon fill="midnightblue" stroke="midnightblue" points="2574.52,-253.67 2564.73,-257.73 2574.92,-260.66 2574.52,-253.67"/>
</g>
<!-- Node6 -->
<g id="node6" class="node">
<title>Node6</title>
<g id="a_node6"><a xlink:href="../../d0/d89/vabstractpattern_8h.html" target="_top" xlink:title=" ">
<polygon fill="white" stroke="red" points="635.5,-129 635.5,-148 816.5,-148 816.5,-129 635.5,-129"/>
<text text-anchor="middle" x="726" y="-136" font-family="Helvetica,sans-Serif" font-size="10.00">src/libs/ifc/xml/vabstractpattern.h</text>
</a>
</g>
</g>
<!-- Node5&#45;&gt;Node6 -->
<g id="edge5" class="edge">
<title>Node5&#45;&gt;Node6</title>
<path fill="none" stroke="midnightblue" d="M714.62,-180.6C717.75,-169.28 721.3,-156.46 723.59,-148.19"/>
<polygon fill="midnightblue" stroke="midnightblue" points="711.2,-179.82 711.91,-190.4 717.95,-181.69 711.2,-179.82"/>
</g>
<!-- Node25 -->
<g id="node13" class="node">
<title>Node25</title>
<g id="a_node13"><a xlink:href="../../df/d1e/image__item_8cpp.html" target="_top" xlink:title=" ">
<polygon fill="white" stroke="black" points="835,-123.5 835,-153.5 947,-153.5 947,-123.5 835,-123.5"/>
<text text-anchor="start" x="843" y="-141.5" font-family="Helvetica,sans-Serif" font-size="10.00">src/libs/tools/image</text>
<text text-anchor="middle" x="891" y="-130.5" font-family="Helvetica,sans-Serif" font-size="10.00">_item.cpp</text>
</a>
</g>
</g>
<!-- Node5&#45;&gt;Node25 -->
<g id="edge13" class="edge">
<title>Node5&#45;&gt;Node25</title>
<path fill="none" stroke="midnightblue" d="M757.4,-186.96C786.87,-176.48 823.81,-163.37 851.37,-153.58"/>
<polygon fill="midnightblue" stroke="midnightblue" points="755.96,-183.75 747.71,-190.4 758.3,-190.35 755.96,-183.75"/>
</g>
<!-- Node6&#45;&gt;Node2 -->
<g id="edge7" class="edge">
<title>Node6&#45;&gt;Node2</title>
<path fill="none" stroke="midnightblue" d="M660.02,-127.6C648.05,-125.96 635.66,-124.35 624,-123 436.9,-101.4 214.19,-84.01 112.13,-76.51"/>
<polygon fill="midnightblue" stroke="midnightblue" points="659.56,-131.07 669.95,-128.99 660.53,-124.14 659.56,-131.07"/>
</g>
<!-- Node7 -->
<g id="node7" class="node">
<title>Node7</title>
<g id="a_node7"><a xlink:href="../../de/d7d/vabstractpattern_8cpp.html" target="_top" xlink:title=" ">
<polygon fill="white" stroke="black" points="540,-62 540,-81 732,-81 732,-62 540,-62"/>
<text text-anchor="middle" x="636" y="-69" font-family="Helvetica,sans-Serif" font-size="10.00">src/libs/ifc/xml/vabstractpattern.cpp</text>
</a>
</g>
</g>
<!-- Node6&#45;&gt;Node7 -->
<g id="edge6" class="edge">
<title>Node6&#45;&gt;Node7</title>
<path fill="none" stroke="midnightblue" d="M705.32,-122.57C687.56,-109.74 662.56,-91.69 647.95,-81.13"/>
<polygon fill="midnightblue" stroke="midnightblue" points="703.71,-125.72 713.86,-128.73 707.8,-120.04 703.71,-125.72"/>
</g>
<!-- Node8 -->
<g id="node8" class="node">
<title>Node8</title>
<g id="a_node8"><a xlink:href="../../d6/de0/vlayoutpiece_8h.html" target="_top" xlink:title=" ">
<polygon fill="white" stroke="red" points="1267,-62 1267,-81 1433,-81 1433,-62 1267,-62"/>
<text text-anchor="middle" x="1350" y="-69" font-family="Helvetica,sans-Serif" font-size="10.00">src/libs/vlayout/vlayoutpiece.h</text>
</a>
</g>
</g>
<!-- Node6&#45;&gt;Node8 -->
<g id="edge8" class="edge">
<title>Node6&#45;&gt;Node8</title>
<path fill="none" stroke="midnightblue" d="M791.46,-127.55C802.96,-125.93 814.82,-124.35 826,-123 981.39,-104.26 1163.37,-87.99 1266.83,-79.28"/>
<polygon fill="midnightblue" stroke="midnightblue" points="790.88,-124.1 781.48,-128.97 791.87,-131.03 790.88,-124.1"/>
</g>
<!-- Node6&#45;&gt;Node18 -->
<g id="edge10" class="edge">
<title>Node6&#45;&gt;Node18</title>
<path fill="none" stroke="midnightblue" d="M785.66,-127.55C798.9,-125.7 812.9,-124.03 826,-123 1429.74,-75.45 2945.45,-95.18 3551,-87 3906.12,-82.2 4328.74,-76.32 4510.97,-73.77"/>
<polygon fill="midnightblue" stroke="midnightblue" points="785.1,-124.09 775.7,-128.98 786.1,-131.02 785.1,-124.09"/>
</g>
<!-- Node19 -->
<g id="node11" class="node">
<title>Node19</title>
<g id="a_node11"><a xlink:href="../../d7/df4/group__tablewidgetitem_8cpp.html" target="_top" xlink:title=" ">
<polygon fill="white" stroke="black" points="750.5,-56.5 750.5,-86.5 879.5,-86.5 879.5,-56.5 750.5,-56.5"/>
<text text-anchor="start" x="758.5" y="-74.5" font-family="Helvetica,sans-Serif" font-size="10.00">src/libs/vwidgets/group</text>
<text text-anchor="middle" x="815" y="-63.5" font-family="Helvetica,sans-Serif" font-size="10.00">_tablewidgetitem.cpp</text>
</a>
</g>
</g>
<!-- Node6&#45;&gt;Node19 -->
<g id="edge11" class="edge">
<title>Node6&#45;&gt;Node19</title>
<path fill="none" stroke="midnightblue" d="M746.48,-122.54C761.29,-111.73 781.18,-97.2 795.71,-86.59"/>
<polygon fill="midnightblue" stroke="midnightblue" points="744.01,-120.01 738,-128.73 748.14,-125.66 744.01,-120.01"/>
</g>
<!-- Node6&#45;&gt;Node24 -->
<g id="edge12" class="edge">
<title>Node6&#45;&gt;Node24</title>
<path fill="none" stroke="midnightblue" d="M786.47,-127.49C799.48,-125.69 813.17,-124.05 826,-123 1331.96,-81.61 2946.03,-74.01 3353.75,-72.74"/>
<polygon fill="midnightblue" stroke="midnightblue" points="785.62,-124.08 776.22,-128.97 786.62,-131.01 785.62,-124.08"/>
</g>
<!-- Node8&#45;&gt;Node17 -->
<g id="edge9" class="edge">
<title>Node8&#45;&gt;Node17</title>
<path fill="none" stroke="midnightblue" d="M1396.89,-59.69C1446.95,-48.14 1525.25,-30.08 1571.1,-19.51"/>
<polygon fill="midnightblue" stroke="midnightblue" points="1395.92,-56.32 1386.97,-61.98 1397.5,-63.14 1395.92,-56.32"/>
</g>
<!-- Node28 -->
<g id="node16" class="node">
<title>Node28</title>
<g id="a_node16"><a xlink:href="../../d4/da1/vabstractarc_8cpp.html" target="_top" xlink:title=" ">
<polygon fill="white" stroke="black" points="5225.5,-123.5 5225.5,-153.5 5332.5,-153.5 5332.5,-123.5 5225.5,-123.5"/>
<text text-anchor="start" x="5233.5" y="-141.5" font-family="Helvetica,sans-Serif" font-size="10.00">src/libs/vgeometry</text>
<text text-anchor="middle" x="5279" y="-130.5" font-family="Helvetica,sans-Serif" font-size="10.00">/vabstractarc.cpp</text>
</a>
</g>
</g>
<!-- Node27&#45;&gt;Node28 -->
<g id="edge17" class="edge">
<title>Node27&#45;&gt;Node28</title>
<path fill="none" stroke="midnightblue" d="M5279,-180.11C5279,-171.15 5279,-161.32 5279,-153.58"/>
<polygon fill="midnightblue" stroke="midnightblue" points="5275.5,-180.4 5279,-190.4 5282.5,-180.4 5275.5,-180.4"/>
</g>
<!-- Node30 -->
<g id="node18" class="node">
<title>Node30</title>
<g id="a_node18"><a xlink:href="../../d5/ded/varc_8cpp.html" target="_top" xlink:title=" ">
<polygon fill="white" stroke="black" points="237.5,-123.5 237.5,-153.5 344.5,-153.5 344.5,-123.5 237.5,-123.5"/>
<text text-anchor="start" x="245.5" y="-141.5" font-family="Helvetica,sans-Serif" font-size="10.00">src/libs/vgeometry</text>
<text text-anchor="middle" x="291" y="-130.5" font-family="Helvetica,sans-Serif" font-size="10.00">/varc.cpp</text>
</a>
</g>
</g>
<!-- Node29&#45;&gt;Node30 -->
<g id="edge19" class="edge">
<title>Node29&#45;&gt;Node30</title>
<path fill="none" stroke="midnightblue" d="M291,-180.11C291,-171.15 291,-161.32 291,-153.58"/>
<polygon fill="midnightblue" stroke="midnightblue" points="287.5,-180.4 291,-190.4 294.5,-180.4 287.5,-180.4"/>
</g>
<!-- Node32 -->
<g id="node20" class="node">
<title>Node32</title>
<g id="a_node20"><a xlink:href="../../d2/d26/vcubicbezier_8cpp.html" target="_top" xlink:title=" ">
<polygon fill="white" stroke="black" points="362.5,-123.5 362.5,-153.5 469.5,-153.5 469.5,-123.5 362.5,-123.5"/>
<text text-anchor="start" x="370.5" y="-141.5" font-family="Helvetica,sans-Serif" font-size="10.00">src/libs/vgeometry</text>
<text text-anchor="middle" x="416" y="-130.5" font-family="Helvetica,sans-Serif" font-size="10.00">/vcubicbezier.cpp</text>
</a>
</g>
</g>
<!-- Node31&#45;&gt;Node32 -->
<g id="edge21" class="edge">
<title>Node31&#45;&gt;Node32</title>
<path fill="none" stroke="midnightblue" d="M416,-180.11C416,-171.15 416,-161.32 416,-153.58"/>
<polygon fill="midnightblue" stroke="midnightblue" points="412.5,-180.4 416,-190.4 419.5,-180.4 412.5,-180.4"/>
</g>
<!-- Node33&#45;&gt;Node34 -->
<g id="edge23" class="edge">
<title>Node33&#45;&gt;Node34</title>
<path fill="none" stroke="midnightblue" d="M573.41,-180.7C570.89,-171.59 568.09,-161.49 565.9,-153.58"/>
<polygon fill="midnightblue" stroke="midnightblue" points="570.05,-181.69 576.09,-190.4 576.8,-179.82 570.05,-181.69"/>
</g>
<!-- Node36 -->
<g id="node24" class="node">
<title>Node36</title>
<g id="a_node24"><a xlink:href="../../d5/dd2/vspline_8cpp.html" target="_top" xlink:title=" ">
<polygon fill="white" stroke="black" points="1871.5,-123.5 1871.5,-153.5 1978.5,-153.5 1978.5,-123.5 1871.5,-123.5"/>
<text text-anchor="start" x="1879.5" y="-141.5" font-family="Helvetica,sans-Serif" font-size="10.00">src/libs/vgeometry</text>
<text text-anchor="middle" x="1925" y="-130.5" font-family="Helvetica,sans-Serif" font-size="10.00">/vspline.cpp</text>
</a>
</g>
</g>
<!-- Node35&#45;&gt;Node36 -->
<g id="edge26" class="edge">
<title>Node35&#45;&gt;Node36</title>
<path fill="none" stroke="midnightblue" d="M1925,-180.11C1925,-171.15 1925,-161.32 1925,-153.58"/>
<polygon fill="midnightblue" stroke="midnightblue" points="1921.5,-180.4 1925,-190.4 1928.5,-180.4 1921.5,-180.4"/>
</g>
<!-- Node45 -->
<g id="node33" class="node">
<title>Node45</title>
<g id="a_node33"><a xlink:href="../../d8/dba/vpiecenode_8cpp.html" target="_top" xlink:title=" ">
<polygon fill="white" stroke="black" points="4813.5,-123.5 4813.5,-153.5 4920.5,-153.5 4920.5,-123.5 4813.5,-123.5"/>
<text text-anchor="start" x="4821.5" y="-141.5" font-family="Helvetica,sans-Serif" font-size="10.00">src/libs/vpatterndb</text>
<text text-anchor="middle" x="4867" y="-130.5" font-family="Helvetica,sans-Serif" font-size="10.00">/vpiecenode.cpp</text>
</a>
</g>
</g>
<!-- Node44&#45;&gt;Node45 -->
<g id="edge37" class="edge">
<title>Node44&#45;&gt;Node45</title>
<path fill="none" stroke="midnightblue" d="M4867,-180.11C4867,-171.15 4867,-161.32 4867,-153.58"/>
<polygon fill="midnightblue" stroke="midnightblue" points="4863.5,-180.4 4867,-190.4 4870.5,-180.4 4863.5,-180.4"/>
</g>
</g>
</svg>
