<?xml version="1.0" encoding="UTF-8" standalone="no"?>
<!DOCTYPE svg PUBLIC "-//W3C//DTD SVG 1.1//EN"
 "http://www.w3.org/Graphics/SVG/1.1/DTD/svg11.dtd">
<!-- Generated by graphviz version 2.43.0 (0)
 -->
<!-- Title: src/libs/vmisc/vsettings.h Pages: 1 -->
<!--zoomable 218 -->
<svg id="main" version="1.1" xmlns="http://www.w3.org/2000/svg" xmlns:xlink="http://www.w3.org/1999/xlink" xml:space="preserve" onload="init(evt)">
<style type="text/css"><![CDATA[
.edge:hover path { stroke: red; }
.edge:hover polygon { stroke: red; fill: red; }
]]></style>
<script type="text/javascript"><![CDATA[
var edges = document.getElementsByTagName('g');
if (edges && edges.length) {
  for (var i=0;i<edges.length;i++) {
    if (edges[i].id.substr(0,4)=='edge') {
      edges[i].setAttribute('class','edge');
    }
  }
}
]]></script>
        <defs>
                <circle id="rim" cx="0" cy="0" r="7"/>
                <circle id="rim2" cx="0" cy="0" r="3.5"/>
                <g id="zoomPlus">
                        <use xlink:href="#rim" fill="#404040">
                                <set attributeName="fill" to="#808080" begin="zoomplus.mouseover" end="zoomplus.mouseout"/>
                        </use>
                        <path d="M-4,0h8M0,-4v8" fill="none" stroke="white" stroke-width="1.5" pointer-events="none"/>
                </g>
                <g id="zoomMin">
                        <use xlink:href="#rim" fill="#404040">
                                <set attributeName="fill" to="#808080" begin="zoomminus.mouseover" end="zoomminus.mouseout"/>
                        </use>
                        <path d="M-4,0h8" fill="none" stroke="white" stroke-width="1.5" pointer-events="none"/>
                </g>
                <g id="dirArrow">
                        <path fill="none" stroke="white" stroke-width="1.5" d="M0,-3.0v7 M-2.5,-0.5L0,-3.0L2.5,-0.5"/>
                </g>
               <g id="resetDef">
                       <use xlink:href="#rim2" fill="#404040">
                               <set attributeName="fill" to="#808080" begin="reset.mouseover" end="reset.mouseout"/>
                       </use>
               </g>
        </defs>

<script type="text/javascript">
var viewWidth = 6109;
var viewHeight = 218;
var sectionId = 'dynsection-1';
</script>
<script xlink:href="../../svgpan.js"/>
<svg id="graph" class="graph">
<g id="viewport">
<title>src/libs/vmisc/vsettings.h</title>
<polygon fill="white" stroke="transparent" points="-4,4 -4,-214 6105,-214 6105,4 -4,4"/>
<!-- Node1 -->
<g id="node1" class="node">
<title>Node1</title>
<g id="a_node1"><a xlink:title=" ">
<polygon fill="#bfbfbf" stroke="black" points="2655,-190.5 2655,-209.5 2795,-209.5 2795,-190.5 2655,-190.5"/>
<text text-anchor="middle" x="2725" y="-197.5" font-family="Helvetica,sans-Serif" font-size="10.00">src/libs/vmisc/vsettings.h</text>
</a>
</g>
</g>
<!-- Node2 -->
<g id="node2" class="node">
<title>Node2</title>
<g id="a_node2"><a xlink:href="../../d2/d47/image__dialog_8cpp.html" target="_top" xlink:title=" ">
<polygon fill="white" stroke="black" points="0,-67.5 0,-97.5 112,-97.5 112,-67.5 0,-67.5"/>
<text text-anchor="start" x="8" y="-85.5" font-family="Helvetica,sans-Serif" font-size="10.00">src/libs/tools/image</text>
<text text-anchor="middle" x="56" y="-74.5" font-family="Helvetica,sans-Serif" font-size="10.00">_dialog.cpp</text>
</a>
</g>
</g>
<!-- Node1&#45;&gt;Node2 -->
<g id="edge1" class="edge">
<title>Node1&#45;&gt;Node2</title>
<path fill="none" stroke="midnightblue" d="M2644.81,-197.84C2263.01,-192.04 627.01,-163.7 121,-98 118.13,-97.63 115.21,-97.19 112.26,-96.7"/>
<polygon fill="midnightblue" stroke="midnightblue" points="2644.89,-201.34 2654.94,-198 2644.99,-194.35 2644.89,-201.34"/>
</g>
<!-- Node3 -->
<g id="node3" class="node">
<title>Node3</title>
<g id="a_node3"><a xlink:href="../../d5/d74/vabstractapplication_8h.html" target="_top" xlink:title=" ">
<polygon fill="white" stroke="black" points="2565.5,-134.5 2565.5,-153.5 2760.5,-153.5 2760.5,-134.5 2565.5,-134.5"/>
<text text-anchor="middle" x="2663" y="-141.5" font-family="Helvetica,sans-Serif" font-size="10.00">src/libs/vmisc/vabstractapplication.h</text>
</a>
</g>
</g>
<!-- Node1&#45;&gt;Node3 -->
<g id="edge2" class="edge">
<title>Node1&#45;&gt;Node3</title>
<path fill="none" stroke="midnightblue" d="M2707.25,-183.54C2696.19,-173.91 2682.37,-161.87 2673.14,-153.83"/>
<polygon fill="midnightblue" stroke="midnightblue" points="2705.2,-186.4 2715.04,-190.32 2709.8,-181.12 2705.2,-186.4"/>
</g>
<!-- Node43 -->
<g id="node43" class="node">
<title>Node43</title>
<g id="a_node43"><a xlink:href="../../d2/d31/vmaingraphicsview_8cpp.html" target="_top" xlink:title=" ">
<polygon fill="white" stroke="black" points="5885,-73 5885,-92 6101,-92 6101,-73 5885,-73"/>
<text text-anchor="middle" x="5993" y="-80" font-family="Helvetica,sans-Serif" font-size="10.00">src/libs/vwidgets/vmaingraphicsview.cpp</text>
</a>
</g>
</g>
<!-- Node1&#45;&gt;Node43 -->
<g id="edge47" class="edge">
<title>Node1&#45;&gt;Node43</title>
<path fill="none" stroke="midnightblue" d="M2739.36,-182.56C2754.39,-166.71 2779.59,-143.73 2807,-134 2967.69,-76.98 5705.88,-109.5 5876,-98 5895.2,-96.7 5916.07,-94.4 5934.8,-92.01"/>
<polygon fill="midnightblue" stroke="midnightblue" points="2736.64,-180.35 2732.47,-190.1 2741.8,-185.08 2736.64,-180.35"/>
</g>
<!-- Node45 -->
<g id="node45" class="node">
<title>Node45</title>
<g id="a_node45"><a xlink:href="../../db/d28/vsettings_8cpp.html" target="_top" xlink:title=" ">
<polygon fill="white" stroke="black" points="2816,-134.5 2816,-153.5 2968,-153.5 2968,-134.5 2816,-134.5"/>
<text text-anchor="middle" x="2892" y="-141.5" font-family="Helvetica,sans-Serif" font-size="10.00">src/libs/vmisc/vsettings.cpp</text>
</a>
</g>
</g>
<!-- Node1&#45;&gt;Node45 -->
<g id="edge46" class="edge">
<title>Node1&#45;&gt;Node45</title>
<path fill="none" stroke="midnightblue" d="M2761.17,-187.3C2792.64,-177.13 2837.49,-162.62 2865.66,-153.52"/>
<polygon fill="midnightblue" stroke="midnightblue" points="2759.9,-184.04 2751.46,-190.44 2762.05,-190.7 2759.9,-184.04"/>
</g>
<!-- Node3&#45;&gt;Node2 -->
<g id="edge5" class="edge">
<title>Node3&#45;&gt;Node2</title>
<path fill="none" stroke="midnightblue" d="M2555.14,-142.37C2101.99,-139.57 364.58,-127.02 121,-98 118.13,-97.66 115.2,-97.24 112.25,-96.78"/>
<polygon fill="midnightblue" stroke="midnightblue" points="2555.26,-145.88 2565.28,-142.44 2555.3,-138.88 2555.26,-145.88"/>
</g>
<!-- Node4 -->
<g id="node4" class="node">
<title>Node4</title>
<g id="a_node4"><a xlink:href="../../d4/d90/fvupdater_8cpp.html" target="_top" xlink:title=" ">
<polygon fill="white" stroke="black" points="130.5,-73 130.5,-92 283.5,-92 283.5,-73 130.5,-73"/>
<text text-anchor="middle" x="207" y="-80" font-family="Helvetica,sans-Serif" font-size="10.00">src/libs/fervor/fvupdater.cpp</text>
</a>
</g>
</g>
<!-- Node3&#45;&gt;Node4 -->
<g id="edge3" class="edge">
<title>Node3&#45;&gt;Node4</title>
<path fill="none" stroke="midnightblue" d="M2555.33,-141.9C2122.2,-137.32 519.46,-119.12 293,-98 278.98,-96.69 263.8,-94.42 250.14,-92.06"/>
<polygon fill="midnightblue" stroke="midnightblue" points="2555.31,-145.4 2565.34,-142 2555.38,-138.4 2555.31,-145.4"/>
</g>
<!-- Node5 -->
<g id="node5" class="node">
<title>Node5</title>
<g id="a_node5"><a xlink:href="../../df/d1e/image__item_8cpp.html" target="_top" xlink:title=" ">
<polygon fill="white" stroke="black" points="302,-67.5 302,-97.5 414,-97.5 414,-67.5 302,-67.5"/>
<text text-anchor="start" x="310" y="-85.5" font-family="Helvetica,sans-Serif" font-size="10.00">src/libs/tools/image</text>
<text text-anchor="middle" x="358" y="-74.5" font-family="Helvetica,sans-Serif" font-size="10.00">_item.cpp</text>
</a>
</g>
</g>
<!-- Node3&#45;&gt;Node5 -->
<g id="edge4" class="edge">
<title>Node3&#45;&gt;Node5</title>
<path fill="none" stroke="midnightblue" d="M2555,-142.1C2136.64,-138.42 635.37,-123.56 423,-98 420.13,-97.65 417.2,-97.24 414.25,-96.77"/>
<polygon fill="midnightblue" stroke="midnightblue" points="2555.25,-145.6 2565.28,-142.19 2555.31,-138.6 2555.25,-145.6"/>
</g>
<!-- Node6 -->
<g id="node6" class="node">
<title>Node6</title>
<g id="a_node6"><a xlink:href="../../d9/dc8/dxiface_8cpp.html" target="_top" xlink:title=" ">
<polygon fill="white" stroke="black" points="432.5,-73 432.5,-92 567.5,-92 567.5,-73 432.5,-73"/>
<text text-anchor="middle" x="500" y="-80" font-family="Helvetica,sans-Serif" font-size="10.00">src/libs/vdxf/dxiface.cpp</text>
</a>
</g>
</g>
<!-- Node3&#45;&gt;Node6 -->
<g id="edge6" class="edge">
<title>Node3&#45;&gt;Node6</title>
<path fill="none" stroke="midnightblue" d="M2555.1,-143.05C2184.55,-142.86 965.43,-139.06 576,-98 563.58,-96.69 550.15,-94.42 538.09,-92.06"/>
<polygon fill="midnightblue" stroke="midnightblue" points="2555.28,-146.55 2565.28,-143.06 2555.28,-139.55 2555.28,-146.55"/>
</g>
<!-- Node7 -->
<g id="node7" class="node">
<title>Node7</title>
<g id="a_node7"><a xlink:href="../../da/d75/vabstractarc__p_8h.html" target="_top" xlink:title=" ">
<polygon fill="white" stroke="black" points="585.5,-67.5 585.5,-97.5 692.5,-97.5 692.5,-67.5 585.5,-67.5"/>
<text text-anchor="start" x="593.5" y="-85.5" font-family="Helvetica,sans-Serif" font-size="10.00">src/libs/vgeometry</text>
<text text-anchor="middle" x="639" y="-74.5" font-family="Helvetica,sans-Serif" font-size="10.00">/vabstractarc_p.h</text>
</a>
</g>
</g>
<!-- Node3&#45;&gt;Node7 -->
<g id="edge7" class="edge">
<title>Node3&#45;&gt;Node7</title>
<path fill="none" stroke="midnightblue" d="M2555.16,-143.46C2199.25,-144.52 1064.03,-144.11 701,-98 698.26,-97.65 695.46,-97.23 692.64,-96.76"/>
<polygon fill="midnightblue" stroke="midnightblue" points="2555.22,-146.96 2565.21,-143.43 2555.2,-139.96 2555.22,-146.96"/>
</g>
<!-- Node9 -->
<g id="node9" class="node">
<title>Node9</title>
<g id="a_node9"><a xlink:href="../../d5/d8e/vcubicbezier__p_8h.html" target="_top" xlink:title=" ">
<polygon fill="white" stroke="black" points="710.5,-67.5 710.5,-97.5 817.5,-97.5 817.5,-67.5 710.5,-67.5"/>
<text text-anchor="start" x="718.5" y="-85.5" font-family="Helvetica,sans-Serif" font-size="10.00">src/libs/vgeometry</text>
<text text-anchor="middle" x="764" y="-74.5" font-family="Helvetica,sans-Serif" font-size="10.00">/vcubicbezier_p.h</text>
</a>
</g>
</g>
<!-- Node3&#45;&gt;Node9 -->
<g id="edge9" class="edge">
<title>Node3&#45;&gt;Node9</title>
<path fill="none" stroke="midnightblue" d="M2555.1,-143.26C2214.3,-143.63 1163.56,-141.14 826,-98 823.26,-97.65 820.46,-97.23 817.65,-96.76"/>
<polygon fill="midnightblue" stroke="midnightblue" points="2555.22,-146.76 2565.22,-143.25 2555.21,-139.76 2555.22,-146.76"/>
</g>
<!-- Node11 -->
<g id="node11" class="node">
<title>Node11</title>
<g id="a_node11"><a xlink:href="../../dc/da3/varc__p_8h.html" target="_top" xlink:title=" ">
<polygon fill="white" stroke="black" points="835.5,-67.5 835.5,-97.5 942.5,-97.5 942.5,-67.5 835.5,-67.5"/>
<text text-anchor="start" x="843.5" y="-85.5" font-family="Helvetica,sans-Serif" font-size="10.00">src/libs/vgeometry</text>
<text text-anchor="middle" x="889" y="-74.5" font-family="Helvetica,sans-Serif" font-size="10.00">/varc_p.h</text>
</a>
</g>
</g>
<!-- Node3&#45;&gt;Node11 -->
<g id="edge11" class="edge">
<title>Node3&#45;&gt;Node11</title>
<path fill="none" stroke="midnightblue" d="M2554.99,-143.03C2229.8,-142.68 1263.15,-138.18 951,-98 948.26,-97.65 945.46,-97.23 942.65,-96.75"/>
<polygon fill="midnightblue" stroke="midnightblue" points="2555.35,-146.53 2565.36,-143.04 2555.36,-139.53 2555.35,-146.53"/>
</g>
<!-- Node13 -->
<g id="node13" class="node">
<title>Node13</title>
<g id="a_node13"><a xlink:href="../../df/dde/vellipticalarc__p_8h.html" target="_top" xlink:title=" ">
<polygon fill="white" stroke="black" points="960.5,-67.5 960.5,-97.5 1067.5,-97.5 1067.5,-67.5 960.5,-67.5"/>
<text text-anchor="start" x="968.5" y="-85.5" font-family="Helvetica,sans-Serif" font-size="10.00">src/libs/vgeometry</text>
<text text-anchor="middle" x="1014" y="-74.5" font-family="Helvetica,sans-Serif" font-size="10.00">/vellipticalarc_p.h</text>
</a>
</g>
</g>
<!-- Node3&#45;&gt;Node13 -->
<g id="edge13" class="edge">
<title>Node3&#45;&gt;Node13</title>
<path fill="none" stroke="midnightblue" d="M2555.07,-142.48C2247.12,-140.59 1368.01,-132.28 1082,-98 1077.33,-97.44 1072.5,-96.71 1067.67,-95.89"/>
<polygon fill="midnightblue" stroke="midnightblue" points="2555.32,-145.98 2565.35,-142.54 2555.37,-138.98 2555.32,-145.98"/>
</g>
<!-- Node14 -->
<g id="node14" class="node">
<title>Node14</title>
<g id="a_node14"><a xlink:href="../../d6/dfb/vellipticalarc_8cpp.html" target="_top" xlink:title=" ">
<polygon fill="white" stroke="black" points="980.5,-0.5 980.5,-30.5 1087.5,-30.5 1087.5,-0.5 980.5,-0.5"/>
<text text-anchor="start" x="988.5" y="-18.5" font-family="Helvetica,sans-Serif" font-size="10.00">src/libs/vgeometry</text>
<text text-anchor="middle" x="1034" y="-7.5" font-family="Helvetica,sans-Serif" font-size="10.00">/vellipticalarc.cpp</text>
</a>
</g>
</g>
<!-- Node3&#45;&gt;Node14 -->
<g id="edge15" class="edge">
<title>Node3&#45;&gt;Node14</title>
<path fill="none" stroke="midnightblue" d="M2555.34,-142.06C2215.02,-138.79 1180.89,-126.54 1115,-98 1098.25,-90.74 1064.06,-52.22 1045.92,-30.83"/>
<polygon fill="midnightblue" stroke="midnightblue" points="2555.42,-145.56 2565.45,-142.15 2555.49,-138.56 2555.42,-145.56"/>
</g>
<!-- Node15 -->
<g id="node15" class="node">
<title>Node15</title>
<g id="a_node15"><a xlink:href="../../d1/d76/vspline__p_8h.html" target="_top" xlink:title=" ">
<polygon fill="white" stroke="black" points="1124.5,-67.5 1124.5,-97.5 1231.5,-97.5 1231.5,-67.5 1124.5,-67.5"/>
<text text-anchor="start" x="1132.5" y="-85.5" font-family="Helvetica,sans-Serif" font-size="10.00">src/libs/vgeometry</text>
<text text-anchor="middle" x="1178" y="-74.5" font-family="Helvetica,sans-Serif" font-size="10.00">/vspline_p.h</text>
</a>
</g>
</g>
<!-- Node3&#45;&gt;Node15 -->
<g id="edge16" class="edge">
<title>Node3&#45;&gt;Node15</title>
<path fill="none" stroke="midnightblue" d="M2554.79,-142.3C2268.28,-140.01 1494.6,-130.88 1241,-98 1237.99,-97.61 1234.92,-97.14 1231.83,-96.61"/>
<polygon fill="midnightblue" stroke="midnightblue" points="2555.16,-145.8 2565.19,-142.38 2555.22,-138.8 2555.16,-145.8"/>
</g>
<!-- Node17 -->
<g id="node17" class="node">
<title>Node17</title>
<g id="a_node17"><a xlink:href="../../d9/d15/vabstractpiece_8cpp.html" target="_top" xlink:title=" ">
<polygon fill="white" stroke="black" points="1250,-73 1250,-92 1436,-92 1436,-73 1250,-73"/>
<text text-anchor="middle" x="1343" y="-80" font-family="Helvetica,sans-Serif" font-size="10.00">src/libs/vlayout/vabstractpiece.cpp</text>
</a>
</g>
</g>
<!-- Node3&#45;&gt;Node17 -->
<g id="edge18" class="edge">
<title>Node3&#45;&gt;Node17</title>
<path fill="none" stroke="midnightblue" d="M2554.97,-142.84C2341.99,-141.67 1853.08,-134.81 1444,-98 1427.94,-96.56 1410.54,-94.31 1394.78,-92.01"/>
<polygon fill="midnightblue" stroke="midnightblue" points="2555.19,-146.34 2565.21,-142.89 2555.22,-139.34 2555.19,-146.34"/>
</g>
<!-- Node18 -->
<g id="node18" class="node">
<title>Node18</title>
<g id="a_node18"><a xlink:href="../../dd/d70/vlayoutpiece_8cpp.html" target="_top" xlink:title=" ">
<polygon fill="white" stroke="black" points="1453.5,-73 1453.5,-92 1630.5,-92 1630.5,-73 1453.5,-73"/>
<text text-anchor="middle" x="1542" y="-80" font-family="Helvetica,sans-Serif" font-size="10.00">src/libs/vlayout/vlayoutpiece.cpp</text>
</a>
</g>
</g>
<!-- Node3&#45;&gt;Node18 -->
<g id="edge19" class="edge">
<title>Node3&#45;&gt;Node18</title>
<path fill="none" stroke="midnightblue" d="M2555.35,-141.9C2368.63,-139.19 1972.77,-129.85 1640,-98 1624.59,-96.53 1607.9,-94.3 1592.74,-92.02"/>
<polygon fill="midnightblue" stroke="midnightblue" points="2555.39,-145.4 2565.44,-142.05 2555.49,-138.41 2555.39,-145.4"/>
</g>
<!-- Node19 -->
<g id="node19" class="node">
<title>Node19</title>
<g id="a_node19"><a xlink:href="../../d8/d70/vtextmanager_8cpp.html" target="_top" xlink:title=" ">
<polygon fill="white" stroke="black" points="1649,-73 1649,-92 1831,-92 1831,-73 1649,-73"/>
<text text-anchor="middle" x="1740" y="-80" font-family="Helvetica,sans-Serif" font-size="10.00">src/libs/vlayout/vtextmanager.cpp</text>
</a>
</g>
</g>
<!-- Node3&#45;&gt;Node19 -->
<g id="edge20" class="edge">
<title>Node3&#45;&gt;Node19</title>
<path fill="none" stroke="midnightblue" d="M2555.07,-140.17C2397.57,-135.35 2095.67,-123.47 1840,-98 1824.55,-96.46 1807.83,-94.25 1792.57,-92.02"/>
<polygon fill="midnightblue" stroke="midnightblue" points="2555.13,-143.68 2565.23,-140.48 2555.34,-136.68 2555.13,-143.68"/>
</g>
<!-- Node20 -->
<g id="node20" class="node">
<title>Node20</title>
<g id="a_node20"><a xlink:href="../../db/d65/dialogexporttocsv_8cpp.html" target="_top" xlink:title=" ">
<polygon fill="white" stroke="black" points="1849.5,-67.5 1849.5,-97.5 1976.5,-97.5 1976.5,-67.5 1849.5,-67.5"/>
<text text-anchor="start" x="1857.5" y="-85.5" font-family="Helvetica,sans-Serif" font-size="10.00">src/libs/vmisc/dialogs</text>
<text text-anchor="middle" x="1913" y="-74.5" font-family="Helvetica,sans-Serif" font-size="10.00">/dialogexporttocsv.cpp</text>
</a>
</g>
</g>
<!-- Node3&#45;&gt;Node20 -->
<g id="edge21" class="edge">
<title>Node3&#45;&gt;Node20</title>
<path fill="none" stroke="midnightblue" d="M2555.09,-140.14C2421.13,-135.6 2185.89,-124.38 1986,-98 1982.93,-97.59 1979.79,-97.14 1976.62,-96.64"/>
<polygon fill="midnightblue" stroke="midnightblue" points="2555.24,-143.65 2565.35,-140.48 2555.47,-136.65 2555.24,-143.65"/>
</g>
<!-- Node21 -->
<g id="node21" class="node">
<title>Node21</title>
<g id="a_node21"><a xlink:href="../../d6/d0b/def_8cpp.html" target="_top" xlink:title=" ">
<polygon fill="white" stroke="black" points="1995,-73 1995,-92 2117,-92 2117,-73 1995,-73"/>
<text text-anchor="middle" x="2056" y="-80" font-family="Helvetica,sans-Serif" font-size="10.00">src/libs/vmisc/def.cpp</text>
</a>
</g>
</g>
<!-- Node3&#45;&gt;Node21 -->
<g id="edge22" class="edge">
<title>Node3&#45;&gt;Node21</title>
<path fill="none" stroke="midnightblue" d="M2555.1,-137.79C2446.36,-131.64 2273.92,-119.44 2126,-98 2115.19,-96.43 2103.54,-94.23 2092.91,-92.01"/>
<polygon fill="midnightblue" stroke="midnightblue" points="2554.92,-141.29 2565.1,-138.35 2555.31,-134.3 2554.92,-141.29"/>
</g>
<!-- Node22 -->
<g id="node22" class="node">
<title>Node22</title>
<g id="a_node22"><a xlink:href="../../d0/df6/vabstractapplication_8cpp.html" target="_top" xlink:title=" ">
<polygon fill="white" stroke="black" points="2135,-73 2135,-92 2341,-92 2341,-73 2135,-73"/>
<text text-anchor="middle" x="2238" y="-80" font-family="Helvetica,sans-Serif" font-size="10.00">src/libs/vmisc/vabstractapplication.cpp</text>
</a>
</g>
</g>
<!-- Node3&#45;&gt;Node22 -->
<g id="edge23" class="edge">
<title>Node3&#45;&gt;Node22</title>
<path fill="none" stroke="midnightblue" d="M2592.12,-133.08C2510.06,-121.59 2376.28,-102.86 2298.78,-92.01"/>
<polygon fill="midnightblue" stroke="midnightblue" points="2591.72,-136.55 2602.11,-134.48 2592.69,-129.62 2591.72,-136.55"/>
</g>
<!-- Node23 -->
<g id="node23" class="node">
<title>Node23</title>
<g id="a_node23"><a xlink:href="../../d4/d4f/pmsystems_8cpp.html" target="_top" xlink:title=" ">
<polygon fill="white" stroke="black" points="2359.5,-67.5 2359.5,-97.5 2466.5,-97.5 2466.5,-67.5 2359.5,-67.5"/>
<text text-anchor="start" x="2367.5" y="-85.5" font-family="Helvetica,sans-Serif" font-size="10.00">src/libs/vpatterndb</text>
<text text-anchor="middle" x="2413" y="-74.5" font-family="Helvetica,sans-Serif" font-size="10.00">/pmsystems.cpp</text>
</a>
</g>
</g>
<!-- Node3&#45;&gt;Node23 -->
<g id="edge24" class="edge">
<title>Node3&#45;&gt;Node23</title>
<path fill="none" stroke="midnightblue" d="M2617.39,-132.14C2574.92,-122.04 2511.59,-106.96 2466.7,-96.28"/>
<polygon fill="midnightblue" stroke="midnightblue" points="2616.64,-135.56 2627.18,-134.48 2618.26,-128.75 2616.64,-135.56"/>
</g>
<!-- Node24 -->
<g id="node24" class="node">
<title>Node24</title>
<g id="a_node24"><a xlink:href="../../db/d11/vformula_8cpp.html" target="_top" xlink:title=" ">
<polygon fill="white" stroke="black" points="2484.5,-67.5 2484.5,-97.5 2591.5,-97.5 2591.5,-67.5 2484.5,-67.5"/>
<text text-anchor="start" x="2492.5" y="-85.5" font-family="Helvetica,sans-Serif" font-size="10.00">src/libs/vpatterndb</text>
<text text-anchor="middle" x="2538" y="-74.5" font-family="Helvetica,sans-Serif" font-size="10.00">/vformula.cpp</text>
</a>
</g>
</g>
<!-- Node3&#45;&gt;Node24 -->
<g id="edge25" class="edge">
<title>Node3&#45;&gt;Node24</title>
<path fill="none" stroke="midnightblue" d="M2635.84,-130.07C2615.66,-120.47 2588.16,-107.38 2567.46,-97.52"/>
<polygon fill="midnightblue" stroke="midnightblue" points="2634.56,-133.34 2645.09,-134.48 2637.57,-127.02 2634.56,-133.34"/>
</g>
<!-- Node25 -->
<g id="node25" class="node">
<title>Node25</title>
<g id="a_node25"><a xlink:href="../../d6/d46/vcontainer_8cpp.html" target="_top" xlink:title=" ">
<polygon fill="white" stroke="black" points="2609.5,-67.5 2609.5,-97.5 2716.5,-97.5 2716.5,-67.5 2609.5,-67.5"/>
<text text-anchor="start" x="2617.5" y="-85.5" font-family="Helvetica,sans-Serif" font-size="10.00">src/libs/vpatterndb</text>
<text text-anchor="middle" x="2663" y="-74.5" font-family="Helvetica,sans-Serif" font-size="10.00">/vcontainer.cpp</text>
</a>
</g>
</g>
<!-- Node3&#45;&gt;Node25 -->
<g id="edge26" class="edge">
<title>Node3&#45;&gt;Node25</title>
<path fill="none" stroke="midnightblue" d="M2663,-124.23C2663,-115.59 2663,-105.5 2663,-97.52"/>
<polygon fill="midnightblue" stroke="midnightblue" points="2659.5,-124.48 2663,-134.48 2666.5,-124.48 2659.5,-124.48"/>
</g>
<!-- Node26 -->
<g id="node26" class="node">
<title>Node26</title>
<g id="a_node26"><a xlink:href="../../df/d7a/vpiece_8cpp.html" target="_top" xlink:title=" ">
<polygon fill="white" stroke="black" points="2734.5,-67.5 2734.5,-97.5 2841.5,-97.5 2841.5,-67.5 2734.5,-67.5"/>
<text text-anchor="start" x="2742.5" y="-85.5" font-family="Helvetica,sans-Serif" font-size="10.00">src/libs/vpatterndb</text>
<text text-anchor="middle" x="2788" y="-74.5" font-family="Helvetica,sans-Serif" font-size="10.00">/vpiece.cpp</text>
</a>
</g>
</g>
<!-- Node3&#45;&gt;Node26 -->
<g id="edge27" class="edge">
<title>Node3&#45;&gt;Node26</title>
<path fill="none" stroke="midnightblue" d="M2690.16,-130.07C2710.34,-120.47 2737.84,-107.38 2758.54,-97.52"/>
<polygon fill="midnightblue" stroke="midnightblue" points="2688.43,-127.02 2680.91,-134.48 2691.44,-133.34 2688.43,-127.02"/>
</g>
<!-- Node27 -->
<g id="node27" class="node">
<title>Node27</title>
<g id="a_node27"><a xlink:href="../../df/dba/vpiecenode__p_8h.html" target="_top" xlink:title=" ">
<polygon fill="white" stroke="black" points="2859.5,-67.5 2859.5,-97.5 2966.5,-97.5 2966.5,-67.5 2859.5,-67.5"/>
<text text-anchor="start" x="2867.5" y="-85.5" font-family="Helvetica,sans-Serif" font-size="10.00">src/libs/vpatterndb</text>
<text text-anchor="middle" x="2913" y="-74.5" font-family="Helvetica,sans-Serif" font-size="10.00">/vpiecenode_p.h</text>
</a>
</g>
</g>
<!-- Node3&#45;&gt;Node27 -->
<g id="edge28" class="edge">
<title>Node3&#45;&gt;Node27</title>
<path fill="none" stroke="midnightblue" d="M2708.61,-132.14C2751.08,-122.04 2814.41,-106.96 2859.3,-96.28"/>
<polygon fill="midnightblue" stroke="midnightblue" points="2707.74,-128.75 2698.82,-134.48 2709.36,-135.56 2707.74,-128.75"/>
</g>
<!-- Node29 -->
<g id="node29" class="node">
<title>Node29</title>
<g id="a_node29"><a xlink:href="../../de/d3e/vtranslatevars_8cpp.html" target="_top" xlink:title=" ">
<polygon fill="white" stroke="black" points="2985,-67.5 2985,-97.5 3095,-97.5 3095,-67.5 2985,-67.5"/>
<text text-anchor="start" x="2993" y="-85.5" font-family="Helvetica,sans-Serif" font-size="10.00">src/libs/vpatterndb</text>
<text text-anchor="middle" x="3040" y="-74.5" font-family="Helvetica,sans-Serif" font-size="10.00">/vtranslatevars.cpp</text>
</a>
</g>
</g>
<!-- Node3&#45;&gt;Node29 -->
<g id="edge30" class="edge">
<title>Node3&#45;&gt;Node29</title>
<path fill="none" stroke="midnightblue" d="M2743.24,-133.14C2806.42,-124.96 2896.6,-112.38 2975,-98 2978.18,-97.42 2981.45,-96.79 2984.74,-96.13"/>
<polygon fill="midnightblue" stroke="midnightblue" points="2742.42,-129.71 2732.95,-134.46 2743.32,-136.66 2742.42,-129.71"/>
</g>
<!-- Node30 -->
<g id="node30" class="node">
<title>Node30</title>
<g id="a_node30"><a xlink:href="../../df/d40/export__format__combobox_8cpp.html" target="_top" xlink:title=" ">
<polygon fill="white" stroke="black" points="3113.5,-67.5 3113.5,-97.5 3246.5,-97.5 3246.5,-67.5 3113.5,-67.5"/>
<text text-anchor="start" x="3121.5" y="-85.5" font-family="Helvetica,sans-Serif" font-size="10.00">src/libs/vwidgets/export</text>
<text text-anchor="middle" x="3180" y="-74.5" font-family="Helvetica,sans-Serif" font-size="10.00">_format_combobox.cpp</text>
</a>
</g>
</g>
<!-- Node3&#45;&gt;Node30 -->
<g id="edge31" class="edge">
<title>Node3&#45;&gt;Node30</title>
<path fill="none" stroke="midnightblue" d="M2766.07,-133.53C2875.46,-123.29 3041.05,-107.2 3104,-98 3107.06,-97.55 3110.18,-97.07 3113.33,-96.56"/>
<polygon fill="midnightblue" stroke="midnightblue" points="2765.62,-130.05 2755.99,-134.47 2766.27,-137.02 2765.62,-130.05"/>
</g>
<!-- Node31 -->
<g id="node31" class="node">
<title>Node31</title>
<g id="a_node31"><a xlink:href="../../d3/d4f/mouse__coordinates_8cpp.html" target="_top" xlink:title=" ">
<polygon fill="white" stroke="black" points="3265,-67.5 3265,-97.5 3399,-97.5 3399,-67.5 3265,-67.5"/>
<text text-anchor="start" x="3273" y="-85.5" font-family="Helvetica,sans-Serif" font-size="10.00">src/libs/vwidgets/mouse</text>
<text text-anchor="middle" x="3332" y="-74.5" font-family="Helvetica,sans-Serif" font-size="10.00">_coordinates.cpp</text>
</a>
</g>
</g>
<!-- Node3&#45;&gt;Node31 -->
<g id="edge32" class="edge">
<title>Node3&#45;&gt;Node31</title>
<path fill="none" stroke="midnightblue" d="M2770.73,-134.26C2771.83,-134.17 2772.92,-134.08 2774,-134 2987.73,-117.34 3042.44,-125.88 3255,-98 3258.24,-97.58 3261.54,-97.1 3264.88,-96.6"/>
<polygon fill="midnightblue" stroke="midnightblue" points="2770.45,-130.77 2760.75,-135.04 2771,-137.75 2770.45,-130.77"/>
</g>
<!-- Node32 -->
<g id="node32" class="node">
<title>Node32</title>
<g id="a_node32"><a xlink:href="../../d2/d28/page__format__combobox_8cpp.html" target="_top" xlink:title=" ">
<polygon fill="white" stroke="black" points="3417.5,-67.5 3417.5,-97.5 3548.5,-97.5 3548.5,-67.5 3417.5,-67.5"/>
<text text-anchor="start" x="3425.5" y="-85.5" font-family="Helvetica,sans-Serif" font-size="10.00">src/libs/vwidgets/page</text>
<text text-anchor="middle" x="3483" y="-74.5" font-family="Helvetica,sans-Serif" font-size="10.00">_format_combobox.cpp</text>
</a>
</g>
</g>
<!-- Node3&#45;&gt;Node32 -->
<g id="edge33" class="edge">
<title>Node3&#45;&gt;Node32</title>
<path fill="none" stroke="midnightblue" d="M2770.73,-134.23C2771.82,-134.15 2772.92,-134.07 2774,-134 3055.56,-114.59 3127.93,-132.86 3408,-98 3411.03,-97.62 3414.12,-97.2 3417.23,-96.73"/>
<polygon fill="midnightblue" stroke="midnightblue" points="2770.47,-130.74 2760.75,-134.94 2770.97,-137.72 2770.47,-130.74"/>
</g>
<!-- Node33 -->
<g id="node33" class="node">
<title>Node33</title>
<g id="a_node33"><a xlink:href="../../d7/d1b/pen__toolbar_8cpp.html" target="_top" xlink:title=" ">
<polygon fill="white" stroke="black" points="3566.5,-67.5 3566.5,-97.5 3685.5,-97.5 3685.5,-67.5 3566.5,-67.5"/>
<text text-anchor="start" x="3574.5" y="-85.5" font-family="Helvetica,sans-Serif" font-size="10.00">src/libs/vwidgets/pen</text>
<text text-anchor="middle" x="3626" y="-74.5" font-family="Helvetica,sans-Serif" font-size="10.00">_toolbar.cpp</text>
</a>
</g>
</g>
<!-- Node3&#45;&gt;Node33 -->
<g id="edge34" class="edge">
<title>Node3&#45;&gt;Node33</title>
<path fill="none" stroke="midnightblue" d="M2770.73,-134.21C2771.82,-134.14 2772.91,-134.07 2774,-134 3121.67,-111.92 3211.42,-141.96 3557,-98 3560.04,-97.61 3563.14,-97.16 3566.26,-96.67"/>
<polygon fill="midnightblue" stroke="midnightblue" points="2770.48,-130.72 2760.74,-134.88 2770.96,-137.7 2770.48,-130.72"/>
</g>
<!-- Node34 -->
<g id="node34" class="node">
<title>Node34</title>
<g id="a_node34"><a xlink:href="../../d8/d76/scene__rect_8cpp.html" target="_top" xlink:title=" ">
<polygon fill="white" stroke="black" points="3704,-67.5 3704,-97.5 3834,-97.5 3834,-67.5 3704,-67.5"/>
<text text-anchor="start" x="3712" y="-85.5" font-family="Helvetica,sans-Serif" font-size="10.00">src/libs/vwidgets/scene</text>
<text text-anchor="middle" x="3769" y="-74.5" font-family="Helvetica,sans-Serif" font-size="10.00">_rect.cpp</text>
</a>
</g>
</g>
<!-- Node3&#45;&gt;Node34 -->
<g id="edge35" class="edge">
<title>Node3&#45;&gt;Node34</title>
<path fill="none" stroke="midnightblue" d="M2770.73,-134.2C2771.82,-134.13 2772.91,-134.07 2774,-134 3182.47,-109.46 3287.5,-144.97 3694,-98 3697.16,-97.63 3700.39,-97.21 3703.64,-96.74"/>
<polygon fill="midnightblue" stroke="midnightblue" points="2770.49,-130.71 2760.74,-134.85 2770.95,-137.69 2770.49,-130.71"/>
</g>
<!-- Node35 -->
<g id="node35" class="node">
<title>Node35</title>
<g id="a_node35"><a xlink:href="../../dd/df6/vabstractmainwindow_8cpp.html" target="_top" xlink:title=" ">
<polygon fill="white" stroke="black" points="3852.5,-73 3852.5,-92 4081.5,-92 4081.5,-73 3852.5,-73"/>
<text text-anchor="middle" x="3967" y="-80" font-family="Helvetica,sans-Serif" font-size="10.00">src/libs/vwidgets/vabstractmainwindow.cpp</text>
</a>
</g>
</g>
<!-- Node3&#45;&gt;Node35 -->
<g id="edge36" class="edge">
<title>Node3&#45;&gt;Node35</title>
<path fill="none" stroke="midnightblue" d="M2770.73,-134.19C2771.82,-134.13 2772.91,-134.06 2774,-134 3248.6,-106.78 3368.96,-133.64 3843,-98 3862.56,-96.53 3883.79,-94.29 3903.06,-92"/>
<polygon fill="midnightblue" stroke="midnightblue" points="2770.5,-130.7 2760.74,-134.82 2770.94,-137.68 2770.5,-130.7"/>
</g>
<!-- Node36 -->
<g id="node36" class="node">
<title>Node36</title>
<g id="a_node36"><a xlink:href="../../de/d45/vcontrolpointspline_8cpp.html" target="_top" xlink:title=" ">
<polygon fill="white" stroke="black" points="4099.5,-73 4099.5,-92 4314.5,-92 4314.5,-73 4099.5,-73"/>
<text text-anchor="middle" x="4207" y="-80" font-family="Helvetica,sans-Serif" font-size="10.00">src/libs/vwidgets/vcontrolpointspline.cpp</text>
</a>
</g>
</g>
<!-- Node3&#45;&gt;Node36 -->
<g id="edge37" class="edge">
<title>Node3&#45;&gt;Node36</title>
<path fill="none" stroke="midnightblue" d="M2770.73,-134.18C2771.82,-134.12 2772.91,-134.06 2774,-134 3358.69,-102.33 3507.13,-142.37 4091,-98 4109.52,-96.59 4129.62,-94.34 4147.8,-92.02"/>
<polygon fill="midnightblue" stroke="midnightblue" points="2770.51,-130.69 2760.74,-134.78 2770.93,-137.68 2770.51,-130.69"/>
</g>
<!-- Node37 -->
<g id="node37" class="node">
<title>Node37</title>
<g id="a_node37"><a xlink:href="../../d1/d90/vgrainlineitem_8cpp.html" target="_top" xlink:title=" ">
<polygon fill="white" stroke="black" points="4332.5,-73 4332.5,-92 4525.5,-92 4525.5,-73 4332.5,-73"/>
<text text-anchor="middle" x="4429" y="-80" font-family="Helvetica,sans-Serif" font-size="10.00">src/libs/vwidgets/vgrainlineitem.cpp</text>
</a>
</g>
</g>
<!-- Node3&#45;&gt;Node37 -->
<g id="edge38" class="edge">
<title>Node3&#45;&gt;Node37</title>
<path fill="none" stroke="midnightblue" d="M2770.72,-134.18C2771.82,-134.12 2772.91,-134.06 2774,-134 3462.14,-98.14 3637.14,-153.22 4324,-98 4340.97,-96.64 4359.38,-94.36 4375.98,-92.02"/>
<polygon fill="midnightblue" stroke="midnightblue" points="2770.51,-130.68 2760.74,-134.76 2770.92,-137.67 2770.51,-130.68"/>
</g>
<!-- Node38 -->
<g id="node38" class="node">
<title>Node38</title>
<g id="a_node38"><a xlink:href="../../de/dec/vgraphicssimpletextitem_8cpp.html" target="_top" xlink:title=" ">
<polygon fill="white" stroke="black" points="4544,-73 4544,-92 4788,-92 4788,-73 4544,-73"/>
<text text-anchor="middle" x="4666" y="-80" font-family="Helvetica,sans-Serif" font-size="10.00">src/libs/vwidgets/vgraphicssimpletextitem.cpp</text>
</a>
</g>
</g>
<!-- Node3&#45;&gt;Node38 -->
<g id="edge39" class="edge">
<title>Node3&#45;&gt;Node38</title>
<path fill="none" stroke="midnightblue" d="M2770.72,-134.17C2771.82,-134.11 2772.91,-134.06 2774,-134 3555.83,-94.35 3753.84,-149.11 4535,-98 4556.01,-96.63 4578.83,-94.37 4599.46,-92.04"/>
<polygon fill="midnightblue" stroke="midnightblue" points="2770.52,-130.68 2760.74,-134.75 2770.92,-137.67 2770.52,-130.68"/>
</g>
<!-- Node39 -->
<g id="node39" class="node">
<title>Node39</title>
<g id="a_node39"><a xlink:href="../../d1/d88/vmaingraphicsscene_8cpp.html" target="_top" xlink:title=" ">
<polygon fill="white" stroke="black" points="4806,-73 4806,-92 5028,-92 5028,-73 4806,-73"/>
<text text-anchor="middle" x="4917" y="-80" font-family="Helvetica,sans-Serif" font-size="10.00">src/libs/vwidgets/vmaingraphicsscene.cpp</text>
</a>
</g>
</g>
<!-- Node3&#45;&gt;Node39 -->
<g id="edge40" class="edge">
<title>Node3&#45;&gt;Node39</title>
<path fill="none" stroke="midnightblue" d="M2770.72,-134.17C2771.82,-134.11 2772.91,-134.05 2774,-134 3672.16,-89.64 3899.89,-160.02 4797,-98 4816.47,-96.65 4837.63,-94.37 4856.68,-92.01"/>
<polygon fill="midnightblue" stroke="midnightblue" points="2770.52,-130.67 2760.73,-134.73 2770.92,-137.66 2770.52,-130.67"/>
</g>
<!-- Node40 -->
<g id="node40" class="node">
<title>Node40</title>
<g id="a_node40"><a xlink:href="../../d0/d5d/vscenepoint_8cpp.html" target="_top" xlink:title=" ">
<polygon fill="white" stroke="black" points="5046.5,-73 5046.5,-92 5227.5,-92 5227.5,-73 5046.5,-73"/>
<text text-anchor="middle" x="5137" y="-80" font-family="Helvetica,sans-Serif" font-size="10.00">src/libs/vwidgets/vscenepoint.cpp</text>
</a>
</g>
</g>
<!-- Node3&#45;&gt;Node40 -->
<g id="edge41" class="edge">
<title>Node3&#45;&gt;Node40</title>
<path fill="none" stroke="midnightblue" d="M2770.72,-134.16C2771.82,-134.11 2772.91,-134.05 2774,-134 3778.73,-85.33 4034.31,-178.34 5037,-98 5053.35,-96.69 5071.1,-94.4 5087.04,-92.03"/>
<polygon fill="midnightblue" stroke="midnightblue" points="2770.52,-130.67 2760.73,-134.72 2770.91,-137.66 2770.52,-130.67"/>
</g>
<!-- Node41 -->
<g id="node41" class="node">
<title>Node41</title>
<g id="a_node41"><a xlink:href="../../de/d22/vsimplecurve_8cpp.html" target="_top" xlink:title=" ">
<polygon fill="white" stroke="black" points="5246,-73 5246,-92 5434,-92 5434,-73 5246,-73"/>
<text text-anchor="middle" x="5340" y="-80" font-family="Helvetica,sans-Serif" font-size="10.00">src/libs/vwidgets/vsimplecurve.cpp</text>
</a>
</g>
</g>
<!-- Node3&#45;&gt;Node41 -->
<g id="edge42" class="edge">
<title>Node3&#45;&gt;Node41</title>
<path fill="none" stroke="midnightblue" d="M2770.72,-134.16C2771.82,-134.11 2772.91,-134.05 2774,-134 3867.54,-81.73 4145.48,-182.47 5237,-98 5253.83,-96.7 5272.11,-94.41 5288.53,-92.04"/>
<polygon fill="midnightblue" stroke="midnightblue" points="2770.52,-130.67 2760.73,-134.71 2770.91,-137.66 2770.52,-130.67"/>
</g>
<!-- Node42 -->
<g id="node42" class="node">
<title>Node42</title>
<g id="a_node42"><a xlink:href="../../df/d38/vsimplepoint_8cpp.html" target="_top" xlink:title=" ">
<polygon fill="white" stroke="black" points="5452.5,-73 5452.5,-92 5637.5,-92 5637.5,-73 5452.5,-73"/>
<text text-anchor="middle" x="5545" y="-80" font-family="Helvetica,sans-Serif" font-size="10.00">src/libs/vwidgets/vsimplepoint.cpp</text>
</a>
</g>
</g>
<!-- Node3&#45;&gt;Node42 -->
<g id="edge43" class="edge">
<title>Node3&#45;&gt;Node42</title>
<path fill="none" stroke="midnightblue" d="M2770.72,-134.16C2771.82,-134.1 2772.91,-134.05 2774,-134 3366.5,-106.02 4851.61,-143.84 5443,-98 5459.76,-96.7 5477.97,-94.4 5494.3,-92.01"/>
<polygon fill="midnightblue" stroke="midnightblue" points="2770.53,-130.67 2760.73,-134.71 2770.91,-137.66 2770.53,-130.67"/>
</g>
<!-- Node3&#45;&gt;Node43 -->
<g id="edge44" class="edge">
<title>Node3&#45;&gt;Node43</title>
<path fill="none" stroke="midnightblue" d="M2770.72,-134.16C2771.82,-134.1 2772.91,-134.05 2774,-134 3462.64,-102.12 5188.19,-144.47 5876,-98 5895.2,-96.7 5916.07,-94.4 5934.8,-92.01"/>
<polygon fill="midnightblue" stroke="midnightblue" points="2770.53,-130.66 2760.73,-134.7 2770.91,-137.65 2770.53,-130.66"/>
</g>
<!-- Node44 -->
<g id="node44" class="node">
<title>Node44</title>
<g id="a_node44"><a xlink:href="../../df/df5/vtextgraphicsitem_8cpp.html" target="_top" xlink:title=" ">
<polygon fill="white" stroke="black" points="5655.5,-73 5655.5,-92 5866.5,-92 5866.5,-73 5655.5,-73"/>
<text text-anchor="middle" x="5761" y="-80" font-family="Helvetica,sans-Serif" font-size="10.00">src/libs/vwidgets/vtextgraphicsitem.cpp</text>
</a>
</g>
</g>
<!-- Node3&#45;&gt;Node44 -->
<g id="edge45" class="edge">
<title>Node3&#45;&gt;Node44</title>
<path fill="none" stroke="midnightblue" d="M2770.72,-134.16C2771.82,-134.1 2772.91,-134.05 2774,-134 4049.6,-74.36 4373.1,-186.71 5647,-98 5665.71,-96.7 5686.05,-94.4 5704.3,-92.01"/>
<polygon fill="midnightblue" stroke="midnightblue" points="2770.53,-130.66 2760.73,-134.7 2770.91,-137.65 2770.53,-130.66"/>
</g>
<!-- Node8 -->
<g id="node8" class="node">
<title>Node8</title>
<g id="a_node8"><a xlink:href="../../d4/da1/vabstractarc_8cpp.html" target="_top" xlink:title=" ">
<polygon fill="white" stroke="black" points="585.5,-0.5 585.5,-30.5 692.5,-30.5 692.5,-0.5 585.5,-0.5"/>
<text text-anchor="start" x="593.5" y="-18.5" font-family="Helvetica,sans-Serif" font-size="10.00">src/libs/vgeometry</text>
<text text-anchor="middle" x="639" y="-7.5" font-family="Helvetica,sans-Serif" font-size="10.00">/vabstractarc.cpp</text>
</a>
</g>
</g>
<!-- Node7&#45;&gt;Node8 -->
<g id="edge8" class="edge">
<title>Node7&#45;&gt;Node8</title>
<path fill="none" stroke="midnightblue" d="M639,-57.11C639,-48.15 639,-38.32 639,-30.58"/>
<polygon fill="midnightblue" stroke="midnightblue" points="635.5,-57.4 639,-67.4 642.5,-57.4 635.5,-57.4"/>
</g>
<!-- Node10 -->
<g id="node10" class="node">
<title>Node10</title>
<g id="a_node10"><a xlink:href="../../d2/d26/vcubicbezier_8cpp.html" target="_top" xlink:title=" ">
<polygon fill="white" stroke="black" points="710.5,-0.5 710.5,-30.5 817.5,-30.5 817.5,-0.5 710.5,-0.5"/>
<text text-anchor="start" x="718.5" y="-18.5" font-family="Helvetica,sans-Serif" font-size="10.00">src/libs/vgeometry</text>
<text text-anchor="middle" x="764" y="-7.5" font-family="Helvetica,sans-Serif" font-size="10.00">/vcubicbezier.cpp</text>
</a>
</g>
</g>
<!-- Node9&#45;&gt;Node10 -->
<g id="edge10" class="edge">
<title>Node9&#45;&gt;Node10</title>
<path fill="none" stroke="midnightblue" d="M764,-57.11C764,-48.15 764,-38.32 764,-30.58"/>
<polygon fill="midnightblue" stroke="midnightblue" points="760.5,-57.4 764,-67.4 767.5,-57.4 760.5,-57.4"/>
</g>
<!-- Node12 -->
<g id="node12" class="node">
<title>Node12</title>
<g id="a_node12"><a xlink:href="../../d5/ded/varc_8cpp.html" target="_top" xlink:title=" ">
<polygon fill="white" stroke="black" points="835.5,-0.5 835.5,-30.5 942.5,-30.5 942.5,-0.5 835.5,-0.5"/>
<text text-anchor="start" x="843.5" y="-18.5" font-family="Helvetica,sans-Serif" font-size="10.00">src/libs/vgeometry</text>
<text text-anchor="middle" x="889" y="-7.5" font-family="Helvetica,sans-Serif" font-size="10.00">/varc.cpp</text>
</a>
</g>
</g>
<!-- Node11&#45;&gt;Node12 -->
<g id="edge12" class="edge">
<title>Node11&#45;&gt;Node12</title>
<path fill="none" stroke="midnightblue" d="M889,-57.11C889,-48.15 889,-38.32 889,-30.58"/>
<polygon fill="midnightblue" stroke="midnightblue" points="885.5,-57.4 889,-67.4 892.5,-57.4 885.5,-57.4"/>
</g>
<!-- Node13&#45;&gt;Node14 -->
<g id="edge14" class="edge">
<title>Node13&#45;&gt;Node14</title>
<path fill="none" stroke="midnightblue" d="M1021.32,-57.7C1024.13,-48.59 1027.23,-38.49 1029.67,-30.58"/>
<polygon fill="midnightblue" stroke="midnightblue" points="1017.94,-56.81 1018.34,-67.4 1024.63,-58.87 1017.94,-56.81"/>
</g>
<!-- Node16 -->
<g id="node16" class="node">
<title>Node16</title>
<g id="a_node16"><a xlink:href="../../d5/dd2/vspline_8cpp.html" target="_top" xlink:title=" ">
<polygon fill="white" stroke="black" points="1124.5,-0.5 1124.5,-30.5 1231.5,-30.5 1231.5,-0.5 1124.5,-0.5"/>
<text text-anchor="start" x="1132.5" y="-18.5" font-family="Helvetica,sans-Serif" font-size="10.00">src/libs/vgeometry</text>
<text text-anchor="middle" x="1178" y="-7.5" font-family="Helvetica,sans-Serif" font-size="10.00">/vspline.cpp</text>
</a>
</g>
</g>
<!-- Node15&#45;&gt;Node16 -->
<g id="edge17" class="edge">
<title>Node15&#45;&gt;Node16</title>
<path fill="none" stroke="midnightblue" d="M1178,-57.11C1178,-48.15 1178,-38.32 1178,-30.58"/>
<polygon fill="midnightblue" stroke="midnightblue" points="1174.5,-57.4 1178,-67.4 1181.5,-57.4 1174.5,-57.4"/>
</g>
<!-- Node28 -->
<g id="node28" class="node">
<title>Node28</title>
<g id="a_node28"><a xlink:href="../../d8/dba/vpiecenode_8cpp.html" target="_top" xlink:title=" ">
<polygon fill="white" stroke="black" points="2859.5,-0.5 2859.5,-30.5 2966.5,-30.5 2966.5,-0.5 2859.5,-0.5"/>
<text text-anchor="start" x="2867.5" y="-18.5" font-family="Helvetica,sans-Serif" font-size="10.00">src/libs/vpatterndb</text>
<text text-anchor="middle" x="2913" y="-7.5" font-family="Helvetica,sans-Serif" font-size="10.00">/vpiecenode.cpp</text>
</a>
</g>
</g>
<!-- Node27&#45;&gt;Node28 -->
<g id="edge29" class="edge">
<title>Node27&#45;&gt;Node28</title>
<path fill="none" stroke="midnightblue" d="M2913,-57.11C2913,-48.15 2913,-38.32 2913,-30.58"/>
<polygon fill="midnightblue" stroke="midnightblue" points="2909.5,-57.4 2913,-67.4 2916.5,-57.4 2909.5,-57.4"/>
</g>
</g>
</svg>
        <g id="navigator" transform="translate(0 0)" fill="#404254">
                <rect fill="#f2f5e9" fill-opacity="0.5" stroke="#606060" stroke-width=".5" x="0" y="0" width="60" height="60"/>
                <use id="zoomplus" xlink:href="#zoomPlus" x="17" y="9" onmousedown="handleZoom(evt,'in')"/>
                <use id="zoomminus" xlink:href="#zoomMin" x="42" y="9" onmousedown="handleZoom(evt,'out')"/>
                <use id="reset" xlink:href="#resetDef" x="30" y="36" onmousedown="handleReset()"/>
                <g id="arrowUp" xlink:href="#dirArrow" transform="translate(30 24)" onmousedown="handlePan(0,-1)">
                  <use xlink:href="#rim" fill="#404040">
                        <set attributeName="fill" to="#808080" begin="arrowUp.mouseover" end="arrowUp.mouseout"/>
                  </use>
                  <path fill="none" stroke="white" stroke-width="1.5" d="M0,-3.0v7 M-2.5,-0.5L0,-3.0L2.5,-0.5"/>
                </g>
                <g id="arrowRight" xlink:href="#dirArrow" transform="rotate(90) translate(36 -43)" onmousedown="handlePan(1,0)">
                  <use xlink:href="#rim" fill="#404040">
                        <set attributeName="fill" to="#808080" begin="arrowRight.mouseover" end="arrowRight.mouseout"/>
                  </use>
                  <path fill="none" stroke="white" stroke-width="1.5" d="M0,-3.0v7 M-2.5,-0.5L0,-3.0L2.5,-0.5"/>
                </g>
                <g id="arrowDown" xlink:href="#dirArrow" transform="rotate(180) translate(-30 -48)" onmousedown="handlePan(0,1)">
                  <use xlink:href="#rim" fill="#404040">
                        <set attributeName="fill" to="#808080" begin="arrowDown.mouseover" end="arrowDown.mouseout"/>
                  </use>
                  <path fill="none" stroke="white" stroke-width="1.5" d="M0,-3.0v7 M-2.5,-0.5L0,-3.0L2.5,-0.5"/>
                </g>
                <g id="arrowLeft" xlink:href="#dirArrow" transform="rotate(270) translate(-36 17)" onmousedown="handlePan(-1,0)">
                  <use xlink:href="#rim" fill="#404040">
                        <set attributeName="fill" to="#808080" begin="arrowLeft.mouseover" end="arrowLeft.mouseout"/>
                  </use>
                  <path fill="none" stroke="white" stroke-width="1.5" d="M0,-3.0v7 M-2.5,-0.5L0,-3.0L2.5,-0.5"/>
                </g>
        </g>
        <svg viewBox="0 0 15 15" width="100%" height="30px" preserveAspectRatio="xMaxYMin meet">
         <g id="arrow_out" transform="scale(0.3 0.3)">
          <a xlink:href="vsettings_8h__dep__incl_org.svg" target="_base">
           <rect id="button" ry="5" rx="5" y="6" x="6" height="38" width="38"
                fill="#f2f5e9" fill-opacity="0.5" stroke="#606060" stroke-width="1.0"/>
           <path id="arrow"
             d="M 11.500037,31.436501 C 11.940474,20.09759 22.043105,11.32322 32.158766,21.979434 L 37.068811,17.246167 C 37.068811,17.246167 37.088388,32 37.088388,32 L 22.160133,31.978069 C 22.160133,31.978069 26.997745,27.140456 26.997745,27.140456 C 18.528582,18.264221 13.291696,25.230495 11.500037,31.436501 z"
             style="fill:#404040;"/>
          </a>
         </g>
        </svg>
</svg>
