<?xml version="1.0" encoding="UTF-8" standalone="no"?>
<!DOCTYPE svg PUBLIC "-//W3C//DTD SVG 1.1//EN"
 "http://www.w3.org/Graphics/SVG/1.1/DTD/svg11.dtd">
<!-- Generated by graphviz version 2.43.0 (0)
 -->
<!-- Title: src/libs/tools/image_item.h Pages: 1 -->
<svg width="1732pt" height="296pt"
 viewBox="0.00 0.00 1732.00 296.00" xmlns="http://www.w3.org/2000/svg" xmlns:xlink="http://www.w3.org/1999/xlink">
<g id="graph0" class="graph" transform="scale(1 1) rotate(0) translate(4 292)">
<title>src/libs/tools/image_item.h</title>
<polygon fill="white" stroke="transparent" points="-4,4 -4,-292 1728,-292 1728,4 -4,4"/>
<!-- Node1 -->
<g id="node1" class="node">
<title>Node1</title>
<g id="a_node1"><a xlink:title=" ">
<polygon fill="#bfbfbf" stroke="black" points="1099,-257.5 1099,-287.5 1211,-287.5 1211,-257.5 1099,-257.5"/>
<text text-anchor="start" x="1107" y="-275.5" font-family="Helvetica,sans-Serif" font-size="10.00">src/libs/tools/image</text>
<text text-anchor="middle" x="1155" y="-264.5" font-family="Helvetica,sans-Serif" font-size="10.00">_item.h</text>
</a>
</g>
</g>
<!-- Node2 -->
<g id="node2" class="node">
<title>Node2</title>
<g id="a_node2"><a xlink:href="../../d0/d89/vabstractpattern_8h.html" target="_top" xlink:title=" ">
<polygon fill="white" stroke="black" points="982.5,-196 982.5,-215 1163.5,-215 1163.5,-196 982.5,-196"/>
<text text-anchor="middle" x="1073" y="-203" font-family="Helvetica,sans-Serif" font-size="10.00">src/libs/ifc/xml/vabstractpattern.h</text>
</a>
</g>
</g>
<!-- Node1&#45;&gt;Node2 -->
<g id="edge1" class="edge">
<title>Node1&#45;&gt;Node2</title>
<path fill="none" stroke="midnightblue" d="M1129.15,-251.01C1113.93,-238.94 1095.46,-224.3 1083.97,-215.19"/>
<polygon fill="midnightblue" stroke="midnightblue" points="1127.2,-253.93 1137.21,-257.4 1131.54,-248.44 1127.2,-253.93"/>
</g>
<!-- Node22 -->
<g id="node22" class="node">
<title>Node22</title>
<g id="a_node22"><a xlink:href="../../df/d1e/image__item_8cpp.html" target="_top" xlink:title=" ">
<polygon fill="white" stroke="black" points="1182,-190.5 1182,-220.5 1294,-220.5 1294,-190.5 1182,-190.5"/>
<text text-anchor="start" x="1190" y="-208.5" font-family="Helvetica,sans-Serif" font-size="10.00">src/libs/tools/image</text>
<text text-anchor="middle" x="1238" y="-197.5" font-family="Helvetica,sans-Serif" font-size="10.00">_item.cpp</text>
</a>
</g>
</g>
<!-- Node1&#45;&gt;Node22 -->
<g id="edge23" class="edge">
<title>Node1&#45;&gt;Node22</title>
<path fill="none" stroke="midnightblue" d="M1180.96,-251.17C1193.65,-241.23 1208.61,-229.51 1220.03,-220.58"/>
<polygon fill="midnightblue" stroke="midnightblue" points="1178.72,-248.47 1173.01,-257.4 1183.04,-253.99 1178.72,-248.47"/>
</g>
<!-- Node3 -->
<g id="node3" class="node">
<title>Node3</title>
<g id="a_node3"><a xlink:href="../../de/d7d/vabstractpattern_8cpp.html" target="_top" xlink:title=" ">
<polygon fill="white" stroke="black" points="370,-129 370,-148 562,-148 562,-129 370,-129"/>
<text text-anchor="middle" x="466" y="-136" font-family="Helvetica,sans-Serif" font-size="10.00">src/libs/ifc/xml/vabstractpattern.cpp</text>
</a>
</g>
</g>
<!-- Node2&#45;&gt;Node3 -->
<g id="edge2" class="edge">
<title>Node2&#45;&gt;Node3</title>
<path fill="none" stroke="midnightblue" d="M971.96,-195.44C870.5,-186.09 709.75,-170.55 571,-154 556.02,-152.21 539.86,-150.08 524.82,-148.01"/>
<polygon fill="midnightblue" stroke="midnightblue" points="971.92,-198.95 982.2,-196.38 972.56,-191.98 971.92,-198.95"/>
</g>
<!-- Node4 -->
<g id="node4" class="node">
<title>Node4</title>
<g id="a_node4"><a xlink:href="../../d2/d47/image__dialog_8cpp.html" target="_top" xlink:title=" ">
<polygon fill="white" stroke="black" points="580,-123.5 580,-153.5 692,-153.5 692,-123.5 580,-123.5"/>
<text text-anchor="start" x="588" y="-141.5" font-family="Helvetica,sans-Serif" font-size="10.00">src/libs/tools/image</text>
<text text-anchor="middle" x="636" y="-130.5" font-family="Helvetica,sans-Serif" font-size="10.00">_dialog.cpp</text>
</a>
</g>
</g>
<!-- Node2&#45;&gt;Node4 -->
<g id="edge3" class="edge">
<title>Node2&#45;&gt;Node4</title>
<path fill="none" stroke="midnightblue" d="M986.16,-194.82C910.56,-185.89 798.16,-171.4 701,-154 698.15,-153.49 695.25,-152.94 692.31,-152.37"/>
<polygon fill="midnightblue" stroke="midnightblue" points="985.77,-198.3 996.11,-195.99 986.59,-191.34 985.77,-198.3"/>
</g>
<!-- Node5 -->
<g id="node5" class="node">
<title>Node5</title>
<g id="a_node5"><a xlink:href="../../d6/de0/vlayoutpiece_8h.html" target="_top" xlink:title=" ">
<polygon fill="white" stroke="black" points="710,-129 710,-148 876,-148 876,-129 710,-129"/>
<text text-anchor="middle" x="793" y="-136" font-family="Helvetica,sans-Serif" font-size="10.00">src/libs/vlayout/vlayoutpiece.h</text>
</a>
</g>
</g>
<!-- Node2&#45;&gt;Node5 -->
<g id="edge4" class="edge">
<title>Node2&#45;&gt;Node5</title>
<path fill="none" stroke="midnightblue" d="M1026.24,-193.64C971.07,-180.84 880.49,-159.81 829.97,-148.08"/>
<polygon fill="midnightblue" stroke="midnightblue" points="1025.57,-197.08 1036.11,-195.94 1027.16,-190.26 1025.57,-197.08"/>
</g>
<!-- Node15 -->
<g id="node15" class="node">
<title>Node15</title>
<g id="a_node15"><a xlink:href="../../d8/d70/vtextmanager_8cpp.html" target="_top" xlink:title=" ">
<polygon fill="white" stroke="black" points="894,-129 894,-148 1076,-148 1076,-129 894,-129"/>
<text text-anchor="middle" x="985" y="-136" font-family="Helvetica,sans-Serif" font-size="10.00">src/libs/vlayout/vtextmanager.cpp</text>
</a>
</g>
</g>
<!-- Node2&#45;&gt;Node15 -->
<g id="edge16" class="edge">
<title>Node2&#45;&gt;Node15</title>
<path fill="none" stroke="midnightblue" d="M1052.78,-189.57C1035.41,-176.74 1010.97,-158.69 996.68,-148.13"/>
<polygon fill="midnightblue" stroke="midnightblue" points="1051.01,-192.61 1061.13,-195.73 1055.17,-186.98 1051.01,-192.61"/>
</g>
<!-- Node16 -->
<g id="node16" class="node">
<title>Node16</title>
<g id="a_node16"><a xlink:href="../../d0/da5/export__format__combobox_8h.html" target="_top" xlink:title=" ">
<polygon fill="white" stroke="black" points="1094.5,-123.5 1094.5,-153.5 1227.5,-153.5 1227.5,-123.5 1094.5,-123.5"/>
<text text-anchor="start" x="1102.5" y="-141.5" font-family="Helvetica,sans-Serif" font-size="10.00">src/libs/vwidgets/export</text>
<text text-anchor="middle" x="1161" y="-130.5" font-family="Helvetica,sans-Serif" font-size="10.00">_format_combobox.h</text>
</a>
</g>
</g>
<!-- Node2&#45;&gt;Node16 -->
<g id="edge17" class="edge">
<title>Node2&#45;&gt;Node16</title>
<path fill="none" stroke="midnightblue" d="M1093.25,-189.54C1107.89,-178.73 1127.56,-164.2 1141.93,-153.59"/>
<polygon fill="midnightblue" stroke="midnightblue" points="1090.83,-186.98 1084.87,-195.73 1094.99,-192.61 1090.83,-186.98"/>
</g>
<!-- Node18 -->
<g id="node18" class="node">
<title>Node18</title>
<g id="a_node18"><a xlink:href="../../d7/df4/group__tablewidgetitem_8cpp.html" target="_top" xlink:title=" ">
<polygon fill="white" stroke="black" points="1245.5,-123.5 1245.5,-153.5 1374.5,-153.5 1374.5,-123.5 1245.5,-123.5"/>
<text text-anchor="start" x="1253.5" y="-141.5" font-family="Helvetica,sans-Serif" font-size="10.00">src/libs/vwidgets/group</text>
<text text-anchor="middle" x="1310" y="-130.5" font-family="Helvetica,sans-Serif" font-size="10.00">_tablewidgetitem.cpp</text>
</a>
</g>
</g>
<!-- Node2&#45;&gt;Node18 -->
<g id="edge19" class="edge">
<title>Node2&#45;&gt;Node18</title>
<path fill="none" stroke="midnightblue" d="M1114.21,-193.2C1154.38,-182.18 1215.59,-165.39 1258.85,-153.53"/>
<polygon fill="midnightblue" stroke="midnightblue" points="1113.19,-189.85 1104.47,-195.87 1115.04,-196.6 1113.19,-189.85"/>
</g>
<!-- Node19 -->
<g id="node19" class="node">
<title>Node19</title>
<g id="a_node19"><a xlink:href="../../d3/d86/page__format__combobox_8h.html" target="_top" xlink:title=" ">
<polygon fill="white" stroke="black" points="1392.5,-123.5 1392.5,-153.5 1517.5,-153.5 1517.5,-123.5 1392.5,-123.5"/>
<text text-anchor="start" x="1400.5" y="-141.5" font-family="Helvetica,sans-Serif" font-size="10.00">src/libs/vwidgets/page</text>
<text text-anchor="middle" x="1455" y="-130.5" font-family="Helvetica,sans-Serif" font-size="10.00">_format_combobox.h</text>
</a>
</g>
</g>
<!-- Node2&#45;&gt;Node19 -->
<g id="edge20" class="edge">
<title>Node2&#45;&gt;Node19</title>
<path fill="none" stroke="midnightblue" d="M1140.08,-194.41C1203.16,-184.73 1300.16,-169.36 1384,-154 1386.72,-153.5 1389.5,-152.98 1392.31,-152.45"/>
<polygon fill="midnightblue" stroke="midnightblue" points="1139.22,-191 1129.87,-195.97 1140.28,-197.92 1139.22,-191"/>
</g>
<!-- Node21 -->
<g id="node21" class="node">
<title>Node21</title>
<g id="a_node21"><a xlink:href="../../de/d22/vsimplecurve_8cpp.html" target="_top" xlink:title=" ">
<polygon fill="white" stroke="black" points="1536,-129 1536,-148 1724,-148 1724,-129 1536,-129"/>
<text text-anchor="middle" x="1630" y="-136" font-family="Helvetica,sans-Serif" font-size="10.00">src/libs/vwidgets/vsimplecurve.cpp</text>
</a>
</g>
</g>
<!-- Node2&#45;&gt;Node21 -->
<g id="edge22" class="edge">
<title>Node2&#45;&gt;Node21</title>
<path fill="none" stroke="midnightblue" d="M1138.67,-194.57C1150.11,-192.96 1161.89,-191.37 1173,-190 1329.96,-170.65 1370,-173.03 1527,-154 1541.7,-152.22 1557.55,-150.09 1572.31,-148.02"/>
<polygon fill="midnightblue" stroke="midnightblue" points="1138.15,-191.11 1128.74,-195.99 1139.14,-198.04 1138.15,-191.11"/>
</g>
<!-- Node6 -->
<g id="node6" class="node">
<title>Node6</title>
<g id="a_node6"><a xlink:href="../../dd/d66/vdxfengine_8cpp.html" target="_top" xlink:title=" ">
<polygon fill="white" stroke="black" points="0,-62 0,-81 154,-81 154,-62 0,-62"/>
<text text-anchor="middle" x="77" y="-69" font-family="Helvetica,sans-Serif" font-size="10.00">src/libs/vdxf/vdxfengine.cpp</text>
</a>
</g>
</g>
<!-- Node5&#45;&gt;Node6 -->
<g id="edge5" class="edge">
<title>Node5&#45;&gt;Node6</title>
<path fill="none" stroke="midnightblue" d="M734.02,-127.4C723.07,-125.76 711.7,-124.2 701,-123 462.84,-96.32 401.01,-114.96 163,-87 149.77,-85.45 135.47,-83.25 122.4,-81.03"/>
<polygon fill="midnightblue" stroke="midnightblue" points="733.51,-130.87 743.93,-128.93 734.58,-123.95 733.51,-130.87"/>
</g>
<!-- Node7 -->
<g id="node7" class="node">
<title>Node7</title>
<g id="a_node7"><a xlink:href="../../de/da8/vbank_8cpp.html" target="_top" xlink:title=" ">
<polygon fill="white" stroke="black" points="172,-62 172,-81 316,-81 316,-62 172,-62"/>
<text text-anchor="middle" x="244" y="-69" font-family="Helvetica,sans-Serif" font-size="10.00">src/libs/vlayout/vbank.cpp</text>
</a>
</g>
</g>
<!-- Node5&#45;&gt;Node7 -->
<g id="edge6" class="edge">
<title>Node5&#45;&gt;Node7</title>
<path fill="none" stroke="midnightblue" d="M732.53,-127.43C722.03,-125.84 711.21,-124.29 701,-123 534.45,-101.92 491.32,-109.81 325,-87 312.97,-85.35 300,-83.2 288.04,-81.06"/>
<polygon fill="midnightblue" stroke="midnightblue" points="732.05,-130.9 742.46,-128.97 733.12,-123.98 732.05,-130.9"/>
</g>
<!-- Node8 -->
<g id="node8" class="node">
<title>Node8</title>
<g id="a_node8"><a xlink:href="../../df/d5d/vcontour_8cpp.html" target="_top" xlink:title=" ">
<polygon fill="white" stroke="black" points="334,-62 334,-81 490,-81 490,-62 334,-62"/>
<text text-anchor="middle" x="412" y="-69" font-family="Helvetica,sans-Serif" font-size="10.00">src/libs/vlayout/vcontour.cpp</text>
</a>
</g>
</g>
<!-- Node5&#45;&gt;Node8 -->
<g id="edge7" class="edge">
<title>Node5&#45;&gt;Node8</title>
<path fill="none" stroke="midnightblue" d="M732.59,-127.19C657.77,-114.43 531.67,-92.92 462.01,-81.03"/>
<polygon fill="midnightblue" stroke="midnightblue" points="732.35,-130.7 742.8,-128.94 733.53,-123.8 732.35,-130.7"/>
</g>
<!-- Node9 -->
<g id="node9" class="node">
<title>Node9</title>
<g id="a_node9"><a xlink:href="../../d3/d39/vlayoutgenerator_8cpp.html" target="_top" xlink:title=" ">
<polygon fill="white" stroke="black" points="508.5,-62 508.5,-81 705.5,-81 705.5,-62 508.5,-62"/>
<text text-anchor="middle" x="607" y="-69" font-family="Helvetica,sans-Serif" font-size="10.00">src/libs/vlayout/vlayoutgenerator.cpp</text>
</a>
</g>
</g>
<!-- Node5&#45;&gt;Node9 -->
<g id="edge8" class="edge">
<title>Node5&#45;&gt;Node9</title>
<path fill="none" stroke="midnightblue" d="M758.48,-125.44C721.58,-112.54 664.01,-92.42 631.51,-81.06"/>
<polygon fill="midnightblue" stroke="midnightblue" points="757.71,-128.87 768.3,-128.87 760.02,-122.27 757.71,-128.87"/>
</g>
<!-- Node10 -->
<g id="node10" class="node">
<title>Node10</title>
<g id="a_node10"><a xlink:href="../../d1/dd1/vlayoutpaper_8cpp.html" target="_top" xlink:title=" ">
<polygon fill="white" stroke="black" points="761,-0.5 761,-19.5 939,-19.5 939,-0.5 761,-0.5"/>
<text text-anchor="middle" x="850" y="-7.5" font-family="Helvetica,sans-Serif" font-size="10.00">src/libs/vlayout/vlayoutpaper.cpp</text>
</a>
</g>
</g>
<!-- Node5&#45;&gt;Node10 -->
<g id="edge9" class="edge">
<title>Node5&#45;&gt;Node10</title>
<path fill="none" stroke="midnightblue" d="M775.35,-121.44C759.03,-104.58 739.22,-77.58 753,-56 765.09,-37.07 787.42,-25.98 807.61,-19.55"/>
<polygon fill="midnightblue" stroke="midnightblue" points="773.32,-124.35 782.92,-128.83 778.21,-119.34 773.32,-124.35"/>
</g>
<!-- Node11 -->
<g id="node11" class="node">
<title>Node11</title>
<g id="a_node11"><a xlink:href="../../d2/d2d/vlayoutpaper__p_8h.html" target="_top" xlink:title=" ">
<polygon fill="white" stroke="black" points="762.5,-62 762.5,-81 941.5,-81 941.5,-62 762.5,-62"/>
<text text-anchor="middle" x="852" y="-69" font-family="Helvetica,sans-Serif" font-size="10.00">src/libs/vlayout/vlayoutpaper_p.h</text>
</a>
</g>
</g>
<!-- Node5&#45;&gt;Node11 -->
<g id="edge10" class="edge">
<title>Node5&#45;&gt;Node11</title>
<path fill="none" stroke="midnightblue" d="M807.85,-121.13C819.39,-108.42 834.94,-91.3 844.17,-81.13"/>
<polygon fill="midnightblue" stroke="midnightblue" points="805.09,-118.98 800.96,-128.73 810.27,-123.68 805.09,-118.98"/>
</g>
<!-- Node12 -->
<g id="node12" class="node">
<title>Node12</title>
<g id="a_node12"><a xlink:href="../../db/d5c/vposition_8h.html" target="_top" xlink:title=" ">
<polygon fill="white" stroke="black" points="960,-62 960,-81 1108,-81 1108,-62 960,-62"/>
<text text-anchor="middle" x="1034" y="-69" font-family="Helvetica,sans-Serif" font-size="10.00">src/libs/vlayout/vposition.h</text>
</a>
</g>
</g>
<!-- Node5&#45;&gt;Node12 -->
<g id="edge12" class="edge">
<title>Node5&#45;&gt;Node12</title>
<path fill="none" stroke="midnightblue" d="M834.7,-126.25C882.34,-113.41 959.23,-92.67 1002.25,-81.06"/>
<polygon fill="midnightblue" stroke="midnightblue" points="833.75,-122.89 825,-128.87 835.57,-129.64 833.75,-122.89"/>
</g>
<!-- Node14 -->
<g id="node14" class="node">
<title>Node14</title>
<g id="a_node14"><a xlink:href="../../dd/d70/vlayoutpiece_8cpp.html" target="_top" xlink:title=" ">
<polygon fill="white" stroke="black" points="1126.5,-62 1126.5,-81 1303.5,-81 1303.5,-62 1126.5,-62"/>
<text text-anchor="middle" x="1215" y="-69" font-family="Helvetica,sans-Serif" font-size="10.00">src/libs/vlayout/vlayoutpiece.cpp</text>
</a>
</g>
</g>
<!-- Node5&#45;&gt;Node14 -->
<g id="edge15" class="edge">
<title>Node5&#45;&gt;Node14</title>
<path fill="none" stroke="midnightblue" d="M857.06,-127.37C866.43,-125.89 875.97,-124.4 885,-123 981.22,-108.06 1093.27,-90.98 1158.93,-81"/>
<polygon fill="midnightblue" stroke="midnightblue" points="856.33,-123.94 846.99,-128.95 857.41,-130.85 856.33,-123.94"/>
</g>
<!-- Node11&#45;&gt;Node10 -->
<g id="edge11" class="edge">
<title>Node11&#45;&gt;Node10</title>
<path fill="none" stroke="midnightblue" d="M851.37,-51.82C851.01,-41 850.57,-27.9 850.29,-19.51"/>
<polygon fill="midnightblue" stroke="midnightblue" points="847.88,-52.1 851.71,-61.98 854.88,-51.86 847.88,-52.1"/>
</g>
<!-- Node12&#45;&gt;Node10 -->
<g id="edge13" class="edge">
<title>Node12&#45;&gt;Node10</title>
<path fill="none" stroke="midnightblue" d="M998.07,-58.88C962.3,-47.32 908.26,-29.84 876.31,-19.51"/>
<polygon fill="midnightblue" stroke="midnightblue" points="997.05,-62.23 1007.64,-61.98 999.2,-55.57 997.05,-62.23"/>
</g>
<!-- Node13 -->
<g id="node13" class="node">
<title>Node13</title>
<g id="a_node13"><a xlink:href="../../df/d76/vposition_8cpp.html" target="_top" xlink:title=" ">
<polygon fill="white" stroke="black" points="956.5,-0.5 956.5,-19.5 1115.5,-19.5 1115.5,-0.5 956.5,-0.5"/>
<text text-anchor="middle" x="1036" y="-7.5" font-family="Helvetica,sans-Serif" font-size="10.00">src/libs/vlayout/vposition.cpp</text>
</a>
</g>
</g>
<!-- Node12&#45;&gt;Node13 -->
<g id="edge14" class="edge">
<title>Node12&#45;&gt;Node13</title>
<path fill="none" stroke="midnightblue" d="M1034.63,-51.82C1034.99,-41 1035.43,-27.9 1035.71,-19.51"/>
<polygon fill="midnightblue" stroke="midnightblue" points="1031.12,-51.86 1034.29,-61.98 1038.12,-52.1 1031.12,-51.86"/>
</g>
<!-- Node17 -->
<g id="node17" class="node">
<title>Node17</title>
<g id="a_node17"><a xlink:href="../../df/d40/export__format__combobox_8cpp.html" target="_top" xlink:title=" ">
<polygon fill="white" stroke="black" points="1321.5,-56.5 1321.5,-86.5 1454.5,-86.5 1454.5,-56.5 1321.5,-56.5"/>
<text text-anchor="start" x="1329.5" y="-74.5" font-family="Helvetica,sans-Serif" font-size="10.00">src/libs/vwidgets/export</text>
<text text-anchor="middle" x="1388" y="-63.5" font-family="Helvetica,sans-Serif" font-size="10.00">_format_combobox.cpp</text>
</a>
</g>
</g>
<!-- Node16&#45;&gt;Node17 -->
<g id="edge18" class="edge">
<title>Node16&#45;&gt;Node17</title>
<path fill="none" stroke="midnightblue" d="M1219.62,-120.71C1256.56,-110.14 1303.71,-96.63 1338.72,-86.61"/>
<polygon fill="midnightblue" stroke="midnightblue" points="1218.63,-117.36 1209.98,-123.48 1220.55,-124.09 1218.63,-117.36"/>
</g>
<!-- Node20 -->
<g id="node20" class="node">
<title>Node20</title>
<g id="a_node20"><a xlink:href="../../d2/d28/page__format__combobox_8cpp.html" target="_top" xlink:title=" ">
<polygon fill="white" stroke="black" points="1472.5,-56.5 1472.5,-86.5 1603.5,-86.5 1603.5,-56.5 1472.5,-56.5"/>
<text text-anchor="start" x="1480.5" y="-74.5" font-family="Helvetica,sans-Serif" font-size="10.00">src/libs/vwidgets/page</text>
<text text-anchor="middle" x="1538" y="-63.5" font-family="Helvetica,sans-Serif" font-size="10.00">_format_combobox.cpp</text>
</a>
</g>
</g>
<!-- Node19&#45;&gt;Node20 -->
<g id="edge21" class="edge">
<title>Node19&#45;&gt;Node20</title>
<path fill="none" stroke="midnightblue" d="M1480.96,-117.17C1493.65,-107.23 1508.61,-95.51 1520.03,-86.58"/>
<polygon fill="midnightblue" stroke="midnightblue" points="1478.72,-114.47 1473.01,-123.4 1483.04,-119.99 1478.72,-114.47"/>
</g>
</g>
</svg>
