<?xml version="1.0" encoding="UTF-8" standalone="no"?>
<!DOCTYPE svg PUBLIC "-//W3C//DTD SVG 1.1//EN"
 "http://www.w3.org/Graphics/SVG/1.1/DTD/svg11.dtd">
<!-- Generated by graphviz version 2.43.0 (0)
 -->
<!-- Title: UnionToolInitData Pages: 1 -->
<svg width="1407pt" height="1602pt"
 viewBox="0.00 0.00 1406.50 1602.00" xmlns="http://www.w3.org/2000/svg" xmlns:xlink="http://www.w3.org/1999/xlink">
<g id="graph0" class="graph" transform="scale(1 1) rotate(0) translate(4 1598)">
<title>UnionToolInitData</title>
<polygon fill="white" stroke="transparent" points="-4,4 -4,-1598 1402.5,-1598 1402.5,4 -4,4"/>
<!-- Node1 -->
<g id="node1" class="node">
<title>Node1</title>
<g id="a_node1"><a xlink:title=" ">
<polygon fill="#bfbfbf" stroke="black" points="442,-0.5 442,-123.5 564,-123.5 564,-0.5 442,-0.5"/>
<text text-anchor="middle" x="503" y="-111.5" font-family="Helvetica,sans-Serif" font-size="10.00">UnionToolInitData</text>
<polyline fill="none" stroke="black" points="442,-104.5 564,-104.5 "/>
<text text-anchor="start" x="450" y="-92.5" font-family="Helvetica,sans-Serif" font-size="10.00">+ piece1_Id</text>
<text text-anchor="start" x="450" y="-81.5" font-family="Helvetica,sans-Serif" font-size="10.00">+ piece2_Id</text>
<text text-anchor="start" x="450" y="-70.5" font-family="Helvetica,sans-Serif" font-size="10.00">+ piece1_Index</text>
<text text-anchor="start" x="450" y="-59.5" font-family="Helvetica,sans-Serif" font-size="10.00">+ piece2_Index</text>
<text text-anchor="start" x="450" y="-48.5" font-family="Helvetica,sans-Serif" font-size="10.00">+ parse</text>
<text text-anchor="start" x="450" y="-37.5" font-family="Helvetica,sans-Serif" font-size="10.00">+ typeCreation</text>
<text text-anchor="start" x="450" y="-26.5" font-family="Helvetica,sans-Serif" font-size="10.00">+ retainPieces</text>
<polyline fill="none" stroke="black" points="442,-19.5 564,-19.5 "/>
<text text-anchor="start" x="450" y="-7.5" font-family="Helvetica,sans-Serif" font-size="10.00">+ UnionToolInitData()</text>
</a>
</g>
</g>
<!-- Node2 -->
<g id="node2" class="node">
<title>Node2</title>
<g id="a_node2"><a xlink:href="../../d7/df5/classVMainGraphicsScene.html" target="_top" xlink:title="The VMainGraphicsScene class main scene.">
<polygon fill="white" stroke="black" points="111.5,-375 111.5,-773 274.5,-773 274.5,-375 111.5,-375"/>
<text text-anchor="middle" x="193" y="-761" font-family="Helvetica,sans-Serif" font-size="10.00">VMainGraphicsScene</text>
<polyline fill="none" stroke="black" points="111.5,-754 274.5,-754 "/>
<text text-anchor="start" x="119.5" y="-742" font-family="Helvetica,sans-Serif" font-size="10.00">&#45; horScrollBar</text>
<text text-anchor="start" x="119.5" y="-731" font-family="Helvetica,sans-Serif" font-size="10.00">&#45; verScrollBar</text>
<text text-anchor="start" x="119.5" y="-720" font-family="Helvetica,sans-Serif" font-size="10.00">&#45; m_previousTransform</text>
<text text-anchor="start" x="119.5" y="-709" font-family="Helvetica,sans-Serif" font-size="10.00">&#45; m_currentTransform</text>
<text text-anchor="start" x="119.5" y="-698" font-family="Helvetica,sans-Serif" font-size="10.00">&#45; scenePos</text>
<polyline fill="none" stroke="black" points="111.5,-691 274.5,-691 "/>
<text text-anchor="start" x="119.5" y="-679" font-family="Helvetica,sans-Serif" font-size="10.00">+ VMainGraphicsScene()</text>
<text text-anchor="start" x="119.5" y="-668" font-family="Helvetica,sans-Serif" font-size="10.00">+ VMainGraphicsScene()</text>
<text text-anchor="start" x="119.5" y="-657" font-family="Helvetica,sans-Serif" font-size="10.00">+ getHorScrollBar()</text>
<text text-anchor="start" x="119.5" y="-646" font-family="Helvetica,sans-Serif" font-size="10.00">+ setHorScrollBar()</text>
<text text-anchor="start" x="119.5" y="-635" font-family="Helvetica,sans-Serif" font-size="10.00">+ getVerScrollBar()</text>
<text text-anchor="start" x="119.5" y="-624" font-family="Helvetica,sans-Serif" font-size="10.00">+ setVerScrollBar()</text>
<text text-anchor="start" x="119.5" y="-613" font-family="Helvetica,sans-Serif" font-size="10.00">+ transform()</text>
<text text-anchor="start" x="119.5" y="-602" font-family="Helvetica,sans-Serif" font-size="10.00">+ setCurrentTransform()</text>
<text text-anchor="start" x="119.5" y="-591" font-family="Helvetica,sans-Serif" font-size="10.00">+ swapTransforms()</text>
<text text-anchor="start" x="119.5" y="-580" font-family="Helvetica,sans-Serif" font-size="10.00">+ setToolsDisabled()</text>
<text text-anchor="start" x="119.5" y="-569" font-family="Helvetica,sans-Serif" font-size="10.00">+ getScenePos()</text>
<text text-anchor="start" x="119.5" y="-558" font-family="Helvetica,sans-Serif" font-size="10.00">+ visibleItemsBoundingRect()</text>
<text text-anchor="start" x="119.5" y="-547" font-family="Helvetica,sans-Serif" font-size="10.00">+ initializeOrigins()</text>
<text text-anchor="start" x="119.5" y="-536" font-family="Helvetica,sans-Serif" font-size="10.00">+ setOriginsVisible()</text>
<text text-anchor="start" x="119.5" y="-525" font-family="Helvetica,sans-Serif" font-size="10.00">+ chosenItem()</text>
<text text-anchor="start" x="119.5" y="-514" font-family="Helvetica,sans-Serif" font-size="10.00">+ SelectedItem()</text>
<text text-anchor="start" x="119.5" y="-503" font-family="Helvetica,sans-Serif" font-size="10.00">+ EnableItemMove()</text>
<text text-anchor="start" x="119.5" y="-492" font-family="Helvetica,sans-Serif" font-size="10.00">+ enablePiecesMode()</text>
<text text-anchor="start" x="119.5" y="-481" font-family="Helvetica,sans-Serif" font-size="10.00">+ ItemsSelection()</text>
<text text-anchor="start" x="119.5" y="-470" font-family="Helvetica,sans-Serif" font-size="10.00">+ HighlightItem()</text>
<text text-anchor="start" x="119.5" y="-459" font-family="Helvetica,sans-Serif" font-size="10.00">+ ToggleLabelSelection()</text>
<text text-anchor="start" x="119.5" y="-448" font-family="Helvetica,sans-Serif" font-size="10.00">+ TogglePointSelection()</text>
<text text-anchor="start" x="119.5" y="-437" font-family="Helvetica,sans-Serif" font-size="10.00">+ ToggleLineSelection()</text>
<text text-anchor="start" x="119.5" y="-426" font-family="Helvetica,sans-Serif" font-size="10.00">+ ToggleArcSelection()</text>
<text text-anchor="start" x="119.5" y="-415" font-family="Helvetica,sans-Serif" font-size="10.00">and 16 more...</text>
<text text-anchor="start" x="119.5" y="-404" font-family="Helvetica,sans-Serif" font-size="10.00"># mouseMoveEvent()</text>
<text text-anchor="start" x="119.5" y="-393" font-family="Helvetica,sans-Serif" font-size="10.00"># mousePressEvent()</text>
<text text-anchor="start" x="119.5" y="-382" font-family="Helvetica,sans-Serif" font-size="10.00"># mouseReleaseEvent()</text>
</a>
</g>
</g>
<!-- Node2&#45;&gt;Node1 -->
<g id="edge1" class="edge">
<title>Node2&#45;&gt;Node1</title>
<path fill="none" stroke="#404040" d="M274.57,-393.85C310.37,-322.12 355.33,-240.24 404,-171 413.03,-158.15 423.47,-145.21 434.11,-132.98"/>
<polygon fill="none" stroke="#404040" points="434.3,-132.76 435.29,-125.62 442.26,-123.78 441.27,-130.92 434.3,-132.76"/>
<text text-anchor="middle" x="447" y="-145" font-family="Helvetica,sans-Serif" font-size="10.00"> +scene</text>
</g>
<!-- Node3 -->
<g id="node3" class="node">
<title>Node3</title>
<g id="a_node3"><a xlink:title=" ">
<polygon fill="white" stroke="#bfbfbf" points="0,-1228 0,-1285 96,-1285 96,-1228 0,-1228"/>
<text text-anchor="middle" x="48" y="-1273" font-family="Helvetica,sans-Serif" font-size="10.00">QGraphicsScene</text>
<polyline fill="none" stroke="#bfbfbf" points="0,-1266 96,-1266 "/>
<text text-anchor="middle" x="48" y="-1254" font-family="Helvetica,sans-Serif" font-size="10.00"> </text>
<polyline fill="none" stroke="#bfbfbf" points="0,-1247 96,-1247 "/>
<text text-anchor="middle" x="48" y="-1235" font-family="Helvetica,sans-Serif" font-size="10.00"> </text>
</a>
</g>
</g>
<!-- Node3&#45;&gt;Node2 -->
<g id="edge2" class="edge">
<title>Node3&#45;&gt;Node2</title>
<path fill="none" stroke="midnightblue" d="M55.99,-1217.98C73.73,-1134.76 117.43,-929.67 150.74,-773.31"/>
<polygon fill="none" stroke="midnightblue" points="52.52,-1217.47 53.86,-1227.98 59.37,-1218.93 52.52,-1217.47"/>
</g>
<!-- Node4 -->
<g id="node4" class="node">
<title>Node4</title>
<g id="a_node4"><a xlink:href="../../d5/dc2/classQVector.html" target="_top" xlink:title=" ">
<polygon fill="white" stroke="black" points="114,-1228 114,-1285 272,-1285 272,-1228 114,-1228"/>
<text text-anchor="middle" x="193" y="-1273" font-family="Helvetica,sans-Serif" font-size="10.00">QVector&lt; QGraphicsItem * &gt;</text>
<polyline fill="none" stroke="black" points="114,-1266 272,-1266 "/>
<text text-anchor="middle" x="193" y="-1254" font-family="Helvetica,sans-Serif" font-size="10.00"> </text>
<polyline fill="none" stroke="black" points="114,-1247 272,-1247 "/>
<text text-anchor="middle" x="193" y="-1235" font-family="Helvetica,sans-Serif" font-size="10.00"> </text>
</a>
</g>
</g>
<!-- Node4&#45;&gt;Node2 -->
<g id="edge3" class="edge">
<title>Node4&#45;&gt;Node2</title>
<path fill="none" stroke="#404040" d="M193,-1227.98C193,-1154.24 193,-946.83 193,-785.35"/>
<polygon fill="none" stroke="#404040" points="193,-785.31 189,-779.31 193,-773.31 197,-779.31 193,-785.31"/>
<text text-anchor="middle" x="213" y="-998" font-family="Helvetica,sans-Serif" font-size="10.00"> &#45;origins</text>
</g>
<!-- Node5 -->
<g id="node5" class="node">
<title>Node5</title>
<g id="a_node5"><a xlink:href="../../d2/d83/classVContainer.html" target="_top" xlink:title="The VContainer class container of all variables.">
<polygon fill="white" stroke="black" points="413.5,-358.5 413.5,-789.5 592.5,-789.5 592.5,-358.5 413.5,-358.5"/>
<text text-anchor="middle" x="503" y="-777.5" font-family="Helvetica,sans-Serif" font-size="10.00">VContainer</text>
<polyline fill="none" stroke="black" points="413.5,-770.5 592.5,-770.5 "/>
<text text-anchor="start" x="421.5" y="-758.5" font-family="Helvetica,sans-Serif" font-size="10.00">&#45; d</text>
<text text-anchor="start" x="421.5" y="-747.5" font-family="Helvetica,sans-Serif" font-size="10.00">&#45; _id</text>
<text text-anchor="start" x="421.5" y="-736.5" font-family="Helvetica,sans-Serif" font-size="10.00">&#45; _size</text>
<text text-anchor="start" x="421.5" y="-725.5" font-family="Helvetica,sans-Serif" font-size="10.00">&#45; _height</text>
<text text-anchor="start" x="421.5" y="-714.5" font-family="Helvetica,sans-Serif" font-size="10.00">&#45; uniqueNames</text>
<polyline fill="none" stroke="black" points="413.5,-707.5 592.5,-707.5 "/>
<text text-anchor="start" x="421.5" y="-695.5" font-family="Helvetica,sans-Serif" font-size="10.00">+ VContainer()</text>
<text text-anchor="start" x="421.5" y="-684.5" font-family="Helvetica,sans-Serif" font-size="10.00">+ VContainer()</text>
<text text-anchor="start" x="421.5" y="-673.5" font-family="Helvetica,sans-Serif" font-size="10.00">+ ~VContainer()</text>
<text text-anchor="start" x="421.5" y="-662.5" font-family="Helvetica,sans-Serif" font-size="10.00">+ operator=()</text>
<text text-anchor="start" x="421.5" y="-651.5" font-family="Helvetica,sans-Serif" font-size="10.00">+ Swap()</text>
<text text-anchor="start" x="421.5" y="-640.5" font-family="Helvetica,sans-Serif" font-size="10.00">+ GeometricObject()</text>
<text text-anchor="start" x="421.5" y="-629.5" font-family="Helvetica,sans-Serif" font-size="10.00">+ GetGObject()</text>
<text text-anchor="start" x="421.5" y="-618.5" font-family="Helvetica,sans-Serif" font-size="10.00">+ GetPiece()</text>
<text text-anchor="start" x="421.5" y="-607.5" font-family="Helvetica,sans-Serif" font-size="10.00">+ GetPiecePath()</text>
<text text-anchor="start" x="421.5" y="-596.5" font-family="Helvetica,sans-Serif" font-size="10.00">+ GetVariable()</text>
<text text-anchor="start" x="421.5" y="-585.5" font-family="Helvetica,sans-Serif" font-size="10.00">and 34 more...</text>
<text text-anchor="start" x="421.5" y="-574.5" font-family="Helvetica,sans-Serif" font-size="10.00">+ GetFakeGObject()</text>
<text text-anchor="start" x="421.5" y="-563.5" font-family="Helvetica,sans-Serif" font-size="10.00">+ getId()</text>
<text text-anchor="start" x="421.5" y="-552.5" font-family="Helvetica,sans-Serif" font-size="10.00">+ getNextId()</text>
<text text-anchor="start" x="421.5" y="-541.5" font-family="Helvetica,sans-Serif" font-size="10.00">+ UpdateId()</text>
<text text-anchor="start" x="421.5" y="-530.5" font-family="Helvetica,sans-Serif" font-size="10.00">+ ClearUniqueNames()</text>
<text text-anchor="start" x="421.5" y="-519.5" font-family="Helvetica,sans-Serif" font-size="10.00">+ ClearUniqueIncrementNames()</text>
<text text-anchor="start" x="421.5" y="-508.5" font-family="Helvetica,sans-Serif" font-size="10.00">+ setSize()</text>
<text text-anchor="start" x="421.5" y="-497.5" font-family="Helvetica,sans-Serif" font-size="10.00">+ setHeight()</text>
<text text-anchor="start" x="421.5" y="-486.5" font-family="Helvetica,sans-Serif" font-size="10.00">+ size()</text>
<text text-anchor="start" x="421.5" y="-475.5" font-family="Helvetica,sans-Serif" font-size="10.00">+ rsize()</text>
<text text-anchor="start" x="421.5" y="-464.5" font-family="Helvetica,sans-Serif" font-size="10.00">+ height()</text>
<text text-anchor="start" x="421.5" y="-453.5" font-family="Helvetica,sans-Serif" font-size="10.00">+ rheight()</text>
<text text-anchor="start" x="421.5" y="-442.5" font-family="Helvetica,sans-Serif" font-size="10.00">+ IsUnique()</text>
<text text-anchor="start" x="421.5" y="-431.5" font-family="Helvetica,sans-Serif" font-size="10.00">+ AllUniqueNames()</text>
<text text-anchor="start" x="421.5" y="-420.5" font-family="Helvetica,sans-Serif" font-size="10.00">&#45; AddCurve()</text>
<text text-anchor="start" x="421.5" y="-409.5" font-family="Helvetica,sans-Serif" font-size="10.00">&#45; qHash()</text>
<text text-anchor="start" x="421.5" y="-398.5" font-family="Helvetica,sans-Serif" font-size="10.00">&#45; GetObject()</text>
<text text-anchor="start" x="421.5" y="-387.5" font-family="Helvetica,sans-Serif" font-size="10.00">&#45; UpdateObject()</text>
<text text-anchor="start" x="421.5" y="-376.5" font-family="Helvetica,sans-Serif" font-size="10.00">&#45; DataVar()</text>
<text text-anchor="start" x="421.5" y="-365.5" font-family="Helvetica,sans-Serif" font-size="10.00">&#45; AddObject()</text>
</a>
</g>
</g>
<!-- Node5&#45;&gt;Node1 -->
<g id="edge4" class="edge">
<title>Node5&#45;&gt;Node1</title>
<path fill="none" stroke="#404040" d="M503,-358.19C503,-278.64 503,-193.74 503,-135.51"/>
<polygon fill="none" stroke="#404040" points="503,-135.5 499,-129.5 503,-123.5 507,-129.5 503,-135.5"/>
<text text-anchor="middle" x="520" y="-145" font-family="Helvetica,sans-Serif" font-size="10.00"> +data</text>
</g>
<!-- Node6 -->
<g id="node6" class="node">
<title>Node6</title>
<g id="a_node6"><a xlink:href="../../d8/dba/classVAbstractPattern.html" target="_top" xlink:title=" ">
<polygon fill="white" stroke="black" points="672,-171.5 672,-976.5 834,-976.5 834,-171.5 672,-171.5"/>
<text text-anchor="middle" x="753" y="-964.5" font-family="Helvetica,sans-Serif" font-size="10.00">VAbstractPattern</text>
<polyline fill="none" stroke="black" points="672,-957.5 834,-957.5 "/>
<text text-anchor="start" x="680" y="-945.5" font-family="Helvetica,sans-Serif" font-size="10.00">+ TagPattern</text>
<text text-anchor="start" x="680" y="-934.5" font-family="Helvetica,sans-Serif" font-size="10.00">+ TagCalculation</text>
<text text-anchor="start" x="680" y="-923.5" font-family="Helvetica,sans-Serif" font-size="10.00">+ TagModeling</text>
<text text-anchor="start" x="680" y="-912.5" font-family="Helvetica,sans-Serif" font-size="10.00">+ TagPieces</text>
<text text-anchor="start" x="680" y="-901.5" font-family="Helvetica,sans-Serif" font-size="10.00">+ TagPiece</text>
<text text-anchor="start" x="680" y="-890.5" font-family="Helvetica,sans-Serif" font-size="10.00">+ TagDescription</text>
<text text-anchor="start" x="680" y="-879.5" font-family="Helvetica,sans-Serif" font-size="10.00">+ TagImage</text>
<text text-anchor="start" x="680" y="-868.5" font-family="Helvetica,sans-Serif" font-size="10.00">+ TagNotes</text>
<text text-anchor="start" x="680" y="-857.5" font-family="Helvetica,sans-Serif" font-size="10.00">+ TagMeasurements</text>
<text text-anchor="start" x="680" y="-846.5" font-family="Helvetica,sans-Serif" font-size="10.00">+ TagIncrements</text>
<text text-anchor="start" x="680" y="-835.5" font-family="Helvetica,sans-Serif" font-size="10.00">and 142 more...</text>
<text text-anchor="start" x="680" y="-824.5" font-family="Helvetica,sans-Serif" font-size="10.00"># activeDraftBlock</text>
<text text-anchor="start" x="680" y="-813.5" font-family="Helvetica,sans-Serif" font-size="10.00"># m_DefaultLineColor</text>
<text text-anchor="start" x="680" y="-802.5" font-family="Helvetica,sans-Serif" font-size="10.00"># m_DefaultLineWeight</text>
<text text-anchor="start" x="680" y="-791.5" font-family="Helvetica,sans-Serif" font-size="10.00"># m_DefaultLineType</text>
<text text-anchor="start" x="680" y="-780.5" font-family="Helvetica,sans-Serif" font-size="10.00"># defaultBasePoint</text>
<text text-anchor="start" x="680" y="-769.5" font-family="Helvetica,sans-Serif" font-size="10.00"># lastSavedExportFormat</text>
<text text-anchor="start" x="680" y="-758.5" font-family="Helvetica,sans-Serif" font-size="10.00"># cursor</text>
<text text-anchor="start" x="680" y="-747.5" font-family="Helvetica,sans-Serif" font-size="10.00"># patternPieces</text>
<text text-anchor="start" x="680" y="-736.5" font-family="Helvetica,sans-Serif" font-size="10.00"># modified</text>
<text text-anchor="start" x="680" y="-725.5" font-family="Helvetica,sans-Serif" font-size="10.00"># patternLabelWasChanged</text>
<polyline fill="none" stroke="black" points="672,-718.5 834,-718.5 "/>
<text text-anchor="start" x="680" y="-706.5" font-family="Helvetica,sans-Serif" font-size="10.00">+ VAbstractPattern()</text>
<text text-anchor="start" x="680" y="-695.5" font-family="Helvetica,sans-Serif" font-size="10.00">+ ~VAbstractPattern()</text>
<text text-anchor="start" x="680" y="-684.5" font-family="Helvetica,sans-Serif" font-size="10.00">+ ListMeasurements()</text>
<text text-anchor="start" x="680" y="-673.5" font-family="Helvetica,sans-Serif" font-size="10.00">+ ListExpressions()</text>
<text text-anchor="start" x="680" y="-662.5" font-family="Helvetica,sans-Serif" font-size="10.00">+ ListIncrementExpressions()</text>
<text text-anchor="start" x="680" y="-651.5" font-family="Helvetica,sans-Serif" font-size="10.00">+ CreateEmptyFile()</text>
<text text-anchor="start" x="680" y="-640.5" font-family="Helvetica,sans-Serif" font-size="10.00">+ changeActiveDraftBlock()</text>
<text text-anchor="start" x="680" y="-629.5" font-family="Helvetica,sans-Serif" font-size="10.00">+ getActiveDraftBlockName()</text>
<text text-anchor="start" x="680" y="-618.5" font-family="Helvetica,sans-Serif" font-size="10.00">+ draftBlockNameExists()</text>
<text text-anchor="start" x="680" y="-607.5" font-family="Helvetica,sans-Serif" font-size="10.00">+ draftBlockCount()</text>
<text text-anchor="start" x="680" y="-596.5" font-family="Helvetica,sans-Serif" font-size="10.00">and 96 more...</text>
<text text-anchor="start" x="680" y="-585.5" font-family="Helvetica,sans-Serif" font-size="10.00">+ getTool()</text>
<text text-anchor="start" x="680" y="-574.5" font-family="Helvetica,sans-Serif" font-size="10.00">+ AddTool()</text>
<text text-anchor="start" x="680" y="-563.5" font-family="Helvetica,sans-Serif" font-size="10.00">+ RemoveTool()</text>
<text text-anchor="start" x="680" y="-552.5" font-family="Helvetica,sans-Serif" font-size="10.00">+ ParsePieceNodes()</text>
<text text-anchor="start" x="680" y="-541.5" font-family="Helvetica,sans-Serif" font-size="10.00">+ ParsePieceCSARecords()</text>
<text text-anchor="start" x="680" y="-530.5" font-family="Helvetica,sans-Serif" font-size="10.00">+ ParsePieceInternalPaths()</text>
<text text-anchor="start" x="680" y="-519.5" font-family="Helvetica,sans-Serif" font-size="10.00">+ ParsePieceAnchors()</text>
<text text-anchor="start" x="680" y="-508.5" font-family="Helvetica,sans-Serif" font-size="10.00">+ LiteParseTree()</text>
<text text-anchor="start" x="680" y="-497.5" font-family="Helvetica,sans-Serif" font-size="10.00">+ haveLiteChange()</text>
<text text-anchor="start" x="680" y="-486.5" font-family="Helvetica,sans-Serif" font-size="10.00">+ NeedFullParsing()</text>
<text text-anchor="start" x="680" y="-475.5" font-family="Helvetica,sans-Serif" font-size="10.00">+ ClearScene()</text>
<text text-anchor="start" x="680" y="-464.5" font-family="Helvetica,sans-Serif" font-size="10.00">+ updatePieceList()</text>
<text text-anchor="start" x="680" y="-453.5" font-family="Helvetica,sans-Serif" font-size="10.00">+ selectedPiece()</text>
<text text-anchor="start" x="680" y="-442.5" font-family="Helvetica,sans-Serif" font-size="10.00"># setActiveDraftBlock()</text>
<text text-anchor="start" x="680" y="-431.5" font-family="Helvetica,sans-Serif" font-size="10.00"># CheckTagExists()</text>
<text text-anchor="start" x="680" y="-420.5" font-family="Helvetica,sans-Serif" font-size="10.00"># InsertTag()</text>
<text text-anchor="start" x="680" y="-409.5" font-family="Helvetica,sans-Serif" font-size="10.00"># SetChildTag()</text>
<text text-anchor="start" x="680" y="-398.5" font-family="Helvetica,sans-Serif" font-size="10.00"># getActiveDraftBlockIndex()</text>
<text text-anchor="start" x="680" y="-387.5" font-family="Helvetica,sans-Serif" font-size="10.00"># getActiveDraftElement()</text>
<text text-anchor="start" x="680" y="-376.5" font-family="Helvetica,sans-Serif" font-size="10.00"># hasGroupItem()</text>
<text text-anchor="start" x="680" y="-365.5" font-family="Helvetica,sans-Serif" font-size="10.00"># ToolExists()</text>
<text text-anchor="start" x="680" y="-354.5" font-family="Helvetica,sans-Serif" font-size="10.00"># ParsePathNodes()</text>
<text text-anchor="start" x="680" y="-343.5" font-family="Helvetica,sans-Serif" font-size="10.00"># ParseSANode()</text>
<text text-anchor="start" x="680" y="-332.5" font-family="Helvetica,sans-Serif" font-size="10.00">&#45; ListIncrements()</text>
<text text-anchor="start" x="680" y="-321.5" font-family="Helvetica,sans-Serif" font-size="10.00">&#45; ListPointExpressions()</text>
<text text-anchor="start" x="680" y="-310.5" font-family="Helvetica,sans-Serif" font-size="10.00">&#45; ListArcExpressions()</text>
<text text-anchor="start" x="680" y="-299.5" font-family="Helvetica,sans-Serif" font-size="10.00">&#45; ListElArcExpressions()</text>
<text text-anchor="start" x="680" y="-288.5" font-family="Helvetica,sans-Serif" font-size="10.00">&#45; ListSplineExpressions()</text>
<text text-anchor="start" x="680" y="-277.5" font-family="Helvetica,sans-Serif" font-size="10.00">&#45; ListPathPointExpressions()</text>
<text text-anchor="start" x="680" y="-266.5" font-family="Helvetica,sans-Serif" font-size="10.00">&#45; ListOperationExpressions()</text>
<text text-anchor="start" x="680" y="-255.5" font-family="Helvetica,sans-Serif" font-size="10.00">&#45; ListNodesExpressions()</text>
<text text-anchor="start" x="680" y="-244.5" font-family="Helvetica,sans-Serif" font-size="10.00">&#45; ListPathExpressions()</text>
<text text-anchor="start" x="680" y="-233.5" font-family="Helvetica,sans-Serif" font-size="10.00">&#45; ListGrainlineExpressions()</text>
<text text-anchor="start" x="680" y="-222.5" font-family="Helvetica,sans-Serif" font-size="10.00">&#45; ListPieceExpressions()</text>
<text text-anchor="start" x="680" y="-211.5" font-family="Helvetica,sans-Serif" font-size="10.00">&#45; IsVariable()</text>
<text text-anchor="start" x="680" y="-200.5" font-family="Helvetica,sans-Serif" font-size="10.00">&#45; IsPostfixOperator()</text>
<text text-anchor="start" x="680" y="-189.5" font-family="Helvetica,sans-Serif" font-size="10.00">&#45; IsFunction()</text>
<text text-anchor="start" x="680" y="-178.5" font-family="Helvetica,sans-Serif" font-size="10.00">&#45; ParseItemElement()</text>
</a>
</g>
</g>
<!-- Node6&#45;&gt;Node1 -->
<g id="edge5" class="edge">
<title>Node6&#45;&gt;Node1</title>
<path fill="none" stroke="#404040" d="M671.95,-315.02C651.9,-265.61 628.22,-215.47 601,-171 592.73,-157.49 582.65,-144.14 572.14,-131.66"/>
<polygon fill="none" stroke="#404040" points="571.9,-131.38 564.95,-129.47 564.04,-122.31 571,-124.23 571.9,-131.38"/>
<text text-anchor="middle" x="602.5" y="-145" font-family="Helvetica,sans-Serif" font-size="10.00"> +doc</text>
</g>
<!-- Node7 -->
<g id="node7" class="node">
<title>Node7</title>
<g id="a_node7"><a xlink:title=" ">
<polygon fill="white" stroke="#bfbfbf" points="290,-1228 290,-1285 346,-1285 346,-1228 290,-1228"/>
<text text-anchor="middle" x="318" y="-1273" font-family="Helvetica,sans-Serif" font-size="10.00">QObject</text>
<polyline fill="none" stroke="#bfbfbf" points="290,-1266 346,-1266 "/>
<text text-anchor="middle" x="318" y="-1254" font-family="Helvetica,sans-Serif" font-size="10.00"> </text>
<polyline fill="none" stroke="#bfbfbf" points="290,-1247 346,-1247 "/>
<text text-anchor="middle" x="318" y="-1235" font-family="Helvetica,sans-Serif" font-size="10.00"> </text>
</a>
</g>
</g>
<!-- Node7&#45;&gt;Node6 -->
<g id="edge6" class="edge">
<title>Node7&#45;&gt;Node6</title>
<path fill="none" stroke="midnightblue" d="M312.09,-1217.99C306.36,-1166.87 304.76,-1075.79 355,-1024 393.75,-984.05 558.4,-1012.81 601,-977 629.7,-952.87 652.99,-922.73 671.89,-889.86"/>
<polygon fill="none" stroke="midnightblue" points="308.62,-1218.46 313.32,-1227.96 315.57,-1217.61 308.62,-1218.46"/>
</g>
<!-- Node8 -->
<g id="node8" class="node">
<title>Node8</title>
<g id="a_node8"><a xlink:href="../../d6/deb/classVDomDocument.html" target="_top" xlink:title="The VDomDocument class represents a Seamly2D document (.val file).">
<polygon fill="white" stroke="black" points="364.5,-1024.5 364.5,-1488.5 521.5,-1488.5 521.5,-1024.5 364.5,-1024.5"/>
<text text-anchor="middle" x="443" y="-1476.5" font-family="Helvetica,sans-Serif" font-size="10.00">VDomDocument</text>
<polyline fill="none" stroke="black" points="364.5,-1469.5 521.5,-1469.5 "/>
<text text-anchor="start" x="372.5" y="-1457.5" font-family="Helvetica,sans-Serif" font-size="10.00">+ AttrId</text>
<text text-anchor="start" x="372.5" y="-1446.5" font-family="Helvetica,sans-Serif" font-size="10.00">+ AttrText</text>
<text text-anchor="start" x="372.5" y="-1435.5" font-family="Helvetica,sans-Serif" font-size="10.00">+ AttrBold</text>
<text text-anchor="start" x="372.5" y="-1424.5" font-family="Helvetica,sans-Serif" font-size="10.00">+ AttrItalic</text>
<text text-anchor="start" x="372.5" y="-1413.5" font-family="Helvetica,sans-Serif" font-size="10.00">+ AttrAlignment</text>
<text text-anchor="start" x="372.5" y="-1402.5" font-family="Helvetica,sans-Serif" font-size="10.00">+ AttrFSIncrement</text>
<text text-anchor="start" x="372.5" y="-1391.5" font-family="Helvetica,sans-Serif" font-size="10.00">+ TagVersion</text>
<text text-anchor="start" x="372.5" y="-1380.5" font-family="Helvetica,sans-Serif" font-size="10.00">+ TagUnit</text>
<text text-anchor="start" x="372.5" y="-1369.5" font-family="Helvetica,sans-Serif" font-size="10.00">+ TagLine</text>
<polyline fill="none" stroke="black" points="364.5,-1362.5 521.5,-1362.5 "/>
<text text-anchor="start" x="372.5" y="-1350.5" font-family="Helvetica,sans-Serif" font-size="10.00">+ VDomDocument()</text>
<text text-anchor="start" x="372.5" y="-1339.5" font-family="Helvetica,sans-Serif" font-size="10.00">+ ~VDomDocument()</text>
<text text-anchor="start" x="372.5" y="-1328.5" font-family="Helvetica,sans-Serif" font-size="10.00">+ elementById()</text>
<text text-anchor="start" x="372.5" y="-1317.5" font-family="Helvetica,sans-Serif" font-size="10.00">+ SetAttribute()</text>
<text text-anchor="start" x="372.5" y="-1306.5" font-family="Helvetica,sans-Serif" font-size="10.00">+ measurementUnits()</text>
<text text-anchor="start" x="372.5" y="-1295.5" font-family="Helvetica,sans-Serif" font-size="10.00">+ setXMLContent()</text>
<text text-anchor="start" x="372.5" y="-1284.5" font-family="Helvetica,sans-Serif" font-size="10.00">+ SaveDocument()</text>
<text text-anchor="start" x="372.5" y="-1273.5" font-family="Helvetica,sans-Serif" font-size="10.00">+ Major()</text>
<text text-anchor="start" x="372.5" y="-1262.5" font-family="Helvetica,sans-Serif" font-size="10.00">+ Minor()</text>
<text text-anchor="start" x="372.5" y="-1251.5" font-family="Helvetica,sans-Serif" font-size="10.00">+ Patch()</text>
<text text-anchor="start" x="372.5" y="-1240.5" font-family="Helvetica,sans-Serif" font-size="10.00">and 8 more...</text>
<text text-anchor="start" x="372.5" y="-1229.5" font-family="Helvetica,sans-Serif" font-size="10.00">+ GetParametrUInt()</text>
<text text-anchor="start" x="372.5" y="-1218.5" font-family="Helvetica,sans-Serif" font-size="10.00">+ getParameterBool()</text>
<text text-anchor="start" x="372.5" y="-1207.5" font-family="Helvetica,sans-Serif" font-size="10.00">+ GetParametrUsage()</text>
<text text-anchor="start" x="372.5" y="-1196.5" font-family="Helvetica,sans-Serif" font-size="10.00">+ SetParametrUsage()</text>
<text text-anchor="start" x="372.5" y="-1185.5" font-family="Helvetica,sans-Serif" font-size="10.00">+ GetParametrString()</text>
<text text-anchor="start" x="372.5" y="-1174.5" font-family="Helvetica,sans-Serif" font-size="10.00">+ GetParametrEmptyString()</text>
<text text-anchor="start" x="372.5" y="-1163.5" font-family="Helvetica,sans-Serif" font-size="10.00">+ GetParametrDouble()</text>
<text text-anchor="start" x="372.5" y="-1152.5" font-family="Helvetica,sans-Serif" font-size="10.00">+ getParameterId()</text>
<text text-anchor="start" x="372.5" y="-1141.5" font-family="Helvetica,sans-Serif" font-size="10.00">+ ValidateXML()</text>
<text text-anchor="start" x="372.5" y="-1130.5" font-family="Helvetica,sans-Serif" font-size="10.00">+ UnitsHelpString()</text>
<text text-anchor="start" x="372.5" y="-1119.5" font-family="Helvetica,sans-Serif" font-size="10.00">+ RemoveAllChildren()</text>
<text text-anchor="start" x="372.5" y="-1108.5" font-family="Helvetica,sans-Serif" font-size="10.00">+ SafeCopy()</text>
<text text-anchor="start" x="372.5" y="-1097.5" font-family="Helvetica,sans-Serif" font-size="10.00"># setTagText()</text>
<text text-anchor="start" x="372.5" y="-1086.5" font-family="Helvetica,sans-Serif" font-size="10.00"># setTagText()</text>
<text text-anchor="start" x="372.5" y="-1075.5" font-family="Helvetica,sans-Serif" font-size="10.00"># UniqueTagText()</text>
<text text-anchor="start" x="372.5" y="-1064.5" font-family="Helvetica,sans-Serif" font-size="10.00"># TestUniqueId()</text>
<text text-anchor="start" x="372.5" y="-1053.5" font-family="Helvetica,sans-Serif" font-size="10.00"># CollectId()</text>
<text text-anchor="start" x="372.5" y="-1042.5" font-family="Helvetica,sans-Serif" font-size="10.00">&#45; find()</text>
<text text-anchor="start" x="372.5" y="-1031.5" font-family="Helvetica,sans-Serif" font-size="10.00">&#45; SaveCanonicalXML()</text>
</a>
</g>
</g>
<!-- Node8&#45;&gt;Node6 -->
<g id="edge7" class="edge">
<title>Node8&#45;&gt;Node6</title>
<path fill="none" stroke="midnightblue" d="M527.66,-1028.3C528.76,-1026.85 529.87,-1025.42 531,-1024 554.31,-994.66 577.71,-1006.36 601,-977 629.22,-941.41 652.62,-900.02 671.89,-857.59"/>
<polygon fill="none" stroke="midnightblue" points="524.56,-1026.61 521.5,-1036.76 530.22,-1030.73 524.56,-1026.61"/>
</g>
<!-- Node9 -->
<g id="node9" class="node">
<title>Node9</title>
<g id="a_node9"><a xlink:title=" ">
<polygon fill="white" stroke="#bfbfbf" points="314,-1536.5 314,-1593.5 412,-1593.5 412,-1536.5 314,-1536.5"/>
<text text-anchor="middle" x="363" y="-1581.5" font-family="Helvetica,sans-Serif" font-size="10.00">QDomDocument</text>
<polyline fill="none" stroke="#bfbfbf" points="314,-1574.5 412,-1574.5 "/>
<text text-anchor="middle" x="363" y="-1562.5" font-family="Helvetica,sans-Serif" font-size="10.00"> </text>
<polyline fill="none" stroke="#bfbfbf" points="314,-1555.5 412,-1555.5 "/>
<text text-anchor="middle" x="363" y="-1543.5" font-family="Helvetica,sans-Serif" font-size="10.00"> </text>
</a>
</g>
</g>
<!-- Node9&#45;&gt;Node8 -->
<g id="edge8" class="edge">
<title>Node9&#45;&gt;Node8</title>
<path fill="none" stroke="midnightblue" d="M372.82,-1526.38C375.67,-1515.45 379.01,-1502.65 382.66,-1488.67"/>
<polygon fill="none" stroke="midnightblue" points="369.38,-1525.7 370.24,-1536.26 376.15,-1527.47 369.38,-1525.7"/>
</g>
<!-- Node10 -->
<g id="node10" class="node">
<title>Node10</title>
<g id="a_node10"><a xlink:href="../../da/da1/classQHash.html" target="_top" xlink:title=" ">
<polygon fill="white" stroke="black" points="430.5,-1536.5 430.5,-1593.5 615.5,-1593.5 615.5,-1536.5 430.5,-1536.5"/>
<text text-anchor="middle" x="523" y="-1581.5" font-family="Helvetica,sans-Serif" font-size="10.00">QHash&lt; quint32, QDomElement &gt;</text>
<polyline fill="none" stroke="black" points="430.5,-1574.5 615.5,-1574.5 "/>
<text text-anchor="middle" x="523" y="-1562.5" font-family="Helvetica,sans-Serif" font-size="10.00"> </text>
<polyline fill="none" stroke="black" points="430.5,-1555.5 615.5,-1555.5 "/>
<text text-anchor="middle" x="523" y="-1543.5" font-family="Helvetica,sans-Serif" font-size="10.00"> </text>
</a>
</g>
</g>
<!-- Node10&#45;&gt;Node8 -->
<g id="edge9" class="edge">
<title>Node10&#45;&gt;Node8</title>
<path fill="none" stroke="#404040" d="M515.76,-1536.26C513.16,-1526.3 509.98,-1514.12 506.42,-1500.46"/>
<polygon fill="none" stroke="#404040" points="506.37,-1500.28 500.98,-1495.48 503.34,-1488.67 508.72,-1493.46 506.37,-1500.28"/>
<text text-anchor="middle" x="524.5" y="-1510" font-family="Helvetica,sans-Serif" font-size="10.00"> &#45;map</text>
</g>
<!-- Node11 -->
<g id="node11" class="node">
<title>Node11</title>
<g id="a_node11"><a xlink:href="../../da/da1/classQHash.html" target="_top" xlink:title=" ">
<polygon fill="white" stroke="black" points="540,-1228 540,-1285 712,-1285 712,-1228 540,-1228"/>
<text text-anchor="middle" x="626" y="-1273" font-family="Helvetica,sans-Serif" font-size="10.00">QHash&lt; quint32, VDataTool * &gt;</text>
<polyline fill="none" stroke="black" points="540,-1266 712,-1266 "/>
<text text-anchor="middle" x="626" y="-1254" font-family="Helvetica,sans-Serif" font-size="10.00"> </text>
<polyline fill="none" stroke="black" points="540,-1247 712,-1247 "/>
<text text-anchor="middle" x="626" y="-1235" font-family="Helvetica,sans-Serif" font-size="10.00"> </text>
</a>
</g>
</g>
<!-- Node11&#45;&gt;Node6 -->
<g id="edge10" class="edge">
<title>Node11&#45;&gt;Node6</title>
<path fill="none" stroke="#404040" d="M631.14,-1227.98C639.42,-1183.57 656.76,-1090.67 675.82,-988.53"/>
<polygon fill="none" stroke="#404040" points="675.83,-988.47 673,-981.84 678.04,-976.68 680.87,-983.31 675.83,-988.47"/>
<text text-anchor="middle" x="693" y="-998" font-family="Helvetica,sans-Serif" font-size="10.00"> #tools</text>
</g>
<!-- Node12 -->
<g id="node12" class="node">
<title>Node12</title>
<g id="a_node12"><a xlink:href="../../d0/d4c/classQMap.html" target="_top" xlink:title=" ">
<polygon fill="white" stroke="black" points="730,-1228 730,-1285 896,-1285 896,-1228 730,-1228"/>
<text text-anchor="middle" x="813" y="-1273" font-family="Helvetica,sans-Serif" font-size="10.00">QMap&lt; qint32, ImageItem * &gt;</text>
<polyline fill="none" stroke="black" points="730,-1266 896,-1266 "/>
<text text-anchor="middle" x="813" y="-1254" font-family="Helvetica,sans-Serif" font-size="10.00"> </text>
<polyline fill="none" stroke="black" points="730,-1247 896,-1247 "/>
<text text-anchor="middle" x="813" y="-1235" font-family="Helvetica,sans-Serif" font-size="10.00"> </text>
</a>
</g>
</g>
<!-- Node12&#45;&gt;Node6 -->
<g id="edge11" class="edge">
<title>Node12&#45;&gt;Node6</title>
<path fill="none" stroke="#404040" d="M810.57,-1227.98C806.66,-1183.61 798.48,-1090.86 789.49,-988.84"/>
<polygon fill="none" stroke="#404040" points="789.47,-988.63 784.96,-983.01 788.42,-976.68 792.93,-982.3 789.47,-988.63"/>
<text text-anchor="middle" x="830.5" y="-998" font-family="Helvetica,sans-Serif" font-size="10.00"> #m_imageMap</text>
</g>
<!-- Node13 -->
<g id="node13" class="node">
<title>Node13</title>
<g id="a_node13"><a xlink:href="../../d5/dc2/classQVector.html" target="_top" xlink:title=" ">
<polygon fill="white" stroke="black" points="914,-1228 914,-1285 1090,-1285 1090,-1228 914,-1228"/>
<text text-anchor="middle" x="1002" y="-1273" font-family="Helvetica,sans-Serif" font-size="10.00">QVector&lt; VLabelTemplateLine &gt;</text>
<polyline fill="none" stroke="black" points="914,-1266 1090,-1266 "/>
<text text-anchor="middle" x="1002" y="-1254" font-family="Helvetica,sans-Serif" font-size="10.00"> </text>
<polyline fill="none" stroke="black" points="914,-1247 1090,-1247 "/>
<text text-anchor="middle" x="1002" y="-1235" font-family="Helvetica,sans-Serif" font-size="10.00"> </text>
</a>
</g>
</g>
<!-- Node13&#45;&gt;Node6 -->
<g id="edge12" class="edge">
<title>Node13&#45;&gt;Node6</title>
<path fill="none" stroke="#404040" d="M991.93,-1227.98C966.19,-1157.62 895.92,-965.59 838.21,-807.87"/>
<polygon fill="none" stroke="#404040" points="838.2,-807.84 832.38,-803.58 834.08,-796.57 839.89,-800.83 838.2,-807.84"/>
<text text-anchor="middle" x="957.5" y="-998" font-family="Helvetica,sans-Serif" font-size="10.00"> #patternLabelLines</text>
</g>
<!-- Node14 -->
<g id="node14" class="node">
<title>Node14</title>
<g id="a_node14"><a xlink:href="../../d5/dc2/classQVector.html" target="_top" xlink:title=" ">
<polygon fill="white" stroke="black" points="1108.5,-1228 1108.5,-1285 1243.5,-1285 1243.5,-1228 1108.5,-1228"/>
<text text-anchor="middle" x="1176" y="-1273" font-family="Helvetica,sans-Serif" font-size="10.00">QVector&lt; VDataTool * &gt;</text>
<polyline fill="none" stroke="black" points="1108.5,-1266 1243.5,-1266 "/>
<text text-anchor="middle" x="1176" y="-1254" font-family="Helvetica,sans-Serif" font-size="10.00"> </text>
<polyline fill="none" stroke="black" points="1108.5,-1247 1243.5,-1247 "/>
<text text-anchor="middle" x="1176" y="-1235" font-family="Helvetica,sans-Serif" font-size="10.00"> </text>
</a>
</g>
</g>
<!-- Node14&#45;&gt;Node6 -->
<g id="edge13" class="edge">
<title>Node14&#45;&gt;Node6</title>
<path fill="none" stroke="#404040" d="M1170.01,-1227.92C1159.62,-1183.27 1135.8,-1093.18 1099,-1024 1028.48,-891.41 919.09,-757.35 842.23,-670.69"/>
<polygon fill="none" stroke="#404040" points="842.17,-670.63 835.2,-668.81 834.19,-661.67 841.17,-663.49 842.17,-670.63"/>
<text text-anchor="middle" x="1130" y="-998" font-family="Helvetica,sans-Serif" font-size="10.00"> #toolsOnRemove</text>
</g>
<!-- Node15 -->
<g id="node15" class="node">
<title>Node15</title>
<g id="a_node15"><a xlink:href="../../d5/dc2/classQVector.html" target="_top" xlink:title=" ">
<polygon fill="white" stroke="black" points="1261.5,-1228 1261.5,-1285 1398.5,-1285 1398.5,-1228 1261.5,-1228"/>
<text text-anchor="middle" x="1330" y="-1273" font-family="Helvetica,sans-Serif" font-size="10.00">QVector&lt; VToolRecord &gt;</text>
<polyline fill="none" stroke="black" points="1261.5,-1266 1398.5,-1266 "/>
<text text-anchor="middle" x="1330" y="-1254" font-family="Helvetica,sans-Serif" font-size="10.00"> </text>
<polyline fill="none" stroke="black" points="1261.5,-1247 1398.5,-1247 "/>
<text text-anchor="middle" x="1330" y="-1235" font-family="Helvetica,sans-Serif" font-size="10.00"> </text>
</a>
</g>
</g>
<!-- Node15&#45;&gt;Node6 -->
<g id="edge14" class="edge">
<title>Node15&#45;&gt;Node6</title>
<path fill="none" stroke="#404040" d="M1325.56,-1227.82C1317.26,-1182.24 1296.18,-1089.89 1253,-1024 1143.24,-856.51 955.89,-711.77 844.34,-634.57"/>
<polygon fill="none" stroke="#404040" points="844.01,-634.34 836.8,-634.24 834.12,-627.54 841.33,-627.65 844.01,-634.34"/>
<text text-anchor="middle" x="1260" y="-998" font-family="Helvetica,sans-Serif" font-size="10.00"> #history</text>
</g>
</g>
</svg>
