<?xml version="1.0" encoding="UTF-8" standalone="no"?>
<!DOCTYPE svg PUBLIC "-//W3C//DTD SVG 1.1//EN"
 "http://www.w3.org/Graphics/SVG/1.1/DTD/svg11.dtd">
<!-- Generated by graphviz version 2.43.0 (0)
 -->
<!-- Title: src/libs/vpatterndb/variables/vlinelength.h Pages: 1 -->
<svg width="5439pt" height="385pt"
 viewBox="0.00 0.00 5439.21 385.00" xmlns="http://www.w3.org/2000/svg" xmlns:xlink="http://www.w3.org/1999/xlink">
<g id="graph0" class="graph" transform="scale(1 1) rotate(0) translate(4 381)">
<title>src/libs/vpatterndb/variables/vlinelength.h</title>
<polygon fill="white" stroke="transparent" points="-4,4 -4,-381 5435.21,-381 5435.21,4 -4,4"/>
<!-- Node1 -->
<g id="node1" class="node">
<title>Node1</title>
<g id="a_node1"><a xlink:title=" ">
<polygon fill="#bfbfbf" stroke="black" points="200.21,-346.5 200.21,-376.5 331.21,-376.5 331.21,-346.5 200.21,-346.5"/>
<text text-anchor="start" x="208.21" y="-364.5" font-family="Helvetica,sans-Serif" font-size="10.00">src/libs/vpatterndb</text>
<text text-anchor="middle" x="265.71" y="-353.5" font-family="Helvetica,sans-Serif" font-size="10.00">/variables/vlinelength.h</text>
</a>
</g>
</g>
<!-- Node2 -->
<g id="node2" class="node">
<title>Node2</title>
<g id="a_node2"><a xlink:href="../../d7/d79/vlinelength_8cpp.html" target="_top" xlink:title=" ">
<polygon fill="white" stroke="black" points="94.21,-279.5 94.21,-309.5 237.21,-309.5 237.21,-279.5 94.21,-279.5"/>
<text text-anchor="start" x="102.21" y="-297.5" font-family="Helvetica,sans-Serif" font-size="10.00">src/libs/vpatterndb</text>
<text text-anchor="middle" x="165.71" y="-286.5" font-family="Helvetica,sans-Serif" font-size="10.00">/variables/vlinelength.cpp</text>
</a>
</g>
</g>
<!-- Node1&#45;&gt;Node2 -->
<g id="edge1" class="edge">
<title>Node1&#45;&gt;Node2</title>
<path fill="none" stroke="midnightblue" d="M235.3,-340.73C219.83,-330.68 201.38,-318.68 187.37,-309.58"/>
<polygon fill="midnightblue" stroke="midnightblue" points="233.72,-343.88 244.01,-346.4 237.53,-338.01 233.72,-343.88"/>
</g>
<!-- Node3 -->
<g id="node3" class="node">
<title>Node3</title>
<g id="a_node3"><a xlink:href="../../d6/d46/vcontainer_8cpp.html" target="_top" xlink:title=" ">
<polygon fill="white" stroke="black" points="16.21,-67.5 16.21,-97.5 123.21,-97.5 123.21,-67.5 16.21,-67.5"/>
<text text-anchor="start" x="24.21" y="-85.5" font-family="Helvetica,sans-Serif" font-size="10.00">src/libs/vpatterndb</text>
<text text-anchor="middle" x="69.71" y="-74.5" font-family="Helvetica,sans-Serif" font-size="10.00">/vcontainer.cpp</text>
</a>
</g>
</g>
<!-- Node1&#45;&gt;Node3 -->
<g id="edge2" class="edge">
<title>Node1&#45;&gt;Node3</title>
<path fill="none" stroke="midnightblue" d="M262.96,-336.37C260.3,-319.53 255.21,-296.96 245.71,-279 203.84,-199.89 122.91,-127.32 87.28,-97.65"/>
<polygon fill="midnightblue" stroke="midnightblue" points="259.52,-337.08 264.38,-346.5 266.46,-336.11 259.52,-337.08"/>
</g>
<!-- Node4 -->
<g id="node4" class="node">
<title>Node4</title>
<g id="a_node4"><a xlink:href="../../de/dca/variables_8h.html" target="_top" xlink:title=" ">
<polygon fill="white" stroke="black" points="1287.21,-279.5 1287.21,-309.5 1394.21,-309.5 1394.21,-279.5 1287.21,-279.5"/>
<text text-anchor="start" x="1295.21" y="-297.5" font-family="Helvetica,sans-Serif" font-size="10.00">src/libs/vpatterndb</text>
<text text-anchor="middle" x="1340.71" y="-286.5" font-family="Helvetica,sans-Serif" font-size="10.00">/variables.h</text>
</a>
</g>
</g>
<!-- Node1&#45;&gt;Node4 -->
<g id="edge3" class="edge">
<title>Node1&#45;&gt;Node4</title>
<path fill="none" stroke="midnightblue" d="M341.42,-355.92C546.73,-343.51 1110.4,-309.43 1287.04,-298.74"/>
<polygon fill="midnightblue" stroke="midnightblue" points="341.11,-352.43 331.34,-356.53 341.53,-359.42 341.11,-352.43"/>
</g>
<!-- Node5 -->
<g id="node5" class="node">
<title>Node5</title>
<g id="a_node5"><a xlink:href="../../d3/df7/vcontainer_8h.html" target="_top" xlink:title=" ">
<polygon fill="white" stroke="black" points="2280.21,-212.5 2280.21,-242.5 2387.21,-242.5 2387.21,-212.5 2280.21,-212.5"/>
<text text-anchor="start" x="2288.21" y="-230.5" font-family="Helvetica,sans-Serif" font-size="10.00">src/libs/vpatterndb</text>
<text text-anchor="middle" x="2333.71" y="-219.5" font-family="Helvetica,sans-Serif" font-size="10.00">/vcontainer.h</text>
</a>
</g>
</g>
<!-- Node4&#45;&gt;Node5 -->
<g id="edge4" class="edge">
<title>Node4&#45;&gt;Node5</title>
<path fill="none" stroke="midnightblue" d="M1404.44,-289.33C1587.19,-277.37 2110.71,-243.1 2280.12,-232.01"/>
<polygon fill="midnightblue" stroke="midnightblue" points="1404.2,-285.84 1394.45,-289.98 1404.66,-292.82 1404.2,-285.84"/>
</g>
<!-- Node5&#45;&gt;Node3 -->
<g id="edge54" class="edge">
<title>Node5&#45;&gt;Node3</title>
<path fill="none" stroke="midnightblue" d="M2269.93,-227.1C2005.57,-228.68 970.52,-225.9 132.71,-98 129.6,-97.53 126.42,-96.98 123.22,-96.39"/>
<polygon fill="midnightblue" stroke="midnightblue" points="2270.13,-230.6 2280.11,-227.04 2270.09,-223.6 2270.13,-230.6"/>
</g>
<!-- Node6 -->
<g id="node6" class="node">
<title>Node6</title>
<g id="a_node6"><a xlink:href="../../d2/d47/image__dialog_8cpp.html" target="_top" xlink:title=" ">
<polygon fill="white" stroke="black" points="141.71,-67.5 141.71,-97.5 253.71,-97.5 253.71,-67.5 141.71,-67.5"/>
<text text-anchor="start" x="149.71" y="-85.5" font-family="Helvetica,sans-Serif" font-size="10.00">src/libs/tools/image</text>
<text text-anchor="middle" x="197.71" y="-74.5" font-family="Helvetica,sans-Serif" font-size="10.00">_dialog.cpp</text>
</a>
</g>
</g>
<!-- Node5&#45;&gt;Node6 -->
<g id="edge5" class="edge">
<title>Node5&#45;&gt;Node6</title>
<path fill="none" stroke="midnightblue" d="M2269.83,-222.63C2142.22,-214.78 1846.72,-196.04 1598.71,-176 1397.61,-159.75 1348.02,-147.44 1146.71,-134 754.37,-107.8 652.6,-149.01 262.71,-98 259.84,-97.63 256.92,-97.19 253.97,-96.7"/>
<polygon fill="midnightblue" stroke="midnightblue" points="2269.99,-226.15 2280.19,-223.27 2270.42,-219.16 2269.99,-226.15"/>
</g>
<!-- Node7 -->
<g id="node7" class="node">
<title>Node7</title>
<g id="a_node7"><a xlink:href="../../dc/db7/measurements_8h.html" target="_top" xlink:title=" ">
<polygon fill="white" stroke="black" points="3259.21,-145.5 3259.21,-164.5 3438.21,-164.5 3438.21,-145.5 3259.21,-145.5"/>
<text text-anchor="middle" x="3348.71" y="-152.5" font-family="Helvetica,sans-Serif" font-size="10.00">src/libs/vformat/measurements.h</text>
</a>
</g>
</g>
<!-- Node5&#45;&gt;Node7 -->
<g id="edge6" class="edge">
<title>Node5&#45;&gt;Node7</title>
<path fill="none" stroke="midnightblue" d="M2397.28,-223.54C2535.66,-216.89 2874.49,-199.5 3157.71,-176 3196.25,-172.8 3239.08,-168.4 3274.4,-164.53"/>
<polygon fill="midnightblue" stroke="midnightblue" points="2397.09,-220.04 2387.27,-224.02 2397.43,-227.04 2397.09,-220.04"/>
</g>
<!-- Node8 -->
<g id="node8" class="node">
<title>Node8</title>
<g id="a_node8"><a xlink:href="../../d9/de3/measurements_8cpp.html" target="_top" xlink:title=" ">
<polygon fill="white" stroke="black" points="3920.71,-73 3920.71,-92 4110.71,-92 4110.71,-73 3920.71,-73"/>
<text text-anchor="middle" x="4015.71" y="-80" font-family="Helvetica,sans-Serif" font-size="10.00">src/libs/vformat/measurements.cpp</text>
</a>
</g>
</g>
<!-- Node5&#45;&gt;Node8 -->
<g id="edge8" class="edge">
<title>Node5&#45;&gt;Node8</title>
<path fill="none" stroke="midnightblue" d="M2397.57,-226.2C2568.37,-224.82 3049.76,-217.28 3447.71,-176 3645.97,-155.43 3880.17,-110.75 3973.89,-92.02"/>
<polygon fill="midnightblue" stroke="midnightblue" points="2397.47,-222.7 2387.49,-226.27 2397.52,-229.7 2397.47,-222.7"/>
</g>
<!-- Node9 -->
<g id="node9" class="node">
<title>Node9</title>
<g id="a_node9"><a xlink:href="../../d6/de0/vlayoutpiece_8h.html" target="_top" xlink:title=" ">
<polygon fill="white" stroke="black" points="4550.71,-145.5 4550.71,-164.5 4716.71,-164.5 4716.71,-145.5 4550.71,-145.5"/>
<text text-anchor="middle" x="4633.71" y="-152.5" font-family="Helvetica,sans-Serif" font-size="10.00">src/libs/vlayout/vlayoutpiece.h</text>
</a>
</g>
</g>
<!-- Node5&#45;&gt;Node9 -->
<g id="edge9" class="edge">
<title>Node5&#45;&gt;Node9</title>
<path fill="none" stroke="midnightblue" d="M2397.61,-224.54C2721.91,-214.6 4184.42,-169.77 4550.46,-158.55"/>
<polygon fill="midnightblue" stroke="midnightblue" points="2397.34,-221.05 2387.46,-224.85 2397.56,-228.04 2397.34,-221.05"/>
</g>
<!-- Node19 -->
<g id="node18" class="node">
<title>Node19</title>
<g id="a_node18"><a xlink:href="../../d8/d70/vtextmanager_8cpp.html" target="_top" xlink:title=" ">
<polygon fill="white" stroke="black" points="271.71,-73 271.71,-92 453.71,-92 453.71,-73 271.71,-73"/>
<text text-anchor="middle" x="362.71" y="-80" font-family="Helvetica,sans-Serif" font-size="10.00">src/libs/vlayout/vtextmanager.cpp</text>
</a>
</g>
</g>
<!-- Node5&#45;&gt;Node19 -->
<g id="edge20" class="edge">
<title>Node5&#45;&gt;Node19</title>
<path fill="none" stroke="midnightblue" d="M2270.03,-218.14C2103.8,-196.36 1665,-139.21 1598.71,-134 1095.12,-94.42 965.9,-142.31 462.71,-98 446.72,-96.59 429.39,-94.34 413.71,-92.02"/>
<polygon fill="midnightblue" stroke="midnightblue" points="2269.74,-221.63 2280.11,-219.46 2270.65,-214.69 2269.74,-221.63"/>
</g>
<!-- Node20 -->
<g id="node19" class="node">
<title>Node20</title>
<g id="a_node19"><a xlink:href="../../d5/d74/vabstractapplication_8h.html" target="_top" xlink:title=" ">
<polygon fill="white" stroke="red" points="1961.21,-145.5 1961.21,-164.5 2156.21,-164.5 2156.21,-145.5 1961.21,-145.5"/>
<text text-anchor="middle" x="2058.71" y="-152.5" font-family="Helvetica,sans-Serif" font-size="10.00">src/libs/vmisc/vabstractapplication.h</text>
</a>
</g>
</g>
<!-- Node5&#45;&gt;Node20 -->
<g id="edge21" class="edge">
<title>Node5&#45;&gt;Node20</title>
<path fill="none" stroke="midnightblue" d="M2270.28,-210.24C2214.66,-195.98 2136,-175.81 2091.94,-164.52"/>
<polygon fill="midnightblue" stroke="midnightblue" points="2269.48,-213.65 2280.03,-212.74 2271.22,-206.87 2269.48,-213.65"/>
</g>
<!-- Node48 -->
<g id="node34" class="node">
<title>Node48</title>
<g id="a_node34"><a xlink:href="../../db/d11/vformula_8cpp.html" target="_top" xlink:title=" ">
<polygon fill="white" stroke="black" points="3670.21,-67.5 3670.21,-97.5 3777.21,-97.5 3777.21,-67.5 3670.21,-67.5"/>
<text text-anchor="start" x="3678.21" y="-85.5" font-family="Helvetica,sans-Serif" font-size="10.00">src/libs/vpatterndb</text>
<text text-anchor="middle" x="3723.71" y="-74.5" font-family="Helvetica,sans-Serif" font-size="10.00">/vformula.cpp</text>
</a>
</g>
</g>
<!-- Node5&#45;&gt;Node48 -->
<g id="edge55" class="edge">
<title>Node5&#45;&gt;Node48</title>
<path fill="none" stroke="midnightblue" d="M2270.43,-216.54C2246.67,-209.39 2221.99,-197.1 2207.71,-176 2197.25,-160.54 2194.67,-147.36 2207.71,-134 2264.09,-76.2 3580.6,-108.11 3660.71,-98 3663.72,-97.62 3666.79,-97.16 3669.88,-96.64"/>
<polygon fill="midnightblue" stroke="midnightblue" points="2269.6,-219.94 2280.17,-219.21 2271.46,-213.19 2269.6,-219.94"/>
</g>
<!-- Node50 -->
<g id="node36" class="node">
<title>Node50</title>
<g id="a_node36"><a xlink:href="../../d8/dba/vpiecenode_8cpp.html" target="_top" xlink:title=" ">
<polygon fill="white" stroke="black" points="315.21,-0.5 315.21,-30.5 422.21,-30.5 422.21,-0.5 315.21,-0.5"/>
<text text-anchor="start" x="323.21" y="-18.5" font-family="Helvetica,sans-Serif" font-size="10.00">src/libs/vpatterndb</text>
<text text-anchor="middle" x="368.71" y="-7.5" font-family="Helvetica,sans-Serif" font-size="10.00">/vpiecenode.cpp</text>
</a>
</g>
</g>
<!-- Node5&#45;&gt;Node50 -->
<g id="edge57" class="edge">
<title>Node5&#45;&gt;Node50</title>
<path fill="none" stroke="midnightblue" d="M2269.47,-226.16C1980.09,-224.4 795.77,-214.91 426.71,-176 237.9,-156.09 128.09,-243.99 6.71,-98 -2.1,-87.41 -2.33,-77.39 6.71,-67 46.02,-21.82 224.15,-15.81 315.03,-15.77"/>
<polygon fill="midnightblue" stroke="midnightblue" points="2269.76,-229.66 2279.78,-226.22 2269.81,-222.66 2269.76,-229.66"/>
</g>
<!-- Node51 -->
<g id="node37" class="node">
<title>Node51</title>
<g id="a_node37"><a xlink:href="../../df/d7a/vpiece_8cpp.html" target="_top" xlink:title=" ">
<polygon fill="white" stroke="black" points="3795.21,-67.5 3795.21,-97.5 3902.21,-97.5 3902.21,-67.5 3795.21,-67.5"/>
<text text-anchor="start" x="3803.21" y="-85.5" font-family="Helvetica,sans-Serif" font-size="10.00">src/libs/vpatterndb</text>
<text text-anchor="middle" x="3848.71" y="-74.5" font-family="Helvetica,sans-Serif" font-size="10.00">/vpiece.cpp</text>
</a>
</g>
</g>
<!-- Node5&#45;&gt;Node51 -->
<g id="edge58" class="edge">
<title>Node5&#45;&gt;Node51</title>
<path fill="none" stroke="midnightblue" d="M2276.5,-208.03C2261.99,-200.47 2248.13,-190.09 2239.71,-176 2230.13,-159.98 2226.66,-147.35 2239.71,-134 2269.75,-103.25 3744.07,-103.42 3786.71,-98 3789.45,-97.65 3792.25,-97.23 3795.06,-96.76"/>
<polygon fill="midnightblue" stroke="midnightblue" points="2275.05,-211.22 2285.59,-212.38 2278.08,-204.91 2275.05,-211.22"/>
</g>
<!-- Node65 -->
<g id="node45" class="node">
<title>Node65</title>
<g id="a_node45"><a xlink:href="../../d3/d02/custom__variable__p_8h.html" target="_top" xlink:title=" ">
<polygon fill="white" stroke="red" points="2249.21,-140 2249.21,-170 2418.21,-170 2418.21,-140 2249.21,-140"/>
<text text-anchor="start" x="2257.21" y="-158" font-family="Helvetica,sans-Serif" font-size="10.00">src/libs/vpatterndb</text>
<text text-anchor="middle" x="2333.71" y="-147" font-family="Helvetica,sans-Serif" font-size="10.00">/variables/custom_variable_p.h</text>
</a>
</g>
</g>
<!-- Node5&#45;&gt;Node65 -->
<g id="edge52" class="edge">
<title>Node5&#45;&gt;Node65</title>
<path fill="none" stroke="midnightblue" d="M2333.71,-202.23C2333.71,-191.57 2333.71,-179.41 2333.71,-170.25"/>
<polygon fill="midnightblue" stroke="midnightblue" points="2330.21,-202.23 2333.71,-212.23 2337.21,-202.23 2330.21,-202.23"/>
</g>
<!-- Node67 -->
<g id="node46" class="node">
<title>Node67</title>
<g id="a_node46"><a xlink:href="../../d7/d8a/measurement__variable__p_8h.html" target="_top" xlink:title=" ">
<polygon fill="white" stroke="red" points="2436.71,-134.5 2436.71,-175.5 2572.71,-175.5 2572.71,-134.5 2436.71,-134.5"/>
<text text-anchor="start" x="2444.71" y="-163.5" font-family="Helvetica,sans-Serif" font-size="10.00">src/libs/vpatterndb</text>
<text text-anchor="start" x="2444.71" y="-152.5" font-family="Helvetica,sans-Serif" font-size="10.00">/variables/measurement</text>
<text text-anchor="middle" x="2504.71" y="-141.5" font-family="Helvetica,sans-Serif" font-size="10.00">_variable_p.h</text>
</a>
</g>
</g>
<!-- Node5&#45;&gt;Node67 -->
<g id="edge53" class="edge">
<title>Node5&#45;&gt;Node67</title>
<path fill="none" stroke="midnightblue" d="M2377.29,-208.53C2401.74,-198.45 2432.26,-185.87 2457.3,-175.55"/>
<polygon fill="midnightblue" stroke="midnightblue" points="2375.81,-205.36 2367.9,-212.4 2378.48,-211.83 2375.81,-205.36"/>
</g>
<!-- Node69 -->
<g id="node47" class="node">
<title>Node69</title>
<g id="a_node47"><a xlink:href="../../d6/d91/vnodedetail_8cpp.html" target="_top" xlink:title=" ">
<polygon fill="white" stroke="black" points="2591.21,-140 2591.21,-170 2698.21,-170 2698.21,-140 2591.21,-140"/>
<text text-anchor="start" x="2599.21" y="-158" font-family="Helvetica,sans-Serif" font-size="10.00">src/libs/vpatterndb</text>
<text text-anchor="middle" x="2644.71" y="-147" font-family="Helvetica,sans-Serif" font-size="10.00">/vnodedetail.cpp</text>
</a>
</g>
</g>
<!-- Node5&#45;&gt;Node69 -->
<g id="edge56" class="edge">
<title>Node5&#45;&gt;Node69</title>
<path fill="none" stroke="midnightblue" d="M2397.39,-215.46C2447.74,-206.28 2519.64,-192.12 2581.71,-176 2588.48,-174.24 2595.61,-172.18 2602.53,-170.07"/>
<polygon fill="midnightblue" stroke="midnightblue" points="2396.52,-212.07 2387.3,-217.29 2397.77,-218.95 2396.52,-212.07"/>
</g>
<!-- Node70 -->
<g id="node48" class="node">
<title>Node70</title>
<g id="a_node48"><a xlink:href="../../da/de1/vpiecepath_8cpp.html" target="_top" xlink:title=" ">
<polygon fill="white" stroke="black" points="2716.21,-140 2716.21,-170 2823.21,-170 2823.21,-140 2716.21,-140"/>
<text text-anchor="start" x="2724.21" y="-158" font-family="Helvetica,sans-Serif" font-size="10.00">src/libs/vpatterndb</text>
<text text-anchor="middle" x="2769.71" y="-147" font-family="Helvetica,sans-Serif" font-size="10.00">/vpiecepath.cpp</text>
</a>
</g>
</g>
<!-- Node5&#45;&gt;Node70 -->
<g id="edge59" class="edge">
<title>Node5&#45;&gt;Node70</title>
<path fill="none" stroke="midnightblue" d="M2397.54,-221.24C2472.29,-214.31 2599.54,-200.08 2706.71,-176 2713.99,-174.37 2721.63,-172.27 2728.98,-170.06"/>
<polygon fill="midnightblue" stroke="midnightblue" points="2396.99,-217.78 2387.35,-222.17 2397.62,-224.75 2396.99,-217.78"/>
</g>
<!-- Node71 -->
<g id="node49" class="node">
<title>Node71</title>
<g id="a_node49"><a xlink:href="../../d1/d3a/abstracttest_8cpp.html" target="_top" xlink:title=" ">
<polygon fill="white" stroke="black" points="2841.21,-145.5 2841.21,-164.5 3002.21,-164.5 3002.21,-145.5 2841.21,-145.5"/>
<text text-anchor="middle" x="2921.71" y="-152.5" font-family="Helvetica,sans-Serif" font-size="10.00">src/libs/vtest/abstracttest.cpp</text>
</a>
</g>
</g>
<!-- Node5&#45;&gt;Node71 -->
<g id="edge60" class="edge">
<title>Node5&#45;&gt;Node71</title>
<path fill="none" stroke="midnightblue" d="M2397.43,-222.45C2492.45,-215.86 2676.71,-200.99 2831.71,-176 2850.36,-172.99 2870.93,-168.51 2887.7,-164.55"/>
<polygon fill="midnightblue" stroke="midnightblue" points="2397.15,-218.96 2387.41,-223.13 2397.63,-225.94 2397.15,-218.96"/>
</g>
<!-- Node72 -->
<g id="node50" class="node">
<title>Node72</title>
<g id="a_node50"><a xlink:href="../../da/db4/piece__tablewidgetitem_8cpp.html" target="_top" xlink:title=" ">
<polygon fill="white" stroke="black" points="3020.71,-140 3020.71,-170 3148.71,-170 3148.71,-140 3020.71,-140"/>
<text text-anchor="start" x="3028.71" y="-158" font-family="Helvetica,sans-Serif" font-size="10.00">src/libs/vwidgets/piece</text>
<text text-anchor="middle" x="3084.71" y="-147" font-family="Helvetica,sans-Serif" font-size="10.00">_tablewidgetitem.cpp</text>
</a>
</g>
</g>
<!-- Node5&#45;&gt;Node72 -->
<g id="edge61" class="edge">
<title>Node5&#45;&gt;Node72</title>
<path fill="none" stroke="midnightblue" d="M2397.49,-225.84C2518.25,-223.69 2788.21,-214.57 3011.71,-176 3020.51,-174.48 3029.79,-172.36 3038.67,-170.06"/>
<polygon fill="midnightblue" stroke="midnightblue" points="2397.26,-222.34 2387.32,-226.01 2397.37,-229.34 2397.26,-222.34"/>
</g>
<!-- Node7&#45;&gt;Node8 -->
<g id="edge7" class="edge">
<title>Node7&#45;&gt;Node8</title>
<path fill="none" stroke="midnightblue" d="M3448.52,-145.27C3561.17,-135.14 3749.81,-117.33 3911.71,-98 3926.55,-96.23 3942.56,-94.1 3957.46,-92.03"/>
<polygon fill="midnightblue" stroke="midnightblue" points="3448.18,-141.78 3438.54,-146.16 3448.81,-148.76 3448.18,-141.78"/>
</g>
<!-- Node10 -->
<g id="node10" class="node">
<title>Node10</title>
<g id="a_node10"><a xlink:href="../../dd/d66/vdxfengine_8cpp.html" target="_top" xlink:title=" ">
<polygon fill="white" stroke="black" points="4725.71,-73 4725.71,-92 4879.71,-92 4879.71,-73 4725.71,-73"/>
<text text-anchor="middle" x="4802.71" y="-80" font-family="Helvetica,sans-Serif" font-size="10.00">src/libs/vdxf/vdxfengine.cpp</text>
</a>
</g>
</g>
<!-- Node9&#45;&gt;Node10 -->
<g id="edge10" class="edge">
<title>Node9&#45;&gt;Node10</title>
<path fill="none" stroke="midnightblue" d="M4663.55,-141.55C4697.68,-127.32 4752.65,-104.38 4782.25,-92.03"/>
<polygon fill="midnightblue" stroke="midnightblue" points="4661.98,-138.42 4654.09,-145.5 4664.67,-144.88 4661.98,-138.42"/>
</g>
<!-- Node11 -->
<g id="node11" class="node">
<title>Node11</title>
<g id="a_node11"><a xlink:href="../../de/da8/vbank_8cpp.html" target="_top" xlink:title=" ">
<polygon fill="white" stroke="black" points="4897.71,-73 4897.71,-92 5041.71,-92 5041.71,-73 4897.71,-73"/>
<text text-anchor="middle" x="4969.71" y="-80" font-family="Helvetica,sans-Serif" font-size="10.00">src/libs/vlayout/vbank.cpp</text>
</a>
</g>
</g>
<!-- Node9&#45;&gt;Node11 -->
<g id="edge11" class="edge">
<title>Node9&#45;&gt;Node11</title>
<path fill="none" stroke="midnightblue" d="M4684.12,-143.42C4750.93,-129.4 4867.52,-104.94 4929.04,-92.03"/>
<polygon fill="midnightblue" stroke="midnightblue" points="4683.31,-140.02 4674.24,-145.5 4684.74,-146.87 4683.31,-140.02"/>
</g>
<!-- Node12 -->
<g id="node12" class="node">
<title>Node12</title>
<g id="a_node12"><a xlink:href="../../df/d5d/vcontour_8cpp.html" target="_top" xlink:title=" ">
<polygon fill="white" stroke="black" points="5059.71,-73 5059.71,-92 5215.71,-92 5215.71,-73 5059.71,-73"/>
<text text-anchor="middle" x="5137.71" y="-80" font-family="Helvetica,sans-Serif" font-size="10.00">src/libs/vlayout/vcontour.cpp</text>
</a>
</g>
</g>
<!-- Node9&#45;&gt;Node12 -->
<g id="edge12" class="edge">
<title>Node9&#45;&gt;Node12</title>
<path fill="none" stroke="midnightblue" d="M4712.02,-144.23C4795.91,-133.6 4932.88,-115.73 5050.71,-98 5062.82,-96.18 5075.86,-94.08 5088.06,-92.05"/>
<polygon fill="midnightblue" stroke="midnightblue" points="4711.54,-140.77 4702.06,-145.5 4712.42,-147.71 4711.54,-140.77"/>
</g>
<!-- Node13 -->
<g id="node13" class="node">
<title>Node13</title>
<g id="a_node13"><a xlink:href="../../d3/d39/vlayoutgenerator_8cpp.html" target="_top" xlink:title=" ">
<polygon fill="white" stroke="black" points="5234.21,-73 5234.21,-92 5431.21,-92 5431.21,-73 5234.21,-73"/>
<text text-anchor="middle" x="5332.71" y="-80" font-family="Helvetica,sans-Serif" font-size="10.00">src/libs/vlayout/vlayoutgenerator.cpp</text>
</a>
</g>
</g>
<!-- Node9&#45;&gt;Node13 -->
<g id="edge13" class="edge">
<title>Node9&#45;&gt;Node13</title>
<path fill="none" stroke="midnightblue" d="M4727.32,-146.26C4843.95,-136.37 5049.28,-118.08 5224.71,-98 5240.22,-96.23 5256.94,-94.09 5272.5,-92.01"/>
<polygon fill="midnightblue" stroke="midnightblue" points="4726.68,-142.81 4717.01,-147.14 4727.27,-149.78 4726.68,-142.81"/>
</g>
<!-- Node14 -->
<g id="node14" class="node">
<title>Node14</title>
<g id="a_node14"><a xlink:href="../../d1/dd1/vlayoutpaper_8cpp.html" target="_top" xlink:title=" ">
<polygon fill="white" stroke="black" points="4362.71,-6 4362.71,-25 4540.71,-25 4540.71,-6 4362.71,-6"/>
<text text-anchor="middle" x="4451.71" y="-13" font-family="Helvetica,sans-Serif" font-size="10.00">src/libs/vlayout/vlayoutpaper.cpp</text>
</a>
</g>
</g>
<!-- Node9&#45;&gt;Node14 -->
<g id="edge14" class="edge">
<title>Node9&#45;&gt;Node14</title>
<path fill="none" stroke="midnightblue" d="M4540.46,-147.83C4468.42,-140.89 4377.16,-126.61 4353.71,-98 4328.11,-66.77 4388.81,-38.65 4425.78,-25.07"/>
<polygon fill="midnightblue" stroke="midnightblue" points="4540.21,-151.32 4550.49,-148.76 4540.85,-144.35 4540.21,-151.32"/>
</g>
<!-- Node15 -->
<g id="node15" class="node">
<title>Node15</title>
<g id="a_node15"><a xlink:href="../../d2/d2d/vlayoutpaper__p_8h.html" target="_top" xlink:title=" ">
<polygon fill="white" stroke="black" points="4362.21,-73 4362.21,-92 4541.21,-92 4541.21,-73 4362.21,-73"/>
<text text-anchor="middle" x="4451.71" y="-80" font-family="Helvetica,sans-Serif" font-size="10.00">src/libs/vlayout/vlayoutpaper_p.h</text>
</a>
</g>
</g>
<!-- Node9&#45;&gt;Node15 -->
<g id="edge15" class="edge">
<title>Node9&#45;&gt;Node15</title>
<path fill="none" stroke="midnightblue" d="M4602.05,-141.74C4565.33,-127.51 4505.76,-104.44 4473.74,-92.03"/>
<polygon fill="midnightblue" stroke="midnightblue" points="4601.17,-145.15 4611.76,-145.5 4603.7,-138.62 4601.17,-145.15"/>
</g>
<!-- Node16 -->
<g id="node16" class="node">
<title>Node16</title>
<g id="a_node16"><a xlink:href="../../db/d5c/vposition_8h.html" target="_top" xlink:title=" ">
<polygon fill="white" stroke="red" points="4559.71,-73 4559.71,-92 4707.71,-92 4707.71,-73 4559.71,-73"/>
<text text-anchor="middle" x="4633.71" y="-80" font-family="Helvetica,sans-Serif" font-size="10.00">src/libs/vlayout/vposition.h</text>
</a>
</g>
</g>
<!-- Node9&#45;&gt;Node16 -->
<g id="edge17" class="edge">
<title>Node9&#45;&gt;Node16</title>
<path fill="none" stroke="midnightblue" d="M4633.71,-134.94C4633.71,-121.03 4633.71,-102.82 4633.71,-92.22"/>
<polygon fill="midnightblue" stroke="midnightblue" points="4630.21,-135.36 4633.71,-145.36 4637.21,-135.36 4630.21,-135.36"/>
</g>
<!-- Node18 -->
<g id="node17" class="node">
<title>Node18</title>
<g id="a_node17"><a xlink:href="../../dd/d70/vlayoutpiece_8cpp.html" target="_top" xlink:title=" ">
<polygon fill="white" stroke="black" points="4129.21,-73 4129.21,-92 4306.21,-92 4306.21,-73 4129.21,-73"/>
<text text-anchor="middle" x="4217.71" y="-80" font-family="Helvetica,sans-Serif" font-size="10.00">src/libs/vlayout/vlayoutpiece.cpp</text>
</a>
</g>
</g>
<!-- Node9&#45;&gt;Node18 -->
<g id="edge19" class="edge">
<title>Node9&#45;&gt;Node18</title>
<path fill="none" stroke="midnightblue" d="M4573.57,-143.81C4491.25,-129.86 4344.93,-105.06 4268.07,-92.03"/>
<polygon fill="midnightblue" stroke="midnightblue" points="4573.09,-147.28 4583.53,-145.5 4574.26,-140.37 4573.09,-147.28"/>
</g>
<!-- Node15&#45;&gt;Node14 -->
<g id="edge16" class="edge">
<title>Node15&#45;&gt;Node14</title>
<path fill="none" stroke="midnightblue" d="M4451.71,-62.54C4451.71,-50.17 4451.71,-34.62 4451.71,-25.13"/>
<polygon fill="midnightblue" stroke="midnightblue" points="4448.21,-62.73 4451.71,-72.73 4455.21,-62.73 4448.21,-62.73"/>
</g>
<!-- Node16&#45;&gt;Node14 -->
<g id="edge18" class="edge">
<title>Node16&#45;&gt;Node14</title>
<path fill="none" stroke="midnightblue" d="M4599.93,-69.44C4563.83,-56.54 4507.5,-36.42 4475.69,-25.06"/>
<polygon fill="midnightblue" stroke="midnightblue" points="4598.95,-72.8 4609.54,-72.87 4601.3,-66.21 4598.95,-72.8"/>
</g>
<!-- Node20&#45;&gt;Node3 -->
<g id="edge40" class="edge">
<title>Node20&#45;&gt;Node3</title>
<path fill="none" stroke="midnightblue" d="M1950.67,-151.45C1557.78,-142.09 223.18,-109.61 132.71,-98 129.7,-97.61 126.63,-97.15 123.54,-96.62"/>
<polygon fill="midnightblue" stroke="midnightblue" points="1950.82,-154.95 1960.9,-151.69 1950.98,-147.95 1950.82,-154.95"/>
</g>
<!-- Node20&#45;&gt;Node6 -->
<g id="edge24" class="edge">
<title>Node20&#45;&gt;Node6</title>
<path fill="none" stroke="midnightblue" d="M1950.91,-148.81C1857.7,-144.44 1719.34,-138.25 1598.71,-134 1301.9,-123.55 557.45,-134.5 262.71,-98 259.84,-97.64 256.91,-97.22 253.96,-96.74"/>
<polygon fill="midnightblue" stroke="midnightblue" points="1950.76,-152.31 1960.92,-149.28 1951.09,-145.31 1950.76,-152.31"/>
</g>
<!-- Node20&#45;&gt;Node18 -->
<g id="edge34" class="edge">
<title>Node20&#45;&gt;Node18</title>
<path fill="none" stroke="midnightblue" d="M2132.62,-144.3C2165.37,-140.39 2204.4,-136.28 2239.71,-134 3073.68,-80.05 3286.88,-167.3 4119.71,-98 4135.65,-96.67 4152.94,-94.4 4168.5,-92.04"/>
<polygon fill="midnightblue" stroke="midnightblue" points="2132.17,-140.82 2122.67,-145.5 2133.01,-147.77 2132.17,-140.82"/>
</g>
<!-- Node20&#45;&gt;Node19 -->
<g id="edge35" class="edge">
<title>Node20&#45;&gt;Node19</title>
<path fill="none" stroke="midnightblue" d="M1970.45,-144.45C1931.63,-140.6 1885.45,-136.48 1843.71,-134 1230.81,-97.54 1074.48,-150.14 462.71,-98 446.54,-96.62 429,-94.35 413.19,-92"/>
<polygon fill="midnightblue" stroke="midnightblue" points="1970.38,-147.96 1980.68,-145.48 1971.08,-141 1970.38,-147.96"/>
</g>
<!-- Node21 -->
<g id="node20" class="node">
<title>Node21</title>
<g id="a_node20"><a xlink:href="../../d4/d90/fvupdater_8cpp.html" target="_top" xlink:title=" ">
<polygon fill="white" stroke="black" points="2099.21,-73 2099.21,-92 2252.21,-92 2252.21,-73 2099.21,-73"/>
<text text-anchor="middle" x="2175.71" y="-80" font-family="Helvetica,sans-Serif" font-size="10.00">src/libs/fervor/fvupdater.cpp</text>
</a>
</g>
</g>
<!-- Node20&#45;&gt;Node21 -->
<g id="edge22" class="edge">
<title>Node20&#45;&gt;Node21</title>
<path fill="none" stroke="midnightblue" d="M2081.74,-140.12C2105.35,-125.89 2141.36,-104.2 2161.25,-92.22"/>
<polygon fill="midnightblue" stroke="midnightblue" points="2079.81,-137.2 2073.06,-145.36 2083.43,-143.19 2079.81,-137.2"/>
</g>
<!-- Node22 -->
<g id="node21" class="node">
<title>Node22</title>
<g id="a_node21"><a xlink:href="../../d1/d8d/image__item_8h.html" target="_top" xlink:title=" ">
<polygon fill="white" stroke="red" points="2270.71,-67.5 2270.71,-97.5 2382.71,-97.5 2382.71,-67.5 2270.71,-67.5"/>
<text text-anchor="start" x="2278.71" y="-85.5" font-family="Helvetica,sans-Serif" font-size="10.00">src/libs/tools/image</text>
<text text-anchor="middle" x="2326.71" y="-74.5" font-family="Helvetica,sans-Serif" font-size="10.00">_item.h</text>
</a>
</g>
</g>
<!-- Node20&#45;&gt;Node22 -->
<g id="edge23" class="edge">
<title>Node20&#45;&gt;Node22</title>
<path fill="none" stroke="midnightblue" d="M2100.82,-142.92C2147.47,-130.65 2222.77,-110.84 2273.47,-97.51"/>
<polygon fill="midnightblue" stroke="midnightblue" points="2099.82,-139.57 2091.04,-145.5 2101.6,-146.34 2099.82,-139.57"/>
</g>
<!-- Node32 -->
<g id="node22" class="node">
<title>Node32</title>
<g id="a_node22"><a xlink:href="../../d9/dc8/dxiface_8cpp.html" target="_top" xlink:title=" ">
<polygon fill="white" stroke="black" points="2401.21,-73 2401.21,-92 2536.21,-92 2536.21,-73 2401.21,-73"/>
<text text-anchor="middle" x="2468.71" y="-80" font-family="Helvetica,sans-Serif" font-size="10.00">src/libs/vdxf/dxiface.cpp</text>
</a>
</g>
</g>
<!-- Node20&#45;&gt;Node32 -->
<g id="edge25" class="edge">
<title>Node20&#45;&gt;Node32</title>
<path fill="none" stroke="midnightblue" d="M2114.93,-143.67C2132.47,-140.5 2151.88,-137.05 2169.71,-134 2268.23,-117.14 2293.25,-115.25 2391.71,-98 2402.29,-96.15 2413.68,-94.05 2424.36,-92.05"/>
<polygon fill="midnightblue" stroke="midnightblue" points="2114.07,-140.27 2104.85,-145.5 2115.32,-147.16 2114.07,-140.27"/>
</g>
<!-- Node33 -->
<g id="node23" class="node">
<title>Node33</title>
<g id="a_node23"><a xlink:href="../../da/d75/vabstractarc__p_8h.html" target="_top" xlink:title=" ">
<polygon fill="white" stroke="red" points="2554.21,-67.5 2554.21,-97.5 2661.21,-97.5 2661.21,-67.5 2554.21,-67.5"/>
<text text-anchor="start" x="2562.21" y="-85.5" font-family="Helvetica,sans-Serif" font-size="10.00">src/libs/vgeometry</text>
<text text-anchor="middle" x="2607.71" y="-74.5" font-family="Helvetica,sans-Serif" font-size="10.00">/vabstractarc_p.h</text>
</a>
</g>
</g>
<!-- Node20&#45;&gt;Node33 -->
<g id="edge26" class="edge">
<title>Node20&#45;&gt;Node33</title>
<path fill="none" stroke="midnightblue" d="M2111.24,-143.62C2129.67,-140.22 2150.56,-136.64 2169.71,-134 2335.57,-111.14 2379.44,-124.83 2544.71,-98 2547.81,-97.5 2550.99,-96.93 2554.19,-96.32"/>
<polygon fill="midnightblue" stroke="midnightblue" points="2110.46,-140.2 2101.27,-145.48 2111.75,-147.08 2110.46,-140.2"/>
</g>
<!-- Node35 -->
<g id="node24" class="node">
<title>Node35</title>
<g id="a_node24"><a xlink:href="../../dc/da3/varc__p_8h.html" target="_top" xlink:title=" ">
<polygon fill="white" stroke="red" points="2679.21,-67.5 2679.21,-97.5 2786.21,-97.5 2786.21,-67.5 2679.21,-67.5"/>
<text text-anchor="start" x="2687.21" y="-85.5" font-family="Helvetica,sans-Serif" font-size="10.00">src/libs/vgeometry</text>
<text text-anchor="middle" x="2732.71" y="-74.5" font-family="Helvetica,sans-Serif" font-size="10.00">/varc_p.h</text>
</a>
</g>
</g>
<!-- Node20&#45;&gt;Node35 -->
<g id="edge27" class="edge">
<title>Node20&#45;&gt;Node35</title>
<path fill="none" stroke="midnightblue" d="M2109.77,-143.63C2128.55,-140.12 2150.03,-136.47 2169.71,-134 2390.77,-106.21 2449.38,-131.08 2669.71,-98 2672.82,-97.53 2676,-97 2679.2,-96.41"/>
<polygon fill="midnightblue" stroke="midnightblue" points="2109.1,-140.19 2099.93,-145.5 2110.41,-147.07 2109.1,-140.19"/>
</g>
<!-- Node37 -->
<g id="node25" class="node">
<title>Node37</title>
<g id="a_node25"><a xlink:href="../../d5/d8e/vcubicbezier__p_8h.html" target="_top" xlink:title=" ">
<polygon fill="white" stroke="red" points="2804.21,-67.5 2804.21,-97.5 2911.21,-97.5 2911.21,-67.5 2804.21,-67.5"/>
<text text-anchor="start" x="2812.21" y="-85.5" font-family="Helvetica,sans-Serif" font-size="10.00">src/libs/vgeometry</text>
<text text-anchor="middle" x="2857.71" y="-74.5" font-family="Helvetica,sans-Serif" font-size="10.00">/vcubicbezier_p.h</text>
</a>
</g>
</g>
<!-- Node20&#45;&gt;Node37 -->
<g id="edge28" class="edge">
<title>Node20&#45;&gt;Node37</title>
<path fill="none" stroke="midnightblue" d="M2109.28,-143.56C2128.16,-140.01 2149.85,-136.35 2169.71,-134 2446.02,-101.27 2519.27,-137.34 2794.71,-98 2797.82,-97.56 2801,-97.04 2804.21,-96.46"/>
<polygon fill="midnightblue" stroke="midnightblue" points="2108.55,-140.14 2099.39,-145.45 2109.87,-147.01 2108.55,-140.14"/>
</g>
<!-- Node39 -->
<g id="node26" class="node">
<title>Node39</title>
<g id="a_node26"><a xlink:href="../../df/dde/vellipticalarc__p_8h.html" target="_top" xlink:title=" ">
<polygon fill="white" stroke="black" points="2929.21,-67.5 2929.21,-97.5 3036.21,-97.5 3036.21,-67.5 2929.21,-67.5"/>
<text text-anchor="start" x="2937.21" y="-85.5" font-family="Helvetica,sans-Serif" font-size="10.00">src/libs/vgeometry</text>
<text text-anchor="middle" x="2982.71" y="-74.5" font-family="Helvetica,sans-Serif" font-size="10.00">/vellipticalarc_p.h</text>
</a>
</g>
</g>
<!-- Node20&#45;&gt;Node39 -->
<g id="edge29" class="edge">
<title>Node20&#45;&gt;Node39</title>
<path fill="none" stroke="midnightblue" d="M2108.79,-143.55C2127.79,-139.96 2149.67,-136.28 2169.71,-134 2501.74,-96.29 2589.76,-144.24 2920.71,-98 2923.45,-97.62 2926.24,-97.17 2929.05,-96.68"/>
<polygon fill="midnightblue" stroke="midnightblue" points="2108.01,-140.13 2098.86,-145.46 2109.34,-147 2108.01,-140.13"/>
</g>
<!-- Node40 -->
<g id="node27" class="node">
<title>Node40</title>
<g id="a_node27"><a xlink:href="../../d6/dfb/vellipticalarc_8cpp.html" target="_top" xlink:title=" ">
<polygon fill="white" stroke="black" points="2349.21,-0.5 2349.21,-30.5 2456.21,-30.5 2456.21,-0.5 2349.21,-0.5"/>
<text text-anchor="start" x="2357.21" y="-18.5" font-family="Helvetica,sans-Serif" font-size="10.00">src/libs/vgeometry</text>
<text text-anchor="middle" x="2402.71" y="-7.5" font-family="Helvetica,sans-Serif" font-size="10.00">/vellipticalarc.cpp</text>
</a>
</g>
</g>
<!-- Node20&#45;&gt;Node40 -->
<g id="edge31" class="edge">
<title>Node20&#45;&gt;Node40</title>
<path fill="none" stroke="midnightblue" d="M1952.9,-143.99C1879.88,-133.07 1802.6,-110.89 1842.71,-67 1876.46,-30.07 2215.26,-19.9 2348.91,-17.32"/>
<polygon fill="midnightblue" stroke="midnightblue" points="1952.77,-147.51 1963.16,-145.46 1953.76,-140.58 1952.77,-147.51"/>
</g>
<!-- Node41 -->
<g id="node28" class="node">
<title>Node41</title>
<g id="a_node28"><a xlink:href="../../d1/d76/vspline__p_8h.html" target="_top" xlink:title=" ">
<polygon fill="white" stroke="red" points="3054.21,-67.5 3054.21,-97.5 3161.21,-97.5 3161.21,-67.5 3054.21,-67.5"/>
<text text-anchor="start" x="3062.21" y="-85.5" font-family="Helvetica,sans-Serif" font-size="10.00">src/libs/vgeometry</text>
<text text-anchor="middle" x="3107.71" y="-74.5" font-family="Helvetica,sans-Serif" font-size="10.00">/vspline_p.h</text>
</a>
</g>
</g>
<!-- Node20&#45;&gt;Node41 -->
<g id="edge32" class="edge">
<title>Node20&#45;&gt;Node41</title>
<path fill="none" stroke="midnightblue" d="M2108.32,-143.56C2127.42,-139.94 2149.5,-136.23 2169.71,-134 2557.03,-91.35 2659.61,-150.6 3045.71,-98 3048.45,-97.63 3051.24,-97.19 3054.06,-96.7"/>
<polygon fill="midnightblue" stroke="midnightblue" points="2107.48,-140.16 2098.33,-145.5 2108.82,-147.03 2107.48,-140.16"/>
</g>
<!-- Node43 -->
<g id="node29" class="node">
<title>Node43</title>
<g id="a_node29"><a xlink:href="../../d9/d15/vabstractpiece_8cpp.html" target="_top" xlink:title=" ">
<polygon fill="white" stroke="black" points="3179.71,-73 3179.71,-92 3365.71,-92 3365.71,-73 3179.71,-73"/>
<text text-anchor="middle" x="3272.71" y="-80" font-family="Helvetica,sans-Serif" font-size="10.00">src/libs/vlayout/vabstractpiece.cpp</text>
</a>
</g>
</g>
<!-- Node20&#45;&gt;Node43 -->
<g id="edge33" class="edge">
<title>Node20&#45;&gt;Node43</title>
<path fill="none" stroke="midnightblue" d="M2108.08,-143.55C2127.23,-139.9 2149.41,-136.18 2169.71,-134 2612.33,-86.41 2727.28,-137.38 3170.71,-98 3186.92,-96.56 3204.5,-94.31 3220.42,-92.01"/>
<polygon fill="midnightblue" stroke="midnightblue" points="2107.22,-140.15 2098.07,-145.5 2108.55,-147.02 2107.22,-140.15"/>
</g>
<!-- Node44 -->
<g id="node30" class="node">
<title>Node44</title>
<g id="a_node30"><a xlink:href="../../db/d65/dialogexporttocsv_8cpp.html" target="_top" xlink:title=" ">
<polygon fill="white" stroke="black" points="3384.21,-67.5 3384.21,-97.5 3511.21,-97.5 3511.21,-67.5 3384.21,-67.5"/>
<text text-anchor="start" x="3392.21" y="-85.5" font-family="Helvetica,sans-Serif" font-size="10.00">src/libs/vmisc/dialogs</text>
<text text-anchor="middle" x="3447.71" y="-74.5" font-family="Helvetica,sans-Serif" font-size="10.00">/dialogexporttocsv.cpp</text>
</a>
</g>
</g>
<!-- Node20&#45;&gt;Node44 -->
<g id="edge36" class="edge">
<title>Node20&#45;&gt;Node44</title>
<path fill="none" stroke="midnightblue" d="M2107.84,-143.53C2127.05,-139.86 2149.32,-136.13 2169.71,-134 2702.61,-78.34 2842.33,-158.4 3374.71,-98 3377.79,-97.65 3380.94,-97.24 3384.11,-96.78"/>
<polygon fill="midnightblue" stroke="midnightblue" points="2106.95,-140.14 2097.81,-145.49 2108.29,-147.01 2106.95,-140.14"/>
</g>
<!-- Node45 -->
<g id="node31" class="node">
<title>Node45</title>
<g id="a_node31"><a xlink:href="../../d6/d0b/def_8cpp.html" target="_top" xlink:title=" ">
<polygon fill="white" stroke="black" points="3529.71,-73 3529.71,-92 3651.71,-92 3651.71,-73 3529.71,-73"/>
<text text-anchor="middle" x="3590.71" y="-80" font-family="Helvetica,sans-Serif" font-size="10.00">src/libs/vmisc/def.cpp</text>
</a>
</g>
</g>
<!-- Node20&#45;&gt;Node45 -->
<g id="edge37" class="edge">
<title>Node20&#45;&gt;Node45</title>
<path fill="none" stroke="midnightblue" d="M2107.83,-143.5C2127.04,-139.82 2149.32,-136.1 2169.71,-134 2767.22,-72.57 2924.05,-167.19 3520.71,-98 3532.17,-96.67 3544.55,-94.39 3555.66,-92.03"/>
<polygon fill="midnightblue" stroke="midnightblue" points="2106.94,-140.1 2097.8,-145.46 2108.29,-146.97 2106.94,-140.1"/>
</g>
<!-- Node46 -->
<g id="node32" class="node">
<title>Node46</title>
<g id="a_node32"><a xlink:href="../../d0/df6/vabstractapplication_8cpp.html" target="_top" xlink:title=" ">
<polygon fill="white" stroke="black" points="471.71,-73 471.71,-92 677.71,-92 677.71,-73 471.71,-73"/>
<text text-anchor="middle" x="574.71" y="-80" font-family="Helvetica,sans-Serif" font-size="10.00">src/libs/vmisc/vabstractapplication.cpp</text>
</a>
</g>
</g>
<!-- Node20&#45;&gt;Node46 -->
<g id="edge38" class="edge">
<title>Node20&#45;&gt;Node46</title>
<path fill="none" stroke="midnightblue" d="M1969.73,-144.48C1931.05,-140.67 1885.18,-136.57 1843.71,-134 1330.22,-102.16 1199.54,-139.08 686.71,-98 668.92,-96.58 649.63,-94.33 632.15,-92.03"/>
<polygon fill="midnightblue" stroke="midnightblue" points="1969.62,-147.99 1979.92,-145.5 1970.31,-141.02 1969.62,-147.99"/>
</g>
<!-- Node47 -->
<g id="node33" class="node">
<title>Node47</title>
<g id="a_node33"><a xlink:href="../../d4/d4f/pmsystems_8cpp.html" target="_top" xlink:title=" ">
<polygon fill="white" stroke="black" points="821.21,-67.5 821.21,-97.5 928.21,-97.5 928.21,-67.5 821.21,-67.5"/>
<text text-anchor="start" x="829.21" y="-85.5" font-family="Helvetica,sans-Serif" font-size="10.00">src/libs/vpatterndb</text>
<text text-anchor="middle" x="874.71" y="-74.5" font-family="Helvetica,sans-Serif" font-size="10.00">/pmsystems.cpp</text>
</a>
</g>
</g>
<!-- Node20&#45;&gt;Node47 -->
<g id="edge39" class="edge">
<title>Node20&#45;&gt;Node47</title>
<path fill="none" stroke="midnightblue" d="M1968.03,-144.49C1929.71,-140.75 1884.57,-136.71 1843.71,-134 1441.61,-107.33 1337.14,-151.43 937.71,-98 934.71,-97.6 931.64,-97.12 928.54,-96.59"/>
<polygon fill="midnightblue" stroke="midnightblue" points="1967.84,-147.99 1978.13,-145.48 1968.53,-141.02 1967.84,-147.99"/>
</g>
<!-- Node20&#45;&gt;Node48 -->
<g id="edge41" class="edge">
<title>Node20&#45;&gt;Node48</title>
<path fill="none" stroke="midnightblue" d="M2107.6,-143.51C2126.86,-139.82 2149.23,-136.08 2169.71,-134 2829.18,-67.03 3003.04,-180.76 3660.71,-98 3663.72,-97.62 3666.79,-97.16 3669.88,-96.64"/>
<polygon fill="midnightblue" stroke="midnightblue" points="2106.68,-140.13 2097.54,-145.49 2108.03,-147 2106.68,-140.13"/>
</g>
<!-- Node49 -->
<g id="node35" class="node">
<title>Node49</title>
<g id="a_node35"><a xlink:href="../../df/dba/vpiecenode__p_8h.html" target="_top" xlink:title=" ">
<polygon fill="white" stroke="black" points="696.21,-67.5 696.21,-97.5 803.21,-97.5 803.21,-67.5 696.21,-67.5"/>
<text text-anchor="start" x="704.21" y="-85.5" font-family="Helvetica,sans-Serif" font-size="10.00">src/libs/vpatterndb</text>
<text text-anchor="middle" x="749.71" y="-74.5" font-family="Helvetica,sans-Serif" font-size="10.00">/vpiecenode_p.h</text>
</a>
</g>
</g>
<!-- Node20&#45;&gt;Node49 -->
<g id="edge42" class="edge">
<title>Node20&#45;&gt;Node49</title>
<path fill="none" stroke="midnightblue" d="M1969,-144.49C1930.47,-140.7 1884.92,-136.63 1843.71,-134 1385.7,-104.73 1266.64,-158.54 811.71,-98 808.97,-97.64 806.17,-97.2 803.36,-96.72"/>
<polygon fill="midnightblue" stroke="midnightblue" points="1968.86,-147.99 1979.15,-145.49 1969.55,-141.02 1968.86,-147.99"/>
</g>
<!-- Node20&#45;&gt;Node51 -->
<g id="edge44" class="edge">
<title>Node20&#45;&gt;Node51</title>
<path fill="none" stroke="midnightblue" d="M2121.25,-144.04C2147.83,-140.21 2179.21,-136.23 2207.71,-134 2557.62,-106.61 3438.52,-142.2 3786.71,-98 3789.45,-97.65 3792.25,-97.23 3795.06,-96.76"/>
<polygon fill="midnightblue" stroke="midnightblue" points="2120.7,-140.58 2111.31,-145.49 2121.71,-147.51 2120.7,-140.58"/>
</g>
<!-- Node52 -->
<g id="node38" class="node">
<title>Node52</title>
<g id="a_node38"><a xlink:href="../../de/d3e/vtranslatevars_8cpp.html" target="_top" xlink:title=" ">
<polygon fill="white" stroke="black" points="946.71,-67.5 946.71,-97.5 1056.71,-97.5 1056.71,-67.5 946.71,-67.5"/>
<text text-anchor="start" x="954.71" y="-85.5" font-family="Helvetica,sans-Serif" font-size="10.00">src/libs/vpatterndb</text>
<text text-anchor="middle" x="1001.71" y="-74.5" font-family="Helvetica,sans-Serif" font-size="10.00">/vtranslatevars.cpp</text>
</a>
</g>
</g>
<!-- Node20&#45;&gt;Node52 -->
<g id="edge45" class="edge">
<title>Node20&#45;&gt;Node52</title>
<path fill="none" stroke="midnightblue" d="M1966.81,-144.5C1928.75,-140.82 1884.13,-136.81 1843.71,-134 1498.4,-109.96 1408.73,-144.42 1065.71,-98 1062.77,-97.6 1059.77,-97.14 1056.75,-96.62"/>
<polygon fill="midnightblue" stroke="midnightblue" points="1966.56,-148 1976.85,-145.48 1967.24,-141.03 1966.56,-148"/>
</g>
<!-- Node26 -->
<g id="node39" class="node">
<title>Node26</title>
<g id="a_node39"><a xlink:href="../../df/d40/export__format__combobox_8cpp.html" target="_top" xlink:title=" ">
<polygon fill="white" stroke="black" points="1075.21,-67.5 1075.21,-97.5 1208.21,-97.5 1208.21,-67.5 1075.21,-67.5"/>
<text text-anchor="start" x="1083.21" y="-85.5" font-family="Helvetica,sans-Serif" font-size="10.00">src/libs/vwidgets/export</text>
<text text-anchor="middle" x="1141.71" y="-74.5" font-family="Helvetica,sans-Serif" font-size="10.00">_format_combobox.cpp</text>
</a>
</g>
</g>
<!-- Node20&#45;&gt;Node26 -->
<g id="edge46" class="edge">
<title>Node20&#45;&gt;Node26</title>
<path fill="none" stroke="midnightblue" d="M1964.13,-144.47C1926.66,-140.89 1883.18,-136.97 1843.71,-134 1565.81,-113.09 1494.29,-132.19 1217.71,-98 1214.64,-97.62 1211.51,-97.19 1208.36,-96.73"/>
<polygon fill="midnightblue" stroke="midnightblue" points="1964.24,-148 1974.53,-145.48 1964.91,-141.03 1964.24,-148"/>
</g>
<!-- Node53 -->
<g id="node40" class="node">
<title>Node53</title>
<g id="a_node40"><a xlink:href="../../d3/d4f/mouse__coordinates_8cpp.html" target="_top" xlink:title=" ">
<polygon fill="white" stroke="black" points="1226.71,-67.5 1226.71,-97.5 1360.71,-97.5 1360.71,-67.5 1226.71,-67.5"/>
<text text-anchor="start" x="1234.71" y="-85.5" font-family="Helvetica,sans-Serif" font-size="10.00">src/libs/vwidgets/mouse</text>
<text text-anchor="middle" x="1293.71" y="-74.5" font-family="Helvetica,sans-Serif" font-size="10.00">_coordinates.cpp</text>
</a>
</g>
</g>
<!-- Node20&#45;&gt;Node53 -->
<g id="edge47" class="edge">
<title>Node20&#45;&gt;Node53</title>
<path fill="none" stroke="midnightblue" d="M1960.67,-144.53C1923.99,-141.08 1881.95,-137.23 1843.71,-134 1633.19,-116.21 1579.14,-125.84 1369.71,-98 1366.78,-97.61 1363.79,-97.18 1360.78,-96.72"/>
<polygon fill="midnightblue" stroke="midnightblue" points="1960.59,-148.03 1970.87,-145.49 1961.24,-141.07 1960.59,-148.03"/>
</g>
<!-- Node29 -->
<g id="node41" class="node">
<title>Node29</title>
<g id="a_node41"><a xlink:href="../../d2/d28/page__format__combobox_8cpp.html" target="_top" xlink:title=" ">
<polygon fill="white" stroke="black" points="1379.21,-67.5 1379.21,-97.5 1510.21,-97.5 1510.21,-67.5 1379.21,-67.5"/>
<text text-anchor="start" x="1387.21" y="-85.5" font-family="Helvetica,sans-Serif" font-size="10.00">src/libs/vwidgets/page</text>
<text text-anchor="middle" x="1444.71" y="-74.5" font-family="Helvetica,sans-Serif" font-size="10.00">_format_combobox.cpp</text>
</a>
</g>
</g>
<!-- Node20&#45;&gt;Node29 -->
<g id="edge48" class="edge">
<title>Node20&#45;&gt;Node29</title>
<path fill="none" stroke="midnightblue" d="M1956.76,-144.54C1824.38,-132.05 1600.59,-110.24 1518.71,-98 1515.99,-97.59 1513.22,-97.16 1510.42,-96.7"/>
<polygon fill="midnightblue" stroke="midnightblue" points="1956.63,-148.04 1966.92,-145.49 1957.29,-141.07 1956.63,-148.04"/>
</g>
<!-- Node54 -->
<g id="node42" class="node">
<title>Node54</title>
<g id="a_node42"><a xlink:href="../../d7/d1b/pen__toolbar_8cpp.html" target="_top" xlink:title=" ">
<polygon fill="white" stroke="black" points="1528.21,-67.5 1528.21,-97.5 1647.21,-97.5 1647.21,-67.5 1528.21,-67.5"/>
<text text-anchor="start" x="1536.21" y="-85.5" font-family="Helvetica,sans-Serif" font-size="10.00">src/libs/vwidgets/pen</text>
<text text-anchor="middle" x="1587.71" y="-74.5" font-family="Helvetica,sans-Serif" font-size="10.00">_toolbar.cpp</text>
</a>
</g>
</g>
<!-- Node20&#45;&gt;Node54 -->
<g id="edge49" class="edge">
<title>Node20&#45;&gt;Node54</title>
<path fill="none" stroke="midnightblue" d="M1976.4,-144.21C1894.96,-134.14 1766.88,-117.23 1656.71,-98 1653.69,-97.47 1650.61,-96.91 1647.5,-96.33"/>
<polygon fill="midnightblue" stroke="midnightblue" points="1976.23,-147.72 1986.58,-145.47 1977.09,-140.77 1976.23,-147.72"/>
</g>
<!-- Node55 -->
<g id="node43" class="node">
<title>Node55</title>
<g id="a_node43"><a xlink:href="../../d8/d76/scene__rect_8cpp.html" target="_top" xlink:title=" ">
<polygon fill="white" stroke="black" points="1665.71,-67.5 1665.71,-97.5 1795.71,-97.5 1795.71,-67.5 1665.71,-67.5"/>
<text text-anchor="start" x="1673.71" y="-85.5" font-family="Helvetica,sans-Serif" font-size="10.00">src/libs/vwidgets/scene</text>
<text text-anchor="middle" x="1730.71" y="-74.5" font-family="Helvetica,sans-Serif" font-size="10.00">_rect.cpp</text>
</a>
</g>
</g>
<!-- Node20&#45;&gt;Node55 -->
<g id="edge50" class="edge">
<title>Node20&#45;&gt;Node55</title>
<path fill="none" stroke="midnightblue" d="M2009.31,-143.38C1952.41,-131.15 1858.7,-111.01 1795.87,-97.51"/>
<polygon fill="midnightblue" stroke="midnightblue" points="2008.63,-146.82 2019.14,-145.5 2010.1,-139.97 2008.63,-146.82"/>
</g>
<!-- Node56 -->
<g id="node44" class="node">
<title>Node56</title>
<g id="a_node44"><a xlink:href="../../dd/df6/vabstractmainwindow_8cpp.html" target="_top" xlink:title=" ">
<polygon fill="white" stroke="black" points="1852.21,-73 1852.21,-92 2081.21,-92 2081.21,-73 1852.21,-73"/>
<text text-anchor="middle" x="1966.71" y="-80" font-family="Helvetica,sans-Serif" font-size="10.00">src/libs/vwidgets/vabstractmainwindow.cpp</text>
</a>
</g>
</g>
<!-- Node20&#45;&gt;Node56 -->
<g id="edge51" class="edge">
<title>Node20&#45;&gt;Node56</title>
<path fill="none" stroke="midnightblue" d="M2039.35,-139.17C2020.79,-124.94 1993.37,-103.93 1978.08,-92.22"/>
<polygon fill="midnightblue" stroke="midnightblue" points="2037.36,-142.05 2047.43,-145.36 2041.62,-136.49 2037.36,-142.05"/>
</g>
<!-- Node39&#45;&gt;Node40 -->
<g id="edge30" class="edge">
<title>Node39&#45;&gt;Node40</title>
<path fill="none" stroke="midnightblue" d="M2918.91,-66.83C2744.79,-38.7 2548.91,-24.86 2456.33,-19.38"/>
<polygon fill="midnightblue" stroke="midnightblue" points="2918.59,-70.33 2929.03,-68.49 2919.72,-63.42 2918.59,-70.33"/>
</g>
<!-- Node49&#45;&gt;Node50 -->
<g id="edge43" class="edge">
<title>Node49&#45;&gt;Node50</title>
<path fill="none" stroke="midnightblue" d="M686.28,-67C587.3,-48 483.69,-32.55 422.36,-23.87"/>
<polygon fill="midnightblue" stroke="midnightblue" points="685.66,-70.45 696.15,-68.91 686.99,-63.57 685.66,-70.45"/>
</g>
</g>
</svg>
