<?xml version="1.0" encoding="UTF-8" standalone="no"?>
<!DOCTYPE svg PUBLIC "-//W3C//DTD SVG 1.1//EN"
 "http://www.w3.org/Graphics/SVG/1.1/DTD/svg11.dtd">
<!-- Generated by graphviz version 2.43.0 (0)
 -->
<!-- Title: ImageItem Pages: 1 -->
<svg width="179pt" height="534pt"
 viewBox="0.00 0.00 179.00 534.00" xmlns="http://www.w3.org/2000/svg" xmlns:xlink="http://www.w3.org/1999/xlink">
<g id="graph0" class="graph" transform="scale(1 1) rotate(0) translate(4 530)">
<title>ImageItem</title>
<polygon fill="white" stroke="transparent" points="-4,4 -4,-530 175,-530 175,4 -4,4"/>
<!-- Node1 -->
<g id="node1" class="node">
<title>Node1</title>
<g id="a_node1"><a xlink:title="The ImageItem class pointer label.">
<polygon fill="#bfbfbf" stroke="black" points="0,-0.5 0,-431.5 161,-431.5 161,-0.5 0,-0.5"/>
<text text-anchor="middle" x="80.5" y="-419.5" font-family="Helvetica,sans-Serif" font-size="10.00">ImageItem</text>
<polyline fill="none" stroke="black" points="0,-412.5 161,-412.5 "/>
<text text-anchor="start" x="8" y="-400.5" font-family="Helvetica,sans-Serif" font-size="10.00">+ allImageItems</text>
<text text-anchor="start" x="8" y="-389.5" font-family="Helvetica,sans-Serif" font-size="10.00">+ maxImageZvalue</text>
<text text-anchor="start" x="8" y="-378.5" font-family="Helvetica,sans-Serif" font-size="10.00">&#45; m_offset</text>
<text text-anchor="start" x="8" y="-367.5" font-family="Helvetica,sans-Serif" font-size="10.00">&#45; m_boundingRect</text>
<text text-anchor="start" x="8" y="-356.5" font-family="Helvetica,sans-Serif" font-size="10.00">&#45; m_handleRect</text>
<text text-anchor="start" x="8" y="-345.5" font-family="Helvetica,sans-Serif" font-size="10.00">&#45; m_actualRect</text>
<text text-anchor="start" x="8" y="-334.5" font-family="Helvetica,sans-Serif" font-size="10.00">&#45; m_resizeHandles</text>
<text text-anchor="start" x="8" y="-323.5" font-family="Helvetica,sans-Serif" font-size="10.00">&#45; m_resizePosition</text>
<text text-anchor="start" x="8" y="-312.5" font-family="Helvetica,sans-Serif" font-size="10.00">&#45; m_rotateLine</text>
<text text-anchor="start" x="8" y="-301.5" font-family="Helvetica,sans-Serif" font-size="10.00">&#45; m_angleHandle</text>
<text text-anchor="start" x="8" y="-290.5" font-family="Helvetica,sans-Serif" font-size="10.00">&#45; m_angle</text>
<text text-anchor="start" x="8" y="-279.5" font-family="Helvetica,sans-Serif" font-size="10.00">&#45; m_mousePressed</text>
<text text-anchor="start" x="8" y="-268.5" font-family="Helvetica,sans-Serif" font-size="10.00">and 7 more...</text>
<polyline fill="none" stroke="black" points="0,-261.5 161,-261.5 "/>
<text text-anchor="start" x="8" y="-249.5" font-family="Helvetica,sans-Serif" font-size="10.00">+ ImageItem()</text>
<text text-anchor="start" x="8" y="-238.5" font-family="Helvetica,sans-Serif" font-size="10.00">+ ~ImageItem()</text>
<text text-anchor="start" x="8" y="-227.5" font-family="Helvetica,sans-Serif" font-size="10.00">+ type()</text>
<text text-anchor="start" x="8" y="-216.5" font-family="Helvetica,sans-Serif" font-size="10.00">+ boundingRect()</text>
<text text-anchor="start" x="8" y="-205.5" font-family="Helvetica,sans-Serif" font-size="10.00">+ paint()</text>
<text text-anchor="start" x="8" y="-194.5" font-family="Helvetica,sans-Serif" font-size="10.00">+ moveToBottom()</text>
<text text-anchor="start" x="8" y="-183.5" font-family="Helvetica,sans-Serif" font-size="10.00">+ moveToTop()</text>
<text text-anchor="start" x="8" y="-172.5" font-family="Helvetica,sans-Serif" font-size="10.00">+ moveUp()</text>
<text text-anchor="start" x="8" y="-161.5" font-family="Helvetica,sans-Serif" font-size="10.00">+ moveDown()</text>
<text text-anchor="start" x="8" y="-150.5" font-family="Helvetica,sans-Serif" font-size="10.00">+ getImage()</text>
<text text-anchor="start" x="8" y="-139.5" font-family="Helvetica,sans-Serif" font-size="10.00">and 7 more...</text>
<text text-anchor="start" x="8" y="-128.5" font-family="Helvetica,sans-Serif" font-size="10.00"># hoverEnterEvent()</text>
<text text-anchor="start" x="8" y="-117.5" font-family="Helvetica,sans-Serif" font-size="10.00"># hoverMoveEvent()</text>
<text text-anchor="start" x="8" y="-106.5" font-family="Helvetica,sans-Serif" font-size="10.00"># hoverLeaveEvent()</text>
<text text-anchor="start" x="8" y="-95.5" font-family="Helvetica,sans-Serif" font-size="10.00"># contextMenuEvent()</text>
<text text-anchor="start" x="8" y="-84.5" font-family="Helvetica,sans-Serif" font-size="10.00"># mousePressEvent()</text>
<text text-anchor="start" x="8" y="-73.5" font-family="Helvetica,sans-Serif" font-size="10.00"># mouseMoveEvent()</text>
<text text-anchor="start" x="8" y="-62.5" font-family="Helvetica,sans-Serif" font-size="10.00"># mouseReleaseEvent()</text>
<text text-anchor="start" x="8" y="-51.5" font-family="Helvetica,sans-Serif" font-size="10.00"># keyReleaseEvent()</text>
<text text-anchor="start" x="8" y="-40.5" font-family="Helvetica,sans-Serif" font-size="10.00">&#45; initializeItem()</text>
<text text-anchor="start" x="8" y="-29.5" font-family="Helvetica,sans-Serif" font-size="10.00">&#45; updateFromHandles()</text>
<text text-anchor="start" x="8" y="-18.5" font-family="Helvetica,sans-Serif" font-size="10.00">&#45; setPixmap()</text>
<text text-anchor="start" x="8" y="-7.5" font-family="Helvetica,sans-Serif" font-size="10.00">&#45; showImageStatusMessage()</text>
</a>
</g>
</g>
<!-- Node2 -->
<g id="node2" class="node">
<title>Node2</title>
<g id="a_node2"><a xlink:title=" ">
<polygon fill="white" stroke="#bfbfbf" points="7.5,-468.5 7.5,-525.5 63.5,-525.5 63.5,-468.5 7.5,-468.5"/>
<text text-anchor="middle" x="35.5" y="-513.5" font-family="Helvetica,sans-Serif" font-size="10.00">QObject</text>
<polyline fill="none" stroke="#bfbfbf" points="7.5,-506.5 63.5,-506.5 "/>
<text text-anchor="middle" x="35.5" y="-494.5" font-family="Helvetica,sans-Serif" font-size="10.00"> </text>
<polyline fill="none" stroke="#bfbfbf" points="7.5,-487.5 63.5,-487.5 "/>
<text text-anchor="middle" x="35.5" y="-475.5" font-family="Helvetica,sans-Serif" font-size="10.00"> </text>
</a>
</g>
</g>
<!-- Node2&#45;&gt;Node1 -->
<g id="edge1" class="edge">
<title>Node2&#45;&gt;Node1</title>
<path fill="none" stroke="midnightblue" d="M41.55,-458.5C42.85,-450.44 44.31,-441.38 45.88,-431.63"/>
<polygon fill="none" stroke="midnightblue" points="38.07,-458.06 39.94,-468.48 44.99,-459.17 38.07,-458.06"/>
</g>
<!-- Node3 -->
<g id="node3" class="node">
<title>Node3</title>
<g id="a_node3"><a xlink:title=" ">
<polygon fill="white" stroke="#bfbfbf" points="82,-468.5 82,-525.5 171,-525.5 171,-468.5 82,-468.5"/>
<text text-anchor="middle" x="126.5" y="-513.5" font-family="Helvetica,sans-Serif" font-size="10.00">QGraphicsItem</text>
<polyline fill="none" stroke="#bfbfbf" points="82,-506.5 171,-506.5 "/>
<text text-anchor="middle" x="126.5" y="-494.5" font-family="Helvetica,sans-Serif" font-size="10.00"> </text>
<polyline fill="none" stroke="#bfbfbf" points="82,-487.5 171,-487.5 "/>
<text text-anchor="middle" x="126.5" y="-475.5" font-family="Helvetica,sans-Serif" font-size="10.00"> </text>
</a>
</g>
</g>
<!-- Node3&#45;&gt;Node1 -->
<g id="edge2" class="edge">
<title>Node3&#45;&gt;Node1</title>
<path fill="none" stroke="midnightblue" d="M120.32,-458.5C118.99,-450.44 117.49,-441.38 115.89,-431.63"/>
<polygon fill="none" stroke="midnightblue" points="116.88,-459.19 121.96,-468.48 123.79,-458.05 116.88,-459.19"/>
</g>
</g>
</svg>
