<?xml version="1.0" encoding="UTF-8" standalone="no"?>
<!DOCTYPE svg PUBLIC "-//W3C//DTD SVG 1.1//EN"
 "http://www.w3.org/Graphics/SVG/1.1/DTD/svg11.dtd">
<!-- Generated by graphviz version 2.43.0 (0)
 -->
<!-- Title: src/libs/vpatterndb/variables/vcurvelength.h Pages: 1 -->
<svg width="5421pt" height="385pt"
 viewBox="0.00 0.00 5420.99 385.00" xmlns="http://www.w3.org/2000/svg" xmlns:xlink="http://www.w3.org/1999/xlink">
<g id="graph0" class="graph" transform="scale(1 1) rotate(0) translate(4 381)">
<title>src/libs/vpatterndb/variables/vcurvelength.h</title>
<polygon fill="white" stroke="transparent" points="-4,4 -4,-381 5416.99,-381 5416.99,4 -4,4"/>
<!-- Node1 -->
<g id="node1" class="node">
<title>Node1</title>
<g id="a_node1"><a xlink:title=" ">
<polygon fill="#bfbfbf" stroke="black" points="186.75,-346.5 186.75,-376.5 326.75,-376.5 326.75,-346.5 186.75,-346.5"/>
<text text-anchor="start" x="194.75" y="-364.5" font-family="Helvetica,sans-Serif" font-size="10.00">src/libs/vpatterndb</text>
<text text-anchor="middle" x="256.75" y="-353.5" font-family="Helvetica,sans-Serif" font-size="10.00">/variables/vcurvelength.h</text>
</a>
</g>
</g>
<!-- Node2 -->
<g id="node2" class="node">
<title>Node2</title>
<g id="a_node2"><a xlink:href="../../d6/dd4/vcurvelength_8cpp.html" target="_top" xlink:title=" ">
<polygon fill="white" stroke="black" points="76.75,-279.5 76.75,-309.5 228.75,-309.5 228.75,-279.5 76.75,-279.5"/>
<text text-anchor="start" x="84.75" y="-297.5" font-family="Helvetica,sans-Serif" font-size="10.00">src/libs/vpatterndb</text>
<text text-anchor="middle" x="152.75" y="-286.5" font-family="Helvetica,sans-Serif" font-size="10.00">/variables/vcurvelength.cpp</text>
</a>
</g>
</g>
<!-- Node1&#45;&gt;Node2 -->
<g id="edge1" class="edge">
<title>Node1&#45;&gt;Node2</title>
<path fill="none" stroke="midnightblue" d="M225.58,-341.02C209.39,-330.9 189.99,-318.77 175.28,-309.58"/>
<polygon fill="midnightblue" stroke="midnightblue" points="223.85,-344.06 234.19,-346.4 227.56,-338.13 223.85,-344.06"/>
</g>
<!-- Node3 -->
<g id="node3" class="node">
<title>Node3</title>
<g id="a_node3"><a xlink:href="../../d6/d46/vcontainer_8cpp.html" target="_top" xlink:title=" ">
<polygon fill="white" stroke="black" points="16.25,-67.5 16.25,-97.5 123.25,-97.5 123.25,-67.5 16.25,-67.5"/>
<text text-anchor="start" x="24.25" y="-85.5" font-family="Helvetica,sans-Serif" font-size="10.00">src/libs/vpatterndb</text>
<text text-anchor="middle" x="69.75" y="-74.5" font-family="Helvetica,sans-Serif" font-size="10.00">/vcontainer.cpp</text>
</a>
</g>
</g>
<!-- Node1&#45;&gt;Node3 -->
<g id="edge2" class="edge">
<title>Node1&#45;&gt;Node3</title>
<path fill="none" stroke="midnightblue" d="M254.18,-336.14C251.68,-319.37 246.87,-296.96 237.75,-279 197.97,-200.58 120.28,-127.36 86.31,-97.56"/>
<polygon fill="midnightblue" stroke="midnightblue" points="250.74,-336.79 255.51,-346.25 257.68,-335.88 250.74,-336.79"/>
</g>
<!-- Node4 -->
<g id="node4" class="node">
<title>Node4</title>
<g id="a_node4"><a xlink:href="../../de/dca/variables_8h.html" target="_top" xlink:title=" ">
<polygon fill="white" stroke="black" points="1302.25,-279.5 1302.25,-309.5 1409.25,-309.5 1409.25,-279.5 1302.25,-279.5"/>
<text text-anchor="start" x="1310.25" y="-297.5" font-family="Helvetica,sans-Serif" font-size="10.00">src/libs/vpatterndb</text>
<text text-anchor="middle" x="1355.75" y="-286.5" font-family="Helvetica,sans-Serif" font-size="10.00">/variables.h</text>
</a>
</g>
</g>
<!-- Node1&#45;&gt;Node4 -->
<g id="edge3" class="edge">
<title>Node1&#45;&gt;Node4</title>
<path fill="none" stroke="midnightblue" d="M337.34,-355.73C550.24,-343.14 1123.58,-309.23 1302,-298.68"/>
<polygon fill="midnightblue" stroke="midnightblue" points="336.95,-352.25 327.17,-356.34 337.36,-359.24 336.95,-352.25"/>
</g>
<!-- Node5 -->
<g id="node5" class="node">
<title>Node5</title>
<g id="a_node5"><a xlink:href="../../d3/df7/vcontainer_8h.html" target="_top" xlink:title=" ">
<polygon fill="white" stroke="black" points="2318.25,-212.5 2318.25,-242.5 2425.25,-242.5 2425.25,-212.5 2318.25,-212.5"/>
<text text-anchor="start" x="2326.25" y="-230.5" font-family="Helvetica,sans-Serif" font-size="10.00">src/libs/vpatterndb</text>
<text text-anchor="middle" x="2371.75" y="-219.5" font-family="Helvetica,sans-Serif" font-size="10.00">/vcontainer.h</text>
</a>
</g>
</g>
<!-- Node4&#45;&gt;Node5 -->
<g id="edge4" class="edge">
<title>Node4&#45;&gt;Node5</title>
<path fill="none" stroke="midnightblue" d="M1419.47,-289.42C1605.54,-277.52 2145.84,-242.95 2318.23,-231.92"/>
<polygon fill="midnightblue" stroke="midnightblue" points="1419.06,-285.94 1409.3,-290.07 1419.51,-292.93 1419.06,-285.94"/>
</g>
<!-- Node5&#45;&gt;Node3 -->
<g id="edge55" class="edge">
<title>Node5&#45;&gt;Node3</title>
<path fill="none" stroke="midnightblue" d="M2307.52,-224.44C1988.13,-213.94 569.02,-164.34 132.75,-98 129.65,-97.53 126.47,-96.99 123.26,-96.39"/>
<polygon fill="midnightblue" stroke="midnightblue" points="2307.87,-227.95 2317.97,-224.78 2308.09,-220.96 2307.87,-227.95"/>
</g>
<!-- Node6 -->
<g id="node6" class="node">
<title>Node6</title>
<g id="a_node6"><a xlink:href="../../d2/d47/image__dialog_8cpp.html" target="_top" xlink:title=" ">
<polygon fill="white" stroke="black" points="141.75,-67.5 141.75,-97.5 253.75,-97.5 253.75,-67.5 141.75,-67.5"/>
<text text-anchor="start" x="149.75" y="-85.5" font-family="Helvetica,sans-Serif" font-size="10.00">src/libs/tools/image</text>
<text text-anchor="middle" x="197.75" y="-74.5" font-family="Helvetica,sans-Serif" font-size="10.00">_dialog.cpp</text>
</a>
</g>
</g>
<!-- Node5&#45;&gt;Node6 -->
<g id="edge5" class="edge">
<title>Node5&#45;&gt;Node6</title>
<path fill="none" stroke="midnightblue" d="M2307.96,-222.65C2179.28,-214.78 1879.38,-195.9 1627.75,-176 1420.89,-159.64 1369.82,-147.48 1162.75,-134 763.28,-107.99 659.71,-149.79 262.75,-98 259.89,-97.63 256.96,-97.19 254.01,-96.7"/>
<polygon fill="midnightblue" stroke="midnightblue" points="2307.84,-226.15 2318.04,-223.27 2308.27,-219.16 2307.84,-226.15"/>
</g>
<!-- Node7 -->
<g id="node7" class="node">
<title>Node7</title>
<g id="a_node7"><a xlink:href="../../dc/db7/measurements_8h.html" target="_top" xlink:title=" ">
<polygon fill="white" stroke="black" points="3296.25,-145.5 3296.25,-164.5 3475.25,-164.5 3475.25,-145.5 3296.25,-145.5"/>
<text text-anchor="middle" x="3385.75" y="-152.5" font-family="Helvetica,sans-Serif" font-size="10.00">src/libs/vformat/measurements.h</text>
</a>
</g>
</g>
<!-- Node5&#45;&gt;Node7 -->
<g id="edge6" class="edge">
<title>Node5&#45;&gt;Node7</title>
<path fill="none" stroke="midnightblue" d="M2435.32,-223.55C2573.7,-216.93 2912.54,-199.57 3195.75,-176 3234.1,-172.81 3276.7,-168.4 3311.83,-164.54"/>
<polygon fill="midnightblue" stroke="midnightblue" points="2435.14,-220.06 2425.32,-224.03 2435.47,-227.05 2435.14,-220.06"/>
</g>
<!-- Node8 -->
<g id="node8" class="node">
<title>Node8</title>
<g id="a_node8"><a xlink:href="../../d9/de3/measurements_8cpp.html" target="_top" xlink:title=" ">
<polygon fill="white" stroke="black" points="3921.75,-73 3921.75,-92 4111.75,-92 4111.75,-73 3921.75,-73"/>
<text text-anchor="middle" x="4016.75" y="-80" font-family="Helvetica,sans-Serif" font-size="10.00">src/libs/vformat/measurements.cpp</text>
</a>
</g>
</g>
<!-- Node5&#45;&gt;Node8 -->
<g id="edge8" class="edge">
<title>Node5&#45;&gt;Node8</title>
<path fill="none" stroke="midnightblue" d="M2435.58,-226.43C2606.29,-225.63 3087.39,-219.38 3484.75,-176 3670.67,-155.7 3889.91,-110.86 3977.62,-92.06"/>
<polygon fill="midnightblue" stroke="midnightblue" points="2435.5,-222.93 2425.51,-226.47 2435.53,-229.93 2435.5,-222.93"/>
</g>
<!-- Node9 -->
<g id="node9" class="node">
<title>Node9</title>
<g id="a_node9"><a xlink:href="../../d6/de0/vlayoutpiece_8h.html" target="_top" xlink:title=" ">
<polygon fill="white" stroke="black" points="4704.75,-145.5 4704.75,-164.5 4870.75,-164.5 4870.75,-145.5 4704.75,-145.5"/>
<text text-anchor="middle" x="4787.75" y="-152.5" font-family="Helvetica,sans-Serif" font-size="10.00">src/libs/vlayout/vlayoutpiece.h</text>
</a>
</g>
</g>
<!-- Node5&#45;&gt;Node9 -->
<g id="edge9" class="edge">
<title>Node5&#45;&gt;Node9</title>
<path fill="none" stroke="midnightblue" d="M2435.32,-224.65C2769.96,-214.88 4326.35,-169.46 4704.7,-158.42"/>
<polygon fill="midnightblue" stroke="midnightblue" points="2435.21,-221.15 2425.32,-224.94 2435.41,-228.14 2435.21,-221.15"/>
</g>
<!-- Node19 -->
<g id="node18" class="node">
<title>Node19</title>
<g id="a_node18"><a xlink:href="../../d8/d70/vtextmanager_8cpp.html" target="_top" xlink:title=" ">
<polygon fill="white" stroke="black" points="271.75,-73 271.75,-92 453.75,-92 453.75,-73 271.75,-73"/>
<text text-anchor="middle" x="362.75" y="-80" font-family="Helvetica,sans-Serif" font-size="10.00">src/libs/vlayout/vtextmanager.cpp</text>
</a>
</g>
</g>
<!-- Node5&#45;&gt;Node19 -->
<g id="edge20" class="edge">
<title>Node5&#45;&gt;Node19</title>
<path fill="none" stroke="midnightblue" d="M2308.15,-218.25C2140.52,-196.55 1694.96,-139.2 1627.75,-134 1111.28,-94 978.8,-143.24 462.75,-98 446.76,-96.6 429.43,-94.35 413.75,-92.03"/>
<polygon fill="midnightblue" stroke="midnightblue" points="2307.7,-221.72 2318.06,-219.53 2308.6,-214.78 2307.7,-221.72"/>
</g>
<!-- Node20 -->
<g id="node19" class="node">
<title>Node20</title>
<g id="a_node19"><a xlink:href="../../d5/d74/vabstractapplication_8h.html" target="_top" xlink:title=" ">
<polygon fill="white" stroke="red" points="1999.25,-145.5 1999.25,-164.5 2194.25,-164.5 2194.25,-145.5 1999.25,-145.5"/>
<text text-anchor="middle" x="2096.75" y="-152.5" font-family="Helvetica,sans-Serif" font-size="10.00">src/libs/vmisc/vabstractapplication.h</text>
</a>
</g>
</g>
<!-- Node5&#45;&gt;Node20 -->
<g id="edge21" class="edge">
<title>Node5&#45;&gt;Node20</title>
<path fill="none" stroke="midnightblue" d="M2308.32,-210.24C2252.7,-195.98 2174.04,-175.81 2129.98,-164.52"/>
<polygon fill="midnightblue" stroke="midnightblue" points="2307.52,-213.65 2318.08,-212.74 2309.26,-206.87 2307.52,-213.65"/>
</g>
<!-- Node48 -->
<g id="node34" class="node">
<title>Node48</title>
<g id="a_node34"><a xlink:href="../../db/d11/vformula_8cpp.html" target="_top" xlink:title=" ">
<polygon fill="white" stroke="black" points="3671.25,-67.5 3671.25,-97.5 3778.25,-97.5 3778.25,-67.5 3671.25,-67.5"/>
<text text-anchor="start" x="3679.25" y="-85.5" font-family="Helvetica,sans-Serif" font-size="10.00">src/libs/vpatterndb</text>
<text text-anchor="middle" x="3724.75" y="-74.5" font-family="Helvetica,sans-Serif" font-size="10.00">/vformula.cpp</text>
</a>
</g>
</g>
<!-- Node5&#45;&gt;Node48 -->
<g id="edge54" class="edge">
<title>Node5&#45;&gt;Node48</title>
<path fill="none" stroke="midnightblue" d="M2308.48,-216.54C2284.72,-209.39 2260.03,-197.1 2245.75,-176 2235.29,-160.54 2232.72,-147.37 2245.75,-134 2300.69,-77.65 3583.68,-107.87 3661.75,-98 3664.76,-97.62 3667.83,-97.16 3670.92,-96.64"/>
<polygon fill="midnightblue" stroke="midnightblue" points="2307.65,-219.94 2318.22,-219.21 2309.5,-213.19 2307.65,-219.94"/>
</g>
<!-- Node49 -->
<g id="node35" class="node">
<title>Node49</title>
<g id="a_node35"><a xlink:href="../../df/d7a/vpiece_8cpp.html" target="_top" xlink:title=" ">
<polygon fill="white" stroke="black" points="3796.25,-67.5 3796.25,-97.5 3903.25,-97.5 3903.25,-67.5 3796.25,-67.5"/>
<text text-anchor="start" x="3804.25" y="-85.5" font-family="Helvetica,sans-Serif" font-size="10.00">src/libs/vpatterndb</text>
<text text-anchor="middle" x="3849.75" y="-74.5" font-family="Helvetica,sans-Serif" font-size="10.00">/vpiece.cpp</text>
</a>
</g>
</g>
<!-- Node5&#45;&gt;Node49 -->
<g id="edge57" class="edge">
<title>Node5&#45;&gt;Node49</title>
<path fill="none" stroke="midnightblue" d="M2314.55,-208.03C2300.03,-200.47 2286.18,-190.09 2277.75,-176 2268.17,-159.98 2264.71,-147.36 2277.75,-134 2307.07,-103.98 3746.13,-103.31 3787.75,-98 3790.49,-97.65 3793.29,-97.23 3796.11,-96.76"/>
<polygon fill="midnightblue" stroke="midnightblue" points="2313.1,-211.22 2323.63,-212.38 2316.12,-204.91 2313.1,-211.22"/>
</g>
<!-- Node51 -->
<g id="node37" class="node">
<title>Node51</title>
<g id="a_node37"><a xlink:href="../../d8/dba/vpiecenode_8cpp.html" target="_top" xlink:title=" ">
<polygon fill="white" stroke="black" points="315.25,-0.5 315.25,-30.5 422.25,-30.5 422.25,-0.5 315.25,-0.5"/>
<text text-anchor="start" x="323.25" y="-18.5" font-family="Helvetica,sans-Serif" font-size="10.00">src/libs/vpatterndb</text>
<text text-anchor="middle" x="368.75" y="-7.5" font-family="Helvetica,sans-Serif" font-size="10.00">/vpiecenode.cpp</text>
</a>
</g>
</g>
<!-- Node5&#45;&gt;Node51 -->
<g id="edge58" class="edge">
<title>Node5&#45;&gt;Node51</title>
<path fill="none" stroke="midnightblue" d="M2307.77,-225.89C2022.19,-223 862.12,-209.41 499.75,-176 278.85,-155.63 150.84,-266.67 6.75,-98 -2.2,-87.52 -2.29,-77.39 6.75,-67 46.07,-21.82 224.2,-15.81 315.07,-15.77"/>
<polygon fill="midnightblue" stroke="midnightblue" points="2307.92,-229.39 2317.96,-225.99 2307.99,-222.39 2307.92,-229.39"/>
</g>
<!-- Node65 -->
<g id="node45" class="node">
<title>Node65</title>
<g id="a_node45"><a xlink:href="../../d3/d02/custom__variable__p_8h.html" target="_top" xlink:title=" ">
<polygon fill="white" stroke="red" points="2287.25,-140 2287.25,-170 2456.25,-170 2456.25,-140 2287.25,-140"/>
<text text-anchor="start" x="2295.25" y="-158" font-family="Helvetica,sans-Serif" font-size="10.00">src/libs/vpatterndb</text>
<text text-anchor="middle" x="2371.75" y="-147" font-family="Helvetica,sans-Serif" font-size="10.00">/variables/custom_variable_p.h</text>
</a>
</g>
</g>
<!-- Node5&#45;&gt;Node65 -->
<g id="edge52" class="edge">
<title>Node5&#45;&gt;Node65</title>
<path fill="none" stroke="midnightblue" d="M2371.75,-202.23C2371.75,-191.57 2371.75,-179.41 2371.75,-170.25"/>
<polygon fill="midnightblue" stroke="midnightblue" points="2368.25,-202.23 2371.75,-212.23 2375.25,-202.23 2368.25,-202.23"/>
</g>
<!-- Node67 -->
<g id="node46" class="node">
<title>Node67</title>
<g id="a_node46"><a xlink:href="../../d7/d8a/measurement__variable__p_8h.html" target="_top" xlink:title=" ">
<polygon fill="white" stroke="red" points="2474.75,-134.5 2474.75,-175.5 2610.75,-175.5 2610.75,-134.5 2474.75,-134.5"/>
<text text-anchor="start" x="2482.75" y="-163.5" font-family="Helvetica,sans-Serif" font-size="10.00">src/libs/vpatterndb</text>
<text text-anchor="start" x="2482.75" y="-152.5" font-family="Helvetica,sans-Serif" font-size="10.00">/variables/measurement</text>
<text text-anchor="middle" x="2542.75" y="-141.5" font-family="Helvetica,sans-Serif" font-size="10.00">_variable_p.h</text>
</a>
</g>
</g>
<!-- Node5&#45;&gt;Node67 -->
<g id="edge53" class="edge">
<title>Node5&#45;&gt;Node67</title>
<path fill="none" stroke="midnightblue" d="M2415.33,-208.53C2439.78,-198.45 2470.3,-185.87 2495.34,-175.55"/>
<polygon fill="midnightblue" stroke="midnightblue" points="2413.86,-205.36 2405.95,-212.4 2416.53,-211.83 2413.86,-205.36"/>
</g>
<!-- Node69 -->
<g id="node47" class="node">
<title>Node69</title>
<g id="a_node47"><a xlink:href="../../d6/d91/vnodedetail_8cpp.html" target="_top" xlink:title=" ">
<polygon fill="white" stroke="black" points="2629.25,-140 2629.25,-170 2736.25,-170 2736.25,-140 2629.25,-140"/>
<text text-anchor="start" x="2637.25" y="-158" font-family="Helvetica,sans-Serif" font-size="10.00">src/libs/vpatterndb</text>
<text text-anchor="middle" x="2682.75" y="-147" font-family="Helvetica,sans-Serif" font-size="10.00">/vnodedetail.cpp</text>
</a>
</g>
</g>
<!-- Node5&#45;&gt;Node69 -->
<g id="edge56" class="edge">
<title>Node5&#45;&gt;Node69</title>
<path fill="none" stroke="midnightblue" d="M2435.43,-215.46C2485.78,-206.28 2557.69,-192.12 2619.75,-176 2626.53,-174.24 2633.65,-172.18 2640.57,-170.07"/>
<polygon fill="midnightblue" stroke="midnightblue" points="2434.56,-212.07 2425.35,-217.29 2435.81,-218.95 2434.56,-212.07"/>
</g>
<!-- Node70 -->
<g id="node48" class="node">
<title>Node70</title>
<g id="a_node48"><a xlink:href="../../da/de1/vpiecepath_8cpp.html" target="_top" xlink:title=" ">
<polygon fill="white" stroke="black" points="2754.25,-140 2754.25,-170 2861.25,-170 2861.25,-140 2754.25,-140"/>
<text text-anchor="start" x="2762.25" y="-158" font-family="Helvetica,sans-Serif" font-size="10.00">src/libs/vpatterndb</text>
<text text-anchor="middle" x="2807.75" y="-147" font-family="Helvetica,sans-Serif" font-size="10.00">/vpiecepath.cpp</text>
</a>
</g>
</g>
<!-- Node5&#45;&gt;Node70 -->
<g id="edge59" class="edge">
<title>Node5&#45;&gt;Node70</title>
<path fill="none" stroke="midnightblue" d="M2435.58,-221.24C2510.33,-214.31 2637.58,-200.08 2744.75,-176 2752.03,-174.37 2759.67,-172.27 2767.03,-170.06"/>
<polygon fill="midnightblue" stroke="midnightblue" points="2435.03,-217.78 2425.39,-222.17 2435.67,-224.75 2435.03,-217.78"/>
</g>
<!-- Node71 -->
<g id="node49" class="node">
<title>Node71</title>
<g id="a_node49"><a xlink:href="../../d1/d3a/abstracttest_8cpp.html" target="_top" xlink:title=" ">
<polygon fill="white" stroke="black" points="2879.25,-145.5 2879.25,-164.5 3040.25,-164.5 3040.25,-145.5 2879.25,-145.5"/>
<text text-anchor="middle" x="2959.75" y="-152.5" font-family="Helvetica,sans-Serif" font-size="10.00">src/libs/vtest/abstracttest.cpp</text>
</a>
</g>
</g>
<!-- Node5&#45;&gt;Node71 -->
<g id="edge60" class="edge">
<title>Node5&#45;&gt;Node71</title>
<path fill="none" stroke="midnightblue" d="M2435.48,-222.45C2530.5,-215.86 2714.75,-200.99 2869.75,-176 2888.4,-172.99 2908.98,-168.51 2925.75,-164.55"/>
<polygon fill="midnightblue" stroke="midnightblue" points="2435.19,-218.96 2425.45,-223.13 2435.67,-225.94 2435.19,-218.96"/>
</g>
<!-- Node72 -->
<g id="node50" class="node">
<title>Node72</title>
<g id="a_node50"><a xlink:href="../../da/db4/piece__tablewidgetitem_8cpp.html" target="_top" xlink:title=" ">
<polygon fill="white" stroke="black" points="3058.75,-140 3058.75,-170 3186.75,-170 3186.75,-140 3058.75,-140"/>
<text text-anchor="start" x="3066.75" y="-158" font-family="Helvetica,sans-Serif" font-size="10.00">src/libs/vwidgets/piece</text>
<text text-anchor="middle" x="3122.75" y="-147" font-family="Helvetica,sans-Serif" font-size="10.00">_tablewidgetitem.cpp</text>
</a>
</g>
</g>
<!-- Node5&#45;&gt;Node72 -->
<g id="edge61" class="edge">
<title>Node5&#45;&gt;Node72</title>
<path fill="none" stroke="midnightblue" d="M2435.53,-225.84C2556.3,-223.69 2826.25,-214.57 3049.75,-176 3058.56,-174.48 3067.84,-172.36 3076.72,-170.06"/>
<polygon fill="midnightblue" stroke="midnightblue" points="2435.3,-222.34 2425.36,-226.01 2435.42,-229.34 2435.3,-222.34"/>
</g>
<!-- Node7&#45;&gt;Node8 -->
<g id="edge7" class="edge">
<title>Node7&#45;&gt;Node8</title>
<path fill="none" stroke="midnightblue" d="M3484.48,-144.48C3590.45,-134.04 3763.68,-116.31 3912.75,-98 3927.5,-96.19 3943.4,-94.06 3958.22,-92"/>
<polygon fill="midnightblue" stroke="midnightblue" points="3484.05,-141.01 3474.44,-145.47 3484.73,-147.97 3484.05,-141.01"/>
</g>
<!-- Node10 -->
<g id="node10" class="node">
<title>Node10</title>
<g id="a_node10"><a xlink:href="../../dd/d66/vdxfengine_8cpp.html" target="_top" xlink:title=" ">
<polygon fill="white" stroke="black" points="4904.75,-73 4904.75,-92 5058.75,-92 5058.75,-73 4904.75,-73"/>
<text text-anchor="middle" x="4981.75" y="-80" font-family="Helvetica,sans-Serif" font-size="10.00">src/libs/vdxf/vdxfengine.cpp</text>
</a>
</g>
</g>
<!-- Node9&#45;&gt;Node10 -->
<g id="edge10" class="edge">
<title>Node9&#45;&gt;Node10</title>
<path fill="none" stroke="midnightblue" d="M4820.75,-142.01C4859.83,-127.81 4923.92,-104.52 4958.27,-92.03"/>
<polygon fill="midnightblue" stroke="midnightblue" points="4819.36,-138.79 4811.15,-145.5 4821.75,-145.37 4819.36,-138.79"/>
</g>
<!-- Node11 -->
<g id="node11" class="node">
<title>Node11</title>
<g id="a_node11"><a xlink:href="../../de/da8/vbank_8cpp.html" target="_top" xlink:title=" ">
<polygon fill="white" stroke="black" points="5076.75,-73 5076.75,-92 5220.75,-92 5220.75,-73 5076.75,-73"/>
<text text-anchor="middle" x="5148.75" y="-80" font-family="Helvetica,sans-Serif" font-size="10.00">src/libs/vlayout/vbank.cpp</text>
</a>
</g>
</g>
<!-- Node9&#45;&gt;Node11 -->
<g id="edge11" class="edge">
<title>Node9&#45;&gt;Node11</title>
<path fill="none" stroke="midnightblue" d="M4841.47,-143.51C4913.19,-129.5 5038.83,-104.97 5105.05,-92.03"/>
<polygon fill="midnightblue" stroke="midnightblue" points="4840.44,-140.14 4831.3,-145.5 4841.78,-147.01 4840.44,-140.14"/>
</g>
<!-- Node12 -->
<g id="node12" class="node">
<title>Node12</title>
<g id="a_node12"><a xlink:href="../../df/d5d/vcontour_8cpp.html" target="_top" xlink:title=" ">
<polygon fill="white" stroke="black" points="5238.75,-73 5238.75,-92 5394.75,-92 5394.75,-73 5238.75,-73"/>
<text text-anchor="middle" x="5316.75" y="-80" font-family="Helvetica,sans-Serif" font-size="10.00">src/libs/vlayout/vcontour.cpp</text>
</a>
</g>
</g>
<!-- Node9&#45;&gt;Node12 -->
<g id="edge12" class="edge">
<title>Node9&#45;&gt;Node12</title>
<path fill="none" stroke="midnightblue" d="M4872.21,-144.29C4961.27,-133.83 5105.58,-116.21 5229.75,-98 5242.03,-96.2 5255.24,-94.09 5267.58,-92.04"/>
<polygon fill="midnightblue" stroke="midnightblue" points="4871.69,-140.83 4862.17,-145.47 4872.51,-147.78 4871.69,-140.83"/>
</g>
<!-- Node13 -->
<g id="node13" class="node">
<title>Node13</title>
<g id="a_node13"><a xlink:href="../../d2/d2d/vlayoutpaper__p_8h.html" target="_top" xlink:title=" ">
<polygon fill="white" stroke="black" points="4325.25,-73 4325.25,-92 4504.25,-92 4504.25,-73 4325.25,-73"/>
<text text-anchor="middle" x="4414.75" y="-80" font-family="Helvetica,sans-Serif" font-size="10.00">src/libs/vlayout/vlayoutpaper_p.h</text>
</a>
</g>
</g>
<!-- Node9&#45;&gt;Node13 -->
<g id="edge13" class="edge">
<title>Node9&#45;&gt;Node13</title>
<path fill="none" stroke="midnightblue" d="M4732.7,-143.59C4658.68,-129.6 4528.47,-104.99 4459.91,-92.03"/>
<polygon fill="midnightblue" stroke="midnightblue" points="4732.28,-147.08 4742.76,-145.5 4733.58,-140.2 4732.28,-147.08"/>
</g>
<!-- Node14 -->
<g id="node14" class="node">
<title>Node14</title>
<g id="a_node14"><a xlink:href="../../d1/dd1/vlayoutpaper_8cpp.html" target="_top" xlink:title=" ">
<polygon fill="white" stroke="black" points="4507.75,-6 4507.75,-25 4685.75,-25 4685.75,-6 4507.75,-6"/>
<text text-anchor="middle" x="4596.75" y="-13" font-family="Helvetica,sans-Serif" font-size="10.00">src/libs/vlayout/vlayoutpaper.cpp</text>
</a>
</g>
</g>
<!-- Node9&#45;&gt;Node14 -->
<g id="edge15" class="edge">
<title>Node9&#45;&gt;Node14</title>
<path fill="none" stroke="midnightblue" d="M4881.02,-154.63C5070.53,-154.31 5476.77,-144.73 5403.75,-67 5379.48,-41.17 4891.06,-24.66 4686.09,-18.84"/>
<polygon fill="midnightblue" stroke="midnightblue" points="4880.78,-151.13 4870.78,-154.63 4880.79,-158.13 4880.78,-151.13"/>
</g>
<!-- Node15 -->
<g id="node15" class="node">
<title>Node15</title>
<g id="a_node15"><a xlink:href="../../d3/d39/vlayoutgenerator_8cpp.html" target="_top" xlink:title=" ">
<polygon fill="white" stroke="black" points="4689.25,-73 4689.25,-92 4886.25,-92 4886.25,-73 4689.25,-73"/>
<text text-anchor="middle" x="4787.75" y="-80" font-family="Helvetica,sans-Serif" font-size="10.00">src/libs/vlayout/vlayoutgenerator.cpp</text>
</a>
</g>
</g>
<!-- Node9&#45;&gt;Node15 -->
<g id="edge16" class="edge">
<title>Node9&#45;&gt;Node15</title>
<path fill="none" stroke="midnightblue" d="M4787.75,-134.94C4787.75,-121.03 4787.75,-102.82 4787.75,-92.22"/>
<polygon fill="midnightblue" stroke="midnightblue" points="4784.25,-135.36 4787.75,-145.36 4791.25,-135.36 4784.25,-135.36"/>
</g>
<!-- Node16 -->
<g id="node16" class="node">
<title>Node16</title>
<g id="a_node16"><a xlink:href="../../db/d5c/vposition_8h.html" target="_top" xlink:title=" ">
<polygon fill="white" stroke="red" points="4522.75,-73 4522.75,-92 4670.75,-92 4670.75,-73 4522.75,-73"/>
<text text-anchor="middle" x="4596.75" y="-80" font-family="Helvetica,sans-Serif" font-size="10.00">src/libs/vlayout/vposition.h</text>
</a>
</g>
</g>
<!-- Node9&#45;&gt;Node16 -->
<g id="edge17" class="edge">
<title>Node9&#45;&gt;Node16</title>
<path fill="none" stroke="midnightblue" d="M4755.02,-141.92C4716.53,-127.71 4653.62,-104.49 4619.87,-92.03"/>
<polygon fill="midnightblue" stroke="midnightblue" points="4754.12,-145.32 4764.71,-145.5 4756.54,-138.75 4754.12,-145.32"/>
</g>
<!-- Node18 -->
<g id="node17" class="node">
<title>Node18</title>
<g id="a_node17"><a xlink:href="../../dd/d70/vlayoutpiece_8cpp.html" target="_top" xlink:title=" ">
<polygon fill="white" stroke="black" points="4130.25,-73 4130.25,-92 4307.25,-92 4307.25,-73 4130.25,-73"/>
<text text-anchor="middle" x="4218.75" y="-80" font-family="Helvetica,sans-Serif" font-size="10.00">src/libs/vlayout/vlayoutpiece.cpp</text>
</a>
</g>
</g>
<!-- Node9&#45;&gt;Node18 -->
<g id="edge19" class="edge">
<title>Node9&#45;&gt;Node18</title>
<path fill="none" stroke="midnightblue" d="M4700.06,-144.33C4605.39,-133.72 4450.24,-115.81 4316.75,-98 4303.03,-96.17 4288.25,-94.06 4274.43,-92.02"/>
<polygon fill="midnightblue" stroke="midnightblue" points="4699.83,-147.83 4710.16,-145.46 4700.61,-140.87 4699.83,-147.83"/>
</g>
<!-- Node13&#45;&gt;Node14 -->
<g id="edge14" class="edge">
<title>Node13&#45;&gt;Node14</title>
<path fill="none" stroke="midnightblue" d="M4448.53,-69.44C4484.64,-56.54 4540.97,-36.42 4572.78,-25.06"/>
<polygon fill="midnightblue" stroke="midnightblue" points="4447.16,-66.21 4438.92,-72.87 4449.52,-72.8 4447.16,-66.21"/>
</g>
<!-- Node16&#45;&gt;Node14 -->
<g id="edge18" class="edge">
<title>Node16&#45;&gt;Node14</title>
<path fill="none" stroke="midnightblue" d="M4596.75,-62.54C4596.75,-50.17 4596.75,-34.62 4596.75,-25.13"/>
<polygon fill="midnightblue" stroke="midnightblue" points="4593.25,-62.73 4596.75,-72.73 4600.25,-62.73 4593.25,-62.73"/>
</g>
<!-- Node20&#45;&gt;Node3 -->
<g id="edge41" class="edge">
<title>Node20&#45;&gt;Node3</title>
<path fill="none" stroke="midnightblue" d="M1988.91,-151.52C1591.25,-142.28 225.19,-109.84 132.75,-98 129.75,-97.62 126.68,-97.15 123.58,-96.63"/>
<polygon fill="midnightblue" stroke="midnightblue" points="1988.9,-155.02 1998.98,-151.75 1989.06,-148.02 1988.9,-155.02"/>
</g>
<!-- Node20&#45;&gt;Node6 -->
<g id="edge24" class="edge">
<title>Node20&#45;&gt;Node6</title>
<path fill="none" stroke="midnightblue" d="M1988.66,-148.89C1893.61,-144.52 1751.53,-138.27 1627.75,-134 1324.5,-123.54 563.9,-135.21 262.75,-98 259.88,-97.65 256.96,-97.22 254.01,-96.75"/>
<polygon fill="midnightblue" stroke="midnightblue" points="1988.71,-152.4 1998.86,-149.36 1989.03,-145.4 1988.71,-152.4"/>
</g>
<!-- Node20&#45;&gt;Node18 -->
<g id="edge34" class="edge">
<title>Node20&#45;&gt;Node18</title>
<path fill="none" stroke="midnightblue" d="M2171.06,-144.26C2203.73,-140.37 2242.59,-136.28 2277.75,-134 3095.3,-80.96 3304.32,-166.09 4120.75,-98 4136.69,-96.67 4153.99,-94.39 4169.54,-92.03"/>
<polygon fill="midnightblue" stroke="midnightblue" points="2170.64,-140.78 2161.13,-145.45 2171.48,-147.73 2170.64,-140.78"/>
</g>
<!-- Node20&#45;&gt;Node19 -->
<g id="edge35" class="edge">
<title>Node20&#45;&gt;Node19</title>
<path fill="none" stroke="midnightblue" d="M2007.76,-144.5C1968.29,-140.63 1921.25,-136.49 1878.75,-134 1250.29,-97.22 1090.03,-151.26 462.75,-98 446.58,-96.63 429.04,-94.35 413.24,-92.01"/>
<polygon fill="midnightblue" stroke="midnightblue" points="2007.59,-148 2017.89,-145.5 2008.28,-141.03 2007.59,-148"/>
</g>
<!-- Node21 -->
<g id="node20" class="node">
<title>Node21</title>
<g id="a_node20"><a xlink:href="../../d4/d90/fvupdater_8cpp.html" target="_top" xlink:title=" ">
<polygon fill="white" stroke="black" points="2100.25,-73 2100.25,-92 2253.25,-92 2253.25,-73 2100.25,-73"/>
<text text-anchor="middle" x="2176.75" y="-80" font-family="Helvetica,sans-Serif" font-size="10.00">src/libs/fervor/fvupdater.cpp</text>
</a>
</g>
</g>
<!-- Node20&#45;&gt;Node21 -->
<g id="edge22" class="edge">
<title>Node20&#45;&gt;Node21</title>
<path fill="none" stroke="midnightblue" d="M2114.25,-138.58C2130.38,-124.37 2153.75,-103.77 2166.86,-92.22"/>
<polygon fill="midnightblue" stroke="midnightblue" points="2111.75,-136.12 2106.56,-145.36 2116.38,-141.37 2111.75,-136.12"/>
</g>
<!-- Node22 -->
<g id="node21" class="node">
<title>Node22</title>
<g id="a_node21"><a xlink:href="../../d1/d8d/image__item_8h.html" target="_top" xlink:title=" ">
<polygon fill="white" stroke="red" points="2271.75,-67.5 2271.75,-97.5 2383.75,-97.5 2383.75,-67.5 2271.75,-67.5"/>
<text text-anchor="start" x="2279.75" y="-85.5" font-family="Helvetica,sans-Serif" font-size="10.00">src/libs/tools/image</text>
<text text-anchor="middle" x="2327.75" y="-74.5" font-family="Helvetica,sans-Serif" font-size="10.00">_item.h</text>
</a>
</g>
</g>
<!-- Node20&#45;&gt;Node22 -->
<g id="edge23" class="edge">
<title>Node20&#45;&gt;Node22</title>
<path fill="none" stroke="midnightblue" d="M2134.32,-142.53C2174.61,-130.24 2238.62,-110.7 2281.86,-97.51"/>
<polygon fill="midnightblue" stroke="midnightblue" points="2133.16,-139.23 2124.62,-145.5 2135.2,-145.92 2133.16,-139.23"/>
</g>
<!-- Node32 -->
<g id="node22" class="node">
<title>Node32</title>
<g id="a_node22"><a xlink:href="../../d9/dc8/dxiface_8cpp.html" target="_top" xlink:title=" ">
<polygon fill="white" stroke="black" points="2402.25,-73 2402.25,-92 2537.25,-92 2537.25,-73 2402.25,-73"/>
<text text-anchor="middle" x="2469.75" y="-80" font-family="Helvetica,sans-Serif" font-size="10.00">src/libs/vdxf/dxiface.cpp</text>
</a>
</g>
</g>
<!-- Node20&#45;&gt;Node32 -->
<g id="edge25" class="edge">
<title>Node20&#45;&gt;Node32</title>
<path fill="none" stroke="midnightblue" d="M2151.81,-143.59C2225.82,-129.6 2356.03,-104.99 2424.6,-92.03"/>
<polygon fill="midnightblue" stroke="midnightblue" points="2150.92,-140.2 2141.75,-145.5 2152.22,-147.08 2150.92,-140.2"/>
</g>
<!-- Node33 -->
<g id="node23" class="node">
<title>Node33</title>
<g id="a_node23"><a xlink:href="../../da/d75/vabstractarc__p_8h.html" target="_top" xlink:title=" ">
<polygon fill="white" stroke="red" points="2555.25,-67.5 2555.25,-97.5 2662.25,-97.5 2662.25,-67.5 2555.25,-67.5"/>
<text text-anchor="start" x="2563.25" y="-85.5" font-family="Helvetica,sans-Serif" font-size="10.00">src/libs/vgeometry</text>
<text text-anchor="middle" x="2608.75" y="-74.5" font-family="Helvetica,sans-Serif" font-size="10.00">/vabstractarc_p.h</text>
</a>
</g>
</g>
<!-- Node20&#45;&gt;Node33 -->
<g id="edge26" class="edge">
<title>Node20&#45;&gt;Node33</title>
<path fill="none" stroke="midnightblue" d="M2149.77,-143.64C2168.09,-140.28 2188.78,-136.72 2207.75,-134 2357.3,-112.59 2396.76,-122.99 2545.75,-98 2548.85,-97.48 2552.03,-96.9 2555.22,-96.28"/>
<polygon fill="midnightblue" stroke="midnightblue" points="2149.05,-140.22 2139.86,-145.49 2150.33,-147.1 2149.05,-140.22"/>
</g>
<!-- Node35 -->
<g id="node24" class="node">
<title>Node35</title>
<g id="a_node24"><a xlink:href="../../dc/da3/varc__p_8h.html" target="_top" xlink:title=" ">
<polygon fill="white" stroke="red" points="2680.25,-67.5 2680.25,-97.5 2787.25,-97.5 2787.25,-67.5 2680.25,-67.5"/>
<text text-anchor="start" x="2688.25" y="-85.5" font-family="Helvetica,sans-Serif" font-size="10.00">src/libs/vgeometry</text>
<text text-anchor="middle" x="2733.75" y="-74.5" font-family="Helvetica,sans-Serif" font-size="10.00">/varc_p.h</text>
</a>
</g>
</g>
<!-- Node20&#45;&gt;Node35 -->
<g id="edge27" class="edge">
<title>Node20&#45;&gt;Node35</title>
<path fill="none" stroke="midnightblue" d="M2148.55,-143.55C2167.15,-140.1 2188.34,-136.5 2207.75,-134 2412.47,-107.67 2466.73,-129.23 2670.75,-98 2673.86,-97.52 2677.04,-96.98 2680.24,-96.39"/>
<polygon fill="midnightblue" stroke="midnightblue" points="2147.68,-140.15 2138.5,-145.45 2148.98,-147.03 2147.68,-140.15"/>
</g>
<!-- Node37 -->
<g id="node25" class="node">
<title>Node37</title>
<g id="a_node25"><a xlink:href="../../d5/d8e/vcubicbezier__p_8h.html" target="_top" xlink:title=" ">
<polygon fill="white" stroke="red" points="2805.25,-67.5 2805.25,-97.5 2912.25,-97.5 2912.25,-67.5 2805.25,-67.5"/>
<text text-anchor="start" x="2813.25" y="-85.5" font-family="Helvetica,sans-Serif" font-size="10.00">src/libs/vgeometry</text>
<text text-anchor="middle" x="2858.75" y="-74.5" font-family="Helvetica,sans-Serif" font-size="10.00">/vcubicbezier_p.h</text>
</a>
</g>
</g>
<!-- Node20&#45;&gt;Node37 -->
<g id="edge28" class="edge">
<title>Node20&#45;&gt;Node37</title>
<path fill="none" stroke="midnightblue" d="M2147.32,-143.6C2166.21,-140.05 2187.9,-136.39 2207.75,-134 2467.7,-102.73 2536.63,-135.49 2795.75,-98 2798.86,-97.55 2802.05,-97.03 2805.25,-96.45"/>
<polygon fill="midnightblue" stroke="midnightblue" points="2146.6,-140.17 2137.44,-145.49 2147.92,-147.05 2146.6,-140.17"/>
</g>
<!-- Node39 -->
<g id="node26" class="node">
<title>Node39</title>
<g id="a_node26"><a xlink:href="../../df/dde/vellipticalarc__p_8h.html" target="_top" xlink:title=" ">
<polygon fill="white" stroke="black" points="2930.25,-67.5 2930.25,-97.5 3037.25,-97.5 3037.25,-67.5 2930.25,-67.5"/>
<text text-anchor="start" x="2938.25" y="-85.5" font-family="Helvetica,sans-Serif" font-size="10.00">src/libs/vgeometry</text>
<text text-anchor="middle" x="2983.75" y="-74.5" font-family="Helvetica,sans-Serif" font-size="10.00">/vellipticalarc_p.h</text>
</a>
</g>
</g>
<!-- Node20&#45;&gt;Node39 -->
<g id="edge29" class="edge">
<title>Node20&#45;&gt;Node39</title>
<path fill="none" stroke="midnightblue" d="M2146.84,-143.57C2165.84,-139.99 2187.72,-136.3 2207.75,-134 2523.42,-97.75 2607.13,-142.36 2921.75,-98 2924.49,-97.61 2927.28,-97.17 2930.1,-96.67"/>
<polygon fill="midnightblue" stroke="midnightblue" points="2146.06,-140.16 2136.9,-145.49 2147.39,-147.03 2146.06,-140.16"/>
</g>
<!-- Node40 -->
<g id="node27" class="node">
<title>Node40</title>
<g id="a_node27"><a xlink:href="../../d6/dfb/vellipticalarc_8cpp.html" target="_top" xlink:title=" ">
<polygon fill="white" stroke="black" points="2399.25,-0.5 2399.25,-30.5 2506.25,-30.5 2506.25,-0.5 2399.25,-0.5"/>
<text text-anchor="start" x="2407.25" y="-18.5" font-family="Helvetica,sans-Serif" font-size="10.00">src/libs/vgeometry</text>
<text text-anchor="middle" x="2452.75" y="-7.5" font-family="Helvetica,sans-Serif" font-size="10.00">/vellipticalarc.cpp</text>
</a>
</g>
</g>
<!-- Node20&#45;&gt;Node40 -->
<g id="edge31" class="edge">
<title>Node20&#45;&gt;Node40</title>
<path fill="none" stroke="midnightblue" d="M2039.05,-143.16C1981.92,-129.99 1907.55,-104.75 1941.75,-67 1972.06,-33.56 2274.15,-21.42 2399.1,-17.81"/>
<polygon fill="midnightblue" stroke="midnightblue" points="2038.61,-146.65 2049.13,-145.4 2040.13,-139.81 2038.61,-146.65"/>
</g>
<!-- Node41 -->
<g id="node28" class="node">
<title>Node41</title>
<g id="a_node28"><a xlink:href="../../d1/d76/vspline__p_8h.html" target="_top" xlink:title=" ">
<polygon fill="white" stroke="red" points="3055.25,-67.5 3055.25,-97.5 3162.25,-97.5 3162.25,-67.5 3055.25,-67.5"/>
<text text-anchor="start" x="3063.25" y="-85.5" font-family="Helvetica,sans-Serif" font-size="10.00">src/libs/vgeometry</text>
<text text-anchor="middle" x="3108.75" y="-74.5" font-family="Helvetica,sans-Serif" font-size="10.00">/vspline_p.h</text>
</a>
</g>
</g>
<!-- Node20&#45;&gt;Node41 -->
<g id="edge32" class="edge">
<title>Node20&#45;&gt;Node41</title>
<path fill="none" stroke="midnightblue" d="M2146.6,-143.54C2165.65,-139.93 2187.63,-136.23 2207.75,-134 2578.71,-92.81 2676.98,-148.72 3046.75,-98 3049.49,-97.62 3052.29,-97.18 3055.1,-96.69"/>
<polygon fill="midnightblue" stroke="midnightblue" points="2145.79,-140.13 2136.64,-145.46 2147.12,-147 2145.79,-140.13"/>
</g>
<!-- Node43 -->
<g id="node29" class="node">
<title>Node43</title>
<g id="a_node29"><a xlink:href="../../d9/d15/vabstractpiece_8cpp.html" target="_top" xlink:title=" ">
<polygon fill="white" stroke="black" points="3180.75,-73 3180.75,-92 3366.75,-92 3366.75,-73 3180.75,-73"/>
<text text-anchor="middle" x="3273.75" y="-80" font-family="Helvetica,sans-Serif" font-size="10.00">src/libs/vlayout/vabstractpiece.cpp</text>
</a>
</g>
</g>
<!-- Node20&#45;&gt;Node43 -->
<g id="edge33" class="edge">
<title>Node20&#45;&gt;Node43</title>
<path fill="none" stroke="midnightblue" d="M2146.36,-143.52C2165.46,-139.89 2187.54,-136.19 2207.75,-134 2634.01,-87.87 2744.72,-136.22 3171.75,-98 3187.88,-96.56 3205.35,-94.32 3221.2,-92.04"/>
<polygon fill="midnightblue" stroke="midnightblue" points="2145.52,-140.12 2136.37,-145.46 2146.86,-146.99 2145.52,-140.12"/>
</g>
<!-- Node44 -->
<g id="node30" class="node">
<title>Node44</title>
<g id="a_node30"><a xlink:href="../../db/d65/dialogexporttocsv_8cpp.html" target="_top" xlink:title=" ">
<polygon fill="white" stroke="black" points="3385.25,-67.5 3385.25,-97.5 3512.25,-97.5 3512.25,-67.5 3385.25,-67.5"/>
<text text-anchor="start" x="3393.25" y="-85.5" font-family="Helvetica,sans-Serif" font-size="10.00">src/libs/vmisc/dialogs</text>
<text text-anchor="middle" x="3448.75" y="-74.5" font-family="Helvetica,sans-Serif" font-size="10.00">/dialogexporttocsv.cpp</text>
</a>
</g>
</g>
<!-- Node20&#45;&gt;Node44 -->
<g id="edge36" class="edge">
<title>Node20&#45;&gt;Node44</title>
<path fill="none" stroke="midnightblue" d="M2146.12,-143.5C2165.27,-139.84 2187.45,-136.13 2207.75,-134 2724.28,-79.81 2859.73,-156.79 3375.75,-98 3378.83,-97.65 3381.98,-97.24 3385.15,-96.78"/>
<polygon fill="midnightblue" stroke="midnightblue" points="2145.25,-140.1 2136.11,-145.45 2146.59,-146.97 2145.25,-140.1"/>
</g>
<!-- Node45 -->
<g id="node31" class="node">
<title>Node45</title>
<g id="a_node31"><a xlink:href="../../d6/d0b/def_8cpp.html" target="_top" xlink:title=" ">
<polygon fill="white" stroke="black" points="3530.75,-73 3530.75,-92 3652.75,-92 3652.75,-73 3530.75,-73"/>
<text text-anchor="middle" x="3591.75" y="-80" font-family="Helvetica,sans-Serif" font-size="10.00">src/libs/vmisc/def.cpp</text>
</a>
</g>
</g>
<!-- Node20&#45;&gt;Node45 -->
<g id="edge37" class="edge">
<title>Node20&#45;&gt;Node45</title>
<path fill="none" stroke="midnightblue" d="M2145.88,-143.5C2165.09,-139.83 2187.36,-136.1 2207.75,-134 2788.89,-74.03 2941.45,-165.51 3521.75,-98 3533.22,-96.67 3545.59,-94.39 3556.7,-92.03"/>
<polygon fill="midnightblue" stroke="midnightblue" points="2144.99,-140.11 2135.85,-145.47 2146.33,-146.98 2144.99,-140.11"/>
</g>
<!-- Node46 -->
<g id="node32" class="node">
<title>Node46</title>
<g id="a_node32"><a xlink:href="../../d0/df6/vabstractapplication_8cpp.html" target="_top" xlink:title=" ">
<polygon fill="white" stroke="black" points="471.75,-73 471.75,-92 677.75,-92 677.75,-73 471.75,-73"/>
<text text-anchor="middle" x="574.75" y="-80" font-family="Helvetica,sans-Serif" font-size="10.00">src/libs/vmisc/vabstractapplication.cpp</text>
</a>
</g>
</g>
<!-- Node20&#45;&gt;Node46 -->
<g id="edge38" class="edge">
<title>Node20&#45;&gt;Node46</title>
<path fill="none" stroke="midnightblue" d="M2006.78,-144.5C1967.51,-140.67 1920.89,-136.57 1878.75,-134 1349.71,-101.77 1215.1,-140.08 686.75,-98 668.87,-96.58 649.46,-94.32 631.9,-92"/>
<polygon fill="midnightblue" stroke="midnightblue" points="2006.57,-147.99 2016.86,-145.49 2007.25,-141.03 2006.57,-147.99"/>
</g>
<!-- Node47 -->
<g id="node33" class="node">
<title>Node47</title>
<g id="a_node33"><a xlink:href="../../d4/d4f/pmsystems_8cpp.html" target="_top" xlink:title=" ">
<polygon fill="white" stroke="black" points="821.25,-67.5 821.25,-97.5 928.25,-97.5 928.25,-67.5 821.25,-67.5"/>
<text text-anchor="start" x="829.25" y="-85.5" font-family="Helvetica,sans-Serif" font-size="10.00">src/libs/vpatterndb</text>
<text text-anchor="middle" x="874.75" y="-74.5" font-family="Helvetica,sans-Serif" font-size="10.00">/pmsystems.cpp</text>
</a>
</g>
</g>
<!-- Node20&#45;&gt;Node47 -->
<g id="edge39" class="edge">
<title>Node20&#45;&gt;Node47</title>
<path fill="none" stroke="midnightblue" d="M2005.05,-144.49C1966.14,-140.74 1920.27,-136.7 1878.75,-134 1461.11,-106.87 1352.63,-153.18 937.75,-98 934.75,-97.6 931.68,-97.12 928.59,-96.59"/>
<polygon fill="midnightblue" stroke="midnightblue" points="2005.02,-148.01 2015.31,-145.49 2005.7,-141.04 2005.02,-148.01"/>
</g>
<!-- Node20&#45;&gt;Node48 -->
<g id="edge40" class="edge">
<title>Node20&#45;&gt;Node48</title>
<path fill="none" stroke="midnightblue" d="M2145.64,-143.52C2164.9,-139.83 2187.28,-136.09 2207.75,-134 2850.85,-68.49 3020.42,-178.9 3661.75,-98 3664.76,-97.62 3667.83,-97.16 3670.93,-96.64"/>
<polygon fill="midnightblue" stroke="midnightblue" points="2144.73,-140.13 2135.59,-145.49 2146.07,-147 2144.73,-140.13"/>
</g>
<!-- Node20&#45;&gt;Node49 -->
<g id="edge42" class="edge">
<title>Node20&#45;&gt;Node49</title>
<path fill="none" stroke="midnightblue" d="M2159.62,-144C2186.13,-140.19 2217.37,-136.23 2245.75,-134 2929.17,-80.32 3107.71,-184.52 3787.75,-98 3790.49,-97.65 3793.29,-97.23 3796.11,-96.76"/>
<polygon fill="midnightblue" stroke="midnightblue" points="2159.09,-140.54 2149.7,-145.45 2160.1,-147.47 2159.09,-140.54"/>
</g>
<!-- Node50 -->
<g id="node36" class="node">
<title>Node50</title>
<g id="a_node36"><a xlink:href="../../df/dba/vpiecenode__p_8h.html" target="_top" xlink:title=" ">
<polygon fill="white" stroke="black" points="696.25,-67.5 696.25,-97.5 803.25,-97.5 803.25,-67.5 696.25,-67.5"/>
<text text-anchor="start" x="704.25" y="-85.5" font-family="Helvetica,sans-Serif" font-size="10.00">src/libs/vpatterndb</text>
<text text-anchor="middle" x="749.75" y="-74.5" font-family="Helvetica,sans-Serif" font-size="10.00">/vpiecenode_p.h</text>
</a>
</g>
</g>
<!-- Node20&#45;&gt;Node50 -->
<g id="edge43" class="edge">
<title>Node20&#45;&gt;Node50</title>
<path fill="none" stroke="midnightblue" d="M2005.79,-144.47C1966.73,-140.69 1920.54,-136.62 1878.75,-134 1405.19,-104.31 1282.13,-160.33 811.75,-98 809.01,-97.64 806.22,-97.21 803.4,-96.73"/>
<polygon fill="midnightblue" stroke="midnightblue" points="2005.79,-147.99 2016.09,-145.48 2006.48,-141.02 2005.79,-147.99"/>
</g>
<!-- Node52 -->
<g id="node38" class="node">
<title>Node52</title>
<g id="a_node38"><a xlink:href="../../de/d3e/vtranslatevars_8cpp.html" target="_top" xlink:title=" ">
<polygon fill="white" stroke="black" points="946.75,-67.5 946.75,-97.5 1056.75,-97.5 1056.75,-67.5 946.75,-67.5"/>
<text text-anchor="start" x="954.75" y="-85.5" font-family="Helvetica,sans-Serif" font-size="10.00">src/libs/vpatterndb</text>
<text text-anchor="middle" x="1001.75" y="-74.5" font-family="Helvetica,sans-Serif" font-size="10.00">/vtranslatevars.cpp</text>
</a>
</g>
</g>
<!-- Node20&#45;&gt;Node52 -->
<g id="edge45" class="edge">
<title>Node20&#45;&gt;Node52</title>
<path fill="none" stroke="midnightblue" d="M2003.82,-144.5C1965.17,-140.8 1919.83,-136.79 1878.75,-134 1517.9,-109.47 1424.22,-146.15 1065.75,-98 1062.82,-97.61 1059.82,-97.14 1056.8,-96.63"/>
<polygon fill="midnightblue" stroke="midnightblue" points="2003.72,-148.01 2014.01,-145.48 2004.39,-141.04 2003.72,-148.01"/>
</g>
<!-- Node27 -->
<g id="node39" class="node">
<title>Node27</title>
<g id="a_node39"><a xlink:href="../../df/d40/export__format__combobox_8cpp.html" target="_top" xlink:title=" ">
<polygon fill="white" stroke="black" points="1075.25,-67.5 1075.25,-97.5 1208.25,-97.5 1208.25,-67.5 1075.25,-67.5"/>
<text text-anchor="start" x="1083.25" y="-85.5" font-family="Helvetica,sans-Serif" font-size="10.00">src/libs/vwidgets/export</text>
<text text-anchor="middle" x="1141.75" y="-74.5" font-family="Helvetica,sans-Serif" font-size="10.00">_format_combobox.cpp</text>
</a>
</g>
</g>
<!-- Node20&#45;&gt;Node27 -->
<g id="edge46" class="edge">
<title>Node20&#45;&gt;Node27</title>
<path fill="none" stroke="midnightblue" d="M2001.83,-144.52C1963.62,-140.91 1919.12,-136.95 1878.75,-134 1585.32,-112.56 1509.8,-133.65 1217.75,-98 1214.69,-97.63 1211.56,-97.2 1208.4,-96.74"/>
<polygon fill="midnightblue" stroke="midnightblue" points="2001.63,-148.02 2011.92,-145.48 2002.3,-141.05 2001.63,-148.02"/>
</g>
<!-- Node53 -->
<g id="node40" class="node">
<title>Node53</title>
<g id="a_node40"><a xlink:href="../../d3/d4f/mouse__coordinates_8cpp.html" target="_top" xlink:title=" ">
<polygon fill="white" stroke="black" points="1226.75,-67.5 1226.75,-97.5 1360.75,-97.5 1360.75,-67.5 1226.75,-67.5"/>
<text text-anchor="start" x="1234.75" y="-85.5" font-family="Helvetica,sans-Serif" font-size="10.00">src/libs/vwidgets/mouse</text>
<text text-anchor="middle" x="1293.75" y="-74.5" font-family="Helvetica,sans-Serif" font-size="10.00">_coordinates.cpp</text>
</a>
</g>
</g>
<!-- Node20&#45;&gt;Node53 -->
<g id="edge47" class="edge">
<title>Node20&#45;&gt;Node53</title>
<path fill="none" stroke="midnightblue" d="M1998.1,-144.51C1960.73,-141.03 1917.79,-137.17 1878.75,-134 1652.71,-115.64 1594.64,-127.3 1369.75,-98 1366.82,-97.62 1363.84,-97.19 1360.82,-96.74"/>
<polygon fill="midnightblue" stroke="midnightblue" points="1998.2,-148.03 2008.49,-145.48 1998.86,-141.06 1998.2,-148.03"/>
</g>
<!-- Node54 -->
<g id="node41" class="node">
<title>Node54</title>
<g id="a_node41"><a xlink:href="../../d7/d1b/pen__toolbar_8cpp.html" target="_top" xlink:title=" ">
<polygon fill="white" stroke="black" points="1379.25,-67.5 1379.25,-97.5 1498.25,-97.5 1498.25,-67.5 1379.25,-67.5"/>
<text text-anchor="start" x="1387.25" y="-85.5" font-family="Helvetica,sans-Serif" font-size="10.00">src/libs/vwidgets/pen</text>
<text text-anchor="middle" x="1438.75" y="-74.5" font-family="Helvetica,sans-Serif" font-size="10.00">_toolbar.cpp</text>
</a>
</g>
</g>
<!-- Node20&#45;&gt;Node54 -->
<g id="edge48" class="edge">
<title>Node20&#45;&gt;Node54</title>
<path fill="none" stroke="midnightblue" d="M1994.29,-144.56C1831.93,-129.56 1531.38,-101.59 1507.75,-98 1504.73,-97.54 1501.64,-97.03 1498.52,-96.49"/>
<polygon fill="midnightblue" stroke="midnightblue" points="1994.02,-148.05 2004.3,-145.48 1994.67,-141.08 1994.02,-148.05"/>
</g>
<!-- Node55 -->
<g id="node42" class="node">
<title>Node55</title>
<g id="a_node42"><a xlink:href="../../d8/d76/scene__rect_8cpp.html" target="_top" xlink:title=" ">
<polygon fill="white" stroke="black" points="1516.75,-67.5 1516.75,-97.5 1646.75,-97.5 1646.75,-67.5 1516.75,-67.5"/>
<text text-anchor="start" x="1524.75" y="-85.5" font-family="Helvetica,sans-Serif" font-size="10.00">src/libs/vwidgets/scene</text>
<text text-anchor="middle" x="1581.75" y="-74.5" font-family="Helvetica,sans-Serif" font-size="10.00">_rect.cpp</text>
</a>
</g>
</g>
<!-- Node20&#45;&gt;Node55 -->
<g id="edge49" class="edge">
<title>Node20&#45;&gt;Node55</title>
<path fill="none" stroke="midnightblue" d="M2006.76,-144.37C1917.46,-134.38 1776.81,-117.52 1655.75,-98 1652.91,-97.54 1650.01,-97.05 1647.08,-96.55"/>
<polygon fill="midnightblue" stroke="midnightblue" points="2006.53,-147.86 2016.85,-145.49 2007.3,-140.9 2006.53,-147.86"/>
</g>
<!-- Node56 -->
<g id="node43" class="node">
<title>Node56</title>
<g id="a_node43"><a xlink:href="../../dd/df6/vabstractmainwindow_8cpp.html" target="_top" xlink:title=" ">
<polygon fill="white" stroke="black" points="1665.25,-73 1665.25,-92 1894.25,-92 1894.25,-73 1665.25,-73"/>
<text text-anchor="middle" x="1779.75" y="-80" font-family="Helvetica,sans-Serif" font-size="10.00">src/libs/vwidgets/vabstractmainwindow.cpp</text>
</a>
</g>
</g>
<!-- Node20&#45;&gt;Node56 -->
<g id="edge50" class="edge">
<title>Node20&#45;&gt;Node56</title>
<path fill="none" stroke="midnightblue" d="M2048.41,-143.25C1985.25,-129.2 1875.92,-104.89 1818.13,-92.03"/>
<polygon fill="midnightblue" stroke="midnightblue" points="2047.99,-146.74 2058.52,-145.5 2049.51,-139.91 2047.99,-146.74"/>
</g>
<!-- Node29 -->
<g id="node44" class="node">
<title>Node29</title>
<g id="a_node44"><a xlink:href="../../d2/d28/page__format__combobox_8cpp.html" target="_top" xlink:title=" ">
<polygon fill="white" stroke="black" points="1951.25,-67.5 1951.25,-97.5 2082.25,-97.5 2082.25,-67.5 1951.25,-67.5"/>
<text text-anchor="start" x="1959.25" y="-85.5" font-family="Helvetica,sans-Serif" font-size="10.00">src/libs/vwidgets/page</text>
<text text-anchor="middle" x="2016.75" y="-74.5" font-family="Helvetica,sans-Serif" font-size="10.00">_format_combobox.cpp</text>
</a>
</g>
</g>
<!-- Node20&#45;&gt;Node29 -->
<g id="edge51" class="edge">
<title>Node20&#45;&gt;Node29</title>
<path fill="none" stroke="midnightblue" d="M2079.1,-138.44C2065.24,-126.23 2046.13,-109.39 2032.73,-97.58"/>
<polygon fill="midnightblue" stroke="midnightblue" points="2077.13,-141.37 2086.94,-145.36 2081.76,-136.12 2077.13,-141.37"/>
</g>
<!-- Node39&#45;&gt;Node40 -->
<g id="edge30" class="edge">
<title>Node39&#45;&gt;Node40</title>
<path fill="none" stroke="midnightblue" d="M2919.88,-66.8C2764.77,-40.95 2592.1,-26.4 2506.5,-20.14"/>
<polygon fill="midnightblue" stroke="midnightblue" points="2919.62,-70.31 2930.07,-68.52 2920.79,-63.41 2919.62,-70.31"/>
</g>
<!-- Node50&#45;&gt;Node51 -->
<g id="edge44" class="edge">
<title>Node50&#45;&gt;Node51</title>
<path fill="none" stroke="midnightblue" d="M686.32,-67C587.34,-48 483.74,-32.55 422.4,-23.87"/>
<polygon fill="midnightblue" stroke="midnightblue" points="685.71,-70.45 696.19,-68.91 687.04,-63.57 685.71,-70.45"/>
</g>
</g>
</svg>
