<?xml version="1.0" encoding="UTF-8" standalone="no"?>
<!DOCTYPE svg PUBLIC "-//W3C//DTD SVG 1.1//EN"
 "http://www.w3.org/Graphics/SVG/1.1/DTD/svg11.dtd">
<!-- Generated by graphviz version 2.43.0 (0)
 -->
<!-- Title: ResizeHandlesItem Pages: 1 -->
<svg width="337pt" height="325pt"
 viewBox="0.00 0.00 336.50 325.00" xmlns="http://www.w3.org/2000/svg" xmlns:xlink="http://www.w3.org/1999/xlink">
<g id="graph0" class="graph" transform="scale(1 1) rotate(0) translate(4 321)">
<title>ResizeHandlesItem</title>
<polygon fill="white" stroke="transparent" points="-4,4 -4,-321 332.5,-321 332.5,4 -4,4"/>
<!-- Node1 -->
<g id="node1" class="node">
<title>Node1</title>
<g id="a_node1"><a xlink:title=" ">
<polygon fill="#bfbfbf" stroke="black" points="47.5,-0.5 47.5,-200.5 190.5,-200.5 190.5,-0.5 47.5,-0.5"/>
<text text-anchor="middle" x="119" y="-188.5" font-family="Helvetica,sans-Serif" font-size="10.00">ResizeHandlesItem</text>
<polyline fill="none" stroke="black" points="47.5,-181.5 190.5,-181.5 "/>
<text text-anchor="start" x="55.5" y="-169.5" font-family="Helvetica,sans-Serif" font-size="10.00">&#45; m_parentRect</text>
<text text-anchor="start" x="55.5" y="-158.5" font-family="Helvetica,sans-Serif" font-size="10.00">&#45; m_lockAspectRatio</text>
<text text-anchor="start" x="55.5" y="-147.5" font-family="Helvetica,sans-Serif" font-size="10.00">&#45; m_parentRotation</text>
<polyline fill="none" stroke="black" points="47.5,-140.5 190.5,-140.5 "/>
<text text-anchor="start" x="55.5" y="-128.5" font-family="Helvetica,sans-Serif" font-size="10.00">+ ResizeHandlesItem()</text>
<text text-anchor="start" x="55.5" y="-117.5" font-family="Helvetica,sans-Serif" font-size="10.00">+ ~ResizeHandlesItem()</text>
<text text-anchor="start" x="55.5" y="-106.5" font-family="Helvetica,sans-Serif" font-size="10.00">+ type()</text>
<text text-anchor="start" x="55.5" y="-95.5" font-family="Helvetica,sans-Serif" font-size="10.00">+ boundingRect()</text>
<text text-anchor="start" x="55.5" y="-84.5" font-family="Helvetica,sans-Serif" font-size="10.00">+ paint()</text>
<text text-anchor="start" x="55.5" y="-73.5" font-family="Helvetica,sans-Serif" font-size="10.00">+ setTopLeft()</text>
<text text-anchor="start" x="55.5" y="-62.5" font-family="Helvetica,sans-Serif" font-size="10.00">+ setTop()</text>
<text text-anchor="start" x="55.5" y="-51.5" font-family="Helvetica,sans-Serif" font-size="10.00">+ setTopRight()</text>
<text text-anchor="start" x="55.5" y="-40.5" font-family="Helvetica,sans-Serif" font-size="10.00">+ setRight()</text>
<text text-anchor="start" x="55.5" y="-29.5" font-family="Helvetica,sans-Serif" font-size="10.00">+ setBottomRight()</text>
<text text-anchor="start" x="55.5" y="-18.5" font-family="Helvetica,sans-Serif" font-size="10.00">and 6 more...</text>
<text text-anchor="start" x="55.5" y="-7.5" font-family="Helvetica,sans-Serif" font-size="10.00">&#45; updateHandlePositions()</text>
</a>
</g>
</g>
<!-- Node2 -->
<g id="node2" class="node">
<title>Node2</title>
<g id="a_node2"><a xlink:title=" ">
<polygon fill="white" stroke="#bfbfbf" points="0,-254 0,-311 56,-311 56,-254 0,-254"/>
<text text-anchor="middle" x="28" y="-299" font-family="Helvetica,sans-Serif" font-size="10.00">QObject</text>
<polyline fill="none" stroke="#bfbfbf" points="0,-292 56,-292 "/>
<text text-anchor="middle" x="28" y="-280" font-family="Helvetica,sans-Serif" font-size="10.00"> </text>
<polyline fill="none" stroke="#bfbfbf" points="0,-273 56,-273 "/>
<text text-anchor="middle" x="28" y="-261" font-family="Helvetica,sans-Serif" font-size="10.00"> </text>
</a>
</g>
</g>
<!-- Node2&#45;&gt;Node1 -->
<g id="edge1" class="edge">
<title>Node2&#45;&gt;Node1</title>
<path fill="none" stroke="midnightblue" d="M46.58,-244.75C53.14,-231.78 60.87,-216.49 68.79,-200.82"/>
<polygon fill="none" stroke="midnightblue" points="43.41,-243.27 42.02,-253.77 49.65,-246.42 43.41,-243.27"/>
</g>
<!-- Node3 -->
<g id="node3" class="node">
<title>Node3</title>
<g id="a_node3"><a xlink:title=" ">
<polygon fill="white" stroke="#bfbfbf" points="74.5,-254 74.5,-311 163.5,-311 163.5,-254 74.5,-254"/>
<text text-anchor="middle" x="119" y="-299" font-family="Helvetica,sans-Serif" font-size="10.00">QGraphicsItem</text>
<polyline fill="none" stroke="#bfbfbf" points="74.5,-292 163.5,-292 "/>
<text text-anchor="middle" x="119" y="-280" font-family="Helvetica,sans-Serif" font-size="10.00"> </text>
<polyline fill="none" stroke="#bfbfbf" points="74.5,-273 163.5,-273 "/>
<text text-anchor="middle" x="119" y="-261" font-family="Helvetica,sans-Serif" font-size="10.00"> </text>
</a>
</g>
</g>
<!-- Node3&#45;&gt;Node1 -->
<g id="edge2" class="edge">
<title>Node3&#45;&gt;Node1</title>
<path fill="none" stroke="midnightblue" d="M119,-243.61C119,-230.89 119,-216.03 119,-200.82"/>
<polygon fill="none" stroke="midnightblue" points="115.5,-243.77 119,-253.77 122.5,-243.77 115.5,-243.77"/>
</g>
<!-- Node4 -->
<g id="node4" class="node">
<title>Node4</title>
<g id="a_node4"><a xlink:href="../../d1/d4a/classQList.html" target="_top" xlink:title=" ">
<polygon fill="white" stroke="black" points="181.5,-248.5 181.5,-316.5 328.5,-316.5 328.5,-248.5 181.5,-248.5"/>
<text text-anchor="start" x="189.5" y="-304.5" font-family="Helvetica,sans-Serif" font-size="10.00">QList&lt; ResizeHandlesItem</text>
<text text-anchor="middle" x="255" y="-293.5" font-family="Helvetica,sans-Serif" font-size="10.00">::HandleItem * &gt;</text>
<polyline fill="none" stroke="black" points="181.5,-286.5 328.5,-286.5 "/>
<text text-anchor="middle" x="255" y="-274.5" font-family="Helvetica,sans-Serif" font-size="10.00"> </text>
<polyline fill="none" stroke="black" points="181.5,-267.5 328.5,-267.5 "/>
<text text-anchor="middle" x="255" y="-255.5" font-family="Helvetica,sans-Serif" font-size="10.00"> </text>
</a>
</g>
</g>
<!-- Node4&#45;&gt;Node1 -->
<g id="edge3" class="edge">
<title>Node4&#45;&gt;Node1</title>
<path fill="none" stroke="#404040" d="M230.06,-248.49C220.72,-236.13 209.55,-221.34 197.94,-205.97"/>
<polygon fill="none" stroke="#404040" points="197.9,-205.92 191.09,-203.55 190.66,-196.35 197.47,-198.72 197.9,-205.92"/>
<text text-anchor="middle" x="255.5" y="-222" font-family="Helvetica,sans-Serif" font-size="10.00"> &#45;m_handleItems</text>
</g>
</g>
</svg>
