<?xml version="1.0" encoding="UTF-8" standalone="no"?>
<!DOCTYPE svg PUBLIC "-//W3C//DTD SVG 1.1//EN"
 "http://www.w3.org/Graphics/SVG/1.1/DTD/svg11.dtd">
<!-- Generated by graphviz version 2.43.0 (0)
 -->
<!-- Title: ResizeHandlesItem Pages: 1 -->
<svg width="319pt" height="404pt"
 viewBox="0.00 0.00 318.50 404.00" xmlns="http://www.w3.org/2000/svg" xmlns:xlink="http://www.w3.org/1999/xlink">
<g id="graph0" class="graph" transform="scale(1 1) rotate(0) translate(4 400)">
<title>ResizeHandlesItem</title>
<!-- Node1 -->
<g id="Node000001" class="node">
<title>Node1</title>
<g id="a_Node000001"><a xlink:title=" ">
<polygon fill="#999999" stroke="transparent" points="181,-289 39,-289 39,0 181,0 181,-289"/>
<text text-anchor="start" x="62.5" y="-276.5" font-family="Helvetica,sans-Serif" font-size="10.00">ResizeHandlesItem</text>
<text text-anchor="start" x="45.5" y="-261.5" font-family="Helvetica,sans-Serif" font-size="10.00">&#45;</text>
<text text-anchor="start" x="56" y="-261.5" font-family="Helvetica,sans-Serif" font-size="10.00">m_parentRect</text>
<text text-anchor="start" x="45.5" y="-246.5" font-family="Helvetica,sans-Serif" font-size="10.00">&#45;</text>
<text text-anchor="start" x="56" y="-246.5" font-family="Helvetica,sans-Serif" font-size="10.00">m_lockAspectRatio</text>
<text text-anchor="start" x="45.5" y="-231.5" font-family="Helvetica,sans-Serif" font-size="10.00">&#45;</text>
<text text-anchor="start" x="56" y="-231.5" font-family="Helvetica,sans-Serif" font-size="10.00">m_parentIsLocked</text>
<text text-anchor="start" x="45.5" y="-216.5" font-family="Helvetica,sans-Serif" font-size="10.00">&#45;</text>
<text text-anchor="start" x="56" y="-216.5" font-family="Helvetica,sans-Serif" font-size="10.00">m_parentRotation</text>
<text text-anchor="start" x="45.5" y="-201.5" font-family="Helvetica,sans-Serif" font-size="10.00">&#45;</text>
<text text-anchor="start" x="56" y="-201.5" font-family="Helvetica,sans-Serif" font-size="10.00">m_minDimension</text>
<text text-anchor="start" x="45.5" y="-186.5" font-family="Helvetica,sans-Serif" font-size="10.00">&#45;</text>
<text text-anchor="start" x="56" y="-186.5" font-family="Helvetica,sans-Serif" font-size="10.00">m_maxDimension</text>
<text text-anchor="start" x="43" y="-171.5" font-family="Helvetica,sans-Serif" font-size="10.00">+</text>
<text text-anchor="start" x="56" y="-171.5" font-family="Helvetica,sans-Serif" font-size="10.00">ResizeHandlesItem()</text>
<text text-anchor="start" x="43" y="-156.5" font-family="Helvetica,sans-Serif" font-size="10.00">+</text>
<text text-anchor="start" x="56" y="-156.5" font-family="Helvetica,sans-Serif" font-size="10.00">~ResizeHandlesItem()</text>
<text text-anchor="start" x="43" y="-141.5" font-family="Helvetica,sans-Serif" font-size="10.00">+</text>
<text text-anchor="start" x="56" y="-141.5" font-family="Helvetica,sans-Serif" font-size="10.00">type()</text>
<text text-anchor="start" x="43" y="-126.5" font-family="Helvetica,sans-Serif" font-size="10.00">+</text>
<text text-anchor="start" x="56" y="-126.5" font-family="Helvetica,sans-Serif" font-size="10.00">boundingRect()</text>
<text text-anchor="start" x="43" y="-111.5" font-family="Helvetica,sans-Serif" font-size="10.00">+</text>
<text text-anchor="start" x="56" y="-111.5" font-family="Helvetica,sans-Serif" font-size="10.00">paint()</text>
<text text-anchor="start" x="43" y="-96.5" font-family="Helvetica,sans-Serif" font-size="10.00">+</text>
<text text-anchor="start" x="56" y="-96.5" font-family="Helvetica,sans-Serif" font-size="10.00">setTopLeft()</text>
<text text-anchor="start" x="43" y="-81.5" font-family="Helvetica,sans-Serif" font-size="10.00">+</text>
<text text-anchor="start" x="56" y="-81.5" font-family="Helvetica,sans-Serif" font-size="10.00">setTop()</text>
<text text-anchor="start" x="43" y="-66.5" font-family="Helvetica,sans-Serif" font-size="10.00">+</text>
<text text-anchor="start" x="56" y="-66.5" font-family="Helvetica,sans-Serif" font-size="10.00">setTopRight()</text>
<text text-anchor="start" x="43" y="-51.5" font-family="Helvetica,sans-Serif" font-size="10.00">+</text>
<text text-anchor="start" x="56" y="-51.5" font-family="Helvetica,sans-Serif" font-size="10.00">setRight()</text>
<text text-anchor="start" x="43" y="-36.5" font-family="Helvetica,sans-Serif" font-size="10.00">+</text>
<text text-anchor="start" x="56" y="-36.5" font-family="Helvetica,sans-Serif" font-size="10.00">setBottomRight()</text>
<text text-anchor="start" x="56" y="-21.5" font-family="Helvetica,sans-Serif" font-size="10.00">and 8 more...</text>
<text text-anchor="start" x="45.5" y="-6.5" font-family="Helvetica,sans-Serif" font-size="10.00">&#45;</text>
<text text-anchor="start" x="56" y="-6.5" font-family="Helvetica,sans-Serif" font-size="10.00">updateHandlePositions()</text>
<polygon fill="#666666" stroke="#666666" points="39,-271.5 39,-271.5 181,-271.5 181,-271.5 39,-271.5"/>
<polygon fill="#666666" stroke="#666666" points="39,-181.5 39,-181.5 54,-181.5 54,-181.5 39,-181.5"/>
<polygon fill="#666666" stroke="#666666" points="54,-181.5 54,-181.5 181,-181.5 181,-181.5 54,-181.5"/>
<polygon fill="none" stroke="#666666" points="39,0 39,-289 181,-289 181,0 39,0"/>
</a>
</g>
</g>
<!-- Node2 -->
<g id="Node000002" class="node">
<title>Node2</title>
<g id="a_Node000002"><a xlink:title=" ">
<polygon fill="white" stroke="transparent" points="50,-390.5 0,-390.5 0,-341.5 50,-341.5 50,-390.5"/>
<text text-anchor="start" x="5" y="-378" font-family="Helvetica,sans-Serif" font-size="10.00">QObject</text>
<text text-anchor="start" x="23" y="-363" font-family="Helvetica,sans-Serif" font-size="10.00"> </text>
<text text-anchor="start" x="23" y="-348" font-family="Helvetica,sans-Serif" font-size="10.00"> </text>
<polygon fill="#666666" stroke="#666666" points="0,-373 0,-373 50,-373 50,-373 0,-373"/>
<polygon fill="#666666" stroke="#666666" points="0,-358 0,-358 50,-358 50,-358 0,-358"/>
<polygon fill="none" stroke="#666666" points="0,-341.5 0,-390.5 50,-390.5 50,-341.5 0,-341.5"/>
</a>
</g>
</g>
<!-- Node2&#45;&gt;Node1 -->
<g id="edge1_Node000001_Node000002" class="edge">
<title>Node2&#45;&gt;Node1</title>
<g id="a_edge1_Node000001_Node000002"><a xlink:title=" ">
<path fill="none" stroke="#63b8ff" d="M37.95,-331.56C42.62,-319.49 48.24,-304.99 54.25,-289.47"/>
<polygon fill="none" stroke="#63b8ff" points="34.61,-330.5 34.26,-341.09 41.13,-333.03 34.61,-330.5"/>
</a>
</g>
</g>
<!-- Node3 -->
<g id="Node000003" class="node">
<title>Node3</title>
<g id="a_Node000003"><a xlink:title=" ">
<polygon fill="white" stroke="transparent" points="151.5,-390.5 68.5,-390.5 68.5,-341.5 151.5,-341.5 151.5,-390.5"/>
<text text-anchor="start" x="74" y="-378" font-family="Helvetica,sans-Serif" font-size="10.00">QGraphicsItem</text>
<text text-anchor="start" x="108.5" y="-363" font-family="Helvetica,sans-Serif" font-size="10.00"> </text>
<text text-anchor="start" x="108.5" y="-348" font-family="Helvetica,sans-Serif" font-size="10.00"> </text>
<polygon fill="#666666" stroke="#666666" points="69,-373 69,-373 152,-373 152,-373 69,-373"/>
<polygon fill="#666666" stroke="#666666" points="69,-358 69,-358 152,-358 152,-358 69,-358"/>
<polygon fill="none" stroke="#666666" points="68.5,-341.5 68.5,-390.5 151.5,-390.5 151.5,-341.5 68.5,-341.5"/>
</a>
</g>
</g>
<!-- Node3&#45;&gt;Node1 -->
<g id="edge2_Node000001_Node000003" class="edge">
<title>Node3&#45;&gt;Node1</title>
<g id="a_edge2_Node000001_Node000003"><a xlink:title=" ">
<path fill="none" stroke="#63b8ff" d="M110,-330.83C110,-318.91 110,-304.68 110,-289.47"/>
<polygon fill="none" stroke="#63b8ff" points="106.5,-331.09 110,-341.09 113.5,-331.09 106.5,-331.09"/>
</a>
</g>
</g>
<!-- Node4 -->
<g id="Node000004" class="node">
<title>Node4</title>
<g id="a_Node000004"><a xlink:href="../../d1/d4a/classQList.html" target="_top" xlink:title=" ">
<polygon fill="white" stroke="transparent" points="310.5,-396 169.5,-396 169.5,-336 310.5,-336 310.5,-396"/>
<text text-anchor="start" x="175" y="-384" font-family="Helvetica,sans-Serif" font-size="10.00">QList&lt; ResizeHandlesItem</text>
<text text-anchor="start" x="199" y="-373" font-family="Helvetica,sans-Serif" font-size="10.00">::HandleItem * &gt;</text>
<text text-anchor="start" x="238.5" y="-358" font-family="Helvetica,sans-Serif" font-size="10.00"> </text>
<text text-anchor="start" x="238.5" y="-343" font-family="Helvetica,sans-Serif" font-size="10.00"> </text>
<polygon fill="#666666" stroke="#666666" points="170,-368 170,-368 311,-368 311,-368 170,-368"/>
<polygon fill="#666666" stroke="#666666" points="170,-353 170,-353 311,-353 311,-353 170,-353"/>
<polygon fill="none" stroke="#666666" points="169.5,-336 169.5,-396 310.5,-396 310.5,-336 169.5,-336"/>
</a>
</g>
</g>
<!-- Node4&#45;&gt;Node1 -->
<g id="edge3_Node000001_Node000004" class="edge">
<title>Node4&#45;&gt;Node1</title>
<g id="a_edge3_Node000001_Node000004"><a xlink:title=" ">
<path fill="none" stroke="#63b8ff" d="M222.74,-335.85C213.21,-319.77 200.64,-298.55 187.36,-276.12"/>
<polygon fill="none" stroke="#63b8ff" points="187.33,-276.06 180.83,-272.94 181.21,-265.74 187.71,-268.86 187.33,-276.06"/>
</a>
</g>
<text text-anchor="middle" x="252.5" y="-310" font-family="Helvetica,sans-Serif" font-size="10.00" fill="grey"> &#45;m_handleItems</text>
</g>
</g>
</svg>
