<?xml version="1.0" encoding="UTF-8" standalone="no"?>
<!DOCTYPE svg PUBLIC "-//W3C//DTD SVG 1.1//EN"
 "http://www.w3.org/Graphics/SVG/1.1/DTD/svg11.dtd">
<!-- Generated by graphviz version 2.43.0 (0)
 -->
<!-- Title: src/app/seamly2d/dialogs/dialogaboutapp.cpp Pages: 1 -->
<!--zoomable 324 -->

<svg id="main" version="1.1" xmlns="http://www.w3.org/2000/svg" xmlns:xlink="http://www.w3.org/1999/xlink" xml:space="preserve" onload="init(evt)">
<style type="text/css"><![CDATA[
.node, .edge {opacity: 0.7;}
.node.selected, .edge.selected {opacity: 1;}
.edge:hover path { stroke: red; }
.edge:hover polygon { stroke: red; fill: red; }
]]></style>

<defs>
  <circle id="rim" cx="0" cy="0" r="7"/>
  <circle id="rim2" cx="0" cy="0" r="3.5"/>
  <g id="zoomPlus">
    <use xlink:href="#rim" fill="#404040"><set attributeName="fill" to="#808080" begin="zoomplus.mouseover" end="zoomplus.mouseout"/></use>
    <path d="M-4,0h8M0,-4v8" fill="none" stroke="white" stroke-width="1.5" pointer-events="none"/>
  </g>
  <g id="zoomMin">
    <use xlink:href="#rim" fill="#404040"><set attributeName="fill" to="#808080" begin="zoomminus.mouseover" end="zoomminus.mouseout"/></use>
    <path d="M-4,0h8" fill="none" stroke="white" stroke-width="1.5" pointer-events="none"/>
  </g>
  <g id="arrowUp" transform="translate(30 24)">
    <use xlink:href="#rim"/>
    <path pointer-events="none" fill="none" stroke="white" stroke-width="1.5" d="M0,-3.0v7 M-2.5,-0.5L0,-3.0L2.5,-0.5"/>
  </g>
  <g id="arrowRight" transform="rotate(90) translate(36 -43)">
    <use xlink:href="#rim"/>
    <path pointer-events="none" fill="none" stroke="white" stroke-width="1.5" d="M0,-3.0v7 M-2.5,-0.5L0,-3.0L2.5,-0.5"/>
  </g>
  <g id="arrowDown" transform="rotate(180) translate(-30 -48)">
    <use xlink:href="#rim"/>
    <path pointer-events="none" fill="none" stroke="white" stroke-width="1.5" d="M0,-3.0v7 M-2.5,-0.5L0,-3.0L2.5,-0.5"/>
  </g>
  <g id="arrowLeft" transform="rotate(270) translate(-36 17)">
    <use xlink:href="#rim"/>
    <path pointer-events="none" fill="none" stroke="white" stroke-width="1.5" d="M0,-3.0v7 M-2.5,-0.5L0,-3.0L2.5,-0.5"/>
  </g>
  <g id="resetDef">
    <use xlink:href="#rim2" fill="#404040"><set attributeName="fill" to="#808080" begin="reset.mouseover" end="reset.mouseout"/></use>
  </g>
</defs>
<script type="application/ecmascript">
var viewWidth = 1602;
var viewHeight = 324;
var sectionId = 'dynsection-0';
</script>
<script type="application/ecmascript" xlink:href="../../svg.min.js"/>
<svg id="graph" class="graph">
<g id="viewport">
<title>src/app/seamly2d/dialogs/dialogaboutapp.cpp</title>
<!-- Node1 -->
<g id="Node000001" class="node">
<title>Node1</title>
<g id="a_Node000001"><a xlink:title=" ">
<polygon fill="#999999" stroke="#666666" points="608.75,-316 467.75,-316 467.75,-286 608.75,-286 608.75,-316"/>
<text text-anchor="start" x="475.75" y="-304" font-family="Helvetica,sans-Serif" font-size="10.00">src/app/seamly2d/dialogs</text>
<text text-anchor="middle" x="538.25" y="-293" font-family="Helvetica,sans-Serif" font-size="10.00">/dialogaboutapp.cpp</text>
</a>
</g>
</g>
<!-- Node2 -->
<g id="Node000002" class="node">
<title>Node2</title>
<g id="a_Node000002"><a xlink:href="../../da/d80/dialogaboutapp_8h.html" target="_top" xlink:title=" ">
<polygon fill="white" stroke="#666666" points="217.75,-74 116.75,-74 116.75,-55 217.75,-55 217.75,-74"/>
<text text-anchor="middle" x="167.25" y="-62" font-family="Helvetica,sans-Serif" font-size="10.00">dialogaboutapp.h</text>
</a>
</g>
</g>
<!-- Node1&#45;&gt;Node2 -->
<g id="edge1_Node000001_Node000002" class="edge">
<title>Node1&#45;&gt;Node2</title>
<g id="a_edge1_Node000001_Node000002"><a xlink:title=" ">
<path fill="none" stroke="#63b8ff" d="M467.5,-298.43C331.46,-294.67 44.17,-282.9 14.25,-250 -41.98,-188.15 84.25,-109.76 141.21,-78.88"/>
<polygon fill="#63b8ff" stroke="#63b8ff" points="143.17,-81.8 150.35,-74 139.88,-75.62 143.17,-81.8"/>
</a>
</g>
</g>
<!-- Node4 -->
<g id="Node000004" class="node">
<title>Node4</title>
<g id="a_Node000004"><a xlink:title=" ">
<polygon fill="#e0e0e0" stroke="#999999" points="139.25,-250 23.25,-250 23.25,-231 139.25,-231 139.25,-250"/>
<text text-anchor="middle" x="81.25" y="-238" font-family="Helvetica,sans-Serif" font-size="10.00">ui_dialogaboutapp.h</text>
</a>
</g>
</g>
<!-- Node1&#45;&gt;Node4 -->
<g id="edge3_Node000001_Node000004" class="edge">
<title>Node1&#45;&gt;Node4</title>
<g id="a_edge3_Node000001_Node000004"><a xlink:title=" ">
<path fill="none" stroke="#63b8ff" d="M467.6,-290.96C380.93,-279.86 235,-261.18 149.46,-250.23"/>
<polygon fill="#63b8ff" stroke="#63b8ff" points="149.7,-246.73 139.34,-248.94 148.81,-253.68 149.7,-246.73"/>
</a>
</g>
</g>
<!-- Node5 -->
<g id="Node000005" class="node">
<title>Node5</title>
<g id="a_Node000005"><a xlink:href="../../d1/d9f/seamly2d_2version_8h.html" target="_top" xlink:title=" ">
<polygon fill="white" stroke="#666666" points="228.75,-250 157.75,-250 157.75,-231 228.75,-231 228.75,-250"/>
<text text-anchor="middle" x="193.25" y="-238" font-family="Helvetica,sans-Serif" font-size="10.00">../version.h</text>
</a>
</g>
</g>
<!-- Node1&#45;&gt;Node5 -->
<g id="edge4_Node000001_Node000005" class="edge">
<title>Node1&#45;&gt;Node5</title>
<g id="a_edge4_Node000001_Node000005"><a xlink:title=" ">
<path fill="none" stroke="#63b8ff" d="M467.62,-288.8C408.88,-279.37 322.84,-265.27 238.76,-250.24"/>
<polygon fill="#63b8ff" stroke="#63b8ff" points="239.24,-246.77 228.78,-248.45 238.01,-253.66 239.24,-246.77"/>
</a>
</g>
</g>
<!-- Node7 -->
<g id="Node000007" class="node">
<title>Node7</title>
<g id="a_Node000007"><a xlink:title=" ">
<polygon fill="#e0e0e0" stroke="#999999" points="293.75,-250 246.75,-250 246.75,-231 293.75,-231 293.75,-250"/>
<text text-anchor="middle" x="270.25" y="-238" font-family="Helvetica,sans-Serif" font-size="10.00">QDate</text>
</a>
</g>
</g>
<!-- Node1&#45;&gt;Node7 -->
<g id="edge6_Node000001_Node000007" class="edge">
<title>Node1&#45;&gt;Node7</title>
<g id="a_edge6_Node000001_Node000007"><a xlink:title=" ">
<path fill="none" stroke="#63b8ff" d="M468.42,-285.95C423.96,-276.82 364.94,-264.35 303.84,-250.06"/>
<polygon fill="#63b8ff" stroke="#63b8ff" points="304.55,-246.63 294.02,-247.75 302.95,-253.44 304.55,-246.63"/>
</a>
</g>
</g>
<!-- Node8 -->
<g id="Node000008" class="node">
<title>Node8</title>
<g id="a_Node000008"><a xlink:title=" ">
<polygon fill="#e0e0e0" stroke="#999999" points="418.25,-250 312.25,-250 312.25,-231 418.25,-231 418.25,-250"/>
<text text-anchor="middle" x="365.25" y="-238" font-family="Helvetica,sans-Serif" font-size="10.00">QDesktopServices</text>
</a>
</g>
</g>
<!-- Node1&#45;&gt;Node8 -->
<g id="edge7_Node000001_Node000008" class="edge">
<title>Node1&#45;&gt;Node8</title>
<g id="a_edge7_Node000001_Node000008"><a xlink:title=" ">
<path fill="none" stroke="#63b8ff" d="M496.82,-285.99C467.35,-276.02 428.2,-262.78 400.29,-253.35"/>
<polygon fill="#63b8ff" stroke="#63b8ff" points="401.14,-249.94 390.55,-250.05 398.9,-256.57 401.14,-249.94"/>
</a>
</g>
</g>
<!-- Node9 -->
<g id="Node000009" class="node">
<title>Node9</title>
<g id="a_Node000009"><a xlink:title=" ">
<polygon fill="#e0e0e0" stroke="#999999" points="531.75,-250 436.75,-250 436.75,-231 531.75,-231 531.75,-250"/>
<text text-anchor="middle" x="484.25" y="-238" font-family="Helvetica,sans-Serif" font-size="10.00">QGuiApplication</text>
</a>
</g>
</g>
<!-- Node1&#45;&gt;Node9 -->
<g id="edge8_Node000001_Node000009" class="edge">
<title>Node1&#45;&gt;Node9</title>
<g id="a_edge8_Node000001_Node000009"><a xlink:title=" ">
<path fill="none" stroke="#63b8ff" d="M525.18,-285.84C517.34,-277.35 507.35,-266.52 499.2,-257.69"/>
<polygon fill="#63b8ff" stroke="#63b8ff" points="501.7,-255.24 492.35,-250.27 496.56,-259.99 501.7,-255.24"/>
</a>
</g>
</g>
<!-- Node10 -->
<g id="Node000010" class="node">
<title>Node10</title>
<g id="a_Node000010"><a xlink:title=" ">
<polygon fill="#e0e0e0" stroke="#999999" points="636.25,-250 550.25,-250 550.25,-231 636.25,-231 636.25,-250"/>
<text text-anchor="middle" x="593.25" y="-238" font-family="Helvetica,sans-Serif" font-size="10.00">QMessageBox</text>
</a>
</g>
</g>
<!-- Node1&#45;&gt;Node10 -->
<g id="edge9_Node000001_Node000010" class="edge">
<title>Node1&#45;&gt;Node10</title>
<g id="a_edge9_Node000001_Node000010"><a xlink:title=" ">
<path fill="none" stroke="#63b8ff" d="M551.57,-285.84C559.55,-277.35 569.73,-266.52 578.03,-257.69"/>
<polygon fill="#63b8ff" stroke="#63b8ff" points="580.71,-259.95 585.01,-250.27 575.61,-255.15 580.71,-259.95"/>
</a>
</g>
</g>
<!-- Node11 -->
<g id="Node000011" class="node">
<title>Node11</title>
<g id="a_Node000011"><a xlink:title=" ">
<polygon fill="#e0e0e0" stroke="#999999" points="711.75,-250 654.75,-250 654.75,-231 711.75,-231 711.75,-250"/>
<text text-anchor="middle" x="683.25" y="-238" font-family="Helvetica,sans-Serif" font-size="10.00">QScreen</text>
</a>
</g>
</g>
<!-- Node1&#45;&gt;Node11 -->
<g id="edge10_Node000001_Node000011" class="edge">
<title>Node1&#45;&gt;Node11</title>
<g id="a_edge10_Node000001_Node000011"><a xlink:title=" ">
<path fill="none" stroke="#63b8ff" d="M572.99,-285.99C597.18,-276.23 629.15,-263.33 652.44,-253.93"/>
<polygon fill="#63b8ff" stroke="#63b8ff" points="653.88,-257.13 661.84,-250.14 651.26,-250.63 653.88,-257.13"/>
</a>
</g>
</g>
<!-- Node12 -->
<g id="Node000012" class="node">
<title>Node12</title>
<g id="a_Node000012"><a xlink:title=" ">
<polygon fill="#e0e0e0" stroke="#999999" points="788.75,-250 729.75,-250 729.75,-231 788.75,-231 788.75,-250"/>
<text text-anchor="middle" x="759.25" y="-238" font-family="Helvetica,sans-Serif" font-size="10.00">QtDebug</text>
</a>
</g>
</g>
<!-- Node1&#45;&gt;Node12 -->
<g id="edge11_Node000001_Node000012" class="edge">
<title>Node1&#45;&gt;Node12</title>
<g id="a_edge11_Node000001_Node000012"><a xlink:title=" ">
<path fill="none" stroke="#63b8ff" d="M591.19,-285.99C630.59,-275.56 683.54,-261.54 719.39,-252.05"/>
<polygon fill="#63b8ff" stroke="#63b8ff" points="720.71,-255.32 729.48,-249.38 718.92,-248.56 720.71,-255.32"/>
</a>
</g>
</g>
<!-- Node13 -->
<g id="Node000013" class="node">
<title>Node13</title>
<g id="a_Node000013"><a xlink:href="../../d7/d5b/options_8h.html" target="_top" xlink:title=" ">
<polygon fill="white" stroke="#666666" points="579.75,-195 508.75,-195 508.75,-176 579.75,-176 579.75,-195"/>
<text text-anchor="middle" x="544.25" y="-183" font-family="Helvetica,sans-Serif" font-size="10.00">../options.h</text>
</a>
</g>
</g>
<!-- Node1&#45;&gt;Node13 -->
<g id="edge12_Node000001_Node000013" class="edge">
<title>Node1&#45;&gt;Node13</title>
<g id="a_edge12_Node000001_Node000013"><a xlink:title=" ">
<path fill="none" stroke="#63b8ff" d="M609.04,-296.26C677.63,-290.99 774.65,-278.57 798.25,-250 840.89,-198.38 924.72,-254.75 590.13,-195.12"/>
<polygon fill="#63b8ff" stroke="#63b8ff" points="590.57,-191.65 580.11,-193.33 589.33,-198.54 590.57,-191.65"/>
</a>
</g>
</g>
<!-- Node18 -->
<g id="Node000018" class="node">
<title>Node18</title>
<g id="a_Node000018"><a xlink:href="../../d7/d61/application__2d_8h.html" target="_top" xlink:title=" ">
<polygon fill="white" stroke="#666666" points="975.25,-250 845.25,-250 845.25,-231 975.25,-231 975.25,-250"/>
<text text-anchor="middle" x="910.25" y="-238" font-family="Helvetica,sans-Serif" font-size="10.00">../core/application_2d.h</text>
</a>
</g>
</g>
<!-- Node1&#45;&gt;Node18 -->
<g id="edge17_Node000001_Node000018" class="edge">
<title>Node1&#45;&gt;Node18</title>
<g id="a_edge17_Node000001_Node000018"><a xlink:title=" ">
<path fill="none" stroke="#63b8ff" d="M609.1,-288.86C677.33,-278.13 779.66,-262.04 845.69,-251.65"/>
<polygon fill="#63b8ff" stroke="#63b8ff" points="846.64,-255.05 855.97,-250.04 845.55,-248.13 846.64,-255.05"/>
</a>
</g>
</g>
<!-- Node35 -->
<g id="Node000035" class="node">
<title>Node35</title>
<g id="a_Node000035"><a xlink:title=" ">
<polygon fill="#e0e0e0" stroke="#999999" points="1106.75,-250 993.75,-250 993.75,-231 1106.75,-231 1106.75,-250"/>
<text text-anchor="middle" x="1050.25" y="-238" font-family="Helvetica,sans-Serif" font-size="10.00">../fervor/fvupdater.h</text>
</a>
</g>
</g>
<!-- Node1&#45;&gt;Node35 -->
<g id="edge41_Node000001_Node000035" class="edge">
<title>Node1&#45;&gt;Node35</title>
<g id="a_edge41_Node000001_Node000035"><a xlink:title=" ">
<path fill="none" stroke="#63b8ff" d="M608.98,-292.43C694.9,-283.16 844.56,-266.75 983.73,-250.04"/>
<polygon fill="#63b8ff" stroke="#63b8ff" points="984.23,-253.51 993.74,-248.84 983.39,-246.56 984.23,-253.51"/>
</a>
</g>
</g>
<!-- Node3 -->
<g id="Node000003" class="node">
<title>Node3</title>
<g id="a_Node000003"><a xlink:title=" ">
<polygon fill="#e0e0e0" stroke="#999999" points="278.25,-19 222.25,-19 222.25,0 278.25,0 278.25,-19"/>
<text text-anchor="middle" x="250.25" y="-7" font-family="Helvetica,sans-Serif" font-size="10.00">QDialog</text>
</a>
</g>
</g>
<!-- Node2&#45;&gt;Node3 -->
<g id="edge2_Node000002_Node000003" class="edge">
<title>Node2&#45;&gt;Node3</title>
<g id="a_edge2_Node000002_Node000003"><a xlink:title=" ">
<path fill="none" stroke="#63b8ff" d="M180.59,-54.98C193.34,-46.84 212.81,-34.41 227.92,-24.76"/>
<polygon fill="#63b8ff" stroke="#63b8ff" points="230.13,-27.5 236.68,-19.17 226.36,-21.6 230.13,-27.5"/>
</a>
</g>
</g>
<!-- Node6 -->
<g id="Node000006" class="node">
<title>Node6</title>
<g id="a_Node000006"><a xlink:href="../../dc/d73/projectversion_8h.html" target="_top" xlink:title=" ">
<polygon fill="white" stroke="#666666" points="276.25,-195 110.25,-195 110.25,-176 276.25,-176 276.25,-195"/>
<text text-anchor="middle" x="193.25" y="-183" font-family="Helvetica,sans-Serif" font-size="10.00">../../libs/vmisc/projectversion.h</text>
</a>
</g>
</g>
<!-- Node5&#45;&gt;Node6 -->
<g id="edge5_Node000005_Node000006" class="edge">
<title>Node5&#45;&gt;Node6</title>
<g id="a_edge5_Node000005_Node000006"><a xlink:title=" ">
<path fill="none" stroke="#63b8ff" d="M193.25,-230.75C193.25,-223.8 193.25,-213.85 193.25,-205.13"/>
<polygon fill="#63b8ff" stroke="#63b8ff" points="196.75,-205.09 193.25,-195.09 189.75,-205.09 196.75,-205.09"/>
</a>
</g>
</g>
<!-- Node14 -->
<g id="Node000014" class="node">
<title>Node14</title>
<g id="a_Node000014"><a xlink:title=" ">
<polygon fill="#e0e0e0" stroke="#999999" points="456.75,-19 379.75,-19 379.75,0 456.75,0 456.75,-19"/>
<text text-anchor="middle" x="418.25" y="-7" font-family="Helvetica,sans-Serif" font-size="10.00">../ifc/ifcdef.h</text>
</a>
</g>
</g>
<!-- Node13&#45;&gt;Node14 -->
<g id="edge13_Node000013_Node000014" class="edge">
<title>Node13&#45;&gt;Node14</title>
<g id="a_edge13_Node000013_Node000014"><a xlink:title=" ">
<path fill="none" stroke="#63b8ff" d="M508.61,-177.89C459.65,-166.56 374.25,-138.14 344.25,-74 333.75,-51.53 359.52,-33.97 383.48,-23.07"/>
<polygon fill="#63b8ff" stroke="#63b8ff" points="385,-26.23 392.83,-19.09 382.26,-19.79 385,-26.23"/>
</a>
</g>
</g>
<!-- Node15 -->
<g id="Node000015" class="node">
<title>Node15</title>
<g id="a_Node000015"><a xlink:title=" ">
<polygon fill="#e0e0e0" stroke="#999999" points="623.75,-134.5 464.75,-134.5 464.75,-115.5 623.75,-115.5 623.75,-134.5"/>
<text text-anchor="middle" x="544.25" y="-122.5" font-family="Helvetica,sans-Serif" font-size="10.00">../vgeometry/vgeometrydef.h</text>
</a>
</g>
</g>
<!-- Node13&#45;&gt;Node15 -->
<g id="edge14_Node000013_Node000015" class="edge">
<title>Node13&#45;&gt;Node15</title>
<g id="a_edge14_Node000013_Node000015"><a xlink:title=" ">
<path fill="none" stroke="#63b8ff" d="M544.25,-175.87C544.25,-167.75 544.25,-155.31 544.25,-144.89"/>
<polygon fill="#63b8ff" stroke="#63b8ff" points="547.75,-144.67 544.25,-134.67 540.75,-144.67 547.75,-144.67"/>
</a>
</g>
</g>
<!-- Node16 -->
<g id="Node000016" class="node">
<title>Node16</title>
<g id="a_Node000016"><a xlink:title=" ">
<polygon fill="#e0e0e0" stroke="#999999" points="768.75,-134.5 641.75,-134.5 641.75,-115.5 768.75,-115.5 768.75,-134.5"/>
<text text-anchor="middle" x="705.25" y="-122.5" font-family="Helvetica,sans-Serif" font-size="10.00">../qmuparser/qmudef.h</text>
</a>
</g>
</g>
<!-- Node13&#45;&gt;Node16 -->
<g id="edge15_Node000013_Node000016" class="edge">
<title>Node13&#45;&gt;Node16</title>
<g id="a_edge15_Node000013_Node000016"><a xlink:title=" ">
<path fill="none" stroke="#63b8ff" d="M567.67,-175.99C595.21,-165.99 641.12,-149.3 672.27,-137.99"/>
<polygon fill="#63b8ff" stroke="#63b8ff" points="673.61,-141.22 681.82,-134.52 671.22,-134.64 673.61,-141.22"/>
</a>
</g>
</g>
<!-- Node17 -->
<g id="Node000017" class="node">
<title>Node17</title>
<g id="a_Node000017"><a xlink:title=" ">
<polygon fill="#e0e0e0" stroke="#999999" points="727.25,-19 645.25,-19 645.25,0 727.25,0 727.25,-19"/>
<text text-anchor="middle" x="686.25" y="-7" font-family="Helvetica,sans-Serif" font-size="10.00">../vmisc/def.h</text>
</a>
</g>
</g>
<!-- Node13&#45;&gt;Node17 -->
<g id="edge16_Node000013_Node000017" class="edge">
<title>Node13&#45;&gt;Node17</title>
<g id="a_edge16_Node000013_Node000017"><a xlink:title=" ">
<path fill="none" stroke="#63b8ff" d="M508.41,-176.1C489.39,-169.62 467.64,-158.52 456.25,-140 449.27,-128.64 448.93,-121.14 456.25,-110 478.1,-76.74 586.15,-40.21 646.07,-22.07"/>
<polygon fill="#63b8ff" stroke="#63b8ff" points="647.38,-25.33 655.95,-19.11 645.37,-18.62 647.38,-25.33"/>
</a>
</g>
</g>
<!-- Node18&#45;&gt;Node13 -->
<g id="edge20_Node000018_Node000013" class="edge">
<title>Node18&#45;&gt;Node13</title>
<g id="a_edge20_Node000018_Node000013"><a xlink:title=" ">
<path fill="none" stroke="#63b8ff" d="M845.25,-231.44C782.53,-223.44 684.65,-210.4 590.11,-195.07"/>
<polygon fill="#63b8ff" stroke="#63b8ff" points="590.52,-191.59 580.09,-193.43 589.39,-198.5 590.52,-191.59"/>
</a>
</g>
</g>
<!-- Node19 -->
<g id="Node000019" class="node">
<title>Node19</title>
<g id="a_Node000019"><a xlink:title=" ">
<polygon fill="#e0e0e0" stroke="#999999" points="1370.75,-195 1203.75,-195 1203.75,-176 1370.75,-176 1370.75,-195"/>
<text text-anchor="middle" x="1287.25" y="-183" font-family="Helvetica,sans-Serif" font-size="10.00">../vmisc/vabstractapplication.h</text>
</a>
</g>
</g>
<!-- Node18&#45;&gt;Node19 -->
<g id="edge18_Node000018_Node000019" class="edge">
<title>Node18&#45;&gt;Node19</title>
<g id="a_edge18_Node000018_Node000019"><a xlink:title=" ">
<path fill="none" stroke="#63b8ff" d="M970.83,-230.98C1037.78,-221.57 1145.51,-206.43 1216.35,-196.47"/>
<polygon fill="#63b8ff" stroke="#63b8ff" points="1217.11,-199.9 1226.52,-195.04 1216.13,-192.96 1217.11,-199.9"/>
</a>
</g>
</g>
<!-- Node20 -->
<g id="Node000020" class="node">
<title>Node20</title>
<g id="a_Node000020"><a xlink:title=" ">
<polygon fill="#e0e0e0" stroke="#999999" points="710.25,-195 598.25,-195 598.25,-176 710.25,-176 710.25,-195"/>
<text text-anchor="middle" x="654.25" y="-183" font-family="Helvetica,sans-Serif" font-size="10.00">../vmisc/vsettings.h</text>
</a>
</g>
</g>
<!-- Node18&#45;&gt;Node20 -->
<g id="edge19_Node000018_Node000020" class="edge">
<title>Node18&#45;&gt;Node20</title>
<g id="a_edge19_Node000018_Node000020"><a xlink:title=" ">
<path fill="none" stroke="#63b8ff" d="M869.12,-230.98C824.66,-221.78 753.7,-207.09 705.61,-197.13"/>
<polygon fill="#63b8ff" stroke="#63b8ff" points="706.21,-193.68 695.71,-195.08 704.79,-200.54 706.21,-193.68"/>
</a>
</g>
</g>
<!-- Node21 -->
<g id="Node000021" class="node">
<title>Node21</title>
<g id="a_Node000021"><a xlink:title=" ">
<polygon fill="#e0e0e0" stroke="#999999" points="904.25,-195 728.25,-195 728.25,-176 904.25,-176 904.25,-195"/>
<text text-anchor="middle" x="816.25" y="-183" font-family="Helvetica,sans-Serif" font-size="10.00">../vwidgets/vmaingraphicsview.h</text>
</a>
</g>
</g>
<!-- Node18&#45;&gt;Node21 -->
<g id="edge21_Node000018_Node000021" class="edge">
<title>Node18&#45;&gt;Node21</title>
<g id="a_edge21_Node000018_Node000021"><a xlink:title=" ">
<path fill="none" stroke="#63b8ff" d="M895.15,-230.98C880.44,-222.69 857.83,-209.94 840.58,-200.22"/>
<polygon fill="#63b8ff" stroke="#63b8ff" points="842.06,-197.03 831.63,-195.17 838.62,-203.13 842.06,-197.03"/>
</a>
</g>
</g>
<!-- Node22 -->
<g id="Node000022" class="node">
<title>Node22</title>
<g id="a_Node000022"><a xlink:title=" ">
<polygon fill="#e0e0e0" stroke="#999999" points="1083.75,-195 922.75,-195 922.75,-176 1083.75,-176 1083.75,-195"/>
<text text-anchor="middle" x="1003.25" y="-183" font-family="Helvetica,sans-Serif" font-size="10.00">../vpatterndb/vtranslatevars.h</text>
</a>
</g>
</g>
<!-- Node18&#45;&gt;Node22 -->
<g id="edge22_Node000018_Node000022" class="edge">
<title>Node18&#45;&gt;Node22</title>
<g id="a_edge22_Node000018_Node000022"><a xlink:title=" ">
<path fill="none" stroke="#63b8ff" d="M925.2,-230.98C939.75,-222.69 962.12,-209.94 979.19,-200.22"/>
<polygon fill="#63b8ff" stroke="#63b8ff" points="981.09,-203.16 988.04,-195.17 977.62,-197.08 981.09,-203.16"/>
</a>
</g>
</g>
<!-- Node23 -->
<g id="Node000023" class="node">
<title>Node23</title>
<g id="a_Node000023"><a xlink:href="../../dd/d57/vcmdexport_8h.html" target="_top" xlink:title=" ">
<polygon fill="white" stroke="#666666" points="1186.25,-195 1102.25,-195 1102.25,-176 1186.25,-176 1186.25,-195"/>
<text text-anchor="middle" x="1144.25" y="-183" font-family="Helvetica,sans-Serif" font-size="10.00">vcmdexport.h</text>
</a>
</g>
</g>
<!-- Node18&#45;&gt;Node23 -->
<g id="edge23_Node000018_Node000023" class="edge">
<title>Node18&#45;&gt;Node23</title>
<g id="a_edge23_Node000018_Node000023"><a xlink:title=" ">
<path fill="none" stroke="#63b8ff" d="M947.85,-230.98C988.24,-221.84 1052.54,-207.27 1096.49,-197.32"/>
<polygon fill="#63b8ff" stroke="#63b8ff" points="1097.38,-200.7 1106.36,-195.08 1095.84,-193.88 1097.38,-200.7"/>
</a>
</g>
</g>
<!-- Node23&#45;&gt;Node17 -->
<g id="edge39_Node000023_Node000017" class="edge">
<title>Node23&#45;&gt;Node17</title>
<g id="a_edge39_Node000023_Node000017"><a xlink:title=" ">
<path fill="none" stroke="#63b8ff" d="M1186.5,-177.08C1247.04,-166.24 1351.85,-146.65 1357.25,-140 1365.66,-129.65 1363.78,-121.63 1357.25,-110 1334.32,-69.11 1311.86,-69.41 1267.25,-55 1169.51,-23.42 861.22,-13.94 737.94,-11.37"/>
<polygon fill="#63b8ff" stroke="#63b8ff" points="737.71,-7.86 727.64,-11.16 737.57,-14.86 737.71,-7.86"/>
</a>
</g>
</g>
<!-- Node24 -->
<g id="Node000024" class="node">
<title>Node24</title>
<g id="a_Node000024"><a xlink:title=" ">
<polygon fill="#e0e0e0" stroke="#999999" points="1594.25,-134.5 1536.25,-134.5 1536.25,-115.5 1594.25,-115.5 1594.25,-134.5"/>
<text text-anchor="middle" x="1565.25" y="-122.5" font-family="Helvetica,sans-Serif" font-size="10.00">memory</text>
</a>
</g>
</g>
<!-- Node23&#45;&gt;Node24 -->
<g id="edge24_Node000023_Node000024" class="edge">
<title>Node23&#45;&gt;Node24</title>
<g id="a_edge24_Node000023_Node000024"><a xlink:title=" ">
<path fill="none" stroke="#63b8ff" d="M1186.53,-177.26C1189.48,-176.82 1192.41,-176.39 1195.25,-176 1342.29,-155.79 1382.76,-173.91 1527.25,-140 1529.77,-139.41 1532.35,-138.7 1534.91,-137.92"/>
<polygon fill="#63b8ff" stroke="#63b8ff" points="1536.27,-141.15 1544.63,-134.64 1534.04,-134.52 1536.27,-141.15"/>
</a>
</g>
</g>
<!-- Node25 -->
<g id="Node000025" class="node">
<title>Node25</title>
<g id="a_Node000025"><a xlink:title=" ">
<polygon fill="#e0e0e0" stroke="#999999" points="833.75,-134.5 786.75,-134.5 786.75,-115.5 833.75,-115.5 833.75,-134.5"/>
<text text-anchor="middle" x="810.25" y="-122.5" font-family="Helvetica,sans-Serif" font-size="10.00">vector</text>
</a>
</g>
</g>
<!-- Node23&#45;&gt;Node25 -->
<g id="edge25_Node000023_Node000025" class="edge">
<title>Node23&#45;&gt;Node25</title>
<g id="a_edge25_Node000023_Node000025"><a xlink:title=" ">
<path fill="none" stroke="#63b8ff" d="M1102.24,-177.42C1099.2,-176.93 1096.18,-176.45 1093.25,-176 982.33,-158.77 951.38,-170.17 843.25,-140 841.37,-139.47 839.44,-138.86 837.52,-138.2"/>
<polygon fill="#63b8ff" stroke="#63b8ff" points="838.7,-134.9 828.11,-134.56 836.18,-141.43 838.7,-134.9"/>
</a>
</g>
</g>
<!-- Node26 -->
<g id="Node000026" class="node">
<title>Node26</title>
<g id="a_Node000026"><a xlink:title=" ">
<polygon fill="#e0e0e0" stroke="#999999" points="932.25,-134.5 852.25,-134.5 852.25,-115.5 932.25,-115.5 932.25,-134.5"/>
<text text-anchor="middle" x="892.25" y="-122.5" font-family="Helvetica,sans-Serif" font-size="10.00">QTextStream</text>
</a>
</g>
</g>
<!-- Node23&#45;&gt;Node26 -->
<g id="edge26_Node000023_Node000026" class="edge">
<title>Node23&#45;&gt;Node26</title>
<g id="a_edge26_Node000023_Node000026"><a xlink:title=" ">
<path fill="none" stroke="#63b8ff" d="M1102.31,-175.98C1061.34,-167.48 997.3,-153.76 942.25,-140 938.83,-139.14 935.28,-138.22 931.72,-137.27"/>
<polygon fill="#63b8ff" stroke="#63b8ff" points="932.36,-133.82 921.79,-134.57 930.52,-140.57 932.36,-133.82"/>
</a>
</g>
</g>
<!-- Node27 -->
<g id="Node000027" class="node">
<title>Node27</title>
<g id="a_Node000027"><a xlink:title=" ">
<polygon fill="#e0e0e0" stroke="#999999" points="1051.75,-134.5 950.75,-134.5 950.75,-115.5 1051.75,-115.5 1051.75,-134.5"/>
<text text-anchor="middle" x="1001.25" y="-122.5" font-family="Helvetica,sans-Serif" font-size="10.00">QCoreApplication</text>
</a>
</g>
</g>
<!-- Node23&#45;&gt;Node27 -->
<g id="edge27_Node000023_Node000027" class="edge">
<title>Node23&#45;&gt;Node27</title>
<g id="a_edge27_Node000023_Node000027"><a xlink:title=" ">
<path fill="none" stroke="#63b8ff" d="M1123.46,-175.99C1099.31,-166.12 1059.27,-149.73 1031.64,-138.43"/>
<polygon fill="#63b8ff" stroke="#63b8ff" points="1032.65,-135.06 1022.07,-134.52 1030,-141.54 1032.65,-135.06"/>
</a>
</g>
</g>
<!-- Node28 -->
<g id="Node000028" class="node">
<title>Node28</title>
<g id="a_Node000028"><a xlink:title=" ">
<polygon fill="#e0e0e0" stroke="#999999" points="1347.75,-134.5 1222.75,-134.5 1222.75,-115.5 1347.75,-115.5 1347.75,-134.5"/>
<text text-anchor="middle" x="1285.25" y="-122.5" font-family="Helvetica,sans-Serif" font-size="10.00">QCommandLineParser</text>
</a>
</g>
</g>
<!-- Node23&#45;&gt;Node28 -->
<g id="edge28_Node000023_Node000028" class="edge">
<title>Node23&#45;&gt;Node28</title>
<g id="a_edge28_Node000023_Node000028"><a xlink:title=" ">
<path fill="none" stroke="#63b8ff" d="M1164.76,-175.99C1188.57,-166.12 1228.05,-149.73 1255.29,-138.43"/>
<polygon fill="#63b8ff" stroke="#63b8ff" points="1256.83,-141.58 1264.73,-134.52 1254.15,-135.12 1256.83,-141.58"/>
</a>
</g>
</g>
<!-- Node29 -->
<g id="Node000029" class="node">
<title>Node29</title>
<g id="a_Node000029"><a xlink:href="../../d3/dd8/layoutsettings__dialog_8h.html" target="_top" xlink:title=" ">
<polygon fill="white" stroke="#666666" points="1204.25,-140 1070.25,-140 1070.25,-110 1204.25,-110 1204.25,-140"/>
<text text-anchor="start" x="1078.25" y="-128" font-family="Helvetica,sans-Serif" font-size="10.00">../dialogs/layoutsettings</text>
<text text-anchor="middle" x="1137.25" y="-117" font-family="Helvetica,sans-Serif" font-size="10.00">_dialog.h</text>
</a>
</g>
</g>
<!-- Node23&#45;&gt;Node29 -->
<g id="edge29_Node000023_Node000029" class="edge">
<title>Node23&#45;&gt;Node29</title>
<g id="a_edge29_Node000023_Node000029"><a xlink:title=" ">
<path fill="none" stroke="#63b8ff" d="M1143.22,-175.87C1142.41,-169.11 1141.25,-159.35 1140.16,-150.26"/>
<polygon fill="#63b8ff" stroke="#63b8ff" points="1143.61,-149.63 1138.94,-140.11 1136.66,-150.46 1143.61,-149.63"/>
</a>
</g>
</g>
<!-- Node34 -->
<g id="Node000034" class="node">
<title>Node34</title>
<g id="a_Node000034"><a xlink:title=" ">
<polygon fill="#e0e0e0" stroke="#999999" points="1517.75,-134.5 1404.75,-134.5 1404.75,-115.5 1517.75,-115.5 1517.75,-134.5"/>
<text text-anchor="middle" x="1461.25" y="-122.5" font-family="Helvetica,sans-Serif" font-size="10.00">../vmisc/vsysexits.h</text>
</a>
</g>
</g>
<!-- Node23&#45;&gt;Node34 -->
<g id="edge40_Node000023_Node000034" class="edge">
<title>Node23&#45;&gt;Node34</title>
<g id="a_edge40_Node000023_Node000034"><a xlink:title=" ">
<path fill="none" stroke="#63b8ff" d="M1186.52,-177.06C1235.55,-168.39 1318.82,-153.5 1390.25,-140 1396.11,-138.89 1402.23,-137.72 1408.31,-136.53"/>
<polygon fill="#63b8ff" stroke="#63b8ff" points="1409.33,-139.9 1418.47,-134.55 1407.99,-133.03 1409.33,-139.9"/>
</a>
</g>
</g>
<!-- Node29&#45;&gt;Node14 -->
<g id="edge36_Node000029_Node000014" class="edge">
<title>Node29&#45;&gt;Node14</title>
<g id="a_edge36_Node000029_Node000014"><a xlink:title=" ">
<path fill="none" stroke="#63b8ff" d="M1070.14,-111.53C1067.14,-111 1064.16,-110.49 1061.25,-110 839.8,-72.48 574.46,-33.22 466.99,-17.56"/>
<polygon fill="#63b8ff" stroke="#63b8ff" points="467.49,-14.09 457.09,-16.11 466.49,-21.02 467.49,-14.09"/>
</a>
</g>
</g>
<!-- Node29&#45;&gt;Node17 -->
<g id="edge35_Node000029_Node000017" class="edge">
<title>Node29&#45;&gt;Node17</title>
<g id="a_edge35_Node000029_Node000017"><a xlink:title=" ">
<path fill="none" stroke="#63b8ff" d="M1081.5,-109.97C990.67,-87.11 812.61,-42.3 730.12,-21.54"/>
<polygon fill="#63b8ff" stroke="#63b8ff" points="730.87,-18.12 720.32,-19.07 729.16,-24.91 730.87,-18.12"/>
</a>
</g>
</g>
<!-- Node30 -->
<g id="Node000030" class="node">
<title>Node30</title>
<g id="a_Node000030"><a xlink:href="../../d7/d9e/abstractlayout__dialog_8h.html" target="_top" xlink:title=" ">
<polygon fill="white" stroke="#666666" points="483.75,-74 352.75,-74 352.75,-55 483.75,-55 483.75,-74"/>
<text text-anchor="middle" x="418.25" y="-62" font-family="Helvetica,sans-Serif" font-size="10.00">abstractlayout_dialog.h</text>
</a>
</g>
</g>
<!-- Node29&#45;&gt;Node30 -->
<g id="edge30_Node000029_Node000030" class="edge">
<title>Node29&#45;&gt;Node30</title>
<g id="a_edge30_Node000029_Node000030"><a xlink:title=" ">
<path fill="none" stroke="#63b8ff" d="M1070.18,-111.22C1067.17,-110.78 1064.18,-110.37 1061.25,-110 953.52,-96.39 639.53,-77.84 493.98,-69.66"/>
<polygon fill="#63b8ff" stroke="#63b8ff" points="493.97,-66.16 483.79,-69.09 493.58,-73.14 493.97,-66.16"/>
</a>
</g>
</g>
<!-- Node31 -->
<g id="Node000031" class="node">
<title>Node31</title>
<g id="a_Node000031"><a xlink:title=" ">
<polygon fill="#e0e0e0" stroke="#999999" points="1079.25,-74 975.25,-74 975.25,-55 1079.25,-55 1079.25,-74"/>
<text text-anchor="middle" x="1027.25" y="-62" font-family="Helvetica,sans-Serif" font-size="10.00">../vlayout/vbank.h</text>
</a>
</g>
</g>
<!-- Node29&#45;&gt;Node31 -->
<g id="edge34_Node000029_Node000031" class="edge">
<title>Node29&#45;&gt;Node31</title>
<g id="a_edge34_Node000029_Node000031"><a xlink:title=" ">
<path fill="none" stroke="#63b8ff" d="M1110.91,-109.99C1093.21,-100.58 1070.02,-88.24 1052.55,-78.95"/>
<polygon fill="#63b8ff" stroke="#63b8ff" points="1053.97,-75.74 1043.5,-74.14 1050.68,-81.92 1053.97,-75.74"/>
</a>
</g>
</g>
<!-- Node32 -->
<g id="Node000032" class="node">
<title>Node32</title>
<g id="a_Node000032"><a xlink:title=" ">
<polygon fill="#e0e0e0" stroke="#999999" points="1176.75,-74 1097.75,-74 1097.75,-55 1176.75,-55 1176.75,-74"/>
<text text-anchor="middle" x="1137.25" y="-62" font-family="Helvetica,sans-Serif" font-size="10.00">QCloseEvent</text>
</a>
</g>
</g>
<!-- Node29&#45;&gt;Node32 -->
<g id="edge37_Node000029_Node000032" class="edge">
<title>Node29&#45;&gt;Node32</title>
<g id="a_edge37_Node000029_Node000032"><a xlink:title=" ">
<path fill="none" stroke="#63b8ff" d="M1137.25,-109.84C1137.25,-102.21 1137.25,-92.7 1137.25,-84.45"/>
<polygon fill="#63b8ff" stroke="#63b8ff" points="1140.75,-84.27 1137.25,-74.27 1133.75,-84.27 1140.75,-84.27"/>
</a>
</g>
</g>
<!-- Node33 -->
<g id="Node000033" class="node">
<title>Node33</title>
<g id="a_Node000033"><a xlink:title=" ">
<polygon fill="#e0e0e0" stroke="#999999" points="1257.75,-74 1194.75,-74 1194.75,-55 1257.75,-55 1257.75,-74"/>
<text text-anchor="middle" x="1226.25" y="-62" font-family="Helvetica,sans-Serif" font-size="10.00">QMargins</text>
</a>
</g>
</g>
<!-- Node29&#45;&gt;Node33 -->
<g id="edge38_Node000029_Node000033" class="edge">
<title>Node29&#45;&gt;Node33</title>
<g id="a_edge38_Node000029_Node000033"><a xlink:title=" ">
<path fill="none" stroke="#63b8ff" d="M1158.8,-109.84C1172.73,-100.68 1190.78,-88.82 1204.71,-79.66"/>
<polygon fill="#63b8ff" stroke="#63b8ff" points="1206.74,-82.51 1213.18,-74.09 1202.9,-76.66 1206.74,-82.51"/>
</a>
</g>
</g>
<!-- Node30&#45;&gt;Node3 -->
<g id="edge33_Node000030_Node000003" class="edge">
<title>Node30&#45;&gt;Node3</title>
<g id="a_edge33_Node000030_Node000003"><a xlink:title=" ">
<path fill="none" stroke="#63b8ff" d="M391.26,-54.98C363.06,-46.09 318.62,-32.07 287.17,-22.15"/>
<polygon fill="#63b8ff" stroke="#63b8ff" points="288.05,-18.75 277.46,-19.08 285.94,-25.43 288.05,-18.75"/>
</a>
</g>
</g>
<!-- Node30&#45;&gt;Node14 -->
<g id="edge31_Node000030_Node000014" class="edge">
<title>Node30&#45;&gt;Node14</title>
<g id="a_edge31_Node000030_Node000014"><a xlink:title=" ">
<path fill="none" stroke="#63b8ff" d="M418.25,-54.75C418.25,-47.8 418.25,-37.85 418.25,-29.13"/>
<polygon fill="#63b8ff" stroke="#63b8ff" points="421.75,-29.09 418.25,-19.09 414.75,-29.09 421.75,-29.09"/>
</a>
</g>
</g>
<!-- Node30&#45;&gt;Node17 -->
<g id="edge32_Node000030_Node000017" class="edge">
<title>Node30&#45;&gt;Node17</title>
<g id="a_edge32_Node000030_Node000017"><a xlink:title=" ">
<path fill="none" stroke="#63b8ff" d="M461.31,-54.98C508.66,-45.62 584.67,-30.59 635.04,-20.63"/>
<polygon fill="#63b8ff" stroke="#63b8ff" points="635.93,-24.02 645.06,-18.65 634.57,-17.15 635.93,-24.02"/>
</a>
</g>
</g>
</g>
</svg>

<g id="navigator" transform="translate(0 0)" fill="#404254">
  <rect fill="#f2f5e9" fill-opacity="0.5" stroke="#606060" stroke-width=".5" x="0" y="0" width="60" height="60"/>
  <use id="zoomplus" xlink:href="#zoomPlus" x="17" y="9" onmousedown="handleZoom(evt,'in')"/>
  <use id="zoomminus" xlink:href="#zoomMin" x="42" y="9" onmousedown="handleZoom(evt,'out')"/>
  <use id="reset" xlink:href="#resetDef" x="30" y="36" onmousedown="handleReset()"/>
   <use id="arrowup" xlink:href="#arrowUp" x="0" y="0" onmousedown="handlePan(0,-1)"/>
  <use id="arrowright" xlink:href="#arrowRight" x="0" y="0" onmousedown="handlePan(1,0)"/>
  <use id="arrowdown" xlink:href="#arrowDown" x="0" y="0" onmousedown="handlePan(0,1)"/>
  <use id="arrowleft" xlink:href="#arrowLeft" x="0" y="0" onmousedown="handlePan(-1,0)"/>
</g>
<svg viewBox="0 0 15 15" width="100%" height="30px" preserveAspectRatio="xMaxYMin meet">
 <g id="arrow_out" transform="scale(0.3 0.3)">
  <a xlink:href="dialogaboutapp_8cpp__incl_org.svg" target="_base">
   <rect id="button" ry="5" rx="5" y="6" x="6" height="38" width="38"
        fill="#f2f5e9" fill-opacity="0.5" stroke="#606060" stroke-width="1.0"/>
   <path id="arrow"
     d="M 11.500037,31.436501 C 11.940474,20.09759 22.043105,11.32322 32.158766,21.979434 L 37.068811,17.246167 C 37.068811,17.246167 37.088388,32 37.088388,32 L 22.160133,31.978069 C 22.160133,31.978069 26.997745,27.140456 26.997745,27.140456 C 18.528582,18.264221 13.291696,25.230495 11.500037,31.436501 z"
     style="fill:#404040;"/>
  </a>
 </g>
</svg>

<style type='text/css'>
<![CDATA[
[data-mouse-over-selected='false'] { opacity: 0.7; }
[data-mouse-over-selected='true']  { opacity: 1.0; }
]]>
</style>
<script type="application/ecmascript"><![CDATA[
document.addEventListener('DOMContentLoaded', (event) => {
  highlightEdges();
  highlightAdjacentNodes();
});
]]></script>
</svg>
