<?xml version="1.0" encoding="UTF-8" standalone="no"?>
<!DOCTYPE svg PUBLIC "-//W3C//DTD SVG 1.1//EN"
 "http://www.w3.org/Graphics/SVG/1.1/DTD/svg11.dtd">
<!-- Generated by graphviz version 2.43.0 (0)
 -->
<!-- Title: src/app/seamly2d/options.h Pages: 1 -->
<!--zoomable 218 -->
<svg id="main" version="1.1" xmlns="http://www.w3.org/2000/svg" xmlns:xlink="http://www.w3.org/1999/xlink" xml:space="preserve" onload="init(evt)">
<style type="text/css"><![CDATA[
.edge:hover path { stroke: red; }
.edge:hover polygon { stroke: red; fill: red; }
]]></style>
<script type="text/javascript"><![CDATA[
var edges = document.getElementsByTagName('g');
if (edges && edges.length) {
  for (var i=0;i<edges.length;i++) {
    if (edges[i].id.substr(0,4)=='edge') {
      edges[i].setAttribute('class','edge');
    }
  }
}
]]></script>
        <defs>
                <circle id="rim" cx="0" cy="0" r="7"/>
                <circle id="rim2" cx="0" cy="0" r="3.5"/>
                <g id="zoomPlus">
                        <use xlink:href="#rim" fill="#404040">
                                <set attributeName="fill" to="#808080" begin="zoomplus.mouseover" end="zoomplus.mouseout"/>
                        </use>
                        <path d="M-4,0h8M0,-4v8" fill="none" stroke="white" stroke-width="1.5" pointer-events="none"/>
                </g>
                <g id="zoomMin">
                        <use xlink:href="#rim" fill="#404040">
                                <set attributeName="fill" to="#808080" begin="zoomminus.mouseover" end="zoomminus.mouseout"/>
                        </use>
                        <path d="M-4,0h8" fill="none" stroke="white" stroke-width="1.5" pointer-events="none"/>
                </g>
                <g id="dirArrow">
                        <path fill="none" stroke="white" stroke-width="1.5" d="M0,-3.0v7 M-2.5,-0.5L0,-3.0L2.5,-0.5"/>
                </g>
               <g id="resetDef">
                       <use xlink:href="#rim2" fill="#404040">
                               <set attributeName="fill" to="#808080" begin="reset.mouseover" end="reset.mouseout"/>
                       </use>
               </g>
        </defs>

<script type="text/javascript">
var viewWidth = 4193;
var viewHeight = 218;
var sectionId = 'dynsection-1';
</script>
<script xlink:href="../../svgpan.js"/>
<svg id="graph" class="graph">
<g id="viewport">
<title>src/app/seamly2d/options.h</title>
<polygon fill="white" stroke="transparent" points="-4,4 -4,-214 4188.5,-214 4188.5,4 -4,4"/>
<!-- Node1 -->
<g id="node1" class="node">
<title>Node1</title>
<g id="a_node1"><a xlink:title=" ">
<polygon fill="#bfbfbf" stroke="black" points="1508,-190.5 1508,-209.5 1659,-209.5 1659,-190.5 1508,-190.5"/>
<text text-anchor="middle" x="1583.5" y="-197.5" font-family="Helvetica,sans-Serif" font-size="10.00">src/app/seamly2d/options.h</text>
</a>
</g>
</g>
<!-- Node2 -->
<g id="node2" class="node">
<title>Node2</title>
<g id="a_node2"><a xlink:href="../../d7/d61/application__2d_8h.html" target="_top" xlink:title=" ">
<polygon fill="white" stroke="black" points="1871,-123.5 1871,-153.5 1998,-153.5 1998,-123.5 1871,-123.5"/>
<text text-anchor="start" x="1879" y="-141.5" font-family="Helvetica,sans-Serif" font-size="10.00">src/app/seamly2d/core</text>
<text text-anchor="middle" x="1934.5" y="-130.5" font-family="Helvetica,sans-Serif" font-size="10.00">/application_2d.h</text>
</a>
</g>
</g>
<!-- Node1&#45;&gt;Node2 -->
<g id="edge1" class="edge">
<title>Node1&#45;&gt;Node2</title>
<path fill="none" stroke="midnightblue" d="M1644.03,-188.74C1707.39,-178 1806.45,-161.21 1870.93,-150.28"/>
<polygon fill="midnightblue" stroke="midnightblue" points="1643.06,-185.35 1633.79,-190.48 1644.23,-192.25 1643.06,-185.35"/>
</g>
<!-- Node5 -->
<g id="node5" class="node">
<title>Node5</title>
<g id="a_node5"><a xlink:href="../../d7/dfa/calculator__dialog_8cpp.html" target="_top" xlink:title=" ">
<polygon fill="white" stroke="black" points="0,-56.5 0,-86.5 141,-86.5 141,-56.5 0,-56.5"/>
<text text-anchor="start" x="8" y="-74.5" font-family="Helvetica,sans-Serif" font-size="10.00">src/app/seamly2d/dialogs</text>
<text text-anchor="middle" x="70.5" y="-63.5" font-family="Helvetica,sans-Serif" font-size="10.00">/calculator_dialog.cpp</text>
</a>
</g>
</g>
<!-- Node1&#45;&gt;Node5 -->
<g id="edge25" class="edge">
<title>Node1&#45;&gt;Node5</title>
<path fill="none" stroke="midnightblue" d="M1497.55,-199.11C1317.83,-198.5 889.39,-192.69 532.5,-154 389.18,-138.46 223.19,-105.45 134.39,-86.55"/>
<polygon fill="midnightblue" stroke="midnightblue" points="1497.72,-202.61 1507.73,-199.14 1497.74,-195.61 1497.72,-202.61"/>
</g>
<!-- Node8 -->
<g id="node8" class="node">
<title>Node8</title>
<g id="a_node8"><a xlink:href="../../dc/d20/preferencespathpage_8cpp.html" target="_top" xlink:title=" ">
<polygon fill="white" stroke="black" points="159,-56.5 159,-86.5 364,-86.5 364,-56.5 159,-56.5"/>
<text text-anchor="start" x="167" y="-74.5" font-family="Helvetica,sans-Serif" font-size="10.00">src/app/seamly2d/dialogs</text>
<text text-anchor="middle" x="261.5" y="-63.5" font-family="Helvetica,sans-Serif" font-size="10.00">/configpages/preferencespathpage.cpp</text>
</a>
</g>
</g>
<!-- Node1&#45;&gt;Node8 -->
<g id="edge26" class="edge">
<title>Node1&#45;&gt;Node8</title>
<path fill="none" stroke="midnightblue" d="M1497.7,-197.49C1346.51,-194.13 1022.96,-183.82 751.5,-154 600.63,-137.42 425.6,-105.12 330.95,-86.55"/>
<polygon fill="midnightblue" stroke="midnightblue" points="1497.77,-200.99 1507.84,-197.71 1497.92,-193.99 1497.77,-200.99"/>
</g>
<!-- Node11 -->
<g id="node11" class="node">
<title>Node11</title>
<g id="a_node11"><a xlink:href="../../dd/d64/dialogaboutapp_8cpp.html" target="_top" xlink:title=" ">
<polygon fill="white" stroke="black" points="382,-56.5 382,-86.5 523,-86.5 523,-56.5 382,-56.5"/>
<text text-anchor="start" x="390" y="-74.5" font-family="Helvetica,sans-Serif" font-size="10.00">src/app/seamly2d/dialogs</text>
<text text-anchor="middle" x="452.5" y="-63.5" font-family="Helvetica,sans-Serif" font-size="10.00">/dialogaboutapp.cpp</text>
</a>
</g>
</g>
<!-- Node1&#45;&gt;Node11 -->
<g id="edge27" class="edge">
<title>Node1&#45;&gt;Node11</title>
<path fill="none" stroke="midnightblue" d="M1497.51,-195.09C1376.82,-189.09 1150.43,-175.93 958.5,-154 863.07,-143.1 626.19,-103.12 531.5,-87 528.75,-86.53 525.95,-86.05 523.12,-85.56"/>
<polygon fill="midnightblue" stroke="midnightblue" points="1497.63,-198.6 1507.79,-195.6 1497.97,-191.61 1497.63,-198.6"/>
</g>
<!-- Node12 -->
<g id="node12" class="node">
<title>Node12</title>
<g id="a_node12"><a xlink:href="../../d6/d89/dialoglayoutprogress_8cpp.html" target="_top" xlink:title=" ">
<polygon fill="white" stroke="black" points="541,-56.5 541,-86.5 684,-86.5 684,-56.5 541,-56.5"/>
<text text-anchor="start" x="549" y="-74.5" font-family="Helvetica,sans-Serif" font-size="10.00">src/app/seamly2d/dialogs</text>
<text text-anchor="middle" x="612.5" y="-63.5" font-family="Helvetica,sans-Serif" font-size="10.00">/dialoglayoutprogress.cpp</text>
</a>
</g>
</g>
<!-- Node1&#45;&gt;Node12 -->
<g id="edge28" class="edge">
<title>Node1&#45;&gt;Node12</title>
<path fill="none" stroke="midnightblue" d="M1497.52,-189.68C1338.45,-172.11 987.64,-131.8 693.5,-87 690.39,-86.53 687.22,-86.03 684.02,-85.51"/>
<polygon fill="midnightblue" stroke="midnightblue" points="1497.39,-193.19 1507.71,-190.81 1498.16,-186.23 1497.39,-193.19"/>
</g>
<!-- Node16 -->
<g id="node16" class="node">
<title>Node16</title>
<g id="a_node16"><a xlink:href="../../dd/d54/export__layout__dialog_8cpp.html" target="_top" xlink:title=" ">
<polygon fill="white" stroke="black" points="3686,-56.5 3686,-86.5 3829,-86.5 3829,-56.5 3686,-56.5"/>
<text text-anchor="start" x="3694" y="-74.5" font-family="Helvetica,sans-Serif" font-size="10.00">src/app/seamly2d/dialogs</text>
<text text-anchor="middle" x="3757.5" y="-63.5" font-family="Helvetica,sans-Serif" font-size="10.00">/export_layout_dialog.cpp</text>
</a>
</g>
</g>
<!-- Node1&#45;&gt;Node16 -->
<g id="edge33" class="edge">
<title>Node1&#45;&gt;Node16</title>
<path fill="none" stroke="midnightblue" d="M1669.41,-197.88C1954.89,-193.42 2897.64,-172.71 3671.5,-87 3676.17,-86.48 3680.96,-85.88 3685.79,-85.22"/>
<polygon fill="midnightblue" stroke="midnightblue" points="1669.07,-194.39 1659.13,-198.04 1669.18,-201.38 1669.07,-194.39"/>
</g>
<!-- Node25 -->
<g id="node25" class="node">
<title>Node25</title>
<g id="a_node25"><a xlink:href="../../d8/dd9/mainwindow_8cpp.html" target="_top" xlink:title=" ">
<polygon fill="white" stroke="black" points="3996.5,-0.5 3996.5,-19.5 4184.5,-19.5 4184.5,-0.5 3996.5,-0.5"/>
<text text-anchor="middle" x="4090.5" y="-7.5" font-family="Helvetica,sans-Serif" font-size="10.00">src/app/seamly2d/mainwindow.cpp</text>
</a>
</g>
</g>
<!-- Node1&#45;&gt;Node25 -->
<g id="edge34" class="edge">
<title>Node1&#45;&gt;Node25</title>
<path fill="none" stroke="midnightblue" d="M1669.22,-199.26C2072.65,-200.26 3772.47,-201.56 4004.5,-154 4082.04,-138.11 4125.3,-152.66 4169.5,-87 4177.19,-75.57 4176.42,-67.91 4169.5,-56 4158.95,-37.85 4138.04,-26.41 4120.38,-19.61"/>
<polygon fill="midnightblue" stroke="midnightblue" points="1669.08,-195.76 1659.08,-199.24 1669.07,-202.76 1669.08,-195.76"/>
</g>
<!-- Node26 -->
<g id="node26" class="node">
<title>Node26</title>
<g id="a_node26"><a xlink:href="../../d5/d4e/dialogpatternproperties_8h.html" target="_top" xlink:title=" ">
<polygon fill="white" stroke="black" points="3853,-123.5 3853,-153.5 3996,-153.5 3996,-123.5 3853,-123.5"/>
<text text-anchor="start" x="3861" y="-141.5" font-family="Helvetica,sans-Serif" font-size="10.00">src/app/seamly2d/dialogs</text>
<text text-anchor="middle" x="3924.5" y="-130.5" font-family="Helvetica,sans-Serif" font-size="10.00">/dialogpatternproperties.h</text>
</a>
</g>
</g>
<!-- Node1&#45;&gt;Node26 -->
<g id="edge29" class="edge">
<title>Node1&#45;&gt;Node26</title>
<path fill="none" stroke="midnightblue" d="M1669.22,-196.82C2040.93,-187.37 3510.08,-150.03 3852.77,-141.32"/>
<polygon fill="midnightblue" stroke="midnightblue" points="1668.97,-193.33 1659.07,-197.08 1669.15,-200.32 1668.97,-193.33"/>
</g>
<!-- Node3 -->
<g id="node3" class="node">
<title>Node3</title>
<g id="a_node3"><a xlink:href="../../df/d3e/application__2d_8cpp.html" target="_top" xlink:title=" ">
<polygon fill="white" stroke="black" points="2646,-56.5 2646,-86.5 2773,-86.5 2773,-56.5 2646,-56.5"/>
<text text-anchor="start" x="2654" y="-74.5" font-family="Helvetica,sans-Serif" font-size="10.00">src/app/seamly2d/core</text>
<text text-anchor="middle" x="2709.5" y="-63.5" font-family="Helvetica,sans-Serif" font-size="10.00">/application_2d.cpp</text>
</a>
</g>
</g>
<!-- Node2&#45;&gt;Node3 -->
<g id="edge2" class="edge">
<title>Node2&#45;&gt;Node3</title>
<path fill="none" stroke="midnightblue" d="M2008.27,-135.21C2136.52,-130.55 2408.65,-117.7 2636.5,-87 2639.57,-86.59 2642.71,-86.12 2645.88,-85.62"/>
<polygon fill="midnightblue" stroke="midnightblue" points="2008.04,-131.71 1998.18,-135.57 2008.29,-138.71 2008.04,-131.71"/>
</g>
<!-- Node4 -->
<g id="node4" class="node">
<title>Node4</title>
<g id="a_node4"><a xlink:href="../../dd/db4/abstractlayout__dialog_8cpp.html" target="_top" xlink:title=" ">
<polygon fill="white" stroke="black" points="2791.5,-56.5 2791.5,-86.5 2937.5,-86.5 2937.5,-56.5 2791.5,-56.5"/>
<text text-anchor="start" x="2799.5" y="-74.5" font-family="Helvetica,sans-Serif" font-size="10.00">src/app/seamly2d/dialogs</text>
<text text-anchor="middle" x="2864.5" y="-63.5" font-family="Helvetica,sans-Serif" font-size="10.00">/abstractlayout_dialog.cpp</text>
</a>
</g>
</g>
<!-- Node2&#45;&gt;Node4 -->
<g id="edge3" class="edge">
<title>Node2&#45;&gt;Node4</title>
<path fill="none" stroke="midnightblue" d="M2008.48,-135.91C2155.99,-132.11 2496.98,-120.23 2781.5,-87 2784.7,-86.63 2787.96,-86.21 2791.25,-85.76"/>
<polygon fill="midnightblue" stroke="midnightblue" points="2008.11,-132.42 1998.2,-136.17 2008.29,-139.41 2008.11,-132.42"/>
</g>
<!-- Node2&#45;&gt;Node5 -->
<g id="edge4" class="edge">
<title>Node2&#45;&gt;Node5</title>
<path fill="none" stroke="midnightblue" d="M1860.69,-136.92C1568.14,-134.39 489.43,-122.79 149.5,-87 146.73,-86.71 143.9,-86.37 141.06,-86"/>
<polygon fill="midnightblue" stroke="midnightblue" points="1860.74,-140.42 1870.77,-137.01 1860.8,-133.42 1860.74,-140.42"/>
</g>
<!-- Node6 -->
<g id="node6" class="node">
<title>Node6</title>
<g id="a_node6"><a xlink:href="../../d2/d2d/preferencesconfigurationpage_8cpp.html" target="_top" xlink:title=" ">
<polygon fill="white" stroke="black" points="2956,-56.5 2956,-86.5 3203,-86.5 3203,-56.5 2956,-56.5"/>
<text text-anchor="start" x="2964" y="-74.5" font-family="Helvetica,sans-Serif" font-size="10.00">src/app/seamly2d/dialogs</text>
<text text-anchor="middle" x="3079.5" y="-63.5" font-family="Helvetica,sans-Serif" font-size="10.00">/configpages/preferencesconfigurationpage.cpp</text>
</a>
</g>
</g>
<!-- Node2&#45;&gt;Node6 -->
<g id="edge5" class="edge">
<title>Node2&#45;&gt;Node6</title>
<path fill="none" stroke="midnightblue" d="M2008.4,-135.3C2175.64,-130 2595.88,-114.84 2946.5,-87 2949.63,-86.75 2952.79,-86.49 2955.99,-86.22"/>
<polygon fill="midnightblue" stroke="midnightblue" points="2008.11,-131.81 1998.23,-135.62 2008.33,-138.8 2008.11,-131.81"/>
</g>
<!-- Node7 -->
<g id="node7" class="node">
<title>Node7</title>
<g id="a_node7"><a xlink:href="../../d9/d70/preferencesgraphicsviewpage_8cpp.html" target="_top" xlink:title=" ">
<polygon fill="white" stroke="black" points="3221.5,-56.5 3221.5,-86.5 3469.5,-86.5 3469.5,-56.5 3221.5,-56.5"/>
<text text-anchor="start" x="3229.5" y="-74.5" font-family="Helvetica,sans-Serif" font-size="10.00">src/app/seamly2d/dialogs</text>
<text text-anchor="middle" x="3345.5" y="-63.5" font-family="Helvetica,sans-Serif" font-size="10.00">/configpages/preferencesgraphicsviewpage.cpp</text>
</a>
</g>
</g>
<!-- Node2&#45;&gt;Node7 -->
<g id="edge6" class="edge">
<title>Node2&#45;&gt;Node7</title>
<path fill="none" stroke="midnightblue" d="M2008.21,-136.34C2204.26,-132.89 2754.72,-120.71 3211.5,-87 3214.77,-86.76 3218.08,-86.5 3221.42,-86.23"/>
<polygon fill="midnightblue" stroke="midnightblue" points="2007.97,-132.85 1998.03,-136.52 2008.09,-139.85 2007.97,-132.85"/>
</g>
<!-- Node2&#45;&gt;Node8 -->
<g id="edge7" class="edge">
<title>Node2&#45;&gt;Node8</title>
<path fill="none" stroke="midnightblue" d="M1860.44,-137.67C1636.01,-137.62 943.84,-133.44 372.5,-87 369.79,-86.78 367.04,-86.54 364.27,-86.28"/>
<polygon fill="midnightblue" stroke="midnightblue" points="1860.77,-141.17 1870.77,-137.67 1860.77,-134.17 1860.77,-141.17"/>
</g>
<!-- Node9 -->
<g id="node9" class="node">
<title>Node9</title>
<g id="a_node9"><a xlink:href="../../dd/dc2/decimalchart__dialog_8cpp.html" target="_top" xlink:title=" ">
<polygon fill="white" stroke="black" points="3488,-56.5 3488,-86.5 3629,-86.5 3629,-56.5 3488,-56.5"/>
<text text-anchor="start" x="3496" y="-74.5" font-family="Helvetica,sans-Serif" font-size="10.00">src/app/seamly2d/dialogs</text>
<text text-anchor="middle" x="3558.5" y="-63.5" font-family="Helvetica,sans-Serif" font-size="10.00">/decimalchart_dialog.cpp</text>
</a>
</g>
</g>
<!-- Node2&#45;&gt;Node9 -->
<g id="edge8" class="edge">
<title>Node2&#45;&gt;Node9</title>
<path fill="none" stroke="midnightblue" d="M2008.74,-136.52C2275.97,-132.75 3188.35,-117.87 3478.5,-87 3481.59,-86.67 3484.74,-86.29 3487.91,-85.87"/>
<polygon fill="midnightblue" stroke="midnightblue" points="2008.33,-133.02 1998.38,-136.66 2008.42,-140.02 2008.33,-133.02"/>
</g>
<!-- Node10 -->
<g id="node10" class="node">
<title>Node10</title>
<g id="a_node10"><a xlink:href="../../dc/d63/preferencespatternpage_8cpp.html" target="_top" xlink:title=" ">
<polygon fill="white" stroke="black" points="702.5,-56.5 702.5,-86.5 920.5,-86.5 920.5,-56.5 702.5,-56.5"/>
<text text-anchor="start" x="710.5" y="-74.5" font-family="Helvetica,sans-Serif" font-size="10.00">src/app/seamly2d/dialogs</text>
<text text-anchor="middle" x="811.5" y="-63.5" font-family="Helvetica,sans-Serif" font-size="10.00">/configpages/preferencespatternpage.cpp</text>
</a>
</g>
</g>
<!-- Node2&#45;&gt;Node10 -->
<g id="edge9" class="edge">
<title>Node2&#45;&gt;Node10</title>
<path fill="none" stroke="midnightblue" d="M1860.78,-135.62C1694.43,-130.96 1277.28,-117.07 929.5,-87 926.62,-86.75 923.7,-86.49 920.76,-86.21"/>
<polygon fill="midnightblue" stroke="midnightblue" points="1860.8,-139.12 1870.9,-135.9 1861,-132.12 1860.8,-139.12"/>
</g>
<!-- Node2&#45;&gt;Node11 -->
<g id="edge10" class="edge">
<title>Node2&#45;&gt;Node11</title>
<path fill="none" stroke="midnightblue" d="M1860.77,-136.26C1610.27,-131.84 792.89,-115.54 531.5,-87 528.73,-86.7 525.91,-86.35 523.06,-85.98"/>
<polygon fill="midnightblue" stroke="midnightblue" points="1860.8,-139.77 1870.86,-136.44 1860.93,-132.77 1860.8,-139.77"/>
</g>
<!-- Node2&#45;&gt;Node12 -->
<g id="edge11" class="edge">
<title>Node2&#45;&gt;Node12</title>
<path fill="none" stroke="midnightblue" d="M1860.71,-138C1668.08,-138.55 1134.45,-135.21 693.5,-87 690.52,-86.67 687.48,-86.3 684.42,-85.9"/>
<polygon fill="midnightblue" stroke="midnightblue" points="1861,-141.5 1870.99,-137.97 1860.98,-134.5 1861,-141.5"/>
</g>
<!-- Node13 -->
<g id="node13" class="node">
<title>Node13</title>
<g id="a_node13"><a xlink:href="../../d5/d18/dialogpatternproperties_8cpp.html" target="_top" xlink:title=" ">
<polygon fill="white" stroke="black" points="3847,-56.5 3847,-86.5 4002,-86.5 4002,-56.5 3847,-56.5"/>
<text text-anchor="start" x="3855" y="-74.5" font-family="Helvetica,sans-Serif" font-size="10.00">src/app/seamly2d/dialogs</text>
<text text-anchor="middle" x="3924.5" y="-63.5" font-family="Helvetica,sans-Serif" font-size="10.00">/dialogpatternproperties.cpp</text>
</a>
</g>
</g>
<!-- Node2&#45;&gt;Node13 -->
<g id="edge12" class="edge">
<title>Node2&#45;&gt;Node13</title>
<path fill="none" stroke="midnightblue" d="M2008.06,-136.91C2312.23,-134.27 3472.77,-122.06 3837.5,-87 3840.55,-86.71 3843.65,-86.37 3846.78,-86"/>
<polygon fill="midnightblue" stroke="midnightblue" points="2008,-133.41 1998.03,-137 2008.06,-140.41 2008,-133.41"/>
</g>
<!-- Node14 -->
<g id="node14" class="node">
<title>Node14</title>
<g id="a_node14"><a xlink:href="../../d2/d00/vtooloptionspropertybrowser_8cpp.html" target="_top" xlink:title=" ">
<polygon fill="white" stroke="black" points="938.5,-56.5 938.5,-86.5 1118.5,-86.5 1118.5,-56.5 938.5,-56.5"/>
<text text-anchor="start" x="946.5" y="-74.5" font-family="Helvetica,sans-Serif" font-size="10.00">src/app/seamly2d/core</text>
<text text-anchor="middle" x="1028.5" y="-63.5" font-family="Helvetica,sans-Serif" font-size="10.00">/vtooloptionspropertybrowser.cpp</text>
</a>
</g>
</g>
<!-- Node2&#45;&gt;Node14 -->
<g id="edge13" class="edge">
<title>Node2&#45;&gt;Node14</title>
<path fill="none" stroke="midnightblue" d="M1860.45,-134.92C1718.14,-129.51 1396.69,-115.09 1127.5,-87 1124.56,-86.69 1121.58,-86.36 1118.57,-86.02"/>
<polygon fill="midnightblue" stroke="midnightblue" points="1860.67,-138.43 1870.79,-135.31 1860.93,-131.44 1860.67,-138.43"/>
</g>
<!-- Node15 -->
<g id="node15" class="node">
<title>Node15</title>
<g id="a_node15"><a xlink:href="../../d5/dc5/dialogpreferences_8cpp.html" target="_top" xlink:title=" ">
<polygon fill="white" stroke="black" points="1137,-56.5 1137,-86.5 1278,-86.5 1278,-56.5 1137,-56.5"/>
<text text-anchor="start" x="1145" y="-74.5" font-family="Helvetica,sans-Serif" font-size="10.00">src/app/seamly2d/dialogs</text>
<text text-anchor="middle" x="1207.5" y="-63.5" font-family="Helvetica,sans-Serif" font-size="10.00">/dialogpreferences.cpp</text>
</a>
</g>
</g>
<!-- Node2&#45;&gt;Node15 -->
<g id="edge14" class="edge">
<title>Node2&#45;&gt;Node15</title>
<path fill="none" stroke="midnightblue" d="M1860.59,-134.24C1740.01,-128.36 1493.62,-114 1286.5,-87 1283.73,-86.64 1280.92,-86.25 1278.08,-85.83"/>
<polygon fill="midnightblue" stroke="midnightblue" points="1860.65,-137.75 1870.81,-134.73 1860.99,-130.75 1860.65,-137.75"/>
</g>
<!-- Node2&#45;&gt;Node16 -->
<g id="edge15" class="edge">
<title>Node2&#45;&gt;Node16</title>
<path fill="none" stroke="midnightblue" d="M2008.66,-136.71C2296.67,-133.42 3341.37,-119.47 3671.5,-87 3676.17,-86.54 3680.97,-85.98 3685.8,-85.35"/>
<polygon fill="midnightblue" stroke="midnightblue" points="2008.29,-133.21 1998.33,-136.83 2008.37,-140.21 2008.29,-133.21"/>
</g>
<!-- Node17 -->
<g id="node17" class="node">
<title>Node17</title>
<g id="a_node17"><a xlink:href="../../db/d5c/groups__widget_8cpp.html" target="_top" xlink:title=" ">
<polygon fill="white" stroke="black" points="1296,-56.5 1296,-86.5 1437,-86.5 1437,-56.5 1296,-56.5"/>
<text text-anchor="start" x="1304" y="-74.5" font-family="Helvetica,sans-Serif" font-size="10.00">src/app/seamly2d/dialogs</text>
<text text-anchor="middle" x="1366.5" y="-63.5" font-family="Helvetica,sans-Serif" font-size="10.00">/groups_widget.cpp</text>
</a>
</g>
</g>
<!-- Node2&#45;&gt;Node17 -->
<g id="edge16" class="edge">
<title>Node2&#45;&gt;Node17</title>
<path fill="none" stroke="midnightblue" d="M1860.43,-131.68C1764.45,-123.71 1592.02,-107.98 1445.5,-87 1442.74,-86.6 1439.93,-86.18 1437.09,-85.74"/>
<polygon fill="midnightblue" stroke="midnightblue" points="1860.36,-135.18 1870.61,-132.52 1860.94,-128.21 1860.36,-135.18"/>
</g>
<!-- Node18 -->
<g id="node18" class="node">
<title>Node18</title>
<g id="a_node18"><a xlink:href="../../d0/dfa/layoutsettings__dialog_8cpp.html" target="_top" xlink:title=" ">
<polygon fill="white" stroke="black" points="1455,-56.5 1455,-86.5 1600,-86.5 1600,-56.5 1455,-56.5"/>
<text text-anchor="start" x="1463" y="-74.5" font-family="Helvetica,sans-Serif" font-size="10.00">src/app/seamly2d/dialogs</text>
<text text-anchor="middle" x="1527.5" y="-63.5" font-family="Helvetica,sans-Serif" font-size="10.00">/layoutsettings_dialog.cpp</text>
</a>
</g>
</g>
<!-- Node2&#45;&gt;Node18 -->
<g id="edge17" class="edge">
<title>Node2&#45;&gt;Node18</title>
<path fill="none" stroke="midnightblue" d="M1860.8,-126.59C1794.67,-116.68 1695.01,-101.44 1608.5,-87 1605.82,-86.55 1603.1,-86.09 1600.34,-85.62"/>
<polygon fill="midnightblue" stroke="midnightblue" points="1860.3,-130.05 1870.71,-128.07 1861.34,-123.13 1860.3,-130.05"/>
</g>
<!-- Node19 -->
<g id="node19" class="node">
<title>Node19</title>
<g id="a_node19"><a xlink:href="../../df/d69/welcome__dialog_8cpp.html" target="_top" xlink:title=" ">
<polygon fill="white" stroke="black" points="1618,-56.5 1618,-86.5 1759,-86.5 1759,-56.5 1618,-56.5"/>
<text text-anchor="start" x="1626" y="-74.5" font-family="Helvetica,sans-Serif" font-size="10.00">src/app/seamly2d/dialogs</text>
<text text-anchor="middle" x="1688.5" y="-63.5" font-family="Helvetica,sans-Serif" font-size="10.00">/welcome_dialog.cpp</text>
</a>
</g>
</g>
<!-- Node2&#45;&gt;Node19 -->
<g id="edge18" class="edge">
<title>Node2&#45;&gt;Node19</title>
<path fill="none" stroke="midnightblue" d="M1871.74,-120.92C1831.6,-110.31 1780.08,-96.7 1741.9,-86.61"/>
<polygon fill="midnightblue" stroke="midnightblue" points="1870.86,-124.31 1881.42,-123.48 1872.65,-117.54 1870.86,-124.31"/>
</g>
<!-- Node20 -->
<g id="node20" class="node">
<title>Node20</title>
<g id="a_node20"><a xlink:href="../../dc/d14/app_2seamly2d_2main_8cpp.html" target="_top" xlink:title=" ">
<polygon fill="white" stroke="black" points="1777,-62 1777,-81 1928,-81 1928,-62 1777,-62"/>
<text text-anchor="middle" x="1852.5" y="-69" font-family="Helvetica,sans-Serif" font-size="10.00">src/app/seamly2d/main.cpp</text>
</a>
</g>
</g>
<!-- Node2&#45;&gt;Node20 -->
<g id="edge19" class="edge">
<title>Node2&#45;&gt;Node20</title>
<path fill="none" stroke="midnightblue" d="M1908.65,-117.01C1893.43,-104.94 1874.96,-90.3 1863.47,-81.19"/>
<polygon fill="midnightblue" stroke="midnightblue" points="1906.7,-119.93 1916.71,-123.4 1911.04,-114.44 1906.7,-119.93"/>
</g>
<!-- Node21 -->
<g id="node21" class="node">
<title>Node21</title>
<g id="a_node21"><a xlink:href="../../dd/d84/shortcuts__dialog_8cpp.html" target="_top" xlink:title=" ">
<polygon fill="white" stroke="black" points="1946,-56.5 1946,-86.5 2087,-86.5 2087,-56.5 1946,-56.5"/>
<text text-anchor="start" x="1954" y="-74.5" font-family="Helvetica,sans-Serif" font-size="10.00">src/app/seamly2d/dialogs</text>
<text text-anchor="middle" x="2016.5" y="-63.5" font-family="Helvetica,sans-Serif" font-size="10.00">/shortcuts_dialog.cpp</text>
</a>
</g>
</g>
<!-- Node2&#45;&gt;Node21 -->
<g id="edge20" class="edge">
<title>Node2&#45;&gt;Node21</title>
<path fill="none" stroke="midnightblue" d="M1960.15,-117.17C1972.69,-107.23 1987.47,-95.51 1998.74,-86.58"/>
<polygon fill="midnightblue" stroke="midnightblue" points="1957.96,-114.44 1952.29,-123.4 1962.3,-119.93 1957.96,-114.44"/>
</g>
<!-- Node22 -->
<g id="node22" class="node">
<title>Node22</title>
<g id="a_node22"><a xlink:href="../../d2/df4/show__info__dialog_8cpp.html" target="_top" xlink:title=" ">
<polygon fill="white" stroke="black" points="2105,-56.5 2105,-86.5 2246,-86.5 2246,-56.5 2105,-56.5"/>
<text text-anchor="start" x="2113" y="-74.5" font-family="Helvetica,sans-Serif" font-size="10.00">src/app/seamly2d/dialogs</text>
<text text-anchor="middle" x="2175.5" y="-63.5" font-family="Helvetica,sans-Serif" font-size="10.00">/show_info_dialog.cpp</text>
</a>
</g>
</g>
<!-- Node2&#45;&gt;Node22 -->
<g id="edge21" class="edge">
<title>Node2&#45;&gt;Node22</title>
<path fill="none" stroke="midnightblue" d="M1996.23,-120.85C2035.53,-110.25 2085.86,-96.68 2123.18,-86.61"/>
<polygon fill="midnightblue" stroke="midnightblue" points="1995.24,-117.49 1986.5,-123.48 1997.06,-124.25 1995.24,-117.49"/>
</g>
<!-- Node23 -->
<g id="node23" class="node">
<title>Node23</title>
<g id="a_node23"><a xlink:href="../../d8/de8/mainwindowsnogui_8cpp.html" target="_top" xlink:title=" ">
<polygon fill="white" stroke="black" points="2264,-62 2264,-81 2485,-81 2485,-62 2264,-62"/>
<text text-anchor="middle" x="2374.5" y="-69" font-family="Helvetica,sans-Serif" font-size="10.00">src/app/seamly2d/mainwindowsnogui.cpp</text>
</a>
</g>
</g>
<!-- Node2&#45;&gt;Node23 -->
<g id="edge22" class="edge">
<title>Node2&#45;&gt;Node23</title>
<path fill="none" stroke="midnightblue" d="M2008.05,-126.63C2094.83,-113.82 2237.31,-92.77 2316.62,-81.05"/>
<polygon fill="midnightblue" stroke="midnightblue" points="2007.39,-123.19 1998.01,-128.12 2008.41,-130.12 2007.39,-123.19"/>
</g>
<!-- Node24 -->
<g id="node24" class="node">
<title>Node24</title>
<g id="a_node24"><a xlink:href="../../d3/d49/vpattern_8cpp.html" target="_top" xlink:title=" ">
<polygon fill="white" stroke="black" points="2503,-56.5 2503,-86.5 2628,-86.5 2628,-56.5 2503,-56.5"/>
<text text-anchor="start" x="2511" y="-74.5" font-family="Helvetica,sans-Serif" font-size="10.00">src/app/seamly2d/xml</text>
<text text-anchor="middle" x="2565.5" y="-63.5" font-family="Helvetica,sans-Serif" font-size="10.00">/vpattern.cpp</text>
</a>
</g>
</g>
<!-- Node2&#45;&gt;Node24 -->
<g id="edge23" class="edge">
<title>Node2&#45;&gt;Node24</title>
<path fill="none" stroke="midnightblue" d="M2008.12,-133.41C2115.31,-126.87 2320.45,-112.17 2493.5,-87 2496.53,-86.56 2499.62,-86.07 2502.74,-85.56"/>
<polygon fill="midnightblue" stroke="midnightblue" points="2007.83,-129.92 1998.06,-134.01 2008.25,-136.9 2007.83,-129.92"/>
</g>
<!-- Node2&#45;&gt;Node25 -->
<g id="edge24" class="edge">
<title>Node2&#45;&gt;Node25</title>
<path fill="none" stroke="midnightblue" d="M2008.64,-136.61C2326.34,-132.61 3560.1,-115.31 3637.5,-87 3658.29,-79.39 3656.02,-64.42 3676.5,-56 3732.5,-32.98 3892.46,-20.82 3996.36,-15.16"/>
<polygon fill="midnightblue" stroke="midnightblue" points="2008.13,-133.11 1998.17,-136.74 2008.22,-140.11 2008.13,-133.11"/>
</g>
<!-- Node26&#45;&gt;Node13 -->
<g id="edge30" class="edge">
<title>Node26&#45;&gt;Node13</title>
<path fill="none" stroke="midnightblue" d="M3924.5,-113.11C3924.5,-104.15 3924.5,-94.32 3924.5,-86.58"/>
<polygon fill="midnightblue" stroke="midnightblue" points="3921,-113.4 3924.5,-123.4 3928,-113.4 3921,-113.4"/>
</g>
<!-- Node27 -->
<g id="node27" class="node">
<title>Node27</title>
<g id="a_node27"><a xlink:href="../../d6/d64/dialogs_8h.html" target="_top" xlink:title=" ">
<polygon fill="white" stroke="black" points="4020,-56.5 4020,-86.5 4161,-86.5 4161,-56.5 4020,-56.5"/>
<text text-anchor="start" x="4028" y="-74.5" font-family="Helvetica,sans-Serif" font-size="10.00">src/app/seamly2d/dialogs</text>
<text text-anchor="middle" x="4090.5" y="-63.5" font-family="Helvetica,sans-Serif" font-size="10.00">/dialogs.h</text>
</a>
</g>
</g>
<!-- Node26&#45;&gt;Node27 -->
<g id="edge31" class="edge">
<title>Node26&#45;&gt;Node27</title>
<path fill="none" stroke="midnightblue" d="M3970.01,-119.68C3996.63,-109.26 4029.77,-96.28 4054.55,-86.58"/>
<polygon fill="midnightblue" stroke="midnightblue" points="3968.55,-116.49 3960.52,-123.4 3971.11,-123.01 3968.55,-116.49"/>
</g>
<!-- Node27&#45;&gt;Node25 -->
<g id="edge32" class="edge">
<title>Node27&#45;&gt;Node25</title>
<path fill="none" stroke="midnightblue" d="M4090.5,-46.29C4090.5,-36.86 4090.5,-26.65 4090.5,-19.66"/>
<polygon fill="midnightblue" stroke="midnightblue" points="4087,-46.4 4090.5,-56.4 4094,-46.4 4087,-46.4"/>
</g>
</g>
</svg>
        <g id="navigator" transform="translate(0 0)" fill="#404254">
                <rect fill="#f2f5e9" fill-opacity="0.5" stroke="#606060" stroke-width=".5" x="0" y="0" width="60" height="60"/>
                <use id="zoomplus" xlink:href="#zoomPlus" x="17" y="9" onmousedown="handleZoom(evt,'in')"/>
                <use id="zoomminus" xlink:href="#zoomMin" x="42" y="9" onmousedown="handleZoom(evt,'out')"/>
                <use id="reset" xlink:href="#resetDef" x="30" y="36" onmousedown="handleReset()"/>
                <g id="arrowUp" xlink:href="#dirArrow" transform="translate(30 24)" onmousedown="handlePan(0,-1)">
                  <use xlink:href="#rim" fill="#404040">
                        <set attributeName="fill" to="#808080" begin="arrowUp.mouseover" end="arrowUp.mouseout"/>
                  </use>
                  <path fill="none" stroke="white" stroke-width="1.5" d="M0,-3.0v7 M-2.5,-0.5L0,-3.0L2.5,-0.5"/>
                </g>
                <g id="arrowRight" xlink:href="#dirArrow" transform="rotate(90) translate(36 -43)" onmousedown="handlePan(1,0)">
                  <use xlink:href="#rim" fill="#404040">
                        <set attributeName="fill" to="#808080" begin="arrowRight.mouseover" end="arrowRight.mouseout"/>
                  </use>
                  <path fill="none" stroke="white" stroke-width="1.5" d="M0,-3.0v7 M-2.5,-0.5L0,-3.0L2.5,-0.5"/>
                </g>
                <g id="arrowDown" xlink:href="#dirArrow" transform="rotate(180) translate(-30 -48)" onmousedown="handlePan(0,1)">
                  <use xlink:href="#rim" fill="#404040">
                        <set attributeName="fill" to="#808080" begin="arrowDown.mouseover" end="arrowDown.mouseout"/>
                  </use>
                  <path fill="none" stroke="white" stroke-width="1.5" d="M0,-3.0v7 M-2.5,-0.5L0,-3.0L2.5,-0.5"/>
                </g>
                <g id="arrowLeft" xlink:href="#dirArrow" transform="rotate(270) translate(-36 17)" onmousedown="handlePan(-1,0)">
                  <use xlink:href="#rim" fill="#404040">
                        <set attributeName="fill" to="#808080" begin="arrowLeft.mouseover" end="arrowLeft.mouseout"/>
                  </use>
                  <path fill="none" stroke="white" stroke-width="1.5" d="M0,-3.0v7 M-2.5,-0.5L0,-3.0L2.5,-0.5"/>
                </g>
        </g>
        <svg viewBox="0 0 15 15" width="100%" height="30px" preserveAspectRatio="xMaxYMin meet">
         <g id="arrow_out" transform="scale(0.3 0.3)">
          <a xlink:href="options_8h__dep__incl_org.svg" target="_base">
           <rect id="button" ry="5" rx="5" y="6" x="6" height="38" width="38"
                fill="#f2f5e9" fill-opacity="0.5" stroke="#606060" stroke-width="1.0"/>
           <path id="arrow"
             d="M 11.500037,31.436501 C 11.940474,20.09759 22.043105,11.32322 32.158766,21.979434 L 37.068811,17.246167 C 37.068811,17.246167 37.088388,32 37.088388,32 L 22.160133,31.978069 C 22.160133,31.978069 26.997745,27.140456 26.997745,27.140456 C 18.528582,18.264221 13.291696,25.230495 11.500037,31.436501 z"
             style="fill:#404040;"/>
          </a>
         </g>
        </svg>
</svg>
