<?xml version="1.0" encoding="UTF-8" standalone="no"?>
<!DOCTYPE svg PUBLIC "-//W3C//DTD SVG 1.1//EN"
 "http://www.w3.org/Graphics/SVG/1.1/DTD/svg11.dtd">
<!-- Generated by graphviz version 2.43.0 (0)
 -->
<!-- Title: src/app/seamly2d/options.h Pages: 1 -->
<!--zoomable 218 -->
<svg id="main" version="1.1" xmlns="http://www.w3.org/2000/svg" xmlns:xlink="http://www.w3.org/1999/xlink" xml:space="preserve" onload="init(evt)">
<style type="text/css"><![CDATA[
.edge:hover path { stroke: red; }
.edge:hover polygon { stroke: red; fill: red; }
]]></style>
<script type="text/javascript"><![CDATA[
var edges = document.getElementsByTagName('g');
if (edges && edges.length) {
  for (var i=0;i<edges.length;i++) {
    if (edges[i].id.substr(0,4)=='edge') {
      edges[i].setAttribute('class','edge');
    }
  }
}
]]></script>
        <defs>
                <circle id="rim" cx="0" cy="0" r="7"/>
                <circle id="rim2" cx="0" cy="0" r="3.5"/>
                <g id="zoomPlus">
                        <use xlink:href="#rim" fill="#404040">
                                <set attributeName="fill" to="#808080" begin="zoomplus.mouseover" end="zoomplus.mouseout"/>
                        </use>
                        <path d="M-4,0h8M0,-4v8" fill="none" stroke="white" stroke-width="1.5" pointer-events="none"/>
                </g>
                <g id="zoomMin">
                        <use xlink:href="#rim" fill="#404040">
                                <set attributeName="fill" to="#808080" begin="zoomminus.mouseover" end="zoomminus.mouseout"/>
                        </use>
                        <path d="M-4,0h8" fill="none" stroke="white" stroke-width="1.5" pointer-events="none"/>
                </g>
                <g id="dirArrow">
                        <path fill="none" stroke="white" stroke-width="1.5" d="M0,-3.0v7 M-2.5,-0.5L0,-3.0L2.5,-0.5"/>
                </g>
               <g id="resetDef">
                       <use xlink:href="#rim2" fill="#404040">
                               <set attributeName="fill" to="#808080" begin="reset.mouseover" end="reset.mouseout"/>
                       </use>
               </g>
        </defs>

<script type="text/javascript">
var viewWidth = 4194;
var viewHeight = 218;
var sectionId = 'dynsection-1';
</script>
<script xlink:href="../../svgpan.js"/>
<svg id="graph" class="graph">
<g id="viewport">
<title>src/app/seamly2d/options.h</title>
<polygon fill="white" stroke="transparent" points="-4,4 -4,-214 4189.5,-214 4189.5,4 -4,4"/>
<!-- Node1 -->
<g id="node1" class="node">
<title>Node1</title>
<g id="a_node1"><a xlink:title=" ">
<polygon fill="#bfbfbf" stroke="black" points="1460,-190.5 1460,-209.5 1611,-209.5 1611,-190.5 1460,-190.5"/>
<text text-anchor="middle" x="1535.5" y="-197.5" font-family="Helvetica,sans-Serif" font-size="10.00">src/app/seamly2d/options.h</text>
</a>
</g>
</g>
<!-- Node2 -->
<g id="node2" class="node">
<title>Node2</title>
<g id="a_node2"><a xlink:href="../../d7/d61/application__2d_8h.html" target="_top" xlink:title=" ">
<polygon fill="white" stroke="black" points="1812,-123.5 1812,-153.5 1939,-153.5 1939,-123.5 1812,-123.5"/>
<text text-anchor="start" x="1820" y="-141.5" font-family="Helvetica,sans-Serif" font-size="10.00">src/app/seamly2d/core</text>
<text text-anchor="middle" x="1875.5" y="-130.5" font-family="Helvetica,sans-Serif" font-size="10.00">/application_2d.h</text>
</a>
</g>
</g>
<!-- Node1&#45;&gt;Node2 -->
<g id="edge1" class="edge">
<title>Node1&#45;&gt;Node2</title>
<path fill="none" stroke="midnightblue" d="M1594.4,-188.69C1655.09,-178.07 1749.41,-161.57 1811.8,-150.65"/>
<polygon fill="midnightblue" stroke="midnightblue" points="1593.46,-185.3 1584.21,-190.48 1594.67,-192.2 1593.46,-185.3"/>
</g>
<!-- Node5 -->
<g id="node5" class="node">
<title>Node5</title>
<g id="a_node5"><a xlink:href="../../d7/dfa/calculator__dialog_8cpp.html" target="_top" xlink:title=" ">
<polygon fill="white" stroke="black" points="0,-56.5 0,-86.5 141,-86.5 141,-56.5 0,-56.5"/>
<text text-anchor="start" x="8" y="-74.5" font-family="Helvetica,sans-Serif" font-size="10.00">src/app/seamly2d/dialogs</text>
<text text-anchor="middle" x="70.5" y="-63.5" font-family="Helvetica,sans-Serif" font-size="10.00">/calculator_dialog.cpp</text>
</a>
</g>
</g>
<!-- Node1&#45;&gt;Node5 -->
<g id="edge25" class="edge">
<title>Node1&#45;&gt;Node5</title>
<path fill="none" stroke="midnightblue" d="M1449.68,-199.06C1274.6,-198.32 863.84,-192.25 521.5,-154 381.54,-138.36 219.52,-105.39 132.85,-86.53"/>
<polygon fill="midnightblue" stroke="midnightblue" points="1449.85,-202.56 1459.86,-199.1 1449.88,-195.56 1449.85,-202.56"/>
</g>
<!-- Node7 -->
<g id="node7" class="node">
<title>Node7</title>
<g id="a_node7"><a xlink:href="../../dc/d20/preferencespathpage_8cpp.html" target="_top" xlink:title=" ">
<polygon fill="white" stroke="black" points="159,-56.5 159,-86.5 364,-86.5 364,-56.5 159,-56.5"/>
<text text-anchor="start" x="167" y="-74.5" font-family="Helvetica,sans-Serif" font-size="10.00">src/app/seamly2d/dialogs</text>
<text text-anchor="middle" x="261.5" y="-63.5" font-family="Helvetica,sans-Serif" font-size="10.00">/configpages/preferencespathpage.cpp</text>
</a>
</g>
</g>
<!-- Node1&#45;&gt;Node7 -->
<g id="edge26" class="edge">
<title>Node1&#45;&gt;Node7</title>
<path fill="none" stroke="midnightblue" d="M1449.66,-197.44C1302.46,-194.03 992.61,-183.69 732.5,-154 587.39,-137.44 419.18,-105.13 328.23,-86.55"/>
<polygon fill="midnightblue" stroke="midnightblue" points="1449.9,-200.94 1459.97,-197.67 1450.05,-193.94 1449.9,-200.94"/>
</g>
<!-- Node11 -->
<g id="node11" class="node">
<title>Node11</title>
<g id="a_node11"><a xlink:href="../../dd/d64/dialogaboutapp_8cpp.html" target="_top" xlink:title=" ">
<polygon fill="white" stroke="black" points="382,-56.5 382,-86.5 523,-86.5 523,-56.5 382,-56.5"/>
<text text-anchor="start" x="390" y="-74.5" font-family="Helvetica,sans-Serif" font-size="10.00">src/app/seamly2d/dialogs</text>
<text text-anchor="middle" x="452.5" y="-63.5" font-family="Helvetica,sans-Serif" font-size="10.00">/dialogaboutapp.cpp</text>
</a>
</g>
</g>
<!-- Node1&#45;&gt;Node11 -->
<g id="edge27" class="edge">
<title>Node1&#45;&gt;Node11</title>
<path fill="none" stroke="midnightblue" d="M1449.42,-194.77C1334,-188.56 1122.83,-175.36 943.5,-154 759.29,-132.06 714.3,-118.64 531.5,-87 528.75,-86.52 525.95,-86.03 523.12,-85.54"/>
<polygon fill="midnightblue" stroke="midnightblue" points="1449.43,-198.27 1459.6,-195.31 1449.8,-191.28 1449.43,-198.27"/>
</g>
<!-- Node12 -->
<g id="node12" class="node">
<title>Node12</title>
<g id="a_node12"><a xlink:href="../../d6/d89/dialoglayoutprogress_8cpp.html" target="_top" xlink:title=" ">
<polygon fill="white" stroke="black" points="541,-56.5 541,-86.5 684,-86.5 684,-56.5 541,-56.5"/>
<text text-anchor="start" x="549" y="-74.5" font-family="Helvetica,sans-Serif" font-size="10.00">src/app/seamly2d/dialogs</text>
<text text-anchor="middle" x="612.5" y="-63.5" font-family="Helvetica,sans-Serif" font-size="10.00">/dialoglayoutprogress.cpp</text>
</a>
</g>
</g>
<!-- Node1&#45;&gt;Node12 -->
<g id="edge28" class="edge">
<title>Node1&#45;&gt;Node12</title>
<path fill="none" stroke="midnightblue" d="M1453.14,-189.29C1302.21,-171.22 971.25,-130.31 693.5,-87 690.39,-86.52 687.22,-86.01 684.02,-85.48"/>
<polygon fill="midnightblue" stroke="midnightblue" points="1452.91,-192.79 1463.26,-190.5 1453.74,-185.84 1452.91,-192.79"/>
</g>
<!-- Node15 -->
<g id="node15" class="node">
<title>Node15</title>
<g id="a_node15"><a xlink:href="../../dd/d54/export__layout__dialog_8cpp.html" target="_top" xlink:title=" ">
<polygon fill="white" stroke="black" points="3687,-56.5 3687,-86.5 3830,-86.5 3830,-56.5 3687,-56.5"/>
<text text-anchor="start" x="3695" y="-74.5" font-family="Helvetica,sans-Serif" font-size="10.00">src/app/seamly2d/dialogs</text>
<text text-anchor="middle" x="3758.5" y="-63.5" font-family="Helvetica,sans-Serif" font-size="10.00">/export_layout_dialog.cpp</text>
</a>
</g>
</g>
<!-- Node1&#45;&gt;Node15 -->
<g id="edge33" class="edge">
<title>Node1&#45;&gt;Node15</title>
<path fill="none" stroke="midnightblue" d="M1621.49,-198.03C1911.32,-194 2878.72,-174.43 3672.5,-87 3677.17,-86.49 3681.96,-85.88 3686.79,-85.22"/>
<polygon fill="midnightblue" stroke="midnightblue" points="1621.42,-194.53 1611.46,-198.16 1621.51,-201.53 1621.42,-194.53"/>
</g>
<!-- Node25 -->
<g id="node25" class="node">
<title>Node25</title>
<g id="a_node25"><a xlink:href="../../d8/dd9/mainwindow_8cpp.html" target="_top" xlink:title=" ">
<polygon fill="white" stroke="black" points="3997.5,-0.5 3997.5,-19.5 4185.5,-19.5 4185.5,-0.5 3997.5,-0.5"/>
<text text-anchor="middle" x="4091.5" y="-7.5" font-family="Helvetica,sans-Serif" font-size="10.00">src/app/seamly2d/mainwindow.cpp</text>
</a>
</g>
</g>
<!-- Node1&#45;&gt;Node25 -->
<g id="edge34" class="edge">
<title>Node1&#45;&gt;Node25</title>
<path fill="none" stroke="midnightblue" d="M1621.29,-199.3C2029.98,-200.47 3769.34,-202.56 4006.5,-154 4084.04,-138.12 4127.3,-152.66 4171.5,-87 4179.19,-75.57 4178.46,-67.89 4171.5,-56 4160.8,-37.71 4139.63,-26.27 4121.75,-19.51"/>
<polygon fill="midnightblue" stroke="midnightblue" points="1621.04,-195.8 1611.03,-199.27 1621.02,-202.8 1621.04,-195.8"/>
</g>
<!-- Node26 -->
<g id="node26" class="node">
<title>Node26</title>
<g id="a_node26"><a xlink:href="../../d5/d4e/dialogpatternproperties_8h.html" target="_top" xlink:title=" ">
<polygon fill="white" stroke="black" points="3854,-123.5 3854,-153.5 3997,-153.5 3997,-123.5 3854,-123.5"/>
<text text-anchor="start" x="3862" y="-141.5" font-family="Helvetica,sans-Serif" font-size="10.00">src/app/seamly2d/dialogs</text>
<text text-anchor="middle" x="3925.5" y="-130.5" font-family="Helvetica,sans-Serif" font-size="10.00">/dialogpatternproperties.h</text>
</a>
</g>
</g>
<!-- Node1&#45;&gt;Node26 -->
<g id="edge29" class="edge">
<title>Node1&#45;&gt;Node26</title>
<path fill="none" stroke="midnightblue" d="M1621.34,-196.86C1998.66,-187.47 3506.49,-149.93 3853.87,-141.28"/>
<polygon fill="midnightblue" stroke="midnightblue" points="1621.22,-193.36 1611.31,-197.11 1621.39,-200.36 1621.22,-193.36"/>
</g>
<!-- Node3 -->
<g id="node3" class="node">
<title>Node3</title>
<g id="a_node3"><a xlink:href="../../dd/db4/abstractlayout__dialog_8cpp.html" target="_top" xlink:title=" ">
<polygon fill="white" stroke="black" points="2052.5,-56.5 2052.5,-86.5 2198.5,-86.5 2198.5,-56.5 2052.5,-56.5"/>
<text text-anchor="start" x="2060.5" y="-74.5" font-family="Helvetica,sans-Serif" font-size="10.00">src/app/seamly2d/dialogs</text>
<text text-anchor="middle" x="2125.5" y="-63.5" font-family="Helvetica,sans-Serif" font-size="10.00">/abstractlayout_dialog.cpp</text>
</a>
</g>
</g>
<!-- Node2&#45;&gt;Node3 -->
<g id="edge2" class="edge">
<title>Node2&#45;&gt;Node3</title>
<path fill="none" stroke="midnightblue" d="M1939.28,-120.92C1980.08,-110.31 2032.43,-96.7 2071.23,-86.61"/>
<polygon fill="midnightblue" stroke="midnightblue" points="1938.24,-117.57 1929.44,-123.48 1940,-124.35 1938.24,-117.57"/>
</g>
<!-- Node4 -->
<g id="node4" class="node">
<title>Node4</title>
<g id="a_node4"><a xlink:href="../../df/d3e/application__2d_8cpp.html" target="_top" xlink:title=" ">
<polygon fill="white" stroke="black" points="2217,-56.5 2217,-86.5 2344,-86.5 2344,-56.5 2217,-56.5"/>
<text text-anchor="start" x="2225" y="-74.5" font-family="Helvetica,sans-Serif" font-size="10.00">src/app/seamly2d/core</text>
<text text-anchor="middle" x="2280.5" y="-63.5" font-family="Helvetica,sans-Serif" font-size="10.00">/application_2d.cpp</text>
</a>
</g>
</g>
<!-- Node2&#45;&gt;Node4 -->
<g id="edge3" class="edge">
<title>Node2&#45;&gt;Node4</title>
<path fill="none" stroke="midnightblue" d="M1949.38,-127.24C2016.76,-117.64 2119.01,-102.51 2207.5,-87 2210.55,-86.46 2213.68,-85.9 2216.83,-85.32"/>
<polygon fill="midnightblue" stroke="midnightblue" points="1948.69,-123.8 1939.29,-128.67 1949.68,-130.73 1948.69,-123.8"/>
</g>
<!-- Node2&#45;&gt;Node5 -->
<g id="edge4" class="edge">
<title>Node2&#45;&gt;Node5</title>
<path fill="none" stroke="midnightblue" d="M1801.31,-136.83C1514.38,-134.03 477.11,-121.65 149.5,-87 146.73,-86.71 143.9,-86.37 141.06,-86"/>
<polygon fill="midnightblue" stroke="midnightblue" points="1801.57,-140.34 1811.6,-136.93 1801.64,-133.34 1801.57,-140.34"/>
</g>
<!-- Node6 -->
<g id="node6" class="node">
<title>Node6</title>
<g id="a_node6"><a xlink:href="../../d9/d70/preferencesgraphicsviewpage_8cpp.html" target="_top" xlink:title=" ">
<polygon fill="white" stroke="black" points="2362.5,-56.5 2362.5,-86.5 2610.5,-86.5 2610.5,-56.5 2362.5,-56.5"/>
<text text-anchor="start" x="2370.5" y="-74.5" font-family="Helvetica,sans-Serif" font-size="10.00">src/app/seamly2d/dialogs</text>
<text text-anchor="middle" x="2486.5" y="-63.5" font-family="Helvetica,sans-Serif" font-size="10.00">/configpages/preferencesgraphicsviewpage.cpp</text>
</a>
</g>
</g>
<!-- Node2&#45;&gt;Node6 -->
<g id="edge5" class="edge">
<title>Node2&#45;&gt;Node6</title>
<path fill="none" stroke="midnightblue" d="M1949.26,-129.78C2043.17,-119.94 2210.4,-102.36 2353.5,-87 2356.39,-86.69 2359.31,-86.38 2362.26,-86.06"/>
<polygon fill="midnightblue" stroke="midnightblue" points="1948.87,-126.31 1939.29,-130.83 1949.6,-133.27 1948.87,-126.31"/>
</g>
<!-- Node2&#45;&gt;Node7 -->
<g id="edge6" class="edge">
<title>Node2&#45;&gt;Node7</title>
<path fill="none" stroke="midnightblue" d="M1801.57,-137.53C1582.85,-137.09 920.01,-131.85 372.5,-87 369.79,-86.78 367.04,-86.54 364.27,-86.28"/>
<polygon fill="midnightblue" stroke="midnightblue" points="1801.64,-141.03 1811.65,-137.55 1801.65,-134.03 1801.64,-141.03"/>
</g>
<!-- Node8 -->
<g id="node8" class="node">
<title>Node8</title>
<g id="a_node8"><a xlink:href="../../dd/dc2/decimalchart__dialog_8cpp.html" target="_top" xlink:title=" ">
<polygon fill="white" stroke="black" points="2629,-56.5 2629,-86.5 2770,-86.5 2770,-56.5 2629,-56.5"/>
<text text-anchor="start" x="2637" y="-74.5" font-family="Helvetica,sans-Serif" font-size="10.00">src/app/seamly2d/dialogs</text>
<text text-anchor="middle" x="2699.5" y="-63.5" font-family="Helvetica,sans-Serif" font-size="10.00">/decimalchart_dialog.cpp</text>
</a>
</g>
</g>
<!-- Node2&#45;&gt;Node8 -->
<g id="edge7" class="edge">
<title>Node2&#45;&gt;Node8</title>
<path fill="none" stroke="midnightblue" d="M1949.58,-135.21C2083.66,-130.45 2375.33,-117.32 2619.5,-87 2622.58,-86.62 2625.72,-86.19 2628.9,-85.74"/>
<polygon fill="midnightblue" stroke="midnightblue" points="1949.29,-131.72 1939.42,-135.56 1949.54,-138.71 1949.29,-131.72"/>
</g>
<!-- Node9 -->
<g id="node9" class="node">
<title>Node9</title>
<g id="a_node9"><a xlink:href="../../dc/d63/preferencespatternpage_8cpp.html" target="_top" xlink:title=" ">
<polygon fill="white" stroke="black" points="2788.5,-56.5 2788.5,-86.5 3006.5,-86.5 3006.5,-56.5 2788.5,-56.5"/>
<text text-anchor="start" x="2796.5" y="-74.5" font-family="Helvetica,sans-Serif" font-size="10.00">src/app/seamly2d/dialogs</text>
<text text-anchor="middle" x="2897.5" y="-63.5" font-family="Helvetica,sans-Serif" font-size="10.00">/configpages/preferencespatternpage.cpp</text>
</a>
</g>
</g>
<!-- Node2&#45;&gt;Node9 -->
<g id="edge8" class="edge">
<title>Node2&#45;&gt;Node9</title>
<path fill="none" stroke="midnightblue" d="M1949.48,-135.03C2103.93,-129.52 2471.87,-114.46 2779.5,-87 2782.38,-86.74 2785.29,-86.47 2788.24,-86.19"/>
<polygon fill="midnightblue" stroke="midnightblue" points="1949.04,-131.55 1939.17,-135.4 1949.29,-138.54 1949.04,-131.55"/>
</g>
<!-- Node10 -->
<g id="node10" class="node">
<title>Node10</title>
<g id="a_node10"><a xlink:href="../../d2/d2d/preferencesconfigurationpage_8cpp.html" target="_top" xlink:title=" ">
<polygon fill="white" stroke="black" points="3025,-56.5 3025,-86.5 3272,-86.5 3272,-56.5 3025,-56.5"/>
<text text-anchor="start" x="3033" y="-74.5" font-family="Helvetica,sans-Serif" font-size="10.00">src/app/seamly2d/dialogs</text>
<text text-anchor="middle" x="3148.5" y="-63.5" font-family="Helvetica,sans-Serif" font-size="10.00">/configpages/preferencesconfigurationpage.cpp</text>
</a>
</g>
</g>
<!-- Node2&#45;&gt;Node10 -->
<g id="edge9" class="edge">
<title>Node2&#45;&gt;Node10</title>
<path fill="none" stroke="midnightblue" d="M1949.48,-135.87C2131.19,-131.51 2613.91,-117.75 3015.5,-87 3018.63,-86.76 3021.79,-86.51 3024.99,-86.24"/>
<polygon fill="midnightblue" stroke="midnightblue" points="1949.15,-132.38 1939.24,-136.11 1949.32,-139.38 1949.15,-132.38"/>
</g>
<!-- Node2&#45;&gt;Node11 -->
<g id="edge10" class="edge">
<title>Node2&#45;&gt;Node11</title>
<path fill="none" stroke="midnightblue" d="M1801.61,-136.13C1557.87,-131.38 780.76,-114.41 531.5,-87 528.73,-86.7 525.91,-86.35 523.06,-85.97"/>
<polygon fill="midnightblue" stroke="midnightblue" points="1801.71,-139.63 1811.78,-136.32 1801.85,-132.63 1801.71,-139.63"/>
</g>
<!-- Node2&#45;&gt;Node12 -->
<g id="edge11" class="edge">
<title>Node2&#45;&gt;Node12</title>
<path fill="none" stroke="midnightblue" d="M1801.62,-137.79C1615.18,-137.76 1110.77,-133.05 693.5,-87 690.52,-86.67 687.48,-86.3 684.42,-85.89"/>
<polygon fill="midnightblue" stroke="midnightblue" points="1801.85,-141.29 1811.85,-137.78 1801.85,-134.29 1801.85,-141.29"/>
</g>
<!-- Node13 -->
<g id="node13" class="node">
<title>Node13</title>
<g id="a_node13"><a xlink:href="../../d2/d00/vtooloptionspropertybrowser_8cpp.html" target="_top" xlink:title=" ">
<polygon fill="white" stroke="black" points="3290.5,-56.5 3290.5,-86.5 3470.5,-86.5 3470.5,-56.5 3290.5,-56.5"/>
<text text-anchor="start" x="3298.5" y="-74.5" font-family="Helvetica,sans-Serif" font-size="10.00">src/app/seamly2d/core</text>
<text text-anchor="middle" x="3380.5" y="-63.5" font-family="Helvetica,sans-Serif" font-size="10.00">/vtooloptionspropertybrowser.cpp</text>
</a>
</g>
</g>
<!-- Node2&#45;&gt;Node13 -->
<g id="edge12" class="edge">
<title>Node2&#45;&gt;Node13</title>
<path fill="none" stroke="midnightblue" d="M1949.32,-137.69C2158.59,-137.62 2773.47,-133.19 3281.5,-87 3284.44,-86.73 3287.43,-86.44 3290.44,-86.12"/>
<polygon fill="midnightblue" stroke="midnightblue" points="1949.07,-134.19 1939.07,-137.69 1949.07,-141.19 1949.07,-134.19"/>
</g>
<!-- Node14 -->
<g id="node14" class="node">
<title>Node14</title>
<g id="a_node14"><a xlink:href="../../d5/dc5/dialogpreferences_8cpp.html" target="_top" xlink:title=" ">
<polygon fill="white" stroke="black" points="3489,-56.5 3489,-86.5 3630,-86.5 3630,-56.5 3489,-56.5"/>
<text text-anchor="start" x="3497" y="-74.5" font-family="Helvetica,sans-Serif" font-size="10.00">src/app/seamly2d/dialogs</text>
<text text-anchor="middle" x="3559.5" y="-63.5" font-family="Helvetica,sans-Serif" font-size="10.00">/dialogpreferences.cpp</text>
</a>
</g>
</g>
<!-- Node2&#45;&gt;Node14 -->
<g id="edge13" class="edge">
<title>Node2&#45;&gt;Node14</title>
<path fill="none" stroke="midnightblue" d="M1949.41,-136.62C2222.84,-133.16 3176.89,-119.01 3479.5,-87 3482.59,-86.67 3485.74,-86.3 3488.91,-85.88"/>
<polygon fill="midnightblue" stroke="midnightblue" points="1949.15,-133.13 1939.2,-136.75 1949.24,-140.13 1949.15,-133.13"/>
</g>
<!-- Node2&#45;&gt;Node15 -->
<g id="edge14" class="edge">
<title>Node2&#45;&gt;Node15</title>
<path fill="none" stroke="midnightblue" d="M1949.94,-136.02C2267.38,-129.62 3499.55,-103.93 3672.5,-87 3677.17,-86.54 3681.97,-85.98 3686.8,-85.35"/>
<polygon fill="midnightblue" stroke="midnightblue" points="1949.41,-132.53 1939.48,-136.23 1949.55,-139.53 1949.41,-132.53"/>
</g>
<!-- Node16 -->
<g id="node16" class="node">
<title>Node16</title>
<g id="a_node16"><a xlink:href="../../d5/d18/dialogpatternproperties_8cpp.html" target="_top" xlink:title=" ">
<polygon fill="white" stroke="black" points="3848,-56.5 3848,-86.5 4003,-86.5 4003,-56.5 3848,-56.5"/>
<text text-anchor="start" x="3856" y="-74.5" font-family="Helvetica,sans-Serif" font-size="10.00">src/app/seamly2d/dialogs</text>
<text text-anchor="middle" x="3925.5" y="-63.5" font-family="Helvetica,sans-Serif" font-size="10.00">/dialogpatternproperties.cpp</text>
</a>
</g>
</g>
<!-- Node2&#45;&gt;Node16 -->
<g id="edge15" class="edge">
<title>Node2&#45;&gt;Node16</title>
<path fill="none" stroke="midnightblue" d="M1949.34,-137C2260,-134.68 3462.27,-123.47 3839.5,-87 3842.21,-86.74 3844.97,-86.44 3847.75,-86.12"/>
<polygon fill="midnightblue" stroke="midnightblue" points="1949.07,-133.5 1939.1,-137.07 1949.12,-140.5 1949.07,-133.5"/>
</g>
<!-- Node17 -->
<g id="node17" class="node">
<title>Node17</title>
<g id="a_node17"><a xlink:href="../../db/d5c/groups__widget_8cpp.html" target="_top" xlink:title=" ">
<polygon fill="white" stroke="black" points="702,-56.5 702,-86.5 843,-86.5 843,-56.5 702,-56.5"/>
<text text-anchor="start" x="710" y="-74.5" font-family="Helvetica,sans-Serif" font-size="10.00">src/app/seamly2d/dialogs</text>
<text text-anchor="middle" x="772.5" y="-63.5" font-family="Helvetica,sans-Serif" font-size="10.00">/groups_widget.cpp</text>
</a>
</g>
</g>
<!-- Node2&#45;&gt;Node17 -->
<g id="edge16" class="edge">
<title>Node2&#45;&gt;Node17</title>
<path fill="none" stroke="midnightblue" d="M1801.81,-137.14C1633.2,-135.6 1206.54,-127.65 852.5,-87 849.41,-86.65 846.27,-86.25 843.1,-85.81"/>
<polygon fill="midnightblue" stroke="midnightblue" points="1801.79,-140.64 1811.82,-137.23 1801.85,-133.64 1801.79,-140.64"/>
</g>
<!-- Node18 -->
<g id="node18" class="node">
<title>Node18</title>
<g id="a_node18"><a xlink:href="../../d0/dfa/layoutsettings__dialog_8cpp.html" target="_top" xlink:title=" ">
<polygon fill="white" stroke="black" points="861,-56.5 861,-86.5 1006,-86.5 1006,-56.5 861,-56.5"/>
<text text-anchor="start" x="869" y="-74.5" font-family="Helvetica,sans-Serif" font-size="10.00">src/app/seamly2d/dialogs</text>
<text text-anchor="middle" x="933.5" y="-63.5" font-family="Helvetica,sans-Serif" font-size="10.00">/layoutsettings_dialog.cpp</text>
</a>
</g>
</g>
<!-- Node2&#45;&gt;Node18 -->
<g id="edge17" class="edge">
<title>Node2&#45;&gt;Node18</title>
<path fill="none" stroke="midnightblue" d="M1801.5,-136.05C1652.33,-132.5 1305.08,-120.99 1015.5,-87 1012.48,-86.65 1009.41,-86.25 1006.31,-85.83"/>
<polygon fill="midnightblue" stroke="midnightblue" points="1801.81,-139.56 1811.89,-136.3 1801.98,-132.56 1801.81,-139.56"/>
</g>
<!-- Node19 -->
<g id="node19" class="node">
<title>Node19</title>
<g id="a_node19"><a xlink:href="../../d2/df4/show__info__dialog_8cpp.html" target="_top" xlink:title=" ">
<polygon fill="white" stroke="black" points="1024,-56.5 1024,-86.5 1165,-86.5 1165,-56.5 1024,-56.5"/>
<text text-anchor="start" x="1032" y="-74.5" font-family="Helvetica,sans-Serif" font-size="10.00">src/app/seamly2d/dialogs</text>
<text text-anchor="middle" x="1094.5" y="-63.5" font-family="Helvetica,sans-Serif" font-size="10.00">/show_info_dialog.cpp</text>
</a>
</g>
</g>
<!-- Node2&#45;&gt;Node19 -->
<g id="edge18" class="edge">
<title>Node2&#45;&gt;Node19</title>
<path fill="none" stroke="midnightblue" d="M1801.88,-134.8C1673.9,-129.52 1402.27,-115.76 1174.5,-87 1171.42,-86.61 1168.28,-86.18 1165.11,-85.72"/>
<polygon fill="midnightblue" stroke="midnightblue" points="1801.83,-138.3 1811.96,-135.21 1802.11,-131.31 1801.83,-138.3"/>
</g>
<!-- Node20 -->
<g id="node20" class="node">
<title>Node20</title>
<g id="a_node20"><a xlink:href="../../df/d69/welcome__dialog_8cpp.html" target="_top" xlink:title=" ">
<polygon fill="white" stroke="black" points="1183,-56.5 1183,-86.5 1324,-86.5 1324,-56.5 1183,-56.5"/>
<text text-anchor="start" x="1191" y="-74.5" font-family="Helvetica,sans-Serif" font-size="10.00">src/app/seamly2d/dialogs</text>
<text text-anchor="middle" x="1253.5" y="-63.5" font-family="Helvetica,sans-Serif" font-size="10.00">/welcome_dialog.cpp</text>
</a>
</g>
</g>
<!-- Node2&#45;&gt;Node20 -->
<g id="edge19" class="edge">
<title>Node2&#45;&gt;Node20</title>
<path fill="none" stroke="midnightblue" d="M1801.75,-132.66C1697.25,-125.34 1500.23,-109.83 1333.5,-87 1330.42,-86.58 1327.28,-86.12 1324.12,-85.64"/>
<polygon fill="midnightblue" stroke="midnightblue" points="1801.66,-136.16 1811.88,-133.36 1802.15,-129.18 1801.66,-136.16"/>
</g>
<!-- Node21 -->
<g id="node21" class="node">
<title>Node21</title>
<g id="a_node21"><a xlink:href="../../dc/d14/app_2seamly2d_2main_8cpp.html" target="_top" xlink:title=" ">
<polygon fill="white" stroke="black" points="1342,-62 1342,-81 1493,-81 1493,-62 1342,-62"/>
<text text-anchor="middle" x="1417.5" y="-69" font-family="Helvetica,sans-Serif" font-size="10.00">src/app/seamly2d/main.cpp</text>
</a>
</g>
</g>
<!-- Node2&#45;&gt;Node21 -->
<g id="edge20" class="edge">
<title>Node2&#45;&gt;Node21</title>
<path fill="none" stroke="midnightblue" d="M1801.39,-128.23C1726.04,-118.62 1605.99,-102.83 1502.5,-87 1490.66,-85.19 1477.92,-83.09 1466,-81.07"/>
<polygon fill="midnightblue" stroke="midnightblue" points="1801.35,-131.75 1811.71,-129.54 1802.24,-124.81 1801.35,-131.75"/>
</g>
<!-- Node22 -->
<g id="node22" class="node">
<title>Node22</title>
<g id="a_node22"><a xlink:href="../../dd/d84/shortcuts__dialog_8cpp.html" target="_top" xlink:title=" ">
<polygon fill="white" stroke="black" points="1511,-56.5 1511,-86.5 1652,-86.5 1652,-56.5 1511,-56.5"/>
<text text-anchor="start" x="1519" y="-74.5" font-family="Helvetica,sans-Serif" font-size="10.00">src/app/seamly2d/dialogs</text>
<text text-anchor="middle" x="1581.5" y="-63.5" font-family="Helvetica,sans-Serif" font-size="10.00">/shortcuts_dialog.cpp</text>
</a>
</g>
</g>
<!-- Node2&#45;&gt;Node22 -->
<g id="edge21" class="edge">
<title>Node2&#45;&gt;Node22</title>
<path fill="none" stroke="midnightblue" d="M1802.3,-121.32C1753.98,-110.63 1691.3,-96.77 1645.07,-86.55"/>
<polygon fill="midnightblue" stroke="midnightblue" points="1801.55,-124.73 1812.07,-123.48 1803.06,-117.9 1801.55,-124.73"/>
</g>
<!-- Node23 -->
<g id="node23" class="node">
<title>Node23</title>
<g id="a_node23"><a xlink:href="../../d8/de8/mainwindowsnogui_8cpp.html" target="_top" xlink:title=" ">
<polygon fill="white" stroke="black" points="1670,-62 1670,-81 1891,-81 1891,-62 1670,-62"/>
<text text-anchor="middle" x="1780.5" y="-69" font-family="Helvetica,sans-Serif" font-size="10.00">src/app/seamly2d/mainwindowsnogui.cpp</text>
</a>
</g>
</g>
<!-- Node2&#45;&gt;Node23 -->
<g id="edge22" class="edge">
<title>Node2&#45;&gt;Node23</title>
<path fill="none" stroke="midnightblue" d="M1846.48,-117.64C1828.55,-105.37 1806.46,-90.26 1792.93,-81.01"/>
<polygon fill="midnightblue" stroke="midnightblue" points="1844.66,-120.64 1854.89,-123.4 1848.61,-114.86 1844.66,-120.64"/>
</g>
<!-- Node24 -->
<g id="node24" class="node">
<title>Node24</title>
<g id="a_node24"><a xlink:href="../../d3/d49/vpattern_8cpp.html" target="_top" xlink:title=" ">
<polygon fill="white" stroke="black" points="1909,-56.5 1909,-86.5 2034,-86.5 2034,-56.5 1909,-56.5"/>
<text text-anchor="start" x="1917" y="-74.5" font-family="Helvetica,sans-Serif" font-size="10.00">src/app/seamly2d/xml</text>
<text text-anchor="middle" x="1971.5" y="-63.5" font-family="Helvetica,sans-Serif" font-size="10.00">/vpattern.cpp</text>
</a>
</g>
</g>
<!-- Node2&#45;&gt;Node24 -->
<g id="edge23" class="edge">
<title>Node2&#45;&gt;Node24</title>
<path fill="none" stroke="midnightblue" d="M1904.69,-117.73C1919.55,-107.68 1937.26,-95.68 1950.71,-86.58"/>
<polygon fill="midnightblue" stroke="midnightblue" points="1902.65,-114.89 1896.33,-123.4 1906.57,-120.69 1902.65,-114.89"/>
</g>
<!-- Node2&#45;&gt;Node25 -->
<g id="edge24" class="edge">
<title>Node2&#45;&gt;Node25</title>
<path fill="none" stroke="midnightblue" d="M1949.39,-136.02C2278.81,-129.34 3599.21,-101.71 3639.5,-87 3660.3,-79.41 3658.02,-64.42 3678.5,-56 3734.28,-33.07 3893.46,-20.89 3997.12,-15.21"/>
<polygon fill="midnightblue" stroke="midnightblue" points="1948.94,-132.53 1939.01,-136.23 1949.08,-139.53 1948.94,-132.53"/>
</g>
<!-- Node26&#45;&gt;Node16 -->
<g id="edge32" class="edge">
<title>Node26&#45;&gt;Node16</title>
<path fill="none" stroke="midnightblue" d="M3925.5,-113.11C3925.5,-104.15 3925.5,-94.32 3925.5,-86.58"/>
<polygon fill="midnightblue" stroke="midnightblue" points="3922,-113.4 3925.5,-123.4 3929,-113.4 3922,-113.4"/>
</g>
<!-- Node27 -->
<g id="node27" class="node">
<title>Node27</title>
<g id="a_node27"><a xlink:href="../../d6/d64/dialogs_8h.html" target="_top" xlink:title=" ">
<polygon fill="white" stroke="black" points="4021,-56.5 4021,-86.5 4162,-86.5 4162,-56.5 4021,-56.5"/>
<text text-anchor="start" x="4029" y="-74.5" font-family="Helvetica,sans-Serif" font-size="10.00">src/app/seamly2d/dialogs</text>
<text text-anchor="middle" x="4091.5" y="-63.5" font-family="Helvetica,sans-Serif" font-size="10.00">/dialogs.h</text>
</a>
</g>
</g>
<!-- Node26&#45;&gt;Node27 -->
<g id="edge30" class="edge">
<title>Node26&#45;&gt;Node27</title>
<path fill="none" stroke="midnightblue" d="M3971.01,-119.68C3997.63,-109.26 4030.77,-96.28 4055.55,-86.58"/>
<polygon fill="midnightblue" stroke="midnightblue" points="3969.55,-116.49 3961.52,-123.4 3972.11,-123.01 3969.55,-116.49"/>
</g>
<!-- Node27&#45;&gt;Node25 -->
<g id="edge31" class="edge">
<title>Node27&#45;&gt;Node25</title>
<path fill="none" stroke="midnightblue" d="M4091.5,-46.29C4091.5,-36.86 4091.5,-26.65 4091.5,-19.66"/>
<polygon fill="midnightblue" stroke="midnightblue" points="4088,-46.4 4091.5,-56.4 4095,-46.4 4088,-46.4"/>
</g>
</g>
</svg>
        <g id="navigator" transform="translate(0 0)" fill="#404254">
                <rect fill="#f2f5e9" fill-opacity="0.5" stroke="#606060" stroke-width=".5" x="0" y="0" width="60" height="60"/>
                <use id="zoomplus" xlink:href="#zoomPlus" x="17" y="9" onmousedown="handleZoom(evt,'in')"/>
                <use id="zoomminus" xlink:href="#zoomMin" x="42" y="9" onmousedown="handleZoom(evt,'out')"/>
                <use id="reset" xlink:href="#resetDef" x="30" y="36" onmousedown="handleReset()"/>
                <g id="arrowUp" xlink:href="#dirArrow" transform="translate(30 24)" onmousedown="handlePan(0,-1)">
                  <use xlink:href="#rim" fill="#404040">
                        <set attributeName="fill" to="#808080" begin="arrowUp.mouseover" end="arrowUp.mouseout"/>
                  </use>
                  <path fill="none" stroke="white" stroke-width="1.5" d="M0,-3.0v7 M-2.5,-0.5L0,-3.0L2.5,-0.5"/>
                </g>
                <g id="arrowRight" xlink:href="#dirArrow" transform="rotate(90) translate(36 -43)" onmousedown="handlePan(1,0)">
                  <use xlink:href="#rim" fill="#404040">
                        <set attributeName="fill" to="#808080" begin="arrowRight.mouseover" end="arrowRight.mouseout"/>
                  </use>
                  <path fill="none" stroke="white" stroke-width="1.5" d="M0,-3.0v7 M-2.5,-0.5L0,-3.0L2.5,-0.5"/>
                </g>
                <g id="arrowDown" xlink:href="#dirArrow" transform="rotate(180) translate(-30 -48)" onmousedown="handlePan(0,1)">
                  <use xlink:href="#rim" fill="#404040">
                        <set attributeName="fill" to="#808080" begin="arrowDown.mouseover" end="arrowDown.mouseout"/>
                  </use>
                  <path fill="none" stroke="white" stroke-width="1.5" d="M0,-3.0v7 M-2.5,-0.5L0,-3.0L2.5,-0.5"/>
                </g>
                <g id="arrowLeft" xlink:href="#dirArrow" transform="rotate(270) translate(-36 17)" onmousedown="handlePan(-1,0)">
                  <use xlink:href="#rim" fill="#404040">
                        <set attributeName="fill" to="#808080" begin="arrowLeft.mouseover" end="arrowLeft.mouseout"/>
                  </use>
                  <path fill="none" stroke="white" stroke-width="1.5" d="M0,-3.0v7 M-2.5,-0.5L0,-3.0L2.5,-0.5"/>
                </g>
        </g>
        <svg viewBox="0 0 15 15" width="100%" height="30px" preserveAspectRatio="xMaxYMin meet">
         <g id="arrow_out" transform="scale(0.3 0.3)">
          <a xlink:href="options_8h__dep__incl_org.svg" target="_base">
           <rect id="button" ry="5" rx="5" y="6" x="6" height="38" width="38"
                fill="#f2f5e9" fill-opacity="0.5" stroke="#606060" stroke-width="1.0"/>
           <path id="arrow"
             d="M 11.500037,31.436501 C 11.940474,20.09759 22.043105,11.32322 32.158766,21.979434 L 37.068811,17.246167 C 37.068811,17.246167 37.088388,32 37.088388,32 L 22.160133,31.978069 C 22.160133,31.978069 26.997745,27.140456 26.997745,27.140456 C 18.528582,18.264221 13.291696,25.230495 11.500037,31.436501 z"
             style="fill:#404040;"/>
          </a>
         </g>
        </svg>
</svg>
