<?xml version="1.0" encoding="UTF-8" standalone="no"?>
<!DOCTYPE svg PUBLIC "-//W3C//DTD SVG 1.1//EN"
 "http://www.w3.org/Graphics/SVG/1.1/DTD/svg11.dtd">
<!-- Generated by graphviz version 2.43.0 (0)
 -->
<!-- Title: src/app/seamly2d/options.h Pages: 1 -->
<!--zoomable 218 -->
<svg id="main" version="1.1" xmlns="http://www.w3.org/2000/svg" xmlns:xlink="http://www.w3.org/1999/xlink" xml:space="preserve" onload="init(evt)">
<style type="text/css"><![CDATA[
.edge:hover path { stroke: red; }
.edge:hover polygon { stroke: red; fill: red; }
]]></style>
<script type="text/javascript"><![CDATA[
var edges = document.getElementsByTagName('g');
if (edges && edges.length) {
  for (var i=0;i<edges.length;i++) {
    if (edges[i].id.substr(0,4)=='edge') {
      edges[i].setAttribute('class','edge');
    }
  }
}
]]></script>
        <defs>
                <circle id="rim" cx="0" cy="0" r="7"/>
                <circle id="rim2" cx="0" cy="0" r="3.5"/>
                <g id="zoomPlus">
                        <use xlink:href="#rim" fill="#404040">
                                <set attributeName="fill" to="#808080" begin="zoomplus.mouseover" end="zoomplus.mouseout"/>
                        </use>
                        <path d="M-4,0h8M0,-4v8" fill="none" stroke="white" stroke-width="1.5" pointer-events="none"/>
                </g>
                <g id="zoomMin">
                        <use xlink:href="#rim" fill="#404040">
                                <set attributeName="fill" to="#808080" begin="zoomminus.mouseover" end="zoomminus.mouseout"/>
                        </use>
                        <path d="M-4,0h8" fill="none" stroke="white" stroke-width="1.5" pointer-events="none"/>
                </g>
                <g id="dirArrow">
                        <path fill="none" stroke="white" stroke-width="1.5" d="M0,-3.0v7 M-2.5,-0.5L0,-3.0L2.5,-0.5"/>
                </g>
               <g id="resetDef">
                       <use xlink:href="#rim2" fill="#404040">
                               <set attributeName="fill" to="#808080" begin="reset.mouseover" end="reset.mouseout"/>
                       </use>
               </g>
        </defs>

<script type="text/javascript">
var viewWidth = 4192;
var viewHeight = 218;
var sectionId = 'dynsection-1';
</script>
<script xlink:href="../../svgpan.js"/>
<svg id="graph" class="graph">
<g id="viewport">
<title>src/app/seamly2d/options.h</title>
<polygon fill="white" stroke="transparent" points="-4,4 -4,-214 4187.5,-214 4187.5,4 -4,4"/>
<!-- Node1 -->
<g id="node1" class="node">
<title>Node1</title>
<g id="a_node1"><a xlink:title=" ">
<polygon fill="#bfbfbf" stroke="black" points="2811,-190.5 2811,-209.5 2962,-209.5 2962,-190.5 2811,-190.5"/>
<text text-anchor="middle" x="2886.5" y="-197.5" font-family="Helvetica,sans-Serif" font-size="10.00">src/app/seamly2d/options.h</text>
</a>
</g>
</g>
<!-- Node2 -->
<g id="node2" class="node">
<title>Node2</title>
<g id="a_node2"><a xlink:href="../../d7/d61/application__2d_8h.html" target="_top" xlink:title=" ">
<polygon fill="white" stroke="black" points="2011,-123.5 2011,-153.5 2138,-153.5 2138,-123.5 2011,-123.5"/>
<text text-anchor="start" x="2019" y="-141.5" font-family="Helvetica,sans-Serif" font-size="10.00">src/app/seamly2d/core</text>
<text text-anchor="middle" x="2074.5" y="-130.5" font-family="Helvetica,sans-Serif" font-size="10.00">/application_2d.h</text>
</a>
</g>
</g>
<!-- Node1&#45;&gt;Node2 -->
<g id="edge1" class="edge">
<title>Node1&#45;&gt;Node2</title>
<path fill="none" stroke="midnightblue" d="M2800.8,-192.72C2636.95,-180.71 2282.7,-154.76 2138.01,-144.15"/>
<polygon fill="midnightblue" stroke="midnightblue" points="2800.61,-196.22 2810.84,-193.46 2801.12,-189.23 2800.61,-196.22"/>
</g>
<!-- Node7 -->
<g id="node7" class="node">
<title>Node7</title>
<g id="a_node7"><a xlink:href="../../d7/dfa/calculator__dialog_8cpp.html" target="_top" xlink:title=" ">
<polygon fill="white" stroke="black" points="0,-56.5 0,-86.5 141,-86.5 141,-56.5 0,-56.5"/>
<text text-anchor="start" x="8" y="-74.5" font-family="Helvetica,sans-Serif" font-size="10.00">src/app/seamly2d/dialogs</text>
<text text-anchor="middle" x="70.5" y="-63.5" font-family="Helvetica,sans-Serif" font-size="10.00">/calculator_dialog.cpp</text>
</a>
</g>
</g>
<!-- Node1&#45;&gt;Node7 -->
<g id="edge25" class="edge">
<title>Node1&#45;&gt;Node7</title>
<path fill="none" stroke="midnightblue" d="M2800.71,-198.16C2456.89,-194.62 1177.81,-179.96 773.5,-154 495.15,-136.13 425.53,-127.09 149.5,-87 146.74,-86.6 143.93,-86.17 141.09,-85.73"/>
<polygon fill="midnightblue" stroke="midnightblue" points="2800.81,-201.66 2810.85,-198.26 2800.88,-194.66 2800.81,-201.66"/>
</g>
<!-- Node8 -->
<g id="node8" class="node">
<title>Node8</title>
<g id="a_node8"><a xlink:href="../../dc/d20/preferencespathpage_8cpp.html" target="_top" xlink:title=" ">
<polygon fill="white" stroke="black" points="159,-56.5 159,-86.5 364,-86.5 364,-56.5 159,-56.5"/>
<text text-anchor="start" x="167" y="-74.5" font-family="Helvetica,sans-Serif" font-size="10.00">src/app/seamly2d/dialogs</text>
<text text-anchor="middle" x="261.5" y="-63.5" font-family="Helvetica,sans-Serif" font-size="10.00">/configpages/preferencespathpage.cpp</text>
</a>
</g>
</g>
<!-- Node1&#45;&gt;Node8 -->
<g id="edge26" class="edge">
<title>Node1&#45;&gt;Node8</title>
<path fill="none" stroke="midnightblue" d="M2800.61,-197.85C2563.13,-194.38 1877.6,-182.47 1308.5,-154 891.96,-133.16 787.45,-128.92 372.5,-87 369.79,-86.73 367.05,-86.44 364.28,-86.14"/>
<polygon fill="midnightblue" stroke="midnightblue" points="2800.85,-201.35 2810.9,-198 2800.96,-194.35 2800.85,-201.35"/>
</g>
<!-- Node12 -->
<g id="node12" class="node">
<title>Node12</title>
<g id="a_node12"><a xlink:href="../../d6/d89/dialoglayoutprogress_8cpp.html" target="_top" xlink:title=" ">
<polygon fill="white" stroke="black" points="382,-56.5 382,-86.5 525,-86.5 525,-56.5 382,-56.5"/>
<text text-anchor="start" x="390" y="-74.5" font-family="Helvetica,sans-Serif" font-size="10.00">src/app/seamly2d/dialogs</text>
<text text-anchor="middle" x="453.5" y="-63.5" font-family="Helvetica,sans-Serif" font-size="10.00">/dialoglayoutprogress.cpp</text>
</a>
</g>
</g>
<!-- Node1&#45;&gt;Node12 -->
<g id="edge27" class="edge">
<title>Node1&#45;&gt;Node12</title>
<path fill="none" stroke="midnightblue" d="M2800.67,-194.81C2563.32,-183.25 1878.11,-149.95 1308.5,-123 964.07,-106.71 876.12,-125.83 533.5,-87 530.84,-86.7 528.13,-86.36 525.39,-86"/>
<polygon fill="midnightblue" stroke="midnightblue" points="2800.79,-198.32 2810.95,-195.32 2801.13,-191.33 2800.79,-198.32"/>
</g>
<!-- Node15 -->
<g id="node15" class="node">
<title>Node15</title>
<g id="a_node15"><a xlink:href="../../dd/d64/dialogaboutapp_8cpp.html" target="_top" xlink:title=" ">
<polygon fill="white" stroke="black" points="3526,-56.5 3526,-86.5 3667,-86.5 3667,-56.5 3526,-56.5"/>
<text text-anchor="start" x="3534" y="-74.5" font-family="Helvetica,sans-Serif" font-size="10.00">src/app/seamly2d/dialogs</text>
<text text-anchor="middle" x="3596.5" y="-63.5" font-family="Helvetica,sans-Serif" font-size="10.00">/dialogaboutapp.cpp</text>
</a>
</g>
</g>
<!-- Node1&#45;&gt;Node15 -->
<g id="edge32" class="edge">
<title>Node1&#45;&gt;Node15</title>
<path fill="none" stroke="midnightblue" d="M2944.57,-188.65C3073.98,-165.6 3385.64,-110.07 3525.95,-85.07"/>
<polygon fill="midnightblue" stroke="midnightblue" points="2943.7,-185.25 2934.46,-190.45 2944.92,-192.15 2943.7,-185.25"/>
</g>
<!-- Node16 -->
<g id="node16" class="node">
<title>Node16</title>
<g id="a_node16"><a xlink:href="../../dd/d54/export__layout__dialog_8cpp.html" target="_top" xlink:title=" ">
<polygon fill="white" stroke="black" points="3685,-56.5 3685,-86.5 3828,-86.5 3828,-56.5 3685,-56.5"/>
<text text-anchor="start" x="3693" y="-74.5" font-family="Helvetica,sans-Serif" font-size="10.00">src/app/seamly2d/dialogs</text>
<text text-anchor="middle" x="3756.5" y="-63.5" font-family="Helvetica,sans-Serif" font-size="10.00">/export_layout_dialog.cpp</text>
</a>
</g>
</g>
<!-- Node1&#45;&gt;Node16 -->
<g id="edge33" class="edge">
<title>Node1&#45;&gt;Node16</title>
<path fill="none" stroke="midnightblue" d="M2969.5,-189.3C3042.32,-180.62 3151.04,-167.26 3245.5,-154 3437.47,-127.05 3485.33,-119.18 3676.5,-87 3679.28,-86.53 3682.12,-86.05 3684.99,-85.55"/>
<polygon fill="midnightblue" stroke="midnightblue" points="2968.98,-185.84 2959.47,-190.49 2969.81,-192.79 2968.98,-185.84"/>
</g>
<!-- Node25 -->
<g id="node25" class="node">
<title>Node25</title>
<g id="a_node25"><a xlink:href="../../d8/dd9/mainwindow_8cpp.html" target="_top" xlink:title=" ">
<polygon fill="white" stroke="black" points="3995.5,-0.5 3995.5,-19.5 4183.5,-19.5 4183.5,-0.5 3995.5,-0.5"/>
<text text-anchor="middle" x="4089.5" y="-7.5" font-family="Helvetica,sans-Serif" font-size="10.00">src/app/seamly2d/mainwindow.cpp</text>
</a>
</g>
</g>
<!-- Node1&#45;&gt;Node25 -->
<g id="edge34" class="edge">
<title>Node1&#45;&gt;Node25</title>
<path fill="none" stroke="midnightblue" d="M2972.28,-199.36C3198.63,-199.69 3808.04,-196.48 4004.5,-154 4081.86,-137.27 4125.3,-152.66 4169.5,-87 4177.19,-75.57 4176.46,-67.89 4169.5,-56 4158.8,-37.71 4137.63,-26.27 4119.75,-19.51"/>
<polygon fill="midnightblue" stroke="midnightblue" points="2972.13,-195.86 2962.12,-199.34 2972.11,-202.86 2972.13,-195.86"/>
</g>
<!-- Node26 -->
<g id="node26" class="node">
<title>Node26</title>
<g id="a_node26"><a xlink:href="../../d5/d4e/dialogpatternproperties_8h.html" target="_top" xlink:title=" ">
<polygon fill="white" stroke="black" points="3852,-123.5 3852,-153.5 3995,-153.5 3995,-123.5 3852,-123.5"/>
<text text-anchor="start" x="3860" y="-141.5" font-family="Helvetica,sans-Serif" font-size="10.00">src/app/seamly2d/dialogs</text>
<text text-anchor="middle" x="3923.5" y="-130.5" font-family="Helvetica,sans-Serif" font-size="10.00">/dialogpatternproperties.h</text>
</a>
</g>
</g>
<!-- Node1&#45;&gt;Node26 -->
<g id="edge28" class="edge">
<title>Node1&#45;&gt;Node26</title>
<path fill="none" stroke="midnightblue" d="M2972.5,-194.07C3172.67,-182.58 3666.75,-154.23 3851.9,-143.61"/>
<polygon fill="midnightblue" stroke="midnightblue" points="2972.12,-190.58 2962.33,-194.65 2972.52,-197.57 2972.12,-190.58"/>
</g>
<!-- Node3 -->
<g id="node3" class="node">
<title>Node3</title>
<g id="a_node3"><a xlink:href="../../df/d3e/application__2d_8cpp.html" target="_top" xlink:title=" ">
<polygon fill="white" stroke="black" points="2448,-56.5 2448,-86.5 2575,-86.5 2575,-56.5 2448,-56.5"/>
<text text-anchor="start" x="2456" y="-74.5" font-family="Helvetica,sans-Serif" font-size="10.00">src/app/seamly2d/core</text>
<text text-anchor="middle" x="2511.5" y="-63.5" font-family="Helvetica,sans-Serif" font-size="10.00">/application_2d.cpp</text>
</a>
</g>
</g>
<!-- Node2&#45;&gt;Node3 -->
<g id="edge2" class="edge">
<title>Node2&#45;&gt;Node3</title>
<path fill="none" stroke="midnightblue" d="M2148.23,-128.55C2221.9,-119.31 2338.31,-103.89 2438.5,-87 2441.56,-86.48 2444.68,-85.94 2447.84,-85.37"/>
<polygon fill="midnightblue" stroke="midnightblue" points="2147.61,-125.1 2138.13,-129.81 2148.48,-132.05 2147.61,-125.1"/>
</g>
<!-- Node4 -->
<g id="node4" class="node">
<title>Node4</title>
<g id="a_node4"><a xlink:href="../../dd/db4/abstractlayout__dialog_8cpp.html" target="_top" xlink:title=" ">
<polygon fill="white" stroke="black" points="2593.5,-56.5 2593.5,-86.5 2739.5,-86.5 2739.5,-56.5 2593.5,-56.5"/>
<text text-anchor="start" x="2601.5" y="-74.5" font-family="Helvetica,sans-Serif" font-size="10.00">src/app/seamly2d/dialogs</text>
<text text-anchor="middle" x="2666.5" y="-63.5" font-family="Helvetica,sans-Serif" font-size="10.00">/abstractlayout_dialog.cpp</text>
</a>
</g>
</g>
<!-- Node2&#45;&gt;Node4 -->
<g id="edge3" class="edge">
<title>Node2&#45;&gt;Node4</title>
<path fill="none" stroke="midnightblue" d="M2148.38,-131.9C2247.6,-123.98 2429.27,-108.09 2583.5,-87 2586.69,-86.56 2589.94,-86.1 2593.23,-85.6"/>
<polygon fill="midnightblue" stroke="midnightblue" points="2147.85,-128.43 2138.16,-132.71 2148.41,-135.41 2147.85,-128.43"/>
</g>
<!-- Node5 -->
<g id="node5" class="node">
<title>Node5</title>
<g id="a_node5"><a xlink:href="../../d2/d2d/preferencesconfigurationpage_8cpp.html" target="_top" xlink:title=" ">
<polygon fill="white" stroke="black" points="2758,-56.5 2758,-86.5 3005,-86.5 3005,-56.5 2758,-56.5"/>
<text text-anchor="start" x="2766" y="-74.5" font-family="Helvetica,sans-Serif" font-size="10.00">src/app/seamly2d/dialogs</text>
<text text-anchor="middle" x="2881.5" y="-63.5" font-family="Helvetica,sans-Serif" font-size="10.00">/configpages/preferencesconfigurationpage.cpp</text>
</a>
</g>
</g>
<!-- Node2&#45;&gt;Node5 -->
<g id="edge4" class="edge">
<title>Node2&#45;&gt;Node5</title>
<path fill="none" stroke="midnightblue" d="M2148.36,-132.79C2272.44,-124.68 2530.57,-107.04 2748.5,-87 2751.62,-86.71 2754.79,-86.42 2757.98,-86.11"/>
<polygon fill="midnightblue" stroke="midnightblue" points="2147.97,-129.3 2138.21,-133.45 2148.42,-136.29 2147.97,-129.3"/>
</g>
<!-- Node6 -->
<g id="node6" class="node">
<title>Node6</title>
<g id="a_node6"><a xlink:href="../../d9/d70/preferencesgraphicsviewpage_8cpp.html" target="_top" xlink:title=" ">
<polygon fill="white" stroke="black" points="3023.5,-56.5 3023.5,-86.5 3271.5,-86.5 3271.5,-56.5 3023.5,-56.5"/>
<text text-anchor="start" x="3031.5" y="-74.5" font-family="Helvetica,sans-Serif" font-size="10.00">src/app/seamly2d/dialogs</text>
<text text-anchor="middle" x="3147.5" y="-63.5" font-family="Helvetica,sans-Serif" font-size="10.00">/configpages/preferencesgraphicsviewpage.cpp</text>
</a>
</g>
</g>
<!-- Node2&#45;&gt;Node6 -->
<g id="edge5" class="edge">
<title>Node2&#45;&gt;Node6</title>
<path fill="none" stroke="midnightblue" d="M2148.16,-134.89C2306.64,-128.99 2691.66,-113.05 3013.5,-87 3016.77,-86.74 3020.07,-86.46 3023.41,-86.17"/>
<polygon fill="midnightblue" stroke="midnightblue" points="2147.92,-131.4 2138.06,-135.27 2148.18,-138.4 2147.92,-131.4"/>
</g>
<!-- Node2&#45;&gt;Node7 -->
<g id="edge6" class="edge">
<title>Node2&#45;&gt;Node7</title>
<path fill="none" stroke="midnightblue" d="M2000.58,-137.1C1693.63,-135.18 518.35,-125.45 149.5,-87 146.73,-86.71 143.9,-86.38 141.06,-86.01"/>
<polygon fill="midnightblue" stroke="midnightblue" points="2000.68,-140.6 2010.71,-137.16 2000.73,-133.6 2000.68,-140.6"/>
</g>
<!-- Node2&#45;&gt;Node8 -->
<g id="edge7" class="edge">
<title>Node2&#45;&gt;Node8</title>
<path fill="none" stroke="midnightblue" d="M2000.44,-136.29C1716.33,-131.51 695.96,-112.86 372.5,-87 369.79,-86.78 367.04,-86.55 364.27,-86.29"/>
<polygon fill="midnightblue" stroke="midnightblue" points="2000.57,-139.79 2010.63,-136.46 2000.69,-132.8 2000.57,-139.79"/>
</g>
<!-- Node9 -->
<g id="node9" class="node">
<title>Node9</title>
<g id="a_node9"><a xlink:href="../../d2/d00/vtooloptionspropertybrowser_8cpp.html" target="_top" xlink:title=" ">
<polygon fill="white" stroke="black" points="3289.5,-56.5 3289.5,-86.5 3469.5,-86.5 3469.5,-56.5 3289.5,-56.5"/>
<text text-anchor="start" x="3297.5" y="-74.5" font-family="Helvetica,sans-Serif" font-size="10.00">src/app/seamly2d/core</text>
<text text-anchor="middle" x="3379.5" y="-63.5" font-family="Helvetica,sans-Serif" font-size="10.00">/vtooloptionspropertybrowser.cpp</text>
</a>
</g>
</g>
<!-- Node2&#45;&gt;Node9 -->
<g id="edge8" class="edge">
<title>Node2&#45;&gt;Node9</title>
<path fill="none" stroke="midnightblue" d="M2148.15,-137.07C2336.84,-135.39 2852.83,-127.16 3280.5,-87 3283.44,-86.72 3286.43,-86.42 3289.44,-86.09"/>
<polygon fill="midnightblue" stroke="midnightblue" points="2148.04,-133.57 2138.07,-137.15 2148.1,-140.57 2148.04,-133.57"/>
</g>
<!-- Node10 -->
<g id="node10" class="node">
<title>Node10</title>
<g id="a_node10"><a xlink:href="../../dd/dc2/decimalchart__dialog_8cpp.html" target="_top" xlink:title=" ">
<polygon fill="white" stroke="black" points="543,-56.5 543,-86.5 684,-86.5 684,-56.5 543,-56.5"/>
<text text-anchor="start" x="551" y="-74.5" font-family="Helvetica,sans-Serif" font-size="10.00">src/app/seamly2d/dialogs</text>
<text text-anchor="middle" x="613.5" y="-63.5" font-family="Helvetica,sans-Serif" font-size="10.00">/decimalchart_dialog.cpp</text>
</a>
</g>
</g>
<!-- Node2&#45;&gt;Node10 -->
<g id="edge9" class="edge">
<title>Node2&#45;&gt;Node10</title>
<path fill="none" stroke="midnightblue" d="M2000.84,-133.55C1941.18,-130.43 1854.93,-126.1 1779.5,-123 1296.98,-103.15 1173.71,-138.2 693.5,-87 690.41,-86.67 687.26,-86.29 684.09,-85.87"/>
<polygon fill="midnightblue" stroke="midnightblue" points="2000.76,-137.05 2010.93,-134.08 2001.12,-130.06 2000.76,-137.05"/>
</g>
<!-- Node11 -->
<g id="node11" class="node">
<title>Node11</title>
<g id="a_node11"><a xlink:href="../../dc/d63/preferencespatternpage_8cpp.html" target="_top" xlink:title=" ">
<polygon fill="white" stroke="black" points="702.5,-56.5 702.5,-86.5 920.5,-86.5 920.5,-56.5 702.5,-56.5"/>
<text text-anchor="start" x="710.5" y="-74.5" font-family="Helvetica,sans-Serif" font-size="10.00">src/app/seamly2d/dialogs</text>
<text text-anchor="middle" x="811.5" y="-63.5" font-family="Helvetica,sans-Serif" font-size="10.00">/configpages/preferencespatternpage.cpp</text>
</a>
</g>
</g>
<!-- Node2&#45;&gt;Node11 -->
<g id="edge10" class="edge">
<title>Node2&#45;&gt;Node11</title>
<path fill="none" stroke="midnightblue" d="M2000.84,-133.74C1941.16,-130.73 1854.92,-126.45 1779.5,-123 1401.78,-105.72 1306.34,-118.08 929.5,-87 926.62,-86.76 923.7,-86.51 920.76,-86.24"/>
<polygon fill="midnightblue" stroke="midnightblue" points="2000.75,-137.24 2010.92,-134.25 2001.11,-130.25 2000.75,-137.24"/>
</g>
<!-- Node2&#45;&gt;Node12 -->
<g id="edge11" class="edge">
<title>Node2&#45;&gt;Node12</title>
<path fill="none" stroke="midnightblue" d="M2000.85,-133.47C1941.18,-130.3 1854.94,-125.94 1779.5,-123 1225.91,-101.4 1084.51,-144.56 533.5,-87 530.83,-86.72 528.12,-86.4 525.39,-86.06"/>
<polygon fill="midnightblue" stroke="midnightblue" points="2000.76,-136.97 2010.93,-134 2001.13,-129.98 2000.76,-136.97"/>
</g>
<!-- Node13 -->
<g id="node13" class="node">
<title>Node13</title>
<g id="a_node13"><a xlink:href="../../d5/d18/dialogpatternproperties_8cpp.html" target="_top" xlink:title=" ">
<polygon fill="white" stroke="black" points="3846,-56.5 3846,-86.5 4001,-86.5 4001,-56.5 3846,-56.5"/>
<text text-anchor="start" x="3854" y="-74.5" font-family="Helvetica,sans-Serif" font-size="10.00">src/app/seamly2d/dialogs</text>
<text text-anchor="middle" x="3923.5" y="-63.5" font-family="Helvetica,sans-Serif" font-size="10.00">/dialogpatternproperties.cpp</text>
</a>
</g>
</g>
<!-- Node2&#45;&gt;Node13 -->
<g id="edge12" class="edge">
<title>Node2&#45;&gt;Node13</title>
<path fill="none" stroke="midnightblue" d="M2148.79,-136.74C2439.71,-133.57 3502.05,-119.92 3837.5,-87 3840.21,-86.73 3842.97,-86.43 3845.75,-86.1"/>
<polygon fill="midnightblue" stroke="midnightblue" points="2148.32,-133.25 2138.36,-136.86 2148.39,-140.25 2148.32,-133.25"/>
</g>
<!-- Node14 -->
<g id="node14" class="node">
<title>Node14</title>
<g id="a_node14"><a xlink:href="../../d5/dc5/dialogpreferences_8cpp.html" target="_top" xlink:title=" ">
<polygon fill="white" stroke="black" points="939,-56.5 939,-86.5 1080,-86.5 1080,-56.5 939,-56.5"/>
<text text-anchor="start" x="947" y="-74.5" font-family="Helvetica,sans-Serif" font-size="10.00">src/app/seamly2d/dialogs</text>
<text text-anchor="middle" x="1009.5" y="-63.5" font-family="Helvetica,sans-Serif" font-size="10.00">/dialogpreferences.cpp</text>
</a>
</g>
</g>
<!-- Node2&#45;&gt;Node14 -->
<g id="edge13" class="edge">
<title>Node2&#45;&gt;Node14</title>
<path fill="none" stroke="midnightblue" d="M2000.68,-133.85C1775.47,-122.69 1111.11,-89.64 1088.5,-87 1085.73,-86.68 1082.91,-86.31 1080.07,-85.92"/>
<polygon fill="midnightblue" stroke="midnightblue" points="2000.58,-137.35 2010.74,-134.35 2000.93,-130.36 2000.58,-137.35"/>
</g>
<!-- Node2&#45;&gt;Node15 -->
<g id="edge14" class="edge">
<title>Node2&#45;&gt;Node15</title>
<path fill="none" stroke="midnightblue" d="M2148.25,-136.21C2402.71,-131.57 3242.99,-114.5 3511.5,-87 3516.12,-86.53 3520.86,-85.96 3525.64,-85.32"/>
<polygon fill="midnightblue" stroke="midnightblue" points="2147.94,-132.72 2138.01,-136.4 2148.07,-139.72 2147.94,-132.72"/>
</g>
<!-- Node2&#45;&gt;Node16 -->
<g id="edge15" class="edge">
<title>Node2&#45;&gt;Node16</title>
<path fill="none" stroke="midnightblue" d="M2148.31,-136.62C2421.41,-133.15 3374.27,-118.98 3676.5,-87 3679.17,-86.72 3681.88,-86.4 3684.61,-86.05"/>
<polygon fill="midnightblue" stroke="midnightblue" points="2148.07,-133.13 2138.12,-136.75 2148.16,-140.12 2148.07,-133.13"/>
</g>
<!-- Node17 -->
<g id="node17" class="node">
<title>Node17</title>
<g id="a_node17"><a xlink:href="../../db/d5c/groups__widget_8cpp.html" target="_top" xlink:title=" ">
<polygon fill="white" stroke="black" points="1098,-56.5 1098,-86.5 1239,-86.5 1239,-56.5 1098,-56.5"/>
<text text-anchor="start" x="1106" y="-74.5" font-family="Helvetica,sans-Serif" font-size="10.00">src/app/seamly2d/dialogs</text>
<text text-anchor="middle" x="1168.5" y="-63.5" font-family="Helvetica,sans-Serif" font-size="10.00">/groups_widget.cpp</text>
</a>
</g>
</g>
<!-- Node2&#45;&gt;Node17 -->
<g id="edge16" class="edge">
<title>Node2&#45;&gt;Node17</title>
<path fill="none" stroke="midnightblue" d="M2000.83,-133.51C1812.12,-123.22 1321.07,-95.96 1247.5,-87 1244.73,-86.66 1241.91,-86.29 1239.07,-85.89"/>
<polygon fill="midnightblue" stroke="midnightblue" points="2000.75,-137.01 2010.93,-134.06 2001.13,-130.02 2000.75,-137.01"/>
</g>
<!-- Node18 -->
<g id="node18" class="node">
<title>Node18</title>
<g id="a_node18"><a xlink:href="../../d0/dfa/layoutsettings__dialog_8cpp.html" target="_top" xlink:title=" ">
<polygon fill="white" stroke="black" points="1257,-56.5 1257,-86.5 1402,-86.5 1402,-56.5 1257,-56.5"/>
<text text-anchor="start" x="1265" y="-74.5" font-family="Helvetica,sans-Serif" font-size="10.00">src/app/seamly2d/dialogs</text>
<text text-anchor="middle" x="1329.5" y="-63.5" font-family="Helvetica,sans-Serif" font-size="10.00">/layoutsettings_dialog.cpp</text>
</a>
</g>
</g>
<!-- Node2&#45;&gt;Node18 -->
<g id="edge17" class="edge">
<title>Node2&#45;&gt;Node18</title>
<path fill="none" stroke="midnightblue" d="M2000.6,-134.33C1877.73,-128.5 1623.84,-114.14 1410.5,-87 1407.81,-86.66 1405.07,-86.29 1402.3,-85.89"/>
<polygon fill="midnightblue" stroke="midnightblue" points="2000.5,-137.82 2010.65,-134.8 2000.82,-130.83 2000.5,-137.82"/>
</g>
<!-- Node19 -->
<g id="node19" class="node">
<title>Node19</title>
<g id="a_node19"><a xlink:href="../../d2/df4/show__info__dialog_8cpp.html" target="_top" xlink:title=" ">
<polygon fill="white" stroke="black" points="1420,-56.5 1420,-86.5 1561,-86.5 1561,-56.5 1420,-56.5"/>
<text text-anchor="start" x="1428" y="-74.5" font-family="Helvetica,sans-Serif" font-size="10.00">src/app/seamly2d/dialogs</text>
<text text-anchor="middle" x="1490.5" y="-63.5" font-family="Helvetica,sans-Serif" font-size="10.00">/show_info_dialog.cpp</text>
</a>
</g>
</g>
<!-- Node2&#45;&gt;Node19 -->
<g id="edge18" class="edge">
<title>Node2&#45;&gt;Node19</title>
<path fill="none" stroke="midnightblue" d="M2000.77,-132.03C1902.21,-124.28 1722.22,-108.61 1569.5,-87 1566.74,-86.61 1563.93,-86.19 1561.09,-85.75"/>
<polygon fill="midnightblue" stroke="midnightblue" points="2000.68,-135.53 2010.92,-132.82 2001.22,-128.55 2000.68,-135.53"/>
</g>
<!-- Node20 -->
<g id="node20" class="node">
<title>Node20</title>
<g id="a_node20"><a xlink:href="../../df/d69/welcome__dialog_8cpp.html" target="_top" xlink:title=" ">
<polygon fill="white" stroke="black" points="1579,-56.5 1579,-86.5 1720,-86.5 1720,-56.5 1579,-56.5"/>
<text text-anchor="start" x="1587" y="-74.5" font-family="Helvetica,sans-Serif" font-size="10.00">src/app/seamly2d/dialogs</text>
<text text-anchor="middle" x="1649.5" y="-63.5" font-family="Helvetica,sans-Serif" font-size="10.00">/welcome_dialog.cpp</text>
</a>
</g>
</g>
<!-- Node2&#45;&gt;Node20 -->
<g id="edge19" class="edge">
<title>Node2&#45;&gt;Node20</title>
<path fill="none" stroke="midnightblue" d="M2000.88,-127.55C1930.75,-117.88 1822.27,-102.44 1728.5,-87 1725.75,-86.55 1722.94,-86.08 1720.11,-85.59"/>
<polygon fill="midnightblue" stroke="midnightblue" points="2000.56,-131.04 2010.94,-128.93 2001.51,-124.1 2000.56,-131.04"/>
</g>
<!-- Node21 -->
<g id="node21" class="node">
<title>Node21</title>
<g id="a_node21"><a xlink:href="../../dd/d84/shortcuts__dialog_8cpp.html" target="_top" xlink:title=" ">
<polygon fill="white" stroke="black" points="1738,-56.5 1738,-86.5 1879,-86.5 1879,-56.5 1738,-56.5"/>
<text text-anchor="start" x="1746" y="-74.5" font-family="Helvetica,sans-Serif" font-size="10.00">src/app/seamly2d/dialogs</text>
<text text-anchor="middle" x="1808.5" y="-63.5" font-family="Helvetica,sans-Serif" font-size="10.00">/shortcuts_dialog.cpp</text>
</a>
</g>
</g>
<!-- Node2&#45;&gt;Node21 -->
<g id="edge20" class="edge">
<title>Node2&#45;&gt;Node21</title>
<path fill="none" stroke="midnightblue" d="M2007.19,-121.05C1963.7,-110.43 1907.7,-96.74 1866.25,-86.61"/>
<polygon fill="midnightblue" stroke="midnightblue" points="2006.56,-124.5 2017.11,-123.48 2008.23,-117.7 2006.56,-124.5"/>
</g>
<!-- Node22 -->
<g id="node22" class="node">
<title>Node22</title>
<g id="a_node22"><a xlink:href="../../dc/d14/app_2seamly2d_2main_8cpp.html" target="_top" xlink:title=" ">
<polygon fill="white" stroke="black" points="1897,-62 1897,-81 2048,-81 2048,-62 1897,-62"/>
<text text-anchor="middle" x="1972.5" y="-69" font-family="Helvetica,sans-Serif" font-size="10.00">src/app/seamly2d/main.cpp</text>
</a>
</g>
</g>
<!-- Node2&#45;&gt;Node22 -->
<g id="edge21" class="edge">
<title>Node2&#45;&gt;Node22</title>
<path fill="none" stroke="midnightblue" d="M2043.86,-117.97C2024.52,-105.65 2000.5,-90.35 1985.85,-81.01"/>
<polygon fill="midnightblue" stroke="midnightblue" points="2042.05,-120.97 2052.37,-123.4 2045.82,-115.07 2042.05,-120.97"/>
</g>
<!-- Node23 -->
<g id="node23" class="node">
<title>Node23</title>
<g id="a_node23"><a xlink:href="../../d8/de8/mainwindowsnogui_8cpp.html" target="_top" xlink:title=" ">
<polygon fill="white" stroke="black" points="2066,-62 2066,-81 2287,-81 2287,-62 2066,-62"/>
<text text-anchor="middle" x="2176.5" y="-69" font-family="Helvetica,sans-Serif" font-size="10.00">src/app/seamly2d/mainwindowsnogui.cpp</text>
</a>
</g>
</g>
<!-- Node2&#45;&gt;Node23 -->
<g id="edge22" class="edge">
<title>Node2&#45;&gt;Node23</title>
<path fill="none" stroke="midnightblue" d="M2105.14,-117.97C2124.48,-105.65 2148.5,-90.35 2163.15,-81.01"/>
<polygon fill="midnightblue" stroke="midnightblue" points="2103.18,-115.07 2096.63,-123.4 2106.95,-120.97 2103.18,-115.07"/>
</g>
<!-- Node24 -->
<g id="node24" class="node">
<title>Node24</title>
<g id="a_node24"><a xlink:href="../../d3/d49/vpattern_8cpp.html" target="_top" xlink:title=" ">
<polygon fill="white" stroke="black" points="2305,-56.5 2305,-86.5 2430,-86.5 2430,-56.5 2305,-56.5"/>
<text text-anchor="start" x="2313" y="-74.5" font-family="Helvetica,sans-Serif" font-size="10.00">src/app/seamly2d/xml</text>
<text text-anchor="middle" x="2367.5" y="-63.5" font-family="Helvetica,sans-Serif" font-size="10.00">/vpattern.cpp</text>
</a>
</g>
</g>
<!-- Node2&#45;&gt;Node24 -->
<g id="edge23" class="edge">
<title>Node2&#45;&gt;Node24</title>
<path fill="none" stroke="midnightblue" d="M2147.51,-121.3C2195.92,-110.56 2258.78,-96.62 2304.9,-86.39"/>
<polygon fill="midnightblue" stroke="midnightblue" points="2146.72,-117.89 2137.72,-123.48 2148.24,-124.73 2146.72,-117.89"/>
</g>
<!-- Node2&#45;&gt;Node25 -->
<g id="edge24" class="edge">
<title>Node2&#45;&gt;Node25</title>
<path fill="none" stroke="midnightblue" d="M2148.23,-137.54C2419.59,-137.31 3353.55,-133.15 3478.5,-87 3499.27,-79.33 3496.9,-64.11 3517.5,-56 3601.96,-22.75 3856.07,-14.03 3995.46,-11.77"/>
<polygon fill="midnightblue" stroke="midnightblue" points="2148.09,-134.04 2138.09,-137.54 2148.09,-141.04 2148.09,-134.04"/>
</g>
<!-- Node26&#45;&gt;Node13 -->
<g id="edge29" class="edge">
<title>Node26&#45;&gt;Node13</title>
<path fill="none" stroke="midnightblue" d="M3923.5,-113.11C3923.5,-104.15 3923.5,-94.32 3923.5,-86.58"/>
<polygon fill="midnightblue" stroke="midnightblue" points="3920,-113.4 3923.5,-123.4 3927,-113.4 3920,-113.4"/>
</g>
<!-- Node27 -->
<g id="node27" class="node">
<title>Node27</title>
<g id="a_node27"><a xlink:href="../../d6/d64/dialogs_8h.html" target="_top" xlink:title=" ">
<polygon fill="white" stroke="black" points="4019,-56.5 4019,-86.5 4160,-86.5 4160,-56.5 4019,-56.5"/>
<text text-anchor="start" x="4027" y="-74.5" font-family="Helvetica,sans-Serif" font-size="10.00">src/app/seamly2d/dialogs</text>
<text text-anchor="middle" x="4089.5" y="-63.5" font-family="Helvetica,sans-Serif" font-size="10.00">/dialogs.h</text>
</a>
</g>
</g>
<!-- Node26&#45;&gt;Node27 -->
<g id="edge30" class="edge">
<title>Node26&#45;&gt;Node27</title>
<path fill="none" stroke="midnightblue" d="M3969.01,-119.68C3995.63,-109.26 4028.77,-96.28 4053.55,-86.58"/>
<polygon fill="midnightblue" stroke="midnightblue" points="3967.55,-116.49 3959.52,-123.4 3970.11,-123.01 3967.55,-116.49"/>
</g>
<!-- Node27&#45;&gt;Node25 -->
<g id="edge31" class="edge">
<title>Node27&#45;&gt;Node25</title>
<path fill="none" stroke="midnightblue" d="M4089.5,-46.29C4089.5,-36.86 4089.5,-26.65 4089.5,-19.66"/>
<polygon fill="midnightblue" stroke="midnightblue" points="4086,-46.4 4089.5,-56.4 4093,-46.4 4086,-46.4"/>
</g>
</g>
</svg>
        <g id="navigator" transform="translate(0 0)" fill="#404254">
                <rect fill="#f2f5e9" fill-opacity="0.5" stroke="#606060" stroke-width=".5" x="0" y="0" width="60" height="60"/>
                <use id="zoomplus" xlink:href="#zoomPlus" x="17" y="9" onmousedown="handleZoom(evt,'in')"/>
                <use id="zoomminus" xlink:href="#zoomMin" x="42" y="9" onmousedown="handleZoom(evt,'out')"/>
                <use id="reset" xlink:href="#resetDef" x="30" y="36" onmousedown="handleReset()"/>
                <g id="arrowUp" xlink:href="#dirArrow" transform="translate(30 24)" onmousedown="handlePan(0,-1)">
                  <use xlink:href="#rim" fill="#404040">
                        <set attributeName="fill" to="#808080" begin="arrowUp.mouseover" end="arrowUp.mouseout"/>
                  </use>
                  <path fill="none" stroke="white" stroke-width="1.5" d="M0,-3.0v7 M-2.5,-0.5L0,-3.0L2.5,-0.5"/>
                </g>
                <g id="arrowRight" xlink:href="#dirArrow" transform="rotate(90) translate(36 -43)" onmousedown="handlePan(1,0)">
                  <use xlink:href="#rim" fill="#404040">
                        <set attributeName="fill" to="#808080" begin="arrowRight.mouseover" end="arrowRight.mouseout"/>
                  </use>
                  <path fill="none" stroke="white" stroke-width="1.5" d="M0,-3.0v7 M-2.5,-0.5L0,-3.0L2.5,-0.5"/>
                </g>
                <g id="arrowDown" xlink:href="#dirArrow" transform="rotate(180) translate(-30 -48)" onmousedown="handlePan(0,1)">
                  <use xlink:href="#rim" fill="#404040">
                        <set attributeName="fill" to="#808080" begin="arrowDown.mouseover" end="arrowDown.mouseout"/>
                  </use>
                  <path fill="none" stroke="white" stroke-width="1.5" d="M0,-3.0v7 M-2.5,-0.5L0,-3.0L2.5,-0.5"/>
                </g>
                <g id="arrowLeft" xlink:href="#dirArrow" transform="rotate(270) translate(-36 17)" onmousedown="handlePan(-1,0)">
                  <use xlink:href="#rim" fill="#404040">
                        <set attributeName="fill" to="#808080" begin="arrowLeft.mouseover" end="arrowLeft.mouseout"/>
                  </use>
                  <path fill="none" stroke="white" stroke-width="1.5" d="M0,-3.0v7 M-2.5,-0.5L0,-3.0L2.5,-0.5"/>
                </g>
        </g>
        <svg viewBox="0 0 15 15" width="100%" height="30px" preserveAspectRatio="xMaxYMin meet">
         <g id="arrow_out" transform="scale(0.3 0.3)">
          <a xlink:href="options_8h__dep__incl_org.svg" target="_base">
           <rect id="button" ry="5" rx="5" y="6" x="6" height="38" width="38"
                fill="#f2f5e9" fill-opacity="0.5" stroke="#606060" stroke-width="1.0"/>
           <path id="arrow"
             d="M 11.500037,31.436501 C 11.940474,20.09759 22.043105,11.32322 32.158766,21.979434 L 37.068811,17.246167 C 37.068811,17.246167 37.088388,32 37.088388,32 L 22.160133,31.978069 C 22.160133,31.978069 26.997745,27.140456 26.997745,27.140456 C 18.528582,18.264221 13.291696,25.230495 11.500037,31.436501 z"
             style="fill:#404040;"/>
          </a>
         </g>
        </svg>
</svg>
