<?xml version="1.0" encoding="UTF-8" standalone="no"?>
<!DOCTYPE svg PUBLIC "-//W3C//DTD SVG 1.1//EN"
 "http://www.w3.org/Graphics/SVG/1.1/DTD/svg11.dtd">
<!-- Generated by graphviz version 2.43.0 (0)
 -->
<!-- Title: src/app/seamly2d/options.h Pages: 1 -->
<svg width="4192pt" height="218pt"
 viewBox="0.00 0.00 4191.50 218.00" xmlns="http://www.w3.org/2000/svg" xmlns:xlink="http://www.w3.org/1999/xlink">
<g id="graph0" class="graph" transform="scale(1 1) rotate(0) translate(4 214)">
<title>src/app/seamly2d/options.h</title>
<polygon fill="white" stroke="transparent" points="-4,4 -4,-214 4187.5,-214 4187.5,4 -4,4"/>
<!-- Node1 -->
<g id="node1" class="node">
<title>Node1</title>
<g id="a_node1"><a xlink:title=" ">
<polygon fill="#bfbfbf" stroke="black" points="1480,-190.5 1480,-209.5 1631,-209.5 1631,-190.5 1480,-190.5"/>
<text text-anchor="middle" x="1555.5" y="-197.5" font-family="Helvetica,sans-Serif" font-size="10.00">src/app/seamly2d/options.h</text>
</a>
</g>
</g>
<!-- Node2 -->
<g id="node2" class="node">
<title>Node2</title>
<g id="a_node2"><a xlink:href="../../d7/d61/application__2d_8h.html" target="_top" xlink:title=" ">
<polygon fill="white" stroke="black" points="1832,-123.5 1832,-153.5 1959,-153.5 1959,-123.5 1832,-123.5"/>
<text text-anchor="start" x="1840" y="-141.5" font-family="Helvetica,sans-Serif" font-size="10.00">src/app/seamly2d/core</text>
<text text-anchor="middle" x="1895.5" y="-130.5" font-family="Helvetica,sans-Serif" font-size="10.00">/application_2d.h</text>
</a>
</g>
</g>
<!-- Node1&#45;&gt;Node2 -->
<g id="edge1" class="edge">
<title>Node1&#45;&gt;Node2</title>
<path fill="none" stroke="midnightblue" d="M1614.4,-188.69C1675.09,-178.07 1769.41,-161.57 1831.8,-150.65"/>
<polygon fill="midnightblue" stroke="midnightblue" points="1613.46,-185.3 1604.21,-190.48 1614.67,-192.2 1613.46,-185.3"/>
</g>
<!-- Node4 -->
<g id="node4" class="node">
<title>Node4</title>
<g id="a_node4"><a xlink:href="../../d7/dfa/calculator__dialog_8cpp.html" target="_top" xlink:title=" ">
<polygon fill="white" stroke="black" points="0,-56.5 0,-86.5 141,-86.5 141,-56.5 0,-56.5"/>
<text text-anchor="start" x="8" y="-74.5" font-family="Helvetica,sans-Serif" font-size="10.00">src/app/seamly2d/dialogs</text>
<text text-anchor="middle" x="70.5" y="-63.5" font-family="Helvetica,sans-Serif" font-size="10.00">/calculator_dialog.cpp</text>
</a>
</g>
</g>
<!-- Node1&#45;&gt;Node4 -->
<g id="edge25" class="edge">
<title>Node1&#45;&gt;Node4</title>
<path fill="none" stroke="midnightblue" d="M1469.76,-199.2C1291.99,-198.76 870.52,-193.22 519.5,-154 380.14,-138.43 218.85,-105.43 132.57,-86.54"/>
<polygon fill="midnightblue" stroke="midnightblue" points="1469.83,-202.7 1479.83,-199.22 1469.84,-195.7 1469.83,-202.7"/>
</g>
<!-- Node8 -->
<g id="node8" class="node">
<title>Node8</title>
<g id="a_node8"><a xlink:href="../../dc/d20/preferencespathpage_8cpp.html" target="_top" xlink:title=" ">
<polygon fill="white" stroke="black" points="159,-56.5 159,-86.5 364,-86.5 364,-56.5 159,-56.5"/>
<text text-anchor="start" x="167" y="-74.5" font-family="Helvetica,sans-Serif" font-size="10.00">src/app/seamly2d/dialogs</text>
<text text-anchor="middle" x="261.5" y="-63.5" font-family="Helvetica,sans-Serif" font-size="10.00">/configpages/preferencespathpage.cpp</text>
</a>
</g>
</g>
<!-- Node1&#45;&gt;Node8 -->
<g id="edge26" class="edge">
<title>Node1&#45;&gt;Node8</title>
<path fill="none" stroke="midnightblue" d="M1469.71,-197.66C1319.33,-194.56 998.54,-184.65 729.5,-154 585.08,-137.55 417.68,-105.12 327.41,-86.51"/>
<polygon fill="midnightblue" stroke="midnightblue" points="1469.73,-201.16 1479.8,-197.86 1469.87,-194.16 1469.73,-201.16"/>
</g>
<!-- Node11 -->
<g id="node11" class="node">
<title>Node11</title>
<g id="a_node11"><a xlink:href="../../dd/d64/dialogaboutapp_8cpp.html" target="_top" xlink:title=" ">
<polygon fill="white" stroke="black" points="382,-56.5 382,-86.5 523,-86.5 523,-56.5 382,-56.5"/>
<text text-anchor="start" x="390" y="-74.5" font-family="Helvetica,sans-Serif" font-size="10.00">src/app/seamly2d/dialogs</text>
<text text-anchor="middle" x="452.5" y="-63.5" font-family="Helvetica,sans-Serif" font-size="10.00">/dialogaboutapp.cpp</text>
</a>
</g>
</g>
<!-- Node1&#45;&gt;Node11 -->
<g id="edge27" class="edge">
<title>Node1&#45;&gt;Node11</title>
<path fill="none" stroke="midnightblue" d="M1469.7,-194.92C1352.08,-188.82 1134.29,-175.63 949.5,-154 762.63,-132.12 716.93,-118.87 531.5,-87 528.75,-86.53 525.95,-86.04 523.12,-85.54"/>
<polygon fill="midnightblue" stroke="midnightblue" points="1469.56,-198.42 1479.72,-195.44 1469.92,-191.43 1469.56,-198.42"/>
</g>
<!-- Node13 -->
<g id="node13" class="node">
<title>Node13</title>
<g id="a_node13"><a xlink:href="../../d6/d89/dialoglayoutprogress_8cpp.html" target="_top" xlink:title=" ">
<polygon fill="white" stroke="black" points="541,-56.5 541,-86.5 684,-86.5 684,-56.5 541,-56.5"/>
<text text-anchor="start" x="549" y="-74.5" font-family="Helvetica,sans-Serif" font-size="10.00">src/app/seamly2d/dialogs</text>
<text text-anchor="middle" x="612.5" y="-63.5" font-family="Helvetica,sans-Serif" font-size="10.00">/dialoglayoutprogress.cpp</text>
</a>
</g>
</g>
<!-- Node1&#45;&gt;Node13 -->
<g id="edge28" class="edge">
<title>Node1&#45;&gt;Node13</title>
<path fill="none" stroke="midnightblue" d="M1470.04,-189.35C1314.84,-171.51 976.45,-131.13 692.5,-87 689.85,-86.59 687.15,-86.16 684.43,-85.71"/>
<polygon fill="midnightblue" stroke="midnightblue" points="1469.66,-192.83 1480,-190.49 1470.46,-185.88 1469.66,-192.83"/>
</g>
<!-- Node16 -->
<g id="node16" class="node">
<title>Node16</title>
<g id="a_node16"><a xlink:href="../../dd/d54/export__layout__dialog_8cpp.html" target="_top" xlink:title=" ">
<polygon fill="white" stroke="black" points="3685,-56.5 3685,-86.5 3828,-86.5 3828,-56.5 3685,-56.5"/>
<text text-anchor="start" x="3693" y="-74.5" font-family="Helvetica,sans-Serif" font-size="10.00">src/app/seamly2d/dialogs</text>
<text text-anchor="middle" x="3756.5" y="-63.5" font-family="Helvetica,sans-Serif" font-size="10.00">/export_layout_dialog.cpp</text>
</a>
</g>
</g>
<!-- Node1&#45;&gt;Node16 -->
<g id="edge33" class="edge">
<title>Node1&#45;&gt;Node16</title>
<path fill="none" stroke="midnightblue" d="M1641.52,-197.96C1929.5,-193.74 2885.73,-173.65 3670.5,-87 3675.17,-86.48 3679.96,-85.88 3684.79,-85.22"/>
<polygon fill="midnightblue" stroke="midnightblue" points="1641.1,-194.47 1631.16,-198.11 1641.2,-201.47 1641.1,-194.47"/>
</g>
<!-- Node24 -->
<g id="node24" class="node">
<title>Node24</title>
<g id="a_node24"><a xlink:href="../../d8/dd9/mainwindow_8cpp.html" target="_top" xlink:title=" ">
<polygon fill="white" stroke="black" points="3995.5,-0.5 3995.5,-19.5 4183.5,-19.5 4183.5,-0.5 3995.5,-0.5"/>
<text text-anchor="middle" x="4089.5" y="-7.5" font-family="Helvetica,sans-Serif" font-size="10.00">src/app/seamly2d/mainwindow.cpp</text>
</a>
</g>
</g>
<!-- Node1&#45;&gt;Node24 -->
<g id="edge34" class="edge">
<title>Node1&#45;&gt;Node24</title>
<path fill="none" stroke="midnightblue" d="M1641.5,-199.28C2048.22,-200.37 3768.75,-202.09 4003.5,-154 4081.04,-138.12 4124.3,-152.66 4168.5,-87 4176.19,-75.57 4175.42,-67.91 4168.5,-56 4157.95,-37.85 4137.04,-26.41 4119.38,-19.61"/>
<polygon fill="midnightblue" stroke="midnightblue" points="1641.29,-195.78 1631.28,-199.26 1641.27,-202.78 1641.29,-195.78"/>
</g>
<!-- Node26 -->
<g id="node26" class="node">
<title>Node26</title>
<g id="a_node26"><a xlink:href="../../d5/d4e/dialogpatternproperties_8h.html" target="_top" xlink:title=" ">
<polygon fill="white" stroke="black" points="3852,-123.5 3852,-153.5 3995,-153.5 3995,-123.5 3852,-123.5"/>
<text text-anchor="start" x="3860" y="-141.5" font-family="Helvetica,sans-Serif" font-size="10.00">src/app/seamly2d/dialogs</text>
<text text-anchor="middle" x="3923.5" y="-130.5" font-family="Helvetica,sans-Serif" font-size="10.00">/dialogpatternproperties.h</text>
</a>
</g>
</g>
<!-- Node1&#45;&gt;Node26 -->
<g id="edge29" class="edge">
<title>Node1&#45;&gt;Node26</title>
<path fill="none" stroke="midnightblue" d="M1641.52,-196.84C2016.67,-187.41 3506.37,-149.98 3851.74,-141.3"/>
<polygon fill="midnightblue" stroke="midnightblue" points="1641.18,-193.35 1631.27,-197.1 1641.36,-200.34 1641.18,-193.35"/>
</g>
<!-- Node3 -->
<g id="node3" class="node">
<title>Node3</title>
<g id="a_node3"><a xlink:href="../../dd/db4/abstractlayout__dialog_8cpp.html" target="_top" xlink:title=" ">
<polygon fill="white" stroke="black" points="2052.5,-56.5 2052.5,-86.5 2198.5,-86.5 2198.5,-56.5 2052.5,-56.5"/>
<text text-anchor="start" x="2060.5" y="-74.5" font-family="Helvetica,sans-Serif" font-size="10.00">src/app/seamly2d/dialogs</text>
<text text-anchor="middle" x="2125.5" y="-63.5" font-family="Helvetica,sans-Serif" font-size="10.00">/abstractlayout_dialog.cpp</text>
</a>
</g>
</g>
<!-- Node2&#45;&gt;Node3 -->
<g id="edge2" class="edge">
<title>Node2&#45;&gt;Node3</title>
<path fill="none" stroke="midnightblue" d="M1954.89,-120.71C1992.32,-110.14 2040.1,-96.63 2075.57,-86.61"/>
<polygon fill="midnightblue" stroke="midnightblue" points="1953.79,-117.39 1945.12,-123.48 1955.7,-124.12 1953.79,-117.39"/>
</g>
<!-- Node2&#45;&gt;Node4 -->
<g id="edge3" class="edge">
<title>Node2&#45;&gt;Node4</title>
<path fill="none" stroke="midnightblue" d="M1821.43,-136.86C1532.56,-134.15 481.28,-122.04 149.5,-87 146.73,-86.71 143.9,-86.37 141.06,-86"/>
<polygon fill="midnightblue" stroke="midnightblue" points="1821.75,-140.37 1831.79,-136.96 1821.82,-133.37 1821.75,-140.37"/>
</g>
<!-- Node5 -->
<g id="node5" class="node">
<title>Node5</title>
<g id="a_node5"><a xlink:href="../../d9/d70/preferencesgraphicsviewpage_8cpp.html" target="_top" xlink:title=" ">
<polygon fill="white" stroke="black" points="2216.5,-56.5 2216.5,-86.5 2464.5,-86.5 2464.5,-56.5 2216.5,-56.5"/>
<text text-anchor="start" x="2224.5" y="-74.5" font-family="Helvetica,sans-Serif" font-size="10.00">src/app/seamly2d/dialogs</text>
<text text-anchor="middle" x="2340.5" y="-63.5" font-family="Helvetica,sans-Serif" font-size="10.00">/configpages/preferencesgraphicsviewpage.cpp</text>
</a>
</g>
</g>
<!-- Node2&#45;&gt;Node5 -->
<g id="edge4" class="edge">
<title>Node2&#45;&gt;Node5</title>
<path fill="none" stroke="midnightblue" d="M1969.61,-126.68C2044.97,-115.67 2162.08,-98.56 2244.5,-86.52"/>
<polygon fill="midnightblue" stroke="midnightblue" points="1968.65,-123.28 1959.26,-128.19 1969.66,-130.2 1968.65,-123.28"/>
</g>
<!-- Node6 -->
<g id="node6" class="node">
<title>Node6</title>
<g id="a_node6"><a xlink:href="../../d2/d2d/preferencesconfigurationpage_8cpp.html" target="_top" xlink:title=" ">
<polygon fill="white" stroke="black" points="2483,-56.5 2483,-86.5 2730,-86.5 2730,-56.5 2483,-56.5"/>
<text text-anchor="start" x="2491" y="-74.5" font-family="Helvetica,sans-Serif" font-size="10.00">src/app/seamly2d/dialogs</text>
<text text-anchor="middle" x="2606.5" y="-63.5" font-family="Helvetica,sans-Serif" font-size="10.00">/configpages/preferencesconfigurationpage.cpp</text>
</a>
</g>
</g>
<!-- Node2&#45;&gt;Node6 -->
<g id="edge5" class="edge">
<title>Node2&#45;&gt;Node6</title>
<path fill="none" stroke="midnightblue" d="M1969.25,-131.57C2079.16,-122.61 2292.44,-104.78 2473.5,-87 2476.62,-86.69 2479.78,-86.38 2482.97,-86.06"/>
<polygon fill="midnightblue" stroke="midnightblue" points="1968.94,-128.08 1959.26,-132.38 1969.51,-135.06 1968.94,-128.08"/>
</g>
<!-- Node7 -->
<g id="node7" class="node">
<title>Node7</title>
<g id="a_node7"><a xlink:href="../../d2/d00/vtooloptionspropertybrowser_8cpp.html" target="_top" xlink:title=" ">
<polygon fill="white" stroke="black" points="2748.5,-56.5 2748.5,-86.5 2928.5,-86.5 2928.5,-56.5 2748.5,-56.5"/>
<text text-anchor="start" x="2756.5" y="-74.5" font-family="Helvetica,sans-Serif" font-size="10.00">src/app/seamly2d/core</text>
<text text-anchor="middle" x="2838.5" y="-63.5" font-family="Helvetica,sans-Serif" font-size="10.00">/vtooloptionspropertybrowser.cpp</text>
</a>
</g>
</g>
<!-- Node2&#45;&gt;Node7 -->
<g id="edge6" class="edge">
<title>Node2&#45;&gt;Node7</title>
<path fill="none" stroke="midnightblue" d="M1969.33,-135.17C2116.15,-130.07 2455.05,-115.99 2738.5,-87 2741.73,-86.67 2745.01,-86.31 2748.33,-85.93"/>
<polygon fill="midnightblue" stroke="midnightblue" points="1968.97,-131.68 1959.1,-135.52 1969.21,-138.67 1968.97,-131.68"/>
</g>
<!-- Node2&#45;&gt;Node8 -->
<g id="edge7" class="edge">
<title>Node2&#45;&gt;Node8</title>
<path fill="none" stroke="midnightblue" d="M1821.75,-137.58C1601.31,-137.28 928.28,-132.41 372.5,-87 369.79,-86.78 367.04,-86.54 364.27,-86.28"/>
<polygon fill="midnightblue" stroke="midnightblue" points="1821.9,-141.08 1831.9,-137.59 1821.9,-134.08 1821.9,-141.08"/>
</g>
<!-- Node9 -->
<g id="node9" class="node">
<title>Node9</title>
<g id="a_node9"><a xlink:href="../../dc/d63/preferencespatternpage_8cpp.html" target="_top" xlink:title=" ">
<polygon fill="white" stroke="black" points="2946.5,-56.5 2946.5,-86.5 3164.5,-86.5 3164.5,-56.5 2946.5,-56.5"/>
<text text-anchor="start" x="2954.5" y="-74.5" font-family="Helvetica,sans-Serif" font-size="10.00">src/app/seamly2d/dialogs</text>
<text text-anchor="middle" x="3055.5" y="-63.5" font-family="Helvetica,sans-Serif" font-size="10.00">/configpages/preferencespatternpage.cpp</text>
</a>
</g>
</g>
<!-- Node2&#45;&gt;Node9 -->
<g id="edge8" class="edge">
<title>Node2&#45;&gt;Node9</title>
<path fill="none" stroke="midnightblue" d="M1969.16,-135.8C2139.73,-131.45 2574.97,-118.02 2937.5,-87 2940.38,-86.75 2943.3,-86.49 2946.24,-86.21"/>
<polygon fill="midnightblue" stroke="midnightblue" points="1968.95,-132.3 1959.04,-136.05 1969.13,-139.3 1968.95,-132.3"/>
</g>
<!-- Node10 -->
<g id="node10" class="node">
<title>Node10</title>
<g id="a_node10"><a xlink:href="../../dd/dc2/decimalchart__dialog_8cpp.html" target="_top" xlink:title=" ">
<polygon fill="white" stroke="black" points="3183,-56.5 3183,-86.5 3324,-86.5 3324,-56.5 3183,-56.5"/>
<text text-anchor="start" x="3191" y="-74.5" font-family="Helvetica,sans-Serif" font-size="10.00">src/app/seamly2d/dialogs</text>
<text text-anchor="middle" x="3253.5" y="-63.5" font-family="Helvetica,sans-Serif" font-size="10.00">/decimalchart_dialog.cpp</text>
</a>
</g>
</g>
<!-- Node2&#45;&gt;Node10 -->
<g id="edge9" class="edge">
<title>Node2&#45;&gt;Node10</title>
<path fill="none" stroke="midnightblue" d="M1969.44,-138.18C2166.05,-139.22 2717.86,-137.05 3173.5,-87 3176.59,-86.66 3179.73,-86.27 3182.91,-85.85"/>
<polygon fill="midnightblue" stroke="midnightblue" points="1969.25,-134.68 1959.23,-138.12 1969.21,-141.68 1969.25,-134.68"/>
</g>
<!-- Node2&#45;&gt;Node11 -->
<g id="edge10" class="edge">
<title>Node2&#45;&gt;Node11</title>
<path fill="none" stroke="midnightblue" d="M1821.36,-136.17C1574.96,-131.52 784.76,-114.78 531.5,-87 528.73,-86.7 525.91,-86.35 523.06,-85.97"/>
<polygon fill="midnightblue" stroke="midnightblue" points="1821.57,-139.67 1831.63,-136.36 1821.7,-132.67 1821.57,-139.67"/>
</g>
<!-- Node12 -->
<g id="node12" class="node">
<title>Node12</title>
<g id="a_node12"><a xlink:href="../../df/d3e/application__2d_8cpp.html" target="_top" xlink:title=" ">
<polygon fill="white" stroke="black" points="3342,-56.5 3342,-86.5 3469,-86.5 3469,-56.5 3342,-56.5"/>
<text text-anchor="start" x="3350" y="-74.5" font-family="Helvetica,sans-Serif" font-size="10.00">src/app/seamly2d/core</text>
<text text-anchor="middle" x="3405.5" y="-63.5" font-family="Helvetica,sans-Serif" font-size="10.00">/application_2d.cpp</text>
</a>
</g>
</g>
<!-- Node2&#45;&gt;Node12 -->
<g id="edge11" class="edge">
<title>Node2&#45;&gt;Node12</title>
<path fill="none" stroke="midnightblue" d="M1969.28,-136.48C2223.83,-132.7 3064.38,-118.13 3332.5,-87 3335.58,-86.64 3338.72,-86.22 3341.89,-85.76"/>
<polygon fill="midnightblue" stroke="midnightblue" points="1968.98,-132.98 1959.03,-136.63 1969.08,-139.98 1968.98,-132.98"/>
</g>
<!-- Node2&#45;&gt;Node13 -->
<g id="edge12" class="edge">
<title>Node2&#45;&gt;Node13</title>
<path fill="none" stroke="midnightblue" d="M1821.6,-137.92C1632.9,-138.23 1118.11,-134.28 692.5,-87 689.83,-86.7 687.12,-86.37 684.39,-86.01"/>
<polygon fill="midnightblue" stroke="midnightblue" points="1821.69,-141.42 1831.68,-137.9 1821.68,-134.42 1821.69,-141.42"/>
</g>
<!-- Node14 -->
<g id="node14" class="node">
<title>Node14</title>
<g id="a_node14"><a xlink:href="../../d5/dc5/dialogpreferences_8cpp.html" target="_top" xlink:title=" ">
<polygon fill="white" stroke="black" points="3487,-56.5 3487,-86.5 3628,-86.5 3628,-56.5 3487,-56.5"/>
<text text-anchor="start" x="3495" y="-74.5" font-family="Helvetica,sans-Serif" font-size="10.00">src/app/seamly2d/dialogs</text>
<text text-anchor="middle" x="3557.5" y="-63.5" font-family="Helvetica,sans-Serif" font-size="10.00">/dialogpreferences.cpp</text>
</a>
</g>
</g>
<!-- Node2&#45;&gt;Node14 -->
<g id="edge13" class="edge">
<title>Node2&#45;&gt;Node14</title>
<path fill="none" stroke="midnightblue" d="M1969.31,-136.59C2240.2,-133.02 3179.38,-118.6 3477.5,-87 3480.59,-86.67 3483.74,-86.29 3486.91,-85.88"/>
<polygon fill="midnightblue" stroke="midnightblue" points="1969.15,-133.09 1959.19,-136.72 1969.24,-140.09 1969.15,-133.09"/>
</g>
<!-- Node15 -->
<g id="node15" class="node">
<title>Node15</title>
<g id="a_node15"><a xlink:href="../../d5/d18/dialogpatternproperties_8cpp.html" target="_top" xlink:title=" ">
<polygon fill="white" stroke="black" points="3846,-56.5 3846,-86.5 4001,-86.5 4001,-56.5 3846,-56.5"/>
<text text-anchor="start" x="3854" y="-74.5" font-family="Helvetica,sans-Serif" font-size="10.00">src/app/seamly2d/dialogs</text>
<text text-anchor="middle" x="3923.5" y="-63.5" font-family="Helvetica,sans-Serif" font-size="10.00">/dialogpatternproperties.cpp</text>
</a>
</g>
</g>
<!-- Node2&#45;&gt;Node15 -->
<g id="edge14" class="edge">
<title>Node2&#45;&gt;Node15</title>
<path fill="none" stroke="midnightblue" d="M1969.5,-136.95C2278.13,-134.46 3464.07,-122.71 3836.5,-87 3839.55,-86.71 3842.65,-86.37 3845.78,-86"/>
<polygon fill="midnightblue" stroke="midnightblue" points="1969.29,-133.45 1959.32,-137.03 1969.35,-140.45 1969.29,-133.45"/>
</g>
<!-- Node2&#45;&gt;Node16 -->
<g id="edge15" class="edge">
<title>Node2&#45;&gt;Node16</title>
<path fill="none" stroke="midnightblue" d="M1969.37,-136.76C2260.94,-133.65 3332.41,-120.15 3670.5,-87 3675.17,-86.54 3679.97,-85.98 3684.8,-85.35"/>
<polygon fill="midnightblue" stroke="midnightblue" points="1969.29,-133.27 1959.33,-136.87 1969.36,-140.26 1969.29,-133.27"/>
</g>
<!-- Node17 -->
<g id="node17" class="node">
<title>Node17</title>
<g id="a_node17"><a xlink:href="../../db/d5c/groups__widget_8cpp.html" target="_top" xlink:title=" ">
<polygon fill="white" stroke="black" points="702,-56.5 702,-86.5 843,-86.5 843,-56.5 702,-56.5"/>
<text text-anchor="start" x="710" y="-74.5" font-family="Helvetica,sans-Serif" font-size="10.00">src/app/seamly2d/dialogs</text>
<text text-anchor="middle" x="772.5" y="-63.5" font-family="Helvetica,sans-Serif" font-size="10.00">/groups_widget.cpp</text>
</a>
</g>
</g>
<!-- Node2&#45;&gt;Node17 -->
<g id="edge16" class="edge">
<title>Node2&#45;&gt;Node17</title>
<path fill="none" stroke="midnightblue" d="M1821.55,-137.3C1650.33,-136.1 1213.64,-128.81 851.5,-87 848.73,-86.68 845.91,-86.32 843.07,-85.93"/>
<polygon fill="midnightblue" stroke="midnightblue" points="1821.68,-140.8 1831.71,-137.37 1821.73,-133.8 1821.68,-140.8"/>
</g>
<!-- Node18 -->
<g id="node18" class="node">
<title>Node18</title>
<g id="a_node18"><a xlink:href="../../d0/dfa/layoutsettings__dialog_8cpp.html" target="_top" xlink:title=" ">
<polygon fill="white" stroke="black" points="861,-56.5 861,-86.5 1006,-86.5 1006,-56.5 861,-56.5"/>
<text text-anchor="start" x="869" y="-74.5" font-family="Helvetica,sans-Serif" font-size="10.00">src/app/seamly2d/dialogs</text>
<text text-anchor="middle" x="933.5" y="-63.5" font-family="Helvetica,sans-Serif" font-size="10.00">/layoutsettings_dialog.cpp</text>
</a>
</g>
</g>
<!-- Node2&#45;&gt;Node18 -->
<g id="edge17" class="edge">
<title>Node2&#45;&gt;Node18</title>
<path fill="none" stroke="midnightblue" d="M1821.85,-136.26C1670.26,-133.05 1312.53,-122.09 1014.5,-87 1011.8,-86.68 1009.06,-86.33 1006.3,-85.96"/>
<polygon fill="midnightblue" stroke="midnightblue" points="1821.9,-139.76 1831.97,-136.47 1822.05,-132.76 1821.9,-139.76"/>
</g>
<!-- Node19 -->
<g id="node19" class="node">
<title>Node19</title>
<g id="a_node19"><a xlink:href="../../df/d69/welcome__dialog_8cpp.html" target="_top" xlink:title=" ">
<polygon fill="white" stroke="black" points="1024,-56.5 1024,-86.5 1165,-86.5 1165,-56.5 1024,-56.5"/>
<text text-anchor="start" x="1032" y="-74.5" font-family="Helvetica,sans-Serif" font-size="10.00">src/app/seamly2d/dialogs</text>
<text text-anchor="middle" x="1094.5" y="-63.5" font-family="Helvetica,sans-Serif" font-size="10.00">/welcome_dialog.cpp</text>
</a>
</g>
</g>
<!-- Node2&#45;&gt;Node19 -->
<g id="edge18" class="edge">
<title>Node2&#45;&gt;Node19</title>
<path fill="none" stroke="midnightblue" d="M1821.2,-135.04C1690.02,-130.09 1408.97,-116.75 1173.5,-87 1170.73,-86.65 1167.92,-86.27 1165.07,-85.86"/>
<polygon fill="midnightblue" stroke="midnightblue" points="1821.4,-138.55 1831.52,-135.43 1821.66,-131.56 1821.4,-138.55"/>
</g>
<!-- Node20 -->
<g id="node20" class="node">
<title>Node20</title>
<g id="a_node20"><a xlink:href="../../dc/d14/app_2seamly2d_2main_8cpp.html" target="_top" xlink:title=" ">
<polygon fill="white" stroke="black" points="1183,-62 1183,-81 1334,-81 1334,-62 1183,-62"/>
<text text-anchor="middle" x="1258.5" y="-69" font-family="Helvetica,sans-Serif" font-size="10.00">src/app/seamly2d/main.cpp</text>
</a>
</g>
</g>
<!-- Node2&#45;&gt;Node20 -->
<g id="edge19" class="edge">
<title>Node2&#45;&gt;Node20</title>
<path fill="none" stroke="midnightblue" d="M1821.58,-132.63C1715.33,-125.21 1513.39,-109.52 1342.5,-87 1330.03,-85.36 1316.58,-83.21 1304.17,-81.07"/>
<polygon fill="midnightblue" stroke="midnightblue" points="1821.65,-136.15 1831.87,-133.35 1822.14,-129.17 1821.65,-136.15"/>
</g>
<!-- Node21 -->
<g id="node21" class="node">
<title>Node21</title>
<g id="a_node21"><a xlink:href="../../dd/d84/shortcuts__dialog_8cpp.html" target="_top" xlink:title=" ">
<polygon fill="white" stroke="black" points="1352,-56.5 1352,-86.5 1493,-86.5 1493,-56.5 1352,-56.5"/>
<text text-anchor="start" x="1360" y="-74.5" font-family="Helvetica,sans-Serif" font-size="10.00">src/app/seamly2d/dialogs</text>
<text text-anchor="middle" x="1422.5" y="-63.5" font-family="Helvetica,sans-Serif" font-size="10.00">/shortcuts_dialog.cpp</text>
</a>
</g>
</g>
<!-- Node2&#45;&gt;Node21 -->
<g id="edge20" class="edge">
<title>Node2&#45;&gt;Node21</title>
<path fill="none" stroke="midnightblue" d="M1821.52,-129.23C1742.21,-120.08 1612.69,-104.32 1501.5,-87 1498.74,-86.57 1495.94,-86.12 1493.1,-85.65"/>
<polygon fill="midnightblue" stroke="midnightblue" points="1821.55,-132.75 1831.89,-130.42 1822.35,-125.8 1821.55,-132.75"/>
</g>
<!-- Node22 -->
<g id="node22" class="node">
<title>Node22</title>
<g id="a_node22"><a xlink:href="../../d8/de8/mainwindowsnogui_8cpp.html" target="_top" xlink:title=" ">
<polygon fill="white" stroke="black" points="1511,-62 1511,-81 1732,-81 1732,-62 1511,-62"/>
<text text-anchor="middle" x="1621.5" y="-69" font-family="Helvetica,sans-Serif" font-size="10.00">src/app/seamly2d/mainwindowsnogui.cpp</text>
</a>
</g>
</g>
<!-- Node2&#45;&gt;Node22 -->
<g id="edge21" class="edge">
<title>Node2&#45;&gt;Node22</title>
<path fill="none" stroke="midnightblue" d="M1826.57,-121.15C1772.81,-108.39 1700.29,-91.19 1657.45,-81.03"/>
<polygon fill="midnightblue" stroke="midnightblue" points="1825.85,-124.57 1836.38,-123.48 1827.46,-117.76 1825.85,-124.57"/>
</g>
<!-- Node23 -->
<g id="node23" class="node">
<title>Node23</title>
<g id="a_node23"><a xlink:href="../../d2/df4/show__info__dialog_8cpp.html" target="_top" xlink:title=" ">
<polygon fill="white" stroke="black" points="1750,-56.5 1750,-86.5 1891,-86.5 1891,-56.5 1750,-56.5"/>
<text text-anchor="start" x="1758" y="-74.5" font-family="Helvetica,sans-Serif" font-size="10.00">src/app/seamly2d/dialogs</text>
<text text-anchor="middle" x="1820.5" y="-63.5" font-family="Helvetica,sans-Serif" font-size="10.00">/show_info_dialog.cpp</text>
</a>
</g>
</g>
<!-- Node2&#45;&gt;Node23 -->
<g id="edge22" class="edge">
<title>Node2&#45;&gt;Node23</title>
<path fill="none" stroke="midnightblue" d="M1871.38,-116.6C1860.06,-106.78 1846.86,-95.34 1836.74,-86.58"/>
<polygon fill="midnightblue" stroke="midnightblue" points="1869.38,-119.49 1879.23,-123.4 1873.96,-114.2 1869.38,-119.49"/>
</g>
<!-- Node2&#45;&gt;Node24 -->
<g id="edge23" class="edge">
<title>Node2&#45;&gt;Node24</title>
<path fill="none" stroke="midnightblue" d="M1969.21,-136.66C2290.63,-132.84 3557.19,-115.98 3636.5,-87 3657.3,-79.4 3655.02,-64.42 3675.5,-56 3731.5,-32.98 3891.46,-20.82 3995.36,-15.16"/>
<polygon fill="midnightblue" stroke="midnightblue" points="1969.03,-133.16 1959.07,-136.78 1969.11,-140.16 1969.03,-133.16"/>
</g>
<!-- Node25 -->
<g id="node25" class="node">
<title>Node25</title>
<g id="a_node25"><a xlink:href="../../d3/d49/vpattern_8cpp.html" target="_top" xlink:title=" ">
<polygon fill="white" stroke="black" points="1909,-56.5 1909,-86.5 2034,-86.5 2034,-56.5 1909,-56.5"/>
<text text-anchor="start" x="1917" y="-74.5" font-family="Helvetica,sans-Serif" font-size="10.00">src/app/seamly2d/xml</text>
<text text-anchor="middle" x="1971.5" y="-63.5" font-family="Helvetica,sans-Serif" font-size="10.00">/vpattern.cpp</text>
</a>
</g>
</g>
<!-- Node2&#45;&gt;Node25 -->
<g id="edge24" class="edge">
<title>Node2&#45;&gt;Node25</title>
<path fill="none" stroke="midnightblue" d="M1919.61,-116.88C1931.16,-107.01 1944.69,-95.43 1955.04,-86.58"/>
<polygon fill="midnightblue" stroke="midnightblue" points="1917.32,-114.24 1911.99,-123.4 1921.87,-119.56 1917.32,-114.24"/>
</g>
<!-- Node26&#45;&gt;Node15 -->
<g id="edge30" class="edge">
<title>Node26&#45;&gt;Node15</title>
<path fill="none" stroke="midnightblue" d="M3923.5,-113.11C3923.5,-104.15 3923.5,-94.32 3923.5,-86.58"/>
<polygon fill="midnightblue" stroke="midnightblue" points="3920,-113.4 3923.5,-123.4 3927,-113.4 3920,-113.4"/>
</g>
<!-- Node27 -->
<g id="node27" class="node">
<title>Node27</title>
<g id="a_node27"><a xlink:href="../../d6/d64/dialogs_8h.html" target="_top" xlink:title=" ">
<polygon fill="white" stroke="black" points="4019,-56.5 4019,-86.5 4160,-86.5 4160,-56.5 4019,-56.5"/>
<text text-anchor="start" x="4027" y="-74.5" font-family="Helvetica,sans-Serif" font-size="10.00">src/app/seamly2d/dialogs</text>
<text text-anchor="middle" x="4089.5" y="-63.5" font-family="Helvetica,sans-Serif" font-size="10.00">/dialogs.h</text>
</a>
</g>
</g>
<!-- Node26&#45;&gt;Node27 -->
<g id="edge31" class="edge">
<title>Node26&#45;&gt;Node27</title>
<path fill="none" stroke="midnightblue" d="M3969.01,-119.68C3995.63,-109.26 4028.77,-96.28 4053.55,-86.58"/>
<polygon fill="midnightblue" stroke="midnightblue" points="3967.55,-116.49 3959.52,-123.4 3970.11,-123.01 3967.55,-116.49"/>
</g>
<!-- Node27&#45;&gt;Node24 -->
<g id="edge32" class="edge">
<title>Node27&#45;&gt;Node24</title>
<path fill="none" stroke="midnightblue" d="M4089.5,-46.29C4089.5,-36.86 4089.5,-26.65 4089.5,-19.66"/>
<polygon fill="midnightblue" stroke="midnightblue" points="4086,-46.4 4089.5,-56.4 4093,-46.4 4086,-46.4"/>
</g>
</g>
</svg>
