<?xml version="1.0" encoding="UTF-8" standalone="no"?>
<!DOCTYPE svg PUBLIC "-//W3C//DTD SVG 1.1//EN"
 "http://www.w3.org/Graphics/SVG/1.1/DTD/svg11.dtd">
<!-- Generated by graphviz version 2.43.0 (0)
 -->
<!-- Title: src/app/seamly2d/options.h Pages: 1 -->
<!--zoomable 218 -->
<svg id="main" version="1.1" xmlns="http://www.w3.org/2000/svg" xmlns:xlink="http://www.w3.org/1999/xlink" xml:space="preserve" onload="init(evt)">
<style type="text/css"><![CDATA[
.edge:hover path { stroke: red; }
.edge:hover polygon { stroke: red; fill: red; }
]]></style>
<script type="text/javascript"><![CDATA[
var edges = document.getElementsByTagName('g');
if (edges && edges.length) {
  for (var i=0;i<edges.length;i++) {
    if (edges[i].id.substr(0,4)=='edge') {
      edges[i].setAttribute('class','edge');
    }
  }
}
]]></script>
        <defs>
                <circle id="rim" cx="0" cy="0" r="7"/>
                <circle id="rim2" cx="0" cy="0" r="3.5"/>
                <g id="zoomPlus">
                        <use xlink:href="#rim" fill="#404040">
                                <set attributeName="fill" to="#808080" begin="zoomplus.mouseover" end="zoomplus.mouseout"/>
                        </use>
                        <path d="M-4,0h8M0,-4v8" fill="none" stroke="white" stroke-width="1.5" pointer-events="none"/>
                </g>
                <g id="zoomMin">
                        <use xlink:href="#rim" fill="#404040">
                                <set attributeName="fill" to="#808080" begin="zoomminus.mouseover" end="zoomminus.mouseout"/>
                        </use>
                        <path d="M-4,0h8" fill="none" stroke="white" stroke-width="1.5" pointer-events="none"/>
                </g>
                <g id="dirArrow">
                        <path fill="none" stroke="white" stroke-width="1.5" d="M0,-3.0v7 M-2.5,-0.5L0,-3.0L2.5,-0.5"/>
                </g>
               <g id="resetDef">
                       <use xlink:href="#rim2" fill="#404040">
                               <set attributeName="fill" to="#808080" begin="reset.mouseover" end="reset.mouseout"/>
                       </use>
               </g>
        </defs>

<script type="text/javascript">
var viewWidth = 4192;
var viewHeight = 218;
var sectionId = 'dynsection-1';
</script>
<script xlink:href="../../svgpan.js"/>
<svg id="graph" class="graph">
<g id="viewport">
<title>src/app/seamly2d/options.h</title>
<polygon fill="white" stroke="transparent" points="-4,4 -4,-214 4187.5,-214 4187.5,4 -4,4"/>
<!-- Node1 -->
<g id="node1" class="node">
<title>Node1</title>
<g id="a_node1"><a xlink:title=" ">
<polygon fill="#bfbfbf" stroke="black" points="1418,-190.5 1418,-209.5 1569,-209.5 1569,-190.5 1418,-190.5"/>
<text text-anchor="middle" x="1493.5" y="-197.5" font-family="Helvetica,sans-Serif" font-size="10.00">src/app/seamly2d/options.h</text>
</a>
</g>
</g>
<!-- Node2 -->
<g id="node2" class="node">
<title>Node2</title>
<g id="a_node2"><a xlink:href="../../d7/d61/application__2d_8h.html" target="_top" xlink:title=" ">
<polygon fill="white" stroke="black" points="1750,-123.5 1750,-153.5 1877,-153.5 1877,-123.5 1750,-123.5"/>
<text text-anchor="start" x="1758" y="-141.5" font-family="Helvetica,sans-Serif" font-size="10.00">src/app/seamly2d/core</text>
<text text-anchor="middle" x="1813.5" y="-130.5" font-family="Helvetica,sans-Serif" font-size="10.00">/application_2d.h</text>
</a>
</g>
</g>
<!-- Node1&#45;&gt;Node2 -->
<g id="edge1" class="edge">
<title>Node1&#45;&gt;Node2</title>
<path fill="none" stroke="midnightblue" d="M1549.43,-188.6C1605.36,-178.2 1691.27,-162.23 1749.8,-151.35"/>
<polygon fill="midnightblue" stroke="midnightblue" points="1548.54,-185.21 1539.35,-190.48 1549.82,-192.09 1548.54,-185.21"/>
</g>
<!-- Node7 -->
<g id="node7" class="node">
<title>Node7</title>
<g id="a_node7"><a xlink:href="../../dc/d20/preferencespathpage_8cpp.html" target="_top" xlink:title=" ">
<polygon fill="white" stroke="black" points="0,-56.5 0,-86.5 205,-86.5 205,-56.5 0,-56.5"/>
<text text-anchor="start" x="8" y="-74.5" font-family="Helvetica,sans-Serif" font-size="10.00">src/app/seamly2d/dialogs</text>
<text text-anchor="middle" x="102.5" y="-63.5" font-family="Helvetica,sans-Serif" font-size="10.00">/configpages/preferencespathpage.cpp</text>
</a>
</g>
</g>
<!-- Node1&#45;&gt;Node7 -->
<g id="edge25" class="edge">
<title>Node1&#45;&gt;Node7</title>
<path fill="none" stroke="midnightblue" d="M1407.87,-199C1239.7,-198.11 854.63,-191.7 533.5,-154 399.63,-138.28 244.84,-105.34 162.06,-86.5"/>
<polygon fill="midnightblue" stroke="midnightblue" points="1407.89,-202.5 1417.91,-199.05 1407.92,-195.5 1407.89,-202.5"/>
</g>
<!-- Node11 -->
<g id="node11" class="node">
<title>Node11</title>
<g id="a_node11"><a xlink:href="../../dd/d64/dialogaboutapp_8cpp.html" target="_top" xlink:title=" ">
<polygon fill="white" stroke="black" points="223,-56.5 223,-86.5 364,-86.5 364,-56.5 223,-56.5"/>
<text text-anchor="start" x="231" y="-74.5" font-family="Helvetica,sans-Serif" font-size="10.00">src/app/seamly2d/dialogs</text>
<text text-anchor="middle" x="293.5" y="-63.5" font-family="Helvetica,sans-Serif" font-size="10.00">/dialogaboutapp.cpp</text>
</a>
</g>
</g>
<!-- Node1&#45;&gt;Node11 -->
<g id="edge26" class="edge">
<title>Node1&#45;&gt;Node11</title>
<path fill="none" stroke="midnightblue" d="M1407.38,-197.48C1265.42,-194.18 973.6,-184.05 728.5,-154 594.08,-137.52 438.56,-105.1 354.71,-86.5"/>
<polygon fill="midnightblue" stroke="midnightblue" points="1407.67,-200.99 1417.75,-197.71 1407.83,-193.99 1407.67,-200.99"/>
</g>
<!-- Node12 -->
<g id="node12" class="node">
<title>Node12</title>
<g id="a_node12"><a xlink:href="../../d6/d89/dialoglayoutprogress_8cpp.html" target="_top" xlink:title=" ">
<polygon fill="white" stroke="black" points="382,-56.5 382,-86.5 525,-86.5 525,-56.5 382,-56.5"/>
<text text-anchor="start" x="390" y="-74.5" font-family="Helvetica,sans-Serif" font-size="10.00">src/app/seamly2d/dialogs</text>
<text text-anchor="middle" x="453.5" y="-63.5" font-family="Helvetica,sans-Serif" font-size="10.00">/dialoglayoutprogress.cpp</text>
</a>
</g>
</g>
<!-- Node1&#45;&gt;Node12 -->
<g id="edge27" class="edge">
<title>Node1&#45;&gt;Node12</title>
<path fill="none" stroke="midnightblue" d="M1407.6,-194.48C1296.99,-188.11 1098.94,-174.9 930.5,-154 752.92,-131.96 709.76,-117.85 533.5,-87 530.72,-86.51 527.88,-86.01 525.02,-85.51"/>
<polygon fill="midnightblue" stroke="midnightblue" points="1407.52,-197.98 1417.7,-195.05 1407.92,-190.99 1407.52,-197.98"/>
</g>
<!-- Node13 -->
<g id="node13" class="node">
<title>Node13</title>
<g id="a_node13"><a xlink:href="../../d7/dfa/calculator__dialog_8cpp.html" target="_top" xlink:title=" ">
<polygon fill="white" stroke="black" points="543,-56.5 543,-86.5 684,-86.5 684,-56.5 543,-56.5"/>
<text text-anchor="start" x="551" y="-74.5" font-family="Helvetica,sans-Serif" font-size="10.00">src/app/seamly2d/dialogs</text>
<text text-anchor="middle" x="613.5" y="-63.5" font-family="Helvetica,sans-Serif" font-size="10.00">/calculator_dialog.cpp</text>
</a>
</g>
</g>
<!-- Node1&#45;&gt;Node13 -->
<g id="edge28" class="edge">
<title>Node1&#45;&gt;Node13</title>
<path fill="none" stroke="midnightblue" d="M1415.55,-189.22C1272.15,-170.99 956.98,-129.74 692.5,-87 689.75,-86.56 686.94,-86.09 684.11,-85.61"/>
<polygon fill="midnightblue" stroke="midnightblue" points="1415.21,-192.71 1425.58,-190.5 1416.1,-185.76 1415.21,-192.71"/>
</g>
<!-- Node16 -->
<g id="node16" class="node">
<title>Node16</title>
<g id="a_node16"><a xlink:href="../../dd/d54/export__layout__dialog_8cpp.html" target="_top" xlink:title=" ">
<polygon fill="white" stroke="black" points="3685,-56.5 3685,-86.5 3828,-86.5 3828,-56.5 3685,-56.5"/>
<text text-anchor="start" x="3693" y="-74.5" font-family="Helvetica,sans-Serif" font-size="10.00">src/app/seamly2d/dialogs</text>
<text text-anchor="middle" x="3756.5" y="-63.5" font-family="Helvetica,sans-Serif" font-size="10.00">/export_layout_dialog.cpp</text>
</a>
</g>
</g>
<!-- Node1&#45;&gt;Node16 -->
<g id="edge33" class="edge">
<title>Node1&#45;&gt;Node16</title>
<path fill="none" stroke="midnightblue" d="M1579.58,-198.14C1872.95,-194.46 2860.47,-175.82 3670.5,-87 3675.17,-86.49 3679.96,-85.89 3684.79,-85.23"/>
<polygon fill="midnightblue" stroke="midnightblue" points="1579.39,-194.65 1569.43,-198.27 1579.48,-201.64 1579.39,-194.65"/>
</g>
<!-- Node25 -->
<g id="node25" class="node">
<title>Node25</title>
<g id="a_node25"><a xlink:href="../../d8/dd9/mainwindow_8cpp.html" target="_top" xlink:title=" ">
<polygon fill="white" stroke="black" points="3995.5,-0.5 3995.5,-19.5 4183.5,-19.5 4183.5,-0.5 3995.5,-0.5"/>
<text text-anchor="middle" x="4089.5" y="-7.5" font-family="Helvetica,sans-Serif" font-size="10.00">src/app/seamly2d/mainwindow.cpp</text>
</a>
</g>
</g>
<!-- Node1&#45;&gt;Node25 -->
<g id="edge34" class="edge">
<title>Node1&#45;&gt;Node25</title>
<path fill="none" stroke="midnightblue" d="M1579.32,-199.33C1992,-200.64 3762.34,-203.34 4003.5,-154 4081.04,-138.13 4124.3,-152.66 4168.5,-87 4176.19,-75.57 4175.42,-67.91 4168.5,-56 4157.95,-37.85 4137.04,-26.41 4119.38,-19.61"/>
<polygon fill="midnightblue" stroke="midnightblue" points="1579.26,-195.83 1569.25,-199.29 1579.23,-202.83 1579.26,-195.83"/>
</g>
<!-- Node26 -->
<g id="node26" class="node">
<title>Node26</title>
<g id="a_node26"><a xlink:href="../../d5/d4e/dialogpatternproperties_8h.html" target="_top" xlink:title=" ">
<polygon fill="white" stroke="black" points="3852,-123.5 3852,-153.5 3995,-153.5 3995,-123.5 3852,-123.5"/>
<text text-anchor="start" x="3860" y="-141.5" font-family="Helvetica,sans-Serif" font-size="10.00">src/app/seamly2d/dialogs</text>
<text text-anchor="middle" x="3923.5" y="-130.5" font-family="Helvetica,sans-Serif" font-size="10.00">/dialogpatternproperties.h</text>
</a>
</g>
</g>
<!-- Node1&#45;&gt;Node26 -->
<g id="edge29" class="edge">
<title>Node1&#45;&gt;Node26</title>
<path fill="none" stroke="midnightblue" d="M1579.38,-196.9C1961.13,-187.55 3500.89,-149.85 3851.99,-141.25"/>
<polygon fill="midnightblue" stroke="midnightblue" points="1579.14,-193.4 1569.23,-197.15 1579.31,-200.4 1579.14,-193.4"/>
</g>
<!-- Node3 -->
<g id="node3" class="node">
<title>Node3</title>
<g id="a_node3"><a xlink:href="../../df/d3e/application__2d_8cpp.html" target="_top" xlink:title=" ">
<polygon fill="white" stroke="black" points="2211,-56.5 2211,-86.5 2338,-86.5 2338,-56.5 2211,-56.5"/>
<text text-anchor="start" x="2219" y="-74.5" font-family="Helvetica,sans-Serif" font-size="10.00">src/app/seamly2d/core</text>
<text text-anchor="middle" x="2274.5" y="-63.5" font-family="Helvetica,sans-Serif" font-size="10.00">/application_2d.cpp</text>
</a>
</g>
</g>
<!-- Node2&#45;&gt;Node3 -->
<g id="edge2" class="edge">
<title>Node2&#45;&gt;Node3</title>
<path fill="none" stroke="midnightblue" d="M1887.44,-129.36C1965.67,-120.4 2092.6,-104.88 2201.5,-87 2204.56,-86.5 2207.69,-85.96 2210.84,-85.4"/>
<polygon fill="midnightblue" stroke="midnightblue" points="1886.74,-125.92 1877.2,-130.53 1887.53,-132.87 1886.74,-125.92"/>
</g>
<!-- Node4 -->
<g id="node4" class="node">
<title>Node4</title>
<g id="a_node4"><a xlink:href="../../dd/db4/abstractlayout__dialog_8cpp.html" target="_top" xlink:title=" ">
<polygon fill="white" stroke="black" points="2356.5,-56.5 2356.5,-86.5 2502.5,-86.5 2502.5,-56.5 2356.5,-56.5"/>
<text text-anchor="start" x="2364.5" y="-74.5" font-family="Helvetica,sans-Serif" font-size="10.00">src/app/seamly2d/dialogs</text>
<text text-anchor="middle" x="2429.5" y="-63.5" font-family="Helvetica,sans-Serif" font-size="10.00">/abstractlayout_dialog.cpp</text>
</a>
</g>
</g>
<!-- Node2&#45;&gt;Node4 -->
<g id="edge3" class="edge">
<title>Node2&#45;&gt;Node4</title>
<path fill="none" stroke="midnightblue" d="M1887.26,-132.35C1990.32,-124.74 2183.13,-108.98 2346.5,-87 2349.69,-86.57 2352.94,-86.11 2356.23,-85.62"/>
<polygon fill="midnightblue" stroke="midnightblue" points="1886.99,-128.86 1877.27,-133.08 1887.5,-135.84 1886.99,-128.86"/>
</g>
<!-- Node5 -->
<g id="node5" class="node">
<title>Node5</title>
<g id="a_node5"><a xlink:href="../../d2/d2d/preferencesconfigurationpage_8cpp.html" target="_top" xlink:title=" ">
<polygon fill="white" stroke="black" points="2521,-56.5 2521,-86.5 2768,-86.5 2768,-56.5 2521,-56.5"/>
<text text-anchor="start" x="2529" y="-74.5" font-family="Helvetica,sans-Serif" font-size="10.00">src/app/seamly2d/dialogs</text>
<text text-anchor="middle" x="2644.5" y="-63.5" font-family="Helvetica,sans-Serif" font-size="10.00">/configpages/preferencesconfigurationpage.cpp</text>
</a>
</g>
</g>
<!-- Node2&#45;&gt;Node5 -->
<g id="edge4" class="edge">
<title>Node2&#45;&gt;Node5</title>
<path fill="none" stroke="midnightblue" d="M1887.11,-133.06C2014.47,-125.17 2284.13,-107.61 2511.5,-87 2514.62,-86.72 2517.79,-86.42 2520.98,-86.12"/>
<polygon fill="midnightblue" stroke="midnightblue" points="1886.85,-129.57 1877.08,-133.68 1887.28,-136.55 1886.85,-129.57"/>
</g>
<!-- Node6 -->
<g id="node6" class="node">
<title>Node6</title>
<g id="a_node6"><a xlink:href="../../d9/d70/preferencesgraphicsviewpage_8cpp.html" target="_top" xlink:title=" ">
<polygon fill="white" stroke="black" points="2786.5,-56.5 2786.5,-86.5 3034.5,-86.5 3034.5,-56.5 2786.5,-56.5"/>
<text text-anchor="start" x="2794.5" y="-74.5" font-family="Helvetica,sans-Serif" font-size="10.00">src/app/seamly2d/dialogs</text>
<text text-anchor="middle" x="2910.5" y="-63.5" font-family="Helvetica,sans-Serif" font-size="10.00">/configpages/preferencesgraphicsviewpage.cpp</text>
</a>
</g>
</g>
<!-- Node2&#45;&gt;Node6 -->
<g id="edge5" class="edge">
<title>Node2&#45;&gt;Node6</title>
<path fill="none" stroke="midnightblue" d="M1887.55,-135.02C2049.13,-129.29 2445.42,-113.57 2776.5,-87 2779.77,-86.74 2783.07,-86.46 2786.41,-86.17"/>
<polygon fill="midnightblue" stroke="midnightblue" points="1887.12,-131.53 1877.25,-135.38 1887.36,-138.52 1887.12,-131.53"/>
</g>
<!-- Node2&#45;&gt;Node7 -->
<g id="edge6" class="edge">
<title>Node2&#45;&gt;Node7</title>
<path fill="none" stroke="midnightblue" d="M1739.57,-137.75C1511.76,-137.96 800.4,-134.48 213.5,-87 210.79,-86.78 208.04,-86.54 205.27,-86.29"/>
<polygon fill="midnightblue" stroke="midnightblue" points="1739.74,-141.25 1749.73,-137.74 1739.73,-134.25 1739.74,-141.25"/>
</g>
<!-- Node8 -->
<g id="node8" class="node">
<title>Node8</title>
<g id="a_node8"><a xlink:href="../../dd/dc2/decimalchart__dialog_8cpp.html" target="_top" xlink:title=" ">
<polygon fill="white" stroke="black" points="3053,-56.5 3053,-86.5 3194,-86.5 3194,-56.5 3053,-56.5"/>
<text text-anchor="start" x="3061" y="-74.5" font-family="Helvetica,sans-Serif" font-size="10.00">src/app/seamly2d/dialogs</text>
<text text-anchor="middle" x="3123.5" y="-63.5" font-family="Helvetica,sans-Serif" font-size="10.00">/decimalchart_dialog.cpp</text>
</a>
</g>
</g>
<!-- Node2&#45;&gt;Node8 -->
<g id="edge7" class="edge">
<title>Node2&#45;&gt;Node8</title>
<path fill="none" stroke="midnightblue" d="M1887.33,-138.02C2078.84,-138.59 2607.03,-135.28 3043.5,-87 3046.59,-86.66 3049.73,-86.27 3052.91,-85.84"/>
<polygon fill="midnightblue" stroke="midnightblue" points="1887.12,-134.52 1877.11,-137.98 1887.09,-141.52 1887.12,-134.52"/>
</g>
<!-- Node9 -->
<g id="node9" class="node">
<title>Node9</title>
<g id="a_node9"><a xlink:href="../../d2/d00/vtooloptionspropertybrowser_8cpp.html" target="_top" xlink:title=" ">
<polygon fill="white" stroke="black" points="3212.5,-56.5 3212.5,-86.5 3392.5,-86.5 3392.5,-56.5 3212.5,-56.5"/>
<text text-anchor="start" x="3220.5" y="-74.5" font-family="Helvetica,sans-Serif" font-size="10.00">src/app/seamly2d/core</text>
<text text-anchor="middle" x="3302.5" y="-63.5" font-family="Helvetica,sans-Serif" font-size="10.00">/vtooloptionspropertybrowser.cpp</text>
</a>
</g>
</g>
<!-- Node2&#45;&gt;Node9 -->
<g id="edge8" class="edge">
<title>Node2&#45;&gt;Node9</title>
<path fill="none" stroke="midnightblue" d="M1887.52,-137.61C2095.3,-137.31 2701.47,-132.3 3202.5,-87 3205.73,-86.71 3209.02,-86.38 3212.34,-86.03"/>
<polygon fill="midnightblue" stroke="midnightblue" points="1887.34,-134.11 1877.34,-137.62 1887.34,-141.11 1887.34,-134.11"/>
</g>
<!-- Node10 -->
<g id="node10" class="node">
<title>Node10</title>
<g id="a_node10"><a xlink:href="../../dc/d63/preferencespatternpage_8cpp.html" target="_top" xlink:title=" ">
<polygon fill="white" stroke="black" points="3410.5,-56.5 3410.5,-86.5 3628.5,-86.5 3628.5,-56.5 3410.5,-56.5"/>
<text text-anchor="start" x="3418.5" y="-74.5" font-family="Helvetica,sans-Serif" font-size="10.00">src/app/seamly2d/dialogs</text>
<text text-anchor="middle" x="3519.5" y="-63.5" font-family="Helvetica,sans-Serif" font-size="10.00">/configpages/preferencespatternpage.cpp</text>
</a>
</g>
</g>
<!-- Node2&#45;&gt;Node10 -->
<g id="edge9" class="edge">
<title>Node2&#45;&gt;Node10</title>
<path fill="none" stroke="midnightblue" d="M1887.25,-137.52C2113.74,-137.09 2819.17,-131.95 3401.5,-87 3404.38,-86.78 3407.3,-86.54 3410.24,-86.28"/>
<polygon fill="midnightblue" stroke="midnightblue" points="1887.14,-134.02 1877.15,-137.54 1887.16,-141.02 1887.14,-134.02"/>
</g>
<!-- Node2&#45;&gt;Node11 -->
<g id="edge10" class="edge">
<title>Node2&#45;&gt;Node11</title>
<path fill="none" stroke="midnightblue" d="M1739.53,-136.34C1484.33,-132.12 641.58,-116.25 372.5,-87 369.73,-86.7 366.91,-86.36 364.06,-85.98"/>
<polygon fill="midnightblue" stroke="midnightblue" points="1739.75,-139.85 1749.8,-136.51 1739.86,-132.85 1739.75,-139.85"/>
</g>
<!-- Node2&#45;&gt;Node12 -->
<g id="edge11" class="edge">
<title>Node2&#45;&gt;Node12</title>
<path fill="none" stroke="midnightblue" d="M1739.44,-138.19C1542.53,-139.24 989.85,-137.11 533.5,-87 530.83,-86.71 528.12,-86.38 525.39,-86.02"/>
<polygon fill="midnightblue" stroke="midnightblue" points="1739.69,-141.69 1749.67,-138.13 1739.65,-134.69 1739.69,-141.69"/>
</g>
<!-- Node2&#45;&gt;Node13 -->
<g id="edge12" class="edge">
<title>Node2&#45;&gt;Node13</title>
<path fill="none" stroke="midnightblue" d="M1739.61,-137.65C1559.78,-137.26 1085.32,-131.69 692.5,-87 689.73,-86.68 686.91,-86.33 684.06,-85.94"/>
<polygon fill="midnightblue" stroke="midnightblue" points="1739.74,-141.15 1749.74,-137.67 1739.75,-134.15 1739.74,-141.15"/>
</g>
<!-- Node14 -->
<g id="node14" class="node">
<title>Node14</title>
<g id="a_node14"><a xlink:href="../../d5/d18/dialogpatternproperties_8cpp.html" target="_top" xlink:title=" ">
<polygon fill="white" stroke="black" points="3846,-56.5 3846,-86.5 4001,-86.5 4001,-56.5 3846,-56.5"/>
<text text-anchor="start" x="3854" y="-74.5" font-family="Helvetica,sans-Serif" font-size="10.00">src/app/seamly2d/dialogs</text>
<text text-anchor="middle" x="3923.5" y="-63.5" font-family="Helvetica,sans-Serif" font-size="10.00">/dialogpatternproperties.cpp</text>
</a>
</g>
</g>
<!-- Node2&#45;&gt;Node14 -->
<g id="edge13" class="edge">
<title>Node2&#45;&gt;Node14</title>
<path fill="none" stroke="midnightblue" d="M1887.43,-137.04C2204.03,-134.88 3447.03,-124.13 3836.5,-87 3839.55,-86.71 3842.65,-86.38 3845.78,-86.01"/>
<polygon fill="midnightblue" stroke="midnightblue" points="1886.98,-133.55 1877,-137.11 1887.03,-140.55 1886.98,-133.55"/>
</g>
<!-- Node15 -->
<g id="node15" class="node">
<title>Node15</title>
<g id="a_node15"><a xlink:href="../../d5/dc5/dialogpreferences_8cpp.html" target="_top" xlink:title=" ">
<polygon fill="white" stroke="black" points="702,-56.5 702,-86.5 843,-86.5 843,-56.5 702,-56.5"/>
<text text-anchor="start" x="710" y="-74.5" font-family="Helvetica,sans-Serif" font-size="10.00">src/app/seamly2d/dialogs</text>
<text text-anchor="middle" x="772.5" y="-63.5" font-family="Helvetica,sans-Serif" font-size="10.00">/dialogpreferences.cpp</text>
</a>
</g>
</g>
<!-- Node2&#45;&gt;Node15 -->
<g id="edge14" class="edge">
<title>Node2&#45;&gt;Node15</title>
<path fill="none" stroke="midnightblue" d="M1739.65,-136.87C1578.06,-134.77 1181.24,-125.75 851.5,-87 848.73,-86.67 845.91,-86.31 843.07,-85.92"/>
<polygon fill="midnightblue" stroke="midnightblue" points="1739.9,-140.37 1749.95,-136.99 1739.99,-133.37 1739.9,-140.37"/>
</g>
<!-- Node2&#45;&gt;Node16 -->
<g id="edge15" class="edge">
<title>Node2&#45;&gt;Node16</title>
<path fill="none" stroke="midnightblue" d="M1887.24,-136.11C2210.12,-129.92 3491.19,-104.47 3670.5,-87 3675.17,-86.54 3679.97,-85.99 3684.8,-85.36"/>
<polygon fill="midnightblue" stroke="midnightblue" points="1886.99,-132.61 1877.06,-136.3 1887.13,-139.61 1886.99,-132.61"/>
</g>
<!-- Node17 -->
<g id="node17" class="node">
<title>Node17</title>
<g id="a_node17"><a xlink:href="../../d0/dfa/layoutsettings__dialog_8cpp.html" target="_top" xlink:title=" ">
<polygon fill="white" stroke="black" points="861,-56.5 861,-86.5 1006,-86.5 1006,-56.5 861,-56.5"/>
<text text-anchor="start" x="869" y="-74.5" font-family="Helvetica,sans-Serif" font-size="10.00">src/app/seamly2d/dialogs</text>
<text text-anchor="middle" x="933.5" y="-63.5" font-family="Helvetica,sans-Serif" font-size="10.00">/layoutsettings_dialog.cpp</text>
</a>
</g>
</g>
<!-- Node2&#45;&gt;Node17 -->
<g id="edge16" class="edge">
<title>Node2&#45;&gt;Node17</title>
<path fill="none" stroke="midnightblue" d="M1739.56,-135.64C1598.25,-131.47 1280.21,-119.07 1014.5,-87 1011.81,-86.67 1009.06,-86.32 1006.3,-85.94"/>
<polygon fill="midnightblue" stroke="midnightblue" points="1739.74,-139.15 1749.84,-135.94 1739.94,-132.15 1739.74,-139.15"/>
</g>
<!-- Node18 -->
<g id="node18" class="node">
<title>Node18</title>
<g id="a_node18"><a xlink:href="../../db/d5c/groups__widget_8cpp.html" target="_top" xlink:title=" ">
<polygon fill="white" stroke="black" points="1024,-56.5 1024,-86.5 1165,-86.5 1165,-56.5 1024,-56.5"/>
<text text-anchor="start" x="1032" y="-74.5" font-family="Helvetica,sans-Serif" font-size="10.00">src/app/seamly2d/dialogs</text>
<text text-anchor="middle" x="1094.5" y="-63.5" font-family="Helvetica,sans-Serif" font-size="10.00">/groups_widget.cpp</text>
</a>
</g>
</g>
<!-- Node2&#45;&gt;Node18 -->
<g id="edge17" class="edge">
<title>Node2&#45;&gt;Node18</title>
<path fill="none" stroke="midnightblue" d="M1739.56,-134.14C1620.13,-128.15 1377.53,-113.7 1173.5,-87 1170.73,-86.64 1167.92,-86.24 1165.08,-85.83"/>
<polygon fill="midnightblue" stroke="midnightblue" points="1739.53,-137.64 1749.69,-134.64 1739.87,-130.65 1739.53,-137.64"/>
</g>
<!-- Node19 -->
<g id="node19" class="node">
<title>Node19</title>
<g id="a_node19"><a xlink:href="../../d2/df4/show__info__dialog_8cpp.html" target="_top" xlink:title=" ">
<polygon fill="white" stroke="black" points="1183,-56.5 1183,-86.5 1324,-86.5 1324,-56.5 1183,-56.5"/>
<text text-anchor="start" x="1191" y="-74.5" font-family="Helvetica,sans-Serif" font-size="10.00">src/app/seamly2d/dialogs</text>
<text text-anchor="middle" x="1253.5" y="-63.5" font-family="Helvetica,sans-Serif" font-size="10.00">/show_info_dialog.cpp</text>
</a>
</g>
</g>
<!-- Node2&#45;&gt;Node19 -->
<g id="edge18" class="edge">
<title>Node2&#45;&gt;Node19</title>
<path fill="none" stroke="midnightblue" d="M1739.86,-131.54C1645.29,-123.48 1476.23,-107.7 1332.5,-87 1329.74,-86.6 1326.93,-86.18 1324.09,-85.73"/>
<polygon fill="midnightblue" stroke="midnightblue" points="1739.63,-135.03 1749.89,-132.39 1740.22,-128.06 1739.63,-135.03"/>
</g>
<!-- Node20 -->
<g id="node20" class="node">
<title>Node20</title>
<g id="a_node20"><a xlink:href="../../dd/d84/shortcuts__dialog_8cpp.html" target="_top" xlink:title=" ">
<polygon fill="white" stroke="black" points="1342,-56.5 1342,-86.5 1483,-86.5 1483,-56.5 1342,-56.5"/>
<text text-anchor="start" x="1350" y="-74.5" font-family="Helvetica,sans-Serif" font-size="10.00">src/app/seamly2d/dialogs</text>
<text text-anchor="middle" x="1412.5" y="-63.5" font-family="Helvetica,sans-Serif" font-size="10.00">/shortcuts_dialog.cpp</text>
</a>
</g>
</g>
<!-- Node2&#45;&gt;Node20 -->
<g id="edge19" class="edge">
<title>Node2&#45;&gt;Node20</title>
<path fill="none" stroke="midnightblue" d="M1739.68,-126.48C1674.36,-116.6 1576.49,-101.46 1491.5,-87 1488.75,-86.53 1485.95,-86.05 1483.12,-85.56"/>
<polygon fill="midnightblue" stroke="midnightblue" points="1739.47,-129.99 1749.88,-128.02 1740.52,-123.07 1739.47,-129.99"/>
</g>
<!-- Node21 -->
<g id="node21" class="node">
<title>Node21</title>
<g id="a_node21"><a xlink:href="../../df/d69/welcome__dialog_8cpp.html" target="_top" xlink:title=" ">
<polygon fill="white" stroke="black" points="1501,-56.5 1501,-86.5 1642,-86.5 1642,-56.5 1501,-56.5"/>
<text text-anchor="start" x="1509" y="-74.5" font-family="Helvetica,sans-Serif" font-size="10.00">src/app/seamly2d/dialogs</text>
<text text-anchor="middle" x="1571.5" y="-63.5" font-family="Helvetica,sans-Serif" font-size="10.00">/welcome_dialog.cpp</text>
</a>
</g>
</g>
<!-- Node2&#45;&gt;Node21 -->
<g id="edge20" class="edge">
<title>Node2&#45;&gt;Node21</title>
<path fill="none" stroke="midnightblue" d="M1751.51,-120.85C1712.05,-110.25 1661.51,-96.68 1624.04,-86.61"/>
<polygon fill="midnightblue" stroke="midnightblue" points="1750.72,-124.26 1761.29,-123.48 1752.54,-117.5 1750.72,-124.26"/>
</g>
<!-- Node22 -->
<g id="node22" class="node">
<title>Node22</title>
<g id="a_node22"><a xlink:href="../../dc/d14/app_2seamly2d_2main_8cpp.html" target="_top" xlink:title=" ">
<polygon fill="white" stroke="black" points="1660,-62 1660,-81 1811,-81 1811,-62 1660,-62"/>
<text text-anchor="middle" x="1735.5" y="-69" font-family="Helvetica,sans-Serif" font-size="10.00">src/app/seamly2d/main.cpp</text>
</a>
</g>
</g>
<!-- Node2&#45;&gt;Node22 -->
<g id="edge21" class="edge">
<title>Node2&#45;&gt;Node22</title>
<path fill="none" stroke="midnightblue" d="M1788.51,-116.67C1774.1,-104.67 1756.76,-90.22 1745.93,-81.19"/>
<polygon fill="midnightblue" stroke="midnightblue" points="1786.65,-119.68 1796.58,-123.4 1791.13,-114.31 1786.65,-119.68"/>
</g>
<!-- Node23 -->
<g id="node23" class="node">
<title>Node23</title>
<g id="a_node23"><a xlink:href="../../d3/d49/vpattern_8cpp.html" target="_top" xlink:title=" ">
<polygon fill="white" stroke="black" points="1829,-56.5 1829,-86.5 1954,-86.5 1954,-56.5 1829,-56.5"/>
<text text-anchor="start" x="1837" y="-74.5" font-family="Helvetica,sans-Serif" font-size="10.00">src/app/seamly2d/xml</text>
<text text-anchor="middle" x="1891.5" y="-63.5" font-family="Helvetica,sans-Serif" font-size="10.00">/vpattern.cpp</text>
</a>
</g>
</g>
<!-- Node2&#45;&gt;Node23 -->
<g id="edge22" class="edge">
<title>Node2&#45;&gt;Node23</title>
<path fill="none" stroke="midnightblue" d="M1838.24,-116.88C1850.09,-107.01 1863.98,-95.43 1874.61,-86.58"/>
<polygon fill="midnightblue" stroke="midnightblue" points="1835.87,-114.31 1830.42,-123.4 1840.35,-119.68 1835.87,-114.31"/>
</g>
<!-- Node24 -->
<g id="node24" class="node">
<title>Node24</title>
<g id="a_node24"><a xlink:href="../../d8/de8/mainwindowsnogui_8cpp.html" target="_top" xlink:title=" ">
<polygon fill="white" stroke="black" points="1972,-62 1972,-81 2193,-81 2193,-62 1972,-62"/>
<text text-anchor="middle" x="2082.5" y="-69" font-family="Helvetica,sans-Serif" font-size="10.00">src/app/seamly2d/mainwindowsnogui.cpp</text>
</a>
</g>
</g>
<!-- Node2&#45;&gt;Node24 -->
<g id="edge23" class="edge">
<title>Node2&#45;&gt;Node24</title>
<path fill="none" stroke="midnightblue" d="M1881.5,-121.07C1934.25,-108.32 2005.24,-91.17 2047.2,-81.03"/>
<polygon fill="midnightblue" stroke="midnightblue" points="1880.44,-117.73 1871.54,-123.48 1882.08,-124.53 1880.44,-117.73"/>
</g>
<!-- Node2&#45;&gt;Node25 -->
<g id="edge24" class="edge">
<title>Node2&#45;&gt;Node25</title>
<path fill="none" stroke="midnightblue" d="M1887.68,-136.78C2219.42,-133.4 3554.34,-117.92 3637.5,-87 3657.93,-79.4 3655.39,-64.41 3675.5,-56 3731.36,-32.63 3891.36,-20.58 3995.3,-15.04"/>
<polygon fill="midnightblue" stroke="midnightblue" points="1887.2,-133.29 1877.23,-136.89 1887.27,-140.29 1887.2,-133.29"/>
</g>
<!-- Node26&#45;&gt;Node14 -->
<g id="edge30" class="edge">
<title>Node26&#45;&gt;Node14</title>
<path fill="none" stroke="midnightblue" d="M3923.5,-113.11C3923.5,-104.15 3923.5,-94.32 3923.5,-86.58"/>
<polygon fill="midnightblue" stroke="midnightblue" points="3920,-113.4 3923.5,-123.4 3927,-113.4 3920,-113.4"/>
</g>
<!-- Node27 -->
<g id="node27" class="node">
<title>Node27</title>
<g id="a_node27"><a xlink:href="../../d6/d64/dialogs_8h.html" target="_top" xlink:title=" ">
<polygon fill="white" stroke="black" points="4019,-56.5 4019,-86.5 4160,-86.5 4160,-56.5 4019,-56.5"/>
<text text-anchor="start" x="4027" y="-74.5" font-family="Helvetica,sans-Serif" font-size="10.00">src/app/seamly2d/dialogs</text>
<text text-anchor="middle" x="4089.5" y="-63.5" font-family="Helvetica,sans-Serif" font-size="10.00">/dialogs.h</text>
</a>
</g>
</g>
<!-- Node26&#45;&gt;Node27 -->
<g id="edge31" class="edge">
<title>Node26&#45;&gt;Node27</title>
<path fill="none" stroke="midnightblue" d="M3969.01,-119.68C3995.63,-109.26 4028.77,-96.28 4053.55,-86.58"/>
<polygon fill="midnightblue" stroke="midnightblue" points="3967.55,-116.49 3959.52,-123.4 3970.11,-123.01 3967.55,-116.49"/>
</g>
<!-- Node27&#45;&gt;Node25 -->
<g id="edge32" class="edge">
<title>Node27&#45;&gt;Node25</title>
<path fill="none" stroke="midnightblue" d="M4089.5,-46.29C4089.5,-36.86 4089.5,-26.65 4089.5,-19.66"/>
<polygon fill="midnightblue" stroke="midnightblue" points="4086,-46.4 4089.5,-56.4 4093,-46.4 4086,-46.4"/>
</g>
</g>
</svg>
        <g id="navigator" transform="translate(0 0)" fill="#404254">
                <rect fill="#f2f5e9" fill-opacity="0.5" stroke="#606060" stroke-width=".5" x="0" y="0" width="60" height="60"/>
                <use id="zoomplus" xlink:href="#zoomPlus" x="17" y="9" onmousedown="handleZoom(evt,'in')"/>
                <use id="zoomminus" xlink:href="#zoomMin" x="42" y="9" onmousedown="handleZoom(evt,'out')"/>
                <use id="reset" xlink:href="#resetDef" x="30" y="36" onmousedown="handleReset()"/>
                <g id="arrowUp" xlink:href="#dirArrow" transform="translate(30 24)" onmousedown="handlePan(0,-1)">
                  <use xlink:href="#rim" fill="#404040">
                        <set attributeName="fill" to="#808080" begin="arrowUp.mouseover" end="arrowUp.mouseout"/>
                  </use>
                  <path fill="none" stroke="white" stroke-width="1.5" d="M0,-3.0v7 M-2.5,-0.5L0,-3.0L2.5,-0.5"/>
                </g>
                <g id="arrowRight" xlink:href="#dirArrow" transform="rotate(90) translate(36 -43)" onmousedown="handlePan(1,0)">
                  <use xlink:href="#rim" fill="#404040">
                        <set attributeName="fill" to="#808080" begin="arrowRight.mouseover" end="arrowRight.mouseout"/>
                  </use>
                  <path fill="none" stroke="white" stroke-width="1.5" d="M0,-3.0v7 M-2.5,-0.5L0,-3.0L2.5,-0.5"/>
                </g>
                <g id="arrowDown" xlink:href="#dirArrow" transform="rotate(180) translate(-30 -48)" onmousedown="handlePan(0,1)">
                  <use xlink:href="#rim" fill="#404040">
                        <set attributeName="fill" to="#808080" begin="arrowDown.mouseover" end="arrowDown.mouseout"/>
                  </use>
                  <path fill="none" stroke="white" stroke-width="1.5" d="M0,-3.0v7 M-2.5,-0.5L0,-3.0L2.5,-0.5"/>
                </g>
                <g id="arrowLeft" xlink:href="#dirArrow" transform="rotate(270) translate(-36 17)" onmousedown="handlePan(-1,0)">
                  <use xlink:href="#rim" fill="#404040">
                        <set attributeName="fill" to="#808080" begin="arrowLeft.mouseover" end="arrowLeft.mouseout"/>
                  </use>
                  <path fill="none" stroke="white" stroke-width="1.5" d="M0,-3.0v7 M-2.5,-0.5L0,-3.0L2.5,-0.5"/>
                </g>
        </g>
        <svg viewBox="0 0 15 15" width="100%" height="30px" preserveAspectRatio="xMaxYMin meet">
         <g id="arrow_out" transform="scale(0.3 0.3)">
          <a xlink:href="options_8h__dep__incl_org.svg" target="_base">
           <rect id="button" ry="5" rx="5" y="6" x="6" height="38" width="38"
                fill="#f2f5e9" fill-opacity="0.5" stroke="#606060" stroke-width="1.0"/>
           <path id="arrow"
             d="M 11.500037,31.436501 C 11.940474,20.09759 22.043105,11.32322 32.158766,21.979434 L 37.068811,17.246167 C 37.068811,17.246167 37.088388,32 37.088388,32 L 22.160133,31.978069 C 22.160133,31.978069 26.997745,27.140456 26.997745,27.140456 C 18.528582,18.264221 13.291696,25.230495 11.500037,31.436501 z"
             style="fill:#404040;"/>
          </a>
         </g>
        </svg>
</svg>
