<?xml version="1.0" encoding="UTF-8" standalone="no"?>
<!DOCTYPE svg PUBLIC "-//W3C//DTD SVG 1.1//EN"
 "http://www.w3.org/Graphics/SVG/1.1/DTD/svg11.dtd">
<!-- Generated by graphviz version 2.43.0 (0)
 -->
<!-- Title: src/app/seamly2d/options.h Pages: 1 -->
<svg width="4194pt" height="218pt"
 viewBox="0.00 0.00 4193.50 218.00" xmlns="http://www.w3.org/2000/svg" xmlns:xlink="http://www.w3.org/1999/xlink">
<g id="graph0" class="graph" transform="scale(1 1) rotate(0) translate(4 214)">
<title>src/app/seamly2d/options.h</title>
<polygon fill="white" stroke="transparent" points="-4,4 -4,-214 4189.5,-214 4189.5,4 -4,4"/>
<!-- Node1 -->
<g id="node1" class="node">
<title>Node1</title>
<g id="a_node1"><a xlink:title=" ">
<polygon fill="#bfbfbf" stroke="black" points="1505,-190.5 1505,-209.5 1656,-209.5 1656,-190.5 1505,-190.5"/>
<text text-anchor="middle" x="1580.5" y="-197.5" font-family="Helvetica,sans-Serif" font-size="10.00">src/app/seamly2d/options.h</text>
</a>
</g>
</g>
<!-- Node2 -->
<g id="node2" class="node">
<title>Node2</title>
<g id="a_node2"><a xlink:href="../../d7/d61/application__2d_8h.html" target="_top" xlink:title=" ">
<polygon fill="white" stroke="black" points="1867,-123.5 1867,-153.5 1994,-153.5 1994,-123.5 1867,-123.5"/>
<text text-anchor="start" x="1875" y="-141.5" font-family="Helvetica,sans-Serif" font-size="10.00">src/app/seamly2d/core</text>
<text text-anchor="middle" x="1930.5" y="-130.5" font-family="Helvetica,sans-Serif" font-size="10.00">/application_2d.h</text>
</a>
</g>
</g>
<!-- Node1&#45;&gt;Node2 -->
<g id="edge1" class="edge">
<title>Node1&#45;&gt;Node2</title>
<path fill="none" stroke="midnightblue" d="M1640.84,-188.74C1703.92,-178.02 1802.49,-161.26 1866.8,-150.33"/>
<polygon fill="midnightblue" stroke="midnightblue" points="1639.92,-185.35 1630.65,-190.48 1641.09,-192.25 1639.92,-185.35"/>
</g>
<!-- Node7 -->
<g id="node7" class="node">
<title>Node7</title>
<g id="a_node7"><a xlink:href="../../d7/dfa/calculator__dialog_8cpp.html" target="_top" xlink:title=" ">
<polygon fill="white" stroke="black" points="0,-56.5 0,-86.5 141,-86.5 141,-56.5 0,-56.5"/>
<text text-anchor="start" x="8" y="-74.5" font-family="Helvetica,sans-Serif" font-size="10.00">src/app/seamly2d/dialogs</text>
<text text-anchor="middle" x="70.5" y="-63.5" font-family="Helvetica,sans-Serif" font-size="10.00">/calculator_dialog.cpp</text>
</a>
</g>
</g>
<!-- Node1&#45;&gt;Node7 -->
<g id="edge25" class="edge">
<title>Node1&#45;&gt;Node7</title>
<path fill="none" stroke="midnightblue" d="M1494.71,-199.11C1315.33,-198.51 887.7,-192.71 531.5,-154 388.48,-138.46 222.85,-105.45 134.25,-86.55"/>
<polygon fill="midnightblue" stroke="midnightblue" points="1494.87,-202.61 1504.88,-199.14 1494.89,-195.61 1494.87,-202.61"/>
</g>
<!-- Node9 -->
<g id="node9" class="node">
<title>Node9</title>
<g id="a_node9"><a xlink:href="../../dc/d20/preferencespathpage_8cpp.html" target="_top" xlink:title=" ">
<polygon fill="white" stroke="black" points="159,-56.5 159,-86.5 364,-86.5 364,-56.5 159,-56.5"/>
<text text-anchor="start" x="167" y="-74.5" font-family="Helvetica,sans-Serif" font-size="10.00">src/app/seamly2d/dialogs</text>
<text text-anchor="middle" x="261.5" y="-63.5" font-family="Helvetica,sans-Serif" font-size="10.00">/configpages/preferencespathpage.cpp</text>
</a>
</g>
</g>
<!-- Node1&#45;&gt;Node9 -->
<g id="edge26" class="edge">
<title>Node1&#45;&gt;Node9</title>
<path fill="none" stroke="midnightblue" d="M1494.61,-197.48C1343.66,-194.11 1021.13,-183.8 750.5,-154 599.93,-137.42 425.27,-105.12 330.8,-86.55"/>
<polygon fill="midnightblue" stroke="midnightblue" points="1494.67,-200.98 1504.74,-197.7 1494.82,-193.99 1494.67,-200.98"/>
</g>
<!-- Node11 -->
<g id="node11" class="node">
<title>Node11</title>
<g id="a_node11"><a xlink:href="../../dd/d64/dialogaboutapp_8cpp.html" target="_top" xlink:title=" ">
<polygon fill="white" stroke="black" points="382,-56.5 382,-86.5 523,-86.5 523,-56.5 382,-56.5"/>
<text text-anchor="start" x="390" y="-74.5" font-family="Helvetica,sans-Serif" font-size="10.00">src/app/seamly2d/dialogs</text>
<text text-anchor="middle" x="452.5" y="-63.5" font-family="Helvetica,sans-Serif" font-size="10.00">/dialogaboutapp.cpp</text>
</a>
</g>
</g>
<!-- Node1&#45;&gt;Node11 -->
<g id="edge27" class="edge">
<title>Node1&#45;&gt;Node11</title>
<path fill="none" stroke="midnightblue" d="M1494.29,-195.06C1373.86,-189.04 1148.55,-175.88 957.5,-154 862.29,-143.09 625.97,-103.1 531.5,-87 528.75,-86.53 525.95,-86.05 523.12,-85.55"/>
<polygon fill="midnightblue" stroke="midnightblue" points="1494.39,-198.57 1504.55,-195.57 1494.73,-191.58 1494.39,-198.57"/>
</g>
<!-- Node12 -->
<g id="node12" class="node">
<title>Node12</title>
<g id="a_node12"><a xlink:href="../../d6/d89/dialoglayoutprogress_8cpp.html" target="_top" xlink:title=" ">
<polygon fill="white" stroke="black" points="541,-56.5 541,-86.5 684,-86.5 684,-56.5 541,-56.5"/>
<text text-anchor="start" x="549" y="-74.5" font-family="Helvetica,sans-Serif" font-size="10.00">src/app/seamly2d/dialogs</text>
<text text-anchor="middle" x="612.5" y="-63.5" font-family="Helvetica,sans-Serif" font-size="10.00">/dialoglayoutprogress.cpp</text>
</a>
</g>
</g>
<!-- Node1&#45;&gt;Node12 -->
<g id="edge28" class="edge">
<title>Node1&#45;&gt;Node12</title>
<path fill="none" stroke="midnightblue" d="M1494.81,-189.67C1336.28,-172.07 986.66,-131.72 693.5,-87 690.39,-86.53 687.22,-86.03 684.02,-85.51"/>
<polygon fill="midnightblue" stroke="midnightblue" points="1494.65,-193.17 1504.97,-190.79 1495.42,-186.21 1494.65,-193.17"/>
</g>
<!-- Node16 -->
<g id="node16" class="node">
<title>Node16</title>
<g id="a_node16"><a xlink:href="../../dd/d54/export__layout__dialog_8cpp.html" target="_top" xlink:title=" ">
<polygon fill="white" stroke="black" points="3687,-56.5 3687,-86.5 3830,-86.5 3830,-56.5 3687,-56.5"/>
<text text-anchor="start" x="3695" y="-74.5" font-family="Helvetica,sans-Serif" font-size="10.00">src/app/seamly2d/dialogs</text>
<text text-anchor="middle" x="3758.5" y="-63.5" font-family="Helvetica,sans-Serif" font-size="10.00">/export_layout_dialog.cpp</text>
</a>
</g>
</g>
<!-- Node1&#45;&gt;Node16 -->
<g id="edge33" class="edge">
<title>Node1&#45;&gt;Node16</title>
<path fill="none" stroke="midnightblue" d="M1666.57,-197.89C1952.6,-193.46 2897.16,-172.84 3672.5,-87 3677.17,-86.48 3681.96,-85.88 3686.79,-85.22"/>
<polygon fill="midnightblue" stroke="midnightblue" points="1666.22,-194.4 1656.27,-198.05 1666.32,-201.39 1666.22,-194.4"/>
</g>
<!-- Node25 -->
<g id="node25" class="node">
<title>Node25</title>
<g id="a_node25"><a xlink:href="../../d8/dd9/mainwindow_8cpp.html" target="_top" xlink:title=" ">
<polygon fill="white" stroke="black" points="3997.5,-0.5 3997.5,-19.5 4185.5,-19.5 4185.5,-0.5 3997.5,-0.5"/>
<text text-anchor="middle" x="4091.5" y="-7.5" font-family="Helvetica,sans-Serif" font-size="10.00">src/app/seamly2d/mainwindow.cpp</text>
</a>
</g>
</g>
<!-- Node1&#45;&gt;Node25 -->
<g id="edge34" class="edge">
<title>Node1&#45;&gt;Node25</title>
<path fill="none" stroke="midnightblue" d="M1666.36,-199.27C2070.46,-200.27 3773.08,-201.63 4005.5,-154 4083.04,-138.11 4126.3,-152.66 4170.5,-87 4178.19,-75.57 4177.42,-67.91 4170.5,-56 4159.95,-37.85 4139.04,-26.41 4121.38,-19.61"/>
<polygon fill="midnightblue" stroke="midnightblue" points="1666.21,-195.77 1656.2,-199.24 1666.19,-202.77 1666.21,-195.77"/>
</g>
<!-- Node26 -->
<g id="node26" class="node">
<title>Node26</title>
<g id="a_node26"><a xlink:href="../../d5/d4e/dialogpatternproperties_8h.html" target="_top" xlink:title=" ">
<polygon fill="white" stroke="black" points="3854,-123.5 3854,-153.5 3997,-153.5 3997,-123.5 3854,-123.5"/>
<text text-anchor="start" x="3862" y="-141.5" font-family="Helvetica,sans-Serif" font-size="10.00">src/app/seamly2d/dialogs</text>
<text text-anchor="middle" x="3925.5" y="-130.5" font-family="Helvetica,sans-Serif" font-size="10.00">/dialogpatternproperties.h</text>
</a>
</g>
</g>
<!-- Node1&#45;&gt;Node26 -->
<g id="edge29" class="edge">
<title>Node1&#45;&gt;Node26</title>
<path fill="none" stroke="midnightblue" d="M1666.37,-196.82C2038.83,-187.37 3511.2,-150.01 3853.94,-141.32"/>
<polygon fill="midnightblue" stroke="midnightblue" points="1666.1,-193.33 1656.2,-197.08 1666.28,-200.32 1666.1,-193.33"/>
</g>
<!-- Node3 -->
<g id="node3" class="node">
<title>Node3</title>
<g id="a_node3"><a xlink:href="../../df/d3e/application__2d_8cpp.html" target="_top" xlink:title=" ">
<polygon fill="white" stroke="black" points="2647,-56.5 2647,-86.5 2774,-86.5 2774,-56.5 2647,-56.5"/>
<text text-anchor="start" x="2655" y="-74.5" font-family="Helvetica,sans-Serif" font-size="10.00">src/app/seamly2d/core</text>
<text text-anchor="middle" x="2710.5" y="-63.5" font-family="Helvetica,sans-Serif" font-size="10.00">/application_2d.cpp</text>
</a>
</g>
</g>
<!-- Node2&#45;&gt;Node3 -->
<g id="edge2" class="edge">
<title>Node2&#45;&gt;Node3</title>
<path fill="none" stroke="midnightblue" d="M2004.3,-135.26C2133.25,-130.67 2407.73,-117.9 2637.5,-87 2640.57,-86.59 2643.71,-86.12 2646.88,-85.62"/>
<polygon fill="midnightblue" stroke="midnightblue" points="2004.02,-131.77 1994.15,-135.62 2004.26,-138.76 2004.02,-131.77"/>
</g>
<!-- Node4 -->
<g id="node4" class="node">
<title>Node4</title>
<g id="a_node4"><a xlink:href="../../dd/db4/abstractlayout__dialog_8cpp.html" target="_top" xlink:title=" ">
<polygon fill="white" stroke="black" points="2792.5,-56.5 2792.5,-86.5 2938.5,-86.5 2938.5,-56.5 2792.5,-56.5"/>
<text text-anchor="start" x="2800.5" y="-74.5" font-family="Helvetica,sans-Serif" font-size="10.00">src/app/seamly2d/dialogs</text>
<text text-anchor="middle" x="2865.5" y="-63.5" font-family="Helvetica,sans-Serif" font-size="10.00">/abstractlayout_dialog.cpp</text>
</a>
</g>
</g>
<!-- Node2&#45;&gt;Node4 -->
<g id="edge3" class="edge">
<title>Node2&#45;&gt;Node4</title>
<path fill="none" stroke="midnightblue" d="M2004.36,-135.95C2152.43,-132.21 2495.94,-120.41 2782.5,-87 2785.7,-86.63 2788.96,-86.21 2792.25,-85.76"/>
<polygon fill="midnightblue" stroke="midnightblue" points="2003.95,-132.46 1994.04,-136.2 2004.13,-139.45 2003.95,-132.46"/>
</g>
<!-- Node5 -->
<g id="node5" class="node">
<title>Node5</title>
<g id="a_node5"><a xlink:href="../../d2/d2d/preferencesconfigurationpage_8cpp.html" target="_top" xlink:title=" ">
<polygon fill="white" stroke="black" points="2957,-56.5 2957,-86.5 3204,-86.5 3204,-56.5 2957,-56.5"/>
<text text-anchor="start" x="2965" y="-74.5" font-family="Helvetica,sans-Serif" font-size="10.00">src/app/seamly2d/dialogs</text>
<text text-anchor="middle" x="3080.5" y="-63.5" font-family="Helvetica,sans-Serif" font-size="10.00">/configpages/preferencesconfigurationpage.cpp</text>
</a>
</g>
</g>
<!-- Node2&#45;&gt;Node5 -->
<g id="edge4" class="edge">
<title>Node2&#45;&gt;Node5</title>
<path fill="none" stroke="midnightblue" d="M2004.45,-135.32C2172.31,-130.06 2594.94,-114.95 2947.5,-87 2950.63,-86.75 2953.79,-86.49 2956.99,-86.22"/>
<polygon fill="midnightblue" stroke="midnightblue" points="2004.13,-131.83 1994.25,-135.64 2004.35,-138.83 2004.13,-131.83"/>
</g>
<!-- Node6 -->
<g id="node6" class="node">
<title>Node6</title>
<g id="a_node6"><a xlink:href="../../d9/d70/preferencesgraphicsviewpage_8cpp.html" target="_top" xlink:title=" ">
<polygon fill="white" stroke="black" points="3222.5,-56.5 3222.5,-86.5 3470.5,-86.5 3470.5,-56.5 3222.5,-56.5"/>
<text text-anchor="start" x="3230.5" y="-74.5" font-family="Helvetica,sans-Serif" font-size="10.00">src/app/seamly2d/dialogs</text>
<text text-anchor="middle" x="3346.5" y="-63.5" font-family="Helvetica,sans-Serif" font-size="10.00">/configpages/preferencesgraphicsviewpage.cpp</text>
</a>
</g>
</g>
<!-- Node2&#45;&gt;Node6 -->
<g id="edge5" class="edge">
<title>Node2&#45;&gt;Node6</title>
<path fill="none" stroke="midnightblue" d="M2004.5,-136.36C2201.31,-132.93 2753.93,-120.8 3212.5,-87 3215.77,-86.76 3219.08,-86.5 3222.42,-86.23"/>
<polygon fill="midnightblue" stroke="midnightblue" points="2004.22,-132.86 1994.28,-136.53 2004.34,-139.86 2004.22,-132.86"/>
</g>
<!-- Node2&#45;&gt;Node7 -->
<g id="edge6" class="edge">
<title>Node2&#45;&gt;Node7</title>
<path fill="none" stroke="midnightblue" d="M1856.86,-136.92C1564.96,-134.37 488.67,-122.72 149.5,-87 146.73,-86.71 143.9,-86.37 141.06,-86"/>
<polygon fill="midnightblue" stroke="midnightblue" points="1856.88,-140.42 1866.91,-137 1856.94,-133.42 1856.88,-140.42"/>
</g>
<!-- Node8 -->
<g id="node8" class="node">
<title>Node8</title>
<g id="a_node8"><a xlink:href="../../dd/dc2/decimalchart__dialog_8cpp.html" target="_top" xlink:title=" ">
<polygon fill="white" stroke="black" points="3489,-56.5 3489,-86.5 3630,-86.5 3630,-56.5 3489,-56.5"/>
<text text-anchor="start" x="3497" y="-74.5" font-family="Helvetica,sans-Serif" font-size="10.00">src/app/seamly2d/dialogs</text>
<text text-anchor="middle" x="3559.5" y="-63.5" font-family="Helvetica,sans-Serif" font-size="10.00">/decimalchart_dialog.cpp</text>
</a>
</g>
</g>
<!-- Node2&#45;&gt;Node8 -->
<g id="edge7" class="edge">
<title>Node2&#45;&gt;Node8</title>
<path fill="none" stroke="midnightblue" d="M2004.52,-136.53C2272.04,-132.79 3188.24,-117.97 3479.5,-87 3482.59,-86.67 3485.74,-86.29 3488.91,-85.87"/>
<polygon fill="midnightblue" stroke="midnightblue" points="2004.1,-133.03 1994.15,-136.67 2004.2,-140.03 2004.1,-133.03"/>
</g>
<!-- Node2&#45;&gt;Node9 -->
<g id="edge8" class="edge">
<title>Node2&#45;&gt;Node9</title>
<path fill="none" stroke="midnightblue" d="M1856.63,-137.66C1632.77,-137.59 942.38,-133.35 372.5,-87 369.79,-86.78 367.04,-86.54 364.27,-86.28"/>
<polygon fill="midnightblue" stroke="midnightblue" points="1856.93,-141.16 1866.93,-137.66 1856.93,-134.16 1856.93,-141.16"/>
</g>
<!-- Node10 -->
<g id="node10" class="node">
<title>Node10</title>
<g id="a_node10"><a xlink:href="../../dc/d63/preferencespatternpage_8cpp.html" target="_top" xlink:title=" ">
<polygon fill="white" stroke="black" points="702.5,-56.5 702.5,-86.5 920.5,-86.5 920.5,-56.5 702.5,-56.5"/>
<text text-anchor="start" x="710.5" y="-74.5" font-family="Helvetica,sans-Serif" font-size="10.00">src/app/seamly2d/dialogs</text>
<text text-anchor="middle" x="811.5" y="-63.5" font-family="Helvetica,sans-Serif" font-size="10.00">/configpages/preferencespatternpage.cpp</text>
</a>
</g>
</g>
<!-- Node2&#45;&gt;Node10 -->
<g id="edge9" class="edge">
<title>Node2&#45;&gt;Node10</title>
<path fill="none" stroke="midnightblue" d="M1856.77,-135.59C1690.88,-130.91 1275.68,-116.96 929.5,-87 926.62,-86.75 923.7,-86.49 920.76,-86.21"/>
<polygon fill="midnightblue" stroke="midnightblue" points="1856.76,-139.1 1866.86,-135.88 1856.96,-132.1 1856.76,-139.1"/>
</g>
<!-- Node2&#45;&gt;Node11 -->
<g id="edge10" class="edge">
<title>Node2&#45;&gt;Node11</title>
<path fill="none" stroke="midnightblue" d="M1856.56,-136.25C1606.26,-131.8 791.99,-115.45 531.5,-87 528.73,-86.7 525.91,-86.35 523.06,-85.98"/>
<polygon fill="midnightblue" stroke="midnightblue" points="1856.58,-139.75 1866.64,-136.43 1856.7,-132.75 1856.58,-139.75"/>
</g>
<!-- Node2&#45;&gt;Node12 -->
<g id="edge11" class="edge">
<title>Node2&#45;&gt;Node12</title>
<path fill="none" stroke="midnightblue" d="M1856.6,-137.99C1664.31,-138.5 1132.77,-135.06 693.5,-87 690.52,-86.67 687.48,-86.3 684.42,-85.9"/>
<polygon fill="midnightblue" stroke="midnightblue" points="1856.88,-141.49 1866.87,-137.96 1856.86,-134.49 1856.88,-141.49"/>
</g>
<!-- Node13 -->
<g id="node13" class="node">
<title>Node13</title>
<g id="a_node13"><a xlink:href="../../d5/d18/dialogpatternproperties_8cpp.html" target="_top" xlink:title=" ">
<polygon fill="white" stroke="black" points="3848,-56.5 3848,-86.5 4003,-86.5 4003,-56.5 3848,-56.5"/>
<text text-anchor="start" x="3856" y="-74.5" font-family="Helvetica,sans-Serif" font-size="10.00">src/app/seamly2d/dialogs</text>
<text text-anchor="middle" x="3925.5" y="-63.5" font-family="Helvetica,sans-Serif" font-size="10.00">/dialogpatternproperties.cpp</text>
</a>
</g>
</g>
<!-- Node2&#45;&gt;Node13 -->
<g id="edge12" class="edge">
<title>Node2&#45;&gt;Node13</title>
<path fill="none" stroke="midnightblue" d="M2004.26,-136.92C2309.22,-134.29 3472.81,-122.14 3838.5,-87 3841.55,-86.71 3844.65,-86.37 3847.78,-86"/>
<polygon fill="midnightblue" stroke="midnightblue" points="2004.17,-133.42 1994.2,-137 2004.23,-140.42 2004.17,-133.42"/>
</g>
<!-- Node14 -->
<g id="node14" class="node">
<title>Node14</title>
<g id="a_node14"><a xlink:href="../../d5/dc5/dialogpreferences_8cpp.html" target="_top" xlink:title=" ">
<polygon fill="white" stroke="black" points="939,-56.5 939,-86.5 1080,-86.5 1080,-56.5 939,-56.5"/>
<text text-anchor="start" x="947" y="-74.5" font-family="Helvetica,sans-Serif" font-size="10.00">src/app/seamly2d/dialogs</text>
<text text-anchor="middle" x="1009.5" y="-63.5" font-family="Helvetica,sans-Serif" font-size="10.00">/dialogpreferences.cpp</text>
</a>
</g>
</g>
<!-- Node2&#45;&gt;Node14 -->
<g id="edge13" class="edge">
<title>Node2&#45;&gt;Node14</title>
<path fill="none" stroke="midnightblue" d="M1856.75,-136.03C1710.1,-132.45 1371.72,-120.93 1089.5,-87 1086.42,-86.63 1083.27,-86.22 1080.1,-85.77"/>
<polygon fill="midnightblue" stroke="midnightblue" points="1856.89,-139.53 1866.97,-136.27 1857.05,-132.53 1856.89,-139.53"/>
</g>
<!-- Node15 -->
<g id="node15" class="node">
<title>Node15</title>
<g id="a_node15"><a xlink:href="../../d2/d00/vtooloptionspropertybrowser_8cpp.html" target="_top" xlink:title=" ">
<polygon fill="white" stroke="black" points="1098.5,-56.5 1098.5,-86.5 1278.5,-86.5 1278.5,-56.5 1098.5,-56.5"/>
<text text-anchor="start" x="1106.5" y="-74.5" font-family="Helvetica,sans-Serif" font-size="10.00">src/app/seamly2d/core</text>
<text text-anchor="middle" x="1188.5" y="-63.5" font-family="Helvetica,sans-Serif" font-size="10.00">/vtooloptionspropertybrowser.cpp</text>
</a>
</g>
</g>
<!-- Node2&#45;&gt;Node15 -->
<g id="edge14" class="edge">
<title>Node2&#45;&gt;Node15</title>
<path fill="none" stroke="midnightblue" d="M1856.79,-133.32C1737.12,-126.18 1493.21,-110.12 1287.5,-87 1284.57,-86.67 1281.58,-86.32 1278.57,-85.95"/>
<polygon fill="midnightblue" stroke="midnightblue" points="1856.75,-136.83 1866.94,-133.93 1857.16,-129.84 1856.75,-136.83"/>
</g>
<!-- Node2&#45;&gt;Node16 -->
<g id="edge15" class="edge">
<title>Node2&#45;&gt;Node16</title>
<path fill="none" stroke="midnightblue" d="M2004.39,-136.72C2292.54,-133.46 3341.24,-119.57 3672.5,-87 3677.17,-86.54 3681.97,-85.98 3686.8,-85.35"/>
<polygon fill="midnightblue" stroke="midnightblue" points="2004.01,-133.22 1994.05,-136.83 2004.09,-140.22 2004.01,-133.22"/>
</g>
<!-- Node17 -->
<g id="node17" class="node">
<title>Node17</title>
<g id="a_node17"><a xlink:href="../../db/d5c/groups__widget_8cpp.html" target="_top" xlink:title=" ">
<polygon fill="white" stroke="black" points="1297,-56.5 1297,-86.5 1438,-86.5 1438,-56.5 1297,-56.5"/>
<text text-anchor="start" x="1305" y="-74.5" font-family="Helvetica,sans-Serif" font-size="10.00">src/app/seamly2d/dialogs</text>
<text text-anchor="middle" x="1367.5" y="-63.5" font-family="Helvetica,sans-Serif" font-size="10.00">/groups_widget.cpp</text>
</a>
</g>
</g>
<!-- Node2&#45;&gt;Node17 -->
<g id="edge16" class="edge">
<title>Node2&#45;&gt;Node17</title>
<path fill="none" stroke="midnightblue" d="M1856.79,-131.6C1761.72,-123.58 1591.33,-107.81 1446.5,-87 1443.74,-86.6 1440.93,-86.18 1438.09,-85.74"/>
<polygon fill="midnightblue" stroke="midnightblue" points="1856.63,-135.1 1866.88,-132.45 1857.21,-128.12 1856.63,-135.1"/>
</g>
<!-- Node18 -->
<g id="node18" class="node">
<title>Node18</title>
<g id="a_node18"><a xlink:href="../../d0/dfa/layoutsettings__dialog_8cpp.html" target="_top" xlink:title=" ">
<polygon fill="white" stroke="black" points="1456,-56.5 1456,-86.5 1601,-86.5 1601,-56.5 1456,-56.5"/>
<text text-anchor="start" x="1464" y="-74.5" font-family="Helvetica,sans-Serif" font-size="10.00">src/app/seamly2d/dialogs</text>
<text text-anchor="middle" x="1528.5" y="-63.5" font-family="Helvetica,sans-Serif" font-size="10.00">/layoutsettings_dialog.cpp</text>
</a>
</g>
</g>
<!-- Node2&#45;&gt;Node18 -->
<g id="edge17" class="edge">
<title>Node2&#45;&gt;Node18</title>
<path fill="none" stroke="midnightblue" d="M1856.62,-126.33C1791.52,-116.38 1694.13,-101.23 1609.5,-87 1606.82,-86.55 1604.1,-86.09 1601.35,-85.61"/>
<polygon fill="midnightblue" stroke="midnightblue" points="1856.38,-129.83 1866.79,-127.88 1857.43,-122.91 1856.38,-129.83"/>
</g>
<!-- Node19 -->
<g id="node19" class="node">
<title>Node19</title>
<g id="a_node19"><a xlink:href="../../d2/df4/show__info__dialog_8cpp.html" target="_top" xlink:title=" ">
<polygon fill="white" stroke="black" points="1619,-56.5 1619,-86.5 1760,-86.5 1760,-56.5 1619,-56.5"/>
<text text-anchor="start" x="1627" y="-74.5" font-family="Helvetica,sans-Serif" font-size="10.00">src/app/seamly2d/dialogs</text>
<text text-anchor="middle" x="1689.5" y="-63.5" font-family="Helvetica,sans-Serif" font-size="10.00">/show_info_dialog.cpp</text>
</a>
</g>
</g>
<!-- Node2&#45;&gt;Node19 -->
<g id="edge18" class="edge">
<title>Node2&#45;&gt;Node19</title>
<path fill="none" stroke="midnightblue" d="M1868.77,-120.85C1829.47,-110.25 1779.14,-96.68 1741.82,-86.61"/>
<polygon fill="midnightblue" stroke="midnightblue" points="1867.94,-124.25 1878.5,-123.48 1869.76,-117.49 1867.94,-124.25"/>
</g>
<!-- Node20 -->
<g id="node20" class="node">
<title>Node20</title>
<g id="a_node20"><a xlink:href="../../df/d69/welcome__dialog_8cpp.html" target="_top" xlink:title=" ">
<polygon fill="white" stroke="black" points="1778,-56.5 1778,-86.5 1919,-86.5 1919,-56.5 1778,-56.5"/>
<text text-anchor="start" x="1786" y="-74.5" font-family="Helvetica,sans-Serif" font-size="10.00">src/app/seamly2d/dialogs</text>
<text text-anchor="middle" x="1848.5" y="-63.5" font-family="Helvetica,sans-Serif" font-size="10.00">/welcome_dialog.cpp</text>
</a>
</g>
</g>
<!-- Node2&#45;&gt;Node20 -->
<g id="edge19" class="edge">
<title>Node2&#45;&gt;Node20</title>
<path fill="none" stroke="midnightblue" d="M1904.85,-117.17C1892.31,-107.23 1877.53,-95.51 1866.26,-86.58"/>
<polygon fill="midnightblue" stroke="midnightblue" points="1902.7,-119.93 1912.71,-123.4 1907.04,-114.44 1902.7,-119.93"/>
</g>
<!-- Node21 -->
<g id="node21" class="node">
<title>Node21</title>
<g id="a_node21"><a xlink:href="../../dc/d14/app_2seamly2d_2main_8cpp.html" target="_top" xlink:title=" ">
<polygon fill="white" stroke="black" points="1937,-62 1937,-81 2088,-81 2088,-62 1937,-62"/>
<text text-anchor="middle" x="2012.5" y="-69" font-family="Helvetica,sans-Serif" font-size="10.00">src/app/seamly2d/main.cpp</text>
</a>
</g>
</g>
<!-- Node2&#45;&gt;Node21 -->
<g id="edge20" class="edge">
<title>Node2&#45;&gt;Node21</title>
<path fill="none" stroke="midnightblue" d="M1956.35,-117.01C1971.57,-104.94 1990.04,-90.3 2001.53,-81.19"/>
<polygon fill="midnightblue" stroke="midnightblue" points="1953.96,-114.44 1948.29,-123.4 1958.3,-119.93 1953.96,-114.44"/>
</g>
<!-- Node22 -->
<g id="node22" class="node">
<title>Node22</title>
<g id="a_node22"><a xlink:href="../../dd/d84/shortcuts__dialog_8cpp.html" target="_top" xlink:title=" ">
<polygon fill="white" stroke="black" points="2106,-56.5 2106,-86.5 2247,-86.5 2247,-56.5 2106,-56.5"/>
<text text-anchor="start" x="2114" y="-74.5" font-family="Helvetica,sans-Serif" font-size="10.00">src/app/seamly2d/dialogs</text>
<text text-anchor="middle" x="2176.5" y="-63.5" font-family="Helvetica,sans-Serif" font-size="10.00">/shortcuts_dialog.cpp</text>
</a>
</g>
</g>
<!-- Node2&#45;&gt;Node22 -->
<g id="edge21" class="edge">
<title>Node2&#45;&gt;Node22</title>
<path fill="none" stroke="midnightblue" d="M1993.26,-120.92C2033.4,-110.31 2084.92,-96.7 2123.1,-86.61"/>
<polygon fill="midnightblue" stroke="midnightblue" points="1992.35,-117.54 1983.58,-123.48 1994.14,-124.31 1992.35,-117.54"/>
</g>
<!-- Node23 -->
<g id="node23" class="node">
<title>Node23</title>
<g id="a_node23"><a xlink:href="../../d8/de8/mainwindowsnogui_8cpp.html" target="_top" xlink:title=" ">
<polygon fill="white" stroke="black" points="2265,-62 2265,-81 2486,-81 2486,-62 2265,-62"/>
<text text-anchor="middle" x="2375.5" y="-69" font-family="Helvetica,sans-Serif" font-size="10.00">src/app/seamly2d/mainwindowsnogui.cpp</text>
</a>
</g>
</g>
<!-- Node2&#45;&gt;Node23 -->
<g id="edge22" class="edge">
<title>Node2&#45;&gt;Node23</title>
<path fill="none" stroke="midnightblue" d="M2004.41,-126.7C2092.21,-113.88 2236.86,-92.75 2317.18,-81.02"/>
<polygon fill="midnightblue" stroke="midnightblue" points="2003.65,-123.28 1994.26,-128.19 2004.66,-130.2 2003.65,-123.28"/>
</g>
<!-- Node24 -->
<g id="node24" class="node">
<title>Node24</title>
<g id="a_node24"><a xlink:href="../../d3/d49/vpattern_8cpp.html" target="_top" xlink:title=" ">
<polygon fill="white" stroke="black" points="2504,-56.5 2504,-86.5 2629,-86.5 2629,-56.5 2504,-56.5"/>
<text text-anchor="start" x="2512" y="-74.5" font-family="Helvetica,sans-Serif" font-size="10.00">src/app/seamly2d/xml</text>
<text text-anchor="middle" x="2566.5" y="-63.5" font-family="Helvetica,sans-Serif" font-size="10.00">/vpattern.cpp</text>
</a>
</g>
</g>
<!-- Node2&#45;&gt;Node24 -->
<g id="edge23" class="edge">
<title>Node2&#45;&gt;Node24</title>
<path fill="none" stroke="midnightblue" d="M2004.34,-133.47C2112.37,-127 2319.67,-112.35 2494.5,-87 2497.53,-86.56 2500.62,-86.08 2503.74,-85.56"/>
<polygon fill="midnightblue" stroke="midnightblue" points="2003.98,-129.99 1994.2,-134.07 2004.39,-136.98 2003.98,-129.99"/>
</g>
<!-- Node2&#45;&gt;Node25 -->
<g id="edge24" class="edge">
<title>Node2&#45;&gt;Node25</title>
<path fill="none" stroke="midnightblue" d="M2004.12,-136.62C2321.58,-132.65 3560.81,-115.41 3638.5,-87 3659.3,-79.4 3657.02,-64.42 3677.5,-56 3733.5,-32.98 3893.46,-20.82 3997.36,-15.16"/>
<polygon fill="midnightblue" stroke="midnightblue" points="2004.07,-133.12 1994.11,-136.74 2004.15,-140.12 2004.07,-133.12"/>
</g>
<!-- Node26&#45;&gt;Node13 -->
<g id="edge30" class="edge">
<title>Node26&#45;&gt;Node13</title>
<path fill="none" stroke="midnightblue" d="M3925.5,-113.11C3925.5,-104.15 3925.5,-94.32 3925.5,-86.58"/>
<polygon fill="midnightblue" stroke="midnightblue" points="3922,-113.4 3925.5,-123.4 3929,-113.4 3922,-113.4"/>
</g>
<!-- Node27 -->
<g id="node27" class="node">
<title>Node27</title>
<g id="a_node27"><a xlink:href="../../d6/d64/dialogs_8h.html" target="_top" xlink:title=" ">
<polygon fill="white" stroke="black" points="4021,-56.5 4021,-86.5 4162,-86.5 4162,-56.5 4021,-56.5"/>
<text text-anchor="start" x="4029" y="-74.5" font-family="Helvetica,sans-Serif" font-size="10.00">src/app/seamly2d/dialogs</text>
<text text-anchor="middle" x="4091.5" y="-63.5" font-family="Helvetica,sans-Serif" font-size="10.00">/dialogs.h</text>
</a>
</g>
</g>
<!-- Node26&#45;&gt;Node27 -->
<g id="edge31" class="edge">
<title>Node26&#45;&gt;Node27</title>
<path fill="none" stroke="midnightblue" d="M3971.01,-119.68C3997.63,-109.26 4030.77,-96.28 4055.55,-86.58"/>
<polygon fill="midnightblue" stroke="midnightblue" points="3969.55,-116.49 3961.52,-123.4 3972.11,-123.01 3969.55,-116.49"/>
</g>
<!-- Node27&#45;&gt;Node25 -->
<g id="edge32" class="edge">
<title>Node27&#45;&gt;Node25</title>
<path fill="none" stroke="midnightblue" d="M4091.5,-46.29C4091.5,-36.86 4091.5,-26.65 4091.5,-19.66"/>
<polygon fill="midnightblue" stroke="midnightblue" points="4088,-46.4 4091.5,-56.4 4095,-46.4 4088,-46.4"/>
</g>
</g>
</svg>
