<?xml version="1.0" encoding="UTF-8" standalone="no"?>
<!DOCTYPE svg PUBLIC "-//W3C//DTD SVG 1.1//EN"
 "http://www.w3.org/Graphics/SVG/1.1/DTD/svg11.dtd">
<!-- Generated by graphviz version 2.43.0 (0)
 -->
<!-- Title: src/app/seamly2d/options.h Pages: 1 -->
<!--zoomable 218 -->
<svg id="main" version="1.1" xmlns="http://www.w3.org/2000/svg" xmlns:xlink="http://www.w3.org/1999/xlink" xml:space="preserve" onload="init(evt)">
<style type="text/css"><![CDATA[
.edge:hover path { stroke: red; }
.edge:hover polygon { stroke: red; fill: red; }
]]></style>
<script type="text/javascript"><![CDATA[
var edges = document.getElementsByTagName('g');
if (edges && edges.length) {
  for (var i=0;i<edges.length;i++) {
    if (edges[i].id.substr(0,4)=='edge') {
      edges[i].setAttribute('class','edge');
    }
  }
}
]]></script>
        <defs>
                <circle id="rim" cx="0" cy="0" r="7"/>
                <circle id="rim2" cx="0" cy="0" r="3.5"/>
                <g id="zoomPlus">
                        <use xlink:href="#rim" fill="#404040">
                                <set attributeName="fill" to="#808080" begin="zoomplus.mouseover" end="zoomplus.mouseout"/>
                        </use>
                        <path d="M-4,0h8M0,-4v8" fill="none" stroke="white" stroke-width="1.5" pointer-events="none"/>
                </g>
                <g id="zoomMin">
                        <use xlink:href="#rim" fill="#404040">
                                <set attributeName="fill" to="#808080" begin="zoomminus.mouseover" end="zoomminus.mouseout"/>
                        </use>
                        <path d="M-4,0h8" fill="none" stroke="white" stroke-width="1.5" pointer-events="none"/>
                </g>
                <g id="dirArrow">
                        <path fill="none" stroke="white" stroke-width="1.5" d="M0,-3.0v7 M-2.5,-0.5L0,-3.0L2.5,-0.5"/>
                </g>
               <g id="resetDef">
                       <use xlink:href="#rim2" fill="#404040">
                               <set attributeName="fill" to="#808080" begin="reset.mouseover" end="reset.mouseout"/>
                       </use>
               </g>
        </defs>

<script type="text/javascript">
var viewWidth = 4192;
var viewHeight = 218;
var sectionId = 'dynsection-1';
</script>
<script xlink:href="../../svgpan.js"/>
<svg id="graph" class="graph">
<g id="viewport">
<title>src/app/seamly2d/options.h</title>
<polygon fill="white" stroke="transparent" points="-4,4 -4,-214 4187.5,-214 4187.5,4 -4,4"/>
<!-- Node1 -->
<g id="node1" class="node">
<title>Node1</title>
<g id="a_node1"><a xlink:title=" ">
<polygon fill="#bfbfbf" stroke="black" points="2824,-190.5 2824,-209.5 2975,-209.5 2975,-190.5 2824,-190.5"/>
<text text-anchor="middle" x="2899.5" y="-197.5" font-family="Helvetica,sans-Serif" font-size="10.00">src/app/seamly2d/options.h</text>
</a>
</g>
</g>
<!-- Node2 -->
<g id="node2" class="node">
<title>Node2</title>
<g id="a_node2"><a xlink:href="../../d7/d61/application__2d_8h.html" target="_top" xlink:title=" ">
<polygon fill="white" stroke="black" points="2039,-123.5 2039,-153.5 2166,-153.5 2166,-123.5 2039,-123.5"/>
<text text-anchor="start" x="2047" y="-141.5" font-family="Helvetica,sans-Serif" font-size="10.00">src/app/seamly2d/core</text>
<text text-anchor="middle" x="2102.5" y="-130.5" font-family="Helvetica,sans-Serif" font-size="10.00">/application_2d.h</text>
</a>
</g>
</g>
<!-- Node1&#45;&gt;Node2 -->
<g id="edge1" class="edge">
<title>Node1&#45;&gt;Node2</title>
<path fill="none" stroke="midnightblue" d="M2813.46,-192.58C2652.31,-180.55 2308.46,-154.88 2166.17,-144.25"/>
<polygon fill="midnightblue" stroke="midnightblue" points="2813.57,-196.09 2823.8,-193.35 2814.09,-189.11 2813.57,-196.09"/>
</g>
<!-- Node5 -->
<g id="node5" class="node">
<title>Node5</title>
<g id="a_node5"><a xlink:href="../../d7/dfa/calculator__dialog_8cpp.html" target="_top" xlink:title=" ">
<polygon fill="white" stroke="black" points="0,-56.5 0,-86.5 141,-86.5 141,-56.5 0,-56.5"/>
<text text-anchor="start" x="8" y="-74.5" font-family="Helvetica,sans-Serif" font-size="10.00">src/app/seamly2d/dialogs</text>
<text text-anchor="middle" x="70.5" y="-63.5" font-family="Helvetica,sans-Serif" font-size="10.00">/calculator_dialog.cpp</text>
</a>
</g>
</g>
<!-- Node1&#45;&gt;Node5 -->
<g id="edge25" class="edge">
<title>Node1&#45;&gt;Node5</title>
<path fill="none" stroke="midnightblue" d="M2813.79,-198.15C2469.59,-194.57 1186.89,-179.75 781.5,-154 499.61,-136.1 429.06,-127.41 149.5,-87 146.74,-86.6 143.93,-86.18 141.09,-85.73"/>
<polygon fill="midnightblue" stroke="midnightblue" points="2813.91,-201.65 2823.94,-198.25 2813.98,-194.65 2813.91,-201.65"/>
</g>
<!-- Node7 -->
<g id="node7" class="node">
<title>Node7</title>
<g id="a_node7"><a xlink:href="../../dc/d20/preferencespathpage_8cpp.html" target="_top" xlink:title=" ">
<polygon fill="white" stroke="black" points="159,-56.5 159,-86.5 364,-86.5 364,-56.5 159,-56.5"/>
<text text-anchor="start" x="167" y="-74.5" font-family="Helvetica,sans-Serif" font-size="10.00">src/app/seamly2d/dialogs</text>
<text text-anchor="middle" x="261.5" y="-63.5" font-family="Helvetica,sans-Serif" font-size="10.00">/configpages/preferencespathpage.cpp</text>
</a>
</g>
</g>
<!-- Node1&#45;&gt;Node7 -->
<g id="edge26" class="edge">
<title>Node1&#45;&gt;Node7</title>
<path fill="none" stroke="midnightblue" d="M2813.47,-197.79C2576.36,-194.2 1893.48,-182.01 1326.5,-154 901.97,-133.03 795.42,-129.44 372.5,-87 369.79,-86.73 367.05,-86.44 364.28,-86.15"/>
<polygon fill="midnightblue" stroke="midnightblue" points="2813.69,-201.3 2823.74,-197.95 2813.8,-194.3 2813.69,-201.3"/>
</g>
<!-- Node12 -->
<g id="node12" class="node">
<title>Node12</title>
<g id="a_node12"><a xlink:href="../../dd/d64/dialogaboutapp_8cpp.html" target="_top" xlink:title=" ">
<polygon fill="white" stroke="black" points="382,-56.5 382,-86.5 523,-86.5 523,-56.5 382,-56.5"/>
<text text-anchor="start" x="390" y="-74.5" font-family="Helvetica,sans-Serif" font-size="10.00">src/app/seamly2d/dialogs</text>
<text text-anchor="middle" x="452.5" y="-63.5" font-family="Helvetica,sans-Serif" font-size="10.00">/dialogaboutapp.cpp</text>
</a>
</g>
</g>
<!-- Node1&#45;&gt;Node12 -->
<g id="edge27" class="edge">
<title>Node1&#45;&gt;Node12</title>
<path fill="none" stroke="midnightblue" d="M2813.52,-194.75C2576.55,-183.07 1893.98,-149.56 1326.5,-123 973.19,-106.47 882.92,-127.02 531.5,-87 528.73,-86.68 525.91,-86.33 523.06,-85.94"/>
<polygon fill="midnightblue" stroke="midnightblue" points="2813.63,-198.26 2823.79,-195.26 2813.97,-191.27 2813.63,-198.26"/>
</g>
<!-- Node15 -->
<g id="node15" class="node">
<title>Node15</title>
<g id="a_node15"><a xlink:href="../../dd/d54/export__layout__dialog_8cpp.html" target="_top" xlink:title=" ">
<polygon fill="white" stroke="black" points="3524,-56.5 3524,-86.5 3667,-86.5 3667,-56.5 3524,-56.5"/>
<text text-anchor="start" x="3532" y="-74.5" font-family="Helvetica,sans-Serif" font-size="10.00">src/app/seamly2d/dialogs</text>
<text text-anchor="middle" x="3595.5" y="-63.5" font-family="Helvetica,sans-Serif" font-size="10.00">/export_layout_dialog.cpp</text>
</a>
</g>
</g>
<!-- Node1&#45;&gt;Node15 -->
<g id="edge32" class="edge">
<title>Node1&#45;&gt;Node15</title>
<path fill="none" stroke="midnightblue" d="M2956.37,-188.66C3082.44,-165.75 3385.19,-110.72 3523.9,-85.51"/>
<polygon fill="midnightblue" stroke="midnightblue" points="2955.73,-185.22 2946.52,-190.45 2956.98,-192.11 2955.73,-185.22"/>
</g>
<!-- Node16 -->
<g id="node16" class="node">
<title>Node16</title>
<g id="a_node16"><a xlink:href="../../d6/d89/dialoglayoutprogress_8cpp.html" target="_top" xlink:title=" ">
<polygon fill="white" stroke="black" points="3685,-56.5 3685,-86.5 3828,-86.5 3828,-56.5 3685,-56.5"/>
<text text-anchor="start" x="3693" y="-74.5" font-family="Helvetica,sans-Serif" font-size="10.00">src/app/seamly2d/dialogs</text>
<text text-anchor="middle" x="3756.5" y="-63.5" font-family="Helvetica,sans-Serif" font-size="10.00">/dialoglayoutprogress.cpp</text>
</a>
</g>
</g>
<!-- Node1&#45;&gt;Node16 -->
<g id="edge33" class="edge">
<title>Node1&#45;&gt;Node16</title>
<path fill="none" stroke="midnightblue" d="M2981.32,-189.23C3052.72,-180.53 3159.07,-167.19 3251.5,-154 3440.8,-126.98 3487.97,-118.94 3676.5,-87 3679.28,-86.53 3682.12,-86.04 3684.98,-85.55"/>
<polygon fill="midnightblue" stroke="midnightblue" points="2980.55,-185.79 2971.04,-190.47 2981.39,-192.74 2980.55,-185.79"/>
</g>
<!-- Node24 -->
<g id="node24" class="node">
<title>Node24</title>
<g id="a_node24"><a xlink:href="../../d8/dd9/mainwindow_8cpp.html" target="_top" xlink:title=" ">
<polygon fill="white" stroke="black" points="3995.5,-0.5 3995.5,-19.5 4183.5,-19.5 4183.5,-0.5 3995.5,-0.5"/>
<text text-anchor="middle" x="4089.5" y="-7.5" font-family="Helvetica,sans-Serif" font-size="10.00">src/app/seamly2d/mainwindow.cpp</text>
</a>
</g>
</g>
<!-- Node1&#45;&gt;Node24 -->
<g id="edge34" class="edge">
<title>Node1&#45;&gt;Node24</title>
<path fill="none" stroke="midnightblue" d="M2985.09,-199.31C3209.43,-199.51 3810.56,-195.99 4004.5,-154 4081.86,-137.25 4125.3,-152.66 4169.5,-87 4177.19,-75.57 4176.46,-67.89 4169.5,-56 4158.8,-37.71 4137.63,-26.27 4119.75,-19.51"/>
<polygon fill="midnightblue" stroke="midnightblue" points="2985.02,-195.81 2975.01,-199.3 2985.01,-202.81 2985.02,-195.81"/>
</g>
<!-- Node26 -->
<g id="node26" class="node">
<title>Node26</title>
<g id="a_node26"><a xlink:href="../../d5/d4e/dialogpatternproperties_8h.html" target="_top" xlink:title=" ">
<polygon fill="white" stroke="black" points="3852,-123.5 3852,-153.5 3995,-153.5 3995,-123.5 3852,-123.5"/>
<text text-anchor="start" x="3860" y="-141.5" font-family="Helvetica,sans-Serif" font-size="10.00">src/app/seamly2d/dialogs</text>
<text text-anchor="middle" x="3923.5" y="-130.5" font-family="Helvetica,sans-Serif" font-size="10.00">/dialogpatternproperties.h</text>
</a>
</g>
</g>
<!-- Node1&#45;&gt;Node26 -->
<g id="edge28" class="edge">
<title>Node1&#45;&gt;Node26</title>
<path fill="none" stroke="midnightblue" d="M2985.27,-194.02C3183.16,-182.52 3668.71,-154.3 3851.94,-143.66"/>
<polygon fill="midnightblue" stroke="midnightblue" points="2984.99,-190.53 2975.21,-194.6 2985.4,-197.51 2984.99,-190.53"/>
</g>
<!-- Node3 -->
<g id="node3" class="node">
<title>Node3</title>
<g id="a_node3"><a xlink:href="../../df/d3e/application__2d_8cpp.html" target="_top" xlink:title=" ">
<polygon fill="white" stroke="black" points="2476,-56.5 2476,-86.5 2603,-86.5 2603,-56.5 2476,-56.5"/>
<text text-anchor="start" x="2484" y="-74.5" font-family="Helvetica,sans-Serif" font-size="10.00">src/app/seamly2d/core</text>
<text text-anchor="middle" x="2539.5" y="-63.5" font-family="Helvetica,sans-Serif" font-size="10.00">/application_2d.cpp</text>
</a>
</g>
</g>
<!-- Node2&#45;&gt;Node3 -->
<g id="edge2" class="edge">
<title>Node2&#45;&gt;Node3</title>
<path fill="none" stroke="midnightblue" d="M2176.23,-128.55C2249.9,-119.31 2366.31,-103.89 2466.5,-87 2469.56,-86.48 2472.68,-85.94 2475.84,-85.37"/>
<polygon fill="midnightblue" stroke="midnightblue" points="2175.61,-125.1 2166.13,-129.81 2176.48,-132.05 2175.61,-125.1"/>
</g>
<!-- Node4 -->
<g id="node4" class="node">
<title>Node4</title>
<g id="a_node4"><a xlink:href="../../dd/db4/abstractlayout__dialog_8cpp.html" target="_top" xlink:title=" ">
<polygon fill="white" stroke="black" points="2621.5,-56.5 2621.5,-86.5 2767.5,-86.5 2767.5,-56.5 2621.5,-56.5"/>
<text text-anchor="start" x="2629.5" y="-74.5" font-family="Helvetica,sans-Serif" font-size="10.00">src/app/seamly2d/dialogs</text>
<text text-anchor="middle" x="2694.5" y="-63.5" font-family="Helvetica,sans-Serif" font-size="10.00">/abstractlayout_dialog.cpp</text>
</a>
</g>
</g>
<!-- Node2&#45;&gt;Node4 -->
<g id="edge3" class="edge">
<title>Node2&#45;&gt;Node4</title>
<path fill="none" stroke="midnightblue" d="M2176.38,-131.9C2275.6,-123.98 2457.27,-108.09 2611.5,-87 2614.69,-86.56 2617.94,-86.1 2621.23,-85.6"/>
<polygon fill="midnightblue" stroke="midnightblue" points="2175.85,-128.43 2166.16,-132.71 2176.41,-135.41 2175.85,-128.43"/>
</g>
<!-- Node2&#45;&gt;Node5 -->
<g id="edge4" class="edge">
<title>Node2&#45;&gt;Node5</title>
<path fill="none" stroke="midnightblue" d="M2028.55,-137.13C1718.75,-135.34 524.14,-125.99 149.5,-87 146.73,-86.71 143.9,-86.38 141.06,-86.01"/>
<polygon fill="midnightblue" stroke="midnightblue" points="2028.74,-140.63 2038.76,-137.19 2028.78,-133.63 2028.74,-140.63"/>
</g>
<!-- Node6 -->
<g id="node6" class="node">
<title>Node6</title>
<g id="a_node6"><a xlink:href="../../d2/d2d/preferencesconfigurationpage_8cpp.html" target="_top" xlink:title=" ">
<polygon fill="white" stroke="black" points="2786,-56.5 2786,-86.5 3033,-86.5 3033,-56.5 2786,-56.5"/>
<text text-anchor="start" x="2794" y="-74.5" font-family="Helvetica,sans-Serif" font-size="10.00">src/app/seamly2d/dialogs</text>
<text text-anchor="middle" x="2909.5" y="-63.5" font-family="Helvetica,sans-Serif" font-size="10.00">/configpages/preferencesconfigurationpage.cpp</text>
</a>
</g>
</g>
<!-- Node2&#45;&gt;Node6 -->
<g id="edge5" class="edge">
<title>Node2&#45;&gt;Node6</title>
<path fill="none" stroke="midnightblue" d="M2176.36,-132.79C2300.44,-124.68 2558.57,-107.04 2776.5,-87 2779.62,-86.71 2782.79,-86.42 2785.98,-86.11"/>
<polygon fill="midnightblue" stroke="midnightblue" points="2175.97,-129.3 2166.21,-133.45 2176.42,-136.29 2175.97,-129.3"/>
</g>
<!-- Node2&#45;&gt;Node7 -->
<g id="edge6" class="edge">
<title>Node2&#45;&gt;Node7</title>
<path fill="none" stroke="midnightblue" d="M2028.67,-136.34C1741.94,-131.67 701.84,-113.25 372.5,-87 369.79,-86.78 367.04,-86.55 364.27,-86.3"/>
<polygon fill="midnightblue" stroke="midnightblue" points="2028.9,-139.84 2038.95,-136.5 2029.01,-132.84 2028.9,-139.84"/>
</g>
<!-- Node8 -->
<g id="node8" class="node">
<title>Node8</title>
<g id="a_node8"><a xlink:href="../../d2/d00/vtooloptionspropertybrowser_8cpp.html" target="_top" xlink:title=" ">
<polygon fill="white" stroke="black" points="3051.5,-56.5 3051.5,-86.5 3231.5,-86.5 3231.5,-56.5 3051.5,-56.5"/>
<text text-anchor="start" x="3059.5" y="-74.5" font-family="Helvetica,sans-Serif" font-size="10.00">src/app/seamly2d/core</text>
<text text-anchor="middle" x="3141.5" y="-63.5" font-family="Helvetica,sans-Serif" font-size="10.00">/vtooloptionspropertybrowser.cpp</text>
</a>
</g>
</g>
<!-- Node2&#45;&gt;Node8 -->
<g id="edge7" class="edge">
<title>Node2&#45;&gt;Node8</title>
<path fill="none" stroke="midnightblue" d="M2176.25,-135.8C2334.88,-131.64 2720.18,-118.87 3041.5,-87 3044.73,-86.68 3048.01,-86.33 3051.33,-85.96"/>
<polygon fill="midnightblue" stroke="midnightblue" points="2176.03,-132.3 2166.13,-136.06 2176.22,-139.3 2176.03,-132.3"/>
</g>
<!-- Node9 -->
<g id="node9" class="node">
<title>Node9</title>
<g id="a_node9"><a xlink:href="../../dc/d63/preferencespatternpage_8cpp.html" target="_top" xlink:title=" ">
<polygon fill="white" stroke="black" points="3249.5,-56.5 3249.5,-86.5 3467.5,-86.5 3467.5,-56.5 3249.5,-56.5"/>
<text text-anchor="start" x="3257.5" y="-74.5" font-family="Helvetica,sans-Serif" font-size="10.00">src/app/seamly2d/dialogs</text>
<text text-anchor="middle" x="3358.5" y="-63.5" font-family="Helvetica,sans-Serif" font-size="10.00">/configpages/preferencespatternpage.cpp</text>
</a>
</g>
</g>
<!-- Node2&#45;&gt;Node9 -->
<g id="edge8" class="edge">
<title>Node2&#45;&gt;Node9</title>
<path fill="none" stroke="midnightblue" d="M2176.38,-136.21C2357.83,-132.62 2839.83,-120.46 3240.5,-87 3243.38,-86.76 3246.3,-86.5 3249.24,-86.23"/>
<polygon fill="midnightblue" stroke="midnightblue" points="2176.08,-132.72 2166.15,-136.41 2176.22,-139.72 2176.08,-132.72"/>
</g>
<!-- Node10 -->
<g id="node10" class="node">
<title>Node10</title>
<g id="a_node10"><a xlink:href="../../dd/dc2/decimalchart__dialog_8cpp.html" target="_top" xlink:title=" ">
<polygon fill="white" stroke="black" points="541,-56.5 541,-86.5 682,-86.5 682,-56.5 541,-56.5"/>
<text text-anchor="start" x="549" y="-74.5" font-family="Helvetica,sans-Serif" font-size="10.00">src/app/seamly2d/dialogs</text>
<text text-anchor="middle" x="611.5" y="-63.5" font-family="Helvetica,sans-Serif" font-size="10.00">/decimalchart_dialog.cpp</text>
</a>
</g>
</g>
<!-- Node2&#45;&gt;Node10 -->
<g id="edge9" class="edge">
<title>Node2&#45;&gt;Node10</title>
<path fill="none" stroke="midnightblue" d="M2028.67,-133.57C1968.38,-130.45 1880.94,-126.1 1804.5,-123 1309.98,-102.97 1183.66,-139.27 691.5,-87 688.41,-86.67 685.26,-86.29 682.09,-85.88"/>
<polygon fill="midnightblue" stroke="midnightblue" points="2028.69,-137.08 2038.86,-134.1 2029.05,-130.09 2028.69,-137.08"/>
</g>
<!-- Node11 -->
<g id="node11" class="node">
<title>Node11</title>
<g id="a_node11"><a xlink:href="../../d9/d70/preferencesgraphicsviewpage_8cpp.html" target="_top" xlink:title=" ">
<polygon fill="white" stroke="black" points="700.5,-56.5 700.5,-86.5 948.5,-86.5 948.5,-56.5 700.5,-56.5"/>
<text text-anchor="start" x="708.5" y="-74.5" font-family="Helvetica,sans-Serif" font-size="10.00">src/app/seamly2d/dialogs</text>
<text text-anchor="middle" x="824.5" y="-63.5" font-family="Helvetica,sans-Serif" font-size="10.00">/configpages/preferencesgraphicsviewpage.cpp</text>
</a>
</g>
</g>
<!-- Node2&#45;&gt;Node11 -->
<g id="edge10" class="edge">
<title>Node2&#45;&gt;Node11</title>
<path fill="none" stroke="midnightblue" d="M2028.67,-133.78C1968.37,-130.77 1880.93,-126.48 1804.5,-123 1428.11,-105.84 1333.21,-115.43 957.5,-87 954.6,-86.78 951.68,-86.55 948.72,-86.3"/>
<polygon fill="midnightblue" stroke="midnightblue" points="2028.69,-137.29 2038.85,-134.29 2029.04,-130.3 2028.69,-137.29"/>
</g>
<!-- Node2&#45;&gt;Node12 -->
<g id="edge11" class="edge">
<title>Node2&#45;&gt;Node12</title>
<path fill="none" stroke="midnightblue" d="M2028.68,-133.49C1968.39,-130.31 1880.95,-125.94 1804.5,-123 1238.91,-101.24 1094.39,-146.26 531.5,-87 528.73,-86.71 525.9,-86.37 523.06,-86"/>
<polygon fill="midnightblue" stroke="midnightblue" points="2028.69,-137 2038.86,-134.03 2029.06,-130 2028.69,-137"/>
</g>
<!-- Node13 -->
<g id="node13" class="node">
<title>Node13</title>
<g id="a_node13"><a xlink:href="../../d5/d18/dialogpatternproperties_8cpp.html" target="_top" xlink:title=" ">
<polygon fill="white" stroke="black" points="3846,-56.5 3846,-86.5 4001,-86.5 4001,-56.5 3846,-56.5"/>
<text text-anchor="start" x="3854" y="-74.5" font-family="Helvetica,sans-Serif" font-size="10.00">src/app/seamly2d/dialogs</text>
<text text-anchor="middle" x="3923.5" y="-63.5" font-family="Helvetica,sans-Serif" font-size="10.00">/dialogpatternproperties.cpp</text>
</a>
</g>
</g>
<!-- Node2&#45;&gt;Node13 -->
<g id="edge12" class="edge">
<title>Node2&#45;&gt;Node13</title>
<path fill="none" stroke="midnightblue" d="M2176.57,-136.71C2464.26,-133.41 3507.75,-119.44 3837.5,-87 3840.21,-86.73 3842.97,-86.43 3845.75,-86.1"/>
<polygon fill="midnightblue" stroke="midnightblue" points="2176.22,-133.21 2166.26,-136.82 2176.3,-140.21 2176.22,-133.21"/>
</g>
<!-- Node14 -->
<g id="node14" class="node">
<title>Node14</title>
<g id="a_node14"><a xlink:href="../../d5/dc5/dialogpreferences_8cpp.html" target="_top" xlink:title=" ">
<polygon fill="white" stroke="black" points="967,-56.5 967,-86.5 1108,-86.5 1108,-56.5 967,-56.5"/>
<text text-anchor="start" x="975" y="-74.5" font-family="Helvetica,sans-Serif" font-size="10.00">src/app/seamly2d/dialogs</text>
<text text-anchor="middle" x="1037.5" y="-63.5" font-family="Helvetica,sans-Serif" font-size="10.00">/dialogpreferences.cpp</text>
</a>
</g>
</g>
<!-- Node2&#45;&gt;Node14 -->
<g id="edge13" class="edge">
<title>Node2&#45;&gt;Node14</title>
<path fill="none" stroke="midnightblue" d="M2028.68,-133.85C1803.47,-122.69 1139.11,-89.64 1116.5,-87 1113.73,-86.68 1110.91,-86.31 1108.07,-85.92"/>
<polygon fill="midnightblue" stroke="midnightblue" points="2028.58,-137.35 2038.74,-134.35 2028.93,-130.36 2028.58,-137.35"/>
</g>
<!-- Node2&#45;&gt;Node15 -->
<g id="edge14" class="edge">
<title>Node2&#45;&gt;Node15</title>
<path fill="none" stroke="midnightblue" d="M2176.42,-136.13C2427.6,-131.27 3247.17,-113.71 3509.5,-87 3514.17,-86.52 3518.97,-85.95 3523.8,-85.31"/>
<polygon fill="midnightblue" stroke="midnightblue" points="2176.24,-132.63 2166.31,-136.32 2176.37,-139.63 2176.24,-132.63"/>
</g>
<!-- Node2&#45;&gt;Node16 -->
<g id="edge15" class="edge">
<title>Node2&#45;&gt;Node16</title>
<path fill="none" stroke="midnightblue" d="M2176.39,-136.57C2446.51,-132.96 3380.06,-118.45 3676.5,-87 3679.17,-86.72 3681.88,-86.4 3684.61,-86.04"/>
<polygon fill="midnightblue" stroke="midnightblue" points="2176.26,-133.08 2166.31,-136.71 2176.35,-140.07 2176.26,-133.08"/>
</g>
<!-- Node17 -->
<g id="node17" class="node">
<title>Node17</title>
<g id="a_node17"><a xlink:href="../../d0/dfa/layoutsettings__dialog_8cpp.html" target="_top" xlink:title=" ">
<polygon fill="white" stroke="black" points="1126,-56.5 1126,-86.5 1271,-86.5 1271,-56.5 1126,-56.5"/>
<text text-anchor="start" x="1134" y="-74.5" font-family="Helvetica,sans-Serif" font-size="10.00">src/app/seamly2d/dialogs</text>
<text text-anchor="middle" x="1198.5" y="-63.5" font-family="Helvetica,sans-Serif" font-size="10.00">/layoutsettings_dialog.cpp</text>
</a>
</g>
</g>
<!-- Node2&#45;&gt;Node17 -->
<g id="edge16" class="edge">
<title>Node2&#45;&gt;Node17</title>
<path fill="none" stroke="midnightblue" d="M2028.78,-134.07C1854.99,-125.82 1423.47,-104.25 1279.5,-87 1276.8,-86.68 1274.06,-86.32 1271.3,-85.94"/>
<polygon fill="midnightblue" stroke="midnightblue" points="2028.7,-137.57 2038.85,-134.55 2029.03,-130.58 2028.7,-137.57"/>
</g>
<!-- Node18 -->
<g id="node18" class="node">
<title>Node18</title>
<g id="a_node18"><a xlink:href="../../db/d5c/groups__widget_8cpp.html" target="_top" xlink:title=" ">
<polygon fill="white" stroke="black" points="1289,-56.5 1289,-86.5 1430,-86.5 1430,-56.5 1289,-56.5"/>
<text text-anchor="start" x="1297" y="-74.5" font-family="Helvetica,sans-Serif" font-size="10.00">src/app/seamly2d/dialogs</text>
<text text-anchor="middle" x="1359.5" y="-63.5" font-family="Helvetica,sans-Serif" font-size="10.00">/groups_widget.cpp</text>
</a>
</g>
</g>
<!-- Node2&#45;&gt;Node18 -->
<g id="edge17" class="edge">
<title>Node2&#45;&gt;Node18</title>
<path fill="none" stroke="midnightblue" d="M2028.59,-134.43C1905.7,-128.76 1651.78,-114.61 1438.5,-87 1435.73,-86.64 1432.92,-86.25 1430.08,-85.84"/>
<polygon fill="midnightblue" stroke="midnightblue" points="2028.49,-137.93 2038.64,-134.89 2028.81,-130.94 2028.49,-137.93"/>
</g>
<!-- Node19 -->
<g id="node19" class="node">
<title>Node19</title>
<g id="a_node19"><a xlink:href="../../dd/d84/shortcuts__dialog_8cpp.html" target="_top" xlink:title=" ">
<polygon fill="white" stroke="black" points="1448,-56.5 1448,-86.5 1589,-86.5 1589,-56.5 1448,-56.5"/>
<text text-anchor="start" x="1456" y="-74.5" font-family="Helvetica,sans-Serif" font-size="10.00">src/app/seamly2d/dialogs</text>
<text text-anchor="middle" x="1518.5" y="-63.5" font-family="Helvetica,sans-Serif" font-size="10.00">/shortcuts_dialog.cpp</text>
</a>
</g>
</g>
<!-- Node2&#45;&gt;Node19 -->
<g id="edge18" class="edge">
<title>Node2&#45;&gt;Node19</title>
<path fill="none" stroke="midnightblue" d="M2028.77,-132.03C1930.21,-124.28 1750.22,-108.61 1597.5,-87 1594.74,-86.61 1591.93,-86.19 1589.09,-85.75"/>
<polygon fill="midnightblue" stroke="midnightblue" points="2028.68,-135.53 2038.92,-132.82 2029.22,-128.55 2028.68,-135.53"/>
</g>
<!-- Node20 -->
<g id="node20" class="node">
<title>Node20</title>
<g id="a_node20"><a xlink:href="../../d2/df4/show__info__dialog_8cpp.html" target="_top" xlink:title=" ">
<polygon fill="white" stroke="black" points="1607,-56.5 1607,-86.5 1748,-86.5 1748,-56.5 1607,-56.5"/>
<text text-anchor="start" x="1615" y="-74.5" font-family="Helvetica,sans-Serif" font-size="10.00">src/app/seamly2d/dialogs</text>
<text text-anchor="middle" x="1677.5" y="-63.5" font-family="Helvetica,sans-Serif" font-size="10.00">/show_info_dialog.cpp</text>
</a>
</g>
</g>
<!-- Node2&#45;&gt;Node20 -->
<g id="edge19" class="edge">
<title>Node2&#45;&gt;Node20</title>
<path fill="none" stroke="midnightblue" d="M2028.88,-127.55C1958.75,-117.88 1850.27,-102.44 1756.5,-87 1753.75,-86.55 1750.94,-86.08 1748.11,-85.59"/>
<polygon fill="midnightblue" stroke="midnightblue" points="2028.56,-131.04 2038.94,-128.93 2029.51,-124.1 2028.56,-131.04"/>
</g>
<!-- Node21 -->
<g id="node21" class="node">
<title>Node21</title>
<g id="a_node21"><a xlink:href="../../df/d69/welcome__dialog_8cpp.html" target="_top" xlink:title=" ">
<polygon fill="white" stroke="black" points="1766,-56.5 1766,-86.5 1907,-86.5 1907,-56.5 1766,-56.5"/>
<text text-anchor="start" x="1774" y="-74.5" font-family="Helvetica,sans-Serif" font-size="10.00">src/app/seamly2d/dialogs</text>
<text text-anchor="middle" x="1836.5" y="-63.5" font-family="Helvetica,sans-Serif" font-size="10.00">/welcome_dialog.cpp</text>
</a>
</g>
</g>
<!-- Node2&#45;&gt;Node21 -->
<g id="edge20" class="edge">
<title>Node2&#45;&gt;Node21</title>
<path fill="none" stroke="midnightblue" d="M2035.19,-121.05C1991.7,-110.43 1935.7,-96.74 1894.25,-86.61"/>
<polygon fill="midnightblue" stroke="midnightblue" points="2034.56,-124.5 2045.11,-123.48 2036.23,-117.7 2034.56,-124.5"/>
</g>
<!-- Node22 -->
<g id="node22" class="node">
<title>Node22</title>
<g id="a_node22"><a xlink:href="../../dc/d14/app_2seamly2d_2main_8cpp.html" target="_top" xlink:title=" ">
<polygon fill="white" stroke="black" points="1925,-62 1925,-81 2076,-81 2076,-62 1925,-62"/>
<text text-anchor="middle" x="2000.5" y="-69" font-family="Helvetica,sans-Serif" font-size="10.00">src/app/seamly2d/main.cpp</text>
</a>
</g>
</g>
<!-- Node2&#45;&gt;Node22 -->
<g id="edge21" class="edge">
<title>Node2&#45;&gt;Node22</title>
<path fill="none" stroke="midnightblue" d="M2071.86,-117.97C2052.52,-105.65 2028.5,-90.35 2013.85,-81.01"/>
<polygon fill="midnightblue" stroke="midnightblue" points="2070.05,-120.97 2080.37,-123.4 2073.82,-115.07 2070.05,-120.97"/>
</g>
<!-- Node23 -->
<g id="node23" class="node">
<title>Node23</title>
<g id="a_node23"><a xlink:href="../../d8/de8/mainwindowsnogui_8cpp.html" target="_top" xlink:title=" ">
<polygon fill="white" stroke="black" points="2094,-62 2094,-81 2315,-81 2315,-62 2094,-62"/>
<text text-anchor="middle" x="2204.5" y="-69" font-family="Helvetica,sans-Serif" font-size="10.00">src/app/seamly2d/mainwindowsnogui.cpp</text>
</a>
</g>
</g>
<!-- Node2&#45;&gt;Node23 -->
<g id="edge22" class="edge">
<title>Node2&#45;&gt;Node23</title>
<path fill="none" stroke="midnightblue" d="M2133.14,-117.97C2152.48,-105.65 2176.5,-90.35 2191.15,-81.01"/>
<polygon fill="midnightblue" stroke="midnightblue" points="2131.18,-115.07 2124.63,-123.4 2134.95,-120.97 2131.18,-115.07"/>
</g>
<!-- Node2&#45;&gt;Node24 -->
<g id="edge23" class="edge">
<title>Node2&#45;&gt;Node24</title>
<path fill="none" stroke="midnightblue" d="M2176.41,-137.47C2444.22,-137.01 3354.5,-132.11 3476.5,-87 3497.27,-79.32 3494.9,-64.11 3515.5,-56 3600.32,-22.62 3855.6,-13.96 3995.42,-11.74"/>
<polygon fill="midnightblue" stroke="midnightblue" points="2176.01,-133.97 2166.02,-137.49 2176.02,-140.97 2176.01,-133.97"/>
</g>
<!-- Node25 -->
<g id="node25" class="node">
<title>Node25</title>
<g id="a_node25"><a xlink:href="../../d3/d49/vpattern_8cpp.html" target="_top" xlink:title=" ">
<polygon fill="white" stroke="black" points="2333,-56.5 2333,-86.5 2458,-86.5 2458,-56.5 2333,-56.5"/>
<text text-anchor="start" x="2341" y="-74.5" font-family="Helvetica,sans-Serif" font-size="10.00">src/app/seamly2d/xml</text>
<text text-anchor="middle" x="2395.5" y="-63.5" font-family="Helvetica,sans-Serif" font-size="10.00">/vpattern.cpp</text>
</a>
</g>
</g>
<!-- Node2&#45;&gt;Node25 -->
<g id="edge24" class="edge">
<title>Node2&#45;&gt;Node25</title>
<path fill="none" stroke="midnightblue" d="M2175.51,-121.3C2223.92,-110.56 2286.78,-96.62 2332.9,-86.39"/>
<polygon fill="midnightblue" stroke="midnightblue" points="2174.72,-117.89 2165.72,-123.48 2176.24,-124.73 2174.72,-117.89"/>
</g>
<!-- Node26&#45;&gt;Node13 -->
<g id="edge29" class="edge">
<title>Node26&#45;&gt;Node13</title>
<path fill="none" stroke="midnightblue" d="M3923.5,-113.11C3923.5,-104.15 3923.5,-94.32 3923.5,-86.58"/>
<polygon fill="midnightblue" stroke="midnightblue" points="3920,-113.4 3923.5,-123.4 3927,-113.4 3920,-113.4"/>
</g>
<!-- Node27 -->
<g id="node27" class="node">
<title>Node27</title>
<g id="a_node27"><a xlink:href="../../d6/d64/dialogs_8h.html" target="_top" xlink:title=" ">
<polygon fill="white" stroke="black" points="4019,-56.5 4019,-86.5 4160,-86.5 4160,-56.5 4019,-56.5"/>
<text text-anchor="start" x="4027" y="-74.5" font-family="Helvetica,sans-Serif" font-size="10.00">src/app/seamly2d/dialogs</text>
<text text-anchor="middle" x="4089.5" y="-63.5" font-family="Helvetica,sans-Serif" font-size="10.00">/dialogs.h</text>
</a>
</g>
</g>
<!-- Node26&#45;&gt;Node27 -->
<g id="edge30" class="edge">
<title>Node26&#45;&gt;Node27</title>
<path fill="none" stroke="midnightblue" d="M3969.01,-119.68C3995.63,-109.26 4028.77,-96.28 4053.55,-86.58"/>
<polygon fill="midnightblue" stroke="midnightblue" points="3967.55,-116.49 3959.52,-123.4 3970.11,-123.01 3967.55,-116.49"/>
</g>
<!-- Node27&#45;&gt;Node24 -->
<g id="edge31" class="edge">
<title>Node27&#45;&gt;Node24</title>
<path fill="none" stroke="midnightblue" d="M4089.5,-46.29C4089.5,-36.86 4089.5,-26.65 4089.5,-19.66"/>
<polygon fill="midnightblue" stroke="midnightblue" points="4086,-46.4 4089.5,-56.4 4093,-46.4 4086,-46.4"/>
</g>
</g>
</svg>
        <g id="navigator" transform="translate(0 0)" fill="#404254">
                <rect fill="#f2f5e9" fill-opacity="0.5" stroke="#606060" stroke-width=".5" x="0" y="0" width="60" height="60"/>
                <use id="zoomplus" xlink:href="#zoomPlus" x="17" y="9" onmousedown="handleZoom(evt,'in')"/>
                <use id="zoomminus" xlink:href="#zoomMin" x="42" y="9" onmousedown="handleZoom(evt,'out')"/>
                <use id="reset" xlink:href="#resetDef" x="30" y="36" onmousedown="handleReset()"/>
                <g id="arrowUp" xlink:href="#dirArrow" transform="translate(30 24)" onmousedown="handlePan(0,-1)">
                  <use xlink:href="#rim" fill="#404040">
                        <set attributeName="fill" to="#808080" begin="arrowUp.mouseover" end="arrowUp.mouseout"/>
                  </use>
                  <path fill="none" stroke="white" stroke-width="1.5" d="M0,-3.0v7 M-2.5,-0.5L0,-3.0L2.5,-0.5"/>
                </g>
                <g id="arrowRight" xlink:href="#dirArrow" transform="rotate(90) translate(36 -43)" onmousedown="handlePan(1,0)">
                  <use xlink:href="#rim" fill="#404040">
                        <set attributeName="fill" to="#808080" begin="arrowRight.mouseover" end="arrowRight.mouseout"/>
                  </use>
                  <path fill="none" stroke="white" stroke-width="1.5" d="M0,-3.0v7 M-2.5,-0.5L0,-3.0L2.5,-0.5"/>
                </g>
                <g id="arrowDown" xlink:href="#dirArrow" transform="rotate(180) translate(-30 -48)" onmousedown="handlePan(0,1)">
                  <use xlink:href="#rim" fill="#404040">
                        <set attributeName="fill" to="#808080" begin="arrowDown.mouseover" end="arrowDown.mouseout"/>
                  </use>
                  <path fill="none" stroke="white" stroke-width="1.5" d="M0,-3.0v7 M-2.5,-0.5L0,-3.0L2.5,-0.5"/>
                </g>
                <g id="arrowLeft" xlink:href="#dirArrow" transform="rotate(270) translate(-36 17)" onmousedown="handlePan(-1,0)">
                  <use xlink:href="#rim" fill="#404040">
                        <set attributeName="fill" to="#808080" begin="arrowLeft.mouseover" end="arrowLeft.mouseout"/>
                  </use>
                  <path fill="none" stroke="white" stroke-width="1.5" d="M0,-3.0v7 M-2.5,-0.5L0,-3.0L2.5,-0.5"/>
                </g>
        </g>
        <svg viewBox="0 0 15 15" width="100%" height="30px" preserveAspectRatio="xMaxYMin meet">
         <g id="arrow_out" transform="scale(0.3 0.3)">
          <a xlink:href="options_8h__dep__incl_org.svg" target="_base">
           <rect id="button" ry="5" rx="5" y="6" x="6" height="38" width="38"
                fill="#f2f5e9" fill-opacity="0.5" stroke="#606060" stroke-width="1.0"/>
           <path id="arrow"
             d="M 11.500037,31.436501 C 11.940474,20.09759 22.043105,11.32322 32.158766,21.979434 L 37.068811,17.246167 C 37.068811,17.246167 37.088388,32 37.088388,32 L 22.160133,31.978069 C 22.160133,31.978069 26.997745,27.140456 26.997745,27.140456 C 18.528582,18.264221 13.291696,25.230495 11.500037,31.436501 z"
             style="fill:#404040;"/>
          </a>
         </g>
        </svg>
</svg>
