<?xml version="1.0" encoding="UTF-8" standalone="no"?>
<!DOCTYPE svg PUBLIC "-//W3C//DTD SVG 1.1//EN"
 "http://www.w3.org/Graphics/SVG/1.1/DTD/svg11.dtd">
<!-- Generated by graphviz version 2.43.0 (0)
 -->
<!-- Title: src/libs/vpatterndb/variables/custom_variable.h Pages: 1 -->
<svg width="6055pt" height="385pt"
 viewBox="0.00 0.00 6055.31 385.00" xmlns="http://www.w3.org/2000/svg" xmlns:xlink="http://www.w3.org/1999/xlink">
<g id="graph0" class="graph" transform="scale(1 1) rotate(0) translate(4 381)">
<title>src/libs/vpatterndb/variables/custom_variable.h</title>
<polygon fill="white" stroke="transparent" points="-4,4 -4,-381 6051.31,-381 6051.31,4 -4,4"/>
<!-- Node1 -->
<g id="node1" class="node">
<title>Node1</title>
<g id="a_node1"><a xlink:title=" ">
<polygon fill="#bfbfbf" stroke="black" points="4754.81,-346.5 4754.81,-376.5 4912.81,-376.5 4912.81,-346.5 4754.81,-346.5"/>
<text text-anchor="start" x="4762.81" y="-364.5" font-family="Helvetica,sans-Serif" font-size="10.00">src/libs/vpatterndb</text>
<text text-anchor="middle" x="4833.81" y="-353.5" font-family="Helvetica,sans-Serif" font-size="10.00">/variables/custom_variable.h</text>
</a>
</g>
</g>
<!-- Node2 -->
<g id="node2" class="node">
<title>Node2</title>
<g id="a_node2"><a xlink:href="../../d2/d1e/custom__variable_8cpp.html" target="_top" xlink:title=" ">
<polygon fill="white" stroke="black" points="5878.31,-67.5 5878.31,-97.5 6047.31,-97.5 6047.31,-67.5 5878.31,-67.5"/>
<text text-anchor="start" x="5886.31" y="-85.5" font-family="Helvetica,sans-Serif" font-size="10.00">src/libs/vpatterndb</text>
<text text-anchor="middle" x="5962.81" y="-74.5" font-family="Helvetica,sans-Serif" font-size="10.00">/variables/custom_variable.cpp</text>
</a>
</g>
</g>
<!-- Node1&#45;&gt;Node2 -->
<g id="edge1" class="edge">
<title>Node1&#45;&gt;Node2</title>
<path fill="none" stroke="midnightblue" d="M4923.28,-359.52C5164.41,-354.86 5818.89,-328.16 5956.81,-176 5976.16,-154.66 5971.39,-117.94 5966.76,-97.78"/>
<polygon fill="midnightblue" stroke="midnightblue" points="4923.08,-356.03 4913.15,-359.71 4923.21,-363.02 4923.08,-356.03"/>
</g>
<!-- Node3 -->
<g id="node3" class="node">
<title>Node3</title>
<g id="a_node3"><a xlink:href="../../d6/d46/vcontainer_8cpp.html" target="_top" xlink:title=" ">
<polygon fill="white" stroke="black" points="1298.31,-67.5 1298.31,-97.5 1405.31,-97.5 1405.31,-67.5 1298.31,-67.5"/>
<text text-anchor="start" x="1306.31" y="-85.5" font-family="Helvetica,sans-Serif" font-size="10.00">src/libs/vpatterndb</text>
<text text-anchor="middle" x="1351.81" y="-74.5" font-family="Helvetica,sans-Serif" font-size="10.00">/vcontainer.cpp</text>
</a>
</g>
</g>
<!-- Node1&#45;&gt;Node3 -->
<g id="edge2" class="edge">
<title>Node1&#45;&gt;Node3</title>
<path fill="none" stroke="midnightblue" d="M4744.36,-359.72C4285.48,-355.07 2192.87,-325.87 1563.81,-176 1492.33,-158.97 1414.71,-119.02 1376.26,-97.62"/>
<polygon fill="midnightblue" stroke="midnightblue" points="4744.54,-363.22 4754.58,-359.82 4744.61,-356.22 4744.54,-363.22"/>
</g>
<!-- Node4 -->
<g id="node4" class="node">
<title>Node4</title>
<g id="a_node4"><a xlink:href="../../de/dca/variables_8h.html" target="_top" xlink:title=" ">
<polygon fill="white" stroke="black" points="4780.31,-279.5 4780.31,-309.5 4887.31,-309.5 4887.31,-279.5 4780.31,-279.5"/>
<text text-anchor="start" x="4788.31" y="-297.5" font-family="Helvetica,sans-Serif" font-size="10.00">src/libs/vpatterndb</text>
<text text-anchor="middle" x="4833.81" y="-286.5" font-family="Helvetica,sans-Serif" font-size="10.00">/variables.h</text>
</a>
</g>
</g>
<!-- Node1&#45;&gt;Node4 -->
<g id="edge3" class="edge">
<title>Node1&#45;&gt;Node4</title>
<path fill="none" stroke="midnightblue" d="M4833.81,-336.11C4833.81,-327.15 4833.81,-317.32 4833.81,-309.58"/>
<polygon fill="midnightblue" stroke="midnightblue" points="4830.31,-336.4 4833.81,-346.4 4837.31,-336.4 4830.31,-336.4"/>
</g>
<!-- Node5 -->
<g id="node5" class="node">
<title>Node5</title>
<g id="a_node5"><a xlink:href="../../d3/df7/vcontainer_8h.html" target="_top" xlink:title=" ">
<polygon fill="white" stroke="black" points="4780.31,-212.5 4780.31,-242.5 4887.31,-242.5 4887.31,-212.5 4780.31,-212.5"/>
<text text-anchor="start" x="4788.31" y="-230.5" font-family="Helvetica,sans-Serif" font-size="10.00">src/libs/vpatterndb</text>
<text text-anchor="middle" x="4833.81" y="-219.5" font-family="Helvetica,sans-Serif" font-size="10.00">/vcontainer.h</text>
</a>
</g>
</g>
<!-- Node4&#45;&gt;Node5 -->
<g id="edge4" class="edge">
<title>Node4&#45;&gt;Node5</title>
<path fill="none" stroke="midnightblue" d="M4833.81,-269.11C4833.81,-260.15 4833.81,-250.32 4833.81,-242.58"/>
<polygon fill="midnightblue" stroke="midnightblue" points="4830.31,-269.4 4833.81,-279.4 4837.31,-269.4 4830.31,-269.4"/>
</g>
<!-- Node5&#45;&gt;Node3 -->
<g id="edge56" class="edge">
<title>Node5&#45;&gt;Node3</title>
<path fill="none" stroke="midnightblue" d="M4769.88,-226.13C4359.85,-223.69 2107.03,-208.84 1802.81,-176 1656.4,-160.2 1487.12,-119.23 1403.73,-97.5"/>
<polygon fill="midnightblue" stroke="midnightblue" points="4770.04,-229.63 4780.07,-226.19 4770.09,-222.63 4770.04,-229.63"/>
</g>
<!-- Node6 -->
<g id="node6" class="node">
<title>Node6</title>
<g id="a_node6"><a xlink:href="../../d2/d47/image__dialog_8cpp.html" target="_top" xlink:title=" ">
<polygon fill="white" stroke="black" points="1423.81,-67.5 1423.81,-97.5 1535.81,-97.5 1535.81,-67.5 1423.81,-67.5"/>
<text text-anchor="start" x="1431.81" y="-85.5" font-family="Helvetica,sans-Serif" font-size="10.00">src/libs/tools/image</text>
<text text-anchor="middle" x="1479.81" y="-74.5" font-family="Helvetica,sans-Serif" font-size="10.00">_dialog.cpp</text>
</a>
</g>
</g>
<!-- Node5&#45;&gt;Node6 -->
<g id="edge5" class="edge">
<title>Node5&#45;&gt;Node6</title>
<path fill="none" stroke="midnightblue" d="M4769.79,-226.67C4492.81,-227.06 3370.17,-225.36 2449.81,-176 2046.68,-154.38 1943.83,-159.42 1544.81,-98 1541.96,-97.56 1539.04,-97.07 1536.1,-96.54"/>
<polygon fill="midnightblue" stroke="midnightblue" points="4770.06,-230.17 4780.06,-226.65 4770.05,-223.17 4770.06,-230.17"/>
</g>
<!-- Node7 -->
<g id="node7" class="node">
<title>Node7</title>
<g id="a_node7"><a xlink:href="../../dc/db7/measurements_8h.html" target="_top" xlink:title=" ">
<polygon fill="white" stroke="black" points="5544.31,-145.5 5544.31,-164.5 5723.31,-164.5 5723.31,-145.5 5544.31,-145.5"/>
<text text-anchor="middle" x="5633.81" y="-152.5" font-family="Helvetica,sans-Serif" font-size="10.00">src/libs/vformat/measurements.h</text>
</a>
</g>
</g>
<!-- Node5&#45;&gt;Node7 -->
<g id="edge6" class="edge">
<title>Node5&#45;&gt;Node7</title>
<path fill="none" stroke="midnightblue" d="M4897.75,-224.62C5021.33,-220.38 5301.4,-207.85 5534.81,-176 5555.66,-173.15 5578.72,-168.58 5597.33,-164.53"/>
<polygon fill="midnightblue" stroke="midnightblue" points="4897.58,-221.12 4887.7,-224.96 4897.81,-228.12 4897.58,-221.12"/>
</g>
<!-- Node8 -->
<g id="node8" class="node">
<title>Node8</title>
<g id="a_node8"><a xlink:href="../../d9/de3/measurements_8cpp.html" target="_top" xlink:title=" ">
<polygon fill="white" stroke="black" points="5597.81,-73 5597.81,-92 5787.81,-92 5787.81,-73 5597.81,-73"/>
<text text-anchor="middle" x="5692.81" y="-80" font-family="Helvetica,sans-Serif" font-size="10.00">src/libs/vformat/measurements.cpp</text>
</a>
</g>
</g>
<!-- Node5&#45;&gt;Node8 -->
<g id="edge8" class="edge">
<title>Node5&#45;&gt;Node8</title>
<path fill="none" stroke="midnightblue" d="M4897.72,-225.29C5098.21,-221.17 5703.2,-206.27 5731.81,-176 5755.28,-151.18 5719.95,-110.14 5702.1,-92.27"/>
<polygon fill="midnightblue" stroke="midnightblue" points="4897.56,-221.79 4887.64,-225.49 4897.7,-228.79 4897.56,-221.79"/>
</g>
<!-- Node9 -->
<g id="node9" class="node">
<title>Node9</title>
<g id="a_node9"><a xlink:href="../../d6/de0/vlayoutpiece_8h.html" target="_top" xlink:title=" ">
<polygon fill="white" stroke="black" points="588.81,-145.5 588.81,-164.5 754.81,-164.5 754.81,-145.5 588.81,-145.5"/>
<text text-anchor="middle" x="671.81" y="-152.5" font-family="Helvetica,sans-Serif" font-size="10.00">src/libs/vlayout/vlayoutpiece.h</text>
</a>
</g>
</g>
<!-- Node5&#45;&gt;Node9 -->
<g id="edge9" class="edge">
<title>Node5&#45;&gt;Node9</title>
<path fill="none" stroke="midnightblue" d="M4769.68,-225.66C4435.93,-221.27 2863.92,-200.17 1577.81,-176 1274.61,-170.3 914.38,-161.85 754.88,-158.02"/>
<polygon fill="midnightblue" stroke="midnightblue" points="4770.07,-229.17 4780.11,-225.8 4770.16,-222.17 4770.07,-229.17"/>
</g>
<!-- Node19 -->
<g id="node18" class="node">
<title>Node19</title>
<g id="a_node18"><a xlink:href="../../d8/d70/vtextmanager_8cpp.html" target="_top" xlink:title=" ">
<polygon fill="white" stroke="black" points="1553.81,-73 1553.81,-92 1735.81,-92 1735.81,-73 1553.81,-73"/>
<text text-anchor="middle" x="1644.81" y="-80" font-family="Helvetica,sans-Serif" font-size="10.00">src/libs/vlayout/vtextmanager.cpp</text>
</a>
</g>
</g>
<!-- Node5&#45;&gt;Node19 -->
<g id="edge20" class="edge">
<title>Node5&#45;&gt;Node19</title>
<path fill="none" stroke="midnightblue" d="M4770.04,-225.47C4542.62,-221.62 3750.14,-206.69 3096.81,-176 2808.97,-162.48 2737.49,-150.68 2449.81,-134 2136.6,-115.84 2057.07,-128.54 1744.81,-98 1729.28,-96.48 1712.46,-94.26 1697.12,-92.02"/>
<polygon fill="midnightblue" stroke="midnightblue" points="4770.06,-228.97 4780.12,-225.64 4770.18,-221.97 4770.06,-228.97"/>
</g>
<!-- Node20 -->
<g id="node19" class="node">
<title>Node20</title>
<g id="a_node19"><a xlink:href="../../d5/d74/vabstractapplication_8h.html" target="_top" xlink:title=" ">
<polygon fill="white" stroke="red" points="3106.31,-145.5 3106.31,-164.5 3301.31,-164.5 3301.31,-145.5 3106.31,-145.5"/>
<text text-anchor="middle" x="3203.81" y="-152.5" font-family="Helvetica,sans-Serif" font-size="10.00">src/libs/vmisc/vabstractapplication.h</text>
</a>
</g>
</g>
<!-- Node5&#45;&gt;Node20 -->
<g id="edge21" class="edge">
<title>Node5&#45;&gt;Node20</title>
<path fill="none" stroke="midnightblue" d="M4770.02,-223.74C4519.73,-212.92 3603.68,-173.29 3301.36,-160.22"/>
<polygon fill="midnightblue" stroke="midnightblue" points="4769.9,-227.24 4780.05,-224.17 4770.21,-220.25 4769.9,-227.24"/>
</g>
<!-- Node48 -->
<g id="node34" class="node">
<title>Node48</title>
<g id="a_node34"><a xlink:href="../../db/d11/vformula_8cpp.html" target="_top" xlink:title=" ">
<polygon fill="white" stroke="black" points="4953.31,-67.5 4953.31,-97.5 5060.31,-97.5 5060.31,-67.5 4953.31,-67.5"/>
<text text-anchor="start" x="4961.31" y="-85.5" font-family="Helvetica,sans-Serif" font-size="10.00">src/libs/vpatterndb</text>
<text text-anchor="middle" x="5006.81" y="-74.5" font-family="Helvetica,sans-Serif" font-size="10.00">/vformula.cpp</text>
</a>
</g>
</g>
<!-- Node5&#45;&gt;Node48 -->
<g id="edge55" class="edge">
<title>Node5&#45;&gt;Node48</title>
<path fill="none" stroke="midnightblue" d="M4771.75,-208.15C4756.78,-200.65 4742.59,-190.27 4733.81,-176 4724.03,-160.1 4721.78,-148.27 4733.81,-134 4764.34,-97.8 4897.39,-107.31 4943.81,-98 4946.9,-97.38 4950.06,-96.73 4953.24,-96.05"/>
<polygon fill="midnightblue" stroke="midnightblue" points="4770.58,-211.46 4781.13,-212.45 4773.5,-205.1 4770.58,-211.46"/>
</g>
<!-- Node49 -->
<g id="node35" class="node">
<title>Node49</title>
<g id="a_node35"><a xlink:href="../../df/d7a/vpiece_8cpp.html" target="_top" xlink:title=" ">
<polygon fill="white" stroke="black" points="5078.31,-67.5 5078.31,-97.5 5185.31,-97.5 5185.31,-67.5 5078.31,-67.5"/>
<text text-anchor="start" x="5086.31" y="-85.5" font-family="Helvetica,sans-Serif" font-size="10.00">src/libs/vpatterndb</text>
<text text-anchor="middle" x="5131.81" y="-74.5" font-family="Helvetica,sans-Serif" font-size="10.00">/vpiece.cpp</text>
</a>
</g>
</g>
<!-- Node5&#45;&gt;Node49 -->
<g id="edge58" class="edge">
<title>Node5&#45;&gt;Node49</title>
<path fill="none" stroke="midnightblue" d="M4798.74,-206.54C4788.08,-198.54 4777.65,-188.27 4771.81,-176 4763.8,-159.14 4759.44,-147.97 4771.81,-134 4815.91,-84.24 5003.33,-109.47 5068.81,-98 5071.91,-97.46 5075.08,-96.86 5078.28,-96.23"/>
<polygon fill="midnightblue" stroke="midnightblue" points="4797.05,-209.63 4807.26,-212.47 4801.05,-203.88 4797.05,-209.63"/>
</g>
<!-- Node51 -->
<g id="node37" class="node">
<title>Node51</title>
<g id="a_node37"><a xlink:href="../../d8/dba/vpiecenode_8cpp.html" target="_top" xlink:title=" ">
<polygon fill="white" stroke="black" points="4021.31,-0.5 4021.31,-30.5 4128.31,-30.5 4128.31,-0.5 4021.31,-0.5"/>
<text text-anchor="start" x="4029.31" y="-18.5" font-family="Helvetica,sans-Serif" font-size="10.00">src/libs/vpatterndb</text>
<text text-anchor="middle" x="4074.81" y="-7.5" font-family="Helvetica,sans-Serif" font-size="10.00">/vpiecenode.cpp</text>
</a>
</g>
</g>
<!-- Node5&#45;&gt;Node51 -->
<g id="edge59" class="edge">
<title>Node5&#45;&gt;Node51</title>
<path fill="none" stroke="midnightblue" d="M4816.07,-204.31C4801.88,-183.75 4787.06,-153.48 4804.81,-134 4863.3,-69.85 5135.32,-162.15 5193.81,-98 5203.1,-87.82 5203.34,-76.96 5193.81,-67 5156.63,-28.1 4346.98,-18.71 4128.65,-16.89"/>
<polygon fill="midnightblue" stroke="midnightblue" points="4813.3,-206.45 4822.01,-212.47 4818.95,-202.33 4813.3,-206.45"/>
</g>
<!-- Node65 -->
<g id="node45" class="node">
<title>Node65</title>
<g id="a_node45"><a xlink:href="../../d3/d02/custom__variable__p_8h.html" target="_top" xlink:title=" ">
<polygon fill="white" stroke="black" points="5779.31,-140 5779.31,-170 5948.31,-170 5948.31,-140 5779.31,-140"/>
<text text-anchor="start" x="5787.31" y="-158" font-family="Helvetica,sans-Serif" font-size="10.00">src/libs/vpatterndb</text>
<text text-anchor="middle" x="5863.81" y="-147" font-family="Helvetica,sans-Serif" font-size="10.00">/variables/custom_variable_p.h</text>
</a>
</g>
</g>
<!-- Node5&#45;&gt;Node65 -->
<g id="edge52" class="edge">
<title>Node5&#45;&gt;Node65</title>
<path fill="none" stroke="midnightblue" d="M4897.43,-226.27C5048.63,-225.03 5441.18,-217.69 5765.81,-176 5777.61,-174.48 5790.11,-172.35 5802.1,-170.03"/>
<polygon fill="midnightblue" stroke="midnightblue" points="4897.36,-222.77 4887.39,-226.35 4897.42,-229.77 4897.36,-222.77"/>
</g>
<!-- Node66 -->
<g id="node46" class="node">
<title>Node66</title>
<g id="a_node46"><a xlink:href="../../d7/d8a/measurement__variable__p_8h.html" target="_top" xlink:title=" ">
<polygon fill="white" stroke="red" points="4813.81,-134.5 4813.81,-175.5 4949.81,-175.5 4949.81,-134.5 4813.81,-134.5"/>
<text text-anchor="start" x="4821.81" y="-163.5" font-family="Helvetica,sans-Serif" font-size="10.00">src/libs/vpatterndb</text>
<text text-anchor="start" x="4821.81" y="-152.5" font-family="Helvetica,sans-Serif" font-size="10.00">/variables/measurement</text>
<text text-anchor="middle" x="4881.81" y="-141.5" font-family="Helvetica,sans-Serif" font-size="10.00">_variable_p.h</text>
</a>
</g>
</g>
<!-- Node5&#45;&gt;Node66 -->
<g id="edge54" class="edge">
<title>Node5&#45;&gt;Node66</title>
<path fill="none" stroke="midnightblue" d="M4849.34,-203.7C4855.51,-194.63 4862.54,-184.31 4868.48,-175.59"/>
<polygon fill="midnightblue" stroke="midnightblue" points="4846.26,-202 4843.53,-212.23 4852.05,-205.94 4846.26,-202"/>
</g>
<!-- Node68 -->
<g id="node47" class="node">
<title>Node68</title>
<g id="a_node47"><a xlink:href="../../d6/d91/vnodedetail_8cpp.html" target="_top" xlink:title=" ">
<polygon fill="white" stroke="black" points="4968.31,-140 4968.31,-170 5075.31,-170 5075.31,-140 4968.31,-140"/>
<text text-anchor="start" x="4976.31" y="-158" font-family="Helvetica,sans-Serif" font-size="10.00">src/libs/vpatterndb</text>
<text text-anchor="middle" x="5021.81" y="-147" font-family="Helvetica,sans-Serif" font-size="10.00">/vnodedetail.cpp</text>
</a>
</g>
</g>
<!-- Node5&#45;&gt;Node68 -->
<g id="edge57" class="edge">
<title>Node5&#45;&gt;Node68</title>
<path fill="none" stroke="midnightblue" d="M4880.99,-208.81C4912.94,-196.83 4954.59,-181.21 4984.29,-170.07"/>
<polygon fill="midnightblue" stroke="midnightblue" points="4879.54,-205.61 4871.41,-212.4 4882,-212.17 4879.54,-205.61"/>
</g>
<!-- Node69 -->
<g id="node48" class="node">
<title>Node69</title>
<g id="a_node48"><a xlink:href="../../da/de1/vpiecepath_8cpp.html" target="_top" xlink:title=" ">
<polygon fill="white" stroke="black" points="5093.31,-140 5093.31,-170 5200.31,-170 5200.31,-140 5093.31,-140"/>
<text text-anchor="start" x="5101.31" y="-158" font-family="Helvetica,sans-Serif" font-size="10.00">src/libs/vpatterndb</text>
<text text-anchor="middle" x="5146.81" y="-147" font-family="Helvetica,sans-Serif" font-size="10.00">/vpiecepath.cpp</text>
</a>
</g>
</g>
<!-- Node5&#45;&gt;Node69 -->
<g id="edge60" class="edge">
<title>Node5&#45;&gt;Node69</title>
<path fill="none" stroke="midnightblue" d="M4897.21,-215.65C4948,-206.49 5020.92,-192.28 5083.81,-176 5090.59,-174.25 5097.72,-172.19 5104.64,-170.08"/>
<polygon fill="midnightblue" stroke="midnightblue" points="4896.58,-212.21 4887.35,-217.42 4897.81,-219.1 4896.58,-212.21"/>
</g>
<!-- Node70 -->
<g id="node49" class="node">
<title>Node70</title>
<g id="a_node49"><a xlink:href="../../d1/d3a/abstracttest_8cpp.html" target="_top" xlink:title=" ">
<polygon fill="white" stroke="black" points="5218.31,-145.5 5218.31,-164.5 5379.31,-164.5 5379.31,-145.5 5218.31,-145.5"/>
<text text-anchor="middle" x="5298.81" y="-152.5" font-family="Helvetica,sans-Serif" font-size="10.00">src/libs/vtest/abstracttest.cpp</text>
</a>
</g>
</g>
<!-- Node5&#45;&gt;Node70 -->
<g id="edge61" class="edge">
<title>Node5&#45;&gt;Node70</title>
<path fill="none" stroke="midnightblue" d="M4897.64,-219.58C4972.48,-211.07 5100.1,-195.36 5208.81,-176 5226.94,-172.77 5246.94,-168.41 5263.48,-164.58"/>
<polygon fill="midnightblue" stroke="midnightblue" points="4896.99,-216.13 4887.44,-220.73 4897.77,-223.08 4896.99,-216.13"/>
</g>
<!-- Node71 -->
<g id="node50" class="node">
<title>Node71</title>
<g id="a_node50"><a xlink:href="../../da/db4/piece__tablewidgetitem_8cpp.html" target="_top" xlink:title=" ">
<polygon fill="white" stroke="black" points="5397.81,-140 5397.81,-170 5525.81,-170 5525.81,-140 5397.81,-140"/>
<text text-anchor="start" x="5405.81" y="-158" font-family="Helvetica,sans-Serif" font-size="10.00">src/libs/vwidgets/piece</text>
<text text-anchor="middle" x="5461.81" y="-147" font-family="Helvetica,sans-Serif" font-size="10.00">_tablewidgetitem.cpp</text>
</a>
</g>
</g>
<!-- Node5&#45;&gt;Node71 -->
<g id="edge62" class="edge">
<title>Node5&#45;&gt;Node71</title>
<path fill="none" stroke="midnightblue" d="M4897.6,-224.27C5001.18,-219.85 5212.04,-207.52 5387.81,-176 5396.59,-174.43 5405.84,-172.31 5414.72,-170.03"/>
<polygon fill="midnightblue" stroke="midnightblue" points="4897.16,-220.79 4887.32,-224.7 4897.45,-227.78 4897.16,-220.79"/>
</g>
<!-- Node7&#45;&gt;Node8 -->
<g id="edge7" class="edge">
<title>Node7&#45;&gt;Node8</title>
<path fill="none" stroke="midnightblue" d="M5647.71,-137.4C5659.55,-123.24 5676.11,-103.46 5685.52,-92.22"/>
<polygon fill="midnightblue" stroke="midnightblue" points="5644.78,-135.44 5641.05,-145.36 5650.15,-139.93 5644.78,-135.44"/>
</g>
<!-- Node10 -->
<g id="node10" class="node">
<title>Node10</title>
<g id="a_node10"><a xlink:href="../../dd/d66/vdxfengine_8cpp.html" target="_top" xlink:title=" ">
<polygon fill="white" stroke="black" points="594.81,-73 594.81,-92 748.81,-92 748.81,-73 594.81,-73"/>
<text text-anchor="middle" x="671.81" y="-80" font-family="Helvetica,sans-Serif" font-size="10.00">src/libs/vdxf/vdxfengine.cpp</text>
</a>
</g>
</g>
<!-- Node9&#45;&gt;Node10 -->
<g id="edge10" class="edge">
<title>Node9&#45;&gt;Node10</title>
<path fill="none" stroke="midnightblue" d="M671.81,-134.94C671.81,-121.03 671.81,-102.82 671.81,-92.22"/>
<polygon fill="midnightblue" stroke="midnightblue" points="668.31,-135.36 671.81,-145.36 675.31,-135.36 668.31,-135.36"/>
</g>
<!-- Node11 -->
<g id="node11" class="node">
<title>Node11</title>
<g id="a_node11"><a xlink:href="../../de/da8/vbank_8cpp.html" target="_top" xlink:title=" ">
<polygon fill="white" stroke="black" points="766.81,-73 766.81,-92 910.81,-92 910.81,-73 766.81,-73"/>
<text text-anchor="middle" x="838.81" y="-80" font-family="Helvetica,sans-Serif" font-size="10.00">src/libs/vlayout/vbank.cpp</text>
</a>
</g>
</g>
<!-- Node9&#45;&gt;Node11 -->
<g id="edge11" class="edge">
<title>Node9&#45;&gt;Node11</title>
<path fill="none" stroke="midnightblue" d="M701.3,-141.55C735.03,-127.32 789.34,-104.38 818.6,-92.03"/>
<polygon fill="midnightblue" stroke="midnightblue" points="699.81,-138.38 691.96,-145.5 702.53,-144.83 699.81,-138.38"/>
</g>
<!-- Node12 -->
<g id="node12" class="node">
<title>Node12</title>
<g id="a_node12"><a xlink:href="../../df/d5d/vcontour_8cpp.html" target="_top" xlink:title=" ">
<polygon fill="white" stroke="black" points="928.81,-73 928.81,-92 1084.81,-92 1084.81,-73 928.81,-73"/>
<text text-anchor="middle" x="1006.81" y="-80" font-family="Helvetica,sans-Serif" font-size="10.00">src/libs/vlayout/vcontour.cpp</text>
</a>
</g>
</g>
<!-- Node9&#45;&gt;Node12 -->
<g id="edge12" class="edge">
<title>Node9&#45;&gt;Node12</title>
<path fill="none" stroke="midnightblue" d="M722.08,-143.42C788.69,-129.4 904.93,-104.94 966.26,-92.03"/>
<polygon fill="midnightblue" stroke="midnightblue" points="721.29,-140.01 712.22,-145.5 722.73,-146.86 721.29,-140.01"/>
</g>
<!-- Node13 -->
<g id="node13" class="node">
<title>Node13</title>
<g id="a_node13"><a xlink:href="../../d2/d2d/vlayoutpaper__p_8h.html" target="_top" xlink:title=" ">
<polygon fill="white" stroke="black" points="397.31,-73 397.31,-92 576.31,-92 576.31,-73 397.31,-73"/>
<text text-anchor="middle" x="486.81" y="-80" font-family="Helvetica,sans-Serif" font-size="10.00">src/libs/vlayout/vlayoutpaper_p.h</text>
</a>
</g>
</g>
<!-- Node9&#45;&gt;Node13 -->
<g id="edge13" class="edge">
<title>Node9&#45;&gt;Node13</title>
<path fill="none" stroke="midnightblue" d="M640.11,-141.92C602.83,-127.71 541.9,-104.49 509.21,-92.03"/>
<polygon fill="midnightblue" stroke="midnightblue" points="638.91,-145.21 649.5,-145.5 641.4,-138.66 638.91,-145.21"/>
</g>
<!-- Node14 -->
<g id="node14" class="node">
<title>Node14</title>
<g id="a_node14"><a xlink:href="../../d1/dd1/vlayoutpaper_8cpp.html" target="_top" xlink:title=" ">
<polygon fill="white" stroke="black" points="0.81,-6 0.81,-25 178.81,-25 178.81,-6 0.81,-6"/>
<text text-anchor="middle" x="89.81" y="-13" font-family="Helvetica,sans-Serif" font-size="10.00">src/libs/vlayout/vlayoutpaper.cpp</text>
</a>
</g>
</g>
<!-- Node9&#45;&gt;Node14 -->
<g id="edge15" class="edge">
<title>Node9&#45;&gt;Node14</title>
<path fill="none" stroke="midnightblue" d="M578.43,-152.98C404.43,-150.12 44.7,-139.21 6.81,-98 -18.74,-70.2 37.32,-39.53 69.41,-25.01"/>
<polygon fill="midnightblue" stroke="midnightblue" points="578.55,-156.49 588.61,-153.15 578.66,-149.49 578.55,-156.49"/>
</g>
<!-- Node15 -->
<g id="node15" class="node">
<title>Node15</title>
<g id="a_node15"><a xlink:href="../../d3/d39/vlayoutgenerator_8cpp.html" target="_top" xlink:title=" ">
<polygon fill="white" stroke="black" points="182.31,-73 182.31,-92 379.31,-92 379.31,-73 182.31,-73"/>
<text text-anchor="middle" x="280.81" y="-80" font-family="Helvetica,sans-Serif" font-size="10.00">src/libs/vlayout/vlayoutgenerator.cpp</text>
</a>
</g>
</g>
<!-- Node9&#45;&gt;Node15 -->
<g id="edge16" class="edge">
<title>Node9&#45;&gt;Node15</title>
<path fill="none" stroke="midnightblue" d="M614.58,-143.68C537.07,-129.71 400.17,-105.02 328.15,-92.03"/>
<polygon fill="midnightblue" stroke="midnightblue" points="614.19,-147.17 624.65,-145.5 615.43,-140.28 614.19,-147.17"/>
</g>
<!-- Node16 -->
<g id="node16" class="node">
<title>Node16</title>
<g id="a_node16"><a xlink:href="../../db/d5c/vposition_8h.html" target="_top" xlink:title=" ">
<polygon fill="white" stroke="red" points="15.81,-73 15.81,-92 163.81,-92 163.81,-73 15.81,-73"/>
<text text-anchor="middle" x="89.81" y="-80" font-family="Helvetica,sans-Serif" font-size="10.00">src/libs/vlayout/vposition.h</text>
</a>
</g>
</g>
<!-- Node9&#45;&gt;Node16 -->
<g id="edge17" class="edge">
<title>Node9&#45;&gt;Node16</title>
<path fill="none" stroke="midnightblue" d="M578.51,-145.25C478.09,-135.43 313.81,-118.21 172.81,-98 160.8,-96.28 147.85,-94.15 135.83,-92.06"/>
<polygon fill="midnightblue" stroke="midnightblue" points="578.33,-148.75 588.62,-146.24 579.01,-141.78 578.33,-148.75"/>
</g>
<!-- Node18 -->
<g id="node17" class="node">
<title>Node18</title>
<g id="a_node17"><a xlink:href="../../dd/d70/vlayoutpiece_8cpp.html" target="_top" xlink:title=" ">
<polygon fill="white" stroke="black" points="1103.31,-73 1103.31,-92 1280.31,-92 1280.31,-73 1103.31,-73"/>
<text text-anchor="middle" x="1191.81" y="-80" font-family="Helvetica,sans-Serif" font-size="10.00">src/libs/vlayout/vlayoutpiece.cpp</text>
</a>
</g>
</g>
<!-- Node9&#45;&gt;Node18 -->
<g id="edge19" class="edge">
<title>Node9&#45;&gt;Node18</title>
<path fill="none" stroke="midnightblue" d="M748.4,-144.19C832.99,-133.27 973.2,-114.93 1093.81,-98 1107.27,-96.11 1121.75,-94.01 1135.35,-92"/>
<polygon fill="midnightblue" stroke="midnightblue" points="747.84,-140.73 738.37,-145.48 748.73,-147.67 747.84,-140.73"/>
</g>
<!-- Node13&#45;&gt;Node14 -->
<g id="edge14" class="edge">
<title>Node13&#45;&gt;Node14</title>
<path fill="none" stroke="midnightblue" d="M424.35,-71.27C346.44,-58.52 214.66,-36.94 141.92,-25.03"/>
<polygon fill="midnightblue" stroke="midnightblue" points="424.07,-74.77 434.51,-72.94 425.2,-67.87 424.07,-74.77"/>
</g>
<!-- Node16&#45;&gt;Node14 -->
<g id="edge18" class="edge">
<title>Node16&#45;&gt;Node14</title>
<path fill="none" stroke="midnightblue" d="M89.81,-62.54C89.81,-50.17 89.81,-34.62 89.81,-25.13"/>
<polygon fill="midnightblue" stroke="midnightblue" points="86.31,-62.73 89.81,-72.73 93.31,-62.73 86.31,-62.73"/>
</g>
<!-- Node20&#45;&gt;Node3 -->
<g id="edge41" class="edge">
<title>Node20&#45;&gt;Node3</title>
<path fill="none" stroke="midnightblue" d="M3095.87,-153.38C2761,-151.02 1742.61,-140.44 1414.81,-98 1411.81,-97.61 1408.74,-97.14 1405.65,-96.62"/>
<polygon fill="midnightblue" stroke="midnightblue" points="3096.04,-156.88 3106.06,-153.45 3096.08,-149.88 3096.04,-156.88"/>
</g>
<!-- Node20&#45;&gt;Node6 -->
<g id="edge24" class="edge">
<title>Node20&#45;&gt;Node6</title>
<path fill="none" stroke="midnightblue" d="M3095.98,-150.91C2740.18,-140.65 1621.67,-107.78 1544.81,-98 1541.95,-97.63 1539.02,-97.2 1536.07,-96.72"/>
<polygon fill="midnightblue" stroke="midnightblue" points="3095.93,-154.41 3106.03,-151.2 3096.14,-147.41 3095.93,-154.41"/>
</g>
<!-- Node20&#45;&gt;Node18 -->
<g id="edge35" class="edge">
<title>Node20&#45;&gt;Node18</title>
<path fill="none" stroke="midnightblue" d="M3096,-152.54C2746.01,-147.53 1643.74,-129.6 1288.81,-98 1273.21,-96.61 1256.3,-94.35 1241.03,-92.02"/>
<polygon fill="midnightblue" stroke="midnightblue" points="3096.09,-156.04 3106.14,-152.68 3096.19,-149.04 3096.09,-156.04"/>
</g>
<!-- Node20&#45;&gt;Node19 -->
<g id="edge34" class="edge">
<title>Node20&#45;&gt;Node19</title>
<path fill="none" stroke="midnightblue" d="M3095.93,-146.24C3035.62,-142.12 2959.07,-137.25 2890.81,-134 2381.81,-109.75 2252.44,-142.63 1744.81,-98 1728.82,-96.59 1711.49,-94.34 1695.81,-92.03"/>
<polygon fill="midnightblue" stroke="midnightblue" points="3096.01,-149.76 3106.23,-146.95 3096.49,-142.77 3096.01,-149.76"/>
</g>
<!-- Node21 -->
<g id="node20" class="node">
<title>Node21</title>
<g id="a_node20"><a xlink:href="../../d4/d90/fvupdater_8cpp.html" target="_top" xlink:title=" ">
<polygon fill="white" stroke="black" points="4123.31,-73 4123.31,-92 4276.31,-92 4276.31,-73 4123.31,-73"/>
<text text-anchor="middle" x="4199.81" y="-80" font-family="Helvetica,sans-Serif" font-size="10.00">src/libs/fervor/fvupdater.cpp</text>
</a>
</g>
</g>
<!-- Node20&#45;&gt;Node21 -->
<g id="edge22" class="edge">
<title>Node20&#45;&gt;Node21</title>
<path fill="none" stroke="midnightblue" d="M3311.66,-151.05C3482.35,-145.55 3825.06,-131.13 4113.81,-98 4127.05,-96.48 4141.35,-94.29 4154.42,-92.08"/>
<polygon fill="midnightblue" stroke="midnightblue" points="3311.3,-147.56 3301.41,-151.37 3311.52,-154.55 3311.3,-147.56"/>
</g>
<!-- Node22 -->
<g id="node21" class="node">
<title>Node22</title>
<g id="a_node21"><a xlink:href="../../d1/d8d/image__item_8h.html" target="_top" xlink:title=" ">
<polygon fill="white" stroke="red" points="4294.81,-67.5 4294.81,-97.5 4406.81,-97.5 4406.81,-67.5 4294.81,-67.5"/>
<text text-anchor="start" x="4302.81" y="-85.5" font-family="Helvetica,sans-Serif" font-size="10.00">src/libs/tools/image</text>
<text text-anchor="middle" x="4350.81" y="-74.5" font-family="Helvetica,sans-Serif" font-size="10.00">_item.h</text>
</a>
</g>
</g>
<!-- Node20&#45;&gt;Node22 -->
<g id="edge23" class="edge">
<title>Node20&#45;&gt;Node22</title>
<path fill="none" stroke="midnightblue" d="M3311.83,-154.27C3507,-153.44 3931,-145.7 4284.81,-98 4288.07,-97.56 4291.4,-97.04 4294.76,-96.47"/>
<polygon fill="midnightblue" stroke="midnightblue" points="3311.57,-150.77 3301.58,-154.3 3311.59,-157.77 3311.57,-150.77"/>
</g>
<!-- Node32 -->
<g id="node22" class="node">
<title>Node32</title>
<g id="a_node22"><a xlink:href="../../d9/dc8/dxiface_8cpp.html" target="_top" xlink:title=" ">
<polygon fill="white" stroke="black" points="4425.31,-73 4425.31,-92 4560.31,-92 4560.31,-73 4425.31,-73"/>
<text text-anchor="middle" x="4492.81" y="-80" font-family="Helvetica,sans-Serif" font-size="10.00">src/libs/vdxf/dxiface.cpp</text>
</a>
</g>
</g>
<!-- Node20&#45;&gt;Node32 -->
<g id="edge25" class="edge">
<title>Node20&#45;&gt;Node32</title>
<path fill="none" stroke="midnightblue" d="M3311.8,-154.07C3524.06,-153.08 4010.29,-145.32 4415.81,-98 4428.11,-96.57 4441.39,-94.32 4453.41,-92.02"/>
<polygon fill="midnightblue" stroke="midnightblue" points="3311.58,-150.57 3301.59,-154.11 3311.61,-157.57 3311.58,-150.57"/>
</g>
<!-- Node33 -->
<g id="node23" class="node">
<title>Node33</title>
<g id="a_node23"><a xlink:href="../../da/d75/vabstractarc__p_8h.html" target="_top" xlink:title=" ">
<polygon fill="white" stroke="red" points="4578.31,-67.5 4578.31,-97.5 4685.31,-97.5 4685.31,-67.5 4578.31,-67.5"/>
<text text-anchor="start" x="4586.31" y="-85.5" font-family="Helvetica,sans-Serif" font-size="10.00">src/libs/vgeometry</text>
<text text-anchor="middle" x="4631.81" y="-74.5" font-family="Helvetica,sans-Serif" font-size="10.00">/vabstractarc_p.h</text>
</a>
</g>
</g>
<!-- Node20&#45;&gt;Node33 -->
<g id="edge26" class="edge">
<title>Node20&#45;&gt;Node33</title>
<path fill="none" stroke="midnightblue" d="M3311.66,-152.16C3589.81,-146.99 4326.61,-130.56 4568.81,-98 4571.82,-97.6 4574.89,-97.12 4577.98,-96.58"/>
<polygon fill="midnightblue" stroke="midnightblue" points="3311.49,-148.66 3301.56,-152.34 3311.62,-155.66 3311.49,-148.66"/>
</g>
<!-- Node35 -->
<g id="node24" class="node">
<title>Node35</title>
<g id="a_node24"><a xlink:href="../../dc/da3/varc__p_8h.html" target="_top" xlink:title=" ">
<polygon fill="white" stroke="red" points="4703.31,-67.5 4703.31,-97.5 4810.31,-97.5 4810.31,-67.5 4703.31,-67.5"/>
<text text-anchor="start" x="4711.31" y="-85.5" font-family="Helvetica,sans-Serif" font-size="10.00">src/libs/vgeometry</text>
<text text-anchor="middle" x="4756.81" y="-74.5" font-family="Helvetica,sans-Serif" font-size="10.00">/varc_p.h</text>
</a>
</g>
</g>
<!-- Node20&#45;&gt;Node35 -->
<g id="edge27" class="edge">
<title>Node20&#45;&gt;Node35</title>
<path fill="none" stroke="midnightblue" d="M3311.71,-152.59C3607.41,-148.29 4426.5,-133.46 4693.81,-98 4696.82,-97.6 4699.89,-97.13 4702.98,-96.59"/>
<polygon fill="midnightblue" stroke="midnightblue" points="3311.36,-149.09 3301.42,-152.74 3311.46,-156.09 3311.36,-149.09"/>
</g>
<!-- Node37 -->
<g id="node25" class="node">
<title>Node37</title>
<g id="a_node25"><a xlink:href="../../d5/d8e/vcubicbezier__p_8h.html" target="_top" xlink:title=" ">
<polygon fill="white" stroke="red" points="4828.31,-67.5 4828.31,-97.5 4935.31,-97.5 4935.31,-67.5 4828.31,-67.5"/>
<text text-anchor="start" x="4836.31" y="-85.5" font-family="Helvetica,sans-Serif" font-size="10.00">src/libs/vgeometry</text>
<text text-anchor="middle" x="4881.81" y="-74.5" font-family="Helvetica,sans-Serif" font-size="10.00">/vcubicbezier_p.h</text>
</a>
</g>
</g>
<!-- Node20&#45;&gt;Node37 -->
<g id="edge28" class="edge">
<title>Node20&#45;&gt;Node37</title>
<path fill="none" stroke="midnightblue" d="M3311.88,-152.95C3624.53,-149.49 4526.32,-136.37 4818.81,-98 4821.82,-97.61 4824.89,-97.13 4827.98,-96.6"/>
<polygon fill="midnightblue" stroke="midnightblue" points="3311.42,-149.46 3301.46,-153.07 3311.49,-156.46 3311.42,-149.46"/>
</g>
<!-- Node39 -->
<g id="node26" class="node">
<title>Node39</title>
<g id="a_node26"><a xlink:href="../../df/dde/vellipticalarc__p_8h.html" target="_top" xlink:title=" ">
<polygon fill="white" stroke="black" points="2594.31,-67.5 2594.31,-97.5 2701.31,-97.5 2701.31,-67.5 2594.31,-67.5"/>
<text text-anchor="start" x="2602.31" y="-85.5" font-family="Helvetica,sans-Serif" font-size="10.00">src/libs/vgeometry</text>
<text text-anchor="middle" x="2647.81" y="-74.5" font-family="Helvetica,sans-Serif" font-size="10.00">/vellipticalarc_p.h</text>
</a>
</g>
</g>
<!-- Node20&#45;&gt;Node39 -->
<g id="edge29" class="edge">
<title>Node20&#45;&gt;Node39</title>
<path fill="none" stroke="midnightblue" d="M3096.19,-144.64C2997.03,-135.3 2846,-119.3 2715.81,-98 2711.17,-97.24 2706.36,-96.37 2701.55,-95.45"/>
<polygon fill="midnightblue" stroke="midnightblue" points="3095.93,-148.13 3106.22,-145.58 3096.59,-141.16 3095.93,-148.13"/>
</g>
<!-- Node40 -->
<g id="node27" class="node">
<title>Node40</title>
<g id="a_node27"><a xlink:href="../../d6/dfb/vellipticalarc_8cpp.html" target="_top" xlink:title=" ">
<polygon fill="white" stroke="black" points="2635.31,-0.5 2635.31,-30.5 2742.31,-30.5 2742.31,-0.5 2635.31,-0.5"/>
<text text-anchor="start" x="2643.31" y="-18.5" font-family="Helvetica,sans-Serif" font-size="10.00">src/libs/vgeometry</text>
<text text-anchor="middle" x="2688.81" y="-7.5" font-family="Helvetica,sans-Serif" font-size="10.00">/vellipticalarc.cpp</text>
</a>
</g>
</g>
<!-- Node20&#45;&gt;Node40 -->
<g id="edge31" class="edge">
<title>Node20&#45;&gt;Node40</title>
<path fill="none" stroke="midnightblue" d="M3095.77,-150.47C2980.2,-145 2805.83,-131.35 2748.81,-98 2721.97,-82.3 2703.57,-49.35 2694.76,-30.51"/>
<polygon fill="midnightblue" stroke="midnightblue" points="3095.92,-153.98 3106.07,-150.94 3096.24,-146.99 3095.92,-153.98"/>
</g>
<!-- Node41 -->
<g id="node28" class="node">
<title>Node41</title>
<g id="a_node28"><a xlink:href="../../d1/d76/vspline__p_8h.html" target="_top" xlink:title=" ">
<polygon fill="white" stroke="red" points="1754.31,-67.5 1754.31,-97.5 1861.31,-97.5 1861.31,-67.5 1754.31,-67.5"/>
<text text-anchor="start" x="1762.31" y="-85.5" font-family="Helvetica,sans-Serif" font-size="10.00">src/libs/vgeometry</text>
<text text-anchor="middle" x="1807.81" y="-74.5" font-family="Helvetica,sans-Serif" font-size="10.00">/vspline_p.h</text>
</a>
</g>
</g>
<!-- Node20&#45;&gt;Node41 -->
<g id="edge32" class="edge">
<title>Node20&#45;&gt;Node41</title>
<path fill="none" stroke="midnightblue" d="M3095.92,-146.34C3035.61,-142.26 2959.06,-137.38 2890.81,-134 2437.76,-111.53 2320.56,-157.14 1870.81,-98 1867.81,-97.6 1864.74,-97.13 1861.65,-96.6"/>
<polygon fill="midnightblue" stroke="midnightblue" points="3096.01,-149.86 3106.22,-147.05 3096.49,-142.87 3096.01,-149.86"/>
</g>
<!-- Node43 -->
<g id="node29" class="node">
<title>Node43</title>
<g id="a_node29"><a xlink:href="../../d9/d15/vabstractpiece_8cpp.html" target="_top" xlink:title=" ">
<polygon fill="white" stroke="black" points="1879.81,-73 1879.81,-92 2065.81,-92 2065.81,-73 1879.81,-73"/>
<text text-anchor="middle" x="1972.81" y="-80" font-family="Helvetica,sans-Serif" font-size="10.00">src/libs/vlayout/vabstractpiece.cpp</text>
</a>
</g>
</g>
<!-- Node20&#45;&gt;Node43 -->
<g id="edge33" class="edge">
<title>Node20&#45;&gt;Node43</title>
<path fill="none" stroke="midnightblue" d="M3095.91,-146.58C3035.6,-142.56 2959.05,-137.68 2890.81,-134 2528.32,-114.42 2436.28,-131.59 2074.81,-98 2058.79,-96.51 2041.42,-94.28 2025.64,-92.01"/>
<polygon fill="midnightblue" stroke="midnightblue" points="3096,-150.09 3106.21,-147.27 3096.47,-143.11 3096,-150.09"/>
</g>
<!-- Node44 -->
<g id="node30" class="node">
<title>Node44</title>
<g id="a_node30"><a xlink:href="../../db/d65/dialogexporttocsv_8cpp.html" target="_top" xlink:title=" ">
<polygon fill="white" stroke="black" points="2084.31,-67.5 2084.31,-97.5 2211.31,-97.5 2211.31,-67.5 2084.31,-67.5"/>
<text text-anchor="start" x="2092.31" y="-85.5" font-family="Helvetica,sans-Serif" font-size="10.00">src/libs/vmisc/dialogs</text>
<text text-anchor="middle" x="2147.81" y="-74.5" font-family="Helvetica,sans-Serif" font-size="10.00">/dialogexporttocsv.cpp</text>
</a>
</g>
</g>
<!-- Node20&#45;&gt;Node44 -->
<g id="edge36" class="edge">
<title>Node20&#45;&gt;Node44</title>
<path fill="none" stroke="midnightblue" d="M3095.9,-146.83C3035.58,-142.9 2959.03,-138.01 2890.81,-134 2593.12,-116.49 2516.7,-135.14 2220.81,-98 2217.74,-97.61 2214.6,-97.17 2211.43,-96.69"/>
<polygon fill="midnightblue" stroke="midnightblue" points="3095.99,-150.35 3106.2,-147.51 3096.45,-143.36 3095.99,-150.35"/>
</g>
<!-- Node45 -->
<g id="node31" class="node">
<title>Node45</title>
<g id="a_node31"><a xlink:href="../../d6/d0b/def_8cpp.html" target="_top" xlink:title=" ">
<polygon fill="white" stroke="black" points="2229.81,-73 2229.81,-92 2351.81,-92 2351.81,-73 2229.81,-73"/>
<text text-anchor="middle" x="2290.81" y="-80" font-family="Helvetica,sans-Serif" font-size="10.00">src/libs/vmisc/def.cpp</text>
</a>
</g>
</g>
<!-- Node20&#45;&gt;Node45 -->
<g id="edge37" class="edge">
<title>Node20&#45;&gt;Node45</title>
<path fill="none" stroke="midnightblue" d="M3095.82,-147.02C2872.43,-132.56 2378.79,-100.45 2360.81,-98 2349.87,-96.51 2338.07,-94.3 2327.34,-92.06"/>
<polygon fill="midnightblue" stroke="midnightblue" points="3095.72,-150.52 3105.92,-147.67 3096.17,-143.54 3095.72,-150.52"/>
</g>
<!-- Node46 -->
<g id="node32" class="node">
<title>Node46</title>
<g id="a_node32"><a xlink:href="../../d0/df6/vabstractapplication_8cpp.html" target="_top" xlink:title=" ">
<polygon fill="white" stroke="black" points="2369.81,-73 2369.81,-92 2575.81,-92 2575.81,-73 2369.81,-73"/>
<text text-anchor="middle" x="2472.81" y="-80" font-family="Helvetica,sans-Serif" font-size="10.00">src/libs/vmisc/vabstractapplication.cpp</text>
</a>
</g>
</g>
<!-- Node20&#45;&gt;Node46 -->
<g id="edge38" class="edge">
<title>Node20&#45;&gt;Node46</title>
<path fill="none" stroke="midnightblue" d="M3095.92,-145.51C2972.3,-135.48 2763.73,-117.67 2584.81,-98 2568.74,-96.23 2551.39,-94.1 2535.26,-92.02"/>
<polygon fill="midnightblue" stroke="midnightblue" points="3095.89,-149.02 3106.14,-146.33 3096.45,-142.04 3095.89,-149.02"/>
</g>
<!-- Node47 -->
<g id="node33" class="node">
<title>Node47</title>
<g id="a_node33"><a xlink:href="../../d4/d4f/pmsystems_8cpp.html" target="_top" xlink:title=" ">
<polygon fill="white" stroke="black" points="2758.31,-67.5 2758.31,-97.5 2865.31,-97.5 2865.31,-67.5 2758.31,-67.5"/>
<text text-anchor="start" x="2766.31" y="-85.5" font-family="Helvetica,sans-Serif" font-size="10.00">src/libs/vpatterndb</text>
<text text-anchor="middle" x="2811.81" y="-74.5" font-family="Helvetica,sans-Serif" font-size="10.00">/pmsystems.cpp</text>
</a>
</g>
</g>
<!-- Node20&#45;&gt;Node47 -->
<g id="edge39" class="edge">
<title>Node20&#45;&gt;Node47</title>
<path fill="none" stroke="midnightblue" d="M3137.3,-143.95C3070.49,-133.56 2964.71,-116.32 2873.81,-98 2871.11,-97.45 2868.33,-96.88 2865.54,-96.28"/>
<polygon fill="midnightblue" stroke="midnightblue" points="3136.85,-147.42 3147.27,-145.49 3137.93,-140.5 3136.85,-147.42"/>
</g>
<!-- Node20&#45;&gt;Node48 -->
<g id="edge40" class="edge">
<title>Node20&#45;&gt;Node48</title>
<path fill="none" stroke="midnightblue" d="M3311.86,-153.27C3640.66,-150.6 4626,-139.29 4943.81,-98 4946.82,-97.61 4949.89,-97.14 4952.98,-96.61"/>
<polygon fill="midnightblue" stroke="midnightblue" points="3311.35,-149.77 3301.38,-153.35 3311.41,-156.77 3311.35,-149.77"/>
</g>
<!-- Node20&#45;&gt;Node49 -->
<g id="edge42" class="edge">
<title>Node20&#45;&gt;Node49</title>
<path fill="none" stroke="midnightblue" d="M3311.56,-153.54C3655.63,-151.64 4725.51,-142.23 5068.81,-98 5071.82,-97.61 5074.89,-97.15 5077.98,-96.62"/>
<polygon fill="midnightblue" stroke="midnightblue" points="3311.33,-150.04 3301.35,-153.6 3311.37,-157.04 3311.33,-150.04"/>
</g>
<!-- Node50 -->
<g id="node36" class="node">
<title>Node50</title>
<g id="a_node36"><a xlink:href="../../df/dba/vpiecenode__p_8h.html" target="_top" xlink:title=" ">
<polygon fill="white" stroke="black" points="2883.31,-67.5 2883.31,-97.5 2990.31,-97.5 2990.31,-67.5 2883.31,-67.5"/>
<text text-anchor="start" x="2891.31" y="-85.5" font-family="Helvetica,sans-Serif" font-size="10.00">src/libs/vpatterndb</text>
<text text-anchor="middle" x="2936.81" y="-74.5" font-family="Helvetica,sans-Serif" font-size="10.00">/vpiecenode_p.h</text>
</a>
</g>
</g>
<!-- Node20&#45;&gt;Node50 -->
<g id="edge43" class="edge">
<title>Node20&#45;&gt;Node50</title>
<path fill="none" stroke="midnightblue" d="M3161.86,-142.92C3115.39,-130.65 3040.37,-110.84 2989.86,-97.51"/>
<polygon fill="midnightblue" stroke="midnightblue" points="3161.05,-146.33 3171.61,-145.5 3162.83,-139.56 3161.05,-146.33"/>
</g>
<!-- Node52 -->
<g id="node38" class="node">
<title>Node52</title>
<g id="a_node38"><a xlink:href="../../de/d3e/vtranslatevars_8cpp.html" target="_top" xlink:title=" ">
<polygon fill="white" stroke="black" points="3008.81,-67.5 3008.81,-97.5 3118.81,-97.5 3118.81,-67.5 3008.81,-67.5"/>
<text text-anchor="start" x="3016.81" y="-85.5" font-family="Helvetica,sans-Serif" font-size="10.00">src/libs/vpatterndb</text>
<text text-anchor="middle" x="3063.81" y="-74.5" font-family="Helvetica,sans-Serif" font-size="10.00">/vtranslatevars.cpp</text>
</a>
</g>
</g>
<!-- Node20&#45;&gt;Node52 -->
<g id="edge45" class="edge">
<title>Node20&#45;&gt;Node52</title>
<path fill="none" stroke="midnightblue" d="M3177.87,-140.93C3153.36,-128.59 3116.73,-110.14 3091.63,-97.51"/>
<polygon fill="midnightblue" stroke="midnightblue" points="3176.42,-144.12 3186.93,-145.5 3179.57,-137.87 3176.42,-144.12"/>
</g>
<!-- Node26 -->
<g id="node39" class="node">
<title>Node26</title>
<g id="a_node39"><a xlink:href="../../df/d40/export__format__combobox_8cpp.html" target="_top" xlink:title=" ">
<polygon fill="white" stroke="black" points="3137.31,-67.5 3137.31,-97.5 3270.31,-97.5 3270.31,-67.5 3137.31,-67.5"/>
<text text-anchor="start" x="3145.31" y="-85.5" font-family="Helvetica,sans-Serif" font-size="10.00">src/libs/vwidgets/export</text>
<text text-anchor="middle" x="3203.81" y="-74.5" font-family="Helvetica,sans-Serif" font-size="10.00">_format_combobox.cpp</text>
</a>
</g>
</g>
<!-- Node20&#45;&gt;Node26 -->
<g id="edge46" class="edge">
<title>Node20&#45;&gt;Node26</title>
<path fill="none" stroke="midnightblue" d="M3203.81,-135.24C3203.81,-123.41 3203.81,-108.38 3203.81,-97.58"/>
<polygon fill="midnightblue" stroke="midnightblue" points="3200.31,-135.36 3203.81,-145.36 3207.31,-135.36 3200.31,-135.36"/>
</g>
<!-- Node53 -->
<g id="node40" class="node">
<title>Node53</title>
<g id="a_node40"><a xlink:href="../../d3/d4f/mouse__coordinates_8cpp.html" target="_top" xlink:title=" ">
<polygon fill="white" stroke="black" points="3288.81,-67.5 3288.81,-97.5 3422.81,-97.5 3422.81,-67.5 3288.81,-67.5"/>
<text text-anchor="start" x="3296.81" y="-85.5" font-family="Helvetica,sans-Serif" font-size="10.00">src/libs/vwidgets/mouse</text>
<text text-anchor="middle" x="3355.81" y="-74.5" font-family="Helvetica,sans-Serif" font-size="10.00">_coordinates.cpp</text>
</a>
</g>
</g>
<!-- Node20&#45;&gt;Node53 -->
<g id="edge47" class="edge">
<title>Node20&#45;&gt;Node53</title>
<path fill="none" stroke="midnightblue" d="M3231.28,-141.26C3257.89,-128.92 3298.13,-110.26 3325.62,-97.51"/>
<polygon fill="midnightblue" stroke="midnightblue" points="3229.75,-138.11 3222.15,-145.5 3232.69,-144.46 3229.75,-138.11"/>
</g>
<!-- Node29 -->
<g id="node41" class="node">
<title>Node29</title>
<g id="a_node41"><a xlink:href="../../d2/d28/page__format__combobox_8cpp.html" target="_top" xlink:title=" ">
<polygon fill="white" stroke="black" points="3441.31,-67.5 3441.31,-97.5 3572.31,-97.5 3572.31,-67.5 3441.31,-67.5"/>
<text text-anchor="start" x="3449.31" y="-85.5" font-family="Helvetica,sans-Serif" font-size="10.00">src/libs/vwidgets/page</text>
<text text-anchor="middle" x="3506.81" y="-74.5" font-family="Helvetica,sans-Serif" font-size="10.00">_format_combobox.cpp</text>
</a>
</g>
</g>
<!-- Node20&#45;&gt;Node29 -->
<g id="edge48" class="edge">
<title>Node20&#45;&gt;Node29</title>
<path fill="none" stroke="midnightblue" d="M3250.11,-143.23C3302.73,-130.98 3388.82,-110.96 3446.62,-97.51"/>
<polygon fill="midnightblue" stroke="midnightblue" points="3249.31,-139.82 3240.36,-145.5 3250.9,-146.64 3249.31,-139.82"/>
</g>
<!-- Node54 -->
<g id="node42" class="node">
<title>Node54</title>
<g id="a_node42"><a xlink:href="../../d7/d1b/pen__toolbar_8cpp.html" target="_top" xlink:title=" ">
<polygon fill="white" stroke="black" points="3590.31,-67.5 3590.31,-97.5 3709.31,-97.5 3709.31,-67.5 3590.31,-67.5"/>
<text text-anchor="start" x="3598.31" y="-85.5" font-family="Helvetica,sans-Serif" font-size="10.00">src/libs/vwidgets/pen</text>
<text text-anchor="middle" x="3649.81" y="-74.5" font-family="Helvetica,sans-Serif" font-size="10.00">_toolbar.cpp</text>
</a>
</g>
</g>
<!-- Node20&#45;&gt;Node54 -->
<g id="edge49" class="edge">
<title>Node20&#45;&gt;Node54</title>
<path fill="none" stroke="midnightblue" d="M3279.39,-144.12C3355.66,-133.84 3476.72,-116.65 3580.81,-98 3583.83,-97.46 3586.91,-96.89 3590.02,-96.29"/>
<polygon fill="midnightblue" stroke="midnightblue" points="3278.84,-140.67 3269.39,-145.47 3279.77,-147.61 3278.84,-140.67"/>
</g>
<!-- Node55 -->
<g id="node43" class="node">
<title>Node55</title>
<g id="a_node43"><a xlink:href="../../d8/d76/scene__rect_8cpp.html" target="_top" xlink:title=" ">
<polygon fill="white" stroke="black" points="3727.81,-67.5 3727.81,-97.5 3857.81,-97.5 3857.81,-67.5 3727.81,-67.5"/>
<text text-anchor="start" x="3735.81" y="-85.5" font-family="Helvetica,sans-Serif" font-size="10.00">src/libs/vwidgets/scene</text>
<text text-anchor="middle" x="3792.81" y="-74.5" font-family="Helvetica,sans-Serif" font-size="10.00">_rect.cpp</text>
</a>
</g>
</g>
<!-- Node20&#45;&gt;Node55 -->
<g id="edge50" class="edge">
<title>Node20&#45;&gt;Node55</title>
<path fill="none" stroke="midnightblue" d="M3311.92,-144.83C3416.17,-135.38 3578.23,-119.06 3717.81,-98 3720.96,-97.53 3724.18,-97.01 3727.42,-96.47"/>
<polygon fill="midnightblue" stroke="midnightblue" points="3311.35,-141.37 3301.71,-145.76 3311.98,-148.34 3311.35,-141.37"/>
</g>
<!-- Node56 -->
<g id="node44" class="node">
<title>Node56</title>
<g id="a_node44"><a xlink:href="../../dd/df6/vabstractmainwindow_8cpp.html" target="_top" xlink:title=" ">
<polygon fill="white" stroke="black" points="3876.31,-73 3876.31,-92 4105.31,-92 4105.31,-73 3876.31,-73"/>
<text text-anchor="middle" x="3990.81" y="-80" font-family="Helvetica,sans-Serif" font-size="10.00">src/libs/vwidgets/vabstractmainwindow.cpp</text>
</a>
</g>
</g>
<!-- Node20&#45;&gt;Node56 -->
<g id="edge51" class="edge">
<title>Node20&#45;&gt;Node56</title>
<path fill="none" stroke="midnightblue" d="M3311.42,-145.98C3442.66,-135.95 3671.21,-117.69 3866.81,-98 3884.5,-96.22 3903.58,-94.09 3921.34,-92.02"/>
<polygon fill="midnightblue" stroke="midnightblue" points="3311.07,-142.5 3301.36,-146.75 3311.6,-149.48 3311.07,-142.5"/>
</g>
<!-- Node39&#45;&gt;Node40 -->
<g id="edge30" class="edge">
<title>Node39&#45;&gt;Node40</title>
<path fill="none" stroke="midnightblue" d="M2662.09,-58.87C2668.03,-49.46 2674.73,-38.83 2679.94,-30.58"/>
<polygon fill="midnightblue" stroke="midnightblue" points="2659.09,-57.07 2656.71,-67.4 2665.01,-60.81 2659.09,-57.07"/>
</g>
<!-- Node50&#45;&gt;Node51 -->
<g id="edge44" class="edge">
<title>Node50&#45;&gt;Node51</title>
<path fill="none" stroke="midnightblue" d="M3000.8,-67.09C3220.18,-38.88 3835.63,-22.25 4021.23,-17.75"/>
<polygon fill="midnightblue" stroke="midnightblue" points="3000.1,-63.65 2990.65,-68.44 3001.03,-70.59 3000.1,-63.65"/>
</g>
<!-- Node65&#45;&gt;Node2 -->
<g id="edge53" class="edge">
<title>Node65&#45;&gt;Node2</title>
<path fill="none" stroke="midnightblue" d="M5892,-133.93C5908.34,-122.29 5928.52,-107.92 5943.15,-97.5"/>
<polygon fill="midnightblue" stroke="midnightblue" points="5889.96,-131.08 5883.85,-139.73 5894.02,-136.78 5889.96,-131.08"/>
</g>
</g>
</svg>
