<?xml version="1.0" encoding="UTF-8" standalone="no"?>
<!DOCTYPE svg PUBLIC "-//W3C//DTD SVG 1.1//EN"
 "http://www.w3.org/Graphics/SVG/1.1/DTD/svg11.dtd">
<!-- Generated by graphviz version 2.43.0 (0)
 -->
<!-- Title: src/libs/vpatterndb/variables/custom_variable.h Pages: 1 -->
<svg width="6039pt" height="385pt"
 viewBox="0.00 0.00 6038.50 385.00" xmlns="http://www.w3.org/2000/svg" xmlns:xlink="http://www.w3.org/1999/xlink">
<g id="graph0" class="graph" transform="scale(1 1) rotate(0) translate(4 381)">
<title>src/libs/vpatterndb/variables/custom_variable.h</title>
<polygon fill="white" stroke="transparent" points="-4,4 -4,-381 6034.5,-381 6034.5,4 -4,4"/>
<!-- Node1 -->
<g id="node1" class="node">
<title>Node1</title>
<g id="a_node1"><a xlink:title=" ">
<polygon fill="#bfbfbf" stroke="black" points="4700,-346.5 4700,-376.5 4858,-376.5 4858,-346.5 4700,-346.5"/>
<text text-anchor="start" x="4708" y="-364.5" font-family="Helvetica,sans-Serif" font-size="10.00">src/libs/vpatterndb</text>
<text text-anchor="middle" x="4779" y="-353.5" font-family="Helvetica,sans-Serif" font-size="10.00">/variables/custom_variable.h</text>
</a>
</g>
</g>
<!-- Node2 -->
<g id="node2" class="node">
<title>Node2</title>
<g id="a_node2"><a xlink:href="../../d2/d1e/custom__variable_8cpp.html" target="_top" xlink:title=" ">
<polygon fill="white" stroke="black" points="5861.5,-67.5 5861.5,-97.5 6030.5,-97.5 6030.5,-67.5 5861.5,-67.5"/>
<text text-anchor="start" x="5869.5" y="-85.5" font-family="Helvetica,sans-Serif" font-size="10.00">src/libs/vpatterndb</text>
<text text-anchor="middle" x="5946" y="-74.5" font-family="Helvetica,sans-Serif" font-size="10.00">/variables/custom_variable.cpp</text>
</a>
</g>
</g>
<!-- Node1&#45;&gt;Node2 -->
<g id="edge1" class="edge">
<title>Node1&#45;&gt;Node2</title>
<path fill="none" stroke="midnightblue" d="M4868.4,-353.87C5098.42,-335.51 5704.63,-278.46 5875,-176 5906.4,-157.12 5928.89,-118.69 5939.37,-97.8"/>
<polygon fill="midnightblue" stroke="midnightblue" points="4868.08,-350.39 4858.39,-354.67 4868.64,-357.37 4868.08,-350.39"/>
</g>
<!-- Node3 -->
<g id="node3" class="node">
<title>Node3</title>
<g id="a_node3"><a xlink:href="../../de/dca/variables_8h.html" target="_top" xlink:title=" ">
<polygon fill="white" stroke="black" points="4725.5,-279.5 4725.5,-309.5 4832.5,-309.5 4832.5,-279.5 4725.5,-279.5"/>
<text text-anchor="start" x="4733.5" y="-297.5" font-family="Helvetica,sans-Serif" font-size="10.00">src/libs/vpatterndb</text>
<text text-anchor="middle" x="4779" y="-286.5" font-family="Helvetica,sans-Serif" font-size="10.00">/variables.h</text>
</a>
</g>
</g>
<!-- Node1&#45;&gt;Node3 -->
<g id="edge2" class="edge">
<title>Node1&#45;&gt;Node3</title>
<path fill="none" stroke="midnightblue" d="M4779,-336.11C4779,-327.15 4779,-317.32 4779,-309.58"/>
<polygon fill="midnightblue" stroke="midnightblue" points="4775.5,-336.4 4779,-346.4 4782.5,-336.4 4775.5,-336.4"/>
</g>
<!-- Node47 -->
<g id="node33" class="node">
<title>Node47</title>
<g id="a_node33"><a xlink:href="../../d6/d46/vcontainer_8cpp.html" target="_top" xlink:title=" ">
<polygon fill="white" stroke="black" points="1320.5,-67.5 1320.5,-97.5 1427.5,-97.5 1427.5,-67.5 1320.5,-67.5"/>
<text text-anchor="start" x="1328.5" y="-85.5" font-family="Helvetica,sans-Serif" font-size="10.00">src/libs/vpatterndb</text>
<text text-anchor="middle" x="1374" y="-74.5" font-family="Helvetica,sans-Serif" font-size="10.00">/vcontainer.cpp</text>
</a>
</g>
</g>
<!-- Node1&#45;&gt;Node47 -->
<g id="edge62" class="edge">
<title>Node1&#45;&gt;Node47</title>
<path fill="none" stroke="midnightblue" d="M4689.6,-359.47C4237.87,-353.64 2203.84,-319.73 1591,-176 1518.04,-158.89 1438.5,-118.97 1399.07,-97.6"/>
<polygon fill="midnightblue" stroke="midnightblue" points="4689.62,-362.97 4699.66,-359.6 4689.71,-355.97 4689.62,-362.97"/>
</g>
<!-- Node4 -->
<g id="node4" class="node">
<title>Node4</title>
<g id="a_node4"><a xlink:href="../../d3/df7/vcontainer_8h.html" target="_top" xlink:title=" ">
<polygon fill="white" stroke="black" points="4725.5,-212.5 4725.5,-242.5 4832.5,-242.5 4832.5,-212.5 4725.5,-212.5"/>
<text text-anchor="start" x="4733.5" y="-230.5" font-family="Helvetica,sans-Serif" font-size="10.00">src/libs/vpatterndb</text>
<text text-anchor="middle" x="4779" y="-219.5" font-family="Helvetica,sans-Serif" font-size="10.00">/vcontainer.h</text>
</a>
</g>
</g>
<!-- Node3&#45;&gt;Node4 -->
<g id="edge3" class="edge">
<title>Node3&#45;&gt;Node4</title>
<path fill="none" stroke="midnightblue" d="M4779,-269.11C4779,-260.15 4779,-250.32 4779,-242.58"/>
<polygon fill="midnightblue" stroke="midnightblue" points="4775.5,-269.4 4779,-279.4 4782.5,-269.4 4775.5,-269.4"/>
</g>
<!-- Node5 -->
<g id="node5" class="node">
<title>Node5</title>
<g id="a_node5"><a xlink:href="../../dc/db7/measurements_8h.html" target="_top" xlink:title=" ">
<polygon fill="white" stroke="black" points="5668.5,-145.5 5668.5,-164.5 5847.5,-164.5 5847.5,-145.5 5668.5,-145.5"/>
<text text-anchor="middle" x="5758" y="-152.5" font-family="Helvetica,sans-Serif" font-size="10.00">src/libs/vformat/measurements.h</text>
</a>
</g>
</g>
<!-- Node4&#45;&gt;Node5 -->
<g id="edge4" class="edge">
<title>Node4&#45;&gt;Node5</title>
<path fill="none" stroke="midnightblue" d="M4842.64,-225.94C4987.93,-223.99 5354.98,-215.23 5659,-176 5680.04,-173.28 5703.31,-168.67 5722,-164.55"/>
<polygon fill="midnightblue" stroke="midnightblue" points="4842.52,-222.44 4832.56,-226.07 4842.61,-229.44 4842.52,-222.44"/>
</g>
<!-- Node6 -->
<g id="node6" class="node">
<title>Node6</title>
<g id="a_node6"><a xlink:href="../../d9/de3/measurements_8cpp.html" target="_top" xlink:title=" ">
<polygon fill="white" stroke="black" points="5653,-73 5653,-92 5843,-92 5843,-73 5653,-73"/>
<text text-anchor="middle" x="5748" y="-80" font-family="Helvetica,sans-Serif" font-size="10.00">src/libs/vformat/measurements.cpp</text>
</a>
</g>
</g>
<!-- Node4&#45;&gt;Node6 -->
<g id="edge7" class="edge">
<title>Node4&#45;&gt;Node6</title>
<path fill="none" stroke="midnightblue" d="M4842.71,-225.91C5068.92,-223.53 5821.85,-212.84 5857,-176 5869.89,-162.5 5867.05,-149.73 5857,-134 5842.74,-111.68 5815.8,-99.08 5792.28,-92.04"/>
<polygon fill="midnightblue" stroke="midnightblue" points="4842.62,-222.42 4832.66,-226.02 4842.69,-229.41 4842.62,-222.42"/>
</g>
<!-- Node7 -->
<g id="node7" class="node">
<title>Node7</title>
<g id="a_node7"><a xlink:href="../../d2/d47/image__dialog_8cpp.html" target="_top" xlink:title=" ">
<polygon fill="white" stroke="black" points="1446,-67.5 1446,-97.5 1558,-97.5 1558,-67.5 1446,-67.5"/>
<text text-anchor="start" x="1454" y="-85.5" font-family="Helvetica,sans-Serif" font-size="10.00">src/libs/tools/image</text>
<text text-anchor="middle" x="1502" y="-74.5" font-family="Helvetica,sans-Serif" font-size="10.00">_dialog.cpp</text>
</a>
</g>
</g>
<!-- Node4&#45;&gt;Node7 -->
<g id="edge6" class="edge">
<title>Node4&#45;&gt;Node7</title>
<path fill="none" stroke="midnightblue" d="M4714.93,-226.5C4445.87,-226.18 3380.84,-221.92 2507,-176 2088.36,-154 1981.43,-161.12 1567,-98 1564.14,-97.56 1561.22,-97.08 1558.28,-96.55"/>
<polygon fill="midnightblue" stroke="midnightblue" points="4715.28,-230 4725.28,-226.51 4715.29,-223 4715.28,-230"/>
</g>
<!-- Node8 -->
<g id="node8" class="node">
<title>Node8</title>
<g id="a_node8"><a xlink:href="../../d6/de0/vlayoutpiece_8h.html" target="_top" xlink:title=" ">
<polygon fill="white" stroke="black" points="715,-145.5 715,-164.5 881,-164.5 881,-145.5 715,-145.5"/>
<text text-anchor="middle" x="798" y="-152.5" font-family="Helvetica,sans-Serif" font-size="10.00">src/libs/vlayout/vlayoutpiece.h</text>
</a>
</g>
</g>
<!-- Node4&#45;&gt;Node8 -->
<g id="edge8" class="edge">
<title>Node4&#45;&gt;Node8</title>
<path fill="none" stroke="midnightblue" d="M4714.92,-225.69C4386.38,-221.49 2857.85,-201.42 1607,-176 1341.87,-170.61 1027.92,-162.3 881.26,-158.3"/>
<polygon fill="midnightblue" stroke="midnightblue" points="4715.15,-229.19 4725.19,-225.82 4715.24,-222.19 4715.15,-229.19"/>
</g>
<!-- Node18 -->
<g id="node17" class="node">
<title>Node18</title>
<g id="a_node17"><a xlink:href="../../d8/d70/vtextmanager_8cpp.html" target="_top" xlink:title=" ">
<polygon fill="white" stroke="black" points="1576,-73 1576,-92 1758,-92 1758,-73 1576,-73"/>
<text text-anchor="middle" x="1667" y="-80" font-family="Helvetica,sans-Serif" font-size="10.00">src/libs/vlayout/vtextmanager.cpp</text>
</a>
</g>
</g>
<!-- Node4&#45;&gt;Node18 -->
<g id="edge19" class="edge">
<title>Node4&#45;&gt;Node18</title>
<path fill="none" stroke="midnightblue" d="M4715.1,-225.21C4498.71,-220.68 3773.63,-204.24 3175,-176 2877.86,-161.98 2804.01,-150.56 2507,-134 2178.23,-115.67 2094.75,-129.66 1767,-98 1751.37,-96.49 1734.45,-94.26 1719.05,-92.01"/>
<polygon fill="midnightblue" stroke="midnightblue" points="4715.25,-228.71 4725.32,-225.42 4715.4,-221.71 4715.25,-228.71"/>
</g>
<!-- Node19 -->
<g id="node18" class="node">
<title>Node19</title>
<g id="a_node18"><a xlink:href="../../d5/d74/vabstractapplication_8h.html" target="_top" xlink:title=" ">
<polygon fill="white" stroke="red" points="3184.5,-145.5 3184.5,-164.5 3379.5,-164.5 3379.5,-145.5 3184.5,-145.5"/>
<text text-anchor="middle" x="3282" y="-152.5" font-family="Helvetica,sans-Serif" font-size="10.00">src/libs/vmisc/vabstractapplication.h</text>
</a>
</g>
</g>
<!-- Node4&#45;&gt;Node19 -->
<g id="edge20" class="edge">
<title>Node4&#45;&gt;Node19</title>
<path fill="none" stroke="midnightblue" d="M4715.2,-223.5C4480.36,-212.44 3663.07,-173.95 3379.67,-160.6"/>
<polygon fill="midnightblue" stroke="midnightblue" points="4715.13,-227 4725.28,-223.97 4715.46,-220 4715.13,-227"/>
</g>
<!-- Node4&#45;&gt;Node47 -->
<g id="edge54" class="edge">
<title>Node4&#45;&gt;Node47</title>
<path fill="none" stroke="midnightblue" d="M4715.3,-226.08C4312.82,-223.35 2130.16,-207.21 1835,-176 1685.63,-160.21 1512.83,-119.33 1427.44,-97.59"/>
<polygon fill="midnightblue" stroke="midnightblue" points="4715.28,-229.58 4725.31,-226.15 4715.33,-222.58 4715.28,-229.58"/>
</g>
<!-- Node48 -->
<g id="node34" class="node">
<title>Node48</title>
<g id="a_node34"><a xlink:href="../../db/d11/vformula_8cpp.html" target="_top" xlink:title=" ">
<polygon fill="white" stroke="black" points="4974.5,-67.5 4974.5,-97.5 5081.5,-97.5 5081.5,-67.5 4974.5,-67.5"/>
<text text-anchor="start" x="4982.5" y="-85.5" font-family="Helvetica,sans-Serif" font-size="10.00">src/libs/vpatterndb</text>
<text text-anchor="middle" x="5028" y="-74.5" font-family="Helvetica,sans-Serif" font-size="10.00">/vformula.cpp</text>
</a>
</g>
</g>
<!-- Node4&#45;&gt;Node48 -->
<g id="edge56" class="edge">
<title>Node4&#45;&gt;Node48</title>
<path fill="none" stroke="midnightblue" d="M4715.63,-210.75C4698.19,-203.2 4681.27,-192.13 4671,-176 4660.98,-160.25 4658.63,-147.98 4671,-134 4714.62,-84.71 4900.17,-109.4 4965,-98 4968.1,-97.46 4971.27,-96.86 4974.46,-96.22"/>
<polygon fill="midnightblue" stroke="midnightblue" points="4714.74,-214.17 4725.33,-214.6 4717.32,-207.66 4714.74,-214.17"/>
</g>
<!-- Node49 -->
<g id="node35" class="node">
<title>Node49</title>
<g id="a_node35"><a xlink:href="../../df/d7a/vpiece_8cpp.html" target="_top" xlink:title=" ">
<polygon fill="white" stroke="black" points="5099.5,-67.5 5099.5,-97.5 5206.5,-97.5 5206.5,-67.5 5099.5,-67.5"/>
<text text-anchor="start" x="5107.5" y="-85.5" font-family="Helvetica,sans-Serif" font-size="10.00">src/libs/vpatterndb</text>
<text text-anchor="middle" x="5153" y="-74.5" font-family="Helvetica,sans-Serif" font-size="10.00">/vpiece.cpp</text>
</a>
</g>
</g>
<!-- Node4&#45;&gt;Node49 -->
<g id="edge57" class="edge">
<title>Node4&#45;&gt;Node49</title>
<path fill="none" stroke="midnightblue" d="M4739.03,-207.12C4727.17,-199.23 4715.59,-188.88 4709,-176 4700.5,-159.38 4696.44,-147.81 4709,-134 4737.62,-102.55 5048.02,-104.78 5090,-98 5093.1,-97.5 5096.28,-96.93 5099.48,-96.32"/>
<polygon fill="midnightblue" stroke="midnightblue" points="4737.31,-210.17 4747.66,-212.44 4740.98,-204.21 4737.31,-210.17"/>
</g>
<!-- Node51 -->
<g id="node37" class="node">
<title>Node51</title>
<g id="a_node37"><a xlink:href="../../d8/dba/vpiecenode_8cpp.html" target="_top" xlink:title=" ">
<polygon fill="white" stroke="black" points="5015.5,-0.5 5015.5,-30.5 5122.5,-30.5 5122.5,-0.5 5015.5,-0.5"/>
<text text-anchor="start" x="5023.5" y="-18.5" font-family="Helvetica,sans-Serif" font-size="10.00">src/libs/vpatterndb</text>
<text text-anchor="middle" x="5069" y="-7.5" font-family="Helvetica,sans-Serif" font-size="10.00">/vpiecenode.cpp</text>
</a>
</g>
</g>
<!-- Node4&#45;&gt;Node51 -->
<g id="edge59" class="edge">
<title>Node4&#45;&gt;Node51</title>
<path fill="none" stroke="midnightblue" d="M4758.08,-204.72C4740.99,-184.31 4722.45,-154.01 4741,-134 4812.81,-56.53 5143.19,-175.47 5215,-98 5247.76,-62.66 5176.64,-38.88 5122.59,-26.53"/>
<polygon fill="midnightblue" stroke="midnightblue" points="4755.49,-207.08 4764.72,-212.28 4760.75,-202.46 4755.49,-207.08"/>
</g>
<!-- Node65 -->
<g id="node45" class="node">
<title>Node65</title>
<g id="a_node45"><a xlink:href="../../d3/d02/custom__variable__p_8h.html" target="_top" xlink:title=" ">
<polygon fill="white" stroke="black" points="4750.5,-140 4750.5,-170 4919.5,-170 4919.5,-140 4750.5,-140"/>
<text text-anchor="start" x="4758.5" y="-158" font-family="Helvetica,sans-Serif" font-size="10.00">src/libs/vpatterndb</text>
<text text-anchor="middle" x="4835" y="-147" font-family="Helvetica,sans-Serif" font-size="10.00">/variables/custom_variable_p.h</text>
</a>
</g>
</g>
<!-- Node4&#45;&gt;Node65 -->
<g id="edge51" class="edge">
<title>Node4&#45;&gt;Node65</title>
<path fill="none" stroke="midnightblue" d="M4796.7,-204.21C4805.53,-193.1 4815.95,-179.99 4823.68,-170.25"/>
<polygon fill="midnightblue" stroke="midnightblue" points="4793.81,-202.23 4790.33,-212.23 4799.29,-206.58 4793.81,-202.23"/>
</g>
<!-- Node66 -->
<g id="node46" class="node">
<title>Node66</title>
<g id="a_node46"><a xlink:href="../../d7/d8a/measurement__variable__p_8h.html" target="_top" xlink:title=" ">
<polygon fill="white" stroke="red" points="4938,-134.5 4938,-175.5 5074,-175.5 5074,-134.5 4938,-134.5"/>
<text text-anchor="start" x="4946" y="-163.5" font-family="Helvetica,sans-Serif" font-size="10.00">src/libs/vpatterndb</text>
<text text-anchor="start" x="4946" y="-152.5" font-family="Helvetica,sans-Serif" font-size="10.00">/variables/measurement</text>
<text text-anchor="middle" x="5006" y="-141.5" font-family="Helvetica,sans-Serif" font-size="10.00">_variable_p.h</text>
</a>
</g>
</g>
<!-- Node4&#45;&gt;Node66 -->
<g id="edge53" class="edge">
<title>Node4&#45;&gt;Node66</title>
<path fill="none" stroke="midnightblue" d="M4834.01,-209.42C4866.87,-199.21 4908.72,-186.21 4942.92,-175.59"/>
<polygon fill="midnightblue" stroke="midnightblue" points="4832.63,-206.18 4824.12,-212.49 4834.71,-212.86 4832.63,-206.18"/>
</g>
<!-- Node68 -->
<g id="node47" class="node">
<title>Node68</title>
<g id="a_node47"><a xlink:href="../../d6/d91/vnodedetail_8cpp.html" target="_top" xlink:title=" ">
<polygon fill="white" stroke="black" points="5092.5,-140 5092.5,-170 5199.5,-170 5199.5,-140 5092.5,-140"/>
<text text-anchor="start" x="5100.5" y="-158" font-family="Helvetica,sans-Serif" font-size="10.00">src/libs/vpatterndb</text>
<text text-anchor="middle" x="5146" y="-147" font-family="Helvetica,sans-Serif" font-size="10.00">/vnodedetail.cpp</text>
</a>
</g>
</g>
<!-- Node4&#45;&gt;Node68 -->
<g id="edge55" class="edge">
<title>Node4&#45;&gt;Node68</title>
<path fill="none" stroke="midnightblue" d="M4842.74,-218.61C4904.62,-210.32 5000.96,-195.73 5083,-176 5090.03,-174.31 5097.41,-172.24 5104.55,-170.08"/>
<polygon fill="midnightblue" stroke="midnightblue" points="4842.19,-215.15 4832.73,-219.94 4843.11,-222.09 4842.19,-215.15"/>
</g>
<!-- Node69 -->
<g id="node48" class="node">
<title>Node69</title>
<g id="a_node48"><a xlink:href="../../da/de1/vpiecepath_8cpp.html" target="_top" xlink:title=" ">
<polygon fill="white" stroke="black" points="5217.5,-140 5217.5,-170 5324.5,-170 5324.5,-140 5217.5,-140"/>
<text text-anchor="start" x="5225.5" y="-158" font-family="Helvetica,sans-Serif" font-size="10.00">src/libs/vpatterndb</text>
<text text-anchor="middle" x="5271" y="-147" font-family="Helvetica,sans-Serif" font-size="10.00">/vpiecepath.cpp</text>
</a>
</g>
</g>
<!-- Node4&#45;&gt;Node69 -->
<g id="edge58" class="edge">
<title>Node4&#45;&gt;Node69</title>
<path fill="none" stroke="midnightblue" d="M4842.9,-222.78C4927.27,-217.02 5080.09,-203.57 5208,-176 5215.4,-174.4 5223.18,-172.3 5230.64,-170.06"/>
<polygon fill="midnightblue" stroke="midnightblue" points="4842.45,-219.31 4832.71,-223.47 4842.92,-226.29 4842.45,-219.31"/>
</g>
<!-- Node70 -->
<g id="node49" class="node">
<title>Node70</title>
<g id="a_node49"><a xlink:href="../../d1/d3a/abstracttest_8cpp.html" target="_top" xlink:title=" ">
<polygon fill="white" stroke="black" points="5342.5,-145.5 5342.5,-164.5 5503.5,-164.5 5503.5,-145.5 5342.5,-145.5"/>
<text text-anchor="middle" x="5423" y="-152.5" font-family="Helvetica,sans-Serif" font-size="10.00">src/libs/vtest/abstracttest.cpp</text>
</a>
</g>
</g>
<!-- Node4&#45;&gt;Node70 -->
<g id="edge60" class="edge">
<title>Node4&#45;&gt;Node70</title>
<path fill="none" stroke="midnightblue" d="M4842.85,-223.4C4946.44,-217.76 5157.33,-203.77 5334,-176 5352.62,-173.07 5373.16,-168.55 5389.81,-164.54"/>
<polygon fill="midnightblue" stroke="midnightblue" points="4842.66,-219.91 4832.86,-223.94 4843.04,-226.9 4842.66,-219.91"/>
</g>
<!-- Node71 -->
<g id="node50" class="node">
<title>Node71</title>
<g id="a_node50"><a xlink:href="../../da/db4/piece__tablewidgetitem_8cpp.html" target="_top" xlink:title=" ">
<polygon fill="white" stroke="black" points="5522,-140 5522,-170 5650,-170 5650,-140 5522,-140"/>
<text text-anchor="start" x="5530" y="-158" font-family="Helvetica,sans-Serif" font-size="10.00">src/libs/vwidgets/piece</text>
<text text-anchor="middle" x="5586" y="-147" font-family="Helvetica,sans-Serif" font-size="10.00">_tablewidgetitem.cpp</text>
</a>
</g>
</g>
<!-- Node4&#45;&gt;Node71 -->
<g id="edge61" class="edge">
<title>Node4&#45;&gt;Node71</title>
<path fill="none" stroke="midnightblue" d="M4842.87,-226.36C4970.93,-225.13 5267.78,-217.6 5513,-176 5521.81,-174.51 5531.09,-172.39 5539.97,-170.1"/>
<polygon fill="midnightblue" stroke="midnightblue" points="4842.82,-222.86 4832.85,-226.44 4842.88,-229.86 4842.82,-222.86"/>
</g>
<!-- Node5&#45;&gt;Node6 -->
<g id="edge5" class="edge">
<title>Node5&#45;&gt;Node6</title>
<path fill="none" stroke="midnightblue" d="M5755.36,-135.36C5753.38,-121.4 5750.76,-102.93 5749.24,-92.22"/>
<polygon fill="midnightblue" stroke="midnightblue" points="5751.9,-135.95 5756.77,-145.36 5758.83,-134.96 5751.9,-135.95"/>
</g>
<!-- Node9 -->
<g id="node9" class="node">
<title>Node9</title>
<g id="a_node9"><a xlink:href="../../dd/d66/vdxfengine_8cpp.html" target="_top" xlink:title=" ">
<polygon fill="white" stroke="black" points="0,-73 0,-92 154,-92 154,-73 0,-73"/>
<text text-anchor="middle" x="77" y="-80" font-family="Helvetica,sans-Serif" font-size="10.00">src/libs/vdxf/vdxfengine.cpp</text>
</a>
</g>
</g>
<!-- Node8&#45;&gt;Node9 -->
<g id="edge9" class="edge">
<title>Node8&#45;&gt;Node9</title>
<path fill="none" stroke="midnightblue" d="M704.6,-148.08C580.56,-139.7 354.79,-122.59 163,-98 150.23,-96.36 136.46,-94.22 123.77,-92.08"/>
<polygon fill="midnightblue" stroke="midnightblue" points="704.6,-151.59 714.82,-148.77 705.07,-144.61 704.6,-151.59"/>
</g>
<!-- Node10 -->
<g id="node10" class="node">
<title>Node10</title>
<g id="a_node10"><a xlink:href="../../de/da8/vbank_8cpp.html" target="_top" xlink:title=" ">
<polygon fill="white" stroke="black" points="172,-73 172,-92 316,-92 316,-73 172,-73"/>
<text text-anchor="middle" x="244" y="-80" font-family="Helvetica,sans-Serif" font-size="10.00">src/libs/vlayout/vbank.cpp</text>
</a>
</g>
</g>
<!-- Node8&#45;&gt;Node10 -->
<g id="edge10" class="edge">
<title>Node8&#45;&gt;Node10</title>
<path fill="none" stroke="midnightblue" d="M704.71,-144.61C609.15,-134.59 456.4,-117.52 325,-98 313.27,-96.26 300.63,-94.12 288.91,-92.03"/>
<polygon fill="midnightblue" stroke="midnightblue" points="704.61,-148.11 714.92,-145.67 705.34,-141.15 704.61,-148.11"/>
</g>
<!-- Node11 -->
<g id="node11" class="node">
<title>Node11</title>
<g id="a_node11"><a xlink:href="../../df/d5d/vcontour_8cpp.html" target="_top" xlink:title=" ">
<polygon fill="white" stroke="black" points="334,-73 334,-92 490,-92 490,-73 334,-73"/>
<text text-anchor="middle" x="412" y="-80" font-family="Helvetica,sans-Serif" font-size="10.00">src/libs/vlayout/vcontour.cpp</text>
</a>
</g>
</g>
<!-- Node8&#45;&gt;Node11 -->
<g id="edge11" class="edge">
<title>Node8&#45;&gt;Node11</title>
<path fill="none" stroke="midnightblue" d="M741.5,-143.68C664.98,-129.71 529.83,-105.02 458.73,-92.03"/>
<polygon fill="midnightblue" stroke="midnightblue" points="740.97,-147.14 751.44,-145.5 742.23,-140.26 740.97,-147.14"/>
</g>
<!-- Node12 -->
<g id="node12" class="node">
<title>Node12</title>
<g id="a_node12"><a xlink:href="../../d3/d39/vlayoutgenerator_8cpp.html" target="_top" xlink:title=" ">
<polygon fill="white" stroke="black" points="508.5,-73 508.5,-92 705.5,-92 705.5,-73 508.5,-73"/>
<text text-anchor="middle" x="607" y="-80" font-family="Helvetica,sans-Serif" font-size="10.00">src/libs/vlayout/vlayoutgenerator.cpp</text>
</a>
</g>
</g>
<!-- Node8&#45;&gt;Node12 -->
<g id="edge12" class="edge">
<title>Node8&#45;&gt;Node12</title>
<path fill="none" stroke="midnightblue" d="M765.27,-141.92C726.77,-127.71 663.87,-104.49 630.12,-92.03"/>
<polygon fill="midnightblue" stroke="midnightblue" points="764.37,-145.32 774.96,-145.5 766.79,-138.75 764.37,-145.32"/>
</g>
<!-- Node13 -->
<g id="node13" class="node">
<title>Node13</title>
<g id="a_node13"><a xlink:href="../../d2/d2d/vlayoutpaper__p_8h.html" target="_top" xlink:title=" ">
<polygon fill="white" stroke="black" points="928.5,-73 928.5,-92 1107.5,-92 1107.5,-73 928.5,-73"/>
<text text-anchor="middle" x="1018" y="-80" font-family="Helvetica,sans-Serif" font-size="10.00">src/libs/vlayout/vlayoutpaper_p.h</text>
</a>
</g>
</g>
<!-- Node8&#45;&gt;Node13 -->
<g id="edge13" class="edge">
<title>Node8&#45;&gt;Node13</title>
<path fill="none" stroke="midnightblue" d="M834.3,-142.37C878.49,-128.21 952.08,-104.62 991.37,-92.03"/>
<polygon fill="midnightblue" stroke="midnightblue" points="832.99,-139.11 824.54,-145.5 835.13,-145.78 832.99,-139.11"/>
</g>
<!-- Node14 -->
<g id="node14" class="node">
<title>Node14</title>
<g id="a_node14"><a xlink:href="../../d1/dd1/vlayoutpaper_8cpp.html" target="_top" xlink:title=" ">
<polygon fill="white" stroke="black" points="811,-6 811,-25 989,-25 989,-6 811,-6"/>
<text text-anchor="middle" x="900" y="-13" font-family="Helvetica,sans-Serif" font-size="10.00">src/libs/vlayout/vlayoutpaper.cpp</text>
</a>
</g>
</g>
<!-- Node8&#45;&gt;Node14 -->
<g id="edge15" class="edge">
<title>Node8&#45;&gt;Node14</title>
<path fill="none" stroke="midnightblue" d="M827.71,-140.97C845.77,-131.56 867.82,-117.14 881,-98 896.74,-75.15 899.57,-41.03 899.99,-25.17"/>
<polygon fill="midnightblue" stroke="midnightblue" points="826.1,-137.86 818.69,-145.44 829.21,-144.14 826.1,-137.86"/>
</g>
<!-- Node15 -->
<g id="node15" class="node">
<title>Node15</title>
<g id="a_node15"><a xlink:href="../../db/d5c/vposition_8h.html" target="_top" xlink:title=" ">
<polygon fill="white" stroke="red" points="724,-73 724,-92 872,-92 872,-73 724,-73"/>
<text text-anchor="middle" x="798" y="-80" font-family="Helvetica,sans-Serif" font-size="10.00">src/libs/vlayout/vposition.h</text>
</a>
</g>
</g>
<!-- Node8&#45;&gt;Node15 -->
<g id="edge16" class="edge">
<title>Node8&#45;&gt;Node15</title>
<path fill="none" stroke="midnightblue" d="M798,-134.94C798,-121.03 798,-102.82 798,-92.22"/>
<polygon fill="midnightblue" stroke="midnightblue" points="794.5,-135.36 798,-145.36 801.5,-135.36 794.5,-135.36"/>
</g>
<!-- Node17 -->
<g id="node16" class="node">
<title>Node17</title>
<g id="a_node16"><a xlink:href="../../dd/d70/vlayoutpiece_8cpp.html" target="_top" xlink:title=" ">
<polygon fill="white" stroke="black" points="1125.5,-73 1125.5,-92 1302.5,-92 1302.5,-73 1125.5,-73"/>
<text text-anchor="middle" x="1214" y="-80" font-family="Helvetica,sans-Serif" font-size="10.00">src/libs/vlayout/vlayoutpiece.cpp</text>
</a>
</g>
</g>
<!-- Node8&#45;&gt;Node17 -->
<g id="edge18" class="edge">
<title>Node8&#45;&gt;Node17</title>
<path fill="none" stroke="midnightblue" d="M858.14,-143.81C940.46,-129.86 1086.78,-105.06 1163.64,-92.03"/>
<polygon fill="midnightblue" stroke="midnightblue" points="857.45,-140.37 848.18,-145.5 858.62,-147.28 857.45,-140.37"/>
</g>
<!-- Node13&#45;&gt;Node14 -->
<g id="edge14" class="edge">
<title>Node13&#45;&gt;Node14</title>
<path fill="none" stroke="midnightblue" d="M993.11,-67.79C969.72,-54.9 935.44,-36.02 915.66,-25.13"/>
<polygon fill="midnightblue" stroke="midnightblue" points="991.64,-70.97 1002.09,-72.73 995.02,-64.84 991.64,-70.97"/>
</g>
<!-- Node15&#45;&gt;Node14 -->
<g id="edge17" class="edge">
<title>Node15&#45;&gt;Node14</title>
<path fill="none" stroke="midnightblue" d="M820.33,-67.27C840.52,-54.4 869.59,-35.88 886.46,-25.13"/>
<polygon fill="midnightblue" stroke="midnightblue" points="818.31,-64.41 811.76,-72.73 822.07,-70.31 818.31,-64.41"/>
</g>
<!-- Node19&#45;&gt;Node7 -->
<g id="edge24" class="edge">
<title>Node19&#45;&gt;Node7</title>
<path fill="none" stroke="midnightblue" d="M3174.27,-151.04C2810.62,-140.96 1646.72,-108.1 1567,-98 1564.13,-97.64 1561.21,-97.21 1558.26,-96.72"/>
<polygon fill="midnightblue" stroke="midnightblue" points="3174.18,-154.54 3184.27,-151.31 3174.37,-147.54 3174.18,-154.54"/>
</g>
<!-- Node19&#45;&gt;Node17 -->
<g id="edge33" class="edge">
<title>Node19&#45;&gt;Node17</title>
<path fill="none" stroke="midnightblue" d="M3174.4,-152.65C2817.93,-147.89 1677.45,-130.48 1311,-98 1295.4,-96.62 1278.48,-94.36 1263.21,-92.03"/>
<polygon fill="midnightblue" stroke="midnightblue" points="3174.42,-156.15 3184.46,-152.78 3174.51,-149.15 3174.42,-156.15"/>
</g>
<!-- Node19&#45;&gt;Node18 -->
<g id="edge34" class="edge">
<title>Node19&#45;&gt;Node18</title>
<path fill="none" stroke="midnightblue" d="M3174.17,-146.39C3112.14,-142.23 3032.71,-137.27 2962,-134 2431.22,-109.42 2296.34,-144.2 1767,-98 1750.92,-96.6 1733.48,-94.33 1717.74,-92"/>
<polygon fill="midnightblue" stroke="midnightblue" points="3174.15,-149.9 3184.36,-147.08 3174.62,-142.91 3174.15,-149.9"/>
</g>
<!-- Node20 -->
<g id="node19" class="node">
<title>Node20</title>
<g id="a_node19"><a xlink:href="../../d4/d90/fvupdater_8cpp.html" target="_top" xlink:title=" ">
<polygon fill="white" stroke="black" points="3054.5,-73 3054.5,-92 3207.5,-92 3207.5,-73 3054.5,-73"/>
<text text-anchor="middle" x="3131" y="-80" font-family="Helvetica,sans-Serif" font-size="10.00">src/libs/fervor/fvupdater.cpp</text>
</a>
</g>
</g>
<!-- Node19&#45;&gt;Node20 -->
<g id="edge21" class="edge">
<title>Node19&#45;&gt;Node20</title>
<path fill="none" stroke="midnightblue" d="M3254.55,-141.18C3224,-126.92 3175.5,-104.28 3149.28,-92.03"/>
<polygon fill="midnightblue" stroke="midnightblue" points="3253.24,-144.44 3263.79,-145.5 3256.21,-138.09 3253.24,-144.44"/>
</g>
<!-- Node21 -->
<g id="node20" class="node">
<title>Node21</title>
<g id="a_node20"><a xlink:href="../../d1/d8d/image__item_8h.html" target="_top" xlink:title=" ">
<polygon fill="white" stroke="red" points="3226,-67.5 3226,-97.5 3338,-97.5 3338,-67.5 3226,-67.5"/>
<text text-anchor="start" x="3234" y="-85.5" font-family="Helvetica,sans-Serif" font-size="10.00">src/libs/tools/image</text>
<text text-anchor="middle" x="3282" y="-74.5" font-family="Helvetica,sans-Serif" font-size="10.00">_item.h</text>
</a>
</g>
</g>
<!-- Node19&#45;&gt;Node21 -->
<g id="edge22" class="edge">
<title>Node19&#45;&gt;Node21</title>
<path fill="none" stroke="midnightblue" d="M3282,-135.24C3282,-123.41 3282,-108.38 3282,-97.58"/>
<polygon fill="midnightblue" stroke="midnightblue" points="3278.5,-135.36 3282,-145.36 3285.5,-135.36 3278.5,-135.36"/>
</g>
<!-- Node31 -->
<g id="node21" class="node">
<title>Node31</title>
<g id="a_node21"><a xlink:href="../../d9/dc8/dxiface_8cpp.html" target="_top" xlink:title=" ">
<polygon fill="white" stroke="black" points="3356.5,-73 3356.5,-92 3491.5,-92 3491.5,-73 3356.5,-73"/>
<text text-anchor="middle" x="3424" y="-80" font-family="Helvetica,sans-Serif" font-size="10.00">src/libs/vdxf/dxiface.cpp</text>
</a>
</g>
</g>
<!-- Node19&#45;&gt;Node31 -->
<g id="edge23" class="edge">
<title>Node19&#45;&gt;Node31</title>
<path fill="none" stroke="midnightblue" d="M3308.19,-141C3336.93,-126.73 3382.26,-104.23 3406.81,-92.03"/>
<polygon fill="midnightblue" stroke="midnightblue" points="3306.53,-137.91 3299.13,-145.5 3309.64,-144.18 3306.53,-137.91"/>
</g>
<!-- Node32 -->
<g id="node22" class="node">
<title>Node32</title>
<g id="a_node22"><a xlink:href="../../da/d75/vabstractarc__p_8h.html" target="_top" xlink:title=" ">
<polygon fill="white" stroke="red" points="3509.5,-67.5 3509.5,-97.5 3616.5,-97.5 3616.5,-67.5 3509.5,-67.5"/>
<text text-anchor="start" x="3517.5" y="-85.5" font-family="Helvetica,sans-Serif" font-size="10.00">src/libs/vgeometry</text>
<text text-anchor="middle" x="3563" y="-74.5" font-family="Helvetica,sans-Serif" font-size="10.00">/vabstractarc_p.h</text>
</a>
</g>
</g>
<!-- Node19&#45;&gt;Node32 -->
<g id="edge25" class="edge">
<title>Node19&#45;&gt;Node32</title>
<path fill="none" stroke="midnightblue" d="M3325.66,-143.05C3375.18,-130.62 3455.93,-110.36 3509.27,-96.98"/>
<polygon fill="midnightblue" stroke="midnightblue" points="3324.74,-139.67 3315.9,-145.5 3326.45,-146.46 3324.74,-139.67"/>
</g>
<!-- Node34 -->
<g id="node23" class="node">
<title>Node34</title>
<g id="a_node23"><a xlink:href="../../dc/da3/varc__p_8h.html" target="_top" xlink:title=" ">
<polygon fill="white" stroke="red" points="3634.5,-67.5 3634.5,-97.5 3741.5,-97.5 3741.5,-67.5 3634.5,-67.5"/>
<text text-anchor="start" x="3642.5" y="-85.5" font-family="Helvetica,sans-Serif" font-size="10.00">src/libs/vgeometry</text>
<text text-anchor="middle" x="3688" y="-74.5" font-family="Helvetica,sans-Serif" font-size="10.00">/varc_p.h</text>
</a>
</g>
</g>
<!-- Node19&#45;&gt;Node34 -->
<g id="edge26" class="edge">
<title>Node19&#45;&gt;Node34</title>
<path fill="none" stroke="midnightblue" d="M3351.33,-144.02C3420.78,-133.71 3530.62,-116.55 3625,-98 3628.08,-97.39 3631.25,-96.75 3634.43,-96.08"/>
<polygon fill="midnightblue" stroke="midnightblue" points="3350.77,-140.57 3341.39,-145.49 3351.79,-147.49 3350.77,-140.57"/>
</g>
<!-- Node36 -->
<g id="node24" class="node">
<title>Node36</title>
<g id="a_node24"><a xlink:href="../../d5/d8e/vcubicbezier__p_8h.html" target="_top" xlink:title=" ">
<polygon fill="white" stroke="red" points="3759.5,-67.5 3759.5,-97.5 3866.5,-97.5 3866.5,-67.5 3759.5,-67.5"/>
<text text-anchor="start" x="3767.5" y="-85.5" font-family="Helvetica,sans-Serif" font-size="10.00">src/libs/vgeometry</text>
<text text-anchor="middle" x="3813" y="-74.5" font-family="Helvetica,sans-Serif" font-size="10.00">/vcubicbezier_p.h</text>
</a>
</g>
</g>
<!-- Node19&#45;&gt;Node36 -->
<g id="edge27" class="edge">
<title>Node19&#45;&gt;Node36</title>
<path fill="none" stroke="midnightblue" d="M3389,-144.49C3484.17,-135.25 3626.91,-119.47 3750,-98 3753.1,-97.46 3756.27,-96.86 3759.46,-96.23"/>
<polygon fill="midnightblue" stroke="midnightblue" points="3388.41,-141.03 3378.79,-145.47 3389.08,-148 3388.41,-141.03"/>
</g>
<!-- Node38 -->
<g id="node25" class="node">
<title>Node38</title>
<g id="a_node25"><a xlink:href="../../df/dde/vellipticalarc__p_8h.html" target="_top" xlink:title=" ">
<polygon fill="white" stroke="black" points="3884.5,-67.5 3884.5,-97.5 3991.5,-97.5 3991.5,-67.5 3884.5,-67.5"/>
<text text-anchor="start" x="3892.5" y="-85.5" font-family="Helvetica,sans-Serif" font-size="10.00">src/libs/vgeometry</text>
<text text-anchor="middle" x="3938" y="-74.5" font-family="Helvetica,sans-Serif" font-size="10.00">/vellipticalarc_p.h</text>
</a>
</g>
</g>
<!-- Node19&#45;&gt;Node38 -->
<g id="edge28" class="edge">
<title>Node19&#45;&gt;Node38</title>
<path fill="none" stroke="midnightblue" d="M3389.79,-148.11C3509.04,-140.6 3706.62,-125.21 3875,-98 3878.1,-97.5 3881.28,-96.93 3884.48,-96.32"/>
<polygon fill="midnightblue" stroke="midnightblue" points="3389.33,-144.63 3379.57,-148.75 3389.77,-151.62 3389.33,-144.63"/>
</g>
<!-- Node39 -->
<g id="node26" class="node">
<title>Node39</title>
<g id="a_node26"><a xlink:href="../../d6/dfb/vellipticalarc_8cpp.html" target="_top" xlink:title=" ">
<polygon fill="white" stroke="black" points="2871.5,-0.5 2871.5,-30.5 2978.5,-30.5 2978.5,-0.5 2871.5,-0.5"/>
<text text-anchor="start" x="2879.5" y="-18.5" font-family="Helvetica,sans-Serif" font-size="10.00">src/libs/vgeometry</text>
<text text-anchor="middle" x="2925" y="-7.5" font-family="Helvetica,sans-Serif" font-size="10.00">/vellipticalarc.cpp</text>
</a>
</g>
</g>
<!-- Node19&#45;&gt;Node39 -->
<g id="edge30" class="edge">
<title>Node19&#45;&gt;Node39</title>
<path fill="none" stroke="midnightblue" d="M3174.16,-146.52C3112.13,-142.4 3032.7,-137.44 2962,-134 2904.76,-131.21 1970.81,-139.23 1931,-98 1921.43,-88.09 1921.51,-76.99 1931,-67 1963.63,-32.68 2669.46,-20.1 2871.45,-17.2"/>
<polygon fill="midnightblue" stroke="midnightblue" points="3174.15,-150.03 3184.36,-147.2 3174.61,-143.04 3174.15,-150.03"/>
</g>
<!-- Node40 -->
<g id="node27" class="node">
<title>Node40</title>
<g id="a_node27"><a xlink:href="../../d1/d76/vspline__p_8h.html" target="_top" xlink:title=" ">
<polygon fill="white" stroke="red" points="4009.5,-67.5 4009.5,-97.5 4116.5,-97.5 4116.5,-67.5 4009.5,-67.5"/>
<text text-anchor="start" x="4017.5" y="-85.5" font-family="Helvetica,sans-Serif" font-size="10.00">src/libs/vgeometry</text>
<text text-anchor="middle" x="4063" y="-74.5" font-family="Helvetica,sans-Serif" font-size="10.00">/vspline_p.h</text>
</a>
</g>
</g>
<!-- Node19&#45;&gt;Node40 -->
<g id="edge31" class="edge">
<title>Node19&#45;&gt;Node40</title>
<path fill="none" stroke="midnightblue" d="M3390.16,-150.56C3531.19,-144.94 3785.23,-130.9 4000,-98 4003.11,-97.52 4006.29,-96.98 4009.49,-96.39"/>
<polygon fill="midnightblue" stroke="midnightblue" points="3389.64,-147.08 3379.79,-150.97 3389.92,-154.08 3389.64,-147.08"/>
</g>
<!-- Node42 -->
<g id="node28" class="node">
<title>Node42</title>
<g id="a_node28"><a xlink:href="../../d9/d15/vabstractpiece_8cpp.html" target="_top" xlink:title=" ">
<polygon fill="white" stroke="black" points="4135,-73 4135,-92 4321,-92 4321,-73 4135,-73"/>
<text text-anchor="middle" x="4228" y="-80" font-family="Helvetica,sans-Serif" font-size="10.00">src/libs/vlayout/vabstractpiece.cpp</text>
</a>
</g>
</g>
<!-- Node19&#45;&gt;Node42 -->
<g id="edge32" class="edge">
<title>Node19&#45;&gt;Node42</title>
<path fill="none" stroke="midnightblue" d="M3389.91,-149.37C3550.46,-141.92 3861.6,-125.25 4125,-98 4140.63,-96.38 4157.53,-94.19 4173.03,-92"/>
<polygon fill="midnightblue" stroke="midnightblue" points="3389.38,-145.9 3379.55,-149.85 3389.7,-152.89 3389.38,-145.9"/>
</g>
<!-- Node43 -->
<g id="node29" class="node">
<title>Node43</title>
<g id="a_node29"><a xlink:href="../../db/d65/dialogexporttocsv_8cpp.html" target="_top" xlink:title=" ">
<polygon fill="white" stroke="black" points="4339.5,-67.5 4339.5,-97.5 4466.5,-97.5 4466.5,-67.5 4339.5,-67.5"/>
<text text-anchor="start" x="4347.5" y="-85.5" font-family="Helvetica,sans-Serif" font-size="10.00">src/libs/vmisc/dialogs</text>
<text text-anchor="middle" x="4403" y="-74.5" font-family="Helvetica,sans-Serif" font-size="10.00">/dialogexporttocsv.cpp</text>
</a>
</g>
</g>
<!-- Node19&#45;&gt;Node43 -->
<g id="edge35" class="edge">
<title>Node19&#45;&gt;Node43</title>
<path fill="none" stroke="midnightblue" d="M3389.58,-153.3C3579.95,-150.95 3988.32,-140.84 4330,-98 4333.08,-97.61 4336.22,-97.17 4339.39,-96.69"/>
<polygon fill="midnightblue" stroke="midnightblue" points="3389.53,-149.8 3379.58,-153.42 3389.62,-156.8 3389.53,-149.8"/>
</g>
<!-- Node44 -->
<g id="node30" class="node">
<title>Node44</title>
<g id="a_node30"><a xlink:href="../../d6/d0b/def_8cpp.html" target="_top" xlink:title=" ">
<polygon fill="white" stroke="black" points="4485,-73 4485,-92 4607,-92 4607,-73 4485,-73"/>
<text text-anchor="middle" x="4546" y="-80" font-family="Helvetica,sans-Serif" font-size="10.00">src/libs/vmisc/def.cpp</text>
</a>
</g>
</g>
<!-- Node19&#45;&gt;Node44 -->
<g id="edge36" class="edge">
<title>Node19&#45;&gt;Node44</title>
<path fill="none" stroke="midnightblue" d="M3389.95,-154.5C3599.84,-154.25 4077.22,-147.65 4475,-98 4486.36,-96.58 4498.62,-94.34 4509.69,-92.04"/>
<polygon fill="midnightblue" stroke="midnightblue" points="3389.86,-151 3379.86,-154.51 3389.86,-158 3389.86,-151"/>
</g>
<!-- Node45 -->
<g id="node31" class="node">
<title>Node45</title>
<g id="a_node31"><a xlink:href="../../d0/df6/vabstractapplication_8cpp.html" target="_top" xlink:title=" ">
<polygon fill="white" stroke="black" points="4625,-73 4625,-92 4831,-92 4831,-73 4625,-73"/>
<text text-anchor="middle" x="4728" y="-80" font-family="Helvetica,sans-Serif" font-size="10.00">src/libs/vmisc/vabstractapplication.cpp</text>
</a>
</g>
</g>
<!-- Node19&#45;&gt;Node45 -->
<g id="edge37" class="edge">
<title>Node19&#45;&gt;Node45</title>
<path fill="none" stroke="midnightblue" d="M3389.93,-152.64C3617.15,-149.09 4161.36,-136.9 4616,-98 4633.48,-96.5 4652.43,-94.28 4669.68,-92.02"/>
<polygon fill="midnightblue" stroke="midnightblue" points="3389.62,-149.15 3379.68,-152.8 3389.73,-156.15 3389.62,-149.15"/>
</g>
<!-- Node46 -->
<g id="node32" class="node">
<title>Node46</title>
<g id="a_node32"><a xlink:href="../../d4/d4f/pmsystems_8cpp.html" target="_top" xlink:title=" ">
<polygon fill="white" stroke="black" points="1776.5,-67.5 1776.5,-97.5 1883.5,-97.5 1883.5,-67.5 1776.5,-67.5"/>
<text text-anchor="start" x="1784.5" y="-85.5" font-family="Helvetica,sans-Serif" font-size="10.00">src/libs/vpatterndb</text>
<text text-anchor="middle" x="1830" y="-74.5" font-family="Helvetica,sans-Serif" font-size="10.00">/pmsystems.cpp</text>
</a>
</g>
</g>
<!-- Node19&#45;&gt;Node46 -->
<g id="edge38" class="edge">
<title>Node19&#45;&gt;Node46</title>
<path fill="none" stroke="midnightblue" d="M3174.16,-146.49C3112.13,-142.36 3032.71,-137.41 2962,-134 2489.39,-111.24 2367.65,-155.56 1898,-98 1893.33,-97.43 1888.5,-96.69 1883.67,-95.86"/>
<polygon fill="midnightblue" stroke="midnightblue" points="3174.15,-150 3184.36,-147.17 3174.61,-143.01 3174.15,-150"/>
</g>
<!-- Node19&#45;&gt;Node47 -->
<g id="edge39" class="edge">
<title>Node19&#45;&gt;Node47</title>
<path fill="none" stroke="midnightblue" d="M3174.23,-153.5C2832.57,-151.48 1776.23,-141.76 1437,-98 1433.99,-97.61 1430.92,-97.15 1427.83,-96.62"/>
<polygon fill="midnightblue" stroke="midnightblue" points="3174.35,-157 3184.37,-153.56 3174.39,-150 3174.35,-157"/>
</g>
<!-- Node19&#45;&gt;Node48 -->
<g id="edge40" class="edge">
<title>Node19&#45;&gt;Node48</title>
<path fill="none" stroke="midnightblue" d="M3389.87,-153.13C3711.2,-150.11 4658.69,-137.97 4965,-98 4968,-97.61 4971.08,-97.14 4974.17,-96.61"/>
<polygon fill="midnightblue" stroke="midnightblue" points="3389.59,-149.63 3379.62,-153.23 3389.65,-156.63 3389.59,-149.63"/>
</g>
<!-- Node19&#45;&gt;Node49 -->
<g id="edge41" class="edge">
<title>Node19&#45;&gt;Node49</title>
<path fill="none" stroke="midnightblue" d="M3389.91,-153.42C3727.12,-151.17 4758.34,-140.89 5090,-98 5093.01,-97.61 5096.08,-97.14 5099.17,-96.62"/>
<polygon fill="midnightblue" stroke="midnightblue" points="3389.63,-149.92 3379.65,-153.49 3389.68,-156.92 3389.63,-149.92"/>
</g>
<!-- Node50 -->
<g id="node36" class="node">
<title>Node50</title>
<g id="a_node36"><a xlink:href="../../df/dba/vpiecenode__p_8h.html" target="_top" xlink:title=" ">
<polygon fill="white" stroke="black" points="4849.5,-67.5 4849.5,-97.5 4956.5,-97.5 4956.5,-67.5 4849.5,-67.5"/>
<text text-anchor="start" x="4857.5" y="-85.5" font-family="Helvetica,sans-Serif" font-size="10.00">src/libs/vpatterndb</text>
<text text-anchor="middle" x="4903" y="-74.5" font-family="Helvetica,sans-Serif" font-size="10.00">/vpiecenode_p.h</text>
</a>
</g>
</g>
<!-- Node19&#45;&gt;Node50 -->
<g id="edge42" class="edge">
<title>Node19&#45;&gt;Node50</title>
<path fill="none" stroke="midnightblue" d="M3389.73,-152.8C3694.51,-148.96 4558.92,-135.05 4840,-98 4843,-97.6 4846.08,-97.13 4849.17,-96.6"/>
<polygon fill="midnightblue" stroke="midnightblue" points="3389.52,-149.3 3379.57,-152.92 3389.61,-156.3 3389.52,-149.3"/>
</g>
<!-- Node52 -->
<g id="node38" class="node">
<title>Node52</title>
<g id="a_node38"><a xlink:href="../../de/d3e/vtranslatevars_8cpp.html" target="_top" xlink:title=" ">
<polygon fill="white" stroke="black" points="1940,-67.5 1940,-97.5 2050,-97.5 2050,-67.5 1940,-67.5"/>
<text text-anchor="start" x="1948" y="-85.5" font-family="Helvetica,sans-Serif" font-size="10.00">src/libs/vpatterndb</text>
<text text-anchor="middle" x="1995" y="-74.5" font-family="Helvetica,sans-Serif" font-size="10.00">/vtranslatevars.cpp</text>
</a>
</g>
</g>
<!-- Node19&#45;&gt;Node52 -->
<g id="edge44" class="edge">
<title>Node19&#45;&gt;Node52</title>
<path fill="none" stroke="midnightblue" d="M3174.16,-146.65C3112.12,-142.58 3032.7,-137.62 2962,-134 2560.87,-113.47 2457.19,-150.59 2059,-98 2056.06,-97.61 2053.06,-97.15 2050.04,-96.64"/>
<polygon fill="midnightblue" stroke="midnightblue" points="3174.14,-150.16 3184.35,-147.32 3174.6,-143.17 3174.14,-150.16"/>
</g>
<!-- Node25 -->
<g id="node39" class="node">
<title>Node25</title>
<g id="a_node39"><a xlink:href="../../df/d40/export__format__combobox_8cpp.html" target="_top" xlink:title=" ">
<polygon fill="white" stroke="black" points="2068.5,-67.5 2068.5,-97.5 2201.5,-97.5 2201.5,-67.5 2068.5,-67.5"/>
<text text-anchor="start" x="2076.5" y="-85.5" font-family="Helvetica,sans-Serif" font-size="10.00">src/libs/vwidgets/export</text>
<text text-anchor="middle" x="2135" y="-74.5" font-family="Helvetica,sans-Serif" font-size="10.00">_format_combobox.cpp</text>
</a>
</g>
</g>
<!-- Node19&#45;&gt;Node25 -->
<g id="edge45" class="edge">
<title>Node19&#45;&gt;Node25</title>
<path fill="none" stroke="midnightblue" d="M3174.14,-146.87C3112.1,-142.86 3032.68,-137.9 2962,-134 2628.35,-115.58 2542.83,-137.41 2211,-98 2207.93,-97.64 2204.8,-97.22 2201.65,-96.76"/>
<polygon fill="midnightblue" stroke="midnightblue" points="3174.13,-150.37 3184.34,-147.53 3174.59,-143.39 3174.13,-150.37"/>
</g>
<!-- Node53 -->
<g id="node40" class="node">
<title>Node53</title>
<g id="a_node40"><a xlink:href="../../d3/d4f/mouse__coordinates_8cpp.html" target="_top" xlink:title=" ">
<polygon fill="white" stroke="black" points="2220,-67.5 2220,-97.5 2354,-97.5 2354,-67.5 2220,-67.5"/>
<text text-anchor="start" x="2228" y="-85.5" font-family="Helvetica,sans-Serif" font-size="10.00">src/libs/vwidgets/mouse</text>
<text text-anchor="middle" x="2287" y="-74.5" font-family="Helvetica,sans-Serif" font-size="10.00">_coordinates.cpp</text>
</a>
</g>
</g>
<!-- Node19&#45;&gt;Node53 -->
<g id="edge46" class="edge">
<title>Node19&#45;&gt;Node53</title>
<path fill="none" stroke="midnightblue" d="M3174.13,-147.19C3112.08,-143.29 3032.66,-138.33 2962,-134 2695.8,-117.68 2627.65,-131.06 2363,-98 2360.07,-97.63 2357.08,-97.22 2354.06,-96.78"/>
<polygon fill="midnightblue" stroke="midnightblue" points="3174.12,-150.7 3184.32,-147.83 3174.56,-143.71 3174.12,-150.7"/>
</g>
<!-- Node28 -->
<g id="node41" class="node">
<title>Node28</title>
<g id="a_node41"><a xlink:href="../../d2/d28/page__format__combobox_8cpp.html" target="_top" xlink:title=" ">
<polygon fill="white" stroke="black" points="2372.5,-67.5 2372.5,-97.5 2503.5,-97.5 2503.5,-67.5 2372.5,-67.5"/>
<text text-anchor="start" x="2380.5" y="-85.5" font-family="Helvetica,sans-Serif" font-size="10.00">src/libs/vwidgets/page</text>
<text text-anchor="middle" x="2438" y="-74.5" font-family="Helvetica,sans-Serif" font-size="10.00">_format_combobox.cpp</text>
</a>
</g>
</g>
<!-- Node19&#45;&gt;Node28 -->
<g id="edge47" class="edge">
<title>Node19&#45;&gt;Node28</title>
<path fill="none" stroke="midnightblue" d="M3174.27,-146.87C2978.07,-133.77 2576.75,-106.45 2513,-98 2509.98,-97.6 2506.89,-97.15 2503.78,-96.67"/>
<polygon fill="midnightblue" stroke="midnightblue" points="3174.11,-150.36 3184.32,-147.54 3174.57,-143.38 3174.11,-150.36"/>
</g>
<!-- Node54 -->
<g id="node42" class="node">
<title>Node54</title>
<g id="a_node42"><a xlink:href="../../d8/d76/scene__rect_8cpp.html" target="_top" xlink:title=" ">
<polygon fill="white" stroke="black" points="2522,-67.5 2522,-97.5 2652,-97.5 2652,-67.5 2522,-67.5"/>
<text text-anchor="start" x="2530" y="-85.5" font-family="Helvetica,sans-Serif" font-size="10.00">src/libs/vwidgets/scene</text>
<text text-anchor="middle" x="2587" y="-74.5" font-family="Helvetica,sans-Serif" font-size="10.00">_rect.cpp</text>
</a>
</g>
</g>
<!-- Node19&#45;&gt;Node54 -->
<g id="edge48" class="edge">
<title>Node19&#45;&gt;Node54</title>
<path fill="none" stroke="midnightblue" d="M3174.03,-147.67C3049.84,-139.59 2840.02,-123.54 2661,-98 2658.15,-97.59 2655.24,-97.15 2652.31,-96.68"/>
<polygon fill="midnightblue" stroke="midnightblue" points="3174.09,-151.18 3184.3,-148.33 3174.54,-144.19 3174.09,-151.18"/>
</g>
<!-- Node55 -->
<g id="node43" class="node">
<title>Node55</title>
<g id="a_node43"><a xlink:href="../../d7/d1b/pen__toolbar_8cpp.html" target="_top" xlink:title=" ">
<polygon fill="white" stroke="black" points="2670.5,-67.5 2670.5,-97.5 2789.5,-97.5 2789.5,-67.5 2670.5,-67.5"/>
<text text-anchor="start" x="2678.5" y="-85.5" font-family="Helvetica,sans-Serif" font-size="10.00">src/libs/vwidgets/pen</text>
<text text-anchor="middle" x="2730" y="-74.5" font-family="Helvetica,sans-Serif" font-size="10.00">_toolbar.cpp</text>
</a>
</g>
</g>
<!-- Node19&#45;&gt;Node55 -->
<g id="edge49" class="edge">
<title>Node19&#45;&gt;Node55</title>
<path fill="none" stroke="midnightblue" d="M3174.5,-144.51C3076.15,-135.13 2926.79,-119.13 2798,-98 2795.26,-97.55 2792.46,-97.06 2789.64,-96.55"/>
<polygon fill="midnightblue" stroke="midnightblue" points="3174.46,-148.02 3184.74,-145.48 3175.12,-141.06 3174.46,-148.02"/>
</g>
<!-- Node56 -->
<g id="node44" class="node">
<title>Node56</title>
<g id="a_node44"><a xlink:href="../../dd/df6/vabstractmainwindow_8cpp.html" target="_top" xlink:title=" ">
<polygon fill="white" stroke="black" points="2807.5,-73 2807.5,-92 3036.5,-92 3036.5,-73 2807.5,-73"/>
<text text-anchor="middle" x="2922" y="-80" font-family="Helvetica,sans-Serif" font-size="10.00">src/libs/vwidgets/vabstractmainwindow.cpp</text>
</a>
</g>
</g>
<!-- Node19&#45;&gt;Node56 -->
<g id="edge50" class="edge">
<title>Node19&#45;&gt;Node56</title>
<path fill="none" stroke="midnightblue" d="M3228.43,-143.51C3156.91,-129.5 3031.62,-104.97 2965.58,-92.03"/>
<polygon fill="midnightblue" stroke="midnightblue" points="3228.09,-147.01 3238.58,-145.5 3229.43,-140.14 3228.09,-147.01"/>
</g>
<!-- Node38&#45;&gt;Node39 -->
<g id="edge29" class="edge">
<title>Node38&#45;&gt;Node39</title>
<path fill="none" stroke="midnightblue" d="M3874.2,-67.07C3528.41,-19.31 3122.38,-15.76 2978.62,-16.11"/>
<polygon fill="midnightblue" stroke="midnightblue" points="3873.77,-70.55 3884.16,-68.46 3874.74,-63.61 3873.77,-70.55"/>
</g>
<!-- Node50&#45;&gt;Node51 -->
<g id="edge43" class="edge">
<title>Node50&#45;&gt;Node51</title>
<path fill="none" stroke="midnightblue" d="M4948.51,-63.68C4975.13,-53.26 5008.27,-40.28 5033.05,-30.58"/>
<polygon fill="midnightblue" stroke="midnightblue" points="4947.05,-60.49 4939.02,-67.4 4949.61,-67.01 4947.05,-60.49"/>
</g>
<!-- Node65&#45;&gt;Node2 -->
<g id="edge52" class="edge">
<title>Node65&#45;&gt;Node2</title>
<path fill="none" stroke="midnightblue" d="M4903.4,-138.03C4911.98,-136.45 4920.67,-135.04 4929,-134 5336.37,-83.1 5443.36,-137.36 5852,-98 5855.04,-97.71 5858.13,-97.38 5861.25,-97.03"/>
<polygon fill="midnightblue" stroke="midnightblue" points="4902.56,-134.63 4893.41,-139.96 4903.89,-141.5 4902.56,-134.63"/>
</g>
</g>
</svg>
