<?xml version="1.0" encoding="UTF-8" standalone="no"?>
<!DOCTYPE svg PUBLIC "-//W3C//DTD SVG 1.1//EN"
 "http://www.w3.org/Graphics/SVG/1.1/DTD/svg11.dtd">
<!-- Generated by graphviz version 2.43.0 (0)
 -->
<!-- Title: src/libs/vwidgets/global.h Pages: 1 -->
<svg width="2418pt" height="95pt"
 viewBox="0.00 0.00 2417.50 95.00" xmlns="http://www.w3.org/2000/svg" xmlns:xlink="http://www.w3.org/1999/xlink">
<g id="graph0" class="graph" transform="scale(1 1) rotate(0) translate(4 91)">
<title>src/libs/vwidgets/global.h</title>
<polygon fill="white" stroke="transparent" points="-4,4 -4,-91 2413.5,-91 2413.5,4 -4,4"/>
<!-- Node1 -->
<g id="node1" class="node">
<title>Node1</title>
<g id="a_node1"><a xlink:title=" ">
<polygon fill="#bfbfbf" stroke="black" points="1096,-67.5 1096,-86.5 1236,-86.5 1236,-67.5 1096,-67.5"/>
<text text-anchor="middle" x="1166" y="-74.5" font-family="Helvetica,sans-Serif" font-size="10.00">src/libs/vwidgets/global.h</text>
</a>
</g>
</g>
<!-- Node2 -->
<g id="node2" class="node">
<title>Node2</title>
<g id="a_node2"><a xlink:href="../../df/d1e/image__item_8cpp.html" target="_top" xlink:title=" ">
<polygon fill="white" stroke="black" points="0,-0.5 0,-30.5 112,-30.5 112,-0.5 0,-0.5"/>
<text text-anchor="start" x="8" y="-18.5" font-family="Helvetica,sans-Serif" font-size="10.00">src/libs/tools/image</text>
<text text-anchor="middle" x="56" y="-7.5" font-family="Helvetica,sans-Serif" font-size="10.00">_item.cpp</text>
</a>
</g>
</g>
<!-- Node1&#45;&gt;Node2 -->
<g id="edge1" class="edge">
<title>Node1&#45;&gt;Node2</title>
<path fill="none" stroke="midnightblue" d="M1085.86,-74.38C874.82,-69.82 307.21,-55.58 121,-31 118.13,-30.62 115.21,-30.18 112.26,-29.69"/>
<polygon fill="midnightblue" stroke="midnightblue" points="1085.86,-77.88 1095.94,-74.6 1086.02,-70.88 1085.86,-77.88"/>
</g>
<!-- Node3 -->
<g id="node3" class="node">
<title>Node3</title>
<g id="a_node3"><a xlink:href="../../dd/d70/vlayoutpiece_8cpp.html" target="_top" xlink:title=" ">
<polygon fill="white" stroke="black" points="130.5,-6 130.5,-25 307.5,-25 307.5,-6 130.5,-6"/>
<text text-anchor="middle" x="219" y="-13" font-family="Helvetica,sans-Serif" font-size="10.00">src/libs/vlayout/vlayoutpiece.cpp</text>
</a>
</g>
</g>
<!-- Node1&#45;&gt;Node3 -->
<g id="edge2" class="edge">
<title>Node1&#45;&gt;Node3</title>
<path fill="none" stroke="midnightblue" d="M1085.84,-74.26C935,-70.43 598.75,-59.25 317,-31 301.77,-29.47 285.28,-27.26 270.26,-25.01"/>
<polygon fill="midnightblue" stroke="midnightblue" points="1085.86,-77.76 1095.94,-74.51 1086.04,-70.76 1085.86,-77.76"/>
</g>
<!-- Node4 -->
<g id="node4" class="node">
<title>Node4</title>
<g id="a_node4"><a xlink:href="../../db/d7d/global_8cpp.html" target="_top" xlink:title=" ">
<polygon fill="white" stroke="black" points="326,-6 326,-25 478,-25 478,-6 326,-6"/>
<text text-anchor="middle" x="402" y="-13" font-family="Helvetica,sans-Serif" font-size="10.00">src/libs/vwidgets/global.cpp</text>
</a>
</g>
</g>
<!-- Node1&#45;&gt;Node4 -->
<g id="edge3" class="edge">
<title>Node1&#45;&gt;Node4</title>
<path fill="none" stroke="midnightblue" d="M1085.84,-73.36C958.57,-68.56 702.61,-56.47 487,-31 473.92,-29.45 459.78,-27.26 446.87,-25.04"/>
<polygon fill="midnightblue" stroke="midnightblue" points="1085.77,-76.86 1095.89,-73.73 1086.03,-69.86 1085.77,-76.86"/>
</g>
<!-- Node5 -->
<g id="node5" class="node">
<title>Node5</title>
<g id="a_node5"><a xlink:href="../../d4/d50/scalesceneitems_8cpp.html" target="_top" xlink:title=" ">
<polygon fill="white" stroke="black" points="496.5,-6 496.5,-25 699.5,-25 699.5,-6 496.5,-6"/>
<text text-anchor="middle" x="598" y="-13" font-family="Helvetica,sans-Serif" font-size="10.00">src/libs/vwidgets/scalesceneitems.cpp</text>
</a>
</g>
</g>
<!-- Node1&#45;&gt;Node5 -->
<g id="edge4" class="edge">
<title>Node1&#45;&gt;Node5</title>
<path fill="none" stroke="midnightblue" d="M1085.68,-68.92C994.16,-60.66 840.16,-46.2 708,-31 692.4,-29.21 675.59,-27.09 659.91,-25.03"/>
<polygon fill="midnightblue" stroke="midnightblue" points="1085.43,-72.41 1095.7,-69.82 1086.05,-65.44 1085.43,-72.41"/>
</g>
<!-- Node6 -->
<g id="node6" class="node">
<title>Node6</title>
<g id="a_node6"><a xlink:href="../../df/dcf/vcurvepathitem_8cpp.html" target="_top" xlink:title=" ">
<polygon fill="white" stroke="black" points="717.5,-6 717.5,-25 916.5,-25 916.5,-6 717.5,-6"/>
<text text-anchor="middle" x="817" y="-13" font-family="Helvetica,sans-Serif" font-size="10.00">src/libs/vwidgets/vcurvepathitem.cpp</text>
</a>
</g>
</g>
<!-- Node1&#45;&gt;Node6 -->
<g id="edge5" class="edge">
<title>Node1&#45;&gt;Node6</title>
<path fill="none" stroke="midnightblue" d="M1105.93,-65.76C1038.4,-54.25 929.97,-35.76 866.91,-25.01"/>
<polygon fill="midnightblue" stroke="midnightblue" points="1105.55,-69.24 1116,-67.48 1106.73,-62.34 1105.55,-69.24"/>
</g>
<!-- Node7 -->
<g id="node7" class="node">
<title>Node7</title>
<g id="a_node7"><a xlink:href="../../de/d45/vcontrolpointspline_8cpp.html" target="_top" xlink:title=" ">
<polygon fill="white" stroke="black" points="934.5,-6 934.5,-25 1149.5,-25 1149.5,-6 934.5,-6"/>
<text text-anchor="middle" x="1042" y="-13" font-family="Helvetica,sans-Serif" font-size="10.00">src/libs/vwidgets/vcontrolpointspline.cpp</text>
</a>
</g>
</g>
<!-- Node1&#45;&gt;Node7 -->
<g id="edge6" class="edge">
<title>Node1&#45;&gt;Node7</title>
<path fill="none" stroke="midnightblue" d="M1138.95,-63.02C1114.9,-51.48 1080.44,-34.94 1059.73,-25.01"/>
<polygon fill="midnightblue" stroke="midnightblue" points="1137.7,-66.3 1148.23,-67.48 1140.73,-59.99 1137.7,-66.3"/>
</g>
<!-- Node8 -->
<g id="node8" class="node">
<title>Node8</title>
<g id="a_node8"><a xlink:href="../../de/dec/vgraphicssimpletextitem_8cpp.html" target="_top" xlink:title=" ">
<polygon fill="white" stroke="black" points="1168,-6 1168,-25 1412,-25 1412,-6 1168,-6"/>
<text text-anchor="middle" x="1290" y="-13" font-family="Helvetica,sans-Serif" font-size="10.00">src/libs/vwidgets/vgraphicssimpletextitem.cpp</text>
</a>
</g>
</g>
<!-- Node1&#45;&gt;Node8 -->
<g id="edge7" class="edge">
<title>Node1&#45;&gt;Node8</title>
<path fill="none" stroke="midnightblue" d="M1193.05,-63.02C1217.1,-51.48 1251.56,-34.94 1272.27,-25.01"/>
<polygon fill="midnightblue" stroke="midnightblue" points="1191.27,-59.99 1183.77,-67.48 1194.3,-66.3 1191.27,-59.99"/>
</g>
<!-- Node9 -->
<g id="node9" class="node">
<title>Node9</title>
<g id="a_node9"><a xlink:href="../../d8/d76/scene__rect_8cpp.html" target="_top" xlink:title=" ">
<polygon fill="white" stroke="black" points="1430,-0.5 1430,-30.5 1560,-30.5 1560,-0.5 1430,-0.5"/>
<text text-anchor="start" x="1438" y="-18.5" font-family="Helvetica,sans-Serif" font-size="10.00">src/libs/vwidgets/scene</text>
<text text-anchor="middle" x="1495" y="-7.5" font-family="Helvetica,sans-Serif" font-size="10.00">_rect.cpp</text>
</a>
</g>
</g>
<!-- Node1&#45;&gt;Node9 -->
<g id="edge8" class="edge">
<title>Node1&#45;&gt;Node9</title>
<path fill="none" stroke="midnightblue" d="M1225.89,-65.76C1277.6,-56.84 1354.29,-43.42 1421,-31 1423.83,-30.47 1426.72,-29.93 1429.64,-29.38"/>
<polygon fill="midnightblue" stroke="midnightblue" points="1225.15,-62.33 1215.89,-67.48 1226.34,-69.23 1225.15,-62.33"/>
</g>
<!-- Node10 -->
<g id="node10" class="node">
<title>Node10</title>
<g id="a_node10"><a xlink:href="../../d1/d88/vmaingraphicsscene_8cpp.html" target="_top" xlink:title=" ">
<polygon fill="white" stroke="black" points="1578,-6 1578,-25 1800,-25 1800,-6 1578,-6"/>
<text text-anchor="middle" x="1689" y="-13" font-family="Helvetica,sans-Serif" font-size="10.00">src/libs/vwidgets/vmaingraphicsscene.cpp</text>
</a>
</g>
</g>
<!-- Node1&#45;&gt;Node10 -->
<g id="edge9" class="edge">
<title>Node1&#45;&gt;Node10</title>
<path fill="none" stroke="midnightblue" d="M1246.45,-67.23C1327.81,-58.32 1457.18,-44 1569,-31 1585.36,-29.1 1602.97,-27 1619.53,-25"/>
<polygon fill="midnightblue" stroke="midnightblue" points="1245.83,-63.78 1236.27,-68.35 1246.6,-70.74 1245.83,-63.78"/>
</g>
<!-- Node11 -->
<g id="node11" class="node">
<title>Node11</title>
<g id="a_node11"><a xlink:href="../../d0/d5d/vscenepoint_8cpp.html" target="_top" xlink:title=" ">
<polygon fill="white" stroke="black" points="1818.5,-6 1818.5,-25 1999.5,-25 1999.5,-6 1818.5,-6"/>
<text text-anchor="middle" x="1909" y="-13" font-family="Helvetica,sans-Serif" font-size="10.00">src/libs/vwidgets/vscenepoint.cpp</text>
</a>
</g>
</g>
<!-- Node1&#45;&gt;Node11 -->
<g id="edge10" class="edge">
<title>Node1&#45;&gt;Node11</title>
<path fill="none" stroke="midnightblue" d="M1246.07,-72.31C1367.87,-66.26 1606.89,-52.69 1809,-31 1824.09,-29.38 1840.4,-27.2 1855.38,-25.02"/>
<polygon fill="midnightblue" stroke="midnightblue" points="1245.9,-68.81 1236.08,-72.8 1246.24,-75.8 1245.9,-68.81"/>
</g>
<!-- Node12 -->
<g id="node12" class="node">
<title>Node12</title>
<g id="a_node12"><a xlink:href="../../de/d22/vsimplecurve_8cpp.html" target="_top" xlink:title=" ">
<polygon fill="white" stroke="black" points="2018,-6 2018,-25 2206,-25 2206,-6 2018,-6"/>
<text text-anchor="middle" x="2112" y="-13" font-family="Helvetica,sans-Serif" font-size="10.00">src/libs/vwidgets/vsimplecurve.cpp</text>
</a>
</g>
</g>
<!-- Node1&#45;&gt;Node12 -->
<g id="edge11" class="edge">
<title>Node1&#45;&gt;Node12</title>
<path fill="none" stroke="midnightblue" d="M1246.14,-74.03C1396.17,-69.83 1729.5,-58.08 2009,-31 2024.91,-29.46 2042.13,-27.25 2057.85,-25.02"/>
<polygon fill="midnightblue" stroke="midnightblue" points="1246,-70.53 1236.1,-74.31 1246.19,-77.53 1246,-70.53"/>
</g>
<!-- Node13 -->
<g id="node13" class="node">
<title>Node13</title>
<g id="a_node13"><a xlink:href="../../df/d38/vsimplepoint_8cpp.html" target="_top" xlink:title=" ">
<polygon fill="white" stroke="black" points="2224.5,-6 2224.5,-25 2409.5,-25 2409.5,-6 2224.5,-6"/>
<text text-anchor="middle" x="2317" y="-13" font-family="Helvetica,sans-Serif" font-size="10.00">src/libs/vwidgets/vsimplepoint.cpp</text>
</a>
</g>
</g>
<!-- Node1&#45;&gt;Node13 -->
<g id="edge12" class="edge">
<title>Node1&#45;&gt;Node13</title>
<path fill="none" stroke="midnightblue" d="M1246.34,-75.24C1422.26,-73 1854.61,-64.26 2215,-31 2231.03,-29.52 2248.4,-27.29 2264.18,-25.02"/>
<polygon fill="midnightblue" stroke="midnightblue" points="1246.09,-71.75 1236.13,-75.37 1246.18,-78.75 1246.09,-71.75"/>
</g>
</g>
</svg>
