<?xml version="1.0" encoding="UTF-8" standalone="no"?>
<!DOCTYPE svg PUBLIC "-//W3C//DTD SVG 1.1//EN"
 "http://www.w3.org/Graphics/SVG/1.1/DTD/svg11.dtd">
<!-- Generated by graphviz version 2.43.0 (0)
 -->
<!-- Title: src/libs/vwidgets/group_tablewidgetitem.cpp Pages: 1 -->
<svg width="2802pt" height="386pt"
 viewBox="0.00 0.00 2801.50 386.00" xmlns="http://www.w3.org/2000/svg" xmlns:xlink="http://www.w3.org/1999/xlink">
<g id="graph0" class="graph" transform="scale(1 1) rotate(0) translate(4 382)">
<title>src/libs/vwidgets/group_tablewidgetitem.cpp</title>
<polygon fill="white" stroke="transparent" points="-4,4 -4,-382 2797.5,-382 2797.5,4 -4,4"/>
<!-- Node1 -->
<g id="node1" class="node">
<title>Node1</title>
<g id="a_node1"><a xlink:title=" ">
<polygon fill="#bfbfbf" stroke="black" points="1052,-347.5 1052,-377.5 1181,-377.5 1181,-347.5 1052,-347.5"/>
<text text-anchor="start" x="1060" y="-365.5" font-family="Helvetica,sans-Serif" font-size="10.00">src/libs/vwidgets/group</text>
<text text-anchor="middle" x="1116.5" y="-354.5" font-family="Helvetica,sans-Serif" font-size="10.00">_tablewidgetitem.cpp</text>
</a>
</g>
</g>
<!-- Node2 -->
<g id="node2" class="node">
<title>Node2</title>
<g id="a_node2"><a xlink:href="../../de/d4a/group__tablewidgetitem_8h.html" target="_top" xlink:title=" ">
<polygon fill="white" stroke="black" points="965,-291.5 965,-310.5 1104,-310.5 1104,-291.5 965,-291.5"/>
<text text-anchor="middle" x="1034.5" y="-298.5" font-family="Helvetica,sans-Serif" font-size="10.00">group_tablewidgetitem.h</text>
</a>
</g>
</g>
<!-- Node1&#45;&gt;Node2 -->
<g id="edge1" class="edge">
<title>Node1&#45;&gt;Node2</title>
<path fill="none" stroke="midnightblue" d="M1097.07,-347.4C1084.29,-338.13 1067.61,-326.03 1054.69,-316.65"/>
<polygon fill="midnightblue" stroke="midnightblue" points="1056.58,-313.7 1046.43,-310.66 1052.47,-319.36 1056.58,-313.7"/>
</g>
<!-- Node4 -->
<g id="node4" class="node">
<title>Node4</title>
<g id="a_node4"><a xlink:href="../../d0/d89/vabstractpattern_8h.html" target="_top" xlink:title=" ">
<polygon fill="white" stroke="black" points="1539.5,-291.5 1539.5,-310.5 1691.5,-310.5 1691.5,-291.5 1539.5,-291.5"/>
<text text-anchor="middle" x="1615.5" y="-298.5" font-family="Helvetica,sans-Serif" font-size="10.00">../ifc/xml/vabstractpattern.h</text>
</a>
</g>
</g>
<!-- Node1&#45;&gt;Node4 -->
<g id="edge3" class="edge">
<title>Node1&#45;&gt;Node4</title>
<path fill="none" stroke="midnightblue" d="M1181.22,-353.78C1271.51,-343.02 1435.25,-323.49 1533.82,-311.74"/>
<polygon fill="midnightblue" stroke="midnightblue" points="1534.52,-315.18 1544.04,-310.52 1533.69,-308.23 1534.52,-315.18"/>
</g>
<!-- Node3 -->
<g id="node3" class="node">
<title>Node3</title>
<g id="a_node3"><a xlink:title=" ">
<polygon fill="white" stroke="#bfbfbf" points="565,-235.5 565,-254.5 672,-254.5 672,-235.5 565,-235.5"/>
<text text-anchor="middle" x="618.5" y="-242.5" font-family="Helvetica,sans-Serif" font-size="10.00">QTableWidgetItem</text>
</a>
</g>
</g>
<!-- Node2&#45;&gt;Node3 -->
<g id="edge2" class="edge">
<title>Node2&#45;&gt;Node3</title>
<path fill="none" stroke="midnightblue" d="M968.1,-291.47C898.07,-282.47 784.51,-267.82 686.5,-255 685.2,-254.83 683.9,-254.66 682.58,-254.49"/>
<polygon fill="midnightblue" stroke="midnightblue" points="682.69,-250.97 672.32,-253.14 681.78,-257.91 682.69,-250.97"/>
</g>
<!-- Node5 -->
<g id="node5" class="node">
<title>Node5</title>
<g id="a_node5"><a xlink:title=" ">
<polygon fill="white" stroke="#bfbfbf" points="2673.5,-56.5 2673.5,-75.5 2793.5,-75.5 2793.5,-56.5 2673.5,-56.5"/>
<text text-anchor="middle" x="2733.5" y="-63.5" font-family="Helvetica,sans-Serif" font-size="10.00">qcompilerdetection.h</text>
</a>
</g>
</g>
<!-- Node4&#45;&gt;Node5 -->
<g id="edge4" class="edge">
<title>Node4&#45;&gt;Node5</title>
<path fill="none" stroke="midnightblue" d="M1691.54,-300.23C1876.07,-300.12 2343.43,-295.69 2493.5,-255 2597.73,-226.74 2688.26,-124.11 2720.73,-83.6"/>
<polygon fill="midnightblue" stroke="midnightblue" points="2723.48,-85.77 2726.92,-75.75 2717.98,-81.43 2723.48,-85.77"/>
</g>
<!-- Node6 -->
<g id="node6" class="node">
<title>Node6</title>
<g id="a_node6"><a xlink:title=" ">
<polygon fill="white" stroke="#bfbfbf" points="0,-174 0,-193 49,-193 49,-174 0,-174"/>
<text text-anchor="middle" x="24.5" y="-181" font-family="Helvetica,sans-Serif" font-size="10.00">QHash</text>
</a>
</g>
</g>
<!-- Node4&#45;&gt;Node6 -->
<g id="edge5" class="edge">
<title>Node4&#45;&gt;Node6</title>
<path fill="none" stroke="midnightblue" d="M1539.24,-298.01C1337.08,-292.47 797.49,-275.92 719.5,-255 700.69,-249.95 699.3,-240.12 680.5,-235 413.32,-162.25 328.09,-262.25 58.5,-199 55.99,-198.41 53.42,-197.65 50.88,-196.78"/>
<polygon fill="midnightblue" stroke="midnightblue" points="51.99,-193.46 41.41,-193.07 49.44,-199.97 51.99,-193.46"/>
</g>
<!-- Node7 -->
<g id="node7" class="node">
<title>Node7</title>
<g id="a_node7"><a xlink:title=" ">
<polygon fill="white" stroke="#bfbfbf" points="2744,-235.5 2744,-254.5 2789,-254.5 2789,-235.5 2744,-235.5"/>
<text text-anchor="middle" x="2766.5" y="-242.5" font-family="Helvetica,sans-Serif" font-size="10.00">QMap</text>
</a>
</g>
</g>
<!-- Node4&#45;&gt;Node7 -->
<g id="edge6" class="edge">
<title>Node4&#45;&gt;Node7</title>
<path fill="none" stroke="midnightblue" d="M1691.76,-298.89C1909.02,-295.41 2528.48,-283.22 2729.5,-255 2730.97,-254.79 2732.47,-254.55 2733.98,-254.29"/>
<polygon fill="midnightblue" stroke="midnightblue" points="2734.85,-257.68 2743.94,-252.24 2733.44,-250.83 2734.85,-257.68"/>
</g>
<!-- Node8 -->
<g id="node8" class="node">
<title>Node8</title>
<g id="a_node8"><a xlink:title=" ">
<polygon fill="white" stroke="#bfbfbf" points="1678.5,-112.5 1678.5,-131.5 1758.5,-131.5 1758.5,-112.5 1678.5,-112.5"/>
<text text-anchor="middle" x="1718.5" y="-119.5" font-family="Helvetica,sans-Serif" font-size="10.00">QMetaObject</text>
</a>
</g>
</g>
<!-- Node4&#45;&gt;Node8 -->
<g id="edge7" class="edge">
<title>Node4&#45;&gt;Node8</title>
<path fill="none" stroke="midnightblue" d="M1627.8,-291.21C1638.67,-282.92 1654.34,-269.6 1664.5,-255 1689.87,-218.55 1706.2,-168.37 1713.7,-141.6"/>
<polygon fill="midnightblue" stroke="midnightblue" points="1717.16,-142.24 1716.38,-131.67 1710.4,-140.41 1717.16,-142.24"/>
</g>
<!-- Node9 -->
<g id="node9" class="node">
<title>Node9</title>
<g id="a_node9"><a xlink:title=" ">
<polygon fill="white" stroke="#bfbfbf" points="728.5,-235.5 728.5,-254.5 784.5,-254.5 784.5,-235.5 728.5,-235.5"/>
<text text-anchor="middle" x="756.5" y="-242.5" font-family="Helvetica,sans-Serif" font-size="10.00">QObject</text>
</a>
</g>
</g>
<!-- Node4&#45;&gt;Node9 -->
<g id="edge8" class="edge">
<title>Node4&#45;&gt;Node9</title>
<path fill="none" stroke="midnightblue" d="M1539.39,-300.49C1395.44,-300.4 1073.51,-295.35 794.58,-254.87"/>
<polygon fill="midnightblue" stroke="midnightblue" points="795.08,-251.41 784.68,-253.42 794.06,-258.34 795.08,-251.41"/>
</g>
<!-- Node10 -->
<g id="node10" class="node">
<title>Node10</title>
<g id="a_node10"><a xlink:title=" ">
<polygon fill="white" stroke="#bfbfbf" points="802.5,-235.5 802.5,-254.5 844.5,-254.5 844.5,-235.5 802.5,-235.5"/>
<text text-anchor="middle" x="823.5" y="-242.5" font-family="Helvetica,sans-Serif" font-size="10.00">QPair</text>
</a>
</g>
</g>
<!-- Node4&#45;&gt;Node10 -->
<g id="edge9" class="edge">
<title>Node4&#45;&gt;Node10</title>
<path fill="none" stroke="midnightblue" d="M1539.24,-297.75C1377.12,-292.61 1001.73,-278.7 854.83,-254.75"/>
<polygon fill="midnightblue" stroke="midnightblue" points="855.11,-251.25 844.66,-253.01 853.92,-258.15 855.11,-251.25"/>
</g>
<!-- Node11 -->
<g id="node11" class="node">
<title>Node11</title>
<g id="a_node11"><a xlink:title=" ">
<polygon fill="white" stroke="#bfbfbf" points="1472,-56.5 1472,-75.5 1525,-75.5 1525,-56.5 1472,-56.5"/>
<text text-anchor="middle" x="1498.5" y="-63.5" font-family="Helvetica,sans-Serif" font-size="10.00">QString</text>
</a>
</g>
</g>
<!-- Node4&#45;&gt;Node11 -->
<g id="edge10" class="edge">
<title>Node4&#45;&gt;Node11</title>
<path fill="none" stroke="midnightblue" d="M1583.02,-291.5C1543.11,-278.98 1477.93,-251.22 1455.5,-199 1438.22,-158.77 1467.12,-109.15 1485.36,-83.74"/>
<polygon fill="midnightblue" stroke="midnightblue" points="1488.31,-85.64 1491.5,-75.53 1482.71,-81.45 1488.31,-85.64"/>
</g>
<!-- Node12 -->
<g id="node12" class="node">
<title>Node12</title>
<g id="a_node12"><a xlink:title=" ">
<polygon fill="white" stroke="#bfbfbf" points="2585.5,-56.5 2585.5,-75.5 2655.5,-75.5 2655.5,-56.5 2585.5,-56.5"/>
<text text-anchor="middle" x="2620.5" y="-63.5" font-family="Helvetica,sans-Serif" font-size="10.00">QStringList</text>
</a>
</g>
</g>
<!-- Node4&#45;&gt;Node12 -->
<g id="edge11" class="edge">
<title>Node4&#45;&gt;Node12</title>
<path fill="none" stroke="midnightblue" d="M1691.64,-300.76C1870.03,-301.76 2310.5,-299.5 2450.5,-255 2539.38,-226.75 2580.79,-216.38 2620.5,-132 2627.26,-117.64 2626.59,-99.44 2624.62,-85.96"/>
<polygon fill="midnightblue" stroke="midnightblue" points="2628.03,-85.13 2622.79,-75.93 2621.14,-86.39 2628.03,-85.13"/>
</g>
<!-- Node13 -->
<g id="node13" class="node">
<title>Node13</title>
<g id="a_node13"><a xlink:title=" ">
<polygon fill="white" stroke="#bfbfbf" points="2556,-112.5 2556,-131.5 2611,-131.5 2611,-112.5 2556,-112.5"/>
<text text-anchor="middle" x="2583.5" y="-119.5" font-family="Helvetica,sans-Serif" font-size="10.00">QVector</text>
</a>
</g>
</g>
<!-- Node4&#45;&gt;Node13 -->
<g id="edge12" class="edge">
<title>Node4&#45;&gt;Node13</title>
<path fill="none" stroke="midnightblue" d="M1691.62,-298.33C1878.57,-293.88 2349.92,-280.25 2416.5,-255 2482.55,-229.95 2543.06,-168.73 2569.49,-139.31"/>
<polygon fill="midnightblue" stroke="midnightblue" points="2572.3,-141.4 2576.29,-131.59 2567.05,-136.78 2572.3,-141.4"/>
</g>
<!-- Node14 -->
<g id="node14" class="node">
<title>Node14</title>
<g id="a_node14"><a xlink:title=" ">
<polygon fill="white" stroke="#bfbfbf" points="1583,-56.5 1583,-75.5 1642,-75.5 1642,-56.5 1583,-56.5"/>
<text text-anchor="middle" x="1612.5" y="-63.5" font-family="Helvetica,sans-Serif" font-size="10.00">QtGlobal</text>
</a>
</g>
</g>
<!-- Node4&#45;&gt;Node14 -->
<g id="edge13" class="edge">
<title>Node4&#45;&gt;Node14</title>
<path fill="none" stroke="midnightblue" d="M1618.84,-291.2C1622.05,-282.24 1626.68,-267.88 1628.5,-255 1637.24,-193.22 1624.12,-119.3 1616.83,-85.51"/>
<polygon fill="midnightblue" stroke="midnightblue" points="1620.22,-84.65 1614.62,-75.66 1613.39,-86.18 1620.22,-84.65"/>
</g>
<!-- Node15 -->
<g id="node15" class="node">
<title>Node15</title>
<g id="a_node15"><a xlink:href="../../d8/da5/vdomdocument_8h.html" target="_top" xlink:title=" ">
<polygon fill="white" stroke="black" points="862.5,-235.5 862.5,-254.5 964.5,-254.5 964.5,-235.5 862.5,-235.5"/>
<text text-anchor="middle" x="913.5" y="-242.5" font-family="Helvetica,sans-Serif" font-size="10.00">vdomdocument.h</text>
</a>
</g>
</g>
<!-- Node4&#45;&gt;Node15 -->
<g id="edge14" class="edge">
<title>Node4&#45;&gt;Node15</title>
<path fill="none" stroke="midnightblue" d="M1539.37,-294.14C1399.24,-283.36 1103.07,-260.58 974.83,-250.72"/>
<polygon fill="midnightblue" stroke="midnightblue" points="975.03,-247.22 964.79,-249.95 974.49,-254.2 975.03,-247.22"/>
</g>
<!-- Node26 -->
<g id="node26" class="node">
<title>Node26</title>
<g id="a_node26"><a xlink:title=" ">
<polygon fill="white" stroke="#bfbfbf" points="1464.5,-174 1464.5,-193 1546.5,-193 1546.5,-174 1464.5,-174"/>
<text text-anchor="middle" x="1505.5" y="-181" font-family="Helvetica,sans-Serif" font-size="10.00">../vmisc/def.h</text>
</a>
</g>
</g>
<!-- Node4&#45;&gt;Node26 -->
<g id="edge35" class="edge">
<title>Node4&#45;&gt;Node26</title>
<path fill="none" stroke="midnightblue" d="M1587.17,-291.39C1568.44,-284.36 1544.63,-272.66 1529.5,-255 1516.91,-240.3 1510.84,-218.69 1507.97,-203.28"/>
<polygon fill="midnightblue" stroke="midnightblue" points="1511.41,-202.66 1506.39,-193.33 1504.5,-203.76 1511.41,-202.66"/>
</g>
<!-- Node29 -->
<g id="node29" class="node">
<title>Node29</title>
<g id="a_node29"><a xlink:href="../../d9/d47/vtoolrecord_8h.html" target="_top" xlink:title=" ">
<polygon fill="white" stroke="black" points="1539,-235.5 1539,-254.5 1620,-254.5 1620,-235.5 1539,-235.5"/>
<text text-anchor="middle" x="1579.5" y="-242.5" font-family="Helvetica,sans-Serif" font-size="10.00">vtoolrecord.h</text>
</a>
</g>
</g>
<!-- Node4&#45;&gt;Node29 -->
<g id="edge31" class="edge">
<title>Node4&#45;&gt;Node29</title>
<path fill="none" stroke="midnightblue" d="M1609.56,-291.08C1604.52,-283.53 1597.16,-272.49 1590.99,-263.23"/>
<polygon fill="midnightblue" stroke="midnightblue" points="1593.79,-261.13 1585.33,-254.75 1587.97,-265.01 1593.79,-261.13"/>
</g>
<!-- Node30 -->
<g id="node30" class="node">
<title>Node30</title>
<g id="a_node30"><a xlink:title=" ">
<polygon fill="white" stroke="#bfbfbf" points="2268,-235.5 2268,-254.5 2407,-254.5 2407,-235.5 2268,-235.5"/>
<text text-anchor="middle" x="2337.5" y="-242.5" font-family="Helvetica,sans-Serif" font-size="10.00">../vwidgets/pen_toolbar.h</text>
</a>
</g>
</g>
<!-- Node4&#45;&gt;Node30 -->
<g id="edge36" class="edge">
<title>Node4&#45;&gt;Node30</title>
<path fill="none" stroke="midnightblue" d="M1691.92,-295.78C1810.74,-288.97 2047.18,-274.42 2257.77,-255.13"/>
<polygon fill="midnightblue" stroke="midnightblue" points="2258.14,-258.61 2267.78,-254.2 2257.5,-251.64 2258.14,-258.61"/>
</g>
<!-- Node31 -->
<g id="node31" class="node">
<title>Node31</title>
<g id="a_node31"><a xlink:href="../../d1/d8d/image__item_8h.html" target="_top" xlink:title=" ">
<polygon fill="white" stroke="black" points="2121,-235.5 2121,-254.5 2250,-254.5 2250,-235.5 2121,-235.5"/>
<text text-anchor="middle" x="2185.5" y="-242.5" font-family="Helvetica,sans-Serif" font-size="10.00">../../tools/image_item.h</text>
</a>
</g>
</g>
<!-- Node4&#45;&gt;Node31 -->
<g id="edge37" class="edge">
<title>Node4&#45;&gt;Node31</title>
<path fill="none" stroke="midnightblue" d="M1691.78,-292.77C1801.25,-282.4 2001.67,-263.42 2110.45,-253.11"/>
<polygon fill="midnightblue" stroke="midnightblue" points="2111.06,-256.57 2120.68,-252.14 2110.4,-249.6 2111.06,-256.57"/>
</g>
<!-- Node15&#45;&gt;Node6 -->
<g id="edge19" class="edge">
<title>Node15&#45;&gt;Node6</title>
<path fill="none" stroke="midnightblue" d="M862.48,-235.98C859.45,-235.62 856.44,-235.29 853.5,-235 677.48,-217.86 230.92,-238.32 58.5,-199 55.98,-198.43 53.41,-197.67 50.88,-196.81"/>
<polygon fill="midnightblue" stroke="midnightblue" points="51.98,-193.49 41.4,-193.11 49.44,-200.01 51.98,-193.49"/>
</g>
<!-- Node15&#45;&gt;Node11 -->
<g id="edge22" class="edge">
<title>Node15&#45;&gt;Node11</title>
<path fill="none" stroke="midnightblue" d="M862.47,-236.06C859.44,-235.67 856.43,-235.32 853.5,-235 734.38,-222.08 237.47,-256.26 318.5,-168 397.7,-81.74 1270.43,-69.02 1461.63,-67.27"/>
<polygon fill="midnightblue" stroke="midnightblue" points="1461.76,-70.77 1471.73,-67.18 1461.7,-63.77 1461.76,-70.77"/>
</g>
<!-- Node15&#45;&gt;Node14 -->
<g id="edge25" class="edge">
<title>Node15&#45;&gt;Node14</title>
<path fill="none" stroke="midnightblue" d="M964.86,-241.72C1069.2,-236.64 1302.49,-222.93 1378.5,-199 1464.58,-171.9 1554.21,-110.36 1592.85,-81.92"/>
<polygon fill="midnightblue" stroke="midnightblue" points="1595.21,-84.53 1601.14,-75.75 1591.03,-78.92 1595.21,-84.53"/>
</g>
<!-- Node16 -->
<g id="node16" class="node">
<title>Node16</title>
<g id="a_node16"><a xlink:title=" ">
<polygon fill="white" stroke="#bfbfbf" points="1269,-174 1269,-193 1370,-193 1370,-174 1269,-174"/>
<text text-anchor="middle" x="1319.5" y="-181" font-family="Helvetica,sans-Serif" font-size="10.00">QCoreApplication</text>
</a>
</g>
</g>
<!-- Node15&#45;&gt;Node16 -->
<g id="edge15" class="edge">
<title>Node15&#45;&gt;Node16</title>
<path fill="none" stroke="midnightblue" d="M964.77,-239.08C1032.56,-232.17 1155.57,-218.26 1259.5,-199 1265.24,-197.94 1271.25,-196.67 1277.16,-195.33"/>
<polygon fill="midnightblue" stroke="midnightblue" points="1278,-198.73 1286.94,-193.04 1276.41,-191.92 1278,-198.73"/>
</g>
<!-- Node17 -->
<g id="node17" class="node">
<title>Node17</title>
<g id="a_node17"><a xlink:title=" ">
<polygon fill="white" stroke="#bfbfbf" points="67.5,-174 67.5,-193 165.5,-193 165.5,-174 67.5,-174"/>
<text text-anchor="middle" x="116.5" y="-181" font-family="Helvetica,sans-Serif" font-size="10.00">QDomDocument</text>
</a>
</g>
</g>
<!-- Node15&#45;&gt;Node17 -->
<g id="edge16" class="edge">
<title>Node15&#45;&gt;Node17</title>
<path fill="none" stroke="midnightblue" d="M862.48,-236.01C859.44,-235.64 856.43,-235.3 853.5,-235 552.84,-204.55 473.35,-243.85 174.5,-199 168.52,-198.1 162.25,-196.86 156.14,-195.48"/>
<polygon fill="midnightblue" stroke="midnightblue" points="156.62,-192 146.08,-193.06 154.99,-198.8 156.62,-192"/>
</g>
<!-- Node18 -->
<g id="node18" class="node">
<title>Node18</title>
<g id="a_node18"><a xlink:title=" ">
<polygon fill="white" stroke="#bfbfbf" points="183.5,-174 183.5,-193 271.5,-193 271.5,-174 183.5,-174"/>
<text text-anchor="middle" x="227.5" y="-181" font-family="Helvetica,sans-Serif" font-size="10.00">QDomElement</text>
</a>
</g>
</g>
<!-- Node15&#45;&gt;Node18 -->
<g id="edge17" class="edge">
<title>Node15&#45;&gt;Node18</title>
<path fill="none" stroke="midnightblue" d="M862.48,-236.04C859.44,-235.66 856.43,-235.31 853.5,-235 601.97,-208.21 535.45,-237.83 285.5,-199 279.59,-198.08 273.39,-196.84 267.35,-195.47"/>
<polygon fill="midnightblue" stroke="midnightblue" points="267.93,-192.01 257.39,-193.07 266.3,-198.82 267.93,-192.01"/>
</g>
<!-- Node19 -->
<g id="node19" class="node">
<title>Node19</title>
<g id="a_node19"><a xlink:title=" ">
<polygon fill="white" stroke="#bfbfbf" points="328,-174 328,-193 401,-193 401,-174 328,-174"/>
<text text-anchor="middle" x="364.5" y="-181" font-family="Helvetica,sans-Serif" font-size="10.00">QDomNode</text>
</a>
</g>
</g>
<!-- Node15&#45;&gt;Node19 -->
<g id="edge18" class="edge">
<title>Node15&#45;&gt;Node19</title>
<path fill="none" stroke="midnightblue" d="M862.47,-236.1C859.44,-235.71 856.43,-235.34 853.5,-235 656.82,-212.3 603.68,-237.62 409.5,-199 405.54,-198.21 401.44,-197.19 397.39,-196.06"/>
<polygon fill="midnightblue" stroke="midnightblue" points="398.17,-192.63 387.59,-193.07 396.13,-199.33 398.17,-192.63"/>
</g>
<!-- Node20 -->
<g id="node20" class="node">
<title>Node20</title>
<g id="a_node20"><a xlink:title=" ">
<polygon fill="white" stroke="#bfbfbf" points="419,-174 419,-193 502,-193 502,-174 419,-174"/>
<text text-anchor="middle" x="460.5" y="-181" font-family="Helvetica,sans-Serif" font-size="10.00">QLatin1String</text>
</a>
</g>
</g>
<!-- Node15&#45;&gt;Node20 -->
<g id="edge20" class="edge">
<title>Node15&#45;&gt;Node20</title>
<path fill="none" stroke="midnightblue" d="M862.46,-236.19C859.43,-235.77 856.43,-235.37 853.5,-235 701.89,-215.66 661.56,-228.01 511.5,-199 506.78,-198.09 501.86,-196.94 497.02,-195.7"/>
<polygon fill="midnightblue" stroke="midnightblue" points="497.86,-192.3 487.29,-193.05 496.02,-199.05 497.86,-192.3"/>
</g>
<!-- Node21 -->
<g id="node21" class="node">
<title>Node21</title>
<g id="a_node21"><a xlink:title=" ">
<polygon fill="white" stroke="#bfbfbf" points="520.5,-174 520.5,-193 624.5,-193 624.5,-174 520.5,-174"/>
<text text-anchor="middle" x="572.5" y="-181" font-family="Helvetica,sans-Serif" font-size="10.00">QStaticStringData</text>
</a>
</g>
</g>
<!-- Node15&#45;&gt;Node21 -->
<g id="edge21" class="edge">
<title>Node15&#45;&gt;Node21</title>
<path fill="none" stroke="midnightblue" d="M862.46,-236.26C794.06,-225.81 676.3,-207.51 633.5,-199 627.96,-197.9 622.16,-196.65 616.44,-195.35"/>
<polygon fill="midnightblue" stroke="midnightblue" points="616.81,-191.85 606.28,-193 615.23,-198.67 616.81,-191.85"/>
</g>
<!-- Node22 -->
<g id="node22" class="node">
<title>Node22</title>
<g id="a_node22"><a xlink:title=" ">
<polygon fill="white" stroke="#bfbfbf" points="642.5,-174 642.5,-193 718.5,-193 718.5,-174 642.5,-174"/>
<text text-anchor="middle" x="680.5" y="-181" font-family="Helvetica,sans-Serif" font-size="10.00">QStringData</text>
</a>
</g>
</g>
<!-- Node15&#45;&gt;Node22 -->
<g id="edge23" class="edge">
<title>Node15&#45;&gt;Node22</title>
<path fill="none" stroke="midnightblue" d="M875.21,-235.46C837.48,-226.88 778.27,-212.96 727.5,-199 724.1,-198.07 720.58,-197.06 717.06,-196.02"/>
<polygon fill="midnightblue" stroke="midnightblue" points="717.84,-192.6 707.26,-193.07 715.83,-199.3 717.84,-192.6"/>
</g>
<!-- Node23 -->
<g id="node23" class="node">
<title>Node23</title>
<g id="a_node23"><a xlink:title=" ">
<polygon fill="white" stroke="#bfbfbf" points="737,-174 737,-193 826,-193 826,-174 737,-174"/>
<text text-anchor="middle" x="781.5" y="-181" font-family="Helvetica,sans-Serif" font-size="10.00">QStringDataPtr</text>
</a>
</g>
</g>
<!-- Node15&#45;&gt;Node23 -->
<g id="edge24" class="edge">
<title>Node15&#45;&gt;Node23</title>
<path fill="none" stroke="midnightblue" d="M894.59,-235.48C872.34,-225.45 835.19,-208.7 809.57,-197.15"/>
<polygon fill="midnightblue" stroke="midnightblue" points="810.93,-193.93 800.38,-193.01 808.06,-200.31 810.93,-193.93"/>
</g>
<!-- Node24 -->
<g id="node24" class="node">
<title>Node24</title>
<g id="a_node24"><a xlink:title=" ">
<polygon fill="white" stroke="#bfbfbf" points="843.5,-174 843.5,-193 899.5,-193 899.5,-174 843.5,-174"/>
<text text-anchor="middle" x="871.5" y="-181" font-family="Helvetica,sans-Serif" font-size="10.00">QLocale</text>
</a>
</g>
</g>
<!-- Node15&#45;&gt;Node24 -->
<g id="edge26" class="edge">
<title>Node15&#45;&gt;Node24</title>
<path fill="none" stroke="midnightblue" d="M907.48,-235.48C901.24,-226.64 891.33,-212.59 883.48,-201.48"/>
<polygon fill="midnightblue" stroke="midnightblue" points="886.13,-199.16 877.51,-193.01 880.41,-203.2 886.13,-199.16"/>
</g>
<!-- Node25 -->
<g id="node25" class="node">
<title>Node25</title>
<g id="a_node25"><a xlink:title=" ">
<polygon fill="white" stroke="#bfbfbf" points="918,-174 918,-193 995,-193 995,-174 918,-174"/>
<text text-anchor="middle" x="956.5" y="-181" font-family="Helvetica,sans-Serif" font-size="10.00">../ifc/ifcdef.h</text>
</a>
</g>
</g>
<!-- Node15&#45;&gt;Node25 -->
<g id="edge27" class="edge">
<title>Node15&#45;&gt;Node25</title>
<path fill="none" stroke="midnightblue" d="M919.66,-235.48C926.11,-226.55 936.4,-212.31 944.47,-201.14"/>
<polygon fill="midnightblue" stroke="midnightblue" points="947.33,-203.16 950.35,-193.01 941.66,-199.06 947.33,-203.16"/>
</g>
<!-- Node15&#45;&gt;Node26 -->
<g id="edge28" class="edge">
<title>Node15&#45;&gt;Node26</title>
<path fill="none" stroke="midnightblue" d="M964.62,-240.49C1055.11,-234.03 1249.33,-219.06 1412.5,-199 1426.07,-197.33 1440.71,-195.21 1454.26,-193.1"/>
<polygon fill="midnightblue" stroke="midnightblue" points="1455.05,-196.52 1464.38,-191.5 1453.95,-189.6 1455.05,-196.52"/>
</g>
<!-- Node27 -->
<g id="node27" class="node">
<title>Node27</title>
<g id="a_node27"><a xlink:title=" ">
<polygon fill="white" stroke="#bfbfbf" points="1013,-174 1013,-193 1130,-193 1130,-174 1013,-174"/>
<text text-anchor="middle" x="1071.5" y="-181" font-family="Helvetica,sans-Serif" font-size="10.00">../vmisc/diagnostic.h</text>
</a>
</g>
</g>
<!-- Node15&#45;&gt;Node27 -->
<g id="edge29" class="edge">
<title>Node15&#45;&gt;Node27</title>
<path fill="none" stroke="midnightblue" d="M936.14,-235.48C963.24,-225.27 1008.81,-208.11 1039.5,-196.55"/>
<polygon fill="midnightblue" stroke="midnightblue" points="1040.78,-199.81 1048.9,-193.01 1038.31,-193.26 1040.78,-199.81"/>
</g>
<!-- Node28 -->
<g id="node28" class="node">
<title>Node28</title>
<g id="a_node28"><a xlink:title=" ">
<polygon fill="white" stroke="#bfbfbf" points="1148,-174 1148,-193 1251,-193 1251,-174 1148,-174"/>
<text text-anchor="middle" x="1199.5" y="-181" font-family="Helvetica,sans-Serif" font-size="10.00">../vmisc/logging.h</text>
</a>
</g>
</g>
<!-- Node15&#45;&gt;Node28 -->
<g id="edge30" class="edge">
<title>Node15&#45;&gt;Node28</title>
<path fill="none" stroke="midnightblue" d="M958.85,-235.43C1004.36,-226.71 1076.43,-212.58 1138.5,-199 1143.62,-197.88 1148.97,-196.67 1154.28,-195.44"/>
<polygon fill="midnightblue" stroke="midnightblue" points="1155.45,-198.76 1164.39,-193.07 1153.86,-191.95 1155.45,-198.76"/>
</g>
<!-- Node29&#45;&gt;Node11 -->
<g id="edge32" class="edge">
<title>Node29&#45;&gt;Node11</title>
<path fill="none" stroke="midnightblue" d="M1577.4,-235.36C1573.78,-221.03 1565.75,-191.6 1555.5,-168 1542.12,-137.21 1522,-103.69 1509.58,-84.05"/>
<polygon fill="midnightblue" stroke="midnightblue" points="1512.51,-82.13 1504.17,-75.6 1506.62,-85.91 1512.51,-82.13"/>
</g>
<!-- Node29&#45;&gt;Node14 -->
<g id="edge33" class="edge">
<title>Node29&#45;&gt;Node14</title>
<path fill="none" stroke="midnightblue" d="M1581.27,-235.38C1583.12,-226.33 1586.08,-211.68 1588.5,-199 1596.19,-158.72 1604.65,-111.42 1609.19,-85.8"/>
<polygon fill="midnightblue" stroke="midnightblue" points="1612.69,-86.11 1610.98,-75.66 1605.79,-84.9 1612.69,-86.11"/>
</g>
<!-- Node29&#45;&gt;Node26 -->
<g id="edge34" class="edge">
<title>Node29&#45;&gt;Node26</title>
<path fill="none" stroke="midnightblue" d="M1568.9,-235.48C1557.25,-226.11 1538.31,-210.88 1524.17,-199.51"/>
<polygon fill="midnightblue" stroke="midnightblue" points="1526.07,-196.55 1516.08,-193.01 1521.68,-202 1526.07,-196.55"/>
</g>
<!-- Node31&#45;&gt;Node5 -->
<g id="edge38" class="edge">
<title>Node31&#45;&gt;Node5</title>
<path fill="none" stroke="midnightblue" d="M2250.08,-235.99C2321.81,-226.73 2432.84,-211.19 2473.5,-199 2542.27,-178.38 2556.64,-164.83 2620.5,-132 2652.38,-115.61 2688.06,-94.62 2710.64,-81"/>
<polygon fill="midnightblue" stroke="midnightblue" points="2712.73,-83.82 2719.47,-75.65 2709.1,-77.84 2712.73,-83.82"/>
</g>
<!-- Node31&#45;&gt;Node8 -->
<g id="edge62" class="edge">
<title>Node31&#45;&gt;Node8</title>
<path fill="none" stroke="midnightblue" d="M2181.65,-235.04C2174.04,-218.52 2155.32,-183.54 2127.5,-168 2059.84,-130.22 1862.11,-142.3 1768.63,-131.9"/>
<polygon fill="midnightblue" stroke="midnightblue" points="1768.93,-128.41 1758.57,-130.64 1768.05,-135.36 1768.93,-128.41"/>
</g>
<!-- Node31&#45;&gt;Node11 -->
<g id="edge64" class="edge">
<title>Node31&#45;&gt;Node11</title>
<path fill="none" stroke="midnightblue" d="M2130.41,-235.48C2035.09,-219.97 1833.84,-183.9 1669.5,-132 1619.06,-116.07 1561.87,-93.35 1528.06,-79.43"/>
<polygon fill="midnightblue" stroke="midnightblue" points="1529.34,-76.17 1518.76,-75.57 1526.66,-82.63 1529.34,-76.17"/>
</g>
<!-- Node31&#45;&gt;Node13 -->
<g id="edge66" class="edge">
<title>Node31&#45;&gt;Node13</title>
<path fill="none" stroke="midnightblue" d="M2238.03,-235.48C2273.02,-228.56 2319.39,-216.96 2357.5,-199 2378.81,-188.96 2379.11,-177.87 2400.5,-168 2458.71,-141.13 2480.18,-147.45 2545.95,-132.29"/>
<polygon fill="midnightblue" stroke="midnightblue" points="2547.07,-135.62 2555.99,-129.89 2545.45,-128.81 2547.07,-135.62"/>
</g>
<!-- Node32 -->
<g id="node32" class="node">
<title>Node32</title>
<g id="a_node32"><a xlink:href="../../d4/da4/def_8h.html" target="_top" xlink:title=" ">
<polygon fill="white" stroke="black" points="2348.5,-112.5 2348.5,-131.5 2430.5,-131.5 2430.5,-112.5 2348.5,-112.5"/>
<text text-anchor="middle" x="2389.5" y="-119.5" font-family="Helvetica,sans-Serif" font-size="10.00">../vmisc/def.h</text>
</a>
</g>
</g>
<!-- Node31&#45;&gt;Node32 -->
<g id="edge39" class="edge">
<title>Node31&#45;&gt;Node32</title>
<path fill="none" stroke="midnightblue" d="M2208,-235.44C2228.72,-227.21 2259.99,-213.84 2285.5,-199 2289.9,-196.44 2340.69,-159.04 2369.63,-137.68"/>
<polygon fill="midnightblue" stroke="midnightblue" points="2371.87,-140.38 2377.83,-131.63 2367.71,-134.75 2371.87,-140.38"/>
</g>
<!-- Node41 -->
<g id="node41" class="node">
<title>Node41</title>
<g id="a_node41"><a xlink:href="../../db/d8d/resize__handle_8h.html" target="_top" xlink:title=" ">
<polygon fill="white" stroke="black" points="2174.5,-168.5 2174.5,-198.5 2276.5,-198.5 2276.5,-168.5 2174.5,-168.5"/>
<text text-anchor="start" x="2182.5" y="-186.5" font-family="Helvetica,sans-Serif" font-size="10.00">../vwidgets/resize</text>
<text text-anchor="middle" x="2225.5" y="-175.5" font-family="Helvetica,sans-Serif" font-size="10.00">_handle.h</text>
</a>
</g>
</g>
<!-- Node31&#45;&gt;Node41 -->
<g id="edge52" class="edge">
<title>Node31&#45;&gt;Node41</title>
<path fill="none" stroke="midnightblue" d="M2191.23,-235.48C2196.24,-228.02 2203.75,-216.85 2210.46,-206.87"/>
<polygon fill="midnightblue" stroke="midnightblue" points="2213.4,-208.77 2216.07,-198.52 2207.59,-204.87 2213.4,-208.77"/>
</g>
<!-- Node43 -->
<g id="node43" class="node">
<title>Node43</title>
<g id="a_node43"><a xlink:title=" ">
<polygon fill="white" stroke="#bfbfbf" points="2449,-112.5 2449,-131.5 2538,-131.5 2538,-112.5 2449,-112.5"/>
<text text-anchor="middle" x="2493.5" y="-119.5" font-family="Helvetica,sans-Serif" font-size="10.00">QGraphicsItem</text>
</a>
</g>
</g>
<!-- Node31&#45;&gt;Node43 -->
<g id="edge68" class="edge">
<title>Node31&#45;&gt;Node43</title>
<path fill="none" stroke="midnightblue" d="M2219.51,-235.43C2247.43,-227.75 2287.58,-215.2 2320.5,-199 2342.62,-188.11 2344.48,-179.09 2366.5,-168 2394.25,-154.01 2427.41,-142.42 2452.88,-134.51"/>
<polygon fill="midnightblue" stroke="midnightblue" points="2454.04,-137.82 2462.59,-131.56 2452,-131.12 2454.04,-137.82"/>
</g>
<!-- Node48 -->
<g id="node48" class="node">
<title>Node48</title>
<g id="a_node48"><a xlink:title=" ">
<polygon fill="white" stroke="#bfbfbf" points="2409,-174 2409,-193 2464,-193 2464,-174 2409,-174"/>
<text text-anchor="middle" x="2436.5" y="-181" font-family="Helvetica,sans-Serif" font-size="10.00">QPointF</text>
</a>
</g>
</g>
<!-- Node31&#45;&gt;Node48 -->
<g id="edge63" class="edge">
<title>Node31&#45;&gt;Node48</title>
<path fill="none" stroke="midnightblue" d="M2233.21,-235.42C2275.83,-227.36 2339.8,-214.27 2394.5,-199 2397.45,-198.18 2400.5,-197.26 2403.54,-196.3"/>
<polygon fill="midnightblue" stroke="midnightblue" points="2404.71,-199.59 2413.11,-193.13 2402.52,-192.95 2404.71,-199.59"/>
</g>
<!-- Node49 -->
<g id="node49" class="node">
<title>Node49</title>
<g id="a_node49"><a xlink:title=" ">
<polygon fill="white" stroke="#bfbfbf" points="1943,-174 1943,-193 2002,-193 2002,-174 1943,-174"/>
<text text-anchor="middle" x="1972.5" y="-181" font-family="Helvetica,sans-Serif" font-size="10.00">QVariant</text>
</a>
</g>
</g>
<!-- Node31&#45;&gt;Node49 -->
<g id="edge65" class="edge">
<title>Node31&#45;&gt;Node49</title>
<path fill="none" stroke="midnightblue" d="M2147.85,-235.45C2112.39,-227.11 2057.94,-213.59 2011.5,-199 2008.94,-198.2 2006.3,-197.32 2003.66,-196.41"/>
<polygon fill="midnightblue" stroke="midnightblue" points="2004.82,-193.11 1994.23,-193.03 2002.46,-199.7 2004.82,-193.11"/>
</g>
<!-- Node50 -->
<g id="node50" class="node">
<title>Node50</title>
<g id="a_node50"><a xlink:title=" ">
<polygon fill="white" stroke="#bfbfbf" points="2020.5,-174 2020.5,-193 2118.5,-193 2118.5,-174 2020.5,-174"/>
<text text-anchor="middle" x="2069.5" y="-181" font-family="Helvetica,sans-Serif" font-size="10.00">QtCore/qglobal.h</text>
</a>
</g>
</g>
<!-- Node31&#45;&gt;Node50 -->
<g id="edge67" class="edge">
<title>Node31&#45;&gt;Node50</title>
<path fill="none" stroke="midnightblue" d="M2168.88,-235.48C2149.58,-225.58 2117.54,-209.14 2095.07,-197.62"/>
<polygon fill="midnightblue" stroke="midnightblue" points="2096.58,-194.46 2086.09,-193.01 2093.39,-200.69 2096.58,-194.46"/>
</g>
<!-- Node32&#45;&gt;Node5 -->
<g id="edge40" class="edge">
<title>Node32&#45;&gt;Node5</title>
<path fill="none" stroke="midnightblue" d="M2430.68,-113.65C2434,-113.08 2437.31,-112.53 2440.5,-112 2517.54,-99.29 2606.18,-85.84 2665.61,-76.99"/>
<polygon fill="midnightblue" stroke="midnightblue" points="2666.25,-80.43 2675.62,-75.5 2665.22,-73.51 2666.25,-80.43"/>
</g>
<!-- Node32&#45;&gt;Node11 -->
<g id="edge43" class="edge">
<title>Node32&#45;&gt;Node11</title>
<path fill="none" stroke="midnightblue" d="M2348.36,-113.15C2345.37,-112.72 2342.39,-112.33 2339.5,-112 2000.84,-73.73 1913.14,-104.32 1573.5,-76 1561.07,-74.96 1547.52,-73.45 1535.4,-71.97"/>
<polygon fill="midnightblue" stroke="midnightblue" points="1535.54,-68.46 1525.18,-70.68 1534.66,-75.4 1535.54,-68.46"/>
</g>
<!-- Node32&#45;&gt;Node12 -->
<g id="edge44" class="edge">
<title>Node32&#45;&gt;Node12</title>
<path fill="none" stroke="midnightblue" d="M2426.1,-112.44C2466.59,-102.98 2531.84,-87.73 2575.43,-77.54"/>
<polygon fill="midnightblue" stroke="midnightblue" points="2576.26,-80.94 2585.2,-75.25 2574.67,-74.12 2576.26,-80.94"/>
</g>
<!-- Node32&#45;&gt;Node14 -->
<g id="edge46" class="edge">
<title>Node32&#45;&gt;Node14</title>
<path fill="none" stroke="midnightblue" d="M2348.36,-113.2C2345.37,-112.76 2342.39,-112.35 2339.5,-112 2078.57,-80.55 1762.16,-70.51 1652.32,-67.84"/>
<polygon fill="midnightblue" stroke="midnightblue" points="1652.12,-64.33 1642.04,-67.6 1651.96,-71.33 1652.12,-64.33"/>
</g>
<!-- Node33 -->
<g id="node33" class="node">
<title>Node33</title>
<g id="a_node33"><a xlink:title=" ">
<polygon fill="white" stroke="#bfbfbf" points="2426,-56.5 2426,-75.5 2499,-75.5 2499,-56.5 2426,-56.5"/>
<text text-anchor="middle" x="2462.5" y="-63.5" font-family="Helvetica,sans-Serif" font-size="10.00">QFileDialog</text>
</a>
</g>
</g>
<!-- Node32&#45;&gt;Node33 -->
<g id="edge41" class="edge">
<title>Node32&#45;&gt;Node33</title>
<path fill="none" stroke="midnightblue" d="M2401.23,-112.32C2412.34,-104.11 2429.24,-91.6 2442.48,-81.81"/>
<polygon fill="midnightblue" stroke="midnightblue" points="2444.6,-84.59 2450.56,-75.83 2440.44,-78.97 2444.6,-84.59"/>
</g>
<!-- Node34 -->
<g id="node34" class="node">
<title>Node34</title>
<g id="a_node34"><a xlink:title=" ">
<polygon fill="white" stroke="#bfbfbf" points="2517.5,-56.5 2517.5,-75.5 2567.5,-75.5 2567.5,-56.5 2517.5,-56.5"/>
<text text-anchor="middle" x="2542.5" y="-63.5" font-family="Helvetica,sans-Serif" font-size="10.00">QLineF</text>
</a>
</g>
</g>
<!-- Node32&#45;&gt;Node34 -->
<g id="edge42" class="edge">
<title>Node32&#45;&gt;Node34</title>
<path fill="none" stroke="midnightblue" d="M2413.74,-112.44C2439.37,-103.4 2479.99,-89.06 2508.74,-78.92"/>
<polygon fill="midnightblue" stroke="midnightblue" points="2510.11,-82.15 2518.37,-75.52 2507.78,-75.54 2510.11,-82.15"/>
</g>
<!-- Node35 -->
<g id="node35" class="node">
<title>Node35</title>
<g id="a_node35"><a xlink:title=" ">
<polygon fill="white" stroke="#bfbfbf" points="2055,-56.5 2055,-75.5 2084,-75.5 2084,-56.5 2055,-56.5"/>
<text text-anchor="middle" x="2069.5" y="-63.5" font-family="Helvetica,sans-Serif" font-size="10.00">Qt</text>
</a>
</g>
</g>
<!-- Node32&#45;&gt;Node35 -->
<g id="edge45" class="edge">
<title>Node32&#45;&gt;Node35</title>
<path fill="none" stroke="midnightblue" d="M2348.32,-113.48C2345.34,-112.97 2342.37,-112.47 2339.5,-112 2233.53,-94.71 2202.27,-103.05 2093.75,-75.53"/>
<polygon fill="midnightblue" stroke="midnightblue" points="2094.62,-72.14 2084.06,-73.03 2092.87,-78.91 2094.62,-72.14"/>
</g>
<!-- Node36 -->
<g id="node36" class="node">
<title>Node36</title>
<g id="a_node36"><a xlink:title=" ">
<polygon fill="white" stroke="#bfbfbf" points="2102.5,-56.5 2102.5,-75.5 2158.5,-75.5 2158.5,-56.5 2102.5,-56.5"/>
<text text-anchor="middle" x="2130.5" y="-63.5" font-family="Helvetica,sans-Serif" font-size="10.00">QPrinter</text>
</a>
</g>
</g>
<!-- Node32&#45;&gt;Node36 -->
<g id="edge47" class="edge">
<title>Node32&#45;&gt;Node36</title>
<path fill="none" stroke="midnightblue" d="M2348.48,-113.18C2305.95,-104.96 2237.27,-91.38 2168.85,-76.24"/>
<polygon fill="midnightblue" stroke="midnightblue" points="2169.28,-72.75 2158.76,-73.99 2167.76,-79.58 2169.28,-72.75"/>
</g>
<!-- Node37 -->
<g id="node37" class="node">
<title>Node37</title>
<g id="a_node37"><a xlink:title=" ">
<polygon fill="white" stroke="#bfbfbf" points="2177,-56.5 2177,-75.5 2238,-75.5 2238,-56.5 2177,-56.5"/>
<text text-anchor="middle" x="2207.5" y="-63.5" font-family="Helvetica,sans-Serif" font-size="10.00">QPixmap</text>
</a>
</g>
</g>
<!-- Node32&#45;&gt;Node37 -->
<g id="edge48" class="edge">
<title>Node32&#45;&gt;Node37</title>
<path fill="none" stroke="midnightblue" d="M2360.66,-112.44C2329.64,-103.24 2280.17,-88.56 2245.88,-78.39"/>
<polygon fill="midnightblue" stroke="midnightblue" points="2246.79,-75.01 2236.2,-75.52 2244.79,-81.72 2246.79,-75.01"/>
</g>
<!-- Node38 -->
<g id="node38" class="node">
<title>Node38</title>
<g id="a_node38"><a xlink:title=" ">
<polygon fill="white" stroke="#bfbfbf" points="2256,-56.5 2256,-75.5 2307,-75.5 2307,-56.5 2256,-56.5"/>
<text text-anchor="middle" x="2281.5" y="-63.5" font-family="Helvetica,sans-Serif" font-size="10.00">csignal</text>
</a>
</g>
</g>
<!-- Node32&#45;&gt;Node38 -->
<g id="edge49" class="edge">
<title>Node32&#45;&gt;Node38</title>
<path fill="none" stroke="midnightblue" d="M2372.15,-112.32C2354.83,-103.66 2327.98,-90.24 2308,-80.25"/>
<polygon fill="midnightblue" stroke="midnightblue" points="2309.32,-77 2298.81,-75.65 2306.19,-83.26 2309.32,-77"/>
</g>
<!-- Node39 -->
<g id="node39" class="node">
<title>Node39</title>
<g id="a_node39"><a xlink:href="../../d4/d82/debugbreak_8h.html" target="_top" xlink:title=" ">
<polygon fill="white" stroke="black" points="2325,-56.5 2325,-75.5 2408,-75.5 2408,-56.5 2325,-56.5"/>
<text text-anchor="middle" x="2366.5" y="-63.5" font-family="Helvetica,sans-Serif" font-size="10.00">debugbreak.h</text>
</a>
</g>
</g>
<!-- Node32&#45;&gt;Node39 -->
<g id="edge50" class="edge">
<title>Node32&#45;&gt;Node39</title>
<path fill="none" stroke="midnightblue" d="M2385.7,-112.08C2382.59,-104.77 2378.08,-94.18 2374.21,-85.1"/>
<polygon fill="midnightblue" stroke="midnightblue" points="2377.37,-83.58 2370.23,-75.75 2370.93,-86.32 2377.37,-83.58"/>
</g>
<!-- Node40 -->
<g id="node40" class="node">
<title>Node40</title>
<g id="a_node40"><a xlink:title=" ">
<polygon fill="white" stroke="#bfbfbf" points="2339,-0.5 2339,-19.5 2394,-19.5 2394,-0.5 2339,-0.5"/>
<text text-anchor="middle" x="2366.5" y="-7.5" font-family="Helvetica,sans-Serif" font-size="10.00">signal.h</text>
</a>
</g>
</g>
<!-- Node39&#45;&gt;Node40 -->
<g id="edge51" class="edge">
<title>Node39&#45;&gt;Node40</title>
<path fill="none" stroke="midnightblue" d="M2366.5,-56.08C2366.5,-49.01 2366.5,-38.86 2366.5,-29.99"/>
<polygon fill="midnightblue" stroke="midnightblue" points="2370,-29.75 2366.5,-19.75 2363,-29.75 2370,-29.75"/>
</g>
<!-- Node41&#45;&gt;Node8 -->
<g id="edge59" class="edge">
<title>Node41&#45;&gt;Node8</title>
<path fill="none" stroke="midnightblue" d="M2174.17,-170.41C2169.56,-169.52 2164.95,-168.7 2160.5,-168 1990.43,-141.35 1943.02,-155.32 1768.59,-132.03"/>
<polygon fill="midnightblue" stroke="midnightblue" points="1768.94,-128.54 1758.56,-130.66 1768,-135.48 1768.94,-128.54"/>
</g>
<!-- Node41&#45;&gt;Node13 -->
<g id="edge61" class="edge">
<title>Node41&#45;&gt;Node13</title>
<path fill="none" stroke="midnightblue" d="M2276.5,-175.94C2338.15,-167.68 2445.21,-152.34 2545.64,-132.25"/>
<polygon fill="midnightblue" stroke="midnightblue" points="2546.54,-135.64 2555.65,-130.22 2545.15,-128.77 2546.54,-135.64"/>
</g>
<!-- Node41&#45;&gt;Node32 -->
<g id="edge53" class="edge">
<title>Node41&#45;&gt;Node32</title>
<path fill="none" stroke="midnightblue" d="M2264.37,-168.4C2292.25,-158.28 2329.44,-144.79 2356.01,-135.15"/>
<polygon fill="midnightblue" stroke="midnightblue" points="2357.43,-138.36 2365.64,-131.66 2355.04,-131.78 2357.43,-138.36"/>
</g>
<!-- Node42 -->
<g id="node42" class="node">
<title>Node42</title>
<g id="a_node42"><a xlink:title=" ">
<polygon fill="white" stroke="#bfbfbf" points="1776.5,-112.5 1776.5,-131.5 1826.5,-131.5 1826.5,-112.5 1776.5,-112.5"/>
<text text-anchor="middle" x="1801.5" y="-119.5" font-family="Helvetica,sans-Serif" font-size="10.00">QColor</text>
</a>
</g>
</g>
<!-- Node41&#45;&gt;Node42 -->
<g id="edge54" class="edge">
<title>Node41&#45;&gt;Node42</title>
<path fill="none" stroke="midnightblue" d="M2174.15,-170.5C2169.55,-169.59 2164.95,-168.74 2160.5,-168 2020.36,-144.68 1980.16,-158.03 1836.71,-131.96"/>
<polygon fill="midnightblue" stroke="midnightblue" points="1837.13,-128.48 1826.66,-130.1 1835.85,-135.37 1837.13,-128.48"/>
</g>
<!-- Node41&#45;&gt;Node43 -->
<g id="edge55" class="edge">
<title>Node41&#45;&gt;Node43</title>
<path fill="none" stroke="midnightblue" d="M2276.54,-171.17C2325.03,-160.4 2397.42,-144.33 2445.04,-133.76"/>
<polygon fill="midnightblue" stroke="midnightblue" points="2445.8,-137.18 2454.81,-131.59 2444.28,-130.34 2445.8,-137.18"/>
</g>
<!-- Node44 -->
<g id="node44" class="node">
<title>Node44</title>
<g id="a_node44"><a xlink:title=" ">
<polygon fill="white" stroke="#bfbfbf" points="1845,-112.5 1845,-131.5 1998,-131.5 1998,-112.5 1845,-112.5"/>
<text text-anchor="middle" x="1921.5" y="-119.5" font-family="Helvetica,sans-Serif" font-size="10.00">QGraphicsSceneHoverEvent</text>
</a>
</g>
</g>
<!-- Node41&#45;&gt;Node44 -->
<g id="edge56" class="edge">
<title>Node41&#45;&gt;Node44</title>
<path fill="none" stroke="midnightblue" d="M2174.44,-170.94C2169.73,-169.93 2165.03,-168.93 2160.5,-168 2098.92,-155.34 2028.11,-142.18 1979.65,-133.39"/>
<polygon fill="midnightblue" stroke="midnightblue" points="1980.12,-129.92 1969.66,-131.58 1978.88,-136.81 1980.12,-129.92"/>
</g>
<!-- Node45 -->
<g id="node45" class="node">
<title>Node45</title>
<g id="a_node45"><a xlink:title=" ">
<polygon fill="white" stroke="#bfbfbf" points="2016.5,-112.5 2016.5,-131.5 2172.5,-131.5 2172.5,-112.5 2016.5,-112.5"/>
<text text-anchor="middle" x="2094.5" y="-119.5" font-family="Helvetica,sans-Serif" font-size="10.00">QGraphicsSceneMouseEvent</text>
</a>
</g>
</g>
<!-- Node41&#45;&gt;Node45 -->
<g id="edge57" class="edge">
<title>Node41&#45;&gt;Node45</title>
<path fill="none" stroke="midnightblue" d="M2194.45,-168.4C2172.77,-158.55 2144.04,-145.5 2122.95,-135.92"/>
<polygon fill="midnightblue" stroke="midnightblue" points="2124.11,-132.61 2113.56,-131.66 2121.22,-138.98 2124.11,-132.61"/>
</g>
<!-- Node46 -->
<g id="node46" class="node">
<title>Node46</title>
<g id="a_node46"><a xlink:title=" ">
<polygon fill="white" stroke="#bfbfbf" points="2190.5,-112.5 2190.5,-131.5 2260.5,-131.5 2260.5,-112.5 2190.5,-112.5"/>
<text text-anchor="middle" x="2225.5" y="-119.5" font-family="Helvetica,sans-Serif" font-size="10.00">QKeyEvent</text>
</a>
</g>
</g>
<!-- Node41&#45;&gt;Node46 -->
<g id="edge58" class="edge">
<title>Node41&#45;&gt;Node46</title>
<path fill="none" stroke="midnightblue" d="M2225.5,-168.4C2225.5,-160.47 2225.5,-150.46 2225.5,-141.86"/>
<polygon fill="midnightblue" stroke="midnightblue" points="2229,-141.66 2225.5,-131.66 2222,-141.66 2229,-141.66"/>
</g>
<!-- Node47 -->
<g id="node47" class="node">
<title>Node47</title>
<g id="a_node47"><a xlink:title=" ">
<polygon fill="white" stroke="#bfbfbf" points="2278.5,-112.5 2278.5,-131.5 2330.5,-131.5 2330.5,-112.5 2278.5,-112.5"/>
<text text-anchor="middle" x="2304.5" y="-119.5" font-family="Helvetica,sans-Serif" font-size="10.00">QRectF</text>
</a>
</g>
</g>
<!-- Node41&#45;&gt;Node47 -->
<g id="edge60" class="edge">
<title>Node41&#45;&gt;Node47</title>
<path fill="none" stroke="midnightblue" d="M2244.22,-168.4C2256.41,-159.22 2272.29,-147.26 2284.69,-137.92"/>
<polygon fill="midnightblue" stroke="midnightblue" points="2287.12,-140.47 2293,-131.66 2282.91,-134.88 2287.12,-140.47"/>
</g>
</g>
</svg>
