<?xml version="1.0" encoding="UTF-8" standalone="no"?>
<!DOCTYPE svg PUBLIC "-//W3C//DTD SVG 1.1//EN"
 "http://www.w3.org/Graphics/SVG/1.1/DTD/svg11.dtd">
<!-- Generated by graphviz version 2.43.0 (0)
 -->
<!-- Title: src/libs/vlayout/vlayoutpiece.h Pages: 1 -->
<svg width="1311pt" height="140pt"
 viewBox="0.00 0.00 1310.50 140.00" xmlns="http://www.w3.org/2000/svg" xmlns:xlink="http://www.w3.org/1999/xlink">
<g id="graph0" class="graph" transform="scale(1 1) rotate(0) translate(4 136)">
<title>src/libs/vlayout/vlayoutpiece.h</title>
<polygon fill="white" stroke="transparent" points="-4,4 -4,-136 1306.5,-136 1306.5,4 -4,4"/>
<!-- Node1 -->
<g id="node1" class="node">
<title>Node1</title>
<g id="a_node1"><a xlink:title=" ">
<polygon fill="#bfbfbf" stroke="black" points="498,-112.5 498,-131.5 664,-131.5 664,-112.5 498,-112.5"/>
<text text-anchor="middle" x="581" y="-119.5" font-family="Helvetica,sans-Serif" font-size="10.00">src/libs/vlayout/vlayoutpiece.h</text>
</a>
</g>
</g>
<!-- Node2 -->
<g id="node2" class="node">
<title>Node2</title>
<g id="a_node2"><a xlink:href="../../dd/d66/vdxfengine_8cpp.html" target="_top" xlink:title=" ">
<polygon fill="white" stroke="black" points="0,-56.5 0,-75.5 154,-75.5 154,-56.5 0,-56.5"/>
<text text-anchor="middle" x="77" y="-63.5" font-family="Helvetica,sans-Serif" font-size="10.00">src/libs/vdxf/vdxfengine.cpp</text>
</a>
</g>
</g>
<!-- Node1&#45;&gt;Node2 -->
<g id="edge1" class="edge">
<title>Node1&#45;&gt;Node2</title>
<path fill="none" stroke="midnightblue" d="M491.45,-111.4C395.54,-101.13 244.92,-84.99 154.1,-75.26"/>
<polygon fill="midnightblue" stroke="midnightblue" points="491.1,-114.89 501.42,-112.47 491.85,-107.93 491.1,-114.89"/>
</g>
<!-- Node3 -->
<g id="node3" class="node">
<title>Node3</title>
<g id="a_node3"><a xlink:href="../../de/da8/vbank_8cpp.html" target="_top" xlink:title=" ">
<polygon fill="white" stroke="black" points="172,-56.5 172,-75.5 316,-75.5 316,-56.5 172,-56.5"/>
<text text-anchor="middle" x="244" y="-63.5" font-family="Helvetica,sans-Serif" font-size="10.00">src/libs/vlayout/vbank.cpp</text>
</a>
</g>
</g>
<!-- Node1&#45;&gt;Node3 -->
<g id="edge2" class="edge">
<title>Node1&#45;&gt;Node3</title>
<path fill="none" stroke="midnightblue" d="M517.68,-110.85C454.01,-100.65 356.94,-85.1 297.15,-75.52"/>
<polygon fill="midnightblue" stroke="midnightblue" points="517.17,-114.32 527.6,-112.44 518.28,-107.41 517.17,-114.32"/>
</g>
<!-- Node4 -->
<g id="node4" class="node">
<title>Node4</title>
<g id="a_node4"><a xlink:href="../../df/d5d/vcontour_8cpp.html" target="_top" xlink:title=" ">
<polygon fill="white" stroke="black" points="334,-56.5 334,-75.5 490,-75.5 490,-56.5 334,-56.5"/>
<text text-anchor="middle" x="412" y="-63.5" font-family="Helvetica,sans-Serif" font-size="10.00">src/libs/vlayout/vcontour.cpp</text>
</a>
</g>
</g>
<!-- Node1&#45;&gt;Node4 -->
<g id="edge3" class="edge">
<title>Node1&#45;&gt;Node4</title>
<path fill="none" stroke="midnightblue" d="M544.4,-109.3C512.55,-99.13 467.16,-84.62 438.65,-75.52"/>
<polygon fill="midnightblue" stroke="midnightblue" points="543.63,-112.73 554.22,-112.44 545.76,-106.07 543.63,-112.73"/>
</g>
<!-- Node5 -->
<g id="node5" class="node">
<title>Node5</title>
<g id="a_node5"><a xlink:href="../../d1/dd1/vlayoutpaper_8cpp.html" target="_top" xlink:title=" ">
<polygon fill="white" stroke="black" points="760,-0.5 760,-19.5 938,-19.5 938,-0.5 760,-0.5"/>
<text text-anchor="middle" x="849" y="-7.5" font-family="Helvetica,sans-Serif" font-size="10.00">src/libs/vlayout/vlayoutpaper.cpp</text>
</a>
</g>
</g>
<!-- Node1&#45;&gt;Node5 -->
<g id="edge4" class="edge">
<title>Node1&#45;&gt;Node5</title>
<path fill="none" stroke="midnightblue" d="M559.58,-106.23C542.35,-92.57 523.12,-72.02 537,-56 565.35,-23.27 677.87,-13.81 759.67,-11.36"/>
<polygon fill="midnightblue" stroke="midnightblue" points="557.62,-109.14 567.73,-112.33 561.82,-103.54 557.62,-109.14"/>
</g>
<!-- Node6 -->
<g id="node6" class="node">
<title>Node6</title>
<g id="a_node6"><a xlink:href="../../d3/d39/vlayoutgenerator_8cpp.html" target="_top" xlink:title=" ">
<polygon fill="white" stroke="black" points="546.5,-56.5 546.5,-75.5 743.5,-75.5 743.5,-56.5 546.5,-56.5"/>
<text text-anchor="middle" x="645" y="-63.5" font-family="Helvetica,sans-Serif" font-size="10.00">src/libs/vlayout/vlayoutgenerator.cpp</text>
</a>
</g>
</g>
<!-- Node1&#45;&gt;Node6 -->
<g id="edge5" class="edge">
<title>Node1&#45;&gt;Node6</title>
<path fill="none" stroke="midnightblue" d="M598.99,-105.82C610.46,-96.15 624.91,-83.95 634.53,-75.83"/>
<polygon fill="midnightblue" stroke="midnightblue" points="596.67,-103.2 591.28,-112.32 601.18,-108.55 596.67,-103.2"/>
</g>
<!-- Node7 -->
<g id="node7" class="node">
<title>Node7</title>
<g id="a_node7"><a xlink:href="../../d2/d2d/vlayoutpaper__p_8h.html" target="_top" xlink:title=" ">
<polygon fill="white" stroke="black" points="761.5,-56.5 761.5,-75.5 940.5,-75.5 940.5,-56.5 761.5,-56.5"/>
<text text-anchor="middle" x="851" y="-63.5" font-family="Helvetica,sans-Serif" font-size="10.00">src/libs/vlayout/vlayoutpaper_p.h</text>
</a>
</g>
</g>
<!-- Node1&#45;&gt;Node7 -->
<g id="edge6" class="edge">
<title>Node1&#45;&gt;Node7</title>
<path fill="none" stroke="midnightblue" d="M633.63,-110.47C684.66,-100.27 761.1,-84.98 808.42,-75.52"/>
<polygon fill="midnightblue" stroke="midnightblue" points="632.9,-107.05 623.78,-112.44 634.27,-113.91 632.9,-107.05"/>
</g>
<!-- Node8 -->
<g id="node8" class="node">
<title>Node8</title>
<g id="a_node8"><a xlink:href="../../db/d5c/vposition_8h.html" target="_top" xlink:title=" ">
<polygon fill="white" stroke="black" points="959,-56.5 959,-75.5 1107,-75.5 1107,-56.5 959,-56.5"/>
<text text-anchor="middle" x="1033" y="-63.5" font-family="Helvetica,sans-Serif" font-size="10.00">src/libs/vlayout/vposition.h</text>
</a>
</g>
</g>
<!-- Node1&#45;&gt;Node8 -->
<g id="edge8" class="edge">
<title>Node1&#45;&gt;Node8</title>
<path fill="none" stroke="midnightblue" d="M662.79,-111.23C748.11,-101.04 880.53,-85.22 961.71,-75.52"/>
<polygon fill="midnightblue" stroke="midnightblue" points="662.13,-107.78 652.62,-112.44 662.97,-114.73 662.13,-107.78"/>
</g>
<!-- Node10 -->
<g id="node10" class="node">
<title>Node10</title>
<g id="a_node10"><a xlink:href="../../dd/d70/vlayoutpiece_8cpp.html" target="_top" xlink:title=" ">
<polygon fill="white" stroke="black" points="1125.5,-56.5 1125.5,-75.5 1302.5,-75.5 1302.5,-56.5 1125.5,-56.5"/>
<text text-anchor="middle" x="1214" y="-63.5" font-family="Helvetica,sans-Serif" font-size="10.00">src/libs/vlayout/vlayoutpiece.cpp</text>
</a>
</g>
</g>
<!-- Node1&#45;&gt;Node10 -->
<g id="edge11" class="edge">
<title>Node1&#45;&gt;Node10</title>
<path fill="none" stroke="midnightblue" d="M674.52,-113.35C781.32,-104.57 961.29,-89.61 1116,-76 1119.06,-75.73 1122.18,-75.45 1125.33,-75.17"/>
<polygon fill="midnightblue" stroke="midnightblue" points="674.1,-109.87 664.42,-114.18 674.67,-116.85 674.1,-109.87"/>
</g>
<!-- Node7&#45;&gt;Node5 -->
<g id="edge7" class="edge">
<title>Node7&#45;&gt;Node5</title>
<path fill="none" stroke="midnightblue" d="M850.29,-45.8C849.96,-36.91 849.58,-26.78 849.32,-19.75"/>
<polygon fill="midnightblue" stroke="midnightblue" points="846.8,-46.22 850.67,-56.08 853.8,-45.96 846.8,-46.22"/>
</g>
<!-- Node8&#45;&gt;Node5 -->
<g id="edge9" class="edge">
<title>Node8&#45;&gt;Node5</title>
<path fill="none" stroke="midnightblue" d="M994.05,-53.57C959.34,-43.38 909.32,-28.7 878.02,-19.52"/>
<polygon fill="midnightblue" stroke="midnightblue" points="993.26,-56.99 1003.84,-56.44 995.23,-50.27 993.26,-56.99"/>
</g>
<!-- Node9 -->
<g id="node9" class="node">
<title>Node9</title>
<g id="a_node9"><a xlink:href="../../df/d76/vposition_8cpp.html" target="_top" xlink:title=" ">
<polygon fill="white" stroke="black" points="955.5,-0.5 955.5,-19.5 1114.5,-19.5 1114.5,-0.5 955.5,-0.5"/>
<text text-anchor="middle" x="1035" y="-7.5" font-family="Helvetica,sans-Serif" font-size="10.00">src/libs/vlayout/vposition.cpp</text>
</a>
</g>
</g>
<!-- Node8&#45;&gt;Node9 -->
<g id="edge10" class="edge">
<title>Node8&#45;&gt;Node9</title>
<path fill="none" stroke="midnightblue" d="M1033.71,-45.8C1034.04,-36.91 1034.42,-26.78 1034.68,-19.75"/>
<polygon fill="midnightblue" stroke="midnightblue" points="1030.2,-45.96 1033.33,-56.08 1037.2,-46.22 1030.2,-45.96"/>
</g>
</g>
</svg>
