<?xml version="1.0" encoding="UTF-8" standalone="no"?>
<!DOCTYPE svg PUBLIC "-//W3C//DTD SVG 1.1//EN"
 "http://www.w3.org/Graphics/SVG/1.1/DTD/svg11.dtd">
<!-- Generated by graphviz version 2.43.0 (0)
 -->
<!-- Title: ResizeHandlesItem::HandleItem Pages: 1 -->
<svg width="403pt" height="721pt"
 viewBox="0.00 0.00 403.00 721.00" xmlns="http://www.w3.org/2000/svg" xmlns:xlink="http://www.w3.org/1999/xlink">
<g id="graph0" class="graph" transform="scale(1 1) rotate(0) translate(4 717)">
<title>ResizeHandlesItem::HandleItem</title>
<!-- Node1 -->
<g id="Node000001" class="node">
<title>Node1</title>
<g id="a_Node000001"><a xlink:title=" ">
<polygon fill="#999999" stroke="transparent" points="133,-270 4,-270 4,0 133,0 133,-270"/>
<text text-anchor="start" x="18.5" y="-258" font-family="Helvetica,sans-Serif" font-size="10.00">ResizeHandlesItem::</text>
<text text-anchor="start" x="40" y="-247" font-family="Helvetica,sans-Serif" font-size="10.00">HandleItem</text>
<text text-anchor="start" x="11" y="-232" font-family="Helvetica,sans-Serif" font-size="10.00">&#45;</text>
<text text-anchor="start" x="21.5" y="-232" font-family="Helvetica,sans-Serif" font-size="10.00">m_handlePosition</text>
<text text-anchor="start" x="11" y="-217" font-family="Helvetica,sans-Serif" font-size="10.00">&#45;</text>
<text text-anchor="start" x="21.5" y="-217" font-family="Helvetica,sans-Serif" font-size="10.00">m_isHovered</text>
<text text-anchor="start" x="11" y="-202" font-family="Helvetica,sans-Serif" font-size="10.00">&#45;</text>
<text text-anchor="start" x="21.5" y="-202" font-family="Helvetica,sans-Serif" font-size="10.00">m_scalingFactor</text>
<text text-anchor="start" x="11" y="-187" font-family="Helvetica,sans-Serif" font-size="10.00">&#45;</text>
<text text-anchor="start" x="21.5" y="-187" font-family="Helvetica,sans-Serif" font-size="10.00">m_minDimension</text>
<text text-anchor="start" x="11" y="-172" font-family="Helvetica,sans-Serif" font-size="10.00">&#45;</text>
<text text-anchor="start" x="21.5" y="-172" font-family="Helvetica,sans-Serif" font-size="10.00">m_maxDimension</text>
<text text-anchor="start" x="8.5" y="-157" font-family="Helvetica,sans-Serif" font-size="10.00">+</text>
<text text-anchor="start" x="21.5" y="-157" font-family="Helvetica,sans-Serif" font-size="10.00">HandleItem()</text>
<text text-anchor="start" x="8.5" y="-142" font-family="Helvetica,sans-Serif" font-size="10.00">+</text>
<text text-anchor="start" x="21.5" y="-142" font-family="Helvetica,sans-Serif" font-size="10.00">position()</text>
<text text-anchor="start" x="8.5" y="-127" font-family="Helvetica,sans-Serif" font-size="10.00">#</text>
<text text-anchor="start" x="21.5" y="-127" font-family="Helvetica,sans-Serif" font-size="10.00">paint()</text>
<text text-anchor="start" x="8.5" y="-112" font-family="Helvetica,sans-Serif" font-size="10.00">#</text>
<text text-anchor="start" x="21.5" y="-112" font-family="Helvetica,sans-Serif" font-size="10.00">itemChange()</text>
<text text-anchor="start" x="8.5" y="-97" font-family="Helvetica,sans-Serif" font-size="10.00">#</text>
<text text-anchor="start" x="21.5" y="-97" font-family="Helvetica,sans-Serif" font-size="10.00">hoverEnterEvent()</text>
<text text-anchor="start" x="8.5" y="-82" font-family="Helvetica,sans-Serif" font-size="10.00">#</text>
<text text-anchor="start" x="21.5" y="-82" font-family="Helvetica,sans-Serif" font-size="10.00">hoverLeaveEvent()</text>
<text text-anchor="start" x="8.5" y="-67" font-family="Helvetica,sans-Serif" font-size="10.00">#</text>
<text text-anchor="start" x="21.5" y="-67" font-family="Helvetica,sans-Serif" font-size="10.00">mousePressEvent()</text>
<text text-anchor="start" x="8.5" y="-52" font-family="Helvetica,sans-Serif" font-size="10.00">#</text>
<text text-anchor="start" x="21.5" y="-52" font-family="Helvetica,sans-Serif" font-size="10.00">mouseMoveEvent()</text>
<text text-anchor="start" x="8.5" y="-37" font-family="Helvetica,sans-Serif" font-size="10.00">#</text>
<text text-anchor="start" x="21.5" y="-37" font-family="Helvetica,sans-Serif" font-size="10.00">mouseReleaseEvent()</text>
<text text-anchor="start" x="8.5" y="-22" font-family="Helvetica,sans-Serif" font-size="10.00">#</text>
<text text-anchor="start" x="21.5" y="-22" font-family="Helvetica,sans-Serif" font-size="10.00">keyReleaseEvent()</text>
<text text-anchor="start" x="11" y="-7" font-family="Helvetica,sans-Serif" font-size="10.00">&#45;</text>
<text text-anchor="start" x="21.5" y="-7" font-family="Helvetica,sans-Serif" font-size="10.00">limitPosition()</text>
<polygon fill="#666666" stroke="#666666" points="4.5,-242 4.5,-242 133.5,-242 133.5,-242 4.5,-242"/>
<polygon fill="#666666" stroke="#666666" points="4.5,-167 4.5,-167 19.5,-167 19.5,-167 4.5,-167"/>
<polygon fill="#666666" stroke="#666666" points="19.5,-167 19.5,-167 133.5,-167 133.5,-167 19.5,-167"/>
<polygon fill="none" stroke="#666666" points="4,0 4,-270 133,-270 133,0 4,0"/>
</a>
</g>
</g>
<!-- Node2 -->
<g id="Node000002" class="node">
<title>Node2</title>
<g id="a_Node000002"><a xlink:title=" ">
<polygon fill="white" stroke="transparent" points="105,-486 0,-486 0,-437 105,-437 105,-486"/>
<text text-anchor="start" x="5.5" y="-473.5" font-family="Helvetica,sans-Serif" font-size="10.00">QGraphicsRectItem</text>
<text text-anchor="start" x="51" y="-458.5" font-family="Helvetica,sans-Serif" font-size="10.00"> </text>
<text text-anchor="start" x="51" y="-443.5" font-family="Helvetica,sans-Serif" font-size="10.00"> </text>
<polygon fill="#666666" stroke="#666666" points="0.5,-468.5 0.5,-468.5 105.5,-468.5 105.5,-468.5 0.5,-468.5"/>
<polygon fill="#666666" stroke="#666666" points="0.5,-453.5 0.5,-453.5 105.5,-453.5 105.5,-453.5 0.5,-453.5"/>
<polygon fill="none" stroke="#666666" points="0,-437 0,-486 105,-486 105,-437 0,-437"/>
</a>
</g>
</g>
<!-- Node2&#45;&gt;Node1 -->
<g id="edge1_Node000001_Node000002" class="edge">
<title>Node2&#45;&gt;Node1</title>
<g id="a_edge1_Node000001_Node000002"><a xlink:title=" ">
<path fill="none" stroke="#63b8ff" d="M54.17,-426.64C56,-389.45 59.06,-327.37 61.89,-270.12"/>
<polygon fill="none" stroke="#63b8ff" points="50.66,-426.74 53.66,-436.9 57.65,-427.09 50.66,-426.74"/>
</a>
</g>
</g>
<!-- Node3 -->
<g id="Node000003" class="node">
<title>Node3</title>
<g id="a_Node000003"><a xlink:href="../../d0/de9/classResizeHandlesItem.html" target="_top" xlink:title=" ">
<polygon fill="white" stroke="transparent" points="265.5,-606 123.5,-606 123.5,-317 265.5,-317 265.5,-606"/>
<text text-anchor="start" x="147" y="-593.5" font-family="Helvetica,sans-Serif" font-size="10.00">ResizeHandlesItem</text>
<text text-anchor="start" x="130" y="-578.5" font-family="Helvetica,sans-Serif" font-size="10.00">&#45;</text>
<text text-anchor="start" x="140.5" y="-578.5" font-family="Helvetica,sans-Serif" font-size="10.00">m_parentRect</text>
<text text-anchor="start" x="130" y="-563.5" font-family="Helvetica,sans-Serif" font-size="10.00">&#45;</text>
<text text-anchor="start" x="140.5" y="-563.5" font-family="Helvetica,sans-Serif" font-size="10.00">m_lockAspectRatio</text>
<text text-anchor="start" x="130" y="-548.5" font-family="Helvetica,sans-Serif" font-size="10.00">&#45;</text>
<text text-anchor="start" x="140.5" y="-548.5" font-family="Helvetica,sans-Serif" font-size="10.00">m_parentIsLocked</text>
<text text-anchor="start" x="130" y="-533.5" font-family="Helvetica,sans-Serif" font-size="10.00">&#45;</text>
<text text-anchor="start" x="140.5" y="-533.5" font-family="Helvetica,sans-Serif" font-size="10.00">m_parentRotation</text>
<text text-anchor="start" x="130" y="-518.5" font-family="Helvetica,sans-Serif" font-size="10.00">&#45;</text>
<text text-anchor="start" x="140.5" y="-518.5" font-family="Helvetica,sans-Serif" font-size="10.00">m_minDimension</text>
<text text-anchor="start" x="130" y="-503.5" font-family="Helvetica,sans-Serif" font-size="10.00">&#45;</text>
<text text-anchor="start" x="140.5" y="-503.5" font-family="Helvetica,sans-Serif" font-size="10.00">m_maxDimension</text>
<text text-anchor="start" x="127.5" y="-488.5" font-family="Helvetica,sans-Serif" font-size="10.00">+</text>
<text text-anchor="start" x="140.5" y="-488.5" font-family="Helvetica,sans-Serif" font-size="10.00">ResizeHandlesItem()</text>
<text text-anchor="start" x="127.5" y="-473.5" font-family="Helvetica,sans-Serif" font-size="10.00">+</text>
<text text-anchor="start" x="140.5" y="-473.5" font-family="Helvetica,sans-Serif" font-size="10.00">~ResizeHandlesItem()</text>
<text text-anchor="start" x="127.5" y="-458.5" font-family="Helvetica,sans-Serif" font-size="10.00">+</text>
<text text-anchor="start" x="140.5" y="-458.5" font-family="Helvetica,sans-Serif" font-size="10.00">type()</text>
<text text-anchor="start" x="127.5" y="-443.5" font-family="Helvetica,sans-Serif" font-size="10.00">+</text>
<text text-anchor="start" x="140.5" y="-443.5" font-family="Helvetica,sans-Serif" font-size="10.00">boundingRect()</text>
<text text-anchor="start" x="127.5" y="-428.5" font-family="Helvetica,sans-Serif" font-size="10.00">+</text>
<text text-anchor="start" x="140.5" y="-428.5" font-family="Helvetica,sans-Serif" font-size="10.00">paint()</text>
<text text-anchor="start" x="127.5" y="-413.5" font-family="Helvetica,sans-Serif" font-size="10.00">+</text>
<text text-anchor="start" x="140.5" y="-413.5" font-family="Helvetica,sans-Serif" font-size="10.00">setTopLeft()</text>
<text text-anchor="start" x="127.5" y="-398.5" font-family="Helvetica,sans-Serif" font-size="10.00">+</text>
<text text-anchor="start" x="140.5" y="-398.5" font-family="Helvetica,sans-Serif" font-size="10.00">setTop()</text>
<text text-anchor="start" x="127.5" y="-383.5" font-family="Helvetica,sans-Serif" font-size="10.00">+</text>
<text text-anchor="start" x="140.5" y="-383.5" font-family="Helvetica,sans-Serif" font-size="10.00">setTopRight()</text>
<text text-anchor="start" x="127.5" y="-368.5" font-family="Helvetica,sans-Serif" font-size="10.00">+</text>
<text text-anchor="start" x="140.5" y="-368.5" font-family="Helvetica,sans-Serif" font-size="10.00">setRight()</text>
<text text-anchor="start" x="127.5" y="-353.5" font-family="Helvetica,sans-Serif" font-size="10.00">+</text>
<text text-anchor="start" x="140.5" y="-353.5" font-family="Helvetica,sans-Serif" font-size="10.00">setBottomRight()</text>
<text text-anchor="start" x="140.5" y="-338.5" font-family="Helvetica,sans-Serif" font-size="10.00">and 8 more...</text>
<text text-anchor="start" x="130" y="-323.5" font-family="Helvetica,sans-Serif" font-size="10.00">&#45;</text>
<text text-anchor="start" x="140.5" y="-323.5" font-family="Helvetica,sans-Serif" font-size="10.00">updateHandlePositions()</text>
<polygon fill="#666666" stroke="#666666" points="123.5,-588.5 123.5,-588.5 265.5,-588.5 265.5,-588.5 123.5,-588.5"/>
<polygon fill="#666666" stroke="#666666" points="123.5,-498.5 123.5,-498.5 138.5,-498.5 138.5,-498.5 123.5,-498.5"/>
<polygon fill="#666666" stroke="#666666" points="138.5,-498.5 138.5,-498.5 265.5,-498.5 265.5,-498.5 138.5,-498.5"/>
<polygon fill="none" stroke="#666666" points="123.5,-317 123.5,-606 265.5,-606 265.5,-317 123.5,-317"/>
</a>
</g>
</g>
<!-- Node3&#45;&gt;Node1 -->
<g id="edge2_Node000001_Node000003" class="edge">
<title>Node3&#45;&gt;Node1</title>
<g id="a_edge2_Node000001_Node000003"><a xlink:title=" ">
<path fill="none" stroke="#63b8ff" d="M138.68,-316.75C134.12,-305 129.5,-293.11 124.94,-281.34"/>
<polygon fill="none" stroke="#63b8ff" points="124.92,-281.3 119.02,-277.15 120.57,-270.11 126.47,-274.25 124.92,-281.3"/>
</a>
</g>
<text text-anchor="middle" x="158.5" y="-291" font-family="Helvetica,sans-Serif" font-size="10.00" fill="grey"> &#45;m_parent</text>
</g>
<!-- Node4 -->
<g id="Node000004" class="node">
<title>Node4</title>
<g id="a_Node000004"><a xlink:title=" ">
<polygon fill="white" stroke="transparent" points="134.5,-707.5 84.5,-707.5 84.5,-658.5 134.5,-658.5 134.5,-707.5"/>
<text text-anchor="start" x="89.5" y="-695" font-family="Helvetica,sans-Serif" font-size="10.00">QObject</text>
<text text-anchor="start" x="107.5" y="-680" font-family="Helvetica,sans-Serif" font-size="10.00"> </text>
<text text-anchor="start" x="107.5" y="-665" font-family="Helvetica,sans-Serif" font-size="10.00"> </text>
<polygon fill="#666666" stroke="#666666" points="84.5,-690 84.5,-690 134.5,-690 134.5,-690 84.5,-690"/>
<polygon fill="#666666" stroke="#666666" points="84.5,-675 84.5,-675 134.5,-675 134.5,-675 84.5,-675"/>
<polygon fill="none" stroke="#666666" points="84.5,-658.5 84.5,-707.5 134.5,-707.5 134.5,-658.5 84.5,-658.5"/>
</a>
</g>
</g>
<!-- Node4&#45;&gt;Node3 -->
<g id="edge3_Node000003_Node000004" class="edge">
<title>Node4&#45;&gt;Node3</title>
<g id="a_edge3_Node000003_Node000004"><a xlink:title=" ">
<path fill="none" stroke="#63b8ff" d="M122.45,-648.56C127.12,-636.49 132.74,-621.99 138.75,-606.47"/>
<polygon fill="none" stroke="#63b8ff" points="119.11,-647.5 118.76,-658.09 125.63,-650.03 119.11,-647.5"/>
</a>
</g>
</g>
<!-- Node5 -->
<g id="Node000005" class="node">
<title>Node5</title>
<g id="a_Node000005"><a xlink:title=" ">
<polygon fill="white" stroke="transparent" points="236,-707.5 153,-707.5 153,-658.5 236,-658.5 236,-707.5"/>
<text text-anchor="start" x="158.5" y="-695" font-family="Helvetica,sans-Serif" font-size="10.00">QGraphicsItem</text>
<text text-anchor="start" x="193" y="-680" font-family="Helvetica,sans-Serif" font-size="10.00"> </text>
<text text-anchor="start" x="193" y="-665" font-family="Helvetica,sans-Serif" font-size="10.00"> </text>
<polygon fill="#666666" stroke="#666666" points="153.5,-690 153.5,-690 236.5,-690 236.5,-690 153.5,-690"/>
<polygon fill="#666666" stroke="#666666" points="153.5,-675 153.5,-675 236.5,-675 236.5,-675 153.5,-675"/>
<polygon fill="none" stroke="#666666" points="153,-658.5 153,-707.5 236,-707.5 236,-658.5 153,-658.5"/>
</a>
</g>
</g>
<!-- Node5&#45;&gt;Node3 -->
<g id="edge4_Node000003_Node000005" class="edge">
<title>Node5&#45;&gt;Node3</title>
<g id="a_edge4_Node000003_Node000005"><a xlink:title=" ">
<path fill="none" stroke="#63b8ff" d="M194.5,-647.83C194.5,-635.91 194.5,-621.68 194.5,-606.47"/>
<polygon fill="none" stroke="#63b8ff" points="191,-648.09 194.5,-658.09 198,-648.09 191,-648.09"/>
</a>
</g>
</g>
<!-- Node6 -->
<g id="Node000006" class="node">
<title>Node6</title>
<g id="a_Node000006"><a xlink:href="../../d1/d4a/classQList.html" target="_top" xlink:title=" ">
<polygon fill="white" stroke="transparent" points="395,-713 254,-713 254,-653 395,-653 395,-713"/>
<text text-anchor="start" x="259.5" y="-701" font-family="Helvetica,sans-Serif" font-size="10.00">QList&lt; ResizeHandlesItem</text>
<text text-anchor="start" x="283.5" y="-690" font-family="Helvetica,sans-Serif" font-size="10.00">::HandleItem * &gt;</text>
<text text-anchor="start" x="323" y="-675" font-family="Helvetica,sans-Serif" font-size="10.00"> </text>
<text text-anchor="start" x="323" y="-660" font-family="Helvetica,sans-Serif" font-size="10.00"> </text>
<polygon fill="#666666" stroke="#666666" points="254.5,-685 254.5,-685 395.5,-685 395.5,-685 254.5,-685"/>
<polygon fill="#666666" stroke="#666666" points="254.5,-670 254.5,-670 395.5,-670 395.5,-670 254.5,-670"/>
<polygon fill="none" stroke="#666666" points="254,-653 254,-713 395,-713 395,-653 254,-653"/>
</a>
</g>
</g>
<!-- Node6&#45;&gt;Node3 -->
<g id="edge5_Node000003_Node000006" class="edge">
<title>Node6&#45;&gt;Node3</title>
<g id="a_edge5_Node000003_Node000006"><a xlink:title=" ">
<path fill="none" stroke="#63b8ff" d="M307.24,-652.85C297.71,-636.77 285.14,-615.55 271.86,-593.12"/>
<polygon fill="none" stroke="#63b8ff" points="271.83,-593.06 265.33,-589.94 265.71,-582.74 272.21,-585.86 271.83,-593.06"/>
</a>
</g>
<text text-anchor="middle" x="337" y="-627" font-family="Helvetica,sans-Serif" font-size="10.00" fill="grey"> &#45;m_handleItems</text>
</g>
</g>
</svg>
