<?xml version="1.0" encoding="UTF-8" standalone="no"?>
<!DOCTYPE svg PUBLIC "-//W3C//DTD SVG 1.1//EN"
 "http://www.w3.org/Graphics/SVG/1.1/DTD/svg11.dtd">
<!-- Generated by graphviz version 2.43.0 (0)
 -->
<!-- Title: ResizeHandlesItem::HandleItem Pages: 1 -->
<svg width="418pt" height="573pt"
 viewBox="0.00 0.00 418.00 573.00" xmlns="http://www.w3.org/2000/svg" xmlns:xlink="http://www.w3.org/1999/xlink">
<g id="graph0" class="graph" transform="scale(1 1) rotate(0) translate(4 569)">
<title>ResizeHandlesItem::HandleItem</title>
<polygon fill="white" stroke="transparent" points="-4,4 -4,-569 414,-569 414,4 -4,4"/>
<!-- Node1 -->
<g id="node1" class="node">
<title>Node1</title>
<g id="a_node1"><a xlink:title=" ">
<polygon fill="#bfbfbf" stroke="black" points="4,-0.5 4,-200.5 139,-200.5 139,-0.5 4,-0.5"/>
<text text-anchor="start" x="12" y="-188.5" font-family="Helvetica,sans-Serif" font-size="10.00">ResizeHandlesItem::</text>
<text text-anchor="middle" x="71.5" y="-177.5" font-family="Helvetica,sans-Serif" font-size="10.00">HandleItem</text>
<polyline fill="none" stroke="black" points="4,-170.5 139,-170.5 "/>
<text text-anchor="start" x="12" y="-158.5" font-family="Helvetica,sans-Serif" font-size="10.00">&#45; m_handlePosition</text>
<text text-anchor="start" x="12" y="-147.5" font-family="Helvetica,sans-Serif" font-size="10.00">&#45; m_isHovered</text>
<text text-anchor="start" x="12" y="-136.5" font-family="Helvetica,sans-Serif" font-size="10.00">&#45; m_scalingFactor</text>
<polyline fill="none" stroke="black" points="4,-129.5 139,-129.5 "/>
<text text-anchor="start" x="12" y="-117.5" font-family="Helvetica,sans-Serif" font-size="10.00">+ HandleItem()</text>
<text text-anchor="start" x="12" y="-106.5" font-family="Helvetica,sans-Serif" font-size="10.00">+ position()</text>
<text text-anchor="start" x="12" y="-95.5" font-family="Helvetica,sans-Serif" font-size="10.00"># paint()</text>
<text text-anchor="start" x="12" y="-84.5" font-family="Helvetica,sans-Serif" font-size="10.00"># itemChange()</text>
<text text-anchor="start" x="12" y="-73.5" font-family="Helvetica,sans-Serif" font-size="10.00"># hoverEnterEvent()</text>
<text text-anchor="start" x="12" y="-62.5" font-family="Helvetica,sans-Serif" font-size="10.00"># hoverLeaveEvent()</text>
<text text-anchor="start" x="12" y="-51.5" font-family="Helvetica,sans-Serif" font-size="10.00"># mousePressEvent()</text>
<text text-anchor="start" x="12" y="-40.5" font-family="Helvetica,sans-Serif" font-size="10.00"># mouseMoveEvent()</text>
<text text-anchor="start" x="12" y="-29.5" font-family="Helvetica,sans-Serif" font-size="10.00"># mouseReleaseEvent()</text>
<text text-anchor="start" x="12" y="-18.5" font-family="Helvetica,sans-Serif" font-size="10.00"># keyReleaseEvent()</text>
<text text-anchor="start" x="12" y="-7.5" font-family="Helvetica,sans-Serif" font-size="10.00">&#45; limitPosition()</text>
</a>
</g>
</g>
<!-- Node2 -->
<g id="node2" class="node">
<title>Node2</title>
<g id="a_node2"><a xlink:title=" ">
<polygon fill="white" stroke="#bfbfbf" points="0,-320 0,-377 111,-377 111,-320 0,-320"/>
<text text-anchor="middle" x="55.5" y="-365" font-family="Helvetica,sans-Serif" font-size="10.00">QGraphicsRectItem</text>
<polyline fill="none" stroke="#bfbfbf" points="0,-358 111,-358 "/>
<text text-anchor="middle" x="55.5" y="-346" font-family="Helvetica,sans-Serif" font-size="10.00"> </text>
<polyline fill="none" stroke="#bfbfbf" points="0,-339 111,-339 "/>
<text text-anchor="middle" x="55.5" y="-327" font-family="Helvetica,sans-Serif" font-size="10.00"> </text>
</a>
</g>
</g>
<!-- Node2&#45;&gt;Node1 -->
<g id="edge1" class="edge">
<title>Node2&#45;&gt;Node1</title>
<path fill="none" stroke="midnightblue" d="M57.96,-309.63C59.86,-280.54 62.56,-238.97 65.05,-200.62"/>
<polygon fill="none" stroke="midnightblue" points="54.46,-309.55 57.3,-319.76 61.45,-310.01 54.46,-309.55"/>
</g>
<!-- Node3 -->
<g id="node3" class="node">
<title>Node3</title>
<g id="a_node3"><a xlink:href="../../d0/de9/classResizeHandlesItem.html" target="_top" xlink:title=" ">
<polygon fill="white" stroke="black" points="129,-248.5 129,-448.5 272,-448.5 272,-248.5 129,-248.5"/>
<text text-anchor="middle" x="200.5" y="-436.5" font-family="Helvetica,sans-Serif" font-size="10.00">ResizeHandlesItem</text>
<polyline fill="none" stroke="black" points="129,-429.5 272,-429.5 "/>
<text text-anchor="start" x="137" y="-417.5" font-family="Helvetica,sans-Serif" font-size="10.00">&#45; m_parentRect</text>
<text text-anchor="start" x="137" y="-406.5" font-family="Helvetica,sans-Serif" font-size="10.00">&#45; m_lockAspectRatio</text>
<text text-anchor="start" x="137" y="-395.5" font-family="Helvetica,sans-Serif" font-size="10.00">&#45; m_parentRotation</text>
<polyline fill="none" stroke="black" points="129,-388.5 272,-388.5 "/>
<text text-anchor="start" x="137" y="-376.5" font-family="Helvetica,sans-Serif" font-size="10.00">+ ResizeHandlesItem()</text>
<text text-anchor="start" x="137" y="-365.5" font-family="Helvetica,sans-Serif" font-size="10.00">+ ~ResizeHandlesItem()</text>
<text text-anchor="start" x="137" y="-354.5" font-family="Helvetica,sans-Serif" font-size="10.00">+ type()</text>
<text text-anchor="start" x="137" y="-343.5" font-family="Helvetica,sans-Serif" font-size="10.00">+ boundingRect()</text>
<text text-anchor="start" x="137" y="-332.5" font-family="Helvetica,sans-Serif" font-size="10.00">+ paint()</text>
<text text-anchor="start" x="137" y="-321.5" font-family="Helvetica,sans-Serif" font-size="10.00">+ setTopLeft()</text>
<text text-anchor="start" x="137" y="-310.5" font-family="Helvetica,sans-Serif" font-size="10.00">+ setTop()</text>
<text text-anchor="start" x="137" y="-299.5" font-family="Helvetica,sans-Serif" font-size="10.00">+ setTopRight()</text>
<text text-anchor="start" x="137" y="-288.5" font-family="Helvetica,sans-Serif" font-size="10.00">+ setRight()</text>
<text text-anchor="start" x="137" y="-277.5" font-family="Helvetica,sans-Serif" font-size="10.00">+ setBottomRight()</text>
<text text-anchor="start" x="137" y="-266.5" font-family="Helvetica,sans-Serif" font-size="10.00">and 6 more...</text>
<text text-anchor="start" x="137" y="-255.5" font-family="Helvetica,sans-Serif" font-size="10.00">&#45; updateHandlePositions()</text>
</a>
</g>
</g>
<!-- Node3&#45;&gt;Node1 -->
<g id="edge2" class="edge">
<title>Node3&#45;&gt;Node1</title>
<path fill="none" stroke="#404040" d="M148.4,-248.15C142.07,-236.08 135.58,-223.7 129.18,-211.49"/>
<polygon fill="none" stroke="#404040" points="129.16,-211.45 122.83,-207.99 123.58,-200.82 129.91,-204.28 129.16,-211.45"/>
<text text-anchor="middle" x="163.5" y="-222" font-family="Helvetica,sans-Serif" font-size="10.00"> &#45;m_parent</text>
</g>
<!-- Node4 -->
<g id="node4" class="node">
<title>Node4</title>
<g id="a_node4"><a xlink:title=" ">
<polygon fill="white" stroke="#bfbfbf" points="81.5,-502 81.5,-559 137.5,-559 137.5,-502 81.5,-502"/>
<text text-anchor="middle" x="109.5" y="-547" font-family="Helvetica,sans-Serif" font-size="10.00">QObject</text>
<polyline fill="none" stroke="#bfbfbf" points="81.5,-540 137.5,-540 "/>
<text text-anchor="middle" x="109.5" y="-528" font-family="Helvetica,sans-Serif" font-size="10.00"> </text>
<polyline fill="none" stroke="#bfbfbf" points="81.5,-521 137.5,-521 "/>
<text text-anchor="middle" x="109.5" y="-509" font-family="Helvetica,sans-Serif" font-size="10.00"> </text>
</a>
</g>
</g>
<!-- Node4&#45;&gt;Node3 -->
<g id="edge3" class="edge">
<title>Node4&#45;&gt;Node3</title>
<path fill="none" stroke="midnightblue" d="M128.08,-492.75C134.64,-479.78 142.37,-464.49 150.29,-448.82"/>
<polygon fill="none" stroke="midnightblue" points="124.91,-491.27 123.52,-501.77 131.15,-494.42 124.91,-491.27"/>
</g>
<!-- Node5 -->
<g id="node5" class="node">
<title>Node5</title>
<g id="a_node5"><a xlink:title=" ">
<polygon fill="white" stroke="#bfbfbf" points="156,-502 156,-559 245,-559 245,-502 156,-502"/>
<text text-anchor="middle" x="200.5" y="-547" font-family="Helvetica,sans-Serif" font-size="10.00">QGraphicsItem</text>
<polyline fill="none" stroke="#bfbfbf" points="156,-540 245,-540 "/>
<text text-anchor="middle" x="200.5" y="-528" font-family="Helvetica,sans-Serif" font-size="10.00"> </text>
<polyline fill="none" stroke="#bfbfbf" points="156,-521 245,-521 "/>
<text text-anchor="middle" x="200.5" y="-509" font-family="Helvetica,sans-Serif" font-size="10.00"> </text>
</a>
</g>
</g>
<!-- Node5&#45;&gt;Node3 -->
<g id="edge4" class="edge">
<title>Node5&#45;&gt;Node3</title>
<path fill="none" stroke="midnightblue" d="M200.5,-491.61C200.5,-478.89 200.5,-464.03 200.5,-448.82"/>
<polygon fill="none" stroke="midnightblue" points="197,-491.77 200.5,-501.77 204,-491.77 197,-491.77"/>
</g>
<!-- Node6 -->
<g id="node6" class="node">
<title>Node6</title>
<g id="a_node6"><a xlink:href="../../d1/d4a/classQList.html" target="_top" xlink:title=" ">
<polygon fill="white" stroke="black" points="263,-496.5 263,-564.5 410,-564.5 410,-496.5 263,-496.5"/>
<text text-anchor="start" x="271" y="-552.5" font-family="Helvetica,sans-Serif" font-size="10.00">QList&lt; ResizeHandlesItem</text>
<text text-anchor="middle" x="336.5" y="-541.5" font-family="Helvetica,sans-Serif" font-size="10.00">::HandleItem * &gt;</text>
<polyline fill="none" stroke="black" points="263,-534.5 410,-534.5 "/>
<text text-anchor="middle" x="336.5" y="-522.5" font-family="Helvetica,sans-Serif" font-size="10.00"> </text>
<polyline fill="none" stroke="black" points="263,-515.5 410,-515.5 "/>
<text text-anchor="middle" x="336.5" y="-503.5" font-family="Helvetica,sans-Serif" font-size="10.00"> </text>
</a>
</g>
</g>
<!-- Node6&#45;&gt;Node3 -->
<g id="edge5" class="edge">
<title>Node6&#45;&gt;Node3</title>
<path fill="none" stroke="#404040" d="M311.56,-496.49C302.22,-484.13 291.05,-469.34 279.44,-453.97"/>
<polygon fill="none" stroke="#404040" points="279.4,-453.92 272.59,-451.55 272.16,-444.35 278.97,-446.72 279.4,-453.92"/>
<text text-anchor="middle" x="337" y="-470" font-family="Helvetica,sans-Serif" font-size="10.00"> &#45;m_handleItems</text>
</g>
</g>
</svg>
