<?xml version="1.0" encoding="UTF-8" standalone="no"?>
<!DOCTYPE svg PUBLIC "-//W3C//DTD SVG 1.1//EN"
 "http://www.w3.org/Graphics/SVG/1.1/DTD/svg11.dtd">
<!-- Generated by graphviz version 2.43.0 (0)
 -->
<!-- Title: src/app/seamly2d/mainwindowsnogui.cpp Pages: 1 -->
<svg width="4243pt" height="324pt"
 viewBox="0.00 0.00 4242.50 324.00" xmlns="http://www.w3.org/2000/svg" xmlns:xlink="http://www.w3.org/1999/xlink">
<g id="graph0" class="graph" transform="scale(1 1) rotate(0) translate(4 320)">
<title>src/app/seamly2d/mainwindowsnogui.cpp</title>
<!-- Node1 -->
<g id="Node000001" class="node">
<title>Node1</title>
<g id="a_Node000001"><a xlink:title=" ">
<polygon fill="#999999" stroke="#666666" points="2737.5,-316 2516.5,-316 2516.5,-297 2737.5,-297 2737.5,-316"/>
<text text-anchor="middle" x="2627" y="-304" font-family="Helvetica,sans-Serif" font-size="10.00">src/app/seamly2d/mainwindowsnogui.cpp</text>
</a>
</g>
</g>
<!-- Node2 -->
<g id="Node000002" class="node">
<title>Node2</title>
<g id="a_Node000002"><a xlink:href="../../d1/d82/mainwindowsnogui_8h.html" target="_top" xlink:title=" ">
<polygon fill="white" stroke="#666666" points="636,-255.5 516,-255.5 516,-236.5 636,-236.5 636,-255.5"/>
<text text-anchor="middle" x="576" y="-243.5" font-family="Helvetica,sans-Serif" font-size="10.00">mainwindowsnogui.h</text>
</a>
</g>
</g>
<!-- Node1&#45;&gt;Node2 -->
<g id="edge1_Node000001_Node000002" class="edge">
<title>Node1&#45;&gt;Node2</title>
<g id="a_edge1_Node000001_Node000002"><a xlink:title=" ">
<path fill="none" stroke="#63b8ff" d="M2516.41,-303.46C2240.41,-298.21 1498.99,-283.06 881,-261 800.46,-258.13 708.01,-253.73 646.2,-250.63"/>
<polygon fill="#63b8ff" stroke="#63b8ff" points="646.33,-247.13 636.17,-250.12 645.98,-254.12 646.33,-247.13"/>
</a>
</g>
</g>
<!-- Node5 -->
<g id="Node000005" class="node">
<title>Node5</title>
<g id="a_Node000005"><a xlink:title=" ">
<polygon fill="#e0e0e0" stroke="#999999" points="76,-195 0,-195 0,-176 76,-176 76,-195"/>
<text text-anchor="middle" x="38" y="-183" font-family="Helvetica,sans-Serif" font-size="10.00">QToolButton</text>
</a>
</g>
</g>
<!-- Node1&#45;&gt;Node5 -->
<g id="edge59_Node000001_Node000005" class="edge">
<title>Node1&#45;&gt;Node5</title>
<g id="a_edge59_Node000001_Node000005"><a xlink:title=" ">
<path fill="none" stroke="#63b8ff" d="M2516.25,-305.14C2138.59,-303.6 902.82,-295.95 507,-261 351.93,-247.31 170.46,-213.28 85.9,-196.37"/>
<polygon fill="#63b8ff" stroke="#63b8ff" points="86.57,-192.93 76.08,-194.39 85.19,-199.8 86.57,-192.93"/>
</a>
</g>
</g>
<!-- Node10 -->
<g id="Node000010" class="node">
<title>Node10</title>
<g id="a_Node000010"><a xlink:title=" ">
<polygon fill="#e0e0e0" stroke="#999999" points="813,-134.5 671,-134.5 671,-115.5 813,-115.5 813,-134.5"/>
<text text-anchor="middle" x="742" y="-122.5" font-family="Helvetica,sans-Serif" font-size="10.00">../vpatterndb/vcontainer.h</text>
</a>
</g>
</g>
<!-- Node1&#45;&gt;Node10 -->
<g id="edge37_Node000001_Node000010" class="edge">
<title>Node1&#45;&gt;Node10</title>
<g id="a_edge37_Node000001_Node000010"><a xlink:title=" ">
<path fill="none" stroke="#63b8ff" d="M2516.29,-305.74C2157.97,-306.1 1049.32,-303.74 986,-261 951.85,-237.95 980.55,-202.5 949,-176 914.22,-146.78 865.14,-134.09 823.5,-128.8"/>
<polygon fill="#63b8ff" stroke="#63b8ff" points="823.7,-125.3 813.36,-127.63 822.9,-132.25 823.7,-125.3"/>
</a>
</g>
</g>
<!-- Node12 -->
<g id="Node000012" class="node">
<title>Node12</title>
<g id="a_Node000012"><a xlink:href="../../d1/d8e/export__layout__dialog_8h.html" target="_top" xlink:title=" ">
<polygon fill="white" stroke="#666666" points="1249,-140 1127,-140 1127,-110 1249,-110 1249,-140"/>
<text text-anchor="start" x="1135" y="-128" font-family="Helvetica,sans-Serif" font-size="10.00">dialogs/export_layout</text>
<text text-anchor="middle" x="1188" y="-117" font-family="Helvetica,sans-Serif" font-size="10.00">_dialog.h</text>
</a>
</g>
</g>
<!-- Node1&#45;&gt;Node12 -->
<g id="edge46_Node000001_Node000012" class="edge">
<title>Node1&#45;&gt;Node12</title>
<g id="a_edge46_Node000001_Node000012"><a xlink:title=" ">
<path fill="none" stroke="#63b8ff" d="M2516.16,-304.07C2268.11,-300.39 1674.52,-288.9 1476,-261 1354.1,-243.87 1295.26,-280.81 1207,-195 1195.1,-183.43 1190.45,-165.15 1188.72,-150.31"/>
<polygon fill="#63b8ff" stroke="#63b8ff" points="1192.2,-149.95 1187.91,-140.26 1185.22,-150.5 1192.2,-149.95"/>
</a>
</g>
</g>
<!-- Node19 -->
<g id="Node000019" class="node">
<title>Node19</title>
<g id="a_Node000019"><a xlink:title=" ">
<polygon fill="#e0e0e0" stroke="#999999" points="940,-195 782,-195 782,-176 940,-176 940,-195"/>
<text text-anchor="middle" x="861" y="-183" font-family="Helvetica,sans-Serif" font-size="10.00">../vlayout/vlayoutgenerator.h</text>
</a>
</g>
</g>
<!-- Node1&#45;&gt;Node19 -->
<g id="edge42_Node000001_Node000019" class="edge">
<title>Node1&#45;&gt;Node19</title>
<g id="a_edge42_Node000001_Node000019"><a xlink:title=" ">
<path fill="none" stroke="#63b8ff" d="M2516.39,-304.5C2154.89,-300.96 1027.24,-287.82 954,-261 921.32,-249.03 891.43,-220.62 874.77,-202.55"/>
<polygon fill="#63b8ff" stroke="#63b8ff" points="877.36,-200.19 868.09,-195.06 872.14,-204.85 877.36,-200.19"/>
</a>
</g>
</g>
<!-- Node21 -->
<g id="Node000021" class="node">
<title>Node21</title>
<g id="a_Node000021"><a xlink:href="../../d7/d61/application__2d_8h.html" target="_top" xlink:title=" ">
<polygon fill="white" stroke="#666666" points="1605.5,-255.5 1484.5,-255.5 1484.5,-236.5 1605.5,-236.5 1605.5,-255.5"/>
<text text-anchor="middle" x="1545" y="-243.5" font-family="Helvetica,sans-Serif" font-size="10.00">core/application_2d.h</text>
</a>
</g>
</g>
<!-- Node1&#45;&gt;Node21 -->
<g id="edge19_Node000001_Node000021" class="edge">
<title>Node1&#45;&gt;Node21</title>
<g id="a_edge19_Node000001_Node000021"><a xlink:title=" ">
<path fill="none" stroke="#63b8ff" d="M2516.33,-305.68C2330.5,-304.84 1944.24,-298.24 1620,-261 1611.86,-260.07 1603.28,-258.76 1594.94,-257.33"/>
<polygon fill="#63b8ff" stroke="#63b8ff" points="1595.4,-253.86 1584.93,-255.53 1594.15,-260.75 1595.4,-253.86"/>
</a>
</g>
</g>
<!-- Node34 -->
<g id="Node000034" class="node">
<title>Node34</title>
<g id="a_Node000034"><a xlink:href="../../d3/dd8/layoutsettings__dialog_8h.html" target="_top" xlink:title=" ">
<polygon fill="white" stroke="#666666" points="1854,-140 1720,-140 1720,-110 1854,-110 1854,-140"/>
<text text-anchor="start" x="1728" y="-128" font-family="Helvetica,sans-Serif" font-size="10.00">../dialogs/layoutsettings</text>
<text text-anchor="middle" x="1787" y="-117" font-family="Helvetica,sans-Serif" font-size="10.00">_dialog.h</text>
</a>
</g>
</g>
<!-- Node1&#45;&gt;Node34 -->
<g id="edge40_Node000001_Node000034" class="edge">
<title>Node1&#45;&gt;Node34</title>
<g id="a_edge40_Node000001_Node000034"><a xlink:title=" ">
<path fill="none" stroke="#63b8ff" d="M2516.09,-304.48C2267.16,-301.65 1683.37,-291.74 1654,-261 1644.79,-251.36 1645.03,-240.86 1654,-231 1711.24,-168.1 1977.76,-257.9 2035,-195 2040.68,-188.75 2040.35,-182.53 2035,-176 2013.68,-149.95 1928.96,-137.17 1864.42,-131.11"/>
<polygon fill="#63b8ff" stroke="#63b8ff" points="1864.52,-127.6 1854.25,-130.19 1863.89,-134.57 1864.52,-127.6"/>
</a>
</g>
</g>
<!-- Node39 -->
<g id="Node000039" class="node">
<title>Node39</title>
<g id="a_Node000039"><a xlink:title=" ">
<polygon fill="#e0e0e0" stroke="#999999" points="1799.5,-255.5 1662.5,-255.5 1662.5,-236.5 1799.5,-236.5 1799.5,-255.5"/>
<text text-anchor="middle" x="1731" y="-243.5" font-family="Helvetica,sans-Serif" font-size="10.00">../vobj/vobjpaintdevice.h</text>
</a>
</g>
</g>
<!-- Node1&#45;&gt;Node39 -->
<g id="edge38_Node000001_Node000039" class="edge">
<title>Node1&#45;&gt;Node39</title>
<g id="a_edge38_Node000001_Node000039"><a xlink:title=" ">
<path fill="none" stroke="#63b8ff" d="M2516.49,-303.8C2358.95,-300.41 2060.99,-290.36 1809,-261 1800.55,-260.02 1791.64,-258.69 1782.97,-257.25"/>
<polygon fill="#63b8ff" stroke="#63b8ff" points="1783.41,-253.77 1772.96,-255.51 1782.21,-260.67 1783.41,-253.77"/>
</a>
</g>
</g>
<!-- Node40 -->
<g id="Node000040" class="node">
<title>Node40</title>
<g id="a_Node000040"><a xlink:title=" ">
<polygon fill="#e0e0e0" stroke="#999999" points="1956,-255.5 1818,-255.5 1818,-236.5 1956,-236.5 1956,-255.5"/>
<text text-anchor="middle" x="1887" y="-243.5" font-family="Helvetica,sans-Serif" font-size="10.00">../vdxf/vdxfpaintdevice.h</text>
</a>
</g>
</g>
<!-- Node1&#45;&gt;Node40 -->
<g id="edge39_Node000001_Node000040" class="edge">
<title>Node1&#45;&gt;Node40</title>
<g id="a_edge39_Node000001_Node000040"><a xlink:title=" ">
<path fill="none" stroke="#63b8ff" d="M2516.25,-301.8C2384.49,-296.53 2158.07,-284.74 1965,-261 1956.85,-260 1948.25,-258.7 1939.86,-257.3"/>
<polygon fill="#63b8ff" stroke="#63b8ff" points="1940.23,-253.81 1929.78,-255.56 1939.04,-260.71 1940.23,-253.81"/>
</a>
</g>
</g>
<!-- Node41 -->
<g id="Node000041" class="node">
<title>Node41</title>
<g id="a_Node000041"><a xlink:title=" ">
<polygon fill="#e0e0e0" stroke="#999999" points="2156,-255.5 1974,-255.5 1974,-236.5 2156,-236.5 2156,-255.5"/>
<text text-anchor="middle" x="2065" y="-243.5" font-family="Helvetica,sans-Serif" font-size="10.00">../vwidgets/vmaingraphicsscene.h</text>
</a>
</g>
</g>
<!-- Node1&#45;&gt;Node41 -->
<g id="edge41_Node000001_Node000041" class="edge">
<title>Node1&#45;&gt;Node41</title>
<g id="a_edge41_Node000001_Node000041"><a xlink:title=" ">
<path fill="none" stroke="#63b8ff" d="M2525.47,-296.99C2431.78,-288.83 2288.84,-275.63 2165,-261 2154.64,-259.78 2143.7,-258.37 2133,-256.92"/>
<polygon fill="#63b8ff" stroke="#63b8ff" points="2133.23,-253.42 2122.85,-255.53 2132.28,-260.36 2133.23,-253.42"/>
</a>
</g>
</g>
<!-- Node42 -->
<g id="Node000042" class="node">
<title>Node42</title>
<g id="a_Node000042"><a xlink:href="../../d3/d03/dialoglayoutprogress_8h.html" target="_top" xlink:title=" ">
<polygon fill="white" stroke="#666666" points="1162.5,-255.5 995.5,-255.5 995.5,-236.5 1162.5,-236.5 1162.5,-255.5"/>
<text text-anchor="middle" x="1079" y="-243.5" font-family="Helvetica,sans-Serif" font-size="10.00">dialogs/dialoglayoutprogress.h</text>
</a>
</g>
</g>
<!-- Node1&#45;&gt;Node42 -->
<g id="edge43_Node000001_Node000042" class="edge">
<title>Node1&#45;&gt;Node42</title>
<g id="a_edge43_Node000001_Node000042"><a xlink:title=" ">
<path fill="none" stroke="#63b8ff" d="M2516.17,-306.35C2273.02,-307.29 1674.7,-304.5 1176,-261 1164.53,-260 1152.34,-258.55 1140.62,-256.96"/>
<polygon fill="#63b8ff" stroke="#63b8ff" points="1140.86,-253.46 1130.47,-255.53 1139.89,-260.39 1140.86,-253.46"/>
</a>
</g>
</g>
<!-- Node44 -->
<g id="Node000044" class="node">
<title>Node44</title>
<g id="a_Node000044"><a xlink:title=" ">
<polygon fill="#e0e0e0" stroke="#999999" points="2284,-255.5 2174,-255.5 2174,-236.5 2284,-236.5 2284,-255.5"/>
<text text-anchor="middle" x="2229" y="-243.5" font-family="Helvetica,sans-Serif" font-size="10.00">../vlayout/vposter.h</text>
</a>
</g>
</g>
<!-- Node1&#45;&gt;Node44 -->
<g id="edge47_Node000001_Node000044" class="edge">
<title>Node1&#45;&gt;Node44</title>
<g id="a_edge47_Node000001_Node000044"><a xlink:title=" ">
<path fill="none" stroke="#63b8ff" d="M2550.02,-296.97C2482.36,-289.05 2381.34,-276.22 2294,-261 2288.17,-259.98 2282.07,-258.81 2276.04,-257.59"/>
<polygon fill="#63b8ff" stroke="#63b8ff" points="2276.53,-254.12 2266.02,-255.51 2275.1,-260.97 2276.53,-254.12"/>
</a>
</g>
</g>
<!-- Node45 -->
<g id="Node000045" class="node">
<title>Node45</title>
<g id="a_Node000045"><a xlink:title=" ">
<polygon fill="#e0e0e0" stroke="#999999" points="2451.5,-261 2302.5,-261 2302.5,-231 2451.5,-231 2451.5,-261"/>
<text text-anchor="start" x="2310.5" y="-249" font-family="Helvetica,sans-Serif" font-size="10.00">../vpatterndb/floatItemData</text>
<text text-anchor="middle" x="2377" y="-238" font-family="Helvetica,sans-Serif" font-size="10.00">/vpiecelabeldata.h</text>
</a>
</g>
</g>
<!-- Node1&#45;&gt;Node45 -->
<g id="edge48_Node000001_Node000045" class="edge">
<title>Node1&#45;&gt;Node45</title>
<g id="a_edge48_Node000001_Node000045"><a xlink:title=" ">
<path fill="none" stroke="#63b8ff" d="M2590.65,-296.99C2553.1,-288.21 2493.56,-274.27 2446.86,-263.35"/>
<polygon fill="#63b8ff" stroke="#63b8ff" points="2447.64,-259.93 2437.1,-261.06 2446.04,-266.75 2447.64,-259.93"/>
</a>
</g>
</g>
<!-- Node46 -->
<g id="Node000046" class="node">
<title>Node46</title>
<g id="a_Node000046"><a xlink:title=" ">
<polygon fill="#e0e0e0" stroke="#999999" points="2618.5,-261 2469.5,-261 2469.5,-231 2618.5,-231 2618.5,-261"/>
<text text-anchor="start" x="2477.5" y="-249" font-family="Helvetica,sans-Serif" font-size="10.00">../vpatterndb/floatItemData</text>
<text text-anchor="middle" x="2544" y="-238" font-family="Helvetica,sans-Serif" font-size="10.00">/vpatternlabeldata.h</text>
</a>
</g>
</g>
<!-- Node1&#45;&gt;Node46 -->
<g id="edge49_Node000001_Node000046" class="edge">
<title>Node1&#45;&gt;Node46</title>
<g id="a_edge49_Node000001_Node000046"><a xlink:title=" ">
<path fill="none" stroke="#63b8ff" d="M2614.75,-296.87C2603.6,-289 2586.7,-277.09 2572.21,-266.89"/>
<polygon fill="#63b8ff" stroke="#63b8ff" points="2574.22,-264.01 2564.03,-261.11 2570.18,-269.74 2574.22,-264.01"/>
</a>
</g>
</g>
<!-- Node47 -->
<g id="Node000047" class="node">
<title>Node47</title>
<g id="a_Node000047"><a xlink:title=" ">
<polygon fill="#e0e0e0" stroke="#999999" points="2785.5,-261 2636.5,-261 2636.5,-231 2785.5,-231 2785.5,-261"/>
<text text-anchor="start" x="2644.5" y="-249" font-family="Helvetica,sans-Serif" font-size="10.00">../vpatterndb/floatItemData</text>
<text text-anchor="middle" x="2711" y="-238" font-family="Helvetica,sans-Serif" font-size="10.00">/vgrainlinedata.h</text>
</a>
</g>
</g>
<!-- Node1&#45;&gt;Node47 -->
<g id="edge50_Node000001_Node000047" class="edge">
<title>Node1&#45;&gt;Node47</title>
<g id="a_edge50_Node000001_Node000047"><a xlink:title=" ">
<path fill="none" stroke="#63b8ff" d="M2639.39,-296.87C2650.69,-289 2667.79,-277.09 2682.45,-266.89"/>
<polygon fill="#63b8ff" stroke="#63b8ff" points="2684.53,-269.7 2690.73,-261.11 2680.53,-263.96 2684.53,-269.7"/>
</a>
</g>
</g>
<!-- Node48 -->
<g id="Node000048" class="node">
<title>Node48</title>
<g id="a_Node000048"><a xlink:title=" ">
<polygon fill="#e0e0e0" stroke="#999999" points="2958.5,-261 2803.5,-261 2803.5,-231 2958.5,-231 2958.5,-261"/>
<text text-anchor="start" x="2811.5" y="-249" font-family="Helvetica,sans-Serif" font-size="10.00">../vpatterndb/measurements</text>
<text text-anchor="middle" x="2881" y="-238" font-family="Helvetica,sans-Serif" font-size="10.00">_def.h</text>
</a>
</g>
</g>
<!-- Node1&#45;&gt;Node48 -->
<g id="edge51_Node000001_Node000048" class="edge">
<title>Node1&#45;&gt;Node48</title>
<g id="a_edge51_Node000001_Node000048"><a xlink:title=" ">
<path fill="none" stroke="#63b8ff" d="M2663.93,-296.99C2702.08,-288.21 2762.58,-274.27 2810.02,-263.35"/>
<polygon fill="#63b8ff" stroke="#63b8ff" points="2810.98,-266.72 2819.93,-261.06 2809.4,-259.9 2810.98,-266.72"/>
</a>
</g>
</g>
<!-- Node49 -->
<g id="Node000049" class="node">
<title>Node49</title>
<g id="a_Node000049"><a xlink:title=" ">
<polygon fill="#e0e0e0" stroke="#999999" points="3135.5,-255.5 2976.5,-255.5 2976.5,-236.5 3135.5,-236.5 3135.5,-255.5"/>
<text text-anchor="middle" x="3056" y="-243.5" font-family="Helvetica,sans-Serif" font-size="10.00">../vtools/tools/vabstracttool.h</text>
</a>
</g>
</g>
<!-- Node1&#45;&gt;Node49 -->
<g id="edge52_Node000001_Node000049" class="edge">
<title>Node1&#45;&gt;Node49</title>
<g id="a_edge52_Node000001_Node000049"><a xlink:title=" ">
<path fill="none" stroke="#63b8ff" d="M2696.63,-296.99C2765.6,-288.43 2874.2,-274.58 2968,-261 2976.36,-259.79 2985.16,-258.46 2993.84,-257.11"/>
<polygon fill="#63b8ff" stroke="#63b8ff" points="2994.58,-260.54 3003.92,-255.53 2993.5,-253.62 2994.58,-260.54"/>
</a>
</g>
</g>
<!-- Node50 -->
<g id="Node000050" class="node">
<title>Node50</title>
<g id="a_Node000050"><a xlink:title=" ">
<polygon fill="#e0e0e0" stroke="#999999" points="3274.5,-261 3153.5,-261 3153.5,-231 3274.5,-231 3274.5,-261"/>
<text text-anchor="start" x="3161.5" y="-249" font-family="Helvetica,sans-Serif" font-size="10.00">../vtools/tools/pattern</text>
<text text-anchor="middle" x="3214" y="-238" font-family="Helvetica,sans-Serif" font-size="10.00">_piece_tool.h</text>
</a>
</g>
</g>
<!-- Node1&#45;&gt;Node50 -->
<g id="edge53_Node000001_Node000050" class="edge">
<title>Node1&#45;&gt;Node50</title>
<g id="a_edge53_Node000001_Node000050"><a xlink:title=" ">
<path fill="none" stroke="#63b8ff" d="M2737.56,-299.68C2840.36,-293.42 2997.91,-281.67 3143.47,-261.12"/>
<polygon fill="#63b8ff" stroke="#63b8ff" points="3144.08,-264.57 3153.49,-259.69 3143.09,-257.64 3144.08,-264.57"/>
</a>
</g>
</g>
<!-- Node51 -->
<g id="Node000051" class="node">
<title>Node51</title>
<g id="a_Node000051"><a xlink:title=" ">
<polygon fill="#e0e0e0" stroke="#999999" points="3365.5,-255.5 3292.5,-255.5 3292.5,-236.5 3365.5,-236.5 3365.5,-255.5"/>
<text text-anchor="middle" x="3329" y="-243.5" font-family="Helvetica,sans-Serif" font-size="10.00">QFileDialog</text>
</a>
</g>
</g>
<!-- Node1&#45;&gt;Node51 -->
<g id="edge54_Node000001_Node000051" class="edge">
<title>Node1&#45;&gt;Node51</title>
<g id="a_edge54_Node000001_Node000051"><a xlink:title=" ">
<path fill="none" stroke="#63b8ff" d="M2737.55,-305.86C2868.92,-304.49 3094.22,-296.44 3284,-261 3287.67,-260.31 3291.47,-259.43 3295.23,-258.43"/>
<polygon fill="#63b8ff" stroke="#63b8ff" points="3296.34,-261.75 3304.97,-255.61 3294.39,-255.03 3296.34,-261.75"/>
</a>
</g>
</g>
<!-- Node52 -->
<g id="Node000052" class="node">
<title>Node52</title>
<g id="a_Node000052"><a xlink:title=" ">
<polygon fill="#e0e0e0" stroke="#999999" points="3444,-255.5 3384,-255.5 3384,-236.5 3444,-236.5 3444,-255.5"/>
<text text-anchor="middle" x="3414" y="-243.5" font-family="Helvetica,sans-Serif" font-size="10.00">QFileInfo</text>
</a>
</g>
</g>
<!-- Node1&#45;&gt;Node52 -->
<g id="edge55_Node000001_Node000052" class="edge">
<title>Node1&#45;&gt;Node52</title>
<g id="a_edge55_Node000001_Node000052"><a xlink:title=" ">
<path fill="none" stroke="#63b8ff" d="M2737.61,-302.78C2915.32,-297.77 3256.48,-285.28 3375,-261 3378,-260.38 3381.09,-259.59 3384.14,-258.68"/>
<polygon fill="#63b8ff" stroke="#63b8ff" points="3385.27,-262 3393.67,-255.53 3383.08,-255.35 3385.27,-262"/>
</a>
</g>
</g>
<!-- Node53 -->
<g id="Node000053" class="node">
<title>Node53</title>
<g id="a_Node000053"><a xlink:title=" ">
<polygon fill="#e0e0e0" stroke="#999999" points="3558,-255.5 3462,-255.5 3462,-236.5 3558,-236.5 3558,-255.5"/>
<text text-anchor="middle" x="3510" y="-243.5" font-family="Helvetica,sans-Serif" font-size="10.00">QGraphicsScene</text>
</a>
</g>
</g>
<!-- Node1&#45;&gt;Node53 -->
<g id="edge56_Node000001_Node000053" class="edge">
<title>Node1&#45;&gt;Node53</title>
<g id="a_edge56_Node000001_Node000053"><a xlink:title=" ">
<path fill="none" stroke="#63b8ff" d="M2737.55,-306.09C2896.62,-305.45 3198.9,-298.71 3453,-261 3458.48,-260.19 3464.2,-259.09 3469.82,-257.86"/>
<polygon fill="#63b8ff" stroke="#63b8ff" points="3470.8,-261.23 3479.74,-255.55 3469.21,-254.41 3470.8,-261.23"/>
</a>
</g>
</g>
<!-- Node54 -->
<g id="Node000054" class="node">
<title>Node54</title>
<g id="a_Node000054"><a xlink:title=" ">
<polygon fill="#e0e0e0" stroke="#999999" points="3662,-255.5 3576,-255.5 3576,-236.5 3662,-236.5 3662,-255.5"/>
<text text-anchor="middle" x="3619" y="-243.5" font-family="Helvetica,sans-Serif" font-size="10.00">QMessageBox</text>
</a>
</g>
</g>
<!-- Node1&#45;&gt;Node54 -->
<g id="edge57_Node000001_Node000054" class="edge">
<title>Node1&#45;&gt;Node54</title>
<g id="a_edge57_Node000001_Node000054"><a xlink:title=" ">
<path fill="none" stroke="#63b8ff" d="M2737.74,-303.25C2950.75,-298.43 3410.33,-285.5 3567,-261 3571.83,-260.25 3576.85,-259.22 3581.79,-258.05"/>
<polygon fill="#63b8ff" stroke="#63b8ff" points="3582.88,-261.39 3591.71,-255.53 3581.16,-254.6 3582.88,-261.39"/>
</a>
</g>
</g>
<!-- Node55 -->
<g id="Node000055" class="node">
<title>Node55</title>
<g id="a_Node000055"><a xlink:title=" ">
<polygon fill="#e0e0e0" stroke="#999999" points="3742,-255.5 3680,-255.5 3680,-236.5 3742,-236.5 3742,-255.5"/>
<text text-anchor="middle" x="3711" y="-243.5" font-family="Helvetica,sans-Serif" font-size="10.00">QProcess</text>
</a>
</g>
</g>
<!-- Node1&#45;&gt;Node55 -->
<g id="edge58_Node000001_Node000055" class="edge">
<title>Node1&#45;&gt;Node55</title>
<g id="a_edge58_Node000001_Node000055"><a xlink:title=" ">
<path fill="none" stroke="#63b8ff" d="M2737.63,-304.88C2968.55,-302.93 3494.95,-294.79 3671,-261 3674.08,-260.41 3677.24,-259.63 3680.38,-258.73"/>
<polygon fill="#63b8ff" stroke="#63b8ff" points="3681.69,-261.99 3690.15,-255.6 3679.55,-255.32 3681.69,-261.99"/>
</a>
</g>
</g>
<!-- Node56 -->
<g id="Node000056" class="node">
<title>Node56</title>
<g id="a_Node000056"><a xlink:title=" ">
<polygon fill="#e0e0e0" stroke="#999999" points="3806,-255.5 3760,-255.5 3760,-236.5 3806,-236.5 3806,-255.5"/>
<text text-anchor="middle" x="3783" y="-243.5" font-family="Helvetica,sans-Serif" font-size="10.00">QtSvg</text>
</a>
</g>
</g>
<!-- Node1&#45;&gt;Node56 -->
<g id="edge60_Node000001_Node000056" class="edge">
<title>Node1&#45;&gt;Node56</title>
<g id="a_edge60_Node000001_Node000056"><a xlink:title=" ">
<path fill="none" stroke="#63b8ff" d="M2737.5,-306.33C2981.7,-307.31 3560.67,-304.76 3751,-261 3752.95,-260.55 3754.93,-259.99 3756.9,-259.34"/>
<polygon fill="#63b8ff" stroke="#63b8ff" points="3758.41,-262.51 3766.46,-255.63 3755.87,-255.98 3758.41,-262.51"/>
</a>
</g>
</g>
<!-- Node57 -->
<g id="Node000057" class="node">
<title>Node57</title>
<g id="a_Node000057"><a xlink:title=" ">
<polygon fill="#e0e0e0" stroke="#999999" points="3941.5,-255.5 3824.5,-255.5 3824.5,-236.5 3941.5,-236.5 3941.5,-255.5"/>
<text text-anchor="middle" x="3883" y="-243.5" font-family="Helvetica,sans-Serif" font-size="10.00">QPrintPreviewDialog</text>
</a>
</g>
</g>
<!-- Node1&#45;&gt;Node57 -->
<g id="edge61_Node000001_Node000057" class="edge">
<title>Node1&#45;&gt;Node57</title>
<g id="a_edge61_Node000001_Node000057"><a xlink:title=" ">
<path fill="none" stroke="#63b8ff" d="M2737.53,-303.7C2991.09,-299.19 3608.56,-285.94 3815,-261 3822.24,-260.13 3829.86,-258.88 3837.26,-257.49"/>
<polygon fill="#63b8ff" stroke="#63b8ff" points="3838.06,-260.9 3847.19,-255.53 3836.7,-254.04 3838.06,-260.9"/>
</a>
</g>
</g>
<!-- Node58 -->
<g id="Node000058" class="node">
<title>Node58</title>
<g id="a_Node000058"><a xlink:title=" ">
<polygon fill="#e0e0e0" stroke="#999999" points="4038,-255.5 3960,-255.5 3960,-236.5 4038,-236.5 4038,-255.5"/>
<text text-anchor="middle" x="3999" y="-243.5" font-family="Helvetica,sans-Serif" font-size="10.00">QPrintDialog</text>
</a>
</g>
</g>
<!-- Node1&#45;&gt;Node58 -->
<g id="edge62_Node000001_Node000058" class="edge">
<title>Node1&#45;&gt;Node58</title>
<g id="a_edge62_Node000001_Node000058"><a xlink:title=" ">
<path fill="none" stroke="#63b8ff" d="M2737.74,-305.33C3012.26,-304.35 3718.72,-298.17 3951,-261 3955.24,-260.32 3959.64,-259.38 3963.97,-258.31"/>
<polygon fill="#63b8ff" stroke="#63b8ff" points="3965.13,-261.62 3973.86,-255.61 3963.29,-254.86 3965.13,-261.62"/>
</a>
</g>
</g>
<!-- Node59 -->
<g id="Node000059" class="node">
<title>Node59</title>
<g id="a_Node000059"><a xlink:title=" ">
<polygon fill="#e0e0e0" stroke="#999999" points="4131.5,-255.5 4056.5,-255.5 4056.5,-236.5 4131.5,-236.5 4131.5,-255.5"/>
<text text-anchor="middle" x="4094" y="-243.5" font-family="Helvetica,sans-Serif" font-size="10.00">QPrinterInfo</text>
</a>
</g>
</g>
<!-- Node1&#45;&gt;Node59 -->
<g id="edge63_Node000001_Node000059" class="edge">
<title>Node1&#45;&gt;Node59</title>
<g id="a_edge63_Node000001_Node000059"><a xlink:title=" ">
<path fill="none" stroke="#63b8ff" d="M2737.54,-305.71C3025.83,-305.69 3795.6,-301.68 4047,-261 4051.16,-260.33 4055.47,-259.39 4059.71,-258.32"/>
<polygon fill="#63b8ff" stroke="#63b8ff" points="4060.7,-261.68 4069.4,-255.63 4058.83,-254.93 4060.7,-261.68"/>
</a>
</g>
</g>
<!-- Node60 -->
<g id="Node000060" class="node">
<title>Node60</title>
<g id="a_Node000060"><a xlink:title=" ">
<polygon fill="#e0e0e0" stroke="#999999" points="4234.5,-255.5 4149.5,-255.5 4149.5,-236.5 4234.5,-236.5 4234.5,-255.5"/>
<text text-anchor="middle" x="4192" y="-243.5" font-family="Helvetica,sans-Serif" font-size="10.00">QImageWriter</text>
</a>
</g>
</g>
<!-- Node1&#45;&gt;Node60 -->
<g id="edge64_Node000001_Node000060" class="edge">
<title>Node1&#45;&gt;Node60</title>
<g id="a_edge64_Node000001_Node000060"><a xlink:title=" ">
<path fill="none" stroke="#63b8ff" d="M2737.65,-305.67C3039.1,-305.57 3870.37,-301.53 4141,-261 4145.8,-260.28 4150.79,-259.26 4155.69,-258.1"/>
<polygon fill="#63b8ff" stroke="#63b8ff" points="4156.72,-261.45 4165.52,-255.56 4154.97,-254.67 4156.72,-261.45"/>
</a>
</g>
</g>
<!-- Node3 -->
<g id="Node000003" class="node">
<title>Node3</title>
<g id="a_Node000003"><a xlink:title=" ">
<polygon fill="#e0e0e0" stroke="#999999" points="725.5,-195 638.5,-195 638.5,-176 725.5,-176 725.5,-195"/>
<text text-anchor="middle" x="682" y="-183" font-family="Helvetica,sans-Serif" font-size="10.00">QMainWindow</text>
</a>
</g>
</g>
<!-- Node2&#45;&gt;Node3 -->
<g id="edge2_Node000002_Node000003" class="edge">
<title>Node2&#45;&gt;Node3</title>
<g id="a_edge2_Node000002_Node000003"><a xlink:title=" ">
<path fill="none" stroke="#63b8ff" d="M591.64,-236.37C608.94,-226.82 637.05,-211.31 657.33,-200.12"/>
<polygon fill="#63b8ff" stroke="#63b8ff" points="659.23,-203.06 666.3,-195.17 655.85,-196.93 659.23,-203.06"/>
</a>
</g>
</g>
<!-- Node4 -->
<g id="Node000004" class="node">
<title>Node4</title>
<g id="a_Node000004"><a xlink:title=" ">
<polygon fill="#e0e0e0" stroke="#999999" points="358,-195 302,-195 302,-176 358,-176 358,-195"/>
<text text-anchor="middle" x="330" y="-183" font-family="Helvetica,sans-Serif" font-size="10.00">QPrinter</text>
</a>
</g>
</g>
<!-- Node2&#45;&gt;Node4 -->
<g id="edge3_Node000002_Node000004" class="edge">
<title>Node2&#45;&gt;Node4</title>
<g id="a_edge3_Node000002_Node000004"><a xlink:title=" ">
<path fill="none" stroke="#63b8ff" d="M540.23,-236.49C494.29,-225.57 414.92,-206.69 367.95,-195.53"/>
<polygon fill="#63b8ff" stroke="#63b8ff" points="368.7,-192.11 358.16,-193.2 367.08,-198.92 368.7,-192.11"/>
</a>
</g>
</g>
<!-- Node2&#45;&gt;Node5 -->
<g id="edge4_Node000002_Node000005" class="edge">
<title>Node2&#45;&gt;Node5</title>
<g id="a_edge4_Node000002_Node000005"><a xlink:title=" ">
<path fill="none" stroke="#63b8ff" d="M515.73,-240.38C424.84,-233.07 247.11,-217.48 86.26,-195.08"/>
<polygon fill="#63b8ff" stroke="#63b8ff" points="86.57,-191.59 76.18,-193.66 85.6,-198.52 86.57,-191.59"/>
</a>
</g>
</g>
<!-- Node6 -->
<g id="Node000006" class="node">
<title>Node6</title>
<g id="a_Node000006"><a xlink:title=" ">
<polygon fill="#e0e0e0" stroke="#999999" points="513.5,-195 376.5,-195 376.5,-176 513.5,-176 513.5,-195"/>
<text text-anchor="middle" x="445" y="-183" font-family="Helvetica,sans-Serif" font-size="10.00">../vlayout/vlayoutpiece.h</text>
</a>
</g>
</g>
<!-- Node2&#45;&gt;Node6 -->
<g id="edge5_Node000002_Node000006" class="edge">
<title>Node2&#45;&gt;Node6</title>
<g id="a_edge5_Node000002_Node000006"><a xlink:title=" ">
<path fill="none" stroke="#63b8ff" d="M556.95,-236.49C535.03,-226.7 498.79,-210.52 473.5,-199.23"/>
<polygon fill="#63b8ff" stroke="#63b8ff" points="474.63,-195.9 464.07,-195.02 471.78,-202.29 474.63,-195.9"/>
</a>
</g>
</g>
<!-- Node7 -->
<g id="Node000007" class="node">
<title>Node7</title>
<g id="a_Node000007"><a xlink:href="../../d4/d38/vpattern_8h.html" target="_top" xlink:title=" ">
<polygon fill="#fff0f0" stroke="red" points="620.5,-195 531.5,-195 531.5,-176 620.5,-176 620.5,-195"/>
<text text-anchor="middle" x="576" y="-183" font-family="Helvetica,sans-Serif" font-size="10.00">xml/vpattern.h</text>
</a>
</g>
</g>
<!-- Node2&#45;&gt;Node7 -->
<g id="edge6_Node000002_Node000007" class="edge">
<title>Node2&#45;&gt;Node7</title>
<g id="a_edge6_Node000002_Node000007"><a xlink:title=" ">
<path fill="none" stroke="#63b8ff" d="M576,-236.37C576,-228.25 576,-215.81 576,-205.39"/>
<polygon fill="#63b8ff" stroke="#63b8ff" points="579.5,-205.17 576,-195.17 572.5,-205.17 579.5,-205.17"/>
</a>
</g>
</g>
<!-- Node2&#45;&gt;Node12 -->
<g id="edge8_Node000002_Node000012" class="edge">
<title>Node2&#45;&gt;Node12</title>
<g id="a_edge8_Node000002_Node000012"><a xlink:title=" ">
<path fill="none" stroke="#63b8ff" d="M607.65,-236.47C639.9,-227.43 691.11,-212.12 734,-195 751.91,-187.85 754.51,-181.45 773,-176 890.27,-141.44 1032.93,-130.71 1116.76,-127.42"/>
<polygon fill="#63b8ff" stroke="#63b8ff" points="1117.08,-130.91 1126.94,-127.04 1116.82,-123.91 1117.08,-130.91"/>
</a>
</g>
</g>
<!-- Node2&#45;&gt;Node19 -->
<g id="edge17_Node000002_Node000019" class="edge">
<title>Node2&#45;&gt;Node19</title>
<g id="a_edge17_Node000002_Node000019"><a xlink:title=" ">
<path fill="none" stroke="#63b8ff" d="M617.44,-236.49C668.31,-226.05 754.57,-208.35 809.61,-197.05"/>
<polygon fill="#63b8ff" stroke="#63b8ff" points="810.42,-200.46 819.51,-195.02 809.01,-193.6 810.42,-200.46"/>
</a>
</g>
</g>
<!-- Node20 -->
<g id="Node000020" class="node">
<title>Node20</title>
<g id="a_Node000020"><a xlink:title=" ">
<polygon fill="#e0e0e0" stroke="#999999" points="283.5,-195 94.5,-195 94.5,-176 283.5,-176 283.5,-195"/>
<text text-anchor="middle" x="189" y="-183" font-family="Helvetica,sans-Serif" font-size="10.00">../vwidgets/vabstractmainwindow.h</text>
</a>
</g>
</g>
<!-- Node2&#45;&gt;Node20 -->
<g id="edge18_Node000002_Node000020" class="edge">
<title>Node2&#45;&gt;Node20</title>
<g id="a_edge18_Node000002_Node000020"><a xlink:title=" ">
<path fill="none" stroke="#63b8ff" d="M519.73,-236.49C449.65,-225.9 330.1,-207.83 255.55,-196.56"/>
<polygon fill="#63b8ff" stroke="#63b8ff" points="255.75,-193.05 245.34,-195.02 254.71,-199.97 255.75,-193.05"/>
</a>
</g>
</g>
<!-- Node7&#45;&gt;Node10 -->
<g id="edge7_Node000007_Node000010" class="edge">
<title>Node7&#45;&gt;Node10</title>
<g id="a_edge7_Node000007_Node000010"><a xlink:title=" ">
<path fill="none" stroke="#63b8ff" d="M600.14,-175.99C628.54,-165.99 675.88,-149.3 707.99,-137.99"/>
<polygon fill="#63b8ff" stroke="#63b8ff" points="709.56,-141.14 717.83,-134.52 707.24,-134.54 709.56,-141.14"/>
</a>
</g>
</g>
<!-- Node13 -->
<g id="Node000013" class="node">
<title>Node13</title>
<g id="a_Node000013"><a xlink:title=" ">
<polygon fill="#e0e0e0" stroke="#999999" points="1197,-19 1141,-19 1141,0 1197,0 1197,-19"/>
<text text-anchor="middle" x="1169" y="-7" font-family="Helvetica,sans-Serif" font-size="10.00">QDialog</text>
</a>
</g>
</g>
<!-- Node12&#45;&gt;Node13 -->
<g id="edge9_Node000012_Node000013" class="edge">
<title>Node12&#45;&gt;Node13</title>
<g id="a_edge9_Node000012_Node000013"><a xlink:title=" ">
<path fill="none" stroke="#63b8ff" d="M1185.59,-109.63C1182.18,-89.21 1175.92,-51.81 1172.14,-29.24"/>
<polygon fill="#63b8ff" stroke="#63b8ff" points="1175.56,-28.51 1170.46,-19.23 1168.66,-29.67 1175.56,-28.51"/>
</a>
</g>
</g>
<!-- Node14 -->
<g id="Node000014" class="node">
<title>Node14</title>
<g id="a_Node000014"><a xlink:title=" ">
<polygon fill="#e0e0e0" stroke="#999999" points="1140.5,-74 1071.5,-74 1071.5,-55 1140.5,-55 1140.5,-74"/>
<text text-anchor="middle" x="1106" y="-62" font-family="Helvetica,sans-Serif" font-size="10.00">QMarginsF</text>
</a>
</g>
</g>
<!-- Node12&#45;&gt;Node14 -->
<g id="edge10_Node000012_Node000014" class="edge">
<title>Node12&#45;&gt;Node14</title>
<g id="a_edge10_Node000012_Node000014"><a xlink:title=" ">
<path fill="none" stroke="#63b8ff" d="M1168.15,-109.84C1155.52,-100.83 1139.2,-89.18 1126.45,-80.09"/>
<polygon fill="#63b8ff" stroke="#63b8ff" points="1128.46,-77.22 1118.29,-74.27 1124.4,-82.92 1128.46,-77.22"/>
</a>
</g>
</g>
<!-- Node15 -->
<g id="Node000015" class="node">
<title>Node15</title>
<g id="a_Node000015"><a xlink:title=" ">
<polygon fill="#e0e0e0" stroke="#999999" points="1393.5,-74 1234.5,-74 1234.5,-55 1393.5,-55 1393.5,-74"/>
<text text-anchor="middle" x="1314" y="-62" font-family="Helvetica,sans-Serif" font-size="10.00">../vgeometry/vgeometrydef.h</text>
</a>
</g>
</g>
<!-- Node12&#45;&gt;Node15 -->
<g id="edge11_Node000012_Node000015" class="edge">
<title>Node12&#45;&gt;Node15</title>
<g id="a_edge11_Node000012_Node000015"><a xlink:title=" ">
<path fill="none" stroke="#63b8ff" d="M1218.18,-109.99C1238.83,-100.4 1266,-87.79 1286.13,-78.44"/>
<polygon fill="#63b8ff" stroke="#63b8ff" points="1287.8,-81.52 1295.39,-74.14 1284.85,-75.18 1287.8,-81.52"/>
</a>
</g>
</g>
<!-- Node16 -->
<g id="Node000016" class="node">
<title>Node16</title>
<g id="a_Node000016"><a xlink:title=" ">
<polygon fill="#e0e0e0" stroke="#999999" points="1500,-19 1418,-19 1418,0 1500,0 1500,-19"/>
<text text-anchor="middle" x="1459" y="-7" font-family="Helvetica,sans-Serif" font-size="10.00">../vmisc/def.h</text>
</a>
</g>
</g>
<!-- Node12&#45;&gt;Node16 -->
<g id="edge12_Node000012_Node000016" class="edge">
<title>Node12&#45;&gt;Node16</title>
<g id="a_edge12_Node000012_Node000016"><a xlink:title=" ">
<path fill="none" stroke="#63b8ff" d="M1191.79,-109.93C1196.85,-94 1207.41,-68.5 1226,-55 1254.35,-34.41 1347.95,-21.53 1407.54,-15.21"/>
<polygon fill="#63b8ff" stroke="#63b8ff" points="1407.93,-18.69 1417.52,-14.18 1407.21,-11.73 1407.93,-18.69"/>
</a>
</g>
</g>
<!-- Node17 -->
<g id="Node000017" class="node">
<title>Node17</title>
<g id="a_Node000017"><a xlink:href="../../d7/d9e/abstractlayout__dialog_8h.html" target="_top" xlink:title=" ">
<polygon fill="white" stroke="#666666" points="1618.5,-74 1487.5,-74 1487.5,-55 1618.5,-55 1618.5,-74"/>
<text text-anchor="middle" x="1553" y="-62" font-family="Helvetica,sans-Serif" font-size="10.00">abstractlayout_dialog.h</text>
</a>
</g>
</g>
<!-- Node12&#45;&gt;Node17 -->
<g id="edge13_Node000012_Node000017" class="edge">
<title>Node12&#45;&gt;Node17</title>
<g id="a_edge13_Node000012_Node000017"><a xlink:title=" ">
<path fill="none" stroke="#63b8ff" d="M1249.09,-114.21C1315.79,-103.52 1422.07,-86.49 1489.64,-75.65"/>
<polygon fill="#63b8ff" stroke="#63b8ff" points="1490.41,-79.08 1499.73,-74.04 1489.3,-72.16 1490.41,-79.08"/>
</a>
</g>
</g>
<!-- Node17&#45;&gt;Node13 -->
<g id="edge16_Node000017_Node000013" class="edge">
<title>Node17&#45;&gt;Node13</title>
<g id="a_edge16_Node000017_Node000013"><a xlink:title=" ">
<path fill="none" stroke="#63b8ff" d="M1491.3,-54.98C1411.21,-43.93 1273.83,-24.97 1207.32,-15.79"/>
<polygon fill="#63b8ff" stroke="#63b8ff" points="1207.66,-12.3 1197.27,-14.4 1206.7,-19.24 1207.66,-12.3"/>
</a>
</g>
</g>
<!-- Node17&#45;&gt;Node16 -->
<g id="edge15_Node000017_Node000016" class="edge">
<title>Node17&#45;&gt;Node16</title>
<g id="a_edge15_Node000017_Node000016"><a xlink:title=" ">
<path fill="none" stroke="#63b8ff" d="M1537.9,-54.98C1523.18,-46.69 1500.58,-33.94 1483.33,-24.22"/>
<polygon fill="#63b8ff" stroke="#63b8ff" points="1484.81,-21.03 1474.38,-19.17 1481.37,-27.13 1484.81,-21.03"/>
</a>
</g>
</g>
<!-- Node18 -->
<g id="Node000018" class="node">
<title>Node18</title>
<g id="a_Node000018"><a xlink:title=" ">
<polygon fill="#e0e0e0" stroke="#999999" points="1723.5,-19 1646.5,-19 1646.5,0 1723.5,0 1723.5,-19"/>
<text text-anchor="middle" x="1685" y="-7" font-family="Helvetica,sans-Serif" font-size="10.00">../ifc/ifcdef.h</text>
</a>
</g>
</g>
<!-- Node17&#45;&gt;Node18 -->
<g id="edge14_Node000017_Node000018" class="edge">
<title>Node17&#45;&gt;Node18</title>
<g id="a_edge14_Node000017_Node000018"><a xlink:title=" ">
<path fill="none" stroke="#63b8ff" d="M1574.21,-54.98C1595.73,-46.34 1629.28,-32.87 1653.83,-23.02"/>
<polygon fill="#63b8ff" stroke="#63b8ff" points="1655.43,-26.14 1663.41,-19.17 1652.82,-19.65 1655.43,-26.14"/>
</a>
</g>
</g>
<!-- Node22 -->
<g id="Node000022" class="node">
<title>Node22</title>
<g id="a_Node000022"><a xlink:title=" ">
<polygon fill="#e0e0e0" stroke="#999999" points="1896.5,-195 1729.5,-195 1729.5,-176 1896.5,-176 1896.5,-195"/>
<text text-anchor="middle" x="1813" y="-183" font-family="Helvetica,sans-Serif" font-size="10.00">../vmisc/vabstractapplication.h</text>
</a>
</g>
</g>
<!-- Node21&#45;&gt;Node22 -->
<g id="edge20_Node000021_Node000022" class="edge">
<title>Node21&#45;&gt;Node22</title>
<g id="a_edge20_Node000021_Node000022"><a xlink:title=" ">
<path fill="none" stroke="#63b8ff" d="M1583.97,-236.49C1631.6,-226.1 1712.25,-208.49 1764.03,-197.19"/>
<polygon fill="#63b8ff" stroke="#63b8ff" points="1764.96,-200.57 1773.98,-195.02 1763.47,-193.73 1764.96,-200.57"/>
</a>
</g>
</g>
<!-- Node23 -->
<g id="Node000023" class="node">
<title>Node23</title>
<g id="a_Node000023"><a xlink:title=" ">
<polygon fill="#e0e0e0" stroke="#999999" points="2026,-195 1914,-195 1914,-176 2026,-176 2026,-195"/>
<text text-anchor="middle" x="1970" y="-183" font-family="Helvetica,sans-Serif" font-size="10.00">../vmisc/vsettings.h</text>
</a>
</g>
</g>
<!-- Node21&#45;&gt;Node23 -->
<g id="edge21_Node000021_Node000023" class="edge">
<title>Node21&#45;&gt;Node23</title>
<g id="a_edge21_Node000021_Node000023"><a xlink:title=" ">
<path fill="none" stroke="#63b8ff" d="M1588.15,-236.49C1598.56,-234.57 1609.66,-232.61 1620,-231 1743.37,-211.74 1777.24,-211.44 1903.73,-195.28"/>
<polygon fill="#63b8ff" stroke="#63b8ff" points="1904.34,-198.73 1913.81,-193.98 1903.45,-191.79 1904.34,-198.73"/>
</a>
</g>
</g>
<!-- Node24 -->
<g id="Node000024" class="node">
<title>Node24</title>
<g id="a_Node000024"><a xlink:href="../../d7/d5b/options_8h.html" target="_top" xlink:title=" ">
<polygon fill="#fff0f0" stroke="red" points="1430.5,-134.5 1359.5,-134.5 1359.5,-115.5 1430.5,-115.5 1430.5,-134.5"/>
<text text-anchor="middle" x="1395" y="-122.5" font-family="Helvetica,sans-Serif" font-size="10.00">../options.h</text>
</a>
</g>
</g>
<!-- Node21&#45;&gt;Node24 -->
<g id="edge22_Node000021_Node000024" class="edge">
<title>Node21&#45;&gt;Node24</title>
<g id="a_edge22_Node000021_Node000024"><a xlink:title=" ">
<path fill="none" stroke="#63b8ff" d="M1555.54,-236.37C1570.93,-222.73 1596.16,-195.7 1581,-176 1542.86,-126.45 1505.33,-156.43 1445,-140 1441.68,-139.1 1438.24,-138.15 1434.79,-137.2"/>
<polygon fill="#63b8ff" stroke="#63b8ff" points="1435.69,-133.82 1425.12,-134.51 1433.82,-140.56 1435.69,-133.82"/>
</a>
</g>
</g>
<!-- Node26 -->
<g id="Node000026" class="node">
<title>Node26</title>
<g id="a_Node000026"><a xlink:title=" ">
<polygon fill="#e0e0e0" stroke="#999999" points="1392,-195 1216,-195 1216,-176 1392,-176 1392,-195"/>
<text text-anchor="middle" x="1304" y="-183" font-family="Helvetica,sans-Serif" font-size="10.00">../vwidgets/vmaingraphicsview.h</text>
</a>
</g>
</g>
<!-- Node21&#45;&gt;Node26 -->
<g id="edge26_Node000021_Node000026" class="edge">
<title>Node21&#45;&gt;Node26</title>
<g id="a_edge26_Node000021_Node000026"><a xlink:title=" ">
<path fill="none" stroke="#63b8ff" d="M1509.96,-236.49C1467.39,-226.16 1395.51,-208.71 1348.91,-197.4"/>
<polygon fill="#63b8ff" stroke="#63b8ff" points="1349.63,-193.97 1339.09,-195.02 1347.98,-200.78 1349.63,-193.97"/>
</a>
</g>
</g>
<!-- Node27 -->
<g id="Node000027" class="node">
<title>Node27</title>
<g id="a_Node000027"><a xlink:title=" ">
<polygon fill="#e0e0e0" stroke="#999999" points="1571.5,-195 1410.5,-195 1410.5,-176 1571.5,-176 1571.5,-195"/>
<text text-anchor="middle" x="1491" y="-183" font-family="Helvetica,sans-Serif" font-size="10.00">../vpatterndb/vtranslatevars.h</text>
</a>
</g>
</g>
<!-- Node21&#45;&gt;Node27 -->
<g id="edge27_Node000021_Node000027" class="edge">
<title>Node21&#45;&gt;Node27</title>
<g id="a_edge27_Node000021_Node000027"><a xlink:title=" ">
<path fill="none" stroke="#63b8ff" d="M1537.03,-236.37C1528.9,-227.55 1516.07,-213.66 1506.02,-202.77"/>
<polygon fill="#63b8ff" stroke="#63b8ff" points="1508.36,-200.14 1499,-195.17 1503.21,-204.89 1508.36,-200.14"/>
</a>
</g>
</g>
<!-- Node28 -->
<g id="Node000028" class="node">
<title>Node28</title>
<g id="a_Node000028"><a xlink:href="../../dd/d57/vcmdexport_8h.html" target="_top" xlink:title=" ">
<polygon fill="#fff0f0" stroke="red" points="1712,-195 1628,-195 1628,-176 1712,-176 1712,-195"/>
<text text-anchor="middle" x="1670" y="-183" font-family="Helvetica,sans-Serif" font-size="10.00">vcmdexport.h</text>
</a>
</g>
</g>
<!-- Node21&#45;&gt;Node28 -->
<g id="edge28_Node000021_Node000028" class="edge">
<title>Node21&#45;&gt;Node28</title>
<g id="a_edge28_Node000021_Node000028"><a xlink:title=" ">
<path fill="none" stroke="#63b8ff" d="M1563.18,-236.49C1584.01,-226.75 1618.37,-210.66 1642.48,-199.38"/>
<polygon fill="#63b8ff" stroke="#63b8ff" points="1644.23,-202.43 1651.8,-195.02 1641.26,-196.09 1644.23,-202.43"/>
</a>
</g>
</g>
<!-- Node24&#45;&gt;Node15 -->
<g id="edge24_Node000024_Node000015" class="edge">
<title>Node24&#45;&gt;Node15</title>
<g id="a_edge24_Node000024_Node000015"><a xlink:title=" ">
<path fill="none" stroke="#63b8ff" d="M1383.05,-115.37C1370.25,-106.12 1349.7,-91.28 1334.35,-80.19"/>
<polygon fill="#63b8ff" stroke="#63b8ff" points="1336.16,-77.18 1326,-74.17 1332.06,-82.86 1336.16,-77.18"/>
</a>
</g>
</g>
<!-- Node24&#45;&gt;Node16 -->
<g id="edge25_Node000024_Node000016" class="edge">
<title>Node24&#45;&gt;Node16</title>
<g id="a_edge25_Node000024_Node000016"><a xlink:title=" ">
<path fill="none" stroke="#63b8ff" d="M1399.81,-115.47C1410.23,-96.98 1435.09,-52.9 1449.05,-28.14"/>
<polygon fill="#63b8ff" stroke="#63b8ff" points="1452.27,-29.56 1454.13,-19.13 1446.17,-26.12 1452.27,-29.56"/>
</a>
</g>
</g>
<!-- Node24&#45;&gt;Node18 -->
<g id="edge23_Node000024_Node000018" class="edge">
<title>Node24&#45;&gt;Node18</title>
<g id="a_edge23_Node000024_Node000018"><a xlink:title=" ">
<path fill="none" stroke="#63b8ff" d="M1430.58,-123.1C1478.5,-120.46 1565,-110.52 1628,-74 1647.56,-62.66 1664.05,-42.28 1674.18,-27.67"/>
<polygon fill="#63b8ff" stroke="#63b8ff" points="1677.29,-29.32 1679.89,-19.05 1671.45,-25.45 1677.29,-29.32"/>
</a>
</g>
</g>
<!-- Node28&#45;&gt;Node16 -->
<g id="edge36_Node000028_Node000016" class="edge">
<title>Node28&#45;&gt;Node16</title>
<g id="a_edge36_Node000028_Node000016"><a xlink:title=" ">
<path fill="none" stroke="#63b8ff" d="M1642.62,-175.89C1601.18,-161.48 1522.73,-128.55 1479,-74 1468.72,-61.18 1463.69,-43.01 1461.25,-29.39"/>
<polygon fill="#63b8ff" stroke="#63b8ff" points="1464.67,-28.62 1459.75,-19.24 1457.75,-29.64 1464.67,-28.62"/>
</a>
</g>
</g>
<!-- Node28&#45;&gt;Node34 -->
<g id="edge29_Node000028_Node000034" class="edge">
<title>Node28&#45;&gt;Node34</title>
<g id="a_edge29_Node000028_Node000034"><a xlink:title=" ">
<path fill="none" stroke="#63b8ff" d="M1687.01,-175.99C1703.35,-167.82 1728.59,-155.2 1749.63,-144.69"/>
<polygon fill="#63b8ff" stroke="#63b8ff" points="1751.27,-147.78 1758.64,-140.18 1748.14,-141.52 1751.27,-147.78"/>
</a>
</g>
</g>
<!-- Node34&#45;&gt;Node16 -->
<g id="edge32_Node000034_Node000016" class="edge">
<title>Node34&#45;&gt;Node16</title>
<g id="a_edge32_Node000034_Node000016"><a xlink:title=" ">
<path fill="none" stroke="#63b8ff" d="M1758.22,-109.93C1726.77,-94.93 1674.63,-71.15 1628,-55 1588.38,-41.28 1542.28,-29.4 1508.25,-21.38"/>
<polygon fill="#63b8ff" stroke="#63b8ff" points="1508.63,-17.87 1498.1,-19.01 1507.04,-24.69 1508.63,-17.87"/>
</a>
</g>
</g>
<!-- Node34&#45;&gt;Node17 -->
<g id="edge30_Node000034_Node000017" class="edge">
<title>Node34&#45;&gt;Node17</title>
<g id="a_edge30_Node000034_Node000017"><a xlink:title=" ">
<path fill="none" stroke="#63b8ff" d="M1730.95,-109.99C1689.87,-99.72 1634.88,-85.97 1596.95,-76.49"/>
<polygon fill="#63b8ff" stroke="#63b8ff" points="1597.76,-73.08 1587.21,-74.05 1596.07,-79.87 1597.76,-73.08"/>
</a>
</g>
</g>
<!-- Node34&#45;&gt;Node18 -->
<g id="edge33_Node000034_Node000018" class="edge">
<title>Node34&#45;&gt;Node18</title>
<g id="a_edge33_Node000034_Node000018"><a xlink:title=" ">
<path fill="none" stroke="#63b8ff" d="M1795.99,-109.81C1804.16,-94.93 1813.34,-71.45 1802,-55 1786.6,-32.67 1758.41,-21.54 1733.56,-15.99"/>
<polygon fill="#63b8ff" stroke="#63b8ff" points="1734.01,-12.51 1723.52,-14 1732.65,-19.38 1734.01,-12.51"/>
</a>
</g>
</g>
<!-- Node35 -->
<g id="Node000035" class="node">
<title>Node35</title>
<g id="a_Node000035"><a xlink:title=" ">
<polygon fill="#e0e0e0" stroke="#999999" points="2035,-74 1931,-74 1931,-55 2035,-55 2035,-74"/>
<text text-anchor="middle" x="1983" y="-62" font-family="Helvetica,sans-Serif" font-size="10.00">../vlayout/vbank.h</text>
</a>
</g>
</g>
<!-- Node34&#45;&gt;Node35 -->
<g id="edge31_Node000034_Node000035" class="edge">
<title>Node34&#45;&gt;Node35</title>
<g id="a_edge31_Node000034_Node000035"><a xlink:title=" ">
<path fill="none" stroke="#63b8ff" d="M1833.95,-109.99C1867.77,-99.89 1912.86,-86.44 1944.55,-76.98"/>
<polygon fill="#63b8ff" stroke="#63b8ff" points="1945.76,-80.27 1954.34,-74.05 1943.76,-73.56 1945.76,-80.27"/>
</a>
</g>
</g>
<!-- Node36 -->
<g id="Node000036" class="node">
<title>Node36</title>
<g id="a_Node000036"><a xlink:title=" ">
<polygon fill="#e0e0e0" stroke="#999999" points="1792.5,-74 1713.5,-74 1713.5,-55 1792.5,-55 1792.5,-74"/>
<text text-anchor="middle" x="1753" y="-62" font-family="Helvetica,sans-Serif" font-size="10.00">QCloseEvent</text>
</a>
</g>
</g>
<!-- Node34&#45;&gt;Node36 -->
<g id="edge34_Node000034_Node000036" class="edge">
<title>Node34&#45;&gt;Node36</title>
<g id="a_edge34_Node000034_Node000036"><a xlink:title=" ">
<path fill="none" stroke="#63b8ff" d="M1778.77,-109.84C1774.09,-101.78 1768.18,-91.62 1763.2,-83.06"/>
<polygon fill="#63b8ff" stroke="#63b8ff" points="1766.15,-81.15 1758.09,-74.27 1760.09,-84.67 1766.15,-81.15"/>
</a>
</g>
</g>
<!-- Node37 -->
<g id="Node000037" class="node">
<title>Node37</title>
<g id="a_Node000037"><a xlink:title=" ">
<polygon fill="#e0e0e0" stroke="#999999" points="1912.5,-74 1849.5,-74 1849.5,-55 1912.5,-55 1912.5,-74"/>
<text text-anchor="middle" x="1881" y="-62" font-family="Helvetica,sans-Serif" font-size="10.00">QMargins</text>
</a>
</g>
</g>
<!-- Node34&#45;&gt;Node37 -->
<g id="edge35_Node000034_Node000037" class="edge">
<title>Node34&#45;&gt;Node37</title>
<g id="a_edge35_Node000034_Node000037"><a xlink:title=" ">
<path fill="none" stroke="#63b8ff" d="M1809.75,-109.84C1824.6,-100.6 1843.9,-88.59 1858.66,-79.4"/>
<polygon fill="#63b8ff" stroke="#63b8ff" points="1860.55,-82.35 1867.19,-74.09 1856.85,-76.41 1860.55,-82.35"/>
</a>
</g>
</g>
<!-- Node42&#45;&gt;Node13 -->
<g id="edge44_Node000042_Node000013" class="edge">
<title>Node42&#45;&gt;Node13</title>
<g id="a_edge44_Node000042_Node000013"><a xlink:title=" ">
<path fill="none" stroke="#63b8ff" d="M1064.37,-236.43C1051.29,-227.84 1032.98,-213.26 1025,-195 1005.92,-151.33 986.74,-137.97 1062,-55 1079.9,-35.27 1107.9,-24.04 1130.78,-17.8"/>
<polygon fill="#63b8ff" stroke="#63b8ff" points="1131.7,-21.18 1140.54,-15.35 1129.99,-14.39 1131.7,-21.18"/>
</a>
</g>
</g>
<!-- Node43 -->
<g id="Node000043" class="node">
<title>Node43</title>
<g id="a_Node000043"><a xlink:title=" ">
<polygon fill="#e0e0e0" stroke="#999999" points="1160,-195 1034,-195 1034,-176 1160,-176 1160,-195"/>
<text text-anchor="middle" x="1097" y="-183" font-family="Helvetica,sans-Serif" font-size="10.00">../vlayout/vlayoutdef.h</text>
</a>
</g>
</g>
<!-- Node42&#45;&gt;Node43 -->
<g id="edge45_Node000042_Node000043" class="edge">
<title>Node42&#45;&gt;Node43</title>
<g id="a_edge45_Node000042_Node000043"><a xlink:title=" ">
<path fill="none" stroke="#63b8ff" d="M1081.66,-236.37C1084.18,-228.16 1088.06,-215.54 1091.29,-205.05"/>
<polygon fill="#63b8ff" stroke="#63b8ff" points="1094.74,-205.75 1094.33,-195.17 1088.05,-203.7 1094.74,-205.75"/>
</a>
</g>
</g>
</g>
</svg>
