<?xml version="1.0" encoding="UTF-8" standalone="no"?>
<!DOCTYPE svg PUBLIC "-//W3C//DTD SVG 1.1//EN"
 "http://www.w3.org/Graphics/SVG/1.1/DTD/svg11.dtd">
<!-- Generated by graphviz version 2.43.0 (0)
 -->
<!-- Title: src/libs/vpatterndb/vtranslatemeasurements.h Pages: 1 -->
<svg width="6403pt" height="374pt"
 viewBox="0.00 0.00 6402.50 374.00" xmlns="http://www.w3.org/2000/svg" xmlns:xlink="http://www.w3.org/1999/xlink">
<g id="graph0" class="graph" transform="scale(1 1) rotate(0) translate(4 370)">
<title>src/libs/vpatterndb/vtranslatemeasurements.h</title>
<polygon fill="white" stroke="transparent" points="-4,4 -4,-370 6398.5,-370 6398.5,4 -4,4"/>
<!-- Node1 -->
<g id="node1" class="node">
<title>Node1</title>
<g id="a_node1"><a xlink:title=" ">
<polygon fill="#bfbfbf" stroke="black" points="5954,-335.5 5954,-365.5 6106,-365.5 6106,-335.5 5954,-335.5"/>
<text text-anchor="start" x="5962" y="-353.5" font-family="Helvetica,sans-Serif" font-size="10.00">src/libs/vpatterndb</text>
<text text-anchor="middle" x="6030" y="-342.5" font-family="Helvetica,sans-Serif" font-size="10.00">/vtranslatemeasurements.h</text>
</a>
</g>
</g>
<!-- Node2 -->
<g id="node2" class="node">
<title>Node2</title>
<g id="a_node2"><a xlink:href="../../dd/de9/measurements__def_8cpp.html" target="_top" xlink:title=" ">
<polygon fill="white" stroke="black" points="5652,-268.5 5652,-298.5 5786,-298.5 5786,-268.5 5652,-268.5"/>
<text text-anchor="start" x="5660" y="-286.5" font-family="Helvetica,sans-Serif" font-size="10.00">src/libs/vpatterndb</text>
<text text-anchor="middle" x="5719" y="-275.5" font-family="Helvetica,sans-Serif" font-size="10.00">/measurements_def.cpp</text>
</a>
</g>
</g>
<!-- Node1&#45;&gt;Node2 -->
<g id="edge1" class="edge">
<title>Node1&#45;&gt;Node2</title>
<path fill="none" stroke="midnightblue" d="M5952.88,-333.38C5901.73,-322.69 5835.25,-308.8 5786.25,-298.55"/>
<polygon fill="midnightblue" stroke="midnightblue" points="5952.4,-336.86 5962.9,-335.48 5953.83,-330 5952.4,-336.86"/>
</g>
<!-- Node3 -->
<g id="node3" class="node">
<title>Node3</title>
<g id="a_node3"><a xlink:href="../../da/d69/vtranslatevars_8h.html" target="_top" xlink:title=" ">
<polygon fill="white" stroke="black" points="5804.5,-268.5 5804.5,-298.5 5911.5,-298.5 5911.5,-268.5 5804.5,-268.5"/>
<text text-anchor="start" x="5812.5" y="-286.5" font-family="Helvetica,sans-Serif" font-size="10.00">src/libs/vpatterndb</text>
<text text-anchor="middle" x="5858" y="-275.5" font-family="Helvetica,sans-Serif" font-size="10.00">/vtranslatevars.h</text>
</a>
</g>
</g>
<!-- Node1&#45;&gt;Node3 -->
<g id="edge2" class="edge">
<title>Node1&#45;&gt;Node3</title>
<path fill="none" stroke="midnightblue" d="M5983.21,-331.82C5955.57,-321.37 5921.04,-308.32 5895.25,-298.58"/>
<polygon fill="midnightblue" stroke="midnightblue" points="5982.09,-335.13 5992.68,-335.4 5984.56,-328.59 5982.09,-335.13"/>
</g>
<!-- Node49 -->
<g id="node26" class="node">
<title>Node49</title>
<g id="a_node26"><a xlink:href="../../de/d3e/vtranslatevars_8cpp.html" target="_top" xlink:title=" ">
<polygon fill="white" stroke="black" points="6199,-67.5 6199,-97.5 6309,-97.5 6309,-67.5 6199,-67.5"/>
<text text-anchor="start" x="6207" y="-85.5" font-family="Helvetica,sans-Serif" font-size="10.00">src/libs/vpatterndb</text>
<text text-anchor="middle" x="6254" y="-74.5" font-family="Helvetica,sans-Serif" font-size="10.00">/vtranslatevars.cpp</text>
</a>
</g>
</g>
<!-- Node1&#45;&gt;Node49 -->
<g id="edge62" class="edge">
<title>Node1&#45;&gt;Node49</title>
<path fill="none" stroke="midnightblue" d="M6056.24,-328.8C6083.48,-306.58 6126.44,-269.39 6158,-232 6196.22,-186.72 6231.37,-125.31 6246.36,-97.83"/>
<polygon fill="midnightblue" stroke="midnightblue" points="6053.9,-326.2 6048.32,-335.2 6058.3,-331.64 6053.9,-326.2"/>
</g>
<!-- Node76 -->
<g id="node50" class="node">
<title>Node76</title>
<g id="a_node50"><a xlink:href="../../d0/d50/vtranslatemeasurements_8cpp.html" target="_top" xlink:title=" ">
<polygon fill="white" stroke="black" points="6231.5,-268.5 6231.5,-298.5 6394.5,-298.5 6394.5,-268.5 6231.5,-268.5"/>
<text text-anchor="start" x="6239.5" y="-286.5" font-family="Helvetica,sans-Serif" font-size="10.00">src/libs/vpatterndb</text>
<text text-anchor="middle" x="6313" y="-275.5" font-family="Helvetica,sans-Serif" font-size="10.00">/vtranslatemeasurements.cpp</text>
</a>
</g>
</g>
<!-- Node1&#45;&gt;Node76 -->
<g id="edge63" class="edge">
<title>Node1&#45;&gt;Node76</title>
<path fill="none" stroke="midnightblue" d="M6101.03,-333.19C6147.38,-322.54 6207.27,-308.78 6251.56,-298.61"/>
<polygon fill="midnightblue" stroke="midnightblue" points="6100.02,-329.83 6091.06,-335.48 6101.59,-336.65 6100.02,-329.83"/>
</g>
<!-- Node4 -->
<g id="node4" class="node">
<title>Node4</title>
<g id="a_node4"><a xlink:href="../../d2/d47/image__dialog_8cpp.html" target="_top" xlink:title=" ">
<polygon fill="white" stroke="black" points="5943,-67.5 5943,-97.5 6055,-97.5 6055,-67.5 5943,-67.5"/>
<text text-anchor="start" x="5951" y="-85.5" font-family="Helvetica,sans-Serif" font-size="10.00">src/libs/tools/image</text>
<text text-anchor="middle" x="5999" y="-74.5" font-family="Helvetica,sans-Serif" font-size="10.00">_dialog.cpp</text>
</a>
</g>
</g>
<!-- Node3&#45;&gt;Node4 -->
<g id="edge3" class="edge">
<title>Node3&#45;&gt;Node4</title>
<path fill="none" stroke="midnightblue" d="M5794.35,-268.05C5708.26,-251.67 5586.33,-262.16 5631,-201 5649.84,-175.21 5844.42,-122.74 5942.76,-97.57"/>
<polygon fill="midnightblue" stroke="midnightblue" points="5793.89,-271.52 5804.39,-270.12 5795.31,-264.67 5793.89,-271.52"/>
</g>
<!-- Node5 -->
<g id="node5" class="node">
<title>Node5</title>
<g id="a_node5"><a xlink:href="../../d5/d74/vabstractapplication_8h.html" target="_top" xlink:title=" ">
<polygon fill="white" stroke="black" points="3400.5,-140 3400.5,-159 3595.5,-159 3595.5,-140 3400.5,-140"/>
<text text-anchor="middle" x="3498" y="-147" font-family="Helvetica,sans-Serif" font-size="10.00">src/libs/vmisc/vabstractapplication.h</text>
</a>
</g>
</g>
<!-- Node3&#45;&gt;Node5 -->
<g id="edge4" class="edge">
<title>Node3&#45;&gt;Node5</title>
<path fill="none" stroke="midnightblue" d="M5794.25,-268.09C5339.76,-206.66 3973.47,-164.07 3595.69,-153.22"/>
<polygon fill="midnightblue" stroke="midnightblue" points="5793.78,-271.56 5804.16,-269.46 5794.73,-264.63 5793.78,-271.56"/>
</g>
<!-- Node44 -->
<g id="node22" class="node">
<title>Node44</title>
<g id="a_node22"><a xlink:href="../../d6/d46/vcontainer_8cpp.html" target="_top" xlink:title=" ">
<polygon fill="white" stroke="black" points="6073.5,-67.5 6073.5,-97.5 6180.5,-97.5 6180.5,-67.5 6073.5,-67.5"/>
<text text-anchor="start" x="6081.5" y="-85.5" font-family="Helvetica,sans-Serif" font-size="10.00">src/libs/vpatterndb</text>
<text text-anchor="middle" x="6127" y="-74.5" font-family="Helvetica,sans-Serif" font-size="10.00">/vcontainer.cpp</text>
</a>
</g>
</g>
<!-- Node3&#45;&gt;Node44 -->
<g id="edge56" class="edge">
<title>Node3&#45;&gt;Node44</title>
<path fill="none" stroke="midnightblue" d="M5921.82,-278.04C5987.67,-272.03 6084.18,-258.83 6109,-232 6143.74,-194.44 6135.67,-126.75 6130.11,-97.54"/>
<polygon fill="midnightblue" stroke="midnightblue" points="5921.18,-274.58 5911.53,-278.94 5921.8,-281.55 5921.18,-274.58"/>
</g>
<!-- Node48 -->
<g id="node25" class="node">
<title>Node48</title>
<g id="a_node25"><a xlink:href="../../db/d11/vformula_8cpp.html" target="_top" xlink:title=" ">
<polygon fill="white" stroke="black" points="208.5,-67.5 208.5,-97.5 315.5,-97.5 315.5,-67.5 208.5,-67.5"/>
<text text-anchor="start" x="216.5" y="-85.5" font-family="Helvetica,sans-Serif" font-size="10.00">src/libs/vpatterndb</text>
<text text-anchor="middle" x="262" y="-74.5" font-family="Helvetica,sans-Serif" font-size="10.00">/vformula.cpp</text>
</a>
</g>
</g>
<!-- Node3&#45;&gt;Node48 -->
<g id="edge57" class="edge">
<title>Node3&#45;&gt;Node48</title>
<path fill="none" stroke="midnightblue" d="M5793.83,-268.13C5188.72,-203.25 1278.74,-277.66 720,-232 528.98,-216.39 443.47,-284.97 294,-165 273.25,-148.35 265.92,-116.38 263.35,-97.81"/>
<polygon fill="midnightblue" stroke="midnightblue" points="5793.85,-271.66 5804.18,-269.3 5794.63,-264.7 5793.85,-271.66"/>
</g>
<!-- Node3&#45;&gt;Node49 -->
<g id="edge58" class="edge">
<title>Node3&#45;&gt;Node49</title>
<path fill="none" stroke="midnightblue" d="M5921.74,-276.82C5991.53,-269.56 6097.95,-255.08 6131,-232 6172.49,-203.02 6155.54,-171.97 6189,-134 6201.47,-119.85 6218.36,-106.86 6231.8,-97.61"/>
<polygon fill="midnightblue" stroke="midnightblue" points="5921.31,-273.35 5911.72,-277.84 5922.02,-280.31 5921.31,-273.35"/>
</g>
<!-- Node62 -->
<g id="node42" class="node">
<title>Node62</title>
<g id="a_node42"><a xlink:href="../../d3/df7/vcontainer_8h.html" target="_top" xlink:title=" ">
<polygon fill="white" stroke="red" points="729.5,-201.5 729.5,-231.5 836.5,-231.5 836.5,-201.5 729.5,-201.5"/>
<text text-anchor="start" x="737.5" y="-219.5" font-family="Helvetica,sans-Serif" font-size="10.00">src/libs/vpatterndb</text>
<text text-anchor="middle" x="783" y="-208.5" font-family="Helvetica,sans-Serif" font-size="10.00">/vcontainer.h</text>
</a>
</g>
</g>
<!-- Node3&#45;&gt;Node62 -->
<g id="edge43" class="edge">
<title>Node3&#45;&gt;Node62</title>
<path fill="none" stroke="midnightblue" d="M5794.19,-268.28C5446.53,-236.86 1354.07,-219.76 836.66,-217.71"/>
<polygon fill="midnightblue" stroke="midnightblue" points="5793.87,-271.76 5804.18,-269.31 5794.59,-264.8 5793.87,-271.76"/>
</g>
<!-- Node73 -->
<g id="node47" class="node">
<title>Node73</title>
<g id="a_node47"><a xlink:href="../../df/de5/dialogspline_8cpp.html" target="_top" xlink:title=" ">
<polygon fill="white" stroke="black" points="5640,-201.5 5640,-231.5 5766,-231.5 5766,-201.5 5640,-201.5"/>
<text text-anchor="start" x="5648" y="-219.5" font-family="Helvetica,sans-Serif" font-size="10.00">src/libs/vtools/dialogs</text>
<text text-anchor="middle" x="5703" y="-208.5" font-family="Helvetica,sans-Serif" font-size="10.00">/tools/dialogspline.cpp</text>
</a>
</g>
</g>
<!-- Node3&#45;&gt;Node73 -->
<g id="edge59" class="edge">
<title>Node3&#45;&gt;Node73</title>
<path fill="none" stroke="midnightblue" d="M5814.85,-264.41C5790.11,-254.03 5759.5,-241.2 5736.57,-231.58"/>
<polygon fill="midnightblue" stroke="midnightblue" points="5813.79,-267.76 5824.37,-268.4 5816.5,-261.3 5813.79,-267.76"/>
</g>
<!-- Node74 -->
<g id="node48" class="node">
<title>Node74</title>
<g id="a_node48"><a xlink:href="../../dc/dc2/dialogsplinepath_8cpp.html" target="_top" xlink:title=" ">
<polygon fill="white" stroke="black" points="5784,-201.5 5784,-231.5 5932,-231.5 5932,-201.5 5784,-201.5"/>
<text text-anchor="start" x="5792" y="-219.5" font-family="Helvetica,sans-Serif" font-size="10.00">src/libs/vtools/dialogs</text>
<text text-anchor="middle" x="5858" y="-208.5" font-family="Helvetica,sans-Serif" font-size="10.00">/tools/dialogsplinepath.cpp</text>
</a>
</g>
</g>
<!-- Node3&#45;&gt;Node74 -->
<g id="edge60" class="edge">
<title>Node3&#45;&gt;Node74</title>
<path fill="none" stroke="midnightblue" d="M5858,-258.11C5858,-249.15 5858,-239.32 5858,-231.58"/>
<polygon fill="midnightblue" stroke="midnightblue" points="5854.5,-258.4 5858,-268.4 5861.5,-258.4 5854.5,-258.4"/>
</g>
<!-- Node75 -->
<g id="node49" class="node">
<title>Node75</title>
<g id="a_node49"><a xlink:href="../../d1/d75/vistoolendline_8cpp.html" target="_top" xlink:title=" ">
<polygon fill="white" stroke="black" points="5950.5,-201.5 5950.5,-231.5 6099.5,-231.5 6099.5,-201.5 5950.5,-201.5"/>
<text text-anchor="start" x="5958.5" y="-219.5" font-family="Helvetica,sans-Serif" font-size="10.00">src/libs/vtools/visualization</text>
<text text-anchor="middle" x="6025" y="-208.5" font-family="Helvetica,sans-Serif" font-size="10.00">/line/vistoolendline.cpp</text>
</a>
</g>
</g>
<!-- Node3&#45;&gt;Node75 -->
<g id="edge61" class="edge">
<title>Node3&#45;&gt;Node75</title>
<path fill="none" stroke="midnightblue" d="M5903.78,-264.68C5930.56,-254.26 5963.9,-241.28 5988.83,-231.58"/>
<polygon fill="midnightblue" stroke="midnightblue" points="5902.29,-261.51 5894.24,-268.4 5904.83,-268.03 5902.29,-261.51"/>
</g>
<!-- Node5&#45;&gt;Node4 -->
<g id="edge7" class="edge">
<title>Node5&#45;&gt;Node4</title>
<path fill="none" stroke="midnightblue" d="M3605.75,-145.69C3724.03,-142.64 3919.54,-137.71 4088,-134 4498.2,-124.96 5526.63,-146.91 5934,-98 5936.87,-97.66 5939.8,-97.24 5942.75,-96.77"/>
<polygon fill="midnightblue" stroke="midnightblue" points="3605.51,-142.19 3595.61,-145.95 3605.7,-149.19 3605.51,-142.19"/>
</g>
<!-- Node6 -->
<g id="node6" class="node">
<title>Node6</title>
<g id="a_node6"><a xlink:href="../../d4/d90/fvupdater_8cpp.html" target="_top" xlink:title=" ">
<polygon fill="white" stroke="black" points="4479.5,-73 4479.5,-92 4632.5,-92 4632.5,-73 4479.5,-73"/>
<text text-anchor="middle" x="4556" y="-80" font-family="Helvetica,sans-Serif" font-size="10.00">src/libs/fervor/fvupdater.cpp</text>
</a>
</g>
</g>
<!-- Node5&#45;&gt;Node6 -->
<g id="edge5" class="edge">
<title>Node5&#45;&gt;Node6</title>
<path fill="none" stroke="midnightblue" d="M3605.93,-147.02C3785.8,-143.63 4158.07,-132.69 4471,-98 4484.39,-96.52 4498.87,-94.28 4512.02,-92.01"/>
<polygon fill="midnightblue" stroke="midnightblue" points="3605.6,-143.53 3595.67,-147.21 3605.73,-150.52 3605.6,-143.53"/>
</g>
<!-- Node7 -->
<g id="node7" class="node">
<title>Node7</title>
<g id="a_node7"><a xlink:href="../../d1/d8d/image__item_8h.html" target="_top" xlink:title=" ">
<polygon fill="white" stroke="red" points="4651,-67.5 4651,-97.5 4763,-97.5 4763,-67.5 4651,-67.5"/>
<text text-anchor="start" x="4659" y="-85.5" font-family="Helvetica,sans-Serif" font-size="10.00">src/libs/tools/image</text>
<text text-anchor="middle" x="4707" y="-74.5" font-family="Helvetica,sans-Serif" font-size="10.00">_item.h</text>
</a>
</g>
</g>
<!-- Node5&#45;&gt;Node7 -->
<g id="edge6" class="edge">
<title>Node5&#45;&gt;Node7</title>
<path fill="none" stroke="midnightblue" d="M3605.89,-146.15C3851,-140.43 4443.82,-124.27 4642,-98 4644.87,-97.62 4647.79,-97.18 4650.74,-96.68"/>
<polygon fill="midnightblue" stroke="midnightblue" points="3605.46,-142.66 3595.55,-146.39 3605.62,-149.66 3605.46,-142.66"/>
</g>
<!-- Node28 -->
<g id="node8" class="node">
<title>Node28</title>
<g id="a_node8"><a xlink:href="../../d9/dc8/dxiface_8cpp.html" target="_top" xlink:title=" ">
<polygon fill="white" stroke="black" points="4781.5,-73 4781.5,-92 4916.5,-92 4916.5,-73 4781.5,-73"/>
<text text-anchor="middle" x="4849" y="-80" font-family="Helvetica,sans-Serif" font-size="10.00">src/libs/vdxf/dxiface.cpp</text>
</a>
</g>
</g>
<!-- Node5&#45;&gt;Node28 -->
<g id="edge8" class="edge">
<title>Node5&#45;&gt;Node28</title>
<path fill="none" stroke="midnightblue" d="M3605.6,-146.26C3870.21,-140.44 4547.38,-123.46 4772,-98 4784.3,-96.61 4797.58,-94.37 4809.6,-92.07"/>
<polygon fill="midnightblue" stroke="midnightblue" points="3605.52,-142.77 3595.6,-146.48 3605.68,-149.76 3605.52,-142.77"/>
</g>
<!-- Node29 -->
<g id="node9" class="node">
<title>Node29</title>
<g id="a_node9"><a xlink:href="../../da/d75/vabstractarc__p_8h.html" target="_top" xlink:title=" ">
<polygon fill="white" stroke="red" points="4934.5,-67.5 4934.5,-97.5 5041.5,-97.5 5041.5,-67.5 4934.5,-67.5"/>
<text text-anchor="start" x="4942.5" y="-85.5" font-family="Helvetica,sans-Serif" font-size="10.00">src/libs/vgeometry</text>
<text text-anchor="middle" x="4988" y="-74.5" font-family="Helvetica,sans-Serif" font-size="10.00">/vabstractarc_p.h</text>
</a>
</g>
</g>
<!-- Node5&#45;&gt;Node29 -->
<g id="edge9" class="edge">
<title>Node5&#45;&gt;Node29</title>
<path fill="none" stroke="midnightblue" d="M3605.92,-145.89C3916.19,-138.23 4796.72,-115.24 4926,-98 4928.74,-97.63 4931.53,-97.2 4934.35,-96.72"/>
<polygon fill="midnightblue" stroke="midnightblue" points="3605.48,-142.4 3595.57,-146.15 3605.65,-149.4 3605.48,-142.4"/>
</g>
<!-- Node31 -->
<g id="node10" class="node">
<title>Node31</title>
<g id="a_node10"><a xlink:href="../../dc/da3/varc__p_8h.html" target="_top" xlink:title=" ">
<polygon fill="white" stroke="red" points="5059.5,-67.5 5059.5,-97.5 5166.5,-97.5 5166.5,-67.5 5059.5,-67.5"/>
<text text-anchor="start" x="5067.5" y="-85.5" font-family="Helvetica,sans-Serif" font-size="10.00">src/libs/vgeometry</text>
<text text-anchor="middle" x="5113" y="-74.5" font-family="Helvetica,sans-Serif" font-size="10.00">/varc_p.h</text>
</a>
</g>
</g>
<!-- Node5&#45;&gt;Node31 -->
<g id="edge10" class="edge">
<title>Node5&#45;&gt;Node31</title>
<path fill="none" stroke="midnightblue" d="M3605.86,-145.58C3946.27,-136.27 4979.6,-107.42 5051,-98 5053.74,-97.64 5056.54,-97.21 5059.35,-96.73"/>
<polygon fill="midnightblue" stroke="midnightblue" points="3605.65,-142.08 3595.75,-145.85 3605.84,-149.08 3605.65,-142.08"/>
</g>
<!-- Node33 -->
<g id="node11" class="node">
<title>Node33</title>
<g id="a_node11"><a xlink:href="../../d5/d8e/vcubicbezier__p_8h.html" target="_top" xlink:title=" ">
<polygon fill="white" stroke="red" points="5184.5,-67.5 5184.5,-97.5 5291.5,-97.5 5291.5,-67.5 5184.5,-67.5"/>
<text text-anchor="start" x="5192.5" y="-85.5" font-family="Helvetica,sans-Serif" font-size="10.00">src/libs/vgeometry</text>
<text text-anchor="middle" x="5238" y="-74.5" font-family="Helvetica,sans-Serif" font-size="10.00">/vcubicbezier_p.h</text>
</a>
</g>
</g>
<!-- Node5&#45;&gt;Node33 -->
<g id="edge11" class="edge">
<title>Node5&#45;&gt;Node33</title>
<path fill="none" stroke="midnightblue" d="M3605.83,-145.85C3964.35,-136.95 5098.22,-108.16 5176,-98 5178.74,-97.64 5181.54,-97.22 5184.35,-96.74"/>
<polygon fill="midnightblue" stroke="midnightblue" points="3605.62,-142.35 3595.71,-146.1 3605.79,-149.35 3605.62,-142.35"/>
</g>
<!-- Node35 -->
<g id="node12" class="node">
<title>Node35</title>
<g id="a_node12"><a xlink:href="../../df/dde/vellipticalarc__p_8h.html" target="_top" xlink:title=" ">
<polygon fill="white" stroke="black" points="5348.5,-67.5 5348.5,-97.5 5455.5,-97.5 5455.5,-67.5 5348.5,-67.5"/>
<text text-anchor="start" x="5356.5" y="-85.5" font-family="Helvetica,sans-Serif" font-size="10.00">src/libs/vgeometry</text>
<text text-anchor="middle" x="5402" y="-74.5" font-family="Helvetica,sans-Serif" font-size="10.00">/vellipticalarc_p.h</text>
</a>
</g>
</g>
<!-- Node5&#45;&gt;Node35 -->
<g id="edge12" class="edge">
<title>Node5&#45;&gt;Node35</title>
<path fill="none" stroke="midnightblue" d="M3605.79,-145.8C3992.7,-136.08 5290.91,-103.14 5334,-98 5338.67,-97.44 5343.5,-96.72 5348.33,-95.89"/>
<polygon fill="midnightblue" stroke="midnightblue" points="3605.63,-142.3 3595.72,-146.05 3605.8,-149.3 3605.63,-142.3"/>
</g>
<!-- Node36 -->
<g id="node13" class="node">
<title>Node36</title>
<g id="a_node13"><a xlink:href="../../d6/dfb/vellipticalarc_8cpp.html" target="_top" xlink:title=" ">
<polygon fill="white" stroke="black" points="5307.5,-0.5 5307.5,-30.5 5414.5,-30.5 5414.5,-0.5 5307.5,-0.5"/>
<text text-anchor="start" x="5315.5" y="-18.5" font-family="Helvetica,sans-Serif" font-size="10.00">src/libs/vgeometry</text>
<text text-anchor="middle" x="5361" y="-7.5" font-family="Helvetica,sans-Serif" font-size="10.00">/vellipticalarc.cpp</text>
</a>
</g>
</g>
<!-- Node5&#45;&gt;Node36 -->
<g id="edge14" class="edge">
<title>Node5&#45;&gt;Node36</title>
<path fill="none" stroke="midnightblue" d="M3605.73,-145.79C3992.9,-136.03 5291.56,-102.94 5301,-98 5328.71,-83.5 5346.89,-49.76 5355.4,-30.55"/>
<polygon fill="midnightblue" stroke="midnightblue" points="3605.55,-142.3 3595.64,-146.05 3605.73,-149.3 3605.55,-142.3"/>
</g>
<!-- Node37 -->
<g id="node14" class="node">
<title>Node37</title>
<g id="a_node14"><a xlink:href="../../d1/d76/vspline__p_8h.html" target="_top" xlink:title=" ">
<polygon fill="white" stroke="red" points="5473.5,-67.5 5473.5,-97.5 5580.5,-97.5 5580.5,-67.5 5473.5,-67.5"/>
<text text-anchor="start" x="5481.5" y="-85.5" font-family="Helvetica,sans-Serif" font-size="10.00">src/libs/vgeometry</text>
<text text-anchor="middle" x="5527" y="-74.5" font-family="Helvetica,sans-Serif" font-size="10.00">/vspline_p.h</text>
</a>
</g>
</g>
<!-- Node5&#45;&gt;Node37 -->
<g id="edge15" class="edge">
<title>Node5&#45;&gt;Node37</title>
<path fill="none" stroke="midnightblue" d="M3605.64,-145.81C4015.11,-135.56 5453.38,-99.49 5465,-98 5467.74,-97.65 5470.54,-97.23 5473.35,-96.75"/>
<polygon fill="midnightblue" stroke="midnightblue" points="3605.48,-142.31 3595.57,-146.06 3605.66,-149.31 3605.48,-142.31"/>
</g>
<!-- Node39 -->
<g id="node15" class="node">
<title>Node39</title>
<g id="a_node15"><a xlink:href="../../d9/d15/vabstractpiece_8cpp.html" target="_top" xlink:title=" ">
<polygon fill="white" stroke="black" points="5599,-73 5599,-92 5785,-92 5785,-73 5599,-73"/>
<text text-anchor="middle" x="5692" y="-80" font-family="Helvetica,sans-Serif" font-size="10.00">src/libs/vlayout/vabstractpiece.cpp</text>
</a>
</g>
</g>
<!-- Node5&#45;&gt;Node39 -->
<g id="edge16" class="edge">
<title>Node5&#45;&gt;Node39</title>
<path fill="none" stroke="midnightblue" d="M3605.75,-145.83C3724.04,-142.91 3919.54,-138.09 4088,-134 4755.55,-117.8 4924.53,-153.08 5590,-98 5606.49,-96.64 5624.38,-94.36 5640.5,-92.02"/>
<polygon fill="midnightblue" stroke="midnightblue" points="3605.52,-142.34 3595.61,-146.08 3605.69,-149.33 3605.52,-142.34"/>
</g>
<!-- Node17 -->
<g id="node16" class="node">
<title>Node17</title>
<g id="a_node16"><a xlink:href="../../dd/d70/vlayoutpiece_8cpp.html" target="_top" xlink:title=" ">
<polygon fill="white" stroke="black" points="333.5,-73 333.5,-92 510.5,-92 510.5,-73 333.5,-73"/>
<text text-anchor="middle" x="422" y="-80" font-family="Helvetica,sans-Serif" font-size="10.00">src/libs/vlayout/vlayoutpiece.cpp</text>
</a>
</g>
</g>
<!-- Node5&#45;&gt;Node17 -->
<g id="edge17" class="edge">
<title>Node5&#45;&gt;Node17</title>
<path fill="none" stroke="midnightblue" d="M3390.44,-148.55C2926.51,-148.48 1094.41,-145.16 520,-98 503.97,-96.68 486.58,-94.4 470.96,-92.02"/>
<polygon fill="midnightblue" stroke="midnightblue" points="3390.48,-152.05 3400.48,-148.55 3390.48,-145.05 3390.48,-152.05"/>
</g>
<!-- Node20 -->
<g id="node17" class="node">
<title>Node20</title>
<g id="a_node17"><a xlink:href="../../d8/d70/vtextmanager_8cpp.html" target="_top" xlink:title=" ">
<polygon fill="white" stroke="black" points="529,-73 529,-92 711,-92 711,-73 529,-73"/>
<text text-anchor="middle" x="620" y="-80" font-family="Helvetica,sans-Serif" font-size="10.00">src/libs/vlayout/vtextmanager.cpp</text>
</a>
</g>
</g>
<!-- Node5&#45;&gt;Node20 -->
<g id="edge18" class="edge">
<title>Node5&#45;&gt;Node20</title>
<path fill="none" stroke="midnightblue" d="M3390.03,-148.35C2945.2,-147.48 1252.78,-141.3 720,-98 703.65,-96.67 685.91,-94.38 669.96,-92"/>
<polygon fill="midnightblue" stroke="midnightblue" points="3390.3,-151.86 3400.31,-148.37 3390.32,-144.86 3390.3,-151.86"/>
</g>
<!-- Node40 -->
<g id="node18" class="node">
<title>Node40</title>
<g id="a_node18"><a xlink:href="../../d6/d0b/def_8cpp.html" target="_top" xlink:title=" ">
<polygon fill="white" stroke="black" points="5803,-73 5803,-92 5925,-92 5925,-73 5803,-73"/>
<text text-anchor="middle" x="5864" y="-80" font-family="Helvetica,sans-Serif" font-size="10.00">src/libs/vmisc/def.cpp</text>
</a>
</g>
</g>
<!-- Node5&#45;&gt;Node40 -->
<g id="edge19" class="edge">
<title>Node5&#45;&gt;Node40</title>
<path fill="none" stroke="midnightblue" d="M3605.75,-145.74C3724.03,-142.74 3919.54,-137.85 4088,-134 4467.1,-125.34 5417.21,-140.64 5794,-98 5805.47,-96.7 5817.84,-94.43 5828.95,-92.07"/>
<polygon fill="midnightblue" stroke="midnightblue" points="3605.52,-142.24 3595.61,-146 3605.69,-149.24 3605.52,-142.24"/>
</g>
<!-- Node41 -->
<g id="node19" class="node">
<title>Node41</title>
<g id="a_node19"><a xlink:href="../../db/d65/dialogexporttocsv_8cpp.html" target="_top" xlink:title=" ">
<polygon fill="white" stroke="black" points="854.5,-67.5 854.5,-97.5 981.5,-97.5 981.5,-67.5 854.5,-67.5"/>
<text text-anchor="start" x="862.5" y="-85.5" font-family="Helvetica,sans-Serif" font-size="10.00">src/libs/vmisc/dialogs</text>
<text text-anchor="middle" x="918" y="-74.5" font-family="Helvetica,sans-Serif" font-size="10.00">/dialogexporttocsv.cpp</text>
</a>
</g>
</g>
<!-- Node5&#45;&gt;Node41 -->
<g id="edge20" class="edge">
<title>Node5&#45;&gt;Node41</title>
<path fill="none" stroke="midnightblue" d="M3390.24,-148.85C2973.43,-149.83 1466.6,-149.62 991,-98 987.92,-97.67 984.77,-97.27 981.6,-96.82"/>
<polygon fill="midnightblue" stroke="midnightblue" points="3390.48,-152.35 3400.47,-148.83 3390.47,-145.35 3390.48,-152.35"/>
</g>
<!-- Node42 -->
<g id="node20" class="node">
<title>Node42</title>
<g id="a_node20"><a xlink:href="../../d0/df6/vabstractapplication_8cpp.html" target="_top" xlink:title=" ">
<polygon fill="white" stroke="black" points="1000,-73 1000,-92 1206,-92 1206,-73 1000,-73"/>
<text text-anchor="middle" x="1103" y="-80" font-family="Helvetica,sans-Serif" font-size="10.00">src/libs/vmisc/vabstractapplication.cpp</text>
</a>
</g>
</g>
<!-- Node5&#45;&gt;Node42 -->
<g id="edge21" class="edge">
<title>Node5&#45;&gt;Node42</title>
<path fill="none" stroke="midnightblue" d="M3390.2,-147.64C2997.75,-144.28 1645.79,-130.56 1215,-98 1196.92,-96.63 1177.28,-94.36 1159.57,-92.02"/>
<polygon fill="midnightblue" stroke="midnightblue" points="3390.38,-151.14 3400.41,-147.73 3390.44,-144.14 3390.38,-151.14"/>
</g>
<!-- Node43 -->
<g id="node21" class="node">
<title>Node43</title>
<g id="a_node21"><a xlink:href="../../d4/d4f/pmsystems_8cpp.html" target="_top" xlink:title=" ">
<polygon fill="white" stroke="black" points="1224.5,-67.5 1224.5,-97.5 1331.5,-97.5 1331.5,-67.5 1224.5,-67.5"/>
<text text-anchor="start" x="1232.5" y="-85.5" font-family="Helvetica,sans-Serif" font-size="10.00">src/libs/vpatterndb</text>
<text text-anchor="middle" x="1278" y="-74.5" font-family="Helvetica,sans-Serif" font-size="10.00">/pmsystems.cpp</text>
</a>
</g>
</g>
<!-- Node5&#45;&gt;Node43 -->
<g id="edge22" class="edge">
<title>Node5&#45;&gt;Node43</title>
<path fill="none" stroke="midnightblue" d="M3390.23,-148.92C3011.55,-149.92 1743.05,-149.29 1340,-98 1337.26,-97.65 1334.46,-97.23 1331.65,-96.76"/>
<polygon fill="midnightblue" stroke="midnightblue" points="3390.38,-152.42 3400.37,-148.89 3390.36,-145.42 3390.38,-152.42"/>
</g>
<!-- Node5&#45;&gt;Node44 -->
<g id="edge23" class="edge">
<title>Node5&#45;&gt;Node44</title>
<path fill="none" stroke="midnightblue" d="M3605.74,-147.69C4061.4,-144.1 5818.03,-128.39 6064,-98 6067.01,-97.63 6070.08,-97.17 6073.17,-96.66"/>
<polygon fill="midnightblue" stroke="midnightblue" points="3605.52,-144.19 3595.55,-147.77 3605.57,-151.19 3605.52,-144.19"/>
</g>
<!-- Node45 -->
<g id="node23" class="node">
<title>Node45</title>
<g id="a_node23"><a xlink:href="../../df/d7a/vpiece_8cpp.html" target="_top" xlink:title=" ">
<polygon fill="white" stroke="black" points="729.5,-67.5 729.5,-97.5 836.5,-97.5 836.5,-67.5 729.5,-67.5"/>
<text text-anchor="start" x="737.5" y="-85.5" font-family="Helvetica,sans-Serif" font-size="10.00">src/libs/vpatterndb</text>
<text text-anchor="middle" x="783" y="-74.5" font-family="Helvetica,sans-Serif" font-size="10.00">/vpiece.cpp</text>
</a>
</g>
</g>
<!-- Node5&#45;&gt;Node45 -->
<g id="edge24" class="edge">
<title>Node5&#45;&gt;Node45</title>
<path fill="none" stroke="midnightblue" d="M3390.08,-147.79C2924.49,-144.54 1099.89,-129.87 845,-98 842.26,-97.66 839.46,-97.24 836.64,-96.77"/>
<polygon fill="midnightblue" stroke="midnightblue" points="3390.14,-151.29 3400.16,-147.86 3390.19,-144.29 3390.14,-151.29"/>
</g>
<!-- Node46 -->
<g id="node24" class="node">
<title>Node46</title>
<g id="a_node24"><a xlink:href="../../df/dba/vpiecenode__p_8h.html" target="_top" xlink:title=" ">
<polygon fill="white" stroke="red" points="1349.5,-67.5 1349.5,-97.5 1456.5,-97.5 1456.5,-67.5 1349.5,-67.5"/>
<text text-anchor="start" x="1357.5" y="-85.5" font-family="Helvetica,sans-Serif" font-size="10.00">src/libs/vpatterndb</text>
<text text-anchor="middle" x="1403" y="-74.5" font-family="Helvetica,sans-Serif" font-size="10.00">/vpiecenode_p.h</text>
</a>
</g>
</g>
<!-- Node5&#45;&gt;Node46 -->
<g id="edge25" class="edge">
<title>Node5&#45;&gt;Node46</title>
<path fill="none" stroke="midnightblue" d="M3390.32,-148.73C3026.19,-149.07 1842.53,-146.32 1465,-98 1462.26,-97.65 1459.46,-97.23 1456.65,-96.76"/>
<polygon fill="midnightblue" stroke="midnightblue" points="3390.34,-152.23 3400.34,-148.72 3390.33,-145.23 3390.34,-152.23"/>
</g>
<!-- Node5&#45;&gt;Node48 -->
<g id="edge26" class="edge">
<title>Node5&#45;&gt;Node48</title>
<path fill="none" stroke="midnightblue" d="M3390.19,-148.15C2870.12,-146.3 633.03,-136.15 324,-98 321.26,-97.66 318.46,-97.25 315.64,-96.79"/>
<polygon fill="midnightblue" stroke="midnightblue" points="3390.3,-151.65 3400.31,-148.19 3390.32,-144.65 3390.3,-151.65"/>
</g>
<!-- Node5&#45;&gt;Node49 -->
<g id="edge27" class="edge">
<title>Node5&#45;&gt;Node49</title>
<path fill="none" stroke="midnightblue" d="M3605.93,-147.78C4075.79,-144.45 5930.96,-129.44 6190,-98 6192.94,-97.64 6195.94,-97.21 6198.97,-96.72"/>
<polygon fill="midnightblue" stroke="midnightblue" points="3605.73,-144.28 3595.76,-147.85 3605.78,-151.28 3605.73,-144.28"/>
</g>
<!-- Node23 -->
<g id="node27" class="node">
<title>Node23</title>
<g id="a_node27"><a xlink:href="../../df/d40/export__format__combobox_8cpp.html" target="_top" xlink:title=" ">
<polygon fill="white" stroke="black" points="1474.5,-67.5 1474.5,-97.5 1607.5,-97.5 1607.5,-67.5 1474.5,-67.5"/>
<text text-anchor="start" x="1482.5" y="-85.5" font-family="Helvetica,sans-Serif" font-size="10.00">src/libs/vwidgets/export</text>
<text text-anchor="middle" x="1541" y="-74.5" font-family="Helvetica,sans-Serif" font-size="10.00">_format_combobox.cpp</text>
</a>
</g>
</g>
<!-- Node5&#45;&gt;Node23 -->
<g id="edge28" class="edge">
<title>Node5&#45;&gt;Node23</title>
<path fill="none" stroke="midnightblue" d="M3390.26,-147.9C3044.35,-145.61 1964.35,-135.55 1617,-98 1613.93,-97.67 1610.8,-97.28 1607.64,-96.84"/>
<polygon fill="midnightblue" stroke="midnightblue" points="3390.25,-151.4 3400.27,-147.96 3390.3,-144.4 3390.25,-151.4"/>
</g>
<!-- Node50 -->
<g id="node28" class="node">
<title>Node50</title>
<g id="a_node28"><a xlink:href="../../d3/d4f/mouse__coordinates_8cpp.html" target="_top" xlink:title=" ">
<polygon fill="white" stroke="black" points="1626,-67.5 1626,-97.5 1760,-97.5 1760,-67.5 1626,-67.5"/>
<text text-anchor="start" x="1634" y="-85.5" font-family="Helvetica,sans-Serif" font-size="10.00">src/libs/vwidgets/mouse</text>
<text text-anchor="middle" x="1693" y="-74.5" font-family="Helvetica,sans-Serif" font-size="10.00">_coordinates.cpp</text>
</a>
</g>
</g>
<!-- Node5&#45;&gt;Node50 -->
<g id="edge29" class="edge">
<title>Node5&#45;&gt;Node50</title>
<path fill="none" stroke="midnightblue" d="M3389.85,-147.6C3062.46,-144.51 2085.27,-132.57 1769,-98 1766.06,-97.68 1763.07,-97.31 1760.05,-96.89"/>
<polygon fill="midnightblue" stroke="midnightblue" points="3390.25,-151.1 3400.28,-147.69 3390.31,-144.1 3390.25,-151.1"/>
</g>
<!-- Node51 -->
<g id="node29" class="node">
<title>Node51</title>
<g id="a_node29"><a xlink:href="../../d7/d1b/pen__toolbar_8cpp.html" target="_top" xlink:title=" ">
<polygon fill="white" stroke="black" points="1778.5,-67.5 1778.5,-97.5 1897.5,-97.5 1897.5,-67.5 1778.5,-67.5"/>
<text text-anchor="start" x="1786.5" y="-85.5" font-family="Helvetica,sans-Serif" font-size="10.00">src/libs/vwidgets/pen</text>
<text text-anchor="middle" x="1838" y="-74.5" font-family="Helvetica,sans-Serif" font-size="10.00">_toolbar.cpp</text>
</a>
</g>
</g>
<!-- Node5&#45;&gt;Node51 -->
<g id="edge30" class="edge">
<title>Node5&#45;&gt;Node51</title>
<path fill="none" stroke="midnightblue" d="M3390.14,-147.59C3080.78,-144.57 2194.22,-133.02 1906,-98 1903.24,-97.67 1900.43,-97.27 1897.6,-96.84"/>
<polygon fill="midnightblue" stroke="midnightblue" points="3390.42,-151.09 3400.46,-147.69 3390.49,-144.09 3390.42,-151.09"/>
</g>
<!-- Node25 -->
<g id="node30" class="node">
<title>Node25</title>
<g id="a_node30"><a xlink:href="../../d2/d28/page__format__combobox_8cpp.html" target="_top" xlink:title=" ">
<polygon fill="white" stroke="black" points="1915.5,-67.5 1915.5,-97.5 2046.5,-97.5 2046.5,-67.5 1915.5,-67.5"/>
<text text-anchor="start" x="1923.5" y="-85.5" font-family="Helvetica,sans-Serif" font-size="10.00">src/libs/vwidgets/page</text>
<text text-anchor="middle" x="1981" y="-74.5" font-family="Helvetica,sans-Serif" font-size="10.00">_format_combobox.cpp</text>
</a>
</g>
</g>
<!-- Node5&#45;&gt;Node25 -->
<g id="edge31" class="edge">
<title>Node5&#45;&gt;Node25</title>
<path fill="none" stroke="midnightblue" d="M3390.31,-146.91C3101.52,-142.29 2314.29,-127.31 2056,-98 2052.97,-97.66 2049.88,-97.26 2046.76,-96.82"/>
<polygon fill="midnightblue" stroke="midnightblue" points="3390.32,-150.41 3400.37,-147.07 3390.43,-143.41 3390.32,-150.41"/>
</g>
<!-- Node52 -->
<g id="node31" class="node">
<title>Node52</title>
<g id="a_node31"><a xlink:href="../../d8/d76/scene__rect_8cpp.html" target="_top" xlink:title=" ">
<polygon fill="white" stroke="black" points="2065,-67.5 2065,-97.5 2195,-97.5 2195,-67.5 2065,-67.5"/>
<text text-anchor="start" x="2073" y="-85.5" font-family="Helvetica,sans-Serif" font-size="10.00">src/libs/vwidgets/scene</text>
<text text-anchor="middle" x="2130" y="-74.5" font-family="Helvetica,sans-Serif" font-size="10.00">_rect.cpp</text>
</a>
</g>
</g>
<!-- Node5&#45;&gt;Node52 -->
<g id="edge32" class="edge">
<title>Node5&#45;&gt;Node52</title>
<path fill="none" stroke="midnightblue" d="M3390.15,-146.44C3122.4,-140.97 2432.46,-124.68 2204,-98 2201.14,-97.67 2198.22,-97.28 2195.28,-96.86"/>
<polygon fill="midnightblue" stroke="midnightblue" points="3390.2,-149.94 3400.27,-146.64 3390.34,-142.94 3390.2,-149.94"/>
</g>
<!-- Node53 -->
<g id="node32" class="node">
<title>Node53</title>
<g id="a_node32"><a xlink:href="../../dd/df6/vabstractmainwindow_8cpp.html" target="_top" xlink:title=" ">
<polygon fill="white" stroke="black" points="2213.5,-73 2213.5,-92 2442.5,-92 2442.5,-73 2213.5,-73"/>
<text text-anchor="middle" x="2328" y="-80" font-family="Helvetica,sans-Serif" font-size="10.00">src/libs/vwidgets/vabstractmainwindow.cpp</text>
</a>
</g>
</g>
<!-- Node5&#45;&gt;Node53 -->
<g id="edge33" class="edge">
<title>Node5&#45;&gt;Node53</title>
<path fill="none" stroke="midnightblue" d="M3390.15,-145.76C3200.13,-140.38 2793.36,-126.4 2451,-98 2432.14,-96.44 2411.72,-94.23 2393.03,-92.02"/>
<polygon fill="midnightblue" stroke="midnightblue" points="3390.33,-149.26 3400.42,-146.05 3390.52,-142.27 3390.33,-149.26"/>
</g>
<!-- Node54 -->
<g id="node33" class="node">
<title>Node54</title>
<g id="a_node33"><a xlink:href="../../d1/d90/vgrainlineitem_8cpp.html" target="_top" xlink:title=" ">
<polygon fill="white" stroke="black" points="2460.5,-73 2460.5,-92 2653.5,-92 2653.5,-73 2460.5,-73"/>
<text text-anchor="middle" x="2557" y="-80" font-family="Helvetica,sans-Serif" font-size="10.00">src/libs/vwidgets/vgrainlineitem.cpp</text>
</a>
</g>
</g>
<!-- Node5&#45;&gt;Node54 -->
<g id="edge34" class="edge">
<title>Node5&#45;&gt;Node54</title>
<path fill="none" stroke="midnightblue" d="M3390.02,-144.63C3230.53,-138.32 2922.7,-123.84 2662,-98 2645.98,-96.41 2628.64,-94.22 2612.76,-92.01"/>
<polygon fill="midnightblue" stroke="midnightblue" points="3390.18,-148.14 3400.31,-145.04 3390.45,-141.15 3390.18,-148.14"/>
</g>
<!-- Node55 -->
<g id="node34" class="node">
<title>Node55</title>
<g id="a_node34"><a xlink:href="../../de/d45/vcontrolpointspline_8cpp.html" target="_top" xlink:title=" ">
<polygon fill="white" stroke="black" points="2671.5,-73 2671.5,-92 2886.5,-92 2886.5,-73 2671.5,-73"/>
<text text-anchor="middle" x="2779" y="-80" font-family="Helvetica,sans-Serif" font-size="10.00">src/libs/vwidgets/vcontrolpointspline.cpp</text>
</a>
</g>
</g>
<!-- Node5&#45;&gt;Node55 -->
<g id="edge35" class="edge">
<title>Node5&#45;&gt;Node55</title>
<path fill="none" stroke="midnightblue" d="M3390.06,-140.74C3269.5,-131.77 3068.57,-115.92 2896,-98 2879.1,-96.24 2860.86,-94.1 2843.93,-92.01"/>
<polygon fill="midnightblue" stroke="midnightblue" points="3390.17,-144.26 3400.4,-141.51 3390.69,-137.28 3390.17,-144.26"/>
</g>
<!-- Node56 -->
<g id="node35" class="node">
<title>Node56</title>
<g id="a_node35"><a xlink:href="../../de/dec/vgraphicssimpletextitem_8cpp.html" target="_top" xlink:title=" ">
<polygon fill="white" stroke="black" points="2905,-73 2905,-92 3149,-92 3149,-73 2905,-73"/>
<text text-anchor="middle" x="3027" y="-80" font-family="Helvetica,sans-Serif" font-size="10.00">src/libs/vwidgets/vgraphicssimpletextitem.cpp</text>
</a>
</g>
</g>
<!-- Node5&#45;&gt;Node56 -->
<g id="edge36" class="edge">
<title>Node5&#45;&gt;Node56</title>
<path fill="none" stroke="midnightblue" d="M3425.86,-138.54C3333.7,-125.83 3175.73,-104.03 3088.82,-92.03"/>
<polygon fill="midnightblue" stroke="midnightblue" points="3425.56,-142.04 3435.94,-139.94 3426.51,-135.1 3425.56,-142.04"/>
</g>
<!-- Node57 -->
<g id="node36" class="node">
<title>Node57</title>
<g id="a_node36"><a xlink:href="../../d1/d88/vmaingraphicsscene_8cpp.html" target="_top" xlink:title=" ">
<polygon fill="white" stroke="black" points="3167,-73 3167,-92 3389,-92 3389,-73 3167,-73"/>
<text text-anchor="middle" x="3278" y="-80" font-family="Helvetica,sans-Serif" font-size="10.00">src/libs/vwidgets/vmaingraphicsscene.cpp</text>
</a>
</g>
</g>
<!-- Node5&#45;&gt;Node57 -->
<g id="edge37" class="edge">
<title>Node5&#45;&gt;Node57</title>
<path fill="none" stroke="midnightblue" d="M3459.11,-137.01C3415.57,-124.15 3346.01,-103.59 3306.98,-92.06"/>
<polygon fill="midnightblue" stroke="midnightblue" points="3458.2,-140.39 3468.79,-139.87 3460.19,-133.68 3458.2,-140.39"/>
</g>
<!-- Node58 -->
<g id="node37" class="node">
<title>Node58</title>
<g id="a_node37"><a xlink:href="../../d0/d5d/vscenepoint_8cpp.html" target="_top" xlink:title=" ">
<polygon fill="white" stroke="black" points="3407.5,-73 3407.5,-92 3588.5,-92 3588.5,-73 3407.5,-73"/>
<text text-anchor="middle" x="3498" y="-80" font-family="Helvetica,sans-Serif" font-size="10.00">src/libs/vwidgets/vscenepoint.cpp</text>
</a>
</g>
</g>
<!-- Node5&#45;&gt;Node58 -->
<g id="edge38" class="edge">
<title>Node5&#45;&gt;Node58</title>
<path fill="none" stroke="midnightblue" d="M3498,-129.54C3498,-117.17 3498,-101.62 3498,-92.13"/>
<polygon fill="midnightblue" stroke="midnightblue" points="3494.5,-129.73 3498,-139.73 3501.5,-129.73 3494.5,-129.73"/>
</g>
<!-- Node59 -->
<g id="node38" class="node">
<title>Node59</title>
<g id="a_node38"><a xlink:href="../../d2/d31/vmaingraphicsview_8cpp.html" target="_top" xlink:title=" ">
<polygon fill="white" stroke="black" points="3607,-73 3607,-92 3823,-92 3823,-73 3607,-73"/>
<text text-anchor="middle" x="3715" y="-80" font-family="Helvetica,sans-Serif" font-size="10.00">src/libs/vwidgets/vmaingraphicsview.cpp</text>
</a>
</g>
</g>
<!-- Node5&#45;&gt;Node59 -->
<g id="edge39" class="edge">
<title>Node5&#45;&gt;Node59</title>
<path fill="none" stroke="midnightblue" d="M3536.63,-136.93C3579.6,-124.06 3648,-103.57 3686.41,-92.06"/>
<polygon fill="midnightblue" stroke="midnightblue" points="3535.39,-133.65 3526.82,-139.87 3537.4,-140.35 3535.39,-133.65"/>
</g>
<!-- Node26 -->
<g id="node39" class="node">
<title>Node26</title>
<g id="a_node39"><a xlink:href="../../de/d22/vsimplecurve_8cpp.html" target="_top" xlink:title=" ">
<polygon fill="white" stroke="black" points="3841,-73 3841,-92 4029,-92 4029,-73 3841,-73"/>
<text text-anchor="middle" x="3935" y="-80" font-family="Helvetica,sans-Serif" font-size="10.00">src/libs/vwidgets/vsimplecurve.cpp</text>
</a>
</g>
</g>
<!-- Node5&#45;&gt;Node26 -->
<g id="edge40" class="edge">
<title>Node5&#45;&gt;Node26</title>
<path fill="none" stroke="midnightblue" d="M3565.71,-138.43C3651.33,-125.69 3797.25,-103.99 3877.64,-92.03"/>
<polygon fill="midnightblue" stroke="midnightblue" points="3564.96,-135 3555.58,-139.94 3565.99,-141.93 3564.96,-135"/>
</g>
<!-- Node60 -->
<g id="node40" class="node">
<title>Node60</title>
<g id="a_node40"><a xlink:href="../../df/d38/vsimplepoint_8cpp.html" target="_top" xlink:title=" ">
<polygon fill="white" stroke="black" points="4047.5,-73 4047.5,-92 4232.5,-92 4232.5,-73 4047.5,-73"/>
<text text-anchor="middle" x="4140" y="-80" font-family="Helvetica,sans-Serif" font-size="10.00">src/libs/vwidgets/vsimplepoint.cpp</text>
</a>
</g>
</g>
<!-- Node5&#45;&gt;Node60 -->
<g id="edge41" class="edge">
<title>Node5&#45;&gt;Node60</title>
<path fill="none" stroke="midnightblue" d="M3605.73,-139.96C3714.84,-130.94 3888.37,-115.62 4038,-98 4052.74,-96.26 4068.65,-94.13 4083.41,-92.04"/>
<polygon fill="midnightblue" stroke="midnightblue" points="3605.38,-136.47 3595.7,-140.78 3605.95,-143.45 3605.38,-136.47"/>
</g>
<!-- Node61 -->
<g id="node41" class="node">
<title>Node61</title>
<g id="a_node41"><a xlink:href="../../df/df5/vtextgraphicsitem_8cpp.html" target="_top" xlink:title=" ">
<polygon fill="white" stroke="black" points="4250.5,-73 4250.5,-92 4461.5,-92 4461.5,-73 4250.5,-73"/>
<text text-anchor="middle" x="4356" y="-80" font-family="Helvetica,sans-Serif" font-size="10.00">src/libs/vwidgets/vtextgraphicsitem.cpp</text>
</a>
</g>
</g>
<!-- Node5&#45;&gt;Node61 -->
<g id="edge42" class="edge">
<title>Node5&#45;&gt;Node61</title>
<path fill="none" stroke="midnightblue" d="M3605.87,-143.17C3750.75,-135.56 4016.13,-120.01 4242,-98 4258.98,-96.35 4277.33,-94.18 4294.25,-92.03"/>
<polygon fill="midnightblue" stroke="midnightblue" points="3605.45,-139.69 3595.64,-143.7 3605.81,-146.68 3605.45,-139.69"/>
</g>
<!-- Node35&#45;&gt;Node36 -->
<g id="edge13" class="edge">
<title>Node35&#45;&gt;Node36</title>
<path fill="none" stroke="midnightblue" d="M5387.72,-58.87C5381.79,-49.46 5375.09,-38.83 5369.88,-30.58"/>
<polygon fill="midnightblue" stroke="midnightblue" points="5384.81,-60.81 5393.1,-67.4 5390.73,-57.07 5384.81,-60.81"/>
</g>
<!-- Node62&#45;&gt;Node4 -->
<g id="edge44" class="edge">
<title>Node62&#45;&gt;Node4</title>
<path fill="none" stroke="midnightblue" d="M846.81,-214.61C1152.74,-210.31 2500.02,-190.75 3604,-165 3862.93,-158.96 5677,-130.06 5934,-98 5936.87,-97.64 5939.8,-97.22 5942.74,-96.74"/>
<polygon fill="midnightblue" stroke="midnightblue" points="846.74,-211.11 836.79,-214.75 846.84,-218.11 846.74,-211.11"/>
</g>
<!-- Node62&#45;&gt;Node5 -->
<g id="edge51" class="edge">
<title>Node62&#45;&gt;Node5</title>
<path fill="none" stroke="midnightblue" d="M846.81,-213.97C1204.97,-205.4 2964.84,-163.26 3400.37,-152.84"/>
<polygon fill="midnightblue" stroke="midnightblue" points="846.54,-210.48 836.62,-214.22 846.7,-217.48 846.54,-210.48"/>
</g>
<!-- Node62&#45;&gt;Node20 -->
<g id="edge50" class="edge">
<title>Node62&#45;&gt;Node20</title>
<path fill="none" stroke="midnightblue" d="M770.18,-192.39C759.43,-174.63 742.68,-150.44 723,-134 699.77,-114.59 667.81,-100.43 645.68,-92.12"/>
<polygon fill="midnightblue" stroke="midnightblue" points="767.45,-194.64 775.52,-201.5 773.49,-191.1 767.45,-194.64"/>
</g>
<!-- Node62&#45;&gt;Node44 -->
<g id="edge53" class="edge">
<title>Node62&#45;&gt;Node44</title>
<path fill="none" stroke="midnightblue" d="M846.75,-215.17C1196.49,-213.22 2917.71,-202.1 4324,-165 5097.64,-144.59 5296.86,-200.13 6064,-98 6067,-97.6 6070.07,-97.12 6073.17,-96.59"/>
<polygon fill="midnightblue" stroke="midnightblue" points="846.55,-211.67 836.57,-215.22 846.58,-218.67 846.55,-211.67"/>
</g>
<!-- Node62&#45;&gt;Node45 -->
<g id="edge54" class="edge">
<title>Node62&#45;&gt;Node45</title>
<path fill="none" stroke="midnightblue" d="M783,-191.02C783,-163.51 783,-119.79 783,-97.52"/>
<polygon fill="midnightblue" stroke="midnightblue" points="779.5,-191.37 783,-201.37 786.5,-191.37 779.5,-191.37"/>
</g>
<!-- Node62&#45;&gt;Node48 -->
<g id="edge55" class="edge">
<title>Node62&#45;&gt;Node48</title>
<path fill="none" stroke="midnightblue" d="M719.36,-208.86C668.99,-202.07 597.61,-189.01 539,-165 515.5,-155.37 514.46,-143.72 491,-134 420.86,-104.93 398.08,-114.65 324,-98 321.3,-97.39 318.54,-96.77 315.76,-96.13"/>
<polygon fill="midnightblue" stroke="midnightblue" points="719.1,-212.35 729.46,-210.17 720,-205.41 719.1,-212.35"/>
</g>
<!-- Node63 -->
<g id="node43" class="node">
<title>Node63</title>
<g id="a_node43"><a xlink:href="../../dc/db7/measurements_8h.html" target="_top" xlink:title=" ">
<polygon fill="white" stroke="black" points="303.5,-140 303.5,-159 482.5,-159 482.5,-140 303.5,-140"/>
<text text-anchor="middle" x="393" y="-147" font-family="Helvetica,sans-Serif" font-size="10.00">src/libs/vformat/measurements.h</text>
</a>
</g>
</g>
<!-- Node62&#45;&gt;Node63 -->
<g id="edge45" class="edge">
<title>Node62&#45;&gt;Node63</title>
<path fill="none" stroke="midnightblue" d="M719.15,-204.86C642.29,-192.05 514.76,-170.79 444.1,-159.02"/>
<polygon fill="midnightblue" stroke="midnightblue" points="718.74,-208.34 729.18,-206.53 719.89,-201.43 718.74,-208.34"/>
</g>
<!-- Node64 -->
<g id="node44" class="node">
<title>Node64</title>
<g id="a_node44"><a xlink:href="../../d9/de3/measurements_8cpp.html" target="_top" xlink:title=" ">
<polygon fill="white" stroke="black" points="0,-73 0,-92 190,-92 190,-73 0,-73"/>
<text text-anchor="middle" x="95" y="-80" font-family="Helvetica,sans-Serif" font-size="10.00">src/libs/vformat/measurements.cpp</text>
</a>
</g>
</g>
<!-- Node62&#45;&gt;Node64 -->
<g id="edge47" class="edge">
<title>Node62&#45;&gt;Node64</title>
<path fill="none" stroke="midnightblue" d="M719.08,-214.68C624.72,-212.19 443.21,-202.43 294,-165 223.21,-147.24 144.48,-109.07 111.23,-92.03"/>
<polygon fill="midnightblue" stroke="midnightblue" points="719.23,-218.19 729.31,-214.94 719.4,-211.19 719.23,-218.19"/>
</g>
<!-- Node10 -->
<g id="node45" class="node">
<title>Node10</title>
<g id="a_node45"><a xlink:href="../../d6/de0/vlayoutpiece_8h.html" target="_top" xlink:title=" ">
<polygon fill="white" stroke="red" points="548,-140 548,-159 714,-159 714,-140 548,-140"/>
<text text-anchor="middle" x="631" y="-147" font-family="Helvetica,sans-Serif" font-size="10.00">src/libs/vlayout/vlayoutpiece.h</text>
</a>
</g>
</g>
<!-- Node62&#45;&gt;Node10 -->
<g id="edge48" class="edge">
<title>Node62&#45;&gt;Node10</title>
<path fill="none" stroke="midnightblue" d="M740.81,-197.46C711.44,-184.9 673.62,-168.72 650.89,-159.01"/>
<polygon fill="midnightblue" stroke="midnightblue" points="739.45,-200.68 750.02,-201.4 742.2,-194.25 739.45,-200.68"/>
</g>
<!-- Node65 -->
<g id="node46" class="node">
<title>Node65</title>
<g id="a_node46"><a xlink:href="../../d3/d02/custom__variable__p_8h.html" target="_top" xlink:title=" ">
<polygon fill="white" stroke="red" points="810.5,-134.5 810.5,-164.5 979.5,-164.5 979.5,-134.5 810.5,-134.5"/>
<text text-anchor="start" x="818.5" y="-152.5" font-family="Helvetica,sans-Serif" font-size="10.00">src/libs/vpatterndb</text>
<text text-anchor="middle" x="895" y="-141.5" font-family="Helvetica,sans-Serif" font-size="10.00">/variables/custom_variable_p.h</text>
</a>
</g>
</g>
<!-- Node62&#45;&gt;Node65 -->
<g id="edge52" class="edge">
<title>Node62&#45;&gt;Node65</title>
<path fill="none" stroke="midnightblue" d="M816.09,-196.3C833.62,-186.12 854.76,-173.85 870.75,-164.58"/>
<polygon fill="midnightblue" stroke="midnightblue" points="814.19,-193.35 807.3,-201.4 817.71,-199.4 814.19,-193.35"/>
</g>
<!-- Node63&#45;&gt;Node64 -->
<g id="edge46" class="edge">
<title>Node63&#45;&gt;Node64</title>
<path fill="none" stroke="midnightblue" d="M343.96,-137.8C285.32,-125.01 188.33,-103.86 134.35,-92.08"/>
<polygon fill="midnightblue" stroke="midnightblue" points="343.22,-141.22 353.74,-139.94 344.71,-134.38 343.22,-141.22"/>
</g>
<!-- Node10&#45;&gt;Node17 -->
<g id="edge49" class="edge">
<title>Node10&#45;&gt;Node17</title>
<path fill="none" stroke="midnightblue" d="M593.53,-136.85C552.13,-123.97 486.45,-103.55 449.54,-92.06"/>
<polygon fill="midnightblue" stroke="midnightblue" points="592.66,-140.24 603.25,-139.87 594.74,-133.56 592.66,-140.24"/>
</g>
</g>
</svg>
