<?xml version="1.0" encoding="UTF-8" standalone="no"?>
<!DOCTYPE svg PUBLIC "-//W3C//DTD SVG 1.1//EN"
 "http://www.w3.org/Graphics/SVG/1.1/DTD/svg11.dtd">
<!-- Generated by graphviz version 2.43.0 (0)
 -->
<!-- Title: src/libs/vpatterndb/vtranslatemeasurements.h Pages: 1 -->
<svg width="6403pt" height="374pt"
 viewBox="0.00 0.00 6402.50 374.00" xmlns="http://www.w3.org/2000/svg" xmlns:xlink="http://www.w3.org/1999/xlink">
<g id="graph0" class="graph" transform="scale(1 1) rotate(0) translate(4 370)">
<title>src/libs/vpatterndb/vtranslatemeasurements.h</title>
<polygon fill="white" stroke="transparent" points="-4,4 -4,-370 6398.5,-370 6398.5,4 -4,4"/>
<!-- Node1 -->
<g id="node1" class="node">
<title>Node1</title>
<g id="a_node1"><a xlink:title=" ">
<polygon fill="#bfbfbf" stroke="black" points="5954,-335.5 5954,-365.5 6106,-365.5 6106,-335.5 5954,-335.5"/>
<text text-anchor="start" x="5962" y="-353.5" font-family="Helvetica,sans-Serif" font-size="10.00">src/libs/vpatterndb</text>
<text text-anchor="middle" x="6030" y="-342.5" font-family="Helvetica,sans-Serif" font-size="10.00">/vtranslatemeasurements.h</text>
</a>
</g>
</g>
<!-- Node2 -->
<g id="node2" class="node">
<title>Node2</title>
<g id="a_node2"><a xlink:href="../../dd/de9/measurements__def_8cpp.html" target="_top" xlink:title=" ">
<polygon fill="white" stroke="black" points="5652,-268.5 5652,-298.5 5786,-298.5 5786,-268.5 5652,-268.5"/>
<text text-anchor="start" x="5660" y="-286.5" font-family="Helvetica,sans-Serif" font-size="10.00">src/libs/vpatterndb</text>
<text text-anchor="middle" x="5719" y="-275.5" font-family="Helvetica,sans-Serif" font-size="10.00">/measurements_def.cpp</text>
</a>
</g>
</g>
<!-- Node1&#45;&gt;Node2 -->
<g id="edge1" class="edge">
<title>Node1&#45;&gt;Node2</title>
<path fill="none" stroke="midnightblue" d="M5952.88,-333.38C5901.73,-322.69 5835.25,-308.8 5786.25,-298.55"/>
<polygon fill="midnightblue" stroke="midnightblue" points="5952.4,-336.86 5962.9,-335.48 5953.83,-330 5952.4,-336.86"/>
</g>
<!-- Node3 -->
<g id="node3" class="node">
<title>Node3</title>
<g id="a_node3"><a xlink:href="../../da/d69/vtranslatevars_8h.html" target="_top" xlink:title=" ">
<polygon fill="white" stroke="black" points="5804.5,-268.5 5804.5,-298.5 5911.5,-298.5 5911.5,-268.5 5804.5,-268.5"/>
<text text-anchor="start" x="5812.5" y="-286.5" font-family="Helvetica,sans-Serif" font-size="10.00">src/libs/vpatterndb</text>
<text text-anchor="middle" x="5858" y="-275.5" font-family="Helvetica,sans-Serif" font-size="10.00">/vtranslatevars.h</text>
</a>
</g>
</g>
<!-- Node1&#45;&gt;Node3 -->
<g id="edge2" class="edge">
<title>Node1&#45;&gt;Node3</title>
<path fill="none" stroke="midnightblue" d="M5983.21,-331.82C5955.57,-321.37 5921.04,-308.32 5895.25,-298.58"/>
<polygon fill="midnightblue" stroke="midnightblue" points="5982.09,-335.13 5992.68,-335.4 5984.56,-328.59 5982.09,-335.13"/>
</g>
<!-- Node49 -->
<g id="node26" class="node">
<title>Node49</title>
<g id="a_node26"><a xlink:href="../../de/d3e/vtranslatevars_8cpp.html" target="_top" xlink:title=" ">
<polygon fill="white" stroke="black" points="6199,-67.5 6199,-97.5 6309,-97.5 6309,-67.5 6199,-67.5"/>
<text text-anchor="start" x="6207" y="-85.5" font-family="Helvetica,sans-Serif" font-size="10.00">src/libs/vpatterndb</text>
<text text-anchor="middle" x="6254" y="-74.5" font-family="Helvetica,sans-Serif" font-size="10.00">/vtranslatevars.cpp</text>
</a>
</g>
</g>
<!-- Node1&#45;&gt;Node49 -->
<g id="edge62" class="edge">
<title>Node1&#45;&gt;Node49</title>
<path fill="none" stroke="midnightblue" d="M6056.24,-328.8C6083.48,-306.58 6126.44,-269.39 6158,-232 6196.22,-186.72 6231.37,-125.31 6246.36,-97.83"/>
<polygon fill="midnightblue" stroke="midnightblue" points="6053.9,-326.2 6048.32,-335.2 6058.3,-331.64 6053.9,-326.2"/>
</g>
<!-- Node76 -->
<g id="node50" class="node">
<title>Node76</title>
<g id="a_node50"><a xlink:href="../../d0/d50/vtranslatemeasurements_8cpp.html" target="_top" xlink:title=" ">
<polygon fill="white" stroke="black" points="6231.5,-268.5 6231.5,-298.5 6394.5,-298.5 6394.5,-268.5 6231.5,-268.5"/>
<text text-anchor="start" x="6239.5" y="-286.5" font-family="Helvetica,sans-Serif" font-size="10.00">src/libs/vpatterndb</text>
<text text-anchor="middle" x="6313" y="-275.5" font-family="Helvetica,sans-Serif" font-size="10.00">/vtranslatemeasurements.cpp</text>
</a>
</g>
</g>
<!-- Node1&#45;&gt;Node76 -->
<g id="edge63" class="edge">
<title>Node1&#45;&gt;Node76</title>
<path fill="none" stroke="midnightblue" d="M6101.03,-333.19C6147.38,-322.54 6207.27,-308.78 6251.56,-298.61"/>
<polygon fill="midnightblue" stroke="midnightblue" points="6100.02,-329.83 6091.06,-335.48 6101.59,-336.65 6100.02,-329.83"/>
</g>
<!-- Node4 -->
<g id="node4" class="node">
<title>Node4</title>
<g id="a_node4"><a xlink:href="../../d2/d47/image__dialog_8cpp.html" target="_top" xlink:title=" ">
<polygon fill="white" stroke="black" points="5943,-67.5 5943,-97.5 6055,-97.5 6055,-67.5 5943,-67.5"/>
<text text-anchor="start" x="5951" y="-85.5" font-family="Helvetica,sans-Serif" font-size="10.00">src/libs/tools/image</text>
<text text-anchor="middle" x="5999" y="-74.5" font-family="Helvetica,sans-Serif" font-size="10.00">_dialog.cpp</text>
</a>
</g>
</g>
<!-- Node3&#45;&gt;Node4 -->
<g id="edge3" class="edge">
<title>Node3&#45;&gt;Node4</title>
<path fill="none" stroke="midnightblue" d="M5794.35,-268.05C5708.26,-251.67 5586.33,-262.16 5631,-201 5649.84,-175.21 5844.42,-122.74 5942.76,-97.57"/>
<polygon fill="midnightblue" stroke="midnightblue" points="5793.89,-271.52 5804.39,-270.12 5795.31,-264.67 5793.89,-271.52"/>
</g>
<!-- Node5 -->
<g id="node5" class="node">
<title>Node5</title>
<g id="a_node5"><a xlink:href="../../d5/d74/vabstractapplication_8h.html" target="_top" xlink:title=" ">
<polygon fill="white" stroke="black" points="3394.5,-140 3394.5,-159 3589.5,-159 3589.5,-140 3394.5,-140"/>
<text text-anchor="middle" x="3492" y="-147" font-family="Helvetica,sans-Serif" font-size="10.00">src/libs/vmisc/vabstractapplication.h</text>
</a>
</g>
</g>
<!-- Node3&#45;&gt;Node5 -->
<g id="edge4" class="edge">
<title>Node3&#45;&gt;Node5</title>
<path fill="none" stroke="midnightblue" d="M5794.22,-268.09C5338.44,-206.51 3967.93,-164.01 3589.62,-153.2"/>
<polygon fill="midnightblue" stroke="midnightblue" points="5793.78,-271.56 5804.16,-269.45 5794.73,-264.63 5793.78,-271.56"/>
</g>
<!-- Node44 -->
<g id="node22" class="node">
<title>Node44</title>
<g id="a_node22"><a xlink:href="../../db/d11/vformula_8cpp.html" target="_top" xlink:title=" ">
<polygon fill="white" stroke="black" points="6073.5,-67.5 6073.5,-97.5 6180.5,-97.5 6180.5,-67.5 6073.5,-67.5"/>
<text text-anchor="start" x="6081.5" y="-85.5" font-family="Helvetica,sans-Serif" font-size="10.00">src/libs/vpatterndb</text>
<text text-anchor="middle" x="6127" y="-74.5" font-family="Helvetica,sans-Serif" font-size="10.00">/vformula.cpp</text>
</a>
</g>
</g>
<!-- Node3&#45;&gt;Node44 -->
<g id="edge56" class="edge">
<title>Node3&#45;&gt;Node44</title>
<path fill="none" stroke="midnightblue" d="M5921.82,-278.04C5987.67,-272.03 6084.18,-258.83 6109,-232 6143.74,-194.44 6135.67,-126.75 6130.11,-97.54"/>
<polygon fill="midnightblue" stroke="midnightblue" points="5921.18,-274.58 5911.53,-278.94 5921.8,-281.55 5921.18,-274.58"/>
</g>
<!-- Node48 -->
<g id="node25" class="node">
<title>Node48</title>
<g id="a_node25"><a xlink:href="../../d6/d46/vcontainer_8cpp.html" target="_top" xlink:title=" ">
<polygon fill="white" stroke="black" points="208.5,-67.5 208.5,-97.5 315.5,-97.5 315.5,-67.5 208.5,-67.5"/>
<text text-anchor="start" x="216.5" y="-85.5" font-family="Helvetica,sans-Serif" font-size="10.00">src/libs/vpatterndb</text>
<text text-anchor="middle" x="262" y="-74.5" font-family="Helvetica,sans-Serif" font-size="10.00">/vcontainer.cpp</text>
</a>
</g>
</g>
<!-- Node3&#45;&gt;Node48 -->
<g id="edge57" class="edge">
<title>Node3&#45;&gt;Node48</title>
<path fill="none" stroke="midnightblue" d="M5793.83,-268.13C5188.72,-203.25 1278.74,-277.66 720,-232 528.98,-216.39 443.47,-284.97 294,-165 273.25,-148.35 265.92,-116.38 263.35,-97.81"/>
<polygon fill="midnightblue" stroke="midnightblue" points="5793.85,-271.66 5804.18,-269.3 5794.63,-264.7 5793.85,-271.66"/>
</g>
<!-- Node3&#45;&gt;Node49 -->
<g id="edge58" class="edge">
<title>Node3&#45;&gt;Node49</title>
<path fill="none" stroke="midnightblue" d="M5921.74,-276.82C5991.53,-269.56 6097.95,-255.08 6131,-232 6172.49,-203.02 6155.54,-171.97 6189,-134 6201.47,-119.85 6218.36,-106.86 6231.8,-97.61"/>
<polygon fill="midnightblue" stroke="midnightblue" points="5921.31,-273.35 5911.72,-277.84 5922.02,-280.31 5921.31,-273.35"/>
</g>
<!-- Node62 -->
<g id="node42" class="node">
<title>Node62</title>
<g id="a_node42"><a xlink:href="../../d3/df7/vcontainer_8h.html" target="_top" xlink:title=" ">
<polygon fill="white" stroke="red" points="729.5,-201.5 729.5,-231.5 836.5,-231.5 836.5,-201.5 729.5,-201.5"/>
<text text-anchor="start" x="737.5" y="-219.5" font-family="Helvetica,sans-Serif" font-size="10.00">src/libs/vpatterndb</text>
<text text-anchor="middle" x="783" y="-208.5" font-family="Helvetica,sans-Serif" font-size="10.00">/vcontainer.h</text>
</a>
</g>
</g>
<!-- Node3&#45;&gt;Node62 -->
<g id="edge43" class="edge">
<title>Node3&#45;&gt;Node62</title>
<path fill="none" stroke="midnightblue" d="M5794.19,-268.28C5446.53,-236.86 1354.07,-219.76 836.66,-217.71"/>
<polygon fill="midnightblue" stroke="midnightblue" points="5793.87,-271.76 5804.18,-269.31 5794.59,-264.8 5793.87,-271.76"/>
</g>
<!-- Node73 -->
<g id="node47" class="node">
<title>Node73</title>
<g id="a_node47"><a xlink:href="../../df/de5/dialogspline_8cpp.html" target="_top" xlink:title=" ">
<polygon fill="white" stroke="black" points="5640,-201.5 5640,-231.5 5766,-231.5 5766,-201.5 5640,-201.5"/>
<text text-anchor="start" x="5648" y="-219.5" font-family="Helvetica,sans-Serif" font-size="10.00">src/libs/vtools/dialogs</text>
<text text-anchor="middle" x="5703" y="-208.5" font-family="Helvetica,sans-Serif" font-size="10.00">/tools/dialogspline.cpp</text>
</a>
</g>
</g>
<!-- Node3&#45;&gt;Node73 -->
<g id="edge59" class="edge">
<title>Node3&#45;&gt;Node73</title>
<path fill="none" stroke="midnightblue" d="M5814.85,-264.41C5790.11,-254.03 5759.5,-241.2 5736.57,-231.58"/>
<polygon fill="midnightblue" stroke="midnightblue" points="5813.79,-267.76 5824.37,-268.4 5816.5,-261.3 5813.79,-267.76"/>
</g>
<!-- Node74 -->
<g id="node48" class="node">
<title>Node74</title>
<g id="a_node48"><a xlink:href="../../dc/dc2/dialogsplinepath_8cpp.html" target="_top" xlink:title=" ">
<polygon fill="white" stroke="black" points="5784,-201.5 5784,-231.5 5932,-231.5 5932,-201.5 5784,-201.5"/>
<text text-anchor="start" x="5792" y="-219.5" font-family="Helvetica,sans-Serif" font-size="10.00">src/libs/vtools/dialogs</text>
<text text-anchor="middle" x="5858" y="-208.5" font-family="Helvetica,sans-Serif" font-size="10.00">/tools/dialogsplinepath.cpp</text>
</a>
</g>
</g>
<!-- Node3&#45;&gt;Node74 -->
<g id="edge60" class="edge">
<title>Node3&#45;&gt;Node74</title>
<path fill="none" stroke="midnightblue" d="M5858,-258.11C5858,-249.15 5858,-239.32 5858,-231.58"/>
<polygon fill="midnightblue" stroke="midnightblue" points="5854.5,-258.4 5858,-268.4 5861.5,-258.4 5854.5,-258.4"/>
</g>
<!-- Node75 -->
<g id="node49" class="node">
<title>Node75</title>
<g id="a_node49"><a xlink:href="../../d1/d75/vistoolendline_8cpp.html" target="_top" xlink:title=" ">
<polygon fill="white" stroke="black" points="5950.5,-201.5 5950.5,-231.5 6099.5,-231.5 6099.5,-201.5 5950.5,-201.5"/>
<text text-anchor="start" x="5958.5" y="-219.5" font-family="Helvetica,sans-Serif" font-size="10.00">src/libs/vtools/visualization</text>
<text text-anchor="middle" x="6025" y="-208.5" font-family="Helvetica,sans-Serif" font-size="10.00">/line/vistoolendline.cpp</text>
</a>
</g>
</g>
<!-- Node3&#45;&gt;Node75 -->
<g id="edge61" class="edge">
<title>Node3&#45;&gt;Node75</title>
<path fill="none" stroke="midnightblue" d="M5903.78,-264.68C5930.56,-254.26 5963.9,-241.28 5988.83,-231.58"/>
<polygon fill="midnightblue" stroke="midnightblue" points="5902.29,-261.51 5894.24,-268.4 5904.83,-268.03 5902.29,-261.51"/>
</g>
<!-- Node5&#45;&gt;Node4 -->
<g id="edge7" class="edge">
<title>Node5&#45;&gt;Node4</title>
<path fill="none" stroke="midnightblue" d="M3599.67,-145.69C3718.12,-142.65 3914.13,-137.71 4083,-134 4494.31,-124.95 5525.52,-147.03 5934,-98 5936.87,-97.66 5939.8,-97.24 5942.75,-96.77"/>
<polygon fill="midnightblue" stroke="midnightblue" points="3599.42,-142.2 3589.51,-145.96 3599.6,-149.2 3599.42,-142.2"/>
</g>
<!-- Node6 -->
<g id="node6" class="node">
<title>Node6</title>
<g id="a_node6"><a xlink:href="../../d4/d90/fvupdater_8cpp.html" target="_top" xlink:title=" ">
<polygon fill="white" stroke="black" points="4473.5,-73 4473.5,-92 4626.5,-92 4626.5,-73 4473.5,-73"/>
<text text-anchor="middle" x="4550" y="-80" font-family="Helvetica,sans-Serif" font-size="10.00">src/libs/fervor/fvupdater.cpp</text>
</a>
</g>
</g>
<!-- Node5&#45;&gt;Node6 -->
<g id="edge5" class="edge">
<title>Node5&#45;&gt;Node6</title>
<path fill="none" stroke="midnightblue" d="M3599.93,-147.02C3779.8,-143.63 4152.07,-132.69 4465,-98 4478.39,-96.52 4492.87,-94.28 4506.02,-92.01"/>
<polygon fill="midnightblue" stroke="midnightblue" points="3599.6,-143.53 3589.67,-147.21 3599.73,-150.52 3599.6,-143.53"/>
</g>
<!-- Node7 -->
<g id="node7" class="node">
<title>Node7</title>
<g id="a_node7"><a xlink:href="../../d1/d8d/image__item_8h.html" target="_top" xlink:title=" ">
<polygon fill="white" stroke="red" points="4645,-67.5 4645,-97.5 4757,-97.5 4757,-67.5 4645,-67.5"/>
<text text-anchor="start" x="4653" y="-85.5" font-family="Helvetica,sans-Serif" font-size="10.00">src/libs/tools/image</text>
<text text-anchor="middle" x="4701" y="-74.5" font-family="Helvetica,sans-Serif" font-size="10.00">_item.h</text>
</a>
</g>
</g>
<!-- Node5&#45;&gt;Node7 -->
<g id="edge6" class="edge">
<title>Node5&#45;&gt;Node7</title>
<path fill="none" stroke="midnightblue" d="M3599.89,-146.15C3845,-140.43 4437.82,-124.27 4636,-98 4638.87,-97.62 4641.79,-97.18 4644.74,-96.68"/>
<polygon fill="midnightblue" stroke="midnightblue" points="3599.46,-142.66 3589.55,-146.39 3599.62,-149.66 3599.46,-142.66"/>
</g>
<!-- Node28 -->
<g id="node8" class="node">
<title>Node28</title>
<g id="a_node8"><a xlink:href="../../d9/dc8/dxiface_8cpp.html" target="_top" xlink:title=" ">
<polygon fill="white" stroke="black" points="4775.5,-73 4775.5,-92 4910.5,-92 4910.5,-73 4775.5,-73"/>
<text text-anchor="middle" x="4843" y="-80" font-family="Helvetica,sans-Serif" font-size="10.00">src/libs/vdxf/dxiface.cpp</text>
</a>
</g>
</g>
<!-- Node5&#45;&gt;Node28 -->
<g id="edge8" class="edge">
<title>Node5&#45;&gt;Node28</title>
<path fill="none" stroke="midnightblue" d="M3599.6,-146.26C3864.21,-140.44 4541.38,-123.46 4766,-98 4778.3,-96.61 4791.58,-94.37 4803.6,-92.07"/>
<polygon fill="midnightblue" stroke="midnightblue" points="3599.52,-142.77 3589.6,-146.48 3599.68,-149.76 3599.52,-142.77"/>
</g>
<!-- Node29 -->
<g id="node9" class="node">
<title>Node29</title>
<g id="a_node9"><a xlink:href="../../da/d75/vabstractarc__p_8h.html" target="_top" xlink:title=" ">
<polygon fill="white" stroke="red" points="4928.5,-67.5 4928.5,-97.5 5035.5,-97.5 5035.5,-67.5 4928.5,-67.5"/>
<text text-anchor="start" x="4936.5" y="-85.5" font-family="Helvetica,sans-Serif" font-size="10.00">src/libs/vgeometry</text>
<text text-anchor="middle" x="4982" y="-74.5" font-family="Helvetica,sans-Serif" font-size="10.00">/vabstractarc_p.h</text>
</a>
</g>
</g>
<!-- Node5&#45;&gt;Node29 -->
<g id="edge9" class="edge">
<title>Node5&#45;&gt;Node29</title>
<path fill="none" stroke="midnightblue" d="M3599.92,-145.89C3910.19,-138.23 4790.72,-115.24 4920,-98 4922.74,-97.63 4925.53,-97.2 4928.35,-96.72"/>
<polygon fill="midnightblue" stroke="midnightblue" points="3599.48,-142.4 3589.57,-146.15 3599.65,-149.4 3599.48,-142.4"/>
</g>
<!-- Node31 -->
<g id="node10" class="node">
<title>Node31</title>
<g id="a_node10"><a xlink:href="../../dc/da3/varc__p_8h.html" target="_top" xlink:title=" ">
<polygon fill="white" stroke="red" points="5053.5,-67.5 5053.5,-97.5 5160.5,-97.5 5160.5,-67.5 5053.5,-67.5"/>
<text text-anchor="start" x="5061.5" y="-85.5" font-family="Helvetica,sans-Serif" font-size="10.00">src/libs/vgeometry</text>
<text text-anchor="middle" x="5107" y="-74.5" font-family="Helvetica,sans-Serif" font-size="10.00">/varc_p.h</text>
</a>
</g>
</g>
<!-- Node5&#45;&gt;Node31 -->
<g id="edge10" class="edge">
<title>Node5&#45;&gt;Node31</title>
<path fill="none" stroke="midnightblue" d="M3599.86,-145.58C3940.27,-136.27 4973.6,-107.42 5045,-98 5047.74,-97.64 5050.54,-97.21 5053.35,-96.73"/>
<polygon fill="midnightblue" stroke="midnightblue" points="3599.65,-142.08 3589.75,-145.85 3599.84,-149.08 3599.65,-142.08"/>
</g>
<!-- Node33 -->
<g id="node11" class="node">
<title>Node33</title>
<g id="a_node11"><a xlink:href="../../d5/d8e/vcubicbezier__p_8h.html" target="_top" xlink:title=" ">
<polygon fill="white" stroke="red" points="5178.5,-67.5 5178.5,-97.5 5285.5,-97.5 5285.5,-67.5 5178.5,-67.5"/>
<text text-anchor="start" x="5186.5" y="-85.5" font-family="Helvetica,sans-Serif" font-size="10.00">src/libs/vgeometry</text>
<text text-anchor="middle" x="5232" y="-74.5" font-family="Helvetica,sans-Serif" font-size="10.00">/vcubicbezier_p.h</text>
</a>
</g>
</g>
<!-- Node5&#45;&gt;Node33 -->
<g id="edge11" class="edge">
<title>Node5&#45;&gt;Node33</title>
<path fill="none" stroke="midnightblue" d="M3599.83,-145.85C3958.35,-136.95 5092.22,-108.16 5170,-98 5172.74,-97.64 5175.54,-97.22 5178.35,-96.74"/>
<polygon fill="midnightblue" stroke="midnightblue" points="3599.62,-142.35 3589.71,-146.1 3599.79,-149.35 3599.62,-142.35"/>
</g>
<!-- Node35 -->
<g id="node12" class="node">
<title>Node35</title>
<g id="a_node12"><a xlink:href="../../df/dde/vellipticalarc__p_8h.html" target="_top" xlink:title=" ">
<polygon fill="white" stroke="black" points="5342.5,-67.5 5342.5,-97.5 5449.5,-97.5 5449.5,-67.5 5342.5,-67.5"/>
<text text-anchor="start" x="5350.5" y="-85.5" font-family="Helvetica,sans-Serif" font-size="10.00">src/libs/vgeometry</text>
<text text-anchor="middle" x="5396" y="-74.5" font-family="Helvetica,sans-Serif" font-size="10.00">/vellipticalarc_p.h</text>
</a>
</g>
</g>
<!-- Node5&#45;&gt;Node35 -->
<g id="edge12" class="edge">
<title>Node5&#45;&gt;Node35</title>
<path fill="none" stroke="midnightblue" d="M3599.79,-145.8C3986.7,-136.08 5284.91,-103.14 5328,-98 5332.67,-97.44 5337.5,-96.72 5342.33,-95.89"/>
<polygon fill="midnightblue" stroke="midnightblue" points="3599.63,-142.3 3589.72,-146.05 3599.8,-149.3 3599.63,-142.3"/>
</g>
<!-- Node36 -->
<g id="node13" class="node">
<title>Node36</title>
<g id="a_node13"><a xlink:href="../../d6/dfb/vellipticalarc_8cpp.html" target="_top" xlink:title=" ">
<polygon fill="white" stroke="black" points="5301.5,-0.5 5301.5,-30.5 5408.5,-30.5 5408.5,-0.5 5301.5,-0.5"/>
<text text-anchor="start" x="5309.5" y="-18.5" font-family="Helvetica,sans-Serif" font-size="10.00">src/libs/vgeometry</text>
<text text-anchor="middle" x="5355" y="-7.5" font-family="Helvetica,sans-Serif" font-size="10.00">/vellipticalarc.cpp</text>
</a>
</g>
</g>
<!-- Node5&#45;&gt;Node36 -->
<g id="edge14" class="edge">
<title>Node5&#45;&gt;Node36</title>
<path fill="none" stroke="midnightblue" d="M3599.73,-145.79C3986.9,-136.03 5285.56,-102.94 5295,-98 5322.71,-83.5 5340.89,-49.76 5349.4,-30.55"/>
<polygon fill="midnightblue" stroke="midnightblue" points="3599.55,-142.3 3589.64,-146.05 3599.73,-149.3 3599.55,-142.3"/>
</g>
<!-- Node37 -->
<g id="node14" class="node">
<title>Node37</title>
<g id="a_node14"><a xlink:href="../../d1/d76/vspline__p_8h.html" target="_top" xlink:title=" ">
<polygon fill="white" stroke="red" points="5467.5,-67.5 5467.5,-97.5 5574.5,-97.5 5574.5,-67.5 5467.5,-67.5"/>
<text text-anchor="start" x="5475.5" y="-85.5" font-family="Helvetica,sans-Serif" font-size="10.00">src/libs/vgeometry</text>
<text text-anchor="middle" x="5521" y="-74.5" font-family="Helvetica,sans-Serif" font-size="10.00">/vspline_p.h</text>
</a>
</g>
</g>
<!-- Node5&#45;&gt;Node37 -->
<g id="edge15" class="edge">
<title>Node5&#45;&gt;Node37</title>
<path fill="none" stroke="midnightblue" d="M3599.64,-145.81C4009.11,-135.56 5447.38,-99.49 5459,-98 5461.74,-97.65 5464.54,-97.23 5467.35,-96.75"/>
<polygon fill="midnightblue" stroke="midnightblue" points="3599.48,-142.31 3589.57,-146.06 3599.66,-149.31 3599.48,-142.31"/>
</g>
<!-- Node39 -->
<g id="node15" class="node">
<title>Node39</title>
<g id="a_node15"><a xlink:href="../../d9/d15/vabstractpiece_8cpp.html" target="_top" xlink:title=" ">
<polygon fill="white" stroke="black" points="5593,-73 5593,-92 5779,-92 5779,-73 5593,-73"/>
<text text-anchor="middle" x="5686" y="-80" font-family="Helvetica,sans-Serif" font-size="10.00">src/libs/vlayout/vabstractpiece.cpp</text>
</a>
</g>
</g>
<!-- Node5&#45;&gt;Node39 -->
<g id="edge16" class="edge">
<title>Node5&#45;&gt;Node39</title>
<path fill="none" stroke="midnightblue" d="M3599.67,-145.84C3718.13,-142.92 3914.13,-138.1 4083,-134 4750.11,-117.82 4918.97,-153.05 5584,-98 5600.49,-96.64 5618.38,-94.36 5634.5,-92.02"/>
<polygon fill="midnightblue" stroke="midnightblue" points="3599.43,-142.35 3589.52,-146.09 3599.6,-149.34 3599.43,-142.35"/>
</g>
<!-- Node19 -->
<g id="node16" class="node">
<title>Node19</title>
<g id="a_node16"><a xlink:href="../../dd/d70/vlayoutpiece_8cpp.html" target="_top" xlink:title=" ">
<polygon fill="white" stroke="black" points="333.5,-73 333.5,-92 510.5,-92 510.5,-73 333.5,-73"/>
<text text-anchor="middle" x="422" y="-80" font-family="Helvetica,sans-Serif" font-size="10.00">src/libs/vlayout/vlayoutpiece.cpp</text>
</a>
</g>
</g>
<!-- Node5&#45;&gt;Node19 -->
<g id="edge17" class="edge">
<title>Node5&#45;&gt;Node19</title>
<path fill="none" stroke="midnightblue" d="M3384.27,-148.55C2920.64,-148.46 1093.09,-145.07 520,-98 503.97,-96.68 486.58,-94.39 470.96,-92.02"/>
<polygon fill="midnightblue" stroke="midnightblue" points="3384.3,-152.05 3394.3,-148.55 3384.3,-145.05 3384.3,-152.05"/>
</g>
<!-- Node20 -->
<g id="node17" class="node">
<title>Node20</title>
<g id="a_node17"><a xlink:href="../../d8/d70/vtextmanager_8cpp.html" target="_top" xlink:title=" ">
<polygon fill="white" stroke="black" points="529,-73 529,-92 711,-92 711,-73 529,-73"/>
<text text-anchor="middle" x="620" y="-80" font-family="Helvetica,sans-Serif" font-size="10.00">src/libs/vlayout/vtextmanager.cpp</text>
</a>
</g>
</g>
<!-- Node5&#45;&gt;Node20 -->
<g id="edge18" class="edge">
<title>Node5&#45;&gt;Node20</title>
<path fill="none" stroke="midnightblue" d="M3383.89,-148.35C2939.45,-147.45 1251.48,-141.2 720,-98 703.65,-96.67 685.91,-94.38 669.96,-92"/>
<polygon fill="midnightblue" stroke="midnightblue" points="3384.15,-151.85 3394.16,-148.37 3384.17,-144.85 3384.15,-151.85"/>
</g>
<!-- Node40 -->
<g id="node18" class="node">
<title>Node40</title>
<g id="a_node18"><a xlink:href="../../db/d65/dialogexporttocsv_8cpp.html" target="_top" xlink:title=" ">
<polygon fill="white" stroke="black" points="5797.5,-67.5 5797.5,-97.5 5924.5,-97.5 5924.5,-67.5 5797.5,-67.5"/>
<text text-anchor="start" x="5805.5" y="-85.5" font-family="Helvetica,sans-Serif" font-size="10.00">src/libs/vmisc/dialogs</text>
<text text-anchor="middle" x="5861" y="-74.5" font-family="Helvetica,sans-Serif" font-size="10.00">/dialogexporttocsv.cpp</text>
</a>
</g>
</g>
<!-- Node5&#45;&gt;Node40 -->
<g id="edge19" class="edge">
<title>Node5&#45;&gt;Node40</title>
<path fill="none" stroke="midnightblue" d="M3599.67,-145.75C3718.13,-142.75 3914.13,-137.85 4083,-134 4461.87,-125.35 5411.26,-139.07 5788,-98 5791.08,-97.66 5794.23,-97.26 5797.4,-96.81"/>
<polygon fill="midnightblue" stroke="midnightblue" points="3599.42,-142.25 3589.52,-146.01 3599.6,-149.25 3599.42,-142.25"/>
</g>
<!-- Node41 -->
<g id="node19" class="node">
<title>Node41</title>
<g id="a_node19"><a xlink:href="../../d6/d0b/def_8cpp.html" target="_top" xlink:title=" ">
<polygon fill="white" stroke="black" points="855,-73 855,-92 977,-92 977,-73 855,-73"/>
<text text-anchor="middle" x="916" y="-80" font-family="Helvetica,sans-Serif" font-size="10.00">src/libs/vmisc/def.cpp</text>
</a>
</g>
</g>
<!-- Node5&#45;&gt;Node41 -->
<g id="edge20" class="edge">
<title>Node5&#45;&gt;Node41</title>
<path fill="none" stroke="midnightblue" d="M3383.92,-148.97C2966.73,-150.37 1461.07,-151.53 986,-98 974.41,-96.69 961.89,-94.39 950.69,-92"/>
<polygon fill="midnightblue" stroke="midnightblue" points="3384.17,-152.47 3394.16,-148.93 3384.15,-145.47 3384.17,-152.47"/>
</g>
<!-- Node42 -->
<g id="node20" class="node">
<title>Node42</title>
<g id="a_node20"><a xlink:href="../../d0/df6/vabstractapplication_8cpp.html" target="_top" xlink:title=" ">
<polygon fill="white" stroke="black" points="995,-73 995,-92 1201,-92 1201,-73 995,-73"/>
<text text-anchor="middle" x="1098" y="-80" font-family="Helvetica,sans-Serif" font-size="10.00">src/libs/vmisc/vabstractapplication.cpp</text>
</a>
</g>
</g>
<!-- Node5&#45;&gt;Node42 -->
<g id="edge21" class="edge">
<title>Node5&#45;&gt;Node42</title>
<path fill="none" stroke="midnightblue" d="M3384.24,-147.64C2991.97,-144.28 1640.6,-130.55 1210,-98 1191.92,-96.63 1172.28,-94.36 1154.57,-92.02"/>
<polygon fill="midnightblue" stroke="midnightblue" points="3384.42,-151.14 3394.45,-147.73 3384.48,-144.14 3384.42,-151.14"/>
</g>
<!-- Node43 -->
<g id="node21" class="node">
<title>Node43</title>
<g id="a_node21"><a xlink:href="../../d4/d4f/pmsystems_8cpp.html" target="_top" xlink:title=" ">
<polygon fill="white" stroke="black" points="1219.5,-67.5 1219.5,-97.5 1326.5,-97.5 1326.5,-67.5 1219.5,-67.5"/>
<text text-anchor="start" x="1227.5" y="-85.5" font-family="Helvetica,sans-Serif" font-size="10.00">src/libs/vpatterndb</text>
<text text-anchor="middle" x="1273" y="-74.5" font-family="Helvetica,sans-Serif" font-size="10.00">/pmsystems.cpp</text>
</a>
</g>
</g>
<!-- Node5&#45;&gt;Node43 -->
<g id="edge22" class="edge">
<title>Node5&#45;&gt;Node43</title>
<path fill="none" stroke="midnightblue" d="M3384.28,-148.92C3005.77,-149.92 1737.87,-149.27 1335,-98 1332.26,-97.65 1329.46,-97.23 1326.65,-96.76"/>
<polygon fill="midnightblue" stroke="midnightblue" points="3384.42,-152.42 3394.41,-148.89 3384.4,-145.42 3384.42,-152.42"/>
</g>
<!-- Node5&#45;&gt;Node44 -->
<g id="edge23" class="edge">
<title>Node5&#45;&gt;Node44</title>
<path fill="none" stroke="midnightblue" d="M3599.99,-147.7C4056.72,-144.12 5817.46,-128.46 6064,-98 6067.01,-97.63 6070.08,-97.17 6073.17,-96.66"/>
<polygon fill="midnightblue" stroke="midnightblue" points="3599.75,-144.2 3589.77,-147.78 3599.8,-151.2 3599.75,-144.2"/>
</g>
<!-- Node45 -->
<g id="node23" class="node">
<title>Node45</title>
<g id="a_node23"><a xlink:href="../../df/d7a/vpiece_8cpp.html" target="_top" xlink:title=" ">
<polygon fill="white" stroke="black" points="729.5,-67.5 729.5,-97.5 836.5,-97.5 836.5,-67.5 729.5,-67.5"/>
<text text-anchor="start" x="737.5" y="-85.5" font-family="Helvetica,sans-Serif" font-size="10.00">src/libs/vpatterndb</text>
<text text-anchor="middle" x="783" y="-74.5" font-family="Helvetica,sans-Serif" font-size="10.00">/vpiece.cpp</text>
</a>
</g>
</g>
<!-- Node5&#45;&gt;Node45 -->
<g id="edge24" class="edge">
<title>Node5&#45;&gt;Node45</title>
<path fill="none" stroke="midnightblue" d="M3384.37,-147.76C2920.02,-144.4 1100.27,-129.34 846,-98 842.99,-97.63 839.92,-97.18 836.83,-96.66"/>
<polygon fill="midnightblue" stroke="midnightblue" points="3384.4,-151.26 3394.42,-147.84 3384.45,-144.26 3384.4,-151.26"/>
</g>
<!-- Node46 -->
<g id="node24" class="node">
<title>Node46</title>
<g id="a_node24"><a xlink:href="../../df/dba/vpiecenode__p_8h.html" target="_top" xlink:title=" ">
<polygon fill="white" stroke="red" points="1344.5,-67.5 1344.5,-97.5 1451.5,-97.5 1451.5,-67.5 1344.5,-67.5"/>
<text text-anchor="start" x="1352.5" y="-85.5" font-family="Helvetica,sans-Serif" font-size="10.00">src/libs/vpatterndb</text>
<text text-anchor="middle" x="1398" y="-74.5" font-family="Helvetica,sans-Serif" font-size="10.00">/vpiecenode_p.h</text>
</a>
</g>
</g>
<!-- Node5&#45;&gt;Node46 -->
<g id="edge25" class="edge">
<title>Node5&#45;&gt;Node46</title>
<path fill="none" stroke="midnightblue" d="M3384.38,-148.73C3020.42,-149.06 1837.34,-146.3 1460,-98 1457.26,-97.65 1454.46,-97.23 1451.65,-96.76"/>
<polygon fill="midnightblue" stroke="midnightblue" points="3384.39,-152.23 3394.38,-148.72 3384.38,-145.23 3384.39,-152.23"/>
</g>
<!-- Node5&#45;&gt;Node48 -->
<g id="edge26" class="edge">
<title>Node5&#45;&gt;Node48</title>
<path fill="none" stroke="midnightblue" d="M3384.39,-148.15C2865.31,-146.28 632.45,-136.08 324,-98 321.26,-97.66 318.46,-97.25 315.64,-96.79"/>
<polygon fill="midnightblue" stroke="midnightblue" points="3384.48,-151.65 3394.5,-148.19 3384.51,-144.65 3384.48,-151.65"/>
</g>
<!-- Node5&#45;&gt;Node49 -->
<g id="edge27" class="edge">
<title>Node5&#45;&gt;Node49</title>
<path fill="none" stroke="midnightblue" d="M3599.78,-147.78C4070.04,-144.48 5930.31,-129.51 6190,-98 6192.94,-97.64 6195.94,-97.21 6198.97,-96.72"/>
<polygon fill="midnightblue" stroke="midnightblue" points="3599.57,-144.28 3589.6,-147.85 3599.62,-151.28 3599.57,-144.28"/>
</g>
<!-- Node23 -->
<g id="node27" class="node">
<title>Node23</title>
<g id="a_node27"><a xlink:href="../../df/d40/export__format__combobox_8cpp.html" target="_top" xlink:title=" ">
<polygon fill="white" stroke="black" points="1469.5,-67.5 1469.5,-97.5 1602.5,-97.5 1602.5,-67.5 1469.5,-67.5"/>
<text text-anchor="start" x="1477.5" y="-85.5" font-family="Helvetica,sans-Serif" font-size="10.00">src/libs/vwidgets/export</text>
<text text-anchor="middle" x="1536" y="-74.5" font-family="Helvetica,sans-Serif" font-size="10.00">_format_combobox.cpp</text>
</a>
</g>
</g>
<!-- Node5&#45;&gt;Node23 -->
<g id="edge28" class="edge">
<title>Node5&#45;&gt;Node23</title>
<path fill="none" stroke="midnightblue" d="M3384.25,-147.93C3038.34,-145.75 1958.3,-135.97 1611,-98 1608.23,-97.7 1605.41,-97.35 1602.57,-96.96"/>
<polygon fill="midnightblue" stroke="midnightblue" points="3384.25,-151.43 3394.27,-148 3384.29,-144.43 3384.25,-151.43"/>
</g>
<!-- Node25 -->
<g id="node28" class="node">
<title>Node25</title>
<g id="a_node28"><a xlink:href="../../d2/d28/page__format__combobox_8cpp.html" target="_top" xlink:title=" ">
<polygon fill="white" stroke="black" points="1620.5,-67.5 1620.5,-97.5 1751.5,-97.5 1751.5,-67.5 1620.5,-67.5"/>
<text text-anchor="start" x="1628.5" y="-85.5" font-family="Helvetica,sans-Serif" font-size="10.00">src/libs/vwidgets/page</text>
<text text-anchor="middle" x="1686" y="-74.5" font-family="Helvetica,sans-Serif" font-size="10.00">_format_combobox.cpp</text>
</a>
</g>
</g>
<!-- Node5&#45;&gt;Node25 -->
<g id="edge29" class="edge">
<title>Node5&#45;&gt;Node25</title>
<path fill="none" stroke="midnightblue" d="M3383.94,-147.67C3056.25,-144.8 2076.82,-133.42 1760,-98 1757.27,-97.69 1754.49,-97.34 1751.68,-96.95"/>
<polygon fill="midnightblue" stroke="midnightblue" points="3384.35,-151.18 3394.38,-147.77 3384.41,-144.18 3384.35,-151.18"/>
</g>
<!-- Node50 -->
<g id="node29" class="node">
<title>Node50</title>
<g id="a_node29"><a xlink:href="../../d7/d1b/pen__toolbar_8cpp.html" target="_top" xlink:title=" ">
<polygon fill="white" stroke="black" points="1769.5,-67.5 1769.5,-97.5 1888.5,-97.5 1888.5,-67.5 1769.5,-67.5"/>
<text text-anchor="start" x="1777.5" y="-85.5" font-family="Helvetica,sans-Serif" font-size="10.00">src/libs/vwidgets/pen</text>
<text text-anchor="middle" x="1829" y="-74.5" font-family="Helvetica,sans-Serif" font-size="10.00">_toolbar.cpp</text>
</a>
</g>
</g>
<!-- Node5&#45;&gt;Node50 -->
<g id="edge30" class="edge">
<title>Node5&#45;&gt;Node50</title>
<path fill="none" stroke="midnightblue" d="M3384.01,-147.55C3074.27,-144.43 2186.63,-132.63 1898,-98 1894.96,-97.64 1891.86,-97.2 1888.73,-96.72"/>
<polygon fill="midnightblue" stroke="midnightblue" points="3384.31,-151.05 3394.34,-147.65 3384.38,-144.05 3384.31,-151.05"/>
</g>
<!-- Node51 -->
<g id="node30" class="node">
<title>Node51</title>
<g id="a_node30"><a xlink:href="../../d3/d4f/mouse__coordinates_8cpp.html" target="_top" xlink:title=" ">
<polygon fill="white" stroke="black" points="1907,-67.5 1907,-97.5 2041,-97.5 2041,-67.5 1907,-67.5"/>
<text text-anchor="start" x="1915" y="-85.5" font-family="Helvetica,sans-Serif" font-size="10.00">src/libs/vwidgets/mouse</text>
<text text-anchor="middle" x="1974" y="-74.5" font-family="Helvetica,sans-Serif" font-size="10.00">_coordinates.cpp</text>
</a>
</g>
</g>
<!-- Node5&#45;&gt;Node51 -->
<g id="edge31" class="edge">
<title>Node5&#45;&gt;Node51</title>
<path fill="none" stroke="midnightblue" d="M3384.31,-146.87C3095.53,-142.17 2308.32,-126.99 2050,-98 2047.06,-97.67 2044.07,-97.29 2041.05,-96.87"/>
<polygon fill="midnightblue" stroke="midnightblue" points="3384.32,-150.37 3394.37,-147.04 3384.43,-143.37 3384.32,-150.37"/>
</g>
<!-- Node52 -->
<g id="node31" class="node">
<title>Node52</title>
<g id="a_node31"><a xlink:href="../../d8/d76/scene__rect_8cpp.html" target="_top" xlink:title=" ">
<polygon fill="white" stroke="black" points="2059,-67.5 2059,-97.5 2189,-97.5 2189,-67.5 2059,-67.5"/>
<text text-anchor="start" x="2067" y="-85.5" font-family="Helvetica,sans-Serif" font-size="10.00">src/libs/vwidgets/scene</text>
<text text-anchor="middle" x="2124" y="-74.5" font-family="Helvetica,sans-Serif" font-size="10.00">_rect.cpp</text>
</a>
</g>
</g>
<!-- Node5&#45;&gt;Node52 -->
<g id="edge32" class="edge">
<title>Node5&#45;&gt;Node52</title>
<path fill="none" stroke="midnightblue" d="M3384.15,-146.44C3116.4,-140.97 2426.46,-124.68 2198,-98 2195.14,-97.67 2192.22,-97.28 2189.28,-96.86"/>
<polygon fill="midnightblue" stroke="midnightblue" points="3384.2,-149.94 3394.27,-146.64 3384.34,-142.94 3384.2,-149.94"/>
</g>
<!-- Node53 -->
<g id="node32" class="node">
<title>Node53</title>
<g id="a_node32"><a xlink:href="../../dd/df6/vabstractmainwindow_8cpp.html" target="_top" xlink:title=" ">
<polygon fill="white" stroke="black" points="2207.5,-73 2207.5,-92 2436.5,-92 2436.5,-73 2207.5,-73"/>
<text text-anchor="middle" x="2322" y="-80" font-family="Helvetica,sans-Serif" font-size="10.00">src/libs/vwidgets/vabstractmainwindow.cpp</text>
</a>
</g>
</g>
<!-- Node5&#45;&gt;Node53 -->
<g id="edge33" class="edge">
<title>Node5&#45;&gt;Node53</title>
<path fill="none" stroke="midnightblue" d="M3384.15,-145.76C3194.13,-140.38 2787.36,-126.4 2445,-98 2426.14,-96.44 2405.72,-94.23 2387.03,-92.02"/>
<polygon fill="midnightblue" stroke="midnightblue" points="3384.33,-149.26 3394.42,-146.05 3384.52,-142.27 3384.33,-149.26"/>
</g>
<!-- Node54 -->
<g id="node33" class="node">
<title>Node54</title>
<g id="a_node33"><a xlink:href="../../d1/d90/vgrainlineitem_8cpp.html" target="_top" xlink:title=" ">
<polygon fill="white" stroke="black" points="2454.5,-73 2454.5,-92 2647.5,-92 2647.5,-73 2454.5,-73"/>
<text text-anchor="middle" x="2551" y="-80" font-family="Helvetica,sans-Serif" font-size="10.00">src/libs/vwidgets/vgrainlineitem.cpp</text>
</a>
</g>
</g>
<!-- Node5&#45;&gt;Node54 -->
<g id="edge34" class="edge">
<title>Node5&#45;&gt;Node54</title>
<path fill="none" stroke="midnightblue" d="M3384.02,-144.63C3224.53,-138.32 2916.7,-123.84 2656,-98 2639.98,-96.41 2622.64,-94.22 2606.76,-92.01"/>
<polygon fill="midnightblue" stroke="midnightblue" points="3384.18,-148.14 3394.31,-145.04 3384.45,-141.15 3384.18,-148.14"/>
</g>
<!-- Node55 -->
<g id="node34" class="node">
<title>Node55</title>
<g id="a_node34"><a xlink:href="../../de/d45/vcontrolpointspline_8cpp.html" target="_top" xlink:title=" ">
<polygon fill="white" stroke="black" points="2665.5,-73 2665.5,-92 2880.5,-92 2880.5,-73 2665.5,-73"/>
<text text-anchor="middle" x="2773" y="-80" font-family="Helvetica,sans-Serif" font-size="10.00">src/libs/vwidgets/vcontrolpointspline.cpp</text>
</a>
</g>
</g>
<!-- Node5&#45;&gt;Node55 -->
<g id="edge35" class="edge">
<title>Node5&#45;&gt;Node55</title>
<path fill="none" stroke="midnightblue" d="M3384.06,-140.74C3263.5,-131.77 3062.57,-115.92 2890,-98 2873.1,-96.24 2854.86,-94.1 2837.93,-92.01"/>
<polygon fill="midnightblue" stroke="midnightblue" points="3384.17,-144.26 3394.4,-141.51 3384.69,-137.28 3384.17,-144.26"/>
</g>
<!-- Node56 -->
<g id="node35" class="node">
<title>Node56</title>
<g id="a_node35"><a xlink:href="../../de/dec/vgraphicssimpletextitem_8cpp.html" target="_top" xlink:title=" ">
<polygon fill="white" stroke="black" points="2899,-73 2899,-92 3143,-92 3143,-73 2899,-73"/>
<text text-anchor="middle" x="3021" y="-80" font-family="Helvetica,sans-Serif" font-size="10.00">src/libs/vwidgets/vgraphicssimpletextitem.cpp</text>
</a>
</g>
</g>
<!-- Node5&#45;&gt;Node56 -->
<g id="edge36" class="edge">
<title>Node5&#45;&gt;Node56</title>
<path fill="none" stroke="midnightblue" d="M3419.86,-138.54C3327.7,-125.83 3169.73,-104.03 3082.82,-92.03"/>
<polygon fill="midnightblue" stroke="midnightblue" points="3419.56,-142.04 3429.94,-139.94 3420.51,-135.1 3419.56,-142.04"/>
</g>
<!-- Node57 -->
<g id="node36" class="node">
<title>Node57</title>
<g id="a_node36"><a xlink:href="../../d1/d88/vmaingraphicsscene_8cpp.html" target="_top" xlink:title=" ">
<polygon fill="white" stroke="black" points="3161,-73 3161,-92 3383,-92 3383,-73 3161,-73"/>
<text text-anchor="middle" x="3272" y="-80" font-family="Helvetica,sans-Serif" font-size="10.00">src/libs/vwidgets/vmaingraphicsscene.cpp</text>
</a>
</g>
</g>
<!-- Node5&#45;&gt;Node57 -->
<g id="edge37" class="edge">
<title>Node5&#45;&gt;Node57</title>
<path fill="none" stroke="midnightblue" d="M3453.11,-137.01C3409.57,-124.15 3340.01,-103.59 3300.98,-92.06"/>
<polygon fill="midnightblue" stroke="midnightblue" points="3452.2,-140.39 3462.79,-139.87 3454.19,-133.68 3452.2,-140.39"/>
</g>
<!-- Node58 -->
<g id="node37" class="node">
<title>Node58</title>
<g id="a_node37"><a xlink:href="../../d0/d5d/vscenepoint_8cpp.html" target="_top" xlink:title=" ">
<polygon fill="white" stroke="black" points="3401.5,-73 3401.5,-92 3582.5,-92 3582.5,-73 3401.5,-73"/>
<text text-anchor="middle" x="3492" y="-80" font-family="Helvetica,sans-Serif" font-size="10.00">src/libs/vwidgets/vscenepoint.cpp</text>
</a>
</g>
</g>
<!-- Node5&#45;&gt;Node58 -->
<g id="edge38" class="edge">
<title>Node5&#45;&gt;Node58</title>
<path fill="none" stroke="midnightblue" d="M3492,-129.54C3492,-117.17 3492,-101.62 3492,-92.13"/>
<polygon fill="midnightblue" stroke="midnightblue" points="3488.5,-129.73 3492,-139.73 3495.5,-129.73 3488.5,-129.73"/>
</g>
<!-- Node26 -->
<g id="node38" class="node">
<title>Node26</title>
<g id="a_node38"><a xlink:href="../../de/d22/vsimplecurve_8cpp.html" target="_top" xlink:title=" ">
<polygon fill="white" stroke="black" points="3601,-73 3601,-92 3789,-92 3789,-73 3601,-73"/>
<text text-anchor="middle" x="3695" y="-80" font-family="Helvetica,sans-Serif" font-size="10.00">src/libs/vwidgets/vsimplecurve.cpp</text>
</a>
</g>
</g>
<!-- Node5&#45;&gt;Node26 -->
<g id="edge39" class="edge">
<title>Node5&#45;&gt;Node26</title>
<path fill="none" stroke="midnightblue" d="M3528.65,-136.77C3568.87,-123.89 3632.47,-103.52 3668.25,-92.06"/>
<polygon fill="midnightblue" stroke="midnightblue" points="3527.41,-133.49 3518.96,-139.87 3529.55,-140.15 3527.41,-133.49"/>
</g>
<!-- Node59 -->
<g id="node39" class="node">
<title>Node59</title>
<g id="a_node39"><a xlink:href="../../d2/d31/vmaingraphicsview_8cpp.html" target="_top" xlink:title=" ">
<polygon fill="white" stroke="black" points="3807,-73 3807,-92 4023,-92 4023,-73 3807,-73"/>
<text text-anchor="middle" x="3915" y="-80" font-family="Helvetica,sans-Serif" font-size="10.00">src/libs/vwidgets/vmaingraphicsview.cpp</text>
</a>
</g>
</g>
<!-- Node5&#45;&gt;Node59 -->
<g id="edge40" class="edge">
<title>Node5&#45;&gt;Node59</title>
<path fill="none" stroke="midnightblue" d="M3557.8,-138.39C3640.71,-125.65 3781.74,-103.98 3859.48,-92.03"/>
<polygon fill="midnightblue" stroke="midnightblue" points="3557.09,-134.96 3547.73,-139.94 3558.15,-141.88 3557.09,-134.96"/>
</g>
<!-- Node60 -->
<g id="node40" class="node">
<title>Node60</title>
<g id="a_node40"><a xlink:href="../../df/d38/vsimplepoint_8cpp.html" target="_top" xlink:title=" ">
<polygon fill="white" stroke="black" points="4041.5,-73 4041.5,-92 4226.5,-92 4226.5,-73 4041.5,-73"/>
<text text-anchor="middle" x="4134" y="-80" font-family="Helvetica,sans-Serif" font-size="10.00">src/libs/vwidgets/vsimplepoint.cpp</text>
</a>
</g>
</g>
<!-- Node5&#45;&gt;Node60 -->
<g id="edge41" class="edge">
<title>Node5&#45;&gt;Node60</title>
<path fill="none" stroke="midnightblue" d="M3599.73,-139.96C3708.84,-130.94 3882.37,-115.62 4032,-98 4046.74,-96.26 4062.65,-94.13 4077.41,-92.04"/>
<polygon fill="midnightblue" stroke="midnightblue" points="3599.38,-136.47 3589.7,-140.78 3599.95,-143.45 3599.38,-136.47"/>
</g>
<!-- Node61 -->
<g id="node41" class="node">
<title>Node61</title>
<g id="a_node41"><a xlink:href="../../df/df5/vtextgraphicsitem_8cpp.html" target="_top" xlink:title=" ">
<polygon fill="white" stroke="black" points="4244.5,-73 4244.5,-92 4455.5,-92 4455.5,-73 4244.5,-73"/>
<text text-anchor="middle" x="4350" y="-80" font-family="Helvetica,sans-Serif" font-size="10.00">src/libs/vwidgets/vtextgraphicsitem.cpp</text>
</a>
</g>
</g>
<!-- Node5&#45;&gt;Node61 -->
<g id="edge42" class="edge">
<title>Node5&#45;&gt;Node61</title>
<path fill="none" stroke="midnightblue" d="M3599.87,-143.17C3744.75,-135.56 4010.13,-120.01 4236,-98 4252.98,-96.35 4271.33,-94.18 4288.25,-92.03"/>
<polygon fill="midnightblue" stroke="midnightblue" points="3599.45,-139.69 3589.64,-143.7 3599.81,-146.68 3599.45,-139.69"/>
</g>
<!-- Node35&#45;&gt;Node36 -->
<g id="edge13" class="edge">
<title>Node35&#45;&gt;Node36</title>
<path fill="none" stroke="midnightblue" d="M5381.72,-58.87C5375.79,-49.46 5369.09,-38.83 5363.88,-30.58"/>
<polygon fill="midnightblue" stroke="midnightblue" points="5378.81,-60.81 5387.1,-67.4 5384.73,-57.07 5378.81,-60.81"/>
</g>
<!-- Node62&#45;&gt;Node4 -->
<g id="edge44" class="edge">
<title>Node62&#45;&gt;Node4</title>
<path fill="none" stroke="midnightblue" d="M847.13,-214.6C1153.28,-210.27 2496.91,-190.67 3598,-165 3857.59,-158.95 5676.33,-130.14 5934,-98 5936.87,-97.64 5939.8,-97.22 5942.74,-96.74"/>
<polygon fill="midnightblue" stroke="midnightblue" points="846.62,-211.11 836.67,-214.75 846.72,-218.11 846.62,-211.11"/>
</g>
<!-- Node62&#45;&gt;Node5 -->
<g id="edge51" class="edge">
<title>Node62&#45;&gt;Node5</title>
<path fill="none" stroke="midnightblue" d="M846.66,-213.97C1203.93,-205.4 2959.02,-163.29 3394.22,-152.85"/>
<polygon fill="midnightblue" stroke="midnightblue" points="846.42,-210.48 836.5,-214.22 846.59,-217.48 846.42,-210.48"/>
</g>
<!-- Node62&#45;&gt;Node20 -->
<g id="edge50" class="edge">
<title>Node62&#45;&gt;Node20</title>
<path fill="none" stroke="midnightblue" d="M770.18,-192.39C759.43,-174.63 742.68,-150.44 723,-134 699.77,-114.59 667.81,-100.43 645.68,-92.12"/>
<polygon fill="midnightblue" stroke="midnightblue" points="767.45,-194.64 775.52,-201.5 773.49,-191.1 767.45,-194.64"/>
</g>
<!-- Node62&#45;&gt;Node44 -->
<g id="edge53" class="edge">
<title>Node62&#45;&gt;Node44</title>
<path fill="none" stroke="midnightblue" d="M846.68,-215.16C1196.03,-213.2 2915.3,-202.01 4320,-165 5095.41,-144.57 5295.1,-200.33 6064,-98 6067,-97.6 6070.07,-97.12 6073.17,-96.59"/>
<polygon fill="midnightblue" stroke="midnightblue" points="846.49,-211.67 836.5,-215.22 846.52,-218.67 846.49,-211.67"/>
</g>
<!-- Node62&#45;&gt;Node45 -->
<g id="edge54" class="edge">
<title>Node62&#45;&gt;Node45</title>
<path fill="none" stroke="midnightblue" d="M783,-191.02C783,-163.51 783,-119.79 783,-97.52"/>
<polygon fill="midnightblue" stroke="midnightblue" points="779.5,-191.37 783,-201.37 786.5,-191.37 779.5,-191.37"/>
</g>
<!-- Node62&#45;&gt;Node48 -->
<g id="edge55" class="edge">
<title>Node62&#45;&gt;Node48</title>
<path fill="none" stroke="midnightblue" d="M719.36,-208.86C668.99,-202.07 597.61,-189.01 539,-165 515.5,-155.37 514.46,-143.72 491,-134 420.86,-104.93 398.08,-114.65 324,-98 321.3,-97.39 318.54,-96.77 315.76,-96.13"/>
<polygon fill="midnightblue" stroke="midnightblue" points="719.1,-212.35 729.46,-210.17 720,-205.41 719.1,-212.35"/>
</g>
<!-- Node63 -->
<g id="node43" class="node">
<title>Node63</title>
<g id="a_node43"><a xlink:href="../../dc/db7/measurements_8h.html" target="_top" xlink:title=" ">
<polygon fill="white" stroke="black" points="303.5,-140 303.5,-159 482.5,-159 482.5,-140 303.5,-140"/>
<text text-anchor="middle" x="393" y="-147" font-family="Helvetica,sans-Serif" font-size="10.00">src/libs/vformat/measurements.h</text>
</a>
</g>
</g>
<!-- Node62&#45;&gt;Node63 -->
<g id="edge45" class="edge">
<title>Node62&#45;&gt;Node63</title>
<path fill="none" stroke="midnightblue" d="M719.15,-204.86C642.29,-192.05 514.76,-170.79 444.1,-159.02"/>
<polygon fill="midnightblue" stroke="midnightblue" points="718.74,-208.34 729.18,-206.53 719.89,-201.43 718.74,-208.34"/>
</g>
<!-- Node64 -->
<g id="node44" class="node">
<title>Node64</title>
<g id="a_node44"><a xlink:href="../../d9/de3/measurements_8cpp.html" target="_top" xlink:title=" ">
<polygon fill="white" stroke="black" points="0,-73 0,-92 190,-92 190,-73 0,-73"/>
<text text-anchor="middle" x="95" y="-80" font-family="Helvetica,sans-Serif" font-size="10.00">src/libs/vformat/measurements.cpp</text>
</a>
</g>
</g>
<!-- Node62&#45;&gt;Node64 -->
<g id="edge47" class="edge">
<title>Node62&#45;&gt;Node64</title>
<path fill="none" stroke="midnightblue" d="M719.08,-214.68C624.72,-212.19 443.21,-202.43 294,-165 223.21,-147.24 144.48,-109.07 111.23,-92.03"/>
<polygon fill="midnightblue" stroke="midnightblue" points="719.23,-218.19 729.31,-214.94 719.4,-211.19 719.23,-218.19"/>
</g>
<!-- Node10 -->
<g id="node45" class="node">
<title>Node10</title>
<g id="a_node45"><a xlink:href="../../d6/de0/vlayoutpiece_8h.html" target="_top" xlink:title=" ">
<polygon fill="white" stroke="red" points="548,-140 548,-159 714,-159 714,-140 548,-140"/>
<text text-anchor="middle" x="631" y="-147" font-family="Helvetica,sans-Serif" font-size="10.00">src/libs/vlayout/vlayoutpiece.h</text>
</a>
</g>
</g>
<!-- Node62&#45;&gt;Node10 -->
<g id="edge48" class="edge">
<title>Node62&#45;&gt;Node10</title>
<path fill="none" stroke="midnightblue" d="M740.81,-197.46C711.44,-184.9 673.62,-168.72 650.89,-159.01"/>
<polygon fill="midnightblue" stroke="midnightblue" points="739.45,-200.68 750.02,-201.4 742.2,-194.25 739.45,-200.68"/>
</g>
<!-- Node65 -->
<g id="node46" class="node">
<title>Node65</title>
<g id="a_node46"><a xlink:href="../../d3/d02/custom__variable__p_8h.html" target="_top" xlink:title=" ">
<polygon fill="white" stroke="red" points="810.5,-134.5 810.5,-164.5 979.5,-164.5 979.5,-134.5 810.5,-134.5"/>
<text text-anchor="start" x="818.5" y="-152.5" font-family="Helvetica,sans-Serif" font-size="10.00">src/libs/vpatterndb</text>
<text text-anchor="middle" x="895" y="-141.5" font-family="Helvetica,sans-Serif" font-size="10.00">/variables/custom_variable_p.h</text>
</a>
</g>
</g>
<!-- Node62&#45;&gt;Node65 -->
<g id="edge52" class="edge">
<title>Node62&#45;&gt;Node65</title>
<path fill="none" stroke="midnightblue" d="M816.09,-196.3C833.62,-186.12 854.76,-173.85 870.75,-164.58"/>
<polygon fill="midnightblue" stroke="midnightblue" points="814.19,-193.35 807.3,-201.4 817.71,-199.4 814.19,-193.35"/>
</g>
<!-- Node63&#45;&gt;Node64 -->
<g id="edge46" class="edge">
<title>Node63&#45;&gt;Node64</title>
<path fill="none" stroke="midnightblue" d="M343.96,-137.8C285.32,-125.01 188.33,-103.86 134.35,-92.08"/>
<polygon fill="midnightblue" stroke="midnightblue" points="343.22,-141.22 353.74,-139.94 344.71,-134.38 343.22,-141.22"/>
</g>
<!-- Node10&#45;&gt;Node19 -->
<g id="edge49" class="edge">
<title>Node10&#45;&gt;Node19</title>
<path fill="none" stroke="midnightblue" d="M593.53,-136.85C552.13,-123.97 486.45,-103.55 449.54,-92.06"/>
<polygon fill="midnightblue" stroke="midnightblue" points="592.66,-140.24 603.25,-139.87 594.74,-133.56 592.66,-140.24"/>
</g>
</g>
</svg>
