<?xml version="1.0" encoding="UTF-8" standalone="no"?>
<!DOCTYPE svg PUBLIC "-//W3C//DTD SVG 1.1//EN"
 "http://www.w3.org/Graphics/SVG/1.1/DTD/svg11.dtd">
<!-- Generated by graphviz version 2.43.0 (0)
 -->
<!-- Title: src/app/seamly2d/dialogs/layoutsettings_dialog.h Pages: 1 -->
<svg width="4178pt" height="236pt"
 viewBox="0.00 0.00 4177.50 236.00" xmlns="http://www.w3.org/2000/svg" xmlns:xlink="http://www.w3.org/1999/xlink">
<g id="graph0" class="graph" transform="scale(1 1) rotate(0) translate(4 232)">
<title>src/app/seamly2d/dialogs/layoutsettings_dialog.h</title>
<!-- Node1 -->
<g id="Node000001" class="node">
<title>Node1</title>
<g id="a_Node000001"><a xlink:title=" ">
<polygon fill="#999999" stroke="#666666" points="1636.5,-228 1495.5,-228 1495.5,-198 1636.5,-198 1636.5,-228"/>
<text text-anchor="start" x="1503.5" y="-216" font-family="Helvetica,sans-Serif" font-size="10.00">src/app/seamly2d/dialogs</text>
<text text-anchor="middle" x="1566" y="-205" font-family="Helvetica,sans-Serif" font-size="10.00">/layoutsettings_dialog.h</text>
</a>
</g>
</g>
<!-- Node2 -->
<g id="Node000002" class="node">
<title>Node2</title>
<g id="a_Node000002"><a xlink:href="../../df/d9b/vcmdexport_8cpp.html" target="_top" xlink:title=" ">
<polygon fill="white" stroke="#666666" points="962.5,-96 835.5,-96 835.5,-66 962.5,-66 962.5,-96"/>
<text text-anchor="start" x="843.5" y="-84" font-family="Helvetica,sans-Serif" font-size="10.00">src/app/seamly2d/core</text>
<text text-anchor="middle" x="899" y="-73" font-family="Helvetica,sans-Serif" font-size="10.00">/vcmdexport.cpp</text>
</a>
</g>
</g>
<!-- Node1&#45;&gt;Node2 -->
<g id="edge1_Node000001_Node000002" class="edge">
<title>Node1&#45;&gt;Node2</title>
<g id="a_edge1_Node000001_Node000002"><a xlink:title=" ">
<path fill="none" stroke="#63b8ff" d="M1485.43,-196.3C1351.23,-170.14 1084.64,-118.18 962.64,-94.4"/>
<polygon fill="#63b8ff" stroke="#63b8ff" points="1484.77,-199.73 1495.25,-198.21 1486.11,-192.86 1484.77,-199.73"/>
</a>
</g>
</g>
<!-- Node3 -->
<g id="Node000003" class="node">
<title>Node3</title>
<g id="a_Node000003"><a xlink:href="../../dd/d57/vcmdexport_8h.html" target="_top" xlink:title=" ">
<polygon fill="white" stroke="#666666" points="1498.5,-162 1371.5,-162 1371.5,-132 1498.5,-132 1498.5,-162"/>
<text text-anchor="start" x="1379.5" y="-150" font-family="Helvetica,sans-Serif" font-size="10.00">src/app/seamly2d/core</text>
<text text-anchor="middle" x="1435" y="-139" font-family="Helvetica,sans-Serif" font-size="10.00">/vcmdexport.h</text>
</a>
</g>
</g>
<!-- Node1&#45;&gt;Node3 -->
<g id="edge2_Node000001_Node000003" class="edge">
<title>Node1&#45;&gt;Node3</title>
<g id="a_edge2_Node000001_Node000003"><a xlink:title=" ">
<path fill="none" stroke="#63b8ff" d="M1528.16,-193.51C1507.61,-183.47 1482.61,-171.26 1463.68,-162.01"/>
<polygon fill="#63b8ff" stroke="#63b8ff" points="1526.73,-196.71 1537.25,-197.95 1529.8,-190.42 1526.73,-196.71"/>
</a>
</g>
</g>
<!-- Node20 -->
<g id="Node000020" class="node">
<title>Node20</title>
<g id="a_Node000020"><a xlink:href="../../d0/dfa/layoutsettings__dialog_8cpp.html" target="_top" xlink:title=" ">
<polygon fill="white" stroke="#666666" points="3930.5,-30 3785.5,-30 3785.5,0 3930.5,0 3930.5,-30"/>
<text text-anchor="start" x="3793.5" y="-18" font-family="Helvetica,sans-Serif" font-size="10.00">src/app/seamly2d/dialogs</text>
<text text-anchor="middle" x="3858" y="-7" font-family="Helvetica,sans-Serif" font-size="10.00">/layoutsettings_dialog.cpp</text>
</a>
</g>
</g>
<!-- Node1&#45;&gt;Node20 -->
<g id="edge32_Node000001_Node000020" class="edge">
<title>Node1&#45;&gt;Node20</title>
<g id="a_edge32_Node000001_Node000020"><a xlink:title=" ">
<path fill="none" stroke="#63b8ff" d="M1646.83,-207.89C1936.21,-192.63 2947.46,-134.64 3776,-30 3779.01,-29.62 3782.08,-29.21 3785.17,-28.77"/>
<polygon fill="#63b8ff" stroke="#63b8ff" points="1646.64,-204.39 1636.84,-208.41 1647.01,-211.38 1646.64,-204.39"/>
</a>
</g>
</g>
<!-- Node26 -->
<g id="Node000026" class="node">
<title>Node26</title>
<g id="a_Node000026"><a xlink:href="../../d8/de8/mainwindowsnogui_8cpp.html" target="_top" xlink:title=" ">
<polygon fill="white" stroke="#666666" points="4169.5,-24.5 3948.5,-24.5 3948.5,-5.5 4169.5,-5.5 4169.5,-24.5"/>
<text text-anchor="middle" x="4059" y="-12.5" font-family="Helvetica,sans-Serif" font-size="10.00">src/app/seamly2d/mainwindowsnogui.cpp</text>
</a>
</g>
</g>
<!-- Node1&#45;&gt;Node26 -->
<g id="edge33_Node000001_Node000026" class="edge">
<title>Node1&#45;&gt;Node26</title>
<g id="a_edge33_Node000001_Node000026"><a xlink:title=" ">
<path fill="none" stroke="#63b8ff" d="M1646.86,-209.16C1820.44,-202.84 2241.6,-186.19 2594,-162 2925.19,-139.27 3007.65,-128.76 3338,-96 3576.12,-72.39 3857.94,-39.76 3987.42,-24.5"/>
<polygon fill="#63b8ff" stroke="#63b8ff" points="1646.65,-205.67 1636.79,-209.53 1646.91,-212.67 1646.65,-205.67"/>
</a>
</g>
</g>
<!-- Node3&#45;&gt;Node2 -->
<g id="edge27_Node000003_Node000002" class="edge">
<title>Node3&#45;&gt;Node2</title>
<g id="a_edge27_Node000003_Node000002"><a xlink:title=" ">
<path fill="none" stroke="#63b8ff" d="M1361,-136.97C1346.73,-135.28 1331.91,-133.56 1318,-132 1164.35,-114.81 1124.95,-118.58 972,-96 968.94,-95.55 965.81,-95.06 962.65,-94.54"/>
<polygon fill="#63b8ff" stroke="#63b8ff" points="1360.92,-140.49 1371.26,-138.19 1361.75,-133.53 1360.92,-140.49"/>
</a>
</g>
</g>
<!-- Node4 -->
<g id="Node000004" class="node">
<title>Node4</title>
<g id="a_Node000004"><a xlink:href="../../d7/d61/application__2d_8h.html" target="_top" xlink:title=" ">
<polygon fill="white" stroke="#666666" points="1864.5,-96 1737.5,-96 1737.5,-66 1864.5,-66 1864.5,-96"/>
<text text-anchor="start" x="1745.5" y="-84" font-family="Helvetica,sans-Serif" font-size="10.00">src/app/seamly2d/core</text>
<text text-anchor="middle" x="1801" y="-73" font-family="Helvetica,sans-Serif" font-size="10.00">/application_2d.h</text>
</a>
</g>
</g>
<!-- Node3&#45;&gt;Node4 -->
<g id="edge3_Node000003_Node000004" class="edge">
<title>Node3&#45;&gt;Node4</title>
<g id="a_edge3_Node000003_Node000004"><a xlink:title=" ">
<path fill="none" stroke="#63b8ff" d="M1508.82,-133.09C1575.86,-121.37 1673.71,-104.26 1737.37,-93.13"/>
<polygon fill="#63b8ff" stroke="#63b8ff" points="1508,-129.68 1498.75,-134.85 1509.21,-136.58 1508,-129.68"/>
</a>
</g>
</g>
<!-- Node28 -->
<g id="Node000028" class="node">
<title>Node28</title>
<g id="a_Node000028"><a xlink:href="../../d9/d53/mainwindow_8h.html" target="_top" xlink:title=" ">
<polygon fill="white" stroke="#666666" points="1157,-90.5 981,-90.5 981,-71.5 1157,-71.5 1157,-90.5"/>
<text text-anchor="middle" x="1069" y="-78.5" font-family="Helvetica,sans-Serif" font-size="10.00">src/app/seamly2d/mainwindow.h</text>
</a>
</g>
</g>
<!-- Node3&#45;&gt;Node28 -->
<g id="edge28_Node000003_Node000028" class="edge">
<title>Node3&#45;&gt;Node28</title>
<g id="a_edge28_Node000003_Node000028"><a xlink:title=" ">
<path fill="none" stroke="#63b8ff" d="M1361.26,-133.11C1288.73,-120.42 1180.07,-101.42 1117.7,-90.52"/>
<polygon fill="#63b8ff" stroke="#63b8ff" points="1360.79,-136.58 1371.25,-134.85 1362,-129.68 1360.79,-136.58"/>
</a>
</g>
</g>
<!-- Node5 -->
<g id="Node000005" class="node">
<title>Node5</title>
<g id="a_Node000005"><a xlink:href="../../df/d3e/application__2d_8cpp.html" target="_top" xlink:title=" ">
<polygon fill="white" stroke="#666666" points="333.5,-30 206.5,-30 206.5,0 333.5,0 333.5,-30"/>
<text text-anchor="start" x="214.5" y="-18" font-family="Helvetica,sans-Serif" font-size="10.00">src/app/seamly2d/core</text>
<text text-anchor="middle" x="270" y="-7" font-family="Helvetica,sans-Serif" font-size="10.00">/application_2d.cpp</text>
</a>
</g>
</g>
<!-- Node4&#45;&gt;Node5 -->
<g id="edge4_Node000004_Node000005" class="edge">
<title>Node4&#45;&gt;Node5</title>
<g id="a_edge4_Node000004_Node000005"><a xlink:title=" ">
<path fill="none" stroke="#63b8ff" d="M1726.77,-78.14C1449.01,-71.11 479.83,-45.66 342,-30 339.22,-29.68 336.38,-29.32 333.52,-28.91"/>
<polygon fill="#63b8ff" stroke="#63b8ff" points="1727.05,-81.65 1737.14,-78.41 1727.23,-74.65 1727.05,-81.65"/>
</a>
</g>
</g>
<!-- Node6 -->
<g id="Node000006" class="node">
<title>Node6</title>
<g id="a_Node000006"><a xlink:href="../../d2/d00/vtooloptionspropertybrowser_8cpp.html" target="_top" xlink:title=" ">
<polygon fill="white" stroke="#666666" points="2452,-30 2272,-30 2272,0 2452,0 2452,-30"/>
<text text-anchor="start" x="2280" y="-18" font-family="Helvetica,sans-Serif" font-size="10.00">src/app/seamly2d/core</text>
<text text-anchor="middle" x="2362" y="-7" font-family="Helvetica,sans-Serif" font-size="10.00">/vtooloptionspropertybrowser.cpp</text>
</a>
</g>
</g>
<!-- Node4&#45;&gt;Node6 -->
<g id="edge5_Node000004_Node000006" class="edge">
<title>Node4&#45;&gt;Node6</title>
<g id="a_edge5_Node000004_Node000006"><a xlink:title=" ">
<path fill="none" stroke="#63b8ff" d="M1874.78,-72.71C1965.88,-63.55 2125.51,-46.95 2262,-30 2265.22,-29.6 2268.49,-29.19 2271.8,-28.76"/>
<polygon fill="#63b8ff" stroke="#63b8ff" points="1874.43,-69.23 1864.83,-73.71 1875.13,-76.19 1874.43,-69.23"/>
</a>
</g>
</g>
<!-- Node7 -->
<g id="Node000007" class="node">
<title>Node7</title>
<g id="a_Node000007"><a xlink:href="../../dd/db4/abstractlayout__dialog_8cpp.html" target="_top" xlink:title=" ">
<polygon fill="white" stroke="#666666" points="2616,-30 2470,-30 2470,0 2616,0 2616,-30"/>
<text text-anchor="start" x="2478" y="-18" font-family="Helvetica,sans-Serif" font-size="10.00">src/app/seamly2d/dialogs</text>
<text text-anchor="middle" x="2543" y="-7" font-family="Helvetica,sans-Serif" font-size="10.00">/abstractlayout_dialog.cpp</text>
</a>
</g>
</g>
<!-- Node4&#45;&gt;Node7 -->
<g id="edge6_Node000004_Node000007" class="edge">
<title>Node4&#45;&gt;Node7</title>
<g id="a_edge6_Node000004_Node000007"><a xlink:title=" ">
<path fill="none" stroke="#63b8ff" d="M1874.91,-76.66C1997.18,-70.63 2249.12,-56.06 2461,-30 2463.87,-29.65 2466.79,-29.26 2469.73,-28.86"/>
<polygon fill="#63b8ff" stroke="#63b8ff" points="1874.73,-73.16 1864.91,-77.15 1875.07,-80.16 1874.73,-73.16"/>
</a>
</g>
</g>
<!-- Node8 -->
<g id="Node000008" class="node">
<title>Node8</title>
<g id="a_Node000008"><a xlink:href="../../d7/dfa/calculator__dialog_8cpp.html" target="_top" xlink:title=" ">
<polygon fill="white" stroke="#666666" points="2775.5,-30 2634.5,-30 2634.5,0 2775.5,0 2775.5,-30"/>
<text text-anchor="start" x="2642.5" y="-18" font-family="Helvetica,sans-Serif" font-size="10.00">src/app/seamly2d/dialogs</text>
<text text-anchor="middle" x="2705" y="-7" font-family="Helvetica,sans-Serif" font-size="10.00">/calculator_dialog.cpp</text>
</a>
</g>
</g>
<!-- Node4&#45;&gt;Node8 -->
<g id="edge7_Node000004_Node000008" class="edge">
<title>Node4&#45;&gt;Node8</title>
<g id="a_edge7_Node000004_Node000008"><a xlink:title=" ">
<path fill="none" stroke="#63b8ff" d="M1874.61,-78.31C2018.97,-74.39 2349.25,-62.39 2625,-30 2628.08,-29.64 2631.22,-29.24 2634.39,-28.8"/>
<polygon fill="#63b8ff" stroke="#63b8ff" points="1874.44,-74.82 1864.54,-78.58 1874.63,-81.81 1874.44,-74.82"/>
</a>
</g>
</g>
<!-- Node9 -->
<g id="Node000009" class="node">
<title>Node9</title>
<g id="a_Node000009"><a xlink:href="../../d2/d2d/preferencesconfigurationpage_8cpp.html" target="_top" xlink:title=" ">
<polygon fill="white" stroke="#666666" points="3040.5,-30 2793.5,-30 2793.5,0 3040.5,0 3040.5,-30"/>
<text text-anchor="start" x="2801.5" y="-18" font-family="Helvetica,sans-Serif" font-size="10.00">src/app/seamly2d/dialogs</text>
<text text-anchor="middle" x="2917" y="-7" font-family="Helvetica,sans-Serif" font-size="10.00">/configpages/preferencesconfigurationpage.cpp</text>
</a>
</g>
</g>
<!-- Node4&#45;&gt;Node9 -->
<g id="edge8_Node000004_Node000009" class="edge">
<title>Node4&#45;&gt;Node9</title>
<g id="a_edge8_Node000004_Node000009"><a xlink:title=" ">
<path fill="none" stroke="#63b8ff" d="M1875.06,-77.6C2039.02,-71.99 2444.97,-56.45 2784,-30 2787.12,-29.76 2790.29,-29.5 2793.48,-29.23"/>
<polygon fill="#63b8ff" stroke="#63b8ff" points="1874.49,-74.12 1864.62,-77.96 1874.73,-81.11 1874.49,-74.12"/>
</a>
</g>
</g>
<!-- Node10 -->
<g id="Node000010" class="node">
<title>Node10</title>
<g id="a_Node000010"><a xlink:href="../../d9/d70/preferencesgraphicsviewpage_8cpp.html" target="_top" xlink:title=" ">
<polygon fill="white" stroke="#666666" points="3307,-30 3059,-30 3059,0 3307,0 3307,-30"/>
<text text-anchor="start" x="3067" y="-18" font-family="Helvetica,sans-Serif" font-size="10.00">src/app/seamly2d/dialogs</text>
<text text-anchor="middle" x="3183" y="-7" font-family="Helvetica,sans-Serif" font-size="10.00">/configpages/preferencesgraphicsviewpage.cpp</text>
</a>
</g>
</g>
<!-- Node4&#45;&gt;Node10 -->
<g id="edge9_Node000004_Node000010" class="edge">
<title>Node4&#45;&gt;Node10</title>
<g id="a_edge9_Node000004_Node000010"><a xlink:title=" ">
<path fill="none" stroke="#63b8ff" d="M1874.75,-78.69C2067.81,-74.92 2603.86,-62.14 3049,-30 3052.27,-29.76 3055.58,-29.51 3058.91,-29.25"/>
<polygon fill="#63b8ff" stroke="#63b8ff" points="1874.65,-75.2 1864.72,-78.89 1874.79,-82.19 1874.65,-75.2"/>
</a>
</g>
</g>
<!-- Node11 -->
<g id="Node000011" class="node">
<title>Node11</title>
<g id="a_Node000011"><a xlink:href="../../dc/d20/preferencespathpage_8cpp.html" target="_top" xlink:title=" ">
<polygon fill="white" stroke="#666666" points="3530.5,-30 3325.5,-30 3325.5,0 3530.5,0 3530.5,-30"/>
<text text-anchor="start" x="3333.5" y="-18" font-family="Helvetica,sans-Serif" font-size="10.00">src/app/seamly2d/dialogs</text>
<text text-anchor="middle" x="3428" y="-7" font-family="Helvetica,sans-Serif" font-size="10.00">/configpages/preferencespathpage.cpp</text>
</a>
</g>
</g>
<!-- Node4&#45;&gt;Node11 -->
<g id="edge10_Node000004_Node000011" class="edge">
<title>Node4&#45;&gt;Node11</title>
<g id="a_edge10_Node000004_Node000011"><a xlink:title=" ">
<path fill="none" stroke="#63b8ff" d="M1874.74,-79.95C2094.38,-79.29 2763.34,-73.57 3316,-30 3319.13,-29.75 3322.3,-29.48 3325.5,-29.19"/>
<polygon fill="#63b8ff" stroke="#63b8ff" points="1874.61,-76.45 1864.62,-79.98 1874.63,-83.45 1874.61,-76.45"/>
</a>
</g>
</g>
<!-- Node12 -->
<g id="Node000012" class="node">
<title>Node12</title>
<g id="a_Node000012"><a xlink:href="../../dc/d63/preferencespatternpage_8cpp.html" target="_top" xlink:title=" ">
<polygon fill="white" stroke="#666666" points="3767,-30 3549,-30 3549,0 3767,0 3767,-30"/>
<text text-anchor="start" x="3557" y="-18" font-family="Helvetica,sans-Serif" font-size="10.00">src/app/seamly2d/dialogs</text>
<text text-anchor="middle" x="3658" y="-7" font-family="Helvetica,sans-Serif" font-size="10.00">/configpages/preferencespatternpage.cpp</text>
</a>
</g>
</g>
<!-- Node4&#45;&gt;Node12 -->
<g id="edge11_Node000004_Node000012" class="edge">
<title>Node4&#45;&gt;Node12</title>
<g id="a_edge11_Node000004_Node000012"><a xlink:title=" ">
<path fill="none" stroke="#63b8ff" d="M1874.63,-80.21C2114.53,-80.38 2895.32,-77.03 3539,-30 3542.22,-29.77 3545.48,-29.51 3548.77,-29.23"/>
<polygon fill="#63b8ff" stroke="#63b8ff" points="1874.63,-76.71 1864.63,-80.2 1874.62,-83.71 1874.63,-76.71"/>
</a>
</g>
</g>
<!-- Node13 -->
<g id="Node000013" class="node">
<title>Node13</title>
<g id="a_Node000013"><a xlink:href="../../dd/dc2/decimalchart__dialog_8cpp.html" target="_top" xlink:title=" ">
<polygon fill="white" stroke="#666666" points="661.5,-30 520.5,-30 520.5,0 661.5,0 661.5,-30"/>
<text text-anchor="start" x="528.5" y="-18" font-family="Helvetica,sans-Serif" font-size="10.00">src/app/seamly2d/dialogs</text>
<text text-anchor="middle" x="591" y="-7" font-family="Helvetica,sans-Serif" font-size="10.00">/decimalchart_dialog.cpp</text>
</a>
</g>
</g>
<!-- Node4&#45;&gt;Node13 -->
<g id="edge12_Node000004_Node000013" class="edge">
<title>Node4&#45;&gt;Node13</title>
<g id="a_edge12_Node000004_Node000013"><a xlink:title=" ">
<path fill="none" stroke="#63b8ff" d="M1727.25,-78.01C1510.2,-71.94 876.01,-52.71 670,-30 667.23,-29.69 664.41,-29.35 661.57,-28.98"/>
<polygon fill="#63b8ff" stroke="#63b8ff" points="1727.17,-81.51 1737.27,-78.28 1727.37,-74.51 1727.17,-81.51"/>
</a>
</g>
</g>
<!-- Node14 -->
<g id="Node000014" class="node">
<title>Node14</title>
<g id="a_Node000014"><a xlink:href="../../dd/d64/dialogaboutapp_8cpp.html" target="_top" xlink:title=" ">
<polygon fill="white" stroke="#666666" points="820.5,-30 679.5,-30 679.5,0 820.5,0 820.5,-30"/>
<text text-anchor="start" x="687.5" y="-18" font-family="Helvetica,sans-Serif" font-size="10.00">src/app/seamly2d/dialogs</text>
<text text-anchor="middle" x="750" y="-7" font-family="Helvetica,sans-Serif" font-size="10.00">/dialogaboutapp.cpp</text>
</a>
</g>
</g>
<!-- Node4&#45;&gt;Node14 -->
<g id="edge13_Node000004_Node000014" class="edge">
<title>Node4&#45;&gt;Node14</title>
<g id="a_edge13_Node000004_Node000014"><a xlink:title=" ">
<path fill="none" stroke="#63b8ff" d="M1727,-79.32C1564.16,-77.13 1162.7,-68 829,-30 826.23,-29.68 823.41,-29.33 820.57,-28.95"/>
<polygon fill="#63b8ff" stroke="#63b8ff" points="1727.33,-82.82 1737.38,-79.45 1727.42,-75.82 1727.33,-82.82"/>
</a>
</g>
</g>
<!-- Node15 -->
<g id="Node000015" class="node">
<title>Node15</title>
<g id="a_Node000015"><a xlink:href="../../d6/d89/dialoglayoutprogress_8cpp.html" target="_top" xlink:title=" ">
<polygon fill="white" stroke="#666666" points="981.5,-30 838.5,-30 838.5,0 981.5,0 981.5,-30"/>
<text text-anchor="start" x="846.5" y="-18" font-family="Helvetica,sans-Serif" font-size="10.00">src/app/seamly2d/dialogs</text>
<text text-anchor="middle" x="910" y="-7" font-family="Helvetica,sans-Serif" font-size="10.00">/dialoglayoutprogress.cpp</text>
</a>
</g>
</g>
<!-- Node4&#45;&gt;Node15 -->
<g id="edge14_Node000004_Node000015" class="edge">
<title>Node4&#45;&gt;Node15</title>
<g id="a_edge14_Node000004_Node000015"><a xlink:title=" ">
<path fill="none" stroke="#63b8ff" d="M1727.05,-78.2C1584.18,-74.12 1260.44,-61.9 990,-30 987.34,-29.69 984.63,-29.34 981.9,-28.97"/>
<polygon fill="#63b8ff" stroke="#63b8ff" points="1727.34,-81.71 1737.43,-78.49 1727.53,-74.72 1727.34,-81.71"/>
</a>
</g>
</g>
<!-- Node16 -->
<g id="Node000016" class="node">
<title>Node16</title>
<g id="a_Node000016"><a xlink:href="../../d5/d18/dialogpatternproperties_8cpp.html" target="_top" xlink:title=" ">
<polygon fill="white" stroke="#666666" points="1154.5,-30 999.5,-30 999.5,0 1154.5,0 1154.5,-30"/>
<text text-anchor="start" x="1007.5" y="-18" font-family="Helvetica,sans-Serif" font-size="10.00">src/app/seamly2d/dialogs</text>
<text text-anchor="middle" x="1077" y="-7" font-family="Helvetica,sans-Serif" font-size="10.00">/dialogpatternproperties.cpp</text>
</a>
</g>
</g>
<!-- Node4&#45;&gt;Node16 -->
<g id="edge15_Node000004_Node000016" class="edge">
<title>Node4&#45;&gt;Node16</title>
<g id="a_edge15_Node000004_Node000016"><a xlink:title=" ">
<path fill="none" stroke="#63b8ff" d="M1727.35,-76.22C1608.38,-69.67 1366.65,-54.51 1163,-30 1160.3,-29.67 1157.55,-29.33 1154.77,-28.96"/>
<polygon fill="#63b8ff" stroke="#63b8ff" points="1727.26,-79.72 1737.44,-76.77 1727.64,-72.73 1727.26,-79.72"/>
</a>
</g>
</g>
<!-- Node17 -->
<g id="Node000017" class="node">
<title>Node17</title>
<g id="a_Node000017"><a xlink:href="../../d5/dc5/dialogpreferences_8cpp.html" target="_top" xlink:title=" ">
<polygon fill="white" stroke="#666666" points="1313.5,-30 1172.5,-30 1172.5,0 1313.5,0 1313.5,-30"/>
<text text-anchor="start" x="1180.5" y="-18" font-family="Helvetica,sans-Serif" font-size="10.00">src/app/seamly2d/dialogs</text>
<text text-anchor="middle" x="1243" y="-7" font-family="Helvetica,sans-Serif" font-size="10.00">/dialogpreferences.cpp</text>
</a>
</g>
</g>
<!-- Node4&#45;&gt;Node17 -->
<g id="edge16_Node000004_Node000017" class="edge">
<title>Node4&#45;&gt;Node17</title>
<g id="a_edge16_Node000004_Node000017"><a xlink:title=" ">
<path fill="none" stroke="#63b8ff" d="M1727.29,-73.95C1633.06,-65.84 1465,-50.11 1322,-30 1319.24,-29.61 1316.43,-29.2 1313.6,-28.77"/>
<polygon fill="#63b8ff" stroke="#63b8ff" points="1727.03,-77.44 1737.29,-74.81 1727.62,-70.47 1727.03,-77.44"/>
</a>
</g>
</g>
<!-- Node18 -->
<g id="Node000018" class="node">
<title>Node18</title>
<g id="a_Node000018"><a xlink:href="../../dd/d54/export__layout__dialog_8cpp.html" target="_top" xlink:title=" ">
<polygon fill="white" stroke="#666666" points="1474.5,-30 1331.5,-30 1331.5,0 1474.5,0 1474.5,-30"/>
<text text-anchor="start" x="1339.5" y="-18" font-family="Helvetica,sans-Serif" font-size="10.00">src/app/seamly2d/dialogs</text>
<text text-anchor="middle" x="1403" y="-7" font-family="Helvetica,sans-Serif" font-size="10.00">/export_layout_dialog.cpp</text>
</a>
</g>
</g>
<!-- Node4&#45;&gt;Node18 -->
<g id="edge17_Node000004_Node000018" class="edge">
<title>Node4&#45;&gt;Node18</title>
<g id="a_edge17_Node000004_Node000018"><a xlink:title=" ">
<path fill="none" stroke="#63b8ff" d="M1727.22,-68.77C1662.74,-58.86 1566.6,-43.89 1483,-30 1480.22,-29.54 1477.38,-29.06 1474.52,-28.58"/>
<polygon fill="#63b8ff" stroke="#63b8ff" points="1726.88,-72.26 1737.3,-70.31 1727.94,-65.34 1726.88,-72.26"/>
</a>
</g>
</g>
<!-- Node19 -->
<g id="Node000019" class="node">
<title>Node19</title>
<g id="a_Node000019"><a xlink:href="../../db/d5c/groups__widget_8cpp.html" target="_top" xlink:title=" ">
<polygon fill="white" stroke="#666666" points="1633.5,-30 1492.5,-30 1492.5,0 1633.5,0 1633.5,-30"/>
<text text-anchor="start" x="1500.5" y="-18" font-family="Helvetica,sans-Serif" font-size="10.00">src/app/seamly2d/dialogs</text>
<text text-anchor="middle" x="1563" y="-7" font-family="Helvetica,sans-Serif" font-size="10.00">/groups_widget.cpp</text>
</a>
</g>
</g>
<!-- Node4&#45;&gt;Node19 -->
<g id="edge18_Node000004_Node000019" class="edge">
<title>Node4&#45;&gt;Node19</title>
<g id="a_edge18_Node000004_Node000019"><a xlink:title=" ">
<path fill="none" stroke="#63b8ff" d="M1738.72,-63.25C1700.27,-52.91 1651.51,-39.8 1615.11,-30.01"/>
<polygon fill="#63b8ff" stroke="#63b8ff" points="1738.2,-66.74 1748.77,-65.95 1740.02,-59.98 1738.2,-66.74"/>
</a>
</g>
</g>
<!-- Node4&#45;&gt;Node20 -->
<g id="edge19_Node000004_Node000020" class="edge">
<title>Node4&#45;&gt;Node20</title>
<g id="a_edge19_Node000004_Node000020"><a xlink:title=" ">
<path fill="none" stroke="#63b8ff" d="M1875.25,-79.55C2187.66,-77.44 3396.69,-66.99 3776,-30 3779.02,-29.71 3782.09,-29.37 3785.2,-28.99"/>
<polygon fill="#63b8ff" stroke="#63b8ff" points="1874.93,-76.05 1864.96,-79.62 1874.98,-83.05 1874.93,-76.05"/>
</a>
</g>
</g>
<!-- Node21 -->
<g id="Node000021" class="node">
<title>Node21</title>
<g id="a_Node000021"><a xlink:href="../../dd/d84/shortcuts__dialog_8cpp.html" target="_top" xlink:title=" ">
<polygon fill="white" stroke="#666666" points="1792.5,-30 1651.5,-30 1651.5,0 1792.5,0 1792.5,-30"/>
<text text-anchor="start" x="1659.5" y="-18" font-family="Helvetica,sans-Serif" font-size="10.00">src/app/seamly2d/dialogs</text>
<text text-anchor="middle" x="1722" y="-7" font-family="Helvetica,sans-Serif" font-size="10.00">/shortcuts_dialog.cpp</text>
</a>
</g>
</g>
<!-- Node4&#45;&gt;Node21 -->
<g id="edge20_Node000004_Node000021" class="edge">
<title>Node4&#45;&gt;Node21</title>
<g id="a_edge20_Node000004_Node000021"><a xlink:title=" ">
<path fill="none" stroke="#63b8ff" d="M1775.67,-59.48C1763.86,-49.91 1750.11,-38.77 1739.48,-30.16"/>
<polygon fill="#63b8ff" stroke="#63b8ff" points="1773.49,-62.22 1783.47,-65.8 1777.9,-56.78 1773.49,-62.22"/>
</a>
</g>
</g>
<!-- Node22 -->
<g id="Node000022" class="node">
<title>Node22</title>
<g id="a_Node000022"><a xlink:href="../../d2/df4/show__info__dialog_8cpp.html" target="_top" xlink:title=" ">
<polygon fill="white" stroke="#666666" points="1951.5,-30 1810.5,-30 1810.5,0 1951.5,0 1951.5,-30"/>
<text text-anchor="start" x="1818.5" y="-18" font-family="Helvetica,sans-Serif" font-size="10.00">src/app/seamly2d/dialogs</text>
<text text-anchor="middle" x="1881" y="-7" font-family="Helvetica,sans-Serif" font-size="10.00">/show_info_dialog.cpp</text>
</a>
</g>
</g>
<!-- Node4&#45;&gt;Node22 -->
<g id="edge21_Node000004_Node000022" class="edge">
<title>Node4&#45;&gt;Node22</title>
<g id="a_edge21_Node000004_Node000022"><a xlink:title=" ">
<path fill="none" stroke="#63b8ff" d="M1826.65,-59.48C1838.61,-49.91 1852.53,-38.77 1863.3,-30.16"/>
<polygon fill="#63b8ff" stroke="#63b8ff" points="1824.38,-56.82 1818.75,-65.8 1828.75,-62.28 1824.38,-56.82"/>
</a>
</g>
</g>
<!-- Node23 -->
<g id="Node000023" class="node">
<title>Node23</title>
<g id="a_Node000023"><a xlink:href="../../df/d69/welcome__dialog_8cpp.html" target="_top" xlink:title=" ">
<polygon fill="white" stroke="#666666" points="2110.5,-30 1969.5,-30 1969.5,0 2110.5,0 2110.5,-30"/>
<text text-anchor="start" x="1977.5" y="-18" font-family="Helvetica,sans-Serif" font-size="10.00">src/app/seamly2d/dialogs</text>
<text text-anchor="middle" x="2040" y="-7" font-family="Helvetica,sans-Serif" font-size="10.00">/welcome_dialog.cpp</text>
</a>
</g>
</g>
<!-- Node4&#45;&gt;Node23 -->
<g id="edge22_Node000004_Node000023" class="edge">
<title>Node4&#45;&gt;Node23</title>
<g id="a_edge22_Node000004_Node000023"><a xlink:title=" ">
<path fill="none" stroke="#63b8ff" d="M1863.54,-63.25C1902.15,-52.91 1951.12,-39.8 1987.67,-30.01"/>
<polygon fill="#63b8ff" stroke="#63b8ff" points="1862.2,-59.99 1853.45,-65.95 1864.01,-66.75 1862.2,-59.99"/>
</a>
</g>
</g>
<!-- Node24 -->
<g id="Node000024" class="node">
<title>Node24</title>
<g id="a_Node000024"><a xlink:href="../../dc/d14/app_2seamly2d_2main_8cpp.html" target="_top" xlink:title=" ">
<polygon fill="white" stroke="#666666" points="502.5,-24.5 351.5,-24.5 351.5,-5.5 502.5,-5.5 502.5,-24.5"/>
<text text-anchor="middle" x="427" y="-12.5" font-family="Helvetica,sans-Serif" font-size="10.00">src/app/seamly2d/main.cpp</text>
</a>
</g>
</g>
<!-- Node4&#45;&gt;Node24 -->
<g id="edge23_Node000004_Node000024" class="edge">
<title>Node4&#45;&gt;Node24</title>
<g id="a_edge23_Node000004_Node000024"><a xlink:title=" ">
<path fill="none" stroke="#63b8ff" d="M1726.9,-78.36C1489.48,-72.92 749.37,-54.39 511,-30 498.2,-28.69 484.4,-26.65 471.76,-24.54"/>
<polygon fill="#63b8ff" stroke="#63b8ff" points="1727.07,-81.87 1737.15,-78.6 1727.23,-74.87 1727.07,-81.87"/>
</a>
</g>
</g>
<!-- Node25 -->
<g id="Node000025" class="node">
<title>Node25</title>
<g id="a_Node000025"><a xlink:href="../../d8/dd9/mainwindow_8cpp.html" target="_top" xlink:title=" ">
<polygon fill="white" stroke="#666666" points="188,-24.5 0,-24.5 0,-5.5 188,-5.5 188,-24.5"/>
<text text-anchor="middle" x="94" y="-12.5" font-family="Helvetica,sans-Serif" font-size="10.00">src/app/seamly2d/mainwindow.cpp</text>
</a>
</g>
</g>
<!-- Node4&#45;&gt;Node25 -->
<g id="edge24_Node000004_Node000025" class="edge">
<title>Node4&#45;&gt;Node25</title>
<g id="a_edge24_Node000004_Node000025"><a xlink:title=" ">
<path fill="none" stroke="#63b8ff" d="M1726.88,-78.14C1431.95,-70.7 350.23,-42.77 197,-30 181.26,-28.69 164.25,-26.64 148.67,-24.51"/>
<polygon fill="#63b8ff" stroke="#63b8ff" points="1726.96,-81.65 1737.04,-78.4 1727.13,-74.65 1726.96,-81.65"/>
</a>
</g>
</g>
<!-- Node4&#45;&gt;Node26 -->
<g id="edge25_Node000004_Node000026" class="edge">
<title>Node4&#45;&gt;Node26</title>
<g id="a_edge25_Node000004_Node000026"><a xlink:title=" ">
<path fill="none" stroke="#63b8ff" d="M1875.06,-79.2C2202.91,-75.53 3525.67,-59.15 3940,-30 3958.26,-28.72 3978.03,-26.66 3996.11,-24.51"/>
<polygon fill="#63b8ff" stroke="#63b8ff" points="1874.69,-75.71 1864.73,-79.32 1874.77,-82.71 1874.69,-75.71"/>
</a>
</g>
</g>
<!-- Node27 -->
<g id="Node000027" class="node">
<title>Node27</title>
<g id="a_Node000027"><a xlink:href="../../d3/d49/vpattern_8cpp.html" target="_top" xlink:title=" ">
<polygon fill="white" stroke="#666666" points="2253.5,-30 2128.5,-30 2128.5,0 2253.5,0 2253.5,-30"/>
<text text-anchor="start" x="2136.5" y="-18" font-family="Helvetica,sans-Serif" font-size="10.00">src/app/seamly2d/xml</text>
<text text-anchor="middle" x="2191" y="-7" font-family="Helvetica,sans-Serif" font-size="10.00">/vpattern.cpp</text>
</a>
</g>
</g>
<!-- Node4&#45;&gt;Node27 -->
<g id="edge26_Node000004_Node000027" class="edge">
<title>Node4&#45;&gt;Node27</title>
<g id="a_edge26_Node000004_Node000027"><a xlink:title=" ">
<path fill="none" stroke="#63b8ff" d="M1874.84,-69.16C1939.37,-59.51 2035.53,-44.67 2119,-30 2122.01,-29.47 2125.09,-28.92 2128.2,-28.35"/>
<polygon fill="#63b8ff" stroke="#63b8ff" points="1874.14,-65.73 1864.76,-70.67 1875.17,-72.65 1874.14,-65.73"/>
</a>
</g>
</g>
<!-- Node28&#45;&gt;Node5 -->
<g id="edge29_Node000028_Node000005" class="edge">
<title>Node28&#45;&gt;Node5</title>
<g id="a_edge29_Node000028_Node000005"><a xlink:title=" ">
<path fill="none" stroke="#63b8ff" d="M1004.95,-70.05C993.66,-68.53 982,-67.1 971,-66 692.37,-38.18 619.84,-64.8 342,-30 339.22,-29.65 336.39,-29.26 333.53,-28.83"/>
<polygon fill="#63b8ff" stroke="#63b8ff" points="1004.8,-73.57 1015.18,-71.48 1005.76,-66.63 1004.8,-73.57"/>
</a>
</g>
</g>
<!-- Node28&#45;&gt;Node24 -->
<g id="edge30_Node000028_Node000024" class="edge">
<title>Node28&#45;&gt;Node24</title>
<g id="a_edge30_Node000028_Node000024"><a xlink:title=" ">
<path fill="none" stroke="#63b8ff" d="M1003.92,-70.11C992.94,-68.61 981.66,-67.18 971,-66 767.17,-43.49 714.55,-54.88 511,-30 498.97,-28.53 486.02,-26.56 473.99,-24.57"/>
<polygon fill="#63b8ff" stroke="#63b8ff" points="1003.49,-73.58 1013.88,-71.5 1004.46,-66.65 1003.49,-73.58"/>
</a>
</g>
</g>
<!-- Node28&#45;&gt;Node25 -->
<g id="edge31_Node000028_Node000025" class="edge">
<title>Node28&#45;&gt;Node25</title>
<g id="a_edge31_Node000028_Node000025"><a xlink:title=" ">
<path fill="none" stroke="#63b8ff" d="M1005.91,-70.08C994.32,-68.52 982.31,-67.07 971,-66 628.15,-33.61 539.95,-61.22 197,-30 181.72,-28.61 165.24,-26.6 150.03,-24.53"/>
<polygon fill="#63b8ff" stroke="#63b8ff" points="1005.57,-73.57 1015.96,-71.48 1006.54,-66.64 1005.57,-73.57"/>
</a>
</g>
</g>
</g>
</svg>
