<?xml version="1.0" encoding="UTF-8" standalone="no"?>
<!DOCTYPE svg PUBLIC "-//W3C//DTD SVG 1.1//EN"
 "http://www.w3.org/Graphics/SVG/1.1/DTD/svg11.dtd">
<!-- Generated by graphviz version 2.43.0 (0)
 -->
<!-- Title: src/app/seamly2d/dialogs/layoutsettings_dialog.h Pages: 1 -->
<!--zoomable 240 -->
<svg id="main" version="1.1" xmlns="http://www.w3.org/2000/svg" xmlns:xlink="http://www.w3.org/1999/xlink" xml:space="preserve" onload="init(evt)">
<style type="text/css"><![CDATA[
.edge:hover path { stroke: red; }
.edge:hover polygon { stroke: red; fill: red; }
]]></style>
<script type="text/javascript"><![CDATA[
var edges = document.getElementsByTagName('g');
if (edges && edges.length) {
  for (var i=0;i<edges.length;i++) {
    if (edges[i].id.substr(0,4)=='edge') {
      edges[i].setAttribute('class','edge');
    }
  }
}
]]></script>
        <defs>
                <circle id="rim" cx="0" cy="0" r="7"/>
                <circle id="rim2" cx="0" cy="0" r="3.5"/>
                <g id="zoomPlus">
                        <use xlink:href="#rim" fill="#404040">
                                <set attributeName="fill" to="#808080" begin="zoomplus.mouseover" end="zoomplus.mouseout"/>
                        </use>
                        <path d="M-4,0h8M0,-4v8" fill="none" stroke="white" stroke-width="1.5" pointer-events="none"/>
                </g>
                <g id="zoomMin">
                        <use xlink:href="#rim" fill="#404040">
                                <set attributeName="fill" to="#808080" begin="zoomminus.mouseover" end="zoomminus.mouseout"/>
                        </use>
                        <path d="M-4,0h8" fill="none" stroke="white" stroke-width="1.5" pointer-events="none"/>
                </g>
                <g id="dirArrow">
                        <path fill="none" stroke="white" stroke-width="1.5" d="M0,-3.0v7 M-2.5,-0.5L0,-3.0L2.5,-0.5"/>
                </g>
               <g id="resetDef">
                       <use xlink:href="#rim2" fill="#404040">
                               <set attributeName="fill" to="#808080" begin="reset.mouseover" end="reset.mouseout"/>
                       </use>
               </g>
        </defs>

<script type="text/javascript">
var viewWidth = 4178;
var viewHeight = 240;
var sectionId = 'dynsection-1';
</script>
<script xlink:href="../../svgpan.js"/>
<svg id="graph" class="graph">
<g id="viewport">
<title>src/app/seamly2d/dialogs/layoutsettings_dialog.h</title>
<polygon fill="white" stroke="transparent" points="-4,4 -4,-236 4174,-236 4174,4 -4,4"/>
<!-- Node1 -->
<g id="node1" class="node">
<title>Node1</title>
<g id="a_node1"><a xlink:title=" ">
<polygon fill="#bfbfbf" stroke="black" points="2726,-201.5 2726,-231.5 2867,-231.5 2867,-201.5 2726,-201.5"/>
<text text-anchor="start" x="2734" y="-219.5" font-family="Helvetica,sans-Serif" font-size="10.00">src/app/seamly2d/dialogs</text>
<text text-anchor="middle" x="2796.5" y="-208.5" font-family="Helvetica,sans-Serif" font-size="10.00">/layoutsettings_dialog.h</text>
</a>
</g>
</g>
<!-- Node2 -->
<g id="node2" class="node">
<title>Node2</title>
<g id="a_node2"><a xlink:href="../../dd/d57/vcmdexport_8h.html" target="_top" xlink:title=" ">
<polygon fill="white" stroke="black" points="2569,-134.5 2569,-164.5 2696,-164.5 2696,-134.5 2569,-134.5"/>
<text text-anchor="start" x="2577" y="-152.5" font-family="Helvetica,sans-Serif" font-size="10.00">src/app/seamly2d/core</text>
<text text-anchor="middle" x="2632.5" y="-141.5" font-family="Helvetica,sans-Serif" font-size="10.00">/vcmdexport.h</text>
</a>
</g>
</g>
<!-- Node1&#45;&gt;Node2 -->
<g id="edge1" class="edge">
<title>Node1&#45;&gt;Node2</title>
<path fill="none" stroke="midnightblue" d="M2751.54,-197.68C2725.24,-187.26 2692.5,-174.28 2668.02,-164.58"/>
<polygon fill="midnightblue" stroke="midnightblue" points="2750.33,-200.97 2760.91,-201.4 2752.91,-194.46 2750.33,-200.97"/>
</g>
<!-- Node19 -->
<g id="node19" class="node">
<title>Node19</title>
<g id="a_node19"><a xlink:href="../../d0/dfa/layoutsettings__dialog_8cpp.html" target="_top" xlink:title=" ">
<polygon fill="white" stroke="black" points="3786,-0.5 3786,-30.5 3931,-30.5 3931,-0.5 3786,-0.5"/>
<text text-anchor="start" x="3794" y="-18.5" font-family="Helvetica,sans-Serif" font-size="10.00">src/app/seamly2d/dialogs</text>
<text text-anchor="middle" x="3858.5" y="-7.5" font-family="Helvetica,sans-Serif" font-size="10.00">/layoutsettings_dialog.cpp</text>
</a>
</g>
</g>
<!-- Node1&#45;&gt;Node19 -->
<g id="edge32" class="edge">
<title>Node1&#45;&gt;Node19</title>
<path fill="none" stroke="midnightblue" d="M2876.86,-200.44C3076.83,-162.97 3594.48,-65.97 3785.92,-30.1"/>
<polygon fill="midnightblue" stroke="midnightblue" points="2876.19,-197.01 2867,-202.29 2877.48,-203.89 2876.19,-197.01"/>
</g>
<!-- Node24 -->
<g id="node24" class="node">
<title>Node24</title>
<g id="a_node24"><a xlink:href="../../d8/de8/mainwindowsnogui_8cpp.html" target="_top" xlink:title=" ">
<polygon fill="white" stroke="black" points="3949,-6 3949,-25 4170,-25 4170,-6 3949,-6"/>
<text text-anchor="middle" x="4059.5" y="-13" font-family="Helvetica,sans-Serif" font-size="10.00">src/app/seamly2d/mainwindowsnogui.cpp</text>
</a>
</g>
</g>
<!-- Node1&#45;&gt;Node24 -->
<g id="edge33" class="edge">
<title>Node1&#45;&gt;Node24</title>
<path fill="none" stroke="midnightblue" d="M2877.52,-205C2951.95,-195.2 3065.27,-179.9 3163.5,-165 3487.76,-115.83 3876.6,-48.53 4011.01,-25.02"/>
<polygon fill="midnightblue" stroke="midnightblue" points="2876.74,-201.57 2867.28,-206.35 2877.65,-208.51 2876.74,-201.57"/>
</g>
<!-- Node27 -->
<g id="node27" class="node">
<title>Node27</title>
<g id="a_node27"><a xlink:href="../../df/d9b/vcmdexport_8cpp.html" target="_top" xlink:title=" ">
<polygon fill="white" stroke="black" points="2628,-67.5 2628,-97.5 2755,-97.5 2755,-67.5 2628,-67.5"/>
<text text-anchor="start" x="2636" y="-85.5" font-family="Helvetica,sans-Serif" font-size="10.00">src/app/seamly2d/core</text>
<text text-anchor="middle" x="2691.5" y="-74.5" font-family="Helvetica,sans-Serif" font-size="10.00">/vcmdexport.cpp</text>
</a>
</g>
</g>
<!-- Node1&#45;&gt;Node27 -->
<g id="edge31" class="edge">
<title>Node1&#45;&gt;Node27</title>
<path fill="none" stroke="midnightblue" d="M2779.03,-193.54C2757.33,-166.25 2720.92,-120.48 2702.66,-97.52"/>
<polygon fill="midnightblue" stroke="midnightblue" points="2776.3,-195.73 2785.26,-201.37 2781.78,-191.37 2776.3,-195.73"/>
</g>
<!-- Node3 -->
<g id="node3" class="node">
<title>Node3</title>
<g id="a_node3"><a xlink:href="../../d7/d61/application__2d_8h.html" target="_top" xlink:title=" ">
<polygon fill="white" stroke="black" points="2033,-67.5 2033,-97.5 2160,-97.5 2160,-67.5 2033,-67.5"/>
<text text-anchor="start" x="2041" y="-85.5" font-family="Helvetica,sans-Serif" font-size="10.00">src/app/seamly2d/core</text>
<text text-anchor="middle" x="2096.5" y="-74.5" font-family="Helvetica,sans-Serif" font-size="10.00">/application_2d.h</text>
</a>
</g>
</g>
<!-- Node2&#45;&gt;Node3 -->
<g id="edge2" class="edge">
<title>Node2&#45;&gt;Node3</title>
<path fill="none" stroke="midnightblue" d="M2558.95,-139.58C2453.18,-126.75 2259.89,-103.31 2160.01,-91.2"/>
<polygon fill="midnightblue" stroke="midnightblue" points="2558.56,-143.06 2568.91,-140.79 2559.4,-136.11 2558.56,-143.06"/>
</g>
<!-- Node2&#45;&gt;Node27 -->
<g id="edge26" class="edge">
<title>Node2&#45;&gt;Node27</title>
<path fill="none" stroke="midnightblue" d="M2652.25,-126.74C2660.98,-117.12 2671,-106.09 2678.72,-97.58"/>
<polygon fill="midnightblue" stroke="midnightblue" points="2649.43,-124.64 2645.3,-134.4 2654.61,-129.34 2649.43,-124.64"/>
</g>
<!-- Node28 -->
<g id="node28" class="node">
<title>Node28</title>
<g id="a_node28"><a xlink:href="../../d9/d53/mainwindow_8h.html" target="_top" xlink:title=" ">
<polygon fill="white" stroke="black" points="226.5,-73 226.5,-92 402.5,-92 402.5,-73 226.5,-73"/>
<text text-anchor="middle" x="314.5" y="-80" font-family="Helvetica,sans-Serif" font-size="10.00">src/app/seamly2d/mainwindow.h</text>
</a>
</g>
</g>
<!-- Node2&#45;&gt;Node28 -->
<g id="edge27" class="edge">
<title>Node2&#45;&gt;Node28</title>
<path fill="none" stroke="midnightblue" d="M2558.93,-146.44C2215.96,-136.82 775.03,-96.41 402.64,-85.97"/>
<polygon fill="midnightblue" stroke="midnightblue" points="2558.9,-149.94 2568.99,-146.72 2559.1,-142.94 2558.9,-149.94"/>
</g>
<!-- Node4 -->
<g id="node4" class="node">
<title>Node4</title>
<g id="a_node4"><a xlink:href="../../df/d3e/application__2d_8cpp.html" target="_top" xlink:title=" ">
<polygon fill="white" stroke="black" points="0,-0.5 0,-30.5 127,-30.5 127,-0.5 0,-0.5"/>
<text text-anchor="start" x="8" y="-18.5" font-family="Helvetica,sans-Serif" font-size="10.00">src/app/seamly2d/core</text>
<text text-anchor="middle" x="63.5" y="-7.5" font-family="Helvetica,sans-Serif" font-size="10.00">/application_2d.cpp</text>
</a>
</g>
</g>
<!-- Node3&#45;&gt;Node4 -->
<g id="edge3" class="edge">
<title>Node3&#45;&gt;Node4</title>
<path fill="none" stroke="midnightblue" d="M2022.74,-81.31C1712.42,-80.24 511.53,-73.38 135.5,-31 132.71,-30.69 129.87,-30.32 127.01,-29.91"/>
<polygon fill="midnightblue" stroke="midnightblue" points="2022.96,-84.81 2032.97,-81.34 2022.98,-77.81 2022.96,-84.81"/>
</g>
<!-- Node5 -->
<g id="node5" class="node">
<title>Node5</title>
<g id="a_node5"><a xlink:href="../../dd/db4/abstractlayout__dialog_8cpp.html" target="_top" xlink:title=" ">
<polygon fill="white" stroke="black" points="1536.5,-0.5 1536.5,-30.5 1682.5,-30.5 1682.5,-0.5 1536.5,-0.5"/>
<text text-anchor="start" x="1544.5" y="-18.5" font-family="Helvetica,sans-Serif" font-size="10.00">src/app/seamly2d/dialogs</text>
<text text-anchor="middle" x="1609.5" y="-7.5" font-family="Helvetica,sans-Serif" font-size="10.00">/abstractlayout_dialog.cpp</text>
</a>
</g>
</g>
<!-- Node3&#45;&gt;Node5 -->
<g id="edge4" class="edge">
<title>Node3&#45;&gt;Node5</title>
<path fill="none" stroke="midnightblue" d="M2022.75,-73.45C1941.46,-64.3 1806.9,-48.39 1691.5,-31 1688.64,-30.57 1685.73,-30.12 1682.79,-29.65"/>
<polygon fill="midnightblue" stroke="midnightblue" points="2022.55,-76.95 2032.88,-74.58 2023.33,-69.99 2022.55,-76.95"/>
</g>
<!-- Node6 -->
<g id="node6" class="node">
<title>Node6</title>
<g id="a_node6"><a xlink:href="../../d7/dfa/calculator__dialog_8cpp.html" target="_top" xlink:title=" ">
<polygon fill="white" stroke="black" points="1701,-0.5 1701,-30.5 1842,-30.5 1842,-0.5 1701,-0.5"/>
<text text-anchor="start" x="1709" y="-18.5" font-family="Helvetica,sans-Serif" font-size="10.00">src/app/seamly2d/dialogs</text>
<text text-anchor="middle" x="1771.5" y="-7.5" font-family="Helvetica,sans-Serif" font-size="10.00">/calculator_dialog.cpp</text>
</a>
</g>
</g>
<!-- Node3&#45;&gt;Node6 -->
<g id="edge5" class="edge">
<title>Node3&#45;&gt;Node6</title>
<path fill="none" stroke="midnightblue" d="M2022.77,-66.75C1968.47,-55.89 1895.09,-41.22 1841.65,-30.53"/>
<polygon fill="midnightblue" stroke="midnightblue" points="2022.19,-70.21 2032.68,-68.74 2023.56,-63.34 2022.19,-70.21"/>
</g>
<!-- Node7 -->
<g id="node7" class="node">
<title>Node7</title>
<g id="a_node7"><a xlink:href="../../d9/d70/preferencesgraphicsviewpage_8cpp.html" target="_top" xlink:title=" ">
<polygon fill="white" stroke="black" points="1860.5,-0.5 1860.5,-30.5 2108.5,-30.5 2108.5,-0.5 1860.5,-0.5"/>
<text text-anchor="start" x="1868.5" y="-18.5" font-family="Helvetica,sans-Serif" font-size="10.00">src/app/seamly2d/dialogs</text>
<text text-anchor="middle" x="1984.5" y="-7.5" font-family="Helvetica,sans-Serif" font-size="10.00">/configpages/preferencesgraphicsviewpage.cpp</text>
</a>
</g>
</g>
<!-- Node3&#45;&gt;Node7 -->
<g id="edge6" class="edge">
<title>Node3&#45;&gt;Node7</title>
<path fill="none" stroke="midnightblue" d="M2063.41,-62.3C2045.88,-52.12 2024.74,-39.85 2008.75,-30.58"/>
<polygon fill="midnightblue" stroke="midnightblue" points="2061.79,-65.4 2072.2,-67.4 2065.31,-59.35 2061.79,-65.4"/>
</g>
<!-- Node8 -->
<g id="node8" class="node">
<title>Node8</title>
<g id="a_node8"><a xlink:href="../../dc/d20/preferencespathpage_8cpp.html" target="_top" xlink:title=" ">
<polygon fill="white" stroke="black" points="2127,-0.5 2127,-30.5 2332,-30.5 2332,-0.5 2127,-0.5"/>
<text text-anchor="start" x="2135" y="-18.5" font-family="Helvetica,sans-Serif" font-size="10.00">src/app/seamly2d/dialogs</text>
<text text-anchor="middle" x="2229.5" y="-7.5" font-family="Helvetica,sans-Serif" font-size="10.00">/configpages/preferencespathpage.cpp</text>
</a>
</g>
</g>
<!-- Node3&#45;&gt;Node8 -->
<g id="edge7" class="edge">
<title>Node3&#45;&gt;Node8</title>
<path fill="none" stroke="midnightblue" d="M2134.37,-62.99C2155.45,-52.69 2181.28,-40.07 2200.7,-30.58"/>
<polygon fill="midnightblue" stroke="midnightblue" points="2132.81,-59.86 2125.36,-67.4 2135.88,-66.15 2132.81,-59.86"/>
</g>
<!-- Node9 -->
<g id="node9" class="node">
<title>Node9</title>
<g id="a_node9"><a xlink:href="../../d2/d00/vtooloptionspropertybrowser_8cpp.html" target="_top" xlink:title=" ">
<polygon fill="white" stroke="black" points="2350.5,-0.5 2350.5,-30.5 2530.5,-30.5 2530.5,-0.5 2350.5,-0.5"/>
<text text-anchor="start" x="2358.5" y="-18.5" font-family="Helvetica,sans-Serif" font-size="10.00">src/app/seamly2d/core</text>
<text text-anchor="middle" x="2440.5" y="-7.5" font-family="Helvetica,sans-Serif" font-size="10.00">/vtooloptionspropertybrowser.cpp</text>
</a>
</g>
</g>
<!-- Node3&#45;&gt;Node9 -->
<g id="edge8" class="edge">
<title>Node3&#45;&gt;Node9</title>
<path fill="none" stroke="midnightblue" d="M2170.56,-67.51C2228.37,-56.58 2308.31,-41.48 2366.18,-30.54"/>
<polygon fill="midnightblue" stroke="midnightblue" points="2169.57,-64.13 2160.4,-69.43 2170.87,-71.01 2169.57,-64.13"/>
</g>
<!-- Node10 -->
<g id="node10" class="node">
<title>Node10</title>
<g id="a_node10"><a xlink:href="../../dd/dc2/decimalchart__dialog_8cpp.html" target="_top" xlink:title=" ">
<polygon fill="white" stroke="black" points="2549,-0.5 2549,-30.5 2690,-30.5 2690,-0.5 2549,-0.5"/>
<text text-anchor="start" x="2557" y="-18.5" font-family="Helvetica,sans-Serif" font-size="10.00">src/app/seamly2d/dialogs</text>
<text text-anchor="middle" x="2619.5" y="-7.5" font-family="Helvetica,sans-Serif" font-size="10.00">/decimalchart_dialog.cpp</text>
</a>
</g>
</g>
<!-- Node3&#45;&gt;Node10 -->
<g id="edge9" class="edge">
<title>Node3&#45;&gt;Node10</title>
<path fill="none" stroke="midnightblue" d="M2170.29,-74.59C2258.37,-65.99 2410.04,-50.09 2539.5,-31 2542.57,-30.55 2545.71,-30.06 2548.87,-29.56"/>
<polygon fill="midnightblue" stroke="midnightblue" points="2169.74,-71.12 2160.13,-75.57 2170.42,-78.09 2169.74,-71.12"/>
</g>
<!-- Node11 -->
<g id="node11" class="node">
<title>Node11</title>
<g id="a_node11"><a xlink:href="../../d2/d2d/preferencesconfigurationpage_8cpp.html" target="_top" xlink:title=" ">
<polygon fill="white" stroke="black" points="2708,-0.5 2708,-30.5 2955,-30.5 2955,-0.5 2708,-0.5"/>
<text text-anchor="start" x="2716" y="-18.5" font-family="Helvetica,sans-Serif" font-size="10.00">src/app/seamly2d/dialogs</text>
<text text-anchor="middle" x="2831.5" y="-7.5" font-family="Helvetica,sans-Serif" font-size="10.00">/configpages/preferencesconfigurationpage.cpp</text>
</a>
</g>
</g>
<!-- Node3&#45;&gt;Node11 -->
<g id="edge10" class="edge">
<title>Node3&#45;&gt;Node11</title>
<path fill="none" stroke="midnightblue" d="M2170.23,-75.91C2283.77,-67.17 2508.24,-49.35 2698.5,-31 2701.62,-30.7 2704.78,-30.39 2707.97,-30.07"/>
<polygon fill="midnightblue" stroke="midnightblue" points="2169.96,-72.42 2160.26,-76.68 2170.49,-79.4 2169.96,-72.42"/>
</g>
<!-- Node12 -->
<g id="node12" class="node">
<title>Node12</title>
<g id="a_node12"><a xlink:href="../../dd/d64/dialogaboutapp_8cpp.html" target="_top" xlink:title=" ">
<polygon fill="white" stroke="black" points="2973,-0.5 2973,-30.5 3114,-30.5 3114,-0.5 2973,-0.5"/>
<text text-anchor="start" x="2981" y="-18.5" font-family="Helvetica,sans-Serif" font-size="10.00">src/app/seamly2d/dialogs</text>
<text text-anchor="middle" x="3043.5" y="-7.5" font-family="Helvetica,sans-Serif" font-size="10.00">/dialogaboutapp.cpp</text>
</a>
</g>
</g>
<!-- Node3&#45;&gt;Node12 -->
<g id="edge11" class="edge">
<title>Node3&#45;&gt;Node12</title>
<path fill="none" stroke="midnightblue" d="M2170.19,-80.28C2320.21,-77.11 2671.68,-66.25 2964.5,-31 2967.27,-30.67 2970.09,-30.3 2972.93,-29.9"/>
<polygon fill="midnightblue" stroke="midnightblue" points="2170.1,-76.78 2160.18,-80.48 2170.25,-83.78 2170.1,-76.78"/>
</g>
<!-- Node13 -->
<g id="node13" class="node">
<title>Node13</title>
<g id="a_node13"><a xlink:href="../../d6/d89/dialoglayoutprogress_8cpp.html" target="_top" xlink:title=" ">
<polygon fill="white" stroke="black" points="3132,-0.5 3132,-30.5 3275,-30.5 3275,-0.5 3132,-0.5"/>
<text text-anchor="start" x="3140" y="-18.5" font-family="Helvetica,sans-Serif" font-size="10.00">src/app/seamly2d/dialogs</text>
<text text-anchor="middle" x="3203.5" y="-7.5" font-family="Helvetica,sans-Serif" font-size="10.00">/dialoglayoutprogress.cpp</text>
</a>
</g>
</g>
<!-- Node3&#45;&gt;Node13 -->
<g id="edge12" class="edge">
<title>Node3&#45;&gt;Node13</title>
<path fill="none" stroke="midnightblue" d="M2170.36,-79.12C2373.65,-72.37 2938.61,-52.21 3123.5,-31 3126.16,-30.69 3128.87,-30.35 3131.61,-29.99"/>
<polygon fill="midnightblue" stroke="midnightblue" points="2169.96,-75.63 2160.08,-79.46 2170.19,-82.63 2169.96,-75.63"/>
</g>
<!-- Node14 -->
<g id="node14" class="node">
<title>Node14</title>
<g id="a_node14"><a xlink:href="../../d5/d18/dialogpatternproperties_8cpp.html" target="_top" xlink:title=" ">
<polygon fill="white" stroke="black" points="3293,-0.5 3293,-30.5 3448,-30.5 3448,-0.5 3293,-0.5"/>
<text text-anchor="start" x="3301" y="-18.5" font-family="Helvetica,sans-Serif" font-size="10.00">src/app/seamly2d/dialogs</text>
<text text-anchor="middle" x="3370.5" y="-7.5" font-family="Helvetica,sans-Serif" font-size="10.00">/dialogpatternproperties.cpp</text>
</a>
</g>
</g>
<!-- Node3&#45;&gt;Node14 -->
<g id="edge13" class="edge">
<title>Node3&#45;&gt;Node14</title>
<path fill="none" stroke="midnightblue" d="M2170.07,-79.58C2394.24,-73.52 3066.76,-53.89 3284.5,-31 3287.21,-30.72 3289.96,-30.4 3292.74,-30.06"/>
<polygon fill="midnightblue" stroke="midnightblue" points="2169.96,-76.08 2160.05,-79.84 2170.14,-83.07 2169.96,-76.08"/>
</g>
<!-- Node15 -->
<g id="node15" class="node">
<title>Node15</title>
<g id="a_node15"><a xlink:href="../../d5/dc5/dialogpreferences_8cpp.html" target="_top" xlink:title=" ">
<polygon fill="white" stroke="black" points="3466,-0.5 3466,-30.5 3607,-30.5 3607,-0.5 3466,-0.5"/>
<text text-anchor="start" x="3474" y="-18.5" font-family="Helvetica,sans-Serif" font-size="10.00">src/app/seamly2d/dialogs</text>
<text text-anchor="middle" x="3536.5" y="-7.5" font-family="Helvetica,sans-Serif" font-size="10.00">/dialogpreferences.cpp</text>
</a>
</g>
</g>
<!-- Node3&#45;&gt;Node15 -->
<g id="edge14" class="edge">
<title>Node3&#45;&gt;Node15</title>
<path fill="none" stroke="midnightblue" d="M2170.58,-79.38C2435.88,-71.69 3329.64,-45.03 3457.5,-31 3460.27,-30.7 3463.09,-30.35 3465.94,-29.97"/>
<polygon fill="midnightblue" stroke="midnightblue" points="2170.18,-75.89 2160.28,-79.68 2170.38,-82.89 2170.18,-75.89"/>
</g>
<!-- Node16 -->
<g id="node16" class="node">
<title>Node16</title>
<g id="a_node16"><a xlink:href="../../dd/d54/export__layout__dialog_8cpp.html" target="_top" xlink:title=" ">
<polygon fill="white" stroke="black" points="3625,-0.5 3625,-30.5 3768,-30.5 3768,-0.5 3625,-0.5"/>
<text text-anchor="start" x="3633" y="-18.5" font-family="Helvetica,sans-Serif" font-size="10.00">src/app/seamly2d/dialogs</text>
<text text-anchor="middle" x="3696.5" y="-7.5" font-family="Helvetica,sans-Serif" font-size="10.00">/export_layout_dialog.cpp</text>
</a>
</g>
</g>
<!-- Node3&#45;&gt;Node16 -->
<g id="edge15" class="edge">
<title>Node3&#45;&gt;Node16</title>
<path fill="none" stroke="midnightblue" d="M2170.38,-79.35C2465.05,-70.72 3544.01,-38.73 3616.5,-31 3619.17,-30.72 3621.88,-30.39 3624.61,-30.04"/>
<polygon fill="midnightblue" stroke="midnightblue" points="2170.12,-75.85 2160.23,-79.64 2170.33,-82.85 2170.12,-75.85"/>
</g>
<!-- Node17 -->
<g id="node17" class="node">
<title>Node17</title>
<g id="a_node17"><a xlink:href="../../dc/d63/preferencespatternpage_8cpp.html" target="_top" xlink:title=" ">
<polygon fill="white" stroke="black" points="520.5,-0.5 520.5,-30.5 738.5,-30.5 738.5,-0.5 520.5,-0.5"/>
<text text-anchor="start" x="528.5" y="-18.5" font-family="Helvetica,sans-Serif" font-size="10.00">src/app/seamly2d/dialogs</text>
<text text-anchor="middle" x="629.5" y="-7.5" font-family="Helvetica,sans-Serif" font-size="10.00">/configpages/preferencespatternpage.cpp</text>
</a>
</g>
</g>
<!-- Node3&#45;&gt;Node17 -->
<g id="edge16" class="edge">
<title>Node3&#45;&gt;Node17</title>
<path fill="none" stroke="midnightblue" d="M2022.56,-80.93C1818.93,-78.9 1232.87,-69.84 747.5,-31 744.62,-30.77 741.7,-30.52 738.76,-30.26"/>
<polygon fill="midnightblue" stroke="midnightblue" points="2022.8,-84.44 2032.83,-81.03 2022.87,-77.44 2022.8,-84.44"/>
</g>
<!-- Node18 -->
<g id="node18" class="node">
<title>Node18</title>
<g id="a_node18"><a xlink:href="../../db/d5c/groups__widget_8cpp.html" target="_top" xlink:title=" ">
<polygon fill="white" stroke="black" points="757,-0.5 757,-30.5 898,-30.5 898,-0.5 757,-0.5"/>
<text text-anchor="start" x="765" y="-18.5" font-family="Helvetica,sans-Serif" font-size="10.00">src/app/seamly2d/dialogs</text>
<text text-anchor="middle" x="827.5" y="-7.5" font-family="Helvetica,sans-Serif" font-size="10.00">/groups_widget.cpp</text>
</a>
</g>
</g>
<!-- Node3&#45;&gt;Node18 -->
<g id="edge17" class="edge">
<title>Node3&#45;&gt;Node18</title>
<path fill="none" stroke="midnightblue" d="M2022.72,-81.93C1835.49,-82.24 1326.95,-78.27 906.5,-31 903.73,-30.69 900.91,-30.34 898.06,-29.95"/>
<polygon fill="midnightblue" stroke="midnightblue" points="2022.73,-85.43 2032.73,-81.91 2022.72,-78.43 2022.73,-85.43"/>
</g>
<!-- Node3&#45;&gt;Node19 -->
<g id="edge18" class="edge">
<title>Node3&#45;&gt;Node19</title>
<path fill="none" stroke="midnightblue" d="M2170.21,-79.43C2489.27,-70.47 3736.99,-35.21 3777.5,-31 3780.2,-30.72 3782.95,-30.4 3785.71,-30.05"/>
<polygon fill="midnightblue" stroke="midnightblue" points="2170.05,-75.94 2160.15,-79.72 2170.25,-82.93 2170.05,-75.94"/>
</g>
<!-- Node20 -->
<g id="node20" class="node">
<title>Node20</title>
<g id="a_node20"><a xlink:href="../../df/d69/welcome__dialog_8cpp.html" target="_top" xlink:title=" ">
<polygon fill="white" stroke="black" points="916,-0.5 916,-30.5 1057,-30.5 1057,-0.5 916,-0.5"/>
<text text-anchor="start" x="924" y="-18.5" font-family="Helvetica,sans-Serif" font-size="10.00">src/app/seamly2d/dialogs</text>
<text text-anchor="middle" x="986.5" y="-7.5" font-family="Helvetica,sans-Serif" font-size="10.00">/welcome_dialog.cpp</text>
</a>
</g>
</g>
<!-- Node3&#45;&gt;Node20 -->
<g id="edge19" class="edge">
<title>Node3&#45;&gt;Node20</title>
<path fill="none" stroke="midnightblue" d="M2022.85,-81.24C1853.33,-79.9 1422.7,-72.34 1065.5,-31 1062.73,-30.68 1059.91,-30.32 1057.07,-29.93"/>
<polygon fill="midnightblue" stroke="midnightblue" points="2022.88,-84.74 2032.91,-81.31 2022.93,-77.74 2022.88,-84.74"/>
</g>
<!-- Node21 -->
<g id="node21" class="node">
<title>Node21</title>
<g id="a_node21"><a xlink:href="../../d2/df4/show__info__dialog_8cpp.html" target="_top" xlink:title=" ">
<polygon fill="white" stroke="black" points="1075,-0.5 1075,-30.5 1216,-30.5 1216,-0.5 1075,-0.5"/>
<text text-anchor="start" x="1083" y="-18.5" font-family="Helvetica,sans-Serif" font-size="10.00">src/app/seamly2d/dialogs</text>
<text text-anchor="middle" x="1145.5" y="-7.5" font-family="Helvetica,sans-Serif" font-size="10.00">/show_info_dialog.cpp</text>
</a>
</g>
</g>
<!-- Node3&#45;&gt;Node21 -->
<g id="edge20" class="edge">
<title>Node3&#45;&gt;Node21</title>
<path fill="none" stroke="midnightblue" d="M2022.75,-80.3C1872.2,-77.18 1518.85,-66.4 1224.5,-31 1221.73,-30.67 1218.91,-30.3 1216.07,-29.9"/>
<polygon fill="midnightblue" stroke="midnightblue" points="2022.73,-83.8 2032.8,-80.51 2022.87,-76.8 2022.73,-83.8"/>
</g>
<!-- Node22 -->
<g id="node22" class="node">
<title>Node22</title>
<g id="a_node22"><a xlink:href="../../dd/d84/shortcuts__dialog_8cpp.html" target="_top" xlink:title=" ">
<polygon fill="white" stroke="black" points="1234,-0.5 1234,-30.5 1375,-30.5 1375,-0.5 1234,-0.5"/>
<text text-anchor="start" x="1242" y="-18.5" font-family="Helvetica,sans-Serif" font-size="10.00">src/app/seamly2d/dialogs</text>
<text text-anchor="middle" x="1304.5" y="-7.5" font-family="Helvetica,sans-Serif" font-size="10.00">/shortcuts_dialog.cpp</text>
</a>
</g>
</g>
<!-- Node3&#45;&gt;Node22 -->
<g id="edge21" class="edge">
<title>Node3&#45;&gt;Node22</title>
<path fill="none" stroke="midnightblue" d="M2022.62,-78.97C1892.86,-73.92 1615.73,-60.44 1383.5,-31 1380.73,-30.65 1377.92,-30.26 1375.07,-29.85"/>
<polygon fill="midnightblue" stroke="midnightblue" points="2022.71,-82.47 2032.84,-79.36 2022.98,-75.48 2022.71,-82.47"/>
</g>
<!-- Node23 -->
<g id="node23" class="node">
<title>Node23</title>
<g id="a_node23"><a xlink:href="../../dc/d14/app_2seamly2d_2main_8cpp.html" target="_top" xlink:title=" ">
<polygon fill="white" stroke="black" points="145,-6 145,-25 296,-25 296,-6 145,-6"/>
<text text-anchor="middle" x="220.5" y="-13" font-family="Helvetica,sans-Serif" font-size="10.00">src/app/seamly2d/main.cpp</text>
</a>
</g>
</g>
<!-- Node3&#45;&gt;Node23 -->
<g id="edge22" class="edge">
<title>Node3&#45;&gt;Node23</title>
<path fill="none" stroke="midnightblue" d="M2022.46,-80.8C1728.97,-77.83 646.8,-64.75 305.5,-31 291.79,-29.64 276.96,-27.39 263.58,-25.06"/>
<polygon fill="midnightblue" stroke="midnightblue" points="2022.53,-84.3 2032.56,-80.91 2022.6,-77.3 2022.53,-84.3"/>
</g>
<!-- Node3&#45;&gt;Node24 -->
<g id="edge23" class="edge">
<title>Node3&#45;&gt;Node24</title>
<path fill="none" stroke="midnightblue" d="M2170.5,-79.43C2271.66,-76.61 2458.82,-71.39 2618.5,-67 3206.05,-50.84 3354.35,-74.59 3940.5,-31 3959.49,-29.59 3980.11,-27.33 3998.76,-25.02"/>
<polygon fill="midnightblue" stroke="midnightblue" points="2170.28,-75.94 2160.38,-79.71 2170.48,-82.93 2170.28,-75.94"/>
</g>
<!-- Node25 -->
<g id="node25" class="node">
<title>Node25</title>
<g id="a_node25"><a xlink:href="../../d8/dd9/mainwindow_8cpp.html" target="_top" xlink:title=" ">
<polygon fill="white" stroke="black" points="314.5,-6 314.5,-25 502.5,-25 502.5,-6 314.5,-6"/>
<text text-anchor="middle" x="408.5" y="-13" font-family="Helvetica,sans-Serif" font-size="10.00">src/app/seamly2d/mainwindow.cpp</text>
</a>
</g>
</g>
<!-- Node3&#45;&gt;Node25 -->
<g id="edge24" class="edge">
<title>Node3&#45;&gt;Node25</title>
<path fill="none" stroke="midnightblue" d="M2022.85,-81.98C1796.68,-82.83 1092.32,-80.99 511.5,-31 495.04,-29.58 477.18,-27.33 461.04,-25.01"/>
<polygon fill="midnightblue" stroke="midnightblue" points="2022.95,-85.48 2032.94,-81.93 2022.92,-78.48 2022.95,-85.48"/>
</g>
<!-- Node26 -->
<g id="node26" class="node">
<title>Node26</title>
<g id="a_node26"><a xlink:href="../../d3/d49/vpattern_8cpp.html" target="_top" xlink:title=" ">
<polygon fill="white" stroke="black" points="1393,-0.5 1393,-30.5 1518,-30.5 1518,-0.5 1393,-0.5"/>
<text text-anchor="start" x="1401" y="-18.5" font-family="Helvetica,sans-Serif" font-size="10.00">src/app/seamly2d/xml</text>
<text text-anchor="middle" x="1455.5" y="-7.5" font-family="Helvetica,sans-Serif" font-size="10.00">/vpattern.cpp</text>
</a>
</g>
</g>
<!-- Node3&#45;&gt;Node26 -->
<g id="edge25" class="edge">
<title>Node3&#45;&gt;Node26</title>
<path fill="none" stroke="midnightblue" d="M2022.44,-77.54C1913.58,-71.13 1704.12,-56.54 1527.5,-31 1524.47,-30.56 1521.38,-30.08 1518.26,-29.56"/>
<polygon fill="midnightblue" stroke="midnightblue" points="2022.47,-81.05 2032.66,-78.14 2022.88,-74.06 2022.47,-81.05"/>
</g>
<!-- Node28&#45;&gt;Node4 -->
<g id="edge28" class="edge">
<title>Node28&#45;&gt;Node4</title>
<path fill="none" stroke="midnightblue" d="M271.67,-70.41C229.17,-59.4 163.9,-42.5 117.79,-30.56"/>
<polygon fill="midnightblue" stroke="midnightblue" points="270.87,-73.82 281.43,-72.94 272.62,-67.04 270.87,-73.82"/>
</g>
<!-- Node28&#45;&gt;Node23 -->
<g id="edge29" class="edge">
<title>Node28&#45;&gt;Node23</title>
<path fill="none" stroke="midnightblue" d="M293.41,-66.92C274.83,-54.07 248.38,-35.78 232.98,-25.13"/>
<polygon fill="midnightblue" stroke="midnightblue" points="291.61,-69.93 301.82,-72.73 295.59,-64.17 291.61,-69.93"/>
</g>
<!-- Node28&#45;&gt;Node25 -->
<g id="edge30" class="edge">
<title>Node28&#45;&gt;Node25</title>
<path fill="none" stroke="midnightblue" d="M335.59,-66.92C354.17,-54.07 380.62,-35.78 396.02,-25.13"/>
<polygon fill="midnightblue" stroke="midnightblue" points="333.41,-64.17 327.18,-72.73 337.39,-69.93 333.41,-64.17"/>
</g>
</g>
</svg>
        <g id="navigator" transform="translate(0 0)" fill="#404254">
                <rect fill="#f2f5e9" fill-opacity="0.5" stroke="#606060" stroke-width=".5" x="0" y="0" width="60" height="60"/>
                <use id="zoomplus" xlink:href="#zoomPlus" x="17" y="9" onmousedown="handleZoom(evt,'in')"/>
                <use id="zoomminus" xlink:href="#zoomMin" x="42" y="9" onmousedown="handleZoom(evt,'out')"/>
                <use id="reset" xlink:href="#resetDef" x="30" y="36" onmousedown="handleReset()"/>
                <g id="arrowUp" xlink:href="#dirArrow" transform="translate(30 24)" onmousedown="handlePan(0,-1)">
                  <use xlink:href="#rim" fill="#404040">
                        <set attributeName="fill" to="#808080" begin="arrowUp.mouseover" end="arrowUp.mouseout"/>
                  </use>
                  <path fill="none" stroke="white" stroke-width="1.5" d="M0,-3.0v7 M-2.5,-0.5L0,-3.0L2.5,-0.5"/>
                </g>
                <g id="arrowRight" xlink:href="#dirArrow" transform="rotate(90) translate(36 -43)" onmousedown="handlePan(1,0)">
                  <use xlink:href="#rim" fill="#404040">
                        <set attributeName="fill" to="#808080" begin="arrowRight.mouseover" end="arrowRight.mouseout"/>
                  </use>
                  <path fill="none" stroke="white" stroke-width="1.5" d="M0,-3.0v7 M-2.5,-0.5L0,-3.0L2.5,-0.5"/>
                </g>
                <g id="arrowDown" xlink:href="#dirArrow" transform="rotate(180) translate(-30 -48)" onmousedown="handlePan(0,1)">
                  <use xlink:href="#rim" fill="#404040">
                        <set attributeName="fill" to="#808080" begin="arrowDown.mouseover" end="arrowDown.mouseout"/>
                  </use>
                  <path fill="none" stroke="white" stroke-width="1.5" d="M0,-3.0v7 M-2.5,-0.5L0,-3.0L2.5,-0.5"/>
                </g>
                <g id="arrowLeft" xlink:href="#dirArrow" transform="rotate(270) translate(-36 17)" onmousedown="handlePan(-1,0)">
                  <use xlink:href="#rim" fill="#404040">
                        <set attributeName="fill" to="#808080" begin="arrowLeft.mouseover" end="arrowLeft.mouseout"/>
                  </use>
                  <path fill="none" stroke="white" stroke-width="1.5" d="M0,-3.0v7 M-2.5,-0.5L0,-3.0L2.5,-0.5"/>
                </g>
        </g>
        <svg viewBox="0 0 15 15" width="100%" height="30px" preserveAspectRatio="xMaxYMin meet">
         <g id="arrow_out" transform="scale(0.3 0.3)">
          <a xlink:href="layoutsettings__dialog_8h__dep__incl_org.svg" target="_base">
           <rect id="button" ry="5" rx="5" y="6" x="6" height="38" width="38"
                fill="#f2f5e9" fill-opacity="0.5" stroke="#606060" stroke-width="1.0"/>
           <path id="arrow"
             d="M 11.500037,31.436501 C 11.940474,20.09759 22.043105,11.32322 32.158766,21.979434 L 37.068811,17.246167 C 37.068811,17.246167 37.088388,32 37.088388,32 L 22.160133,31.978069 C 22.160133,31.978069 26.997745,27.140456 26.997745,27.140456 C 18.528582,18.264221 13.291696,25.230495 11.500037,31.436501 z"
             style="fill:#404040;"/>
          </a>
         </g>
        </svg>
</svg>
