<?xml version="1.0" encoding="UTF-8" standalone="no"?>
<!DOCTYPE svg PUBLIC "-//W3C//DTD SVG 1.1//EN"
 "http://www.w3.org/Graphics/SVG/1.1/DTD/svg11.dtd">
<!-- Generated by graphviz version 2.43.0 (0)
 -->
<!-- Title: src/libs/vwidgets/resize_handle.h Pages: 1 -->
<svg width="1732pt" height="357pt"
 viewBox="0.00 0.00 1732.00 357.00" xmlns="http://www.w3.org/2000/svg" xmlns:xlink="http://www.w3.org/1999/xlink">
<g id="graph0" class="graph" transform="scale(1 1) rotate(0) translate(4 353)">
<title>src/libs/vwidgets/resize_handle.h</title>
<!-- Node1 -->
<g id="Node000001" class="node">
<title>Node1</title>
<g id="a_Node000001"><a xlink:title=" ">
<polygon fill="#999999" stroke="#666666" points="1057.5,-349 926.5,-349 926.5,-319 1057.5,-319 1057.5,-349"/>
<text text-anchor="start" x="934.5" y="-337" font-family="Helvetica,sans-Serif" font-size="10.00">src/libs/vwidgets/resize</text>
<text text-anchor="middle" x="992" y="-326" font-family="Helvetica,sans-Serif" font-size="10.00">_handle.h</text>
</a>
</g>
</g>
<!-- Node2 -->
<g id="Node000002" class="node">
<title>Node2</title>
<g id="a_Node000002"><a xlink:href="../../df/d1e/image__item_8cpp.html" target="_top" xlink:title=" ">
<polygon fill="white" stroke="#666666" points="964,-217 852,-217 852,-187 964,-187 964,-217"/>
<text text-anchor="start" x="860" y="-205" font-family="Helvetica,sans-Serif" font-size="10.00">src/libs/tools/image</text>
<text text-anchor="middle" x="908" y="-194" font-family="Helvetica,sans-Serif" font-size="10.00">_item.cpp</text>
</a>
</g>
</g>
<!-- Node1&#45;&gt;Node2 -->
<g id="edge1_Node000001_Node000002" class="edge">
<title>Node1&#45;&gt;Node2</title>
<g id="a_edge1_Node000001_Node000002"><a xlink:title=" ">
<path fill="none" stroke="#63b8ff" d="M957.49,-313.15C946.25,-305.12 934.7,-294.91 927,-283 913.82,-262.62 909.77,-234.03 908.53,-217.12"/>
<polygon fill="#63b8ff" stroke="#63b8ff" points="955.7,-316.17 965.95,-318.86 959.62,-310.37 955.7,-316.17"/>
</a>
</g>
</g>
<!-- Node3 -->
<g id="Node000003" class="node">
<title>Node3</title>
<g id="a_Node000003"><a xlink:href="../../d1/d8d/image__item_8h.html" target="_top" xlink:title=" ">
<polygon fill="white" stroke="#666666" points="1048,-283 936,-283 936,-253 1048,-253 1048,-283"/>
<text text-anchor="start" x="944" y="-271" font-family="Helvetica,sans-Serif" font-size="10.00">src/libs/tools/image</text>
<text text-anchor="middle" x="992" y="-260" font-family="Helvetica,sans-Serif" font-size="10.00">_item.h</text>
</a>
</g>
</g>
<!-- Node1&#45;&gt;Node3 -->
<g id="edge2_Node000001_Node000003" class="edge">
<title>Node1&#45;&gt;Node3</title>
<g id="a_edge2_Node000001_Node000003"><a xlink:title=" ">
<path fill="none" stroke="#63b8ff" d="M992,-308.54C992,-299.96 992,-290.61 992,-283.16"/>
<polygon fill="#63b8ff" stroke="#63b8ff" points="988.5,-308.8 992,-318.8 995.5,-308.8 988.5,-308.8"/>
</a>
</g>
</g>
<!-- Node24 -->
<g id="Node000024" class="node">
<title>Node24</title>
<g id="a_Node000024"><a xlink:href="../../d1/daa/resize__handle_8cpp.html" target="_top" xlink:title=" ">
<polygon fill="white" stroke="#666666" points="1197.5,-283 1066.5,-283 1066.5,-253 1197.5,-253 1197.5,-283"/>
<text text-anchor="start" x="1074.5" y="-271" font-family="Helvetica,sans-Serif" font-size="10.00">src/libs/vwidgets/resize</text>
<text text-anchor="middle" x="1132" y="-260" font-family="Helvetica,sans-Serif" font-size="10.00">_handle.cpp</text>
</a>
</g>
</g>
<!-- Node1&#45;&gt;Node24 -->
<g id="edge26_Node000001_Node000024" class="edge">
<title>Node1&#45;&gt;Node24</title>
<g id="a_edge26_Node000001_Node000024"><a xlink:title=" ">
<path fill="none" stroke="#63b8ff" d="M1031.85,-314.78C1053.92,-304.69 1080.94,-292.34 1101.35,-283.01"/>
<polygon fill="#63b8ff" stroke="#63b8ff" points="1030.36,-311.61 1022.72,-318.95 1033.27,-317.98 1030.36,-311.61"/>
</a>
</g>
</g>
<!-- Node3&#45;&gt;Node2 -->
<g id="edge25_Node000003_Node000002" class="edge">
<title>Node3&#45;&gt;Node2</title>
<g id="a_edge25_Node000003_Node000002"><a xlink:title=" ">
<path fill="none" stroke="#63b8ff" d="M965.06,-246.48C952.51,-236.91 937.89,-225.77 926.59,-217.16"/>
<polygon fill="#63b8ff" stroke="#63b8ff" points="963.28,-249.52 973.36,-252.8 967.52,-243.95 963.28,-249.52"/>
</a>
</g>
</g>
<!-- Node4 -->
<g id="Node000004" class="node">
<title>Node4</title>
<g id="a_Node000004"><a xlink:href="../../d0/d89/vabstractpattern_8h.html" target="_top" xlink:title=" ">
<polygon fill="white" stroke="#666666" points="1163.5,-211.5 982.5,-211.5 982.5,-192.5 1163.5,-192.5 1163.5,-211.5"/>
<text text-anchor="middle" x="1073" y="-199.5" font-family="Helvetica,sans-Serif" font-size="10.00">src/libs/ifc/xml/vabstractpattern.h</text>
</a>
</g>
</g>
<!-- Node3&#45;&gt;Node4 -->
<g id="edge3_Node000003_Node000004" class="edge">
<title>Node3&#45;&gt;Node4</title>
<g id="a_edge3_Node000003_Node000004"><a xlink:title=" ">
<path fill="none" stroke="#63b8ff" d="M1017.84,-246.58C1032.66,-234.87 1050.51,-220.77 1061.81,-211.84"/>
<polygon fill="#63b8ff" stroke="#63b8ff" points="1015.65,-243.85 1009.98,-252.8 1019.99,-249.34 1015.65,-243.85"/>
</a>
</g>
</g>
<!-- Node5 -->
<g id="Node000005" class="node">
<title>Node5</title>
<g id="a_Node000005"><a xlink:href="../../de/d7d/vabstractpattern_8cpp.html" target="_top" xlink:title=" ">
<polygon fill="white" stroke="#666666" points="562,-145.5 370,-145.5 370,-126.5 562,-126.5 562,-145.5"/>
<text text-anchor="middle" x="466" y="-133.5" font-family="Helvetica,sans-Serif" font-size="10.00">src/libs/ifc/xml/vabstractpattern.cpp</text>
</a>
</g>
</g>
<!-- Node4&#45;&gt;Node5 -->
<g id="edge4_Node000004_Node000005" class="edge">
<title>Node4&#45;&gt;Node5</title>
<g id="a_edge4_Node000004_Node000005"><a xlink:title=" ">
<path fill="none" stroke="#63b8ff" d="M1005.75,-191.12C994.81,-189.65 983.6,-188.22 973,-187 794.79,-166.56 749.28,-170.86 571,-151 556.56,-149.39 541.03,-147.44 526.47,-145.52"/>
<polygon fill="#63b8ff" stroke="#63b8ff" points="1005.3,-194.59 1015.69,-192.48 1006.25,-187.65 1005.3,-194.59"/>
</a>
</g>
</g>
<!-- Node6 -->
<g id="Node000006" class="node">
<title>Node6</title>
<g id="a_Node000006"><a xlink:href="../../d2/d47/image__dialog_8cpp.html" target="_top" xlink:title=" ">
<polygon fill="white" stroke="#666666" points="692,-151 580,-151 580,-121 692,-121 692,-151"/>
<text text-anchor="start" x="588" y="-139" font-family="Helvetica,sans-Serif" font-size="10.00">src/libs/tools/image</text>
<text text-anchor="middle" x="636" y="-128" font-family="Helvetica,sans-Serif" font-size="10.00">_dialog.cpp</text>
</a>
</g>
</g>
<!-- Node4&#45;&gt;Node6 -->
<g id="edge5_Node000004_Node000006" class="edge">
<title>Node4&#45;&gt;Node6</title>
<g id="a_edge5_Node000004_Node000006"><a xlink:title=" ">
<path fill="none" stroke="#63b8ff" d="M1002.8,-191.1C992.8,-189.71 982.64,-188.31 973,-187 852.17,-170.55 821.15,-171.85 701,-151 698.16,-150.51 695.25,-149.98 692.32,-149.42"/>
<polygon fill="#63b8ff" stroke="#63b8ff" points="1002.34,-194.57 1012.73,-192.49 1003.31,-187.64 1002.34,-194.57"/>
</a>
</g>
</g>
<!-- Node7 -->
<g id="Node000007" class="node">
<title>Node7</title>
<g id="a_Node000007"><a xlink:href="../../d6/de0/vlayoutpiece_8h.html" target="_top" xlink:title=" ">
<polygon fill="white" stroke="#666666" points="876,-145.5 710,-145.5 710,-126.5 876,-126.5 876,-145.5"/>
<text text-anchor="middle" x="793" y="-133.5" font-family="Helvetica,sans-Serif" font-size="10.00">src/libs/vlayout/vlayoutpiece.h</text>
</a>
</g>
</g>
<!-- Node4&#45;&gt;Node7 -->
<g id="edge6_Node000004_Node000007" class="edge">
<title>Node4&#45;&gt;Node7</title>
<g id="a_edge6_Node000004_Node000007"><a xlink:title=" ">
<path fill="none" stroke="#63b8ff" d="M1025.66,-190.18C970.54,-177.58 880.64,-157.03 830.25,-145.51"/>
<polygon fill="#63b8ff" stroke="#63b8ff" points="1025,-193.62 1035.53,-192.44 1026.56,-186.79 1025,-193.62"/>
</a>
</g>
</g>
<!-- Node17 -->
<g id="Node000017" class="node">
<title>Node17</title>
<g id="a_Node000017"><a xlink:href="../../d8/d70/vtextmanager_8cpp.html" target="_top" xlink:title=" ">
<polygon fill="white" stroke="#666666" points="1076,-145.5 894,-145.5 894,-126.5 1076,-126.5 1076,-145.5"/>
<text text-anchor="middle" x="985" y="-133.5" font-family="Helvetica,sans-Serif" font-size="10.00">src/libs/vlayout/vtextmanager.cpp</text>
</a>
</g>
</g>
<!-- Node4&#45;&gt;Node17 -->
<g id="edge18_Node000004_Node000017" class="edge">
<title>Node4&#45;&gt;Node17</title>
<g id="a_edge18_Node000004_Node000017"><a xlink:title=" ">
<path fill="none" stroke="#63b8ff" d="M1052.83,-186.33C1035.57,-173.78 1011.31,-156.13 996.96,-145.7"/>
<polygon fill="#63b8ff" stroke="#63b8ff" points="1050.99,-189.32 1061.13,-192.37 1055.1,-183.66 1050.99,-189.32"/>
</a>
</g>
</g>
<!-- Node18 -->
<g id="Node000018" class="node">
<title>Node18</title>
<g id="a_Node000018"><a xlink:href="../../d0/da5/export__format__combobox_8h.html" target="_top" xlink:title=" ">
<polygon fill="white" stroke="#666666" points="1227.5,-151 1094.5,-151 1094.5,-121 1227.5,-121 1227.5,-151"/>
<text text-anchor="start" x="1102.5" y="-139" font-family="Helvetica,sans-Serif" font-size="10.00">src/libs/vwidgets/export</text>
<text text-anchor="middle" x="1161" y="-128" font-family="Helvetica,sans-Serif" font-size="10.00">_format_combobox.h</text>
</a>
</g>
</g>
<!-- Node4&#45;&gt;Node18 -->
<g id="edge19_Node000004_Node000018" class="edge">
<title>Node4&#45;&gt;Node18</title>
<g id="a_edge19_Node000004_Node000018"><a xlink:title=" ">
<path fill="none" stroke="#63b8ff" d="M1093.19,-186.32C1107.73,-175.74 1127.23,-161.56 1141.59,-151.12"/>
<polygon fill="#63b8ff" stroke="#63b8ff" points="1090.9,-183.66 1084.87,-192.37 1095.01,-189.32 1090.9,-183.66"/>
</a>
</g>
</g>
<!-- Node20 -->
<g id="Node000020" class="node">
<title>Node20</title>
<g id="a_Node000020"><a xlink:href="../../d7/df4/group__tablewidgetitem_8cpp.html" target="_top" xlink:title=" ">
<polygon fill="white" stroke="#666666" points="1374.5,-151 1245.5,-151 1245.5,-121 1374.5,-121 1374.5,-151"/>
<text text-anchor="start" x="1253.5" y="-139" font-family="Helvetica,sans-Serif" font-size="10.00">src/libs/vwidgets/group</text>
<text text-anchor="middle" x="1310" y="-128" font-family="Helvetica,sans-Serif" font-size="10.00">_tablewidgetitem.cpp</text>
</a>
</g>
</g>
<!-- Node4&#45;&gt;Node20 -->
<g id="edge21_Node000004_Node000020" class="edge">
<title>Node4&#45;&gt;Node20</title>
<g id="a_edge21_Node000004_Node000020"><a xlink:title=" ">
<path fill="none" stroke="#63b8ff" d="M1114.63,-189.76C1154.46,-179 1214.68,-162.74 1257.73,-151.12"/>
<polygon fill="#63b8ff" stroke="#63b8ff" points="1113.7,-186.38 1104.96,-192.37 1115.53,-193.14 1113.7,-186.38"/>
</a>
</g>
</g>
<!-- Node21 -->
<g id="Node000021" class="node">
<title>Node21</title>
<g id="a_Node000021"><a xlink:href="../../d3/d86/page__format__combobox_8h.html" target="_top" xlink:title=" ">
<polygon fill="white" stroke="#666666" points="1517.5,-151 1392.5,-151 1392.5,-121 1517.5,-121 1517.5,-151"/>
<text text-anchor="start" x="1400.5" y="-139" font-family="Helvetica,sans-Serif" font-size="10.00">src/libs/vwidgets/page</text>
<text text-anchor="middle" x="1455" y="-128" font-family="Helvetica,sans-Serif" font-size="10.00">_format_combobox.h</text>
</a>
</g>
</g>
<!-- Node4&#45;&gt;Node21 -->
<g id="edge22_Node000004_Node000021" class="edge">
<title>Node4&#45;&gt;Node21</title>
<g id="a_edge22_Node000004_Node000021"><a xlink:title=" ">
<path fill="none" stroke="#63b8ff" d="M1140.06,-190.92C1203.12,-181.27 1300.12,-166.01 1384,-151 1386.72,-150.51 1389.5,-150.01 1392.3,-149.49"/>
<polygon fill="#63b8ff" stroke="#63b8ff" points="1139.21,-187.51 1129.85,-192.48 1140.27,-194.43 1139.21,-187.51"/>
</a>
</g>
</g>
<!-- Node23 -->
<g id="Node000023" class="node">
<title>Node23</title>
<g id="a_Node000023"><a xlink:href="../../de/d22/vsimplecurve_8cpp.html" target="_top" xlink:title=" ">
<polygon fill="white" stroke="#666666" points="1724,-145.5 1536,-145.5 1536,-126.5 1724,-126.5 1724,-145.5"/>
<text text-anchor="middle" x="1630" y="-133.5" font-family="Helvetica,sans-Serif" font-size="10.00">src/libs/vwidgets/vsimplecurve.cpp</text>
</a>
</g>
</g>
<!-- Node4&#45;&gt;Node23 -->
<g id="edge24_Node000004_Node000023" class="edge">
<title>Node4&#45;&gt;Node23</title>
<g id="a_edge24_Node000004_Node000023"><a xlink:title=" ">
<path fill="none" stroke="#63b8ff" d="M1166.44,-191.41C1258.28,-181.82 1402.4,-166.33 1527,-151 1540.7,-149.31 1555.41,-147.39 1569.31,-145.51"/>
<polygon fill="#63b8ff" stroke="#63b8ff" points="1165.92,-187.95 1156.33,-192.46 1166.64,-194.91 1165.92,-187.95"/>
</a>
</g>
</g>
<!-- Node8 -->
<g id="Node000008" class="node">
<title>Node8</title>
<g id="a_Node000008"><a xlink:href="../../dd/d66/vdxfengine_8cpp.html" target="_top" xlink:title=" ">
<polygon fill="white" stroke="#666666" points="154,-79.5 0,-79.5 0,-60.5 154,-60.5 154,-79.5"/>
<text text-anchor="middle" x="77" y="-67.5" font-family="Helvetica,sans-Serif" font-size="10.00">src/libs/vdxf/vdxfengine.cpp</text>
</a>
</g>
</g>
<!-- Node7&#45;&gt;Node8 -->
<g id="edge7_Node000007_Node000008" class="edge">
<title>Node7&#45;&gt;Node8</title>
<g id="a_edge7_Node000007_Node000008"><a xlink:title=" ">
<path fill="none" stroke="#63b8ff" d="M731.85,-124.96C721.57,-123.48 711,-122.09 701,-121 462.77,-94.95 401.09,-112.28 163,-85 150.38,-83.55 136.78,-81.55 124.2,-79.51"/>
<polygon fill="#63b8ff" stroke="#63b8ff" points="731.6,-128.46 742,-126.46 732.62,-121.53 731.6,-128.46"/>
</a>
</g>
</g>
<!-- Node9 -->
<g id="Node000009" class="node">
<title>Node9</title>
<g id="a_Node000009"><a xlink:href="../../de/da8/vbank_8cpp.html" target="_top" xlink:title=" ">
<polygon fill="white" stroke="#666666" points="316,-79.5 172,-79.5 172,-60.5 316,-60.5 316,-79.5"/>
<text text-anchor="middle" x="244" y="-67.5" font-family="Helvetica,sans-Serif" font-size="10.00">src/libs/vlayout/vbank.cpp</text>
</a>
</g>
</g>
<!-- Node7&#45;&gt;Node9 -->
<g id="edge8_Node000007_Node000009" class="edge">
<title>Node7&#45;&gt;Node9</title>
<g id="a_edge8_Node000007_Node000009"><a xlink:title=" ">
<path fill="none" stroke="#63b8ff" d="M730.4,-125C720.57,-123.56 710.52,-122.18 701,-121 534.4,-100.36 491.39,-107.31 325,-85 313.54,-83.46 301.23,-81.5 289.74,-79.53"/>
<polygon fill="#63b8ff" stroke="#63b8ff" points="730.12,-128.49 740.53,-126.5 731.15,-121.57 730.12,-128.49"/>
</a>
</g>
</g>
<!-- Node10 -->
<g id="Node000010" class="node">
<title>Node10</title>
<g id="a_Node000010"><a xlink:href="../../df/d5d/vcontour_8cpp.html" target="_top" xlink:title=" ">
<polygon fill="white" stroke="#666666" points="490,-79.5 334,-79.5 334,-60.5 490,-60.5 490,-79.5"/>
<text text-anchor="middle" x="412" y="-67.5" font-family="Helvetica,sans-Serif" font-size="10.00">src/libs/vlayout/vcontour.cpp</text>
</a>
</g>
</g>
<!-- Node7&#45;&gt;Node10 -->
<g id="edge9_Node000007_Node000010" class="edge">
<title>Node7&#45;&gt;Node10</title>
<g id="a_edge9_Node000007_Node000010"><a xlink:title=" ">
<path fill="none" stroke="#63b8ff" d="M731.82,-124.72C657.14,-112.18 532.24,-91.2 462.69,-79.51"/>
<polygon fill="#63b8ff" stroke="#63b8ff" points="731.57,-128.23 742.01,-126.44 732.73,-121.33 731.57,-128.23"/>
</a>
</g>
</g>
<!-- Node11 -->
<g id="Node000011" class="node">
<title>Node11</title>
<g id="a_Node000011"><a xlink:href="../../d3/d39/vlayoutgenerator_8cpp.html" target="_top" xlink:title=" ">
<polygon fill="white" stroke="#666666" points="705.5,-79.5 508.5,-79.5 508.5,-60.5 705.5,-60.5 705.5,-79.5"/>
<text text-anchor="middle" x="607" y="-67.5" font-family="Helvetica,sans-Serif" font-size="10.00">src/libs/vlayout/vlayoutgenerator.cpp</text>
</a>
</g>
</g>
<!-- Node7&#45;&gt;Node11 -->
<g id="edge10_Node000007_Node000011" class="edge">
<title>Node7&#45;&gt;Node11</title>
<g id="a_edge10_Node000007_Node000011"><a xlink:title=" ">
<path fill="none" stroke="#63b8ff" d="M758.13,-123C721.4,-110.36 664.47,-90.78 631.98,-79.6"/>
<polygon fill="#63b8ff" stroke="#63b8ff" points="757.32,-126.42 767.92,-126.37 759.6,-119.81 757.32,-126.42"/>
</a>
</g>
</g>
<!-- Node12 -->
<g id="Node000012" class="node">
<title>Node12</title>
<g id="a_Node000012"><a xlink:href="../../d1/dd1/vlayoutpaper_8cpp.html" target="_top" xlink:title=" ">
<polygon fill="white" stroke="#666666" points="941,-19 763,-19 763,0 941,0 941,-19"/>
<text text-anchor="middle" x="852" y="-7" font-family="Helvetica,sans-Serif" font-size="10.00">src/libs/vlayout/vlayoutpaper.cpp</text>
</a>
</g>
</g>
<!-- Node7&#45;&gt;Node12 -->
<g id="edge11_Node000007_Node000012" class="edge">
<title>Node7&#45;&gt;Node12</title>
<g id="a_edge11_Node000007_Node000012"><a xlink:title=" ">
<path fill="none" stroke="#63b8ff" d="M775.38,-119.24C759.09,-102.69 739.3,-76.18 753,-55 765.08,-36.33 787.05,-25.42 807.24,-19.08"/>
<polygon fill="#63b8ff" stroke="#63b8ff" points="773.3,-122.09 782.94,-126.49 778.15,-117.04 773.3,-122.09"/>
</a>
</g>
</g>
<!-- Node13 -->
<g id="Node000013" class="node">
<title>Node13</title>
<g id="a_Node000013"><a xlink:href="../../d2/d2d/vlayoutpaper__p_8h.html" target="_top" xlink:title=" ">
<polygon fill="white" stroke="#666666" points="941.5,-79.5 762.5,-79.5 762.5,-60.5 941.5,-60.5 941.5,-79.5"/>
<text text-anchor="middle" x="852" y="-67.5" font-family="Helvetica,sans-Serif" font-size="10.00">src/libs/vlayout/vlayoutpaper_p.h</text>
</a>
</g>
</g>
<!-- Node7&#45;&gt;Node13 -->
<g id="edge12_Node000007_Node000013" class="edge">
<title>Node7&#45;&gt;Node13</title>
<g id="a_edge12_Node000007_Node000013"><a xlink:title=" ">
<path fill="none" stroke="#63b8ff" d="M807.77,-118.98C819.16,-106.62 834.49,-89.99 843.79,-79.91"/>
<polygon fill="#63b8ff" stroke="#63b8ff" points="805.16,-116.64 800.96,-126.37 810.31,-121.39 805.16,-116.64"/>
</a>
</g>
</g>
<!-- Node14 -->
<g id="Node000014" class="node">
<title>Node14</title>
<g id="a_Node000014"><a xlink:href="../../dd/d70/vlayoutpiece_8cpp.html" target="_top" xlink:title=" ">
<polygon fill="white" stroke="#666666" points="1136.5,-79.5 959.5,-79.5 959.5,-60.5 1136.5,-60.5 1136.5,-79.5"/>
<text text-anchor="middle" x="1048" y="-67.5" font-family="Helvetica,sans-Serif" font-size="10.00">src/libs/vlayout/vlayoutpiece.cpp</text>
</a>
</g>
</g>
<!-- Node7&#45;&gt;Node14 -->
<g id="edge14_Node000007_Node000014" class="edge">
<title>Node7&#45;&gt;Node14</title>
<g id="a_edge14_Node000007_Node000014"><a xlink:title=" ">
<path fill="none" stroke="#63b8ff" d="M837.06,-123.94C887.33,-111.32 968.47,-90.96 1014.08,-79.51"/>
<polygon fill="#63b8ff" stroke="#63b8ff" points="835.97,-120.61 827.13,-126.44 837.68,-127.4 835.97,-120.61"/>
</a>
</g>
</g>
<!-- Node15 -->
<g id="Node000015" class="node">
<title>Node15</title>
<g id="a_Node000015"><a xlink:href="../../db/d5c/vposition_8h.html" target="_top" xlink:title=" ">
<polygon fill="white" stroke="#666666" points="1303,-79.5 1155,-79.5 1155,-60.5 1303,-60.5 1303,-79.5"/>
<text text-anchor="middle" x="1229" y="-67.5" font-family="Helvetica,sans-Serif" font-size="10.00">src/libs/vlayout/vposition.h</text>
</a>
</g>
</g>
<!-- Node7&#45;&gt;Node15 -->
<g id="edge15_Node000007_Node000015" class="edge">
<title>Node7&#45;&gt;Node15</title>
<g id="a_edge15_Node000007_Node000015"><a xlink:title=" ">
<path fill="none" stroke="#63b8ff" d="M858.44,-124.93C867.36,-123.59 876.4,-122.25 885,-121 1000.45,-104.22 1029.68,-102.59 1145,-85 1156.11,-83.31 1168.02,-81.38 1179.29,-79.52"/>
<polygon fill="#63b8ff" stroke="#63b8ff" points="857.81,-121.49 848.44,-126.44 858.85,-128.41 857.81,-121.49"/>
</a>
</g>
</g>
<!-- Node13&#45;&gt;Node12 -->
<g id="edge13_Node000013_Node000012" class="edge">
<title>Node13&#45;&gt;Node12</title>
<g id="a_edge13_Node000013_Node000012"><a xlink:title=" ">
<path fill="none" stroke="#63b8ff" d="M852,-50.16C852,-39.74 852,-27.3 852,-19.17"/>
<polygon fill="#63b8ff" stroke="#63b8ff" points="848.5,-50.37 852,-60.37 855.5,-50.37 848.5,-50.37"/>
</a>
</g>
</g>
<!-- Node15&#45;&gt;Node12 -->
<g id="edge16_Node000015_Node000012" class="edge">
<title>Node15&#45;&gt;Node12</title>
<g id="a_edge16_Node000015_Node000012"><a xlink:title=" ">
<path fill="none" stroke="#63b8ff" d="M1168.47,-58.8C1160.58,-57.51 1152.6,-56.21 1145,-55 1063.45,-42.01 968.99,-27.82 909.86,-19.04"/>
<polygon fill="#63b8ff" stroke="#63b8ff" points="1167.94,-62.27 1178.38,-60.44 1169.09,-55.36 1167.94,-62.27"/>
</a>
</g>
</g>
<!-- Node16 -->
<g id="Node000016" class="node">
<title>Node16</title>
<g id="a_Node000016"><a xlink:href="../../df/d76/vposition_8cpp.html" target="_top" xlink:title=" ">
<polygon fill="white" stroke="#666666" points="1308.5,-19 1149.5,-19 1149.5,0 1308.5,0 1308.5,-19"/>
<text text-anchor="middle" x="1229" y="-7" font-family="Helvetica,sans-Serif" font-size="10.00">src/libs/vlayout/vposition.cpp</text>
</a>
</g>
</g>
<!-- Node15&#45;&gt;Node16 -->
<g id="edge17_Node000015_Node000016" class="edge">
<title>Node15&#45;&gt;Node16</title>
<g id="a_edge17_Node000015_Node000016"><a xlink:title=" ">
<path fill="none" stroke="#63b8ff" d="M1229,-50.16C1229,-39.74 1229,-27.3 1229,-19.17"/>
<polygon fill="#63b8ff" stroke="#63b8ff" points="1225.5,-50.37 1229,-60.37 1232.5,-50.37 1225.5,-50.37"/>
</a>
</g>
</g>
<!-- Node19 -->
<g id="Node000019" class="node">
<title>Node19</title>
<g id="a_Node000019"><a xlink:href="../../df/d40/export__format__combobox_8cpp.html" target="_top" xlink:title=" ">
<polygon fill="white" stroke="#666666" points="1454.5,-85 1321.5,-85 1321.5,-55 1454.5,-55 1454.5,-85"/>
<text text-anchor="start" x="1329.5" y="-73" font-family="Helvetica,sans-Serif" font-size="10.00">src/libs/vwidgets/export</text>
<text text-anchor="middle" x="1388" y="-62" font-family="Helvetica,sans-Serif" font-size="10.00">_format_combobox.cpp</text>
</a>
</g>
</g>
<!-- Node18&#45;&gt;Node19 -->
<g id="edge20_Node000018_Node000019" class="edge">
<title>Node18&#45;&gt;Node19</title>
<g id="a_edge20_Node000018_Node000019"><a xlink:title=" ">
<path fill="none" stroke="#63b8ff" d="M1220.87,-118.12C1257.47,-107.8 1303.73,-94.76 1338.3,-85.01"/>
<polygon fill="#63b8ff" stroke="#63b8ff" points="1219.49,-114.87 1210.82,-120.95 1221.39,-121.61 1219.49,-114.87"/>
</a>
</g>
</g>
<!-- Node22 -->
<g id="Node000022" class="node">
<title>Node22</title>
<g id="a_Node000022"><a xlink:href="../../d2/d28/page__format__combobox_8cpp.html" target="_top" xlink:title=" ">
<polygon fill="white" stroke="#666666" points="1603.5,-85 1472.5,-85 1472.5,-55 1603.5,-55 1603.5,-85"/>
<text text-anchor="start" x="1480.5" y="-73" font-family="Helvetica,sans-Serif" font-size="10.00">src/libs/vwidgets/page</text>
<text text-anchor="middle" x="1538" y="-62" font-family="Helvetica,sans-Serif" font-size="10.00">_format_combobox.cpp</text>
</a>
</g>
</g>
<!-- Node21&#45;&gt;Node22 -->
<g id="edge23_Node000021_Node000022" class="edge">
<title>Node21&#45;&gt;Node22</title>
<g id="a_edge23_Node000021_Node000022"><a xlink:title=" ">
<path fill="none" stroke="#63b8ff" d="M1481.61,-114.48C1494.02,-104.91 1508.47,-93.77 1519.63,-85.16"/>
<polygon fill="#63b8ff" stroke="#63b8ff" points="1479.2,-111.92 1473.42,-120.8 1483.48,-117.46 1479.2,-111.92"/>
</a>
</g>
</g>
</g>
</svg>
