<?xml version="1.0" encoding="UTF-8" standalone="no"?>
<!DOCTYPE svg PUBLIC "-//W3C//DTD SVG 1.1//EN"
 "http://www.w3.org/Graphics/SVG/1.1/DTD/svg11.dtd">
<!-- Generated by graphviz version 2.43.0 (0)
 -->
<!-- Title: src/libs/vwidgets/resize_handle.h Pages: 1 -->
<svg width="1781pt" height="363pt"
 viewBox="0.00 0.00 1781.00 363.00" xmlns="http://www.w3.org/2000/svg" xmlns:xlink="http://www.w3.org/1999/xlink">
<g id="graph0" class="graph" transform="scale(1 1) rotate(0) translate(4 359)">
<title>src/libs/vwidgets/resize_handle.h</title>
<polygon fill="white" stroke="transparent" points="-4,4 -4,-359 1777,-359 1777,4 -4,4"/>
<!-- Node1 -->
<g id="node1" class="node">
<title>Node1</title>
<g id="a_node1"><a xlink:title=" ">
<polygon fill="#bfbfbf" stroke="black" points="974.5,-324.5 974.5,-354.5 1105.5,-354.5 1105.5,-324.5 974.5,-324.5"/>
<text text-anchor="start" x="982.5" y="-342.5" font-family="Helvetica,sans-Serif" font-size="10.00">src/libs/vwidgets/resize</text>
<text text-anchor="middle" x="1040" y="-331.5" font-family="Helvetica,sans-Serif" font-size="10.00">_handle.h</text>
</a>
</g>
</g>
<!-- Node2 -->
<g id="node2" class="node">
<title>Node2</title>
<g id="a_node2"><a xlink:href="../../df/d1e/image__item_8cpp.html" target="_top" xlink:title=" ">
<polygon fill="white" stroke="black" points="900,-190.5 900,-220.5 1012,-220.5 1012,-190.5 900,-190.5"/>
<text text-anchor="start" x="908" y="-208.5" font-family="Helvetica,sans-Serif" font-size="10.00">src/libs/tools/image</text>
<text text-anchor="middle" x="956" y="-197.5" font-family="Helvetica,sans-Serif" font-size="10.00">_item.cpp</text>
</a>
</g>
</g>
<!-- Node1&#45;&gt;Node2 -->
<g id="edge1" class="edge">
<title>Node1&#45;&gt;Node2</title>
<path fill="none" stroke="midnightblue" d="M1005.73,-318.6C994.41,-310.46 982.74,-300.08 975,-288 961.6,-267.08 957.62,-237.74 956.46,-220.57"/>
<polygon fill="midnightblue" stroke="midnightblue" points="1004.01,-321.67 1014.25,-324.39 1007.94,-315.87 1004.01,-321.67"/>
</g>
<!-- Node3 -->
<g id="node3" class="node">
<title>Node3</title>
<g id="a_node3"><a xlink:href="../../d1/d8d/image__item_8h.html" target="_top" xlink:title=" ">
<polygon fill="white" stroke="black" points="984,-257.5 984,-287.5 1096,-287.5 1096,-257.5 984,-257.5"/>
<text text-anchor="start" x="992" y="-275.5" font-family="Helvetica,sans-Serif" font-size="10.00">src/libs/tools/image</text>
<text text-anchor="middle" x="1040" y="-264.5" font-family="Helvetica,sans-Serif" font-size="10.00">_item.h</text>
</a>
</g>
</g>
<!-- Node1&#45;&gt;Node3 -->
<g id="edge2" class="edge">
<title>Node1&#45;&gt;Node3</title>
<path fill="none" stroke="midnightblue" d="M1040,-314.11C1040,-305.15 1040,-295.32 1040,-287.58"/>
<polygon fill="midnightblue" stroke="midnightblue" points="1036.5,-314.4 1040,-324.4 1043.5,-314.4 1036.5,-314.4"/>
</g>
<!-- Node24 -->
<g id="node24" class="node">
<title>Node24</title>
<g id="a_node24"><a xlink:href="../../d1/daa/resize__handle_8cpp.html" target="_top" xlink:title=" ">
<polygon fill="white" stroke="black" points="1114.5,-257.5 1114.5,-287.5 1245.5,-287.5 1245.5,-257.5 1114.5,-257.5"/>
<text text-anchor="start" x="1122.5" y="-275.5" font-family="Helvetica,sans-Serif" font-size="10.00">src/libs/vwidgets/resize</text>
<text text-anchor="middle" x="1180" y="-264.5" font-family="Helvetica,sans-Serif" font-size="10.00">_handle.cpp</text>
</a>
</g>
</g>
<!-- Node1&#45;&gt;Node24 -->
<g id="edge26" class="edge">
<title>Node1&#45;&gt;Node24</title>
<path fill="none" stroke="midnightblue" d="M1079.57,-320.13C1101.81,-309.8 1129.15,-297.11 1149.68,-287.58"/>
<polygon fill="midnightblue" stroke="midnightblue" points="1077.97,-317.01 1070.38,-324.4 1080.92,-323.36 1077.97,-317.01"/>
</g>
<!-- Node3&#45;&gt;Node2 -->
<g id="edge25" class="edge">
<title>Node3&#45;&gt;Node2</title>
<path fill="none" stroke="midnightblue" d="M1013.72,-251.17C1000.88,-241.23 985.74,-229.51 974.19,-220.58"/>
<polygon fill="midnightblue" stroke="midnightblue" points="1011.72,-254.04 1021.77,-257.4 1016.01,-248.51 1011.72,-254.04"/>
</g>
<!-- Node4 -->
<g id="node4" class="node">
<title>Node4</title>
<g id="a_node4"><a xlink:href="../../d0/d89/vabstractpattern_8h.html" target="_top" xlink:title=" ">
<polygon fill="white" stroke="black" points="1030.5,-196 1030.5,-215 1211.5,-215 1211.5,-196 1030.5,-196"/>
<text text-anchor="middle" x="1121" y="-203" font-family="Helvetica,sans-Serif" font-size="10.00">src/libs/ifc/xml/vabstractpattern.h</text>
</a>
</g>
</g>
<!-- Node3&#45;&gt;Node4 -->
<g id="edge3" class="edge">
<title>Node3&#45;&gt;Node4</title>
<path fill="none" stroke="midnightblue" d="M1065.54,-251.01C1080.57,-238.94 1098.81,-224.3 1110.17,-215.19"/>
<polygon fill="midnightblue" stroke="midnightblue" points="1063.18,-248.41 1057.58,-257.4 1067.57,-253.87 1063.18,-248.41"/>
</g>
<!-- Node5 -->
<g id="node5" class="node">
<title>Node5</title>
<g id="a_node5"><a xlink:href="../../de/d7d/vabstractpattern_8cpp.html" target="_top" xlink:title=" ">
<polygon fill="white" stroke="black" points="419,-129 419,-148 611,-148 611,-129 419,-129"/>
<text text-anchor="middle" x="515" y="-136" font-family="Helvetica,sans-Serif" font-size="10.00">src/libs/ifc/xml/vabstractpattern.cpp</text>
</a>
</g>
</g>
<!-- Node4&#45;&gt;Node5 -->
<g id="edge4" class="edge">
<title>Node4&#45;&gt;Node5</title>
<path fill="none" stroke="midnightblue" d="M1055.96,-194.55C1044.33,-192.92 1032.32,-191.33 1021,-190 843.28,-169.15 797.79,-174.24 620,-154 604.73,-152.26 588.25,-150.11 572.98,-148.01"/>
<polygon fill="midnightblue" stroke="midnightblue" points="1055.66,-198.04 1066.05,-195.98 1056.65,-191.11 1055.66,-198.04"/>
</g>
<!-- Node6 -->
<g id="node6" class="node">
<title>Node6</title>
<g id="a_node6"><a xlink:href="../../d2/d47/image__dialog_8cpp.html" target="_top" xlink:title=" ">
<polygon fill="white" stroke="black" points="629,-123.5 629,-153.5 741,-153.5 741,-123.5 629,-123.5"/>
<text text-anchor="start" x="637" y="-141.5" font-family="Helvetica,sans-Serif" font-size="10.00">src/libs/tools/image</text>
<text text-anchor="middle" x="685" y="-130.5" font-family="Helvetica,sans-Serif" font-size="10.00">_dialog.cpp</text>
</a>
</g>
</g>
<!-- Node4&#45;&gt;Node6 -->
<g id="edge5" class="edge">
<title>Node4&#45;&gt;Node6</title>
<path fill="none" stroke="midnightblue" d="M1052.96,-194.52C1042.27,-192.99 1031.34,-191.44 1021,-190 900.65,-173.28 869.63,-175.25 750,-154 747.15,-153.49 744.24,-152.95 741.31,-152.38"/>
<polygon fill="midnightblue" stroke="midnightblue" points="1052.72,-198.02 1063.11,-195.99 1053.72,-191.1 1052.72,-198.02"/>
</g>
<!-- Node7 -->
<g id="node7" class="node">
<title>Node7</title>
<g id="a_node7"><a xlink:href="../../d6/de0/vlayoutpiece_8h.html" target="_top" xlink:title=" ">
<polygon fill="white" stroke="black" points="759,-129 759,-148 925,-148 925,-129 759,-129"/>
<text text-anchor="middle" x="842" y="-136" font-family="Helvetica,sans-Serif" font-size="10.00">src/libs/vlayout/vlayoutpiece.h</text>
</a>
</g>
</g>
<!-- Node4&#45;&gt;Node7 -->
<g id="edge6" class="edge">
<title>Node4&#45;&gt;Node7</title>
<path fill="none" stroke="midnightblue" d="M1074.4,-193.64C1019.43,-180.84 929.17,-159.81 878.84,-148.08"/>
<polygon fill="midnightblue" stroke="midnightblue" points="1073.71,-197.08 1084.24,-195.94 1075.29,-190.26 1073.71,-197.08"/>
</g>
<!-- Node17 -->
<g id="node17" class="node">
<title>Node17</title>
<g id="a_node17"><a xlink:href="../../d8/d70/vtextmanager_8cpp.html" target="_top" xlink:title=" ">
<polygon fill="white" stroke="black" points="943,-129 943,-148 1125,-148 1125,-129 943,-129"/>
<text text-anchor="middle" x="1034" y="-136" font-family="Helvetica,sans-Serif" font-size="10.00">src/libs/vlayout/vtextmanager.cpp</text>
</a>
</g>
</g>
<!-- Node4&#45;&gt;Node17 -->
<g id="edge18" class="edge">
<title>Node4&#45;&gt;Node17</title>
<path fill="none" stroke="midnightblue" d="M1101.01,-189.57C1083.84,-176.74 1059.68,-158.69 1045.55,-148.13"/>
<polygon fill="midnightblue" stroke="midnightblue" points="1099.16,-192.55 1109.27,-195.73 1103.35,-186.94 1099.16,-192.55"/>
</g>
<!-- Node18 -->
<g id="node18" class="node">
<title>Node18</title>
<g id="a_node18"><a xlink:href="../../d7/df4/group__tablewidgetitem_8cpp.html" target="_top" xlink:title=" ">
<polygon fill="white" stroke="black" points="1143.5,-123.5 1143.5,-153.5 1272.5,-153.5 1272.5,-123.5 1143.5,-123.5"/>
<text text-anchor="start" x="1151.5" y="-141.5" font-family="Helvetica,sans-Serif" font-size="10.00">src/libs/vwidgets/group</text>
<text text-anchor="middle" x="1208" y="-130.5" font-family="Helvetica,sans-Serif" font-size="10.00">_tablewidgetitem.cpp</text>
</a>
</g>
</g>
<!-- Node4&#45;&gt;Node18 -->
<g id="edge19" class="edge">
<title>Node4&#45;&gt;Node18</title>
<path fill="none" stroke="midnightblue" d="M1141.02,-189.54C1155.5,-178.73 1174.94,-164.2 1189.14,-153.59"/>
<polygon fill="midnightblue" stroke="midnightblue" points="1138.65,-186.94 1132.73,-195.73 1142.84,-192.55 1138.65,-186.94"/>
</g>
<!-- Node19 -->
<g id="node19" class="node">
<title>Node19</title>
<g id="a_node19"><a xlink:href="../../d0/da5/export__format__combobox_8h.html" target="_top" xlink:title=" ">
<polygon fill="white" stroke="black" points="1290.5,-123.5 1290.5,-153.5 1423.5,-153.5 1423.5,-123.5 1290.5,-123.5"/>
<text text-anchor="start" x="1298.5" y="-141.5" font-family="Helvetica,sans-Serif" font-size="10.00">src/libs/vwidgets/export</text>
<text text-anchor="middle" x="1357" y="-130.5" font-family="Helvetica,sans-Serif" font-size="10.00">_format_combobox.h</text>
</a>
</g>
</g>
<!-- Node4&#45;&gt;Node19 -->
<g id="edge20" class="edge">
<title>Node4&#45;&gt;Node19</title>
<path fill="none" stroke="midnightblue" d="M1162.04,-193.2C1202.04,-182.18 1262.98,-165.39 1306.07,-153.53"/>
<polygon fill="midnightblue" stroke="midnightblue" points="1161.05,-189.84 1152.34,-195.87 1162.91,-196.59 1161.05,-189.84"/>
</g>
<!-- Node21 -->
<g id="node21" class="node">
<title>Node21</title>
<g id="a_node21"><a xlink:href="../../d3/d86/page__format__combobox_8h.html" target="_top" xlink:title=" ">
<polygon fill="white" stroke="black" points="1441.5,-123.5 1441.5,-153.5 1566.5,-153.5 1566.5,-123.5 1441.5,-123.5"/>
<text text-anchor="start" x="1449.5" y="-141.5" font-family="Helvetica,sans-Serif" font-size="10.00">src/libs/vwidgets/page</text>
<text text-anchor="middle" x="1504" y="-130.5" font-family="Helvetica,sans-Serif" font-size="10.00">_format_combobox.h</text>
</a>
</g>
</g>
<!-- Node4&#45;&gt;Node21 -->
<g id="edge22" class="edge">
<title>Node4&#45;&gt;Node21</title>
<path fill="none" stroke="midnightblue" d="M1188.3,-194.42C1251.58,-184.75 1348.89,-169.39 1433,-154 1435.72,-153.5 1438.5,-152.98 1441.31,-152.45"/>
<polygon fill="midnightblue" stroke="midnightblue" points="1187.41,-191.02 1178.05,-195.98 1188.47,-197.94 1187.41,-191.02"/>
</g>
<!-- Node23 -->
<g id="node23" class="node">
<title>Node23</title>
<g id="a_node23"><a xlink:href="../../de/d22/vsimplecurve_8cpp.html" target="_top" xlink:title=" ">
<polygon fill="white" stroke="black" points="1585,-129 1585,-148 1773,-148 1773,-129 1585,-129"/>
<text text-anchor="middle" x="1679" y="-136" font-family="Helvetica,sans-Serif" font-size="10.00">src/libs/vwidgets/vsimplecurve.cpp</text>
</a>
</g>
</g>
<!-- Node4&#45;&gt;Node23 -->
<g id="edge24" class="edge">
<title>Node4&#45;&gt;Node23</title>
<path fill="none" stroke="midnightblue" d="M1214.66,-194.92C1306.71,-185.3 1451.16,-169.71 1576,-154 1590.51,-152.17 1606.15,-150.05 1620.75,-148"/>
<polygon fill="midnightblue" stroke="midnightblue" points="1214.11,-191.45 1204.53,-195.97 1214.84,-198.42 1214.11,-191.45"/>
</g>
<!-- Node8 -->
<g id="node8" class="node">
<title>Node8</title>
<g id="a_node8"><a xlink:href="../../dd/d66/vdxfengine_8cpp.html" target="_top" xlink:title=" ">
<polygon fill="white" stroke="black" points="0,-62 0,-81 154,-81 154,-62 0,-62"/>
<text text-anchor="middle" x="77" y="-69" font-family="Helvetica,sans-Serif" font-size="10.00">src/libs/vdxf/vdxfengine.cpp</text>
</a>
</g>
</g>
<!-- Node7&#45;&gt;Node8 -->
<g id="edge7" class="edge">
<title>Node7&#45;&gt;Node8</title>
<path fill="none" stroke="midnightblue" d="M783.4,-127.41C772.33,-125.75 760.83,-124.18 750,-123 490.17,-94.62 422.68,-116.77 163,-87 149.61,-85.47 135.14,-83.24 121.95,-81"/>
<polygon fill="midnightblue" stroke="midnightblue" points="783,-130.89 793.41,-128.96 784.07,-123.97 783,-130.89"/>
</g>
<!-- Node9 -->
<g id="node9" class="node">
<title>Node9</title>
<g id="a_node9"><a xlink:href="../../de/da8/vbank_8cpp.html" target="_top" xlink:title=" ">
<polygon fill="white" stroke="black" points="172,-62 172,-81 316,-81 316,-62 172,-62"/>
<text text-anchor="middle" x="244" y="-69" font-family="Helvetica,sans-Serif" font-size="10.00">src/libs/vlayout/vbank.cpp</text>
</a>
</g>
</g>
<!-- Node7&#45;&gt;Node9 -->
<g id="edge8" class="edge">
<title>Node7&#45;&gt;Node9</title>
<path fill="none" stroke="midnightblue" d="M781.92,-127.39C771.3,-125.79 760.34,-124.25 750,-123 561.81,-100.23 512.95,-111.73 325,-87 312.82,-85.4 299.68,-83.24 287.6,-81.07"/>
<polygon fill="midnightblue" stroke="midnightblue" points="781.54,-130.88 791.96,-128.94 782.61,-123.96 781.54,-130.88"/>
</g>
<!-- Node10 -->
<g id="node10" class="node">
<title>Node10</title>
<g id="a_node10"><a xlink:href="../../df/d5d/vcontour_8cpp.html" target="_top" xlink:title=" ">
<polygon fill="white" stroke="black" points="334,-62 334,-81 490,-81 490,-62 334,-62"/>
<text text-anchor="middle" x="412" y="-69" font-family="Helvetica,sans-Serif" font-size="10.00">src/libs/vlayout/vcontour.cpp</text>
</a>
</g>
</g>
<!-- Node7&#45;&gt;Node10 -->
<g id="edge9" class="edge">
<title>Node7&#45;&gt;Node10</title>
<path fill="none" stroke="midnightblue" d="M778.62,-127.39C769.03,-125.9 759.26,-124.39 750,-123 638.56,-106.23 610.37,-104.26 499,-87 487.05,-85.15 474.18,-83.06 462.11,-81.05"/>
<polygon fill="midnightblue" stroke="midnightblue" points="778.09,-130.85 788.51,-128.94 779.17,-123.94 778.09,-130.85"/>
</g>
<!-- Node11 -->
<g id="node11" class="node">
<title>Node11</title>
<g id="a_node11"><a xlink:href="../../d3/d39/vlayoutgenerator_8cpp.html" target="_top" xlink:title=" ">
<polygon fill="white" stroke="black" points="508.5,-62 508.5,-81 705.5,-81 705.5,-62 508.5,-62"/>
<text text-anchor="middle" x="607" y="-69" font-family="Helvetica,sans-Serif" font-size="10.00">src/libs/vlayout/vlayoutgenerator.cpp</text>
</a>
</g>
</g>
<!-- Node7&#45;&gt;Node11 -->
<g id="edge10" class="edge">
<title>Node7&#45;&gt;Node11</title>
<path fill="none" stroke="midnightblue" d="M801.05,-126.17C754.58,-113.32 679.82,-92.64 637.96,-81.06"/>
<polygon fill="midnightblue" stroke="midnightblue" points="800.22,-129.58 810.79,-128.87 802.09,-122.83 800.22,-129.58"/>
</g>
<!-- Node12 -->
<g id="node12" class="node">
<title>Node12</title>
<g id="a_node12"><a xlink:href="../../d2/d2d/vlayoutpaper__p_8h.html" target="_top" xlink:title=" ">
<polygon fill="white" stroke="black" points="723.5,-62 723.5,-81 902.5,-81 902.5,-62 723.5,-62"/>
<text text-anchor="middle" x="813" y="-69" font-family="Helvetica,sans-Serif" font-size="10.00">src/libs/vlayout/vlayoutpaper_p.h</text>
</a>
</g>
</g>
<!-- Node7&#45;&gt;Node12 -->
<g id="edge11" class="edge">
<title>Node7&#45;&gt;Node12</title>
<path fill="none" stroke="midnightblue" d="M833.88,-119.29C828.31,-106.81 821.17,-90.81 816.85,-81.13"/>
<polygon fill="midnightblue" stroke="midnightblue" points="830.82,-121.03 838.09,-128.73 837.21,-118.18 830.82,-121.03"/>
</g>
<!-- Node13 -->
<g id="node13" class="node">
<title>Node13</title>
<g id="a_node13"><a xlink:href="../../d1/dd1/vlayoutpaper_8cpp.html" target="_top" xlink:title=" ">
<polygon fill="white" stroke="black" points="800,-0.5 800,-19.5 978,-19.5 978,-0.5 800,-0.5"/>
<text text-anchor="middle" x="889" y="-7.5" font-family="Helvetica,sans-Serif" font-size="10.00">src/libs/vlayout/vlayoutpaper.cpp</text>
</a>
</g>
</g>
<!-- Node7&#45;&gt;Node13 -->
<g id="edge13" class="edge">
<title>Node7&#45;&gt;Node13</title>
<path fill="none" stroke="midnightblue" d="M871.4,-124.2C886.16,-115.82 902.66,-103.44 911,-87 922.56,-64.22 905.71,-34.42 895.63,-19.83"/>
<polygon fill="midnightblue" stroke="midnightblue" points="869.71,-121.14 862.51,-128.91 872.99,-127.32 869.71,-121.14"/>
</g>
<!-- Node14 -->
<g id="node14" class="node">
<title>Node14</title>
<g id="a_node14"><a xlink:href="../../db/d5c/vposition_8h.html" target="_top" xlink:title=" ">
<polygon fill="white" stroke="black" points="959,-62 959,-81 1107,-81 1107,-62 959,-62"/>
<text text-anchor="middle" x="1033" y="-69" font-family="Helvetica,sans-Serif" font-size="10.00">src/libs/vlayout/vposition.h</text>
</a>
</g>
</g>
<!-- Node7&#45;&gt;Node14 -->
<g id="edge14" class="edge">
<title>Node7&#45;&gt;Node14</title>
<path fill="none" stroke="midnightblue" d="M876.96,-125.6C914.83,-112.71 974.31,-92.47 1007.84,-81.06"/>
<polygon fill="midnightblue" stroke="midnightblue" points="875.7,-122.33 867.36,-128.87 877.96,-128.96 875.7,-122.33"/>
</g>
<!-- Node16 -->
<g id="node16" class="node">
<title>Node16</title>
<g id="a_node16"><a xlink:href="../../dd/d70/vlayoutpiece_8cpp.html" target="_top" xlink:title=" ">
<polygon fill="white" stroke="black" points="1125.5,-62 1125.5,-81 1302.5,-81 1302.5,-62 1125.5,-62"/>
<text text-anchor="middle" x="1214" y="-69" font-family="Helvetica,sans-Serif" font-size="10.00">src/libs/vlayout/vlayoutpiece.cpp</text>
</a>
</g>
</g>
<!-- Node7&#45;&gt;Node16 -->
<g id="edge17" class="edge">
<title>Node7&#45;&gt;Node16</title>
<path fill="none" stroke="midnightblue" d="M900.98,-127.19C974.04,-114.43 1097.16,-92.92 1165.17,-81.03"/>
<polygon fill="midnightblue" stroke="midnightblue" points="900.26,-123.77 891.02,-128.94 901.47,-130.66 900.26,-123.77"/>
</g>
<!-- Node12&#45;&gt;Node13 -->
<g id="edge12" class="edge">
<title>Node12&#45;&gt;Node13</title>
<path fill="none" stroke="midnightblue" d="M831.78,-55.79C846.36,-44.38 866.06,-28.96 878.13,-19.51"/>
<polygon fill="midnightblue" stroke="midnightblue" points="829.61,-53.05 823.89,-61.98 833.92,-58.57 829.61,-53.05"/>
</g>
<!-- Node14&#45;&gt;Node13 -->
<g id="edge15" class="edge">
<title>Node14&#45;&gt;Node13</title>
<path fill="none" stroke="midnightblue" d="M1003.07,-58.13C975.09,-46.57 934.06,-29.62 909.59,-19.51"/>
<polygon fill="midnightblue" stroke="midnightblue" points="1001.79,-61.39 1012.37,-61.98 1004.46,-54.92 1001.79,-61.39"/>
</g>
<!-- Node15 -->
<g id="node15" class="node">
<title>Node15</title>
<g id="a_node15"><a xlink:href="../../df/d76/vposition_8cpp.html" target="_top" xlink:title=" ">
<polygon fill="white" stroke="black" points="995.5,-0.5 995.5,-19.5 1154.5,-19.5 1154.5,-0.5 995.5,-0.5"/>
<text text-anchor="middle" x="1075" y="-7.5" font-family="Helvetica,sans-Serif" font-size="10.00">src/libs/vlayout/vposition.cpp</text>
</a>
</g>
</g>
<!-- Node14&#45;&gt;Node15 -->
<g id="edge16" class="edge">
<title>Node14&#45;&gt;Node15</title>
<path fill="none" stroke="midnightblue" d="M1045,-53.51C1052.84,-42.39 1062.76,-28.34 1068.99,-19.51"/>
<polygon fill="midnightblue" stroke="midnightblue" points="1041.93,-51.79 1039.02,-61.98 1047.64,-55.82 1041.93,-51.79"/>
</g>
<!-- Node20 -->
<g id="node20" class="node">
<title>Node20</title>
<g id="a_node20"><a xlink:href="../../df/d40/export__format__combobox_8cpp.html" target="_top" xlink:title=" ">
<polygon fill="white" stroke="black" points="1320.5,-56.5 1320.5,-86.5 1453.5,-86.5 1453.5,-56.5 1320.5,-56.5"/>
<text text-anchor="start" x="1328.5" y="-74.5" font-family="Helvetica,sans-Serif" font-size="10.00">src/libs/vwidgets/export</text>
<text text-anchor="middle" x="1387" y="-63.5" font-family="Helvetica,sans-Serif" font-size="10.00">_format_combobox.cpp</text>
</a>
</g>
</g>
<!-- Node19&#45;&gt;Node20 -->
<g id="edge21" class="edge">
<title>Node19&#45;&gt;Node20</title>
<path fill="none" stroke="midnightblue" d="M1367.72,-114.28C1371.99,-105.02 1376.77,-94.66 1380.5,-86.58"/>
<polygon fill="midnightblue" stroke="midnightblue" points="1364.52,-112.85 1363.51,-123.4 1370.88,-115.78 1364.52,-112.85"/>
</g>
<!-- Node22 -->
<g id="node22" class="node">
<title>Node22</title>
<g id="a_node22"><a xlink:href="../../d2/d28/page__format__combobox_8cpp.html" target="_top" xlink:title=" ">
<polygon fill="white" stroke="black" points="1471.5,-56.5 1471.5,-86.5 1602.5,-86.5 1602.5,-56.5 1471.5,-56.5"/>
<text text-anchor="start" x="1479.5" y="-74.5" font-family="Helvetica,sans-Serif" font-size="10.00">src/libs/vwidgets/page</text>
<text text-anchor="middle" x="1537" y="-63.5" font-family="Helvetica,sans-Serif" font-size="10.00">_format_combobox.cpp</text>
</a>
</g>
</g>
<!-- Node21&#45;&gt;Node22 -->
<g id="edge23" class="edge">
<title>Node21&#45;&gt;Node22</title>
<path fill="none" stroke="midnightblue" d="M1515.79,-114.28C1520.49,-105.02 1525.75,-94.66 1529.85,-86.58"/>
<polygon fill="midnightblue" stroke="midnightblue" points="1512.57,-112.89 1511.16,-123.4 1518.81,-116.06 1512.57,-112.89"/>
</g>
</g>
</svg>
