<?xml version="1.0" encoding="UTF-8" standalone="no"?>
<!DOCTYPE svg PUBLIC "-//W3C//DTD SVG 1.1//EN"
 "http://www.w3.org/Graphics/SVG/1.1/DTD/svg11.dtd">
<!-- Generated by graphviz version 2.43.0 (0)
 -->
<!-- Title: src/libs/vwidgets/vmaingraphicsscene.h Pages: 1 -->
<svg width="1220pt" height="95pt"
 viewBox="0.00 0.00 1220.00 95.00" xmlns="http://www.w3.org/2000/svg" xmlns:xlink="http://www.w3.org/1999/xlink">
<g id="graph0" class="graph" transform="scale(1 1) rotate(0) translate(4 91)">
<title>src/libs/vwidgets/vmaingraphicsscene.h</title>
<polygon fill="white" stroke="transparent" points="-4,4 -4,-91 1216,-91 1216,4 -4,4"/>
<!-- Node1 -->
<g id="node1" class="node">
<title>Node1</title>
<g id="a_node1"><a xlink:title=" ">
<polygon fill="#bfbfbf" stroke="black" points="400.5,-67.5 400.5,-86.5 611.5,-86.5 611.5,-67.5 400.5,-67.5"/>
<text text-anchor="middle" x="506" y="-74.5" font-family="Helvetica,sans-Serif" font-size="10.00">src/libs/vwidgets/vmaingraphicsscene.h</text>
</a>
</g>
</g>
<!-- Node2 -->
<g id="node2" class="node">
<title>Node2</title>
<g id="a_node2"><a xlink:href="../../df/d1e/image__item_8cpp.html" target="_top" xlink:title=" ">
<polygon fill="white" stroke="black" points="0,-0.5 0,-30.5 112,-30.5 112,-0.5 0,-0.5"/>
<text text-anchor="start" x="8" y="-18.5" font-family="Helvetica,sans-Serif" font-size="10.00">src/libs/tools/image</text>
<text text-anchor="middle" x="56" y="-7.5" font-family="Helvetica,sans-Serif" font-size="10.00">_item.cpp</text>
</a>
</g>
</g>
<!-- Node1&#45;&gt;Node2 -->
<g id="edge1" class="edge">
<title>Node1&#45;&gt;Node2</title>
<path fill="none" stroke="midnightblue" d="M398.84,-66.47C321.36,-58.84 214.34,-46.82 121,-31 118.15,-30.52 115.24,-29.99 112.3,-29.43"/>
<polygon fill="midnightblue" stroke="midnightblue" points="398.8,-69.98 409.09,-67.46 399.48,-63.01 398.8,-69.98"/>
</g>
<!-- Node3 -->
<g id="node3" class="node">
<title>Node3</title>
<g id="a_node3"><a xlink:href="../../d2/d47/image__dialog_8cpp.html" target="_top" xlink:title=" ">
<polygon fill="white" stroke="black" points="130,-0.5 130,-30.5 242,-30.5 242,-0.5 130,-0.5"/>
<text text-anchor="start" x="138" y="-18.5" font-family="Helvetica,sans-Serif" font-size="10.00">src/libs/tools/image</text>
<text text-anchor="middle" x="186" y="-7.5" font-family="Helvetica,sans-Serif" font-size="10.00">_dialog.cpp</text>
</a>
</g>
</g>
<!-- Node1&#45;&gt;Node3 -->
<g id="edge2" class="edge">
<title>Node1&#45;&gt;Node3</title>
<path fill="none" stroke="midnightblue" d="M443.6,-65.79C391.88,-57.14 316.51,-44.08 251,-31 248.17,-30.43 245.26,-29.84 242.34,-29.23"/>
<polygon fill="midnightblue" stroke="midnightblue" points="443.18,-69.27 453.62,-67.46 444.33,-62.36 443.18,-69.27"/>
</g>
<!-- Node4 -->
<g id="node4" class="node">
<title>Node4</title>
<g id="a_node4"><a xlink:href="../../de/dec/vgraphicssimpletextitem_8cpp.html" target="_top" xlink:title=" ">
<polygon fill="white" stroke="black" points="260,-6 260,-25 504,-25 504,-6 260,-6"/>
<text text-anchor="middle" x="382" y="-13" font-family="Helvetica,sans-Serif" font-size="10.00">src/libs/vwidgets/vgraphicssimpletextitem.cpp</text>
</a>
</g>
</g>
<!-- Node1&#45;&gt;Node4 -->
<g id="edge3" class="edge">
<title>Node1&#45;&gt;Node4</title>
<path fill="none" stroke="midnightblue" d="M478.95,-63.02C454.9,-51.48 420.44,-34.94 399.73,-25.01"/>
<polygon fill="midnightblue" stroke="midnightblue" points="477.7,-66.3 488.23,-67.48 480.73,-59.99 477.7,-66.3"/>
</g>
<!-- Node5 -->
<g id="node5" class="node">
<title>Node5</title>
<g id="a_node5"><a xlink:href="../../de/d45/vcontrolpointspline_8cpp.html" target="_top" xlink:title=" ">
<polygon fill="white" stroke="black" points="522.5,-6 522.5,-25 737.5,-25 737.5,-6 522.5,-6"/>
<text text-anchor="middle" x="630" y="-13" font-family="Helvetica,sans-Serif" font-size="10.00">src/libs/vwidgets/vcontrolpointspline.cpp</text>
</a>
</g>
</g>
<!-- Node1&#45;&gt;Node5 -->
<g id="edge4" class="edge">
<title>Node1&#45;&gt;Node5</title>
<path fill="none" stroke="midnightblue" d="M533.05,-63.02C557.1,-51.48 591.56,-34.94 612.27,-25.01"/>
<polygon fill="midnightblue" stroke="midnightblue" points="531.27,-59.99 523.77,-67.48 534.3,-66.3 531.27,-59.99"/>
</g>
<!-- Node6 -->
<g id="node6" class="node">
<title>Node6</title>
<g id="a_node6"><a xlink:href="../../d1/d88/vmaingraphicsscene_8cpp.html" target="_top" xlink:title=" ">
<polygon fill="white" stroke="black" points="756,-6 756,-25 978,-25 978,-6 756,-6"/>
<text text-anchor="middle" x="867" y="-13" font-family="Helvetica,sans-Serif" font-size="10.00">src/libs/vwidgets/vmaingraphicsscene.cpp</text>
</a>
</g>
</g>
<!-- Node1&#45;&gt;Node6 -->
<g id="edge5" class="edge">
<title>Node1&#45;&gt;Node6</title>
<path fill="none" stroke="midnightblue" d="M567.7,-65.83C637.53,-54.32 750.01,-35.78 815.37,-25.01"/>
<polygon fill="midnightblue" stroke="midnightblue" points="567.02,-62.4 557.72,-67.48 568.16,-69.3 567.02,-62.4"/>
</g>
<!-- Node7 -->
<g id="node7" class="node">
<title>Node7</title>
<g id="a_node7"><a xlink:href="../../d2/d31/vmaingraphicsview_8cpp.html" target="_top" xlink:title=" ">
<polygon fill="white" stroke="black" points="996,-6 996,-25 1212,-25 1212,-6 996,-6"/>
<text text-anchor="middle" x="1104" y="-13" font-family="Helvetica,sans-Serif" font-size="10.00">src/libs/vwidgets/vmaingraphicsview.cpp</text>
</a>
</g>
</g>
<!-- Node1&#45;&gt;Node7 -->
<g id="edge6" class="edge">
<title>Node1&#45;&gt;Node7</title>
<path fill="none" stroke="midnightblue" d="M616.68,-66.6C714.23,-58.08 860.16,-44.79 987,-31 1003.58,-29.2 1021.47,-27.07 1038.14,-25.01"/>
<polygon fill="midnightblue" stroke="midnightblue" points="616.16,-63.13 606.51,-67.48 616.77,-70.1 616.16,-63.13"/>
</g>
</g>
</svg>
