<?xml version="1.0" encoding="UTF-8" standalone="no"?>
<!DOCTYPE svg PUBLIC "-//W3C//DTD SVG 1.1//EN"
 "http://www.w3.org/Graphics/SVG/1.1/DTD/svg11.dtd">
<!-- Generated by graphviz version 2.43.0 (0)
 -->
<!-- Title: src/libs/vwidgets/vmaingraphicsscene.h Pages: 1 -->
<svg width="1220pt" height="93pt"
 viewBox="0.00 0.00 1220.00 93.00" xmlns="http://www.w3.org/2000/svg" xmlns:xlink="http://www.w3.org/1999/xlink">
<g id="graph0" class="graph" transform="scale(1 1) rotate(0) translate(4 89)">
<title>src/libs/vwidgets/vmaingraphicsscene.h</title>
<!-- Node1 -->
<g id="Node000001" class="node">
<title>Node1</title>
<g id="a_Node000001"><a xlink:title=" ">
<polygon fill="#999999" stroke="#666666" points="597.5,-85 386.5,-85 386.5,-66 597.5,-66 597.5,-85"/>
<text text-anchor="middle" x="492" y="-73" font-family="Helvetica,sans-Serif" font-size="10.00">src/libs/vwidgets/vmaingraphicsscene.h</text>
</a>
</g>
</g>
<!-- Node2 -->
<g id="Node000002" class="node">
<title>Node2</title>
<g id="a_Node000002"><a xlink:href="../../d2/d47/image__dialog_8cpp.html" target="_top" xlink:title=" ">
<polygon fill="white" stroke="#666666" points="112,-30 0,-30 0,0 112,0 112,-30"/>
<text text-anchor="start" x="8" y="-18" font-family="Helvetica,sans-Serif" font-size="10.00">src/libs/tools/image</text>
<text text-anchor="middle" x="56" y="-7" font-family="Helvetica,sans-Serif" font-size="10.00">_dialog.cpp</text>
</a>
</g>
</g>
<!-- Node1&#45;&gt;Node2 -->
<g id="edge1_Node000001_Node000002" class="edge">
<title>Node1&#45;&gt;Node2</title>
<g id="a_edge1_Node000001_Node000002"><a xlink:title=" ">
<path fill="none" stroke="#63b8ff" d="M390.97,-64.94C316.17,-57.24 211.9,-45.21 121,-30 118.15,-29.52 115.24,-29.01 112.31,-28.46"/>
<polygon fill="#63b8ff" stroke="#63b8ff" points="391.02,-68.46 401.33,-66 391.73,-61.5 391.02,-68.46"/>
</a>
</g>
</g>
<!-- Node3 -->
<g id="Node000003" class="node">
<title>Node3</title>
<g id="a_Node000003"><a xlink:href="../../df/d1e/image__item_8cpp.html" target="_top" xlink:title=" ">
<polygon fill="white" stroke="#666666" points="242,-30 130,-30 130,0 242,0 242,-30"/>
<text text-anchor="start" x="138" y="-18" font-family="Helvetica,sans-Serif" font-size="10.00">src/libs/tools/image</text>
<text text-anchor="middle" x="186" y="-7" font-family="Helvetica,sans-Serif" font-size="10.00">_item.cpp</text>
</a>
</g>
</g>
<!-- Node1&#45;&gt;Node3 -->
<g id="edge2_Node000001_Node000003" class="edge">
<title>Node1&#45;&gt;Node3</title>
<g id="a_edge2_Node000001_Node000003"><a xlink:title=" ">
<path fill="none" stroke="#63b8ff" d="M433.38,-64.18C384.52,-55.45 313.13,-42.42 251,-30 248.17,-29.43 245.27,-28.85 242.35,-28.24"/>
<polygon fill="#63b8ff" stroke="#63b8ff" points="432.99,-67.66 443.45,-65.97 434.22,-60.77 432.99,-67.66"/>
</a>
</g>
</g>
<!-- Node4 -->
<g id="Node000004" class="node">
<title>Node4</title>
<g id="a_Node000004"><a xlink:href="../../de/d45/vcontrolpointspline_8cpp.html" target="_top" xlink:title=" ">
<polygon fill="white" stroke="#666666" points="475.5,-24.5 260.5,-24.5 260.5,-5.5 475.5,-5.5 475.5,-24.5"/>
<text text-anchor="middle" x="368" y="-12.5" font-family="Helvetica,sans-Serif" font-size="10.00">src/libs/vwidgets/vcontrolpointspline.cpp</text>
</a>
</g>
</g>
<!-- Node1&#45;&gt;Node4 -->
<g id="edge3_Node000001_Node000004" class="edge">
<title>Node1&#45;&gt;Node4</title>
<g id="a_edge3_Node000001_Node000004"><a xlink:title=" ">
<path fill="none" stroke="#63b8ff" d="M464.73,-61.63C440.81,-50.35 406.72,-34.27 386.05,-24.52"/>
<polygon fill="#63b8ff" stroke="#63b8ff" points="463.43,-64.89 473.97,-65.99 466.42,-58.56 463.43,-64.89"/>
</a>
</g>
</g>
<!-- Node5 -->
<g id="Node000005" class="node">
<title>Node5</title>
<g id="a_Node000005"><a xlink:href="../../de/dec/vgraphicssimpletextitem_8cpp.html" target="_top" xlink:title=" ">
<polygon fill="white" stroke="#666666" points="738,-24.5 494,-24.5 494,-5.5 738,-5.5 738,-24.5"/>
<text text-anchor="middle" x="616" y="-12.5" font-family="Helvetica,sans-Serif" font-size="10.00">src/libs/vwidgets/vgraphicssimpletextitem.cpp</text>
</a>
</g>
</g>
<!-- Node1&#45;&gt;Node5 -->
<g id="edge4_Node000001_Node000005" class="edge">
<title>Node1&#45;&gt;Node5</title>
<g id="a_edge4_Node000001_Node000005"><a xlink:title=" ">
<path fill="none" stroke="#63b8ff" d="M519.27,-61.63C543.19,-50.35 577.28,-34.27 597.95,-24.52"/>
<polygon fill="#63b8ff" stroke="#63b8ff" points="517.58,-58.56 510.03,-65.99 520.57,-64.89 517.58,-58.56"/>
</a>
</g>
</g>
<!-- Node6 -->
<g id="Node000006" class="node">
<title>Node6</title>
<g id="a_Node000006"><a xlink:href="../../d1/d88/vmaingraphicsscene_8cpp.html" target="_top" xlink:title=" ">
<polygon fill="white" stroke="#666666" points="978,-24.5 756,-24.5 756,-5.5 978,-5.5 978,-24.5"/>
<text text-anchor="middle" x="867" y="-12.5" font-family="Helvetica,sans-Serif" font-size="10.00">src/libs/vwidgets/vmaingraphicsscene.cpp</text>
</a>
</g>
</g>
<!-- Node1&#45;&gt;Node6 -->
<g id="edge5_Node000001_Node000006" class="edge">
<title>Node1&#45;&gt;Node6</title>
<g id="a_edge5_Node000001_Node000006"><a xlink:title=" ">
<path fill="none" stroke="#63b8ff" d="M556.42,-64.45C628.63,-53.19 744.47,-35.11 812.41,-24.52"/>
<polygon fill="#63b8ff" stroke="#63b8ff" points="555.87,-60.99 546.53,-65.99 556.95,-67.91 555.87,-60.99"/>
</a>
</g>
</g>
<!-- Node7 -->
<g id="Node000007" class="node">
<title>Node7</title>
<g id="a_Node000007"><a xlink:href="../../d2/d31/vmaingraphicsview_8cpp.html" target="_top" xlink:title=" ">
<polygon fill="white" stroke="#666666" points="1212,-24.5 996,-24.5 996,-5.5 1212,-5.5 1212,-24.5"/>
<text text-anchor="middle" x="1104" y="-12.5" font-family="Helvetica,sans-Serif" font-size="10.00">src/libs/vwidgets/vmaingraphicsview.cpp</text>
</a>
</g>
</g>
<!-- Node1&#45;&gt;Node7 -->
<g id="edge6_Node000001_Node000007" class="edge">
<title>Node1&#45;&gt;Node7</title>
<g id="a_edge6_Node000001_Node000007"><a xlink:title=" ">
<path fill="none" stroke="#63b8ff" d="M607.03,-65.12C707.41,-56.71 856.95,-43.62 987,-30 1002.77,-28.35 1019.71,-26.41 1035.67,-24.52"/>
<polygon fill="#63b8ff" stroke="#63b8ff" points="606.53,-61.65 596.86,-65.97 607.12,-68.63 606.53,-61.65"/>
</a>
</g>
</g>
</g>
</svg>
