<?xml version="1.0" encoding="UTF-8" standalone="no"?>
<!DOCTYPE svg PUBLIC "-//W3C//DTD SVG 1.1//EN"
 "http://www.w3.org/Graphics/SVG/1.1/DTD/svg11.dtd">
<!-- Generated by graphviz version 2.43.0 (0)
 -->
<!-- Title: src/app/seamlyme/dialogs/dialogmdatabase.h Pages: 1 -->
<svg width="2030pt" height="162pt"
 viewBox="0.00 0.00 2030.00 162.00" xmlns="http://www.w3.org/2000/svg" xmlns:xlink="http://www.w3.org/1999/xlink">
<g id="graph0" class="graph" transform="scale(1 1) rotate(0) translate(4 158)">
<title>src/app/seamlyme/dialogs/dialogmdatabase.h</title>
<polygon fill="white" stroke="transparent" points="-4,4 -4,-158 2026,-158 2026,4 -4,4"/>
<!-- Node1 -->
<g id="node1" class="node">
<title>Node1</title>
<g id="a_node1"><a xlink:title=" ">
<polygon fill="#bfbfbf" stroke="black" points="1052,-123.5 1052,-153.5 1197,-153.5 1197,-123.5 1052,-123.5"/>
<text text-anchor="start" x="1060" y="-141.5" font-family="Helvetica,sans-Serif" font-size="10.00">src/app/seamlyme/dialogs</text>
<text text-anchor="middle" x="1124.5" y="-130.5" font-family="Helvetica,sans-Serif" font-size="10.00">/dialogmdatabase.h</text>
</a>
</g>
</g>
<!-- Node2 -->
<g id="node2" class="node">
<title>Node2</title>
<g id="a_node2"><a xlink:href="../../d1/da2/application__me_8h.html" target="_top" xlink:title=" ">
<polygon fill="white" stroke="black" points="1027.5,-67.5 1027.5,-86.5 1221.5,-86.5 1221.5,-67.5 1027.5,-67.5"/>
<text text-anchor="middle" x="1124.5" y="-74.5" font-family="Helvetica,sans-Serif" font-size="10.00">src/app/seamlyme/application_me.h</text>
</a>
</g>
</g>
<!-- Node1&#45;&gt;Node2 -->
<g id="edge1" class="edge">
<title>Node1&#45;&gt;Node2</title>
<path fill="none" stroke="midnightblue" d="M1124.5,-113.29C1124.5,-103.86 1124.5,-93.65 1124.5,-86.66"/>
<polygon fill="midnightblue" stroke="midnightblue" points="1121,-113.4 1124.5,-123.4 1128,-113.4 1121,-113.4"/>
</g>
<!-- Node6 -->
<g id="node6" class="node">
<title>Node6</title>
<g id="a_node6"><a xlink:href="../../d1/d42/dialogmdatabase_8cpp.html" target="_top" xlink:title=" ">
<polygon fill="white" stroke="black" points="0,-0.5 0,-30.5 145,-30.5 145,-0.5 0,-0.5"/>
<text text-anchor="start" x="8" y="-18.5" font-family="Helvetica,sans-Serif" font-size="10.00">src/app/seamlyme/dialogs</text>
<text text-anchor="middle" x="72.5" y="-7.5" font-family="Helvetica,sans-Serif" font-size="10.00">/dialogmdatabase.cpp</text>
</a>
</g>
</g>
<!-- Node1&#45;&gt;Node6 -->
<g id="edge12" class="edge">
<title>Node1&#45;&gt;Node6</title>
<path fill="none" stroke="midnightblue" d="M1041.81,-130.34C873.92,-115.38 481.25,-78.25 153.5,-31 150.81,-30.61 148.08,-30.2 145.32,-29.78"/>
<polygon fill="midnightblue" stroke="midnightblue" points="1041.54,-133.83 1051.81,-131.23 1042.16,-126.86 1041.54,-133.83"/>
</g>
<!-- Node12 -->
<g id="node12" class="node">
<title>Node12</title>
<g id="a_node12"><a xlink:href="../../dc/de1/tmainwindow_8cpp.html" target="_top" xlink:title=" ">
<polygon fill="white" stroke="black" points="1827,-6 1827,-25 2022,-25 2022,-6 1827,-6"/>
<text text-anchor="middle" x="1924.5" y="-13" font-family="Helvetica,sans-Serif" font-size="10.00">src/app/seamlyme/tmainwindow.cpp</text>
</a>
</g>
</g>
<!-- Node1&#45;&gt;Node12 -->
<g id="edge13" class="edge">
<title>Node1&#45;&gt;Node12</title>
<path fill="none" stroke="midnightblue" d="M1207.24,-124.99C1370.32,-100.32 1729.43,-46 1868.21,-25.01"/>
<polygon fill="midnightblue" stroke="midnightblue" points="1206.62,-121.54 1197.26,-126.5 1207.67,-128.46 1206.62,-121.54"/>
</g>
<!-- Node3 -->
<g id="node3" class="node">
<title>Node3</title>
<g id="a_node3"><a xlink:href="../../d9/d23/seamlymepreferencesconfigurationpage_8cpp.html" target="_top" xlink:title=" ">
<polygon fill="white" stroke="black" points="163,-0.5 163,-30.5 462,-30.5 462,-0.5 163,-0.5"/>
<text text-anchor="start" x="171" y="-18.5" font-family="Helvetica,sans-Serif" font-size="10.00">src/app/seamlyme/dialogs</text>
<text text-anchor="middle" x="312.5" y="-7.5" font-family="Helvetica,sans-Serif" font-size="10.00">/configpages/seamlymepreferencesconfigurationpage.cpp</text>
</a>
</g>
</g>
<!-- Node2&#45;&gt;Node3 -->
<g id="edge2" class="edge">
<title>Node2&#45;&gt;Node3</title>
<path fill="none" stroke="midnightblue" d="M1017.06,-69.33C887.61,-61.12 663.54,-46.37 471.5,-31 468.46,-30.76 465.39,-30.51 462.29,-30.25"/>
<polygon fill="midnightblue" stroke="midnightblue" points="1017.17,-72.84 1027.37,-69.98 1017.61,-65.86 1017.17,-72.84"/>
</g>
<!-- Node4 -->
<g id="node4" class="node">
<title>Node4</title>
<g id="a_node4"><a xlink:href="../../d8/dd0/application__me_8cpp.html" target="_top" xlink:title=" ">
<polygon fill="white" stroke="black" points="480.5,-0.5 480.5,-30.5 644.5,-30.5 644.5,-0.5 480.5,-0.5"/>
<text text-anchor="start" x="488.5" y="-18.5" font-family="Helvetica,sans-Serif" font-size="10.00">src/app/seamlyme/application</text>
<text text-anchor="middle" x="562.5" y="-7.5" font-family="Helvetica,sans-Serif" font-size="10.00">_me.cpp</text>
</a>
</g>
</g>
<!-- Node2&#45;&gt;Node4 -->
<g id="edge3" class="edge">
<title>Node2&#45;&gt;Node4</title>
<path fill="none" stroke="midnightblue" d="M1017.07,-67.67C921.47,-59.79 777.92,-46.84 653.5,-31 650.64,-30.64 647.74,-30.25 644.81,-29.85"/>
<polygon fill="midnightblue" stroke="midnightblue" points="1017.08,-71.18 1027.33,-68.51 1017.65,-64.2 1017.08,-71.18"/>
</g>
<!-- Node5 -->
<g id="node5" class="node">
<title>Node5</title>
<g id="a_node5"><a xlink:href="../../d8/dcc/seamlymepreferencespathpage_8cpp.html" target="_top" xlink:title=" ">
<polygon fill="white" stroke="black" points="663,-0.5 663,-30.5 920,-30.5 920,-0.5 663,-0.5"/>
<text text-anchor="start" x="671" y="-18.5" font-family="Helvetica,sans-Serif" font-size="10.00">src/app/seamlyme/dialogs</text>
<text text-anchor="middle" x="791.5" y="-7.5" font-family="Helvetica,sans-Serif" font-size="10.00">/configpages/seamlymepreferencespathpage.cpp</text>
</a>
</g>
</g>
<!-- Node2&#45;&gt;Node5 -->
<g id="edge4" class="edge">
<title>Node2&#45;&gt;Node5</title>
<path fill="none" stroke="midnightblue" d="M1066.62,-65.66C1012.19,-55.93 930.28,-41.3 869.98,-30.52"/>
<polygon fill="midnightblue" stroke="midnightblue" points="1066.33,-69.16 1076.79,-67.48 1067.56,-62.27 1066.33,-69.16"/>
</g>
<!-- Node2&#45;&gt;Node6 -->
<g id="edge5" class="edge">
<title>Node2&#45;&gt;Node6</title>
<path fill="none" stroke="midnightblue" d="M1017.12,-75.6C837.71,-73.92 465.87,-66.04 153.5,-31 150.8,-30.7 148.06,-30.36 145.29,-29.99"/>
<polygon fill="midnightblue" stroke="midnightblue" points="1017.32,-79.1 1027.35,-75.69 1017.38,-72.11 1017.32,-79.1"/>
</g>
<!-- Node7 -->
<g id="node7" class="node">
<title>Node7</title>
<g id="a_node7"><a xlink:href="../../dd/db1/dialogseamlymepreferences_8cpp.html" target="_top" xlink:title=" ">
<polygon fill="white" stroke="black" points="938,-0.5 938,-30.5 1117,-30.5 1117,-0.5 938,-0.5"/>
<text text-anchor="start" x="946" y="-18.5" font-family="Helvetica,sans-Serif" font-size="10.00">src/app/seamlyme/dialogs</text>
<text text-anchor="middle" x="1027.5" y="-7.5" font-family="Helvetica,sans-Serif" font-size="10.00">/dialogseamlymepreferences.cpp</text>
</a>
</g>
</g>
<!-- Node2&#45;&gt;Node7 -->
<g id="edge6" class="edge">
<title>Node2&#45;&gt;Node7</title>
<path fill="none" stroke="midnightblue" d="M1101.69,-62.01C1086.22,-52.52 1065.84,-40.02 1050.36,-30.52"/>
<polygon fill="midnightblue" stroke="midnightblue" points="1100.25,-65.23 1110.6,-67.48 1103.91,-59.26 1100.25,-65.23"/>
</g>
<!-- Node8 -->
<g id="node8" class="node">
<title>Node8</title>
<g id="a_node8"><a xlink:href="../../d7/d31/new__measurements__dialog_8cpp.html" target="_top" xlink:title=" ">
<polygon fill="white" stroke="black" points="1135.5,-0.5 1135.5,-30.5 1309.5,-30.5 1309.5,-0.5 1135.5,-0.5"/>
<text text-anchor="start" x="1143.5" y="-18.5" font-family="Helvetica,sans-Serif" font-size="10.00">src/app/seamlyme/dialogs</text>
<text text-anchor="middle" x="1222.5" y="-7.5" font-family="Helvetica,sans-Serif" font-size="10.00">/new_measurements_dialog.cpp</text>
</a>
</g>
</g>
<!-- Node2&#45;&gt;Node8 -->
<g id="edge7" class="edge">
<title>Node2&#45;&gt;Node8</title>
<path fill="none" stroke="midnightblue" d="M1147.1,-62.28C1162.79,-52.75 1183.61,-40.11 1199.4,-30.52"/>
<polygon fill="midnightblue" stroke="midnightblue" points="1145.27,-59.29 1138.54,-67.48 1148.91,-65.28 1145.27,-59.29"/>
</g>
<!-- Node9 -->
<g id="node9" class="node">
<title>Node9</title>
<g id="a_node9"><a xlink:href="../../d6/d8e/me__shortcuts__dialog_8cpp.html" target="_top" xlink:title=" ">
<polygon fill="white" stroke="black" points="1328,-0.5 1328,-30.5 1473,-30.5 1473,-0.5 1328,-0.5"/>
<text text-anchor="start" x="1336" y="-18.5" font-family="Helvetica,sans-Serif" font-size="10.00">src/app/seamlyme/dialogs</text>
<text text-anchor="middle" x="1400.5" y="-7.5" font-family="Helvetica,sans-Serif" font-size="10.00">/me_shortcuts_dialog.cpp</text>
</a>
</g>
</g>
<!-- Node2&#45;&gt;Node9 -->
<g id="edge8" class="edge">
<title>Node2&#45;&gt;Node9</title>
<path fill="none" stroke="midnightblue" d="M1173.89,-65.35C1219,-55.63 1286,-41.18 1335.45,-30.52"/>
<polygon fill="midnightblue" stroke="midnightblue" points="1173.08,-61.95 1164.04,-67.48 1174.56,-68.79 1173.08,-61.95"/>
</g>
<!-- Node10 -->
<g id="node10" class="node">
<title>Node10</title>
<g id="a_node10"><a xlink:href="../../db/de0/app_2seamlyme_2main_8cpp.html" target="_top" xlink:title=" ">
<polygon fill="white" stroke="black" points="1491,-6 1491,-25 1646,-25 1646,-6 1491,-6"/>
<text text-anchor="middle" x="1568.5" y="-13" font-family="Helvetica,sans-Serif" font-size="10.00">src/app/seamlyme/main.cpp</text>
</a>
</g>
</g>
<!-- Node2&#45;&gt;Node10 -->
<g id="edge9" class="edge">
<title>Node2&#45;&gt;Node10</title>
<path fill="none" stroke="midnightblue" d="M1209.72,-66.31C1282.34,-57.81 1389.42,-44.69 1482.5,-31 1494.63,-29.22 1507.7,-27.11 1519.89,-25.06"/>
<polygon fill="midnightblue" stroke="midnightblue" points="1209.23,-62.84 1199.71,-67.48 1210.05,-69.79 1209.23,-62.84"/>
</g>
<!-- Node11 -->
<g id="node11" class="node">
<title>Node11</title>
<g id="a_node11"><a xlink:href="../../dc/d74/me__welcome__dialog_8cpp.html" target="_top" xlink:title=" ">
<polygon fill="white" stroke="black" points="1664,-0.5 1664,-30.5 1809,-30.5 1809,-0.5 1664,-0.5"/>
<text text-anchor="start" x="1672" y="-18.5" font-family="Helvetica,sans-Serif" font-size="10.00">src/app/seamlyme/dialogs</text>
<text text-anchor="middle" x="1736.5" y="-7.5" font-family="Helvetica,sans-Serif" font-size="10.00">/me_welcome_dialog.cpp</text>
</a>
</g>
</g>
<!-- Node2&#45;&gt;Node11 -->
<g id="edge10" class="edge">
<title>Node2&#45;&gt;Node11</title>
<path fill="none" stroke="midnightblue" d="M1231.89,-69.83C1339.37,-62.96 1509.32,-50.24 1655.5,-31 1658.19,-30.65 1660.93,-30.26 1663.69,-29.86"/>
<polygon fill="midnightblue" stroke="midnightblue" points="1231.44,-66.35 1221.69,-70.47 1231.89,-73.33 1231.44,-66.35"/>
</g>
<!-- Node2&#45;&gt;Node12 -->
<g id="edge11" class="edge">
<title>Node2&#45;&gt;Node12</title>
<path fill="none" stroke="midnightblue" d="M1231.56,-71.43C1368.05,-65.05 1611.2,-51.87 1818.5,-31 1834.49,-29.39 1851.77,-27.21 1867.65,-25.04"/>
<polygon fill="midnightblue" stroke="midnightblue" points="1231.34,-67.93 1221.52,-71.89 1231.67,-74.93 1231.34,-67.93"/>
</g>
</g>
</svg>
