<?xml version="1.0" encoding="UTF-8" standalone="no"?>
<!DOCTYPE svg PUBLIC "-//W3C//DTD SVG 1.1//EN"
 "http://www.w3.org/Graphics/SVG/1.1/DTD/svg11.dtd">
<!-- Generated by graphviz version 2.43.0 (0)
 -->
<!-- Title: src/app/seamlyme/dialogs/dialogmdatabase.h Pages: 1 -->
<svg width="2029pt" height="162pt"
 viewBox="0.00 0.00 2029.00 162.00" xmlns="http://www.w3.org/2000/svg" xmlns:xlink="http://www.w3.org/1999/xlink">
<g id="graph0" class="graph" transform="scale(1 1) rotate(0) translate(4 158)">
<title>src/app/seamlyme/dialogs/dialogmdatabase.h</title>
<polygon fill="white" stroke="transparent" points="-4,4 -4,-158 2025,-158 2025,4 -4,4"/>
<!-- Node1 -->
<g id="node1" class="node">
<title>Node1</title>
<g id="a_node1"><a xlink:title=" ">
<polygon fill="#bfbfbf" stroke="black" points="1033,-123.5 1033,-153.5 1178,-153.5 1178,-123.5 1033,-123.5"/>
<text text-anchor="start" x="1041" y="-141.5" font-family="Helvetica,sans-Serif" font-size="10.00">src/app/seamlyme/dialogs</text>
<text text-anchor="middle" x="1105.5" y="-130.5" font-family="Helvetica,sans-Serif" font-size="10.00">/dialogmdatabase.h</text>
</a>
</g>
</g>
<!-- Node2 -->
<g id="node2" class="node">
<title>Node2</title>
<g id="a_node2"><a xlink:href="../../d1/da2/application__me_8h.html" target="_top" xlink:title=" ">
<polygon fill="white" stroke="black" points="1008.5,-67.5 1008.5,-86.5 1202.5,-86.5 1202.5,-67.5 1008.5,-67.5"/>
<text text-anchor="middle" x="1105.5" y="-74.5" font-family="Helvetica,sans-Serif" font-size="10.00">src/app/seamlyme/application_me.h</text>
</a>
</g>
</g>
<!-- Node1&#45;&gt;Node2 -->
<g id="edge1" class="edge">
<title>Node1&#45;&gt;Node2</title>
<path fill="none" stroke="midnightblue" d="M1105.5,-113.29C1105.5,-103.86 1105.5,-93.65 1105.5,-86.66"/>
<polygon fill="midnightblue" stroke="midnightblue" points="1102,-113.4 1105.5,-123.4 1109,-113.4 1102,-113.4"/>
</g>
<!-- Node5 -->
<g id="node5" class="node">
<title>Node5</title>
<g id="a_node5"><a xlink:href="../../d1/d42/dialogmdatabase_8cpp.html" target="_top" xlink:title=" ">
<polygon fill="white" stroke="black" points="0,-0.5 0,-30.5 145,-30.5 145,-0.5 0,-0.5"/>
<text text-anchor="start" x="8" y="-18.5" font-family="Helvetica,sans-Serif" font-size="10.00">src/app/seamlyme/dialogs</text>
<text text-anchor="middle" x="72.5" y="-7.5" font-family="Helvetica,sans-Serif" font-size="10.00">/dialogmdatabase.cpp</text>
</a>
</g>
</g>
<!-- Node1&#45;&gt;Node5 -->
<g id="edge12" class="edge">
<title>Node1&#45;&gt;Node5</title>
<path fill="none" stroke="midnightblue" d="M1022.63,-130.08C857.04,-114.84 473.69,-77.52 153.5,-31 150.81,-30.61 148.08,-30.2 145.32,-29.77"/>
<polygon fill="midnightblue" stroke="midnightblue" points="1022.46,-133.58 1032.74,-131.01 1023.1,-126.61 1022.46,-133.58"/>
</g>
<!-- Node12 -->
<g id="node12" class="node">
<title>Node12</title>
<g id="a_node12"><a xlink:href="../../dc/de1/tmainwindow_8cpp.html" target="_top" xlink:title=" ">
<polygon fill="white" stroke="black" points="1826,-6 1826,-25 2021,-25 2021,-6 1826,-6"/>
<text text-anchor="middle" x="1923.5" y="-13" font-family="Helvetica,sans-Serif" font-size="10.00">src/app/seamlyme/tmainwindow.cpp</text>
</a>
</g>
</g>
<!-- Node1&#45;&gt;Node12 -->
<g id="edge13" class="edge">
<title>Node1&#45;&gt;Node12</title>
<path fill="none" stroke="midnightblue" d="M1188.24,-125.26C1354.07,-100.73 1723.41,-46.1 1865.89,-25.02"/>
<polygon fill="midnightblue" stroke="midnightblue" points="1187.47,-121.84 1178.09,-126.76 1188.5,-128.76 1187.47,-121.84"/>
</g>
<!-- Node3 -->
<g id="node3" class="node">
<title>Node3</title>
<g id="a_node3"><a xlink:href="../../d9/d23/seamlymepreferencesconfigurationpage_8cpp.html" target="_top" xlink:title=" ">
<polygon fill="white" stroke="black" points="163,-0.5 163,-30.5 462,-30.5 462,-0.5 163,-0.5"/>
<text text-anchor="start" x="171" y="-18.5" font-family="Helvetica,sans-Serif" font-size="10.00">src/app/seamlyme/dialogs</text>
<text text-anchor="middle" x="312.5" y="-7.5" font-family="Helvetica,sans-Serif" font-size="10.00">/configpages/seamlymepreferencesconfigurationpage.cpp</text>
</a>
</g>
</g>
<!-- Node2&#45;&gt;Node3 -->
<g id="edge2" class="edge">
<title>Node2&#45;&gt;Node3</title>
<path fill="none" stroke="midnightblue" d="M998.3,-69.08C872.02,-60.78 655.91,-46.08 470.5,-31 467.75,-30.78 464.98,-30.55 462.19,-30.32"/>
<polygon fill="midnightblue" stroke="midnightblue" points="998.15,-72.58 1008.36,-69.75 998.61,-65.6 998.15,-72.58"/>
</g>
<!-- Node4 -->
<g id="node4" class="node">
<title>Node4</title>
<g id="a_node4"><a xlink:href="../../d8/dcc/seamlymepreferencespathpage_8cpp.html" target="_top" xlink:title=" ">
<polygon fill="white" stroke="black" points="480,-0.5 480,-30.5 737,-30.5 737,-0.5 480,-0.5"/>
<text text-anchor="start" x="488" y="-18.5" font-family="Helvetica,sans-Serif" font-size="10.00">src/app/seamlyme/dialogs</text>
<text text-anchor="middle" x="608.5" y="-7.5" font-family="Helvetica,sans-Serif" font-size="10.00">/configpages/seamlymepreferencespathpage.cpp</text>
</a>
</g>
</g>
<!-- Node2&#45;&gt;Node4 -->
<g id="edge3" class="edge">
<title>Node2&#45;&gt;Node4</title>
<path fill="none" stroke="midnightblue" d="M1024.13,-66.26C942.97,-56.54 817.5,-41.52 725.63,-30.52"/>
<polygon fill="midnightblue" stroke="midnightblue" points="1023.95,-69.76 1034.29,-67.48 1024.78,-62.81 1023.95,-69.76"/>
</g>
<!-- Node2&#45;&gt;Node5 -->
<g id="edge4" class="edge">
<title>Node2&#45;&gt;Node5</title>
<path fill="none" stroke="midnightblue" d="M998.13,-75.46C821.44,-73.56 458.54,-65.37 153.5,-31 150.8,-30.7 148.06,-30.36 145.29,-29.99"/>
<polygon fill="midnightblue" stroke="midnightblue" points="998.17,-78.96 1008.21,-75.56 998.24,-71.96 998.17,-78.96"/>
</g>
<!-- Node6 -->
<g id="node6" class="node">
<title>Node6</title>
<g id="a_node6"><a xlink:href="../../dd/db1/dialogseamlymepreferences_8cpp.html" target="_top" xlink:title=" ">
<polygon fill="white" stroke="black" points="755,-0.5 755,-30.5 934,-30.5 934,-0.5 755,-0.5"/>
<text text-anchor="start" x="763" y="-18.5" font-family="Helvetica,sans-Serif" font-size="10.00">src/app/seamlyme/dialogs</text>
<text text-anchor="middle" x="844.5" y="-7.5" font-family="Helvetica,sans-Serif" font-size="10.00">/dialogseamlymepreferences.cpp</text>
</a>
</g>
</g>
<!-- Node2&#45;&gt;Node6 -->
<g id="edge5" class="edge">
<title>Node2&#45;&gt;Node6</title>
<path fill="none" stroke="midnightblue" d="M1058.26,-65.23C1015.61,-55.51 952.58,-41.14 906.01,-30.52"/>
<polygon fill="midnightblue" stroke="midnightblue" points="1057.58,-68.66 1068.11,-67.48 1059.13,-61.84 1057.58,-68.66"/>
</g>
<!-- Node7 -->
<g id="node7" class="node">
<title>Node7</title>
<g id="a_node7"><a xlink:href="../../d6/d8e/me__shortcuts__dialog_8cpp.html" target="_top" xlink:title=" ">
<polygon fill="white" stroke="black" points="952,-0.5 952,-30.5 1097,-30.5 1097,-0.5 952,-0.5"/>
<text text-anchor="start" x="960" y="-18.5" font-family="Helvetica,sans-Serif" font-size="10.00">src/app/seamlyme/dialogs</text>
<text text-anchor="middle" x="1024.5" y="-7.5" font-family="Helvetica,sans-Serif" font-size="10.00">/me_shortcuts_dialog.cpp</text>
</a>
</g>
</g>
<!-- Node2&#45;&gt;Node7 -->
<g id="edge6" class="edge">
<title>Node2&#45;&gt;Node7</title>
<path fill="none" stroke="midnightblue" d="M1085.72,-61.47C1072.89,-52.05 1056.27,-39.84 1043.59,-30.52"/>
<polygon fill="midnightblue" stroke="midnightblue" points="1083.76,-64.38 1093.89,-67.48 1087.91,-58.73 1083.76,-64.38"/>
</g>
<!-- Node8 -->
<g id="node8" class="node">
<title>Node8</title>
<g id="a_node8"><a xlink:href="../../dc/d74/me__welcome__dialog_8cpp.html" target="_top" xlink:title=" ">
<polygon fill="white" stroke="black" points="1115,-0.5 1115,-30.5 1260,-30.5 1260,-0.5 1115,-0.5"/>
<text text-anchor="start" x="1123" y="-18.5" font-family="Helvetica,sans-Serif" font-size="10.00">src/app/seamlyme/dialogs</text>
<text text-anchor="middle" x="1187.5" y="-7.5" font-family="Helvetica,sans-Serif" font-size="10.00">/me_welcome_dialog.cpp</text>
</a>
</g>
</g>
<!-- Node2&#45;&gt;Node8 -->
<g id="edge7" class="edge">
<title>Node2&#45;&gt;Node8</title>
<path fill="none" stroke="midnightblue" d="M1125.53,-61.47C1138.51,-52.05 1155.33,-39.84 1168.17,-30.52"/>
<polygon fill="midnightblue" stroke="midnightblue" points="1123.29,-58.77 1117.25,-67.48 1127.4,-64.43 1123.29,-58.77"/>
</g>
<!-- Node9 -->
<g id="node9" class="node">
<title>Node9</title>
<g id="a_node9"><a xlink:href="../../d7/d31/new__measurements__dialog_8cpp.html" target="_top" xlink:title=" ">
<polygon fill="white" stroke="black" points="1278.5,-0.5 1278.5,-30.5 1452.5,-30.5 1452.5,-0.5 1278.5,-0.5"/>
<text text-anchor="start" x="1286.5" y="-18.5" font-family="Helvetica,sans-Serif" font-size="10.00">src/app/seamlyme/dialogs</text>
<text text-anchor="middle" x="1365.5" y="-7.5" font-family="Helvetica,sans-Serif" font-size="10.00">/new_measurements_dialog.cpp</text>
</a>
</g>
</g>
<!-- Node2&#45;&gt;Node9 -->
<g id="edge8" class="edge">
<title>Node2&#45;&gt;Node9</title>
<path fill="none" stroke="midnightblue" d="M1152.56,-65.23C1195.05,-55.51 1257.83,-41.14 1304.22,-30.52"/>
<polygon fill="midnightblue" stroke="midnightblue" points="1151.72,-61.83 1142.75,-67.48 1153.28,-68.66 1151.72,-61.83"/>
</g>
<!-- Node10 -->
<g id="node10" class="node">
<title>Node10</title>
<g id="a_node10"><a xlink:href="../../d8/dd0/application__me_8cpp.html" target="_top" xlink:title=" ">
<polygon fill="white" stroke="black" points="1470.5,-0.5 1470.5,-30.5 1634.5,-30.5 1634.5,-0.5 1470.5,-0.5"/>
<text text-anchor="start" x="1478.5" y="-18.5" font-family="Helvetica,sans-Serif" font-size="10.00">src/app/seamlyme/application</text>
<text text-anchor="middle" x="1552.5" y="-7.5" font-family="Helvetica,sans-Serif" font-size="10.00">_me.cpp</text>
</a>
</g>
</g>
<!-- Node2&#45;&gt;Node10 -->
<g id="edge9" class="edge">
<title>Node2&#45;&gt;Node10</title>
<path fill="none" stroke="midnightblue" d="M1188.5,-66.28C1260.71,-57.63 1368.14,-44.33 1461.5,-31 1464.35,-30.59 1467.25,-30.17 1470.18,-29.74"/>
<polygon fill="midnightblue" stroke="midnightblue" points="1188.06,-62.8 1178.55,-67.47 1188.89,-69.76 1188.06,-62.8"/>
</g>
<!-- Node11 -->
<g id="node11" class="node">
<title>Node11</title>
<g id="a_node11"><a xlink:href="../../db/de0/app_2seamlyme_2main_8cpp.html" target="_top" xlink:title=" ">
<polygon fill="white" stroke="black" points="1653,-6 1653,-25 1808,-25 1808,-6 1653,-6"/>
<text text-anchor="middle" x="1730.5" y="-13" font-family="Helvetica,sans-Serif" font-size="10.00">src/app/seamlyme/main.cpp</text>
</a>
</g>
</g>
<!-- Node2&#45;&gt;Node11 -->
<g id="edge10" class="edge">
<title>Node2&#45;&gt;Node11</title>
<path fill="none" stroke="midnightblue" d="M1212.94,-69.61C1321.73,-62.52 1494.69,-49.59 1643.5,-31 1656.57,-29.37 1670.67,-27.2 1683.65,-25.03"/>
<polygon fill="midnightblue" stroke="midnightblue" points="1212.69,-66.11 1202.94,-70.25 1213.14,-73.1 1212.69,-66.11"/>
</g>
<!-- Node2&#45;&gt;Node12 -->
<g id="edge11" class="edge">
<title>Node2&#45;&gt;Node12</title>
<path fill="none" stroke="midnightblue" d="M1212.97,-71.65C1352.55,-65.44 1603.63,-52.36 1817.5,-31 1833.58,-29.39 1850.97,-27.21 1866.93,-25.01"/>
<polygon fill="midnightblue" stroke="midnightblue" points="1212.54,-68.16 1202.71,-72.1 1212.85,-75.16 1212.54,-68.16"/>
</g>
</g>
</svg>
