<?xml version="1.0" encoding="UTF-8" standalone="no"?>
<!DOCTYPE svg PUBLIC "-//W3C//DTD SVG 1.1//EN"
 "http://www.w3.org/Graphics/SVG/1.1/DTD/svg11.dtd">
<!-- Generated by graphviz version 2.43.0 (0)
 -->
<!-- Title: src/libs/vmisc/vlockguard.h Pages: 1 -->
<!--zoomable 218 -->
<svg id="main" version="1.1" xmlns="http://www.w3.org/2000/svg" xmlns:xlink="http://www.w3.org/1999/xlink" xml:space="preserve" onload="init(evt)">
<style type="text/css"><![CDATA[
.edge:hover path { stroke: red; }
.edge:hover polygon { stroke: red; fill: red; }
]]></style>
<script type="text/javascript"><![CDATA[
var edges = document.getElementsByTagName('g');
if (edges && edges.length) {
  for (var i=0;i<edges.length;i++) {
    if (edges[i].id.substr(0,4)=='edge') {
      edges[i].setAttribute('class','edge');
    }
  }
}
]]></script>
        <defs>
                <circle id="rim" cx="0" cy="0" r="7"/>
                <circle id="rim2" cx="0" cy="0" r="3.5"/>
                <g id="zoomPlus">
                        <use xlink:href="#rim" fill="#404040">
                                <set attributeName="fill" to="#808080" begin="zoomplus.mouseover" end="zoomplus.mouseout"/>
                        </use>
                        <path d="M-4,0h8M0,-4v8" fill="none" stroke="white" stroke-width="1.5" pointer-events="none"/>
                </g>
                <g id="zoomMin">
                        <use xlink:href="#rim" fill="#404040">
                                <set attributeName="fill" to="#808080" begin="zoomminus.mouseover" end="zoomminus.mouseout"/>
                        </use>
                        <path d="M-4,0h8" fill="none" stroke="white" stroke-width="1.5" pointer-events="none"/>
                </g>
                <g id="dirArrow">
                        <path fill="none" stroke="white" stroke-width="1.5" d="M0,-3.0v7 M-2.5,-0.5L0,-3.0L2.5,-0.5"/>
                </g>
               <g id="resetDef">
                       <use xlink:href="#rim2" fill="#404040">
                               <set attributeName="fill" to="#808080" begin="reset.mouseover" end="reset.mouseout"/>
                       </use>
               </g>
        </defs>

<script type="text/javascript">
var viewWidth = 6109;
var viewHeight = 218;
var sectionId = 'dynsection-1';
</script>
<script xlink:href="../../svgpan.js"/>
<svg id="graph" class="graph">
<g id="viewport">
<title>src/libs/vmisc/vlockguard.h</title>
<polygon fill="white" stroke="transparent" points="-4,4 -4,-214 6105,-214 6105,4 -4,4"/>
<!-- Node1 -->
<g id="node1" class="node">
<title>Node1</title>
<g id="a_node1"><a xlink:title=" ">
<polygon fill="#bfbfbf" stroke="black" points="2588,-190.5 2588,-209.5 2737,-209.5 2737,-190.5 2588,-190.5"/>
<text text-anchor="middle" x="2662.5" y="-197.5" font-family="Helvetica,sans-Serif" font-size="10.00">src/libs/vmisc/vlockguard.h</text>
</a>
</g>
</g>
<!-- Node2 -->
<g id="node2" class="node">
<title>Node2</title>
<g id="a_node2"><a xlink:href="../../d5/d74/vabstractapplication_8h.html" target="_top" xlink:title=" ">
<polygon fill="white" stroke="black" points="2565,-134.5 2565,-153.5 2760,-153.5 2760,-134.5 2565,-134.5"/>
<text text-anchor="middle" x="2662.5" y="-141.5" font-family="Helvetica,sans-Serif" font-size="10.00">src/libs/vmisc/vabstractapplication.h</text>
</a>
</g>
</g>
<!-- Node1&#45;&gt;Node2 -->
<g id="edge1" class="edge">
<title>Node1&#45;&gt;Node2</title>
<path fill="none" stroke="midnightblue" d="M2662.5,-179.8C2662.5,-170.91 2662.5,-160.78 2662.5,-153.75"/>
<polygon fill="midnightblue" stroke="midnightblue" points="2659,-180.08 2662.5,-190.08 2666,-180.08 2659,-180.08"/>
</g>
<!-- Node3 -->
<g id="node3" class="node">
<title>Node3</title>
<g id="a_node3"><a xlink:href="../../d4/d90/fvupdater_8cpp.html" target="_top" xlink:title=" ">
<polygon fill="white" stroke="black" points="0,-73 0,-92 153,-92 153,-73 0,-73"/>
<text text-anchor="middle" x="76.5" y="-80" font-family="Helvetica,sans-Serif" font-size="10.00">src/libs/fervor/fvupdater.cpp</text>
</a>
</g>
</g>
<!-- Node2&#45;&gt;Node3 -->
<g id="edge2" class="edge">
<title>Node2&#45;&gt;Node3</title>
<path fill="none" stroke="midnightblue" d="M2554.73,-143.2C2138.76,-143.64 637.37,-142.06 162.5,-98 148.48,-96.7 133.3,-94.43 119.64,-92.07"/>
<polygon fill="midnightblue" stroke="midnightblue" points="2554.95,-146.7 2564.95,-143.19 2554.94,-139.7 2554.95,-146.7"/>
</g>
<!-- Node4 -->
<g id="node4" class="node">
<title>Node4</title>
<g id="a_node4"><a xlink:href="../../df/d1e/image__item_8cpp.html" target="_top" xlink:title=" ">
<polygon fill="white" stroke="black" points="171.5,-67.5 171.5,-97.5 283.5,-97.5 283.5,-67.5 171.5,-67.5"/>
<text text-anchor="start" x="179.5" y="-85.5" font-family="Helvetica,sans-Serif" font-size="10.00">src/libs/tools/image</text>
<text text-anchor="middle" x="227.5" y="-74.5" font-family="Helvetica,sans-Serif" font-size="10.00">_item.cpp</text>
</a>
</g>
</g>
<!-- Node2&#45;&gt;Node4 -->
<g id="edge3" class="edge">
<title>Node2&#45;&gt;Node4</title>
<path fill="none" stroke="midnightblue" d="M2554.8,-142.23C2121.52,-138.94 518.33,-125.06 292.5,-98 289.63,-97.66 286.7,-97.24 283.75,-96.77"/>
<polygon fill="midnightblue" stroke="midnightblue" points="2554.78,-145.73 2564.81,-142.3 2554.84,-138.73 2554.78,-145.73"/>
</g>
<!-- Node5 -->
<g id="node5" class="node">
<title>Node5</title>
<g id="a_node5"><a xlink:href="../../d2/d47/image__dialog_8cpp.html" target="_top" xlink:title=" ">
<polygon fill="white" stroke="black" points="301.5,-67.5 301.5,-97.5 413.5,-97.5 413.5,-67.5 301.5,-67.5"/>
<text text-anchor="start" x="309.5" y="-85.5" font-family="Helvetica,sans-Serif" font-size="10.00">src/libs/tools/image</text>
<text text-anchor="middle" x="357.5" y="-74.5" font-family="Helvetica,sans-Serif" font-size="10.00">_dialog.cpp</text>
</a>
</g>
</g>
<!-- Node2&#45;&gt;Node5 -->
<g id="edge4" class="edge">
<title>Node2&#45;&gt;Node5</title>
<path fill="none" stroke="midnightblue" d="M2554.5,-142.1C2136.14,-138.42 634.87,-123.56 422.5,-98 419.63,-97.65 416.7,-97.24 413.75,-96.77"/>
<polygon fill="midnightblue" stroke="midnightblue" points="2554.75,-145.6 2564.78,-142.19 2554.81,-138.6 2554.75,-145.6"/>
</g>
<!-- Node6 -->
<g id="node6" class="node">
<title>Node6</title>
<g id="a_node6"><a xlink:href="../../d9/dc8/dxiface_8cpp.html" target="_top" xlink:title=" ">
<polygon fill="white" stroke="black" points="432,-73 432,-92 567,-92 567,-73 432,-73"/>
<text text-anchor="middle" x="499.5" y="-80" font-family="Helvetica,sans-Serif" font-size="10.00">src/libs/vdxf/dxiface.cpp</text>
</a>
</g>
</g>
<!-- Node2&#45;&gt;Node6 -->
<g id="edge5" class="edge">
<title>Node2&#45;&gt;Node6</title>
<path fill="none" stroke="midnightblue" d="M2554.6,-143.05C2184.05,-142.86 964.93,-139.06 575.5,-98 563.08,-96.69 549.65,-94.42 537.59,-92.06"/>
<polygon fill="midnightblue" stroke="midnightblue" points="2554.78,-146.55 2564.78,-143.06 2554.78,-139.55 2554.78,-146.55"/>
</g>
<!-- Node7 -->
<g id="node7" class="node">
<title>Node7</title>
<g id="a_node7"><a xlink:href="../../da/d75/vabstractarc__p_8h.html" target="_top" xlink:title=" ">
<polygon fill="white" stroke="black" points="585,-67.5 585,-97.5 692,-97.5 692,-67.5 585,-67.5"/>
<text text-anchor="start" x="593" y="-85.5" font-family="Helvetica,sans-Serif" font-size="10.00">src/libs/vgeometry</text>
<text text-anchor="middle" x="638.5" y="-74.5" font-family="Helvetica,sans-Serif" font-size="10.00">/vabstractarc_p.h</text>
</a>
</g>
</g>
<!-- Node2&#45;&gt;Node7 -->
<g id="edge6" class="edge">
<title>Node2&#45;&gt;Node7</title>
<path fill="none" stroke="midnightblue" d="M2554.66,-143.46C2198.75,-144.52 1063.53,-144.11 700.5,-98 697.76,-97.65 694.96,-97.23 692.14,-96.76"/>
<polygon fill="midnightblue" stroke="midnightblue" points="2554.72,-146.96 2564.71,-143.43 2554.7,-139.96 2554.72,-146.96"/>
</g>
<!-- Node9 -->
<g id="node9" class="node">
<title>Node9</title>
<g id="a_node9"><a xlink:href="../../d5/d8e/vcubicbezier__p_8h.html" target="_top" xlink:title=" ">
<polygon fill="white" stroke="black" points="710,-67.5 710,-97.5 817,-97.5 817,-67.5 710,-67.5"/>
<text text-anchor="start" x="718" y="-85.5" font-family="Helvetica,sans-Serif" font-size="10.00">src/libs/vgeometry</text>
<text text-anchor="middle" x="763.5" y="-74.5" font-family="Helvetica,sans-Serif" font-size="10.00">/vcubicbezier_p.h</text>
</a>
</g>
</g>
<!-- Node2&#45;&gt;Node9 -->
<g id="edge8" class="edge">
<title>Node2&#45;&gt;Node9</title>
<path fill="none" stroke="midnightblue" d="M2554.6,-143.26C2213.8,-143.63 1163.06,-141.14 825.5,-98 822.76,-97.65 819.96,-97.23 817.15,-96.76"/>
<polygon fill="midnightblue" stroke="midnightblue" points="2554.72,-146.76 2564.72,-143.25 2554.71,-139.76 2554.72,-146.76"/>
</g>
<!-- Node11 -->
<g id="node11" class="node">
<title>Node11</title>
<g id="a_node11"><a xlink:href="../../dc/da3/varc__p_8h.html" target="_top" xlink:title=" ">
<polygon fill="white" stroke="black" points="835,-67.5 835,-97.5 942,-97.5 942,-67.5 835,-67.5"/>
<text text-anchor="start" x="843" y="-85.5" font-family="Helvetica,sans-Serif" font-size="10.00">src/libs/vgeometry</text>
<text text-anchor="middle" x="888.5" y="-74.5" font-family="Helvetica,sans-Serif" font-size="10.00">/varc_p.h</text>
</a>
</g>
</g>
<!-- Node2&#45;&gt;Node11 -->
<g id="edge10" class="edge">
<title>Node2&#45;&gt;Node11</title>
<path fill="none" stroke="midnightblue" d="M2554.49,-143.03C2229.3,-142.68 1262.65,-138.18 950.5,-98 947.76,-97.65 944.96,-97.23 942.15,-96.75"/>
<polygon fill="midnightblue" stroke="midnightblue" points="2554.85,-146.53 2564.86,-143.04 2554.86,-139.53 2554.85,-146.53"/>
</g>
<!-- Node13 -->
<g id="node13" class="node">
<title>Node13</title>
<g id="a_node13"><a xlink:href="../../df/dde/vellipticalarc__p_8h.html" target="_top" xlink:title=" ">
<polygon fill="white" stroke="black" points="960,-67.5 960,-97.5 1067,-97.5 1067,-67.5 960,-67.5"/>
<text text-anchor="start" x="968" y="-85.5" font-family="Helvetica,sans-Serif" font-size="10.00">src/libs/vgeometry</text>
<text text-anchor="middle" x="1013.5" y="-74.5" font-family="Helvetica,sans-Serif" font-size="10.00">/vellipticalarc_p.h</text>
</a>
</g>
</g>
<!-- Node2&#45;&gt;Node13 -->
<g id="edge12" class="edge">
<title>Node2&#45;&gt;Node13</title>
<path fill="none" stroke="midnightblue" d="M2554.57,-142.48C2246.62,-140.59 1367.51,-132.28 1081.5,-98 1076.83,-97.44 1072,-96.71 1067.17,-95.89"/>
<polygon fill="midnightblue" stroke="midnightblue" points="2554.82,-145.98 2564.85,-142.54 2554.87,-138.98 2554.82,-145.98"/>
</g>
<!-- Node14 -->
<g id="node14" class="node">
<title>Node14</title>
<g id="a_node14"><a xlink:href="../../d6/dfb/vellipticalarc_8cpp.html" target="_top" xlink:title=" ">
<polygon fill="white" stroke="black" points="980,-0.5 980,-30.5 1087,-30.5 1087,-0.5 980,-0.5"/>
<text text-anchor="start" x="988" y="-18.5" font-family="Helvetica,sans-Serif" font-size="10.00">src/libs/vgeometry</text>
<text text-anchor="middle" x="1033.5" y="-7.5" font-family="Helvetica,sans-Serif" font-size="10.00">/vellipticalarc.cpp</text>
</a>
</g>
</g>
<!-- Node2&#45;&gt;Node14 -->
<g id="edge14" class="edge">
<title>Node2&#45;&gt;Node14</title>
<path fill="none" stroke="midnightblue" d="M2554.84,-142.06C2214.52,-138.79 1180.39,-126.54 1114.5,-98 1097.75,-90.74 1063.56,-52.22 1045.42,-30.83"/>
<polygon fill="midnightblue" stroke="midnightblue" points="2554.92,-145.56 2564.95,-142.15 2554.99,-138.56 2554.92,-145.56"/>
</g>
<!-- Node15 -->
<g id="node15" class="node">
<title>Node15</title>
<g id="a_node15"><a xlink:href="../../d1/d76/vspline__p_8h.html" target="_top" xlink:title=" ">
<polygon fill="white" stroke="black" points="1124,-67.5 1124,-97.5 1231,-97.5 1231,-67.5 1124,-67.5"/>
<text text-anchor="start" x="1132" y="-85.5" font-family="Helvetica,sans-Serif" font-size="10.00">src/libs/vgeometry</text>
<text text-anchor="middle" x="1177.5" y="-74.5" font-family="Helvetica,sans-Serif" font-size="10.00">/vspline_p.h</text>
</a>
</g>
</g>
<!-- Node2&#45;&gt;Node15 -->
<g id="edge15" class="edge">
<title>Node2&#45;&gt;Node15</title>
<path fill="none" stroke="midnightblue" d="M2554.29,-142.3C2267.78,-140.01 1494.1,-130.88 1240.5,-98 1237.49,-97.61 1234.42,-97.14 1231.33,-96.61"/>
<polygon fill="midnightblue" stroke="midnightblue" points="2554.66,-145.8 2564.69,-142.38 2554.72,-138.8 2554.66,-145.8"/>
</g>
<!-- Node17 -->
<g id="node17" class="node">
<title>Node17</title>
<g id="a_node17"><a xlink:href="../../d9/d15/vabstractpiece_8cpp.html" target="_top" xlink:title=" ">
<polygon fill="white" stroke="black" points="1249.5,-73 1249.5,-92 1435.5,-92 1435.5,-73 1249.5,-73"/>
<text text-anchor="middle" x="1342.5" y="-80" font-family="Helvetica,sans-Serif" font-size="10.00">src/libs/vlayout/vabstractpiece.cpp</text>
</a>
</g>
</g>
<!-- Node2&#45;&gt;Node17 -->
<g id="edge17" class="edge">
<title>Node2&#45;&gt;Node17</title>
<path fill="none" stroke="midnightblue" d="M2554.47,-142.84C2341.49,-141.67 1852.58,-134.81 1443.5,-98 1427.44,-96.56 1410.04,-94.31 1394.28,-92.01"/>
<polygon fill="midnightblue" stroke="midnightblue" points="2554.69,-146.34 2564.71,-142.89 2554.72,-139.34 2554.69,-146.34"/>
</g>
<!-- Node18 -->
<g id="node18" class="node">
<title>Node18</title>
<g id="a_node18"><a xlink:href="../../dd/d70/vlayoutpiece_8cpp.html" target="_top" xlink:title=" ">
<polygon fill="white" stroke="black" points="1453,-73 1453,-92 1630,-92 1630,-73 1453,-73"/>
<text text-anchor="middle" x="1541.5" y="-80" font-family="Helvetica,sans-Serif" font-size="10.00">src/libs/vlayout/vlayoutpiece.cpp</text>
</a>
</g>
</g>
<!-- Node2&#45;&gt;Node18 -->
<g id="edge18" class="edge">
<title>Node2&#45;&gt;Node18</title>
<path fill="none" stroke="midnightblue" d="M2554.85,-141.9C2368.13,-139.19 1972.27,-129.85 1639.5,-98 1624.09,-96.53 1607.4,-94.3 1592.24,-92.02"/>
<polygon fill="midnightblue" stroke="midnightblue" points="2554.89,-145.4 2564.94,-142.05 2554.99,-138.41 2554.89,-145.4"/>
</g>
<!-- Node19 -->
<g id="node19" class="node">
<title>Node19</title>
<g id="a_node19"><a xlink:href="../../d8/d70/vtextmanager_8cpp.html" target="_top" xlink:title=" ">
<polygon fill="white" stroke="black" points="1648.5,-73 1648.5,-92 1830.5,-92 1830.5,-73 1648.5,-73"/>
<text text-anchor="middle" x="1739.5" y="-80" font-family="Helvetica,sans-Serif" font-size="10.00">src/libs/vlayout/vtextmanager.cpp</text>
</a>
</g>
</g>
<!-- Node2&#45;&gt;Node19 -->
<g id="edge19" class="edge">
<title>Node2&#45;&gt;Node19</title>
<path fill="none" stroke="midnightblue" d="M2554.57,-140.17C2397.07,-135.35 2095.17,-123.47 1839.5,-98 1824.05,-96.46 1807.33,-94.25 1792.07,-92.02"/>
<polygon fill="midnightblue" stroke="midnightblue" points="2554.63,-143.68 2564.73,-140.48 2554.84,-136.68 2554.63,-143.68"/>
</g>
<!-- Node20 -->
<g id="node20" class="node">
<title>Node20</title>
<g id="a_node20"><a xlink:href="../../db/d65/dialogexporttocsv_8cpp.html" target="_top" xlink:title=" ">
<polygon fill="white" stroke="black" points="1849,-67.5 1849,-97.5 1976,-97.5 1976,-67.5 1849,-67.5"/>
<text text-anchor="start" x="1857" y="-85.5" font-family="Helvetica,sans-Serif" font-size="10.00">src/libs/vmisc/dialogs</text>
<text text-anchor="middle" x="1912.5" y="-74.5" font-family="Helvetica,sans-Serif" font-size="10.00">/dialogexporttocsv.cpp</text>
</a>
</g>
</g>
<!-- Node2&#45;&gt;Node20 -->
<g id="edge20" class="edge">
<title>Node2&#45;&gt;Node20</title>
<path fill="none" stroke="midnightblue" d="M2554.59,-140.14C2420.63,-135.6 2185.39,-124.38 1985.5,-98 1982.43,-97.59 1979.29,-97.14 1976.12,-96.64"/>
<polygon fill="midnightblue" stroke="midnightblue" points="2554.74,-143.65 2564.85,-140.48 2554.97,-136.65 2554.74,-143.65"/>
</g>
<!-- Node21 -->
<g id="node21" class="node">
<title>Node21</title>
<g id="a_node21"><a xlink:href="../../d6/d0b/def_8cpp.html" target="_top" xlink:title=" ">
<polygon fill="white" stroke="black" points="1994.5,-73 1994.5,-92 2116.5,-92 2116.5,-73 1994.5,-73"/>
<text text-anchor="middle" x="2055.5" y="-80" font-family="Helvetica,sans-Serif" font-size="10.00">src/libs/vmisc/def.cpp</text>
</a>
</g>
</g>
<!-- Node2&#45;&gt;Node21 -->
<g id="edge21" class="edge">
<title>Node2&#45;&gt;Node21</title>
<path fill="none" stroke="midnightblue" d="M2554.6,-137.79C2445.86,-131.64 2273.42,-119.44 2125.5,-98 2114.69,-96.43 2103.04,-94.23 2092.41,-92.01"/>
<polygon fill="midnightblue" stroke="midnightblue" points="2554.42,-141.29 2564.6,-138.35 2554.81,-134.3 2554.42,-141.29"/>
</g>
<!-- Node22 -->
<g id="node22" class="node">
<title>Node22</title>
<g id="a_node22"><a xlink:href="../../d0/df6/vabstractapplication_8cpp.html" target="_top" xlink:title=" ">
<polygon fill="white" stroke="black" points="2134.5,-73 2134.5,-92 2340.5,-92 2340.5,-73 2134.5,-73"/>
<text text-anchor="middle" x="2237.5" y="-80" font-family="Helvetica,sans-Serif" font-size="10.00">src/libs/vmisc/vabstractapplication.cpp</text>
</a>
</g>
</g>
<!-- Node2&#45;&gt;Node22 -->
<g id="edge22" class="edge">
<title>Node2&#45;&gt;Node22</title>
<path fill="none" stroke="midnightblue" d="M2591.62,-133.08C2509.56,-121.59 2375.78,-102.86 2298.28,-92.01"/>
<polygon fill="midnightblue" stroke="midnightblue" points="2591.22,-136.55 2601.61,-134.48 2592.19,-129.62 2591.22,-136.55"/>
</g>
<!-- Node23 -->
<g id="node23" class="node">
<title>Node23</title>
<g id="a_node23"><a xlink:href="../../d4/d4f/pmsystems_8cpp.html" target="_top" xlink:title=" ">
<polygon fill="white" stroke="black" points="2359,-67.5 2359,-97.5 2466,-97.5 2466,-67.5 2359,-67.5"/>
<text text-anchor="start" x="2367" y="-85.5" font-family="Helvetica,sans-Serif" font-size="10.00">src/libs/vpatterndb</text>
<text text-anchor="middle" x="2412.5" y="-74.5" font-family="Helvetica,sans-Serif" font-size="10.00">/pmsystems.cpp</text>
</a>
</g>
</g>
<!-- Node2&#45;&gt;Node23 -->
<g id="edge23" class="edge">
<title>Node2&#45;&gt;Node23</title>
<path fill="none" stroke="midnightblue" d="M2616.89,-132.14C2574.42,-122.04 2511.09,-106.96 2466.2,-96.28"/>
<polygon fill="midnightblue" stroke="midnightblue" points="2616.14,-135.56 2626.68,-134.48 2617.76,-128.75 2616.14,-135.56"/>
</g>
<!-- Node24 -->
<g id="node24" class="node">
<title>Node24</title>
<g id="a_node24"><a xlink:href="../../db/d11/vformula_8cpp.html" target="_top" xlink:title=" ">
<polygon fill="white" stroke="black" points="2484,-67.5 2484,-97.5 2591,-97.5 2591,-67.5 2484,-67.5"/>
<text text-anchor="start" x="2492" y="-85.5" font-family="Helvetica,sans-Serif" font-size="10.00">src/libs/vpatterndb</text>
<text text-anchor="middle" x="2537.5" y="-74.5" font-family="Helvetica,sans-Serif" font-size="10.00">/vformula.cpp</text>
</a>
</g>
</g>
<!-- Node2&#45;&gt;Node24 -->
<g id="edge24" class="edge">
<title>Node2&#45;&gt;Node24</title>
<path fill="none" stroke="midnightblue" d="M2635.34,-130.07C2615.16,-120.47 2587.66,-107.38 2566.96,-97.52"/>
<polygon fill="midnightblue" stroke="midnightblue" points="2634.06,-133.34 2644.59,-134.48 2637.07,-127.02 2634.06,-133.34"/>
</g>
<!-- Node25 -->
<g id="node25" class="node">
<title>Node25</title>
<g id="a_node25"><a xlink:href="../../d6/d46/vcontainer_8cpp.html" target="_top" xlink:title=" ">
<polygon fill="white" stroke="black" points="2609,-67.5 2609,-97.5 2716,-97.5 2716,-67.5 2609,-67.5"/>
<text text-anchor="start" x="2617" y="-85.5" font-family="Helvetica,sans-Serif" font-size="10.00">src/libs/vpatterndb</text>
<text text-anchor="middle" x="2662.5" y="-74.5" font-family="Helvetica,sans-Serif" font-size="10.00">/vcontainer.cpp</text>
</a>
</g>
</g>
<!-- Node2&#45;&gt;Node25 -->
<g id="edge25" class="edge">
<title>Node2&#45;&gt;Node25</title>
<path fill="none" stroke="midnightblue" d="M2662.5,-124.23C2662.5,-115.59 2662.5,-105.5 2662.5,-97.52"/>
<polygon fill="midnightblue" stroke="midnightblue" points="2659,-124.48 2662.5,-134.48 2666,-124.48 2659,-124.48"/>
</g>
<!-- Node26 -->
<g id="node26" class="node">
<title>Node26</title>
<g id="a_node26"><a xlink:href="../../df/d7a/vpiece_8cpp.html" target="_top" xlink:title=" ">
<polygon fill="white" stroke="black" points="2734,-67.5 2734,-97.5 2841,-97.5 2841,-67.5 2734,-67.5"/>
<text text-anchor="start" x="2742" y="-85.5" font-family="Helvetica,sans-Serif" font-size="10.00">src/libs/vpatterndb</text>
<text text-anchor="middle" x="2787.5" y="-74.5" font-family="Helvetica,sans-Serif" font-size="10.00">/vpiece.cpp</text>
</a>
</g>
</g>
<!-- Node2&#45;&gt;Node26 -->
<g id="edge26" class="edge">
<title>Node2&#45;&gt;Node26</title>
<path fill="none" stroke="midnightblue" d="M2689.66,-130.07C2709.84,-120.47 2737.34,-107.38 2758.04,-97.52"/>
<polygon fill="midnightblue" stroke="midnightblue" points="2687.93,-127.02 2680.41,-134.48 2690.94,-133.34 2687.93,-127.02"/>
</g>
<!-- Node27 -->
<g id="node27" class="node">
<title>Node27</title>
<g id="a_node27"><a xlink:href="../../df/dba/vpiecenode__p_8h.html" target="_top" xlink:title=" ">
<polygon fill="white" stroke="black" points="2859,-67.5 2859,-97.5 2966,-97.5 2966,-67.5 2859,-67.5"/>
<text text-anchor="start" x="2867" y="-85.5" font-family="Helvetica,sans-Serif" font-size="10.00">src/libs/vpatterndb</text>
<text text-anchor="middle" x="2912.5" y="-74.5" font-family="Helvetica,sans-Serif" font-size="10.00">/vpiecenode_p.h</text>
</a>
</g>
</g>
<!-- Node2&#45;&gt;Node27 -->
<g id="edge27" class="edge">
<title>Node2&#45;&gt;Node27</title>
<path fill="none" stroke="midnightblue" d="M2708.11,-132.14C2750.58,-122.04 2813.91,-106.96 2858.8,-96.28"/>
<polygon fill="midnightblue" stroke="midnightblue" points="2707.24,-128.75 2698.32,-134.48 2708.86,-135.56 2707.24,-128.75"/>
</g>
<!-- Node29 -->
<g id="node29" class="node">
<title>Node29</title>
<g id="a_node29"><a xlink:href="../../de/d3e/vtranslatevars_8cpp.html" target="_top" xlink:title=" ">
<polygon fill="white" stroke="black" points="2984.5,-67.5 2984.5,-97.5 3094.5,-97.5 3094.5,-67.5 2984.5,-67.5"/>
<text text-anchor="start" x="2992.5" y="-85.5" font-family="Helvetica,sans-Serif" font-size="10.00">src/libs/vpatterndb</text>
<text text-anchor="middle" x="3039.5" y="-74.5" font-family="Helvetica,sans-Serif" font-size="10.00">/vtranslatevars.cpp</text>
</a>
</g>
</g>
<!-- Node2&#45;&gt;Node29 -->
<g id="edge29" class="edge">
<title>Node2&#45;&gt;Node29</title>
<path fill="none" stroke="midnightblue" d="M2743.24,-133.2C2806.62,-125.07 2896.97,-112.52 2975.5,-98 2978.41,-97.46 2981.39,-96.88 2984.4,-96.28"/>
<polygon fill="midnightblue" stroke="midnightblue" points="2742.79,-129.73 2733.31,-134.46 2743.67,-136.67 2742.79,-129.73"/>
</g>
<!-- Node30 -->
<g id="node30" class="node">
<title>Node30</title>
<g id="a_node30"><a xlink:href="../../df/d40/export__format__combobox_8cpp.html" target="_top" xlink:title=" ">
<polygon fill="white" stroke="black" points="3113,-67.5 3113,-97.5 3246,-97.5 3246,-67.5 3113,-67.5"/>
<text text-anchor="start" x="3121" y="-85.5" font-family="Helvetica,sans-Serif" font-size="10.00">src/libs/vwidgets/export</text>
<text text-anchor="middle" x="3179.5" y="-74.5" font-family="Helvetica,sans-Serif" font-size="10.00">_format_combobox.cpp</text>
</a>
</g>
</g>
<!-- Node2&#45;&gt;Node30 -->
<g id="edge30" class="edge">
<title>Node2&#45;&gt;Node30</title>
<path fill="none" stroke="midnightblue" d="M2770.18,-134.64C2859.67,-127.07 2990.21,-114.56 3103.5,-98 3106.56,-97.55 3109.68,-97.07 3112.83,-96.56"/>
<polygon fill="midnightblue" stroke="midnightblue" points="2769.69,-131.17 2760.02,-135.5 2770.28,-138.15 2769.69,-131.17"/>
</g>
<!-- Node31 -->
<g id="node31" class="node">
<title>Node31</title>
<g id="a_node31"><a xlink:href="../../d3/d4f/mouse__coordinates_8cpp.html" target="_top" xlink:title=" ">
<polygon fill="white" stroke="black" points="3264.5,-67.5 3264.5,-97.5 3398.5,-97.5 3398.5,-67.5 3264.5,-67.5"/>
<text text-anchor="start" x="3272.5" y="-85.5" font-family="Helvetica,sans-Serif" font-size="10.00">src/libs/vwidgets/mouse</text>
<text text-anchor="middle" x="3331.5" y="-74.5" font-family="Helvetica,sans-Serif" font-size="10.00">_coordinates.cpp</text>
</a>
</g>
</g>
<!-- Node2&#45;&gt;Node31 -->
<g id="edge31" class="edge">
<title>Node2&#45;&gt;Node31</title>
<path fill="none" stroke="midnightblue" d="M2770.39,-138.47C2889.53,-132.62 3086.81,-120.42 3255.5,-98 3258.43,-97.61 3261.42,-97.18 3264.43,-96.72"/>
<polygon fill="midnightblue" stroke="midnightblue" points="2770,-134.99 2760.18,-138.97 2770.34,-141.98 2770,-134.99"/>
</g>
<!-- Node32 -->
<g id="node32" class="node">
<title>Node32</title>
<g id="a_node32"><a xlink:href="../../d2/d28/page__format__combobox_8cpp.html" target="_top" xlink:title=" ">
<polygon fill="white" stroke="black" points="3417,-67.5 3417,-97.5 3548,-97.5 3548,-67.5 3417,-67.5"/>
<text text-anchor="start" x="3425" y="-85.5" font-family="Helvetica,sans-Serif" font-size="10.00">src/libs/vwidgets/page</text>
<text text-anchor="middle" x="3482.5" y="-74.5" font-family="Helvetica,sans-Serif" font-size="10.00">_format_combobox.cpp</text>
</a>
</g>
</g>
<!-- Node2&#45;&gt;Node32 -->
<g id="edge32" class="edge">
<title>Node2&#45;&gt;Node32</title>
<path fill="none" stroke="midnightblue" d="M2770.45,-140.9C2915.74,-137.06 3182,-126.49 3407.5,-98 3410.53,-97.62 3413.61,-97.19 3416.73,-96.72"/>
<polygon fill="midnightblue" stroke="midnightblue" points="2770.11,-137.41 2760.2,-141.16 2770.29,-144.4 2770.11,-137.41"/>
</g>
<!-- Node33 -->
<g id="node33" class="node">
<title>Node33</title>
<g id="a_node33"><a xlink:href="../../d7/d1b/pen__toolbar_8cpp.html" target="_top" xlink:title=" ">
<polygon fill="white" stroke="black" points="3566,-67.5 3566,-97.5 3685,-97.5 3685,-67.5 3566,-67.5"/>
<text text-anchor="start" x="3574" y="-85.5" font-family="Helvetica,sans-Serif" font-size="10.00">src/libs/vwidgets/pen</text>
<text text-anchor="middle" x="3625.5" y="-74.5" font-family="Helvetica,sans-Serif" font-size="10.00">_toolbar.cpp</text>
</a>
</g>
</g>
<!-- Node2&#45;&gt;Node33 -->
<g id="edge33" class="edge">
<title>Node2&#45;&gt;Node33</title>
<path fill="none" stroke="midnightblue" d="M2770.43,-143.12C2939.11,-142.07 3275.18,-134.96 3557.5,-98 3560.25,-97.64 3563.06,-97.23 3565.89,-96.77"/>
<polygon fill="midnightblue" stroke="midnightblue" points="2770.28,-139.62 2760.3,-143.18 2770.32,-146.62 2770.28,-139.62"/>
</g>
<!-- Node34 -->
<g id="node34" class="node">
<title>Node34</title>
<g id="a_node34"><a xlink:href="../../d8/d76/scene__rect_8cpp.html" target="_top" xlink:title=" ">
<polygon fill="white" stroke="black" points="3703.5,-67.5 3703.5,-97.5 3833.5,-97.5 3833.5,-67.5 3703.5,-67.5"/>
<text text-anchor="start" x="3711.5" y="-85.5" font-family="Helvetica,sans-Serif" font-size="10.00">src/libs/vwidgets/scene</text>
<text text-anchor="middle" x="3768.5" y="-74.5" font-family="Helvetica,sans-Serif" font-size="10.00">_rect.cpp</text>
</a>
</g>
</g>
<!-- Node2&#45;&gt;Node34 -->
<g id="edge34" class="edge">
<title>Node2&#45;&gt;Node34</title>
<path fill="none" stroke="midnightblue" d="M2770.17,-143.6C2958.34,-143.47 3358.98,-137.96 3694.5,-98 3697.36,-97.66 3700.27,-97.27 3703.21,-96.84"/>
<polygon fill="midnightblue" stroke="midnightblue" points="2770,-140.1 2760,-143.6 2770,-147.1 2770,-140.1"/>
</g>
<!-- Node35 -->
<g id="node35" class="node">
<title>Node35</title>
<g id="a_node35"><a xlink:href="../../dd/df6/vabstractmainwindow_8cpp.html" target="_top" xlink:title=" ">
<polygon fill="white" stroke="black" points="3852,-73 3852,-92 4081,-92 4081,-73 3852,-73"/>
<text text-anchor="middle" x="3966.5" y="-80" font-family="Helvetica,sans-Serif" font-size="10.00">src/libs/vwidgets/vabstractmainwindow.cpp</text>
</a>
</g>
</g>
<!-- Node2&#45;&gt;Node35 -->
<g id="edge35" class="edge">
<title>Node2&#45;&gt;Node35</title>
<path fill="none" stroke="midnightblue" d="M2770.47,-141.71C2978.29,-138.59 3448.28,-128.52 3842.5,-98 3861.84,-96.5 3882.81,-94.28 3901.91,-92.02"/>
<polygon fill="midnightblue" stroke="midnightblue" points="2770.11,-138.21 2760.17,-141.86 2770.22,-145.21 2770.11,-138.21"/>
</g>
<!-- Node36 -->
<g id="node36" class="node">
<title>Node36</title>
<g id="a_node36"><a xlink:href="../../de/d45/vcontrolpointspline_8cpp.html" target="_top" xlink:title=" ">
<polygon fill="white" stroke="black" points="4099,-73 4099,-92 4314,-92 4314,-73 4099,-73"/>
<text text-anchor="middle" x="4206.5" y="-80" font-family="Helvetica,sans-Serif" font-size="10.00">src/libs/vwidgets/vcontrolpointspline.cpp</text>
</a>
</g>
</g>
<!-- Node2&#45;&gt;Node36 -->
<g id="edge36" class="edge">
<title>Node2&#45;&gt;Node36</title>
<path fill="none" stroke="midnightblue" d="M2770.11,-143.02C3008.38,-142.3 3598.36,-136.43 4090.5,-98 4108.91,-96.56 4128.89,-94.31 4147,-92.01"/>
<polygon fill="midnightblue" stroke="midnightblue" points="2770.05,-139.52 2760.06,-143.04 2770.07,-146.52 2770.05,-139.52"/>
</g>
<!-- Node37 -->
<g id="node37" class="node">
<title>Node37</title>
<g id="a_node37"><a xlink:href="../../d1/d90/vgrainlineitem_8cpp.html" target="_top" xlink:title=" ">
<polygon fill="white" stroke="black" points="4332,-73 4332,-92 4525,-92 4525,-73 4332,-73"/>
<text text-anchor="middle" x="4428.5" y="-80" font-family="Helvetica,sans-Serif" font-size="10.00">src/libs/vwidgets/vgrainlineitem.cpp</text>
</a>
</g>
</g>
<!-- Node2&#45;&gt;Node37 -->
<g id="edge37" class="edge">
<title>Node2&#45;&gt;Node37</title>
<path fill="none" stroke="midnightblue" d="M2770.22,-141.63C3088.3,-137.35 4020.16,-122.98 4323.5,-98 4340.37,-96.61 4358.68,-94.35 4375.21,-92.02"/>
<polygon fill="midnightblue" stroke="midnightblue" points="2770.02,-138.14 2760.07,-141.77 2770.12,-145.14 2770.02,-138.14"/>
</g>
<!-- Node38 -->
<g id="node38" class="node">
<title>Node38</title>
<g id="a_node38"><a xlink:href="../../de/dec/vgraphicssimpletextitem_8cpp.html" target="_top" xlink:title=" ">
<polygon fill="white" stroke="black" points="4543.5,-73 4543.5,-92 4787.5,-92 4787.5,-73 4543.5,-73"/>
<text text-anchor="middle" x="4665.5" y="-80" font-family="Helvetica,sans-Serif" font-size="10.00">src/libs/vwidgets/vgraphicssimpletextitem.cpp</text>
</a>
</g>
</g>
<!-- Node2&#45;&gt;Node38 -->
<g id="edge38" class="edge">
<title>Node2&#45;&gt;Node38</title>
<path fill="none" stroke="midnightblue" d="M2770.49,-143.66C3057.82,-144.7 3864.86,-143.02 4534.5,-98 4555.39,-96.6 4578.08,-94.34 4598.62,-92.03"/>
<polygon fill="midnightblue" stroke="midnightblue" points="2770.09,-140.15 2760.08,-143.62 2770.06,-147.15 2770.09,-140.15"/>
</g>
<!-- Node39 -->
<g id="node39" class="node">
<title>Node39</title>
<g id="a_node39"><a xlink:href="../../d1/d88/vmaingraphicsscene_8cpp.html" target="_top" xlink:title=" ">
<polygon fill="white" stroke="black" points="4805.5,-73 4805.5,-92 5027.5,-92 5027.5,-73 4805.5,-73"/>
<text text-anchor="middle" x="4916.5" y="-80" font-family="Helvetica,sans-Serif" font-size="10.00">src/libs/vwidgets/vmaingraphicsscene.cpp</text>
</a>
</g>
</g>
<!-- Node2&#45;&gt;Node39 -->
<g id="edge39" class="edge">
<title>Node2&#45;&gt;Node39</title>
<path fill="none" stroke="midnightblue" d="M2770.2,-142.14C3145.74,-138.94 4396.2,-126.34 4796.5,-98 4815.86,-96.63 4836.9,-94.36 4855.87,-92.01"/>
<polygon fill="midnightblue" stroke="midnightblue" points="2770.12,-138.64 2760.15,-142.23 2770.18,-145.64 2770.12,-138.64"/>
</g>
<!-- Node40 -->
<g id="node40" class="node">
<title>Node40</title>
<g id="a_node40"><a xlink:href="../../d0/d5d/vscenepoint_8cpp.html" target="_top" xlink:title=" ">
<polygon fill="white" stroke="black" points="5046,-73 5046,-92 5227,-92 5227,-73 5046,-73"/>
<text text-anchor="middle" x="5136.5" y="-80" font-family="Helvetica,sans-Serif" font-size="10.00">src/libs/vwidgets/vscenepoint.cpp</text>
</a>
</g>
</g>
<!-- Node2&#45;&gt;Node40 -->
<g id="edge40" class="edge">
<title>Node2&#45;&gt;Node40</title>
<path fill="none" stroke="midnightblue" d="M2770.18,-142.75C3172.46,-141.53 4587.14,-134.69 5036.5,-98 5052.76,-96.67 5070.4,-94.4 5086.28,-92.03"/>
<polygon fill="midnightblue" stroke="midnightblue" points="2769.99,-139.25 2760,-142.78 2770.01,-146.25 2769.99,-139.25"/>
</g>
<!-- Node41 -->
<g id="node41" class="node">
<title>Node41</title>
<g id="a_node41"><a xlink:href="../../de/d22/vsimplecurve_8cpp.html" target="_top" xlink:title=" ">
<polygon fill="white" stroke="black" points="5245.5,-73 5245.5,-92 5433.5,-92 5433.5,-73 5245.5,-73"/>
<text text-anchor="middle" x="5339.5" y="-80" font-family="Helvetica,sans-Serif" font-size="10.00">src/libs/vwidgets/vsimplecurve.cpp</text>
</a>
</g>
</g>
<!-- Node2&#45;&gt;Node41 -->
<g id="edge41" class="edge">
<title>Node2&#45;&gt;Node41</title>
<path fill="none" stroke="midnightblue" d="M2770.23,-142.88C3193.84,-142.11 4745.77,-136.68 5236.5,-98 5253.33,-96.67 5271.61,-94.38 5288.03,-92.01"/>
<polygon fill="midnightblue" stroke="midnightblue" points="2770.13,-139.38 2760.13,-142.89 2770.14,-146.38 2770.13,-139.38"/>
</g>
<!-- Node42 -->
<g id="node42" class="node">
<title>Node42</title>
<g id="a_node42"><a xlink:href="../../df/d38/vsimplepoint_8cpp.html" target="_top" xlink:title=" ">
<polygon fill="white" stroke="black" points="5452,-73 5452,-92 5637,-92 5637,-73 5452,-73"/>
<text text-anchor="middle" x="5544.5" y="-80" font-family="Helvetica,sans-Serif" font-size="10.00">src/libs/vwidgets/vsimplepoint.cpp</text>
</a>
</g>
</g>
<!-- Node2&#45;&gt;Node42 -->
<g id="edge42" class="edge">
<title>Node2&#45;&gt;Node42</title>
<path fill="none" stroke="midnightblue" d="M2770.54,-143.06C3215.68,-143.02 4909.25,-140.05 5442.5,-98 5459.17,-96.69 5477.27,-94.4 5493.53,-92.02"/>
<polygon fill="midnightblue" stroke="midnightblue" points="2770.26,-139.56 2760.26,-143.06 2770.26,-146.56 2770.26,-139.56"/>
</g>
<!-- Node43 -->
<g id="node43" class="node">
<title>Node43</title>
<g id="a_node43"><a xlink:href="../../d2/d31/vmaingraphicsview_8cpp.html" target="_top" xlink:title=" ">
<polygon fill="white" stroke="black" points="5655.5,-73 5655.5,-92 5871.5,-92 5871.5,-73 5655.5,-73"/>
<text text-anchor="middle" x="5763.5" y="-80" font-family="Helvetica,sans-Serif" font-size="10.00">src/libs/vwidgets/vmaingraphicsview.cpp</text>
</a>
</g>
</g>
<!-- Node2&#45;&gt;Node43 -->
<g id="edge43" class="edge">
<title>Node2&#45;&gt;Node43</title>
<path fill="none" stroke="midnightblue" d="M2770.25,-142.94C3235,-142.44 5070.4,-137.92 5646.5,-98 5665.59,-96.68 5686.34,-94.39 5705,-92.01"/>
<polygon fill="midnightblue" stroke="midnightblue" points="2770.19,-139.44 2760.19,-142.95 2770.2,-146.44 2770.19,-139.44"/>
</g>
<!-- Node44 -->
<g id="node44" class="node">
<title>Node44</title>
<g id="a_node44"><a xlink:href="../../df/df5/vtextgraphicsitem_8cpp.html" target="_top" xlink:title=" ">
<polygon fill="white" stroke="black" points="5890,-73 5890,-92 6101,-92 6101,-73 5890,-73"/>
<text text-anchor="middle" x="5995.5" y="-80" font-family="Helvetica,sans-Serif" font-size="10.00">src/libs/vwidgets/vtextgraphicsitem.cpp</text>
</a>
</g>
</g>
<!-- Node2&#45;&gt;Node44 -->
<g id="edge44" class="edge">
<title>Node2&#45;&gt;Node44</title>
<path fill="none" stroke="midnightblue" d="M2770.52,-143.11C3257.95,-143.35 5255.81,-141.61 5880.5,-98 5899.27,-96.69 5919.67,-94.4 5938,-92.03"/>
<polygon fill="midnightblue" stroke="midnightblue" points="2770.33,-139.61 2760.32,-143.1 2770.32,-146.61 2770.33,-139.61"/>
</g>
<!-- Node8 -->
<g id="node8" class="node">
<title>Node8</title>
<g id="a_node8"><a xlink:href="../../d4/da1/vabstractarc_8cpp.html" target="_top" xlink:title=" ">
<polygon fill="white" stroke="black" points="585,-0.5 585,-30.5 692,-30.5 692,-0.5 585,-0.5"/>
<text text-anchor="start" x="593" y="-18.5" font-family="Helvetica,sans-Serif" font-size="10.00">src/libs/vgeometry</text>
<text text-anchor="middle" x="638.5" y="-7.5" font-family="Helvetica,sans-Serif" font-size="10.00">/vabstractarc.cpp</text>
</a>
</g>
</g>
<!-- Node7&#45;&gt;Node8 -->
<g id="edge7" class="edge">
<title>Node7&#45;&gt;Node8</title>
<path fill="none" stroke="midnightblue" d="M638.5,-57.11C638.5,-48.15 638.5,-38.32 638.5,-30.58"/>
<polygon fill="midnightblue" stroke="midnightblue" points="635,-57.4 638.5,-67.4 642,-57.4 635,-57.4"/>
</g>
<!-- Node10 -->
<g id="node10" class="node">
<title>Node10</title>
<g id="a_node10"><a xlink:href="../../d2/d26/vcubicbezier_8cpp.html" target="_top" xlink:title=" ">
<polygon fill="white" stroke="black" points="710,-0.5 710,-30.5 817,-30.5 817,-0.5 710,-0.5"/>
<text text-anchor="start" x="718" y="-18.5" font-family="Helvetica,sans-Serif" font-size="10.00">src/libs/vgeometry</text>
<text text-anchor="middle" x="763.5" y="-7.5" font-family="Helvetica,sans-Serif" font-size="10.00">/vcubicbezier.cpp</text>
</a>
</g>
</g>
<!-- Node9&#45;&gt;Node10 -->
<g id="edge9" class="edge">
<title>Node9&#45;&gt;Node10</title>
<path fill="none" stroke="midnightblue" d="M763.5,-57.11C763.5,-48.15 763.5,-38.32 763.5,-30.58"/>
<polygon fill="midnightblue" stroke="midnightblue" points="760,-57.4 763.5,-67.4 767,-57.4 760,-57.4"/>
</g>
<!-- Node12 -->
<g id="node12" class="node">
<title>Node12</title>
<g id="a_node12"><a xlink:href="../../d5/ded/varc_8cpp.html" target="_top" xlink:title=" ">
<polygon fill="white" stroke="black" points="835,-0.5 835,-30.5 942,-30.5 942,-0.5 835,-0.5"/>
<text text-anchor="start" x="843" y="-18.5" font-family="Helvetica,sans-Serif" font-size="10.00">src/libs/vgeometry</text>
<text text-anchor="middle" x="888.5" y="-7.5" font-family="Helvetica,sans-Serif" font-size="10.00">/varc.cpp</text>
</a>
</g>
</g>
<!-- Node11&#45;&gt;Node12 -->
<g id="edge11" class="edge">
<title>Node11&#45;&gt;Node12</title>
<path fill="none" stroke="midnightblue" d="M888.5,-57.11C888.5,-48.15 888.5,-38.32 888.5,-30.58"/>
<polygon fill="midnightblue" stroke="midnightblue" points="885,-57.4 888.5,-67.4 892,-57.4 885,-57.4"/>
</g>
<!-- Node13&#45;&gt;Node14 -->
<g id="edge13" class="edge">
<title>Node13&#45;&gt;Node14</title>
<path fill="none" stroke="midnightblue" d="M1020.82,-57.7C1023.63,-48.59 1026.73,-38.49 1029.17,-30.58"/>
<polygon fill="midnightblue" stroke="midnightblue" points="1017.44,-56.81 1017.84,-67.4 1024.13,-58.87 1017.44,-56.81"/>
</g>
<!-- Node16 -->
<g id="node16" class="node">
<title>Node16</title>
<g id="a_node16"><a xlink:href="../../d5/dd2/vspline_8cpp.html" target="_top" xlink:title=" ">
<polygon fill="white" stroke="black" points="1124,-0.5 1124,-30.5 1231,-30.5 1231,-0.5 1124,-0.5"/>
<text text-anchor="start" x="1132" y="-18.5" font-family="Helvetica,sans-Serif" font-size="10.00">src/libs/vgeometry</text>
<text text-anchor="middle" x="1177.5" y="-7.5" font-family="Helvetica,sans-Serif" font-size="10.00">/vspline.cpp</text>
</a>
</g>
</g>
<!-- Node15&#45;&gt;Node16 -->
<g id="edge16" class="edge">
<title>Node15&#45;&gt;Node16</title>
<path fill="none" stroke="midnightblue" d="M1177.5,-57.11C1177.5,-48.15 1177.5,-38.32 1177.5,-30.58"/>
<polygon fill="midnightblue" stroke="midnightblue" points="1174,-57.4 1177.5,-67.4 1181,-57.4 1174,-57.4"/>
</g>
<!-- Node28 -->
<g id="node28" class="node">
<title>Node28</title>
<g id="a_node28"><a xlink:href="../../d8/dba/vpiecenode_8cpp.html" target="_top" xlink:title=" ">
<polygon fill="white" stroke="black" points="2859,-0.5 2859,-30.5 2966,-30.5 2966,-0.5 2859,-0.5"/>
<text text-anchor="start" x="2867" y="-18.5" font-family="Helvetica,sans-Serif" font-size="10.00">src/libs/vpatterndb</text>
<text text-anchor="middle" x="2912.5" y="-7.5" font-family="Helvetica,sans-Serif" font-size="10.00">/vpiecenode.cpp</text>
</a>
</g>
</g>
<!-- Node27&#45;&gt;Node28 -->
<g id="edge28" class="edge">
<title>Node27&#45;&gt;Node28</title>
<path fill="none" stroke="midnightblue" d="M2912.5,-57.11C2912.5,-48.15 2912.5,-38.32 2912.5,-30.58"/>
<polygon fill="midnightblue" stroke="midnightblue" points="2909,-57.4 2912.5,-67.4 2916,-57.4 2909,-57.4"/>
</g>
</g>
</svg>
        <g id="navigator" transform="translate(0 0)" fill="#404254">
                <rect fill="#f2f5e9" fill-opacity="0.5" stroke="#606060" stroke-width=".5" x="0" y="0" width="60" height="60"/>
                <use id="zoomplus" xlink:href="#zoomPlus" x="17" y="9" onmousedown="handleZoom(evt,'in')"/>
                <use id="zoomminus" xlink:href="#zoomMin" x="42" y="9" onmousedown="handleZoom(evt,'out')"/>
                <use id="reset" xlink:href="#resetDef" x="30" y="36" onmousedown="handleReset()"/>
                <g id="arrowUp" xlink:href="#dirArrow" transform="translate(30 24)" onmousedown="handlePan(0,-1)">
                  <use xlink:href="#rim" fill="#404040">
                        <set attributeName="fill" to="#808080" begin="arrowUp.mouseover" end="arrowUp.mouseout"/>
                  </use>
                  <path fill="none" stroke="white" stroke-width="1.5" d="M0,-3.0v7 M-2.5,-0.5L0,-3.0L2.5,-0.5"/>
                </g>
                <g id="arrowRight" xlink:href="#dirArrow" transform="rotate(90) translate(36 -43)" onmousedown="handlePan(1,0)">
                  <use xlink:href="#rim" fill="#404040">
                        <set attributeName="fill" to="#808080" begin="arrowRight.mouseover" end="arrowRight.mouseout"/>
                  </use>
                  <path fill="none" stroke="white" stroke-width="1.5" d="M0,-3.0v7 M-2.5,-0.5L0,-3.0L2.5,-0.5"/>
                </g>
                <g id="arrowDown" xlink:href="#dirArrow" transform="rotate(180) translate(-30 -48)" onmousedown="handlePan(0,1)">
                  <use xlink:href="#rim" fill="#404040">
                        <set attributeName="fill" to="#808080" begin="arrowDown.mouseover" end="arrowDown.mouseout"/>
                  </use>
                  <path fill="none" stroke="white" stroke-width="1.5" d="M0,-3.0v7 M-2.5,-0.5L0,-3.0L2.5,-0.5"/>
                </g>
                <g id="arrowLeft" xlink:href="#dirArrow" transform="rotate(270) translate(-36 17)" onmousedown="handlePan(-1,0)">
                  <use xlink:href="#rim" fill="#404040">
                        <set attributeName="fill" to="#808080" begin="arrowLeft.mouseover" end="arrowLeft.mouseout"/>
                  </use>
                  <path fill="none" stroke="white" stroke-width="1.5" d="M0,-3.0v7 M-2.5,-0.5L0,-3.0L2.5,-0.5"/>
                </g>
        </g>
        <svg viewBox="0 0 15 15" width="100%" height="30px" preserveAspectRatio="xMaxYMin meet">
         <g id="arrow_out" transform="scale(0.3 0.3)">
          <a xlink:href="vlockguard_8h__dep__incl_org.svg" target="_base">
           <rect id="button" ry="5" rx="5" y="6" x="6" height="38" width="38"
                fill="#f2f5e9" fill-opacity="0.5" stroke="#606060" stroke-width="1.0"/>
           <path id="arrow"
             d="M 11.500037,31.436501 C 11.940474,20.09759 22.043105,11.32322 32.158766,21.979434 L 37.068811,17.246167 C 37.068811,17.246167 37.088388,32 37.088388,32 L 22.160133,31.978069 C 22.160133,31.978069 26.997745,27.140456 26.997745,27.140456 C 18.528582,18.264221 13.291696,25.230495 11.500037,31.436501 z"
             style="fill:#404040;"/>
          </a>
         </g>
        </svg>
</svg>
