<?xml version="1.0" encoding="UTF-8" standalone="no"?>
<!DOCTYPE svg PUBLIC "-//W3C//DTD SVG 1.1//EN"
 "http://www.w3.org/Graphics/SVG/1.1/DTD/svg11.dtd">
<!-- Generated by graphviz version 2.43.0 (0)
 -->
<!-- Title: src/app/seamlyme/application_me.h Pages: 1 -->
<!--zoomable 95 -->
<svg id="main" version="1.1" xmlns="http://www.w3.org/2000/svg" xmlns:xlink="http://www.w3.org/1999/xlink" xml:space="preserve" onload="init(evt)">
<style type="text/css"><![CDATA[
.edge:hover path { stroke: red; }
.edge:hover polygon { stroke: red; fill: red; }
]]></style>
<script type="text/javascript"><![CDATA[
var edges = document.getElementsByTagName('g');
if (edges && edges.length) {
  for (var i=0;i<edges.length;i++) {
    if (edges[i].id.substr(0,4)=='edge') {
      edges[i].setAttribute('class','edge');
    }
  }
}
]]></script>
        <defs>
                <circle id="rim" cx="0" cy="0" r="7"/>
                <circle id="rim2" cx="0" cy="0" r="3.5"/>
                <g id="zoomPlus">
                        <use xlink:href="#rim" fill="#404040">
                                <set attributeName="fill" to="#808080" begin="zoomplus.mouseover" end="zoomplus.mouseout"/>
                        </use>
                        <path d="M-4,0h8M0,-4v8" fill="none" stroke="white" stroke-width="1.5" pointer-events="none"/>
                </g>
                <g id="zoomMin">
                        <use xlink:href="#rim" fill="#404040">
                                <set attributeName="fill" to="#808080" begin="zoomminus.mouseover" end="zoomminus.mouseout"/>
                        </use>
                        <path d="M-4,0h8" fill="none" stroke="white" stroke-width="1.5" pointer-events="none"/>
                </g>
                <g id="dirArrow">
                        <path fill="none" stroke="white" stroke-width="1.5" d="M0,-3.0v7 M-2.5,-0.5L0,-3.0L2.5,-0.5"/>
                </g>
               <g id="resetDef">
                       <use xlink:href="#rim2" fill="#404040">
                               <set attributeName="fill" to="#808080" begin="reset.mouseover" end="reset.mouseout"/>
                       </use>
               </g>
        </defs>

<script type="text/javascript">
var viewWidth = 2030;
var viewHeight = 95;
var sectionId = 'dynsection-1';
</script>
<script xlink:href="../../svgpan.js"/>
<svg id="graph" class="graph">
<g id="viewport">
<title>src/app/seamlyme/application_me.h</title>
<polygon fill="white" stroke="transparent" points="-4,4 -4,-91 2025.5,-91 2025.5,4 -4,4"/>
<!-- Node1 -->
<g id="node1" class="node">
<title>Node1</title>
<g id="a_node1"><a xlink:title=" ">
<polygon fill="#bfbfbf" stroke="black" points="1028,-67.5 1028,-86.5 1222,-86.5 1222,-67.5 1028,-67.5"/>
<text text-anchor="middle" x="1125" y="-74.5" font-family="Helvetica,sans-Serif" font-size="10.00">src/app/seamlyme/application_me.h</text>
</a>
</g>
</g>
<!-- Node2 -->
<g id="node2" class="node">
<title>Node2</title>
<g id="a_node2"><a xlink:href="../../d8/dd0/application__me_8cpp.html" target="_top" xlink:title=" ">
<polygon fill="white" stroke="black" points="0,-0.5 0,-30.5 164,-30.5 164,-0.5 0,-0.5"/>
<text text-anchor="start" x="8" y="-18.5" font-family="Helvetica,sans-Serif" font-size="10.00">src/app/seamlyme/application</text>
<text text-anchor="middle" x="82" y="-7.5" font-family="Helvetica,sans-Serif" font-size="10.00">_me.cpp</text>
</a>
</g>
</g>
<!-- Node1&#45;&gt;Node2 -->
<g id="edge1" class="edge">
<title>Node1&#45;&gt;Node2</title>
<path fill="none" stroke="midnightblue" d="M1017.7,-74.8C841.11,-71.95 478.36,-62.45 173,-31 170.14,-30.71 167.22,-30.38 164.29,-30.03"/>
<polygon fill="midnightblue" stroke="midnightblue" points="1017.72,-78.3 1027.77,-74.95 1017.83,-71.3 1017.72,-78.3"/>
</g>
<!-- Node3 -->
<g id="node3" class="node">
<title>Node3</title>
<g id="a_node3"><a xlink:href="../../d9/d23/seamlymepreferencesconfigurationpage_8cpp.html" target="_top" xlink:title=" ">
<polygon fill="white" stroke="black" points="182.5,-0.5 182.5,-30.5 481.5,-30.5 481.5,-0.5 182.5,-0.5"/>
<text text-anchor="start" x="190.5" y="-18.5" font-family="Helvetica,sans-Serif" font-size="10.00">src/app/seamlyme/dialogs</text>
<text text-anchor="middle" x="332" y="-7.5" font-family="Helvetica,sans-Serif" font-size="10.00">/configpages/seamlymepreferencesconfigurationpage.cpp</text>
</a>
</g>
</g>
<!-- Node1&#45;&gt;Node3 -->
<g id="edge2" class="edge">
<title>Node1&#45;&gt;Node3</title>
<path fill="none" stroke="midnightblue" d="M1017.8,-69.08C891.52,-60.78 675.41,-46.08 490,-31 487.25,-30.78 484.48,-30.55 481.69,-30.32"/>
<polygon fill="midnightblue" stroke="midnightblue" points="1017.65,-72.58 1027.86,-69.75 1018.11,-65.6 1017.65,-72.58"/>
</g>
<!-- Node4 -->
<g id="node4" class="node">
<title>Node4</title>
<g id="a_node4"><a xlink:href="../../d8/dcc/seamlymepreferencespathpage_8cpp.html" target="_top" xlink:title=" ">
<polygon fill="white" stroke="black" points="499.5,-0.5 499.5,-30.5 756.5,-30.5 756.5,-0.5 499.5,-0.5"/>
<text text-anchor="start" x="507.5" y="-18.5" font-family="Helvetica,sans-Serif" font-size="10.00">src/app/seamlyme/dialogs</text>
<text text-anchor="middle" x="628" y="-7.5" font-family="Helvetica,sans-Serif" font-size="10.00">/configpages/seamlymepreferencespathpage.cpp</text>
</a>
</g>
</g>
<!-- Node1&#45;&gt;Node4 -->
<g id="edge3" class="edge">
<title>Node1&#45;&gt;Node4</title>
<path fill="none" stroke="midnightblue" d="M1043.63,-66.26C962.47,-56.54 837,-41.52 745.13,-30.52"/>
<polygon fill="midnightblue" stroke="midnightblue" points="1043.45,-69.76 1053.79,-67.48 1044.28,-62.81 1043.45,-69.76"/>
</g>
<!-- Node5 -->
<g id="node5" class="node">
<title>Node5</title>
<g id="a_node5"><a xlink:href="../../dd/db1/dialogseamlymepreferences_8cpp.html" target="_top" xlink:title=" ">
<polygon fill="white" stroke="black" points="774.5,-0.5 774.5,-30.5 953.5,-30.5 953.5,-0.5 774.5,-0.5"/>
<text text-anchor="start" x="782.5" y="-18.5" font-family="Helvetica,sans-Serif" font-size="10.00">src/app/seamlyme/dialogs</text>
<text text-anchor="middle" x="864" y="-7.5" font-family="Helvetica,sans-Serif" font-size="10.00">/dialogseamlymepreferences.cpp</text>
</a>
</g>
</g>
<!-- Node1&#45;&gt;Node5 -->
<g id="edge4" class="edge">
<title>Node1&#45;&gt;Node5</title>
<path fill="none" stroke="midnightblue" d="M1077.76,-65.23C1035.11,-55.51 972.08,-41.14 925.51,-30.52"/>
<polygon fill="midnightblue" stroke="midnightblue" points="1077.08,-68.66 1087.61,-67.48 1078.63,-61.84 1077.08,-68.66"/>
</g>
<!-- Node6 -->
<g id="node6" class="node">
<title>Node6</title>
<g id="a_node6"><a xlink:href="../../d1/d42/dialogmdatabase_8cpp.html" target="_top" xlink:title=" ">
<polygon fill="white" stroke="black" points="971.5,-0.5 971.5,-30.5 1116.5,-30.5 1116.5,-0.5 971.5,-0.5"/>
<text text-anchor="start" x="979.5" y="-18.5" font-family="Helvetica,sans-Serif" font-size="10.00">src/app/seamlyme/dialogs</text>
<text text-anchor="middle" x="1044" y="-7.5" font-family="Helvetica,sans-Serif" font-size="10.00">/dialogmdatabase.cpp</text>
</a>
</g>
</g>
<!-- Node1&#45;&gt;Node6 -->
<g id="edge5" class="edge">
<title>Node1&#45;&gt;Node6</title>
<path fill="none" stroke="midnightblue" d="M1105.22,-61.47C1092.39,-52.05 1075.77,-39.84 1063.09,-30.52"/>
<polygon fill="midnightblue" stroke="midnightblue" points="1103.26,-64.38 1113.39,-67.48 1107.41,-58.73 1103.26,-64.38"/>
</g>
<!-- Node7 -->
<g id="node7" class="node">
<title>Node7</title>
<g id="a_node7"><a xlink:href="../../d6/d8e/me__shortcuts__dialog_8cpp.html" target="_top" xlink:title=" ">
<polygon fill="white" stroke="black" points="1134.5,-0.5 1134.5,-30.5 1279.5,-30.5 1279.5,-0.5 1134.5,-0.5"/>
<text text-anchor="start" x="1142.5" y="-18.5" font-family="Helvetica,sans-Serif" font-size="10.00">src/app/seamlyme/dialogs</text>
<text text-anchor="middle" x="1207" y="-7.5" font-family="Helvetica,sans-Serif" font-size="10.00">/me_shortcuts_dialog.cpp</text>
</a>
</g>
</g>
<!-- Node1&#45;&gt;Node7 -->
<g id="edge6" class="edge">
<title>Node1&#45;&gt;Node7</title>
<path fill="none" stroke="midnightblue" d="M1145.03,-61.47C1158.01,-52.05 1174.83,-39.84 1187.67,-30.52"/>
<polygon fill="midnightblue" stroke="midnightblue" points="1142.79,-58.77 1136.75,-67.48 1146.9,-64.43 1142.79,-58.77"/>
</g>
<!-- Node8 -->
<g id="node8" class="node">
<title>Node8</title>
<g id="a_node8"><a xlink:href="../../dc/d74/me__welcome__dialog_8cpp.html" target="_top" xlink:title=" ">
<polygon fill="white" stroke="black" points="1297.5,-0.5 1297.5,-30.5 1442.5,-30.5 1442.5,-0.5 1297.5,-0.5"/>
<text text-anchor="start" x="1305.5" y="-18.5" font-family="Helvetica,sans-Serif" font-size="10.00">src/app/seamlyme/dialogs</text>
<text text-anchor="middle" x="1370" y="-7.5" font-family="Helvetica,sans-Serif" font-size="10.00">/me_welcome_dialog.cpp</text>
</a>
</g>
</g>
<!-- Node1&#45;&gt;Node8 -->
<g id="edge7" class="edge">
<title>Node1&#45;&gt;Node8</title>
<path fill="none" stroke="midnightblue" d="M1169.85,-65.11C1209.88,-55.39 1268.73,-41.1 1312.26,-30.52"/>
<polygon fill="midnightblue" stroke="midnightblue" points="1168.99,-61.71 1160.1,-67.48 1170.65,-68.52 1168.99,-61.71"/>
</g>
<!-- Node9 -->
<g id="node9" class="node">
<title>Node9</title>
<g id="a_node9"><a xlink:href="../../d7/d31/new__measurements__dialog_8cpp.html" target="_top" xlink:title=" ">
<polygon fill="white" stroke="black" points="1461,-0.5 1461,-30.5 1635,-30.5 1635,-0.5 1461,-0.5"/>
<text text-anchor="start" x="1469" y="-18.5" font-family="Helvetica,sans-Serif" font-size="10.00">src/app/seamlyme/dialogs</text>
<text text-anchor="middle" x="1548" y="-7.5" font-family="Helvetica,sans-Serif" font-size="10.00">/new_measurements_dialog.cpp</text>
</a>
</g>
</g>
<!-- Node1&#45;&gt;Node9 -->
<g id="edge8" class="edge">
<title>Node1&#45;&gt;Node9</title>
<path fill="none" stroke="midnightblue" d="M1198.58,-66.16C1264.88,-57.22 1365.01,-43.55 1452,-31 1454.92,-30.58 1457.89,-30.15 1460.89,-29.71"/>
<polygon fill="midnightblue" stroke="midnightblue" points="1198.08,-62.69 1188.64,-67.49 1199.02,-69.63 1198.08,-62.69"/>
</g>
<!-- Node10 -->
<g id="node10" class="node">
<title>Node10</title>
<g id="a_node10"><a xlink:href="../../db/de0/app_2seamlyme_2main_8cpp.html" target="_top" xlink:title=" ">
<polygon fill="white" stroke="black" points="1653.5,-6 1653.5,-25 1808.5,-25 1808.5,-6 1653.5,-6"/>
<text text-anchor="middle" x="1731" y="-13" font-family="Helvetica,sans-Serif" font-size="10.00">src/app/seamlyme/main.cpp</text>
</a>
</g>
</g>
<!-- Node1&#45;&gt;Node10 -->
<g id="edge9" class="edge">
<title>Node1&#45;&gt;Node10</title>
<path fill="none" stroke="midnightblue" d="M1232.32,-69.17C1337.45,-61.89 1502.1,-48.95 1644,-31 1657.06,-29.35 1671.17,-27.17 1684.14,-25"/>
<polygon fill="midnightblue" stroke="midnightblue" points="1232.07,-65.68 1222.33,-69.86 1232.55,-72.66 1232.07,-65.68"/>
</g>
<!-- Node11 -->
<g id="node11" class="node">
<title>Node11</title>
<g id="a_node11"><a xlink:href="../../dc/de1/tmainwindow_8cpp.html" target="_top" xlink:title=" ">
<polygon fill="white" stroke="black" points="1826.5,-6 1826.5,-25 2021.5,-25 2021.5,-6 1826.5,-6"/>
<text text-anchor="middle" x="1924" y="-13" font-family="Helvetica,sans-Serif" font-size="10.00">src/app/seamlyme/tmainwindow.cpp</text>
</a>
</g>
</g>
<!-- Node1&#45;&gt;Node11 -->
<g id="edge10" class="edge">
<title>Node1&#45;&gt;Node11</title>
<path fill="none" stroke="midnightblue" d="M1232.2,-71.41C1368.54,-65.02 1611.15,-51.84 1818,-31 1833.99,-29.39 1851.27,-27.21 1867.15,-25.03"/>
<polygon fill="midnightblue" stroke="midnightblue" points="1231.99,-67.91 1222.16,-71.87 1232.31,-74.9 1231.99,-67.91"/>
</g>
</g>
</svg>
        <g id="navigator" transform="translate(0 0)" fill="#404254">
                <rect fill="#f2f5e9" fill-opacity="0.5" stroke="#606060" stroke-width=".5" x="0" y="0" width="60" height="60"/>
                <use id="zoomplus" xlink:href="#zoomPlus" x="17" y="9" onmousedown="handleZoom(evt,'in')"/>
                <use id="zoomminus" xlink:href="#zoomMin" x="42" y="9" onmousedown="handleZoom(evt,'out')"/>
                <use id="reset" xlink:href="#resetDef" x="30" y="36" onmousedown="handleReset()"/>
                <g id="arrowUp" xlink:href="#dirArrow" transform="translate(30 24)" onmousedown="handlePan(0,-1)">
                  <use xlink:href="#rim" fill="#404040">
                        <set attributeName="fill" to="#808080" begin="arrowUp.mouseover" end="arrowUp.mouseout"/>
                  </use>
                  <path fill="none" stroke="white" stroke-width="1.5" d="M0,-3.0v7 M-2.5,-0.5L0,-3.0L2.5,-0.5"/>
                </g>
                <g id="arrowRight" xlink:href="#dirArrow" transform="rotate(90) translate(36 -43)" onmousedown="handlePan(1,0)">
                  <use xlink:href="#rim" fill="#404040">
                        <set attributeName="fill" to="#808080" begin="arrowRight.mouseover" end="arrowRight.mouseout"/>
                  </use>
                  <path fill="none" stroke="white" stroke-width="1.5" d="M0,-3.0v7 M-2.5,-0.5L0,-3.0L2.5,-0.5"/>
                </g>
                <g id="arrowDown" xlink:href="#dirArrow" transform="rotate(180) translate(-30 -48)" onmousedown="handlePan(0,1)">
                  <use xlink:href="#rim" fill="#404040">
                        <set attributeName="fill" to="#808080" begin="arrowDown.mouseover" end="arrowDown.mouseout"/>
                  </use>
                  <path fill="none" stroke="white" stroke-width="1.5" d="M0,-3.0v7 M-2.5,-0.5L0,-3.0L2.5,-0.5"/>
                </g>
                <g id="arrowLeft" xlink:href="#dirArrow" transform="rotate(270) translate(-36 17)" onmousedown="handlePan(-1,0)">
                  <use xlink:href="#rim" fill="#404040">
                        <set attributeName="fill" to="#808080" begin="arrowLeft.mouseover" end="arrowLeft.mouseout"/>
                  </use>
                  <path fill="none" stroke="white" stroke-width="1.5" d="M0,-3.0v7 M-2.5,-0.5L0,-3.0L2.5,-0.5"/>
                </g>
        </g>
        <svg viewBox="0 0 15 15" width="100%" height="30px" preserveAspectRatio="xMaxYMin meet">
         <g id="arrow_out" transform="scale(0.3 0.3)">
          <a xlink:href="application__me_8h__dep__incl_org.svg" target="_base">
           <rect id="button" ry="5" rx="5" y="6" x="6" height="38" width="38"
                fill="#f2f5e9" fill-opacity="0.5" stroke="#606060" stroke-width="1.0"/>
           <path id="arrow"
             d="M 11.500037,31.436501 C 11.940474,20.09759 22.043105,11.32322 32.158766,21.979434 L 37.068811,17.246167 C 37.068811,17.246167 37.088388,32 37.088388,32 L 22.160133,31.978069 C 22.160133,31.978069 26.997745,27.140456 26.997745,27.140456 C 18.528582,18.264221 13.291696,25.230495 11.500037,31.436501 z"
             style="fill:#404040;"/>
          </a>
         </g>
        </svg>
</svg>
