<?xml version="1.0" encoding="UTF-8" standalone="no"?>
<!DOCTYPE svg PUBLIC "-//W3C//DTD SVG 1.1//EN"
 "http://www.w3.org/Graphics/SVG/1.1/DTD/svg11.dtd">
<!-- Generated by graphviz version 2.43.0 (0)
 -->
<!-- Title: src/libs/vpatterndb/variables/measurement_variable.h Pages: 1 -->
<svg width="6026pt" height="407pt"
 viewBox="0.00 0.00 6026.00 407.00" xmlns="http://www.w3.org/2000/svg" xmlns:xlink="http://www.w3.org/1999/xlink">
<g id="graph0" class="graph" transform="scale(1 1) rotate(0) translate(4 403)">
<title>src/libs/vpatterndb/variables/measurement_variable.h</title>
<polygon fill="white" stroke="transparent" points="-4,4 -4,-403 6022,-403 6022,4 -4,4"/>
<!-- Node1 -->
<g id="node1" class="node">
<title>Node1</title>
<g id="a_node1"><a xlink:title=" ">
<polygon fill="#bfbfbf" stroke="black" points="5507,-357.5 5507,-398.5 5643,-398.5 5643,-357.5 5507,-357.5"/>
<text text-anchor="start" x="5515" y="-386.5" font-family="Helvetica,sans-Serif" font-size="10.00">src/libs/vpatterndb</text>
<text text-anchor="start" x="5515" y="-375.5" font-family="Helvetica,sans-Serif" font-size="10.00">/variables/measurement</text>
<text text-anchor="middle" x="5575" y="-364.5" font-family="Helvetica,sans-Serif" font-size="10.00">_variable.h</text>
</a>
</g>
</g>
<!-- Node2 -->
<g id="node2" class="node">
<title>Node2</title>
<g id="a_node2"><a xlink:href="../../d9/de3/measurements_8cpp.html" target="_top" xlink:title=" ">
<polygon fill="white" stroke="black" points="5593,-78.5 5593,-97.5 5783,-97.5 5783,-78.5 5593,-78.5"/>
<text text-anchor="middle" x="5688" y="-85.5" font-family="Helvetica,sans-Serif" font-size="10.00">src/libs/vformat/measurements.cpp</text>
</a>
</g>
</g>
<!-- Node1&#45;&gt;Node2 -->
<g id="edge1" class="edge">
<title>Node1&#45;&gt;Node2</title>
<path fill="none" stroke="midnightblue" d="M5620.25,-352.36C5671.71,-321.46 5752.99,-263.15 5787,-187 5794.61,-169.96 5796.4,-161.12 5787,-145 5772.57,-120.27 5742.73,-105.59 5719.56,-97.5"/>
<polygon fill="midnightblue" stroke="midnightblue" points="5618.47,-349.35 5611.63,-357.45 5622.02,-355.38 5618.47,-349.35"/>
</g>
<!-- Node3 -->
<g id="node3" class="node">
<title>Node3</title>
<g id="a_node3"><a xlink:href="../../d4/da4/measurement__variable_8cpp.html" target="_top" xlink:title=" ">
<polygon fill="white" stroke="black" points="5882,-67.5 5882,-108.5 6018,-108.5 6018,-67.5 5882,-67.5"/>
<text text-anchor="start" x="5890" y="-96.5" font-family="Helvetica,sans-Serif" font-size="10.00">src/libs/vpatterndb</text>
<text text-anchor="start" x="5890" y="-85.5" font-family="Helvetica,sans-Serif" font-size="10.00">/variables/measurement</text>
<text text-anchor="middle" x="5950" y="-74.5" font-family="Helvetica,sans-Serif" font-size="10.00">_variable.cpp</text>
</a>
</g>
</g>
<!-- Node1&#45;&gt;Node3 -->
<g id="edge2" class="edge">
<title>Node1&#45;&gt;Node3</title>
<path fill="none" stroke="midnightblue" d="M5652.95,-365.71C5748.87,-347.17 5907.75,-300.26 5979,-187 5994.4,-162.52 5978.43,-129.48 5964.8,-108.71"/>
<polygon fill="midnightblue" stroke="midnightblue" points="5652.19,-362.29 5643.01,-367.57 5653.48,-369.17 5652.19,-362.29"/>
</g>
<!-- Node4 -->
<g id="node4" class="node">
<title>Node4</title>
<g id="a_node4"><a xlink:href="../../d6/d46/vcontainer_8cpp.html" target="_top" xlink:title=" ">
<polygon fill="white" stroke="black" points="1319.5,-73 1319.5,-103 1426.5,-103 1426.5,-73 1319.5,-73"/>
<text text-anchor="start" x="1327.5" y="-91" font-family="Helvetica,sans-Serif" font-size="10.00">src/libs/vpatterndb</text>
<text text-anchor="middle" x="1373" y="-80" font-family="Helvetica,sans-Serif" font-size="10.00">/vcontainer.cpp</text>
</a>
</g>
</g>
<!-- Node1&#45;&gt;Node4 -->
<g id="edge3" class="edge">
<title>Node1&#45;&gt;Node4</title>
<path fill="none" stroke="midnightblue" d="M5496.74,-375.27C4970.72,-363.36 1959.25,-291.02 1566,-187 1498.61,-169.17 1427.55,-125.73 1393.52,-103.15"/>
<polygon fill="midnightblue" stroke="midnightblue" points="5496.8,-378.77 5506.88,-375.5 5496.96,-371.77 5496.8,-378.77"/>
</g>
<!-- Node5 -->
<g id="node5" class="node">
<title>Node5</title>
<g id="a_node5"><a xlink:href="../../de/dca/variables_8h.html" target="_top" xlink:title=" ">
<polygon fill="white" stroke="black" points="5059.5,-290.5 5059.5,-320.5 5166.5,-320.5 5166.5,-290.5 5059.5,-290.5"/>
<text text-anchor="start" x="5067.5" y="-308.5" font-family="Helvetica,sans-Serif" font-size="10.00">src/libs/vpatterndb</text>
<text text-anchor="middle" x="5113" y="-297.5" font-family="Helvetica,sans-Serif" font-size="10.00">/variables.h</text>
</a>
</g>
</g>
<!-- Node1&#45;&gt;Node5 -->
<g id="edge4" class="edge">
<title>Node1&#45;&gt;Node5</title>
<path fill="none" stroke="midnightblue" d="M5496.82,-365.07C5402.95,-350.75 5248.01,-327.1 5166.67,-314.69"/>
<polygon fill="midnightblue" stroke="midnightblue" points="5496.42,-368.55 5506.83,-366.6 5497.47,-361.63 5496.42,-368.55"/>
</g>
<!-- Node6 -->
<g id="node6" class="node">
<title>Node6</title>
<g id="a_node6"><a xlink:href="../../d3/df7/vcontainer_8h.html" target="_top" xlink:title=" ">
<polygon fill="white" stroke="black" points="4828.5,-223.5 4828.5,-253.5 4935.5,-253.5 4935.5,-223.5 4828.5,-223.5"/>
<text text-anchor="start" x="4836.5" y="-241.5" font-family="Helvetica,sans-Serif" font-size="10.00">src/libs/vpatterndb</text>
<text text-anchor="middle" x="4882" y="-230.5" font-family="Helvetica,sans-Serif" font-size="10.00">/vcontainer.h</text>
</a>
</g>
</g>
<!-- Node5&#45;&gt;Node6 -->
<g id="edge5" class="edge">
<title>Node5&#45;&gt;Node6</title>
<path fill="none" stroke="midnightblue" d="M5053.35,-287.71C5015.76,-277.14 4967.77,-263.63 4932.15,-253.61"/>
<polygon fill="midnightblue" stroke="midnightblue" points="5052.59,-291.14 5063.16,-290.48 5054.48,-284.4 5052.59,-291.14"/>
</g>
<!-- Node6&#45;&gt;Node2 -->
<g id="edge9" class="edge">
<title>Node6&#45;&gt;Node2</title>
<path fill="none" stroke="midnightblue" d="M4945.98,-235.32C5102.79,-229.61 5497.37,-212.83 5551,-187 5573.95,-175.95 5570.05,-160.83 5590,-145 5615.33,-124.9 5648.72,-107.45 5669.26,-97.58"/>
<polygon fill="midnightblue" stroke="midnightblue" points="4945.42,-231.84 4935.56,-235.7 4945.68,-238.84 4945.42,-231.84"/>
</g>
<!-- Node6&#45;&gt;Node4 -->
<g id="edge56" class="edge">
<title>Node6&#45;&gt;Node4</title>
<path fill="none" stroke="midnightblue" d="M4818.12,-237.22C4403.49,-235.33 2101.26,-223.25 1791,-187 1630.55,-168.25 1592.04,-150.82 1436,-109 1429.35,-107.22 1422.36,-105.17 1415.54,-103.08"/>
<polygon fill="midnightblue" stroke="midnightblue" points="4818.4,-240.73 4828.42,-237.27 4818.43,-233.73 4818.4,-240.73"/>
</g>
<!-- Node7 -->
<g id="node7" class="node">
<title>Node7</title>
<g id="a_node7"><a xlink:href="../../d2/d47/image__dialog_8cpp.html" target="_top" xlink:title=" ">
<polygon fill="white" stroke="black" points="1445,-73 1445,-103 1557,-103 1557,-73 1445,-73"/>
<text text-anchor="start" x="1453" y="-91" font-family="Helvetica,sans-Serif" font-size="10.00">src/libs/tools/image</text>
<text text-anchor="middle" x="1501" y="-80" font-family="Helvetica,sans-Serif" font-size="10.00">_dialog.cpp</text>
</a>
</g>
</g>
<!-- Node6&#45;&gt;Node7 -->
<g id="edge6" class="edge">
<title>Node6&#45;&gt;Node7</title>
<path fill="none" stroke="midnightblue" d="M4818.3,-237.44C4546.27,-236.88 3455.1,-231.82 2560,-187 2117.42,-164.84 2001.29,-192 1566,-109 1558.11,-107.5 1549.83,-105.38 1541.92,-103.08"/>
<polygon fill="midnightblue" stroke="midnightblue" points="4818.38,-240.94 4828.38,-237.45 4818.39,-233.94 4818.38,-240.94"/>
</g>
<!-- Node8 -->
<g id="node8" class="node">
<title>Node8</title>
<g id="a_node8"><a xlink:href="../../dc/db7/measurements_8h.html" target="_top" xlink:title=" ">
<polygon fill="white" stroke="black" points="5598.5,-156.5 5598.5,-175.5 5777.5,-175.5 5777.5,-156.5 5598.5,-156.5"/>
<text text-anchor="middle" x="5688" y="-163.5" font-family="Helvetica,sans-Serif" font-size="10.00">src/libs/vformat/measurements.h</text>
</a>
</g>
</g>
<!-- Node6&#45;&gt;Node8 -->
<g id="edge7" class="edge">
<title>Node6&#45;&gt;Node8</title>
<path fill="none" stroke="midnightblue" d="M4946,-235.43C5069.71,-230.86 5350.1,-217.79 5584,-187 5605.69,-184.14 5629.69,-179.62 5649.16,-175.6"/>
<polygon fill="midnightblue" stroke="midnightblue" points="4945.81,-231.93 4935.94,-235.79 4946.06,-238.93 4945.81,-231.93"/>
</g>
<!-- Node9 -->
<g id="node9" class="node">
<title>Node9</title>
<g id="a_node9"><a xlink:href="../../d6/de0/vlayoutpiece_8h.html" target="_top" xlink:title=" ">
<polygon fill="white" stroke="black" points="601,-156.5 601,-175.5 767,-175.5 767,-156.5 601,-156.5"/>
<text text-anchor="middle" x="684" y="-163.5" font-family="Helvetica,sans-Serif" font-size="10.00">src/libs/vlayout/vlayoutpiece.h</text>
</a>
</g>
</g>
<!-- Node6&#45;&gt;Node9 -->
<g id="edge10" class="edge">
<title>Node6&#45;&gt;Node9</title>
<path fill="none" stroke="midnightblue" d="M4817.96,-236.65C4483.87,-232.2 2907.01,-210.8 1617,-187 1303.35,-181.21 930.42,-172.74 767.31,-168.95"/>
<polygon fill="midnightblue" stroke="midnightblue" points="4818.36,-240.16 4828.4,-236.79 4818.45,-233.16 4818.36,-240.16"/>
</g>
<!-- Node19 -->
<g id="node18" class="node">
<title>Node19</title>
<g id="a_node18"><a xlink:href="../../d8/d70/vtextmanager_8cpp.html" target="_top" xlink:title=" ">
<polygon fill="white" stroke="black" points="1575,-78.5 1575,-97.5 1757,-97.5 1757,-78.5 1575,-78.5"/>
<text text-anchor="middle" x="1666" y="-85.5" font-family="Helvetica,sans-Serif" font-size="10.00">src/libs/vlayout/vtextmanager.cpp</text>
</a>
</g>
</g>
<!-- Node6&#45;&gt;Node19 -->
<g id="edge21" class="edge">
<title>Node6&#45;&gt;Node19</title>
<path fill="none" stroke="midnightblue" d="M4818.14,-236.17C4600.25,-231.5 3866.08,-214.61 3260,-187 2948.65,-172.82 2871.24,-161.39 2560,-145 2207.24,-126.42 2116.65,-151.76 1766,-109 1744.56,-106.39 1720.84,-101.72 1701.89,-97.55"/>
<polygon fill="midnightblue" stroke="midnightblue" points="4818.35,-239.68 4828.42,-236.39 4818.5,-232.68 4818.35,-239.68"/>
</g>
<!-- Node20 -->
<g id="node19" class="node">
<title>Node20</title>
<g id="a_node19"><a xlink:href="../../d5/d74/vabstractapplication_8h.html" target="_top" xlink:title=" ">
<polygon fill="white" stroke="red" points="3269.5,-156.5 3269.5,-175.5 3464.5,-175.5 3464.5,-156.5 3269.5,-156.5"/>
<text text-anchor="middle" x="3367" y="-163.5" font-family="Helvetica,sans-Serif" font-size="10.00">src/libs/vmisc/vabstractapplication.h</text>
</a>
</g>
</g>
<!-- Node6&#45;&gt;Node20 -->
<g id="edge22" class="edge">
<title>Node6&#45;&gt;Node20</title>
<path fill="none" stroke="midnightblue" d="M4817.89,-234.52C4580.51,-223.47 3750.55,-184.85 3464.66,-171.54"/>
<polygon fill="midnightblue" stroke="midnightblue" points="4817.93,-238.02 4828.08,-234.99 4818.25,-231.03 4817.93,-238.02"/>
</g>
<!-- Node48 -->
<g id="node34" class="node">
<title>Node48</title>
<g id="a_node34"><a xlink:href="../../db/d11/vformula_8cpp.html" target="_top" xlink:title=" ">
<polygon fill="white" stroke="black" points="4972.5,-73 4972.5,-103 5079.5,-103 5079.5,-73 4972.5,-73"/>
<text text-anchor="start" x="4980.5" y="-91" font-family="Helvetica,sans-Serif" font-size="10.00">src/libs/vpatterndb</text>
<text text-anchor="middle" x="5026" y="-80" font-family="Helvetica,sans-Serif" font-size="10.00">/vformula.cpp</text>
</a>
</g>
</g>
<!-- Node6&#45;&gt;Node48 -->
<g id="edge57" class="edge">
<title>Node6&#45;&gt;Node48</title>
<path fill="none" stroke="midnightblue" d="M4818.02,-235.4C4782.45,-230.54 4740.87,-217.97 4718,-187 4706.91,-171.98 4705.8,-159.13 4718,-145 4753.97,-103.36 4909.38,-121.37 4963,-109 4970.16,-107.35 4977.67,-105.27 4984.92,-103.09"/>
<polygon fill="midnightblue" stroke="midnightblue" points="4818.01,-238.92 4828.35,-236.62 4818.83,-231.97 4818.01,-238.92"/>
</g>
<!-- Node49 -->
<g id="node35" class="node">
<title>Node49</title>
<g id="a_node35"><a xlink:href="../../df/d7a/vpiece_8cpp.html" target="_top" xlink:title=" ">
<polygon fill="white" stroke="black" points="5097.5,-73 5097.5,-103 5204.5,-103 5204.5,-73 5097.5,-73"/>
<text text-anchor="start" x="5105.5" y="-91" font-family="Helvetica,sans-Serif" font-size="10.00">src/libs/vpatterndb</text>
<text text-anchor="middle" x="5151" y="-80" font-family="Helvetica,sans-Serif" font-size="10.00">/vpiece.cpp</text>
</a>
</g>
</g>
<!-- Node6&#45;&gt;Node49 -->
<g id="edge59" class="edge">
<title>Node6&#45;&gt;Node49</title>
<path fill="none" stroke="midnightblue" d="M4818.72,-227.54C4794.96,-220.39 4770.28,-208.1 4756,-187 4745.54,-171.54 4743.53,-158.89 4756,-145 4805.72,-89.61 5016.2,-124.51 5089,-109 5096.41,-107.42 5104.19,-105.3 5111.64,-103.03"/>
<polygon fill="midnightblue" stroke="midnightblue" points="4817.89,-230.94 4828.46,-230.21 4819.75,-224.19 4817.89,-230.94"/>
</g>
<!-- Node51 -->
<g id="node37" class="node">
<title>Node51</title>
<g id="a_node37"><a xlink:href="../../d8/dba/vpiecenode_8cpp.html" target="_top" xlink:title=" ">
<polygon fill="white" stroke="black" points="3270.5,-0.5 3270.5,-30.5 3377.5,-30.5 3377.5,-0.5 3270.5,-0.5"/>
<text text-anchor="start" x="3278.5" y="-18.5" font-family="Helvetica,sans-Serif" font-size="10.00">src/libs/vpatterndb</text>
<text text-anchor="middle" x="3324" y="-7.5" font-family="Helvetica,sans-Serif" font-size="10.00">/vpiecenode.cpp</text>
</a>
</g>
</g>
<!-- Node6&#45;&gt;Node51 -->
<g id="edge60" class="edge">
<title>Node6&#45;&gt;Node51</title>
<path fill="none" stroke="midnightblue" d="M4824.79,-219.03C4810.28,-211.47 4796.42,-201.09 4788,-187 4778.42,-170.98 4775.37,-158.74 4788,-145 4852.29,-75.05 5149.71,-178.95 5214,-109 5226.63,-95.26 5227.02,-80.37 5214,-67 5181.08,-33.19 3681.72,-19.37 3377.51,-16.91"/>
<polygon fill="midnightblue" stroke="midnightblue" points="4823.34,-222.22 4833.88,-223.38 4826.37,-215.91 4823.34,-222.22"/>
</g>
<!-- Node65 -->
<g id="node45" class="node">
<title>Node65</title>
<g id="a_node45"><a xlink:href="../../d3/d02/custom__variable__p_8h.html" target="_top" xlink:title=" ">
<polygon fill="white" stroke="red" points="4797.5,-151 4797.5,-181 4966.5,-181 4966.5,-151 4797.5,-151"/>
<text text-anchor="start" x="4805.5" y="-169" font-family="Helvetica,sans-Serif" font-size="10.00">src/libs/vpatterndb</text>
<text text-anchor="middle" x="4882" y="-158" font-family="Helvetica,sans-Serif" font-size="10.00">/variables/custom_variable_p.h</text>
</a>
</g>
</g>
<!-- Node6&#45;&gt;Node65 -->
<g id="edge53" class="edge">
<title>Node6&#45;&gt;Node65</title>
<path fill="none" stroke="midnightblue" d="M4882,-213.23C4882,-202.57 4882,-190.41 4882,-181.25"/>
<polygon fill="midnightblue" stroke="midnightblue" points="4878.5,-213.23 4882,-223.23 4885.5,-213.23 4878.5,-213.23"/>
</g>
<!-- Node67 -->
<g id="node46" class="node">
<title>Node67</title>
<g id="a_node46"><a xlink:href="../../d7/d8a/measurement__variable__p_8h.html" target="_top" xlink:title=" ">
<polygon fill="white" stroke="black" points="5834,-145.5 5834,-186.5 5970,-186.5 5970,-145.5 5834,-145.5"/>
<text text-anchor="start" x="5842" y="-174.5" font-family="Helvetica,sans-Serif" font-size="10.00">src/libs/vpatterndb</text>
<text text-anchor="start" x="5842" y="-163.5" font-family="Helvetica,sans-Serif" font-size="10.00">/variables/measurement</text>
<text text-anchor="middle" x="5902" y="-152.5" font-family="Helvetica,sans-Serif" font-size="10.00">_variable_p.h</text>
</a>
</g>
</g>
<!-- Node6&#45;&gt;Node67 -->
<g id="edge54" class="edge">
<title>Node6&#45;&gt;Node67</title>
<path fill="none" stroke="midnightblue" d="M4946.01,-236.49C5094.34,-233.58 5472.87,-222.96 5787,-187 5802.2,-185.26 5818.44,-182.81 5833.78,-180.21"/>
<polygon fill="midnightblue" stroke="midnightblue" points="4945.67,-232.99 4935.74,-236.68 4945.8,-239.99 4945.67,-232.99"/>
</g>
<!-- Node68 -->
<g id="node47" class="node">
<title>Node68</title>
<g id="a_node47"><a xlink:href="../../d6/d91/vnodedetail_8cpp.html" target="_top" xlink:title=" ">
<polygon fill="white" stroke="black" points="4984.5,-151 4984.5,-181 5091.5,-181 5091.5,-151 4984.5,-151"/>
<text text-anchor="start" x="4992.5" y="-169" font-family="Helvetica,sans-Serif" font-size="10.00">src/libs/vpatterndb</text>
<text text-anchor="middle" x="5038" y="-158" font-family="Helvetica,sans-Serif" font-size="10.00">/vnodedetail.cpp</text>
</a>
</g>
</g>
<!-- Node6&#45;&gt;Node68 -->
<g id="edge58" class="edge">
<title>Node6&#45;&gt;Node68</title>
<path fill="none" stroke="midnightblue" d="M4922.52,-219.19C4948.85,-207.29 4982.64,-192.02 5006.86,-181.07"/>
<polygon fill="midnightblue" stroke="midnightblue" points="4920.87,-216.1 4913.19,-223.4 4923.75,-222.47 4920.87,-216.1"/>
</g>
<!-- Node69 -->
<g id="node48" class="node">
<title>Node69</title>
<g id="a_node48"><a xlink:href="../../da/de1/vpiecepath_8cpp.html" target="_top" xlink:title=" ">
<polygon fill="white" stroke="black" points="5109.5,-151 5109.5,-181 5216.5,-181 5216.5,-151 5109.5,-151"/>
<text text-anchor="start" x="5117.5" y="-169" font-family="Helvetica,sans-Serif" font-size="10.00">src/libs/vpatterndb</text>
<text text-anchor="middle" x="5163" y="-158" font-family="Helvetica,sans-Serif" font-size="10.00">/vpiecepath.cpp</text>
</a>
</g>
</g>
<!-- Node6&#45;&gt;Node69 -->
<g id="edge61" class="edge">
<title>Node6&#45;&gt;Node69</title>
<path fill="none" stroke="midnightblue" d="M4945.83,-224.29C4989.71,-214.84 5049.18,-201.3 5101,-187 5107.54,-185.19 5114.42,-183.14 5121.12,-181.04"/>
<polygon fill="midnightblue" stroke="midnightblue" points="4944.92,-220.9 4935.87,-226.42 4946.38,-227.75 4944.92,-220.9"/>
</g>
<!-- Node70 -->
<g id="node49" class="node">
<title>Node70</title>
<g id="a_node49"><a xlink:href="../../d1/d3a/abstracttest_8cpp.html" target="_top" xlink:title=" ">
<polygon fill="white" stroke="black" points="5234.5,-156.5 5234.5,-175.5 5395.5,-175.5 5395.5,-156.5 5234.5,-156.5"/>
<text text-anchor="middle" x="5315" y="-163.5" font-family="Helvetica,sans-Serif" font-size="10.00">src/libs/vtest/abstracttest.cpp</text>
</a>
</g>
</g>
<!-- Node6&#45;&gt;Node70 -->
<g id="edge62" class="edge">
<title>Node6&#45;&gt;Node70</title>
<path fill="none" stroke="midnightblue" d="M4945.84,-229.59C5015.09,-220.67 5128.76,-205.04 5226,-187 5243.75,-183.71 5263.34,-179.38 5279.61,-175.59"/>
<polygon fill="midnightblue" stroke="midnightblue" points="4945.01,-226.17 4935.54,-230.91 4945.9,-233.11 4945.01,-226.17"/>
</g>
<!-- Node71 -->
<g id="node50" class="node">
<title>Node71</title>
<g id="a_node50"><a xlink:href="../../da/db4/piece__tablewidgetitem_8cpp.html" target="_top" xlink:title=" ">
<polygon fill="white" stroke="black" points="5414,-151 5414,-181 5542,-181 5542,-151 5414,-151"/>
<text text-anchor="start" x="5422" y="-169" font-family="Helvetica,sans-Serif" font-size="10.00">src/libs/vwidgets/piece</text>
<text text-anchor="middle" x="5478" y="-158" font-family="Helvetica,sans-Serif" font-size="10.00">_tablewidgetitem.cpp</text>
</a>
</g>
</g>
<!-- Node6&#45;&gt;Node71 -->
<g id="edge63" class="edge">
<title>Node6&#45;&gt;Node71</title>
<path fill="none" stroke="midnightblue" d="M4946.02,-234.85C5045.1,-229.96 5241.23,-217.11 5405,-187 5413.66,-185.41 5422.79,-183.28 5431.54,-181"/>
<polygon fill="midnightblue" stroke="midnightblue" points="4945.7,-231.36 4935.88,-235.34 4946.03,-238.35 4945.7,-231.36"/>
</g>
<!-- Node8&#45;&gt;Node2 -->
<g id="edge8" class="edge">
<title>Node8&#45;&gt;Node2</title>
<path fill="none" stroke="midnightblue" d="M5688,-146.22C5688,-130.7 5688,-109.36 5688,-97.62"/>
<polygon fill="midnightblue" stroke="midnightblue" points="5684.5,-146.28 5688,-156.28 5691.5,-146.28 5684.5,-146.28"/>
</g>
<!-- Node10 -->
<g id="node10" class="node">
<title>Node10</title>
<g id="a_node10"><a xlink:href="../../dd/d66/vdxfengine_8cpp.html" target="_top" xlink:title=" ">
<polygon fill="white" stroke="black" points="0,-78.5 0,-97.5 154,-97.5 154,-78.5 0,-78.5"/>
<text text-anchor="middle" x="77" y="-85.5" font-family="Helvetica,sans-Serif" font-size="10.00">src/libs/vdxf/vdxfengine.cpp</text>
</a>
</g>
</g>
<!-- Node9&#45;&gt;Node10 -->
<g id="edge11" class="edge">
<title>Node9&#45;&gt;Node10</title>
<path fill="none" stroke="midnightblue" d="M590.34,-158.38C485.68,-150.18 311.44,-134.14 163,-109 145.17,-105.98 125.5,-101.49 109.48,-97.54"/>
<polygon fill="midnightblue" stroke="midnightblue" points="590.32,-161.89 600.56,-159.17 590.86,-154.91 590.32,-161.89"/>
</g>
<!-- Node11 -->
<g id="node11" class="node">
<title>Node11</title>
<g id="a_node11"><a xlink:href="../../de/da8/vbank_8cpp.html" target="_top" xlink:title=" ">
<polygon fill="white" stroke="black" points="172,-78.5 172,-97.5 316,-97.5 316,-78.5 172,-78.5"/>
<text text-anchor="middle" x="244" y="-85.5" font-family="Helvetica,sans-Serif" font-size="10.00">src/libs/vlayout/vbank.cpp</text>
</a>
</g>
</g>
<!-- Node9&#45;&gt;Node11 -->
<g id="edge12" class="edge">
<title>Node9&#45;&gt;Node11</title>
<path fill="none" stroke="midnightblue" d="M608.17,-155.13C535.28,-145.18 422.16,-128.53 325,-109 308.67,-105.72 290.67,-101.35 275.79,-97.53"/>
<polygon fill="midnightblue" stroke="midnightblue" points="607.81,-158.61 618.19,-156.49 608.75,-151.68 607.81,-158.61"/>
</g>
<!-- Node12 -->
<g id="node12" class="node">
<title>Node12</title>
<g id="a_node12"><a xlink:href="../../df/d5d/vcontour_8cpp.html" target="_top" xlink:title=" ">
<polygon fill="white" stroke="black" points="334,-78.5 334,-97.5 490,-97.5 490,-78.5 334,-78.5"/>
<text text-anchor="middle" x="412" y="-85.5" font-family="Helvetica,sans-Serif" font-size="10.00">src/libs/vlayout/vcontour.cpp</text>
</a>
</g>
</g>
<!-- Node9&#45;&gt;Node12 -->
<g id="edge13" class="edge">
<title>Node9&#45;&gt;Node12</title>
<path fill="none" stroke="midnightblue" d="M643.59,-153.71C588.7,-138.37 491.8,-111.3 442.56,-97.54"/>
<polygon fill="midnightblue" stroke="midnightblue" points="642.75,-157.11 653.33,-156.43 644.64,-150.37 642.75,-157.11"/>
</g>
<!-- Node13 -->
<g id="node13" class="node">
<title>Node13</title>
<g id="a_node13"><a xlink:href="../../d1/dd1/vlayoutpaper_8cpp.html" target="_top" xlink:title=" ">
<polygon fill="white" stroke="black" points="595,-6 595,-25 773,-25 773,-6 595,-6"/>
<text text-anchor="middle" x="684" y="-13" font-family="Helvetica,sans-Serif" font-size="10.00">src/libs/vlayout/vlayoutpaper.cpp</text>
</a>
</g>
</g>
<!-- Node9&#45;&gt;Node13 -->
<g id="edge14" class="edge">
<title>Node9&#45;&gt;Node13</title>
<path fill="none" stroke="midnightblue" d="M684,-145.74C684,-113.16 684,-48.42 684,-25.11"/>
<polygon fill="midnightblue" stroke="midnightblue" points="680.5,-146.16 684,-156.16 687.5,-146.16 680.5,-146.16"/>
</g>
<!-- Node14 -->
<g id="node14" class="node">
<title>Node14</title>
<g id="a_node14"><a xlink:href="../../d3/d39/vlayoutgenerator_8cpp.html" target="_top" xlink:title=" ">
<polygon fill="white" stroke="black" points="909.5,-78.5 909.5,-97.5 1106.5,-97.5 1106.5,-78.5 909.5,-78.5"/>
<text text-anchor="middle" x="1008" y="-85.5" font-family="Helvetica,sans-Serif" font-size="10.00">src/libs/vlayout/vlayoutgenerator.cpp</text>
</a>
</g>
</g>
<!-- Node9&#45;&gt;Node14 -->
<g id="edge15" class="edge">
<title>Node9&#45;&gt;Node14</title>
<path fill="none" stroke="midnightblue" d="M730.52,-154.09C795.6,-138.82 912.46,-111.41 971.6,-97.54"/>
<polygon fill="midnightblue" stroke="midnightblue" points="729.47,-150.74 720.54,-156.43 731.07,-157.55 729.47,-150.74"/>
</g>
<!-- Node15 -->
<g id="node15" class="node">
<title>Node15</title>
<g id="a_node15"><a xlink:href="../../d2/d2d/vlayoutpaper__p_8h.html" target="_top" xlink:title=" ">
<polygon fill="white" stroke="black" points="712.5,-78.5 712.5,-97.5 891.5,-97.5 891.5,-78.5 712.5,-78.5"/>
<text text-anchor="middle" x="802" y="-85.5" font-family="Helvetica,sans-Serif" font-size="10.00">src/libs/vlayout/vlayoutpaper_p.h</text>
</a>
</g>
</g>
<!-- Node9&#45;&gt;Node15 -->
<g id="edge16" class="edge">
<title>Node9&#45;&gt;Node15</title>
<path fill="none" stroke="midnightblue" d="M706.09,-150.77C730.35,-135.15 768.53,-110.56 788.62,-97.62"/>
<polygon fill="midnightblue" stroke="midnightblue" points="704.05,-147.92 697.54,-156.28 707.84,-153.81 704.05,-147.92"/>
</g>
<!-- Node16 -->
<g id="node16" class="node">
<title>Node16</title>
<g id="a_node16"><a xlink:href="../../db/d5c/vposition_8h.html" target="_top" xlink:title=" ">
<polygon fill="white" stroke="red" points="508,-78.5 508,-97.5 656,-97.5 656,-78.5 508,-78.5"/>
<text text-anchor="middle" x="582" y="-85.5" font-family="Helvetica,sans-Serif" font-size="10.00">src/libs/vlayout/vposition.h</text>
</a>
</g>
</g>
<!-- Node9&#45;&gt;Node16 -->
<g id="edge18" class="edge">
<title>Node9&#45;&gt;Node16</title>
<path fill="none" stroke="midnightblue" d="M664.07,-150.15C643.07,-134.5 610.7,-110.38 593.56,-97.62"/>
<polygon fill="midnightblue" stroke="midnightblue" points="662.19,-153.11 672.3,-156.28 666.37,-147.5 662.19,-153.11"/>
</g>
<!-- Node18 -->
<g id="node17" class="node">
<title>Node18</title>
<g id="a_node17"><a xlink:href="../../dd/d70/vlayoutpiece_8cpp.html" target="_top" xlink:title=" ">
<polygon fill="white" stroke="black" points="1124.5,-78.5 1124.5,-97.5 1301.5,-97.5 1301.5,-78.5 1124.5,-78.5"/>
<text text-anchor="middle" x="1213" y="-85.5" font-family="Helvetica,sans-Serif" font-size="10.00">src/libs/vlayout/vlayoutpiece.cpp</text>
</a>
</g>
</g>
<!-- Node9&#45;&gt;Node18 -->
<g id="edge20" class="edge">
<title>Node9&#45;&gt;Node18</title>
<path fill="none" stroke="midnightblue" d="M773.04,-155.33C860.38,-145.4 997.23,-128.64 1115,-109 1134.7,-105.71 1156.47,-101.35 1174.49,-97.53"/>
<polygon fill="midnightblue" stroke="midnightblue" points="772.44,-151.88 762.9,-156.48 773.23,-158.83 772.44,-151.88"/>
</g>
<!-- Node15&#45;&gt;Node13 -->
<g id="edge17" class="edge">
<title>Node15&#45;&gt;Node13</title>
<path fill="none" stroke="midnightblue" d="M778.77,-73.12C754.96,-58.89 718.65,-37.2 698.59,-25.22"/>
<polygon fill="midnightblue" stroke="midnightblue" points="777.15,-76.23 787.53,-78.36 780.74,-70.22 777.15,-76.23"/>
</g>
<!-- Node16&#45;&gt;Node13 -->
<g id="edge19" class="edge">
<title>Node16&#45;&gt;Node13</title>
<path fill="none" stroke="midnightblue" d="M602.9,-72.55C623.5,-58.32 654.28,-37.04 671.39,-25.22"/>
<polygon fill="midnightblue" stroke="midnightblue" points="600.74,-69.79 594.51,-78.36 604.72,-75.55 600.74,-69.79"/>
</g>
<!-- Node20&#45;&gt;Node4 -->
<g id="edge41" class="edge">
<title>Node20&#45;&gt;Node4</title>
<path fill="none" stroke="midnightblue" d="M3259.14,-163.62C2879.09,-158.53 1615.45,-139.47 1436,-109 1427.85,-107.62 1419.31,-105.43 1411.23,-103"/>
<polygon fill="midnightblue" stroke="midnightblue" points="3259.26,-167.13 3269.31,-163.76 3259.36,-160.13 3259.26,-167.13"/>
</g>
<!-- Node20&#45;&gt;Node7 -->
<g id="edge25" class="edge">
<title>Node20&#45;&gt;Node7</title>
<path fill="none" stroke="midnightblue" d="M3259.32,-162.45C2883.69,-153.43 1649.64,-122.91 1566,-109 1557.73,-107.62 1549.05,-105.47 1540.82,-103.08"/>
<polygon fill="midnightblue" stroke="midnightblue" points="3259.29,-165.95 3269.37,-162.69 3259.46,-158.95 3259.29,-165.95"/>
</g>
<!-- Node20&#45;&gt;Node18 -->
<g id="edge35" class="edge">
<title>Node20&#45;&gt;Node18</title>
<path fill="none" stroke="midnightblue" d="M3259.36,-164.57C2892.55,-162.72 1693.01,-153.35 1310,-109 1288.82,-106.55 1265.4,-101.78 1246.88,-97.51"/>
<polygon fill="midnightblue" stroke="midnightblue" points="3259.43,-168.07 3269.45,-164.62 3259.46,-161.07 3259.43,-168.07"/>
</g>
<!-- Node20&#45;&gt;Node19 -->
<g id="edge36" class="edge">
<title>Node20&#45;&gt;Node19</title>
<path fill="none" stroke="midnightblue" d="M3259.04,-157.58C3194.61,-153.37 3111.16,-148.3 3037,-145 2472.44,-119.9 2327.52,-172.64 1766,-109 1744.36,-106.55 1720.43,-101.83 1701.41,-97.6"/>
<polygon fill="midnightblue" stroke="midnightblue" points="3259.01,-161.08 3269.21,-158.25 3259.47,-154.1 3259.01,-161.08"/>
</g>
<!-- Node21 -->
<g id="node20" class="node">
<title>Node21</title>
<g id="a_node20"><a xlink:href="../../d4/d90/fvupdater_8cpp.html" target="_top" xlink:title=" ">
<polygon fill="white" stroke="black" points="3139.5,-78.5 3139.5,-97.5 3292.5,-97.5 3292.5,-78.5 3139.5,-78.5"/>
<text text-anchor="middle" x="3216" y="-85.5" font-family="Helvetica,sans-Serif" font-size="10.00">src/libs/fervor/fvupdater.cpp</text>
</a>
</g>
</g>
<!-- Node20&#45;&gt;Node21 -->
<g id="edge23" class="edge">
<title>Node20&#45;&gt;Node21</title>
<path fill="none" stroke="midnightblue" d="M3340.68,-151.75C3309.8,-136.21 3259.47,-110.88 3233.2,-97.66"/>
<polygon fill="midnightblue" stroke="midnightblue" points="3339.47,-155.06 3349.97,-156.43 3342.61,-148.81 3339.47,-155.06"/>
</g>
<!-- Node22 -->
<g id="node21" class="node">
<title>Node22</title>
<g id="a_node21"><a xlink:href="../../d1/d8d/image__item_8h.html" target="_top" xlink:title=" ">
<polygon fill="white" stroke="red" points="3311,-73 3311,-103 3423,-103 3423,-73 3311,-73"/>
<text text-anchor="start" x="3319" y="-91" font-family="Helvetica,sans-Serif" font-size="10.00">src/libs/tools/image</text>
<text text-anchor="middle" x="3367" y="-80" font-family="Helvetica,sans-Serif" font-size="10.00">_item.h</text>
</a>
</g>
</g>
<!-- Node20&#45;&gt;Node22 -->
<g id="edge24" class="edge">
<title>Node20&#45;&gt;Node22</title>
<path fill="none" stroke="midnightblue" d="M3367,-146.28C3367,-132.9 3367,-115.19 3367,-103.02"/>
<polygon fill="midnightblue" stroke="midnightblue" points="3363.5,-146.28 3367,-156.28 3370.5,-146.28 3363.5,-146.28"/>
</g>
<!-- Node32 -->
<g id="node22" class="node">
<title>Node32</title>
<g id="a_node22"><a xlink:href="../../d9/dc8/dxiface_8cpp.html" target="_top" xlink:title=" ">
<polygon fill="white" stroke="black" points="3441.5,-78.5 3441.5,-97.5 3576.5,-97.5 3576.5,-78.5 3441.5,-78.5"/>
<text text-anchor="middle" x="3509" y="-85.5" font-family="Helvetica,sans-Serif" font-size="10.00">src/libs/vdxf/dxiface.cpp</text>
</a>
</g>
</g>
<!-- Node20&#45;&gt;Node32 -->
<g id="edge26" class="edge">
<title>Node20&#45;&gt;Node32</title>
<path fill="none" stroke="midnightblue" d="M3392.13,-151.55C3421.2,-135.99 3468.23,-110.82 3492.83,-97.66"/>
<polygon fill="midnightblue" stroke="midnightblue" points="3390.18,-148.62 3383.01,-156.43 3393.48,-154.8 3390.18,-148.62"/>
</g>
<!-- Node33 -->
<g id="node23" class="node">
<title>Node33</title>
<g id="a_node23"><a xlink:href="../../da/d75/vabstractarc__p_8h.html" target="_top" xlink:title=" ">
<polygon fill="white" stroke="red" points="3594.5,-73 3594.5,-103 3701.5,-103 3701.5,-73 3594.5,-73"/>
<text text-anchor="start" x="3602.5" y="-91" font-family="Helvetica,sans-Serif" font-size="10.00">src/libs/vgeometry</text>
<text text-anchor="middle" x="3648" y="-80" font-family="Helvetica,sans-Serif" font-size="10.00">/vabstractarc_p.h</text>
</a>
</g>
</g>
<!-- Node20&#45;&gt;Node33 -->
<g id="edge27" class="edge">
<title>Node20&#45;&gt;Node33</title>
<path fill="none" stroke="midnightblue" d="M3412.53,-154.09C3456.77,-143.31 3525.76,-126 3585,-109 3591.4,-107.16 3598.13,-105.13 3604.72,-103.09"/>
<polygon fill="midnightblue" stroke="midnightblue" points="3411.55,-150.73 3402.66,-156.49 3413.2,-157.53 3411.55,-150.73"/>
</g>
<!-- Node35 -->
<g id="node24" class="node">
<title>Node35</title>
<g id="a_node24"><a xlink:href="../../dc/da3/varc__p_8h.html" target="_top" xlink:title=" ">
<polygon fill="white" stroke="red" points="3719.5,-73 3719.5,-103 3826.5,-103 3826.5,-73 3719.5,-73"/>
<text text-anchor="start" x="3727.5" y="-91" font-family="Helvetica,sans-Serif" font-size="10.00">src/libs/vgeometry</text>
<text text-anchor="middle" x="3773" y="-80" font-family="Helvetica,sans-Serif" font-size="10.00">/varc_p.h</text>
</a>
</g>
</g>
<!-- Node20&#45;&gt;Node35 -->
<g id="edge28" class="edge">
<title>Node20&#45;&gt;Node35</title>
<path fill="none" stroke="midnightblue" d="M3447.95,-155.17C3517.88,-145.87 3621.35,-130.19 3710,-109 3717.03,-107.32 3724.42,-105.25 3731.56,-103.1"/>
<polygon fill="midnightblue" stroke="midnightblue" points="3447.34,-151.72 3437.89,-156.49 3448.26,-158.66 3447.34,-151.72"/>
</g>
<!-- Node37 -->
<g id="node25" class="node">
<title>Node37</title>
<g id="a_node25"><a xlink:href="../../d5/d8e/vcubicbezier__p_8h.html" target="_top" xlink:title=" ">
<polygon fill="white" stroke="red" points="3844.5,-73 3844.5,-103 3951.5,-103 3951.5,-73 3844.5,-73"/>
<text text-anchor="start" x="3852.5" y="-91" font-family="Helvetica,sans-Serif" font-size="10.00">src/libs/vgeometry</text>
<text text-anchor="middle" x="3898" y="-80" font-family="Helvetica,sans-Serif" font-size="10.00">/vcubicbezier_p.h</text>
</a>
</g>
</g>
<!-- Node20&#45;&gt;Node37 -->
<g id="edge29" class="edge">
<title>Node20&#45;&gt;Node37</title>
<path fill="none" stroke="midnightblue" d="M3474.93,-157.88C3570.41,-150.22 3713.08,-135.4 3835,-109 3842.4,-107.4 3850.18,-105.29 3857.64,-103.05"/>
<polygon fill="midnightblue" stroke="midnightblue" points="3474.38,-154.42 3464.69,-158.69 3474.93,-161.39 3474.38,-154.42"/>
</g>
<!-- Node39 -->
<g id="node26" class="node">
<title>Node39</title>
<g id="a_node26"><a xlink:href="../../df/dde/vellipticalarc__p_8h.html" target="_top" xlink:title=" ">
<polygon fill="white" stroke="black" points="4847.5,-73 4847.5,-103 4954.5,-103 4954.5,-73 4847.5,-73"/>
<text text-anchor="start" x="4855.5" y="-91" font-family="Helvetica,sans-Serif" font-size="10.00">src/libs/vgeometry</text>
<text text-anchor="middle" x="4901" y="-80" font-family="Helvetica,sans-Serif" font-size="10.00">/vellipticalarc_p.h</text>
</a>
</g>
</g>
<!-- Node20&#45;&gt;Node39 -->
<g id="edge30" class="edge">
<title>Node20&#45;&gt;Node39</title>
<path fill="none" stroke="midnightblue" d="M3474.84,-164.34C3767.4,-162 4571.62,-151.75 4833,-109 4841.62,-107.59 4850.69,-105.42 4859.3,-103.03"/>
<polygon fill="midnightblue" stroke="midnightblue" points="3474.62,-160.84 3464.65,-164.42 3474.68,-167.84 3474.62,-160.84"/>
</g>
<!-- Node40 -->
<g id="node27" class="node">
<title>Node40</title>
<g id="a_node27"><a xlink:href="../../d6/dfb/vellipticalarc_8cpp.html" target="_top" xlink:title=" ">
<polygon fill="white" stroke="black" points="4806.5,-0.5 4806.5,-30.5 4913.5,-30.5 4913.5,-0.5 4806.5,-0.5"/>
<text text-anchor="start" x="4814.5" y="-18.5" font-family="Helvetica,sans-Serif" font-size="10.00">src/libs/vgeometry</text>
<text text-anchor="middle" x="4860" y="-7.5" font-family="Helvetica,sans-Serif" font-size="10.00">/vellipticalarc.cpp</text>
</a>
</g>
</g>
<!-- Node20&#45;&gt;Node40 -->
<g id="edge32" class="edge">
<title>Node20&#45;&gt;Node40</title>
<path fill="none" stroke="midnightblue" d="M3474.88,-163.49C3798.56,-158.6 4742.68,-141.61 4800,-109 4815.64,-100.1 4840.67,-54.39 4852.86,-30.73"/>
<polygon fill="midnightblue" stroke="midnightblue" points="3474.51,-159.99 3464.56,-163.64 3474.61,-166.99 3474.51,-159.99"/>
</g>
<!-- Node41 -->
<g id="node28" class="node">
<title>Node41</title>
<g id="a_node28"><a xlink:href="../../d1/d76/vspline__p_8h.html" target="_top" xlink:title=" ">
<polygon fill="white" stroke="red" points="3969.5,-73 3969.5,-103 4076.5,-103 4076.5,-73 3969.5,-73"/>
<text text-anchor="start" x="3977.5" y="-91" font-family="Helvetica,sans-Serif" font-size="10.00">src/libs/vgeometry</text>
<text text-anchor="middle" x="4023" y="-80" font-family="Helvetica,sans-Serif" font-size="10.00">/vspline_p.h</text>
</a>
</g>
</g>
<!-- Node20&#45;&gt;Node41 -->
<g id="edge33" class="edge">
<title>Node20&#45;&gt;Node41</title>
<path fill="none" stroke="midnightblue" d="M3475,-161.71C3594.63,-156.47 3792.74,-143.04 3960,-109 3967.53,-107.47 3975.44,-105.37 3983.01,-103.1"/>
<polygon fill="midnightblue" stroke="midnightblue" points="3474.58,-158.22 3464.74,-162.15 3474.88,-165.22 3474.58,-158.22"/>
</g>
<!-- Node43 -->
<g id="node29" class="node">
<title>Node43</title>
<g id="a_node29"><a xlink:href="../../d9/d15/vabstractpiece_8cpp.html" target="_top" xlink:title=" ">
<polygon fill="white" stroke="black" points="4095,-78.5 4095,-97.5 4281,-97.5 4281,-78.5 4095,-78.5"/>
<text text-anchor="middle" x="4188" y="-85.5" font-family="Helvetica,sans-Serif" font-size="10.00">src/libs/vlayout/vabstractpiece.cpp</text>
</a>
</g>
</g>
<!-- Node20&#45;&gt;Node43 -->
<g id="edge34" class="edge">
<title>Node20&#45;&gt;Node43</title>
<path fill="none" stroke="midnightblue" d="M3475,-160.42C3615.85,-153.56 3869.7,-138.2 4085,-109 4106.48,-106.09 4130.25,-101.56 4149.53,-97.55"/>
<polygon fill="midnightblue" stroke="midnightblue" points="3474.46,-156.94 3464.64,-160.92 3474.79,-163.93 3474.46,-156.94"/>
</g>
<!-- Node44 -->
<g id="node30" class="node">
<title>Node44</title>
<g id="a_node30"><a xlink:href="../../db/d65/dialogexporttocsv_8cpp.html" target="_top" xlink:title=" ">
<polygon fill="white" stroke="black" points="4299.5,-73 4299.5,-103 4426.5,-103 4426.5,-73 4299.5,-73"/>
<text text-anchor="start" x="4307.5" y="-91" font-family="Helvetica,sans-Serif" font-size="10.00">src/libs/vmisc/dialogs</text>
<text text-anchor="middle" x="4363" y="-80" font-family="Helvetica,sans-Serif" font-size="10.00">/dialogexporttocsv.cpp</text>
</a>
</g>
</g>
<!-- Node20&#45;&gt;Node44 -->
<g id="edge37" class="edge">
<title>Node20&#45;&gt;Node44</title>
<path fill="none" stroke="midnightblue" d="M3474.88,-165.65C3648,-165.09 3998.05,-157.31 4290,-109 4298.95,-107.52 4308.37,-105.38 4317.37,-103.05"/>
<polygon fill="midnightblue" stroke="midnightblue" points="3474.74,-162.15 3464.75,-165.68 3474.76,-169.15 3474.74,-162.15"/>
</g>
<!-- Node45 -->
<g id="node31" class="node">
<title>Node45</title>
<g id="a_node31"><a xlink:href="../../d6/d0b/def_8cpp.html" target="_top" xlink:title=" ">
<polygon fill="white" stroke="black" points="4445,-78.5 4445,-97.5 4567,-97.5 4567,-78.5 4445,-78.5"/>
<text text-anchor="middle" x="4506" y="-85.5" font-family="Helvetica,sans-Serif" font-size="10.00">src/libs/vmisc/def.cpp</text>
</a>
</g>
</g>
<!-- Node20&#45;&gt;Node45 -->
<g id="edge38" class="edge">
<title>Node20&#45;&gt;Node45</title>
<path fill="none" stroke="midnightblue" d="M3475.01,-162.38C3708.25,-156.24 4252.68,-139.07 4435,-109 4450.54,-106.44 4467.54,-101.72 4481.01,-97.51"/>
<polygon fill="midnightblue" stroke="midnightblue" points="3474.72,-158.89 3464.81,-162.65 3474.9,-165.89 3474.72,-158.89"/>
</g>
<!-- Node46 -->
<g id="node32" class="node">
<title>Node46</title>
<g id="a_node32"><a xlink:href="../../d0/df6/vabstractapplication_8cpp.html" target="_top" xlink:title=" ">
<polygon fill="white" stroke="black" points="4585,-78.5 4585,-97.5 4791,-97.5 4791,-78.5 4585,-78.5"/>
<text text-anchor="middle" x="4688" y="-85.5" font-family="Helvetica,sans-Serif" font-size="10.00">src/libs/vmisc/vabstractapplication.cpp</text>
</a>
</g>
</g>
<!-- Node20&#45;&gt;Node46 -->
<g id="edge39" class="edge">
<title>Node20&#45;&gt;Node46</title>
<path fill="none" stroke="midnightblue" d="M3474.68,-164.71C3686.35,-163.11 4171.26,-154.32 4576,-109 4599.85,-106.33 4626.29,-101.69 4647.49,-97.55"/>
<polygon fill="midnightblue" stroke="midnightblue" points="3474.48,-161.22 3464.5,-164.79 3474.53,-168.21 3474.48,-161.22"/>
</g>
<!-- Node47 -->
<g id="node33" class="node">
<title>Node47</title>
<g id="a_node33"><a xlink:href="../../d4/d4f/pmsystems_8cpp.html" target="_top" xlink:title=" ">
<polygon fill="white" stroke="black" points="1775.5,-73 1775.5,-103 1882.5,-103 1882.5,-73 1775.5,-73"/>
<text text-anchor="start" x="1783.5" y="-91" font-family="Helvetica,sans-Serif" font-size="10.00">src/libs/vpatterndb</text>
<text text-anchor="middle" x="1829" y="-80" font-family="Helvetica,sans-Serif" font-size="10.00">/pmsystems.cpp</text>
</a>
</g>
</g>
<!-- Node20&#45;&gt;Node47 -->
<g id="edge40" class="edge">
<title>Node20&#45;&gt;Node47</title>
<path fill="none" stroke="midnightblue" d="M3259.04,-157.66C3194.61,-153.48 3111.15,-148.41 3037,-145 2782.48,-133.29 2142.04,-152.54 1891,-109 1883.09,-107.63 1874.8,-105.48 1866.94,-103.09"/>
<polygon fill="midnightblue" stroke="midnightblue" points="3259,-161.17 3269.21,-158.32 3259.46,-154.18 3259,-161.17"/>
</g>
<!-- Node20&#45;&gt;Node48 -->
<g id="edge42" class="edge">
<title>Node20&#45;&gt;Node48</title>
<path fill="none" stroke="midnightblue" d="M3475.06,-165.03C3785.5,-164.51 4676.07,-158.62 4963,-109 4971.03,-107.61 4979.45,-105.46 4987.43,-103.06"/>
<polygon fill="midnightblue" stroke="midnightblue" points="3474.7,-161.53 3464.71,-165.05 3474.71,-168.53 3474.7,-161.53"/>
</g>
<!-- Node20&#45;&gt;Node49 -->
<g id="edge43" class="edge">
<title>Node20&#45;&gt;Node49</title>
<path fill="none" stroke="midnightblue" d="M3474.96,-165.42C3801.73,-166.09 4776.8,-163.32 5089,-109 5096.91,-107.62 5105.2,-105.47 5113.06,-103.08"/>
<polygon fill="midnightblue" stroke="midnightblue" points="3474.56,-161.92 3464.55,-165.4 3474.54,-168.92 3474.56,-161.92"/>
</g>
<!-- Node50 -->
<g id="node36" class="node">
<title>Node50</title>
<g id="a_node36"><a xlink:href="../../df/dba/vpiecenode__p_8h.html" target="_top" xlink:title=" ">
<polygon fill="white" stroke="black" points="1900.5,-73 1900.5,-103 2007.5,-103 2007.5,-73 1900.5,-73"/>
<text text-anchor="start" x="1908.5" y="-91" font-family="Helvetica,sans-Serif" font-size="10.00">src/libs/vpatterndb</text>
<text text-anchor="middle" x="1954" y="-80" font-family="Helvetica,sans-Serif" font-size="10.00">/vpiecenode_p.h</text>
</a>
</g>
</g>
<!-- Node20&#45;&gt;Node50 -->
<g id="edge44" class="edge">
<title>Node20&#45;&gt;Node50</title>
<path fill="none" stroke="midnightblue" d="M3259.03,-157.77C3194.6,-153.62 3111.15,-148.55 3037,-145 2810.45,-134.14 2240.49,-147.67 2017,-109 2008.97,-107.61 2000.55,-105.45 1992.57,-103.06"/>
<polygon fill="midnightblue" stroke="midnightblue" points="3259,-161.27 3269.21,-158.42 3259.45,-154.29 3259,-161.27"/>
</g>
<!-- Node52 -->
<g id="node38" class="node">
<title>Node52</title>
<g id="a_node38"><a xlink:href="../../de/d3e/vtranslatevars_8cpp.html" target="_top" xlink:title=" ">
<polygon fill="white" stroke="black" points="2026,-73 2026,-103 2136,-103 2136,-73 2026,-73"/>
<text text-anchor="start" x="2034" y="-91" font-family="Helvetica,sans-Serif" font-size="10.00">src/libs/vpatterndb</text>
<text text-anchor="middle" x="2081" y="-80" font-family="Helvetica,sans-Serif" font-size="10.00">/vtranslatevars.cpp</text>
</a>
</g>
</g>
<!-- Node20&#45;&gt;Node52 -->
<g id="edge46" class="edge">
<title>Node20&#45;&gt;Node52</title>
<path fill="none" stroke="midnightblue" d="M3259.03,-157.9C3194.59,-153.81 3111.14,-148.74 3037,-145 2838.87,-135 2340.47,-142.88 2145,-109 2136.86,-107.59 2128.31,-105.42 2120.2,-103.03"/>
<polygon fill="midnightblue" stroke="midnightblue" points="3259,-161.41 3269.2,-158.55 3259.44,-154.42 3259,-161.41"/>
</g>
<!-- Node53 -->
<g id="node39" class="node">
<title>Node53</title>
<g id="a_node39"><a xlink:href="../../d3/d4f/mouse__coordinates_8cpp.html" target="_top" xlink:title=" ">
<polygon fill="white" stroke="black" points="2154,-73 2154,-103 2288,-103 2288,-73 2154,-73"/>
<text text-anchor="start" x="2162" y="-91" font-family="Helvetica,sans-Serif" font-size="10.00">src/libs/vwidgets/mouse</text>
<text text-anchor="middle" x="2221" y="-80" font-family="Helvetica,sans-Serif" font-size="10.00">_coordinates.cpp</text>
</a>
</g>
</g>
<!-- Node20&#45;&gt;Node53 -->
<g id="edge47" class="edge">
<title>Node20&#45;&gt;Node53</title>
<path fill="none" stroke="midnightblue" d="M3259.01,-158.13C3194.58,-154.11 3111.12,-149.05 3037,-145 2708.21,-127.04 2622.43,-159.17 2297,-109 2287.56,-107.54 2277.6,-105.39 2268.11,-103.03"/>
<polygon fill="midnightblue" stroke="midnightblue" points="3258.99,-161.64 3269.19,-158.77 3259.43,-154.65 3258.99,-161.64"/>
</g>
<!-- Node26 -->
<g id="node40" class="node">
<title>Node26</title>
<g id="a_node40"><a xlink:href="../../df/d40/export__format__combobox_8cpp.html" target="_top" xlink:title=" ">
<polygon fill="white" stroke="black" points="2306.5,-73 2306.5,-103 2439.5,-103 2439.5,-73 2306.5,-73"/>
<text text-anchor="start" x="2314.5" y="-91" font-family="Helvetica,sans-Serif" font-size="10.00">src/libs/vwidgets/export</text>
<text text-anchor="middle" x="2373" y="-80" font-family="Helvetica,sans-Serif" font-size="10.00">_format_combobox.cpp</text>
</a>
</g>
</g>
<!-- Node20&#45;&gt;Node26 -->
<g id="edge48" class="edge">
<title>Node20&#45;&gt;Node26</title>
<path fill="none" stroke="midnightblue" d="M3259.16,-158.46C3016.92,-143.78 2450.48,-109.4 2448,-109 2438.82,-107.51 2429.14,-105.37 2419.9,-103.04"/>
<polygon fill="midnightblue" stroke="midnightblue" points="3259.2,-161.97 3269.4,-159.08 3259.63,-154.98 3259.2,-161.97"/>
</g>
<!-- Node29 -->
<g id="node41" class="node">
<title>Node29</title>
<g id="a_node41"><a xlink:href="../../d2/d28/page__format__combobox_8cpp.html" target="_top" xlink:title=" ">
<polygon fill="white" stroke="black" points="2457.5,-73 2457.5,-103 2588.5,-103 2588.5,-73 2457.5,-73"/>
<text text-anchor="start" x="2465.5" y="-91" font-family="Helvetica,sans-Serif" font-size="10.00">src/libs/vwidgets/page</text>
<text text-anchor="middle" x="2523" y="-80" font-family="Helvetica,sans-Serif" font-size="10.00">_format_combobox.cpp</text>
</a>
</g>
</g>
<!-- Node20&#45;&gt;Node29 -->
<g id="edge49" class="edge">
<title>Node20&#45;&gt;Node29</title>
<path fill="none" stroke="midnightblue" d="M3259.07,-158.3C3062.5,-145.93 2660.48,-119.78 2597,-109 2588.08,-107.48 2578.68,-105.36 2569.68,-103.06"/>
<polygon fill="midnightblue" stroke="midnightblue" points="3258.93,-161.8 3269.13,-158.93 3259.37,-154.81 3258.93,-161.8"/>
</g>
<!-- Node54 -->
<g id="node42" class="node">
<title>Node54</title>
<g id="a_node42"><a xlink:href="../../d7/d1b/pen__toolbar_8cpp.html" target="_top" xlink:title=" ">
<polygon fill="white" stroke="black" points="2606.5,-73 2606.5,-103 2725.5,-103 2725.5,-73 2606.5,-73"/>
<text text-anchor="start" x="2614.5" y="-91" font-family="Helvetica,sans-Serif" font-size="10.00">src/libs/vwidgets/pen</text>
<text text-anchor="middle" x="2666" y="-80" font-family="Helvetica,sans-Serif" font-size="10.00">_toolbar.cpp</text>
</a>
</g>
</g>
<!-- Node20&#45;&gt;Node54 -->
<g id="edge50" class="edge">
<title>Node20&#45;&gt;Node54</title>
<path fill="none" stroke="midnightblue" d="M3259.02,-157.97C3105.64,-147.55 2832.5,-127.27 2735,-109 2726.79,-107.46 2718.15,-105.36 2709.86,-103.09"/>
<polygon fill="midnightblue" stroke="midnightblue" points="3259.18,-161.49 3269.4,-158.67 3259.66,-154.51 3259.18,-161.49"/>
</g>
<!-- Node55 -->
<g id="node43" class="node">
<title>Node55</title>
<g id="a_node43"><a xlink:href="../../d8/d76/scene__rect_8cpp.html" target="_top" xlink:title=" ">
<polygon fill="white" stroke="black" points="2744,-73 2744,-103 2874,-103 2874,-73 2744,-73"/>
<text text-anchor="start" x="2752" y="-91" font-family="Helvetica,sans-Serif" font-size="10.00">src/libs/vwidgets/scene</text>
<text text-anchor="middle" x="2809" y="-80" font-family="Helvetica,sans-Serif" font-size="10.00">_rect.cpp</text>
</a>
</g>
</g>
<!-- Node20&#45;&gt;Node55 -->
<g id="edge51" class="edge">
<title>Node20&#45;&gt;Node55</title>
<path fill="none" stroke="midnightblue" d="M3259.5,-157.18C3160.96,-148.92 3011.3,-133.62 2883,-109 2874.5,-107.37 2865.55,-105.28 2856.92,-103.06"/>
<polygon fill="midnightblue" stroke="midnightblue" points="3259.22,-160.66 3269.47,-158 3259.8,-153.69 3259.22,-160.66"/>
</g>
<!-- Node56 -->
<g id="node44" class="node">
<title>Node56</title>
<g id="a_node44"><a xlink:href="../../dd/df6/vabstractmainwindow_8cpp.html" target="_top" xlink:title=" ">
<polygon fill="white" stroke="black" points="2892.5,-78.5 2892.5,-97.5 3121.5,-97.5 3121.5,-78.5 2892.5,-78.5"/>
<text text-anchor="middle" x="3007" y="-85.5" font-family="Helvetica,sans-Serif" font-size="10.00">src/libs/vwidgets/vabstractmainwindow.cpp</text>
</a>
</g>
</g>
<!-- Node20&#45;&gt;Node56 -->
<g id="edge52" class="edge">
<title>Node20&#45;&gt;Node56</title>
<path fill="none" stroke="midnightblue" d="M3316.2,-154.28C3244.07,-139.05 3113.43,-111.47 3047.45,-97.54"/>
<polygon fill="midnightblue" stroke="midnightblue" points="3315.9,-157.79 3326.4,-156.43 3317.34,-150.94 3315.9,-157.79"/>
</g>
<!-- Node39&#45;&gt;Node40 -->
<g id="edge31" class="edge">
<title>Node39&#45;&gt;Node40</title>
<path fill="none" stroke="midnightblue" d="M4887.66,-64.06C4881.28,-53.09 4873.84,-40.3 4868.28,-30.75"/>
<polygon fill="midnightblue" stroke="midnightblue" points="4884.65,-65.85 4892.7,-72.73 4890.7,-62.33 4884.65,-65.85"/>
</g>
<!-- Node50&#45;&gt;Node51 -->
<g id="edge45" class="edge">
<title>Node50&#45;&gt;Node51</title>
<path fill="none" stroke="midnightblue" d="M2002.46,-70.19C2007.33,-68.93 2012.23,-67.83 2017,-67 2263.76,-23.88 3055.94,-17.57 3270.16,-16.66"/>
<polygon fill="midnightblue" stroke="midnightblue" points="2001.26,-66.89 1992.58,-72.96 2003.15,-73.63 2001.26,-66.89"/>
</g>
<!-- Node67&#45;&gt;Node3 -->
<g id="edge55" class="edge">
<title>Node67&#45;&gt;Node3</title>
<path fill="none" stroke="midnightblue" d="M5919.84,-136.76C5925.78,-127.35 5932.26,-117.1 5937.68,-108.51"/>
<polygon fill="midnightblue" stroke="midnightblue" points="5916.74,-135.1 5914.36,-145.43 5922.66,-138.84 5916.74,-135.1"/>
</g>
</g>
</svg>
