<?xml version="1.0" encoding="UTF-8" standalone="no"?>
<!DOCTYPE svg PUBLIC "-//W3C//DTD SVG 1.1//EN"
 "http://www.w3.org/Graphics/SVG/1.1/DTD/svg11.dtd">
<!-- Generated by graphviz version 2.43.0 (0)
 -->
<!-- Title: src/libs/vpatterndb/variables/measurement_variable.h Pages: 1 -->
<svg width="6027pt" height="407pt"
 viewBox="0.00 0.00 6027.00 407.00" xmlns="http://www.w3.org/2000/svg" xmlns:xlink="http://www.w3.org/1999/xlink">
<g id="graph0" class="graph" transform="scale(1 1) rotate(0) translate(4 403)">
<title>src/libs/vpatterndb/variables/measurement_variable.h</title>
<polygon fill="white" stroke="transparent" points="-4,4 -4,-403 6023,-403 6023,4 -4,4"/>
<!-- Node1 -->
<g id="node1" class="node">
<title>Node1</title>
<g id="a_node1"><a xlink:title=" ">
<polygon fill="#bfbfbf" stroke="black" points="5508,-357.5 5508,-398.5 5644,-398.5 5644,-357.5 5508,-357.5"/>
<text text-anchor="start" x="5516" y="-386.5" font-family="Helvetica,sans-Serif" font-size="10.00">src/libs/vpatterndb</text>
<text text-anchor="start" x="5516" y="-375.5" font-family="Helvetica,sans-Serif" font-size="10.00">/variables/measurement</text>
<text text-anchor="middle" x="5576" y="-364.5" font-family="Helvetica,sans-Serif" font-size="10.00">_variable.h</text>
</a>
</g>
</g>
<!-- Node2 -->
<g id="node2" class="node">
<title>Node2</title>
<g id="a_node2"><a xlink:href="../../d9/de3/measurements_8cpp.html" target="_top" xlink:title=" ">
<polygon fill="white" stroke="black" points="5594,-78.5 5594,-97.5 5784,-97.5 5784,-78.5 5594,-78.5"/>
<text text-anchor="middle" x="5689" y="-85.5" font-family="Helvetica,sans-Serif" font-size="10.00">src/libs/vformat/measurements.cpp</text>
</a>
</g>
</g>
<!-- Node1&#45;&gt;Node2 -->
<g id="edge1" class="edge">
<title>Node1&#45;&gt;Node2</title>
<path fill="none" stroke="midnightblue" d="M5621.25,-352.36C5672.71,-321.46 5753.99,-263.15 5788,-187 5795.61,-169.96 5797.4,-161.12 5788,-145 5773.57,-120.27 5743.73,-105.59 5720.56,-97.5"/>
<polygon fill="midnightblue" stroke="midnightblue" points="5619.47,-349.35 5612.63,-357.45 5623.02,-355.38 5619.47,-349.35"/>
</g>
<!-- Node3 -->
<g id="node3" class="node">
<title>Node3</title>
<g id="a_node3"><a xlink:href="../../d4/da4/measurement__variable_8cpp.html" target="_top" xlink:title=" ">
<polygon fill="white" stroke="black" points="5883,-67.5 5883,-108.5 6019,-108.5 6019,-67.5 5883,-67.5"/>
<text text-anchor="start" x="5891" y="-96.5" font-family="Helvetica,sans-Serif" font-size="10.00">src/libs/vpatterndb</text>
<text text-anchor="start" x="5891" y="-85.5" font-family="Helvetica,sans-Serif" font-size="10.00">/variables/measurement</text>
<text text-anchor="middle" x="5951" y="-74.5" font-family="Helvetica,sans-Serif" font-size="10.00">_variable.cpp</text>
</a>
</g>
</g>
<!-- Node1&#45;&gt;Node3 -->
<g id="edge2" class="edge">
<title>Node1&#45;&gt;Node3</title>
<path fill="none" stroke="midnightblue" d="M5653.95,-365.71C5749.87,-347.17 5908.75,-300.26 5980,-187 5995.4,-162.52 5979.43,-129.48 5965.8,-108.71"/>
<polygon fill="midnightblue" stroke="midnightblue" points="5653.19,-362.29 5644.01,-367.57 5654.48,-369.17 5653.19,-362.29"/>
</g>
<!-- Node4 -->
<g id="node4" class="node">
<title>Node4</title>
<g id="a_node4"><a xlink:href="../../d6/d46/vcontainer_8cpp.html" target="_top" xlink:title=" ">
<polygon fill="white" stroke="black" points="1319.5,-73 1319.5,-103 1426.5,-103 1426.5,-73 1319.5,-73"/>
<text text-anchor="start" x="1327.5" y="-91" font-family="Helvetica,sans-Serif" font-size="10.00">src/libs/vpatterndb</text>
<text text-anchor="middle" x="1373" y="-80" font-family="Helvetica,sans-Serif" font-size="10.00">/vcontainer.cpp</text>
</a>
</g>
</g>
<!-- Node1&#45;&gt;Node4 -->
<g id="edge3" class="edge">
<title>Node1&#45;&gt;Node4</title>
<path fill="none" stroke="midnightblue" d="M5497.72,-375.27C4971.57,-363.37 1959.35,-291.05 1566,-187 1498.61,-169.17 1427.55,-125.73 1393.52,-103.15"/>
<polygon fill="midnightblue" stroke="midnightblue" points="5497.79,-378.77 5507.86,-375.5 5497.94,-371.77 5497.79,-378.77"/>
</g>
<!-- Node5 -->
<g id="node5" class="node">
<title>Node5</title>
<g id="a_node5"><a xlink:href="../../de/dca/variables_8h.html" target="_top" xlink:title=" ">
<polygon fill="white" stroke="black" points="5060.5,-290.5 5060.5,-320.5 5167.5,-320.5 5167.5,-290.5 5060.5,-290.5"/>
<text text-anchor="start" x="5068.5" y="-308.5" font-family="Helvetica,sans-Serif" font-size="10.00">src/libs/vpatterndb</text>
<text text-anchor="middle" x="5114" y="-297.5" font-family="Helvetica,sans-Serif" font-size="10.00">/variables.h</text>
</a>
</g>
</g>
<!-- Node1&#45;&gt;Node5 -->
<g id="edge4" class="edge">
<title>Node1&#45;&gt;Node5</title>
<path fill="none" stroke="midnightblue" d="M5497.82,-365.07C5403.95,-350.75 5249.01,-327.1 5167.67,-314.69"/>
<polygon fill="midnightblue" stroke="midnightblue" points="5497.42,-368.55 5507.83,-366.6 5498.47,-361.63 5497.42,-368.55"/>
</g>
<!-- Node6 -->
<g id="node6" class="node">
<title>Node6</title>
<g id="a_node6"><a xlink:href="../../d3/df7/vcontainer_8h.html" target="_top" xlink:title=" ">
<polygon fill="white" stroke="black" points="4829.5,-223.5 4829.5,-253.5 4936.5,-253.5 4936.5,-223.5 4829.5,-223.5"/>
<text text-anchor="start" x="4837.5" y="-241.5" font-family="Helvetica,sans-Serif" font-size="10.00">src/libs/vpatterndb</text>
<text text-anchor="middle" x="4883" y="-230.5" font-family="Helvetica,sans-Serif" font-size="10.00">/vcontainer.h</text>
</a>
</g>
</g>
<!-- Node5&#45;&gt;Node6 -->
<g id="edge5" class="edge">
<title>Node5&#45;&gt;Node6</title>
<path fill="none" stroke="midnightblue" d="M5054.35,-287.71C5016.76,-277.14 4968.77,-263.63 4933.15,-253.61"/>
<polygon fill="midnightblue" stroke="midnightblue" points="5053.59,-291.14 5064.16,-290.48 5055.48,-284.4 5053.59,-291.14"/>
</g>
<!-- Node6&#45;&gt;Node2 -->
<g id="edge9" class="edge">
<title>Node6&#45;&gt;Node2</title>
<path fill="none" stroke="midnightblue" d="M4946.98,-235.32C5103.79,-229.61 5498.37,-212.83 5552,-187 5574.95,-175.95 5571.05,-160.83 5591,-145 5616.33,-124.9 5649.72,-107.45 5670.26,-97.58"/>
<polygon fill="midnightblue" stroke="midnightblue" points="4946.42,-231.84 4936.56,-235.7 4946.68,-238.84 4946.42,-231.84"/>
</g>
<!-- Node6&#45;&gt;Node4 -->
<g id="edge56" class="edge">
<title>Node6&#45;&gt;Node4</title>
<path fill="none" stroke="midnightblue" d="M4819.1,-237.22C4404.34,-235.33 2101.36,-223.26 1791,-187 1630.55,-168.25 1592.04,-150.82 1436,-109 1429.35,-107.22 1422.36,-105.17 1415.54,-103.08"/>
<polygon fill="midnightblue" stroke="midnightblue" points="4819.38,-240.73 4829.4,-237.27 4819.42,-233.73 4819.38,-240.73"/>
</g>
<!-- Node7 -->
<g id="node7" class="node">
<title>Node7</title>
<g id="a_node7"><a xlink:href="../../d2/d47/image__dialog_8cpp.html" target="_top" xlink:title=" ">
<polygon fill="white" stroke="black" points="1445,-73 1445,-103 1557,-103 1557,-73 1445,-73"/>
<text text-anchor="start" x="1453" y="-91" font-family="Helvetica,sans-Serif" font-size="10.00">src/libs/tools/image</text>
<text text-anchor="middle" x="1501" y="-80" font-family="Helvetica,sans-Serif" font-size="10.00">_dialog.cpp</text>
</a>
</g>
</g>
<!-- Node6&#45;&gt;Node7 -->
<g id="edge6" class="edge">
<title>Node6&#45;&gt;Node7</title>
<path fill="none" stroke="midnightblue" d="M4819.3,-237.43C4547.27,-236.87 3456.11,-231.78 2561,-187 2117.98,-164.84 2001.73,-192.06 1566,-109 1558.11,-107.5 1549.83,-105.38 1541.92,-103.08"/>
<polygon fill="midnightblue" stroke="midnightblue" points="4819.38,-240.93 4829.38,-237.45 4819.39,-233.93 4819.38,-240.93"/>
</g>
<!-- Node8 -->
<g id="node8" class="node">
<title>Node8</title>
<g id="a_node8"><a xlink:href="../../dc/db7/measurements_8h.html" target="_top" xlink:title=" ">
<polygon fill="white" stroke="black" points="5599.5,-156.5 5599.5,-175.5 5778.5,-175.5 5778.5,-156.5 5599.5,-156.5"/>
<text text-anchor="middle" x="5689" y="-163.5" font-family="Helvetica,sans-Serif" font-size="10.00">src/libs/vformat/measurements.h</text>
</a>
</g>
</g>
<!-- Node6&#45;&gt;Node8 -->
<g id="edge7" class="edge">
<title>Node6&#45;&gt;Node8</title>
<path fill="none" stroke="midnightblue" d="M4947,-235.43C5070.71,-230.86 5351.1,-217.79 5585,-187 5606.69,-184.14 5630.69,-179.62 5650.16,-175.6"/>
<polygon fill="midnightblue" stroke="midnightblue" points="4946.81,-231.93 4936.94,-235.79 4947.06,-238.93 4946.81,-231.93"/>
</g>
<!-- Node9 -->
<g id="node9" class="node">
<title>Node9</title>
<g id="a_node9"><a xlink:href="../../d6/de0/vlayoutpiece_8h.html" target="_top" xlink:title=" ">
<polygon fill="white" stroke="black" points="601,-156.5 601,-175.5 767,-175.5 767,-156.5 601,-156.5"/>
<text text-anchor="middle" x="684" y="-163.5" font-family="Helvetica,sans-Serif" font-size="10.00">src/libs/vlayout/vlayoutpiece.h</text>
</a>
</g>
</g>
<!-- Node6&#45;&gt;Node9 -->
<g id="edge10" class="edge">
<title>Node6&#45;&gt;Node9</title>
<path fill="none" stroke="midnightblue" d="M4818.94,-236.65C4484.75,-232.2 2907.41,-210.81 1617,-187 1303.35,-181.21 930.42,-172.74 767.31,-168.95"/>
<polygon fill="midnightblue" stroke="midnightblue" points="4819.34,-240.16 4829.38,-236.79 4819.43,-233.16 4819.34,-240.16"/>
</g>
<!-- Node19 -->
<g id="node18" class="node">
<title>Node19</title>
<g id="a_node18"><a xlink:href="../../d8/d70/vtextmanager_8cpp.html" target="_top" xlink:title=" ">
<polygon fill="white" stroke="black" points="1575,-78.5 1575,-97.5 1757,-97.5 1757,-78.5 1575,-78.5"/>
<text text-anchor="middle" x="1666" y="-85.5" font-family="Helvetica,sans-Serif" font-size="10.00">src/libs/vlayout/vtextmanager.cpp</text>
</a>
</g>
</g>
<!-- Node6&#45;&gt;Node19 -->
<g id="edge21" class="edge">
<title>Node6&#45;&gt;Node19</title>
<path fill="none" stroke="midnightblue" d="M4819.14,-236.17C4601.25,-231.5 3867.08,-214.61 3261,-187 2949.65,-172.82 2872.24,-161.38 2561,-145 2207.79,-126.41 2117.1,-151.81 1766,-109 1744.56,-106.39 1720.84,-101.72 1701.89,-97.55"/>
<polygon fill="midnightblue" stroke="midnightblue" points="4819.35,-239.68 4829.42,-236.39 4819.5,-232.68 4819.35,-239.68"/>
</g>
<!-- Node20 -->
<g id="node19" class="node">
<title>Node20</title>
<g id="a_node19"><a xlink:href="../../d5/d74/vabstractapplication_8h.html" target="_top" xlink:title=" ">
<polygon fill="white" stroke="red" points="3270.5,-156.5 3270.5,-175.5 3465.5,-175.5 3465.5,-156.5 3270.5,-156.5"/>
<text text-anchor="middle" x="3368" y="-163.5" font-family="Helvetica,sans-Serif" font-size="10.00">src/libs/vmisc/vabstractapplication.h</text>
</a>
</g>
</g>
<!-- Node6&#45;&gt;Node20 -->
<g id="edge22" class="edge">
<title>Node6&#45;&gt;Node20</title>
<path fill="none" stroke="midnightblue" d="M4818.89,-234.52C4581.51,-223.47 3751.55,-184.85 3465.66,-171.54"/>
<polygon fill="midnightblue" stroke="midnightblue" points="4818.93,-238.02 4829.08,-234.99 4819.25,-231.03 4818.93,-238.02"/>
</g>
<!-- Node48 -->
<g id="node34" class="node">
<title>Node48</title>
<g id="a_node34"><a xlink:href="../../db/d11/vformula_8cpp.html" target="_top" xlink:title=" ">
<polygon fill="white" stroke="black" points="4973.5,-73 4973.5,-103 5080.5,-103 5080.5,-73 4973.5,-73"/>
<text text-anchor="start" x="4981.5" y="-91" font-family="Helvetica,sans-Serif" font-size="10.00">src/libs/vpatterndb</text>
<text text-anchor="middle" x="5027" y="-80" font-family="Helvetica,sans-Serif" font-size="10.00">/vformula.cpp</text>
</a>
</g>
</g>
<!-- Node6&#45;&gt;Node48 -->
<g id="edge57" class="edge">
<title>Node6&#45;&gt;Node48</title>
<path fill="none" stroke="midnightblue" d="M4819.02,-235.4C4783.45,-230.54 4741.87,-217.97 4719,-187 4707.91,-171.98 4706.8,-159.13 4719,-145 4754.97,-103.36 4910.38,-121.37 4964,-109 4971.16,-107.35 4978.67,-105.27 4985.92,-103.09"/>
<polygon fill="midnightblue" stroke="midnightblue" points="4819.01,-238.92 4829.35,-236.62 4819.83,-231.97 4819.01,-238.92"/>
</g>
<!-- Node50 -->
<g id="node36" class="node">
<title>Node50</title>
<g id="a_node36"><a xlink:href="../../d8/dba/vpiecenode_8cpp.html" target="_top" xlink:title=" ">
<polygon fill="white" stroke="black" points="3270.5,-0.5 3270.5,-30.5 3377.5,-30.5 3377.5,-0.5 3270.5,-0.5"/>
<text text-anchor="start" x="3278.5" y="-18.5" font-family="Helvetica,sans-Serif" font-size="10.00">src/libs/vpatterndb</text>
<text text-anchor="middle" x="3324" y="-7.5" font-family="Helvetica,sans-Serif" font-size="10.00">/vpiecenode.cpp</text>
</a>
</g>
</g>
<!-- Node6&#45;&gt;Node50 -->
<g id="edge59" class="edge">
<title>Node6&#45;&gt;Node50</title>
<path fill="none" stroke="midnightblue" d="M4825.79,-219.03C4811.28,-211.47 4797.42,-201.09 4789,-187 4779.42,-170.98 4776.37,-158.74 4789,-145 4853.29,-75.05 5150.71,-178.95 5215,-109 5227.63,-95.26 5228.02,-80.37 5215,-67 5182.07,-33.18 3681.91,-19.37 3377.54,-16.91"/>
<polygon fill="midnightblue" stroke="midnightblue" points="4824.34,-222.22 4834.88,-223.38 4827.37,-215.91 4824.34,-222.22"/>
</g>
<!-- Node51 -->
<g id="node37" class="node">
<title>Node51</title>
<g id="a_node37"><a xlink:href="../../df/d7a/vpiece_8cpp.html" target="_top" xlink:title=" ">
<polygon fill="white" stroke="black" points="5098.5,-73 5098.5,-103 5205.5,-103 5205.5,-73 5098.5,-73"/>
<text text-anchor="start" x="5106.5" y="-91" font-family="Helvetica,sans-Serif" font-size="10.00">src/libs/vpatterndb</text>
<text text-anchor="middle" x="5152" y="-80" font-family="Helvetica,sans-Serif" font-size="10.00">/vpiece.cpp</text>
</a>
</g>
</g>
<!-- Node6&#45;&gt;Node51 -->
<g id="edge61" class="edge">
<title>Node6&#45;&gt;Node51</title>
<path fill="none" stroke="midnightblue" d="M4819.72,-227.54C4795.96,-220.39 4771.28,-208.1 4757,-187 4746.54,-171.54 4744.53,-158.89 4757,-145 4806.72,-89.61 5017.2,-124.51 5090,-109 5097.41,-107.42 5105.19,-105.3 5112.64,-103.03"/>
<polygon fill="midnightblue" stroke="midnightblue" points="4818.89,-230.94 4829.46,-230.21 4820.75,-224.19 4818.89,-230.94"/>
</g>
<!-- Node65 -->
<g id="node45" class="node">
<title>Node65</title>
<g id="a_node45"><a xlink:href="../../d3/d02/custom__variable__p_8h.html" target="_top" xlink:title=" ">
<polygon fill="white" stroke="red" points="4798.5,-151 4798.5,-181 4967.5,-181 4967.5,-151 4798.5,-151"/>
<text text-anchor="start" x="4806.5" y="-169" font-family="Helvetica,sans-Serif" font-size="10.00">src/libs/vpatterndb</text>
<text text-anchor="middle" x="4883" y="-158" font-family="Helvetica,sans-Serif" font-size="10.00">/variables/custom_variable_p.h</text>
</a>
</g>
</g>
<!-- Node6&#45;&gt;Node65 -->
<g id="edge53" class="edge">
<title>Node6&#45;&gt;Node65</title>
<path fill="none" stroke="midnightblue" d="M4883,-213.23C4883,-202.57 4883,-190.41 4883,-181.25"/>
<polygon fill="midnightblue" stroke="midnightblue" points="4879.5,-213.23 4883,-223.23 4886.5,-213.23 4879.5,-213.23"/>
</g>
<!-- Node67 -->
<g id="node46" class="node">
<title>Node67</title>
<g id="a_node46"><a xlink:href="../../d7/d8a/measurement__variable__p_8h.html" target="_top" xlink:title=" ">
<polygon fill="white" stroke="black" points="5835,-145.5 5835,-186.5 5971,-186.5 5971,-145.5 5835,-145.5"/>
<text text-anchor="start" x="5843" y="-174.5" font-family="Helvetica,sans-Serif" font-size="10.00">src/libs/vpatterndb</text>
<text text-anchor="start" x="5843" y="-163.5" font-family="Helvetica,sans-Serif" font-size="10.00">/variables/measurement</text>
<text text-anchor="middle" x="5903" y="-152.5" font-family="Helvetica,sans-Serif" font-size="10.00">_variable_p.h</text>
</a>
</g>
</g>
<!-- Node6&#45;&gt;Node67 -->
<g id="edge54" class="edge">
<title>Node6&#45;&gt;Node67</title>
<path fill="none" stroke="midnightblue" d="M4947.01,-236.49C5095.34,-233.58 5473.87,-222.96 5788,-187 5803.2,-185.26 5819.44,-182.81 5834.78,-180.21"/>
<polygon fill="midnightblue" stroke="midnightblue" points="4946.67,-232.99 4936.74,-236.68 4946.8,-239.99 4946.67,-232.99"/>
</g>
<!-- Node68 -->
<g id="node47" class="node">
<title>Node68</title>
<g id="a_node47"><a xlink:href="../../d6/d91/vnodedetail_8cpp.html" target="_top" xlink:title=" ">
<polygon fill="white" stroke="black" points="4985.5,-151 4985.5,-181 5092.5,-181 5092.5,-151 4985.5,-151"/>
<text text-anchor="start" x="4993.5" y="-169" font-family="Helvetica,sans-Serif" font-size="10.00">src/libs/vpatterndb</text>
<text text-anchor="middle" x="5039" y="-158" font-family="Helvetica,sans-Serif" font-size="10.00">/vnodedetail.cpp</text>
</a>
</g>
</g>
<!-- Node6&#45;&gt;Node68 -->
<g id="edge58" class="edge">
<title>Node6&#45;&gt;Node68</title>
<path fill="none" stroke="midnightblue" d="M4923.52,-219.19C4949.85,-207.29 4983.64,-192.02 5007.86,-181.07"/>
<polygon fill="midnightblue" stroke="midnightblue" points="4921.87,-216.1 4914.19,-223.4 4924.75,-222.47 4921.87,-216.1"/>
</g>
<!-- Node69 -->
<g id="node48" class="node">
<title>Node69</title>
<g id="a_node48"><a xlink:href="../../da/de1/vpiecepath_8cpp.html" target="_top" xlink:title=" ">
<polygon fill="white" stroke="black" points="5110.5,-151 5110.5,-181 5217.5,-181 5217.5,-151 5110.5,-151"/>
<text text-anchor="start" x="5118.5" y="-169" font-family="Helvetica,sans-Serif" font-size="10.00">src/libs/vpatterndb</text>
<text text-anchor="middle" x="5164" y="-158" font-family="Helvetica,sans-Serif" font-size="10.00">/vpiecepath.cpp</text>
</a>
</g>
</g>
<!-- Node6&#45;&gt;Node69 -->
<g id="edge60" class="edge">
<title>Node6&#45;&gt;Node69</title>
<path fill="none" stroke="midnightblue" d="M4946.83,-224.29C4990.71,-214.84 5050.18,-201.3 5102,-187 5108.54,-185.19 5115.42,-183.14 5122.12,-181.04"/>
<polygon fill="midnightblue" stroke="midnightblue" points="4945.92,-220.9 4936.87,-226.42 4947.38,-227.75 4945.92,-220.9"/>
</g>
<!-- Node70 -->
<g id="node49" class="node">
<title>Node70</title>
<g id="a_node49"><a xlink:href="../../d1/d3a/abstracttest_8cpp.html" target="_top" xlink:title=" ">
<polygon fill="white" stroke="black" points="5235.5,-156.5 5235.5,-175.5 5396.5,-175.5 5396.5,-156.5 5235.5,-156.5"/>
<text text-anchor="middle" x="5316" y="-163.5" font-family="Helvetica,sans-Serif" font-size="10.00">src/libs/vtest/abstracttest.cpp</text>
</a>
</g>
</g>
<!-- Node6&#45;&gt;Node70 -->
<g id="edge62" class="edge">
<title>Node6&#45;&gt;Node70</title>
<path fill="none" stroke="midnightblue" d="M4946.84,-229.59C5016.09,-220.67 5129.76,-205.04 5227,-187 5244.75,-183.71 5264.34,-179.38 5280.61,-175.59"/>
<polygon fill="midnightblue" stroke="midnightblue" points="4946.01,-226.17 4936.54,-230.91 4946.9,-233.11 4946.01,-226.17"/>
</g>
<!-- Node71 -->
<g id="node50" class="node">
<title>Node71</title>
<g id="a_node50"><a xlink:href="../../da/db4/piece__tablewidgetitem_8cpp.html" target="_top" xlink:title=" ">
<polygon fill="white" stroke="black" points="5415,-151 5415,-181 5543,-181 5543,-151 5415,-151"/>
<text text-anchor="start" x="5423" y="-169" font-family="Helvetica,sans-Serif" font-size="10.00">src/libs/vwidgets/piece</text>
<text text-anchor="middle" x="5479" y="-158" font-family="Helvetica,sans-Serif" font-size="10.00">_tablewidgetitem.cpp</text>
</a>
</g>
</g>
<!-- Node6&#45;&gt;Node71 -->
<g id="edge63" class="edge">
<title>Node6&#45;&gt;Node71</title>
<path fill="none" stroke="midnightblue" d="M4947.02,-234.85C5046.1,-229.96 5242.23,-217.11 5406,-187 5414.66,-185.41 5423.79,-183.28 5432.54,-181"/>
<polygon fill="midnightblue" stroke="midnightblue" points="4946.7,-231.36 4936.88,-235.34 4947.03,-238.35 4946.7,-231.36"/>
</g>
<!-- Node8&#45;&gt;Node2 -->
<g id="edge8" class="edge">
<title>Node8&#45;&gt;Node2</title>
<path fill="none" stroke="midnightblue" d="M5689,-146.22C5689,-130.7 5689,-109.36 5689,-97.62"/>
<polygon fill="midnightblue" stroke="midnightblue" points="5685.5,-146.28 5689,-156.28 5692.5,-146.28 5685.5,-146.28"/>
</g>
<!-- Node10 -->
<g id="node10" class="node">
<title>Node10</title>
<g id="a_node10"><a xlink:href="../../dd/d66/vdxfengine_8cpp.html" target="_top" xlink:title=" ">
<polygon fill="white" stroke="black" points="0,-78.5 0,-97.5 154,-97.5 154,-78.5 0,-78.5"/>
<text text-anchor="middle" x="77" y="-85.5" font-family="Helvetica,sans-Serif" font-size="10.00">src/libs/vdxf/vdxfengine.cpp</text>
</a>
</g>
</g>
<!-- Node9&#45;&gt;Node10 -->
<g id="edge11" class="edge">
<title>Node9&#45;&gt;Node10</title>
<path fill="none" stroke="midnightblue" d="M590.34,-158.38C485.68,-150.18 311.44,-134.14 163,-109 145.17,-105.98 125.5,-101.49 109.48,-97.54"/>
<polygon fill="midnightblue" stroke="midnightblue" points="590.32,-161.89 600.56,-159.17 590.86,-154.91 590.32,-161.89"/>
</g>
<!-- Node11 -->
<g id="node11" class="node">
<title>Node11</title>
<g id="a_node11"><a xlink:href="../../de/da8/vbank_8cpp.html" target="_top" xlink:title=" ">
<polygon fill="white" stroke="black" points="172,-78.5 172,-97.5 316,-97.5 316,-78.5 172,-78.5"/>
<text text-anchor="middle" x="244" y="-85.5" font-family="Helvetica,sans-Serif" font-size="10.00">src/libs/vlayout/vbank.cpp</text>
</a>
</g>
</g>
<!-- Node9&#45;&gt;Node11 -->
<g id="edge12" class="edge">
<title>Node9&#45;&gt;Node11</title>
<path fill="none" stroke="midnightblue" d="M608.17,-155.13C535.28,-145.18 422.16,-128.53 325,-109 308.67,-105.72 290.67,-101.35 275.79,-97.53"/>
<polygon fill="midnightblue" stroke="midnightblue" points="607.81,-158.61 618.19,-156.49 608.75,-151.68 607.81,-158.61"/>
</g>
<!-- Node12 -->
<g id="node12" class="node">
<title>Node12</title>
<g id="a_node12"><a xlink:href="../../df/d5d/vcontour_8cpp.html" target="_top" xlink:title=" ">
<polygon fill="white" stroke="black" points="334,-78.5 334,-97.5 490,-97.5 490,-78.5 334,-78.5"/>
<text text-anchor="middle" x="412" y="-85.5" font-family="Helvetica,sans-Serif" font-size="10.00">src/libs/vlayout/vcontour.cpp</text>
</a>
</g>
</g>
<!-- Node9&#45;&gt;Node12 -->
<g id="edge13" class="edge">
<title>Node9&#45;&gt;Node12</title>
<path fill="none" stroke="midnightblue" d="M643.59,-153.71C588.7,-138.37 491.8,-111.3 442.56,-97.54"/>
<polygon fill="midnightblue" stroke="midnightblue" points="642.75,-157.11 653.33,-156.43 644.64,-150.37 642.75,-157.11"/>
</g>
<!-- Node13 -->
<g id="node13" class="node">
<title>Node13</title>
<g id="a_node13"><a xlink:href="../../d2/d2d/vlayoutpaper__p_8h.html" target="_top" xlink:title=" ">
<polygon fill="white" stroke="black" points="712.5,-78.5 712.5,-97.5 891.5,-97.5 891.5,-78.5 712.5,-78.5"/>
<text text-anchor="middle" x="802" y="-85.5" font-family="Helvetica,sans-Serif" font-size="10.00">src/libs/vlayout/vlayoutpaper_p.h</text>
</a>
</g>
</g>
<!-- Node9&#45;&gt;Node13 -->
<g id="edge14" class="edge">
<title>Node9&#45;&gt;Node13</title>
<path fill="none" stroke="midnightblue" d="M706.09,-150.77C730.35,-135.15 768.53,-110.56 788.62,-97.62"/>
<polygon fill="midnightblue" stroke="midnightblue" points="704.05,-147.92 697.54,-156.28 707.84,-153.81 704.05,-147.92"/>
</g>
<!-- Node14 -->
<g id="node14" class="node">
<title>Node14</title>
<g id="a_node14"><a xlink:href="../../d1/dd1/vlayoutpaper_8cpp.html" target="_top" xlink:title=" ">
<polygon fill="white" stroke="black" points="595,-6 595,-25 773,-25 773,-6 595,-6"/>
<text text-anchor="middle" x="684" y="-13" font-family="Helvetica,sans-Serif" font-size="10.00">src/libs/vlayout/vlayoutpaper.cpp</text>
</a>
</g>
</g>
<!-- Node9&#45;&gt;Node14 -->
<g id="edge17" class="edge">
<title>Node9&#45;&gt;Node14</title>
<path fill="none" stroke="midnightblue" d="M684,-145.74C684,-113.16 684,-48.42 684,-25.11"/>
<polygon fill="midnightblue" stroke="midnightblue" points="680.5,-146.16 684,-156.16 687.5,-146.16 680.5,-146.16"/>
</g>
<!-- Node15 -->
<g id="node15" class="node">
<title>Node15</title>
<g id="a_node15"><a xlink:href="../../d3/d39/vlayoutgenerator_8cpp.html" target="_top" xlink:title=" ">
<polygon fill="white" stroke="black" points="909.5,-78.5 909.5,-97.5 1106.5,-97.5 1106.5,-78.5 909.5,-78.5"/>
<text text-anchor="middle" x="1008" y="-85.5" font-family="Helvetica,sans-Serif" font-size="10.00">src/libs/vlayout/vlayoutgenerator.cpp</text>
</a>
</g>
</g>
<!-- Node9&#45;&gt;Node15 -->
<g id="edge16" class="edge">
<title>Node9&#45;&gt;Node15</title>
<path fill="none" stroke="midnightblue" d="M730.52,-154.09C795.6,-138.82 912.46,-111.41 971.6,-97.54"/>
<polygon fill="midnightblue" stroke="midnightblue" points="729.47,-150.74 720.54,-156.43 731.07,-157.55 729.47,-150.74"/>
</g>
<!-- Node16 -->
<g id="node16" class="node">
<title>Node16</title>
<g id="a_node16"><a xlink:href="../../db/d5c/vposition_8h.html" target="_top" xlink:title=" ">
<polygon fill="white" stroke="red" points="508,-78.5 508,-97.5 656,-97.5 656,-78.5 508,-78.5"/>
<text text-anchor="middle" x="582" y="-85.5" font-family="Helvetica,sans-Serif" font-size="10.00">src/libs/vlayout/vposition.h</text>
</a>
</g>
</g>
<!-- Node9&#45;&gt;Node16 -->
<g id="edge18" class="edge">
<title>Node9&#45;&gt;Node16</title>
<path fill="none" stroke="midnightblue" d="M664.07,-150.15C643.07,-134.5 610.7,-110.38 593.56,-97.62"/>
<polygon fill="midnightblue" stroke="midnightblue" points="662.19,-153.11 672.3,-156.28 666.37,-147.5 662.19,-153.11"/>
</g>
<!-- Node18 -->
<g id="node17" class="node">
<title>Node18</title>
<g id="a_node17"><a xlink:href="../../dd/d70/vlayoutpiece_8cpp.html" target="_top" xlink:title=" ">
<polygon fill="white" stroke="black" points="1124.5,-78.5 1124.5,-97.5 1301.5,-97.5 1301.5,-78.5 1124.5,-78.5"/>
<text text-anchor="middle" x="1213" y="-85.5" font-family="Helvetica,sans-Serif" font-size="10.00">src/libs/vlayout/vlayoutpiece.cpp</text>
</a>
</g>
</g>
<!-- Node9&#45;&gt;Node18 -->
<g id="edge20" class="edge">
<title>Node9&#45;&gt;Node18</title>
<path fill="none" stroke="midnightblue" d="M773.04,-155.33C860.38,-145.4 997.23,-128.64 1115,-109 1134.7,-105.71 1156.47,-101.35 1174.49,-97.53"/>
<polygon fill="midnightblue" stroke="midnightblue" points="772.44,-151.88 762.9,-156.48 773.23,-158.83 772.44,-151.88"/>
</g>
<!-- Node13&#45;&gt;Node14 -->
<g id="edge15" class="edge">
<title>Node13&#45;&gt;Node14</title>
<path fill="none" stroke="midnightblue" d="M778.77,-73.12C754.96,-58.89 718.65,-37.2 698.59,-25.22"/>
<polygon fill="midnightblue" stroke="midnightblue" points="777.15,-76.23 787.53,-78.36 780.74,-70.22 777.15,-76.23"/>
</g>
<!-- Node16&#45;&gt;Node14 -->
<g id="edge19" class="edge">
<title>Node16&#45;&gt;Node14</title>
<path fill="none" stroke="midnightblue" d="M602.9,-72.55C623.5,-58.32 654.28,-37.04 671.39,-25.22"/>
<polygon fill="midnightblue" stroke="midnightblue" points="600.74,-69.79 594.51,-78.36 604.72,-75.55 600.74,-69.79"/>
</g>
<!-- Node20&#45;&gt;Node4 -->
<g id="edge41" class="edge">
<title>Node20&#45;&gt;Node4</title>
<path fill="none" stroke="midnightblue" d="M3260.08,-163.62C2879.84,-158.54 1615.54,-139.48 1436,-109 1427.85,-107.62 1419.31,-105.43 1411.23,-103"/>
<polygon fill="midnightblue" stroke="midnightblue" points="3260.21,-167.13 3270.26,-163.76 3260.3,-160.13 3260.21,-167.13"/>
</g>
<!-- Node20&#45;&gt;Node7 -->
<g id="edge25" class="edge">
<title>Node20&#45;&gt;Node7</title>
<path fill="none" stroke="midnightblue" d="M3260.26,-162.45C2884.42,-153.43 1649.69,-122.92 1566,-109 1557.73,-107.62 1549.05,-105.47 1540.82,-103.08"/>
<polygon fill="midnightblue" stroke="midnightblue" points="3260.24,-165.95 3270.32,-162.69 3260.41,-158.95 3260.24,-165.95"/>
</g>
<!-- Node20&#45;&gt;Node18 -->
<g id="edge35" class="edge">
<title>Node20&#45;&gt;Node18</title>
<path fill="none" stroke="midnightblue" d="M3260.31,-164.57C2893.32,-162.73 1693.2,-153.37 1310,-109 1288.82,-106.55 1265.4,-101.78 1246.88,-97.51"/>
<polygon fill="midnightblue" stroke="midnightblue" points="3260.38,-168.07 3270.4,-164.62 3260.42,-161.07 3260.38,-168.07"/>
</g>
<!-- Node20&#45;&gt;Node19 -->
<g id="edge36" class="edge">
<title>Node20&#45;&gt;Node19</title>
<path fill="none" stroke="midnightblue" d="M3260.04,-157.58C3195.61,-153.37 3112.16,-148.3 3038,-145 2473,-119.89 2327.96,-172.69 1766,-109 1744.36,-106.55 1720.43,-101.83 1701.41,-97.6"/>
<polygon fill="midnightblue" stroke="midnightblue" points="3260.01,-161.08 3270.21,-158.24 3260.47,-154.1 3260.01,-161.08"/>
</g>
<!-- Node21 -->
<g id="node20" class="node">
<title>Node21</title>
<g id="a_node20"><a xlink:href="../../d4/d90/fvupdater_8cpp.html" target="_top" xlink:title=" ">
<polygon fill="white" stroke="black" points="3140.5,-78.5 3140.5,-97.5 3293.5,-97.5 3293.5,-78.5 3140.5,-78.5"/>
<text text-anchor="middle" x="3217" y="-85.5" font-family="Helvetica,sans-Serif" font-size="10.00">src/libs/fervor/fvupdater.cpp</text>
</a>
</g>
</g>
<!-- Node20&#45;&gt;Node21 -->
<g id="edge23" class="edge">
<title>Node20&#45;&gt;Node21</title>
<path fill="none" stroke="midnightblue" d="M3341.68,-151.75C3310.8,-136.21 3260.47,-110.88 3234.2,-97.66"/>
<polygon fill="midnightblue" stroke="midnightblue" points="3340.47,-155.06 3350.97,-156.43 3343.61,-148.81 3340.47,-155.06"/>
</g>
<!-- Node22 -->
<g id="node21" class="node">
<title>Node22</title>
<g id="a_node21"><a xlink:href="../../d1/d8d/image__item_8h.html" target="_top" xlink:title=" ">
<polygon fill="white" stroke="red" points="3312,-73 3312,-103 3424,-103 3424,-73 3312,-73"/>
<text text-anchor="start" x="3320" y="-91" font-family="Helvetica,sans-Serif" font-size="10.00">src/libs/tools/image</text>
<text text-anchor="middle" x="3368" y="-80" font-family="Helvetica,sans-Serif" font-size="10.00">_item.h</text>
</a>
</g>
</g>
<!-- Node20&#45;&gt;Node22 -->
<g id="edge24" class="edge">
<title>Node20&#45;&gt;Node22</title>
<path fill="none" stroke="midnightblue" d="M3368,-146.28C3368,-132.9 3368,-115.19 3368,-103.02"/>
<polygon fill="midnightblue" stroke="midnightblue" points="3364.5,-146.28 3368,-156.28 3371.5,-146.28 3364.5,-146.28"/>
</g>
<!-- Node32 -->
<g id="node22" class="node">
<title>Node32</title>
<g id="a_node22"><a xlink:href="../../d9/dc8/dxiface_8cpp.html" target="_top" xlink:title=" ">
<polygon fill="white" stroke="black" points="3442.5,-78.5 3442.5,-97.5 3577.5,-97.5 3577.5,-78.5 3442.5,-78.5"/>
<text text-anchor="middle" x="3510" y="-85.5" font-family="Helvetica,sans-Serif" font-size="10.00">src/libs/vdxf/dxiface.cpp</text>
</a>
</g>
</g>
<!-- Node20&#45;&gt;Node32 -->
<g id="edge26" class="edge">
<title>Node20&#45;&gt;Node32</title>
<path fill="none" stroke="midnightblue" d="M3393.13,-151.55C3422.2,-135.99 3469.23,-110.82 3493.83,-97.66"/>
<polygon fill="midnightblue" stroke="midnightblue" points="3391.18,-148.62 3384.01,-156.43 3394.48,-154.8 3391.18,-148.62"/>
</g>
<!-- Node33 -->
<g id="node23" class="node">
<title>Node33</title>
<g id="a_node23"><a xlink:href="../../da/d75/vabstractarc__p_8h.html" target="_top" xlink:title=" ">
<polygon fill="white" stroke="red" points="3595.5,-73 3595.5,-103 3702.5,-103 3702.5,-73 3595.5,-73"/>
<text text-anchor="start" x="3603.5" y="-91" font-family="Helvetica,sans-Serif" font-size="10.00">src/libs/vgeometry</text>
<text text-anchor="middle" x="3649" y="-80" font-family="Helvetica,sans-Serif" font-size="10.00">/vabstractarc_p.h</text>
</a>
</g>
</g>
<!-- Node20&#45;&gt;Node33 -->
<g id="edge27" class="edge">
<title>Node20&#45;&gt;Node33</title>
<path fill="none" stroke="midnightblue" d="M3413.53,-154.09C3457.77,-143.31 3526.76,-126 3586,-109 3592.4,-107.16 3599.13,-105.13 3605.72,-103.09"/>
<polygon fill="midnightblue" stroke="midnightblue" points="3412.55,-150.73 3403.66,-156.49 3414.2,-157.53 3412.55,-150.73"/>
</g>
<!-- Node35 -->
<g id="node24" class="node">
<title>Node35</title>
<g id="a_node24"><a xlink:href="../../dc/da3/varc__p_8h.html" target="_top" xlink:title=" ">
<polygon fill="white" stroke="red" points="3720.5,-73 3720.5,-103 3827.5,-103 3827.5,-73 3720.5,-73"/>
<text text-anchor="start" x="3728.5" y="-91" font-family="Helvetica,sans-Serif" font-size="10.00">src/libs/vgeometry</text>
<text text-anchor="middle" x="3774" y="-80" font-family="Helvetica,sans-Serif" font-size="10.00">/varc_p.h</text>
</a>
</g>
</g>
<!-- Node20&#45;&gt;Node35 -->
<g id="edge28" class="edge">
<title>Node20&#45;&gt;Node35</title>
<path fill="none" stroke="midnightblue" d="M3448.95,-155.17C3518.88,-145.87 3622.35,-130.19 3711,-109 3718.03,-107.32 3725.42,-105.25 3732.56,-103.1"/>
<polygon fill="midnightblue" stroke="midnightblue" points="3448.34,-151.72 3438.89,-156.49 3449.26,-158.66 3448.34,-151.72"/>
</g>
<!-- Node37 -->
<g id="node25" class="node">
<title>Node37</title>
<g id="a_node25"><a xlink:href="../../d5/d8e/vcubicbezier__p_8h.html" target="_top" xlink:title=" ">
<polygon fill="white" stroke="red" points="3845.5,-73 3845.5,-103 3952.5,-103 3952.5,-73 3845.5,-73"/>
<text text-anchor="start" x="3853.5" y="-91" font-family="Helvetica,sans-Serif" font-size="10.00">src/libs/vgeometry</text>
<text text-anchor="middle" x="3899" y="-80" font-family="Helvetica,sans-Serif" font-size="10.00">/vcubicbezier_p.h</text>
</a>
</g>
</g>
<!-- Node20&#45;&gt;Node37 -->
<g id="edge29" class="edge">
<title>Node20&#45;&gt;Node37</title>
<path fill="none" stroke="midnightblue" d="M3475.93,-157.88C3571.41,-150.22 3714.08,-135.4 3836,-109 3843.4,-107.4 3851.18,-105.29 3858.64,-103.05"/>
<polygon fill="midnightblue" stroke="midnightblue" points="3475.38,-154.42 3465.69,-158.69 3475.93,-161.39 3475.38,-154.42"/>
</g>
<!-- Node39 -->
<g id="node26" class="node">
<title>Node39</title>
<g id="a_node26"><a xlink:href="../../df/dde/vellipticalarc__p_8h.html" target="_top" xlink:title=" ">
<polygon fill="white" stroke="black" points="4848.5,-73 4848.5,-103 4955.5,-103 4955.5,-73 4848.5,-73"/>
<text text-anchor="start" x="4856.5" y="-91" font-family="Helvetica,sans-Serif" font-size="10.00">src/libs/vgeometry</text>
<text text-anchor="middle" x="4902" y="-80" font-family="Helvetica,sans-Serif" font-size="10.00">/vellipticalarc_p.h</text>
</a>
</g>
</g>
<!-- Node20&#45;&gt;Node39 -->
<g id="edge30" class="edge">
<title>Node20&#45;&gt;Node39</title>
<path fill="none" stroke="midnightblue" d="M3475.84,-164.34C3768.4,-162 4572.62,-151.75 4834,-109 4842.62,-107.59 4851.69,-105.42 4860.3,-103.03"/>
<polygon fill="midnightblue" stroke="midnightblue" points="3475.62,-160.84 3465.65,-164.42 3475.68,-167.84 3475.62,-160.84"/>
</g>
<!-- Node40 -->
<g id="node27" class="node">
<title>Node40</title>
<g id="a_node27"><a xlink:href="../../d6/dfb/vellipticalarc_8cpp.html" target="_top" xlink:title=" ">
<polygon fill="white" stroke="black" points="4807.5,-0.5 4807.5,-30.5 4914.5,-30.5 4914.5,-0.5 4807.5,-0.5"/>
<text text-anchor="start" x="4815.5" y="-18.5" font-family="Helvetica,sans-Serif" font-size="10.00">src/libs/vgeometry</text>
<text text-anchor="middle" x="4861" y="-7.5" font-family="Helvetica,sans-Serif" font-size="10.00">/vellipticalarc.cpp</text>
</a>
</g>
</g>
<!-- Node20&#45;&gt;Node40 -->
<g id="edge33" class="edge">
<title>Node20&#45;&gt;Node40</title>
<path fill="none" stroke="midnightblue" d="M3475.88,-163.49C3799.56,-158.6 4743.68,-141.61 4801,-109 4816.64,-100.1 4841.67,-54.39 4853.86,-30.73"/>
<polygon fill="midnightblue" stroke="midnightblue" points="3475.51,-159.99 3465.56,-163.64 3475.61,-166.99 3475.51,-159.99"/>
</g>
<!-- Node41 -->
<g id="node28" class="node">
<title>Node41</title>
<g id="a_node28"><a xlink:href="../../d1/d76/vspline__p_8h.html" target="_top" xlink:title=" ">
<polygon fill="white" stroke="red" points="3970.5,-73 3970.5,-103 4077.5,-103 4077.5,-73 3970.5,-73"/>
<text text-anchor="start" x="3978.5" y="-91" font-family="Helvetica,sans-Serif" font-size="10.00">src/libs/vgeometry</text>
<text text-anchor="middle" x="4024" y="-80" font-family="Helvetica,sans-Serif" font-size="10.00">/vspline_p.h</text>
</a>
</g>
</g>
<!-- Node20&#45;&gt;Node41 -->
<g id="edge32" class="edge">
<title>Node20&#45;&gt;Node41</title>
<path fill="none" stroke="midnightblue" d="M3476,-161.71C3595.63,-156.47 3793.74,-143.04 3961,-109 3968.53,-107.47 3976.44,-105.37 3984.01,-103.1"/>
<polygon fill="midnightblue" stroke="midnightblue" points="3475.58,-158.22 3465.74,-162.15 3475.88,-165.22 3475.58,-158.22"/>
</g>
<!-- Node43 -->
<g id="node29" class="node">
<title>Node43</title>
<g id="a_node29"><a xlink:href="../../d9/d15/vabstractpiece_8cpp.html" target="_top" xlink:title=" ">
<polygon fill="white" stroke="black" points="4096,-78.5 4096,-97.5 4282,-97.5 4282,-78.5 4096,-78.5"/>
<text text-anchor="middle" x="4189" y="-85.5" font-family="Helvetica,sans-Serif" font-size="10.00">src/libs/vlayout/vabstractpiece.cpp</text>
</a>
</g>
</g>
<!-- Node20&#45;&gt;Node43 -->
<g id="edge34" class="edge">
<title>Node20&#45;&gt;Node43</title>
<path fill="none" stroke="midnightblue" d="M3476,-160.42C3616.85,-153.56 3870.7,-138.2 4086,-109 4107.48,-106.09 4131.25,-101.56 4150.53,-97.55"/>
<polygon fill="midnightblue" stroke="midnightblue" points="3475.46,-156.94 3465.64,-160.92 3475.79,-163.93 3475.46,-156.94"/>
</g>
<!-- Node44 -->
<g id="node30" class="node">
<title>Node44</title>
<g id="a_node30"><a xlink:href="../../db/d65/dialogexporttocsv_8cpp.html" target="_top" xlink:title=" ">
<polygon fill="white" stroke="black" points="4300.5,-73 4300.5,-103 4427.5,-103 4427.5,-73 4300.5,-73"/>
<text text-anchor="start" x="4308.5" y="-91" font-family="Helvetica,sans-Serif" font-size="10.00">src/libs/vmisc/dialogs</text>
<text text-anchor="middle" x="4364" y="-80" font-family="Helvetica,sans-Serif" font-size="10.00">/dialogexporttocsv.cpp</text>
</a>
</g>
</g>
<!-- Node20&#45;&gt;Node44 -->
<g id="edge37" class="edge">
<title>Node20&#45;&gt;Node44</title>
<path fill="none" stroke="midnightblue" d="M3475.88,-165.65C3649,-165.09 3999.05,-157.31 4291,-109 4299.95,-107.52 4309.37,-105.38 4318.37,-103.05"/>
<polygon fill="midnightblue" stroke="midnightblue" points="3475.74,-162.15 3465.75,-165.68 3475.76,-169.15 3475.74,-162.15"/>
</g>
<!-- Node45 -->
<g id="node31" class="node">
<title>Node45</title>
<g id="a_node31"><a xlink:href="../../d6/d0b/def_8cpp.html" target="_top" xlink:title=" ">
<polygon fill="white" stroke="black" points="4446,-78.5 4446,-97.5 4568,-97.5 4568,-78.5 4446,-78.5"/>
<text text-anchor="middle" x="4507" y="-85.5" font-family="Helvetica,sans-Serif" font-size="10.00">src/libs/vmisc/def.cpp</text>
</a>
</g>
</g>
<!-- Node20&#45;&gt;Node45 -->
<g id="edge38" class="edge">
<title>Node20&#45;&gt;Node45</title>
<path fill="none" stroke="midnightblue" d="M3476.01,-162.38C3709.25,-156.24 4253.68,-139.07 4436,-109 4451.54,-106.44 4468.54,-101.72 4482.01,-97.51"/>
<polygon fill="midnightblue" stroke="midnightblue" points="3475.72,-158.89 3465.81,-162.65 3475.9,-165.89 3475.72,-158.89"/>
</g>
<!-- Node46 -->
<g id="node32" class="node">
<title>Node46</title>
<g id="a_node32"><a xlink:href="../../d0/df6/vabstractapplication_8cpp.html" target="_top" xlink:title=" ">
<polygon fill="white" stroke="black" points="4586,-78.5 4586,-97.5 4792,-97.5 4792,-78.5 4586,-78.5"/>
<text text-anchor="middle" x="4689" y="-85.5" font-family="Helvetica,sans-Serif" font-size="10.00">src/libs/vmisc/vabstractapplication.cpp</text>
</a>
</g>
</g>
<!-- Node20&#45;&gt;Node46 -->
<g id="edge39" class="edge">
<title>Node20&#45;&gt;Node46</title>
<path fill="none" stroke="midnightblue" d="M3475.68,-164.71C3687.35,-163.11 4172.26,-154.32 4577,-109 4600.85,-106.33 4627.29,-101.69 4648.49,-97.55"/>
<polygon fill="midnightblue" stroke="midnightblue" points="3475.48,-161.22 3465.5,-164.79 3475.53,-168.21 3475.48,-161.22"/>
</g>
<!-- Node47 -->
<g id="node33" class="node">
<title>Node47</title>
<g id="a_node33"><a xlink:href="../../d4/d4f/pmsystems_8cpp.html" target="_top" xlink:title=" ">
<polygon fill="white" stroke="black" points="1775.5,-73 1775.5,-103 1882.5,-103 1882.5,-73 1775.5,-73"/>
<text text-anchor="start" x="1783.5" y="-91" font-family="Helvetica,sans-Serif" font-size="10.00">src/libs/vpatterndb</text>
<text text-anchor="middle" x="1829" y="-80" font-family="Helvetica,sans-Serif" font-size="10.00">/pmsystems.cpp</text>
</a>
</g>
</g>
<!-- Node20&#45;&gt;Node47 -->
<g id="edge40" class="edge">
<title>Node20&#45;&gt;Node47</title>
<path fill="none" stroke="midnightblue" d="M3260.04,-157.66C3195.61,-153.48 3112.15,-148.41 3038,-145 2783.25,-133.29 2142.26,-152.57 1891,-109 1883.09,-107.63 1874.8,-105.48 1866.94,-103.09"/>
<polygon fill="midnightblue" stroke="midnightblue" points="3260,-161.17 3270.21,-158.32 3260.46,-154.18 3260,-161.17"/>
</g>
<!-- Node20&#45;&gt;Node48 -->
<g id="edge42" class="edge">
<title>Node20&#45;&gt;Node48</title>
<path fill="none" stroke="midnightblue" d="M3476.06,-165.03C3786.5,-164.51 4677.07,-158.62 4964,-109 4972.03,-107.61 4980.45,-105.46 4988.43,-103.06"/>
<polygon fill="midnightblue" stroke="midnightblue" points="3475.7,-161.53 3465.71,-165.05 3475.71,-168.53 3475.7,-161.53"/>
</g>
<!-- Node49 -->
<g id="node35" class="node">
<title>Node49</title>
<g id="a_node35"><a xlink:href="../../df/dba/vpiecenode__p_8h.html" target="_top" xlink:title=" ">
<polygon fill="white" stroke="black" points="1900.5,-73 1900.5,-103 2007.5,-103 2007.5,-73 1900.5,-73"/>
<text text-anchor="start" x="1908.5" y="-91" font-family="Helvetica,sans-Serif" font-size="10.00">src/libs/vpatterndb</text>
<text text-anchor="middle" x="1954" y="-80" font-family="Helvetica,sans-Serif" font-size="10.00">/vpiecenode_p.h</text>
</a>
</g>
</g>
<!-- Node20&#45;&gt;Node49 -->
<g id="edge43" class="edge">
<title>Node20&#45;&gt;Node49</title>
<path fill="none" stroke="midnightblue" d="M3260.03,-157.77C3195.6,-153.62 3112.15,-148.55 3038,-145 2811.23,-134.13 2240.71,-147.71 2017,-109 2008.97,-107.61 2000.55,-105.45 1992.57,-103.06"/>
<polygon fill="midnightblue" stroke="midnightblue" points="3260,-161.27 3270.21,-158.42 3260.45,-154.29 3260,-161.27"/>
</g>
<!-- Node20&#45;&gt;Node51 -->
<g id="edge45" class="edge">
<title>Node20&#45;&gt;Node51</title>
<path fill="none" stroke="midnightblue" d="M3475.96,-165.42C3802.73,-166.09 4777.8,-163.32 5090,-109 5097.91,-107.62 5106.2,-105.47 5114.06,-103.08"/>
<polygon fill="midnightblue" stroke="midnightblue" points="3475.56,-161.92 3465.55,-165.4 3475.54,-168.92 3475.56,-161.92"/>
</g>
<!-- Node52 -->
<g id="node38" class="node">
<title>Node52</title>
<g id="a_node38"><a xlink:href="../../de/d3e/vtranslatevars_8cpp.html" target="_top" xlink:title=" ">
<polygon fill="white" stroke="black" points="2026,-73 2026,-103 2136,-103 2136,-73 2026,-73"/>
<text text-anchor="start" x="2034" y="-91" font-family="Helvetica,sans-Serif" font-size="10.00">src/libs/vpatterndb</text>
<text text-anchor="middle" x="2081" y="-80" font-family="Helvetica,sans-Serif" font-size="10.00">/vtranslatevars.cpp</text>
</a>
</g>
</g>
<!-- Node20&#45;&gt;Node52 -->
<g id="edge46" class="edge">
<title>Node20&#45;&gt;Node52</title>
<path fill="none" stroke="midnightblue" d="M3260.03,-157.9C3195.59,-153.81 3112.14,-148.74 3038,-145 2839.65,-134.99 2340.69,-142.91 2145,-109 2136.86,-107.59 2128.31,-105.42 2120.2,-103.03"/>
<polygon fill="midnightblue" stroke="midnightblue" points="3260,-161.41 3270.2,-158.55 3260.44,-154.42 3260,-161.41"/>
</g>
<!-- Node26 -->
<g id="node39" class="node">
<title>Node26</title>
<g id="a_node39"><a xlink:href="../../df/d40/export__format__combobox_8cpp.html" target="_top" xlink:title=" ">
<polygon fill="white" stroke="black" points="2154.5,-73 2154.5,-103 2287.5,-103 2287.5,-73 2154.5,-73"/>
<text text-anchor="start" x="2162.5" y="-91" font-family="Helvetica,sans-Serif" font-size="10.00">src/libs/vwidgets/export</text>
<text text-anchor="middle" x="2221" y="-80" font-family="Helvetica,sans-Serif" font-size="10.00">_format_combobox.cpp</text>
</a>
</g>
</g>
<!-- Node20&#45;&gt;Node26 -->
<g id="edge47" class="edge">
<title>Node20&#45;&gt;Node26</title>
<path fill="none" stroke="midnightblue" d="M3260.01,-158.13C3195.58,-154.11 3112.12,-149.05 3038,-145 2708.77,-127.03 2622.87,-159.23 2297,-109 2287.56,-107.55 2277.6,-105.39 2268.11,-103.03"/>
<polygon fill="midnightblue" stroke="midnightblue" points="3259.99,-161.63 3270.19,-158.76 3260.43,-154.65 3259.99,-161.63"/>
</g>
<!-- Node53 -->
<g id="node40" class="node">
<title>Node53</title>
<g id="a_node40"><a xlink:href="../../d3/d4f/mouse__coordinates_8cpp.html" target="_top" xlink:title=" ">
<polygon fill="white" stroke="black" points="2306,-73 2306,-103 2440,-103 2440,-73 2306,-73"/>
<text text-anchor="start" x="2314" y="-91" font-family="Helvetica,sans-Serif" font-size="10.00">src/libs/vwidgets/mouse</text>
<text text-anchor="middle" x="2373" y="-80" font-family="Helvetica,sans-Serif" font-size="10.00">_coordinates.cpp</text>
</a>
</g>
</g>
<!-- Node20&#45;&gt;Node53 -->
<g id="edge48" class="edge">
<title>Node20&#45;&gt;Node53</title>
<path fill="none" stroke="midnightblue" d="M3260.16,-158.46C3017.92,-143.77 2451.48,-109.4 2449,-109 2439.7,-107.51 2429.9,-105.37 2420.53,-103.04"/>
<polygon fill="midnightblue" stroke="midnightblue" points="3260.2,-161.97 3270.4,-159.08 3260.63,-154.98 3260.2,-161.97"/>
</g>
<!-- Node29 -->
<g id="node41" class="node">
<title>Node29</title>
<g id="a_node41"><a xlink:href="../../d2/d28/page__format__combobox_8cpp.html" target="_top" xlink:title=" ">
<polygon fill="white" stroke="black" points="2458.5,-73 2458.5,-103 2589.5,-103 2589.5,-73 2458.5,-73"/>
<text text-anchor="start" x="2466.5" y="-91" font-family="Helvetica,sans-Serif" font-size="10.00">src/libs/vwidgets/page</text>
<text text-anchor="middle" x="2524" y="-80" font-family="Helvetica,sans-Serif" font-size="10.00">_format_combobox.cpp</text>
</a>
</g>
</g>
<!-- Node20&#45;&gt;Node29 -->
<g id="edge49" class="edge">
<title>Node20&#45;&gt;Node29</title>
<path fill="none" stroke="midnightblue" d="M3260.07,-158.3C3063.5,-145.93 2661.48,-119.78 2598,-109 2589.08,-107.48 2579.68,-105.36 2570.68,-103.06"/>
<polygon fill="midnightblue" stroke="midnightblue" points="3259.93,-161.8 3270.13,-158.93 3260.37,-154.81 3259.93,-161.8"/>
</g>
<!-- Node54 -->
<g id="node42" class="node">
<title>Node54</title>
<g id="a_node42"><a xlink:href="../../d7/d1b/pen__toolbar_8cpp.html" target="_top" xlink:title=" ">
<polygon fill="white" stroke="black" points="2607.5,-73 2607.5,-103 2726.5,-103 2726.5,-73 2607.5,-73"/>
<text text-anchor="start" x="2615.5" y="-91" font-family="Helvetica,sans-Serif" font-size="10.00">src/libs/vwidgets/pen</text>
<text text-anchor="middle" x="2667" y="-80" font-family="Helvetica,sans-Serif" font-size="10.00">_toolbar.cpp</text>
</a>
</g>
</g>
<!-- Node20&#45;&gt;Node54 -->
<g id="edge50" class="edge">
<title>Node20&#45;&gt;Node54</title>
<path fill="none" stroke="midnightblue" d="M3260.02,-157.97C3106.64,-147.55 2833.5,-127.27 2736,-109 2727.79,-107.46 2719.15,-105.36 2710.86,-103.09"/>
<polygon fill="midnightblue" stroke="midnightblue" points="3260.18,-161.49 3270.4,-158.67 3260.66,-154.51 3260.18,-161.49"/>
</g>
<!-- Node55 -->
<g id="node43" class="node">
<title>Node55</title>
<g id="a_node43"><a xlink:href="../../d8/d76/scene__rect_8cpp.html" target="_top" xlink:title=" ">
<polygon fill="white" stroke="black" points="2745,-73 2745,-103 2875,-103 2875,-73 2745,-73"/>
<text text-anchor="start" x="2753" y="-91" font-family="Helvetica,sans-Serif" font-size="10.00">src/libs/vwidgets/scene</text>
<text text-anchor="middle" x="2810" y="-80" font-family="Helvetica,sans-Serif" font-size="10.00">_rect.cpp</text>
</a>
</g>
</g>
<!-- Node20&#45;&gt;Node55 -->
<g id="edge51" class="edge">
<title>Node20&#45;&gt;Node55</title>
<path fill="none" stroke="midnightblue" d="M3260.5,-157.18C3161.96,-148.92 3012.3,-133.62 2884,-109 2875.5,-107.37 2866.55,-105.28 2857.92,-103.06"/>
<polygon fill="midnightblue" stroke="midnightblue" points="3260.22,-160.66 3270.47,-158 3260.8,-153.69 3260.22,-160.66"/>
</g>
<!-- Node56 -->
<g id="node44" class="node">
<title>Node56</title>
<g id="a_node44"><a xlink:href="../../dd/df6/vabstractmainwindow_8cpp.html" target="_top" xlink:title=" ">
<polygon fill="white" stroke="black" points="2893.5,-78.5 2893.5,-97.5 3122.5,-97.5 3122.5,-78.5 2893.5,-78.5"/>
<text text-anchor="middle" x="3008" y="-85.5" font-family="Helvetica,sans-Serif" font-size="10.00">src/libs/vwidgets/vabstractmainwindow.cpp</text>
</a>
</g>
</g>
<!-- Node20&#45;&gt;Node56 -->
<g id="edge52" class="edge">
<title>Node20&#45;&gt;Node56</title>
<path fill="none" stroke="midnightblue" d="M3317.2,-154.28C3245.07,-139.05 3114.43,-111.47 3048.45,-97.54"/>
<polygon fill="midnightblue" stroke="midnightblue" points="3316.9,-157.79 3327.4,-156.43 3318.34,-150.94 3316.9,-157.79"/>
</g>
<!-- Node39&#45;&gt;Node40 -->
<g id="edge31" class="edge">
<title>Node39&#45;&gt;Node40</title>
<path fill="none" stroke="midnightblue" d="M4888.66,-64.06C4882.28,-53.09 4874.84,-40.3 4869.28,-30.75"/>
<polygon fill="midnightblue" stroke="midnightblue" points="4885.65,-65.85 4893.7,-72.73 4891.7,-62.33 4885.65,-65.85"/>
</g>
<!-- Node49&#45;&gt;Node50 -->
<g id="edge44" class="edge">
<title>Node49&#45;&gt;Node50</title>
<path fill="none" stroke="midnightblue" d="M2002.46,-70.19C2007.33,-68.93 2012.23,-67.83 2017,-67 2263.76,-23.88 3055.94,-17.57 3270.16,-16.66"/>
<polygon fill="midnightblue" stroke="midnightblue" points="2001.26,-66.89 1992.58,-72.96 2003.15,-73.63 2001.26,-66.89"/>
</g>
<!-- Node67&#45;&gt;Node3 -->
<g id="edge55" class="edge">
<title>Node67&#45;&gt;Node3</title>
<path fill="none" stroke="midnightblue" d="M5920.84,-136.76C5926.78,-127.35 5933.26,-117.1 5938.68,-108.51"/>
<polygon fill="midnightblue" stroke="midnightblue" points="5917.74,-135.1 5915.36,-145.43 5923.66,-138.84 5917.74,-135.1"/>
</g>
</g>
</svg>
