<?xml version="1.0" encoding="UTF-8" standalone="no"?>
<!DOCTYPE svg PUBLIC "-//W3C//DTD SVG 1.1//EN"
 "http://www.w3.org/Graphics/SVG/1.1/DTD/svg11.dtd">
<!-- Generated by graphviz version 2.43.0 (0)
 -->
<!-- Title: src/libs/vpatterndb/variables/measurement_variable.h Pages: 1 -->
<svg width="6357pt" height="407pt"
 viewBox="0.00 0.00 6357.29 407.00" xmlns="http://www.w3.org/2000/svg" xmlns:xlink="http://www.w3.org/1999/xlink">
<g id="graph0" class="graph" transform="scale(1 1) rotate(0) translate(4 403)">
<title>src/libs/vpatterndb/variables/measurement_variable.h</title>
<polygon fill="white" stroke="transparent" points="-4,4 -4,-403 6353.29,-403 6353.29,4 -4,4"/>
<!-- Node1 -->
<g id="node1" class="node">
<title>Node1</title>
<g id="a_node1"><a xlink:title=" ">
<polygon fill="#bfbfbf" stroke="black" points="5994,-357.5 5994,-398.5 6130,-398.5 6130,-357.5 5994,-357.5"/>
<text text-anchor="start" x="6002" y="-386.5" font-family="Helvetica,sans-Serif" font-size="10.00">src/libs/vpatterndb</text>
<text text-anchor="start" x="6002" y="-375.5" font-family="Helvetica,sans-Serif" font-size="10.00">/variables/measurement</text>
<text text-anchor="middle" x="6062" y="-364.5" font-family="Helvetica,sans-Serif" font-size="10.00">_variable.h</text>
</a>
</g>
</g>
<!-- Node2 -->
<g id="node2" class="node">
<title>Node2</title>
<g id="a_node2"><a xlink:href="../../d9/de3/measurements_8cpp.html" target="_top" xlink:title=" ">
<polygon fill="white" stroke="black" points="6119,-78.5 6119,-97.5 6309,-97.5 6309,-78.5 6119,-78.5"/>
<text text-anchor="middle" x="6214" y="-85.5" font-family="Helvetica,sans-Serif" font-size="10.00">src/libs/vformat/measurements.cpp</text>
</a>
</g>
</g>
<!-- Node1&#45;&gt;Node2 -->
<g id="edge1" class="edge">
<title>Node1&#45;&gt;Node2</title>
<path fill="none" stroke="midnightblue" d="M6140.11,-362.99C6200.75,-347.56 6280.88,-316.16 6320,-254 6346.05,-212.61 6361.33,-186.2 6335,-145 6318.55,-119.25 6286.89,-105.17 6260.08,-97.57"/>
<polygon fill="midnightblue" stroke="midnightblue" points="6139.06,-359.64 6130.18,-365.42 6140.72,-366.44 6139.06,-359.64"/>
</g>
<!-- Node3 -->
<g id="node3" class="node">
<title>Node3</title>
<g id="a_node3"><a xlink:href="../../d4/da4/measurement__variable_8cpp.html" target="_top" xlink:title=" ">
<polygon fill="white" stroke="black" points="5949,-67.5 5949,-108.5 6085,-108.5 6085,-67.5 5949,-67.5"/>
<text text-anchor="start" x="5957" y="-96.5" font-family="Helvetica,sans-Serif" font-size="10.00">src/libs/vpatterndb</text>
<text text-anchor="start" x="5957" y="-85.5" font-family="Helvetica,sans-Serif" font-size="10.00">/variables/measurement</text>
<text text-anchor="middle" x="6017" y="-74.5" font-family="Helvetica,sans-Serif" font-size="10.00">_variable.cpp</text>
</a>
</g>
</g>
<!-- Node1&#45;&gt;Node3 -->
<g id="edge2" class="edge">
<title>Node1&#45;&gt;Node3</title>
<path fill="none" stroke="midnightblue" d="M6123.49,-353.61C6218.75,-314 6384.02,-229.72 6313,-145 6283.57,-109.89 6154.96,-117.82 6110,-109 6101.9,-107.41 6093.41,-105.68 6085,-103.92"/>
<polygon fill="midnightblue" stroke="midnightblue" points="6122.13,-350.38 6114.21,-357.42 6124.79,-356.86 6122.13,-350.38"/>
</g>
<!-- Node4 -->
<g id="node4" class="node">
<title>Node4</title>
<g id="a_node4"><a xlink:href="../../de/dca/variables_8h.html" target="_top" xlink:title=" ">
<polygon fill="white" stroke="black" points="5469.5,-290.5 5469.5,-320.5 5576.5,-320.5 5576.5,-290.5 5469.5,-290.5"/>
<text text-anchor="start" x="5477.5" y="-308.5" font-family="Helvetica,sans-Serif" font-size="10.00">src/libs/vpatterndb</text>
<text text-anchor="middle" x="5523" y="-297.5" font-family="Helvetica,sans-Serif" font-size="10.00">/variables.h</text>
</a>
</g>
</g>
<!-- Node1&#45;&gt;Node4 -->
<g id="edge3" class="edge">
<title>Node1&#45;&gt;Node4</title>
<path fill="none" stroke="midnightblue" d="M5983.6,-366.74C5872.49,-352.21 5672.12,-326 5576.54,-313.5"/>
<polygon fill="midnightblue" stroke="midnightblue" points="5983.37,-370.24 5993.74,-368.07 5984.27,-363.3 5983.37,-370.24"/>
</g>
<!-- Node48 -->
<g id="node34" class="node">
<title>Node48</title>
<g id="a_node34"><a xlink:href="../../d6/d46/vcontainer_8cpp.html" target="_top" xlink:title=" ">
<polygon fill="white" stroke="black" points="4974.5,-73 4974.5,-103 5081.5,-103 5081.5,-73 4974.5,-73"/>
<text text-anchor="start" x="4982.5" y="-91" font-family="Helvetica,sans-Serif" font-size="10.00">src/libs/vpatterndb</text>
<text text-anchor="middle" x="5028" y="-80" font-family="Helvetica,sans-Serif" font-size="10.00">/vcontainer.cpp</text>
</a>
</g>
</g>
<!-- Node1&#45;&gt;Node48 -->
<g id="edge63" class="edge">
<title>Node1&#45;&gt;Node48</title>
<path fill="none" stroke="midnightblue" d="M5983.35,-377.76C5826.9,-376.75 5467.87,-361.71 5191,-254 5132.98,-231.43 5109.5,-233.4 5068,-187 5045.95,-162.35 5035.13,-123.91 5030.65,-103.26"/>
<polygon fill="midnightblue" stroke="midnightblue" points="5983.79,-381.26 5993.81,-377.81 5983.83,-374.26 5983.79,-381.26"/>
</g>
<!-- Node5 -->
<g id="node5" class="node">
<title>Node5</title>
<g id="a_node5"><a xlink:href="../../d3/df7/vcontainer_8h.html" target="_top" xlink:title=" ">
<polygon fill="white" stroke="black" points="5200.5,-223.5 5200.5,-253.5 5307.5,-253.5 5307.5,-223.5 5200.5,-223.5"/>
<text text-anchor="start" x="5208.5" y="-241.5" font-family="Helvetica,sans-Serif" font-size="10.00">src/libs/vpatterndb</text>
<text text-anchor="middle" x="5254" y="-230.5" font-family="Helvetica,sans-Serif" font-size="10.00">/vcontainer.h</text>
</a>
</g>
</g>
<!-- Node4&#45;&gt;Node5 -->
<g id="edge4" class="edge">
<title>Node4&#45;&gt;Node5</title>
<path fill="none" stroke="midnightblue" d="M5459.31,-289.11C5413.13,-277.95 5351.38,-263.03 5307.7,-252.47"/>
<polygon fill="midnightblue" stroke="midnightblue" points="5458.67,-292.56 5469.21,-291.5 5460.31,-285.75 5458.67,-292.56"/>
</g>
<!-- Node5&#45;&gt;Node2 -->
<g id="edge8" class="edge">
<title>Node5&#45;&gt;Node2</title>
<path fill="none" stroke="midnightblue" d="M5317.78,-236.3C5499.14,-232.52 6009.09,-219.13 6077,-187 6100.03,-176.11 6096.05,-160.83 6116,-145 6141.33,-124.9 6174.72,-107.45 6195.26,-97.58"/>
<polygon fill="midnightblue" stroke="midnightblue" points="5317.52,-232.81 5307.6,-236.51 5317.67,-239.81 5317.52,-232.81"/>
</g>
<!-- Node6 -->
<g id="node6" class="node">
<title>Node6</title>
<g id="a_node6"><a xlink:href="../../d2/d47/image__dialog_8cpp.html" target="_top" xlink:title=" ">
<polygon fill="white" stroke="black" points="1320,-73 1320,-103 1432,-103 1432,-73 1320,-73"/>
<text text-anchor="start" x="1328" y="-91" font-family="Helvetica,sans-Serif" font-size="10.00">src/libs/tools/image</text>
<text text-anchor="middle" x="1376" y="-80" font-family="Helvetica,sans-Serif" font-size="10.00">_dialog.cpp</text>
</a>
</g>
</g>
<!-- Node5&#45;&gt;Node6 -->
<g id="edge5" class="edge">
<title>Node5&#45;&gt;Node6</title>
<path fill="none" stroke="midnightblue" d="M5190.19,-237.41C4798.45,-236.71 2715.01,-230.94 2078,-187 1793.45,-167.37 1719.95,-168.51 1441,-109 1433.38,-107.37 1425.37,-105.26 1417.67,-103.01"/>
<polygon fill="midnightblue" stroke="midnightblue" points="5190.47,-240.91 5200.48,-237.43 5190.48,-233.91 5190.47,-240.91"/>
</g>
<!-- Node7 -->
<g id="node7" class="node">
<title>Node7</title>
<g id="a_node7"><a xlink:href="../../dc/db7/measurements_8h.html" target="_top" xlink:title=" ">
<polygon fill="white" stroke="black" points="6124.5,-156.5 6124.5,-175.5 6303.5,-175.5 6303.5,-156.5 6124.5,-156.5"/>
<text text-anchor="middle" x="6214" y="-163.5" font-family="Helvetica,sans-Serif" font-size="10.00">src/libs/vformat/measurements.h</text>
</a>
</g>
</g>
<!-- Node5&#45;&gt;Node7 -->
<g id="edge6" class="edge">
<title>Node5&#45;&gt;Node7</title>
<path fill="none" stroke="midnightblue" d="M5318.13,-236.58C5460.91,-233.92 5815.65,-223.82 6110,-187 6132.08,-184.24 6156.52,-179.62 6176.16,-175.52"/>
<polygon fill="midnightblue" stroke="midnightblue" points="5317.74,-233.09 5307.81,-236.77 5317.87,-240.09 5317.74,-233.09"/>
</g>
<!-- Node8 -->
<g id="node8" class="node">
<title>Node8</title>
<g id="a_node8"><a xlink:href="../../d6/de0/vlayoutpiece_8h.html" target="_top" xlink:title=" ">
<polygon fill="white" stroke="black" points="715,-156.5 715,-175.5 881,-175.5 881,-156.5 715,-156.5"/>
<text text-anchor="middle" x="798" y="-163.5" font-family="Helvetica,sans-Serif" font-size="10.00">src/libs/vlayout/vlayoutpiece.h</text>
</a>
</g>
</g>
<!-- Node5&#45;&gt;Node8 -->
<g id="edge9" class="edge">
<title>Node5&#45;&gt;Node8</title>
<path fill="none" stroke="midnightblue" d="M5190.12,-236.67C4846.75,-232.19 3185.39,-210.21 1827,-187 1475.28,-180.99 1055.96,-172.4 881.03,-168.75"/>
<polygon fill="midnightblue" stroke="midnightblue" points="5190.32,-240.17 5200.37,-236.8 5190.41,-233.17 5190.32,-240.17"/>
</g>
<!-- Node18 -->
<g id="node17" class="node">
<title>Node18</title>
<g id="a_node17"><a xlink:href="../../d8/d70/vtextmanager_8cpp.html" target="_top" xlink:title=" ">
<polygon fill="white" stroke="black" points="1450,-78.5 1450,-97.5 1632,-97.5 1632,-78.5 1450,-78.5"/>
<text text-anchor="middle" x="1541" y="-85.5" font-family="Helvetica,sans-Serif" font-size="10.00">src/libs/vlayout/vtextmanager.cpp</text>
</a>
</g>
</g>
<!-- Node5&#45;&gt;Node18 -->
<g id="edge20" class="edge">
<title>Node5&#45;&gt;Node18</title>
<path fill="none" stroke="midnightblue" d="M5190.27,-236.75C4767.93,-231.53 2367.29,-198.27 1641,-109 1619.56,-106.36 1595.85,-101.7 1576.89,-97.54"/>
<polygon fill="midnightblue" stroke="midnightblue" points="5190.41,-240.25 5200.46,-236.87 5190.5,-233.25 5190.41,-240.25"/>
</g>
<!-- Node19 -->
<g id="node18" class="node">
<title>Node19</title>
<g id="a_node18"><a xlink:href="../../d5/d74/vabstractapplication_8h.html" target="_top" xlink:title=" ">
<polygon fill="white" stroke="red" points="3301.5,-156.5 3301.5,-175.5 3496.5,-175.5 3496.5,-156.5 3301.5,-156.5"/>
<text text-anchor="middle" x="3399" y="-163.5" font-family="Helvetica,sans-Serif" font-size="10.00">src/libs/vmisc/vabstractapplication.h</text>
</a>
</g>
</g>
<!-- Node5&#45;&gt;Node19 -->
<g id="edge21" class="edge">
<title>Node5&#45;&gt;Node19</title>
<path fill="none" stroke="midnightblue" d="M5190.28,-235.08C4915.37,-224.63 3829.66,-183.37 3496.64,-170.71"/>
<polygon fill="midnightblue" stroke="midnightblue" points="5190.36,-238.58 5200.48,-235.47 5190.62,-231.59 5190.36,-238.58"/>
</g>
<!-- Node47 -->
<g id="node33" class="node">
<title>Node47</title>
<g id="a_node33"><a xlink:href="../../db/d11/vformula_8cpp.html" target="_top" xlink:title=" ">
<polygon fill="white" stroke="black" points="4849.5,-73 4849.5,-103 4956.5,-103 4956.5,-73 4849.5,-73"/>
<text text-anchor="start" x="4857.5" y="-91" font-family="Helvetica,sans-Serif" font-size="10.00">src/libs/vpatterndb</text>
<text text-anchor="middle" x="4903" y="-80" font-family="Helvetica,sans-Serif" font-size="10.00">/vformula.cpp</text>
</a>
</g>
</g>
<!-- Node5&#45;&gt;Node47 -->
<g id="edge55" class="edge">
<title>Node5&#45;&gt;Node47</title>
<path fill="none" stroke="midnightblue" d="M5190.16,-224.68C5153.59,-216.23 5107.29,-203.64 5068,-187 5012.47,-163.49 4952.98,-124.23 4922.89,-103.25"/>
<polygon fill="midnightblue" stroke="midnightblue" points="5189.68,-228.16 5200.2,-226.95 5191.22,-221.33 5189.68,-228.16"/>
</g>
<!-- Node5&#45;&gt;Node48 -->
<g id="edge56" class="edge">
<title>Node5&#45;&gt;Node48</title>
<path fill="none" stroke="midnightblue" d="M5190.59,-221.16C5166.32,-213.15 5139.17,-201.95 5117,-187 5082.51,-163.74 5052.3,-124.38 5037.56,-103.32"/>
<polygon fill="midnightblue" stroke="midnightblue" points="5189.85,-224.59 5200.44,-224.29 5191.97,-217.92 5189.85,-224.59"/>
</g>
<!-- Node49 -->
<g id="node35" class="node">
<title>Node49</title>
<g id="a_node35"><a xlink:href="../../df/d7a/vpiece_8cpp.html" target="_top" xlink:title=" ">
<polygon fill="white" stroke="black" points="5099.5,-73 5099.5,-103 5206.5,-103 5206.5,-73 5099.5,-73"/>
<text text-anchor="start" x="5107.5" y="-91" font-family="Helvetica,sans-Serif" font-size="10.00">src/libs/vpatterndb</text>
<text text-anchor="middle" x="5153" y="-80" font-family="Helvetica,sans-Serif" font-size="10.00">/vpiece.cpp</text>
</a>
</g>
</g>
<!-- Node5&#45;&gt;Node49 -->
<g id="edge58" class="edge">
<title>Node5&#45;&gt;Node49</title>
<path fill="none" stroke="midnightblue" d="M5190.72,-227.54C5166.96,-220.39 5142.28,-208.1 5128,-187 5110.39,-160.97 5129.63,-123.43 5142.8,-103.2"/>
<polygon fill="midnightblue" stroke="midnightblue" points="5189.89,-230.94 5200.46,-230.21 5191.75,-224.19 5189.89,-230.94"/>
</g>
<!-- Node51 -->
<g id="node37" class="node">
<title>Node51</title>
<g id="a_node37"><a xlink:href="../../d8/dba/vpiecenode_8cpp.html" target="_top" xlink:title=" ">
<polygon fill="white" stroke="black" points="4952.5,-0.5 4952.5,-30.5 5059.5,-30.5 5059.5,-0.5 4952.5,-0.5"/>
<text text-anchor="start" x="4960.5" y="-18.5" font-family="Helvetica,sans-Serif" font-size="10.00">src/libs/vpatterndb</text>
<text text-anchor="middle" x="5006" y="-7.5" font-family="Helvetica,sans-Serif" font-size="10.00">/vpiecenode.cpp</text>
</a>
</g>
</g>
<!-- Node5&#45;&gt;Node51 -->
<g id="edge59" class="edge">
<title>Node5&#45;&gt;Node51</title>
<path fill="none" stroke="midnightblue" d="M5196.79,-219.03C5182.28,-211.47 5168.42,-201.09 5160,-187 5150.42,-170.98 5151.12,-161.42 5160,-145 5173.89,-119.3 5201.11,-134.7 5215,-109 5223.88,-92.58 5226.55,-81.67 5215,-67 5196.01,-42.87 5115.13,-28.9 5059.74,-22"/>
<polygon fill="midnightblue" stroke="midnightblue" points="5195.34,-222.22 5205.88,-223.38 5198.37,-215.91 5195.34,-222.22"/>
</g>
<!-- Node65 -->
<g id="node45" class="node">
<title>Node65</title>
<g id="a_node45"><a xlink:href="../../d7/d8a/measurement__variable__p_8h.html" target="_top" xlink:title=" ">
<polygon fill="white" stroke="black" points="5932,-145.5 5932,-186.5 6068,-186.5 6068,-145.5 5932,-145.5"/>
<text text-anchor="start" x="5940" y="-174.5" font-family="Helvetica,sans-Serif" font-size="10.00">src/libs/vpatterndb</text>
<text text-anchor="start" x="5940" y="-163.5" font-family="Helvetica,sans-Serif" font-size="10.00">/variables/measurement</text>
<text text-anchor="middle" x="6000" y="-152.5" font-family="Helvetica,sans-Serif" font-size="10.00">_variable_p.h</text>
</a>
</g>
</g>
<!-- Node5&#45;&gt;Node65 -->
<g id="edge52" class="edge">
<title>Node5&#45;&gt;Node65</title>
<path fill="none" stroke="midnightblue" d="M5317.8,-236.47C5437.32,-233.71 5702.78,-223.61 5923,-187 5925.86,-186.52 5928.77,-185.99 5931.7,-185.42"/>
<polygon fill="midnightblue" stroke="midnightblue" points="5317.64,-232.97 5307.72,-236.69 5317.8,-239.97 5317.64,-232.97"/>
</g>
<!-- Node66 -->
<g id="node46" class="node">
<title>Node66</title>
<g id="a_node46"><a xlink:href="../../d3/d02/custom__variable__p_8h.html" target="_top" xlink:title=" ">
<polygon fill="white" stroke="red" points="5169.5,-151 5169.5,-181 5338.5,-181 5338.5,-151 5169.5,-151"/>
<text text-anchor="start" x="5177.5" y="-169" font-family="Helvetica,sans-Serif" font-size="10.00">src/libs/vpatterndb</text>
<text text-anchor="middle" x="5254" y="-158" font-family="Helvetica,sans-Serif" font-size="10.00">/variables/custom_variable_p.h</text>
</a>
</g>
</g>
<!-- Node5&#45;&gt;Node66 -->
<g id="edge54" class="edge">
<title>Node5&#45;&gt;Node66</title>
<path fill="none" stroke="midnightblue" d="M5254,-213.23C5254,-202.57 5254,-190.41 5254,-181.25"/>
<polygon fill="midnightblue" stroke="midnightblue" points="5250.5,-213.23 5254,-223.23 5257.5,-213.23 5250.5,-213.23"/>
</g>
<!-- Node68 -->
<g id="node47" class="node">
<title>Node68</title>
<g id="a_node47"><a xlink:href="../../d6/d91/vnodedetail_8cpp.html" target="_top" xlink:title=" ">
<polygon fill="white" stroke="black" points="5356.5,-151 5356.5,-181 5463.5,-181 5463.5,-151 5356.5,-151"/>
<text text-anchor="start" x="5364.5" y="-169" font-family="Helvetica,sans-Serif" font-size="10.00">src/libs/vpatterndb</text>
<text text-anchor="middle" x="5410" y="-158" font-family="Helvetica,sans-Serif" font-size="10.00">/vnodedetail.cpp</text>
</a>
</g>
</g>
<!-- Node5&#45;&gt;Node68 -->
<g id="edge57" class="edge">
<title>Node5&#45;&gt;Node68</title>
<path fill="none" stroke="midnightblue" d="M5294.52,-219.19C5320.85,-207.29 5354.64,-192.02 5378.86,-181.07"/>
<polygon fill="midnightblue" stroke="midnightblue" points="5292.87,-216.1 5285.19,-223.4 5295.75,-222.47 5292.87,-216.1"/>
</g>
<!-- Node69 -->
<g id="node48" class="node">
<title>Node69</title>
<g id="a_node48"><a xlink:href="../../da/de1/vpiecepath_8cpp.html" target="_top" xlink:title=" ">
<polygon fill="white" stroke="black" points="5481.5,-151 5481.5,-181 5588.5,-181 5588.5,-151 5481.5,-151"/>
<text text-anchor="start" x="5489.5" y="-169" font-family="Helvetica,sans-Serif" font-size="10.00">src/libs/vpatterndb</text>
<text text-anchor="middle" x="5535" y="-158" font-family="Helvetica,sans-Serif" font-size="10.00">/vpiecepath.cpp</text>
</a>
</g>
</g>
<!-- Node5&#45;&gt;Node69 -->
<g id="edge60" class="edge">
<title>Node5&#45;&gt;Node69</title>
<path fill="none" stroke="midnightblue" d="M5317.83,-224.29C5361.71,-214.84 5421.18,-201.3 5473,-187 5479.54,-185.19 5486.42,-183.14 5493.12,-181.04"/>
<polygon fill="midnightblue" stroke="midnightblue" points="5316.92,-220.9 5307.87,-226.42 5318.38,-227.75 5316.92,-220.9"/>
</g>
<!-- Node70 -->
<g id="node49" class="node">
<title>Node70</title>
<g id="a_node49"><a xlink:href="../../d1/d3a/abstracttest_8cpp.html" target="_top" xlink:title=" ">
<polygon fill="white" stroke="black" points="5606.5,-156.5 5606.5,-175.5 5767.5,-175.5 5767.5,-156.5 5606.5,-156.5"/>
<text text-anchor="middle" x="5687" y="-163.5" font-family="Helvetica,sans-Serif" font-size="10.00">src/libs/vtest/abstracttest.cpp</text>
</a>
</g>
</g>
<!-- Node5&#45;&gt;Node70 -->
<g id="edge61" class="edge">
<title>Node5&#45;&gt;Node70</title>
<path fill="none" stroke="midnightblue" d="M5317.84,-229.59C5387.09,-220.67 5500.76,-205.04 5598,-187 5615.75,-183.71 5635.34,-179.38 5651.61,-175.59"/>
<polygon fill="midnightblue" stroke="midnightblue" points="5317.01,-226.17 5307.54,-230.91 5317.9,-233.11 5317.01,-226.17"/>
</g>
<!-- Node71 -->
<g id="node50" class="node">
<title>Node71</title>
<g id="a_node50"><a xlink:href="../../da/db4/piece__tablewidgetitem_8cpp.html" target="_top" xlink:title=" ">
<polygon fill="white" stroke="black" points="5786,-151 5786,-181 5914,-181 5914,-151 5786,-151"/>
<text text-anchor="start" x="5794" y="-169" font-family="Helvetica,sans-Serif" font-size="10.00">src/libs/vwidgets/piece</text>
<text text-anchor="middle" x="5850" y="-158" font-family="Helvetica,sans-Serif" font-size="10.00">_tablewidgetitem.cpp</text>
</a>
</g>
</g>
<!-- Node5&#45;&gt;Node71 -->
<g id="edge62" class="edge">
<title>Node5&#45;&gt;Node71</title>
<path fill="none" stroke="midnightblue" d="M5318.02,-234.85C5417.1,-229.96 5613.23,-217.11 5777,-187 5785.66,-185.41 5794.79,-183.28 5803.54,-181"/>
<polygon fill="midnightblue" stroke="midnightblue" points="5317.7,-231.36 5307.88,-235.34 5318.03,-238.35 5317.7,-231.36"/>
</g>
<!-- Node7&#45;&gt;Node2 -->
<g id="edge7" class="edge">
<title>Node7&#45;&gt;Node2</title>
<path fill="none" stroke="midnightblue" d="M6214,-146.22C6214,-130.7 6214,-109.36 6214,-97.62"/>
<polygon fill="midnightblue" stroke="midnightblue" points="6210.5,-146.28 6214,-156.28 6217.5,-146.28 6210.5,-146.28"/>
</g>
<!-- Node9 -->
<g id="node9" class="node">
<title>Node9</title>
<g id="a_node9"><a xlink:href="../../dd/d66/vdxfengine_8cpp.html" target="_top" xlink:title=" ">
<polygon fill="white" stroke="black" points="0,-78.5 0,-97.5 154,-97.5 154,-78.5 0,-78.5"/>
<text text-anchor="middle" x="77" y="-85.5" font-family="Helvetica,sans-Serif" font-size="10.00">src/libs/vdxf/vdxfengine.cpp</text>
</a>
</g>
</g>
<!-- Node8&#45;&gt;Node9 -->
<g id="edge10" class="edge">
<title>Node8&#45;&gt;Node9</title>
<path fill="none" stroke="midnightblue" d="M704.6,-160.88C580.34,-154.45 354.07,-139.49 163,-109 144.99,-106.13 125.14,-101.6 109.05,-97.58"/>
<polygon fill="midnightblue" stroke="midnightblue" points="704.67,-164.38 714.84,-161.4 705.03,-157.39 704.67,-164.38"/>
</g>
<!-- Node10 -->
<g id="node10" class="node">
<title>Node10</title>
<g id="a_node10"><a xlink:href="../../de/da8/vbank_8cpp.html" target="_top" xlink:title=" ">
<polygon fill="white" stroke="black" points="172,-78.5 172,-97.5 316,-97.5 316,-78.5 172,-78.5"/>
<text text-anchor="middle" x="244" y="-85.5" font-family="Helvetica,sans-Serif" font-size="10.00">src/libs/vlayout/vbank.cpp</text>
</a>
</g>
</g>
<!-- Node8&#45;&gt;Node10 -->
<g id="edge11" class="edge">
<title>Node8&#45;&gt;Node10</title>
<path fill="none" stroke="midnightblue" d="M704.41,-157.38C608.62,-148.76 455.7,-132.78 325,-109 308.18,-105.94 289.66,-101.45 274.58,-97.5"/>
<polygon fill="midnightblue" stroke="midnightblue" points="704.38,-160.89 714.65,-158.29 705,-153.91 704.38,-160.89"/>
</g>
<!-- Node11 -->
<g id="node11" class="node">
<title>Node11</title>
<g id="a_node11"><a xlink:href="../../df/d5d/vcontour_8cpp.html" target="_top" xlink:title=" ">
<polygon fill="white" stroke="black" points="334,-78.5 334,-97.5 490,-97.5 490,-78.5 334,-78.5"/>
<text text-anchor="middle" x="412" y="-85.5" font-family="Helvetica,sans-Serif" font-size="10.00">src/libs/vlayout/vcontour.cpp</text>
</a>
</g>
</g>
<!-- Node8&#45;&gt;Node11 -->
<g id="edge12" class="edge">
<title>Node8&#45;&gt;Node11</title>
<path fill="none" stroke="midnightblue" d="M739.09,-154.7C678.68,-143.96 582.08,-126.32 499,-109 482.01,-105.46 463.23,-101.19 447.48,-97.5"/>
<polygon fill="midnightblue" stroke="midnightblue" points="738.74,-158.19 749.2,-156.49 739.96,-151.3 738.74,-158.19"/>
</g>
<!-- Node12 -->
<g id="node12" class="node">
<title>Node12</title>
<g id="a_node12"><a xlink:href="../../d3/d39/vlayoutgenerator_8cpp.html" target="_top" xlink:title=" ">
<polygon fill="white" stroke="black" points="508.5,-78.5 508.5,-97.5 705.5,-97.5 705.5,-78.5 508.5,-78.5"/>
<text text-anchor="middle" x="607" y="-85.5" font-family="Helvetica,sans-Serif" font-size="10.00">src/libs/vlayout/vlayoutgenerator.cpp</text>
</a>
</g>
</g>
<!-- Node8&#45;&gt;Node12 -->
<g id="edge13" class="edge">
<title>Node8&#45;&gt;Node12</title>
<path fill="none" stroke="midnightblue" d="M766.69,-152.54C727.71,-137.03 662.17,-110.95 628.46,-97.54"/>
<polygon fill="midnightblue" stroke="midnightblue" points="765.88,-155.98 776.46,-156.43 768.46,-149.48 765.88,-155.98"/>
</g>
<!-- Node13 -->
<g id="node13" class="node">
<title>Node13</title>
<g id="a_node13"><a xlink:href="../../d1/dd1/vlayoutpaper_8cpp.html" target="_top" xlink:title=" ">
<polygon fill="white" stroke="black" points="811,-6 811,-25 989,-25 989,-6 811,-6"/>
<text text-anchor="middle" x="900" y="-13" font-family="Helvetica,sans-Serif" font-size="10.00">src/libs/vlayout/vlayoutpaper.cpp</text>
</a>
</g>
</g>
<!-- Node8&#45;&gt;Node13 -->
<g id="edge14" class="edge">
<title>Node8&#45;&gt;Node13</title>
<path fill="none" stroke="midnightblue" d="M828.23,-151.91C846.29,-142.54 868.15,-128.19 881,-109 898.78,-82.43 900.5,-42.67 900.31,-25.23"/>
<polygon fill="midnightblue" stroke="midnightblue" points="826.62,-148.8 819.19,-156.36 829.71,-155.08 826.62,-148.8"/>
</g>
<!-- Node14 -->
<g id="node14" class="node">
<title>Node14</title>
<g id="a_node14"><a xlink:href="../../d2/d2d/vlayoutpaper__p_8h.html" target="_top" xlink:title=" ">
<polygon fill="white" stroke="black" points="928.5,-78.5 928.5,-97.5 1107.5,-97.5 1107.5,-78.5 928.5,-78.5"/>
<text text-anchor="middle" x="1018" y="-85.5" font-family="Helvetica,sans-Serif" font-size="10.00">src/libs/vlayout/vlayoutpaper_p.h</text>
</a>
</g>
</g>
<!-- Node8&#45;&gt;Node14 -->
<g id="edge15" class="edge">
<title>Node8&#45;&gt;Node14</title>
<path fill="none" stroke="midnightblue" d="M832.36,-153.13C877.03,-137.7 953.95,-111.13 993.28,-97.54"/>
<polygon fill="midnightblue" stroke="midnightblue" points="831.12,-149.86 822.81,-156.43 833.4,-156.47 831.12,-149.86"/>
</g>
<!-- Node15 -->
<g id="node15" class="node">
<title>Node15</title>
<g id="a_node15"><a xlink:href="../../db/d5c/vposition_8h.html" target="_top" xlink:title=" ">
<polygon fill="white" stroke="red" points="724,-78.5 724,-97.5 872,-97.5 872,-78.5 724,-78.5"/>
<text text-anchor="middle" x="798" y="-85.5" font-family="Helvetica,sans-Serif" font-size="10.00">src/libs/vlayout/vposition.h</text>
</a>
</g>
</g>
<!-- Node8&#45;&gt;Node15 -->
<g id="edge17" class="edge">
<title>Node8&#45;&gt;Node15</title>
<path fill="none" stroke="midnightblue" d="M798,-146.22C798,-130.7 798,-109.36 798,-97.62"/>
<polygon fill="midnightblue" stroke="midnightblue" points="794.5,-146.28 798,-156.28 801.5,-146.28 794.5,-146.28"/>
</g>
<!-- Node17 -->
<g id="node16" class="node">
<title>Node17</title>
<g id="a_node16"><a xlink:href="../../dd/d70/vlayoutpiece_8cpp.html" target="_top" xlink:title=" ">
<polygon fill="white" stroke="black" points="1125.5,-78.5 1125.5,-97.5 1302.5,-97.5 1302.5,-78.5 1125.5,-78.5"/>
<text text-anchor="middle" x="1214" y="-85.5" font-family="Helvetica,sans-Serif" font-size="10.00">src/libs/vlayout/vlayoutpiece.cpp</text>
</a>
</g>
</g>
<!-- Node8&#45;&gt;Node17 -->
<g id="edge19" class="edge">
<title>Node8&#45;&gt;Node17</title>
<path fill="none" stroke="midnightblue" d="M858.68,-154.82C922.73,-143.95 1026.61,-125.99 1116,-109 1134.94,-105.4 1155.87,-101.16 1173.52,-97.52"/>
<polygon fill="midnightblue" stroke="midnightblue" points="858.02,-151.38 848.75,-156.5 859.19,-158.28 858.02,-151.38"/>
</g>
<!-- Node14&#45;&gt;Node13 -->
<g id="edge16" class="edge">
<title>Node14&#45;&gt;Node13</title>
<path fill="none" stroke="midnightblue" d="M994.77,-73.12C970.96,-58.89 934.65,-37.2 914.59,-25.22"/>
<polygon fill="midnightblue" stroke="midnightblue" points="993.15,-76.23 1003.53,-78.36 996.74,-70.22 993.15,-76.23"/>
</g>
<!-- Node15&#45;&gt;Node13 -->
<g id="edge18" class="edge">
<title>Node15&#45;&gt;Node13</title>
<path fill="none" stroke="midnightblue" d="M818.9,-72.55C839.5,-58.32 870.28,-37.04 887.39,-25.22"/>
<polygon fill="midnightblue" stroke="midnightblue" points="816.74,-69.79 810.51,-78.36 820.72,-75.55 816.74,-69.79"/>
</g>
<!-- Node19&#45;&gt;Node6 -->
<g id="edge23" class="edge">
<title>Node19&#45;&gt;Node6</title>
<path fill="none" stroke="midnightblue" d="M3290.95,-163.61C2907.24,-158.45 1623.3,-139.08 1441,-109 1432.73,-107.64 1424.05,-105.49 1415.82,-103.1"/>
<polygon fill="midnightblue" stroke="midnightblue" points="3291.18,-167.12 3301.22,-163.75 3291.27,-160.12 3291.18,-167.12"/>
</g>
<!-- Node19&#45;&gt;Node17 -->
<g id="edge34" class="edge">
<title>Node19&#45;&gt;Node17</title>
<path fill="none" stroke="midnightblue" d="M3291.02,-164.62C2920.2,-162.93 1700.23,-153.99 1311,-109 1289.82,-106.55 1266.4,-101.78 1247.88,-97.52"/>
<polygon fill="midnightblue" stroke="midnightblue" points="3291.19,-168.12 3301.21,-164.67 3291.23,-161.12 3291.19,-168.12"/>
</g>
<!-- Node19&#45;&gt;Node18 -->
<g id="edge35" class="edge">
<title>Node19&#45;&gt;Node18</title>
<path fill="none" stroke="midnightblue" d="M3291.15,-161.12C3175.42,-156.98 2986.21,-150.32 2823,-145 2297.7,-127.88 2163.17,-168.75 1641,-109 1619.36,-106.52 1595.43,-101.81 1576.41,-97.58"/>
<polygon fill="midnightblue" stroke="midnightblue" points="3291.3,-164.63 3301.42,-161.49 3291.55,-157.63 3291.3,-164.63"/>
</g>
<!-- Node20 -->
<g id="node19" class="node">
<title>Node20</title>
<g id="a_node19"><a xlink:href="../../d4/d90/fvupdater_8cpp.html" target="_top" xlink:title=" ">
<polygon fill="white" stroke="black" points="2890.5,-78.5 2890.5,-97.5 3043.5,-97.5 3043.5,-78.5 2890.5,-78.5"/>
<text text-anchor="middle" x="2967" y="-85.5" font-family="Helvetica,sans-Serif" font-size="10.00">src/libs/fervor/fvupdater.cpp</text>
</a>
</g>
</g>
<!-- Node19&#45;&gt;Node20 -->
<g id="edge22" class="edge">
<title>Node19&#45;&gt;Node20</title>
<path fill="none" stroke="midnightblue" d="M3328.42,-155.01C3258.32,-144.76 3147.89,-127.69 3053,-109 3035.85,-105.62 3016.93,-101.29 3001.2,-97.52"/>
<polygon fill="midnightblue" stroke="midnightblue" points="3328.06,-158.5 3338.46,-156.48 3329.07,-151.57 3328.06,-158.5"/>
</g>
<!-- Node21 -->
<g id="node20" class="node">
<title>Node21</title>
<g id="a_node20"><a xlink:href="../../d1/d8d/image__item_8h.html" target="_top" xlink:title=" ">
<polygon fill="white" stroke="red" points="3062,-73 3062,-103 3174,-103 3174,-73 3062,-73"/>
<text text-anchor="start" x="3070" y="-91" font-family="Helvetica,sans-Serif" font-size="10.00">src/libs/tools/image</text>
<text text-anchor="middle" x="3118" y="-80" font-family="Helvetica,sans-Serif" font-size="10.00">_item.h</text>
</a>
</g>
</g>
<!-- Node19&#45;&gt;Node21 -->
<g id="edge24" class="edge">
<title>Node19&#45;&gt;Node21</title>
<path fill="none" stroke="midnightblue" d="M3354.31,-154.04C3310.52,-143.15 3241.96,-125.7 3183,-109 3176.41,-107.13 3169.47,-105.09 3162.68,-103.04"/>
<polygon fill="midnightblue" stroke="midnightblue" points="3353.53,-157.45 3364.08,-156.46 3355.22,-150.65 3353.53,-157.45"/>
</g>
<!-- Node31 -->
<g id="node21" class="node">
<title>Node31</title>
<g id="a_node21"><a xlink:href="../../d9/dc8/dxiface_8cpp.html" target="_top" xlink:title=" ">
<polygon fill="white" stroke="black" points="3192.5,-78.5 3192.5,-97.5 3327.5,-97.5 3327.5,-78.5 3192.5,-78.5"/>
<text text-anchor="middle" x="3260" y="-85.5" font-family="Helvetica,sans-Serif" font-size="10.00">src/libs/vdxf/dxiface.cpp</text>
</a>
</g>
</g>
<!-- Node19&#45;&gt;Node31 -->
<g id="edge25" class="edge">
<title>Node19&#45;&gt;Node31</title>
<path fill="none" stroke="midnightblue" d="M3374.4,-151.55C3345.94,-135.99 3299.91,-110.82 3275.83,-97.66"/>
<polygon fill="midnightblue" stroke="midnightblue" points="3372.87,-154.7 3383.33,-156.43 3376.23,-148.56 3372.87,-154.7"/>
</g>
<!-- Node32 -->
<g id="node22" class="node">
<title>Node32</title>
<g id="a_node22"><a xlink:href="../../da/d75/vabstractarc__p_8h.html" target="_top" xlink:title=" ">
<polygon fill="white" stroke="red" points="3345.5,-73 3345.5,-103 3452.5,-103 3452.5,-73 3345.5,-73"/>
<text text-anchor="start" x="3353.5" y="-91" font-family="Helvetica,sans-Serif" font-size="10.00">src/libs/vgeometry</text>
<text text-anchor="middle" x="3399" y="-80" font-family="Helvetica,sans-Serif" font-size="10.00">/vabstractarc_p.h</text>
</a>
</g>
</g>
<!-- Node19&#45;&gt;Node32 -->
<g id="edge26" class="edge">
<title>Node19&#45;&gt;Node32</title>
<path fill="none" stroke="midnightblue" d="M3399,-146.28C3399,-132.9 3399,-115.19 3399,-103.02"/>
<polygon fill="midnightblue" stroke="midnightblue" points="3395.5,-146.28 3399,-156.28 3402.5,-146.28 3395.5,-146.28"/>
</g>
<!-- Node34 -->
<g id="node23" class="node">
<title>Node34</title>
<g id="a_node23"><a xlink:href="../../dc/da3/varc__p_8h.html" target="_top" xlink:title=" ">
<polygon fill="white" stroke="red" points="3470.5,-73 3470.5,-103 3577.5,-103 3577.5,-73 3470.5,-73"/>
<text text-anchor="start" x="3478.5" y="-91" font-family="Helvetica,sans-Serif" font-size="10.00">src/libs/vgeometry</text>
<text text-anchor="middle" x="3524" y="-80" font-family="Helvetica,sans-Serif" font-size="10.00">/varc_p.h</text>
</a>
</g>
</g>
<!-- Node19&#45;&gt;Node34 -->
<g id="edge27" class="edge">
<title>Node19&#45;&gt;Node34</title>
<path fill="none" stroke="midnightblue" d="M3421.9,-151.08C3444.36,-137.42 3478.43,-116.71 3500.94,-103.02"/>
<polygon fill="midnightblue" stroke="midnightblue" points="3420.07,-148.1 3413.34,-156.28 3423.7,-154.08 3420.07,-148.1"/>
</g>
<!-- Node36 -->
<g id="node24" class="node">
<title>Node36</title>
<g id="a_node24"><a xlink:href="../../d5/d8e/vcubicbezier__p_8h.html" target="_top" xlink:title=" ">
<polygon fill="white" stroke="red" points="3595.5,-73 3595.5,-103 3702.5,-103 3702.5,-73 3595.5,-73"/>
<text text-anchor="start" x="3603.5" y="-91" font-family="Helvetica,sans-Serif" font-size="10.00">src/libs/vgeometry</text>
<text text-anchor="middle" x="3649" y="-80" font-family="Helvetica,sans-Serif" font-size="10.00">/vcubicbezier_p.h</text>
</a>
</g>
</g>
<!-- Node19&#45;&gt;Node36 -->
<g id="edge28" class="edge">
<title>Node19&#45;&gt;Node36</title>
<path fill="none" stroke="midnightblue" d="M3437.81,-153.58C3475.68,-142.39 3534.87,-124.77 3586,-109 3592.14,-107.11 3598.61,-105.08 3604.97,-103.08"/>
<polygon fill="midnightblue" stroke="midnightblue" points="3436.8,-150.23 3428.2,-156.42 3438.78,-156.94 3436.8,-150.23"/>
</g>
<!-- Node38 -->
<g id="node25" class="node">
<title>Node38</title>
<g id="a_node25"><a xlink:href="../../df/dde/vellipticalarc__p_8h.html" target="_top" xlink:title=" ">
<polygon fill="white" stroke="black" points="1650.5,-73 1650.5,-103 1757.5,-103 1757.5,-73 1650.5,-73"/>
<text text-anchor="start" x="1658.5" y="-91" font-family="Helvetica,sans-Serif" font-size="10.00">src/libs/vgeometry</text>
<text text-anchor="middle" x="1704" y="-80" font-family="Helvetica,sans-Serif" font-size="10.00">/vellipticalarc_p.h</text>
</a>
</g>
</g>
<!-- Node19&#45;&gt;Node38 -->
<g id="edge29" class="edge">
<title>Node19&#45;&gt;Node38</title>
<path fill="none" stroke="midnightblue" d="M3291.14,-161.23C3175.41,-157.2 2986.2,-150.62 2823,-145 2588.34,-136.93 1998.39,-148.9 1767,-109 1758.97,-107.62 1750.55,-105.46 1742.57,-103.07"/>
<polygon fill="midnightblue" stroke="midnightblue" points="3291.3,-164.74 3301.42,-161.59 3291.54,-157.75 3291.3,-164.74"/>
</g>
<!-- Node39 -->
<g id="node26" class="node">
<title>Node39</title>
<g id="a_node26"><a xlink:href="../../d6/dfb/vellipticalarc_8cpp.html" target="_top" xlink:title=" ">
<polygon fill="white" stroke="black" points="2663.5,-0.5 2663.5,-30.5 2770.5,-30.5 2770.5,-0.5 2663.5,-0.5"/>
<text text-anchor="start" x="2671.5" y="-18.5" font-family="Helvetica,sans-Serif" font-size="10.00">src/libs/vgeometry</text>
<text text-anchor="middle" x="2717" y="-7.5" font-family="Helvetica,sans-Serif" font-size="10.00">/vellipticalarc.cpp</text>
</a>
</g>
</g>
<!-- Node19&#45;&gt;Node39 -->
<g id="edge31" class="edge">
<title>Node19&#45;&gt;Node39</title>
<path fill="none" stroke="midnightblue" d="M3507.19,-162.75C3621.49,-156.78 3776.78,-136.21 3711,-67 3678.37,-32.68 2972.54,-20.1 2770.55,-17.2"/>
<polygon fill="midnightblue" stroke="midnightblue" points="3506.78,-159.26 3496.97,-163.25 3507.12,-166.26 3506.78,-159.26"/>
</g>
<!-- Node40 -->
<g id="node27" class="node">
<title>Node40</title>
<g id="a_node27"><a xlink:href="../../d1/d76/vspline__p_8h.html" target="_top" xlink:title=" ">
<polygon fill="white" stroke="red" points="3759.5,-73 3759.5,-103 3866.5,-103 3866.5,-73 3759.5,-73"/>
<text text-anchor="start" x="3767.5" y="-91" font-family="Helvetica,sans-Serif" font-size="10.00">src/libs/vgeometry</text>
<text text-anchor="middle" x="3813" y="-80" font-family="Helvetica,sans-Serif" font-size="10.00">/vspline_p.h</text>
</a>
</g>
</g>
<!-- Node19&#45;&gt;Node40 -->
<g id="edge32" class="edge">
<title>Node19&#45;&gt;Node40</title>
<path fill="none" stroke="midnightblue" d="M3477.9,-155.11C3548.38,-145.59 3654.22,-129.61 3745,-109 3752.56,-107.28 3760.52,-105.2 3768.22,-103.04"/>
<polygon fill="midnightblue" stroke="midnightblue" points="3477.21,-151.67 3467.76,-156.46 3478.14,-158.6 3477.21,-151.67"/>
</g>
<!-- Node42 -->
<g id="node28" class="node">
<title>Node42</title>
<g id="a_node28"><a xlink:href="../../d9/d15/vabstractpiece_8cpp.html" target="_top" xlink:title=" ">
<polygon fill="white" stroke="black" points="3885,-78.5 3885,-97.5 4071,-97.5 4071,-78.5 3885,-78.5"/>
<text text-anchor="middle" x="3978" y="-85.5" font-family="Helvetica,sans-Serif" font-size="10.00">src/libs/vlayout/vabstractpiece.cpp</text>
</a>
</g>
</g>
<!-- Node19&#45;&gt;Node42 -->
<g id="edge33" class="edge">
<title>Node19&#45;&gt;Node42</title>
<path fill="none" stroke="midnightblue" d="M3498.8,-155.45C3595.31,-145.7 3745.56,-129.15 3875,-109 3895.7,-105.78 3918.59,-101.41 3937.52,-97.59"/>
<polygon fill="midnightblue" stroke="midnightblue" points="3498.36,-151.98 3488.76,-156.46 3499.06,-158.94 3498.36,-151.98"/>
</g>
<!-- Node43 -->
<g id="node29" class="node">
<title>Node43</title>
<g id="a_node29"><a xlink:href="../../db/d65/dialogexporttocsv_8cpp.html" target="_top" xlink:title=" ">
<polygon fill="white" stroke="black" points="4089.5,-73 4089.5,-103 4216.5,-103 4216.5,-73 4089.5,-73"/>
<text text-anchor="start" x="4097.5" y="-91" font-family="Helvetica,sans-Serif" font-size="10.00">src/libs/vmisc/dialogs</text>
<text text-anchor="middle" x="4153" y="-80" font-family="Helvetica,sans-Serif" font-size="10.00">/dialogexporttocsv.cpp</text>
</a>
</g>
</g>
<!-- Node19&#45;&gt;Node43 -->
<g id="edge36" class="edge">
<title>Node19&#45;&gt;Node43</title>
<path fill="none" stroke="midnightblue" d="M3507.05,-162.29C3642.02,-157.49 3879.61,-144.37 4080,-109 4088.8,-107.45 4098.08,-105.31 4106.95,-103"/>
<polygon fill="midnightblue" stroke="midnightblue" points="3506.58,-158.8 3496.71,-162.65 3506.83,-165.8 3506.58,-158.8"/>
</g>
<!-- Node44 -->
<g id="node30" class="node">
<title>Node44</title>
<g id="a_node30"><a xlink:href="../../d6/d0b/def_8cpp.html" target="_top" xlink:title=" ">
<polygon fill="white" stroke="black" points="4235,-78.5 4235,-97.5 4357,-97.5 4357,-78.5 4235,-78.5"/>
<text text-anchor="middle" x="4296" y="-85.5" font-family="Helvetica,sans-Serif" font-size="10.00">src/libs/vmisc/def.cpp</text>
</a>
</g>
</g>
<!-- Node19&#45;&gt;Node44 -->
<g id="edge37" class="edge">
<title>Node19&#45;&gt;Node44</title>
<path fill="none" stroke="midnightblue" d="M3506.97,-164.77C3665.52,-162.84 3970.17,-153.04 4225,-109 4240.4,-106.34 4257.24,-101.67 4270.66,-97.52"/>
<polygon fill="midnightblue" stroke="midnightblue" points="3506.69,-161.27 3496.74,-164.89 3506.77,-168.27 3506.69,-161.27"/>
</g>
<!-- Node45 -->
<g id="node31" class="node">
<title>Node45</title>
<g id="a_node31"><a xlink:href="../../d0/df6/vabstractapplication_8cpp.html" target="_top" xlink:title=" ">
<polygon fill="white" stroke="black" points="4375,-78.5 4375,-97.5 4581,-97.5 4581,-78.5 4375,-78.5"/>
<text text-anchor="middle" x="4478" y="-85.5" font-family="Helvetica,sans-Serif" font-size="10.00">src/libs/vmisc/vabstractapplication.cpp</text>
</a>
</g>
</g>
<!-- Node19&#45;&gt;Node45 -->
<g id="edge38" class="edge">
<title>Node19&#45;&gt;Node45</title>
<path fill="none" stroke="midnightblue" d="M3507,-162.93C3686.08,-158.56 4055.55,-145.58 4366,-109 4389.64,-106.22 4415.84,-101.62 4436.95,-97.54"/>
<polygon fill="midnightblue" stroke="midnightblue" points="3506.7,-159.44 3496.79,-163.18 3506.87,-166.43 3506.7,-159.44"/>
</g>
<!-- Node46 -->
<g id="node32" class="node">
<title>Node46</title>
<g id="a_node32"><a xlink:href="../../d4/d4f/pmsystems_8cpp.html" target="_top" xlink:title=" ">
<polygon fill="white" stroke="black" points="4599.5,-73 4599.5,-103 4706.5,-103 4706.5,-73 4599.5,-73"/>
<text text-anchor="start" x="4607.5" y="-91" font-family="Helvetica,sans-Serif" font-size="10.00">src/libs/vpatterndb</text>
<text text-anchor="middle" x="4653" y="-80" font-family="Helvetica,sans-Serif" font-size="10.00">/pmsystems.cpp</text>
</a>
</g>
</g>
<!-- Node19&#45;&gt;Node46 -->
<g id="edge39" class="edge">
<title>Node19&#45;&gt;Node46</title>
<path fill="none" stroke="midnightblue" d="M3506.95,-163.51C3759.66,-159.46 4383.88,-145.91 4590,-109 4597.91,-107.58 4606.2,-105.45 4614.08,-103.09"/>
<polygon fill="midnightblue" stroke="midnightblue" points="3506.6,-160.02 3496.66,-163.68 3506.71,-167.02 3506.6,-160.02"/>
</g>
<!-- Node19&#45;&gt;Node47 -->
<g id="edge40" class="edge">
<title>Node19&#45;&gt;Node47</title>
<path fill="none" stroke="midnightblue" d="M3506.85,-164.55C3796.04,-162.75 4584.08,-153.75 4840,-109 4848.03,-107.6 4856.45,-105.43 4864.42,-103.04"/>
<polygon fill="midnightblue" stroke="midnightblue" points="3506.75,-161.05 3496.78,-164.61 3506.8,-168.05 3506.75,-161.05"/>
</g>
<!-- Node19&#45;&gt;Node48 -->
<g id="edge41" class="edge">
<title>Node19&#45;&gt;Node48</title>
<path fill="none" stroke="midnightblue" d="M3506.92,-164.95C3813.24,-164.19 4684.05,-157.68 4965,-109 4973.03,-107.61 4981.45,-105.45 4989.43,-103.06"/>
<polygon fill="midnightblue" stroke="midnightblue" points="3506.69,-161.45 3496.7,-164.97 3506.71,-168.45 3506.69,-161.45"/>
</g>
<!-- Node19&#45;&gt;Node49 -->
<g id="edge42" class="edge">
<title>Node19&#45;&gt;Node49</title>
<path fill="none" stroke="midnightblue" d="M3506.98,-165.28C3829.78,-165.52 4783.93,-161.62 5090,-109 5098.03,-107.62 5106.45,-105.47 5114.43,-103.08"/>
<polygon fill="midnightblue" stroke="midnightblue" points="3506.7,-161.78 3496.69,-165.27 3506.69,-168.78 3506.7,-161.78"/>
</g>
<!-- Node50 -->
<g id="node36" class="node">
<title>Node50</title>
<g id="a_node36"><a xlink:href="../../df/dba/vpiecenode__p_8h.html" target="_top" xlink:title=" ">
<polygon fill="white" stroke="black" points="4724.5,-73 4724.5,-103 4831.5,-103 4831.5,-73 4724.5,-73"/>
<text text-anchor="start" x="4732.5" y="-91" font-family="Helvetica,sans-Serif" font-size="10.00">src/libs/vpatterndb</text>
<text text-anchor="middle" x="4778" y="-80" font-family="Helvetica,sans-Serif" font-size="10.00">/vpiecenode_p.h</text>
</a>
</g>
</g>
<!-- Node19&#45;&gt;Node50 -->
<g id="edge43" class="edge">
<title>Node19&#45;&gt;Node50</title>
<path fill="none" stroke="midnightblue" d="M3506.95,-164.08C3778.37,-161.18 4484.06,-149.82 4715,-109 4723.02,-107.58 4731.44,-105.41 4739.42,-103.02"/>
<polygon fill="midnightblue" stroke="midnightblue" points="3506.66,-160.58 3496.7,-164.19 3506.73,-167.58 3506.66,-160.58"/>
</g>
<!-- Node52 -->
<g id="node38" class="node">
<title>Node52</title>
<g id="a_node38"><a xlink:href="../../de/d3e/vtranslatevars_8cpp.html" target="_top" xlink:title=" ">
<polygon fill="white" stroke="black" points="1776,-73 1776,-103 1886,-103 1886,-73 1776,-73"/>
<text text-anchor="start" x="1784" y="-91" font-family="Helvetica,sans-Serif" font-size="10.00">src/libs/vpatterndb</text>
<text text-anchor="middle" x="1831" y="-80" font-family="Helvetica,sans-Serif" font-size="10.00">/vtranslatevars.cpp</text>
</a>
</g>
</g>
<!-- Node19&#45;&gt;Node52 -->
<g id="edge45" class="edge">
<title>Node19&#45;&gt;Node52</title>
<path fill="none" stroke="midnightblue" d="M3291.15,-161.17C2949.46,-149.02 1912.2,-111.95 1895,-109 1886.85,-107.6 1878.3,-105.44 1870.2,-103.05"/>
<polygon fill="midnightblue" stroke="midnightblue" points="3291.19,-164.68 3301.3,-161.53 3291.44,-157.68 3291.19,-164.68"/>
</g>
<!-- Node25 -->
<g id="node39" class="node">
<title>Node25</title>
<g id="a_node39"><a xlink:href="../../df/d40/export__format__combobox_8cpp.html" target="_top" xlink:title=" ">
<polygon fill="white" stroke="black" points="1904.5,-73 1904.5,-103 2037.5,-103 2037.5,-73 1904.5,-73"/>
<text text-anchor="start" x="1912.5" y="-91" font-family="Helvetica,sans-Serif" font-size="10.00">src/libs/vwidgets/export</text>
<text text-anchor="middle" x="1971" y="-80" font-family="Helvetica,sans-Serif" font-size="10.00">_format_combobox.cpp</text>
</a>
</g>
</g>
<!-- Node19&#45;&gt;Node25 -->
<g id="edge46" class="edge">
<title>Node19&#45;&gt;Node25</title>
<path fill="none" stroke="midnightblue" d="M3290.96,-161.16C2981.17,-150.07 2108.07,-118.19 2047,-109 2037.56,-107.58 2027.59,-105.44 2018.1,-103.08"/>
<polygon fill="midnightblue" stroke="midnightblue" points="3291.18,-164.67 3301.3,-161.53 3291.43,-157.68 3291.18,-164.67"/>
</g>
<!-- Node53 -->
<g id="node40" class="node">
<title>Node53</title>
<g id="a_node40"><a xlink:href="../../d3/d4f/mouse__coordinates_8cpp.html" target="_top" xlink:title=" ">
<polygon fill="white" stroke="black" points="2056,-73 2056,-103 2190,-103 2190,-73 2056,-73"/>
<text text-anchor="start" x="2064" y="-91" font-family="Helvetica,sans-Serif" font-size="10.00">src/libs/vwidgets/mouse</text>
<text text-anchor="middle" x="2123" y="-80" font-family="Helvetica,sans-Serif" font-size="10.00">_coordinates.cpp</text>
</a>
</g>
</g>
<!-- Node19&#45;&gt;Node53 -->
<g id="edge47" class="edge">
<title>Node19&#45;&gt;Node53</title>
<path fill="none" stroke="midnightblue" d="M3291.11,-161.27C3016.48,-151.58 2305.09,-125.25 2199,-109 2189.56,-107.55 2179.6,-105.4 2170.11,-103.04"/>
<polygon fill="midnightblue" stroke="midnightblue" points="3291.37,-164.78 3301.49,-161.63 3291.62,-157.78 3291.37,-164.78"/>
</g>
<!-- Node28 -->
<g id="node41" class="node">
<title>Node28</title>
<g id="a_node41"><a xlink:href="../../d2/d28/page__format__combobox_8cpp.html" target="_top" xlink:title=" ">
<polygon fill="white" stroke="black" points="2208.5,-73 2208.5,-103 2339.5,-103 2339.5,-73 2208.5,-73"/>
<text text-anchor="start" x="2216.5" y="-91" font-family="Helvetica,sans-Serif" font-size="10.00">src/libs/vwidgets/page</text>
<text text-anchor="middle" x="2274" y="-80" font-family="Helvetica,sans-Serif" font-size="10.00">_format_combobox.cpp</text>
</a>
</g>
</g>
<!-- Node19&#45;&gt;Node28 -->
<g id="edge48" class="edge">
<title>Node19&#45;&gt;Node28</title>
<path fill="none" stroke="midnightblue" d="M3291.02,-162.13C3060.6,-155.54 2527.12,-137.65 2348,-109 2338.8,-107.53 2329.1,-105.37 2319.86,-103"/>
<polygon fill="midnightblue" stroke="midnightblue" points="3291,-165.63 3301.1,-162.42 3291.2,-158.64 3291,-165.63"/>
</g>
<!-- Node54 -->
<g id="node42" class="node">
<title>Node54</title>
<g id="a_node42"><a xlink:href="../../d7/d1b/pen__toolbar_8cpp.html" target="_top" xlink:title=" ">
<polygon fill="white" stroke="black" points="2357.5,-73 2357.5,-103 2476.5,-103 2476.5,-73 2357.5,-73"/>
<text text-anchor="start" x="2365.5" y="-91" font-family="Helvetica,sans-Serif" font-size="10.00">src/libs/vwidgets/pen</text>
<text text-anchor="middle" x="2417" y="-80" font-family="Helvetica,sans-Serif" font-size="10.00">_toolbar.cpp</text>
</a>
</g>
</g>
<!-- Node19&#45;&gt;Node54 -->
<g id="edge49" class="edge">
<title>Node19&#45;&gt;Node54</title>
<path fill="none" stroke="midnightblue" d="M3290.91,-161.37C3083.72,-153.9 2637.76,-135.31 2486,-109 2477.52,-107.53 2468.6,-105.4 2460.09,-103.07"/>
<polygon fill="midnightblue" stroke="midnightblue" points="3291.08,-164.87 3301.2,-161.73 3291.33,-157.88 3291.08,-164.87"/>
</g>
<!-- Node55 -->
<g id="node43" class="node">
<title>Node55</title>
<g id="a_node43"><a xlink:href="../../d8/d76/scene__rect_8cpp.html" target="_top" xlink:title=" ">
<polygon fill="white" stroke="black" points="2495,-73 2495,-103 2625,-103 2625,-73 2495,-73"/>
<text text-anchor="start" x="2503" y="-91" font-family="Helvetica,sans-Serif" font-size="10.00">src/libs/vwidgets/scene</text>
<text text-anchor="middle" x="2560" y="-80" font-family="Helvetica,sans-Serif" font-size="10.00">_rect.cpp</text>
</a>
</g>
</g>
<!-- Node19&#45;&gt;Node55 -->
<g id="edge50" class="edge">
<title>Node19&#45;&gt;Node55</title>
<path fill="none" stroke="midnightblue" d="M3291.32,-163.58C3142.53,-160.15 2866.12,-148.49 2634,-109 2625.08,-107.48 2615.68,-105.36 2606.68,-103.06"/>
<polygon fill="midnightblue" stroke="midnightblue" points="3291.3,-167.08 3301.37,-163.8 3291.45,-160.08 3291.3,-167.08"/>
</g>
<!-- Node56 -->
<g id="node44" class="node">
<title>Node56</title>
<g id="a_node44"><a xlink:href="../../dd/df6/vabstractmainwindow_8cpp.html" target="_top" xlink:title=" ">
<polygon fill="white" stroke="black" points="2643.5,-78.5 2643.5,-97.5 2872.5,-97.5 2872.5,-78.5 2643.5,-78.5"/>
<text text-anchor="middle" x="2758" y="-85.5" font-family="Helvetica,sans-Serif" font-size="10.00">src/libs/vwidgets/vabstractmainwindow.cpp</text>
</a>
</g>
</g>
<!-- Node19&#45;&gt;Node56 -->
<g id="edge51" class="edge">
<title>Node19&#45;&gt;Node56</title>
<path fill="none" stroke="midnightblue" d="M3295.93,-155.5C3191.26,-145.46 3024.57,-128.42 2881,-109 2856.45,-105.68 2829.26,-101.33 2806.69,-97.53"/>
<polygon fill="midnightblue" stroke="midnightblue" points="3295.89,-159.01 3306.18,-156.48 3296.56,-152.04 3295.89,-159.01"/>
</g>
<!-- Node38&#45;&gt;Node39 -->
<g id="edge30" class="edge">
<title>Node38&#45;&gt;Node39</title>
<path fill="none" stroke="midnightblue" d="M1752.68,-70.21C1757.48,-68.96 1762.31,-67.86 1767,-67 1941.06,-35.28 2489.18,-21.28 2663.33,-17.56"/>
<polygon fill="midnightblue" stroke="midnightblue" points="1751.61,-66.88 1742.93,-72.95 1753.5,-73.61 1751.61,-66.88"/>
</g>
<!-- Node50&#45;&gt;Node51 -->
<g id="edge44" class="edge">
<title>Node50&#45;&gt;Node51</title>
<path fill="none" stroke="midnightblue" d="M4831.04,-69.83C4834.07,-68.86 4837.07,-67.92 4840,-67 4880.1,-54.43 4925.79,-40.57 4959.07,-30.55"/>
<polygon fill="midnightblue" stroke="midnightblue" points="4829.8,-66.55 4821.33,-72.92 4831.92,-73.22 4829.8,-66.55"/>
</g>
<!-- Node65&#45;&gt;Node3 -->
<g id="edge53" class="edge">
<title>Node65&#45;&gt;Node3</title>
<path fill="none" stroke="midnightblue" d="M6006.58,-135.59C6008.61,-126.51 6010.79,-116.74 6012.64,-108.51"/>
<polygon fill="midnightblue" stroke="midnightblue" points="6003.15,-134.91 6004.38,-145.43 6009.98,-136.43 6003.15,-134.91"/>
</g>
</g>
</svg>
