<?xml version="1.0" encoding="UTF-8" standalone="no"?>
<!DOCTYPE svg PUBLIC "-//W3C//DTD SVG 1.1//EN"
 "http://www.w3.org/Graphics/SVG/1.1/DTD/svg11.dtd">
<!-- Generated by graphviz version 2.43.0 (0)
 -->
<!-- Title: src/libs/vpatterndb/variables/measurement_variable.h Pages: 1 -->
<svg width="6029pt" height="407pt"
 viewBox="0.00 0.00 6029.00 407.00" xmlns="http://www.w3.org/2000/svg" xmlns:xlink="http://www.w3.org/1999/xlink">
<g id="graph0" class="graph" transform="scale(1 1) rotate(0) translate(4 403)">
<title>src/libs/vpatterndb/variables/measurement_variable.h</title>
<polygon fill="white" stroke="transparent" points="-4,4 -4,-403 6025,-403 6025,4 -4,4"/>
<!-- Node1 -->
<g id="node1" class="node">
<title>Node1</title>
<g id="a_node1"><a xlink:title=" ">
<polygon fill="#bfbfbf" stroke="black" points="5510,-357.5 5510,-398.5 5646,-398.5 5646,-357.5 5510,-357.5"/>
<text text-anchor="start" x="5518" y="-386.5" font-family="Helvetica,sans-Serif" font-size="10.00">src/libs/vpatterndb</text>
<text text-anchor="start" x="5518" y="-375.5" font-family="Helvetica,sans-Serif" font-size="10.00">/variables/measurement</text>
<text text-anchor="middle" x="5578" y="-364.5" font-family="Helvetica,sans-Serif" font-size="10.00">_variable.h</text>
</a>
</g>
</g>
<!-- Node2 -->
<g id="node2" class="node">
<title>Node2</title>
<g id="a_node2"><a xlink:href="../../d9/de3/measurements_8cpp.html" target="_top" xlink:title=" ">
<polygon fill="white" stroke="black" points="5596,-78.5 5596,-97.5 5786,-97.5 5786,-78.5 5596,-78.5"/>
<text text-anchor="middle" x="5691" y="-85.5" font-family="Helvetica,sans-Serif" font-size="10.00">src/libs/vformat/measurements.cpp</text>
</a>
</g>
</g>
<!-- Node1&#45;&gt;Node2 -->
<g id="edge1" class="edge">
<title>Node1&#45;&gt;Node2</title>
<path fill="none" stroke="midnightblue" d="M5623.25,-352.36C5674.71,-321.46 5755.99,-263.15 5790,-187 5797.61,-169.96 5799.4,-161.12 5790,-145 5775.57,-120.27 5745.73,-105.59 5722.56,-97.5"/>
<polygon fill="midnightblue" stroke="midnightblue" points="5621.47,-349.35 5614.63,-357.45 5625.02,-355.38 5621.47,-349.35"/>
</g>
<!-- Node3 -->
<g id="node3" class="node">
<title>Node3</title>
<g id="a_node3"><a xlink:href="../../d4/da4/measurement__variable_8cpp.html" target="_top" xlink:title=" ">
<polygon fill="white" stroke="black" points="5885,-67.5 5885,-108.5 6021,-108.5 6021,-67.5 5885,-67.5"/>
<text text-anchor="start" x="5893" y="-96.5" font-family="Helvetica,sans-Serif" font-size="10.00">src/libs/vpatterndb</text>
<text text-anchor="start" x="5893" y="-85.5" font-family="Helvetica,sans-Serif" font-size="10.00">/variables/measurement</text>
<text text-anchor="middle" x="5953" y="-74.5" font-family="Helvetica,sans-Serif" font-size="10.00">_variable.cpp</text>
</a>
</g>
</g>
<!-- Node1&#45;&gt;Node3 -->
<g id="edge2" class="edge">
<title>Node1&#45;&gt;Node3</title>
<path fill="none" stroke="midnightblue" d="M5655.95,-365.71C5751.87,-347.17 5910.75,-300.26 5982,-187 5997.4,-162.52 5981.43,-129.48 5967.8,-108.71"/>
<polygon fill="midnightblue" stroke="midnightblue" points="5655.19,-362.29 5646.01,-367.57 5656.48,-369.17 5655.19,-362.29"/>
</g>
<!-- Node4 -->
<g id="node4" class="node">
<title>Node4</title>
<g id="a_node4"><a xlink:href="../../d6/d46/vcontainer_8cpp.html" target="_top" xlink:title=" ">
<polygon fill="white" stroke="black" points="1321.5,-73 1321.5,-103 1428.5,-103 1428.5,-73 1321.5,-73"/>
<text text-anchor="start" x="1329.5" y="-91" font-family="Helvetica,sans-Serif" font-size="10.00">src/libs/vpatterndb</text>
<text text-anchor="middle" x="1375" y="-80" font-family="Helvetica,sans-Serif" font-size="10.00">/vcontainer.cpp</text>
</a>
</g>
</g>
<!-- Node1&#45;&gt;Node4 -->
<g id="edge3" class="edge">
<title>Node1&#45;&gt;Node4</title>
<path fill="none" stroke="midnightblue" d="M5499.72,-375.27C4973.57,-363.37 1961.35,-291.05 1568,-187 1500.61,-169.17 1429.55,-125.73 1395.52,-103.15"/>
<polygon fill="midnightblue" stroke="midnightblue" points="5499.79,-378.77 5509.86,-375.5 5499.94,-371.77 5499.79,-378.77"/>
</g>
<!-- Node5 -->
<g id="node5" class="node">
<title>Node5</title>
<g id="a_node5"><a xlink:href="../../de/dca/variables_8h.html" target="_top" xlink:title=" ">
<polygon fill="white" stroke="black" points="5062.5,-290.5 5062.5,-320.5 5169.5,-320.5 5169.5,-290.5 5062.5,-290.5"/>
<text text-anchor="start" x="5070.5" y="-308.5" font-family="Helvetica,sans-Serif" font-size="10.00">src/libs/vpatterndb</text>
<text text-anchor="middle" x="5116" y="-297.5" font-family="Helvetica,sans-Serif" font-size="10.00">/variables.h</text>
</a>
</g>
</g>
<!-- Node1&#45;&gt;Node5 -->
<g id="edge4" class="edge">
<title>Node1&#45;&gt;Node5</title>
<path fill="none" stroke="midnightblue" d="M5499.82,-365.07C5405.95,-350.75 5251.01,-327.1 5169.67,-314.69"/>
<polygon fill="midnightblue" stroke="midnightblue" points="5499.42,-368.55 5509.83,-366.6 5500.47,-361.63 5499.42,-368.55"/>
</g>
<!-- Node6 -->
<g id="node6" class="node">
<title>Node6</title>
<g id="a_node6"><a xlink:href="../../d3/df7/vcontainer_8h.html" target="_top" xlink:title=" ">
<polygon fill="white" stroke="black" points="4831.5,-223.5 4831.5,-253.5 4938.5,-253.5 4938.5,-223.5 4831.5,-223.5"/>
<text text-anchor="start" x="4839.5" y="-241.5" font-family="Helvetica,sans-Serif" font-size="10.00">src/libs/vpatterndb</text>
<text text-anchor="middle" x="4885" y="-230.5" font-family="Helvetica,sans-Serif" font-size="10.00">/vcontainer.h</text>
</a>
</g>
</g>
<!-- Node5&#45;&gt;Node6 -->
<g id="edge5" class="edge">
<title>Node5&#45;&gt;Node6</title>
<path fill="none" stroke="midnightblue" d="M5056.35,-287.71C5018.76,-277.14 4970.77,-263.63 4935.15,-253.61"/>
<polygon fill="midnightblue" stroke="midnightblue" points="5055.59,-291.14 5066.16,-290.48 5057.48,-284.4 5055.59,-291.14"/>
</g>
<!-- Node6&#45;&gt;Node2 -->
<g id="edge9" class="edge">
<title>Node6&#45;&gt;Node2</title>
<path fill="none" stroke="midnightblue" d="M4948.98,-235.32C5105.79,-229.61 5500.37,-212.83 5554,-187 5576.95,-175.95 5573.05,-160.83 5593,-145 5618.33,-124.9 5651.72,-107.45 5672.26,-97.58"/>
<polygon fill="midnightblue" stroke="midnightblue" points="4948.42,-231.84 4938.56,-235.7 4948.68,-238.84 4948.42,-231.84"/>
</g>
<!-- Node6&#45;&gt;Node4 -->
<g id="edge56" class="edge">
<title>Node6&#45;&gt;Node4</title>
<path fill="none" stroke="midnightblue" d="M4821.1,-237.22C4406.34,-235.33 2103.36,-223.26 1793,-187 1632.55,-168.25 1594.04,-150.82 1438,-109 1431.35,-107.22 1424.36,-105.17 1417.54,-103.08"/>
<polygon fill="midnightblue" stroke="midnightblue" points="4821.38,-240.73 4831.4,-237.27 4821.42,-233.73 4821.38,-240.73"/>
</g>
<!-- Node7 -->
<g id="node7" class="node">
<title>Node7</title>
<g id="a_node7"><a xlink:href="../../d2/d47/image__dialog_8cpp.html" target="_top" xlink:title=" ">
<polygon fill="white" stroke="black" points="1447,-73 1447,-103 1559,-103 1559,-73 1447,-73"/>
<text text-anchor="start" x="1455" y="-91" font-family="Helvetica,sans-Serif" font-size="10.00">src/libs/tools/image</text>
<text text-anchor="middle" x="1503" y="-80" font-family="Helvetica,sans-Serif" font-size="10.00">_dialog.cpp</text>
</a>
</g>
</g>
<!-- Node6&#45;&gt;Node7 -->
<g id="edge6" class="edge">
<title>Node6&#45;&gt;Node7</title>
<path fill="none" stroke="midnightblue" d="M4821.3,-237.43C4549.27,-236.87 3458.11,-231.78 2563,-187 2119.98,-164.84 2003.73,-192.06 1568,-109 1560.11,-107.5 1551.83,-105.38 1543.92,-103.08"/>
<polygon fill="midnightblue" stroke="midnightblue" points="4821.38,-240.93 4831.38,-237.45 4821.39,-233.93 4821.38,-240.93"/>
</g>
<!-- Node8 -->
<g id="node8" class="node">
<title>Node8</title>
<g id="a_node8"><a xlink:href="../../dc/db7/measurements_8h.html" target="_top" xlink:title=" ">
<polygon fill="white" stroke="black" points="5601.5,-156.5 5601.5,-175.5 5780.5,-175.5 5780.5,-156.5 5601.5,-156.5"/>
<text text-anchor="middle" x="5691" y="-163.5" font-family="Helvetica,sans-Serif" font-size="10.00">src/libs/vformat/measurements.h</text>
</a>
</g>
</g>
<!-- Node6&#45;&gt;Node8 -->
<g id="edge7" class="edge">
<title>Node6&#45;&gt;Node8</title>
<path fill="none" stroke="midnightblue" d="M4949,-235.43C5072.71,-230.86 5353.1,-217.79 5587,-187 5608.69,-184.14 5632.69,-179.62 5652.16,-175.6"/>
<polygon fill="midnightblue" stroke="midnightblue" points="4948.81,-231.93 4938.94,-235.79 4949.06,-238.93 4948.81,-231.93"/>
</g>
<!-- Node9 -->
<g id="node9" class="node">
<title>Node9</title>
<g id="a_node9"><a xlink:href="../../d6/de0/vlayoutpiece_8h.html" target="_top" xlink:title=" ">
<polygon fill="white" stroke="black" points="643,-156.5 643,-175.5 809,-175.5 809,-156.5 643,-156.5"/>
<text text-anchor="middle" x="726" y="-163.5" font-family="Helvetica,sans-Serif" font-size="10.00">src/libs/vlayout/vlayoutpiece.h</text>
</a>
</g>
</g>
<!-- Node6&#45;&gt;Node9 -->
<g id="edge10" class="edge">
<title>Node6&#45;&gt;Node9</title>
<path fill="none" stroke="midnightblue" d="M4820.94,-236.67C4486.75,-232.33 2909.4,-211.43 1619,-187 1320.92,-181.36 966.92,-172.91 809.1,-169.05"/>
<polygon fill="midnightblue" stroke="midnightblue" points="4821.34,-240.18 4831.38,-236.81 4821.43,-233.18 4821.34,-240.18"/>
</g>
<!-- Node19 -->
<g id="node18" class="node">
<title>Node19</title>
<g id="a_node18"><a xlink:href="../../d8/d70/vtextmanager_8cpp.html" target="_top" xlink:title=" ">
<polygon fill="white" stroke="black" points="1577,-78.5 1577,-97.5 1759,-97.5 1759,-78.5 1577,-78.5"/>
<text text-anchor="middle" x="1668" y="-85.5" font-family="Helvetica,sans-Serif" font-size="10.00">src/libs/vlayout/vtextmanager.cpp</text>
</a>
</g>
</g>
<!-- Node6&#45;&gt;Node19 -->
<g id="edge21" class="edge">
<title>Node6&#45;&gt;Node19</title>
<path fill="none" stroke="midnightblue" d="M4821.14,-236.17C4603.25,-231.5 3869.08,-214.61 3263,-187 2951.65,-172.82 2874.24,-161.38 2563,-145 2209.79,-126.41 2119.1,-151.81 1768,-109 1746.56,-106.39 1722.84,-101.72 1703.89,-97.55"/>
<polygon fill="midnightblue" stroke="midnightblue" points="4821.35,-239.68 4831.42,-236.39 4821.5,-232.68 4821.35,-239.68"/>
</g>
<!-- Node20 -->
<g id="node19" class="node">
<title>Node20</title>
<g id="a_node19"><a xlink:href="../../d5/d74/vabstractapplication_8h.html" target="_top" xlink:title=" ">
<polygon fill="white" stroke="red" points="3272.5,-156.5 3272.5,-175.5 3467.5,-175.5 3467.5,-156.5 3272.5,-156.5"/>
<text text-anchor="middle" x="3370" y="-163.5" font-family="Helvetica,sans-Serif" font-size="10.00">src/libs/vmisc/vabstractapplication.h</text>
</a>
</g>
</g>
<!-- Node6&#45;&gt;Node20 -->
<g id="edge22" class="edge">
<title>Node6&#45;&gt;Node20</title>
<path fill="none" stroke="midnightblue" d="M4820.89,-234.52C4583.51,-223.47 3753.55,-184.85 3467.66,-171.54"/>
<polygon fill="midnightblue" stroke="midnightblue" points="4820.93,-238.02 4831.08,-234.99 4821.25,-231.03 4820.93,-238.02"/>
</g>
<!-- Node48 -->
<g id="node34" class="node">
<title>Node48</title>
<g id="a_node34"><a xlink:href="../../db/d11/vformula_8cpp.html" target="_top" xlink:title=" ">
<polygon fill="white" stroke="black" points="4975.5,-73 4975.5,-103 5082.5,-103 5082.5,-73 4975.5,-73"/>
<text text-anchor="start" x="4983.5" y="-91" font-family="Helvetica,sans-Serif" font-size="10.00">src/libs/vpatterndb</text>
<text text-anchor="middle" x="5029" y="-80" font-family="Helvetica,sans-Serif" font-size="10.00">/vformula.cpp</text>
</a>
</g>
</g>
<!-- Node6&#45;&gt;Node48 -->
<g id="edge58" class="edge">
<title>Node6&#45;&gt;Node48</title>
<path fill="none" stroke="midnightblue" d="M4821.02,-235.4C4785.45,-230.54 4743.87,-217.97 4721,-187 4709.91,-171.98 4708.8,-159.13 4721,-145 4756.97,-103.36 4912.38,-121.37 4966,-109 4973.16,-107.35 4980.67,-105.27 4987.92,-103.09"/>
<polygon fill="midnightblue" stroke="midnightblue" points="4821.01,-238.92 4831.35,-236.62 4821.83,-231.97 4821.01,-238.92"/>
</g>
<!-- Node49 -->
<g id="node35" class="node">
<title>Node49</title>
<g id="a_node35"><a xlink:href="../../df/d7a/vpiece_8cpp.html" target="_top" xlink:title=" ">
<polygon fill="white" stroke="black" points="5100.5,-73 5100.5,-103 5207.5,-103 5207.5,-73 5100.5,-73"/>
<text text-anchor="start" x="5108.5" y="-91" font-family="Helvetica,sans-Serif" font-size="10.00">src/libs/vpatterndb</text>
<text text-anchor="middle" x="5154" y="-80" font-family="Helvetica,sans-Serif" font-size="10.00">/vpiece.cpp</text>
</a>
</g>
</g>
<!-- Node6&#45;&gt;Node49 -->
<g id="edge60" class="edge">
<title>Node6&#45;&gt;Node49</title>
<path fill="none" stroke="midnightblue" d="M4821.72,-227.54C4797.96,-220.39 4773.28,-208.1 4759,-187 4748.54,-171.54 4746.53,-158.89 4759,-145 4808.72,-89.61 5019.2,-124.51 5092,-109 5099.41,-107.42 5107.19,-105.3 5114.64,-103.03"/>
<polygon fill="midnightblue" stroke="midnightblue" points="4820.89,-230.94 4831.46,-230.21 4822.75,-224.19 4820.89,-230.94"/>
</g>
<!-- Node51 -->
<g id="node37" class="node">
<title>Node51</title>
<g id="a_node37"><a xlink:href="../../d8/dba/vpiecenode_8cpp.html" target="_top" xlink:title=" ">
<polygon fill="white" stroke="black" points="3272.5,-0.5 3272.5,-30.5 3379.5,-30.5 3379.5,-0.5 3272.5,-0.5"/>
<text text-anchor="start" x="3280.5" y="-18.5" font-family="Helvetica,sans-Serif" font-size="10.00">src/libs/vpatterndb</text>
<text text-anchor="middle" x="3326" y="-7.5" font-family="Helvetica,sans-Serif" font-size="10.00">/vpiecenode.cpp</text>
</a>
</g>
</g>
<!-- Node6&#45;&gt;Node51 -->
<g id="edge59" class="edge">
<title>Node6&#45;&gt;Node51</title>
<path fill="none" stroke="midnightblue" d="M4827.79,-219.03C4813.28,-211.47 4799.42,-201.09 4791,-187 4781.42,-170.98 4778.37,-158.74 4791,-145 4855.29,-75.05 5152.71,-178.95 5217,-109 5229.63,-95.26 5230.02,-80.37 5217,-67 5184.07,-33.18 3683.91,-19.37 3379.54,-16.91"/>
<polygon fill="midnightblue" stroke="midnightblue" points="4826.34,-222.22 4836.88,-223.38 4829.37,-215.91 4826.34,-222.22"/>
</g>
<!-- Node65 -->
<g id="node45" class="node">
<title>Node65</title>
<g id="a_node45"><a xlink:href="../../d3/d02/custom__variable__p_8h.html" target="_top" xlink:title=" ">
<polygon fill="white" stroke="red" points="4800.5,-151 4800.5,-181 4969.5,-181 4969.5,-151 4800.5,-151"/>
<text text-anchor="start" x="4808.5" y="-169" font-family="Helvetica,sans-Serif" font-size="10.00">src/libs/vpatterndb</text>
<text text-anchor="middle" x="4885" y="-158" font-family="Helvetica,sans-Serif" font-size="10.00">/variables/custom_variable_p.h</text>
</a>
</g>
</g>
<!-- Node6&#45;&gt;Node65 -->
<g id="edge53" class="edge">
<title>Node6&#45;&gt;Node65</title>
<path fill="none" stroke="midnightblue" d="M4885,-213.23C4885,-202.57 4885,-190.41 4885,-181.25"/>
<polygon fill="midnightblue" stroke="midnightblue" points="4881.5,-213.23 4885,-223.23 4888.5,-213.23 4881.5,-213.23"/>
</g>
<!-- Node67 -->
<g id="node46" class="node">
<title>Node67</title>
<g id="a_node46"><a xlink:href="../../d7/d8a/measurement__variable__p_8h.html" target="_top" xlink:title=" ">
<polygon fill="white" stroke="black" points="5837,-145.5 5837,-186.5 5973,-186.5 5973,-145.5 5837,-145.5"/>
<text text-anchor="start" x="5845" y="-174.5" font-family="Helvetica,sans-Serif" font-size="10.00">src/libs/vpatterndb</text>
<text text-anchor="start" x="5845" y="-163.5" font-family="Helvetica,sans-Serif" font-size="10.00">/variables/measurement</text>
<text text-anchor="middle" x="5905" y="-152.5" font-family="Helvetica,sans-Serif" font-size="10.00">_variable_p.h</text>
</a>
</g>
</g>
<!-- Node6&#45;&gt;Node67 -->
<g id="edge54" class="edge">
<title>Node6&#45;&gt;Node67</title>
<path fill="none" stroke="midnightblue" d="M4949.01,-236.49C5097.34,-233.58 5475.87,-222.96 5790,-187 5805.2,-185.26 5821.44,-182.81 5836.78,-180.21"/>
<polygon fill="midnightblue" stroke="midnightblue" points="4948.67,-232.99 4938.74,-236.68 4948.8,-239.99 4948.67,-232.99"/>
</g>
<!-- Node68 -->
<g id="node47" class="node">
<title>Node68</title>
<g id="a_node47"><a xlink:href="../../d6/d91/vnodedetail_8cpp.html" target="_top" xlink:title=" ">
<polygon fill="white" stroke="black" points="4987.5,-151 4987.5,-181 5094.5,-181 5094.5,-151 4987.5,-151"/>
<text text-anchor="start" x="4995.5" y="-169" font-family="Helvetica,sans-Serif" font-size="10.00">src/libs/vpatterndb</text>
<text text-anchor="middle" x="5041" y="-158" font-family="Helvetica,sans-Serif" font-size="10.00">/vnodedetail.cpp</text>
</a>
</g>
</g>
<!-- Node6&#45;&gt;Node68 -->
<g id="edge57" class="edge">
<title>Node6&#45;&gt;Node68</title>
<path fill="none" stroke="midnightblue" d="M4925.52,-219.19C4951.85,-207.29 4985.64,-192.02 5009.86,-181.07"/>
<polygon fill="midnightblue" stroke="midnightblue" points="4923.87,-216.1 4916.19,-223.4 4926.75,-222.47 4923.87,-216.1"/>
</g>
<!-- Node69 -->
<g id="node48" class="node">
<title>Node69</title>
<g id="a_node48"><a xlink:href="../../da/de1/vpiecepath_8cpp.html" target="_top" xlink:title=" ">
<polygon fill="white" stroke="black" points="5112.5,-151 5112.5,-181 5219.5,-181 5219.5,-151 5112.5,-151"/>
<text text-anchor="start" x="5120.5" y="-169" font-family="Helvetica,sans-Serif" font-size="10.00">src/libs/vpatterndb</text>
<text text-anchor="middle" x="5166" y="-158" font-family="Helvetica,sans-Serif" font-size="10.00">/vpiecepath.cpp</text>
</a>
</g>
</g>
<!-- Node6&#45;&gt;Node69 -->
<g id="edge61" class="edge">
<title>Node6&#45;&gt;Node69</title>
<path fill="none" stroke="midnightblue" d="M4948.83,-224.29C4992.71,-214.84 5052.18,-201.3 5104,-187 5110.54,-185.19 5117.42,-183.14 5124.12,-181.04"/>
<polygon fill="midnightblue" stroke="midnightblue" points="4947.92,-220.9 4938.87,-226.42 4949.38,-227.75 4947.92,-220.9"/>
</g>
<!-- Node70 -->
<g id="node49" class="node">
<title>Node70</title>
<g id="a_node49"><a xlink:href="../../d1/d3a/abstracttest_8cpp.html" target="_top" xlink:title=" ">
<polygon fill="white" stroke="black" points="5237.5,-156.5 5237.5,-175.5 5398.5,-175.5 5398.5,-156.5 5237.5,-156.5"/>
<text text-anchor="middle" x="5318" y="-163.5" font-family="Helvetica,sans-Serif" font-size="10.00">src/libs/vtest/abstracttest.cpp</text>
</a>
</g>
</g>
<!-- Node6&#45;&gt;Node70 -->
<g id="edge62" class="edge">
<title>Node6&#45;&gt;Node70</title>
<path fill="none" stroke="midnightblue" d="M4948.84,-229.59C5018.09,-220.67 5131.76,-205.04 5229,-187 5246.75,-183.71 5266.34,-179.38 5282.61,-175.59"/>
<polygon fill="midnightblue" stroke="midnightblue" points="4948.01,-226.17 4938.54,-230.91 4948.9,-233.11 4948.01,-226.17"/>
</g>
<!-- Node71 -->
<g id="node50" class="node">
<title>Node71</title>
<g id="a_node50"><a xlink:href="../../da/db4/piece__tablewidgetitem_8cpp.html" target="_top" xlink:title=" ">
<polygon fill="white" stroke="black" points="5417,-151 5417,-181 5545,-181 5545,-151 5417,-151"/>
<text text-anchor="start" x="5425" y="-169" font-family="Helvetica,sans-Serif" font-size="10.00">src/libs/vwidgets/piece</text>
<text text-anchor="middle" x="5481" y="-158" font-family="Helvetica,sans-Serif" font-size="10.00">_tablewidgetitem.cpp</text>
</a>
</g>
</g>
<!-- Node6&#45;&gt;Node71 -->
<g id="edge63" class="edge">
<title>Node6&#45;&gt;Node71</title>
<path fill="none" stroke="midnightblue" d="M4949.02,-234.85C5048.1,-229.96 5244.23,-217.11 5408,-187 5416.66,-185.41 5425.79,-183.28 5434.54,-181"/>
<polygon fill="midnightblue" stroke="midnightblue" points="4948.7,-231.36 4938.88,-235.34 4949.03,-238.35 4948.7,-231.36"/>
</g>
<!-- Node8&#45;&gt;Node2 -->
<g id="edge8" class="edge">
<title>Node8&#45;&gt;Node2</title>
<path fill="none" stroke="midnightblue" d="M5691,-146.22C5691,-130.7 5691,-109.36 5691,-97.62"/>
<polygon fill="midnightblue" stroke="midnightblue" points="5687.5,-146.28 5691,-156.28 5694.5,-146.28 5687.5,-146.28"/>
</g>
<!-- Node10 -->
<g id="node10" class="node">
<title>Node10</title>
<g id="a_node10"><a xlink:href="../../dd/d66/vdxfengine_8cpp.html" target="_top" xlink:title=" ">
<polygon fill="white" stroke="black" points="0,-78.5 0,-97.5 154,-97.5 154,-78.5 0,-78.5"/>
<text text-anchor="middle" x="77" y="-85.5" font-family="Helvetica,sans-Serif" font-size="10.00">src/libs/vdxf/vdxfengine.cpp</text>
</a>
</g>
</g>
<!-- Node9&#45;&gt;Node10 -->
<g id="edge11" class="edge">
<title>Node9&#45;&gt;Node10</title>
<path fill="none" stroke="midnightblue" d="M632.3,-159.4C520.17,-151.85 326.99,-136.11 163,-109 145.15,-106.05 125.49,-101.57 109.47,-97.6"/>
<polygon fill="midnightblue" stroke="midnightblue" points="632.36,-162.91 642.57,-160.09 632.82,-155.93 632.36,-162.91"/>
</g>
<!-- Node11 -->
<g id="node11" class="node">
<title>Node11</title>
<g id="a_node11"><a xlink:href="../../de/da8/vbank_8cpp.html" target="_top" xlink:title=" ">
<polygon fill="white" stroke="black" points="172,-78.5 172,-97.5 316,-97.5 316,-78.5 172,-78.5"/>
<text text-anchor="middle" x="244" y="-85.5" font-family="Helvetica,sans-Serif" font-size="10.00">src/libs/vlayout/vbank.cpp</text>
</a>
</g>
</g>
<!-- Node9&#45;&gt;Node11 -->
<g id="edge12" class="edge">
<title>Node9&#45;&gt;Node11</title>
<path fill="none" stroke="midnightblue" d="M637.38,-155.29C555.84,-145.72 431.73,-129.57 325,-109 308.5,-105.82 290.32,-101.42 275.38,-97.55"/>
<polygon fill="midnightblue" stroke="midnightblue" points="637.27,-158.8 647.61,-156.48 638.08,-151.85 637.27,-158.8"/>
</g>
<!-- Node12 -->
<g id="node12" class="node">
<title>Node12</title>
<g id="a_node12"><a xlink:href="../../d3/d39/vlayoutgenerator_8cpp.html" target="_top" xlink:title=" ">
<polygon fill="white" stroke="black" points="334.5,-78.5 334.5,-97.5 531.5,-97.5 531.5,-78.5 334.5,-78.5"/>
<text text-anchor="middle" x="433" y="-85.5" font-family="Helvetica,sans-Serif" font-size="10.00">src/libs/vlayout/vlayoutgenerator.cpp</text>
</a>
</g>
</g>
<!-- Node9&#45;&gt;Node12 -->
<g id="edge13" class="edge">
<title>Node9&#45;&gt;Node12</title>
<path fill="none" stroke="midnightblue" d="M683.2,-153.9C624.21,-138.6 519.18,-111.35 465.92,-97.54"/>
<polygon fill="midnightblue" stroke="midnightblue" points="682.4,-157.31 692.96,-156.43 684.16,-150.53 682.4,-157.31"/>
</g>
<!-- Node13 -->
<g id="node13" class="node">
<title>Node13</title>
<g id="a_node13"><a xlink:href="../../d2/d2d/vlayoutpaper__p_8h.html" target="_top" xlink:title=" ">
<polygon fill="white" stroke="black" points="754.5,-78.5 754.5,-97.5 933.5,-97.5 933.5,-78.5 754.5,-78.5"/>
<text text-anchor="middle" x="844" y="-85.5" font-family="Helvetica,sans-Serif" font-size="10.00">src/libs/vlayout/vlayoutpaper_p.h</text>
</a>
</g>
</g>
<!-- Node9&#45;&gt;Node13 -->
<g id="edge14" class="edge">
<title>Node9&#45;&gt;Node13</title>
<path fill="none" stroke="midnightblue" d="M748.09,-150.77C772.35,-135.15 810.53,-110.56 830.62,-97.62"/>
<polygon fill="midnightblue" stroke="midnightblue" points="746.05,-147.92 739.54,-156.28 749.84,-153.81 746.05,-147.92"/>
</g>
<!-- Node14 -->
<g id="node14" class="node">
<title>Node14</title>
<g id="a_node14"><a xlink:href="../../d1/dd1/vlayoutpaper_8cpp.html" target="_top" xlink:title=" ">
<polygon fill="white" stroke="black" points="637,-6 637,-25 815,-25 815,-6 637,-6"/>
<text text-anchor="middle" x="726" y="-13" font-family="Helvetica,sans-Serif" font-size="10.00">src/libs/vlayout/vlayoutpaper.cpp</text>
</a>
</g>
</g>
<!-- Node9&#45;&gt;Node14 -->
<g id="edge16" class="edge">
<title>Node9&#45;&gt;Node14</title>
<path fill="none" stroke="midnightblue" d="M726,-145.74C726,-113.16 726,-48.42 726,-25.11"/>
<polygon fill="midnightblue" stroke="midnightblue" points="722.5,-146.16 726,-156.16 729.5,-146.16 722.5,-146.16"/>
</g>
<!-- Node15 -->
<g id="node15" class="node">
<title>Node15</title>
<g id="a_node15"><a xlink:href="../../df/d5d/vcontour_8cpp.html" target="_top" xlink:title=" ">
<polygon fill="white" stroke="black" points="952,-78.5 952,-97.5 1108,-97.5 1108,-78.5 952,-78.5"/>
<text text-anchor="middle" x="1030" y="-85.5" font-family="Helvetica,sans-Serif" font-size="10.00">src/libs/vlayout/vcontour.cpp</text>
</a>
</g>
</g>
<!-- Node9&#45;&gt;Node15 -->
<g id="edge17" class="edge">
<title>Node9&#45;&gt;Node15</title>
<path fill="none" stroke="midnightblue" d="M770.03,-153.99C831.16,-138.71 940.47,-111.38 995.84,-97.54"/>
<polygon fill="midnightblue" stroke="midnightblue" points="769.13,-150.61 760.28,-156.43 770.83,-157.4 769.13,-150.61"/>
</g>
<!-- Node16 -->
<g id="node16" class="node">
<title>Node16</title>
<g id="a_node16"><a xlink:href="../../db/d5c/vposition_8h.html" target="_top" xlink:title=" ">
<polygon fill="white" stroke="red" points="550,-78.5 550,-97.5 698,-97.5 698,-78.5 550,-78.5"/>
<text text-anchor="middle" x="624" y="-85.5" font-family="Helvetica,sans-Serif" font-size="10.00">src/libs/vlayout/vposition.h</text>
</a>
</g>
</g>
<!-- Node9&#45;&gt;Node16 -->
<g id="edge18" class="edge">
<title>Node9&#45;&gt;Node16</title>
<path fill="none" stroke="midnightblue" d="M706.07,-150.15C685.07,-134.5 652.7,-110.38 635.56,-97.62"/>
<polygon fill="midnightblue" stroke="midnightblue" points="704.19,-153.11 714.3,-156.28 708.37,-147.5 704.19,-153.11"/>
</g>
<!-- Node18 -->
<g id="node17" class="node">
<title>Node18</title>
<g id="a_node17"><a xlink:href="../../dd/d70/vlayoutpiece_8cpp.html" target="_top" xlink:title=" ">
<polygon fill="white" stroke="black" points="1126.5,-78.5 1126.5,-97.5 1303.5,-97.5 1303.5,-78.5 1126.5,-78.5"/>
<text text-anchor="middle" x="1215" y="-85.5" font-family="Helvetica,sans-Serif" font-size="10.00">src/libs/vlayout/vlayoutpiece.cpp</text>
</a>
</g>
</g>
<!-- Node9&#45;&gt;Node18 -->
<g id="edge20" class="edge">
<title>Node9&#45;&gt;Node18</title>
<path fill="none" stroke="midnightblue" d="M804.37,-155.16C883.46,-144.9 1009.01,-127.74 1117,-109 1136.5,-105.62 1158.07,-101.28 1176,-97.51"/>
<polygon fill="midnightblue" stroke="midnightblue" points="803.47,-151.75 794,-156.5 804.37,-158.69 803.47,-151.75"/>
</g>
<!-- Node13&#45;&gt;Node14 -->
<g id="edge15" class="edge">
<title>Node13&#45;&gt;Node14</title>
<path fill="none" stroke="midnightblue" d="M820.77,-73.12C796.96,-58.89 760.65,-37.2 740.59,-25.22"/>
<polygon fill="midnightblue" stroke="midnightblue" points="819.15,-76.23 829.53,-78.36 822.74,-70.22 819.15,-76.23"/>
</g>
<!-- Node16&#45;&gt;Node14 -->
<g id="edge19" class="edge">
<title>Node16&#45;&gt;Node14</title>
<path fill="none" stroke="midnightblue" d="M644.9,-72.55C665.5,-58.32 696.28,-37.04 713.39,-25.22"/>
<polygon fill="midnightblue" stroke="midnightblue" points="642.74,-69.79 636.51,-78.36 646.72,-75.55 642.74,-69.79"/>
</g>
<!-- Node20&#45;&gt;Node4 -->
<g id="edge41" class="edge">
<title>Node20&#45;&gt;Node4</title>
<path fill="none" stroke="midnightblue" d="M3262.08,-163.62C2881.84,-158.54 1617.54,-139.48 1438,-109 1429.85,-107.62 1421.31,-105.43 1413.23,-103"/>
<polygon fill="midnightblue" stroke="midnightblue" points="3262.21,-167.13 3272.26,-163.76 3262.3,-160.13 3262.21,-167.13"/>
</g>
<!-- Node20&#45;&gt;Node7 -->
<g id="edge25" class="edge">
<title>Node20&#45;&gt;Node7</title>
<path fill="none" stroke="midnightblue" d="M3262.26,-162.45C2886.42,-153.43 1651.69,-122.92 1568,-109 1559.73,-107.62 1551.05,-105.47 1542.82,-103.08"/>
<polygon fill="midnightblue" stroke="midnightblue" points="3262.24,-165.95 3272.32,-162.69 3262.41,-158.95 3262.24,-165.95"/>
</g>
<!-- Node20&#45;&gt;Node18 -->
<g id="edge35" class="edge">
<title>Node20&#45;&gt;Node18</title>
<path fill="none" stroke="midnightblue" d="M3262.31,-164.57C2895.32,-162.73 1695.2,-153.37 1312,-109 1290.82,-106.55 1267.4,-101.78 1248.88,-97.51"/>
<polygon fill="midnightblue" stroke="midnightblue" points="3262.38,-168.07 3272.4,-164.62 3262.42,-161.07 3262.38,-168.07"/>
</g>
<!-- Node20&#45;&gt;Node19 -->
<g id="edge36" class="edge">
<title>Node20&#45;&gt;Node19</title>
<path fill="none" stroke="midnightblue" d="M3262.04,-157.58C3197.61,-153.37 3114.16,-148.3 3040,-145 2475,-119.89 2329.96,-172.69 1768,-109 1746.36,-106.55 1722.43,-101.83 1703.41,-97.6"/>
<polygon fill="midnightblue" stroke="midnightblue" points="3262.01,-161.08 3272.21,-158.24 3262.47,-154.1 3262.01,-161.08"/>
</g>
<!-- Node21 -->
<g id="node20" class="node">
<title>Node21</title>
<g id="a_node20"><a xlink:href="../../d4/d90/fvupdater_8cpp.html" target="_top" xlink:title=" ">
<polygon fill="white" stroke="black" points="3142.5,-78.5 3142.5,-97.5 3295.5,-97.5 3295.5,-78.5 3142.5,-78.5"/>
<text text-anchor="middle" x="3219" y="-85.5" font-family="Helvetica,sans-Serif" font-size="10.00">src/libs/fervor/fvupdater.cpp</text>
</a>
</g>
</g>
<!-- Node20&#45;&gt;Node21 -->
<g id="edge23" class="edge">
<title>Node20&#45;&gt;Node21</title>
<path fill="none" stroke="midnightblue" d="M3343.68,-151.75C3312.8,-136.21 3262.47,-110.88 3236.2,-97.66"/>
<polygon fill="midnightblue" stroke="midnightblue" points="3342.47,-155.06 3352.97,-156.43 3345.61,-148.81 3342.47,-155.06"/>
</g>
<!-- Node22 -->
<g id="node21" class="node">
<title>Node22</title>
<g id="a_node21"><a xlink:href="../../d1/d8d/image__item_8h.html" target="_top" xlink:title=" ">
<polygon fill="white" stroke="red" points="3314,-73 3314,-103 3426,-103 3426,-73 3314,-73"/>
<text text-anchor="start" x="3322" y="-91" font-family="Helvetica,sans-Serif" font-size="10.00">src/libs/tools/image</text>
<text text-anchor="middle" x="3370" y="-80" font-family="Helvetica,sans-Serif" font-size="10.00">_item.h</text>
</a>
</g>
</g>
<!-- Node20&#45;&gt;Node22 -->
<g id="edge24" class="edge">
<title>Node20&#45;&gt;Node22</title>
<path fill="none" stroke="midnightblue" d="M3370,-146.28C3370,-132.9 3370,-115.19 3370,-103.02"/>
<polygon fill="midnightblue" stroke="midnightblue" points="3366.5,-146.28 3370,-156.28 3373.5,-146.28 3366.5,-146.28"/>
</g>
<!-- Node32 -->
<g id="node22" class="node">
<title>Node32</title>
<g id="a_node22"><a xlink:href="../../d9/dc8/dxiface_8cpp.html" target="_top" xlink:title=" ">
<polygon fill="white" stroke="black" points="3444.5,-78.5 3444.5,-97.5 3579.5,-97.5 3579.5,-78.5 3444.5,-78.5"/>
<text text-anchor="middle" x="3512" y="-85.5" font-family="Helvetica,sans-Serif" font-size="10.00">src/libs/vdxf/dxiface.cpp</text>
</a>
</g>
</g>
<!-- Node20&#45;&gt;Node32 -->
<g id="edge26" class="edge">
<title>Node20&#45;&gt;Node32</title>
<path fill="none" stroke="midnightblue" d="M3395.13,-151.55C3424.2,-135.99 3471.23,-110.82 3495.83,-97.66"/>
<polygon fill="midnightblue" stroke="midnightblue" points="3393.18,-148.62 3386.01,-156.43 3396.48,-154.8 3393.18,-148.62"/>
</g>
<!-- Node33 -->
<g id="node23" class="node">
<title>Node33</title>
<g id="a_node23"><a xlink:href="../../da/d75/vabstractarc__p_8h.html" target="_top" xlink:title=" ">
<polygon fill="white" stroke="red" points="3597.5,-73 3597.5,-103 3704.5,-103 3704.5,-73 3597.5,-73"/>
<text text-anchor="start" x="3605.5" y="-91" font-family="Helvetica,sans-Serif" font-size="10.00">src/libs/vgeometry</text>
<text text-anchor="middle" x="3651" y="-80" font-family="Helvetica,sans-Serif" font-size="10.00">/vabstractarc_p.h</text>
</a>
</g>
</g>
<!-- Node20&#45;&gt;Node33 -->
<g id="edge27" class="edge">
<title>Node20&#45;&gt;Node33</title>
<path fill="none" stroke="midnightblue" d="M3415.53,-154.09C3459.77,-143.31 3528.76,-126 3588,-109 3594.4,-107.16 3601.13,-105.13 3607.72,-103.09"/>
<polygon fill="midnightblue" stroke="midnightblue" points="3414.55,-150.73 3405.66,-156.49 3416.2,-157.53 3414.55,-150.73"/>
</g>
<!-- Node35 -->
<g id="node24" class="node">
<title>Node35</title>
<g id="a_node24"><a xlink:href="../../dc/da3/varc__p_8h.html" target="_top" xlink:title=" ">
<polygon fill="white" stroke="red" points="3722.5,-73 3722.5,-103 3829.5,-103 3829.5,-73 3722.5,-73"/>
<text text-anchor="start" x="3730.5" y="-91" font-family="Helvetica,sans-Serif" font-size="10.00">src/libs/vgeometry</text>
<text text-anchor="middle" x="3776" y="-80" font-family="Helvetica,sans-Serif" font-size="10.00">/varc_p.h</text>
</a>
</g>
</g>
<!-- Node20&#45;&gt;Node35 -->
<g id="edge28" class="edge">
<title>Node20&#45;&gt;Node35</title>
<path fill="none" stroke="midnightblue" d="M3450.95,-155.17C3520.88,-145.87 3624.35,-130.19 3713,-109 3720.03,-107.32 3727.42,-105.25 3734.56,-103.1"/>
<polygon fill="midnightblue" stroke="midnightblue" points="3450.34,-151.72 3440.89,-156.49 3451.26,-158.66 3450.34,-151.72"/>
</g>
<!-- Node37 -->
<g id="node25" class="node">
<title>Node37</title>
<g id="a_node25"><a xlink:href="../../d5/d8e/vcubicbezier__p_8h.html" target="_top" xlink:title=" ">
<polygon fill="white" stroke="red" points="3847.5,-73 3847.5,-103 3954.5,-103 3954.5,-73 3847.5,-73"/>
<text text-anchor="start" x="3855.5" y="-91" font-family="Helvetica,sans-Serif" font-size="10.00">src/libs/vgeometry</text>
<text text-anchor="middle" x="3901" y="-80" font-family="Helvetica,sans-Serif" font-size="10.00">/vcubicbezier_p.h</text>
</a>
</g>
</g>
<!-- Node20&#45;&gt;Node37 -->
<g id="edge29" class="edge">
<title>Node20&#45;&gt;Node37</title>
<path fill="none" stroke="midnightblue" d="M3477.93,-157.88C3573.41,-150.22 3716.08,-135.4 3838,-109 3845.4,-107.4 3853.18,-105.29 3860.64,-103.05"/>
<polygon fill="midnightblue" stroke="midnightblue" points="3477.38,-154.42 3467.69,-158.69 3477.93,-161.39 3477.38,-154.42"/>
</g>
<!-- Node39 -->
<g id="node26" class="node">
<title>Node39</title>
<g id="a_node26"><a xlink:href="../../df/dde/vellipticalarc__p_8h.html" target="_top" xlink:title=" ">
<polygon fill="white" stroke="black" points="4850.5,-73 4850.5,-103 4957.5,-103 4957.5,-73 4850.5,-73"/>
<text text-anchor="start" x="4858.5" y="-91" font-family="Helvetica,sans-Serif" font-size="10.00">src/libs/vgeometry</text>
<text text-anchor="middle" x="4904" y="-80" font-family="Helvetica,sans-Serif" font-size="10.00">/vellipticalarc_p.h</text>
</a>
</g>
</g>
<!-- Node20&#45;&gt;Node39 -->
<g id="edge30" class="edge">
<title>Node20&#45;&gt;Node39</title>
<path fill="none" stroke="midnightblue" d="M3477.84,-164.34C3770.4,-162 4574.62,-151.75 4836,-109 4844.62,-107.59 4853.69,-105.42 4862.3,-103.03"/>
<polygon fill="midnightblue" stroke="midnightblue" points="3477.62,-160.84 3467.65,-164.42 3477.68,-167.84 3477.62,-160.84"/>
</g>
<!-- Node40 -->
<g id="node27" class="node">
<title>Node40</title>
<g id="a_node27"><a xlink:href="../../d6/dfb/vellipticalarc_8cpp.html" target="_top" xlink:title=" ">
<polygon fill="white" stroke="black" points="4809.5,-0.5 4809.5,-30.5 4916.5,-30.5 4916.5,-0.5 4809.5,-0.5"/>
<text text-anchor="start" x="4817.5" y="-18.5" font-family="Helvetica,sans-Serif" font-size="10.00">src/libs/vgeometry</text>
<text text-anchor="middle" x="4863" y="-7.5" font-family="Helvetica,sans-Serif" font-size="10.00">/vellipticalarc.cpp</text>
</a>
</g>
</g>
<!-- Node20&#45;&gt;Node40 -->
<g id="edge32" class="edge">
<title>Node20&#45;&gt;Node40</title>
<path fill="none" stroke="midnightblue" d="M3477.88,-163.49C3801.56,-158.6 4745.68,-141.61 4803,-109 4818.64,-100.1 4843.67,-54.39 4855.86,-30.73"/>
<polygon fill="midnightblue" stroke="midnightblue" points="3477.51,-159.99 3467.56,-163.64 3477.61,-166.99 3477.51,-159.99"/>
</g>
<!-- Node41 -->
<g id="node28" class="node">
<title>Node41</title>
<g id="a_node28"><a xlink:href="../../d1/d76/vspline__p_8h.html" target="_top" xlink:title=" ">
<polygon fill="white" stroke="red" points="3972.5,-73 3972.5,-103 4079.5,-103 4079.5,-73 3972.5,-73"/>
<text text-anchor="start" x="3980.5" y="-91" font-family="Helvetica,sans-Serif" font-size="10.00">src/libs/vgeometry</text>
<text text-anchor="middle" x="4026" y="-80" font-family="Helvetica,sans-Serif" font-size="10.00">/vspline_p.h</text>
</a>
</g>
</g>
<!-- Node20&#45;&gt;Node41 -->
<g id="edge33" class="edge">
<title>Node20&#45;&gt;Node41</title>
<path fill="none" stroke="midnightblue" d="M3478,-161.71C3597.63,-156.47 3795.74,-143.04 3963,-109 3970.53,-107.47 3978.44,-105.37 3986.01,-103.1"/>
<polygon fill="midnightblue" stroke="midnightblue" points="3477.58,-158.22 3467.74,-162.15 3477.88,-165.22 3477.58,-158.22"/>
</g>
<!-- Node43 -->
<g id="node29" class="node">
<title>Node43</title>
<g id="a_node29"><a xlink:href="../../d9/d15/vabstractpiece_8cpp.html" target="_top" xlink:title=" ">
<polygon fill="white" stroke="black" points="4098,-78.5 4098,-97.5 4284,-97.5 4284,-78.5 4098,-78.5"/>
<text text-anchor="middle" x="4191" y="-85.5" font-family="Helvetica,sans-Serif" font-size="10.00">src/libs/vlayout/vabstractpiece.cpp</text>
</a>
</g>
</g>
<!-- Node20&#45;&gt;Node43 -->
<g id="edge34" class="edge">
<title>Node20&#45;&gt;Node43</title>
<path fill="none" stroke="midnightblue" d="M3478,-160.42C3618.85,-153.56 3872.7,-138.2 4088,-109 4109.48,-106.09 4133.25,-101.56 4152.53,-97.55"/>
<polygon fill="midnightblue" stroke="midnightblue" points="3477.46,-156.94 3467.64,-160.92 3477.79,-163.93 3477.46,-156.94"/>
</g>
<!-- Node44 -->
<g id="node30" class="node">
<title>Node44</title>
<g id="a_node30"><a xlink:href="../../db/d65/dialogexporttocsv_8cpp.html" target="_top" xlink:title=" ">
<polygon fill="white" stroke="black" points="4302.5,-73 4302.5,-103 4429.5,-103 4429.5,-73 4302.5,-73"/>
<text text-anchor="start" x="4310.5" y="-91" font-family="Helvetica,sans-Serif" font-size="10.00">src/libs/vmisc/dialogs</text>
<text text-anchor="middle" x="4366" y="-80" font-family="Helvetica,sans-Serif" font-size="10.00">/dialogexporttocsv.cpp</text>
</a>
</g>
</g>
<!-- Node20&#45;&gt;Node44 -->
<g id="edge37" class="edge">
<title>Node20&#45;&gt;Node44</title>
<path fill="none" stroke="midnightblue" d="M3477.88,-165.65C3651,-165.09 4001.05,-157.31 4293,-109 4301.95,-107.52 4311.37,-105.38 4320.37,-103.05"/>
<polygon fill="midnightblue" stroke="midnightblue" points="3477.74,-162.15 3467.75,-165.68 3477.76,-169.15 3477.74,-162.15"/>
</g>
<!-- Node45 -->
<g id="node31" class="node">
<title>Node45</title>
<g id="a_node31"><a xlink:href="../../d0/df6/vabstractapplication_8cpp.html" target="_top" xlink:title=" ">
<polygon fill="white" stroke="black" points="4448,-78.5 4448,-97.5 4654,-97.5 4654,-78.5 4448,-78.5"/>
<text text-anchor="middle" x="4551" y="-85.5" font-family="Helvetica,sans-Serif" font-size="10.00">src/libs/vmisc/vabstractapplication.cpp</text>
</a>
</g>
</g>
<!-- Node20&#45;&gt;Node45 -->
<g id="edge38" class="edge">
<title>Node20&#45;&gt;Node45</title>
<path fill="none" stroke="midnightblue" d="M3477.67,-163.72C3670.71,-160.45 4088.23,-148.97 4438,-109 4461.95,-106.26 4488.51,-101.65 4509.85,-97.54"/>
<polygon fill="midnightblue" stroke="midnightblue" points="3477.46,-160.22 3467.52,-163.89 3477.58,-167.22 3477.46,-160.22"/>
</g>
<!-- Node46 -->
<g id="node32" class="node">
<title>Node46</title>
<g id="a_node32"><a xlink:href="../../d6/d0b/def_8cpp.html" target="_top" xlink:title=" ">
<polygon fill="white" stroke="black" points="4672,-78.5 4672,-97.5 4794,-97.5 4794,-78.5 4672,-78.5"/>
<text text-anchor="middle" x="4733" y="-85.5" font-family="Helvetica,sans-Serif" font-size="10.00">src/libs/vmisc/def.cpp</text>
</a>
</g>
</g>
<!-- Node20&#45;&gt;Node46 -->
<g id="edge39" class="edge">
<title>Node20&#45;&gt;Node46</title>
<path fill="none" stroke="midnightblue" d="M3477.93,-163.59C3745.86,-159.55 4436.09,-145.8 4663,-109 4678.35,-106.51 4695.1,-101.8 4708.38,-97.57"/>
<polygon fill="midnightblue" stroke="midnightblue" points="3477.75,-160.09 3467.8,-163.74 3477.86,-167.09 3477.75,-160.09"/>
</g>
<!-- Node47 -->
<g id="node33" class="node">
<title>Node47</title>
<g id="a_node33"><a xlink:href="../../d4/d4f/pmsystems_8cpp.html" target="_top" xlink:title=" ">
<polygon fill="white" stroke="black" points="1777.5,-73 1777.5,-103 1884.5,-103 1884.5,-73 1777.5,-73"/>
<text text-anchor="start" x="1785.5" y="-91" font-family="Helvetica,sans-Serif" font-size="10.00">src/libs/vpatterndb</text>
<text text-anchor="middle" x="1831" y="-80" font-family="Helvetica,sans-Serif" font-size="10.00">/pmsystems.cpp</text>
</a>
</g>
</g>
<!-- Node20&#45;&gt;Node47 -->
<g id="edge40" class="edge">
<title>Node20&#45;&gt;Node47</title>
<path fill="none" stroke="midnightblue" d="M3262.04,-157.66C3197.61,-153.48 3114.15,-148.41 3040,-145 2785.25,-133.29 2144.26,-152.57 1893,-109 1885.09,-107.63 1876.8,-105.48 1868.94,-103.09"/>
<polygon fill="midnightblue" stroke="midnightblue" points="3262,-161.17 3272.21,-158.32 3262.46,-154.18 3262,-161.17"/>
</g>
<!-- Node20&#45;&gt;Node48 -->
<g id="edge42" class="edge">
<title>Node20&#45;&gt;Node48</title>
<path fill="none" stroke="midnightblue" d="M3478.06,-165.03C3788.5,-164.51 4679.07,-158.62 4966,-109 4974.03,-107.61 4982.45,-105.46 4990.43,-103.06"/>
<polygon fill="midnightblue" stroke="midnightblue" points="3477.7,-161.53 3467.71,-165.05 3477.71,-168.53 3477.7,-161.53"/>
</g>
<!-- Node20&#45;&gt;Node49 -->
<g id="edge43" class="edge">
<title>Node20&#45;&gt;Node49</title>
<path fill="none" stroke="midnightblue" d="M3477.96,-165.42C3804.73,-166.09 4779.8,-163.32 5092,-109 5099.91,-107.62 5108.2,-105.47 5116.06,-103.08"/>
<polygon fill="midnightblue" stroke="midnightblue" points="3477.56,-161.92 3467.55,-165.4 3477.54,-168.92 3477.56,-161.92"/>
</g>
<!-- Node50 -->
<g id="node36" class="node">
<title>Node50</title>
<g id="a_node36"><a xlink:href="../../df/dba/vpiecenode__p_8h.html" target="_top" xlink:title=" ">
<polygon fill="white" stroke="black" points="1902.5,-73 1902.5,-103 2009.5,-103 2009.5,-73 1902.5,-73"/>
<text text-anchor="start" x="1910.5" y="-91" font-family="Helvetica,sans-Serif" font-size="10.00">src/libs/vpatterndb</text>
<text text-anchor="middle" x="1956" y="-80" font-family="Helvetica,sans-Serif" font-size="10.00">/vpiecenode_p.h</text>
</a>
</g>
</g>
<!-- Node20&#45;&gt;Node50 -->
<g id="edge44" class="edge">
<title>Node20&#45;&gt;Node50</title>
<path fill="none" stroke="midnightblue" d="M3262.03,-157.77C3197.6,-153.62 3114.15,-148.55 3040,-145 2813.23,-134.13 2242.71,-147.71 2019,-109 2010.97,-107.61 2002.55,-105.45 1994.57,-103.06"/>
<polygon fill="midnightblue" stroke="midnightblue" points="3262,-161.27 3272.21,-158.42 3262.45,-154.29 3262,-161.27"/>
</g>
<!-- Node52 -->
<g id="node38" class="node">
<title>Node52</title>
<g id="a_node38"><a xlink:href="../../de/d3e/vtranslatevars_8cpp.html" target="_top" xlink:title=" ">
<polygon fill="white" stroke="black" points="2028,-73 2028,-103 2138,-103 2138,-73 2028,-73"/>
<text text-anchor="start" x="2036" y="-91" font-family="Helvetica,sans-Serif" font-size="10.00">src/libs/vpatterndb</text>
<text text-anchor="middle" x="2083" y="-80" font-family="Helvetica,sans-Serif" font-size="10.00">/vtranslatevars.cpp</text>
</a>
</g>
</g>
<!-- Node20&#45;&gt;Node52 -->
<g id="edge46" class="edge">
<title>Node20&#45;&gt;Node52</title>
<path fill="none" stroke="midnightblue" d="M3262.03,-157.9C3197.59,-153.81 3114.14,-148.74 3040,-145 2841.65,-134.99 2342.69,-142.91 2147,-109 2138.86,-107.59 2130.31,-105.42 2122.2,-103.03"/>
<polygon fill="midnightblue" stroke="midnightblue" points="3262,-161.41 3272.2,-158.55 3262.44,-154.42 3262,-161.41"/>
</g>
<!-- Node26 -->
<g id="node39" class="node">
<title>Node26</title>
<g id="a_node39"><a xlink:href="../../df/d40/export__format__combobox_8cpp.html" target="_top" xlink:title=" ">
<polygon fill="white" stroke="black" points="2156.5,-73 2156.5,-103 2289.5,-103 2289.5,-73 2156.5,-73"/>
<text text-anchor="start" x="2164.5" y="-91" font-family="Helvetica,sans-Serif" font-size="10.00">src/libs/vwidgets/export</text>
<text text-anchor="middle" x="2223" y="-80" font-family="Helvetica,sans-Serif" font-size="10.00">_format_combobox.cpp</text>
</a>
</g>
</g>
<!-- Node20&#45;&gt;Node26 -->
<g id="edge47" class="edge">
<title>Node20&#45;&gt;Node26</title>
<path fill="none" stroke="midnightblue" d="M3262.01,-158.13C3197.58,-154.11 3114.12,-149.05 3040,-145 2710.77,-127.03 2624.87,-159.23 2299,-109 2289.56,-107.55 2279.6,-105.39 2270.11,-103.03"/>
<polygon fill="midnightblue" stroke="midnightblue" points="3261.99,-161.63 3272.19,-158.76 3262.43,-154.65 3261.99,-161.63"/>
</g>
<!-- Node53 -->
<g id="node40" class="node">
<title>Node53</title>
<g id="a_node40"><a xlink:href="../../d3/d4f/mouse__coordinates_8cpp.html" target="_top" xlink:title=" ">
<polygon fill="white" stroke="black" points="2308,-73 2308,-103 2442,-103 2442,-73 2308,-73"/>
<text text-anchor="start" x="2316" y="-91" font-family="Helvetica,sans-Serif" font-size="10.00">src/libs/vwidgets/mouse</text>
<text text-anchor="middle" x="2375" y="-80" font-family="Helvetica,sans-Serif" font-size="10.00">_coordinates.cpp</text>
</a>
</g>
</g>
<!-- Node20&#45;&gt;Node53 -->
<g id="edge48" class="edge">
<title>Node20&#45;&gt;Node53</title>
<path fill="none" stroke="midnightblue" d="M3262.16,-158.46C3019.92,-143.77 2453.48,-109.4 2451,-109 2441.7,-107.51 2431.9,-105.37 2422.53,-103.04"/>
<polygon fill="midnightblue" stroke="midnightblue" points="3262.2,-161.97 3272.4,-159.08 3262.63,-154.98 3262.2,-161.97"/>
</g>
<!-- Node29 -->
<g id="node41" class="node">
<title>Node29</title>
<g id="a_node41"><a xlink:href="../../d2/d28/page__format__combobox_8cpp.html" target="_top" xlink:title=" ">
<polygon fill="white" stroke="black" points="2460.5,-73 2460.5,-103 2591.5,-103 2591.5,-73 2460.5,-73"/>
<text text-anchor="start" x="2468.5" y="-91" font-family="Helvetica,sans-Serif" font-size="10.00">src/libs/vwidgets/page</text>
<text text-anchor="middle" x="2526" y="-80" font-family="Helvetica,sans-Serif" font-size="10.00">_format_combobox.cpp</text>
</a>
</g>
</g>
<!-- Node20&#45;&gt;Node29 -->
<g id="edge49" class="edge">
<title>Node20&#45;&gt;Node29</title>
<path fill="none" stroke="midnightblue" d="M3262.07,-158.3C3065.5,-145.93 2663.48,-119.78 2600,-109 2591.08,-107.48 2581.68,-105.36 2572.68,-103.06"/>
<polygon fill="midnightblue" stroke="midnightblue" points="3261.93,-161.8 3272.13,-158.93 3262.37,-154.81 3261.93,-161.8"/>
</g>
<!-- Node54 -->
<g id="node42" class="node">
<title>Node54</title>
<g id="a_node42"><a xlink:href="../../d7/d1b/pen__toolbar_8cpp.html" target="_top" xlink:title=" ">
<polygon fill="white" stroke="black" points="2609.5,-73 2609.5,-103 2728.5,-103 2728.5,-73 2609.5,-73"/>
<text text-anchor="start" x="2617.5" y="-91" font-family="Helvetica,sans-Serif" font-size="10.00">src/libs/vwidgets/pen</text>
<text text-anchor="middle" x="2669" y="-80" font-family="Helvetica,sans-Serif" font-size="10.00">_toolbar.cpp</text>
</a>
</g>
</g>
<!-- Node20&#45;&gt;Node54 -->
<g id="edge50" class="edge">
<title>Node20&#45;&gt;Node54</title>
<path fill="none" stroke="midnightblue" d="M3262.02,-157.97C3108.64,-147.55 2835.5,-127.27 2738,-109 2729.79,-107.46 2721.15,-105.36 2712.86,-103.09"/>
<polygon fill="midnightblue" stroke="midnightblue" points="3262.18,-161.49 3272.4,-158.67 3262.66,-154.51 3262.18,-161.49"/>
</g>
<!-- Node55 -->
<g id="node43" class="node">
<title>Node55</title>
<g id="a_node43"><a xlink:href="../../d8/d76/scene__rect_8cpp.html" target="_top" xlink:title=" ">
<polygon fill="white" stroke="black" points="2747,-73 2747,-103 2877,-103 2877,-73 2747,-73"/>
<text text-anchor="start" x="2755" y="-91" font-family="Helvetica,sans-Serif" font-size="10.00">src/libs/vwidgets/scene</text>
<text text-anchor="middle" x="2812" y="-80" font-family="Helvetica,sans-Serif" font-size="10.00">_rect.cpp</text>
</a>
</g>
</g>
<!-- Node20&#45;&gt;Node55 -->
<g id="edge51" class="edge">
<title>Node20&#45;&gt;Node55</title>
<path fill="none" stroke="midnightblue" d="M3262.5,-157.18C3163.96,-148.92 3014.3,-133.62 2886,-109 2877.5,-107.37 2868.55,-105.28 2859.92,-103.06"/>
<polygon fill="midnightblue" stroke="midnightblue" points="3262.22,-160.66 3272.47,-158 3262.8,-153.69 3262.22,-160.66"/>
</g>
<!-- Node56 -->
<g id="node44" class="node">
<title>Node56</title>
<g id="a_node44"><a xlink:href="../../dd/df6/vabstractmainwindow_8cpp.html" target="_top" xlink:title=" ">
<polygon fill="white" stroke="black" points="2895.5,-78.5 2895.5,-97.5 3124.5,-97.5 3124.5,-78.5 2895.5,-78.5"/>
<text text-anchor="middle" x="3010" y="-85.5" font-family="Helvetica,sans-Serif" font-size="10.00">src/libs/vwidgets/vabstractmainwindow.cpp</text>
</a>
</g>
</g>
<!-- Node20&#45;&gt;Node56 -->
<g id="edge52" class="edge">
<title>Node20&#45;&gt;Node56</title>
<path fill="none" stroke="midnightblue" d="M3319.2,-154.28C3247.07,-139.05 3116.43,-111.47 3050.45,-97.54"/>
<polygon fill="midnightblue" stroke="midnightblue" points="3318.9,-157.79 3329.4,-156.43 3320.34,-150.94 3318.9,-157.79"/>
</g>
<!-- Node39&#45;&gt;Node40 -->
<g id="edge31" class="edge">
<title>Node39&#45;&gt;Node40</title>
<path fill="none" stroke="midnightblue" d="M4890.66,-64.06C4884.28,-53.09 4876.84,-40.3 4871.28,-30.75"/>
<polygon fill="midnightblue" stroke="midnightblue" points="4887.65,-65.85 4895.7,-72.73 4893.7,-62.33 4887.65,-65.85"/>
</g>
<!-- Node50&#45;&gt;Node51 -->
<g id="edge45" class="edge">
<title>Node50&#45;&gt;Node51</title>
<path fill="none" stroke="midnightblue" d="M2004.46,-70.19C2009.33,-68.93 2014.23,-67.83 2019,-67 2265.76,-23.88 3057.94,-17.57 3272.16,-16.66"/>
<polygon fill="midnightblue" stroke="midnightblue" points="2003.26,-66.89 1994.58,-72.96 2005.15,-73.63 2003.26,-66.89"/>
</g>
<!-- Node67&#45;&gt;Node3 -->
<g id="edge55" class="edge">
<title>Node67&#45;&gt;Node3</title>
<path fill="none" stroke="midnightblue" d="M5922.84,-136.76C5928.78,-127.35 5935.26,-117.1 5940.68,-108.51"/>
<polygon fill="midnightblue" stroke="midnightblue" points="5919.74,-135.1 5917.36,-145.43 5925.66,-138.84 5919.74,-135.1"/>
</g>
</g>
</svg>
