<?xml version="1.0" encoding="UTF-8" standalone="no"?>
<!DOCTYPE svg PUBLIC "-//W3C//DTD SVG 1.1//EN"
 "http://www.w3.org/Graphics/SVG/1.1/DTD/svg11.dtd">
<!-- Generated by graphviz version 2.43.0 (0)
 -->
<!-- Title: src/app/seamly2d/main.cpp Pages: 1 -->
<!--zoomable 319 -->
<svg id="main" version="1.1" xmlns="http://www.w3.org/2000/svg" xmlns:xlink="http://www.w3.org/1999/xlink" xml:space="preserve" onload="init(evt)">
<style type="text/css"><![CDATA[
.edge:hover path { stroke: red; }
.edge:hover polygon { stroke: red; fill: red; }
]]></style>
<script type="text/javascript"><![CDATA[
var edges = document.getElementsByTagName('g');
if (edges && edges.length) {
  for (var i=0;i<edges.length;i++) {
    if (edges[i].id.substr(0,4)=='edge') {
      edges[i].setAttribute('class','edge');
    }
  }
}
]]></script>
        <defs>
                <circle id="rim" cx="0" cy="0" r="7"/>
                <circle id="rim2" cx="0" cy="0" r="3.5"/>
                <g id="zoomPlus">
                        <use xlink:href="#rim" fill="#404040">
                                <set attributeName="fill" to="#808080" begin="zoomplus.mouseover" end="zoomplus.mouseout"/>
                        </use>
                        <path d="M-4,0h8M0,-4v8" fill="none" stroke="white" stroke-width="1.5" pointer-events="none"/>
                </g>
                <g id="zoomMin">
                        <use xlink:href="#rim" fill="#404040">
                                <set attributeName="fill" to="#808080" begin="zoomminus.mouseover" end="zoomminus.mouseout"/>
                        </use>
                        <path d="M-4,0h8" fill="none" stroke="white" stroke-width="1.5" pointer-events="none"/>
                </g>
                <g id="dirArrow">
                        <path fill="none" stroke="white" stroke-width="1.5" d="M0,-3.0v7 M-2.5,-0.5L0,-3.0L2.5,-0.5"/>
                </g>
               <g id="resetDef">
                       <use xlink:href="#rim2" fill="#404040">
                               <set attributeName="fill" to="#808080" begin="reset.mouseover" end="reset.mouseout"/>
                       </use>
               </g>
        </defs>

<script type="text/javascript">
var viewWidth = 2119;
var viewHeight = 319;
var sectionId = 'dynsection-0';
</script>
<script xlink:href="../../svgpan.js"/>
<svg id="graph" class="graph">
<g id="viewport">
<title>src/app/seamly2d/main.cpp</title>
<polygon fill="white" stroke="transparent" points="-4,4 -4,-315 2114.8,-315 2114.8,4 -4,4"/>
<!-- Node1 -->
<g id="node1" class="node">
<title>Node1</title>
<g id="a_node1"><a xlink:title=" ">
<polygon fill="#bfbfbf" stroke="black" points="1456.8,-291.5 1456.8,-310.5 1607.8,-310.5 1607.8,-291.5 1456.8,-291.5"/>
<text text-anchor="middle" x="1532.3" y="-298.5" font-family="Helvetica,sans-Serif" font-size="10.00">src/app/seamly2d/main.cpp</text>
</a>
</g>
</g>
<!-- Node2 -->
<g id="node2" class="node">
<title>Node2</title>
<g id="a_node2"><a xlink:href="../../d9/d53/mainwindow_8h.html" target="_top" xlink:title=" ">
<polygon fill="white" stroke="black" points="1353.8,-235.5 1353.8,-254.5 1440.8,-254.5 1440.8,-235.5 1353.8,-235.5"/>
<text text-anchor="middle" x="1397.3" y="-242.5" font-family="Helvetica,sans-Serif" font-size="10.00">mainwindow.h</text>
</a>
</g>
</g>
<!-- Node1&#45;&gt;Node2 -->
<g id="edge1" class="edge">
<title>Node1&#45;&gt;Node2</title>
<path fill="none" stroke="midnightblue" d="M1510.91,-291.44C1488.59,-282.52 1453.4,-268.44 1428.09,-258.32"/>
<polygon fill="midnightblue" stroke="midnightblue" points="1429.18,-254.98 1418.59,-254.52 1426.58,-261.48 1429.18,-254.98"/>
</g>
<!-- Node37 -->
<g id="node37" class="node">
<title>Node37</title>
<g id="a_node37"><a xlink:href="../../d9/d02/vapplication_8h.html" target="_top" xlink:title=" ">
<polygon fill="white" stroke="black" points="429.3,-235.5 429.3,-254.5 539.3,-254.5 539.3,-235.5 429.3,-235.5"/>
<text text-anchor="middle" x="484.3" y="-242.5" font-family="Helvetica,sans-Serif" font-size="10.00">core/vapplication.h</text>
</a>
</g>
</g>
<!-- Node1&#45;&gt;Node37 -->
<g id="edge42" class="edge">
<title>Node1&#45;&gt;Node37</title>
<path fill="none" stroke="midnightblue" d="M1456.51,-296.09C1259.58,-285.95 734.26,-258.88 549.6,-249.36"/>
<polygon fill="midnightblue" stroke="midnightblue" points="549.66,-245.86 539.5,-248.84 549.3,-252.85 549.66,-245.86"/>
</g>
<!-- Node44 -->
<g id="node44" class="node">
<title>Node44</title>
<g id="a_node44"><a xlink:href="../../d3/de1/welcome__dialog_8h.html" target="_top" xlink:title=" ">
<polygon fill="white" stroke="black" points="148.8,-235.5 148.8,-254.5 291.8,-254.5 291.8,-235.5 148.8,-235.5"/>
<text text-anchor="middle" x="220.3" y="-242.5" font-family="Helvetica,sans-Serif" font-size="10.00">dialogs/welcome_dialog.h</text>
</a>
</g>
</g>
<!-- Node1&#45;&gt;Node44 -->
<g id="edge53" class="edge">
<title>Node1&#45;&gt;Node44</title>
<path fill="none" stroke="midnightblue" d="M1456.79,-297.06C1277.16,-290.05 810.24,-271.66 420.3,-255 381.42,-253.34 338.29,-251.41 302.06,-249.76"/>
<polygon fill="midnightblue" stroke="midnightblue" points="302.19,-246.27 292.04,-249.31 301.87,-253.26 302.19,-246.27"/>
</g>
<!-- Node45 -->
<g id="node45" class="node">
<title>Node45</title>
<g id="a_node45"><a xlink:title=" ">
<polygon fill="white" stroke="#bfbfbf" points="1458.8,-235.5 1458.8,-254.5 1605.8,-254.5 1605.8,-235.5 1458.8,-235.5"/>
<text text-anchor="middle" x="1532.3" y="-242.5" font-family="Helvetica,sans-Serif" font-size="10.00">../vpatterndb/vpiecenode.h</text>
</a>
</g>
</g>
<!-- Node1&#45;&gt;Node45 -->
<g id="edge57" class="edge">
<title>Node1&#45;&gt;Node45</title>
<path fill="none" stroke="midnightblue" d="M1532.3,-291.08C1532.3,-284.01 1532.3,-273.86 1532.3,-264.99"/>
<polygon fill="midnightblue" stroke="midnightblue" points="1535.8,-264.75 1532.3,-254.75 1528.8,-264.75 1535.8,-264.75"/>
</g>
<!-- Node46 -->
<g id="node46" class="node">
<title>Node46</title>
<g id="a_node46"><a xlink:title=" ">
<polygon fill="white" stroke="#bfbfbf" points="1623.8,-235.5 1623.8,-254.5 1702.8,-254.5 1702.8,-235.5 1623.8,-235.5"/>
<text text-anchor="middle" x="1663.3" y="-242.5" font-family="Helvetica,sans-Serif" font-size="10.00">QApplication</text>
</a>
</g>
</g>
<!-- Node1&#45;&gt;Node46 -->
<g id="edge58" class="edge">
<title>Node1&#45;&gt;Node46</title>
<path fill="none" stroke="midnightblue" d="M1553.06,-291.44C1574.62,-282.56 1608.56,-268.56 1633.09,-258.45"/>
<polygon fill="midnightblue" stroke="midnightblue" points="1634.73,-261.56 1642.64,-254.52 1632.06,-255.09 1634.73,-261.56"/>
</g>
<!-- Node47 -->
<g id="node47" class="node">
<title>Node47</title>
<g id="a_node47"><a xlink:title=" ">
<polygon fill="white" stroke="#bfbfbf" points="1721.3,-235.5 1721.3,-254.5 1807.3,-254.5 1807.3,-235.5 1721.3,-235.5"/>
<text text-anchor="middle" x="1764.3" y="-242.5" font-family="Helvetica,sans-Serif" font-size="10.00">QMessageBox</text>
</a>
</g>
</g>
<!-- Node1&#45;&gt;Node47 -->
<g id="edge59" class="edge">
<title>Node1&#45;&gt;Node47</title>
<path fill="none" stroke="midnightblue" d="M1569.06,-291.44C1609.36,-282.06 1674.11,-266.99 1717.88,-256.8"/>
<polygon fill="midnightblue" stroke="midnightblue" points="1718.76,-260.19 1727.71,-254.52 1717.18,-253.37 1718.76,-260.19"/>
</g>
<!-- Node48 -->
<g id="node48" class="node">
<title>Node48</title>
<g id="a_node48"><a xlink:title=" ">
<polygon fill="white" stroke="#bfbfbf" points="1825.8,-235.5 1825.8,-254.5 1878.8,-254.5 1878.8,-235.5 1825.8,-235.5"/>
<text text-anchor="middle" x="1852.3" y="-242.5" font-family="Helvetica,sans-Serif" font-size="10.00">QTimer</text>
</a>
</g>
</g>
<!-- Node1&#45;&gt;Node48 -->
<g id="edge60" class="edge">
<title>Node1&#45;&gt;Node48</title>
<path fill="none" stroke="midnightblue" d="M1596.32,-291.49C1651.81,-283.75 1734.45,-271.32 1815.72,-254.96"/>
<polygon fill="midnightblue" stroke="midnightblue" points="1816.52,-258.37 1825.62,-252.95 1815.13,-251.51 1816.52,-258.37"/>
</g>
<!-- Node3 -->
<g id="node3" class="node">
<title>Node3</title>
<g id="a_node3"><a xlink:href="../../d1/d82/mainwindowsnogui_8h.html" target="_top" xlink:title=" ">
<polygon fill="white" stroke="black" points="1283.3,-179.5 1283.3,-198.5 1403.3,-198.5 1403.3,-179.5 1283.3,-179.5"/>
<text text-anchor="middle" x="1343.3" y="-186.5" font-family="Helvetica,sans-Serif" font-size="10.00">mainwindowsnogui.h</text>
</a>
</g>
</g>
<!-- Node2&#45;&gt;Node3 -->
<g id="edge2" class="edge">
<title>Node2&#45;&gt;Node3</title>
<path fill="none" stroke="midnightblue" d="M1388.38,-235.08C1380.52,-227.22 1368.87,-215.57 1359.38,-206.08"/>
<polygon fill="midnightblue" stroke="midnightblue" points="1361.6,-203.35 1352.05,-198.75 1356.65,-208.3 1361.6,-203.35"/>
</g>
<!-- Node22 -->
<g id="node22" class="node">
<title>Node22</title>
<g id="a_node22"><a xlink:href="../../dd/d57/vcmdexport_8h.html" target="_top" xlink:title=" ">
<polygon fill="white" stroke="black" points="770.3,-179.5 770.3,-198.5 878.3,-198.5 878.3,-179.5 770.3,-179.5"/>
<text text-anchor="middle" x="824.3" y="-186.5" font-family="Helvetica,sans-Serif" font-size="10.00">core/vcmdexport.h</text>
</a>
</g>
</g>
<!-- Node2&#45;&gt;Node22 -->
<g id="edge23" class="edge">
<title>Node2&#45;&gt;Node22</title>
<path fill="none" stroke="midnightblue" d="M1353.76,-239.9C1253.62,-230.46 1006.53,-207.17 888.75,-196.07"/>
<polygon fill="midnightblue" stroke="midnightblue" points="888.73,-192.56 878.45,-195.1 888.08,-199.53 888.73,-192.56"/>
</g>
<!-- Node33 -->
<g id="node33" class="node">
<title>Node33</title>
<g id="a_node33"><a xlink:title=" ">
<polygon fill="white" stroke="#bfbfbf" points="1609.8,-179.5 1609.8,-198.5 1730.8,-198.5 1730.8,-179.5 1609.8,-179.5"/>
<text text-anchor="middle" x="1670.3" y="-186.5" font-family="Helvetica,sans-Serif" font-size="10.00">../vmisc/vlockguard.h</text>
</a>
</g>
</g>
<!-- Node2&#45;&gt;Node33 -->
<g id="edge38" class="edge">
<title>Node2&#45;&gt;Node33</title>
<path fill="none" stroke="midnightblue" d="M1440.56,-235.44C1488.48,-225.96 1565.78,-210.67 1617.3,-200.48"/>
<polygon fill="midnightblue" stroke="midnightblue" points="1618.11,-203.89 1627.24,-198.52 1616.76,-197.02 1618.11,-203.89"/>
</g>
<!-- Node34 -->
<g id="node34" class="node">
<title>Node34</title>
<g id="a_node34"><a xlink:title=" ">
<polygon fill="white" stroke="#bfbfbf" points="1748.8,-179.5 1748.8,-198.5 1793.8,-198.5 1793.8,-179.5 1748.8,-179.5"/>
<text text-anchor="middle" x="1771.3" y="-186.5" font-family="Helvetica,sans-Serif" font-size="10.00">QMap</text>
</a>
</g>
</g>
<!-- Node2&#45;&gt;Node34 -->
<g id="edge39" class="edge">
<title>Node2&#45;&gt;Node34</title>
<path fill="none" stroke="midnightblue" d="M1440.95,-236.43C1444.11,-235.93 1447.25,-235.45 1450.3,-235 1575.54,-216.6 1611.29,-224.75 1738.58,-199.08"/>
<polygon fill="midnightblue" stroke="midnightblue" points="1739.62,-202.44 1748.72,-197.01 1738.22,-195.58 1739.62,-202.44"/>
</g>
<!-- Node35 -->
<g id="node35" class="node">
<title>Node35</title>
<g id="a_node35"><a xlink:title=" ">
<polygon fill="white" stroke="#bfbfbf" points="1421.8,-179.5 1421.8,-198.5 1480.8,-198.5 1480.8,-179.5 1421.8,-179.5"/>
<text text-anchor="middle" x="1451.3" y="-186.5" font-family="Helvetica,sans-Serif" font-size="10.00">QPointer</text>
</a>
</g>
</g>
<!-- Node2&#45;&gt;Node35 -->
<g id="edge40" class="edge">
<title>Node2&#45;&gt;Node35</title>
<path fill="none" stroke="midnightblue" d="M1406.22,-235.08C1414.08,-227.22 1425.73,-215.57 1435.22,-206.08"/>
<polygon fill="midnightblue" stroke="midnightblue" points="1437.95,-208.3 1442.55,-198.75 1433,-203.35 1437.95,-208.3"/>
</g>
<!-- Node36 -->
<g id="node36" class="node">
<title>Node36</title>
<g id="a_node36"><a xlink:title=" ">
<polygon fill="white" stroke="#bfbfbf" points="1499.3,-179.5 1499.3,-198.5 1591.3,-198.5 1591.3,-179.5 1499.3,-179.5"/>
<text text-anchor="middle" x="1545.3" y="-186.5" font-family="Helvetica,sans-Serif" font-size="10.00">QSharedPointer</text>
</a>
</g>
</g>
<!-- Node2&#45;&gt;Node36 -->
<g id="edge41" class="edge">
<title>Node2&#45;&gt;Node36</title>
<path fill="none" stroke="midnightblue" d="M1420.75,-235.44C1445.43,-226.44 1484.49,-212.19 1512.28,-202.05"/>
<polygon fill="midnightblue" stroke="midnightblue" points="1513.76,-205.23 1521.96,-198.52 1511.36,-198.66 1513.76,-205.23"/>
</g>
<!-- Node4 -->
<g id="node4" class="node">
<title>Node4</title>
<g id="a_node4"><a xlink:title=" ">
<polygon fill="white" stroke="#bfbfbf" points="1209.8,-118 1209.8,-137 1296.8,-137 1296.8,-118 1209.8,-118"/>
<text text-anchor="middle" x="1253.3" y="-125" font-family="Helvetica,sans-Serif" font-size="10.00">QMainWindow</text>
</a>
</g>
</g>
<!-- Node3&#45;&gt;Node4 -->
<g id="edge3" class="edge">
<title>Node3&#45;&gt;Node4</title>
<path fill="none" stroke="midnightblue" d="M1330.41,-179.48C1315.84,-169.84 1291.9,-154.02 1274.55,-142.55"/>
<polygon fill="midnightblue" stroke="midnightblue" points="1276.44,-139.6 1266.17,-137.01 1272.58,-145.44 1276.44,-139.6"/>
</g>
<!-- Node5 -->
<g id="node5" class="node">
<title>Node5</title>
<g id="a_node5"><a xlink:title=" ">
<polygon fill="white" stroke="#bfbfbf" points="1315.3,-118 1315.3,-137 1371.3,-137 1371.3,-118 1315.3,-118"/>
<text text-anchor="middle" x="1343.3" y="-125" font-family="Helvetica,sans-Serif" font-size="10.00">QPrinter</text>
</a>
</g>
</g>
<!-- Node3&#45;&gt;Node5 -->
<g id="edge4" class="edge">
<title>Node3&#45;&gt;Node5</title>
<path fill="none" stroke="midnightblue" d="M1343.3,-179.48C1343.3,-171.08 1343.3,-157.98 1343.3,-147.16"/>
<polygon fill="midnightblue" stroke="midnightblue" points="1346.8,-147.01 1343.3,-137.01 1339.8,-147.01 1346.8,-147.01"/>
</g>
<!-- Node6 -->
<g id="node6" class="node">
<title>Node6</title>
<g id="a_node6"><a xlink:title=" ">
<polygon fill="white" stroke="#bfbfbf" points="1389.3,-118 1389.3,-137 1465.3,-137 1465.3,-118 1389.3,-118"/>
<text text-anchor="middle" x="1427.3" y="-125" font-family="Helvetica,sans-Serif" font-size="10.00">QToolButton</text>
</a>
</g>
</g>
<!-- Node3&#45;&gt;Node6 -->
<g id="edge5" class="edge">
<title>Node3&#45;&gt;Node6</title>
<path fill="none" stroke="midnightblue" d="M1355.34,-179.48C1368.81,-169.93 1390.87,-154.31 1407.02,-142.87"/>
<polygon fill="midnightblue" stroke="midnightblue" points="1409.15,-145.65 1415.29,-137.01 1405.1,-139.93 1409.15,-145.65"/>
</g>
<!-- Node7 -->
<g id="node7" class="node">
<title>Node7</title>
<g id="a_node7"><a xlink:title=" ">
<polygon fill="white" stroke="#bfbfbf" points="1483.8,-118 1483.8,-137 1620.8,-137 1620.8,-118 1483.8,-118"/>
<text text-anchor="middle" x="1552.3" y="-125" font-family="Helvetica,sans-Serif" font-size="10.00">../vlayout/vlayoutpiece.h</text>
</a>
</g>
</g>
<!-- Node3&#45;&gt;Node7 -->
<g id="edge6" class="edge">
<title>Node3&#45;&gt;Node7</title>
<path fill="none" stroke="midnightblue" d="M1373.24,-179.48C1409.87,-169.05 1472,-151.36 1512.58,-139.81"/>
<polygon fill="midnightblue" stroke="midnightblue" points="1513.75,-143.11 1522.41,-137.01 1511.83,-136.38 1513.75,-143.11"/>
</g>
<!-- Node8 -->
<g id="node8" class="node">
<title>Node8</title>
<g id="a_node8"><a xlink:href="../../d4/d38/vpattern_8h.html" target="_top" xlink:title=" ">
<polygon fill="white" stroke="black" points="1638.8,-118 1638.8,-137 1727.8,-137 1727.8,-118 1638.8,-118"/>
<text text-anchor="middle" x="1683.3" y="-125" font-family="Helvetica,sans-Serif" font-size="10.00">xml/vpattern.h</text>
</a>
</g>
</g>
<!-- Node3&#45;&gt;Node8 -->
<g id="edge7" class="edge">
<title>Node3&#45;&gt;Node8</title>
<path fill="none" stroke="midnightblue" d="M1402.64,-179.49C1473.58,-169.18 1588.01,-152.07 1630.3,-143 1634.95,-142 1639.8,-140.84 1644.6,-139.62"/>
<polygon fill="midnightblue" stroke="midnightblue" points="1645.51,-143 1654.28,-137.07 1643.72,-136.23 1645.51,-143"/>
</g>
<!-- Node13 -->
<g id="node13" class="node">
<title>Node13</title>
<g id="a_node13"><a xlink:href="../../d1/d8e/export__layout__dialog_8h.html" target="_top" xlink:title=" ">
<polygon fill="white" stroke="black" points="1031.3,-112.5 1031.3,-142.5 1153.3,-142.5 1153.3,-112.5 1031.3,-112.5"/>
<text text-anchor="start" x="1039.3" y="-130.5" font-family="Helvetica,sans-Serif" font-size="10.00">dialogs/export_layout</text>
<text text-anchor="middle" x="1092.3" y="-119.5" font-family="Helvetica,sans-Serif" font-size="10.00">_dialog.h</text>
</a>
</g>
</g>
<!-- Node3&#45;&gt;Node13 -->
<g id="edge12" class="edge">
<title>Node3&#45;&gt;Node13</title>
<path fill="none" stroke="midnightblue" d="M1307.34,-179.48C1269.37,-170.48 1208.6,-156.07 1161.32,-144.86"/>
<polygon fill="midnightblue" stroke="midnightblue" points="1161.99,-141.42 1151.46,-142.52 1160.38,-148.24 1161.99,-141.42"/>
</g>
<!-- Node20 -->
<g id="node20" class="node">
<title>Node20</title>
<g id="a_node20"><a xlink:title=" ">
<polygon fill="white" stroke="#bfbfbf" points="1745.3,-118 1745.3,-137 1903.3,-137 1903.3,-118 1745.3,-118"/>
<text text-anchor="middle" x="1824.3" y="-125" font-family="Helvetica,sans-Serif" font-size="10.00">../vlayout/vlayoutgenerator.h</text>
</a>
</g>
</g>
<!-- Node3&#45;&gt;Node20 -->
<g id="edge21" class="edge">
<title>Node3&#45;&gt;Node20</title>
<path fill="none" stroke="midnightblue" d="M1403.62,-180.18C1406.89,-179.77 1410.14,-179.38 1413.3,-179 1557.16,-161.76 1593.79,-162.92 1737.3,-143 1746.64,-141.7 1756.53,-140.19 1766.15,-138.64"/>
<polygon fill="midnightblue" stroke="midnightblue" points="1766.75,-142.09 1776.05,-137.02 1765.62,-135.18 1766.75,-142.09"/>
</g>
<!-- Node21 -->
<g id="node21" class="node">
<title>Node21</title>
<g id="a_node21"><a xlink:title=" ">
<polygon fill="white" stroke="#bfbfbf" points="1921.8,-118 1921.8,-137 2110.8,-137 2110.8,-118 1921.8,-118"/>
<text text-anchor="middle" x="2016.3" y="-125" font-family="Helvetica,sans-Serif" font-size="10.00">../vwidgets/vabstractmainwindow.h</text>
</a>
</g>
</g>
<!-- Node3&#45;&gt;Node21 -->
<g id="edge22" class="edge">
<title>Node3&#45;&gt;Node21</title>
<path fill="none" stroke="midnightblue" d="M1403.6,-180.03C1406.88,-179.66 1410.13,-179.32 1413.3,-179 1634.54,-156.81 1691.18,-166.37 1912.3,-143 1924.6,-141.7 1937.69,-140.07 1950.28,-138.38"/>
<polygon fill="midnightblue" stroke="midnightblue" points="1950.82,-141.84 1960.25,-137.01 1949.87,-134.9 1950.82,-141.84"/>
</g>
<!-- Node9 -->
<g id="node9" class="node">
<title>Node9</title>
<g id="a_node9"><a xlink:title=" ">
<polygon fill="white" stroke="#bfbfbf" points="1864.3,-56.5 1864.3,-75.5 2016.3,-75.5 2016.3,-56.5 1864.3,-56.5"/>
<text text-anchor="middle" x="1940.3" y="-63.5" font-family="Helvetica,sans-Serif" font-size="10.00">../ifc/xml/vabstractpattern.h</text>
</a>
</g>
</g>
<!-- Node8&#45;&gt;Node9 -->
<g id="edge8" class="edge">
<title>Node8&#45;&gt;Node9</title>
<path fill="none" stroke="midnightblue" d="M1713.5,-117.96C1720.94,-115.93 1728.89,-113.83 1736.3,-112 1788.02,-99.23 1847.55,-86.3 1888.9,-77.6"/>
<polygon fill="midnightblue" stroke="midnightblue" points="1889.67,-81.01 1898.74,-75.53 1888.24,-74.16 1889.67,-81.01"/>
</g>
<!-- Node10 -->
<g id="node10" class="node">
<title>Node10</title>
<g id="a_node10"><a xlink:title=" ">
<polygon fill="white" stroke="#bfbfbf" points="1382.8,-56.5 1382.8,-75.5 1509.8,-75.5 1509.8,-56.5 1382.8,-56.5"/>
<text text-anchor="middle" x="1446.3" y="-63.5" font-family="Helvetica,sans-Serif" font-size="10.00">../ifc/xml/vtoolrecord.h</text>
</a>
</g>
</g>
<!-- Node8&#45;&gt;Node10 -->
<g id="edge9" class="edge">
<title>Node8&#45;&gt;Node10</title>
<path fill="none" stroke="midnightblue" d="M1652.51,-117.92C1645.24,-115.94 1637.5,-113.87 1630.3,-112 1583.45,-99.86 1529.66,-86.81 1492.39,-77.9"/>
<polygon fill="midnightblue" stroke="midnightblue" points="1492.87,-74.42 1482.34,-75.51 1491.25,-81.23 1492.87,-74.42"/>
</g>
<!-- Node11 -->
<g id="node11" class="node">
<title>Node11</title>
<g id="a_node11"><a xlink:title=" ">
<polygon fill="white" stroke="#bfbfbf" points="1528.3,-56.5 1528.3,-75.5 1670.3,-75.5 1670.3,-56.5 1528.3,-56.5"/>
<text text-anchor="middle" x="1599.3" y="-63.5" font-family="Helvetica,sans-Serif" font-size="10.00">../vpatterndb/vcontainer.h</text>
</a>
</g>
</g>
<!-- Node8&#45;&gt;Node11 -->
<g id="edge10" class="edge">
<title>Node8&#45;&gt;Node11</title>
<path fill="none" stroke="midnightblue" d="M1671.27,-117.98C1657.79,-108.43 1635.73,-92.81 1619.58,-81.37"/>
<polygon fill="midnightblue" stroke="midnightblue" points="1621.5,-78.43 1611.31,-75.51 1617.45,-84.15 1621.5,-78.43"/>
</g>
<!-- Node12 -->
<g id="node12" class="node">
<title>Node12</title>
<g id="a_node12"><a xlink:title=" ">
<polygon fill="white" stroke="#bfbfbf" points="1688.3,-56.5 1688.3,-75.5 1846.3,-75.5 1846.3,-56.5 1688.3,-56.5"/>
<text text-anchor="middle" x="1767.3" y="-63.5" font-family="Helvetica,sans-Serif" font-size="10.00">../ifc/xml/vpatternconverter.h</text>
</a>
</g>
</g>
<!-- Node8&#45;&gt;Node12 -->
<g id="edge11" class="edge">
<title>Node8&#45;&gt;Node12</title>
<path fill="none" stroke="midnightblue" d="M1695.34,-117.98C1708.81,-108.43 1730.87,-92.81 1747.02,-81.37"/>
<polygon fill="midnightblue" stroke="midnightblue" points="1749.15,-84.15 1755.29,-75.51 1745.1,-78.43 1749.15,-84.15"/>
</g>
<!-- Node14 -->
<g id="node14" class="node">
<title>Node14</title>
<g id="a_node14"><a xlink:title=" ">
<polygon fill="white" stroke="#bfbfbf" points="1115.3,-0.5 1115.3,-19.5 1171.3,-19.5 1171.3,-0.5 1115.3,-0.5"/>
<text text-anchor="middle" x="1143.3" y="-7.5" font-family="Helvetica,sans-Serif" font-size="10.00">QDialog</text>
</a>
</g>
</g>
<!-- Node13&#45;&gt;Node14 -->
<g id="edge13" class="edge">
<title>Node13&#45;&gt;Node14</title>
<path fill="none" stroke="midnightblue" d="M1102.97,-112.09C1109.82,-102.31 1118.49,-88.86 1124.3,-76 1131.11,-60.93 1136.17,-42.81 1139.35,-29.53"/>
<polygon fill="midnightblue" stroke="midnightblue" points="1142.78,-30.21 1141.58,-19.69 1135.96,-28.67 1142.78,-30.21"/>
</g>
<!-- Node15 -->
<g id="node15" class="node">
<title>Node15</title>
<g id="a_node15"><a xlink:title=" ">
<polygon fill="white" stroke="#bfbfbf" points="1045.8,-56.5 1045.8,-75.5 1114.8,-75.5 1114.8,-56.5 1045.8,-56.5"/>
<text text-anchor="middle" x="1080.3" y="-63.5" font-family="Helvetica,sans-Serif" font-size="10.00">QMarginsF</text>
</a>
</g>
</g>
<!-- Node13&#45;&gt;Node15 -->
<g id="edge14" class="edge">
<title>Node13&#45;&gt;Node15</title>
<path fill="none" stroke="midnightblue" d="M1089.46,-112.4C1087.84,-104.38 1085.79,-94.23 1084.05,-85.57"/>
<polygon fill="midnightblue" stroke="midnightblue" points="1087.45,-84.77 1082.05,-75.66 1080.59,-86.15 1087.45,-84.77"/>
</g>
<!-- Node16 -->
<g id="node16" class="node">
<title>Node16</title>
<g id="a_node16"><a xlink:title=" ">
<polygon fill="white" stroke="#bfbfbf" points="423.8,-56.5 423.8,-75.5 582.8,-75.5 582.8,-56.5 423.8,-56.5"/>
<text text-anchor="middle" x="503.3" y="-63.5" font-family="Helvetica,sans-Serif" font-size="10.00">../vgeometry/vgeometrydef.h</text>
</a>
</g>
</g>
<!-- Node13&#45;&gt;Node16 -->
<g id="edge15" class="edge">
<title>Node13&#45;&gt;Node16</title>
<path fill="none" stroke="midnightblue" d="M1031.29,-113.42C1028.26,-112.91 1025.25,-112.43 1022.3,-112 941.92,-100.23 718.8,-82.82 592.84,-73.48"/>
<polygon fill="midnightblue" stroke="midnightblue" points="593.05,-69.99 582.82,-72.74 592.54,-76.97 593.05,-69.99"/>
</g>
<!-- Node17 -->
<g id="node17" class="node">
<title>Node17</title>
<g id="a_node17"><a xlink:title=" ">
<polygon fill="white" stroke="#bfbfbf" points="143.3,-0.5 143.3,-19.5 225.3,-19.5 225.3,-0.5 143.3,-0.5"/>
<text text-anchor="middle" x="184.3" y="-7.5" font-family="Helvetica,sans-Serif" font-size="10.00">../vmisc/def.h</text>
</a>
</g>
</g>
<!-- Node13&#45;&gt;Node17 -->
<g id="edge16" class="edge">
<title>Node13&#45;&gt;Node17</title>
<path fill="none" stroke="midnightblue" d="M1031.01,-112.97C980.88,-101.6 914.18,-85.69 888.3,-76 870.06,-69.17 868.07,-61.21 849.3,-56 733.97,-23.99 370.82,-14.33 235.65,-11.8"/>
<polygon fill="midnightblue" stroke="midnightblue" points="235.62,-8.3 225.56,-11.62 235.49,-15.3 235.62,-8.3"/>
</g>
<!-- Node18 -->
<g id="node18" class="node">
<title>Node18</title>
<g id="a_node18"><a xlink:href="../../d7/d9e/abstractlayout__dialog_8h.html" target="_top" xlink:title=" ">
<polygon fill="white" stroke="black" points="896.8,-56.5 896.8,-75.5 1027.8,-75.5 1027.8,-56.5 896.8,-56.5"/>
<text text-anchor="middle" x="962.3" y="-63.5" font-family="Helvetica,sans-Serif" font-size="10.00">abstractlayout_dialog.h</text>
</a>
</g>
</g>
<!-- Node13&#45;&gt;Node18 -->
<g id="edge17" class="edge">
<title>Node13&#45;&gt;Node18</title>
<path fill="none" stroke="midnightblue" d="M1061.49,-112.4C1039.97,-102.55 1011.46,-89.5 990.53,-79.92"/>
<polygon fill="midnightblue" stroke="midnightblue" points="991.77,-76.64 981.22,-75.66 988.85,-83 991.77,-76.64"/>
</g>
<!-- Node18&#45;&gt;Node14 -->
<g id="edge20" class="edge">
<title>Node18&#45;&gt;Node14</title>
<path fill="none" stroke="midnightblue" d="M990.98,-56.44C1021.92,-47.21 1071.32,-32.48 1105.43,-22.3"/>
<polygon fill="midnightblue" stroke="midnightblue" points="1106.47,-25.64 1115.05,-19.43 1104.47,-18.93 1106.47,-25.64"/>
</g>
<!-- Node18&#45;&gt;Node17 -->
<g id="edge19" class="edge">
<title>Node18&#45;&gt;Node17</title>
<path fill="none" stroke="midnightblue" d="M896.4,-57.33C891.63,-56.86 886.89,-56.41 882.3,-56 640.96,-34.66 351.82,-19.25 235.99,-13.49"/>
<polygon fill="midnightblue" stroke="midnightblue" points="235.82,-9.98 225.66,-12.98 235.47,-16.97 235.82,-9.98"/>
</g>
<!-- Node19 -->
<g id="node19" class="node">
<title>Node19</title>
<g id="a_node19"><a xlink:title=" ">
<polygon fill="white" stroke="#bfbfbf" points="571.8,-0.5 571.8,-19.5 648.8,-19.5 648.8,-0.5 571.8,-0.5"/>
<text text-anchor="middle" x="610.3" y="-7.5" font-family="Helvetica,sans-Serif" font-size="10.00">../ifc/ifcdef.h</text>
</a>
</g>
</g>
<!-- Node18&#45;&gt;Node19 -->
<g id="edge18" class="edge">
<title>Node18&#45;&gt;Node19</title>
<path fill="none" stroke="midnightblue" d="M906.52,-56.44C838.26,-45.97 723.76,-28.41 658.92,-18.46"/>
<polygon fill="midnightblue" stroke="midnightblue" points="659.38,-14.99 648.96,-16.93 658.31,-21.91 659.38,-14.99"/>
</g>
<!-- Node22&#45;&gt;Node17 -->
<g id="edge36" class="edge">
<title>Node22&#45;&gt;Node17</title>
<path fill="none" stroke="midnightblue" d="M770.04,-179.95C767.09,-179.61 764.16,-179.29 761.3,-179 692.42,-172.1 197.45,-180.57 139.3,-143 104.29,-120.38 83.26,-91.98 104.3,-56 113.16,-40.85 129.21,-30.41 144.61,-23.42"/>
<polygon fill="midnightblue" stroke="midnightblue" points="146.15,-26.57 154.05,-19.51 143.47,-20.11 146.15,-26.57"/>
</g>
<!-- Node23 -->
<g id="node23" class="node">
<title>Node23</title>
<g id="a_node23"><a xlink:title=" ">
<polygon fill="white" stroke="#bfbfbf" points="791.3,-118 791.3,-137 849.3,-137 849.3,-118 791.3,-118"/>
<text text-anchor="middle" x="820.3" y="-125" font-family="Helvetica,sans-Serif" font-size="10.00">memory</text>
</a>
</g>
</g>
<!-- Node22&#45;&gt;Node23 -->
<g id="edge24" class="edge">
<title>Node22&#45;&gt;Node23</title>
<path fill="none" stroke="midnightblue" d="M823.73,-179.48C823.16,-171.08 822.28,-157.98 821.55,-147.16"/>
<polygon fill="midnightblue" stroke="midnightblue" points="825.04,-146.75 820.87,-137.01 818.05,-147.22 825.04,-146.75"/>
</g>
<!-- Node24 -->
<g id="node24" class="node">
<title>Node24</title>
<g id="a_node24"><a xlink:title=" ">
<polygon fill="white" stroke="#bfbfbf" points="867.8,-118 867.8,-137 914.8,-137 914.8,-118 867.8,-118"/>
<text text-anchor="middle" x="891.3" y="-125" font-family="Helvetica,sans-Serif" font-size="10.00">vector</text>
</a>
</g>
</g>
<!-- Node22&#45;&gt;Node24 -->
<g id="edge25" class="edge">
<title>Node22&#45;&gt;Node24</title>
<path fill="none" stroke="midnightblue" d="M833.9,-179.48C844.35,-170.2 861.27,-155.17 874.04,-143.83"/>
<polygon fill="midnightblue" stroke="midnightblue" points="876.57,-146.27 881.72,-137.01 871.92,-141.03 876.57,-146.27"/>
</g>
<!-- Node25 -->
<g id="node25" class="node">
<title>Node25</title>
<g id="a_node25"><a xlink:title=" ">
<polygon fill="white" stroke="#bfbfbf" points="933.3,-118 933.3,-137 1013.3,-137 1013.3,-118 933.3,-118"/>
<text text-anchor="middle" x="973.3" y="-125" font-family="Helvetica,sans-Serif" font-size="10.00">QTextStream</text>
</a>
</g>
</g>
<!-- Node22&#45;&gt;Node25 -->
<g id="edge26" class="edge">
<title>Node22&#45;&gt;Node25</title>
<path fill="none" stroke="midnightblue" d="M845.65,-179.48C870.99,-169.36 913.44,-152.4 942.37,-140.85"/>
<polygon fill="midnightblue" stroke="midnightblue" points="944,-143.97 951.99,-137.01 941.41,-137.47 944,-143.97"/>
</g>
<!-- Node26 -->
<g id="node26" class="node">
<title>Node26</title>
<g id="a_node26"><a xlink:title=" ">
<polygon fill="white" stroke="#bfbfbf" points="397.8,-118 397.8,-137 498.8,-137 498.8,-118 397.8,-118"/>
<text text-anchor="middle" x="448.3" y="-125" font-family="Helvetica,sans-Serif" font-size="10.00">QCoreApplication</text>
</a>
</g>
</g>
<!-- Node22&#45;&gt;Node26 -->
<g id="edge27" class="edge">
<title>Node22&#45;&gt;Node26</title>
<path fill="none" stroke="midnightblue" d="M770,-180.24C767.06,-179.82 764.14,-179.41 761.3,-179 648.86,-162.97 619.85,-164.36 508.3,-143 502.77,-141.94 496.99,-140.71 491.29,-139.41"/>
<polygon fill="midnightblue" stroke="midnightblue" points="491.72,-135.92 481.19,-137.05 490.12,-142.74 491.72,-135.92"/>
</g>
<!-- Node27 -->
<g id="node27" class="node">
<title>Node27</title>
<g id="a_node27"><a xlink:title=" ">
<polygon fill="white" stroke="#bfbfbf" points="516.8,-118 516.8,-137 641.8,-137 641.8,-118 516.8,-118"/>
<text text-anchor="middle" x="579.3" y="-125" font-family="Helvetica,sans-Serif" font-size="10.00">QCommandLineParser</text>
</a>
</g>
</g>
<!-- Node22&#45;&gt;Node27 -->
<g id="edge28" class="edge">
<title>Node22&#45;&gt;Node27</title>
<path fill="none" stroke="midnightblue" d="M789.2,-179.48C745.81,-168.94 671.89,-150.99 624.35,-139.44"/>
<polygon fill="midnightblue" stroke="midnightblue" points="624.88,-135.97 614.34,-137.01 623.23,-142.77 624.88,-135.97"/>
</g>
<!-- Node28 -->
<g id="node28" class="node">
<title>Node28</title>
<g id="a_node28"><a xlink:href="../../d3/dd8/layoutsettings__dialog_8h.html" target="_top" xlink:title=" ">
<polygon fill="white" stroke="black" points="245.3,-112.5 245.3,-142.5 379.3,-142.5 379.3,-112.5 245.3,-112.5"/>
<text text-anchor="start" x="253.3" y="-130.5" font-family="Helvetica,sans-Serif" font-size="10.00">../dialogs/layoutsettings</text>
<text text-anchor="middle" x="312.3" y="-119.5" font-family="Helvetica,sans-Serif" font-size="10.00">_dialog.h</text>
</a>
</g>
</g>
<!-- Node22&#45;&gt;Node28 -->
<g id="edge29" class="edge">
<title>Node22&#45;&gt;Node28</title>
<path fill="none" stroke="midnightblue" d="M770.02,-180.09C767.08,-179.71 764.15,-179.34 761.3,-179 599.59,-159.64 555.46,-166.12 389.5,-142.93"/>
<polygon fill="midnightblue" stroke="midnightblue" points="389.82,-139.44 379.43,-141.51 388.85,-146.37 389.82,-139.44"/>
</g>
<!-- Node32 -->
<g id="node32" class="node">
<title>Node32</title>
<g id="a_node32"><a xlink:title=" ">
<polygon fill="white" stroke="#bfbfbf" points="659.8,-118 659.8,-137 772.8,-137 772.8,-118 659.8,-118"/>
<text text-anchor="middle" x="716.3" y="-125" font-family="Helvetica,sans-Serif" font-size="10.00">../vmisc/vsysexits.h</text>
</a>
</g>
</g>
<!-- Node22&#45;&gt;Node32 -->
<g id="edge37" class="edge">
<title>Node22&#45;&gt;Node32</title>
<path fill="none" stroke="midnightblue" d="M808.83,-179.48C791.02,-169.67 761.56,-153.43 740.67,-141.92"/>
<polygon fill="midnightblue" stroke="midnightblue" points="742.19,-138.77 731.75,-137.01 738.82,-144.9 742.19,-138.77"/>
</g>
<!-- Node28&#45;&gt;Node17 -->
<g id="edge32" class="edge">
<title>Node28&#45;&gt;Node17</title>
<path fill="none" stroke="midnightblue" d="M303.44,-112.31C293.5,-97.14 276.27,-72.98 257.3,-56 243.38,-43.53 225.56,-32.48 211.02,-24.44"/>
<polygon fill="midnightblue" stroke="midnightblue" points="212.47,-21.25 202,-19.61 209.16,-27.42 212.47,-21.25"/>
</g>
<!-- Node28&#45;&gt;Node18 -->
<g id="edge30" class="edge">
<title>Node28&#45;&gt;Node18</title>
<path fill="none" stroke="midnightblue" d="M379.42,-113.42C382.76,-112.91 386.06,-112.43 389.3,-112 592.58,-84.99 644.87,-92.14 849.3,-76 861.26,-75.06 873.92,-74.05 886.28,-73.07"/>
<polygon fill="midnightblue" stroke="midnightblue" points="886.88,-76.53 896.57,-72.25 886.33,-69.55 886.88,-76.53"/>
</g>
<!-- Node28&#45;&gt;Node19 -->
<g id="edge33" class="edge">
<title>Node28&#45;&gt;Node19</title>
<path fill="none" stroke="midnightblue" d="M379.48,-113.81C382.8,-113.19 386.09,-112.59 389.3,-112 479.44,-95.52 524.52,-137.65 592.3,-76 605.14,-64.32 609.15,-44.38 610.24,-29.65"/>
<polygon fill="midnightblue" stroke="midnightblue" points="613.74,-29.76 610.61,-19.63 606.75,-29.5 613.74,-29.76"/>
</g>
<!-- Node29 -->
<g id="node29" class="node">
<title>Node29</title>
<g id="a_node29"><a xlink:title=" ">
<polygon fill="white" stroke="#bfbfbf" points="638.3,-56.5 638.3,-75.5 742.3,-75.5 742.3,-56.5 638.3,-56.5"/>
<text text-anchor="middle" x="690.3" y="-63.5" font-family="Helvetica,sans-Serif" font-size="10.00">../vlayout/vbank.h</text>
</a>
</g>
</g>
<!-- Node28&#45;&gt;Node29 -->
<g id="edge31" class="edge">
<title>Node28&#45;&gt;Node29</title>
<path fill="none" stroke="midnightblue" d="M379.47,-113.7C382.79,-113.11 386.08,-112.54 389.3,-112 471.67,-98.09 567.11,-84.2 628.05,-75.61"/>
<polygon fill="midnightblue" stroke="midnightblue" points="628.86,-79.03 638.27,-74.17 627.88,-72.1 628.86,-79.03"/>
</g>
<!-- Node30 -->
<g id="node30" class="node">
<title>Node30</title>
<g id="a_node30"><a xlink:title=" ">
<polygon fill="white" stroke="#bfbfbf" points="760.8,-56.5 760.8,-75.5 839.8,-75.5 839.8,-56.5 760.8,-56.5"/>
<text text-anchor="middle" x="800.3" y="-63.5" font-family="Helvetica,sans-Serif" font-size="10.00">QCloseEvent</text>
</a>
</g>
</g>
<!-- Node28&#45;&gt;Node30 -->
<g id="edge34" class="edge">
<title>Node28&#45;&gt;Node30</title>
<path fill="none" stroke="midnightblue" d="M379.43,-113.5C382.77,-112.97 386.07,-112.46 389.3,-112 546.06,-89.49 589.44,-98.24 750.49,-75.99"/>
<polygon fill="midnightblue" stroke="midnightblue" points="751.35,-79.4 760.77,-74.55 750.38,-72.47 751.35,-79.4"/>
</g>
<!-- Node31 -->
<g id="node31" class="node">
<title>Node31</title>
<g id="a_node31"><a xlink:title=" ">
<polygon fill="white" stroke="#bfbfbf" points="342.8,-56.5 342.8,-75.5 405.8,-75.5 405.8,-56.5 342.8,-56.5"/>
<text text-anchor="middle" x="374.3" y="-63.5" font-family="Helvetica,sans-Serif" font-size="10.00">QMargins</text>
</a>
</g>
</g>
<!-- Node28&#45;&gt;Node31 -->
<g id="edge35" class="edge">
<title>Node28&#45;&gt;Node31</title>
<path fill="none" stroke="midnightblue" d="M326.99,-112.4C336.28,-103.49 348.3,-91.95 357.9,-82.74"/>
<polygon fill="midnightblue" stroke="midnightblue" points="360.49,-85.11 365.28,-75.66 355.64,-80.06 360.49,-85.11"/>
</g>
<!-- Node37&#45;&gt;Node22 -->
<g id="edge52" class="edge">
<title>Node37&#45;&gt;Node22</title>
<path fill="none" stroke="midnightblue" d="M538.17,-235.44C598.61,-225.85 696.54,-210.29 760.68,-200.1"/>
<polygon fill="midnightblue" stroke="midnightblue" points="761.35,-203.54 770.68,-198.52 760.25,-196.63 761.35,-203.54"/>
</g>
<!-- Node38 -->
<g id="node38" class="node">
<title>Node38</title>
<g id="a_node38"><a xlink:title=" ">
<polygon fill="white" stroke="#bfbfbf" points="211.8,-179.5 211.8,-198.5 378.8,-198.5 378.8,-179.5 211.8,-179.5"/>
<text text-anchor="middle" x="295.3" y="-186.5" font-family="Helvetica,sans-Serif" font-size="10.00">../vmisc/vabstractapplication.h</text>
</a>
</g>
</g>
<!-- Node37&#45;&gt;Node38 -->
<g id="edge43" class="edge">
<title>Node37&#45;&gt;Node38</title>
<path fill="none" stroke="midnightblue" d="M454.35,-235.44C422.14,-226.24 370.77,-211.56 335.16,-201.39"/>
<polygon fill="midnightblue" stroke="midnightblue" points="335.68,-197.9 325.11,-198.52 333.76,-204.63 335.68,-197.9"/>
</g>
<!-- Node39 -->
<g id="node39" class="node">
<title>Node39</title>
<g id="a_node39"><a xlink:title=" ">
<polygon fill="white" stroke="#bfbfbf" points="44.3,-179.5 44.3,-198.5 156.3,-198.5 156.3,-179.5 44.3,-179.5"/>
<text text-anchor="middle" x="100.3" y="-186.5" font-family="Helvetica,sans-Serif" font-size="10.00">../vmisc/vsettings.h</text>
</a>
</g>
</g>
<!-- Node37&#45;&gt;Node39 -->
<g id="edge44" class="edge">
<title>Node37&#45;&gt;Node39</title>
<path fill="none" stroke="midnightblue" d="M429.28,-236.26C359.96,-226.51 240.92,-209.78 166.64,-199.33"/>
<polygon fill="midnightblue" stroke="midnightblue" points="166.85,-195.82 156.46,-197.9 165.88,-202.76 166.85,-195.82"/>
</g>
<!-- Node40 -->
<g id="node40" class="node">
<title>Node40</title>
<g id="a_node40"><a xlink:href="../../d7/d5b/options_8h.html" target="_top" xlink:title=" ">
<polygon fill="white" stroke="black" points="148.8,-118 148.8,-137 219.8,-137 219.8,-118 148.8,-118"/>
<text text-anchor="middle" x="184.3" y="-125" font-family="Helvetica,sans-Serif" font-size="10.00">../options.h</text>
</a>
</g>
</g>
<!-- Node37&#45;&gt;Node40 -->
<g id="edge45" class="edge">
<title>Node37&#45;&gt;Node40</title>
<path fill="none" stroke="midnightblue" d="M429.21,-242.12C356.99,-238.51 235.7,-228.18 203.3,-199 189.05,-186.17 185.01,-163.88 184.08,-147.8"/>
<polygon fill="midnightblue" stroke="midnightblue" points="187.57,-147.33 183.86,-137.4 180.58,-147.48 187.57,-147.33"/>
</g>
<!-- Node42 -->
<g id="node42" class="node">
<title>Node42</title>
<g id="a_node42"><a xlink:title=" ">
<polygon fill="white" stroke="#bfbfbf" points="396.3,-179.5 396.3,-198.5 572.3,-198.5 572.3,-179.5 396.3,-179.5"/>
<text text-anchor="middle" x="484.3" y="-186.5" font-family="Helvetica,sans-Serif" font-size="10.00">../vwidgets/vmaingraphicsview.h</text>
</a>
</g>
</g>
<!-- Node37&#45;&gt;Node42 -->
<g id="edge50" class="edge">
<title>Node37&#45;&gt;Node42</title>
<path fill="none" stroke="midnightblue" d="M484.3,-235.08C484.3,-228.01 484.3,-217.86 484.3,-208.99"/>
<polygon fill="midnightblue" stroke="midnightblue" points="487.8,-208.75 484.3,-198.75 480.8,-208.75 487.8,-208.75"/>
</g>
<!-- Node43 -->
<g id="node43" class="node">
<title>Node43</title>
<g id="a_node43"><a xlink:title=" ">
<polygon fill="white" stroke="#bfbfbf" points="590.8,-179.5 590.8,-198.5 751.8,-198.5 751.8,-179.5 590.8,-179.5"/>
<text text-anchor="middle" x="671.3" y="-186.5" font-family="Helvetica,sans-Serif" font-size="10.00">../vpatterndb/vtranslatevars.h</text>
</a>
</g>
</g>
<!-- Node37&#45;&gt;Node43 -->
<g id="edge51" class="edge">
<title>Node37&#45;&gt;Node43</title>
<path fill="none" stroke="midnightblue" d="M513.93,-235.44C545.8,-226.24 596.63,-211.56 631.86,-201.39"/>
<polygon fill="midnightblue" stroke="midnightblue" points="633.17,-204.65 641.81,-198.52 631.23,-197.93 633.17,-204.65"/>
</g>
<!-- Node40&#45;&gt;Node16 -->
<g id="edge47" class="edge">
<title>Node40&#45;&gt;Node16</title>
<path fill="none" stroke="midnightblue" d="M212.77,-117.98C220.38,-115.86 228.62,-113.71 236.3,-112 301.92,-97.36 377.57,-85.03 431.55,-77"/>
<polygon fill="midnightblue" stroke="midnightblue" points="432.32,-80.43 441.7,-75.51 431.3,-73.5 432.32,-80.43"/>
</g>
<!-- Node40&#45;&gt;Node17 -->
<g id="edge49" class="edge">
<title>Node40&#45;&gt;Node17</title>
<path fill="none" stroke="midnightblue" d="M162.49,-117.88C135.9,-105.98 96.27,-82.92 111.3,-56 119.46,-41.39 134.52,-30.94 148.85,-23.8"/>
<polygon fill="midnightblue" stroke="midnightblue" points="150.45,-26.92 158.09,-19.59 147.54,-20.56 150.45,-26.92"/>
</g>
<!-- Node40&#45;&gt;Node19 -->
<g id="edge46" class="edge">
<title>Node40&#45;&gt;Node19</title>
<path fill="none" stroke="midnightblue" d="M199.07,-117.85C225.35,-102.85 282.35,-72.1 334.3,-56 411.79,-31.99 505.71,-20.15 561.6,-14.82"/>
<polygon fill="midnightblue" stroke="midnightblue" points="561.94,-18.31 571.58,-13.9 561.3,-11.34 561.94,-18.31"/>
</g>
<!-- Node41 -->
<g id="node41" class="node">
<title>Node41</title>
<g id="a_node41"><a xlink:title=" ">
<polygon fill="white" stroke="#bfbfbf" points="120.8,-56.5 120.8,-75.5 247.8,-75.5 247.8,-56.5 120.8,-56.5"/>
<text text-anchor="middle" x="184.3" y="-63.5" font-family="Helvetica,sans-Serif" font-size="10.00">../qmuparser/qmudef.h</text>
</a>
</g>
</g>
<!-- Node40&#45;&gt;Node41 -->
<g id="edge48" class="edge">
<title>Node40&#45;&gt;Node41</title>
<path fill="none" stroke="midnightblue" d="M184.3,-117.98C184.3,-109.58 184.3,-96.48 184.3,-85.66"/>
<polygon fill="midnightblue" stroke="midnightblue" points="187.8,-85.51 184.3,-75.51 180.8,-85.51 187.8,-85.51"/>
</g>
<!-- Node44&#45;&gt;Node14 -->
<g id="edge54" class="edge">
<title>Node44&#45;&gt;Node14</title>
<path fill="none" stroke="midnightblue" d="M291.92,-240.38C439.67,-232.72 773.93,-214.3 887.3,-199 1010.91,-182.32 1083.39,-239.6 1162.3,-143 1189.3,-109.94 1167.56,-56.04 1153.28,-28.46"/>
<polygon fill="midnightblue" stroke="midnightblue" points="1156.3,-26.7 1148.45,-19.58 1150.15,-30.04 1156.3,-26.7"/>
</g>
<!-- Node44&#45;&gt;Node17 -->
<g id="edge55" class="edge">
<title>Node44&#45;&gt;Node17</title>
<path fill="none" stroke="midnightblue" d="M148.59,-235.71C102.82,-228.78 49.5,-217.06 35.3,-199 3.02,-157.93 -45.06,-196.96 93.3,-56 107.78,-41.25 128.09,-30.57 145.85,-23.33"/>
<polygon fill="midnightblue" stroke="midnightblue" points="147.33,-26.51 155.4,-19.65 144.81,-19.97 147.33,-26.51"/>
</g>
<!-- Node44&#45;&gt;Node39 -->
<g id="edge56" class="edge">
<title>Node44&#45;&gt;Node39</title>
<path fill="none" stroke="midnightblue" d="M201.29,-235.44C181.71,-226.64 150.99,-212.81 128.57,-202.72"/>
<polygon fill="midnightblue" stroke="midnightblue" points="129.78,-199.43 119.23,-198.52 126.91,-205.81 129.78,-199.43"/>
</g>
</g>
</svg>
        <g id="navigator" transform="translate(0 0)" fill="#404254">
                <rect fill="#f2f5e9" fill-opacity="0.5" stroke="#606060" stroke-width=".5" x="0" y="0" width="60" height="60"/>
                <use id="zoomplus" xlink:href="#zoomPlus" x="17" y="9" onmousedown="handleZoom(evt,'in')"/>
                <use id="zoomminus" xlink:href="#zoomMin" x="42" y="9" onmousedown="handleZoom(evt,'out')"/>
                <use id="reset" xlink:href="#resetDef" x="30" y="36" onmousedown="handleReset()"/>
                <g id="arrowUp" xlink:href="#dirArrow" transform="translate(30 24)" onmousedown="handlePan(0,-1)">
                  <use xlink:href="#rim" fill="#404040">
                        <set attributeName="fill" to="#808080" begin="arrowUp.mouseover" end="arrowUp.mouseout"/>
                  </use>
                  <path fill="none" stroke="white" stroke-width="1.5" d="M0,-3.0v7 M-2.5,-0.5L0,-3.0L2.5,-0.5"/>
                </g>
                <g id="arrowRight" xlink:href="#dirArrow" transform="rotate(90) translate(36 -43)" onmousedown="handlePan(1,0)">
                  <use xlink:href="#rim" fill="#404040">
                        <set attributeName="fill" to="#808080" begin="arrowRight.mouseover" end="arrowRight.mouseout"/>
                  </use>
                  <path fill="none" stroke="white" stroke-width="1.5" d="M0,-3.0v7 M-2.5,-0.5L0,-3.0L2.5,-0.5"/>
                </g>
                <g id="arrowDown" xlink:href="#dirArrow" transform="rotate(180) translate(-30 -48)" onmousedown="handlePan(0,1)">
                  <use xlink:href="#rim" fill="#404040">
                        <set attributeName="fill" to="#808080" begin="arrowDown.mouseover" end="arrowDown.mouseout"/>
                  </use>
                  <path fill="none" stroke="white" stroke-width="1.5" d="M0,-3.0v7 M-2.5,-0.5L0,-3.0L2.5,-0.5"/>
                </g>
                <g id="arrowLeft" xlink:href="#dirArrow" transform="rotate(270) translate(-36 17)" onmousedown="handlePan(-1,0)">
                  <use xlink:href="#rim" fill="#404040">
                        <set attributeName="fill" to="#808080" begin="arrowLeft.mouseover" end="arrowLeft.mouseout"/>
                  </use>
                  <path fill="none" stroke="white" stroke-width="1.5" d="M0,-3.0v7 M-2.5,-0.5L0,-3.0L2.5,-0.5"/>
                </g>
        </g>
        <svg viewBox="0 0 15 15" width="100%" height="30px" preserveAspectRatio="xMaxYMin meet">
         <g id="arrow_out" transform="scale(0.3 0.3)">
          <a xlink:href="app_2seamly2d_2main_8cpp__incl_org.svg" target="_base">
           <rect id="button" ry="5" rx="5" y="6" x="6" height="38" width="38"
                fill="#f2f5e9" fill-opacity="0.5" stroke="#606060" stroke-width="1.0"/>
           <path id="arrow"
             d="M 11.500037,31.436501 C 11.940474,20.09759 22.043105,11.32322 32.158766,21.979434 L 37.068811,17.246167 C 37.068811,17.246167 37.088388,32 37.088388,32 L 22.160133,31.978069 C 22.160133,31.978069 26.997745,27.140456 26.997745,27.140456 C 18.528582,18.264221 13.291696,25.230495 11.500037,31.436501 z"
             style="fill:#404040;"/>
          </a>
         </g>
        </svg>
</svg>
