<?xml version="1.0" encoding="UTF-8" standalone="no"?>
<!DOCTYPE svg PUBLIC "-//W3C//DTD SVG 1.1//EN"
 "http://www.w3.org/Graphics/SVG/1.1/DTD/svg11.dtd">
<!-- Generated by graphviz version 2.43.0 (0)
 -->
<!-- Title: src/libs/vpatterndb/variables.h Pages: 1 -->
<svg width="6920pt" height="318pt"
 viewBox="0.00 0.00 6920.00 318.00" xmlns="http://www.w3.org/2000/svg" xmlns:xlink="http://www.w3.org/1999/xlink">
<g id="graph0" class="graph" transform="scale(1 1) rotate(0) translate(4 314)">
<title>src/libs/vpatterndb/variables.h</title>
<polygon fill="white" stroke="transparent" points="-4,4 -4,-314 6916,-314 6916,4 -4,4"/>
<!-- Node1 -->
<g id="node1" class="node">
<title>Node1</title>
<g id="a_node1"><a xlink:title=" ">
<polygon fill="#bfbfbf" stroke="black" points="5714.5,-279.5 5714.5,-309.5 5821.5,-309.5 5821.5,-279.5 5714.5,-279.5"/>
<text text-anchor="start" x="5722.5" y="-297.5" font-family="Helvetica,sans-Serif" font-size="10.00">src/libs/vpatterndb</text>
<text text-anchor="middle" x="5768" y="-286.5" font-family="Helvetica,sans-Serif" font-size="10.00">/variables.h</text>
</a>
</g>
</g>
<!-- Node2 -->
<g id="node2" class="node">
<title>Node2</title>
<g id="a_node2"><a xlink:href="../../d3/df7/vcontainer_8h.html" target="_top" xlink:title=" ">
<polygon fill="white" stroke="black" points="5714.5,-212.5 5714.5,-242.5 5821.5,-242.5 5821.5,-212.5 5714.5,-212.5"/>
<text text-anchor="start" x="5722.5" y="-230.5" font-family="Helvetica,sans-Serif" font-size="10.00">src/libs/vpatterndb</text>
<text text-anchor="middle" x="5768" y="-219.5" font-family="Helvetica,sans-Serif" font-size="10.00">/vcontainer.h</text>
</a>
</g>
</g>
<!-- Node1&#45;&gt;Node2 -->
<g id="edge1" class="edge">
<title>Node1&#45;&gt;Node2</title>
<path fill="none" stroke="midnightblue" d="M5768,-269.11C5768,-260.15 5768,-250.32 5768,-242.58"/>
<polygon fill="midnightblue" stroke="midnightblue" points="5764.5,-269.4 5768,-279.4 5771.5,-269.4 5764.5,-269.4"/>
</g>
<!-- Node3 -->
<g id="node3" class="node">
<title>Node3</title>
<g id="a_node3"><a xlink:href="../../d2/d47/image__dialog_8cpp.html" target="_top" xlink:title=" ">
<polygon fill="white" stroke="black" points="1320,-67.5 1320,-97.5 1432,-97.5 1432,-67.5 1320,-67.5"/>
<text text-anchor="start" x="1328" y="-85.5" font-family="Helvetica,sans-Serif" font-size="10.00">src/libs/tools/image</text>
<text text-anchor="middle" x="1376" y="-74.5" font-family="Helvetica,sans-Serif" font-size="10.00">_dialog.cpp</text>
</a>
</g>
</g>
<!-- Node2&#45;&gt;Node3 -->
<g id="edge2" class="edge">
<title>Node2&#45;&gt;Node3</title>
<path fill="none" stroke="midnightblue" d="M5704.16,-226.56C5277.17,-226.8 2830.25,-225.96 2086,-176 1797.89,-156.66 1725.6,-146.83 1441,-98 1438.15,-97.51 1435.24,-96.98 1432.3,-96.42"/>
<polygon fill="midnightblue" stroke="midnightblue" points="5704.46,-230.06 5714.45,-226.55 5704.45,-223.06 5704.46,-230.06"/>
</g>
<!-- Node4 -->
<g id="node4" class="node">
<title>Node4</title>
<g id="a_node4"><a xlink:href="../../dc/db7/measurements_8h.html" target="_top" xlink:title=" ">
<polygon fill="white" stroke="black" points="5815.5,-145.5 5815.5,-164.5 5994.5,-164.5 5994.5,-145.5 5815.5,-145.5"/>
<text text-anchor="middle" x="5905" y="-152.5" font-family="Helvetica,sans-Serif" font-size="10.00">src/libs/vformat/measurements.h</text>
</a>
</g>
</g>
<!-- Node2&#45;&gt;Node4 -->
<g id="edge3" class="edge">
<title>Node2&#45;&gt;Node4</title>
<path fill="none" stroke="midnightblue" d="M5804.63,-207.65C5831.87,-193.63 5867.76,-175.16 5888.42,-164.53"/>
<polygon fill="midnightblue" stroke="midnightblue" points="5802.68,-204.71 5795.39,-212.4 5805.89,-210.94 5802.68,-204.71"/>
</g>
<!-- Node5 -->
<g id="node5" class="node">
<title>Node5</title>
<g id="a_node5"><a xlink:href="../../d9/de3/measurements_8cpp.html" target="_top" xlink:title=" ">
<polygon fill="white" stroke="black" points="5821,-73 5821,-92 6011,-92 6011,-73 5821,-73"/>
<text text-anchor="middle" x="5916" y="-80" font-family="Helvetica,sans-Serif" font-size="10.00">src/libs/vformat/measurements.cpp</text>
</a>
</g>
</g>
<!-- Node2&#45;&gt;Node5 -->
<g id="edge5" class="edge">
<title>Node2&#45;&gt;Node5</title>
<path fill="none" stroke="midnightblue" d="M5772.71,-202.36C5777.81,-181.91 5787.77,-152.98 5806,-134 5826.45,-112.7 5857.59,-99.57 5881.52,-92.06"/>
<polygon fill="midnightblue" stroke="midnightblue" points="5769.28,-201.65 5770.47,-212.18 5776.11,-203.21 5769.28,-201.65"/>
</g>
<!-- Node6 -->
<g id="node6" class="node">
<title>Node6</title>
<g id="a_node6"><a xlink:href="../../d6/de0/vlayoutpiece_8h.html" target="_top" xlink:title=" ">
<polygon fill="white" stroke="black" points="553,-145.5 553,-164.5 719,-164.5 719,-145.5 553,-145.5"/>
<text text-anchor="middle" x="636" y="-152.5" font-family="Helvetica,sans-Serif" font-size="10.00">src/libs/vlayout/vlayoutpiece.h</text>
</a>
</g>
</g>
<!-- Node2&#45;&gt;Node6 -->
<g id="edge6" class="edge">
<title>Node2&#45;&gt;Node6</title>
<path fill="none" stroke="midnightblue" d="M5704.38,-225.78C5332.6,-221.55 3403.14,-199.31 1828,-176 1411.51,-169.84 913.19,-161 719.09,-157.51"/>
<polygon fill="midnightblue" stroke="midnightblue" points="5704.38,-229.28 5714.42,-225.89 5704.46,-222.28 5704.38,-229.28"/>
</g>
<!-- Node16 -->
<g id="node15" class="node">
<title>Node16</title>
<g id="a_node15"><a xlink:href="../../d8/d70/vtextmanager_8cpp.html" target="_top" xlink:title=" ">
<polygon fill="white" stroke="black" points="1450,-73 1450,-92 1632,-92 1632,-73 1450,-73"/>
<text text-anchor="middle" x="1541" y="-80" font-family="Helvetica,sans-Serif" font-size="10.00">src/libs/vlayout/vtextmanager.cpp</text>
</a>
</g>
</g>
<!-- Node2&#45;&gt;Node16 -->
<g id="edge17" class="edge">
<title>Node2&#45;&gt;Node16</title>
<path fill="none" stroke="midnightblue" d="M5704.44,-225.83C5422.23,-222.7 4254.26,-208.36 3296,-176 2560.05,-151.14 2374.01,-168.25 1641,-98 1625.37,-96.5 1608.45,-94.28 1593.04,-92.02"/>
<polygon fill="midnightblue" stroke="midnightblue" points="5704.46,-229.33 5714.5,-225.94 5704.53,-222.33 5704.46,-229.33"/>
</g>
<!-- Node17 -->
<g id="node16" class="node">
<title>Node17</title>
<g id="a_node16"><a xlink:href="../../d5/d74/vabstractapplication_8h.html" target="_top" xlink:title=" ">
<polygon fill="white" stroke="red" points="3305.5,-145.5 3305.5,-164.5 3500.5,-164.5 3500.5,-145.5 3305.5,-145.5"/>
<text text-anchor="middle" x="3403" y="-152.5" font-family="Helvetica,sans-Serif" font-size="10.00">src/libs/vmisc/vabstractapplication.h</text>
</a>
</g>
</g>
<!-- Node2&#45;&gt;Node17 -->
<g id="edge18" class="edge">
<title>Node2&#45;&gt;Node17</title>
<path fill="none" stroke="midnightblue" d="M5704.23,-224.6C5378.14,-214.88 3896.96,-170.72 3500.73,-158.91"/>
<polygon fill="midnightblue" stroke="midnightblue" points="5704.34,-228.1 5714.44,-224.9 5704.55,-221.11 5704.34,-228.1"/>
</g>
<!-- Node45 -->
<g id="node31" class="node">
<title>Node45</title>
<g id="a_node31"><a xlink:href="../../db/d11/vformula_8cpp.html" target="_top" xlink:title=" ">
<polygon fill="white" stroke="black" points="5407.5,-67.5 5407.5,-97.5 5514.5,-97.5 5514.5,-67.5 5407.5,-67.5"/>
<text text-anchor="start" x="5415.5" y="-85.5" font-family="Helvetica,sans-Serif" font-size="10.00">src/libs/vpatterndb</text>
<text text-anchor="middle" x="5461" y="-74.5" font-family="Helvetica,sans-Serif" font-size="10.00">/vformula.cpp</text>
</a>
</g>
</g>
<!-- Node2&#45;&gt;Node45 -->
<g id="edge53" class="edge">
<title>Node2&#45;&gt;Node45</title>
<path fill="none" stroke="midnightblue" d="M5725.44,-208.46C5703.42,-199 5676.17,-187.11 5652,-176 5593.75,-149.23 5526.45,-116.12 5489.31,-97.65"/>
<polygon fill="midnightblue" stroke="midnightblue" points="5724.27,-211.77 5734.84,-212.49 5727.03,-205.33 5724.27,-211.77"/>
</g>
<!-- Node46 -->
<g id="node32" class="node">
<title>Node46</title>
<g id="a_node32"><a xlink:href="../../d6/d46/vcontainer_8cpp.html" target="_top" xlink:title=" ">
<polygon fill="white" stroke="black" points="5532.5,-67.5 5532.5,-97.5 5639.5,-97.5 5639.5,-67.5 5532.5,-67.5"/>
<text text-anchor="start" x="5540.5" y="-85.5" font-family="Helvetica,sans-Serif" font-size="10.00">src/libs/vpatterndb</text>
<text text-anchor="middle" x="5586" y="-74.5" font-family="Helvetica,sans-Serif" font-size="10.00">/vcontainer.cpp</text>
</a>
</g>
</g>
<!-- Node2&#45;&gt;Node46 -->
<g id="edge54" class="edge">
<title>Node2&#45;&gt;Node46</title>
<path fill="none" stroke="midnightblue" d="M5741.94,-206.03C5704.5,-176.6 5636.42,-123.12 5604.04,-97.68"/>
<polygon fill="midnightblue" stroke="midnightblue" points="5739.86,-208.84 5749.88,-212.27 5744.18,-203.34 5739.86,-208.84"/>
</g>
<!-- Node47 -->
<g id="node33" class="node">
<title>Node47</title>
<g id="a_node33"><a xlink:href="../../df/d7a/vpiece_8cpp.html" target="_top" xlink:title=" ">
<polygon fill="white" stroke="black" points="5657.5,-67.5 5657.5,-97.5 5764.5,-97.5 5764.5,-67.5 5657.5,-67.5"/>
<text text-anchor="start" x="5665.5" y="-85.5" font-family="Helvetica,sans-Serif" font-size="10.00">src/libs/vpatterndb</text>
<text text-anchor="middle" x="5711" y="-74.5" font-family="Helvetica,sans-Serif" font-size="10.00">/vpiece.cpp</text>
</a>
</g>
</g>
<!-- Node2&#45;&gt;Node47 -->
<g id="edge56" class="edge">
<title>Node2&#45;&gt;Node47</title>
<path fill="none" stroke="midnightblue" d="M5751.05,-204C5745.31,-195.56 5739.28,-185.67 5735,-176 5723.33,-149.6 5716.43,-116.35 5713.22,-97.77"/>
<polygon fill="midnightblue" stroke="midnightblue" points="5748.21,-206.05 5756.84,-212.2 5753.93,-202.01 5748.21,-206.05"/>
</g>
<!-- Node49 -->
<g id="node35" class="node">
<title>Node49</title>
<g id="a_node35"><a xlink:href="../../d8/dba/vpiecenode_8cpp.html" target="_top" xlink:title=" ">
<polygon fill="white" stroke="black" points="4259.5,-0.5 4259.5,-30.5 4366.5,-30.5 4366.5,-0.5 4259.5,-0.5"/>
<text text-anchor="start" x="4267.5" y="-18.5" font-family="Helvetica,sans-Serif" font-size="10.00">src/libs/vpatterndb</text>
<text text-anchor="middle" x="4313" y="-7.5" font-family="Helvetica,sans-Serif" font-size="10.00">/vpiecenode.cpp</text>
</a>
</g>
</g>
<!-- Node2&#45;&gt;Node49 -->
<g id="edge57" class="edge">
<title>Node2&#45;&gt;Node49</title>
<path fill="none" stroke="midnightblue" d="M5770.62,-202.33C5774.93,-160.11 5782.16,-76.49 5773,-67 5723.25,-15.5 4624.69,-15.56 4366.83,-16.29"/>
<polygon fill="midnightblue" stroke="midnightblue" points="5767.13,-202.03 5769.57,-212.34 5774.09,-202.76 5767.13,-202.03"/>
</g>
<!-- Node63 -->
<g id="node45" class="node">
<title>Node63</title>
<g id="a_node45"><a xlink:href="../../d3/d02/custom__variable__p_8h.html" target="_top" xlink:title=" ">
<polygon fill="white" stroke="red" points="6012.5,-140 6012.5,-170 6181.5,-170 6181.5,-140 6012.5,-140"/>
<text text-anchor="start" x="6020.5" y="-158" font-family="Helvetica,sans-Serif" font-size="10.00">src/libs/vpatterndb</text>
<text text-anchor="middle" x="6097" y="-147" font-family="Helvetica,sans-Serif" font-size="10.00">/variables/custom_variable_p.h</text>
</a>
</g>
</g>
<!-- Node2&#45;&gt;Node63 -->
<g id="edge51" class="edge">
<title>Node2&#45;&gt;Node63</title>
<path fill="none" stroke="midnightblue" d="M5831.74,-212.88C5879.23,-202.73 5945.67,-188.51 6004,-176 6012.96,-174.08 6022.41,-172.05 6031.71,-170.05"/>
<polygon fill="midnightblue" stroke="midnightblue" points="5830.95,-209.47 5821.9,-214.98 5832.41,-216.32 5830.95,-209.47"/>
</g>
<!-- Node65 -->
<g id="node46" class="node">
<title>Node65</title>
<g id="a_node46"><a xlink:href="../../d7/d8a/measurement__variable__p_8h.html" target="_top" xlink:title=" ">
<polygon fill="white" stroke="red" points="6200,-134.5 6200,-175.5 6336,-175.5 6336,-134.5 6200,-134.5"/>
<text text-anchor="start" x="6208" y="-163.5" font-family="Helvetica,sans-Serif" font-size="10.00">src/libs/vpatterndb</text>
<text text-anchor="start" x="6208" y="-152.5" font-family="Helvetica,sans-Serif" font-size="10.00">/variables/measurement</text>
<text text-anchor="middle" x="6268" y="-141.5" font-family="Helvetica,sans-Serif" font-size="10.00">_variable_p.h</text>
</a>
</g>
</g>
<!-- Node2&#45;&gt;Node65 -->
<g id="edge52" class="edge">
<title>Node2&#45;&gt;Node65</title>
<path fill="none" stroke="midnightblue" d="M5831.83,-221.59C5915,-214.57 6064.72,-199.82 6191,-176 6193.85,-175.46 6196.75,-174.88 6199.67,-174.26"/>
<polygon fill="midnightblue" stroke="midnightblue" points="5831.45,-218.11 5821.77,-222.43 5832.03,-225.08 5831.45,-218.11"/>
</g>
<!-- Node67 -->
<g id="node47" class="node">
<title>Node67</title>
<g id="a_node47"><a xlink:href="../../d6/d91/vnodedetail_8cpp.html" target="_top" xlink:title=" ">
<polygon fill="white" stroke="black" points="6354.5,-140 6354.5,-170 6461.5,-170 6461.5,-140 6354.5,-140"/>
<text text-anchor="start" x="6362.5" y="-158" font-family="Helvetica,sans-Serif" font-size="10.00">src/libs/vpatterndb</text>
<text text-anchor="middle" x="6408" y="-147" font-family="Helvetica,sans-Serif" font-size="10.00">/vnodedetail.cpp</text>
</a>
</g>
</g>
<!-- Node2&#45;&gt;Node67 -->
<g id="edge55" class="edge">
<title>Node2&#45;&gt;Node67</title>
<path fill="none" stroke="midnightblue" d="M5831.86,-225.48C5938.95,-222.77 6161.12,-212.77 6345,-176 6352.65,-174.47 6360.68,-172.34 6368.35,-170.04"/>
<polygon fill="midnightblue" stroke="midnightblue" points="5831.77,-221.99 5821.86,-225.73 5831.94,-228.98 5831.77,-221.99"/>
</g>
<!-- Node68 -->
<g id="node48" class="node">
<title>Node68</title>
<g id="a_node48"><a xlink:href="../../da/de1/vpiecepath_8cpp.html" target="_top" xlink:title=" ">
<polygon fill="white" stroke="black" points="6479.5,-140 6479.5,-170 6586.5,-170 6586.5,-140 6479.5,-140"/>
<text text-anchor="start" x="6487.5" y="-158" font-family="Helvetica,sans-Serif" font-size="10.00">src/libs/vpatterndb</text>
<text text-anchor="middle" x="6533" y="-147" font-family="Helvetica,sans-Serif" font-size="10.00">/vpiecepath.cpp</text>
</a>
</g>
</g>
<!-- Node2&#45;&gt;Node68 -->
<g id="edge58" class="edge">
<title>Node2&#45;&gt;Node68</title>
<path fill="none" stroke="midnightblue" d="M5832.04,-227.01C5956.41,-226.89 6238.79,-221.11 6471,-176 6478.66,-174.51 6486.7,-172.37 6494.35,-170.04"/>
<polygon fill="midnightblue" stroke="midnightblue" points="5831.93,-223.51 5821.93,-227.01 5831.93,-230.51 5831.93,-223.51"/>
</g>
<!-- Node69 -->
<g id="node49" class="node">
<title>Node69</title>
<g id="a_node49"><a xlink:href="../../d1/d3a/abstracttest_8cpp.html" target="_top" xlink:title=" ">
<polygon fill="white" stroke="black" points="6604.5,-145.5 6604.5,-164.5 6765.5,-164.5 6765.5,-145.5 6604.5,-145.5"/>
<text text-anchor="middle" x="6685" y="-152.5" font-family="Helvetica,sans-Serif" font-size="10.00">src/libs/vtest/abstracttest.cpp</text>
</a>
</g>
</g>
<!-- Node2&#45;&gt;Node69 -->
<g id="edge59" class="edge">
<title>Node2&#45;&gt;Node69</title>
<path fill="none" stroke="midnightblue" d="M5831.65,-226.08C5970.93,-224.41 6312.92,-216.18 6596,-176 6614.97,-173.31 6635.89,-168.69 6652.68,-164.57"/>
<polygon fill="midnightblue" stroke="midnightblue" points="5831.54,-222.58 5821.58,-226.2 5831.61,-229.58 5831.54,-222.58"/>
</g>
<!-- Node70 -->
<g id="node50" class="node">
<title>Node70</title>
<g id="a_node50"><a xlink:href="../../da/db4/piece__tablewidgetitem_8cpp.html" target="_top" xlink:title=" ">
<polygon fill="white" stroke="black" points="6784,-140 6784,-170 6912,-170 6912,-140 6784,-140"/>
<text text-anchor="start" x="6792" y="-158" font-family="Helvetica,sans-Serif" font-size="10.00">src/libs/vwidgets/piece</text>
<text text-anchor="middle" x="6848" y="-147" font-family="Helvetica,sans-Serif" font-size="10.00">_tablewidgetitem.cpp</text>
</a>
</g>
</g>
<!-- Node2&#45;&gt;Node70 -->
<g id="edge60" class="edge">
<title>Node2&#45;&gt;Node70</title>
<path fill="none" stroke="midnightblue" d="M5831.85,-225.11C6023.54,-220.66 6592.12,-205.28 6775,-176 6784.08,-174.55 6793.66,-172.39 6802.77,-170.03"/>
<polygon fill="midnightblue" stroke="midnightblue" points="5831.57,-221.62 5821.65,-225.35 5831.73,-228.62 5831.57,-221.62"/>
</g>
<!-- Node4&#45;&gt;Node5 -->
<g id="edge4" class="edge">
<title>Node4&#45;&gt;Node5</title>
<path fill="none" stroke="midnightblue" d="M5907.91,-135.36C5910.09,-121.4 5912.97,-102.93 5914.64,-92.22"/>
<polygon fill="midnightblue" stroke="midnightblue" points="5904.43,-134.94 5906.35,-145.36 5911.35,-136.01 5904.43,-134.94"/>
</g>
<!-- Node7 -->
<g id="node7" class="node">
<title>Node7</title>
<g id="a_node7"><a xlink:href="../../dd/d66/vdxfengine_8cpp.html" target="_top" xlink:title=" ">
<polygon fill="white" stroke="black" points="0,-73 0,-92 154,-92 154,-73 0,-73"/>
<text text-anchor="middle" x="77" y="-80" font-family="Helvetica,sans-Serif" font-size="10.00">src/libs/vdxf/vdxfengine.cpp</text>
</a>
</g>
</g>
<!-- Node6&#45;&gt;Node7 -->
<g id="edge7" class="edge">
<title>Node6&#45;&gt;Node7</title>
<path fill="none" stroke="midnightblue" d="M543.18,-144.37C447.68,-134.15 294.69,-116.89 163,-98 150.71,-96.24 137.47,-94.12 125.15,-92.05"/>
<polygon fill="midnightblue" stroke="midnightblue" points="543.07,-147.88 553.38,-145.46 543.81,-140.92 543.07,-147.88"/>
</g>
<!-- Node8 -->
<g id="node8" class="node">
<title>Node8</title>
<g id="a_node8"><a xlink:href="../../de/da8/vbank_8cpp.html" target="_top" xlink:title=" ">
<polygon fill="white" stroke="black" points="172,-73 172,-92 316,-92 316,-73 172,-73"/>
<text text-anchor="middle" x="244" y="-80" font-family="Helvetica,sans-Serif" font-size="10.00">src/libs/vlayout/vbank.cpp</text>
</a>
</g>
</g>
<!-- Node6&#45;&gt;Node8 -->
<g id="edge8" class="edge">
<title>Node6&#45;&gt;Node8</title>
<path fill="none" stroke="midnightblue" d="M578.62,-143.68C500.92,-129.71 363.66,-105.02 291.45,-92.03"/>
<polygon fill="midnightblue" stroke="midnightblue" points="578.25,-147.17 588.72,-145.5 579.49,-140.28 578.25,-147.17"/>
</g>
<!-- Node9 -->
<g id="node9" class="node">
<title>Node9</title>
<g id="a_node9"><a xlink:href="../../df/d5d/vcontour_8cpp.html" target="_top" xlink:title=" ">
<polygon fill="white" stroke="black" points="334,-73 334,-92 490,-92 490,-73 334,-73"/>
<text text-anchor="middle" x="412" y="-80" font-family="Helvetica,sans-Serif" font-size="10.00">src/libs/vlayout/vcontour.cpp</text>
</a>
</g>
</g>
<!-- Node6&#45;&gt;Node9 -->
<g id="edge9" class="edge">
<title>Node6&#45;&gt;Node9</title>
<path fill="none" stroke="midnightblue" d="M599.32,-142.46C554.36,-128.3 479.2,-104.65 439.12,-92.03"/>
<polygon fill="midnightblue" stroke="midnightblue" points="598.39,-145.83 608.98,-145.5 600.49,-139.16 598.39,-145.83"/>
</g>
<!-- Node10 -->
<g id="node10" class="node">
<title>Node10</title>
<g id="a_node10"><a xlink:href="../../d2/d2d/vlayoutpaper__p_8h.html" target="_top" xlink:title=" ">
<polygon fill="white" stroke="black" points="546.5,-73 546.5,-92 725.5,-92 725.5,-73 546.5,-73"/>
<text text-anchor="middle" x="636" y="-80" font-family="Helvetica,sans-Serif" font-size="10.00">src/libs/vlayout/vlayoutpaper_p.h</text>
</a>
</g>
</g>
<!-- Node6&#45;&gt;Node10 -->
<g id="edge10" class="edge">
<title>Node6&#45;&gt;Node10</title>
<path fill="none" stroke="midnightblue" d="M636,-134.94C636,-121.03 636,-102.82 636,-92.22"/>
<polygon fill="midnightblue" stroke="midnightblue" points="632.5,-135.36 636,-145.36 639.5,-135.36 632.5,-135.36"/>
</g>
<!-- Node11 -->
<g id="node11" class="node">
<title>Node11</title>
<g id="a_node11"><a xlink:href="../../d1/dd1/vlayoutpaper_8cpp.html" target="_top" xlink:title=" ">
<polygon fill="white" stroke="black" points="547,-6 547,-25 725,-25 725,-6 547,-6"/>
<text text-anchor="middle" x="636" y="-13" font-family="Helvetica,sans-Serif" font-size="10.00">src/libs/vlayout/vlayoutpaper.cpp</text>
</a>
</g>
</g>
<!-- Node6&#45;&gt;Node11 -->
<g id="edge12" class="edge">
<title>Node6&#45;&gt;Node11</title>
<path fill="none" stroke="midnightblue" d="M594.91,-141.92C573.61,-133.34 549.51,-119.45 537,-98 530.06,-86.1 529.8,-78.75 537,-67 550.4,-45.12 576.6,-32.34 598.68,-25.12"/>
<polygon fill="midnightblue" stroke="midnightblue" points="593.85,-145.26 604.44,-145.5 596.31,-138.71 593.85,-145.26"/>
</g>
<!-- Node12 -->
<g id="node12" class="node">
<title>Node12</title>
<g id="a_node12"><a xlink:href="../../d3/d39/vlayoutgenerator_8cpp.html" target="_top" xlink:title=" ">
<polygon fill="white" stroke="black" points="910.5,-73 910.5,-92 1107.5,-92 1107.5,-73 910.5,-73"/>
<text text-anchor="middle" x="1009" y="-80" font-family="Helvetica,sans-Serif" font-size="10.00">src/libs/vlayout/vlayoutgenerator.cpp</text>
</a>
</g>
</g>
<!-- Node6&#45;&gt;Node12 -->
<g id="edge13" class="edge">
<title>Node6&#45;&gt;Node12</title>
<path fill="none" stroke="midnightblue" d="M691.05,-143.59C765.07,-129.6 895.28,-104.99 963.85,-92.03"/>
<polygon fill="midnightblue" stroke="midnightblue" points="690.17,-140.2 680.99,-145.5 691.47,-147.08 690.17,-140.2"/>
</g>
<!-- Node13 -->
<g id="node13" class="node">
<title>Node13</title>
<g id="a_node13"><a xlink:href="../../db/d5c/vposition_8h.html" target="_top" xlink:title=" ">
<polygon fill="white" stroke="red" points="744,-73 744,-92 892,-92 892,-73 744,-73"/>
<text text-anchor="middle" x="818" y="-80" font-family="Helvetica,sans-Serif" font-size="10.00">src/libs/vlayout/vposition.h</text>
</a>
</g>
</g>
<!-- Node6&#45;&gt;Node13 -->
<g id="edge14" class="edge">
<title>Node6&#45;&gt;Node13</title>
<path fill="none" stroke="midnightblue" d="M667.66,-141.74C704.38,-127.51 763.95,-104.44 795.97,-92.03"/>
<polygon fill="midnightblue" stroke="midnightblue" points="666.01,-138.62 657.95,-145.5 668.54,-145.15 666.01,-138.62"/>
</g>
<!-- Node15 -->
<g id="node14" class="node">
<title>Node15</title>
<g id="a_node14"><a xlink:href="../../dd/d70/vlayoutpiece_8cpp.html" target="_top" xlink:title=" ">
<polygon fill="white" stroke="black" points="1125.5,-73 1125.5,-92 1302.5,-92 1302.5,-73 1125.5,-73"/>
<text text-anchor="middle" x="1214" y="-80" font-family="Helvetica,sans-Serif" font-size="10.00">src/libs/vlayout/vlayoutpiece.cpp</text>
</a>
</g>
</g>
<!-- Node6&#45;&gt;Node15 -->
<g id="edge16" class="edge">
<title>Node6&#45;&gt;Node15</title>
<path fill="none" stroke="midnightblue" d="M725.51,-144.39C822,-133.83 980.04,-115.98 1116,-98 1129.81,-96.17 1144.69,-94.05 1158.59,-92"/>
<polygon fill="midnightblue" stroke="midnightblue" points="725.07,-140.92 715.51,-145.48 725.83,-147.88 725.07,-140.92"/>
</g>
<!-- Node10&#45;&gt;Node11 -->
<g id="edge11" class="edge">
<title>Node10&#45;&gt;Node11</title>
<path fill="none" stroke="midnightblue" d="M636,-62.54C636,-50.17 636,-34.62 636,-25.13"/>
<polygon fill="midnightblue" stroke="midnightblue" points="632.5,-62.73 636,-72.73 639.5,-62.73 632.5,-62.73"/>
</g>
<!-- Node13&#45;&gt;Node11 -->
<g id="edge15" class="edge">
<title>Node13&#45;&gt;Node11</title>
<path fill="none" stroke="midnightblue" d="M784.22,-69.44C748.12,-56.54 691.79,-36.42 659.98,-25.06"/>
<polygon fill="midnightblue" stroke="midnightblue" points="783.24,-72.8 793.83,-72.87 785.59,-66.21 783.24,-72.8"/>
</g>
<!-- Node17&#45;&gt;Node3 -->
<g id="edge21" class="edge">
<title>Node17&#45;&gt;Node3</title>
<path fill="none" stroke="midnightblue" d="M3295.17,-153.63C2939.3,-152 1804.19,-143.27 1441,-98 1438.13,-97.64 1435.2,-97.22 1432.26,-96.74"/>
<polygon fill="midnightblue" stroke="midnightblue" points="3295.2,-157.13 3305.22,-153.68 3295.23,-150.13 3295.2,-157.13"/>
</g>
<!-- Node17&#45;&gt;Node15 -->
<g id="edge32" class="edge">
<title>Node17&#45;&gt;Node15</title>
<path fill="none" stroke="midnightblue" d="M3295.21,-152.85C2924.32,-148.62 1702.18,-132.35 1311,-98 1295.39,-96.63 1278.48,-94.37 1263.21,-92.04"/>
<polygon fill="midnightblue" stroke="midnightblue" points="3295.36,-156.35 3305.4,-152.96 3295.44,-149.35 3295.36,-156.35"/>
</g>
<!-- Node17&#45;&gt;Node16 -->
<g id="edge31" class="edge">
<title>Node17&#45;&gt;Node16</title>
<path fill="none" stroke="midnightblue" d="M3294.96,-150.12C3179.03,-145.98 2989.49,-139.32 2826,-134 2299.37,-116.87 2165.91,-143.88 1641,-98 1625.01,-96.6 1607.67,-94.35 1592,-92.04"/>
<polygon fill="midnightblue" stroke="midnightblue" points="3295.13,-153.63 3305.25,-150.48 3295.38,-146.63 3295.13,-153.63"/>
</g>
<!-- Node18 -->
<g id="node17" class="node">
<title>Node18</title>
<g id="a_node17"><a xlink:href="../../d4/d90/fvupdater_8cpp.html" target="_top" xlink:title=" ">
<polygon fill="white" stroke="black" points="4577.5,-73 4577.5,-92 4730.5,-92 4730.5,-73 4577.5,-73"/>
<text text-anchor="middle" x="4654" y="-80" font-family="Helvetica,sans-Serif" font-size="10.00">src/libs/fervor/fvupdater.cpp</text>
</a>
</g>
</g>
<!-- Node17&#45;&gt;Node18 -->
<g id="edge19" class="edge">
<title>Node17&#45;&gt;Node18</title>
<path fill="none" stroke="midnightblue" d="M3510.94,-153.09C3717.01,-150.42 4180.46,-139.83 4568,-98 4581.55,-96.54 4596.2,-94.31 4609.5,-92.04"/>
<polygon fill="midnightblue" stroke="midnightblue" points="3510.68,-149.6 3500.73,-153.22 3510.77,-156.6 3510.68,-149.6"/>
</g>
<!-- Node19 -->
<g id="node18" class="node">
<title>Node19</title>
<g id="a_node18"><a xlink:href="../../d1/d8d/image__item_8h.html" target="_top" xlink:title=" ">
<polygon fill="white" stroke="red" points="4749,-67.5 4749,-97.5 4861,-97.5 4861,-67.5 4749,-67.5"/>
<text text-anchor="start" x="4757" y="-85.5" font-family="Helvetica,sans-Serif" font-size="10.00">src/libs/tools/image</text>
<text text-anchor="middle" x="4805" y="-74.5" font-family="Helvetica,sans-Serif" font-size="10.00">_item.h</text>
</a>
</g>
</g>
<!-- Node17&#45;&gt;Node19 -->
<g id="edge20" class="edge">
<title>Node17&#45;&gt;Node19</title>
<path fill="none" stroke="midnightblue" d="M3510.91,-151.91C3784.9,-146.2 4502.47,-128.7 4739,-98 4742.26,-97.58 4745.59,-97.07 4748.95,-96.51"/>
<polygon fill="midnightblue" stroke="midnightblue" points="3510.49,-148.41 3500.56,-152.12 3510.63,-155.41 3510.49,-148.41"/>
</g>
<!-- Node29 -->
<g id="node19" class="node">
<title>Node29</title>
<g id="a_node19"><a xlink:href="../../d9/dc8/dxiface_8cpp.html" target="_top" xlink:title=" ">
<polygon fill="white" stroke="black" points="4879.5,-73 4879.5,-92 5014.5,-92 5014.5,-73 4879.5,-73"/>
<text text-anchor="middle" x="4947" y="-80" font-family="Helvetica,sans-Serif" font-size="10.00">src/libs/vdxf/dxiface.cpp</text>
</a>
</g>
</g>
<!-- Node17&#45;&gt;Node29 -->
<g id="edge22" class="edge">
<title>Node17&#45;&gt;Node29</title>
<path fill="none" stroke="midnightblue" d="M3510.72,-151.96C3803,-146.09 4606.63,-127.66 4870,-98 4882.44,-96.6 4895.88,-94.33 4908,-92"/>
<polygon fill="midnightblue" stroke="midnightblue" points="3510.47,-148.46 3500.54,-152.16 3510.61,-155.46 3510.47,-148.46"/>
</g>
<!-- Node30 -->
<g id="node20" class="node">
<title>Node30</title>
<g id="a_node20"><a xlink:href="../../da/d75/vabstractarc__p_8h.html" target="_top" xlink:title=" ">
<polygon fill="white" stroke="red" points="5032.5,-67.5 5032.5,-97.5 5139.5,-97.5 5139.5,-67.5 5032.5,-67.5"/>
<text text-anchor="start" x="5040.5" y="-85.5" font-family="Helvetica,sans-Serif" font-size="10.00">src/libs/vgeometry</text>
<text text-anchor="middle" x="5086" y="-74.5" font-family="Helvetica,sans-Serif" font-size="10.00">/vabstractarc_p.h</text>
</a>
</g>
</g>
<!-- Node17&#45;&gt;Node30 -->
<g id="edge23" class="edge">
<title>Node17&#45;&gt;Node30</title>
<path fill="none" stroke="midnightblue" d="M3511.12,-152.96C3824.49,-149.53 4729.52,-136.48 5023,-98 5026,-97.61 5029.08,-97.13 5032.17,-96.6"/>
<polygon fill="midnightblue" stroke="midnightblue" points="3510.64,-149.47 3500.68,-153.08 3510.71,-156.47 3510.64,-149.47"/>
</g>
<!-- Node32 -->
<g id="node21" class="node">
<title>Node32</title>
<g id="a_node21"><a xlink:href="../../dc/da3/varc__p_8h.html" target="_top" xlink:title=" ">
<polygon fill="white" stroke="red" points="5157.5,-67.5 5157.5,-97.5 5264.5,-97.5 5264.5,-67.5 5157.5,-67.5"/>
<text text-anchor="start" x="5165.5" y="-85.5" font-family="Helvetica,sans-Serif" font-size="10.00">src/libs/vgeometry</text>
<text text-anchor="middle" x="5211" y="-74.5" font-family="Helvetica,sans-Serif" font-size="10.00">/varc_p.h</text>
</a>
</g>
</g>
<!-- Node17&#45;&gt;Node32 -->
<g id="edge24" class="edge">
<title>Node17&#45;&gt;Node32</title>
<path fill="none" stroke="midnightblue" d="M3510.58,-153.28C3839.55,-150.65 4829.02,-139.43 5148,-98 5151.01,-97.61 5154.08,-97.14 5157.17,-96.61"/>
<polygon fill="midnightblue" stroke="midnightblue" points="3510.54,-149.78 3500.57,-153.36 3510.6,-156.78 3510.54,-149.78"/>
</g>
<!-- Node34 -->
<g id="node22" class="node">
<title>Node34</title>
<g id="a_node22"><a xlink:href="../../d5/d8e/vcubicbezier__p_8h.html" target="_top" xlink:title=" ">
<polygon fill="white" stroke="red" points="5282.5,-67.5 5282.5,-97.5 5389.5,-97.5 5389.5,-67.5 5282.5,-67.5"/>
<text text-anchor="start" x="5290.5" y="-85.5" font-family="Helvetica,sans-Serif" font-size="10.00">src/libs/vgeometry</text>
<text text-anchor="middle" x="5336" y="-74.5" font-family="Helvetica,sans-Serif" font-size="10.00">/vcubicbezier_p.h</text>
</a>
</g>
</g>
<!-- Node17&#45;&gt;Node34 -->
<g id="edge25" class="edge">
<title>Node17&#45;&gt;Node34</title>
<path fill="none" stroke="midnightblue" d="M3510.73,-153.55C3855.41,-151.68 4928.67,-142.34 5273,-98 5276.01,-97.61 5279.08,-97.15 5282.17,-96.62"/>
<polygon fill="midnightblue" stroke="midnightblue" points="3510.48,-150.05 3500.5,-153.61 3510.52,-157.05 3510.48,-150.05"/>
</g>
<!-- Node36 -->
<g id="node23" class="node">
<title>Node36</title>
<g id="a_node23"><a xlink:href="../../df/dde/vellipticalarc__p_8h.html" target="_top" xlink:title=" ">
<polygon fill="white" stroke="black" points="1650.5,-67.5 1650.5,-97.5 1757.5,-97.5 1757.5,-67.5 1650.5,-67.5"/>
<text text-anchor="start" x="1658.5" y="-85.5" font-family="Helvetica,sans-Serif" font-size="10.00">src/libs/vgeometry</text>
<text text-anchor="middle" x="1704" y="-74.5" font-family="Helvetica,sans-Serif" font-size="10.00">/vellipticalarc_p.h</text>
</a>
</g>
</g>
<!-- Node17&#45;&gt;Node36 -->
<g id="edge26" class="edge">
<title>Node17&#45;&gt;Node36</title>
<path fill="none" stroke="midnightblue" d="M3294.95,-150.24C3179.02,-146.21 2989.48,-139.63 2826,-134 2357.56,-117.88 2237.23,-155.1 1772,-98 1767.33,-97.43 1762.5,-96.69 1757.67,-95.86"/>
<polygon fill="midnightblue" stroke="midnightblue" points="3295.13,-153.75 3305.25,-150.6 3295.37,-146.75 3295.13,-153.75"/>
</g>
<!-- Node37 -->
<g id="node24" class="node">
<title>Node37</title>
<g id="a_node24"><a xlink:href="../../d6/dfb/vellipticalarc_8cpp.html" target="_top" xlink:title=" ">
<polygon fill="white" stroke="black" points="1691.5,-0.5 1691.5,-30.5 1798.5,-30.5 1798.5,-0.5 1691.5,-0.5"/>
<text text-anchor="start" x="1699.5" y="-18.5" font-family="Helvetica,sans-Serif" font-size="10.00">src/libs/vgeometry</text>
<text text-anchor="middle" x="1745" y="-7.5" font-family="Helvetica,sans-Serif" font-size="10.00">/vellipticalarc.cpp</text>
</a>
</g>
</g>
<!-- Node17&#45;&gt;Node37 -->
<g id="edge28" class="edge">
<title>Node17&#45;&gt;Node37</title>
<path fill="none" stroke="midnightblue" d="M3295.08,-150.26C2936.31,-137.81 1806.03,-98.55 1805,-98 1777.34,-83.4 1759.14,-49.7 1750.61,-30.52"/>
<polygon fill="midnightblue" stroke="midnightblue" points="3295.1,-153.76 3305.22,-150.61 3295.34,-146.76 3295.1,-153.76"/>
</g>
<!-- Node38 -->
<g id="node25" class="node">
<title>Node38</title>
<g id="a_node25"><a xlink:href="../../d1/d76/vspline__p_8h.html" target="_top" xlink:title=" ">
<polygon fill="white" stroke="red" points="1814.5,-67.5 1814.5,-97.5 1921.5,-97.5 1921.5,-67.5 1814.5,-67.5"/>
<text text-anchor="start" x="1822.5" y="-85.5" font-family="Helvetica,sans-Serif" font-size="10.00">src/libs/vgeometry</text>
<text text-anchor="middle" x="1868" y="-74.5" font-family="Helvetica,sans-Serif" font-size="10.00">/vspline_p.h</text>
</a>
</g>
</g>
<!-- Node17&#45;&gt;Node38 -->
<g id="edge29" class="edge">
<title>Node17&#45;&gt;Node38</title>
<path fill="none" stroke="midnightblue" d="M3295.13,-150.17C2961.19,-138.27 1964.75,-102.48 1931,-98 1928,-97.6 1924.93,-97.12 1921.83,-96.59"/>
<polygon fill="midnightblue" stroke="midnightblue" points="3295.17,-153.67 3305.29,-150.53 3295.42,-146.68 3295.17,-153.67"/>
</g>
<!-- Node40 -->
<g id="node26" class="node">
<title>Node40</title>
<g id="a_node26"><a xlink:href="../../d9/d15/vabstractpiece_8cpp.html" target="_top" xlink:title=" ">
<polygon fill="white" stroke="black" points="1940,-73 1940,-92 2126,-92 2126,-73 1940,-73"/>
<text text-anchor="middle" x="2033" y="-80" font-family="Helvetica,sans-Serif" font-size="10.00">src/libs/vlayout/vabstractpiece.cpp</text>
</a>
</g>
</g>
<!-- Node17&#45;&gt;Node40 -->
<g id="edge30" class="edge">
<title>Node17&#45;&gt;Node40</title>
<path fill="none" stroke="midnightblue" d="M3295.1,-150.58C3031.27,-142.02 2358.82,-118.8 2135,-98 2118.97,-96.51 2101.61,-94.28 2085.82,-92"/>
<polygon fill="midnightblue" stroke="midnightblue" points="3295.34,-154.09 3305.45,-150.92 3295.57,-147.1 3295.34,-154.09"/>
</g>
<!-- Node41 -->
<g id="node27" class="node">
<title>Node41</title>
<g id="a_node27"><a xlink:href="../../d6/d0b/def_8cpp.html" target="_top" xlink:title=" ">
<polygon fill="white" stroke="black" points="2144,-73 2144,-92 2266,-92 2266,-73 2144,-73"/>
<text text-anchor="middle" x="2205" y="-80" font-family="Helvetica,sans-Serif" font-size="10.00">src/libs/vmisc/def.cpp</text>
</a>
</g>
</g>
<!-- Node17&#45;&gt;Node41 -->
<g id="edge33" class="edge">
<title>Node17&#45;&gt;Node41</title>
<path fill="none" stroke="midnightblue" d="M3294.86,-150.77C3052.15,-143.16 2470.1,-122.9 2275,-98 2263.8,-96.57 2251.71,-94.32 2240.79,-92.02"/>
<polygon fill="midnightblue" stroke="midnightblue" points="3295,-154.27 3305.11,-151.09 3295.22,-147.28 3295,-154.27"/>
</g>
<!-- Node42 -->
<g id="node28" class="node">
<title>Node42</title>
<g id="a_node28"><a xlink:href="../../db/d65/dialogexporttocsv_8cpp.html" target="_top" xlink:title=" ">
<polygon fill="white" stroke="black" points="2284.5,-67.5 2284.5,-97.5 2411.5,-97.5 2411.5,-67.5 2284.5,-67.5"/>
<text text-anchor="start" x="2292.5" y="-85.5" font-family="Helvetica,sans-Serif" font-size="10.00">src/libs/vmisc/dialogs</text>
<text text-anchor="middle" x="2348" y="-74.5" font-family="Helvetica,sans-Serif" font-size="10.00">/dialogexporttocsv.cpp</text>
</a>
</g>
</g>
<!-- Node17&#45;&gt;Node42 -->
<g id="edge34" class="edge">
<title>Node17&#45;&gt;Node42</title>
<path fill="none" stroke="midnightblue" d="M3295.1,-149.75C3076.35,-140.81 2587.33,-119.16 2421,-98 2417.92,-97.61 2414.78,-97.16 2411.62,-96.68"/>
<polygon fill="midnightblue" stroke="midnightblue" points="3295.17,-153.25 3305.31,-150.16 3295.46,-146.26 3295.17,-153.25"/>
</g>
<!-- Node43 -->
<g id="node29" class="node">
<title>Node43</title>
<g id="a_node29"><a xlink:href="../../d0/df6/vabstractapplication_8cpp.html" target="_top" xlink:title=" ">
<polygon fill="white" stroke="black" points="2430,-73 2430,-92 2636,-92 2636,-73 2430,-73"/>
<text text-anchor="middle" x="2533" y="-80" font-family="Helvetica,sans-Serif" font-size="10.00">src/libs/vmisc/vabstractapplication.cpp</text>
</a>
</g>
</g>
<!-- Node17&#45;&gt;Node43 -->
<g id="edge35" class="edge">
<title>Node17&#45;&gt;Node43</title>
<path fill="none" stroke="midnightblue" d="M3294.95,-147.89C3147.76,-139.14 2876.09,-121.48 2645,-98 2628.42,-96.32 2610.5,-94.15 2593.96,-92.01"/>
<polygon fill="midnightblue" stroke="midnightblue" points="3295.14,-151.41 3305.33,-148.51 3295.55,-144.42 3295.14,-151.41"/>
</g>
<!-- Node44 -->
<g id="node30" class="node">
<title>Node44</title>
<g id="a_node30"><a xlink:href="../../d4/d4f/pmsystems_8cpp.html" target="_top" xlink:title=" ">
<polygon fill="white" stroke="black" points="2654.5,-67.5 2654.5,-97.5 2761.5,-97.5 2761.5,-67.5 2654.5,-67.5"/>
<text text-anchor="start" x="2662.5" y="-85.5" font-family="Helvetica,sans-Serif" font-size="10.00">src/libs/vpatterndb</text>
<text text-anchor="middle" x="2708" y="-74.5" font-family="Helvetica,sans-Serif" font-size="10.00">/pmsystems.cpp</text>
</a>
</g>
</g>
<!-- Node17&#45;&gt;Node44 -->
<g id="edge36" class="edge">
<title>Node17&#45;&gt;Node44</title>
<path fill="none" stroke="midnightblue" d="M3295.35,-149.12C3168.93,-142.33 2953.22,-127.38 2770,-98 2767.27,-97.56 2764.48,-97.07 2761.68,-96.54"/>
<polygon fill="midnightblue" stroke="midnightblue" points="3295.25,-152.62 3305.42,-149.66 3295.62,-145.63 3295.25,-152.62"/>
</g>
<!-- Node17&#45;&gt;Node45 -->
<g id="edge37" class="edge">
<title>Node17&#45;&gt;Node45</title>
<path fill="none" stroke="midnightblue" d="M3510.78,-153.79C3870.55,-152.64 5028.22,-145.27 5398,-98 5401.01,-97.62 5404.08,-97.15 5407.17,-96.63"/>
<polygon fill="midnightblue" stroke="midnightblue" points="3510.62,-150.29 3500.63,-153.82 3510.64,-157.29 3510.62,-150.29"/>
</g>
<!-- Node17&#45;&gt;Node46 -->
<g id="edge38" class="edge">
<title>Node17&#45;&gt;Node46</title>
<path fill="none" stroke="midnightblue" d="M3510.79,-154C3885.14,-153.54 5127.68,-148.2 5523,-98 5526.01,-97.62 5529.08,-97.16 5532.17,-96.63"/>
<polygon fill="midnightblue" stroke="midnightblue" points="3510.76,-150.5 3500.77,-154.01 3510.77,-157.5 3510.76,-150.5"/>
</g>
<!-- Node17&#45;&gt;Node47 -->
<g id="edge39" class="edge">
<title>Node17&#45;&gt;Node47</title>
<path fill="none" stroke="midnightblue" d="M3510.8,-154.18C3899.33,-154.4 5227.09,-151.14 5648,-98 5651.01,-97.62 5654.08,-97.16 5657.17,-96.64"/>
<polygon fill="midnightblue" stroke="midnightblue" points="3510.69,-150.68 3500.69,-154.18 3510.69,-157.68 3510.69,-150.68"/>
</g>
<!-- Node48 -->
<g id="node34" class="node">
<title>Node48</title>
<g id="a_node34"><a xlink:href="../../df/dba/vpiecenode__p_8h.html" target="_top" xlink:title=" ">
<polygon fill="white" stroke="black" points="2779.5,-67.5 2779.5,-97.5 2886.5,-97.5 2886.5,-67.5 2779.5,-67.5"/>
<text text-anchor="start" x="2787.5" y="-85.5" font-family="Helvetica,sans-Serif" font-size="10.00">src/libs/vpatterndb</text>
<text text-anchor="middle" x="2833" y="-74.5" font-family="Helvetica,sans-Serif" font-size="10.00">/vpiecenode_p.h</text>
</a>
</g>
</g>
<!-- Node17&#45;&gt;Node48 -->
<g id="edge40" class="edge">
<title>Node17&#45;&gt;Node48</title>
<path fill="none" stroke="midnightblue" d="M3295.24,-145.75C3192.26,-137.01 3032.88,-121.23 2896,-98 2892.9,-97.47 2889.73,-96.89 2886.53,-96.27"/>
<polygon fill="midnightblue" stroke="midnightblue" points="3295.08,-149.25 3305.34,-146.6 3295.67,-142.28 3295.08,-149.25"/>
</g>
<!-- Node50 -->
<g id="node36" class="node">
<title>Node50</title>
<g id="a_node36"><a xlink:href="../../de/d3e/vtranslatevars_8cpp.html" target="_top" xlink:title=" ">
<polygon fill="white" stroke="black" points="2905,-67.5 2905,-97.5 3015,-97.5 3015,-67.5 2905,-67.5"/>
<text text-anchor="start" x="2913" y="-85.5" font-family="Helvetica,sans-Serif" font-size="10.00">src/libs/vpatterndb</text>
<text text-anchor="middle" x="2960" y="-74.5" font-family="Helvetica,sans-Serif" font-size="10.00">/vtranslatevars.cpp</text>
</a>
</g>
</g>
<!-- Node17&#45;&gt;Node50 -->
<g id="edge42" class="edge">
<title>Node17&#45;&gt;Node50</title>
<path fill="none" stroke="midnightblue" d="M3324.53,-144.18C3247.69,-134.14 3127.4,-117.32 3024,-98 3021.09,-97.46 3018.11,-96.87 3015.1,-96.26"/>
<polygon fill="midnightblue" stroke="midnightblue" points="3324.25,-147.67 3334.62,-145.49 3325.15,-140.73 3324.25,-147.67"/>
</g>
<!-- Node23 -->
<g id="node37" class="node">
<title>Node23</title>
<g id="a_node37"><a xlink:href="../../df/d40/export__format__combobox_8cpp.html" target="_top" xlink:title=" ">
<polygon fill="white" stroke="black" points="3033.5,-67.5 3033.5,-97.5 3166.5,-97.5 3166.5,-67.5 3033.5,-67.5"/>
<text text-anchor="start" x="3041.5" y="-85.5" font-family="Helvetica,sans-Serif" font-size="10.00">src/libs/vwidgets/export</text>
<text text-anchor="middle" x="3100" y="-74.5" font-family="Helvetica,sans-Serif" font-size="10.00">_format_combobox.cpp</text>
</a>
</g>
</g>
<!-- Node17&#45;&gt;Node23 -->
<g id="edge43" class="edge">
<title>Node17&#45;&gt;Node23</title>
<path fill="none" stroke="midnightblue" d="M3356.71,-143.23C3304.08,-130.98 3218,-110.96 3160.2,-97.51"/>
<polygon fill="midnightblue" stroke="midnightblue" points="3355.92,-146.64 3366.45,-145.5 3357.5,-139.82 3355.92,-146.64"/>
</g>
<!-- Node51 -->
<g id="node38" class="node">
<title>Node51</title>
<g id="a_node38"><a xlink:href="../../d3/d4f/mouse__coordinates_8cpp.html" target="_top" xlink:title=" ">
<polygon fill="white" stroke="black" points="3185,-67.5 3185,-97.5 3319,-97.5 3319,-67.5 3185,-67.5"/>
<text text-anchor="start" x="3193" y="-85.5" font-family="Helvetica,sans-Serif" font-size="10.00">src/libs/vwidgets/mouse</text>
<text text-anchor="middle" x="3252" y="-74.5" font-family="Helvetica,sans-Serif" font-size="10.00">_coordinates.cpp</text>
</a>
</g>
</g>
<!-- Node17&#45;&gt;Node51 -->
<g id="edge44" class="edge">
<title>Node17&#45;&gt;Node51</title>
<path fill="none" stroke="midnightblue" d="M3375.71,-141.26C3349.28,-128.92 3309.31,-110.26 3282,-97.51"/>
<polygon fill="midnightblue" stroke="midnightblue" points="3374.24,-144.44 3384.79,-145.5 3377.21,-138.09 3374.24,-144.44"/>
</g>
<!-- Node26 -->
<g id="node39" class="node">
<title>Node26</title>
<g id="a_node39"><a xlink:href="../../d2/d28/page__format__combobox_8cpp.html" target="_top" xlink:title=" ">
<polygon fill="white" stroke="black" points="3337.5,-67.5 3337.5,-97.5 3468.5,-97.5 3468.5,-67.5 3337.5,-67.5"/>
<text text-anchor="start" x="3345.5" y="-85.5" font-family="Helvetica,sans-Serif" font-size="10.00">src/libs/vwidgets/page</text>
<text text-anchor="middle" x="3403" y="-74.5" font-family="Helvetica,sans-Serif" font-size="10.00">_format_combobox.cpp</text>
</a>
</g>
</g>
<!-- Node17&#45;&gt;Node26 -->
<g id="edge45" class="edge">
<title>Node17&#45;&gt;Node26</title>
<path fill="none" stroke="midnightblue" d="M3403,-135.24C3403,-123.41 3403,-108.38 3403,-97.58"/>
<polygon fill="midnightblue" stroke="midnightblue" points="3399.5,-135.36 3403,-145.36 3406.5,-135.36 3399.5,-135.36"/>
</g>
<!-- Node52 -->
<g id="node40" class="node">
<title>Node52</title>
<g id="a_node40"><a xlink:href="../../d7/d1b/pen__toolbar_8cpp.html" target="_top" xlink:title=" ">
<polygon fill="white" stroke="black" points="3486.5,-67.5 3486.5,-97.5 3605.5,-97.5 3605.5,-67.5 3486.5,-67.5"/>
<text text-anchor="start" x="3494.5" y="-85.5" font-family="Helvetica,sans-Serif" font-size="10.00">src/libs/vwidgets/pen</text>
<text text-anchor="middle" x="3546" y="-74.5" font-family="Helvetica,sans-Serif" font-size="10.00">_toolbar.cpp</text>
</a>
</g>
</g>
<!-- Node17&#45;&gt;Node52 -->
<g id="edge46" class="edge">
<title>Node17&#45;&gt;Node52</title>
<path fill="none" stroke="midnightblue" d="M3429.5,-140.93C3454.53,-128.59 3491.96,-110.14 3517.59,-97.51"/>
<polygon fill="midnightblue" stroke="midnightblue" points="3427.67,-137.93 3420.25,-145.5 3430.77,-144.21 3427.67,-137.93"/>
</g>
<!-- Node53 -->
<g id="node41" class="node">
<title>Node53</title>
<g id="a_node41"><a xlink:href="../../dd/df6/vabstractmainwindow_8cpp.html" target="_top" xlink:title=" ">
<polygon fill="white" stroke="black" points="3623.5,-73 3623.5,-92 3852.5,-92 3852.5,-73 3623.5,-73"/>
<text text-anchor="middle" x="3738" y="-80" font-family="Helvetica,sans-Serif" font-size="10.00">src/libs/vwidgets/vabstractmainwindow.cpp</text>
</a>
</g>
</g>
<!-- Node17&#45;&gt;Node53 -->
<g id="edge47" class="edge">
<title>Node17&#45;&gt;Node53</title>
<path fill="none" stroke="midnightblue" d="M3453.26,-143.42C3519.88,-129.4 3636.12,-104.94 3697.45,-92.03"/>
<polygon fill="midnightblue" stroke="midnightblue" points="3452.47,-140.01 3443.41,-145.5 3453.92,-146.86 3452.47,-140.01"/>
</g>
<!-- Node54 -->
<g id="node42" class="node">
<title>Node54</title>
<g id="a_node42"><a xlink:href="../../de/d45/vcontrolpointspline_8cpp.html" target="_top" xlink:title=" ">
<polygon fill="white" stroke="black" points="3870.5,-73 3870.5,-92 4085.5,-92 4085.5,-73 3870.5,-73"/>
<text text-anchor="middle" x="3978" y="-80" font-family="Helvetica,sans-Serif" font-size="10.00">src/libs/vwidgets/vcontrolpointspline.cpp</text>
</a>
</g>
</g>
<!-- Node17&#45;&gt;Node54 -->
<g id="edge48" class="edge">
<title>Node17&#45;&gt;Node54</title>
<path fill="none" stroke="midnightblue" d="M3482.85,-144.28C3574.24,-133.14 3728.42,-114.32 3861,-98 3876.64,-96.07 3893.46,-94 3909.33,-92.03"/>
<polygon fill="midnightblue" stroke="midnightblue" points="3482.34,-140.81 3472.84,-145.5 3483.19,-147.76 3482.34,-140.81"/>
</g>
<!-- Node55 -->
<g id="node43" class="node">
<title>Node55</title>
<g id="a_node43"><a xlink:href="../../d1/d90/vgrainlineitem_8cpp.html" target="_top" xlink:title=" ">
<polygon fill="white" stroke="black" points="4103.5,-73 4103.5,-92 4296.5,-92 4296.5,-73 4103.5,-73"/>
<text text-anchor="middle" x="4200" y="-80" font-family="Helvetica,sans-Serif" font-size="10.00">src/libs/vwidgets/vgrainlineitem.cpp</text>
</a>
</g>
</g>
<!-- Node17&#45;&gt;Node55 -->
<g id="edge49" class="edge">
<title>Node17&#45;&gt;Node55</title>
<path fill="none" stroke="midnightblue" d="M3510.73,-147.11C3646.82,-137.99 3888.12,-120.41 4094,-98 4109.6,-96.3 4126.45,-94.14 4142.03,-92.02"/>
<polygon fill="midnightblue" stroke="midnightblue" points="3510.46,-143.62 3500.71,-147.78 3510.93,-150.61 3510.46,-143.62"/>
</g>
<!-- Node56 -->
<g id="node44" class="node">
<title>Node56</title>
<g id="a_node44"><a xlink:href="../../de/dec/vgraphicssimpletextitem_8cpp.html" target="_top" xlink:title=" ">
<polygon fill="white" stroke="black" points="4315,-73 4315,-92 4559,-92 4559,-73 4315,-73"/>
<text text-anchor="middle" x="4437" y="-80" font-family="Helvetica,sans-Serif" font-size="10.00">src/libs/vwidgets/vgraphicssimpletextitem.cpp</text>
</a>
</g>
</g>
<!-- Node17&#45;&gt;Node56 -->
<g id="edge50" class="edge">
<title>Node17&#45;&gt;Node56</title>
<path fill="none" stroke="midnightblue" d="M3510.71,-148.97C3679.98,-140.68 4018.53,-122.61 4305,-98 4324.52,-96.32 4345.64,-94.16 4365.13,-92.02"/>
<polygon fill="midnightblue" stroke="midnightblue" points="3510.37,-145.48 3500.55,-149.46 3510.71,-152.47 3510.37,-145.48"/>
</g>
<!-- Node36&#45;&gt;Node37 -->
<g id="edge27" class="edge">
<title>Node36&#45;&gt;Node37</title>
<path fill="none" stroke="midnightblue" d="M1718.28,-58.87C1724.21,-49.46 1730.91,-38.83 1736.12,-30.58"/>
<polygon fill="midnightblue" stroke="midnightblue" points="1715.27,-57.07 1712.9,-67.4 1721.19,-60.81 1715.27,-57.07"/>
</g>
<!-- Node48&#45;&gt;Node49 -->
<g id="edge41" class="edge">
<title>Node48&#45;&gt;Node49</title>
<path fill="none" stroke="midnightblue" d="M2896.92,-67.11C3187.3,-31.03 4037.17,-19.51 4259.37,-17.04"/>
<polygon fill="midnightblue" stroke="midnightblue" points="2896.31,-63.66 2886.83,-68.4 2897.2,-70.6 2896.31,-63.66"/>
</g>
</g>
</svg>
