<?xml version="1.0" encoding="UTF-8" standalone="no"?>
<!DOCTYPE svg PUBLIC "-//W3C//DTD SVG 1.1//EN"
 "http://www.w3.org/Graphics/SVG/1.1/DTD/svg11.dtd">
<!-- Generated by graphviz version 2.43.0 (0)
 -->
<!-- Title: src/libs/vgeometry/vabstractcubicbezierpath.h Pages: 1 -->
<svg width="4861pt" height="318pt"
 viewBox="0.00 0.00 4860.50 318.00" xmlns="http://www.w3.org/2000/svg" xmlns:xlink="http://www.w3.org/1999/xlink">
<g id="graph0" class="graph" transform="scale(1 1) rotate(0) translate(4 314)">
<title>src/libs/vgeometry/vabstractcubicbezierpath.h</title>
<polygon fill="white" stroke="transparent" points="-4,4 -4,-314 4856.5,-314 4856.5,4 -4,4"/>
<!-- Node1 -->
<g id="node1" class="node">
<title>Node1</title>
<g id="a_node1"><a xlink:title=" ">
<polygon fill="#bfbfbf" stroke="black" points="489,-279.5 489,-309.5 641,-309.5 641,-279.5 489,-279.5"/>
<text text-anchor="start" x="497" y="-297.5" font-family="Helvetica,sans-Serif" font-size="10.00">src/libs/vgeometry</text>
<text text-anchor="middle" x="565" y="-286.5" font-family="Helvetica,sans-Serif" font-size="10.00">/vabstractcubicbezierpath.h</text>
</a>
</g>
</g>
<!-- Node2 -->
<g id="node2" class="node">
<title>Node2</title>
<g id="a_node2"><a xlink:href="../../db/d0a/vabstractcubicbezierpath_8cpp.html" target="_top" xlink:title=" ">
<polygon fill="white" stroke="black" points="199.5,-212.5 199.5,-242.5 362.5,-242.5 362.5,-212.5 199.5,-212.5"/>
<text text-anchor="start" x="207.5" y="-230.5" font-family="Helvetica,sans-Serif" font-size="10.00">src/libs/vgeometry</text>
<text text-anchor="middle" x="281" y="-219.5" font-family="Helvetica,sans-Serif" font-size="10.00">/vabstractcubicbezierpath.cpp</text>
</a>
</g>
</g>
<!-- Node1&#45;&gt;Node2 -->
<g id="edge1" class="edge">
<title>Node1&#45;&gt;Node2</title>
<path fill="none" stroke="midnightblue" d="M493.72,-277.19C447.21,-266.54 387.1,-252.78 342.65,-242.61"/>
<polygon fill="midnightblue" stroke="midnightblue" points="493.2,-280.66 503.73,-279.48 494.76,-273.83 493.2,-280.66"/>
</g>
<!-- Node3 -->
<g id="node3" class="node">
<title>Node3</title>
<g id="a_node3"><a xlink:href="../../dd/dbe/vcubicbezierpath_8h.html" target="_top" xlink:title=" ">
<polygon fill="white" stroke="black" points="381,-212.5 381,-242.5 493,-242.5 493,-212.5 381,-212.5"/>
<text text-anchor="start" x="389" y="-230.5" font-family="Helvetica,sans-Serif" font-size="10.00">src/libs/vgeometry</text>
<text text-anchor="middle" x="437" y="-219.5" font-family="Helvetica,sans-Serif" font-size="10.00">/vcubicbezierpath.h</text>
</a>
</g>
</g>
<!-- Node1&#45;&gt;Node3 -->
<g id="edge2" class="edge">
<title>Node1&#45;&gt;Node3</title>
<path fill="none" stroke="midnightblue" d="M528.28,-274.85C508.04,-264.58 483.33,-252.03 464.72,-242.58"/>
<polygon fill="midnightblue" stroke="midnightblue" points="526.72,-277.99 537.23,-279.4 529.89,-271.75 526.72,-277.99"/>
</g>
<!-- Node5 -->
<g id="node5" class="node">
<title>Node5</title>
<g id="a_node5"><a xlink:href="../../d0/d39/vsplinepath_8h.html" target="_top" xlink:title=" ">
<polygon fill="white" stroke="black" points="511.5,-212.5 511.5,-242.5 618.5,-242.5 618.5,-212.5 511.5,-212.5"/>
<text text-anchor="start" x="519.5" y="-230.5" font-family="Helvetica,sans-Serif" font-size="10.00">src/libs/vgeometry</text>
<text text-anchor="middle" x="565" y="-219.5" font-family="Helvetica,sans-Serif" font-size="10.00">/vsplinepath.h</text>
</a>
</g>
</g>
<!-- Node1&#45;&gt;Node5 -->
<g id="edge4" class="edge">
<title>Node1&#45;&gt;Node5</title>
<path fill="none" stroke="midnightblue" d="M565,-269.11C565,-260.15 565,-250.32 565,-242.58"/>
<polygon fill="midnightblue" stroke="midnightblue" points="561.5,-269.4 565,-279.4 568.5,-269.4 561.5,-269.4"/>
</g>
<!-- Node10 -->
<g id="node10" class="node">
<title>Node10</title>
<g id="a_node10"><a xlink:href="../../d3/df7/vcontainer_8h.html" target="_top" xlink:title=" ">
<polygon fill="white" stroke="black" points="1577.5,-212.5 1577.5,-242.5 1684.5,-242.5 1684.5,-212.5 1577.5,-212.5"/>
<text text-anchor="start" x="1585.5" y="-230.5" font-family="Helvetica,sans-Serif" font-size="10.00">src/libs/vpatterndb</text>
<text text-anchor="middle" x="1631" y="-219.5" font-family="Helvetica,sans-Serif" font-size="10.00">/vcontainer.h</text>
</a>
</g>
</g>
<!-- Node1&#45;&gt;Node10 -->
<g id="edge9" class="edge">
<title>Node1&#45;&gt;Node10</title>
<path fill="none" stroke="midnightblue" d="M651.38,-288.23C863.37,-275.31 1404.57,-242.31 1577.21,-231.78"/>
<polygon fill="midnightblue" stroke="midnightblue" points="651,-284.75 641.24,-288.85 651.43,-291.74 651,-284.75"/>
</g>
<!-- Node54 -->
<g id="node40" class="node">
<title>Node54</title>
<g id="a_node40"><a xlink:href="../../d6/d46/vcontainer_8cpp.html" target="_top" xlink:title=" ">
<polygon fill="white" stroke="black" points="3387.5,-67.5 3387.5,-97.5 3494.5,-97.5 3494.5,-67.5 3387.5,-67.5"/>
<text text-anchor="start" x="3395.5" y="-85.5" font-family="Helvetica,sans-Serif" font-size="10.00">src/libs/vpatterndb</text>
<text text-anchor="middle" x="3441" y="-74.5" font-family="Helvetica,sans-Serif" font-size="10.00">/vcontainer.cpp</text>
</a>
</g>
</g>
<!-- Node1&#45;&gt;Node54 -->
<g id="edge63" class="edge">
<title>Node1&#45;&gt;Node54</title>
<path fill="none" stroke="midnightblue" d="M651.57,-294.24C967.38,-295.92 2086.77,-292.71 3000,-176 3141.62,-157.9 3305.44,-118.6 3387.84,-97.52"/>
<polygon fill="midnightblue" stroke="midnightblue" points="651.14,-290.74 641.12,-294.19 651.1,-297.74 651.14,-290.74"/>
</g>
<!-- Node4 -->
<g id="node4" class="node">
<title>Node4</title>
<g id="a_node4"><a xlink:href="../../de/df0/vcubicbezierpath_8cpp.html" target="_top" xlink:title=" ">
<polygon fill="white" stroke="black" points="72.5,-140 72.5,-170 195.5,-170 195.5,-140 72.5,-140"/>
<text text-anchor="start" x="80.5" y="-158" font-family="Helvetica,sans-Serif" font-size="10.00">src/libs/vgeometry</text>
<text text-anchor="middle" x="134" y="-147" font-family="Helvetica,sans-Serif" font-size="10.00">/vcubicbezierpath.cpp</text>
</a>
</g>
</g>
<!-- Node3&#45;&gt;Node4 -->
<g id="edge3" class="edge">
<title>Node3&#45;&gt;Node4</title>
<path fill="none" stroke="midnightblue" d="M371.3,-212.07C371.2,-212.04 371.1,-212.02 371,-212 297.24,-195.9 278.26,-194.24 205,-176 197.67,-174.17 189.94,-172.13 182.4,-170.06"/>
<polygon fill="midnightblue" stroke="midnightblue" points="370.32,-215.43 380.83,-214.15 371.81,-208.59 370.32,-215.43"/>
</g>
<!-- Node6 -->
<g id="node6" class="node">
<title>Node6</title>
<g id="a_node6"><a xlink:href="../../db/d6a/vsplinepath_8cpp.html" target="_top" xlink:title=" ">
<polygon fill="white" stroke="black" points="435.5,-140 435.5,-170 542.5,-170 542.5,-140 435.5,-140"/>
<text text-anchor="start" x="443.5" y="-158" font-family="Helvetica,sans-Serif" font-size="10.00">src/libs/vgeometry</text>
<text text-anchor="middle" x="489" y="-147" font-family="Helvetica,sans-Serif" font-size="10.00">/vsplinepath.cpp</text>
</a>
</g>
</g>
<!-- Node5&#45;&gt;Node6 -->
<g id="edge5" class="edge">
<title>Node5&#45;&gt;Node6</title>
<path fill="none" stroke="midnightblue" d="M541.97,-205.14C529.69,-193.74 514.92,-180.04 504.1,-170"/>
<polygon fill="midnightblue" stroke="midnightblue" points="539.91,-208 549.62,-212.23 544.67,-202.87 539.91,-208"/>
</g>
<!-- Node7 -->
<g id="node7" class="node">
<title>Node7</title>
<g id="a_node7"><a xlink:href="../../d1/d3a/abstracttest_8cpp.html" target="_top" xlink:title=" ">
<polygon fill="white" stroke="black" points="560.5,-145.5 560.5,-164.5 721.5,-164.5 721.5,-145.5 560.5,-145.5"/>
<text text-anchor="middle" x="641" y="-152.5" font-family="Helvetica,sans-Serif" font-size="10.00">src/libs/vtest/abstracttest.cpp</text>
</a>
</g>
</g>
<!-- Node5&#45;&gt;Node7 -->
<g id="edge6" class="edge">
<title>Node5&#45;&gt;Node7</title>
<path fill="none" stroke="midnightblue" d="M588.03,-205.14C602.57,-191.65 620.58,-174.94 631.41,-164.89"/>
<polygon fill="midnightblue" stroke="midnightblue" points="585.33,-202.87 580.38,-212.23 590.09,-208 585.33,-202.87"/>
</g>
<!-- Node8 -->
<g id="node8" class="node">
<title>Node8</title>
<g id="a_node8"><a xlink:href="../../d8/d13/vcontrolpointspline_8h.html" target="_top" xlink:title=" ">
<polygon fill="white" stroke="black" points="214,-145.5 214,-164.5 418,-164.5 418,-145.5 214,-145.5"/>
<text text-anchor="middle" x="316" y="-152.5" font-family="Helvetica,sans-Serif" font-size="10.00">src/libs/vwidgets/vcontrolpointspline.h</text>
</a>
</g>
</g>
<!-- Node5&#45;&gt;Node8 -->
<g id="edge7" class="edge">
<title>Node5&#45;&gt;Node8</title>
<path fill="none" stroke="midnightblue" d="M505.75,-209.72C455.56,-195.51 385.66,-175.72 346.22,-164.55"/>
<polygon fill="midnightblue" stroke="midnightblue" points="504.93,-213.13 515.51,-212.49 506.84,-206.4 504.93,-213.13"/>
</g>
<!-- Node9 -->
<g id="node9" class="node">
<title>Node9</title>
<g id="a_node9"><a xlink:href="../../de/d45/vcontrolpointspline_8cpp.html" target="_top" xlink:title=" ">
<polygon fill="white" stroke="black" points="208.5,-73 208.5,-92 423.5,-92 423.5,-73 208.5,-73"/>
<text text-anchor="middle" x="316" y="-80" font-family="Helvetica,sans-Serif" font-size="10.00">src/libs/vwidgets/vcontrolpointspline.cpp</text>
</a>
</g>
</g>
<!-- Node8&#45;&gt;Node9 -->
<g id="edge8" class="edge">
<title>Node8&#45;&gt;Node9</title>
<path fill="none" stroke="midnightblue" d="M316,-134.94C316,-121.03 316,-102.82 316,-92.22"/>
<polygon fill="midnightblue" stroke="midnightblue" points="312.5,-135.36 316,-145.36 319.5,-135.36 312.5,-135.36"/>
</g>
<!-- Node10&#45;&gt;Node7 -->
<g id="edge61" class="edge">
<title>Node10&#45;&gt;Node7</title>
<path fill="none" stroke="midnightblue" d="M1567.21,-226.47C1419.44,-225.63 1042.48,-219.06 731,-176 711.66,-173.33 690.31,-168.66 673.26,-164.5"/>
<polygon fill="midnightblue" stroke="midnightblue" points="1567.43,-229.97 1577.45,-226.52 1567.47,-222.97 1567.43,-229.97"/>
</g>
<!-- Node11 -->
<g id="node11" class="node">
<title>Node11</title>
<g id="a_node11"><a xlink:href="../../d2/d47/image__dialog_8cpp.html" target="_top" xlink:title=" ">
<polygon fill="white" stroke="black" points="567,-67.5 567,-97.5 679,-97.5 679,-67.5 567,-67.5"/>
<text text-anchor="start" x="575" y="-85.5" font-family="Helvetica,sans-Serif" font-size="10.00">src/libs/tools/image</text>
<text text-anchor="middle" x="623" y="-74.5" font-family="Helvetica,sans-Serif" font-size="10.00">_dialog.cpp</text>
</a>
</g>
</g>
<!-- Node10&#45;&gt;Node11 -->
<g id="edge10" class="edge">
<title>Node10&#45;&gt;Node11</title>
<path fill="none" stroke="midnightblue" d="M1693.93,-210.19C1710.8,-202.63 1727.08,-191.71 1737,-176 1746.96,-160.22 1749.97,-147.42 1737,-134 1696.48,-92.07 745.84,-105.38 688,-98 685.13,-97.63 682.21,-97.2 679.26,-96.72"/>
<polygon fill="midnightblue" stroke="midnightblue" points="1692.46,-207.01 1684.54,-214.05 1695.12,-213.48 1692.46,-207.01"/>
</g>
<!-- Node12 -->
<g id="node12" class="node">
<title>Node12</title>
<g id="a_node12"><a xlink:href="../../dc/db7/measurements_8h.html" target="_top" xlink:title=" ">
<polygon fill="white" stroke="black" points="739.5,-145.5 739.5,-164.5 918.5,-164.5 918.5,-145.5 739.5,-145.5"/>
<text text-anchor="middle" x="829" y="-152.5" font-family="Helvetica,sans-Serif" font-size="10.00">src/libs/vformat/measurements.h</text>
</a>
</g>
</g>
<!-- Node10&#45;&gt;Node12 -->
<g id="edge11" class="edge">
<title>Node10&#45;&gt;Node12</title>
<path fill="none" stroke="midnightblue" d="M1567.35,-224.65C1443.65,-220.45 1162.38,-207.96 928,-176 907.15,-173.16 884.1,-168.58 865.48,-164.53"/>
<polygon fill="midnightblue" stroke="midnightblue" points="1567.29,-228.15 1577.4,-224.98 1567.53,-221.15 1567.29,-228.15"/>
</g>
<!-- Node13 -->
<g id="node13" class="node">
<title>Node13</title>
<g id="a_node13"><a xlink:href="../../d9/de3/measurements_8cpp.html" target="_top" xlink:title=" ">
<polygon fill="white" stroke="black" points="0,-73 0,-92 190,-92 190,-73 0,-73"/>
<text text-anchor="middle" x="95" y="-80" font-family="Helvetica,sans-Serif" font-size="10.00">src/libs/vformat/measurements.cpp</text>
</a>
</g>
</g>
<!-- Node10&#45;&gt;Node13 -->
<g id="edge13" class="edge">
<title>Node10&#45;&gt;Node13</title>
<path fill="none" stroke="midnightblue" d="M1599.26,-206.85C1585.99,-198.06 1570.73,-187.17 1558,-176 1539.08,-159.4 1542.87,-144.52 1520,-134 1453.31,-103.31 272.16,-104.08 199,-98 182.29,-96.61 164.15,-94.35 147.78,-92.02"/>
<polygon fill="midnightblue" stroke="midnightblue" points="1597.35,-209.79 1607.64,-212.3 1601.17,-203.92 1597.35,-209.79"/>
</g>
<!-- Node14 -->
<g id="node14" class="node">
<title>Node14</title>
<g id="a_node14"><a xlink:href="../../d6/de0/vlayoutpiece_8h.html" target="_top" xlink:title=" ">
<polygon fill="white" stroke="black" points="4122,-145.5 4122,-164.5 4288,-164.5 4288,-145.5 4122,-145.5"/>
<text text-anchor="middle" x="4205" y="-152.5" font-family="Helvetica,sans-Serif" font-size="10.00">src/libs/vlayout/vlayoutpiece.h</text>
</a>
</g>
</g>
<!-- Node10&#45;&gt;Node14 -->
<g id="edge14" class="edge">
<title>Node10&#45;&gt;Node14</title>
<path fill="none" stroke="midnightblue" d="M1695.17,-224.88C1936.67,-218.77 2814.01,-196.4 3537,-176 3747.65,-170.06 3995.64,-162.48 4121.95,-158.58"/>
<polygon fill="midnightblue" stroke="midnightblue" points="1694.73,-221.39 1684.82,-225.14 1694.91,-228.39 1694.73,-221.39"/>
</g>
<!-- Node24 -->
<g id="node23" class="node">
<title>Node24</title>
<g id="a_node23"><a xlink:href="../../d8/d70/vtextmanager_8cpp.html" target="_top" xlink:title=" ">
<polygon fill="white" stroke="black" points="697,-73 697,-92 879,-92 879,-73 697,-73"/>
<text text-anchor="middle" x="788" y="-80" font-family="Helvetica,sans-Serif" font-size="10.00">src/libs/vlayout/vtextmanager.cpp</text>
</a>
</g>
</g>
<!-- Node10&#45;&gt;Node24 -->
<g id="edge25" class="edge">
<title>Node10&#45;&gt;Node24</title>
<path fill="none" stroke="midnightblue" d="M1694.55,-220.76C1724.1,-214.54 1756.69,-201.82 1775,-176 1785.8,-160.77 1787.93,-147.46 1775,-134 1740.88,-98.47 938.06,-102.51 889,-98 873.04,-96.53 855.74,-94.29 840.04,-92.01"/>
<polygon fill="midnightblue" stroke="midnightblue" points="1693.84,-217.34 1684.67,-222.64 1695.15,-224.21 1693.84,-217.34"/>
</g>
<!-- Node25 -->
<g id="node24" class="node">
<title>Node25</title>
<g id="a_node24"><a xlink:href="../../d5/d74/vabstractapplication_8h.html" target="_top" xlink:title=" ">
<polygon fill="white" stroke="red" points="1826.5,-145.5 1826.5,-164.5 2021.5,-164.5 2021.5,-145.5 1826.5,-145.5"/>
<text text-anchor="middle" x="1924" y="-152.5" font-family="Helvetica,sans-Serif" font-size="10.00">src/libs/vmisc/vabstractapplication.h</text>
</a>
</g>
</g>
<!-- Node10&#45;&gt;Node25 -->
<g id="edge26" class="edge">
<title>Node10&#45;&gt;Node25</title>
<path fill="none" stroke="midnightblue" d="M1694.77,-211.16C1754.18,-196.86 1840.59,-176.07 1888.56,-164.53"/>
<polygon fill="midnightblue" stroke="midnightblue" points="1693.64,-207.83 1684.74,-213.57 1695.28,-214.63 1693.64,-207.83"/>
</g>
<!-- Node53 -->
<g id="node39" class="node">
<title>Node53</title>
<g id="a_node39"><a xlink:href="../../db/d11/vformula_8cpp.html" target="_top" xlink:title=" ">
<polygon fill="white" stroke="black" points="3262.5,-67.5 3262.5,-97.5 3369.5,-97.5 3369.5,-67.5 3262.5,-67.5"/>
<text text-anchor="start" x="3270.5" y="-85.5" font-family="Helvetica,sans-Serif" font-size="10.00">src/libs/vpatterndb</text>
<text text-anchor="middle" x="3316" y="-74.5" font-family="Helvetica,sans-Serif" font-size="10.00">/vformula.cpp</text>
</a>
</g>
</g>
<!-- Node10&#45;&gt;Node53 -->
<g id="edge55" class="edge">
<title>Node10&#45;&gt;Node53</title>
<path fill="none" stroke="midnightblue" d="M1694.58,-224.91C1912.93,-218.71 2651.91,-191.69 3254,-98 3256.73,-97.58 3259.52,-97.09 3262.33,-96.57"/>
<polygon fill="midnightblue" stroke="midnightblue" points="1694.48,-221.41 1684.58,-225.19 1694.67,-228.41 1694.48,-221.41"/>
</g>
<!-- Node10&#45;&gt;Node54 -->
<g id="edge56" class="edge">
<title>Node10&#45;&gt;Node54</title>
<path fill="none" stroke="midnightblue" d="M1694.7,-225.8C1871.16,-223.43 2381.09,-213.58 2803,-176 3060.32,-153.08 3124.94,-144.8 3379,-98 3381.72,-97.5 3384.5,-96.96 3387.3,-96.39"/>
<polygon fill="midnightblue" stroke="midnightblue" points="1694.51,-222.3 1684.56,-225.94 1694.6,-229.3 1694.51,-222.3"/>
</g>
<!-- Node56 -->
<g id="node42" class="node">
<title>Node56</title>
<g id="a_node42"><a xlink:href="../../d8/dba/vpiecenode_8cpp.html" target="_top" xlink:title=" ">
<polygon fill="white" stroke="black" points="3075.5,-0.5 3075.5,-30.5 3182.5,-30.5 3182.5,-0.5 3075.5,-0.5"/>
<text text-anchor="start" x="3083.5" y="-18.5" font-family="Helvetica,sans-Serif" font-size="10.00">src/libs/vpatterndb</text>
<text text-anchor="middle" x="3129" y="-7.5" font-family="Helvetica,sans-Serif" font-size="10.00">/vpiecenode.cpp</text>
</a>
</g>
</g>
<!-- Node10&#45;&gt;Node56 -->
<g id="edge60" class="edge">
<title>Node10&#45;&gt;Node56</title>
<path fill="none" stroke="midnightblue" d="M1694.74,-226.79C1890.27,-227.1 2498.75,-223.87 3000,-176 3225.64,-154.45 3356.49,-270.1 3504,-98 3512.97,-87.54 3513.07,-77.37 3504,-67 3483.16,-43.17 3281.12,-26.6 3182.55,-19.86"/>
<polygon fill="midnightblue" stroke="midnightblue" points="1694.65,-223.29 1684.64,-226.77 1694.63,-230.29 1694.65,-223.29"/>
</g>
<!-- Node57 -->
<g id="node43" class="node">
<title>Node57</title>
<g id="a_node43"><a xlink:href="../../df/d7a/vpiece_8cpp.html" target="_top" xlink:title=" ">
<polygon fill="white" stroke="black" points="441.5,-67.5 441.5,-97.5 548.5,-97.5 548.5,-67.5 441.5,-67.5"/>
<text text-anchor="start" x="449.5" y="-85.5" font-family="Helvetica,sans-Serif" font-size="10.00">src/libs/vpatterndb</text>
<text text-anchor="middle" x="495" y="-74.5" font-family="Helvetica,sans-Serif" font-size="10.00">/vpiece.cpp</text>
</a>
</g>
</g>
<!-- Node10&#45;&gt;Node57 -->
<g id="edge58" class="edge">
<title>Node10&#45;&gt;Node57</title>
<path fill="none" stroke="midnightblue" d="M1673.26,-207.08C1685.41,-199.25 1697.21,-188.96 1704,-176 1712.67,-159.47 1716.99,-147.4 1704,-134 1659.67,-88.26 621.17,-106.18 558,-98 554.99,-97.61 551.92,-97.14 548.83,-96.62"/>
<polygon fill="midnightblue" stroke="midnightblue" points="1671.21,-204.22 1664.41,-212.34 1674.79,-210.23 1671.21,-204.22"/>
</g>
<!-- Node70 -->
<g id="node46" class="node">
<title>Node70</title>
<g id="a_node46"><a xlink:href="../../d3/d02/custom__variable__p_8h.html" target="_top" xlink:title=" ">
<polygon fill="white" stroke="red" points="936.5,-140 936.5,-170 1105.5,-170 1105.5,-140 936.5,-140"/>
<text text-anchor="start" x="944.5" y="-158" font-family="Helvetica,sans-Serif" font-size="10.00">src/libs/vpatterndb</text>
<text text-anchor="middle" x="1021" y="-147" font-family="Helvetica,sans-Serif" font-size="10.00">/variables/custom_variable_p.h</text>
</a>
</g>
</g>
<!-- Node10&#45;&gt;Node70 -->
<g id="edge53" class="edge">
<title>Node10&#45;&gt;Node70</title>
<path fill="none" stroke="midnightblue" d="M1567.25,-222.57C1469.52,-216.02 1276.94,-201.07 1115,-176 1104.28,-174.34 1092.95,-172.23 1082,-170.02"/>
<polygon fill="midnightblue" stroke="midnightblue" points="1567.06,-226.06 1577.27,-223.23 1567.52,-219.08 1567.06,-226.06"/>
</g>
<!-- Node72 -->
<g id="node47" class="node">
<title>Node72</title>
<g id="a_node47"><a xlink:href="../../d7/d8a/measurement__variable__p_8h.html" target="_top" xlink:title=" ">
<polygon fill="white" stroke="red" points="1124,-134.5 1124,-175.5 1260,-175.5 1260,-134.5 1124,-134.5"/>
<text text-anchor="start" x="1132" y="-163.5" font-family="Helvetica,sans-Serif" font-size="10.00">src/libs/vpatterndb</text>
<text text-anchor="start" x="1132" y="-152.5" font-family="Helvetica,sans-Serif" font-size="10.00">/variables/measurement</text>
<text text-anchor="middle" x="1192" y="-141.5" font-family="Helvetica,sans-Serif" font-size="10.00">_variable_p.h</text>
</a>
</g>
</g>
<!-- Node10&#45;&gt;Node72 -->
<g id="edge54" class="edge">
<title>Node10&#45;&gt;Node72</title>
<path fill="none" stroke="midnightblue" d="M1567.15,-219.76C1494.72,-211.6 1373.26,-196.39 1270,-176 1266.85,-175.38 1263.63,-174.7 1260.39,-174"/>
<polygon fill="midnightblue" stroke="midnightblue" points="1567.15,-223.28 1577.47,-220.91 1567.92,-216.32 1567.15,-223.28"/>
</g>
<!-- Node74 -->
<g id="node48" class="node">
<title>Node74</title>
<g id="a_node48"><a xlink:href="../../d6/d91/vnodedetail_8cpp.html" target="_top" xlink:title=" ">
<polygon fill="white" stroke="black" points="1278.5,-140 1278.5,-170 1385.5,-170 1385.5,-140 1278.5,-140"/>
<text text-anchor="start" x="1286.5" y="-158" font-family="Helvetica,sans-Serif" font-size="10.00">src/libs/vpatterndb</text>
<text text-anchor="middle" x="1332" y="-147" font-family="Helvetica,sans-Serif" font-size="10.00">/vnodedetail.cpp</text>
</a>
</g>
</g>
<!-- Node10&#45;&gt;Node74 -->
<g id="edge57" class="edge">
<title>Node10&#45;&gt;Node74</title>
<path fill="none" stroke="midnightblue" d="M1567.34,-214.61C1519.62,-205.28 1452.85,-191.33 1395,-176 1388.23,-174.21 1381.11,-172.13 1374.2,-170.01"/>
<polygon fill="midnightblue" stroke="midnightblue" points="1566.74,-218.06 1577.22,-216.53 1568.08,-211.19 1566.74,-218.06"/>
</g>
<!-- Node75 -->
<g id="node49" class="node">
<title>Node75</title>
<g id="a_node49"><a xlink:href="../../da/de1/vpiecepath_8cpp.html" target="_top" xlink:title=" ">
<polygon fill="white" stroke="black" points="1403.5,-140 1403.5,-170 1510.5,-170 1510.5,-140 1403.5,-140"/>
<text text-anchor="start" x="1411.5" y="-158" font-family="Helvetica,sans-Serif" font-size="10.00">src/libs/vpatterndb</text>
<text text-anchor="middle" x="1457" y="-147" font-family="Helvetica,sans-Serif" font-size="10.00">/vpiecepath.cpp</text>
</a>
</g>
</g>
<!-- Node10&#45;&gt;Node75 -->
<g id="edge59" class="edge">
<title>Node10&#45;&gt;Node75</title>
<path fill="none" stroke="midnightblue" d="M1586.57,-208.5C1557.1,-196.56 1518.98,-181.11 1491.73,-170.07"/>
<polygon fill="midnightblue" stroke="midnightblue" points="1585.62,-211.89 1596.21,-212.4 1588.25,-205.4 1585.62,-211.89"/>
</g>
<!-- Node76 -->
<g id="node50" class="node">
<title>Node76</title>
<g id="a_node50"><a xlink:href="../../da/db4/piece__tablewidgetitem_8cpp.html" target="_top" xlink:title=" ">
<polygon fill="white" stroke="black" points="1567,-140 1567,-170 1695,-170 1695,-140 1567,-140"/>
<text text-anchor="start" x="1575" y="-158" font-family="Helvetica,sans-Serif" font-size="10.00">src/libs/vwidgets/piece</text>
<text text-anchor="middle" x="1631" y="-147" font-family="Helvetica,sans-Serif" font-size="10.00">_tablewidgetitem.cpp</text>
</a>
</g>
</g>
<!-- Node10&#45;&gt;Node76 -->
<g id="edge62" class="edge">
<title>Node10&#45;&gt;Node76</title>
<path fill="none" stroke="midnightblue" d="M1631,-202.23C1631,-191.57 1631,-179.41 1631,-170.25"/>
<polygon fill="midnightblue" stroke="midnightblue" points="1627.5,-202.23 1631,-212.23 1634.5,-202.23 1627.5,-202.23"/>
</g>
<!-- Node12&#45;&gt;Node13 -->
<g id="edge12" class="edge">
<title>Node12&#45;&gt;Node13</title>
<path fill="none" stroke="midnightblue" d="M783.04,-143.3C766.69,-139.84 748.1,-136.31 731,-134 496.15,-102.24 434.73,-122.38 199,-98 183.31,-96.38 166.36,-94.2 150.77,-92.02"/>
<polygon fill="midnightblue" stroke="midnightblue" points="782.38,-146.74 792.9,-145.43 783.86,-139.9 782.38,-146.74"/>
</g>
<!-- Node15 -->
<g id="node15" class="node">
<title>Node15</title>
<g id="a_node15"><a xlink:href="../../dd/d66/vdxfengine_8cpp.html" target="_top" xlink:title=" ">
<polygon fill="white" stroke="black" points="3961,-73 3961,-92 4115,-92 4115,-73 3961,-73"/>
<text text-anchor="middle" x="4038" y="-80" font-family="Helvetica,sans-Serif" font-size="10.00">src/libs/vdxf/vdxfengine.cpp</text>
</a>
</g>
</g>
<!-- Node14&#45;&gt;Node15 -->
<g id="edge15" class="edge">
<title>Node14&#45;&gt;Node15</title>
<path fill="none" stroke="midnightblue" d="M4175.51,-141.55C4141.79,-127.32 4087.47,-104.38 4058.22,-92.03"/>
<polygon fill="midnightblue" stroke="midnightblue" points="4174.28,-144.83 4184.86,-145.5 4177,-138.38 4174.28,-144.83"/>
</g>
<!-- Node16 -->
<g id="node16" class="node">
<title>Node16</title>
<g id="a_node16"><a xlink:href="../../de/da8/vbank_8cpp.html" target="_top" xlink:title=" ">
<polygon fill="white" stroke="black" points="4133,-73 4133,-92 4277,-92 4277,-73 4133,-73"/>
<text text-anchor="middle" x="4205" y="-80" font-family="Helvetica,sans-Serif" font-size="10.00">src/libs/vlayout/vbank.cpp</text>
</a>
</g>
</g>
<!-- Node14&#45;&gt;Node16 -->
<g id="edge16" class="edge">
<title>Node14&#45;&gt;Node16</title>
<path fill="none" stroke="midnightblue" d="M4205,-134.94C4205,-121.03 4205,-102.82 4205,-92.22"/>
<polygon fill="midnightblue" stroke="midnightblue" points="4201.5,-135.36 4205,-145.36 4208.5,-135.36 4201.5,-135.36"/>
</g>
<!-- Node17 -->
<g id="node17" class="node">
<title>Node17</title>
<g id="a_node17"><a xlink:href="../../df/d5d/vcontour_8cpp.html" target="_top" xlink:title=" ">
<polygon fill="white" stroke="black" points="4333,-73 4333,-92 4489,-92 4489,-73 4333,-73"/>
<text text-anchor="middle" x="4411" y="-80" font-family="Helvetica,sans-Serif" font-size="10.00">src/libs/vlayout/vcontour.cpp</text>
</a>
</g>
</g>
<!-- Node14&#45;&gt;Node17 -->
<g id="edge17" class="edge">
<title>Node14&#45;&gt;Node17</title>
<path fill="none" stroke="midnightblue" d="M4239.51,-142.19C4280.95,-128.01 4349.43,-104.57 4386.06,-92.03"/>
<polygon fill="midnightblue" stroke="midnightblue" points="4238.18,-138.95 4229.85,-145.5 4240.44,-145.57 4238.18,-138.95"/>
</g>
<!-- Node18 -->
<g id="node18" class="node">
<title>Node18</title>
<g id="a_node18"><a xlink:href="../../d2/d2d/vlayoutpaper__p_8h.html" target="_top" xlink:title=" ">
<polygon fill="white" stroke="black" points="4673.5,-73 4673.5,-92 4852.5,-92 4852.5,-73 4673.5,-73"/>
<text text-anchor="middle" x="4763" y="-80" font-family="Helvetica,sans-Serif" font-size="10.00">src/libs/vlayout/vlayoutpaper_p.h</text>
</a>
</g>
</g>
<!-- Node14&#45;&gt;Node18 -->
<g id="edge18" class="edge">
<title>Node14&#45;&gt;Node18</title>
<path fill="none" stroke="midnightblue" d="M4289.51,-144.31C4381.66,-133.59 4533.44,-115.52 4664,-98 4677.77,-96.15 4692.61,-94.04 4706.49,-92.02"/>
<polygon fill="midnightblue" stroke="midnightblue" points="4288.93,-140.85 4279.4,-145.48 4289.74,-147.8 4288.93,-140.85"/>
</g>
<!-- Node19 -->
<g id="node19" class="node">
<title>Node19</title>
<g id="a_node19"><a xlink:href="../../d1/dd1/vlayoutpaper_8cpp.html" target="_top" xlink:title=" ">
<polygon fill="white" stroke="black" points="4492,-6 4492,-25 4670,-25 4670,-6 4492,-6"/>
<text text-anchor="middle" x="4581" y="-13" font-family="Helvetica,sans-Serif" font-size="10.00">src/libs/vlayout/vlayoutpaper.cpp</text>
</a>
</g>
</g>
<!-- Node14&#45;&gt;Node19 -->
<g id="edge21" class="edge">
<title>Node14&#45;&gt;Node19</title>
<path fill="none" stroke="midnightblue" d="M4226.55,-139.78C4243.06,-128.72 4266.28,-112.82 4286,-98 4303.42,-84.9 4304.27,-76.27 4324,-67 4376.58,-42.3 4440.68,-29.68 4491.71,-23.23"/>
<polygon fill="midnightblue" stroke="midnightblue" points="4224.51,-136.93 4218.13,-145.39 4228.39,-142.76 4224.51,-136.93"/>
</g>
<!-- Node20 -->
<g id="node20" class="node">
<title>Node20</title>
<g id="a_node20"><a xlink:href="../../d3/d39/vlayoutgenerator_8cpp.html" target="_top" xlink:title=" ">
<polygon fill="white" stroke="black" points="3745.5,-73 3745.5,-92 3942.5,-92 3942.5,-73 3745.5,-73"/>
<text text-anchor="middle" x="3844" y="-80" font-family="Helvetica,sans-Serif" font-size="10.00">src/libs/vlayout/vlayoutgenerator.cpp</text>
</a>
</g>
</g>
<!-- Node14&#45;&gt;Node20 -->
<g id="edge20" class="edge">
<title>Node14&#45;&gt;Node20</title>
<path fill="none" stroke="midnightblue" d="M4151.28,-143.51C4079.57,-129.5 3953.93,-104.97 3887.7,-92.03"/>
<polygon fill="midnightblue" stroke="midnightblue" points="4150.97,-147.01 4161.45,-145.5 4152.31,-140.14 4150.97,-147.01"/>
</g>
<!-- Node21 -->
<g id="node21" class="node">
<title>Node21</title>
<g id="a_node21"><a xlink:href="../../db/d5c/vposition_8h.html" target="_top" xlink:title=" ">
<polygon fill="white" stroke="red" points="4507,-73 4507,-92 4655,-92 4655,-73 4507,-73"/>
<text text-anchor="middle" x="4581" y="-80" font-family="Helvetica,sans-Serif" font-size="10.00">src/libs/vlayout/vposition.h</text>
</a>
</g>
</g>
<!-- Node14&#45;&gt;Node21 -->
<g id="edge22" class="edge">
<title>Node14&#45;&gt;Node21</title>
<path fill="none" stroke="midnightblue" d="M4260.49,-143.59C4335.11,-129.6 4466.37,-104.99 4535.48,-92.03"/>
<polygon fill="midnightblue" stroke="midnightblue" points="4259.54,-140.21 4250.35,-145.5 4260.83,-147.09 4259.54,-140.21"/>
</g>
<!-- Node23 -->
<g id="node22" class="node">
<title>Node23</title>
<g id="a_node22"><a xlink:href="../../dd/d70/vlayoutpiece_8cpp.html" target="_top" xlink:title=" ">
<polygon fill="white" stroke="black" points="3550.5,-73 3550.5,-92 3727.5,-92 3727.5,-73 3550.5,-73"/>
<text text-anchor="middle" x="3639" y="-80" font-family="Helvetica,sans-Serif" font-size="10.00">src/libs/vlayout/vlayoutpiece.cpp</text>
</a>
</g>
</g>
<!-- Node14&#45;&gt;Node23 -->
<g id="edge24" class="edge">
<title>Node14&#45;&gt;Node23</title>
<path fill="none" stroke="midnightblue" d="M4118.28,-144.35C4024.26,-133.72 3869.84,-115.77 3737,-98 3723.28,-96.16 3708.49,-94.05 3694.67,-92.01"/>
<polygon fill="midnightblue" stroke="midnightblue" points="4117.98,-147.84 4128.31,-145.49 4118.77,-140.89 4117.98,-147.84"/>
</g>
<!-- Node18&#45;&gt;Node19 -->
<g id="edge19" class="edge">
<title>Node18&#45;&gt;Node19</title>
<path fill="none" stroke="midnightblue" d="M4729.22,-69.44C4693.12,-56.54 4636.79,-36.42 4604.98,-25.06"/>
<polygon fill="midnightblue" stroke="midnightblue" points="4728.24,-72.8 4738.83,-72.87 4730.59,-66.21 4728.24,-72.8"/>
</g>
<!-- Node21&#45;&gt;Node19 -->
<g id="edge23" class="edge">
<title>Node21&#45;&gt;Node19</title>
<path fill="none" stroke="midnightblue" d="M4581,-62.54C4581,-50.17 4581,-34.62 4581,-25.13"/>
<polygon fill="midnightblue" stroke="midnightblue" points="4577.5,-62.73 4581,-72.73 4584.5,-62.73 4577.5,-62.73"/>
</g>
<!-- Node25&#45;&gt;Node9 -->
<g id="edge52" class="edge">
<title>Node25&#45;&gt;Node9</title>
<path fill="none" stroke="midnightblue" d="M1833.45,-144.49C1793.76,-140.65 1746.61,-136.54 1704,-134 1139.88,-100.4 996.49,-140.8 433,-98 414.33,-96.58 394.05,-94.32 375.71,-92.01"/>
<polygon fill="midnightblue" stroke="midnightblue" points="1833.34,-147.99 1843.63,-145.48 1834.02,-141.03 1833.34,-147.99"/>
</g>
<!-- Node25&#45;&gt;Node11 -->
<g id="edge29" class="edge">
<title>Node25&#45;&gt;Node11</title>
<path fill="none" stroke="midnightblue" d="M1860.13,-144C1833.83,-140.25 1803.01,-136.34 1775,-134 1293.3,-93.8 1167.53,-158.89 688,-98 685.13,-97.64 682.21,-97.2 679.26,-96.72"/>
<polygon fill="midnightblue" stroke="midnightblue" points="1859.95,-147.51 1870.35,-145.47 1860.95,-140.58 1859.95,-147.51"/>
</g>
<!-- Node25&#45;&gt;Node23 -->
<g id="edge39" class="edge">
<title>Node25&#45;&gt;Node23</title>
<path fill="none" stroke="midnightblue" d="M2031.7,-152.84C2287.43,-149.5 2951.16,-137.44 3504,-98 3525.04,-96.5 3547.87,-94.28 3568.67,-92.02"/>
<polygon fill="midnightblue" stroke="midnightblue" points="2031.62,-149.34 2021.67,-152.97 2031.71,-156.34 2031.62,-149.34"/>
</g>
<!-- Node25&#45;&gt;Node24 -->
<g id="edge40" class="edge">
<title>Node25&#45;&gt;Node24</title>
<path fill="none" stroke="midnightblue" d="M1874.39,-143.54C1855.29,-139.91 1833.21,-136.2 1813,-134 1404.44,-89.45 1298.29,-135.25 889,-98 873.03,-96.55 855.73,-94.31 840.04,-92.02"/>
<polygon fill="midnightblue" stroke="midnightblue" points="1873.9,-147.01 1884.38,-145.48 1875.23,-140.13 1873.9,-147.01"/>
</g>
<!-- Node26 -->
<g id="node25" class="node">
<title>Node26</title>
<g id="a_node25"><a xlink:href="../../d4/d90/fvupdater_8cpp.html" target="_top" xlink:title=" ">
<polygon fill="white" stroke="black" points="2807.5,-73 2807.5,-92 2960.5,-92 2960.5,-73 2807.5,-73"/>
<text text-anchor="middle" x="2884" y="-80" font-family="Helvetica,sans-Serif" font-size="10.00">src/libs/fervor/fvupdater.cpp</text>
</a>
</g>
</g>
<!-- Node25&#45;&gt;Node26 -->
<g id="edge27" class="edge">
<title>Node25&#45;&gt;Node26</title>
<path fill="none" stroke="midnightblue" d="M2031.92,-150.74C2197.44,-144.92 2523.74,-130.2 2799,-98 2812.08,-96.47 2826.22,-94.28 2839.13,-92.06"/>
<polygon fill="midnightblue" stroke="midnightblue" points="2031.61,-147.25 2021.74,-151.1 2031.85,-154.25 2031.61,-147.25"/>
</g>
<!-- Node27 -->
<g id="node26" class="node">
<title>Node27</title>
<g id="a_node26"><a xlink:href="../../d1/d8d/image__item_8h.html" target="_top" xlink:title=" ">
<polygon fill="white" stroke="red" points="2979,-67.5 2979,-97.5 3091,-97.5 3091,-67.5 2979,-67.5"/>
<text text-anchor="start" x="2987" y="-85.5" font-family="Helvetica,sans-Serif" font-size="10.00">src/libs/tools/image</text>
<text text-anchor="middle" x="3035" y="-74.5" font-family="Helvetica,sans-Serif" font-size="10.00">_item.h</text>
</a>
</g>
</g>
<!-- Node25&#45;&gt;Node27 -->
<g id="edge28" class="edge">
<title>Node25&#45;&gt;Node27</title>
<path fill="none" stroke="midnightblue" d="M2031.86,-154.11C2222.19,-152.99 2629.72,-144.73 2970,-98 2972.86,-97.61 2975.79,-97.15 2978.73,-96.65"/>
<polygon fill="midnightblue" stroke="midnightblue" points="2031.83,-150.61 2021.85,-154.16 2031.87,-157.61 2031.83,-150.61"/>
</g>
<!-- Node37 -->
<g id="node27" class="node">
<title>Node37</title>
<g id="a_node27"><a xlink:href="../../d9/dc8/dxiface_8cpp.html" target="_top" xlink:title=" ">
<polygon fill="white" stroke="black" points="3109.5,-73 3109.5,-92 3244.5,-92 3244.5,-73 3109.5,-73"/>
<text text-anchor="middle" x="3177" y="-80" font-family="Helvetica,sans-Serif" font-size="10.00">src/libs/vdxf/dxiface.cpp</text>
</a>
</g>
</g>
<!-- Node25&#45;&gt;Node37 -->
<g id="edge30" class="edge">
<title>Node25&#45;&gt;Node37</title>
<path fill="none" stroke="midnightblue" d="M2031.72,-150.78C2281.6,-143.01 2895.02,-122.06 3100,-98 3112.29,-96.56 3125.58,-94.31 3137.59,-92.01"/>
<polygon fill="midnightblue" stroke="midnightblue" points="2031.42,-147.29 2021.54,-151.1 2031.64,-154.29 2031.42,-147.29"/>
</g>
<!-- Node38 -->
<g id="node28" class="node">
<title>Node38</title>
<g id="a_node28"><a xlink:href="../../da/d75/vabstractarc__p_8h.html" target="_top" xlink:title=" ">
<polygon fill="white" stroke="red" points="897.5,-67.5 897.5,-97.5 1004.5,-97.5 1004.5,-67.5 897.5,-67.5"/>
<text text-anchor="start" x="905.5" y="-85.5" font-family="Helvetica,sans-Serif" font-size="10.00">src/libs/vgeometry</text>
<text text-anchor="middle" x="951" y="-74.5" font-family="Helvetica,sans-Serif" font-size="10.00">/vabstractarc_p.h</text>
</a>
</g>
</g>
<!-- Node25&#45;&gt;Node38 -->
<g id="edge31" class="edge">
<title>Node25&#45;&gt;Node38</title>
<path fill="none" stroke="midnightblue" d="M1874.15,-143.56C1855.1,-139.95 1833.12,-136.26 1813,-134 1459.74,-94.4 1366.21,-146.06 1014,-98 1011,-97.59 1007.93,-97.11 1004.84,-96.57"/>
<polygon fill="midnightblue" stroke="midnightblue" points="1873.63,-147.02 1884.11,-145.49 1874.96,-140.15 1873.63,-147.02"/>
</g>
<!-- Node40 -->
<g id="node29" class="node">
<title>Node40</title>
<g id="a_node29"><a xlink:href="../../dc/da3/varc__p_8h.html" target="_top" xlink:title=" ">
<polygon fill="white" stroke="red" points="1022.5,-67.5 1022.5,-97.5 1129.5,-97.5 1129.5,-67.5 1022.5,-67.5"/>
<text text-anchor="start" x="1030.5" y="-85.5" font-family="Helvetica,sans-Serif" font-size="10.00">src/libs/vgeometry</text>
<text text-anchor="middle" x="1076" y="-74.5" font-family="Helvetica,sans-Serif" font-size="10.00">/varc_p.h</text>
</a>
</g>
</g>
<!-- Node25&#45;&gt;Node40 -->
<g id="edge32" class="edge">
<title>Node25&#45;&gt;Node40</title>
<path fill="none" stroke="midnightblue" d="M1873.67,-143.56C1854.73,-140 1832.95,-136.32 1813,-134 1517.24,-99.53 1439.18,-137.17 1144,-98 1139.33,-97.38 1134.51,-96.61 1129.69,-95.76"/>
<polygon fill="midnightblue" stroke="midnightblue" points="1873.1,-147.02 1883.59,-145.47 1874.43,-140.14 1873.1,-147.02"/>
</g>
<!-- Node42 -->
<g id="node30" class="node">
<title>Node42</title>
<g id="a_node30"><a xlink:href="../../d5/d8e/vcubicbezier__p_8h.html" target="_top" xlink:title=" ">
<polygon fill="white" stroke="red" points="1186.5,-67.5 1186.5,-97.5 1293.5,-97.5 1293.5,-67.5 1186.5,-67.5"/>
<text text-anchor="start" x="1194.5" y="-85.5" font-family="Helvetica,sans-Serif" font-size="10.00">src/libs/vgeometry</text>
<text text-anchor="middle" x="1240" y="-74.5" font-family="Helvetica,sans-Serif" font-size="10.00">/vcubicbezier_p.h</text>
</a>
</g>
</g>
<!-- Node25&#45;&gt;Node42 -->
<g id="edge33" class="edge">
<title>Node25&#45;&gt;Node42</title>
<path fill="none" stroke="midnightblue" d="M1872.95,-143.61C1854.17,-140.11 1832.68,-136.46 1813,-134 1587.52,-105.81 1527.73,-131.59 1303,-98 1299.89,-97.54 1296.71,-97 1293.51,-96.41"/>
<polygon fill="midnightblue" stroke="midnightblue" points="1872.31,-147.05 1882.78,-145.48 1873.61,-140.18 1872.31,-147.05"/>
</g>
<!-- Node44 -->
<g id="node31" class="node">
<title>Node44</title>
<g id="a_node31"><a xlink:href="../../df/dde/vellipticalarc__p_8h.html" target="_top" xlink:title=" ">
<polygon fill="white" stroke="black" points="1311.5,-67.5 1311.5,-97.5 1418.5,-97.5 1418.5,-67.5 1311.5,-67.5"/>
<text text-anchor="start" x="1319.5" y="-85.5" font-family="Helvetica,sans-Serif" font-size="10.00">src/libs/vgeometry</text>
<text text-anchor="middle" x="1365" y="-74.5" font-family="Helvetica,sans-Serif" font-size="10.00">/vellipticalarc_p.h</text>
</a>
</g>
</g>
<!-- Node25&#45;&gt;Node44 -->
<g id="edge34" class="edge">
<title>Node25&#45;&gt;Node44</title>
<path fill="none" stroke="midnightblue" d="M1871.48,-143.59C1853.04,-140.19 1832.15,-136.62 1813,-134 1642.72,-110.74 1597.67,-125.33 1428,-98 1424.9,-97.5 1421.72,-96.94 1418.52,-96.33"/>
<polygon fill="midnightblue" stroke="midnightblue" points="1870.97,-147.06 1881.44,-145.46 1872.25,-140.18 1870.97,-147.06"/>
</g>
<!-- Node45 -->
<g id="node32" class="node">
<title>Node45</title>
<g id="a_node32"><a xlink:href="../../d6/dfb/vellipticalarc_8cpp.html" target="_top" xlink:title=" ">
<polygon fill="white" stroke="black" points="1208.5,-0.5 1208.5,-30.5 1315.5,-30.5 1315.5,-0.5 1208.5,-0.5"/>
<text text-anchor="start" x="1216.5" y="-18.5" font-family="Helvetica,sans-Serif" font-size="10.00">src/libs/vgeometry</text>
<text text-anchor="middle" x="1262" y="-7.5" font-family="Helvetica,sans-Serif" font-size="10.00">/vellipticalarc.cpp</text>
</a>
</g>
</g>
<!-- Node25&#45;&gt;Node45 -->
<g id="edge36" class="edge">
<title>Node25&#45;&gt;Node45</title>
<path fill="none" stroke="midnightblue" d="M1873.67,-143.59C1854.73,-140.03 1832.95,-136.35 1813,-134 1742.82,-125.72 1226.54,-149.37 1178,-98 1154.83,-73.48 1197.03,-46.49 1229.56,-30.55"/>
<polygon fill="midnightblue" stroke="midnightblue" points="1873.1,-147.05 1883.58,-145.5 1874.42,-140.18 1873.1,-147.05"/>
</g>
<!-- Node46 -->
<g id="node33" class="node">
<title>Node46</title>
<g id="a_node33"><a xlink:href="../../d1/d76/vspline__p_8h.html" target="_top" xlink:title=" ">
<polygon fill="white" stroke="red" points="1436.5,-67.5 1436.5,-97.5 1543.5,-97.5 1543.5,-67.5 1436.5,-67.5"/>
<text text-anchor="start" x="1444.5" y="-85.5" font-family="Helvetica,sans-Serif" font-size="10.00">src/libs/vgeometry</text>
<text text-anchor="middle" x="1490" y="-74.5" font-family="Helvetica,sans-Serif" font-size="10.00">/vspline_p.h</text>
</a>
</g>
</g>
<!-- Node25&#45;&gt;Node46 -->
<g id="edge37" class="edge">
<title>Node25&#45;&gt;Node46</title>
<path fill="none" stroke="midnightblue" d="M1868.77,-143.59C1850.99,-140.36 1831.19,-136.9 1813,-134 1697.79,-115.65 1667.73,-119.1 1553,-98 1549.91,-97.43 1546.74,-96.81 1543.55,-96.16"/>
<polygon fill="midnightblue" stroke="midnightblue" points="1868.51,-147.1 1878.97,-145.46 1869.77,-140.22 1868.51,-147.1"/>
</g>
<!-- Node48 -->
<g id="node34" class="node">
<title>Node48</title>
<g id="a_node34"><a xlink:href="../../d9/d15/vabstractpiece_8cpp.html" target="_top" xlink:title=" ">
<polygon fill="white" stroke="black" points="1562,-73 1562,-92 1748,-92 1748,-73 1562,-73"/>
<text text-anchor="middle" x="1655" y="-80" font-family="Helvetica,sans-Serif" font-size="10.00">src/libs/vlayout/vabstractpiece.cpp</text>
</a>
</g>
</g>
<!-- Node25&#45;&gt;Node48 -->
<g id="edge38" class="edge">
<title>Node25&#45;&gt;Node48</title>
<path fill="none" stroke="midnightblue" d="M1881.65,-142.9C1827.86,-128.8 1736.2,-104.78 1687.56,-92.03"/>
<polygon fill="midnightblue" stroke="midnightblue" points="1880.99,-146.35 1891.55,-145.5 1882.77,-139.58 1880.99,-146.35"/>
</g>
<!-- Node49 -->
<g id="node35" class="node">
<title>Node49</title>
<g id="a_node35"><a xlink:href="../../d6/d0b/def_8cpp.html" target="_top" xlink:title=" ">
<polygon fill="white" stroke="black" points="1766,-73 1766,-92 1888,-92 1888,-73 1766,-73"/>
<text text-anchor="middle" x="1827" y="-80" font-family="Helvetica,sans-Serif" font-size="10.00">src/libs/vmisc/def.cpp</text>
</a>
</g>
</g>
<!-- Node25&#45;&gt;Node49 -->
<g id="edge41" class="edge">
<title>Node25&#45;&gt;Node49</title>
<path fill="none" stroke="midnightblue" d="M1903.86,-139.36C1884.28,-125.13 1855.19,-103.99 1838.99,-92.22"/>
<polygon fill="midnightblue" stroke="midnightblue" points="1901.96,-142.31 1912.11,-145.36 1906.07,-136.64 1901.96,-142.31"/>
</g>
<!-- Node50 -->
<g id="node36" class="node">
<title>Node50</title>
<g id="a_node36"><a xlink:href="../../db/d65/dialogexporttocsv_8cpp.html" target="_top" xlink:title=" ">
<polygon fill="white" stroke="black" points="1906.5,-67.5 1906.5,-97.5 2033.5,-97.5 2033.5,-67.5 1906.5,-67.5"/>
<text text-anchor="start" x="1914.5" y="-85.5" font-family="Helvetica,sans-Serif" font-size="10.00">src/libs/vmisc/dialogs</text>
<text text-anchor="middle" x="1970" y="-74.5" font-family="Helvetica,sans-Serif" font-size="10.00">/dialogexporttocsv.cpp</text>
</a>
</g>
</g>
<!-- Node25&#45;&gt;Node50 -->
<g id="edge42" class="edge">
<title>Node25&#45;&gt;Node50</title>
<path fill="none" stroke="midnightblue" d="M1935.3,-136.68C1943.15,-124.65 1953.47,-108.83 1960.82,-97.58"/>
<polygon fill="midnightblue" stroke="midnightblue" points="1932.17,-135.07 1929.64,-145.36 1938.04,-138.89 1932.17,-135.07"/>
</g>
<!-- Node51 -->
<g id="node37" class="node">
<title>Node51</title>
<g id="a_node37"><a xlink:href="../../d0/df6/vabstractapplication_8cpp.html" target="_top" xlink:title=" ">
<polygon fill="white" stroke="black" points="2052,-73 2052,-92 2258,-92 2258,-73 2052,-73"/>
<text text-anchor="middle" x="2155" y="-80" font-family="Helvetica,sans-Serif" font-size="10.00">src/libs/vmisc/vabstractapplication.cpp</text>
</a>
</g>
</g>
<!-- Node25&#45;&gt;Node51 -->
<g id="edge43" class="edge">
<title>Node25&#45;&gt;Node51</title>
<path fill="none" stroke="midnightblue" d="M1961.53,-142.55C2007.87,-128.4 2085.62,-104.68 2127.04,-92.03"/>
<polygon fill="midnightblue" stroke="midnightblue" points="1960.41,-139.23 1951.86,-145.5 1962.45,-145.92 1960.41,-139.23"/>
</g>
<!-- Node52 -->
<g id="node38" class="node">
<title>Node52</title>
<g id="a_node38"><a xlink:href="../../d4/d4f/pmsystems_8cpp.html" target="_top" xlink:title=" ">
<polygon fill="white" stroke="black" points="2276.5,-67.5 2276.5,-97.5 2383.5,-97.5 2383.5,-67.5 2276.5,-67.5"/>
<text text-anchor="start" x="2284.5" y="-85.5" font-family="Helvetica,sans-Serif" font-size="10.00">src/libs/vpatterndb</text>
<text text-anchor="middle" x="2330" y="-74.5" font-family="Helvetica,sans-Serif" font-size="10.00">/pmsystems.cpp</text>
</a>
</g>
</g>
<!-- Node25&#45;&gt;Node52 -->
<g id="edge44" class="edge">
<title>Node25&#45;&gt;Node52</title>
<path fill="none" stroke="midnightblue" d="M1993.33,-144.02C2062.78,-133.71 2172.62,-116.55 2267,-98 2270.08,-97.39 2273.25,-96.75 2276.43,-96.08"/>
<polygon fill="midnightblue" stroke="midnightblue" points="1992.77,-140.57 1983.39,-145.49 1993.79,-147.49 1992.77,-140.57"/>
</g>
<!-- Node25&#45;&gt;Node53 -->
<g id="edge45" class="edge">
<title>Node25&#45;&gt;Node53</title>
<path fill="none" stroke="midnightblue" d="M2031.93,-150.62C2327.26,-141.21 3134.63,-114.32 3254,-98 3256.74,-97.63 3259.53,-97.19 3262.35,-96.7"/>
<polygon fill="midnightblue" stroke="midnightblue" points="2031.53,-147.13 2021.64,-150.95 2031.75,-154.13 2031.53,-147.13"/>
</g>
<!-- Node25&#45;&gt;Node54 -->
<g id="edge46" class="edge">
<title>Node25&#45;&gt;Node54</title>
<path fill="none" stroke="midnightblue" d="M2031.69,-152.53C2322.41,-148.12 3118.73,-133.11 3379,-98 3381.74,-97.63 3384.53,-97.19 3387.35,-96.71"/>
<polygon fill="midnightblue" stroke="midnightblue" points="2031.51,-149.03 2021.57,-152.68 2031.62,-156.03 2031.51,-149.03"/>
</g>
<!-- Node55 -->
<g id="node41" class="node">
<title>Node55</title>
<g id="a_node41"><a xlink:href="../../df/dba/vpiecenode__p_8h.html" target="_top" xlink:title=" ">
<polygon fill="white" stroke="black" points="2682.5,-67.5 2682.5,-97.5 2789.5,-97.5 2789.5,-67.5 2682.5,-67.5"/>
<text text-anchor="start" x="2690.5" y="-85.5" font-family="Helvetica,sans-Serif" font-size="10.00">src/libs/vpatterndb</text>
<text text-anchor="middle" x="2736" y="-74.5" font-family="Helvetica,sans-Serif" font-size="10.00">/vpiecenode_p.h</text>
</a>
</g>
</g>
<!-- Node25&#45;&gt;Node55 -->
<g id="edge47" class="edge">
<title>Node25&#45;&gt;Node55</title>
<path fill="none" stroke="midnightblue" d="M2032.09,-151.06C2178.2,-145.91 2446.53,-132.33 2673,-98 2676.11,-97.53 2679.29,-96.99 2682.49,-96.4"/>
<polygon fill="midnightblue" stroke="midnightblue" points="2031.66,-147.57 2021.78,-151.41 2031.9,-154.57 2031.66,-147.57"/>
</g>
<!-- Node25&#45;&gt;Node57 -->
<g id="edge49" class="edge">
<title>Node25&#45;&gt;Node57</title>
<path fill="none" stroke="midnightblue" d="M1845.97,-144.32C1812.47,-140.51 1772.87,-136.46 1737,-134 1213.99,-98.1 1077.93,-165.11 558,-98 554.99,-97.61 551.92,-97.14 548.83,-96.62"/>
<polygon fill="midnightblue" stroke="midnightblue" points="1845.82,-147.82 1856.16,-145.49 1846.62,-140.87 1845.82,-147.82"/>
</g>
<!-- Node58 -->
<g id="node44" class="node">
<title>Node58</title>
<g id="a_node44"><a xlink:href="../../de/d3e/vtranslatevars_8cpp.html" target="_top" xlink:title=" ">
<polygon fill="white" stroke="black" points="2402,-67.5 2402,-97.5 2512,-97.5 2512,-67.5 2402,-67.5"/>
<text text-anchor="start" x="2410" y="-85.5" font-family="Helvetica,sans-Serif" font-size="10.00">src/libs/vpatterndb</text>
<text text-anchor="middle" x="2457" y="-74.5" font-family="Helvetica,sans-Serif" font-size="10.00">/vtranslatevars.cpp</text>
</a>
</g>
</g>
<!-- Node25&#45;&gt;Node58 -->
<g id="edge50" class="edge">
<title>Node25&#45;&gt;Node58</title>
<path fill="none" stroke="midnightblue" d="M2030.31,-144.49C2125.67,-135.2 2269.23,-119.35 2393,-98 2395.92,-97.5 2398.91,-96.95 2401.91,-96.36"/>
<polygon fill="midnightblue" stroke="midnightblue" points="2029.7,-141.03 2020.09,-145.48 2030.38,-148 2029.7,-141.03"/>
</g>
<!-- Node59 -->
<g id="node45" class="node">
<title>Node59</title>
<g id="a_node45"><a xlink:href="../../d3/d4f/mouse__coordinates_8cpp.html" target="_top" xlink:title=" ">
<polygon fill="white" stroke="black" points="2530,-67.5 2530,-97.5 2664,-97.5 2664,-67.5 2530,-67.5"/>
<text text-anchor="start" x="2538" y="-85.5" font-family="Helvetica,sans-Serif" font-size="10.00">src/libs/vwidgets/mouse</text>
<text text-anchor="middle" x="2597" y="-74.5" font-family="Helvetica,sans-Serif" font-size="10.00">_coordinates.cpp</text>
</a>
</g>
</g>
<!-- Node25&#45;&gt;Node59 -->
<g id="edge51" class="edge">
<title>Node25&#45;&gt;Node59</title>
<path fill="none" stroke="midnightblue" d="M2031.81,-146.98C2151.64,-138.46 2350.75,-122.17 2521,-98 2523.93,-97.58 2526.91,-97.13 2529.92,-96.66"/>
<polygon fill="midnightblue" stroke="midnightblue" points="2031.26,-143.51 2021.53,-147.71 2031.76,-150.5 2031.26,-143.51"/>
</g>
<!-- Node44&#45;&gt;Node45 -->
<g id="edge35" class="edge">
<title>Node44&#45;&gt;Node45</title>
<path fill="none" stroke="midnightblue" d="M1334.12,-62.02C1318.1,-51.9 1298.87,-39.77 1284.31,-30.58"/>
<polygon fill="midnightblue" stroke="midnightblue" points="1332.33,-65.02 1342.65,-67.4 1336.06,-59.1 1332.33,-65.02"/>
</g>
<!-- Node55&#45;&gt;Node56 -->
<g id="edge48" class="edge">
<title>Node55&#45;&gt;Node56</title>
<path fill="none" stroke="midnightblue" d="M2799.55,-66.98C2902.99,-47.45 3011.92,-31.97 3075.35,-23.46"/>
<polygon fill="midnightblue" stroke="midnightblue" points="2798.73,-63.58 2789.56,-68.89 2800.04,-70.45 2798.73,-63.58"/>
</g>
</g>
</svg>
