<?xml version="1.0" encoding="UTF-8" standalone="no"?>
<!DOCTYPE svg PUBLIC "-//W3C//DTD SVG 1.1//EN"
 "http://www.w3.org/Graphics/SVG/1.1/DTD/svg11.dtd">
<!-- Generated by graphviz version 2.43.0 (0)
 -->
<!-- Title: src/libs/ifc/xml/vtoolrecord.h Pages: 1 -->
<!--zoomable 274 -->
<svg id="main" version="1.1" xmlns="http://www.w3.org/2000/svg" xmlns:xlink="http://www.w3.org/1999/xlink" xml:space="preserve" onload="init(evt)">
<style type="text/css"><![CDATA[
.edge:hover path { stroke: red; }
.edge:hover polygon { stroke: red; fill: red; }
]]></style>
<script type="text/javascript"><![CDATA[
var edges = document.getElementsByTagName('g');
if (edges && edges.length) {
  for (var i=0;i<edges.length;i++) {
    if (edges[i].id.substr(0,4)=='edge') {
      edges[i].setAttribute('class','edge');
    }
  }
}
]]></script>
        <defs>
                <circle id="rim" cx="0" cy="0" r="7"/>
                <circle id="rim2" cx="0" cy="0" r="3.5"/>
                <g id="zoomPlus">
                        <use xlink:href="#rim" fill="#404040">
                                <set attributeName="fill" to="#808080" begin="zoomplus.mouseover" end="zoomplus.mouseout"/>
                        </use>
                        <path d="M-4,0h8M0,-4v8" fill="none" stroke="white" stroke-width="1.5" pointer-events="none"/>
                </g>
                <g id="zoomMin">
                        <use xlink:href="#rim" fill="#404040">
                                <set attributeName="fill" to="#808080" begin="zoomminus.mouseover" end="zoomminus.mouseout"/>
                        </use>
                        <path d="M-4,0h8" fill="none" stroke="white" stroke-width="1.5" pointer-events="none"/>
                </g>
                <g id="dirArrow">
                        <path fill="none" stroke="white" stroke-width="1.5" d="M0,-3.0v7 M-2.5,-0.5L0,-3.0L2.5,-0.5"/>
                </g>
               <g id="resetDef">
                       <use xlink:href="#rim2" fill="#404040">
                               <set attributeName="fill" to="#808080" begin="reset.mouseover" end="reset.mouseout"/>
                       </use>
               </g>
        </defs>

<script type="text/javascript">
var viewWidth = 1781;
var viewHeight = 274;
var sectionId = 'dynsection-1';
</script>
<script xlink:href="../../svgpan.js"/>
<svg id="graph" class="graph">
<g id="viewport">
<title>src/libs/ifc/xml/vtoolrecord.h</title>
<polygon fill="white" stroke="transparent" points="-4,4 -4,-270 1777,-270 1777,4 -4,4"/>
<!-- Node1 -->
<g id="node1" class="node">
<title>Node1</title>
<g id="a_node1"><a xlink:title=" ">
<polygon fill="#bfbfbf" stroke="black" points="956.5,-246.5 956.5,-265.5 1111.5,-265.5 1111.5,-246.5 956.5,-246.5"/>
<text text-anchor="middle" x="1034" y="-253.5" font-family="Helvetica,sans-Serif" font-size="10.00">src/libs/ifc/xml/vtoolrecord.h</text>
</a>
</g>
</g>
<!-- Node2 -->
<g id="node2" class="node">
<title>Node2</title>
<g id="a_node2"><a xlink:href="../../d0/d89/vabstractpattern_8h.html" target="_top" xlink:title=" ">
<polygon fill="white" stroke="black" points="943.5,-190.5 943.5,-209.5 1124.5,-209.5 1124.5,-190.5 943.5,-190.5"/>
<text text-anchor="middle" x="1034" y="-197.5" font-family="Helvetica,sans-Serif" font-size="10.00">src/libs/ifc/xml/vabstractpattern.h</text>
</a>
</g>
</g>
<!-- Node1&#45;&gt;Node2 -->
<g id="edge1" class="edge">
<title>Node1&#45;&gt;Node2</title>
<path fill="none" stroke="midnightblue" d="M1034,-235.8C1034,-226.91 1034,-216.78 1034,-209.75"/>
<polygon fill="midnightblue" stroke="midnightblue" points="1030.5,-236.08 1034,-246.08 1037.5,-236.08 1030.5,-236.08"/>
</g>
<!-- Node3 -->
<g id="node3" class="node">
<title>Node3</title>
<g id="a_node3"><a xlink:href="../../de/d7d/vabstractpattern_8cpp.html" target="_top" xlink:title=" ">
<polygon fill="white" stroke="black" points="419,-129 419,-148 611,-148 611,-129 419,-129"/>
<text text-anchor="middle" x="515" y="-136" font-family="Helvetica,sans-Serif" font-size="10.00">src/libs/ifc/xml/vabstractpattern.cpp</text>
</a>
</g>
</g>
<!-- Node1&#45;&gt;Node3 -->
<g id="edge24" class="edge">
<title>Node1&#45;&gt;Node3</title>
<path fill="none" stroke="midnightblue" d="M985.65,-244.24C883.28,-221.46 646.48,-168.76 553.49,-148.06"/>
<polygon fill="midnightblue" stroke="midnightblue" points="984.89,-247.66 995.41,-246.41 986.41,-240.82 984.89,-247.66"/>
</g>
<!-- Node22 -->
<g id="node22" class="node">
<title>Node22</title>
<g id="a_node22"><a xlink:href="../../d6/d6f/vtoolrecord_8cpp.html" target="_top" xlink:title=" ">
<polygon fill="white" stroke="black" points="1142.5,-190.5 1142.5,-209.5 1309.5,-209.5 1309.5,-190.5 1142.5,-190.5"/>
<text text-anchor="middle" x="1226" y="-197.5" font-family="Helvetica,sans-Serif" font-size="10.00">src/libs/ifc/xml/vtoolrecord.cpp</text>
</a>
</g>
</g>
<!-- Node1&#45;&gt;Node22 -->
<g id="edge23" class="edge">
<title>Node1&#45;&gt;Node22</title>
<path fill="none" stroke="midnightblue" d="M1074.18,-243.7C1110.42,-233.51 1162.91,-218.74 1195.72,-209.52"/>
<polygon fill="midnightblue" stroke="midnightblue" points="1073.1,-240.37 1064.42,-246.44 1075,-247.11 1073.1,-240.37"/>
</g>
<!-- Node2&#45;&gt;Node3 -->
<g id="edge2" class="edge">
<title>Node2&#45;&gt;Node3</title>
<path fill="none" stroke="midnightblue" d="M939.05,-189.47C855.08,-180.85 729.29,-167.48 620,-154 605.21,-152.17 589.26,-150.05 574.38,-148.01"/>
<polygon fill="midnightblue" stroke="midnightblue" points="938.77,-192.96 949.08,-190.5 939.49,-185.99 938.77,-192.96"/>
</g>
<!-- Node4 -->
<g id="node4" class="node">
<title>Node4</title>
<g id="a_node4"><a xlink:href="../../d2/d47/image__dialog_8cpp.html" target="_top" xlink:title=" ">
<polygon fill="white" stroke="black" points="629,-123.5 629,-153.5 741,-153.5 741,-123.5 629,-123.5"/>
<text text-anchor="start" x="637" y="-141.5" font-family="Helvetica,sans-Serif" font-size="10.00">src/libs/tools/image</text>
<text text-anchor="middle" x="685" y="-130.5" font-family="Helvetica,sans-Serif" font-size="10.00">_dialog.cpp</text>
</a>
</g>
</g>
<!-- Node2&#45;&gt;Node4 -->
<g id="edge3" class="edge">
<title>Node2&#45;&gt;Node4</title>
<path fill="none" stroke="midnightblue" d="M963.06,-189.01C905.48,-180.61 822.28,-167.77 750,-154 747.16,-153.46 744.26,-152.89 741.33,-152.29"/>
<polygon fill="midnightblue" stroke="midnightblue" points="962.75,-192.5 973.15,-190.48 963.75,-185.58 962.75,-192.5"/>
</g>
<!-- Node5 -->
<g id="node5" class="node">
<title>Node5</title>
<g id="a_node5"><a xlink:href="../../d6/de0/vlayoutpiece_8h.html" target="_top" xlink:title=" ">
<polygon fill="white" stroke="black" points="759,-129 759,-148 925,-148 925,-129 759,-129"/>
<text text-anchor="middle" x="842" y="-136" font-family="Helvetica,sans-Serif" font-size="10.00">src/libs/vlayout/vlayoutpiece.h</text>
</a>
</g>
</g>
<!-- Node2&#45;&gt;Node5 -->
<g id="edge4" class="edge">
<title>Node2&#45;&gt;Node5</title>
<path fill="none" stroke="midnightblue" d="M996.51,-187.38C959.19,-175.82 902.8,-158.34 869.46,-148.01"/>
<polygon fill="midnightblue" stroke="midnightblue" points="995.9,-190.86 1006.49,-190.48 997.98,-184.17 995.9,-190.86"/>
</g>
<!-- Node15 -->
<g id="node15" class="node">
<title>Node15</title>
<g id="a_node15"><a xlink:href="../../d8/d70/vtextmanager_8cpp.html" target="_top" xlink:title=" ">
<polygon fill="white" stroke="black" points="943,-129 943,-148 1125,-148 1125,-129 943,-129"/>
<text text-anchor="middle" x="1034" y="-136" font-family="Helvetica,sans-Serif" font-size="10.00">src/libs/vlayout/vtextmanager.cpp</text>
</a>
</g>
</g>
<!-- Node2&#45;&gt;Node15 -->
<g id="edge16" class="edge">
<title>Node2&#45;&gt;Node15</title>
<path fill="none" stroke="midnightblue" d="M1034,-180.32C1034,-169.5 1034,-156.4 1034,-148.01"/>
<polygon fill="midnightblue" stroke="midnightblue" points="1030.5,-180.48 1034,-190.48 1037.5,-180.48 1030.5,-180.48"/>
</g>
<!-- Node16 -->
<g id="node16" class="node">
<title>Node16</title>
<g id="a_node16"><a xlink:href="../../d7/df4/group__tablewidgetitem_8cpp.html" target="_top" xlink:title=" ">
<polygon fill="white" stroke="black" points="1143.5,-123.5 1143.5,-153.5 1272.5,-153.5 1272.5,-123.5 1143.5,-123.5"/>
<text text-anchor="start" x="1151.5" y="-141.5" font-family="Helvetica,sans-Serif" font-size="10.00">src/libs/vwidgets/group</text>
<text text-anchor="middle" x="1208" y="-130.5" font-family="Helvetica,sans-Serif" font-size="10.00">_tablewidgetitem.cpp</text>
</a>
</g>
</g>
<!-- Node2&#45;&gt;Node16 -->
<g id="edge17" class="edge">
<title>Node2&#45;&gt;Node16</title>
<path fill="none" stroke="midnightblue" d="M1068.42,-187.23C1096.75,-177.54 1136.99,-163.78 1166.99,-153.52"/>
<polygon fill="midnightblue" stroke="midnightblue" points="1067.26,-183.93 1058.93,-190.48 1069.52,-190.55 1067.26,-183.93"/>
</g>
<!-- Node17 -->
<g id="node17" class="node">
<title>Node17</title>
<g id="a_node17"><a xlink:href="../../d0/da5/export__format__combobox_8h.html" target="_top" xlink:title=" ">
<polygon fill="white" stroke="black" points="1290.5,-123.5 1290.5,-153.5 1423.5,-153.5 1423.5,-123.5 1290.5,-123.5"/>
<text text-anchor="start" x="1298.5" y="-141.5" font-family="Helvetica,sans-Serif" font-size="10.00">src/libs/vwidgets/export</text>
<text text-anchor="middle" x="1357" y="-130.5" font-family="Helvetica,sans-Serif" font-size="10.00">_format_combobox.h</text>
</a>
</g>
</g>
<!-- Node2&#45;&gt;Node17 -->
<g id="edge18" class="edge">
<title>Node2&#45;&gt;Node17</title>
<path fill="none" stroke="midnightblue" d="M1091.36,-188.69C1141.44,-179.65 1216.06,-166.11 1281,-154 1284.04,-153.43 1287.14,-152.85 1290.28,-152.26"/>
<polygon fill="midnightblue" stroke="midnightblue" points="1090.59,-185.27 1081.37,-190.49 1091.84,-192.16 1090.59,-185.27"/>
</g>
<!-- Node19 -->
<g id="node19" class="node">
<title>Node19</title>
<g id="a_node19"><a xlink:href="../../d3/d86/page__format__combobox_8h.html" target="_top" xlink:title=" ">
<polygon fill="white" stroke="black" points="1441.5,-123.5 1441.5,-153.5 1566.5,-153.5 1566.5,-123.5 1441.5,-123.5"/>
<text text-anchor="start" x="1449.5" y="-141.5" font-family="Helvetica,sans-Serif" font-size="10.00">src/libs/vwidgets/page</text>
<text text-anchor="middle" x="1504" y="-130.5" font-family="Helvetica,sans-Serif" font-size="10.00">_format_combobox.h</text>
</a>
</g>
</g>
<!-- Node2&#45;&gt;Node19 -->
<g id="edge20" class="edge">
<title>Node2&#45;&gt;Node19</title>
<path fill="none" stroke="midnightblue" d="M1127.29,-189.45C1226.28,-179.14 1376.08,-163 1433,-154 1435.73,-153.57 1438.52,-153.1 1441.34,-152.61"/>
<polygon fill="midnightblue" stroke="midnightblue" points="1126.87,-185.98 1117.28,-190.49 1127.59,-192.94 1126.87,-185.98"/>
</g>
<!-- Node21 -->
<g id="node21" class="node">
<title>Node21</title>
<g id="a_node21"><a xlink:href="../../de/d22/vsimplecurve_8cpp.html" target="_top" xlink:title=" ">
<polygon fill="white" stroke="black" points="1585,-129 1585,-148 1773,-148 1773,-129 1585,-129"/>
<text text-anchor="middle" x="1679" y="-136" font-family="Helvetica,sans-Serif" font-size="10.00">src/libs/vwidgets/vsimplecurve.cpp</text>
</a>
</g>
</g>
<!-- Node2&#45;&gt;Node21 -->
<g id="edge22" class="edge">
<title>Node2&#45;&gt;Node21</title>
<path fill="none" stroke="midnightblue" d="M1134.73,-189.86C1331.51,-173.14 1382.93,-175.42 1576,-154 1591.26,-152.31 1607.74,-150.14 1622.95,-148"/>
<polygon fill="midnightblue" stroke="midnightblue" points="1134.3,-186.39 1124.63,-190.73 1134.9,-193.36 1134.3,-186.39"/>
</g>
<!-- Node6 -->
<g id="node6" class="node">
<title>Node6</title>
<g id="a_node6"><a xlink:href="../../dd/d66/vdxfengine_8cpp.html" target="_top" xlink:title=" ">
<polygon fill="white" stroke="black" points="0,-62 0,-81 154,-81 154,-62 0,-62"/>
<text text-anchor="middle" x="77" y="-69" font-family="Helvetica,sans-Serif" font-size="10.00">src/libs/vdxf/vdxfengine.cpp</text>
</a>
</g>
</g>
<!-- Node5&#45;&gt;Node6 -->
<g id="edge5" class="edge">
<title>Node5&#45;&gt;Node6</title>
<path fill="none" stroke="midnightblue" d="M783.4,-127.41C772.33,-125.75 760.83,-124.18 750,-123 490.17,-94.62 422.68,-116.77 163,-87 149.61,-85.47 135.14,-83.24 121.95,-81"/>
<polygon fill="midnightblue" stroke="midnightblue" points="783,-130.89 793.41,-128.96 784.07,-123.97 783,-130.89"/>
</g>
<!-- Node7 -->
<g id="node7" class="node">
<title>Node7</title>
<g id="a_node7"><a xlink:href="../../de/da8/vbank_8cpp.html" target="_top" xlink:title=" ">
<polygon fill="white" stroke="black" points="172,-62 172,-81 316,-81 316,-62 172,-62"/>
<text text-anchor="middle" x="244" y="-69" font-family="Helvetica,sans-Serif" font-size="10.00">src/libs/vlayout/vbank.cpp</text>
</a>
</g>
</g>
<!-- Node5&#45;&gt;Node7 -->
<g id="edge6" class="edge">
<title>Node5&#45;&gt;Node7</title>
<path fill="none" stroke="midnightblue" d="M781.92,-127.39C771.3,-125.79 760.34,-124.25 750,-123 561.81,-100.23 512.95,-111.73 325,-87 312.82,-85.4 299.68,-83.24 287.6,-81.07"/>
<polygon fill="midnightblue" stroke="midnightblue" points="781.54,-130.88 791.96,-128.94 782.61,-123.96 781.54,-130.88"/>
</g>
<!-- Node8 -->
<g id="node8" class="node">
<title>Node8</title>
<g id="a_node8"><a xlink:href="../../df/d5d/vcontour_8cpp.html" target="_top" xlink:title=" ">
<polygon fill="white" stroke="black" points="334,-62 334,-81 490,-81 490,-62 334,-62"/>
<text text-anchor="middle" x="412" y="-69" font-family="Helvetica,sans-Serif" font-size="10.00">src/libs/vlayout/vcontour.cpp</text>
</a>
</g>
</g>
<!-- Node5&#45;&gt;Node8 -->
<g id="edge7" class="edge">
<title>Node5&#45;&gt;Node8</title>
<path fill="none" stroke="midnightblue" d="M778.62,-127.39C769.03,-125.9 759.26,-124.39 750,-123 638.56,-106.23 610.37,-104.26 499,-87 487.05,-85.15 474.18,-83.06 462.11,-81.05"/>
<polygon fill="midnightblue" stroke="midnightblue" points="778.09,-130.85 788.51,-128.94 779.17,-123.94 778.09,-130.85"/>
</g>
<!-- Node9 -->
<g id="node9" class="node">
<title>Node9</title>
<g id="a_node9"><a xlink:href="../../d3/d39/vlayoutgenerator_8cpp.html" target="_top" xlink:title=" ">
<polygon fill="white" stroke="black" points="508.5,-62 508.5,-81 705.5,-81 705.5,-62 508.5,-62"/>
<text text-anchor="middle" x="607" y="-69" font-family="Helvetica,sans-Serif" font-size="10.00">src/libs/vlayout/vlayoutgenerator.cpp</text>
</a>
</g>
</g>
<!-- Node5&#45;&gt;Node9 -->
<g id="edge8" class="edge">
<title>Node5&#45;&gt;Node9</title>
<path fill="none" stroke="midnightblue" d="M801.05,-126.17C754.58,-113.32 679.82,-92.64 637.96,-81.06"/>
<polygon fill="midnightblue" stroke="midnightblue" points="800.22,-129.58 810.79,-128.87 802.09,-122.83 800.22,-129.58"/>
</g>
<!-- Node10 -->
<g id="node10" class="node">
<title>Node10</title>
<g id="a_node10"><a xlink:href="../../d2/d2d/vlayoutpaper__p_8h.html" target="_top" xlink:title=" ">
<polygon fill="white" stroke="black" points="723.5,-62 723.5,-81 902.5,-81 902.5,-62 723.5,-62"/>
<text text-anchor="middle" x="813" y="-69" font-family="Helvetica,sans-Serif" font-size="10.00">src/libs/vlayout/vlayoutpaper_p.h</text>
</a>
</g>
</g>
<!-- Node5&#45;&gt;Node10 -->
<g id="edge9" class="edge">
<title>Node5&#45;&gt;Node10</title>
<path fill="none" stroke="midnightblue" d="M833.88,-119.29C828.31,-106.81 821.17,-90.81 816.85,-81.13"/>
<polygon fill="midnightblue" stroke="midnightblue" points="830.82,-121.03 838.09,-128.73 837.21,-118.18 830.82,-121.03"/>
</g>
<!-- Node11 -->
<g id="node11" class="node">
<title>Node11</title>
<g id="a_node11"><a xlink:href="../../d1/dd1/vlayoutpaper_8cpp.html" target="_top" xlink:title=" ">
<polygon fill="white" stroke="black" points="800,-0.5 800,-19.5 978,-19.5 978,-0.5 800,-0.5"/>
<text text-anchor="middle" x="889" y="-7.5" font-family="Helvetica,sans-Serif" font-size="10.00">src/libs/vlayout/vlayoutpaper.cpp</text>
</a>
</g>
</g>
<!-- Node5&#45;&gt;Node11 -->
<g id="edge11" class="edge">
<title>Node5&#45;&gt;Node11</title>
<path fill="none" stroke="midnightblue" d="M871.4,-124.2C886.16,-115.82 902.66,-103.44 911,-87 922.56,-64.22 905.71,-34.42 895.63,-19.83"/>
<polygon fill="midnightblue" stroke="midnightblue" points="869.71,-121.14 862.51,-128.91 872.99,-127.32 869.71,-121.14"/>
</g>
<!-- Node12 -->
<g id="node12" class="node">
<title>Node12</title>
<g id="a_node12"><a xlink:href="../../db/d5c/vposition_8h.html" target="_top" xlink:title=" ">
<polygon fill="white" stroke="black" points="959,-62 959,-81 1107,-81 1107,-62 959,-62"/>
<text text-anchor="middle" x="1033" y="-69" font-family="Helvetica,sans-Serif" font-size="10.00">src/libs/vlayout/vposition.h</text>
</a>
</g>
</g>
<!-- Node5&#45;&gt;Node12 -->
<g id="edge12" class="edge">
<title>Node5&#45;&gt;Node12</title>
<path fill="none" stroke="midnightblue" d="M876.96,-125.6C914.83,-112.71 974.31,-92.47 1007.84,-81.06"/>
<polygon fill="midnightblue" stroke="midnightblue" points="875.7,-122.33 867.36,-128.87 877.96,-128.96 875.7,-122.33"/>
</g>
<!-- Node14 -->
<g id="node14" class="node">
<title>Node14</title>
<g id="a_node14"><a xlink:href="../../dd/d70/vlayoutpiece_8cpp.html" target="_top" xlink:title=" ">
<polygon fill="white" stroke="black" points="1125.5,-62 1125.5,-81 1302.5,-81 1302.5,-62 1125.5,-62"/>
<text text-anchor="middle" x="1214" y="-69" font-family="Helvetica,sans-Serif" font-size="10.00">src/libs/vlayout/vlayoutpiece.cpp</text>
</a>
</g>
</g>
<!-- Node5&#45;&gt;Node14 -->
<g id="edge15" class="edge">
<title>Node5&#45;&gt;Node14</title>
<path fill="none" stroke="midnightblue" d="M900.98,-127.19C974.04,-114.43 1097.16,-92.92 1165.17,-81.03"/>
<polygon fill="midnightblue" stroke="midnightblue" points="900.26,-123.77 891.02,-128.94 901.47,-130.66 900.26,-123.77"/>
</g>
<!-- Node10&#45;&gt;Node11 -->
<g id="edge10" class="edge">
<title>Node10&#45;&gt;Node11</title>
<path fill="none" stroke="midnightblue" d="M831.78,-55.79C846.36,-44.38 866.06,-28.96 878.13,-19.51"/>
<polygon fill="midnightblue" stroke="midnightblue" points="829.61,-53.05 823.89,-61.98 833.92,-58.57 829.61,-53.05"/>
</g>
<!-- Node12&#45;&gt;Node11 -->
<g id="edge13" class="edge">
<title>Node12&#45;&gt;Node11</title>
<path fill="none" stroke="midnightblue" d="M1003.07,-58.13C975.09,-46.57 934.06,-29.62 909.59,-19.51"/>
<polygon fill="midnightblue" stroke="midnightblue" points="1001.79,-61.39 1012.37,-61.98 1004.46,-54.92 1001.79,-61.39"/>
</g>
<!-- Node13 -->
<g id="node13" class="node">
<title>Node13</title>
<g id="a_node13"><a xlink:href="../../df/d76/vposition_8cpp.html" target="_top" xlink:title=" ">
<polygon fill="white" stroke="black" points="995.5,-0.5 995.5,-19.5 1154.5,-19.5 1154.5,-0.5 995.5,-0.5"/>
<text text-anchor="middle" x="1075" y="-7.5" font-family="Helvetica,sans-Serif" font-size="10.00">src/libs/vlayout/vposition.cpp</text>
</a>
</g>
</g>
<!-- Node12&#45;&gt;Node13 -->
<g id="edge14" class="edge">
<title>Node12&#45;&gt;Node13</title>
<path fill="none" stroke="midnightblue" d="M1045,-53.51C1052.84,-42.39 1062.76,-28.34 1068.99,-19.51"/>
<polygon fill="midnightblue" stroke="midnightblue" points="1041.93,-51.79 1039.02,-61.98 1047.64,-55.82 1041.93,-51.79"/>
</g>
<!-- Node18 -->
<g id="node18" class="node">
<title>Node18</title>
<g id="a_node18"><a xlink:href="../../df/d40/export__format__combobox_8cpp.html" target="_top" xlink:title=" ">
<polygon fill="white" stroke="black" points="1320.5,-56.5 1320.5,-86.5 1453.5,-86.5 1453.5,-56.5 1320.5,-56.5"/>
<text text-anchor="start" x="1328.5" y="-74.5" font-family="Helvetica,sans-Serif" font-size="10.00">src/libs/vwidgets/export</text>
<text text-anchor="middle" x="1387" y="-63.5" font-family="Helvetica,sans-Serif" font-size="10.00">_format_combobox.cpp</text>
</a>
</g>
</g>
<!-- Node17&#45;&gt;Node18 -->
<g id="edge19" class="edge">
<title>Node17&#45;&gt;Node18</title>
<path fill="none" stroke="midnightblue" d="M1367.72,-114.28C1371.99,-105.02 1376.77,-94.66 1380.5,-86.58"/>
<polygon fill="midnightblue" stroke="midnightblue" points="1364.52,-112.85 1363.51,-123.4 1370.88,-115.78 1364.52,-112.85"/>
</g>
<!-- Node20 -->
<g id="node20" class="node">
<title>Node20</title>
<g id="a_node20"><a xlink:href="../../d2/d28/page__format__combobox_8cpp.html" target="_top" xlink:title=" ">
<polygon fill="white" stroke="black" points="1471.5,-56.5 1471.5,-86.5 1602.5,-86.5 1602.5,-56.5 1471.5,-56.5"/>
<text text-anchor="start" x="1479.5" y="-74.5" font-family="Helvetica,sans-Serif" font-size="10.00">src/libs/vwidgets/page</text>
<text text-anchor="middle" x="1537" y="-63.5" font-family="Helvetica,sans-Serif" font-size="10.00">_format_combobox.cpp</text>
</a>
</g>
</g>
<!-- Node19&#45;&gt;Node20 -->
<g id="edge21" class="edge">
<title>Node19&#45;&gt;Node20</title>
<path fill="none" stroke="midnightblue" d="M1515.79,-114.28C1520.49,-105.02 1525.75,-94.66 1529.85,-86.58"/>
<polygon fill="midnightblue" stroke="midnightblue" points="1512.57,-112.89 1511.16,-123.4 1518.81,-116.06 1512.57,-112.89"/>
</g>
</g>
</svg>
        <g id="navigator" transform="translate(0 0)" fill="#404254">
                <rect fill="#f2f5e9" fill-opacity="0.5" stroke="#606060" stroke-width=".5" x="0" y="0" width="60" height="60"/>
                <use id="zoomplus" xlink:href="#zoomPlus" x="17" y="9" onmousedown="handleZoom(evt,'in')"/>
                <use id="zoomminus" xlink:href="#zoomMin" x="42" y="9" onmousedown="handleZoom(evt,'out')"/>
                <use id="reset" xlink:href="#resetDef" x="30" y="36" onmousedown="handleReset()"/>
                <g id="arrowUp" xlink:href="#dirArrow" transform="translate(30 24)" onmousedown="handlePan(0,-1)">
                  <use xlink:href="#rim" fill="#404040">
                        <set attributeName="fill" to="#808080" begin="arrowUp.mouseover" end="arrowUp.mouseout"/>
                  </use>
                  <path fill="none" stroke="white" stroke-width="1.5" d="M0,-3.0v7 M-2.5,-0.5L0,-3.0L2.5,-0.5"/>
                </g>
                <g id="arrowRight" xlink:href="#dirArrow" transform="rotate(90) translate(36 -43)" onmousedown="handlePan(1,0)">
                  <use xlink:href="#rim" fill="#404040">
                        <set attributeName="fill" to="#808080" begin="arrowRight.mouseover" end="arrowRight.mouseout"/>
                  </use>
                  <path fill="none" stroke="white" stroke-width="1.5" d="M0,-3.0v7 M-2.5,-0.5L0,-3.0L2.5,-0.5"/>
                </g>
                <g id="arrowDown" xlink:href="#dirArrow" transform="rotate(180) translate(-30 -48)" onmousedown="handlePan(0,1)">
                  <use xlink:href="#rim" fill="#404040">
                        <set attributeName="fill" to="#808080" begin="arrowDown.mouseover" end="arrowDown.mouseout"/>
                  </use>
                  <path fill="none" stroke="white" stroke-width="1.5" d="M0,-3.0v7 M-2.5,-0.5L0,-3.0L2.5,-0.5"/>
                </g>
                <g id="arrowLeft" xlink:href="#dirArrow" transform="rotate(270) translate(-36 17)" onmousedown="handlePan(-1,0)">
                  <use xlink:href="#rim" fill="#404040">
                        <set attributeName="fill" to="#808080" begin="arrowLeft.mouseover" end="arrowLeft.mouseout"/>
                  </use>
                  <path fill="none" stroke="white" stroke-width="1.5" d="M0,-3.0v7 M-2.5,-0.5L0,-3.0L2.5,-0.5"/>
                </g>
        </g>
        <svg viewBox="0 0 15 15" width="100%" height="30px" preserveAspectRatio="xMaxYMin meet">
         <g id="arrow_out" transform="scale(0.3 0.3)">
          <a xlink:href="vtoolrecord_8h__dep__incl_org.svg" target="_base">
           <rect id="button" ry="5" rx="5" y="6" x="6" height="38" width="38"
                fill="#f2f5e9" fill-opacity="0.5" stroke="#606060" stroke-width="1.0"/>
           <path id="arrow"
             d="M 11.500037,31.436501 C 11.940474,20.09759 22.043105,11.32322 32.158766,21.979434 L 37.068811,17.246167 C 37.068811,17.246167 37.088388,32 37.088388,32 L 22.160133,31.978069 C 22.160133,31.978069 26.997745,27.140456 26.997745,27.140456 C 18.528582,18.264221 13.291696,25.230495 11.500037,31.436501 z"
             style="fill:#404040;"/>
          </a>
         </g>
        </svg>
</svg>
