<?xml version="1.0" encoding="UTF-8" standalone="no"?>
<!DOCTYPE svg PUBLIC "-//W3C//DTD SVG 1.1//EN"
 "http://www.w3.org/Graphics/SVG/1.1/DTD/svg11.dtd">
<!-- Generated by graphviz version 2.43.0 (0)
 -->
<!-- Title: src/libs/tools/image_item.h Pages: 1 -->
<svg width="1300pt" height="274pt"
 viewBox="0.00 0.00 1299.50 274.00" xmlns="http://www.w3.org/2000/svg" xmlns:xlink="http://www.w3.org/1999/xlink">
<g id="graph0" class="graph" transform="scale(1 1) rotate(0) translate(4 270)">
<title>src/libs/tools/image_item.h</title>
<polygon fill="white" stroke="transparent" points="-4,4 -4,-270 1295.5,-270 1295.5,4 -4,4"/>
<!-- Node1 -->
<g id="node1" class="node">
<title>Node1</title>
<g id="a_node1"><a xlink:title=" ">
<polygon fill="#bfbfbf" stroke="black" points="663,-235.5 663,-265.5 775,-265.5 775,-235.5 663,-235.5"/>
<text text-anchor="start" x="671" y="-253.5" font-family="Helvetica,sans-Serif" font-size="10.00">src/libs/tools/image</text>
<text text-anchor="middle" x="719" y="-242.5" font-family="Helvetica,sans-Serif" font-size="10.00">_item.h</text>
</a>
</g>
</g>
<!-- Node2 -->
<g id="node2" class="node">
<title>Node2</title>
<g id="a_node2"><a xlink:title=" ">
<polygon fill="white" stroke="#bfbfbf" points="0,-56.5 0,-75.5 120,-75.5 120,-56.5 0,-56.5"/>
<text text-anchor="middle" x="60" y="-63.5" font-family="Helvetica,sans-Serif" font-size="10.00">qcompilerdetection.h</text>
</a>
</g>
</g>
<!-- Node1&#45;&gt;Node2 -->
<g id="edge1" class="edge">
<title>Node1&#45;&gt;Node2</title>
<path fill="none" stroke="midnightblue" d="M662.97,-244.01C599.59,-237 493.65,-222.82 405,-199 283.22,-166.29 144.99,-105.95 87.41,-79.73"/>
<polygon fill="midnightblue" stroke="midnightblue" points="88.8,-76.51 78.25,-75.53 85.89,-82.88 88.8,-76.51"/>
</g>
<!-- Node3 -->
<g id="node3" class="node">
<title>Node3</title>
<g id="a_node3"><a xlink:href="../../d4/da4/def_8h.html" target="_top" xlink:title=" ">
<polygon fill="white" stroke="black" points="358,-112.5 358,-131.5 440,-131.5 440,-112.5 358,-112.5"/>
<text text-anchor="middle" x="399" y="-119.5" font-family="Helvetica,sans-Serif" font-size="10.00">../vmisc/def.h</text>
</a>
</g>
</g>
<!-- Node1&#45;&gt;Node3 -->
<g id="edge2" class="edge">
<title>Node1&#45;&gt;Node3</title>
<path fill="none" stroke="midnightblue" d="M672.98,-235.43C642.85,-225.89 602.76,-212.59 568,-199 516.95,-179.04 459,-151.99 425.94,-136.12"/>
<polygon fill="midnightblue" stroke="midnightblue" points="427.04,-132.77 416.51,-131.58 424,-139.07 427.04,-132.77"/>
</g>
<!-- Node6 -->
<g id="node6" class="node">
<title>Node6</title>
<g id="a_node6"><a xlink:title=" ">
<polygon fill="white" stroke="#bfbfbf" points="138.5,-56.5 138.5,-75.5 191.5,-75.5 191.5,-56.5 138.5,-56.5"/>
<text text-anchor="middle" x="165" y="-63.5" font-family="Helvetica,sans-Serif" font-size="10.00">QString</text>
</a>
</g>
</g>
<!-- Node1&#45;&gt;Node6 -->
<g id="edge27" class="edge">
<title>Node1&#45;&gt;Node6</title>
<path fill="none" stroke="midnightblue" d="M662.86,-239.5C616.94,-230.71 550.58,-216.58 494,-199 379.23,-163.35 248.12,-105.28 192.38,-79.74"/>
<polygon fill="midnightblue" stroke="midnightblue" points="193.72,-76.51 183.17,-75.5 190.79,-82.86 193.72,-76.51"/>
</g>
<!-- Node15 -->
<g id="node15" class="node">
<title>Node15</title>
<g id="a_node15"><a xlink:href="../../db/d8d/resize__handle_8h.html" target="_top" xlink:title=" ">
<polygon fill="white" stroke="black" points="629,-168.5 629,-198.5 731,-198.5 731,-168.5 629,-168.5"/>
<text text-anchor="start" x="637" y="-186.5" font-family="Helvetica,sans-Serif" font-size="10.00">../vwidgets/resize</text>
<text text-anchor="middle" x="680" y="-175.5" font-family="Helvetica,sans-Serif" font-size="10.00">_handle.h</text>
</a>
</g>
</g>
<!-- Node1&#45;&gt;Node15 -->
<g id="edge15" class="edge">
<title>Node1&#45;&gt;Node15</title>
<path fill="none" stroke="midnightblue" d="M710.54,-235.4C705.63,-227.22 699.34,-216.73 693.74,-207.39"/>
<polygon fill="midnightblue" stroke="midnightblue" points="696.59,-205.35 688.45,-198.58 690.59,-208.95 696.59,-205.35"/>
</g>
<!-- Node17 -->
<g id="node17" class="node">
<title>Node17</title>
<g id="a_node17"><a xlink:title=" ">
<polygon fill="white" stroke="#bfbfbf" points="458.5,-112.5 458.5,-131.5 547.5,-131.5 547.5,-112.5 458.5,-112.5"/>
<text text-anchor="middle" x="503" y="-119.5" font-family="Helvetica,sans-Serif" font-size="10.00">QGraphicsItem</text>
</a>
</g>
</g>
<!-- Node1&#45;&gt;Node17 -->
<g id="edge31" class="edge">
<title>Node1&#45;&gt;Node17</title>
<path fill="none" stroke="midnightblue" d="M689.55,-235.48C669.63,-225.76 642.89,-212.22 620,-199 585.38,-179 546.75,-153.19 523.69,-137.38"/>
<polygon fill="midnightblue" stroke="midnightblue" points="525.59,-134.44 515.37,-131.65 521.62,-140.2 525.59,-134.44"/>
</g>
<!-- Node21 -->
<g id="node21" class="node">
<title>Node21</title>
<g id="a_node21"><a xlink:title=" ">
<polygon fill="white" stroke="#bfbfbf" points="1138,-112.5 1138,-131.5 1218,-131.5 1218,-112.5 1138,-112.5"/>
<text text-anchor="middle" x="1178" y="-119.5" font-family="Helvetica,sans-Serif" font-size="10.00">QMetaObject</text>
</a>
</g>
</g>
<!-- Node1&#45;&gt;Node21 -->
<g id="edge25" class="edge">
<title>Node1&#45;&gt;Node21</title>
<path fill="none" stroke="midnightblue" d="M725.56,-235.4C735.2,-216.46 755.12,-183.39 783,-168 848.17,-132.03 1037.69,-142.14 1127.95,-131.9"/>
<polygon fill="midnightblue" stroke="midnightblue" points="1128.46,-135.37 1137.93,-130.62 1127.57,-128.42 1128.46,-135.37"/>
</g>
<!-- Node23 -->
<g id="node23" class="node">
<title>Node23</title>
<g id="a_node23"><a xlink:title=" ">
<polygon fill="white" stroke="#bfbfbf" points="1236.5,-112.5 1236.5,-131.5 1291.5,-131.5 1291.5,-112.5 1236.5,-112.5"/>
<text text-anchor="middle" x="1264" y="-119.5" font-family="Helvetica,sans-Serif" font-size="10.00">QVector</text>
</a>
</g>
</g>
<!-- Node1&#45;&gt;Node23 -->
<g id="edge29" class="edge">
<title>Node1&#45;&gt;Node23</title>
<path fill="none" stroke="midnightblue" d="M736.11,-235.38C748.35,-225.27 765.21,-211.32 780,-199 796.48,-185.27 797.18,-176.21 817,-168 983.04,-99.26 1044.34,-159.5 1226.33,-131.81"/>
<polygon fill="midnightblue" stroke="midnightblue" points="1226.89,-135.26 1236.21,-130.24 1225.79,-128.35 1226.89,-135.26"/>
</g>
<!-- Node24 -->
<g id="node24" class="node">
<title>Node24</title>
<g id="a_node24"><a xlink:title=" ">
<polygon fill="white" stroke="#bfbfbf" points="825.5,-174 825.5,-193 880.5,-193 880.5,-174 825.5,-174"/>
<text text-anchor="middle" x="853" y="-181" font-family="Helvetica,sans-Serif" font-size="10.00">QPointF</text>
</a>
</g>
</g>
<!-- Node1&#45;&gt;Node24 -->
<g id="edge26" class="edge">
<title>Node1&#45;&gt;Node24</title>
<path fill="none" stroke="midnightblue" d="M748.08,-235.4C771.38,-224.09 803.81,-208.36 826.43,-197.39"/>
<polygon fill="midnightblue" stroke="midnightblue" points="827.99,-200.52 835.46,-193.01 824.94,-194.22 827.99,-200.52"/>
</g>
<!-- Node25 -->
<g id="node25" class="node">
<title>Node25</title>
<g id="a_node25"><a xlink:title=" ">
<polygon fill="white" stroke="#bfbfbf" points="898.5,-174 898.5,-193 957.5,-193 957.5,-174 898.5,-174"/>
<text text-anchor="middle" x="928" y="-181" font-family="Helvetica,sans-Serif" font-size="10.00">QVariant</text>
</a>
</g>
</g>
<!-- Node1&#45;&gt;Node25 -->
<g id="edge28" class="edge">
<title>Node1&#45;&gt;Node25</title>
<path fill="none" stroke="midnightblue" d="M770.2,-235.5C804.35,-225.89 850.12,-212.48 890,-199 892.26,-198.24 894.58,-197.42 896.91,-196.59"/>
<polygon fill="midnightblue" stroke="midnightblue" points="898.24,-199.83 906.4,-193.07 895.81,-193.26 898.24,-199.83"/>
</g>
<!-- Node26 -->
<g id="node26" class="node">
<title>Node26</title>
<g id="a_node26"><a xlink:title=" ">
<polygon fill="white" stroke="#bfbfbf" points="976,-174 976,-193 1074,-193 1074,-174 976,-174"/>
<text text-anchor="middle" x="1025" y="-181" font-family="Helvetica,sans-Serif" font-size="10.00">QtCore/qglobal.h</text>
</a>
</g>
</g>
<!-- Node1&#45;&gt;Node26 -->
<g id="edge30" class="edge">
<title>Node1&#45;&gt;Node26</title>
<path fill="none" stroke="midnightblue" d="M775.29,-238.77C825.66,-229 901.44,-213.86 967,-199 971.93,-197.88 977.09,-196.66 982.21,-195.42"/>
<polygon fill="midnightblue" stroke="midnightblue" points="983.06,-198.82 991.93,-193.03 981.39,-192.02 983.06,-198.82"/>
</g>
<!-- Node3&#45;&gt;Node2 -->
<g id="edge3" class="edge">
<title>Node3&#45;&gt;Node2</title>
<path fill="none" stroke="midnightblue" d="M357.77,-114.43C299.45,-105.14 192.33,-88.08 123.72,-77.15"/>
<polygon fill="midnightblue" stroke="midnightblue" points="123.9,-73.63 113.47,-75.52 122.8,-80.55 123.9,-73.63"/>
</g>
<!-- Node4 -->
<g id="node4" class="node">
<title>Node4</title>
<g id="a_node4"><a xlink:title=" ">
<polygon fill="white" stroke="#bfbfbf" points="458.5,-56.5 458.5,-75.5 531.5,-75.5 531.5,-56.5 458.5,-56.5"/>
<text text-anchor="middle" x="495" y="-63.5" font-family="Helvetica,sans-Serif" font-size="10.00">QFileDialog</text>
</a>
</g>
</g>
<!-- Node3&#45;&gt;Node4 -->
<g id="edge4" class="edge">
<title>Node3&#45;&gt;Node4</title>
<path fill="none" stroke="midnightblue" d="M414.42,-112.32C429.54,-103.82 452.82,-90.73 470.47,-80.8"/>
<polygon fill="midnightblue" stroke="midnightblue" points="472.61,-83.61 479.61,-75.65 469.18,-77.51 472.61,-83.61"/>
</g>
<!-- Node5 -->
<g id="node5" class="node">
<title>Node5</title>
<g id="a_node5"><a xlink:title=" ">
<polygon fill="white" stroke="#bfbfbf" points="550,-56.5 550,-75.5 600,-75.5 600,-56.5 550,-56.5"/>
<text text-anchor="middle" x="575" y="-63.5" font-family="Helvetica,sans-Serif" font-size="10.00">QLineF</text>
</a>
</g>
</g>
<!-- Node3&#45;&gt;Node5 -->
<g id="edge5" class="edge">
<title>Node3&#45;&gt;Node5</title>
<path fill="none" stroke="midnightblue" d="M426.89,-112.44C457.54,-103.04 506.84,-87.91 540.06,-77.72"/>
<polygon fill="midnightblue" stroke="midnightblue" points="541.28,-81.01 549.81,-74.73 539.22,-74.32 541.28,-81.01"/>
</g>
<!-- Node3&#45;&gt;Node6 -->
<g id="edge6" class="edge">
<title>Node3&#45;&gt;Node6</title>
<path fill="none" stroke="midnightblue" d="M359.65,-112.46C321.57,-104.11 261.96,-90.84 201.79,-76.39"/>
<polygon fill="midnightblue" stroke="midnightblue" points="202.27,-72.9 191.73,-73.96 200.63,-79.71 202.27,-72.9"/>
</g>
<!-- Node7 -->
<g id="node7" class="node">
<title>Node7</title>
<g id="a_node7"><a xlink:title=" ">
<polygon fill="white" stroke="#bfbfbf" points="618,-56.5 618,-75.5 688,-75.5 688,-56.5 618,-56.5"/>
<text text-anchor="middle" x="653" y="-63.5" font-family="Helvetica,sans-Serif" font-size="10.00">QStringList</text>
</a>
</g>
</g>
<!-- Node3&#45;&gt;Node7 -->
<g id="edge7" class="edge">
<title>Node3&#45;&gt;Node7</title>
<path fill="none" stroke="midnightblue" d="M439.25,-112.44C485.12,-102.69 559.92,-86.79 607.77,-76.62"/>
<polygon fill="midnightblue" stroke="midnightblue" points="608.8,-79.98 617.85,-74.47 607.34,-73.13 608.8,-79.98"/>
</g>
<!-- Node8 -->
<g id="node8" class="node">
<title>Node8</title>
<g id="a_node8"><a xlink:title=" ">
<polygon fill="white" stroke="#bfbfbf" points="706.5,-56.5 706.5,-75.5 735.5,-75.5 735.5,-56.5 706.5,-56.5"/>
<text text-anchor="middle" x="721" y="-63.5" font-family="Helvetica,sans-Serif" font-size="10.00">Qt</text>
</a>
</g>
</g>
<!-- Node3&#45;&gt;Node8 -->
<g id="edge8" class="edge">
<title>Node3&#45;&gt;Node8</title>
<path fill="none" stroke="midnightblue" d="M440.18,-113.47C443.16,-112.96 446.13,-112.47 449,-112 555.82,-94.64 587.35,-103.19 696.68,-75.54"/>
<polygon fill="midnightblue" stroke="midnightblue" points="697.62,-78.91 706.44,-73.03 695.88,-72.13 697.62,-78.91"/>
</g>
<!-- Node9 -->
<g id="node9" class="node">
<title>Node9</title>
<g id="a_node9"><a xlink:title=" ">
<polygon fill="white" stroke="#bfbfbf" points="753.5,-56.5 753.5,-75.5 812.5,-75.5 812.5,-56.5 753.5,-56.5"/>
<text text-anchor="middle" x="783" y="-63.5" font-family="Helvetica,sans-Serif" font-size="10.00">QtGlobal</text>
</a>
</g>
</g>
<!-- Node3&#45;&gt;Node9 -->
<g id="edge9" class="edge">
<title>Node3&#45;&gt;Node9</title>
<path fill="none" stroke="midnightblue" d="M440.17,-113.4C443.16,-112.91 446.12,-112.43 449,-112 576.42,-92.77 612.18,-98.58 743.23,-75.96"/>
<polygon fill="midnightblue" stroke="midnightblue" points="744.01,-79.37 753.26,-74.2 742.8,-72.48 744.01,-79.37"/>
</g>
<!-- Node10 -->
<g id="node10" class="node">
<title>Node10</title>
<g id="a_node10"><a xlink:title=" ">
<polygon fill="white" stroke="#bfbfbf" points="831,-56.5 831,-75.5 887,-75.5 887,-56.5 831,-56.5"/>
<text text-anchor="middle" x="859" y="-63.5" font-family="Helvetica,sans-Serif" font-size="10.00">QPrinter</text>
</a>
</g>
</g>
<!-- Node3&#45;&gt;Node10 -->
<g id="edge10" class="edge">
<title>Node3&#45;&gt;Node10</title>
<path fill="none" stroke="midnightblue" d="M440.16,-113.32C443.15,-112.84 446.12,-112.4 449,-112 610.76,-89.67 656.02,-103.2 820.81,-75.97"/>
<polygon fill="midnightblue" stroke="midnightblue" points="821.52,-79.4 830.8,-74.3 820.36,-72.5 821.52,-79.4"/>
</g>
<!-- Node11 -->
<g id="node11" class="node">
<title>Node11</title>
<g id="a_node11"><a xlink:title=" ">
<polygon fill="white" stroke="#bfbfbf" points="209.5,-56.5 209.5,-75.5 270.5,-75.5 270.5,-56.5 209.5,-56.5"/>
<text text-anchor="middle" x="240" y="-63.5" font-family="Helvetica,sans-Serif" font-size="10.00">QPixmap</text>
</a>
</g>
</g>
<!-- Node3&#45;&gt;Node11 -->
<g id="edge11" class="edge">
<title>Node3&#45;&gt;Node11</title>
<path fill="none" stroke="midnightblue" d="M373.81,-112.44C347.06,-103.36 304.6,-88.94 274.69,-78.78"/>
<polygon fill="midnightblue" stroke="midnightblue" points="275.67,-75.42 265.08,-75.52 273.42,-82.05 275.67,-75.42"/>
</g>
<!-- Node12 -->
<g id="node12" class="node">
<title>Node12</title>
<g id="a_node12"><a xlink:title=" ">
<polygon fill="white" stroke="#bfbfbf" points="288.5,-56.5 288.5,-75.5 339.5,-75.5 339.5,-56.5 288.5,-56.5"/>
<text text-anchor="middle" x="314" y="-63.5" font-family="Helvetica,sans-Serif" font-size="10.00">csignal</text>
</a>
</g>
</g>
<!-- Node3&#45;&gt;Node12 -->
<g id="edge12" class="edge">
<title>Node3&#45;&gt;Node12</title>
<path fill="none" stroke="midnightblue" d="M385.34,-112.32C372.08,-103.9 351.73,-90.97 336.15,-81.07"/>
<polygon fill="midnightblue" stroke="midnightblue" points="337.94,-78.06 327.62,-75.65 334.19,-83.97 337.94,-78.06"/>
</g>
<!-- Node13 -->
<g id="node13" class="node">
<title>Node13</title>
<g id="a_node13"><a xlink:href="../../d4/d82/debugbreak_8h.html" target="_top" xlink:title=" ">
<polygon fill="white" stroke="black" points="357.5,-56.5 357.5,-75.5 440.5,-75.5 440.5,-56.5 357.5,-56.5"/>
<text text-anchor="middle" x="399" y="-63.5" font-family="Helvetica,sans-Serif" font-size="10.00">debugbreak.h</text>
</a>
</g>
</g>
<!-- Node3&#45;&gt;Node13 -->
<g id="edge13" class="edge">
<title>Node3&#45;&gt;Node13</title>
<path fill="none" stroke="midnightblue" d="M399,-112.08C399,-105.01 399,-94.86 399,-85.99"/>
<polygon fill="midnightblue" stroke="midnightblue" points="402.5,-85.75 399,-75.75 395.5,-85.75 402.5,-85.75"/>
</g>
<!-- Node14 -->
<g id="node14" class="node">
<title>Node14</title>
<g id="a_node14"><a xlink:title=" ">
<polygon fill="white" stroke="#bfbfbf" points="371.5,-0.5 371.5,-19.5 426.5,-19.5 426.5,-0.5 371.5,-0.5"/>
<text text-anchor="middle" x="399" y="-7.5" font-family="Helvetica,sans-Serif" font-size="10.00">signal.h</text>
</a>
</g>
</g>
<!-- Node13&#45;&gt;Node14 -->
<g id="edge14" class="edge">
<title>Node13&#45;&gt;Node14</title>
<path fill="none" stroke="midnightblue" d="M399,-56.08C399,-49.01 399,-38.86 399,-29.99"/>
<polygon fill="midnightblue" stroke="midnightblue" points="402.5,-29.75 399,-19.75 395.5,-29.75 402.5,-29.75"/>
</g>
<!-- Node15&#45;&gt;Node3 -->
<g id="edge16" class="edge">
<title>Node15&#45;&gt;Node3</title>
<path fill="none" stroke="midnightblue" d="M628.79,-171.66C577.84,-160.87 500.15,-144.42 449.47,-133.69"/>
<polygon fill="midnightblue" stroke="midnightblue" points="449.9,-130.2 439.4,-131.55 448.45,-137.05 449.9,-130.2"/>
</g>
<!-- Node16 -->
<g id="node16" class="node">
<title>Node16</title>
<g id="a_node16"><a xlink:title=" ">
<polygon fill="white" stroke="#bfbfbf" points="724,-112.5 724,-131.5 774,-131.5 774,-112.5 724,-112.5"/>
<text text-anchor="middle" x="749" y="-119.5" font-family="Helvetica,sans-Serif" font-size="10.00">QColor</text>
</a>
</g>
</g>
<!-- Node15&#45;&gt;Node16 -->
<g id="edge17" class="edge">
<title>Node15&#45;&gt;Node16</title>
<path fill="none" stroke="midnightblue" d="M696.35,-168.4C706.9,-159.31 720.6,-147.49 731.38,-138.19"/>
<polygon fill="midnightblue" stroke="midnightblue" points="733.67,-140.84 738.96,-131.66 729.1,-135.54 733.67,-140.84"/>
</g>
<!-- Node15&#45;&gt;Node17 -->
<g id="edge18" class="edge">
<title>Node15&#45;&gt;Node17</title>
<path fill="none" stroke="midnightblue" d="M638.05,-168.4C607.6,-158.16 566.87,-144.47 538.13,-134.81"/>
<polygon fill="midnightblue" stroke="midnightblue" points="539.09,-131.44 528.5,-131.57 536.86,-138.07 539.09,-131.44"/>
</g>
<!-- Node18 -->
<g id="node18" class="node">
<title>Node18</title>
<g id="a_node18"><a xlink:title=" ">
<polygon fill="white" stroke="#bfbfbf" points="792.5,-112.5 792.5,-131.5 945.5,-131.5 945.5,-112.5 792.5,-112.5"/>
<text text-anchor="middle" x="869" y="-119.5" font-family="Helvetica,sans-Serif" font-size="10.00">QGraphicsSceneHoverEvent</text>
</a>
</g>
</g>
<!-- Node15&#45;&gt;Node18 -->
<g id="edge19" class="edge">
<title>Node15&#45;&gt;Node18</title>
<path fill="none" stroke="midnightblue" d="M724.79,-168.4C757.45,-158.12 801.18,-144.35 831.89,-134.68"/>
<polygon fill="midnightblue" stroke="midnightblue" points="833.29,-137.91 841.77,-131.57 831.19,-131.24 833.29,-137.91"/>
</g>
<!-- Node19 -->
<g id="node19" class="node">
<title>Node19</title>
<g id="a_node19"><a xlink:title=" ">
<polygon fill="white" stroke="#bfbfbf" points="964,-112.5 964,-131.5 1120,-131.5 1120,-112.5 964,-112.5"/>
<text text-anchor="middle" x="1042" y="-119.5" font-family="Helvetica,sans-Serif" font-size="10.00">QGraphicsSceneMouseEvent</text>
</a>
</g>
</g>
<!-- Node15&#45;&gt;Node19 -->
<g id="edge20" class="edge">
<title>Node15&#45;&gt;Node19</title>
<path fill="none" stroke="midnightblue" d="M731.03,-170.77C735.74,-169.79 740.45,-168.85 745,-168 820.23,-153.93 906.81,-141.2 967.01,-132.9"/>
<polygon fill="midnightblue" stroke="midnightblue" points="967.75,-136.33 977.18,-131.51 966.8,-129.4 967.75,-136.33"/>
</g>
<!-- Node20 -->
<g id="node20" class="node">
<title>Node20</title>
<g id="a_node20"><a xlink:title=" ">
<polygon fill="white" stroke="#bfbfbf" points="566,-112.5 566,-131.5 636,-131.5 636,-112.5 566,-112.5"/>
<text text-anchor="middle" x="601" y="-119.5" font-family="Helvetica,sans-Serif" font-size="10.00">QKeyEvent</text>
</a>
</g>
</g>
<!-- Node15&#45;&gt;Node20 -->
<g id="edge21" class="edge">
<title>Node15&#45;&gt;Node20</title>
<path fill="none" stroke="midnightblue" d="M661.28,-168.4C649.09,-159.22 633.21,-147.26 620.81,-137.92"/>
<polygon fill="midnightblue" stroke="midnightblue" points="622.59,-134.88 612.5,-131.66 618.38,-140.47 622.59,-134.88"/>
</g>
<!-- Node15&#45;&gt;Node21 -->
<g id="edge22" class="edge">
<title>Node15&#45;&gt;Node21</title>
<path fill="none" stroke="midnightblue" d="M731.33,-170.42C735.94,-169.53 740.55,-168.7 745,-168 911.1,-141.8 957.45,-154.98 1127.87,-132.03"/>
<polygon fill="midnightblue" stroke="midnightblue" points="1128.5,-135.48 1137.94,-130.66 1127.55,-128.54 1128.5,-135.48"/>
</g>
<!-- Node22 -->
<g id="node22" class="node">
<title>Node22</title>
<g id="a_node22"><a xlink:title=" ">
<polygon fill="white" stroke="#bfbfbf" points="654,-112.5 654,-131.5 706,-131.5 706,-112.5 654,-112.5"/>
<text text-anchor="middle" x="680" y="-119.5" font-family="Helvetica,sans-Serif" font-size="10.00">QRectF</text>
</a>
</g>
</g>
<!-- Node15&#45;&gt;Node22 -->
<g id="edge23" class="edge">
<title>Node15&#45;&gt;Node22</title>
<path fill="none" stroke="midnightblue" d="M680,-168.4C680,-160.47 680,-150.46 680,-141.86"/>
<polygon fill="midnightblue" stroke="midnightblue" points="683.5,-141.66 680,-131.66 676.5,-141.66 683.5,-141.66"/>
</g>
<!-- Node15&#45;&gt;Node23 -->
<g id="edge24" class="edge">
<title>Node15&#45;&gt;Node23</title>
<path fill="none" stroke="midnightblue" d="M731.01,-174.71C747.56,-172.35 766.04,-169.88 783,-168 976.51,-146.55 1029.78,-162.93 1226.15,-131.87"/>
<polygon fill="midnightblue" stroke="midnightblue" points="1226.9,-135.29 1236.22,-130.26 1225.79,-128.38 1226.9,-135.29"/>
</g>
</g>
</svg>
