<?xml version="1.0" encoding="UTF-8" standalone="no"?>
<!DOCTYPE svg PUBLIC "-//W3C//DTD SVG 1.1//EN"
 "http://www.w3.org/Graphics/SVG/1.1/DTD/svg11.dtd">
<!-- Generated by graphviz version 2.43.0 (0)
 -->
<!-- Title: src/libs/vpatterndb/vpiecepath.h Pages: 1 -->
<svg width="6519pt" height="318pt"
 viewBox="0.00 0.00 6518.50 318.00" xmlns="http://www.w3.org/2000/svg" xmlns:xlink="http://www.w3.org/1999/xlink">
<g id="graph0" class="graph" transform="scale(1 1) rotate(0) translate(4 314)">
<title>src/libs/vpatterndb/vpiecepath.h</title>
<polygon fill="white" stroke="transparent" points="-4,4 -4,-314 6514.5,-314 6514.5,4 -4,4"/>
<!-- Node1 -->
<g id="node1" class="node">
<title>Node1</title>
<g id="a_node1"><a xlink:title=" ">
<polygon fill="#bfbfbf" stroke="black" points="6237.5,-279.5 6237.5,-309.5 6344.5,-309.5 6344.5,-279.5 6237.5,-279.5"/>
<text text-anchor="start" x="6245.5" y="-297.5" font-family="Helvetica,sans-Serif" font-size="10.00">src/libs/vpatterndb</text>
<text text-anchor="middle" x="6291" y="-286.5" font-family="Helvetica,sans-Serif" font-size="10.00">/vpiecepath.h</text>
</a>
</g>
</g>
<!-- Node2 -->
<g id="node2" class="node">
<title>Node2</title>
<g id="a_node2"><a xlink:href="../../d3/df7/vcontainer_8h.html" target="_top" xlink:title=" ">
<polygon fill="white" stroke="black" points="5468.5,-212.5 5468.5,-242.5 5575.5,-242.5 5575.5,-212.5 5468.5,-212.5"/>
<text text-anchor="start" x="5476.5" y="-230.5" font-family="Helvetica,sans-Serif" font-size="10.00">src/libs/vpatterndb</text>
<text text-anchor="middle" x="5522" y="-219.5" font-family="Helvetica,sans-Serif" font-size="10.00">/vcontainer.h</text>
</a>
</g>
</g>
<!-- Node1&#45;&gt;Node2 -->
<g id="edge1" class="edge">
<title>Node1&#45;&gt;Node2</title>
<path fill="none" stroke="midnightblue" d="M6226.92,-288.08C6078.46,-275.53 5713.13,-244.66 5575.56,-233.03"/>
<polygon fill="midnightblue" stroke="midnightblue" points="6226.97,-291.6 6237.23,-288.96 6227.56,-284.63 6226.97,-291.6"/>
</g>
<!-- Node67 -->
<g id="node46" class="node">
<title>Node67</title>
<g id="a_node46"><a xlink:href="../../d6/d91/vnodedetail_8cpp.html" target="_top" xlink:title=" ">
<polygon fill="white" stroke="black" points="6207.5,-140 6207.5,-170 6314.5,-170 6314.5,-140 6207.5,-140"/>
<text text-anchor="start" x="6215.5" y="-158" font-family="Helvetica,sans-Serif" font-size="10.00">src/libs/vpatterndb</text>
<text text-anchor="middle" x="6261" y="-147" font-family="Helvetica,sans-Serif" font-size="10.00">/vnodedetail.cpp</text>
</a>
</g>
</g>
<!-- Node1&#45;&gt;Node67 -->
<g id="edge60" class="edge">
<title>Node1&#45;&gt;Node67</title>
<path fill="none" stroke="midnightblue" d="M6285.72,-269.29C6279.46,-240.61 6269.24,-193.78 6264.13,-170.33"/>
<polygon fill="midnightblue" stroke="midnightblue" points="6282.35,-270.28 6287.9,-279.3 6289.19,-268.79 6282.35,-270.28"/>
</g>
<!-- Node68 -->
<g id="node47" class="node">
<title>Node68</title>
<g id="a_node47"><a xlink:href="../../da/de1/vpiecepath_8cpp.html" target="_top" xlink:title=" ">
<polygon fill="white" stroke="black" points="6332.5,-140 6332.5,-170 6439.5,-170 6439.5,-140 6332.5,-140"/>
<text text-anchor="start" x="6340.5" y="-158" font-family="Helvetica,sans-Serif" font-size="10.00">src/libs/vpatterndb</text>
<text text-anchor="middle" x="6386" y="-147" font-family="Helvetica,sans-Serif" font-size="10.00">/vpiecepath.cpp</text>
</a>
</g>
</g>
<!-- Node1&#45;&gt;Node68 -->
<g id="edge63" class="edge">
<title>Node1&#45;&gt;Node68</title>
<path fill="none" stroke="midnightblue" d="M6306.69,-270.79C6326.4,-242.26 6359.62,-194.19 6376.1,-170.33"/>
<polygon fill="midnightblue" stroke="midnightblue" points="6303.61,-269.09 6300.81,-279.3 6309.37,-273.07 6303.61,-269.09"/>
</g>
<!-- Node71 -->
<g id="node50" class="node">
<title>Node71</title>
<g id="a_node50"><a xlink:href="../../d8/da5/vpiece__p_8h.html" target="_top" xlink:title=" ">
<polygon fill="white" stroke="black" points="6403.5,-212.5 6403.5,-242.5 6510.5,-242.5 6510.5,-212.5 6403.5,-212.5"/>
<text text-anchor="start" x="6411.5" y="-230.5" font-family="Helvetica,sans-Serif" font-size="10.00">src/libs/vpatterndb</text>
<text text-anchor="middle" x="6457" y="-219.5" font-family="Helvetica,sans-Serif" font-size="10.00">/vpiece_p.h</text>
</a>
</g>
</g>
<!-- Node1&#45;&gt;Node71 -->
<g id="edge61" class="edge">
<title>Node1&#45;&gt;Node71</title>
<path fill="none" stroke="midnightblue" d="M6336.51,-275.68C6363.13,-265.26 6396.27,-252.28 6421.05,-242.58"/>
<polygon fill="midnightblue" stroke="midnightblue" points="6335.05,-272.49 6327.02,-279.4 6337.61,-279.01 6335.05,-272.49"/>
</g>
<!-- Node3 -->
<g id="node3" class="node">
<title>Node3</title>
<g id="a_node3"><a xlink:href="../../d2/d47/image__dialog_8cpp.html" target="_top" xlink:title=" ">
<polygon fill="white" stroke="black" points="5235,-67.5 5235,-97.5 5347,-97.5 5347,-67.5 5235,-67.5"/>
<text text-anchor="start" x="5243" y="-85.5" font-family="Helvetica,sans-Serif" font-size="10.00">src/libs/tools/image</text>
<text text-anchor="middle" x="5291" y="-74.5" font-family="Helvetica,sans-Serif" font-size="10.00">_dialog.cpp</text>
</a>
</g>
</g>
<!-- Node2&#45;&gt;Node3 -->
<g id="edge2" class="edge">
<title>Node2&#45;&gt;Node3</title>
<path fill="none" stroke="midnightblue" d="M5458.09,-224.93C5379.88,-221.51 5254.22,-210.61 5225,-176 5212.96,-161.74 5216.73,-150.74 5225,-134 5232.8,-118.22 5248.15,-106.01 5262.09,-97.55"/>
<polygon fill="midnightblue" stroke="midnightblue" points="5458.19,-228.44 5468.32,-225.35 5458.48,-221.44 5458.19,-228.44"/>
</g>
<!-- Node4 -->
<g id="node4" class="node">
<title>Node4</title>
<g id="a_node4"><a xlink:href="../../dc/db7/measurements_8h.html" target="_top" xlink:title=" ">
<polygon fill="white" stroke="black" points="6010.5,-145.5 6010.5,-164.5 6189.5,-164.5 6189.5,-145.5 6010.5,-145.5"/>
<text text-anchor="middle" x="6100" y="-152.5" font-family="Helvetica,sans-Serif" font-size="10.00">src/libs/vformat/measurements.h</text>
</a>
</g>
</g>
<!-- Node2&#45;&gt;Node4 -->
<g id="edge3" class="edge">
<title>Node2&#45;&gt;Node4</title>
<path fill="none" stroke="midnightblue" d="M5586.04,-221.39C5677.33,-213.72 5850,-197.78 5996,-176 6017.09,-172.85 6040.43,-168.45 6059.64,-164.58"/>
<polygon fill="midnightblue" stroke="midnightblue" points="5585.53,-217.92 5575.86,-222.24 5586.11,-224.9 5585.53,-217.92"/>
</g>
<!-- Node5 -->
<g id="node5" class="node">
<title>Node5</title>
<g id="a_node5"><a xlink:href="../../d9/de3/measurements_8cpp.html" target="_top" xlink:title=" ">
<polygon fill="white" stroke="black" points="6005,-73 6005,-92 6195,-92 6195,-73 6005,-73"/>
<text text-anchor="middle" x="6100" y="-80" font-family="Helvetica,sans-Serif" font-size="10.00">src/libs/vformat/measurements.cpp</text>
</a>
</g>
</g>
<!-- Node2&#45;&gt;Node5 -->
<g id="edge5" class="edge">
<title>Node2&#45;&gt;Node5</title>
<path fill="none" stroke="midnightblue" d="M5585.83,-223.11C5687.97,-216.99 5883.12,-202.23 5947,-176 5975.13,-164.45 5975.34,-150.31 6001,-134 6027.38,-117.23 6060.01,-101.46 6080.43,-92.14"/>
<polygon fill="midnightblue" stroke="midnightblue" points="5585.43,-219.63 5575.65,-223.71 5585.84,-226.62 5585.43,-219.63"/>
</g>
<!-- Node6 -->
<g id="node6" class="node">
<title>Node6</title>
<g id="a_node6"><a xlink:href="../../d6/de0/vlayoutpiece_8h.html" target="_top" xlink:title=" ">
<polygon fill="white" stroke="black" points="645,-145.5 645,-164.5 811,-164.5 811,-145.5 645,-145.5"/>
<text text-anchor="middle" x="728" y="-152.5" font-family="Helvetica,sans-Serif" font-size="10.00">src/libs/vlayout/vlayoutpiece.h</text>
</a>
</g>
</g>
<!-- Node2&#45;&gt;Node6 -->
<g id="edge6" class="edge">
<title>Node2&#45;&gt;Node6</title>
<path fill="none" stroke="midnightblue" d="M5457.83,-225.56C4936.5,-217.89 1399.95,-165.88 811.05,-157.22"/>
<polygon fill="midnightblue" stroke="midnightblue" points="5458.11,-229.06 5468.16,-225.71 5458.21,-222.06 5458.11,-229.06"/>
</g>
<!-- Node16 -->
<g id="node15" class="node">
<title>Node16</title>
<g id="a_node15"><a xlink:href="../../d8/d70/vtextmanager_8cpp.html" target="_top" xlink:title=" ">
<polygon fill="white" stroke="black" points="1322,-73 1322,-92 1504,-92 1504,-73 1322,-73"/>
<text text-anchor="middle" x="1413" y="-80" font-family="Helvetica,sans-Serif" font-size="10.00">src/libs/vlayout/vtextmanager.cpp</text>
</a>
</g>
</g>
<!-- Node2&#45;&gt;Node16 -->
<g id="edge17" class="edge">
<title>Node2&#45;&gt;Node16</title>
<path fill="none" stroke="midnightblue" d="M5458.22,-225.5C5009.84,-218.33 2325.5,-172.79 1513,-98 1497.19,-96.54 1480.06,-94.31 1464.52,-92.02"/>
<polygon fill="midnightblue" stroke="midnightblue" points="5458.34,-229 5468.39,-225.66 5458.45,-222.01 5458.34,-229"/>
</g>
<!-- Node17 -->
<g id="node16" class="node">
<title>Node17</title>
<g id="a_node16"><a xlink:href="../../d5/d74/vabstractapplication_8h.html" target="_top" xlink:title=" ">
<polygon fill="white" stroke="red" points="3491.5,-145.5 3491.5,-164.5 3686.5,-164.5 3686.5,-145.5 3491.5,-145.5"/>
<text text-anchor="middle" x="3589" y="-152.5" font-family="Helvetica,sans-Serif" font-size="10.00">src/libs/vmisc/vabstractapplication.h</text>
</a>
</g>
</g>
<!-- Node2&#45;&gt;Node17 -->
<g id="edge18" class="edge">
<title>Node2&#45;&gt;Node17</title>
<path fill="none" stroke="midnightblue" d="M5458.18,-224.17C5174.84,-213.84 4029.75,-172.07 3686.63,-159.56"/>
<polygon fill="midnightblue" stroke="midnightblue" points="5458.16,-227.67 5468.28,-224.54 5458.42,-220.68 5458.16,-227.67"/>
</g>
<!-- Node45 -->
<g id="node31" class="node">
<title>Node45</title>
<g id="a_node31"><a xlink:href="../../db/d11/vformula_8cpp.html" target="_top" xlink:title=" ">
<polygon fill="white" stroke="black" points="4984.5,-67.5 4984.5,-97.5 5091.5,-97.5 5091.5,-67.5 4984.5,-67.5"/>
<text text-anchor="start" x="4992.5" y="-85.5" font-family="Helvetica,sans-Serif" font-size="10.00">src/libs/vpatterndb</text>
<text text-anchor="middle" x="5038" y="-74.5" font-family="Helvetica,sans-Serif" font-size="10.00">/vformula.cpp</text>
</a>
</g>
</g>
<!-- Node2&#45;&gt;Node45 -->
<g id="edge52" class="edge">
<title>Node2&#45;&gt;Node45</title>
<path fill="none" stroke="midnightblue" d="M5458.34,-225.49C5387.47,-222.49 5270.6,-211.9 5177,-176 5128.01,-157.21 5078.81,-118.75 5054.19,-97.83"/>
<polygon fill="midnightblue" stroke="midnightblue" points="5458.33,-228.99 5468.46,-225.88 5458.6,-221.99 5458.33,-228.99"/>
</g>
<!-- Node46 -->
<g id="node32" class="node">
<title>Node46</title>
<g id="a_node32"><a xlink:href="../../d6/d46/vcontainer_8cpp.html" target="_top" xlink:title=" ">
<polygon fill="white" stroke="black" points="5109.5,-67.5 5109.5,-97.5 5216.5,-97.5 5216.5,-67.5 5109.5,-67.5"/>
<text text-anchor="start" x="5117.5" y="-85.5" font-family="Helvetica,sans-Serif" font-size="10.00">src/libs/vpatterndb</text>
<text text-anchor="middle" x="5163" y="-74.5" font-family="Helvetica,sans-Serif" font-size="10.00">/vcontainer.cpp</text>
</a>
</g>
</g>
<!-- Node2&#45;&gt;Node46 -->
<g id="edge54" class="edge">
<title>Node2&#45;&gt;Node46</title>
<path fill="none" stroke="midnightblue" d="M5458.24,-222.56C5379.81,-216.63 5252.34,-203.07 5214,-176 5186.88,-156.86 5172.62,-118.54 5166.59,-97.74"/>
<polygon fill="midnightblue" stroke="midnightblue" points="5458.27,-226.08 5468.5,-223.32 5458.78,-219.09 5458.27,-226.08"/>
</g>
<!-- Node47 -->
<g id="node33" class="node">
<title>Node47</title>
<g id="a_node33"><a xlink:href="../../df/d7a/vpiece_8cpp.html" target="_top" xlink:title=" ">
<polygon fill="white" stroke="black" points="5879.5,-67.5 5879.5,-97.5 5986.5,-97.5 5986.5,-67.5 5879.5,-67.5"/>
<text text-anchor="start" x="5887.5" y="-85.5" font-family="Helvetica,sans-Serif" font-size="10.00">src/libs/vpatterndb</text>
<text text-anchor="middle" x="5933" y="-74.5" font-family="Helvetica,sans-Serif" font-size="10.00">/vpiece.cpp</text>
</a>
</g>
</g>
<!-- Node2&#45;&gt;Node47 -->
<g id="edge55" class="edge">
<title>Node2&#45;&gt;Node47</title>
<path fill="none" stroke="midnightblue" d="M5585.78,-222.86C5693.46,-216.08 5901.91,-199.99 5925,-176 5945.12,-155.09 5940.9,-117.86 5936.62,-97.59"/>
<polygon fill="midnightblue" stroke="midnightblue" points="5585.44,-219.37 5575.68,-223.48 5585.88,-226.36 5585.44,-219.37"/>
</g>
<!-- Node49 -->
<g id="node35" class="node">
<title>Node49</title>
<g id="a_node35"><a xlink:href="../../d8/dba/vpiecenode_8cpp.html" target="_top" xlink:title=" ">
<polygon fill="white" stroke="black" points="5090.5,-0.5 5090.5,-30.5 5197.5,-30.5 5197.5,-0.5 5090.5,-0.5"/>
<text text-anchor="start" x="5098.5" y="-18.5" font-family="Helvetica,sans-Serif" font-size="10.00">src/libs/vpatterndb</text>
<text text-anchor="middle" x="5144" y="-7.5" font-family="Helvetica,sans-Serif" font-size="10.00">/vpiecenode.cpp</text>
</a>
</g>
</g>
<!-- Node2&#45;&gt;Node49 -->
<g id="edge56" class="edge">
<title>Node2&#45;&gt;Node49</title>
<path fill="none" stroke="midnightblue" d="M5458.16,-223.42C5388.05,-218.55 5282.04,-206.27 5257,-176 5245.1,-161.62 5246.29,-149.29 5257,-134 5283.86,-95.65 5329.14,-136.35 5356,-98 5363.9,-86.72 5364.54,-77.81 5356,-67 5336.62,-42.47 5253.93,-28.56 5197.73,-21.79"/>
<polygon fill="midnightblue" stroke="midnightblue" points="5458.03,-226.92 5468.24,-224.09 5458.49,-219.94 5458.03,-226.92"/>
</g>
<!-- Node63 -->
<g id="node44" class="node">
<title>Node63</title>
<g id="a_node44"><a xlink:href="../../d3/d02/custom__variable__p_8h.html" target="_top" xlink:title=" ">
<polygon fill="white" stroke="red" points="5266.5,-140 5266.5,-170 5435.5,-170 5435.5,-140 5266.5,-140"/>
<text text-anchor="start" x="5274.5" y="-158" font-family="Helvetica,sans-Serif" font-size="10.00">src/libs/vpatterndb</text>
<text text-anchor="middle" x="5351" y="-147" font-family="Helvetica,sans-Serif" font-size="10.00">/variables/custom_variable_p.h</text>
</a>
</g>
</g>
<!-- Node2&#45;&gt;Node63 -->
<g id="edge50" class="edge">
<title>Node2&#45;&gt;Node63</title>
<path fill="none" stroke="midnightblue" d="M5478.34,-208.5C5449.38,-196.56 5411.91,-181.11 5385.13,-170.07"/>
<polygon fill="midnightblue" stroke="midnightblue" points="5477.23,-211.83 5487.81,-212.4 5479.9,-205.36 5477.23,-211.83"/>
</g>
<!-- Node65 -->
<g id="node45" class="node">
<title>Node65</title>
<g id="a_node45"><a xlink:href="../../d7/d8a/measurement__variable__p_8h.html" target="_top" xlink:title=" ">
<polygon fill="white" stroke="red" points="5454,-134.5 5454,-175.5 5590,-175.5 5590,-134.5 5454,-134.5"/>
<text text-anchor="start" x="5462" y="-163.5" font-family="Helvetica,sans-Serif" font-size="10.00">src/libs/vpatterndb</text>
<text text-anchor="start" x="5462" y="-152.5" font-family="Helvetica,sans-Serif" font-size="10.00">/variables/measurement</text>
<text text-anchor="middle" x="5522" y="-141.5" font-family="Helvetica,sans-Serif" font-size="10.00">_variable_p.h</text>
</a>
</g>
</g>
<!-- Node2&#45;&gt;Node65 -->
<g id="edge51" class="edge">
<title>Node2&#45;&gt;Node65</title>
<path fill="none" stroke="midnightblue" d="M5522,-201.98C5522,-193.35 5522,-183.76 5522,-175.59"/>
<polygon fill="midnightblue" stroke="midnightblue" points="5518.5,-202.23 5522,-212.23 5525.5,-202.23 5518.5,-202.23"/>
</g>
<!-- Node2&#45;&gt;Node67 -->
<g id="edge53" class="edge">
<title>Node2&#45;&gt;Node67</title>
<path fill="none" stroke="midnightblue" d="M5585.75,-226.65C5706.4,-225.86 5975.97,-218.93 6198,-176 6205.77,-174.5 6213.93,-172.35 6221.71,-170.02"/>
<polygon fill="midnightblue" stroke="midnightblue" points="5585.56,-223.15 5575.58,-226.71 5585.6,-230.15 5585.56,-223.15"/>
</g>
<!-- Node2&#45;&gt;Node68 -->
<g id="edge57" class="edge">
<title>Node2&#45;&gt;Node68</title>
<path fill="none" stroke="midnightblue" d="M5585.93,-224.49C5749.84,-219 6182.03,-202.41 6323,-176 6330.78,-174.54 6338.95,-172.42 6346.72,-170.09"/>
<polygon fill="midnightblue" stroke="midnightblue" points="5585.41,-221 5575.53,-224.83 5585.64,-228 5585.41,-221"/>
</g>
<!-- Node69 -->
<g id="node48" class="node">
<title>Node69</title>
<g id="a_node48"><a xlink:href="../../d1/d3a/abstracttest_8cpp.html" target="_top" xlink:title=" ">
<polygon fill="white" stroke="black" points="5608.5,-145.5 5608.5,-164.5 5769.5,-164.5 5769.5,-145.5 5608.5,-145.5"/>
<text text-anchor="middle" x="5689" y="-152.5" font-family="Helvetica,sans-Serif" font-size="10.00">src/libs/vtest/abstracttest.cpp</text>
</a>
</g>
</g>
<!-- Node2&#45;&gt;Node69 -->
<g id="edge58" class="edge">
<title>Node2&#45;&gt;Node69</title>
<path fill="none" stroke="midnightblue" d="M5564.92,-208.38C5598.32,-194.28 5643.17,-175.35 5668.79,-164.53"/>
<polygon fill="midnightblue" stroke="midnightblue" points="5563.25,-205.29 5555.39,-212.4 5565.97,-211.74 5563.25,-205.29"/>
</g>
<!-- Node70 -->
<g id="node49" class="node">
<title>Node70</title>
<g id="a_node49"><a xlink:href="../../da/db4/piece__tablewidgetitem_8cpp.html" target="_top" xlink:title=" ">
<polygon fill="white" stroke="black" points="5788,-140 5788,-170 5916,-170 5916,-140 5788,-140"/>
<text text-anchor="start" x="5796" y="-158" font-family="Helvetica,sans-Serif" font-size="10.00">src/libs/vwidgets/piece</text>
<text text-anchor="middle" x="5852" y="-147" font-family="Helvetica,sans-Serif" font-size="10.00">_tablewidgetitem.cpp</text>
</a>
</g>
</g>
<!-- Node2&#45;&gt;Node70 -->
<g id="edge59" class="edge">
<title>Node2&#45;&gt;Node70</title>
<path fill="none" stroke="midnightblue" d="M5585.75,-215.19C5637.7,-205.67 5712.86,-191.21 5778,-176 5785.78,-174.18 5793.97,-172.12 5801.96,-170.03"/>
<polygon fill="midnightblue" stroke="midnightblue" points="5584.88,-211.79 5575.67,-217.03 5586.14,-218.68 5584.88,-211.79"/>
</g>
<!-- Node4&#45;&gt;Node5 -->
<g id="edge4" class="edge">
<title>Node4&#45;&gt;Node5</title>
<path fill="none" stroke="midnightblue" d="M6100,-134.94C6100,-121.03 6100,-102.82 6100,-92.22"/>
<polygon fill="midnightblue" stroke="midnightblue" points="6096.5,-135.36 6100,-145.36 6103.5,-135.36 6096.5,-135.36"/>
</g>
<!-- Node7 -->
<g id="node7" class="node">
<title>Node7</title>
<g id="a_node7"><a xlink:href="../../dd/d66/vdxfengine_8cpp.html" target="_top" xlink:title=" ">
<polygon fill="white" stroke="black" points="954,-73 954,-92 1108,-92 1108,-73 954,-73"/>
<text text-anchor="middle" x="1031" y="-80" font-family="Helvetica,sans-Serif" font-size="10.00">src/libs/vdxf/vdxfengine.cpp</text>
</a>
</g>
</g>
<!-- Node6&#45;&gt;Node7 -->
<g id="edge7" class="edge">
<title>Node6&#45;&gt;Node7</title>
<path fill="none" stroke="midnightblue" d="M774.58,-143.16C835.01,-129.1 939.19,-104.86 994.32,-92.03"/>
<polygon fill="midnightblue" stroke="midnightblue" points="773.5,-139.82 764.55,-145.5 775.08,-146.64 773.5,-139.82"/>
</g>
<!-- Node8 -->
<g id="node8" class="node">
<title>Node8</title>
<g id="a_node8"><a xlink:href="../../de/da8/vbank_8cpp.html" target="_top" xlink:title=" ">
<polygon fill="white" stroke="black" points="0,-73 0,-92 144,-92 144,-73 0,-73"/>
<text text-anchor="middle" x="72" y="-80" font-family="Helvetica,sans-Serif" font-size="10.00">src/libs/vlayout/vbank.cpp</text>
</a>
</g>
</g>
<!-- Node6&#45;&gt;Node8 -->
<g id="edge8" class="edge">
<title>Node6&#45;&gt;Node8</title>
<path fill="none" stroke="midnightblue" d="M634.83,-147.23C520.88,-138.42 322.26,-121.35 153,-98 140.97,-96.34 128,-94.18 116.04,-92.04"/>
<polygon fill="midnightblue" stroke="midnightblue" points="634.68,-150.73 644.91,-148.01 635.21,-143.75 634.68,-150.73"/>
</g>
<!-- Node9 -->
<g id="node9" class="node">
<title>Node9</title>
<g id="a_node9"><a xlink:href="../../df/d5d/vcontour_8cpp.html" target="_top" xlink:title=" ">
<polygon fill="white" stroke="black" points="162,-73 162,-92 318,-92 318,-73 162,-73"/>
<text text-anchor="middle" x="240" y="-80" font-family="Helvetica,sans-Serif" font-size="10.00">src/libs/vlayout/vcontour.cpp</text>
</a>
</g>
</g>
<!-- Node6&#45;&gt;Node9 -->
<g id="edge9" class="edge">
<title>Node6&#45;&gt;Node9</title>
<path fill="none" stroke="midnightblue" d="M652.92,-144.12C572.29,-133.36 440.44,-115.37 327,-98 314.89,-96.15 301.85,-94.03 289.65,-92.01"/>
<polygon fill="midnightblue" stroke="midnightblue" points="652.61,-147.61 662.98,-145.46 653.53,-140.67 652.61,-147.61"/>
</g>
<!-- Node10 -->
<g id="node10" class="node">
<title>Node10</title>
<g id="a_node10"><a xlink:href="../../d3/d39/vlayoutgenerator_8cpp.html" target="_top" xlink:title=" ">
<polygon fill="white" stroke="black" points="336.5,-73 336.5,-92 533.5,-92 533.5,-73 336.5,-73"/>
<text text-anchor="middle" x="435" y="-80" font-family="Helvetica,sans-Serif" font-size="10.00">src/libs/vlayout/vlayoutgenerator.cpp</text>
</a>
</g>
</g>
<!-- Node6&#45;&gt;Node10 -->
<g id="edge10" class="edge">
<title>Node6&#45;&gt;Node10</title>
<path fill="none" stroke="midnightblue" d="M682.6,-143.08C624.11,-129 523.67,-104.83 470.47,-92.03"/>
<polygon fill="midnightblue" stroke="midnightblue" points="682.12,-146.56 692.66,-145.5 683.75,-139.75 682.12,-146.56"/>
</g>
<!-- Node11 -->
<g id="node11" class="node">
<title>Node11</title>
<g id="a_node11"><a xlink:href="../../d1/dd1/vlayoutpaper_8cpp.html" target="_top" xlink:title=" ">
<polygon fill="white" stroke="black" points="639,-6 639,-25 817,-25 817,-6 639,-6"/>
<text text-anchor="middle" x="728" y="-13" font-family="Helvetica,sans-Serif" font-size="10.00">src/libs/vlayout/vlayoutpaper.cpp</text>
</a>
</g>
</g>
<!-- Node6&#45;&gt;Node11 -->
<g id="edge11" class="edge">
<title>Node6&#45;&gt;Node11</title>
<path fill="none" stroke="midnightblue" d="M728,-135.36C728,-105.23 728,-46.99 728,-25.1"/>
<polygon fill="midnightblue" stroke="midnightblue" points="724.5,-135.4 728,-145.4 731.5,-135.4 724.5,-135.4"/>
</g>
<!-- Node12 -->
<g id="node12" class="node">
<title>Node12</title>
<g id="a_node12"><a xlink:href="../../d2/d2d/vlayoutpaper__p_8h.html" target="_top" xlink:title=" ">
<polygon fill="white" stroke="black" points="756.5,-73 756.5,-92 935.5,-92 935.5,-73 756.5,-73"/>
<text text-anchor="middle" x="846" y="-80" font-family="Helvetica,sans-Serif" font-size="10.00">src/libs/vlayout/vlayoutpaper_p.h</text>
</a>
</g>
</g>
<!-- Node6&#45;&gt;Node12 -->
<g id="edge12" class="edge">
<title>Node6&#45;&gt;Node12</title>
<path fill="none" stroke="midnightblue" d="M751.23,-140.12C775.04,-125.89 811.35,-104.2 831.41,-92.22"/>
<polygon fill="midnightblue" stroke="midnightblue" points="749.26,-137.22 742.47,-145.36 752.85,-143.23 749.26,-137.22"/>
</g>
<!-- Node13 -->
<g id="node13" class="node">
<title>Node13</title>
<g id="a_node13"><a xlink:href="../../db/d5c/vposition_8h.html" target="_top" xlink:title=" ">
<polygon fill="white" stroke="red" points="552,-73 552,-92 700,-92 700,-73 552,-73"/>
<text text-anchor="middle" x="626" y="-80" font-family="Helvetica,sans-Serif" font-size="10.00">src/libs/vlayout/vposition.h</text>
</a>
</g>
</g>
<!-- Node6&#45;&gt;Node13 -->
<g id="edge14" class="edge">
<title>Node6&#45;&gt;Node13</title>
<path fill="none" stroke="midnightblue" d="M707.1,-139.55C686.5,-125.32 655.72,-104.04 638.61,-92.22"/>
<polygon fill="midnightblue" stroke="midnightblue" points="705.28,-142.55 715.49,-145.36 709.26,-136.79 705.28,-142.55"/>
</g>
<!-- Node15 -->
<g id="node14" class="node">
<title>Node15</title>
<g id="a_node14"><a xlink:href="../../dd/d70/vlayoutpiece_8cpp.html" target="_top" xlink:title=" ">
<polygon fill="white" stroke="black" points="1126.5,-73 1126.5,-92 1303.5,-92 1303.5,-73 1126.5,-73"/>
<text text-anchor="middle" x="1215" y="-80" font-family="Helvetica,sans-Serif" font-size="10.00">src/libs/vlayout/vlayoutpiece.cpp</text>
</a>
</g>
</g>
<!-- Node6&#45;&gt;Node15 -->
<g id="edge16" class="edge">
<title>Node6&#45;&gt;Node15</title>
<path fill="none" stroke="midnightblue" d="M797.82,-144.03C875.69,-132.9 1005.38,-114.29 1117,-98 1130.19,-96.07 1144.37,-93.99 1157.74,-92.01"/>
<polygon fill="midnightblue" stroke="midnightblue" points="797.06,-140.61 787.65,-145.49 798.05,-147.54 797.06,-140.61"/>
</g>
<!-- Node12&#45;&gt;Node11 -->
<g id="edge13" class="edge">
<title>Node12&#45;&gt;Node11</title>
<path fill="none" stroke="midnightblue" d="M821.11,-67.79C797.72,-54.9 763.44,-36.02 743.66,-25.13"/>
<polygon fill="midnightblue" stroke="midnightblue" points="819.64,-70.97 830.09,-72.73 823.02,-64.84 819.64,-70.97"/>
</g>
<!-- Node13&#45;&gt;Node11 -->
<g id="edge15" class="edge">
<title>Node13&#45;&gt;Node11</title>
<path fill="none" stroke="midnightblue" d="M648.33,-67.27C668.52,-54.4 697.59,-35.88 714.46,-25.13"/>
<polygon fill="midnightblue" stroke="midnightblue" points="646.31,-64.41 639.76,-72.73 650.07,-70.31 646.31,-64.41"/>
</g>
<!-- Node17&#45;&gt;Node3 -->
<g id="edge21" class="edge">
<title>Node17&#45;&gt;Node3</title>
<path fill="none" stroke="midnightblue" d="M3696.59,-152.87C4011.53,-149.17 4927.93,-135.4 5225,-98 5228.26,-97.59 5231.59,-97.1 5234.95,-96.54"/>
<polygon fill="midnightblue" stroke="midnightblue" points="3696.51,-149.37 3686.55,-152.99 3696.59,-156.37 3696.51,-149.37"/>
</g>
<!-- Node17&#45;&gt;Node15 -->
<g id="edge31" class="edge">
<title>Node17&#45;&gt;Node15</title>
<path fill="none" stroke="midnightblue" d="M3481.17,-153.1C3089.42,-149.55 1742.01,-134.88 1313,-98 1297.15,-96.64 1279.96,-94.37 1264.47,-92.02"/>
<polygon fill="midnightblue" stroke="midnightblue" points="3481.34,-156.6 3491.37,-153.19 3481.4,-149.6 3481.34,-156.6"/>
</g>
<!-- Node17&#45;&gt;Node16 -->
<g id="edge32" class="edge">
<title>Node17&#45;&gt;Node16</title>
<path fill="none" stroke="midnightblue" d="M3481.34,-151.84C3083.51,-143.74 1709.28,-114.82 1513,-98 1496.92,-96.62 1479.48,-94.36 1463.74,-92.03"/>
<polygon fill="midnightblue" stroke="midnightblue" points="3481.34,-155.34 3491.41,-152.04 3481.48,-148.34 3481.34,-155.34"/>
</g>
<!-- Node18 -->
<g id="node17" class="node">
<title>Node18</title>
<g id="a_node17"><a xlink:href="../../d4/d90/fvupdater_8cpp.html" target="_top" xlink:title=" ">
<polygon fill="white" stroke="black" points="3150.5,-73 3150.5,-92 3303.5,-92 3303.5,-73 3150.5,-73"/>
<text text-anchor="middle" x="3227" y="-80" font-family="Helvetica,sans-Serif" font-size="10.00">src/libs/fervor/fvupdater.cpp</text>
</a>
</g>
</g>
<!-- Node17&#45;&gt;Node18 -->
<g id="edge19" class="edge">
<title>Node17&#45;&gt;Node18</title>
<path fill="none" stroke="midnightblue" d="M3535.13,-143.51C3463.22,-129.5 3337.23,-104.97 3270.82,-92.03"/>
<polygon fill="midnightblue" stroke="midnightblue" points="3534.85,-147.02 3545.33,-145.5 3536.19,-140.15 3534.85,-147.02"/>
</g>
<!-- Node19 -->
<g id="node18" class="node">
<title>Node19</title>
<g id="a_node18"><a xlink:href="../../d1/d8d/image__item_8h.html" target="_top" xlink:title=" ">
<polygon fill="white" stroke="red" points="3322,-67.5 3322,-97.5 3434,-97.5 3434,-67.5 3322,-67.5"/>
<text text-anchor="start" x="3330" y="-85.5" font-family="Helvetica,sans-Serif" font-size="10.00">src/libs/tools/image</text>
<text text-anchor="middle" x="3378" y="-74.5" font-family="Helvetica,sans-Serif" font-size="10.00">_item.h</text>
</a>
</g>
</g>
<!-- Node17&#45;&gt;Node19 -->
<g id="edge20" class="edge">
<title>Node17&#45;&gt;Node19</title>
<path fill="none" stroke="midnightblue" d="M3553.74,-142.22C3516.89,-129.91 3459.08,-110.59 3419.92,-97.51"/>
<polygon fill="midnightblue" stroke="midnightblue" points="3552.95,-145.65 3563.55,-145.5 3555.17,-139.01 3552.95,-145.65"/>
</g>
<!-- Node29 -->
<g id="node19" class="node">
<title>Node29</title>
<g id="a_node19"><a xlink:href="../../d9/dc8/dxiface_8cpp.html" target="_top" xlink:title=" ">
<polygon fill="white" stroke="black" points="3452.5,-73 3452.5,-92 3587.5,-92 3587.5,-73 3452.5,-73"/>
<text text-anchor="middle" x="3520" y="-80" font-family="Helvetica,sans-Serif" font-size="10.00">src/libs/vdxf/dxiface.cpp</text>
</a>
</g>
</g>
<!-- Node17&#45;&gt;Node29 -->
<g id="edge22" class="edge">
<title>Node17&#45;&gt;Node29</title>
<path fill="none" stroke="midnightblue" d="M3573.53,-138.19C3559.63,-123.99 3539.74,-103.67 3528.53,-92.22"/>
<polygon fill="midnightblue" stroke="midnightblue" points="3571.04,-140.66 3580.54,-145.36 3576.05,-135.76 3571.04,-140.66"/>
</g>
<!-- Node30 -->
<g id="node20" class="node">
<title>Node30</title>
<g id="a_node20"><a xlink:href="../../da/d75/vabstractarc__p_8h.html" target="_top" xlink:title=" ">
<polygon fill="white" stroke="red" points="3605.5,-67.5 3605.5,-97.5 3712.5,-97.5 3712.5,-67.5 3605.5,-67.5"/>
<text text-anchor="start" x="3613.5" y="-85.5" font-family="Helvetica,sans-Serif" font-size="10.00">src/libs/vgeometry</text>
<text text-anchor="middle" x="3659" y="-74.5" font-family="Helvetica,sans-Serif" font-size="10.00">/vabstractarc_p.h</text>
</a>
</g>
</g>
<!-- Node17&#45;&gt;Node30 -->
<g id="edge23" class="edge">
<title>Node17&#45;&gt;Node30</title>
<path fill="none" stroke="midnightblue" d="M3604.79,-138.09C3616.89,-125.91 3633.41,-109.27 3645.02,-97.58"/>
<polygon fill="midnightblue" stroke="midnightblue" points="3602.15,-135.79 3597.58,-145.36 3607.11,-140.73 3602.15,-135.79"/>
</g>
<!-- Node32 -->
<g id="node21" class="node">
<title>Node32</title>
<g id="a_node21"><a xlink:href="../../dc/da3/varc__p_8h.html" target="_top" xlink:title=" ">
<polygon fill="white" stroke="red" points="3730.5,-67.5 3730.5,-97.5 3837.5,-97.5 3837.5,-67.5 3730.5,-67.5"/>
<text text-anchor="start" x="3738.5" y="-85.5" font-family="Helvetica,sans-Serif" font-size="10.00">src/libs/vgeometry</text>
<text text-anchor="middle" x="3784" y="-74.5" font-family="Helvetica,sans-Serif" font-size="10.00">/varc_p.h</text>
</a>
</g>
</g>
<!-- Node17&#45;&gt;Node32 -->
<g id="edge24" class="edge">
<title>Node17&#45;&gt;Node32</title>
<path fill="none" stroke="midnightblue" d="M3622.02,-142.06C3656.1,-129.74 3709.22,-110.54 3745.26,-97.51"/>
<polygon fill="midnightblue" stroke="midnightblue" points="3620.74,-138.8 3612.52,-145.5 3623.12,-145.39 3620.74,-138.8"/>
</g>
<!-- Node34 -->
<g id="node22" class="node">
<title>Node34</title>
<g id="a_node22"><a xlink:href="../../d5/d8e/vcubicbezier__p_8h.html" target="_top" xlink:title=" ">
<polygon fill="white" stroke="red" points="3855.5,-67.5 3855.5,-97.5 3962.5,-97.5 3962.5,-67.5 3855.5,-67.5"/>
<text text-anchor="start" x="3863.5" y="-85.5" font-family="Helvetica,sans-Serif" font-size="10.00">src/libs/vgeometry</text>
<text text-anchor="middle" x="3909" y="-74.5" font-family="Helvetica,sans-Serif" font-size="10.00">/vcubicbezier_p.h</text>
</a>
</g>
</g>
<!-- Node17&#45;&gt;Node34 -->
<g id="edge25" class="edge">
<title>Node17&#45;&gt;Node34</title>
<path fill="none" stroke="midnightblue" d="M3639.03,-143.28C3690.85,-132.13 3774.15,-114.1 3846,-98 3849.07,-97.31 3852.22,-96.6 3855.39,-95.88"/>
<polygon fill="midnightblue" stroke="midnightblue" points="3638.14,-139.89 3629.1,-145.41 3639.61,-146.73 3638.14,-139.89"/>
</g>
<!-- Node36 -->
<g id="node23" class="node">
<title>Node36</title>
<g id="a_node23"><a xlink:href="../../df/dde/vellipticalarc__p_8h.html" target="_top" xlink:title=" ">
<polygon fill="white" stroke="black" points="1647.5,-67.5 1647.5,-97.5 1754.5,-97.5 1754.5,-67.5 1647.5,-67.5"/>
<text text-anchor="start" x="1655.5" y="-85.5" font-family="Helvetica,sans-Serif" font-size="10.00">src/libs/vgeometry</text>
<text text-anchor="middle" x="1701" y="-74.5" font-family="Helvetica,sans-Serif" font-size="10.00">/vellipticalarc_p.h</text>
</a>
</g>
</g>
<!-- Node17&#45;&gt;Node36 -->
<g id="edge26" class="edge">
<title>Node17&#45;&gt;Node36</title>
<path fill="none" stroke="midnightblue" d="M3481.26,-151.92C3115.37,-144.7 1933.7,-119.92 1764,-98 1760.99,-97.61 1757.92,-97.14 1754.83,-96.62"/>
<polygon fill="midnightblue" stroke="midnightblue" points="3481.26,-155.42 3491.32,-152.12 3481.4,-148.43 3481.26,-155.42"/>
</g>
<!-- Node37 -->
<g id="node24" class="node">
<title>Node37</title>
<g id="a_node24"><a xlink:href="../../d6/dfb/vellipticalarc_8cpp.html" target="_top" xlink:title=" ">
<polygon fill="white" stroke="black" points="2792.5,-0.5 2792.5,-30.5 2899.5,-30.5 2899.5,-0.5 2792.5,-0.5"/>
<text text-anchor="start" x="2800.5" y="-18.5" font-family="Helvetica,sans-Serif" font-size="10.00">src/libs/vgeometry</text>
<text text-anchor="middle" x="2846" y="-7.5" font-family="Helvetica,sans-Serif" font-size="10.00">/vellipticalarc.cpp</text>
</a>
</g>
</g>
<!-- Node17&#45;&gt;Node37 -->
<g id="edge28" class="edge">
<title>Node17&#45;&gt;Node37</title>
<path fill="none" stroke="midnightblue" d="M3696.89,-153.34C3797.17,-150.16 3936.15,-138.33 3971,-98 3980.01,-87.58 3980.52,-76.96 3971,-67 3933.59,-27.87 3118.71,-18.65 2899.75,-16.87"/>
<polygon fill="midnightblue" stroke="midnightblue" points="3696.6,-149.85 3686.7,-153.64 3696.8,-156.85 3696.6,-149.85"/>
</g>
<!-- Node38 -->
<g id="node25" class="node">
<title>Node38</title>
<g id="a_node25"><a xlink:href="../../d1/d76/vspline__p_8h.html" target="_top" xlink:title=" ">
<polygon fill="white" stroke="red" points="4019.5,-67.5 4019.5,-97.5 4126.5,-97.5 4126.5,-67.5 4019.5,-67.5"/>
<text text-anchor="start" x="4027.5" y="-85.5" font-family="Helvetica,sans-Serif" font-size="10.00">src/libs/vgeometry</text>
<text text-anchor="middle" x="4073" y="-74.5" font-family="Helvetica,sans-Serif" font-size="10.00">/vspline_p.h</text>
</a>
</g>
</g>
<!-- Node17&#45;&gt;Node38 -->
<g id="edge29" class="edge">
<title>Node17&#45;&gt;Node38</title>
<path fill="none" stroke="midnightblue" d="M3675.61,-144.29C3759.96,-134.38 3891.68,-117.68 4005,-98 4009.64,-97.19 4014.44,-96.3 4019.25,-95.36"/>
<polygon fill="midnightblue" stroke="midnightblue" points="3675.08,-140.83 3665.56,-145.47 3675.9,-147.78 3675.08,-140.83"/>
</g>
<!-- Node40 -->
<g id="node26" class="node">
<title>Node40</title>
<g id="a_node26"><a xlink:href="../../d9/d15/vabstractpiece_8cpp.html" target="_top" xlink:title=" ">
<polygon fill="white" stroke="black" points="4145,-73 4145,-92 4331,-92 4331,-73 4145,-73"/>
<text text-anchor="middle" x="4238" y="-80" font-family="Helvetica,sans-Serif" font-size="10.00">src/libs/vlayout/vabstractpiece.cpp</text>
</a>
</g>
</g>
<!-- Node17&#45;&gt;Node40 -->
<g id="edge30" class="edge">
<title>Node17&#45;&gt;Node40</title>
<path fill="none" stroke="midnightblue" d="M3692.93,-144.51C3802.88,-134.21 3981.36,-116.69 4135,-98 4149.7,-96.21 4165.55,-94.08 4180.31,-92.01"/>
<polygon fill="midnightblue" stroke="midnightblue" points="3692.47,-141.04 3682.84,-145.46 3693.12,-148.01 3692.47,-141.04"/>
</g>
<!-- Node41 -->
<g id="node27" class="node">
<title>Node41</title>
<g id="a_node27"><a xlink:href="../../db/d65/dialogexporttocsv_8cpp.html" target="_top" xlink:title=" ">
<polygon fill="white" stroke="black" points="4349.5,-67.5 4349.5,-97.5 4476.5,-97.5 4476.5,-67.5 4349.5,-67.5"/>
<text text-anchor="start" x="4357.5" y="-85.5" font-family="Helvetica,sans-Serif" font-size="10.00">src/libs/vmisc/dialogs</text>
<text text-anchor="middle" x="4413" y="-74.5" font-family="Helvetica,sans-Serif" font-size="10.00">/dialogexporttocsv.cpp</text>
</a>
</g>
</g>
<!-- Node17&#45;&gt;Node41 -->
<g id="edge33" class="edge">
<title>Node17&#45;&gt;Node41</title>
<path fill="none" stroke="midnightblue" d="M3696.93,-150.08C3843.2,-143.82 4112.28,-128.99 4340,-98 4343.07,-97.58 4346.21,-97.11 4349.38,-96.61"/>
<polygon fill="midnightblue" stroke="midnightblue" points="3696.45,-146.6 3686.61,-150.51 3696.75,-153.59 3696.45,-146.6"/>
</g>
<!-- Node42 -->
<g id="node28" class="node">
<title>Node42</title>
<g id="a_node28"><a xlink:href="../../d6/d0b/def_8cpp.html" target="_top" xlink:title=" ">
<polygon fill="white" stroke="black" points="4495,-73 4495,-92 4617,-92 4617,-73 4495,-73"/>
<text text-anchor="middle" x="4556" y="-80" font-family="Helvetica,sans-Serif" font-size="10.00">src/libs/vmisc/def.cpp</text>
</a>
</g>
</g>
<!-- Node17&#45;&gt;Node42 -->
<g id="edge34" class="edge">
<title>Node17&#45;&gt;Node42</title>
<path fill="none" stroke="midnightblue" d="M3696.68,-152.1C3865.4,-148.03 4202.05,-135.55 4485,-98 4496.22,-96.51 4508.33,-94.28 4519.31,-92"/>
<polygon fill="midnightblue" stroke="midnightblue" points="3696.46,-148.6 3686.55,-152.34 3696.63,-155.6 3696.46,-148.6"/>
</g>
<!-- Node43 -->
<g id="node29" class="node">
<title>Node43</title>
<g id="a_node29"><a xlink:href="../../d0/df6/vabstractapplication_8cpp.html" target="_top" xlink:title=" ">
<polygon fill="white" stroke="black" points="4635,-73 4635,-92 4841,-92 4841,-73 4635,-73"/>
<text text-anchor="middle" x="4738" y="-80" font-family="Helvetica,sans-Serif" font-size="10.00">src/libs/vmisc/vabstractapplication.cpp</text>
</a>
</g>
</g>
<!-- Node17&#45;&gt;Node43 -->
<g id="edge35" class="edge">
<title>Node17&#45;&gt;Node43</title>
<path fill="none" stroke="midnightblue" d="M3696.95,-150.83C3885.67,-144.7 4287.72,-128.99 4626,-98 4643.18,-96.43 4661.79,-94.22 4678.8,-92"/>
<polygon fill="midnightblue" stroke="midnightblue" points="3696.64,-147.34 3686.75,-151.16 3696.86,-154.34 3696.64,-147.34"/>
</g>
<!-- Node44 -->
<g id="node30" class="node">
<title>Node44</title>
<g id="a_node30"><a xlink:href="../../d4/d4f/pmsystems_8cpp.html" target="_top" xlink:title=" ">
<polygon fill="white" stroke="black" points="1522.5,-67.5 1522.5,-97.5 1629.5,-97.5 1629.5,-67.5 1522.5,-67.5"/>
<text text-anchor="start" x="1530.5" y="-85.5" font-family="Helvetica,sans-Serif" font-size="10.00">src/libs/vpatterndb</text>
<text text-anchor="middle" x="1576" y="-74.5" font-family="Helvetica,sans-Serif" font-size="10.00">/pmsystems.cpp</text>
</a>
</g>
</g>
<!-- Node17&#45;&gt;Node44 -->
<g id="edge36" class="edge">
<title>Node17&#45;&gt;Node44</title>
<path fill="none" stroke="midnightblue" d="M3481.08,-152.17C3098.55,-145.51 1820.52,-121.72 1638,-98 1635.26,-97.64 1632.46,-97.22 1629.65,-96.74"/>
<polygon fill="midnightblue" stroke="midnightblue" points="3481.25,-155.67 3491.31,-152.35 3481.37,-148.68 3481.25,-155.67"/>
</g>
<!-- Node17&#45;&gt;Node45 -->
<g id="edge37" class="edge">
<title>Node17&#45;&gt;Node45</title>
<path fill="none" stroke="midnightblue" d="M3696.99,-152.23C3978.24,-147.21 4728.62,-131.04 4975,-98 4978,-97.6 4981.07,-97.12 4984.16,-96.58"/>
<polygon fill="midnightblue" stroke="midnightblue" points="3696.71,-148.74 3686.78,-152.41 3696.84,-155.73 3696.71,-148.74"/>
</g>
<!-- Node17&#45;&gt;Node46 -->
<g id="edge38" class="edge">
<title>Node17&#45;&gt;Node46</title>
<path fill="none" stroke="midnightblue" d="M3697.09,-152.65C3995.82,-148.5 4828.51,-133.94 5100,-98 5103,-97.6 5106.08,-97.13 5109.17,-96.6"/>
<polygon fill="midnightblue" stroke="midnightblue" points="3696.64,-149.16 3686.69,-152.79 3696.73,-156.16 3696.64,-149.16"/>
</g>
<!-- Node17&#45;&gt;Node47 -->
<g id="edge39" class="edge">
<title>Node17&#45;&gt;Node47</title>
<path fill="none" stroke="midnightblue" d="M3696.87,-150.76C4109.33,-138.35 5578.5,-94.16 5879.05,-85.12"/>
<polygon fill="midnightblue" stroke="midnightblue" points="3696.62,-147.26 3686.73,-151.06 3696.84,-154.26 3696.62,-147.26"/>
</g>
<!-- Node48 -->
<g id="node34" class="node">
<title>Node48</title>
<g id="a_node34"><a xlink:href="../../df/dba/vpiecenode__p_8h.html" target="_top" xlink:title=" ">
<polygon fill="white" stroke="black" points="4859.5,-67.5 4859.5,-97.5 4966.5,-97.5 4966.5,-67.5 4859.5,-67.5"/>
<text text-anchor="start" x="4867.5" y="-85.5" font-family="Helvetica,sans-Serif" font-size="10.00">src/libs/vpatterndb</text>
<text text-anchor="middle" x="4913" y="-74.5" font-family="Helvetica,sans-Serif" font-size="10.00">/vpiecenode_p.h</text>
</a>
</g>
</g>
<!-- Node17&#45;&gt;Node48 -->
<g id="edge40" class="edge">
<title>Node17&#45;&gt;Node48</title>
<path fill="none" stroke="midnightblue" d="M3696.92,-151.73C3959.93,-145.79 4628.63,-128.14 4850,-98 4853,-97.59 4856.07,-97.11 4859.16,-96.57"/>
<polygon fill="midnightblue" stroke="midnightblue" points="3696.51,-148.24 3686.6,-151.96 3696.67,-155.24 3696.51,-148.24"/>
</g>
<!-- Node50 -->
<g id="node36" class="node">
<title>Node50</title>
<g id="a_node36"><a xlink:href="../../de/d3e/vtranslatevars_8cpp.html" target="_top" xlink:title=" ">
<polygon fill="white" stroke="black" points="1773,-67.5 1773,-97.5 1883,-97.5 1883,-67.5 1773,-67.5"/>
<text text-anchor="start" x="1781" y="-85.5" font-family="Helvetica,sans-Serif" font-size="10.00">src/libs/vpatterndb</text>
<text text-anchor="middle" x="1828" y="-74.5" font-family="Helvetica,sans-Serif" font-size="10.00">/vtranslatevars.cpp</text>
</a>
</g>
</g>
<!-- Node17&#45;&gt;Node50 -->
<g id="edge42" class="edge">
<title>Node17&#45;&gt;Node50</title>
<path fill="none" stroke="midnightblue" d="M3481.09,-153.12C3157.94,-150.05 2201.21,-137.76 1892,-98 1889.06,-97.62 1886.06,-97.17 1883.04,-96.67"/>
<polygon fill="midnightblue" stroke="midnightblue" points="3481.36,-156.62 3491.4,-153.21 3481.43,-149.62 3481.36,-156.62"/>
</g>
<!-- Node23 -->
<g id="node37" class="node">
<title>Node23</title>
<g id="a_node37"><a xlink:href="../../df/d40/export__format__combobox_8cpp.html" target="_top" xlink:title=" ">
<polygon fill="white" stroke="black" points="1901.5,-67.5 1901.5,-97.5 2034.5,-97.5 2034.5,-67.5 1901.5,-67.5"/>
<text text-anchor="start" x="1909.5" y="-85.5" font-family="Helvetica,sans-Serif" font-size="10.00">src/libs/vwidgets/export</text>
<text text-anchor="middle" x="1968" y="-74.5" font-family="Helvetica,sans-Serif" font-size="10.00">_format_combobox.cpp</text>
</a>
</g>
</g>
<!-- Node17&#45;&gt;Node23 -->
<g id="edge43" class="edge">
<title>Node17&#45;&gt;Node23</title>
<path fill="none" stroke="midnightblue" d="M3481.16,-152.23C3178.14,-146.92 2323.05,-129.49 2044,-98 2040.93,-97.65 2037.8,-97.25 2034.64,-96.81"/>
<polygon fill="midnightblue" stroke="midnightblue" points="3481.21,-155.73 3491.27,-152.41 3481.33,-148.73 3481.21,-155.73"/>
</g>
<!-- Node51 -->
<g id="node38" class="node">
<title>Node51</title>
<g id="a_node38"><a xlink:href="../../d3/d4f/mouse__coordinates_8cpp.html" target="_top" xlink:title=" ">
<polygon fill="white" stroke="black" points="2053,-67.5 2053,-97.5 2187,-97.5 2187,-67.5 2053,-67.5"/>
<text text-anchor="start" x="2061" y="-85.5" font-family="Helvetica,sans-Serif" font-size="10.00">src/libs/vwidgets/mouse</text>
<text text-anchor="middle" x="2120" y="-74.5" font-family="Helvetica,sans-Serif" font-size="10.00">_coordinates.cpp</text>
</a>
</g>
</g>
<!-- Node17&#45;&gt;Node51 -->
<g id="edge44" class="edge">
<title>Node17&#45;&gt;Node51</title>
<path fill="none" stroke="midnightblue" d="M3481.04,-151.73C3198.92,-145.48 2444.36,-126.52 2196,-98 2193.06,-97.66 2190.07,-97.28 2187.05,-96.85"/>
<polygon fill="midnightblue" stroke="midnightblue" points="3481.21,-155.24 3491.28,-151.96 3481.36,-148.24 3481.21,-155.24"/>
</g>
<!-- Node26 -->
<g id="node39" class="node">
<title>Node26</title>
<g id="a_node39"><a xlink:href="../../d2/d28/page__format__combobox_8cpp.html" target="_top" xlink:title=" ">
<polygon fill="white" stroke="black" points="2205.5,-67.5 2205.5,-97.5 2336.5,-97.5 2336.5,-67.5 2205.5,-67.5"/>
<text text-anchor="start" x="2213.5" y="-85.5" font-family="Helvetica,sans-Serif" font-size="10.00">src/libs/vwidgets/page</text>
<text text-anchor="middle" x="2271" y="-74.5" font-family="Helvetica,sans-Serif" font-size="10.00">_format_combobox.cpp</text>
</a>
</g>
</g>
<!-- Node17&#45;&gt;Node26 -->
<g id="edge45" class="edge">
<title>Node17&#45;&gt;Node26</title>
<path fill="none" stroke="midnightblue" d="M3481.34,-154.52C3265.15,-154.38 2763.11,-148.09 2345,-98 2342.27,-97.67 2339.49,-97.3 2336.69,-96.9"/>
<polygon fill="midnightblue" stroke="midnightblue" points="3481.42,-158.02 3491.42,-154.52 3481.42,-151.02 3481.42,-158.02"/>
</g>
<!-- Node52 -->
<g id="node40" class="node">
<title>Node52</title>
<g id="a_node40"><a xlink:href="../../d7/d1b/pen__toolbar_8cpp.html" target="_top" xlink:title=" ">
<polygon fill="white" stroke="black" points="2354.5,-67.5 2354.5,-97.5 2473.5,-97.5 2473.5,-67.5 2354.5,-67.5"/>
<text text-anchor="start" x="2362.5" y="-85.5" font-family="Helvetica,sans-Serif" font-size="10.00">src/libs/vwidgets/pen</text>
<text text-anchor="middle" x="2414" y="-74.5" font-family="Helvetica,sans-Serif" font-size="10.00">_toolbar.cpp</text>
</a>
</g>
</g>
<!-- Node17&#45;&gt;Node52 -->
<g id="edge46" class="edge">
<title>Node17&#45;&gt;Node52</title>
<path fill="none" stroke="midnightblue" d="M3481.13,-154.13C3282.71,-153.12 2846.8,-145.14 2483,-98 2479.97,-97.61 2476.87,-97.15 2473.74,-96.65"/>
<polygon fill="midnightblue" stroke="midnightblue" points="3481.25,-157.63 3491.27,-154.17 3481.28,-150.63 3481.25,-157.63"/>
</g>
<!-- Node53 -->
<g id="node41" class="node">
<title>Node53</title>
<g id="a_node41"><a xlink:href="../../d8/d76/scene__rect_8cpp.html" target="_top" xlink:title=" ">
<polygon fill="white" stroke="black" points="2492,-67.5 2492,-97.5 2622,-97.5 2622,-67.5 2492,-67.5"/>
<text text-anchor="start" x="2500" y="-85.5" font-family="Helvetica,sans-Serif" font-size="10.00">src/libs/vwidgets/scene</text>
<text text-anchor="middle" x="2557" y="-74.5" font-family="Helvetica,sans-Serif" font-size="10.00">_rect.cpp</text>
</a>
</g>
</g>
<!-- Node17&#45;&gt;Node53 -->
<g id="edge47" class="edge">
<title>Node17&#45;&gt;Node53</title>
<path fill="none" stroke="midnightblue" d="M3481.23,-152.44C3303.45,-148.8 2937.84,-136.85 2631,-98 2628.14,-97.64 2625.23,-97.23 2622.29,-96.79"/>
<polygon fill="midnightblue" stroke="midnightblue" points="3481.3,-155.94 3491.37,-152.64 3481.44,-148.94 3481.3,-155.94"/>
</g>
<!-- Node54 -->
<g id="node42" class="node">
<title>Node54</title>
<g id="a_node42"><a xlink:href="../../dd/df6/vabstractmainwindow_8cpp.html" target="_top" xlink:title=" ">
<polygon fill="white" stroke="black" points="2640.5,-73 2640.5,-92 2869.5,-92 2869.5,-73 2640.5,-73"/>
<text text-anchor="middle" x="2755" y="-80" font-family="Helvetica,sans-Serif" font-size="10.00">src/libs/vwidgets/vabstractmainwindow.cpp</text>
</a>
</g>
</g>
<!-- Node17&#45;&gt;Node54 -->
<g id="edge48" class="edge">
<title>Node17&#45;&gt;Node54</title>
<path fill="none" stroke="midnightblue" d="M3481.03,-146.76C3341.77,-137.12 3092.1,-118.86 2879,-98 2861.1,-96.25 2841.77,-94.11 2823.82,-92.02"/>
<polygon fill="midnightblue" stroke="midnightblue" points="3481.06,-150.27 3491.28,-147.46 3481.54,-143.28 3481.06,-150.27"/>
</g>
<!-- Node55 -->
<g id="node43" class="node">
<title>Node55</title>
<g id="a_node43"><a xlink:href="../../de/dec/vgraphicssimpletextitem_8cpp.html" target="_top" xlink:title=" ">
<polygon fill="white" stroke="black" points="2888,-73 2888,-92 3132,-92 3132,-73 2888,-73"/>
<text text-anchor="middle" x="3010" y="-80" font-family="Helvetica,sans-Serif" font-size="10.00">src/libs/vwidgets/vgraphicssimpletextitem.cpp</text>
</a>
</g>
</g>
<!-- Node17&#45;&gt;Node55 -->
<g id="edge49" class="edge">
<title>Node17&#45;&gt;Node55</title>
<path fill="none" stroke="midnightblue" d="M3509.11,-144.27C3395.29,-130.41 3188.27,-105.21 3080.09,-92.03"/>
<polygon fill="midnightblue" stroke="midnightblue" points="3508.81,-147.76 3519.16,-145.5 3509.66,-140.81 3508.81,-147.76"/>
</g>
<!-- Node36&#45;&gt;Node37 -->
<g id="edge27" class="edge">
<title>Node36&#45;&gt;Node37</title>
<path fill="none" stroke="midnightblue" d="M1765.05,-67.08C1985.93,-38.72 2605.99,-22.19 2792.39,-17.73"/>
<polygon fill="midnightblue" stroke="midnightblue" points="1764.29,-63.65 1754.84,-68.44 1765.21,-70.59 1764.29,-63.65"/>
</g>
<!-- Node48&#45;&gt;Node49 -->
<g id="edge41" class="edge">
<title>Node48&#45;&gt;Node49</title>
<path fill="none" stroke="midnightblue" d="M4972.65,-64.71C5010.24,-54.14 5058.23,-40.63 5093.85,-30.61"/>
<polygon fill="midnightblue" stroke="midnightblue" points="4971.52,-61.4 4962.84,-67.48 4973.41,-68.14 4971.52,-61.4"/>
</g>
<!-- Node71&#45;&gt;Node47 -->
<g id="edge62" class="edge">
<title>Node71&#45;&gt;Node47</title>
<path fill="none" stroke="midnightblue" d="M6462.64,-202.18C6465.94,-181.13 6466.53,-151.41 6449,-134 6413.17,-98.42 6045.9,-105.68 5996,-98 5992.89,-97.52 5989.71,-96.97 5986.51,-96.38"/>
<polygon fill="midnightblue" stroke="midnightblue" points="6459.15,-201.82 6460.75,-212.29 6466.03,-203.1 6459.15,-201.82"/>
</g>
</g>
</svg>
