<?xml version="1.0" encoding="UTF-8" standalone="no"?>
<!DOCTYPE svg PUBLIC "-//W3C//DTD SVG 1.1//EN"
 "http://www.w3.org/Graphics/SVG/1.1/DTD/svg11.dtd">
<!-- Generated by graphviz version 2.43.0 (0)
 -->
<!-- Title: src/libs/vpatterndb/vpiecepath.h Pages: 1 -->
<svg width="6200pt" height="318pt"
 viewBox="0.00 0.00 6200.00 318.00" xmlns="http://www.w3.org/2000/svg" xmlns:xlink="http://www.w3.org/1999/xlink">
<g id="graph0" class="graph" transform="scale(1 1) rotate(0) translate(4 314)">
<title>src/libs/vpatterndb/vpiecepath.h</title>
<polygon fill="white" stroke="transparent" points="-4,4 -4,-314 6196,-314 6196,4 -4,4"/>
<!-- Node1 -->
<g id="node1" class="node">
<title>Node1</title>
<g id="a_node1"><a xlink:title=" ">
<polygon fill="#bfbfbf" stroke="black" points="5198.5,-279.5 5198.5,-309.5 5305.5,-309.5 5305.5,-279.5 5198.5,-279.5"/>
<text text-anchor="start" x="5206.5" y="-297.5" font-family="Helvetica,sans-Serif" font-size="10.00">src/libs/vpatterndb</text>
<text text-anchor="middle" x="5252" y="-286.5" font-family="Helvetica,sans-Serif" font-size="10.00">/vpiecepath.h</text>
</a>
</g>
</g>
<!-- Node2 -->
<g id="node2" class="node">
<title>Node2</title>
<g id="a_node2"><a xlink:href="../../d6/d91/vnodedetail_8cpp.html" target="_top" xlink:title=" ">
<polygon fill="white" stroke="black" points="716.5,-140 716.5,-170 823.5,-170 823.5,-140 716.5,-140"/>
<text text-anchor="start" x="724.5" y="-158" font-family="Helvetica,sans-Serif" font-size="10.00">src/libs/vpatterndb</text>
<text text-anchor="middle" x="770" y="-147" font-family="Helvetica,sans-Serif" font-size="10.00">/vnodedetail.cpp</text>
</a>
</g>
</g>
<!-- Node1&#45;&gt;Node2 -->
<g id="edge1" class="edge">
<title>Node1&#45;&gt;Node2</title>
<path fill="none" stroke="midnightblue" d="M5188.37,-292.89C4679.64,-287.85 1280.91,-251.5 833,-176 824.85,-174.63 816.3,-172.44 808.23,-170.02"/>
<polygon fill="midnightblue" stroke="midnightblue" points="5188.43,-296.39 5198.46,-292.99 5188.49,-289.39 5188.43,-296.39"/>
</g>
<!-- Node3 -->
<g id="node3" class="node">
<title>Node3</title>
<g id="a_node3"><a xlink:href="../../d3/df7/vcontainer_8h.html" target="_top" xlink:title=" ">
<polygon fill="white" stroke="black" points="5157.5,-212.5 5157.5,-242.5 5264.5,-242.5 5264.5,-212.5 5157.5,-212.5"/>
<text text-anchor="start" x="5165.5" y="-230.5" font-family="Helvetica,sans-Serif" font-size="10.00">src/libs/vpatterndb</text>
<text text-anchor="middle" x="5211" y="-219.5" font-family="Helvetica,sans-Serif" font-size="10.00">/vcontainer.h</text>
</a>
</g>
</g>
<!-- Node1&#45;&gt;Node3 -->
<g id="edge2" class="edge">
<title>Node1&#45;&gt;Node3</title>
<path fill="none" stroke="midnightblue" d="M5237.72,-270.87C5231.79,-261.46 5225.09,-250.83 5219.88,-242.58"/>
<polygon fill="midnightblue" stroke="midnightblue" points="5234.81,-272.81 5243.1,-279.4 5240.73,-269.07 5234.81,-272.81"/>
</g>
<!-- Node68 -->
<g id="node47" class="node">
<title>Node68</title>
<g id="a_node47"><a xlink:href="../../da/de1/vpiecepath_8cpp.html" target="_top" xlink:title=" ">
<polygon fill="white" stroke="black" points="6067.5,-140 6067.5,-170 6174.5,-170 6174.5,-140 6067.5,-140"/>
<text text-anchor="start" x="6075.5" y="-158" font-family="Helvetica,sans-Serif" font-size="10.00">src/libs/vpatterndb</text>
<text text-anchor="middle" x="6121" y="-147" font-family="Helvetica,sans-Serif" font-size="10.00">/vpiecepath.cpp</text>
</a>
</g>
</g>
<!-- Node1&#45;&gt;Node68 -->
<g id="edge63" class="edge">
<title>Node1&#45;&gt;Node68</title>
<path fill="none" stroke="midnightblue" d="M5316.18,-287.72C5453.54,-274.58 5785.68,-238.64 6058,-176 6065.16,-174.35 6072.67,-172.28 6079.92,-170.1"/>
<polygon fill="midnightblue" stroke="midnightblue" points="5315.47,-284.28 5305.84,-288.71 5316.13,-291.24 5315.47,-284.28"/>
</g>
<!-- Node71 -->
<g id="node50" class="node">
<title>Node71</title>
<g id="a_node50"><a xlink:href="../../d8/da5/vpiece__p_8h.html" target="_top" xlink:title=" ">
<polygon fill="white" stroke="black" points="5942.5,-212.5 5942.5,-242.5 6049.5,-242.5 6049.5,-212.5 5942.5,-212.5"/>
<text text-anchor="start" x="5950.5" y="-230.5" font-family="Helvetica,sans-Serif" font-size="10.00">src/libs/vpatterndb</text>
<text text-anchor="middle" x="5996" y="-219.5" font-family="Helvetica,sans-Serif" font-size="10.00">/vpiece_p.h</text>
</a>
</g>
</g>
<!-- Node1&#45;&gt;Node71 -->
<g id="edge61" class="edge">
<title>Node1&#45;&gt;Node71</title>
<path fill="none" stroke="midnightblue" d="M5315.51,-287.95C5459.49,-275.37 5808.57,-244.87 5942.48,-233.18"/>
<polygon fill="midnightblue" stroke="midnightblue" points="5315.16,-284.47 5305.51,-288.83 5315.77,-291.44 5315.16,-284.47"/>
</g>
<!-- Node3&#45;&gt;Node2 -->
<g id="edge54" class="edge">
<title>Node3&#45;&gt;Node2</title>
<path fill="none" stroke="midnightblue" d="M5146.95,-226.02C4614.87,-222.04 944.36,-193.91 833,-176 824.73,-174.67 816.05,-172.47 807.87,-170.01"/>
<polygon fill="midnightblue" stroke="midnightblue" points="5147.1,-229.52 5157.13,-226.1 5147.16,-222.53 5147.1,-229.52"/>
</g>
<!-- Node4 -->
<g id="node4" class="node">
<title>Node4</title>
<g id="a_node4"><a xlink:href="../../d2/d47/image__dialog_8cpp.html" target="_top" xlink:title=" ">
<polygon fill="white" stroke="black" points="5182,-67.5 5182,-97.5 5294,-97.5 5294,-67.5 5182,-67.5"/>
<text text-anchor="start" x="5190" y="-85.5" font-family="Helvetica,sans-Serif" font-size="10.00">src/libs/tools/image</text>
<text text-anchor="middle" x="5238" y="-74.5" font-family="Helvetica,sans-Serif" font-size="10.00">_dialog.cpp</text>
</a>
</g>
</g>
<!-- Node3&#45;&gt;Node4 -->
<g id="edge3" class="edge">
<title>Node3&#45;&gt;Node4</title>
<path fill="none" stroke="midnightblue" d="M5147.72,-216.54C5123.96,-209.39 5099.28,-197.1 5085,-176 5074.54,-160.54 5074.06,-149.13 5085,-134 5091.21,-125.41 5143.65,-109.3 5185.43,-97.58"/>
<polygon fill="midnightblue" stroke="midnightblue" points="5146.89,-219.94 5157.46,-219.21 5148.75,-213.19 5146.89,-219.94"/>
</g>
<!-- Node5 -->
<g id="node5" class="node">
<title>Node5</title>
<g id="a_node5"><a xlink:href="../../dc/db7/measurements_8h.html" target="_top" xlink:title=" ">
<polygon fill="white" stroke="black" points="5870.5,-145.5 5870.5,-164.5 6049.5,-164.5 6049.5,-145.5 5870.5,-145.5"/>
<text text-anchor="middle" x="5960" y="-152.5" font-family="Helvetica,sans-Serif" font-size="10.00">src/libs/vformat/measurements.h</text>
</a>
</g>
</g>
<!-- Node3&#45;&gt;Node5 -->
<g id="edge4" class="edge">
<title>Node3&#45;&gt;Node5</title>
<path fill="none" stroke="midnightblue" d="M5274.86,-223.87C5390.97,-218.56 5644.22,-204.56 5856,-176 5877.68,-173.08 5901.68,-168.55 5921.15,-164.54"/>
<polygon fill="midnightblue" stroke="midnightblue" points="5274.56,-220.38 5264.73,-224.33 5274.88,-227.37 5274.56,-220.38"/>
</g>
<!-- Node6 -->
<g id="node6" class="node">
<title>Node6</title>
<g id="a_node6"><a xlink:href="../../d9/de3/measurements_8cpp.html" target="_top" xlink:title=" ">
<polygon fill="white" stroke="black" points="5865,-73 5865,-92 6055,-92 6055,-73 5865,-73"/>
<text text-anchor="middle" x="5960" y="-80" font-family="Helvetica,sans-Serif" font-size="10.00">src/libs/vformat/measurements.cpp</text>
</a>
</g>
</g>
<!-- Node3&#45;&gt;Node6 -->
<g id="edge6" class="edge">
<title>Node3&#45;&gt;Node6</title>
<path fill="none" stroke="midnightblue" d="M5274.98,-225.65C5408.31,-223.14 5711.45,-213.37 5807,-176 5835.32,-164.93 5835.34,-150.31 5861,-134 5887.38,-117.23 5920.01,-101.46 5940.43,-92.14"/>
<polygon fill="midnightblue" stroke="midnightblue" points="5274.84,-222.15 5264.91,-225.83 5274.97,-229.15 5274.84,-222.15"/>
</g>
<!-- Node7 -->
<g id="node7" class="node">
<title>Node7</title>
<g id="a_node7"><a xlink:href="../../d6/de0/vlayoutpiece_8h.html" target="_top" xlink:title=" ">
<polygon fill="white" stroke="black" points="842,-145.5 842,-164.5 1008,-164.5 1008,-145.5 842,-145.5"/>
<text text-anchor="middle" x="925" y="-152.5" font-family="Helvetica,sans-Serif" font-size="10.00">src/libs/vlayout/vlayoutpiece.h</text>
</a>
</g>
</g>
<!-- Node3&#45;&gt;Node7 -->
<g id="edge7" class="edge">
<title>Node3&#45;&gt;Node7</title>
<path fill="none" stroke="midnightblue" d="M5146.86,-225.45C4660.53,-217.45 1557.95,-166.41 1008.21,-157.37"/>
<polygon fill="midnightblue" stroke="midnightblue" points="5147.14,-228.95 5157.2,-225.62 5147.26,-221.95 5147.14,-228.95"/>
</g>
<!-- Node17 -->
<g id="node16" class="node">
<title>Node17</title>
<g id="a_node16"><a xlink:href="../../d8/d70/vtextmanager_8cpp.html" target="_top" xlink:title=" ">
<polygon fill="white" stroke="black" points="1321,-73 1321,-92 1503,-92 1503,-73 1321,-73"/>
<text text-anchor="middle" x="1412" y="-80" font-family="Helvetica,sans-Serif" font-size="10.00">src/libs/vlayout/vtextmanager.cpp</text>
</a>
</g>
</g>
<!-- Node3&#45;&gt;Node17 -->
<g id="edge18" class="edge">
<title>Node3&#45;&gt;Node17</title>
<path fill="none" stroke="midnightblue" d="M5147.15,-225.29C4718.91,-217.03 2258.74,-167.14 1512,-98 1496.19,-96.54 1479.06,-94.3 1463.52,-92.01"/>
<polygon fill="midnightblue" stroke="midnightblue" points="5147.12,-228.79 5157.19,-225.48 5147.25,-221.79 5147.12,-228.79"/>
</g>
<!-- Node18 -->
<g id="node17" class="node">
<title>Node18</title>
<g id="a_node17"><a xlink:href="../../d5/d74/vabstractapplication_8h.html" target="_top" xlink:title=" ">
<polygon fill="white" stroke="red" points="3438.5,-145.5 3438.5,-164.5 3633.5,-164.5 3633.5,-145.5 3438.5,-145.5"/>
<text text-anchor="middle" x="3536" y="-152.5" font-family="Helvetica,sans-Serif" font-size="10.00">src/libs/vmisc/vabstractapplication.h</text>
</a>
</g>
</g>
<!-- Node3&#45;&gt;Node18 -->
<g id="edge19" class="edge">
<title>Node3&#45;&gt;Node18</title>
<path fill="none" stroke="midnightblue" d="M5146.93,-223.8C4891.14,-213.04 3941.96,-173.09 3633.51,-160.1"/>
<polygon fill="midnightblue" stroke="midnightblue" points="5147.03,-227.31 5157.17,-224.23 5147.32,-220.32 5147.03,-227.31"/>
</g>
<!-- Node46 -->
<g id="node32" class="node">
<title>Node46</title>
<g id="a_node32"><a xlink:href="../../db/d11/vformula_8cpp.html" target="_top" xlink:title=" ">
<polygon fill="white" stroke="black" points="4931.5,-67.5 4931.5,-97.5 5038.5,-97.5 5038.5,-67.5 4931.5,-67.5"/>
<text text-anchor="start" x="4939.5" y="-85.5" font-family="Helvetica,sans-Serif" font-size="10.00">src/libs/vpatterndb</text>
<text text-anchor="middle" x="4985" y="-74.5" font-family="Helvetica,sans-Serif" font-size="10.00">/vformula.cpp</text>
</a>
</g>
</g>
<!-- Node3&#45;&gt;Node46 -->
<g id="edge53" class="edge">
<title>Node3&#45;&gt;Node46</title>
<path fill="none" stroke="midnightblue" d="M5147.51,-212.97C5119.94,-205.11 5088.25,-193.26 5063,-176 5031.96,-154.78 5006.19,-118.01 4993.5,-97.81"/>
<polygon fill="midnightblue" stroke="midnightblue" points="5146.9,-216.43 5157.47,-215.68 5148.74,-209.67 5146.9,-216.43"/>
</g>
<!-- Node47 -->
<g id="node33" class="node">
<title>Node47</title>
<g id="a_node33"><a xlink:href="../../d6/d46/vcontainer_8cpp.html" target="_top" xlink:title=" ">
<polygon fill="white" stroke="black" points="5056.5,-67.5 5056.5,-97.5 5163.5,-97.5 5163.5,-67.5 5056.5,-67.5"/>
<text text-anchor="start" x="5064.5" y="-85.5" font-family="Helvetica,sans-Serif" font-size="10.00">src/libs/vpatterndb</text>
<text text-anchor="middle" x="5110" y="-74.5" font-family="Helvetica,sans-Serif" font-size="10.00">/vcontainer.cpp</text>
</a>
</g>
</g>
<!-- Node3&#45;&gt;Node47 -->
<g id="edge55" class="edge">
<title>Node3&#45;&gt;Node47</title>
<path fill="none" stroke="midnightblue" d="M5147.38,-219.44C5119.76,-212.85 5089.92,-200.21 5073,-176 5055.56,-151.05 5079.59,-116.68 5096.31,-97.64"/>
<polygon fill="midnightblue" stroke="midnightblue" points="5146.91,-222.92 5157.42,-221.6 5148.39,-216.07 5146.91,-222.92"/>
</g>
<!-- Node48 -->
<g id="node34" class="node">
<title>Node48</title>
<g id="a_node34"><a xlink:href="../../df/d7a/vpiece_8cpp.html" target="_top" xlink:title=" ">
<polygon fill="white" stroke="black" points="5739.5,-67.5 5739.5,-97.5 5846.5,-97.5 5846.5,-67.5 5739.5,-67.5"/>
<text text-anchor="start" x="5747.5" y="-85.5" font-family="Helvetica,sans-Serif" font-size="10.00">src/libs/vpatterndb</text>
<text text-anchor="middle" x="5793" y="-74.5" font-family="Helvetica,sans-Serif" font-size="10.00">/vpiece.cpp</text>
</a>
</g>
</g>
<!-- Node3&#45;&gt;Node48 -->
<g id="edge56" class="edge">
<title>Node3&#45;&gt;Node48</title>
<path fill="none" stroke="midnightblue" d="M5275.28,-225.41C5417.6,-222.36 5749.57,-211.48 5785,-176 5805.5,-155.47 5801.13,-118.08 5796.72,-97.69"/>
<polygon fill="midnightblue" stroke="midnightblue" points="5274.88,-221.92 5264.96,-225.63 5275.03,-228.92 5274.88,-221.92"/>
</g>
<!-- Node50 -->
<g id="node36" class="node">
<title>Node50</title>
<g id="a_node36"><a xlink:href="../../d8/dba/vpiecenode_8cpp.html" target="_top" xlink:title=" ">
<polygon fill="white" stroke="black" points="5037.5,-0.5 5037.5,-30.5 5144.5,-30.5 5144.5,-0.5 5037.5,-0.5"/>
<text text-anchor="start" x="5045.5" y="-18.5" font-family="Helvetica,sans-Serif" font-size="10.00">src/libs/vpatterndb</text>
<text text-anchor="middle" x="5091" y="-7.5" font-family="Helvetica,sans-Serif" font-size="10.00">/vpiecenode.cpp</text>
</a>
</g>
</g>
<!-- Node3&#45;&gt;Node50 -->
<g id="edge57" class="edge">
<title>Node3&#45;&gt;Node50</title>
<path fill="none" stroke="midnightblue" d="M5153.79,-208.03C5139.28,-200.47 5125.42,-190.09 5117,-176 5107.42,-159.98 5105.12,-148.4 5117,-134 5170.58,-69.05 5249.42,-162.95 5303,-98 5311.77,-87.37 5311.54,-77.81 5303,-67 5283.62,-42.47 5200.93,-28.56 5144.73,-21.79"/>
<polygon fill="midnightblue" stroke="midnightblue" points="5152.34,-211.22 5162.88,-212.38 5155.37,-204.91 5152.34,-211.22"/>
</g>
<!-- Node64 -->
<g id="node45" class="node">
<title>Node64</title>
<g id="a_node45"><a xlink:href="../../d3/d02/custom__variable__p_8h.html" target="_top" xlink:title=" ">
<polygon fill="white" stroke="red" points="5126.5,-140 5126.5,-170 5295.5,-170 5295.5,-140 5126.5,-140"/>
<text text-anchor="start" x="5134.5" y="-158" font-family="Helvetica,sans-Serif" font-size="10.00">src/libs/vpatterndb</text>
<text text-anchor="middle" x="5211" y="-147" font-family="Helvetica,sans-Serif" font-size="10.00">/variables/custom_variable_p.h</text>
</a>
</g>
</g>
<!-- Node3&#45;&gt;Node64 -->
<g id="edge51" class="edge">
<title>Node3&#45;&gt;Node64</title>
<path fill="none" stroke="midnightblue" d="M5211,-202.23C5211,-191.57 5211,-179.41 5211,-170.25"/>
<polygon fill="midnightblue" stroke="midnightblue" points="5207.5,-202.23 5211,-212.23 5214.5,-202.23 5207.5,-202.23"/>
</g>
<!-- Node66 -->
<g id="node46" class="node">
<title>Node66</title>
<g id="a_node46"><a xlink:href="../../d7/d8a/measurement__variable__p_8h.html" target="_top" xlink:title=" ">
<polygon fill="white" stroke="red" points="5314,-134.5 5314,-175.5 5450,-175.5 5450,-134.5 5314,-134.5"/>
<text text-anchor="start" x="5322" y="-163.5" font-family="Helvetica,sans-Serif" font-size="10.00">src/libs/vpatterndb</text>
<text text-anchor="start" x="5322" y="-152.5" font-family="Helvetica,sans-Serif" font-size="10.00">/variables/measurement</text>
<text text-anchor="middle" x="5382" y="-141.5" font-family="Helvetica,sans-Serif" font-size="10.00">_variable_p.h</text>
</a>
</g>
</g>
<!-- Node3&#45;&gt;Node66 -->
<g id="edge52" class="edge">
<title>Node3&#45;&gt;Node66</title>
<path fill="none" stroke="midnightblue" d="M5254.58,-208.53C5279.03,-198.45 5309.55,-185.87 5334.59,-175.55"/>
<polygon fill="midnightblue" stroke="midnightblue" points="5253.1,-205.36 5245.19,-212.4 5255.77,-211.83 5253.1,-205.36"/>
</g>
<!-- Node3&#45;&gt;Node68 -->
<g id="edge58" class="edge">
<title>Node3&#45;&gt;Node68</title>
<path fill="none" stroke="midnightblue" d="M5274.78,-224.74C5445.09,-219.73 5907.81,-203.87 6058,-176 6065.9,-174.53 6074.19,-172.37 6082.06,-170.01"/>
<polygon fill="midnightblue" stroke="midnightblue" points="5274.6,-221.25 5264.71,-225.04 5274.81,-228.24 5274.6,-221.25"/>
</g>
<!-- Node69 -->
<g id="node48" class="node">
<title>Node69</title>
<g id="a_node48"><a xlink:href="../../d1/d3a/abstracttest_8cpp.html" target="_top" xlink:title=" ">
<polygon fill="white" stroke="black" points="5468.5,-145.5 5468.5,-164.5 5629.5,-164.5 5629.5,-145.5 5468.5,-145.5"/>
<text text-anchor="middle" x="5549" y="-152.5" font-family="Helvetica,sans-Serif" font-size="10.00">src/libs/vtest/abstracttest.cpp</text>
</a>
</g>
</g>
<!-- Node3&#45;&gt;Node69 -->
<g id="edge59" class="edge">
<title>Node3&#45;&gt;Node69</title>
<path fill="none" stroke="midnightblue" d="M5274.8,-213.83C5324.93,-203.8 5396.48,-189.31 5459,-176 5476.22,-172.33 5495.26,-168.13 5511.37,-164.52"/>
<polygon fill="midnightblue" stroke="midnightblue" points="5273.88,-210.45 5264.76,-215.84 5275.25,-217.31 5273.88,-210.45"/>
</g>
<!-- Node70 -->
<g id="node49" class="node">
<title>Node70</title>
<g id="a_node49"><a xlink:href="../../da/db4/piece__tablewidgetitem_8cpp.html" target="_top" xlink:title=" ">
<polygon fill="white" stroke="black" points="5648,-140 5648,-170 5776,-170 5776,-140 5648,-140"/>
<text text-anchor="start" x="5656" y="-158" font-family="Helvetica,sans-Serif" font-size="10.00">src/libs/vwidgets/piece</text>
<text text-anchor="middle" x="5712" y="-147" font-family="Helvetica,sans-Serif" font-size="10.00">_tablewidgetitem.cpp</text>
</a>
</g>
</g>
<!-- Node3&#45;&gt;Node70 -->
<g id="edge60" class="edge">
<title>Node3&#45;&gt;Node70</title>
<path fill="none" stroke="midnightblue" d="M5274.77,-221.89C5358.63,-215.15 5510.3,-200.67 5638,-176 5646.49,-174.36 5655.44,-172.26 5664.07,-170.05"/>
<polygon fill="midnightblue" stroke="midnightblue" points="5274.33,-218.41 5264.64,-222.69 5274.89,-225.39 5274.33,-218.41"/>
</g>
<!-- Node5&#45;&gt;Node6 -->
<g id="edge5" class="edge">
<title>Node5&#45;&gt;Node6</title>
<path fill="none" stroke="midnightblue" d="M5960,-134.94C5960,-121.03 5960,-102.82 5960,-92.22"/>
<polygon fill="midnightblue" stroke="midnightblue" points="5956.5,-135.36 5960,-145.36 5963.5,-135.36 5956.5,-135.36"/>
</g>
<!-- Node8 -->
<g id="node8" class="node">
<title>Node8</title>
<g id="a_node8"><a xlink:href="../../dd/d66/vdxfengine_8cpp.html" target="_top" xlink:title=" ">
<polygon fill="white" stroke="black" points="953,-73 953,-92 1107,-92 1107,-73 953,-73"/>
<text text-anchor="middle" x="1030" y="-80" font-family="Helvetica,sans-Serif" font-size="10.00">src/libs/vdxf/vdxfengine.cpp</text>
</a>
</g>
</g>
<!-- Node7&#45;&gt;Node8 -->
<g id="edge8" class="edge">
<title>Node7&#45;&gt;Node8</title>
<path fill="none" stroke="midnightblue" d="M946.23,-139.74C967.43,-125.51 999.33,-104.09 1017.02,-92.22"/>
<polygon fill="midnightblue" stroke="midnightblue" points="944.23,-136.88 937.88,-145.36 948.13,-142.69 944.23,-136.88"/>
</g>
<!-- Node9 -->
<g id="node9" class="node">
<title>Node9</title>
<g id="a_node9"><a xlink:href="../../de/da8/vbank_8cpp.html" target="_top" xlink:title=" ">
<polygon fill="white" stroke="black" points="0,-73 0,-92 144,-92 144,-73 0,-73"/>
<text text-anchor="middle" x="72" y="-80" font-family="Helvetica,sans-Serif" font-size="10.00">src/libs/vlayout/vbank.cpp</text>
</a>
</g>
</g>
<!-- Node7&#45;&gt;Node9 -->
<g id="edge9" class="edge">
<title>Node7&#45;&gt;Node9</title>
<path fill="none" stroke="midnightblue" d="M881.76,-143.21C866.17,-139.71 848.38,-136.18 832,-134 532.44,-94.11 453.2,-132.69 153,-98 140.23,-96.52 126.42,-94.29 113.89,-92.02"/>
<polygon fill="midnightblue" stroke="midnightblue" points="881.12,-146.65 891.65,-145.48 882.69,-139.83 881.12,-146.65"/>
</g>
<!-- Node10 -->
<g id="node10" class="node">
<title>Node10</title>
<g id="a_node10"><a xlink:href="../../df/d5d/vcontour_8cpp.html" target="_top" xlink:title=" ">
<polygon fill="white" stroke="black" points="162,-73 162,-92 318,-92 318,-73 162,-73"/>
<text text-anchor="middle" x="240" y="-80" font-family="Helvetica,sans-Serif" font-size="10.00">src/libs/vlayout/vcontour.cpp</text>
</a>
</g>
</g>
<!-- Node7&#45;&gt;Node10 -->
<g id="edge10" class="edge">
<title>Node7&#45;&gt;Node10</title>
<path fill="none" stroke="midnightblue" d="M880.97,-143.2C865.56,-139.78 848.09,-136.29 832,-134 609.23,-102.27 550.45,-124.53 327,-98 313.77,-96.43 299.49,-94.25 286.39,-92.06"/>
<polygon fill="midnightblue" stroke="midnightblue" points="880.23,-146.62 890.76,-145.43 881.78,-139.8 880.23,-146.62"/>
</g>
<!-- Node11 -->
<g id="node11" class="node">
<title>Node11</title>
<g id="a_node11"><a xlink:href="../../d2/d2d/vlayoutpaper__p_8h.html" target="_top" xlink:title=" ">
<polygon fill="white" stroke="black" points="502.5,-73 502.5,-92 681.5,-92 681.5,-73 502.5,-73"/>
<text text-anchor="middle" x="592" y="-80" font-family="Helvetica,sans-Serif" font-size="10.00">src/libs/vlayout/vlayoutpaper_p.h</text>
</a>
</g>
</g>
<!-- Node7&#45;&gt;Node11 -->
<g id="edge11" class="edge">
<title>Node7&#45;&gt;Node11</title>
<path fill="none" stroke="midnightblue" d="M875.64,-143.34C861.55,-140.31 846.17,-137.01 832,-134 762.03,-119.12 680.54,-102.02 632.78,-92.02"/>
<polygon fill="midnightblue" stroke="midnightblue" points="875.13,-146.81 885.64,-145.49 876.6,-139.97 875.13,-146.81"/>
</g>
<!-- Node12 -->
<g id="node12" class="node">
<title>Node12</title>
<g id="a_node12"><a xlink:href="../../d1/dd1/vlayoutpaper_8cpp.html" target="_top" xlink:title=" ">
<polygon fill="white" stroke="black" points="503,-6 503,-25 681,-25 681,-6 503,-6"/>
<text text-anchor="middle" x="592" y="-13" font-family="Helvetica,sans-Serif" font-size="10.00">src/libs/vlayout/vlayoutpaper.cpp</text>
</a>
</g>
</g>
<!-- Node7&#45;&gt;Node12 -->
<g id="edge17" class="edge">
<title>Node7&#45;&gt;Node12</title>
<path fill="none" stroke="midnightblue" d="M926.29,-135.32C926.57,-115.42 923.62,-84.43 905,-67 873.35,-37.38 762.17,-25.09 681.3,-20.02"/>
<polygon fill="midnightblue" stroke="midnightblue" points="922.8,-135.19 925.87,-145.32 929.79,-135.48 922.8,-135.19"/>
</g>
<!-- Node13 -->
<g id="node13" class="node">
<title>Node13</title>
<g id="a_node13"><a xlink:href="../../d3/d39/vlayoutgenerator_8cpp.html" target="_top" xlink:title=" ">
<polygon fill="white" stroke="black" points="699.5,-73 699.5,-92 896.5,-92 896.5,-73 699.5,-73"/>
<text text-anchor="middle" x="798" y="-80" font-family="Helvetica,sans-Serif" font-size="10.00">src/libs/vlayout/vlayoutgenerator.cpp</text>
</a>
</g>
</g>
<!-- Node7&#45;&gt;Node13 -->
<g id="edge13" class="edge">
<title>Node7&#45;&gt;Node13</title>
<path fill="none" stroke="midnightblue" d="M900.68,-140.5C875.06,-126.28 835.48,-104.3 813.7,-92.22"/>
<polygon fill="midnightblue" stroke="midnightblue" points="898.99,-143.56 909.43,-145.36 902.38,-137.44 898.99,-143.56"/>
</g>
<!-- Node14 -->
<g id="node14" class="node">
<title>Node14</title>
<g id="a_node14"><a xlink:href="../../dd/d70/vlayoutpiece_8cpp.html" target="_top" xlink:title=" ">
<polygon fill="white" stroke="black" points="1125.5,-73 1125.5,-92 1302.5,-92 1302.5,-73 1125.5,-73"/>
<text text-anchor="middle" x="1214" y="-80" font-family="Helvetica,sans-Serif" font-size="10.00">src/libs/vlayout/vlayoutpiece.cpp</text>
</a>
</g>
</g>
<!-- Node7&#45;&gt;Node14 -->
<g id="edge14" class="edge">
<title>Node7&#45;&gt;Node14</title>
<path fill="none" stroke="midnightblue" d="M969.78,-143.08C1027.47,-129 1126.54,-104.83 1179.02,-92.03"/>
<polygon fill="midnightblue" stroke="midnightblue" points="968.75,-139.73 959.86,-145.5 970.4,-146.53 968.75,-139.73"/>
</g>
<!-- Node15 -->
<g id="node15" class="node">
<title>Node15</title>
<g id="a_node15"><a xlink:href="../../db/d5c/vposition_8h.html" target="_top" xlink:title=" ">
<polygon fill="white" stroke="red" points="336,-73 336,-92 484,-92 484,-73 336,-73"/>
<text text-anchor="middle" x="410" y="-80" font-family="Helvetica,sans-Serif" font-size="10.00">src/libs/vlayout/vposition.h</text>
</a>
</g>
</g>
<!-- Node7&#45;&gt;Node15 -->
<g id="edge15" class="edge">
<title>Node7&#45;&gt;Node15</title>
<path fill="none" stroke="midnightblue" d="M879.33,-143.17C864.31,-139.88 847.5,-136.48 832,-134 682.39,-110.04 643.04,-119.05 493,-98 480.83,-96.29 467.71,-94.15 455.58,-92.03"/>
<polygon fill="midnightblue" stroke="midnightblue" points="878.87,-146.65 889.4,-145.42 880.4,-139.82 878.87,-146.65"/>
</g>
<!-- Node11&#45;&gt;Node12 -->
<g id="edge12" class="edge">
<title>Node11&#45;&gt;Node12</title>
<path fill="none" stroke="midnightblue" d="M592,-62.54C592,-50.17 592,-34.62 592,-25.13"/>
<polygon fill="midnightblue" stroke="midnightblue" points="588.5,-62.73 592,-72.73 595.5,-62.73 588.5,-62.73"/>
</g>
<!-- Node15&#45;&gt;Node12 -->
<g id="edge16" class="edge">
<title>Node15&#45;&gt;Node12</title>
<path fill="none" stroke="midnightblue" d="M443.78,-69.44C479.88,-56.54 536.21,-36.42 568.02,-25.06"/>
<polygon fill="midnightblue" stroke="midnightblue" points="442.41,-66.21 434.17,-72.87 444.76,-72.8 442.41,-66.21"/>
</g>
<!-- Node18&#45;&gt;Node4 -->
<g id="edge22" class="edge">
<title>Node18&#45;&gt;Node4</title>
<path fill="none" stroke="midnightblue" d="M3643.59,-152.87C3958.53,-149.17 4874.93,-135.4 5172,-98 5175.26,-97.59 5178.59,-97.1 5181.95,-96.54"/>
<polygon fill="midnightblue" stroke="midnightblue" points="3643.51,-149.37 3633.55,-152.99 3643.59,-156.37 3643.51,-149.37"/>
</g>
<!-- Node18&#45;&gt;Node14 -->
<g id="edge32" class="edge">
<title>Node18&#45;&gt;Node14</title>
<path fill="none" stroke="midnightblue" d="M3428.34,-153.03C3042.59,-149.27 1730.37,-134.08 1312,-98 1296.15,-96.63 1278.96,-94.36 1263.47,-92.02"/>
<polygon fill="midnightblue" stroke="midnightblue" points="3428.35,-156.53 3438.38,-153.12 3428.41,-149.53 3428.35,-156.53"/>
</g>
<!-- Node18&#45;&gt;Node17 -->
<g id="edge33" class="edge">
<title>Node18&#45;&gt;Node17</title>
<path fill="none" stroke="midnightblue" d="M3428.09,-151.75C3036.44,-143.49 1702.88,-114.42 1512,-98 1495.92,-96.62 1478.48,-94.35 1462.74,-92.02"/>
<polygon fill="midnightblue" stroke="midnightblue" points="3428.22,-155.25 3438.29,-151.97 3428.36,-148.26 3428.22,-155.25"/>
</g>
<!-- Node19 -->
<g id="node18" class="node">
<title>Node19</title>
<g id="a_node18"><a xlink:href="../../d4/d90/fvupdater_8cpp.html" target="_top" xlink:title=" ">
<polygon fill="white" stroke="black" points="3097.5,-73 3097.5,-92 3250.5,-92 3250.5,-73 3097.5,-73"/>
<text text-anchor="middle" x="3174" y="-80" font-family="Helvetica,sans-Serif" font-size="10.00">src/libs/fervor/fvupdater.cpp</text>
</a>
</g>
</g>
<!-- Node18&#45;&gt;Node19 -->
<g id="edge20" class="edge">
<title>Node18&#45;&gt;Node19</title>
<path fill="none" stroke="midnightblue" d="M3482.13,-143.51C3410.22,-129.5 3284.23,-104.97 3217.82,-92.03"/>
<polygon fill="midnightblue" stroke="midnightblue" points="3481.85,-147.02 3492.33,-145.5 3483.19,-140.15 3481.85,-147.02"/>
</g>
<!-- Node20 -->
<g id="node19" class="node">
<title>Node20</title>
<g id="a_node19"><a xlink:href="../../d1/d8d/image__item_8h.html" target="_top" xlink:title=" ">
<polygon fill="white" stroke="red" points="3269,-67.5 3269,-97.5 3381,-97.5 3381,-67.5 3269,-67.5"/>
<text text-anchor="start" x="3277" y="-85.5" font-family="Helvetica,sans-Serif" font-size="10.00">src/libs/tools/image</text>
<text text-anchor="middle" x="3325" y="-74.5" font-family="Helvetica,sans-Serif" font-size="10.00">_item.h</text>
</a>
</g>
</g>
<!-- Node18&#45;&gt;Node20 -->
<g id="edge21" class="edge">
<title>Node18&#45;&gt;Node20</title>
<path fill="none" stroke="midnightblue" d="M3500.74,-142.22C3463.89,-129.91 3406.08,-110.59 3366.92,-97.51"/>
<polygon fill="midnightblue" stroke="midnightblue" points="3499.95,-145.65 3510.55,-145.5 3502.17,-139.01 3499.95,-145.65"/>
</g>
<!-- Node30 -->
<g id="node20" class="node">
<title>Node30</title>
<g id="a_node20"><a xlink:href="../../d9/dc8/dxiface_8cpp.html" target="_top" xlink:title=" ">
<polygon fill="white" stroke="black" points="3399.5,-73 3399.5,-92 3534.5,-92 3534.5,-73 3399.5,-73"/>
<text text-anchor="middle" x="3467" y="-80" font-family="Helvetica,sans-Serif" font-size="10.00">src/libs/vdxf/dxiface.cpp</text>
</a>
</g>
</g>
<!-- Node18&#45;&gt;Node30 -->
<g id="edge23" class="edge">
<title>Node18&#45;&gt;Node30</title>
<path fill="none" stroke="midnightblue" d="M3520.53,-138.19C3506.63,-123.99 3486.74,-103.67 3475.53,-92.22"/>
<polygon fill="midnightblue" stroke="midnightblue" points="3518.04,-140.66 3527.54,-145.36 3523.05,-135.76 3518.04,-140.66"/>
</g>
<!-- Node31 -->
<g id="node21" class="node">
<title>Node31</title>
<g id="a_node21"><a xlink:href="../../da/d75/vabstractarc__p_8h.html" target="_top" xlink:title=" ">
<polygon fill="white" stroke="red" points="3552.5,-67.5 3552.5,-97.5 3659.5,-97.5 3659.5,-67.5 3552.5,-67.5"/>
<text text-anchor="start" x="3560.5" y="-85.5" font-family="Helvetica,sans-Serif" font-size="10.00">src/libs/vgeometry</text>
<text text-anchor="middle" x="3606" y="-74.5" font-family="Helvetica,sans-Serif" font-size="10.00">/vabstractarc_p.h</text>
</a>
</g>
</g>
<!-- Node18&#45;&gt;Node31 -->
<g id="edge24" class="edge">
<title>Node18&#45;&gt;Node31</title>
<path fill="none" stroke="midnightblue" d="M3551.79,-138.09C3563.89,-125.91 3580.41,-109.27 3592.02,-97.58"/>
<polygon fill="midnightblue" stroke="midnightblue" points="3549.15,-135.79 3544.58,-145.36 3554.11,-140.73 3549.15,-135.79"/>
</g>
<!-- Node33 -->
<g id="node22" class="node">
<title>Node33</title>
<g id="a_node22"><a xlink:href="../../d5/d8e/vcubicbezier__p_8h.html" target="_top" xlink:title=" ">
<polygon fill="white" stroke="red" points="3677.5,-67.5 3677.5,-97.5 3784.5,-97.5 3784.5,-67.5 3677.5,-67.5"/>
<text text-anchor="start" x="3685.5" y="-85.5" font-family="Helvetica,sans-Serif" font-size="10.00">src/libs/vgeometry</text>
<text text-anchor="middle" x="3731" y="-74.5" font-family="Helvetica,sans-Serif" font-size="10.00">/vcubicbezier_p.h</text>
</a>
</g>
</g>
<!-- Node18&#45;&gt;Node33 -->
<g id="edge25" class="edge">
<title>Node18&#45;&gt;Node33</title>
<path fill="none" stroke="midnightblue" d="M3569.02,-142.06C3603.1,-129.74 3656.22,-110.54 3692.26,-97.51"/>
<polygon fill="midnightblue" stroke="midnightblue" points="3567.74,-138.8 3559.52,-145.5 3570.12,-145.39 3567.74,-138.8"/>
</g>
<!-- Node35 -->
<g id="node23" class="node">
<title>Node35</title>
<g id="a_node23"><a xlink:href="../../dc/da3/varc__p_8h.html" target="_top" xlink:title=" ">
<polygon fill="white" stroke="red" points="3802.5,-67.5 3802.5,-97.5 3909.5,-97.5 3909.5,-67.5 3802.5,-67.5"/>
<text text-anchor="start" x="3810.5" y="-85.5" font-family="Helvetica,sans-Serif" font-size="10.00">src/libs/vgeometry</text>
<text text-anchor="middle" x="3856" y="-74.5" font-family="Helvetica,sans-Serif" font-size="10.00">/varc_p.h</text>
</a>
</g>
</g>
<!-- Node18&#45;&gt;Node35 -->
<g id="edge26" class="edge">
<title>Node18&#45;&gt;Node35</title>
<path fill="none" stroke="midnightblue" d="M3586.03,-143.28C3637.85,-132.13 3721.15,-114.1 3793,-98 3796.07,-97.31 3799.22,-96.6 3802.39,-95.88"/>
<polygon fill="midnightblue" stroke="midnightblue" points="3585.14,-139.89 3576.1,-145.41 3586.61,-146.73 3585.14,-139.89"/>
</g>
<!-- Node37 -->
<g id="node24" class="node">
<title>Node37</title>
<g id="a_node24"><a xlink:href="../../df/dde/vellipticalarc__p_8h.html" target="_top" xlink:title=" ">
<polygon fill="white" stroke="black" points="1646.5,-67.5 1646.5,-97.5 1753.5,-97.5 1753.5,-67.5 1646.5,-67.5"/>
<text text-anchor="start" x="1654.5" y="-85.5" font-family="Helvetica,sans-Serif" font-size="10.00">src/libs/vgeometry</text>
<text text-anchor="middle" x="1700" y="-74.5" font-family="Helvetica,sans-Serif" font-size="10.00">/vellipticalarc_p.h</text>
</a>
</g>
</g>
<!-- Node18&#45;&gt;Node37 -->
<g id="edge27" class="edge">
<title>Node18&#45;&gt;Node37</title>
<path fill="none" stroke="midnightblue" d="M3428.3,-151.82C3069.38,-144.39 1927.39,-119.31 1763,-98 1759.99,-97.61 1756.92,-97.14 1753.83,-96.62"/>
<polygon fill="midnightblue" stroke="midnightblue" points="3428.36,-155.32 3438.43,-152.03 3428.5,-148.32 3428.36,-155.32"/>
</g>
<!-- Node38 -->
<g id="node25" class="node">
<title>Node38</title>
<g id="a_node25"><a xlink:href="../../d6/dfb/vellipticalarc_8cpp.html" target="_top" xlink:title=" ">
<polygon fill="white" stroke="black" points="2765.5,-0.5 2765.5,-30.5 2872.5,-30.5 2872.5,-0.5 2765.5,-0.5"/>
<text text-anchor="start" x="2773.5" y="-18.5" font-family="Helvetica,sans-Serif" font-size="10.00">src/libs/vgeometry</text>
<text text-anchor="middle" x="2819" y="-7.5" font-family="Helvetica,sans-Serif" font-size="10.00">/vellipticalarc.cpp</text>
</a>
</g>
</g>
<!-- Node18&#45;&gt;Node38 -->
<g id="edge29" class="edge">
<title>Node18&#45;&gt;Node38</title>
<path fill="none" stroke="midnightblue" d="M3643.89,-153.34C3744.17,-150.16 3883.15,-138.33 3918,-98 3927.01,-87.58 3927.52,-76.96 3918,-67 3881.54,-28.82 3088.1,-18.92 2872.6,-16.93"/>
<polygon fill="midnightblue" stroke="midnightblue" points="3643.6,-149.85 3633.7,-153.64 3643.8,-156.85 3643.6,-149.85"/>
</g>
<!-- Node39 -->
<g id="node26" class="node">
<title>Node39</title>
<g id="a_node26"><a xlink:href="../../d1/d76/vspline__p_8h.html" target="_top" xlink:title=" ">
<polygon fill="white" stroke="red" points="3966.5,-67.5 3966.5,-97.5 4073.5,-97.5 4073.5,-67.5 3966.5,-67.5"/>
<text text-anchor="start" x="3974.5" y="-85.5" font-family="Helvetica,sans-Serif" font-size="10.00">src/libs/vgeometry</text>
<text text-anchor="middle" x="4020" y="-74.5" font-family="Helvetica,sans-Serif" font-size="10.00">/vspline_p.h</text>
</a>
</g>
</g>
<!-- Node18&#45;&gt;Node39 -->
<g id="edge30" class="edge">
<title>Node18&#45;&gt;Node39</title>
<path fill="none" stroke="midnightblue" d="M3622.61,-144.29C3706.96,-134.38 3838.68,-117.68 3952,-98 3956.64,-97.19 3961.44,-96.3 3966.25,-95.36"/>
<polygon fill="midnightblue" stroke="midnightblue" points="3622.08,-140.83 3612.56,-145.47 3622.9,-147.78 3622.08,-140.83"/>
</g>
<!-- Node41 -->
<g id="node27" class="node">
<title>Node41</title>
<g id="a_node27"><a xlink:href="../../d9/d15/vabstractpiece_8cpp.html" target="_top" xlink:title=" ">
<polygon fill="white" stroke="black" points="4092,-73 4092,-92 4278,-92 4278,-73 4092,-73"/>
<text text-anchor="middle" x="4185" y="-80" font-family="Helvetica,sans-Serif" font-size="10.00">src/libs/vlayout/vabstractpiece.cpp</text>
</a>
</g>
</g>
<!-- Node18&#45;&gt;Node41 -->
<g id="edge31" class="edge">
<title>Node18&#45;&gt;Node41</title>
<path fill="none" stroke="midnightblue" d="M3639.93,-144.51C3749.88,-134.21 3928.36,-116.69 4082,-98 4096.7,-96.21 4112.55,-94.08 4127.31,-92.01"/>
<polygon fill="midnightblue" stroke="midnightblue" points="3639.47,-141.04 3629.84,-145.46 3640.12,-148.01 3639.47,-141.04"/>
</g>
<!-- Node42 -->
<g id="node28" class="node">
<title>Node42</title>
<g id="a_node28"><a xlink:href="../../db/d65/dialogexporttocsv_8cpp.html" target="_top" xlink:title=" ">
<polygon fill="white" stroke="black" points="4296.5,-67.5 4296.5,-97.5 4423.5,-97.5 4423.5,-67.5 4296.5,-67.5"/>
<text text-anchor="start" x="4304.5" y="-85.5" font-family="Helvetica,sans-Serif" font-size="10.00">src/libs/vmisc/dialogs</text>
<text text-anchor="middle" x="4360" y="-74.5" font-family="Helvetica,sans-Serif" font-size="10.00">/dialogexporttocsv.cpp</text>
</a>
</g>
</g>
<!-- Node18&#45;&gt;Node42 -->
<g id="edge34" class="edge">
<title>Node18&#45;&gt;Node42</title>
<path fill="none" stroke="midnightblue" d="M3643.93,-150.08C3790.2,-143.82 4059.28,-128.99 4287,-98 4290.07,-97.58 4293.21,-97.11 4296.38,-96.61"/>
<polygon fill="midnightblue" stroke="midnightblue" points="3643.45,-146.6 3633.61,-150.51 3643.75,-153.59 3643.45,-146.6"/>
</g>
<!-- Node43 -->
<g id="node29" class="node">
<title>Node43</title>
<g id="a_node29"><a xlink:href="../../d6/d0b/def_8cpp.html" target="_top" xlink:title=" ">
<polygon fill="white" stroke="black" points="4442,-73 4442,-92 4564,-92 4564,-73 4442,-73"/>
<text text-anchor="middle" x="4503" y="-80" font-family="Helvetica,sans-Serif" font-size="10.00">src/libs/vmisc/def.cpp</text>
</a>
</g>
</g>
<!-- Node18&#45;&gt;Node43 -->
<g id="edge35" class="edge">
<title>Node18&#45;&gt;Node43</title>
<path fill="none" stroke="midnightblue" d="M3643.68,-152.1C3812.4,-148.03 4149.05,-135.55 4432,-98 4443.22,-96.51 4455.33,-94.28 4466.31,-92"/>
<polygon fill="midnightblue" stroke="midnightblue" points="3643.46,-148.6 3633.55,-152.34 3643.63,-155.6 3643.46,-148.6"/>
</g>
<!-- Node44 -->
<g id="node30" class="node">
<title>Node44</title>
<g id="a_node30"><a xlink:href="../../d0/df6/vabstractapplication_8cpp.html" target="_top" xlink:title=" ">
<polygon fill="white" stroke="black" points="4582,-73 4582,-92 4788,-92 4788,-73 4582,-73"/>
<text text-anchor="middle" x="4685" y="-80" font-family="Helvetica,sans-Serif" font-size="10.00">src/libs/vmisc/vabstractapplication.cpp</text>
</a>
</g>
</g>
<!-- Node18&#45;&gt;Node44 -->
<g id="edge36" class="edge">
<title>Node18&#45;&gt;Node44</title>
<path fill="none" stroke="midnightblue" d="M3643.95,-150.83C3832.67,-144.7 4234.72,-128.99 4573,-98 4590.18,-96.43 4608.79,-94.22 4625.8,-92"/>
<polygon fill="midnightblue" stroke="midnightblue" points="3643.64,-147.34 3633.75,-151.16 3643.86,-154.34 3643.64,-147.34"/>
</g>
<!-- Node45 -->
<g id="node31" class="node">
<title>Node45</title>
<g id="a_node31"><a xlink:href="../../d4/d4f/pmsystems_8cpp.html" target="_top" xlink:title=" ">
<polygon fill="white" stroke="black" points="1521.5,-67.5 1521.5,-97.5 1628.5,-97.5 1628.5,-67.5 1521.5,-67.5"/>
<text text-anchor="start" x="1529.5" y="-85.5" font-family="Helvetica,sans-Serif" font-size="10.00">src/libs/vpatterndb</text>
<text text-anchor="middle" x="1575" y="-74.5" font-family="Helvetica,sans-Serif" font-size="10.00">/pmsystems.cpp</text>
</a>
</g>
</g>
<!-- Node18&#45;&gt;Node45 -->
<g id="edge37" class="edge">
<title>Node18&#45;&gt;Node45</title>
<path fill="none" stroke="midnightblue" d="M3428.39,-152.09C3052.95,-145.23 1814.25,-121.1 1637,-98 1634.26,-97.64 1631.46,-97.22 1628.65,-96.74"/>
<polygon fill="midnightblue" stroke="midnightblue" points="3428.38,-155.59 3438.44,-152.27 3428.51,-148.59 3428.38,-155.59"/>
</g>
<!-- Node18&#45;&gt;Node46 -->
<g id="edge38" class="edge">
<title>Node18&#45;&gt;Node46</title>
<path fill="none" stroke="midnightblue" d="M3643.99,-152.23C3925.24,-147.21 4675.62,-131.04 4922,-98 4925,-97.6 4928.07,-97.12 4931.16,-96.58"/>
<polygon fill="midnightblue" stroke="midnightblue" points="3643.71,-148.74 3633.78,-152.41 3643.84,-155.73 3643.71,-148.74"/>
</g>
<!-- Node18&#45;&gt;Node47 -->
<g id="edge39" class="edge">
<title>Node18&#45;&gt;Node47</title>
<path fill="none" stroke="midnightblue" d="M3644.09,-152.65C3942.82,-148.5 4775.51,-133.94 5047,-98 5050,-97.6 5053.08,-97.13 5056.17,-96.6"/>
<polygon fill="midnightblue" stroke="midnightblue" points="3643.64,-149.16 3633.69,-152.79 3643.73,-156.16 3643.64,-149.16"/>
</g>
<!-- Node18&#45;&gt;Node48 -->
<g id="edge40" class="edge">
<title>Node18&#45;&gt;Node48</title>
<path fill="none" stroke="midnightblue" d="M3643.87,-150.63C4045.68,-138.08 5447.35,-94.3 5739.42,-85.17"/>
<polygon fill="midnightblue" stroke="midnightblue" points="3643.59,-147.14 3633.7,-150.95 3643.81,-154.13 3643.59,-147.14"/>
</g>
<!-- Node49 -->
<g id="node35" class="node">
<title>Node49</title>
<g id="a_node35"><a xlink:href="../../df/dba/vpiecenode__p_8h.html" target="_top" xlink:title=" ">
<polygon fill="white" stroke="black" points="4806.5,-67.5 4806.5,-97.5 4913.5,-97.5 4913.5,-67.5 4806.5,-67.5"/>
<text text-anchor="start" x="4814.5" y="-85.5" font-family="Helvetica,sans-Serif" font-size="10.00">src/libs/vpatterndb</text>
<text text-anchor="middle" x="4860" y="-74.5" font-family="Helvetica,sans-Serif" font-size="10.00">/vpiecenode_p.h</text>
</a>
</g>
</g>
<!-- Node18&#45;&gt;Node49 -->
<g id="edge41" class="edge">
<title>Node18&#45;&gt;Node49</title>
<path fill="none" stroke="midnightblue" d="M3643.92,-151.73C3906.93,-145.79 4575.63,-128.14 4797,-98 4800,-97.59 4803.07,-97.11 4806.16,-96.57"/>
<polygon fill="midnightblue" stroke="midnightblue" points="3643.51,-148.24 3633.6,-151.96 3643.67,-155.24 3643.51,-148.24"/>
</g>
<!-- Node51 -->
<g id="node37" class="node">
<title>Node51</title>
<g id="a_node37"><a xlink:href="../../de/d3e/vtranslatevars_8cpp.html" target="_top" xlink:title=" ">
<polygon fill="white" stroke="black" points="1772,-67.5 1772,-97.5 1882,-97.5 1882,-67.5 1772,-67.5"/>
<text text-anchor="start" x="1780" y="-85.5" font-family="Helvetica,sans-Serif" font-size="10.00">src/libs/vpatterndb</text>
<text text-anchor="middle" x="1827" y="-74.5" font-family="Helvetica,sans-Serif" font-size="10.00">/vtranslatevars.cpp</text>
</a>
</g>
</g>
<!-- Node18&#45;&gt;Node51 -->
<g id="edge43" class="edge">
<title>Node18&#45;&gt;Node51</title>
<path fill="none" stroke="midnightblue" d="M3428.36,-152.99C3112.18,-149.6 2189.76,-136.58 1891,-98 1888.06,-97.62 1885.06,-97.17 1882.04,-96.66"/>
<polygon fill="midnightblue" stroke="midnightblue" points="3428.41,-156.49 3438.44,-153.1 3428.48,-149.49 3428.41,-156.49"/>
</g>
<!-- Node24 -->
<g id="node38" class="node">
<title>Node24</title>
<g id="a_node38"><a xlink:href="../../df/d40/export__format__combobox_8cpp.html" target="_top" xlink:title=" ">
<polygon fill="white" stroke="black" points="1900.5,-67.5 1900.5,-97.5 2033.5,-97.5 2033.5,-67.5 1900.5,-67.5"/>
<text text-anchor="start" x="1908.5" y="-85.5" font-family="Helvetica,sans-Serif" font-size="10.00">src/libs/vwidgets/export</text>
<text text-anchor="middle" x="1967" y="-74.5" font-family="Helvetica,sans-Serif" font-size="10.00">_format_combobox.cpp</text>
</a>
</g>
</g>
<!-- Node18&#45;&gt;Node24 -->
<g id="edge44" class="edge">
<title>Node18&#45;&gt;Node24</title>
<path fill="none" stroke="midnightblue" d="M3427.95,-152.07C3131.82,-146.44 2311.48,-128.47 2043,-98 2039.93,-97.65 2036.8,-97.25 2033.64,-96.8"/>
<polygon fill="midnightblue" stroke="midnightblue" points="3428.2,-155.57 3438.26,-152.26 3428.33,-148.57 3428.2,-155.57"/>
</g>
<!-- Node52 -->
<g id="node39" class="node">
<title>Node52</title>
<g id="a_node39"><a xlink:href="../../d3/d4f/mouse__coordinates_8cpp.html" target="_top" xlink:title=" ">
<polygon fill="white" stroke="black" points="2052,-67.5 2052,-97.5 2186,-97.5 2186,-67.5 2052,-67.5"/>
<text text-anchor="start" x="2060" y="-85.5" font-family="Helvetica,sans-Serif" font-size="10.00">src/libs/vwidgets/mouse</text>
<text text-anchor="middle" x="2119" y="-74.5" font-family="Helvetica,sans-Serif" font-size="10.00">_coordinates.cpp</text>
</a>
</g>
</g>
<!-- Node18&#45;&gt;Node52 -->
<g id="edge45" class="edge">
<title>Node18&#45;&gt;Node52</title>
<path fill="none" stroke="midnightblue" d="M3428.14,-154.85C3199.83,-155.47 2651.22,-150.76 2195,-98 2192.06,-97.66 2189.07,-97.27 2186.05,-96.85"/>
<polygon fill="midnightblue" stroke="midnightblue" points="3428.45,-158.35 3438.44,-154.82 3428.43,-151.35 3428.45,-158.35"/>
</g>
<!-- Node53 -->
<g id="node40" class="node">
<title>Node53</title>
<g id="a_node40"><a xlink:href="../../d7/d1b/pen__toolbar_8cpp.html" target="_top" xlink:title=" ">
<polygon fill="white" stroke="black" points="2204.5,-67.5 2204.5,-97.5 2323.5,-97.5 2323.5,-67.5 2204.5,-67.5"/>
<text text-anchor="start" x="2212.5" y="-85.5" font-family="Helvetica,sans-Serif" font-size="10.00">src/libs/vwidgets/pen</text>
<text text-anchor="middle" x="2264" y="-74.5" font-family="Helvetica,sans-Serif" font-size="10.00">_toolbar.cpp</text>
</a>
</g>
</g>
<!-- Node18&#45;&gt;Node53 -->
<g id="edge46" class="edge">
<title>Node18&#45;&gt;Node53</title>
<path fill="none" stroke="midnightblue" d="M3428.22,-154.88C3216.97,-155.3 2734,-149.85 2332,-98 2329.25,-97.64 2326.44,-97.24 2323.61,-96.79"/>
<polygon fill="midnightblue" stroke="midnightblue" points="3428.39,-158.38 3438.38,-154.85 3428.37,-151.38 3428.39,-158.38"/>
</g>
<!-- Node27 -->
<g id="node41" class="node">
<title>Node27</title>
<g id="a_node41"><a xlink:href="../../d2/d28/page__format__combobox_8cpp.html" target="_top" xlink:title=" ">
<polygon fill="white" stroke="black" points="2341.5,-67.5 2341.5,-97.5 2472.5,-97.5 2472.5,-67.5 2341.5,-67.5"/>
<text text-anchor="start" x="2349.5" y="-85.5" font-family="Helvetica,sans-Serif" font-size="10.00">src/libs/vwidgets/page</text>
<text text-anchor="middle" x="2407" y="-74.5" font-family="Helvetica,sans-Serif" font-size="10.00">_format_combobox.cpp</text>
</a>
</g>
</g>
<!-- Node18&#45;&gt;Node27 -->
<g id="edge47" class="edge">
<title>Node18&#45;&gt;Node27</title>
<path fill="none" stroke="midnightblue" d="M3428.19,-153.17C3236.93,-150.6 2825.97,-140.18 2482,-98 2478.97,-97.63 2475.88,-97.21 2472.77,-96.75"/>
<polygon fill="midnightblue" stroke="midnightblue" points="3428.2,-156.67 3438.25,-153.3 3428.29,-149.67 3428.2,-156.67"/>
</g>
<!-- Node54 -->
<g id="node42" class="node">
<title>Node54</title>
<g id="a_node42"><a xlink:href="../../d8/d76/scene__rect_8cpp.html" target="_top" xlink:title=" ">
<polygon fill="white" stroke="black" points="2491,-67.5 2491,-97.5 2621,-97.5 2621,-67.5 2491,-67.5"/>
<text text-anchor="start" x="2499" y="-85.5" font-family="Helvetica,sans-Serif" font-size="10.00">src/libs/vwidgets/scene</text>
<text text-anchor="middle" x="2556" y="-74.5" font-family="Helvetica,sans-Serif" font-size="10.00">_rect.cpp</text>
</a>
</g>
</g>
<!-- Node18&#45;&gt;Node54 -->
<g id="edge48" class="edge">
<title>Node18&#45;&gt;Node54</title>
<path fill="none" stroke="midnightblue" d="M3428.18,-151.93C3257.97,-147.62 2916.83,-134.8 2630,-98 2627.14,-97.63 2624.23,-97.22 2621.29,-96.78"/>
<polygon fill="midnightblue" stroke="midnightblue" points="3428.31,-155.43 3438.4,-152.18 3428.49,-148.43 3428.31,-155.43"/>
</g>
<!-- Node55 -->
<g id="node43" class="node">
<title>Node55</title>
<g id="a_node43"><a xlink:href="../../dd/df6/vabstractmainwindow_8cpp.html" target="_top" xlink:title=" ">
<polygon fill="white" stroke="black" points="2639.5,-73 2639.5,-92 2868.5,-92 2868.5,-73 2639.5,-73"/>
<text text-anchor="middle" x="2754" y="-80" font-family="Helvetica,sans-Serif" font-size="10.00">src/libs/vwidgets/vabstractmainwindow.cpp</text>
</a>
</g>
</g>
<!-- Node18&#45;&gt;Node55 -->
<g id="edge49" class="edge">
<title>Node18&#45;&gt;Node55</title>
<path fill="none" stroke="midnightblue" d="M3428.48,-145.94C3297.94,-135.91 3071.14,-117.69 2877,-98 2859.46,-96.22 2840.53,-94.09 2822.91,-92.02"/>
<polygon fill="midnightblue" stroke="midnightblue" points="3428.25,-149.44 3438.49,-146.71 3428.78,-142.46 3428.25,-149.44"/>
</g>
<!-- Node56 -->
<g id="node44" class="node">
<title>Node56</title>
<g id="a_node44"><a xlink:href="../../d1/d90/vgrainlineitem_8cpp.html" target="_top" xlink:title=" ">
<polygon fill="white" stroke="black" points="2886.5,-73 2886.5,-92 3079.5,-92 3079.5,-73 2886.5,-73"/>
<text text-anchor="middle" x="2983" y="-80" font-family="Helvetica,sans-Serif" font-size="10.00">src/libs/vwidgets/vgrainlineitem.cpp</text>
</a>
</g>
</g>
<!-- Node18&#45;&gt;Node56 -->
<g id="edge50" class="edge">
<title>Node18&#45;&gt;Node56</title>
<path fill="none" stroke="midnightblue" d="M3455.25,-144.22C3365.52,-133.29 3216.33,-114.88 3088,-98 3073.68,-96.12 3058.27,-94.02 3043.78,-92.03"/>
<polygon fill="midnightblue" stroke="midnightblue" points="3455,-147.72 3465.35,-145.45 3455.85,-140.77 3455,-147.72"/>
</g>
<!-- Node37&#45;&gt;Node38 -->
<g id="edge28" class="edge">
<title>Node37&#45;&gt;Node38</title>
<path fill="none" stroke="midnightblue" d="M1763.79,-67.11C1979.07,-39.33 2581.92,-22.43 2765.39,-17.8"/>
<polygon fill="midnightblue" stroke="midnightblue" points="1763.29,-63.65 1753.84,-68.44 1764.21,-70.59 1763.29,-63.65"/>
</g>
<!-- Node49&#45;&gt;Node50 -->
<g id="edge42" class="edge">
<title>Node49&#45;&gt;Node50</title>
<path fill="none" stroke="midnightblue" d="M4919.65,-64.71C4957.24,-54.14 5005.23,-40.63 5040.85,-30.61"/>
<polygon fill="midnightblue" stroke="midnightblue" points="4918.52,-61.4 4909.84,-67.48 4920.41,-68.14 4918.52,-61.4"/>
</g>
<!-- Node71&#45;&gt;Node48 -->
<g id="edge62" class="edge">
<title>Node71&#45;&gt;Node48</title>
<path fill="none" stroke="midnightblue" d="M6059.71,-217.66C6107.75,-209.54 6167.87,-195.75 6183,-176 6194.35,-161.18 6195.46,-147.9 6183,-134 6134.22,-79.55 5928.08,-110.22 5856,-98 5852.9,-97.47 5849.73,-96.89 5846.53,-96.27"/>
<polygon fill="midnightblue" stroke="midnightblue" points="6058.96,-214.24 6049.66,-219.31 6060.1,-221.15 6058.96,-214.24"/>
</g>
</g>
</svg>
