<?xml version="1.0" encoding="UTF-8" standalone="no"?>
<!DOCTYPE svg PUBLIC "-//W3C//DTD SVG 1.1//EN"
 "http://www.w3.org/Graphics/SVG/1.1/DTD/svg11.dtd">
<!-- Generated by graphviz version 2.43.0 (0)
 -->
<!-- Title: src/libs/ifc/exception/vexceptionbadid.h Pages: 1 -->
<svg width="6159pt" height="318pt"
 viewBox="0.00 0.00 6159.00 318.00" xmlns="http://www.w3.org/2000/svg" xmlns:xlink="http://www.w3.org/1999/xlink">
<g id="graph0" class="graph" transform="scale(1 1) rotate(0) translate(4 314)">
<title>src/libs/ifc/exception/vexceptionbadid.h</title>
<polygon fill="white" stroke="transparent" points="-4,4 -4,-314 6155,-314 6155,4 -4,4"/>
<!-- Node1 -->
<g id="node1" class="node">
<title>Node1</title>
<g id="a_node1"><a xlink:title=" ">
<polygon fill="#bfbfbf" stroke="black" points="4942.5,-279.5 4942.5,-309.5 5059.5,-309.5 5059.5,-279.5 4942.5,-279.5"/>
<text text-anchor="start" x="4950.5" y="-297.5" font-family="Helvetica,sans-Serif" font-size="10.00">src/libs/ifc/exception</text>
<text text-anchor="middle" x="5001" y="-286.5" font-family="Helvetica,sans-Serif" font-size="10.00">/vexceptionbadid.h</text>
</a>
</g>
</g>
<!-- Node2 -->
<g id="node2" class="node">
<title>Node2</title>
<g id="a_node2"><a xlink:href="../../d5/d85/vexceptionbadid_8cpp.html" target="_top" xlink:title=" ">
<polygon fill="white" stroke="black" points="4767.5,-212.5 4767.5,-242.5 4888.5,-242.5 4888.5,-212.5 4767.5,-212.5"/>
<text text-anchor="start" x="4775.5" y="-230.5" font-family="Helvetica,sans-Serif" font-size="10.00">src/libs/ifc/exception</text>
<text text-anchor="middle" x="4828" y="-219.5" font-family="Helvetica,sans-Serif" font-size="10.00">/vexceptionbadid.cpp</text>
</a>
</g>
</g>
<!-- Node1&#45;&gt;Node2 -->
<g id="edge1" class="edge">
<title>Node1&#45;&gt;Node2</title>
<path fill="none" stroke="midnightblue" d="M4953.94,-275.82C4926.13,-265.37 4891.41,-252.32 4865.47,-242.58"/>
<polygon fill="midnightblue" stroke="midnightblue" points="4952.87,-279.16 4963.46,-279.4 4955.33,-272.6 4952.87,-279.16"/>
</g>
<!-- Node3 -->
<g id="node3" class="node">
<title>Node3</title>
<g id="a_node3"><a xlink:href="../../d7/d49/vdomdocument_8cpp.html" target="_top" xlink:title=" ">
<polygon fill="white" stroke="black" points="4907,-218 4907,-237 5095,-237 5095,-218 4907,-218"/>
<text text-anchor="middle" x="5001" y="-225" font-family="Helvetica,sans-Serif" font-size="10.00">src/libs/ifc/xml/vdomdocument.cpp</text>
</a>
</g>
</g>
<!-- Node1&#45;&gt;Node3 -->
<g id="edge2" class="edge">
<title>Node1&#45;&gt;Node3</title>
<path fill="none" stroke="midnightblue" d="M5001,-269.25C5001,-258.02 5001,-245.38 5001,-237.19"/>
<polygon fill="midnightblue" stroke="midnightblue" points="4997.5,-269.4 5001,-279.4 5004.5,-269.4 4997.5,-269.4"/>
</g>
<!-- Node4 -->
<g id="node4" class="node">
<title>Node4</title>
<g id="a_node4"><a xlink:href="../../d3/df7/vcontainer_8h.html" target="_top" xlink:title=" ">
<polygon fill="white" stroke="black" points="5113.5,-212.5 5113.5,-242.5 5220.5,-242.5 5220.5,-212.5 5113.5,-212.5"/>
<text text-anchor="start" x="5121.5" y="-230.5" font-family="Helvetica,sans-Serif" font-size="10.00">src/libs/vpatterndb</text>
<text text-anchor="middle" x="5167" y="-219.5" font-family="Helvetica,sans-Serif" font-size="10.00">/vcontainer.h</text>
</a>
</g>
</g>
<!-- Node1&#45;&gt;Node4 -->
<g id="edge3" class="edge">
<title>Node1&#45;&gt;Node4</title>
<path fill="none" stroke="midnightblue" d="M5046.51,-275.68C5073.13,-265.26 5106.27,-252.28 5131.05,-242.58"/>
<polygon fill="midnightblue" stroke="midnightblue" points="5045.05,-272.49 5037.02,-279.4 5047.61,-279.01 5045.05,-272.49"/>
</g>
<!-- Node5 -->
<g id="node5" class="node">
<title>Node5</title>
<g id="a_node5"><a xlink:href="../../dc/db7/measurements_8h.html" target="_top" xlink:title=" ">
<polygon fill="white" stroke="black" points="593.5,-145.5 593.5,-164.5 772.5,-164.5 772.5,-145.5 593.5,-145.5"/>
<text text-anchor="middle" x="683" y="-152.5" font-family="Helvetica,sans-Serif" font-size="10.00">src/libs/vformat/measurements.h</text>
</a>
</g>
</g>
<!-- Node4&#45;&gt;Node5 -->
<g id="edge4" class="edge">
<title>Node4&#45;&gt;Node5</title>
<path fill="none" stroke="midnightblue" d="M5103.18,-212.18C4600.18,-158.3 1398.2,-195.9 939,-176 883.55,-173.6 821.49,-168.8 772.36,-164.51"/>
<polygon fill="midnightblue" stroke="midnightblue" points="5102.85,-215.66 5113.18,-213.3 5103.63,-208.71 5102.85,-215.66"/>
</g>
<!-- Node6 -->
<g id="node6" class="node">
<title>Node6</title>
<g id="a_node6"><a xlink:href="../../d9/de3/measurements_8cpp.html" target="_top" xlink:title=" ">
<polygon fill="white" stroke="black" points="0,-73 0,-92 190,-92 190,-73 0,-73"/>
<text text-anchor="middle" x="95" y="-80" font-family="Helvetica,sans-Serif" font-size="10.00">src/libs/vformat/measurements.cpp</text>
</a>
</g>
</g>
<!-- Node4&#45;&gt;Node6 -->
<g id="edge7" class="edge">
<title>Node4&#45;&gt;Node6</title>
<path fill="none" stroke="midnightblue" d="M5103.14,-212.17C4560.62,-154.23 1080.68,-224.56 584,-176 410.94,-159.08 207.77,-111.6 128.79,-92.06"/>
<polygon fill="midnightblue" stroke="midnightblue" points="5102.85,-215.66 5113.18,-213.3 5103.63,-208.71 5102.85,-215.66"/>
</g>
<!-- Node7 -->
<g id="node7" class="node">
<title>Node7</title>
<g id="a_node7"><a xlink:href="../../d2/d47/image__dialog_8cpp.html" target="_top" xlink:title=" ">
<polygon fill="white" stroke="black" points="1528,-67.5 1528,-97.5 1640,-97.5 1640,-67.5 1528,-67.5"/>
<text text-anchor="start" x="1536" y="-85.5" font-family="Helvetica,sans-Serif" font-size="10.00">src/libs/tools/image</text>
<text text-anchor="middle" x="1584" y="-74.5" font-family="Helvetica,sans-Serif" font-size="10.00">_dialog.cpp</text>
</a>
</g>
</g>
<!-- Node4&#45;&gt;Node7 -->
<g id="edge6" class="edge">
<title>Node4&#45;&gt;Node7</title>
<path fill="none" stroke="midnightblue" d="M5103.13,-212.13C4529.97,-145.33 3134.65,-203.37 2577,-176 2163.6,-155.71 2058.15,-160.54 1649,-98 1646.14,-97.56 1643.22,-97.07 1640.28,-96.55"/>
<polygon fill="midnightblue" stroke="midnightblue" points="5102.83,-215.62 5113.18,-213.32 5103.66,-208.67 5102.83,-215.62"/>
</g>
<!-- Node8 -->
<g id="node8" class="node">
<title>Node8</title>
<g id="a_node8"><a xlink:href="../../d6/de0/vlayoutpiece_8h.html" target="_top" xlink:title=" ">
<polygon fill="white" stroke="black" points="948,-145.5 948,-164.5 1114,-164.5 1114,-145.5 948,-145.5"/>
<text text-anchor="middle" x="1031" y="-152.5" font-family="Helvetica,sans-Serif" font-size="10.00">src/libs/vlayout/vlayoutpiece.h</text>
</a>
</g>
</g>
<!-- Node4&#45;&gt;Node8 -->
<g id="edge8" class="edge">
<title>Node4&#45;&gt;Node8</title>
<path fill="none" stroke="midnightblue" d="M5102.89,-213.04C4897.06,-208.83 1675.62,-164.81 1114.14,-157.14"/>
<polygon fill="midnightblue" stroke="midnightblue" points="5103.09,-216.55 5113.18,-213.32 5103.27,-209.55 5103.09,-216.55"/>
</g>
<!-- Node18 -->
<g id="node17" class="node">
<title>Node18</title>
<g id="a_node17"><a xlink:href="../../d8/d70/vtextmanager_8cpp.html" target="_top" xlink:title=" ">
<polygon fill="white" stroke="black" points="1658,-73 1658,-92 1840,-92 1840,-73 1658,-73"/>
<text text-anchor="middle" x="1749" y="-80" font-family="Helvetica,sans-Serif" font-size="10.00">src/libs/vlayout/vtextmanager.cpp</text>
</a>
</g>
</g>
<!-- Node4&#45;&gt;Node18 -->
<g id="edge19" class="edge">
<title>Node4&#45;&gt;Node18</title>
<path fill="none" stroke="midnightblue" d="M5103.2,-212.13C4733.88,-168.13 3852.32,-188.31 3499,-176 3407.29,-172.8 1940.35,-106.76 1849,-98 1833.37,-96.5 1816.45,-94.28 1801.04,-92.02"/>
<polygon fill="midnightblue" stroke="midnightblue" points="5102.82,-215.61 5113.17,-213.35 5103.67,-208.66 5102.82,-215.61"/>
</g>
<!-- Node19 -->
<g id="node18" class="node">
<title>Node19</title>
<g id="a_node18"><a xlink:href="../../d5/d74/vabstractapplication_8h.html" target="_top" xlink:title=" ">
<polygon fill="white" stroke="red" points="3508.5,-145.5 3508.5,-164.5 3703.5,-164.5 3703.5,-145.5 3508.5,-145.5"/>
<text text-anchor="middle" x="3606" y="-152.5" font-family="Helvetica,sans-Serif" font-size="10.00">src/libs/vmisc/vabstractapplication.h</text>
</a>
</g>
</g>
<!-- Node4&#45;&gt;Node19 -->
<g id="edge20" class="edge">
<title>Node4&#45;&gt;Node19</title>
<path fill="none" stroke="midnightblue" d="M5103.05,-212.1C4812.27,-175.59 3987.79,-161.23 3703.61,-157.24"/>
<polygon fill="midnightblue" stroke="midnightblue" points="5102.8,-215.59 5113.17,-213.41 5103.7,-208.65 5102.8,-215.59"/>
</g>
<!-- Node47 -->
<g id="node33" class="node">
<title>Node47</title>
<g id="a_node33"><a xlink:href="../../d6/d46/vcontainer_8cpp.html" target="_top" xlink:title=" ">
<polygon fill="white" stroke="black" points="5056.5,-67.5 5056.5,-97.5 5163.5,-97.5 5163.5,-67.5 5056.5,-67.5"/>
<text text-anchor="start" x="5064.5" y="-85.5" font-family="Helvetica,sans-Serif" font-size="10.00">src/libs/vpatterndb</text>
<text text-anchor="middle" x="5110" y="-74.5" font-family="Helvetica,sans-Serif" font-size="10.00">/vcontainer.cpp</text>
</a>
</g>
</g>
<!-- Node4&#45;&gt;Node47 -->
<g id="edge53" class="edge">
<title>Node4&#45;&gt;Node47</title>
<path fill="none" stroke="midnightblue" d="M5150.05,-204C5144.31,-195.56 5138.28,-185.67 5134,-176 5122.33,-149.6 5115.43,-116.35 5112.22,-97.77"/>
<polygon fill="midnightblue" stroke="midnightblue" points="5147.21,-206.05 5155.84,-212.2 5152.93,-202.01 5147.21,-206.05"/>
</g>
<!-- Node48 -->
<g id="node34" class="node">
<title>Node48</title>
<g id="a_node34"><a xlink:href="../../db/d11/vformula_8cpp.html" target="_top" xlink:title=" ">
<polygon fill="white" stroke="black" points="5181.5,-67.5 5181.5,-97.5 5288.5,-97.5 5288.5,-67.5 5181.5,-67.5"/>
<text text-anchor="start" x="5189.5" y="-85.5" font-family="Helvetica,sans-Serif" font-size="10.00">src/libs/vpatterndb</text>
<text text-anchor="middle" x="5235" y="-74.5" font-family="Helvetica,sans-Serif" font-size="10.00">/vformula.cpp</text>
</a>
</g>
</g>
<!-- Node4&#45;&gt;Node48 -->
<g id="edge55" class="edge">
<title>Node4&#45;&gt;Node48</title>
<path fill="none" stroke="midnightblue" d="M5163.1,-202.23C5161.15,-182.71 5161.14,-155.15 5172,-134 5179.94,-118.54 5194.97,-106.21 5208.36,-97.6"/>
<polygon fill="midnightblue" stroke="midnightblue" points="5159.66,-202.93 5164.37,-212.42 5166.61,-202.07 5159.66,-202.93"/>
</g>
<!-- Node49 -->
<g id="node35" class="node">
<title>Node49</title>
<g id="a_node35"><a xlink:href="../../df/d7a/vpiece_8cpp.html" target="_top" xlink:title=" ">
<polygon fill="white" stroke="black" points="5306.5,-67.5 5306.5,-97.5 5413.5,-97.5 5413.5,-67.5 5306.5,-67.5"/>
<text text-anchor="start" x="5314.5" y="-85.5" font-family="Helvetica,sans-Serif" font-size="10.00">src/libs/vpatterndb</text>
<text text-anchor="middle" x="5360" y="-74.5" font-family="Helvetica,sans-Serif" font-size="10.00">/vpiece.cpp</text>
</a>
</g>
</g>
<!-- Node4&#45;&gt;Node49 -->
<g id="edge56" class="edge">
<title>Node4&#45;&gt;Node49</title>
<path fill="none" stroke="midnightblue" d="M5172.46,-202.46C5178.38,-181.63 5189.8,-152.09 5210,-134 5224.59,-120.94 5269.41,-106.77 5306.29,-96.78"/>
<polygon fill="midnightblue" stroke="midnightblue" points="5169.07,-201.61 5169.92,-212.17 5175.84,-203.38 5169.07,-201.61"/>
</g>
<!-- Node51 -->
<g id="node37" class="node">
<title>Node51</title>
<g id="a_node37"><a xlink:href="../../d8/dba/vpiecenode_8cpp.html" target="_top" xlink:title=" ">
<polygon fill="white" stroke="black" points="5159.5,-0.5 5159.5,-30.5 5266.5,-30.5 5266.5,-0.5 5159.5,-0.5"/>
<text text-anchor="start" x="5167.5" y="-18.5" font-family="Helvetica,sans-Serif" font-size="10.00">src/libs/vpatterndb</text>
<text text-anchor="middle" x="5213" y="-7.5" font-family="Helvetica,sans-Serif" font-size="10.00">/vpiecenode.cpp</text>
</a>
</g>
</g>
<!-- Node4&#45;&gt;Node51 -->
<g id="edge58" class="edge">
<title>Node4&#45;&gt;Node51</title>
<path fill="none" stroke="midnightblue" d="M5186.17,-204.51C5193.71,-195.73 5202.37,-185.47 5210,-176 5224.72,-157.73 5222.1,-146.44 5242,-134 5311.19,-90.76 5370.28,-161.09 5422,-98 5466.94,-43.18 5342.34,-25.12 5266.56,-19.25"/>
<polygon fill="midnightblue" stroke="midnightblue" points="5183.51,-202.23 5179.63,-212.09 5188.81,-206.81 5183.51,-202.23"/>
</g>
<!-- Node65 -->
<g id="node45" class="node">
<title>Node65</title>
<g id="a_node45"><a xlink:href="../../d3/d02/custom__variable__p_8h.html" target="_top" xlink:title=" ">
<polygon fill="white" stroke="red" points="5251.5,-140 5251.5,-170 5420.5,-170 5420.5,-140 5251.5,-140"/>
<text text-anchor="start" x="5259.5" y="-158" font-family="Helvetica,sans-Serif" font-size="10.00">src/libs/vpatterndb</text>
<text text-anchor="middle" x="5336" y="-147" font-family="Helvetica,sans-Serif" font-size="10.00">/variables/custom_variable_p.h</text>
</a>
</g>
</g>
<!-- Node4&#45;&gt;Node65 -->
<g id="edge51" class="edge">
<title>Node4&#45;&gt;Node65</title>
<path fill="none" stroke="midnightblue" d="M5210.15,-208.5C5238.77,-196.56 5275.8,-181.11 5302.27,-170.07"/>
<polygon fill="midnightblue" stroke="midnightblue" points="5208.68,-205.32 5200.79,-212.4 5211.37,-211.78 5208.68,-205.32"/>
</g>
<!-- Node67 -->
<g id="node46" class="node">
<title>Node67</title>
<g id="a_node46"><a xlink:href="../../d7/d8a/measurement__variable__p_8h.html" target="_top" xlink:title=" ">
<polygon fill="white" stroke="red" points="5439,-134.5 5439,-175.5 5575,-175.5 5575,-134.5 5439,-134.5"/>
<text text-anchor="start" x="5447" y="-163.5" font-family="Helvetica,sans-Serif" font-size="10.00">src/libs/vpatterndb</text>
<text text-anchor="start" x="5447" y="-152.5" font-family="Helvetica,sans-Serif" font-size="10.00">/variables/measurement</text>
<text text-anchor="middle" x="5507" y="-141.5" font-family="Helvetica,sans-Serif" font-size="10.00">_variable_p.h</text>
</a>
</g>
</g>
<!-- Node4&#45;&gt;Node67 -->
<g id="edge52" class="edge">
<title>Node4&#45;&gt;Node67</title>
<path fill="none" stroke="midnightblue" d="M5230.61,-215.35C5283.8,-205.77 5361.59,-191.12 5429,-176 5432.27,-175.27 5435.62,-174.49 5438.99,-173.7"/>
<polygon fill="midnightblue" stroke="midnightblue" points="5229.86,-211.93 5220.64,-217.14 5231.1,-218.82 5229.86,-211.93"/>
</g>
<!-- Node69 -->
<g id="node47" class="node">
<title>Node69</title>
<g id="a_node47"><a xlink:href="../../d6/d91/vnodedetail_8cpp.html" target="_top" xlink:title=" ">
<polygon fill="white" stroke="black" points="5593.5,-140 5593.5,-170 5700.5,-170 5700.5,-140 5593.5,-140"/>
<text text-anchor="start" x="5601.5" y="-158" font-family="Helvetica,sans-Serif" font-size="10.00">src/libs/vpatterndb</text>
<text text-anchor="middle" x="5647" y="-147" font-family="Helvetica,sans-Serif" font-size="10.00">/vnodedetail.cpp</text>
</a>
</g>
</g>
<!-- Node4&#45;&gt;Node69 -->
<g id="edge54" class="edge">
<title>Node4&#45;&gt;Node69</title>
<path fill="none" stroke="midnightblue" d="M5230.72,-222.5C5313.05,-216.49 5460.48,-202.84 5584,-176 5591.4,-174.39 5599.17,-172.28 5606.63,-170.04"/>
<polygon fill="midnightblue" stroke="midnightblue" points="5230.25,-219.02 5220.52,-223.23 5230.75,-226.01 5230.25,-219.02"/>
</g>
<!-- Node70 -->
<g id="node48" class="node">
<title>Node70</title>
<g id="a_node48"><a xlink:href="../../da/de1/vpiecepath_8cpp.html" target="_top" xlink:title=" ">
<polygon fill="white" stroke="black" points="5718.5,-140 5718.5,-170 5825.5,-170 5825.5,-140 5718.5,-140"/>
<text text-anchor="start" x="5726.5" y="-158" font-family="Helvetica,sans-Serif" font-size="10.00">src/libs/vpatterndb</text>
<text text-anchor="middle" x="5772" y="-147" font-family="Helvetica,sans-Serif" font-size="10.00">/vpiecepath.cpp</text>
</a>
</g>
</g>
<!-- Node4&#45;&gt;Node70 -->
<g id="edge57" class="edge">
<title>Node4&#45;&gt;Node70</title>
<path fill="none" stroke="midnightblue" d="M5230.91,-225.08C5333.1,-221.81 5539.19,-211.05 5710,-176 5717.53,-174.45 5725.44,-172.32 5732.99,-170.02"/>
<polygon fill="midnightblue" stroke="midnightblue" points="5230.64,-221.59 5220.75,-225.39 5230.86,-228.59 5230.64,-221.59"/>
</g>
<!-- Node71 -->
<g id="node49" class="node">
<title>Node71</title>
<g id="a_node49"><a xlink:href="../../d1/d3a/abstracttest_8cpp.html" target="_top" xlink:title=" ">
<polygon fill="white" stroke="black" points="5843.5,-145.5 5843.5,-164.5 6004.5,-164.5 6004.5,-145.5 5843.5,-145.5"/>
<text text-anchor="middle" x="5924" y="-152.5" font-family="Helvetica,sans-Serif" font-size="10.00">src/libs/vtest/abstracttest.cpp</text>
</a>
</g>
</g>
<!-- Node4&#45;&gt;Node71 -->
<g id="edge59" class="edge">
<title>Node4&#45;&gt;Node71</title>
<path fill="none" stroke="midnightblue" d="M5230.59,-224.77C5349.75,-220.86 5614.53,-208.93 5835,-176 5853.8,-173.19 5874.53,-168.62 5891.25,-164.56"/>
<polygon fill="midnightblue" stroke="midnightblue" points="5230.43,-221.28 5220.55,-225.1 5230.65,-228.27 5230.43,-221.28"/>
</g>
<!-- Node72 -->
<g id="node50" class="node">
<title>Node72</title>
<g id="a_node50"><a xlink:href="../../da/db4/piece__tablewidgetitem_8cpp.html" target="_top" xlink:title=" ">
<polygon fill="white" stroke="black" points="6023,-140 6023,-170 6151,-170 6151,-140 6023,-140"/>
<text text-anchor="start" x="6031" y="-158" font-family="Helvetica,sans-Serif" font-size="10.00">src/libs/vwidgets/piece</text>
<text text-anchor="middle" x="6087" y="-147" font-family="Helvetica,sans-Serif" font-size="10.00">_tablewidgetitem.cpp</text>
</a>
</g>
</g>
<!-- Node4&#45;&gt;Node72 -->
<g id="edge60" class="edge">
<title>Node4&#45;&gt;Node72</title>
<path fill="none" stroke="midnightblue" d="M5231.21,-227.2C5373.32,-227.76 5724.73,-223.72 6014,-176 6022.95,-174.52 6032.37,-172.39 6041.37,-170.06"/>
<polygon fill="midnightblue" stroke="midnightblue" points="5230.96,-223.7 5220.94,-227.15 5230.93,-230.7 5230.96,-223.7"/>
</g>
<!-- Node5&#45;&gt;Node6 -->
<g id="edge5" class="edge">
<title>Node5&#45;&gt;Node6</title>
<path fill="none" stroke="midnightblue" d="M594.48,-144.39C497.38,-133.69 336.97,-115.6 199,-98 184.53,-96.15 168.95,-94.05 154.37,-92.02"/>
<polygon fill="midnightblue" stroke="midnightblue" points="594.23,-147.88 604.55,-145.49 594.99,-140.92 594.23,-147.88"/>
</g>
<!-- Node9 -->
<g id="node9" class="node">
<title>Node9</title>
<g id="a_node9"><a xlink:href="../../dd/d66/vdxfengine_8cpp.html" target="_top" xlink:title=" ">
<polygon fill="white" stroke="black" points="1161,-73 1161,-92 1315,-92 1315,-73 1161,-73"/>
<text text-anchor="middle" x="1238" y="-80" font-family="Helvetica,sans-Serif" font-size="10.00">src/libs/vdxf/vdxfengine.cpp</text>
</a>
</g>
</g>
<!-- Node8&#45;&gt;Node9 -->
<g id="edge9" class="edge">
<title>Node8&#45;&gt;Node9</title>
<path fill="none" stroke="midnightblue" d="M1065.68,-142.19C1107.32,-128.01 1176.14,-104.57 1212.94,-92.03"/>
<polygon fill="midnightblue" stroke="midnightblue" points="1064.31,-138.96 1055.97,-145.5 1066.56,-145.59 1064.31,-138.96"/>
</g>
<!-- Node10 -->
<g id="node10" class="node">
<title>Node10</title>
<g id="a_node10"><a xlink:href="../../de/da8/vbank_8cpp.html" target="_top" xlink:title=" ">
<polygon fill="white" stroke="black" points="208,-73 208,-92 352,-92 352,-73 208,-73"/>
<text text-anchor="middle" x="280" y="-80" font-family="Helvetica,sans-Serif" font-size="10.00">src/libs/vlayout/vbank.cpp</text>
</a>
</g>
</g>
<!-- Node8&#45;&gt;Node10 -->
<g id="edge10" class="edge">
<title>Node8&#45;&gt;Node10</title>
<path fill="none" stroke="midnightblue" d="M937.71,-146.44C760.24,-132.01 389.1,-101.68 361,-98 348.68,-96.39 335.37,-94.19 323.18,-92"/>
<polygon fill="midnightblue" stroke="midnightblue" points="937.57,-149.94 947.82,-147.26 938.14,-142.96 937.57,-149.94"/>
</g>
<!-- Node11 -->
<g id="node11" class="node">
<title>Node11</title>
<g id="a_node11"><a xlink:href="../../df/d5d/vcontour_8cpp.html" target="_top" xlink:title=" ">
<polygon fill="white" stroke="black" points="370,-73 370,-92 526,-92 526,-73 370,-73"/>
<text text-anchor="middle" x="448" y="-80" font-family="Helvetica,sans-Serif" font-size="10.00">src/libs/vlayout/vcontour.cpp</text>
</a>
</g>
</g>
<!-- Node8&#45;&gt;Node11 -->
<g id="edge11" class="edge">
<title>Node8&#45;&gt;Node11</title>
<path fill="none" stroke="midnightblue" d="M937.84,-144.96C838.02,-134.93 675.02,-117.56 535,-98 522.41,-96.24 508.84,-94.1 496.25,-92.01"/>
<polygon fill="midnightblue" stroke="midnightblue" points="937.6,-148.46 947.9,-145.97 938.3,-141.49 937.6,-148.46"/>
</g>
<!-- Node12 -->
<g id="node12" class="node">
<title>Node12</title>
<g id="a_node12"><a xlink:href="../../d3/d39/vlayoutgenerator_8cpp.html" target="_top" xlink:title=" ">
<polygon fill="white" stroke="black" points="544.5,-73 544.5,-92 741.5,-92 741.5,-73 544.5,-73"/>
<text text-anchor="middle" x="643" y="-80" font-family="Helvetica,sans-Serif" font-size="10.00">src/libs/vlayout/vlayoutgenerator.cpp</text>
</a>
</g>
</g>
<!-- Node8&#45;&gt;Node12 -->
<g id="edge12" class="edge">
<title>Node8&#45;&gt;Node12</title>
<path fill="none" stroke="midnightblue" d="M974.21,-143.68C897.29,-129.71 761.44,-105.02 689.97,-92.03"/>
<polygon fill="midnightblue" stroke="midnightblue" points="973.73,-147.15 984.2,-145.5 974.98,-140.26 973.73,-147.15"/>
</g>
<!-- Node13 -->
<g id="node13" class="node">
<title>Node13</title>
<g id="a_node13"><a xlink:href="../../d2/d2d/vlayoutpaper__p_8h.html" target="_top" xlink:title=" ">
<polygon fill="white" stroke="black" points="759.5,-73 759.5,-92 938.5,-92 938.5,-73 759.5,-73"/>
<text text-anchor="middle" x="849" y="-80" font-family="Helvetica,sans-Serif" font-size="10.00">src/libs/vlayout/vlayoutpaper_p.h</text>
</a>
</g>
</g>
<!-- Node8&#45;&gt;Node13 -->
<g id="edge13" class="edge">
<title>Node8&#45;&gt;Node13</title>
<path fill="none" stroke="midnightblue" d="M999.34,-141.74C962.62,-127.51 903.05,-104.44 871.03,-92.03"/>
<polygon fill="midnightblue" stroke="midnightblue" points="998.46,-145.15 1009.05,-145.5 1000.99,-138.62 998.46,-145.15"/>
</g>
<!-- Node14 -->
<g id="node14" class="node">
<title>Node14</title>
<g id="a_node14"><a xlink:href="../../d1/dd1/vlayoutpaper_8cpp.html" target="_top" xlink:title=" ">
<polygon fill="white" stroke="black" points="942,-6 942,-25 1120,-25 1120,-6 942,-6"/>
<text text-anchor="middle" x="1031" y="-13" font-family="Helvetica,sans-Serif" font-size="10.00">src/libs/vlayout/vlayoutpaper.cpp</text>
</a>
</g>
</g>
<!-- Node8&#45;&gt;Node14 -->
<g id="edge15" class="edge">
<title>Node8&#45;&gt;Node14</title>
<path fill="none" stroke="midnightblue" d="M1064.06,-141.04C1082.34,-131.96 1103.44,-117.87 1114,-98 1120.47,-85.83 1120.75,-79.01 1114,-67 1102.18,-45.97 1077.67,-32.68 1058.33,-25.04"/>
<polygon fill="midnightblue" stroke="midnightblue" points="1062.41,-137.94 1054.82,-145.33 1065.37,-144.29 1062.41,-137.94"/>
</g>
<!-- Node15 -->
<g id="node15" class="node">
<title>Node15</title>
<g id="a_node15"><a xlink:href="../../db/d5c/vposition_8h.html" target="_top" xlink:title=" ">
<polygon fill="white" stroke="red" points="957,-73 957,-92 1105,-92 1105,-73 957,-73"/>
<text text-anchor="middle" x="1031" y="-80" font-family="Helvetica,sans-Serif" font-size="10.00">src/libs/vlayout/vposition.h</text>
</a>
</g>
</g>
<!-- Node8&#45;&gt;Node15 -->
<g id="edge16" class="edge">
<title>Node8&#45;&gt;Node15</title>
<path fill="none" stroke="midnightblue" d="M1031,-134.94C1031,-121.03 1031,-102.82 1031,-92.22"/>
<polygon fill="midnightblue" stroke="midnightblue" points="1027.5,-135.36 1031,-145.36 1034.5,-135.36 1027.5,-135.36"/>
</g>
<!-- Node17 -->
<g id="node16" class="node">
<title>Node17</title>
<g id="a_node16"><a xlink:href="../../dd/d70/vlayoutpiece_8cpp.html" target="_top" xlink:title=" ">
<polygon fill="white" stroke="black" points="1333.5,-73 1333.5,-92 1510.5,-92 1510.5,-73 1333.5,-73"/>
<text text-anchor="middle" x="1422" y="-80" font-family="Helvetica,sans-Serif" font-size="10.00">src/libs/vlayout/vlayoutpiece.cpp</text>
</a>
</g>
</g>
<!-- Node8&#45;&gt;Node17 -->
<g id="edge18" class="edge">
<title>Node8&#45;&gt;Node17</title>
<path fill="none" stroke="midnightblue" d="M1088.23,-143.68C1165.74,-129.71 1302.65,-105.02 1374.67,-92.03"/>
<polygon fill="midnightblue" stroke="midnightblue" points="1087.38,-140.28 1078.16,-145.5 1088.63,-147.17 1087.38,-140.28"/>
</g>
<!-- Node13&#45;&gt;Node14 -->
<g id="edge14" class="edge">
<title>Node13&#45;&gt;Node14</title>
<path fill="none" stroke="midnightblue" d="M882.78,-69.44C918.88,-56.54 975.21,-36.42 1007.02,-25.06"/>
<polygon fill="midnightblue" stroke="midnightblue" points="881.41,-66.21 873.17,-72.87 883.76,-72.8 881.41,-66.21"/>
</g>
<!-- Node15&#45;&gt;Node14 -->
<g id="edge17" class="edge">
<title>Node15&#45;&gt;Node14</title>
<path fill="none" stroke="midnightblue" d="M1031,-62.54C1031,-50.17 1031,-34.62 1031,-25.13"/>
<polygon fill="midnightblue" stroke="midnightblue" points="1027.5,-62.73 1031,-72.73 1034.5,-62.73 1027.5,-62.73"/>
</g>
<!-- Node19&#45;&gt;Node7 -->
<g id="edge24" class="edge">
<title>Node19&#45;&gt;Node7</title>
<path fill="none" stroke="midnightblue" d="M3498.08,-152.12C3114.81,-145.26 1832.26,-120.85 1649,-98 1646.13,-97.64 1643.2,-97.22 1640.26,-96.74"/>
<polygon fill="midnightblue" stroke="midnightblue" points="3498.28,-155.62 3508.34,-152.3 3498.4,-148.62 3498.28,-155.62"/>
</g>
<!-- Node19&#45;&gt;Node17 -->
<g id="edge33" class="edge">
<title>Node19&#45;&gt;Node17</title>
<path fill="none" stroke="midnightblue" d="M3498.15,-152.84C3127.77,-148.59 1909.14,-132.27 1519,-98 1503.39,-96.63 1486.48,-94.37 1471.21,-92.04"/>
<polygon fill="midnightblue" stroke="midnightblue" points="3498.29,-156.34 3508.33,-152.96 3498.37,-149.34 3498.29,-156.34"/>
</g>
<!-- Node19&#45;&gt;Node18 -->
<g id="edge34" class="edge">
<title>Node19&#45;&gt;Node18</title>
<path fill="none" stroke="midnightblue" d="M3498.39,-152.15C3168.11,-146.24 2171.8,-126.46 1849,-98 1833.01,-96.59 1815.68,-94.34 1800,-92.02"/>
<polygon fill="midnightblue" stroke="midnightblue" points="3498.38,-155.65 3508.44,-152.33 3498.5,-148.66 3498.38,-155.65"/>
</g>
<!-- Node20 -->
<g id="node19" class="node">
<title>Node20</title>
<g id="a_node19"><a xlink:href="../../d4/d90/fvupdater_8cpp.html" target="_top" xlink:title=" ">
<polygon fill="white" stroke="black" points="2972.5,-73 2972.5,-92 3125.5,-92 3125.5,-73 2972.5,-73"/>
<text text-anchor="middle" x="3049" y="-80" font-family="Helvetica,sans-Serif" font-size="10.00">src/libs/fervor/fvupdater.cpp</text>
</a>
</g>
</g>
<!-- Node19&#45;&gt;Node20 -->
<g id="edge21" class="edge">
<title>Node19&#45;&gt;Node20</title>
<path fill="none" stroke="midnightblue" d="M3514,-144.4C3418.93,-134.17 3266.34,-116.87 3135,-98 3122.71,-96.23 3109.47,-94.11 3097.15,-92.04"/>
<polygon fill="midnightblue" stroke="midnightblue" points="3513.84,-147.9 3524.16,-145.49 3514.59,-140.94 3513.84,-147.9"/>
</g>
<!-- Node21 -->
<g id="node20" class="node">
<title>Node21</title>
<g id="a_node20"><a xlink:href="../../d1/d8d/image__item_8h.html" target="_top" xlink:title=" ">
<polygon fill="white" stroke="red" points="3144,-67.5 3144,-97.5 3256,-97.5 3256,-67.5 3144,-67.5"/>
<text text-anchor="start" x="3152" y="-85.5" font-family="Helvetica,sans-Serif" font-size="10.00">src/libs/tools/image</text>
<text text-anchor="middle" x="3200" y="-74.5" font-family="Helvetica,sans-Serif" font-size="10.00">_item.h</text>
</a>
</g>
</g>
<!-- Node19&#45;&gt;Node21 -->
<g id="edge22" class="edge">
<title>Node19&#45;&gt;Node21</title>
<path fill="none" stroke="midnightblue" d="M3537.6,-143.93C3468.61,-133.51 3359.12,-116.21 3265,-98 3262.16,-97.45 3259.26,-96.87 3256.33,-96.27"/>
<polygon fill="midnightblue" stroke="midnightblue" points="3537.49,-147.46 3547.9,-145.49 3538.53,-140.53 3537.49,-147.46"/>
</g>
<!-- Node31 -->
<g id="node21" class="node">
<title>Node31</title>
<g id="a_node21"><a xlink:href="../../d9/dc8/dxiface_8cpp.html" target="_top" xlink:title=" ">
<polygon fill="white" stroke="black" points="3274.5,-73 3274.5,-92 3409.5,-92 3409.5,-73 3274.5,-73"/>
<text text-anchor="middle" x="3342" y="-80" font-family="Helvetica,sans-Serif" font-size="10.00">src/libs/vdxf/dxiface.cpp</text>
</a>
</g>
</g>
<!-- Node19&#45;&gt;Node31 -->
<g id="edge23" class="edge">
<title>Node19&#45;&gt;Node31</title>
<path fill="none" stroke="midnightblue" d="M3564.43,-142.9C3511.64,-128.8 3421.69,-104.78 3373.96,-92.03"/>
<polygon fill="midnightblue" stroke="midnightblue" points="3563.59,-146.3 3574.16,-145.5 3565.4,-139.53 3563.59,-146.3"/>
</g>
<!-- Node32 -->
<g id="node22" class="node">
<title>Node32</title>
<g id="a_node22"><a xlink:href="../../da/d75/vabstractarc__p_8h.html" target="_top" xlink:title=" ">
<polygon fill="white" stroke="red" points="3427.5,-67.5 3427.5,-97.5 3534.5,-97.5 3534.5,-67.5 3427.5,-67.5"/>
<text text-anchor="start" x="3435.5" y="-85.5" font-family="Helvetica,sans-Serif" font-size="10.00">src/libs/vgeometry</text>
<text text-anchor="middle" x="3481" y="-74.5" font-family="Helvetica,sans-Serif" font-size="10.00">/vabstractarc_p.h</text>
</a>
</g>
</g>
<!-- Node19&#45;&gt;Node32 -->
<g id="edge25" class="edge">
<title>Node19&#45;&gt;Node32</title>
<path fill="none" stroke="midnightblue" d="M3581.71,-140.3C3559.89,-127.99 3527.98,-110 3505.96,-97.58"/>
<polygon fill="midnightblue" stroke="midnightblue" points="3580.24,-143.49 3590.67,-145.36 3583.68,-137.39 3580.24,-143.49"/>
</g>
<!-- Node34 -->
<g id="node23" class="node">
<title>Node34</title>
<g id="a_node23"><a xlink:href="../../dc/da3/varc__p_8h.html" target="_top" xlink:title=" ">
<polygon fill="white" stroke="red" points="3552.5,-67.5 3552.5,-97.5 3659.5,-97.5 3659.5,-67.5 3552.5,-67.5"/>
<text text-anchor="start" x="3560.5" y="-85.5" font-family="Helvetica,sans-Serif" font-size="10.00">src/libs/vgeometry</text>
<text text-anchor="middle" x="3606" y="-74.5" font-family="Helvetica,sans-Serif" font-size="10.00">/varc_p.h</text>
</a>
</g>
</g>
<!-- Node19&#45;&gt;Node34 -->
<g id="edge26" class="edge">
<title>Node19&#45;&gt;Node34</title>
<path fill="none" stroke="midnightblue" d="M3606,-135.24C3606,-123.41 3606,-108.38 3606,-97.58"/>
<polygon fill="midnightblue" stroke="midnightblue" points="3602.5,-135.36 3606,-145.36 3609.5,-135.36 3602.5,-135.36"/>
</g>
<!-- Node36 -->
<g id="node24" class="node">
<title>Node36</title>
<g id="a_node24"><a xlink:href="../../d5/d8e/vcubicbezier__p_8h.html" target="_top" xlink:title=" ">
<polygon fill="white" stroke="red" points="3677.5,-67.5 3677.5,-97.5 3784.5,-97.5 3784.5,-67.5 3677.5,-67.5"/>
<text text-anchor="start" x="3685.5" y="-85.5" font-family="Helvetica,sans-Serif" font-size="10.00">src/libs/vgeometry</text>
<text text-anchor="middle" x="3731" y="-74.5" font-family="Helvetica,sans-Serif" font-size="10.00">/vcubicbezier_p.h</text>
</a>
</g>
</g>
<!-- Node19&#45;&gt;Node36 -->
<g id="edge27" class="edge">
<title>Node19&#45;&gt;Node36</title>
<path fill="none" stroke="midnightblue" d="M3630.29,-140.3C3652.11,-127.99 3684.02,-110 3706.04,-97.58"/>
<polygon fill="midnightblue" stroke="midnightblue" points="3628.32,-137.39 3621.33,-145.36 3631.76,-143.49 3628.32,-137.39"/>
</g>
<!-- Node38 -->
<g id="node25" class="node">
<title>Node38</title>
<g id="a_node25"><a xlink:href="../../df/dde/vellipticalarc__p_8h.html" target="_top" xlink:title=" ">
<polygon fill="white" stroke="black" points="3802.5,-67.5 3802.5,-97.5 3909.5,-97.5 3909.5,-67.5 3802.5,-67.5"/>
<text text-anchor="start" x="3810.5" y="-85.5" font-family="Helvetica,sans-Serif" font-size="10.00">src/libs/vgeometry</text>
<text text-anchor="middle" x="3856" y="-74.5" font-family="Helvetica,sans-Serif" font-size="10.00">/vellipticalarc_p.h</text>
</a>
</g>
</g>
<!-- Node19&#45;&gt;Node38 -->
<g id="edge28" class="edge">
<title>Node19&#45;&gt;Node38</title>
<path fill="none" stroke="midnightblue" d="M3645.83,-142.77C3689.38,-130.49 3759.24,-110.79 3806.33,-97.51"/>
<polygon fill="midnightblue" stroke="midnightblue" points="3644.83,-139.41 3636.16,-145.5 3646.73,-146.15 3644.83,-139.41"/>
</g>
<!-- Node39 -->
<g id="node26" class="node">
<title>Node39</title>
<g id="a_node26"><a xlink:href="../../d6/dfb/vellipticalarc_8cpp.html" target="_top" xlink:title=" ">
<polygon fill="white" stroke="black" points="3843.5,-0.5 3843.5,-30.5 3950.5,-30.5 3950.5,-0.5 3843.5,-0.5"/>
<text text-anchor="start" x="3851.5" y="-18.5" font-family="Helvetica,sans-Serif" font-size="10.00">src/libs/vgeometry</text>
<text text-anchor="middle" x="3897" y="-7.5" font-family="Helvetica,sans-Serif" font-size="10.00">/vellipticalarc.cpp</text>
</a>
</g>
</g>
<!-- Node19&#45;&gt;Node39 -->
<g id="edge30" class="edge">
<title>Node19&#45;&gt;Node39</title>
<path fill="none" stroke="midnightblue" d="M3713.85,-149.03C3793.4,-142.83 3892.1,-128.97 3918,-98 3934.22,-78.61 3918.93,-48.21 3907.31,-30.53"/>
<polygon fill="midnightblue" stroke="midnightblue" points="3713.47,-145.55 3703.76,-149.78 3713.99,-152.53 3713.47,-145.55"/>
</g>
<!-- Node40 -->
<g id="node27" class="node">
<title>Node40</title>
<g id="a_node27"><a xlink:href="../../d1/d76/vspline__p_8h.html" target="_top" xlink:title=" ">
<polygon fill="white" stroke="red" points="3966.5,-67.5 3966.5,-97.5 4073.5,-97.5 4073.5,-67.5 3966.5,-67.5"/>
<text text-anchor="start" x="3974.5" y="-85.5" font-family="Helvetica,sans-Serif" font-size="10.00">src/libs/vgeometry</text>
<text text-anchor="middle" x="4020" y="-74.5" font-family="Helvetica,sans-Serif" font-size="10.00">/vspline_p.h</text>
</a>
</g>
</g>
<!-- Node19&#45;&gt;Node40 -->
<g id="edge31" class="edge">
<title>Node19&#45;&gt;Node40</title>
<path fill="none" stroke="midnightblue" d="M3674.32,-143.97C3744.24,-133.46 3855.94,-116 3952,-98 3956.63,-97.13 3961.42,-96.19 3966.23,-95.22"/>
<polygon fill="midnightblue" stroke="midnightblue" points="3673.68,-140.52 3664.31,-145.47 3674.72,-147.44 3673.68,-140.52"/>
</g>
<!-- Node42 -->
<g id="node28" class="node">
<title>Node42</title>
<g id="a_node28"><a xlink:href="../../d9/d15/vabstractpiece_8cpp.html" target="_top" xlink:title=" ">
<polygon fill="white" stroke="black" points="4092,-73 4092,-92 4278,-92 4278,-73 4092,-73"/>
<text text-anchor="middle" x="4185" y="-80" font-family="Helvetica,sans-Serif" font-size="10.00">src/libs/vlayout/vabstractpiece.cpp</text>
</a>
</g>
</g>
<!-- Node19&#45;&gt;Node42 -->
<g id="edge32" class="edge">
<title>Node19&#45;&gt;Node42</title>
<path fill="none" stroke="midnightblue" d="M3693.34,-144.33C3788.87,-133.61 3946.44,-115.51 4082,-98 4096.33,-96.15 4111.76,-94.04 4126.21,-92.01"/>
<polygon fill="midnightblue" stroke="midnightblue" points="3692.7,-140.88 3683.15,-145.47 3693.48,-147.83 3692.7,-140.88"/>
</g>
<!-- Node43 -->
<g id="node29" class="node">
<title>Node43</title>
<g id="a_node29"><a xlink:href="../../db/d65/dialogexporttocsv_8cpp.html" target="_top" xlink:title=" ">
<polygon fill="white" stroke="black" points="4296.5,-67.5 4296.5,-97.5 4423.5,-97.5 4423.5,-67.5 4296.5,-67.5"/>
<text text-anchor="start" x="4304.5" y="-85.5" font-family="Helvetica,sans-Serif" font-size="10.00">src/libs/vmisc/dialogs</text>
<text text-anchor="middle" x="4360" y="-74.5" font-family="Helvetica,sans-Serif" font-size="10.00">/dialogexporttocsv.cpp</text>
</a>
</g>
</g>
<!-- Node19&#45;&gt;Node43 -->
<g id="edge35" class="edge">
<title>Node19&#45;&gt;Node43</title>
<path fill="none" stroke="midnightblue" d="M3713.96,-148.93C3848.61,-141.73 4085.62,-126.19 4287,-98 4290.07,-97.57 4293.21,-97.09 4296.37,-96.58"/>
<polygon fill="midnightblue" stroke="midnightblue" points="3713.45,-145.45 3703.65,-149.48 3713.82,-152.44 3713.45,-145.45"/>
</g>
<!-- Node44 -->
<g id="node30" class="node">
<title>Node44</title>
<g id="a_node30"><a xlink:href="../../d6/d0b/def_8cpp.html" target="_top" xlink:title=" ">
<polygon fill="white" stroke="black" points="4442,-73 4442,-92 4564,-92 4564,-73 4442,-73"/>
<text text-anchor="middle" x="4503" y="-80" font-family="Helvetica,sans-Serif" font-size="10.00">src/libs/vmisc/def.cpp</text>
</a>
</g>
</g>
<!-- Node19&#45;&gt;Node44 -->
<g id="edge36" class="edge">
<title>Node19&#45;&gt;Node44</title>
<path fill="none" stroke="midnightblue" d="M3713.91,-151.29C3872.08,-146.27 4175.9,-132.67 4432,-98 4443.1,-96.5 4455.06,-94.29 4465.94,-92.04"/>
<polygon fill="midnightblue" stroke="midnightblue" points="3713.59,-147.79 3703.7,-151.6 3713.81,-154.79 3713.59,-147.79"/>
</g>
<!-- Node45 -->
<g id="node31" class="node">
<title>Node45</title>
<g id="a_node31"><a xlink:href="../../d0/df6/vabstractapplication_8cpp.html" target="_top" xlink:title=" ">
<polygon fill="white" stroke="black" points="4582,-73 4582,-92 4788,-92 4788,-73 4582,-73"/>
<text text-anchor="middle" x="4685" y="-80" font-family="Helvetica,sans-Serif" font-size="10.00">src/libs/vmisc/vabstractapplication.cpp</text>
</a>
</g>
</g>
<!-- Node19&#45;&gt;Node45 -->
<g id="edge37" class="edge">
<title>Node19&#45;&gt;Node45</title>
<path fill="none" stroke="midnightblue" d="M3713.82,-150.25C3892.65,-143.48 4261.76,-127.12 4573,-98 4589.98,-96.41 4608.36,-94.23 4625.22,-92.04"/>
<polygon fill="midnightblue" stroke="midnightblue" points="3713.49,-146.76 3703.62,-150.64 3713.75,-153.76 3713.49,-146.76"/>
</g>
<!-- Node46 -->
<g id="node32" class="node">
<title>Node46</title>
<g id="a_node32"><a xlink:href="../../d4/d4f/pmsystems_8cpp.html" target="_top" xlink:title=" ">
<polygon fill="white" stroke="black" points="4806.5,-67.5 4806.5,-97.5 4913.5,-97.5 4913.5,-67.5 4806.5,-67.5"/>
<text text-anchor="start" x="4814.5" y="-85.5" font-family="Helvetica,sans-Serif" font-size="10.00">src/libs/vpatterndb</text>
<text text-anchor="middle" x="4860" y="-74.5" font-family="Helvetica,sans-Serif" font-size="10.00">/pmsystems.cpp</text>
</a>
</g>
</g>
<!-- Node19&#45;&gt;Node46 -->
<g id="edge38" class="edge">
<title>Node19&#45;&gt;Node46</title>
<path fill="none" stroke="midnightblue" d="M3714.23,-151.4C3966.87,-144.91 4589.68,-126.5 4797,-98 4800,-97.59 4803.07,-97.1 4806.16,-96.56"/>
<polygon fill="midnightblue" stroke="midnightblue" points="3713.85,-147.9 3703.95,-151.66 3714.03,-154.9 3713.85,-147.9"/>
</g>
<!-- Node19&#45;&gt;Node47 -->
<g id="edge39" class="edge">
<title>Node19&#45;&gt;Node47</title>
<path fill="none" stroke="midnightblue" d="M3713.68,-152.43C4002.43,-147.8 4789.48,-132.33 5047,-98 5050,-97.6 5053.07,-97.12 5056.17,-96.59"/>
<polygon fill="midnightblue" stroke="midnightblue" points="3713.56,-148.93 3703.62,-152.59 3713.67,-155.93 3713.56,-148.93"/>
</g>
<!-- Node19&#45;&gt;Node48 -->
<g id="edge40" class="edge">
<title>Node19&#45;&gt;Node48</title>
<path fill="none" stroke="midnightblue" d="M3713.75,-152.82C4019.6,-149.04 4889.31,-135.24 5172,-98 5175,-97.6 5178.08,-97.13 5181.17,-96.6"/>
<polygon fill="midnightblue" stroke="midnightblue" points="3713.5,-149.32 3703.54,-152.94 3713.59,-156.32 3713.5,-149.32"/>
</g>
<!-- Node19&#45;&gt;Node49 -->
<g id="edge41" class="edge">
<title>Node19&#45;&gt;Node49</title>
<path fill="none" stroke="midnightblue" d="M3713.81,-153.15C4036.12,-150.18 4989.05,-138.15 5297,-98 5300,-97.61 5303.08,-97.14 5306.17,-96.61"/>
<polygon fill="midnightblue" stroke="midnightblue" points="3713.51,-149.65 3703.54,-153.24 3713.57,-156.65 3713.51,-149.65"/>
</g>
<!-- Node50 -->
<g id="node36" class="node">
<title>Node50</title>
<g id="a_node36"><a xlink:href="../../df/dba/vpiecenode__p_8h.html" target="_top" xlink:title=" ">
<polygon fill="white" stroke="black" points="4931.5,-67.5 4931.5,-97.5 5038.5,-97.5 5038.5,-67.5 4931.5,-67.5"/>
<text text-anchor="start" x="4939.5" y="-85.5" font-family="Helvetica,sans-Serif" font-size="10.00">src/libs/vpatterndb</text>
<text text-anchor="middle" x="4985" y="-74.5" font-family="Helvetica,sans-Serif" font-size="10.00">/vpiecenode_p.h</text>
</a>
</g>
</g>
<!-- Node19&#45;&gt;Node50 -->
<g id="edge42" class="edge">
<title>Node19&#45;&gt;Node50</title>
<path fill="none" stroke="midnightblue" d="M3713.78,-151.97C3984.79,-146.44 4689.59,-129.42 4922,-98 4925,-97.59 4928.07,-97.11 4931.16,-96.58"/>
<polygon fill="midnightblue" stroke="midnightblue" points="3713.46,-148.47 3703.54,-152.17 3713.61,-155.47 3713.46,-148.47"/>
</g>
<!-- Node52 -->
<g id="node38" class="node">
<title>Node52</title>
<g id="a_node38"><a xlink:href="../../de/d3e/vtranslatevars_8cpp.html" target="_top" xlink:title=" ">
<polygon fill="white" stroke="black" points="1858,-67.5 1858,-97.5 1968,-97.5 1968,-67.5 1858,-67.5"/>
<text text-anchor="start" x="1866" y="-85.5" font-family="Helvetica,sans-Serif" font-size="10.00">src/libs/vpatterndb</text>
<text text-anchor="middle" x="1913" y="-74.5" font-family="Helvetica,sans-Serif" font-size="10.00">/vtranslatevars.cpp</text>
</a>
</g>
</g>
<!-- Node19&#45;&gt;Node52 -->
<g id="edge44" class="edge">
<title>Node19&#45;&gt;Node52</title>
<path fill="none" stroke="midnightblue" d="M3498.15,-151.47C3158.83,-143.36 2126.73,-117.36 1977,-98 1974.06,-97.62 1971.06,-97.17 1968.04,-96.66"/>
<polygon fill="midnightblue" stroke="midnightblue" points="3498.14,-154.97 3508.23,-151.71 3498.31,-147.98 3498.14,-154.97"/>
</g>
<!-- Node25 -->
<g id="node39" class="node">
<title>Node25</title>
<g id="a_node39"><a xlink:href="../../df/d40/export__format__combobox_8cpp.html" target="_top" xlink:title=" ">
<polygon fill="white" stroke="black" points="1986.5,-67.5 1986.5,-97.5 2119.5,-97.5 2119.5,-67.5 1986.5,-67.5"/>
<text text-anchor="start" x="1994.5" y="-85.5" font-family="Helvetica,sans-Serif" font-size="10.00">src/libs/vwidgets/export</text>
<text text-anchor="middle" x="2053" y="-74.5" font-family="Helvetica,sans-Serif" font-size="10.00">_format_combobox.cpp</text>
</a>
</g>
</g>
<!-- Node19&#45;&gt;Node25 -->
<g id="edge45" class="edge">
<title>Node19&#45;&gt;Node25</title>
<path fill="none" stroke="midnightblue" d="M3498.06,-152.02C3204.23,-146.29 2394.28,-128.16 2129,-98 2125.93,-97.65 2122.8,-97.25 2119.64,-96.8"/>
<polygon fill="midnightblue" stroke="midnightblue" points="3498.23,-155.52 3508.3,-152.22 3498.37,-148.52 3498.23,-155.52"/>
</g>
<!-- Node53 -->
<g id="node40" class="node">
<title>Node53</title>
<g id="a_node40"><a xlink:href="../../d3/d4f/mouse__coordinates_8cpp.html" target="_top" xlink:title=" ">
<polygon fill="white" stroke="black" points="2138,-67.5 2138,-97.5 2272,-97.5 2272,-67.5 2138,-67.5"/>
<text text-anchor="start" x="2146" y="-85.5" font-family="Helvetica,sans-Serif" font-size="10.00">src/libs/vwidgets/mouse</text>
<text text-anchor="middle" x="2205" y="-74.5" font-family="Helvetica,sans-Serif" font-size="10.00">_coordinates.cpp</text>
</a>
</g>
</g>
<!-- Node19&#45;&gt;Node53 -->
<g id="edge46" class="edge">
<title>Node19&#45;&gt;Node53</title>
<path fill="none" stroke="midnightblue" d="M3498.16,-154.77C3271.81,-155.22 2730.93,-150.15 2281,-98 2278.06,-97.66 2275.07,-97.27 2272.05,-96.84"/>
<polygon fill="midnightblue" stroke="midnightblue" points="3498.38,-158.27 3508.37,-154.75 3498.36,-151.27 3498.38,-158.27"/>
</g>
<!-- Node28 -->
<g id="node41" class="node">
<title>Node28</title>
<g id="a_node41"><a xlink:href="../../d2/d28/page__format__combobox_8cpp.html" target="_top" xlink:title=" ">
<polygon fill="white" stroke="black" points="2290.5,-67.5 2290.5,-97.5 2421.5,-97.5 2421.5,-67.5 2290.5,-67.5"/>
<text text-anchor="start" x="2298.5" y="-85.5" font-family="Helvetica,sans-Serif" font-size="10.00">src/libs/vwidgets/page</text>
<text text-anchor="middle" x="2356" y="-74.5" font-family="Helvetica,sans-Serif" font-size="10.00">_format_combobox.cpp</text>
</a>
</g>
</g>
<!-- Node19&#45;&gt;Node28 -->
<g id="edge47" class="edge">
<title>Node19&#45;&gt;Node28</title>
<path fill="none" stroke="midnightblue" d="M3497.83,-154.01C3290.22,-152.9 2821.84,-144.85 2431,-98 2427.97,-97.64 2424.88,-97.22 2421.77,-96.77"/>
<polygon fill="midnightblue" stroke="midnightblue" points="3498.1,-157.51 3508.12,-154.06 3498.13,-150.51 3498.1,-157.51"/>
</g>
<!-- Node54 -->
<g id="node42" class="node">
<title>Node54</title>
<g id="a_node42"><a xlink:href="../../d8/d76/scene__rect_8cpp.html" target="_top" xlink:title=" ">
<polygon fill="white" stroke="black" points="2440,-67.5 2440,-97.5 2570,-97.5 2570,-67.5 2440,-67.5"/>
<text text-anchor="start" x="2448" y="-85.5" font-family="Helvetica,sans-Serif" font-size="10.00">src/libs/vwidgets/scene</text>
<text text-anchor="middle" x="2505" y="-74.5" font-family="Helvetica,sans-Serif" font-size="10.00">_rect.cpp</text>
</a>
</g>
</g>
<!-- Node19&#45;&gt;Node54 -->
<g id="edge48" class="edge">
<title>Node19&#45;&gt;Node54</title>
<path fill="none" stroke="midnightblue" d="M3498.11,-153.04C3310.53,-150.27 2912.41,-139.55 2579,-98 2576.14,-97.64 2573.23,-97.24 2570.29,-96.8"/>
<polygon fill="midnightblue" stroke="midnightblue" points="3498.2,-156.54 3508.25,-153.18 3498.3,-149.54 3498.2,-156.54"/>
</g>
<!-- Node55 -->
<g id="node43" class="node">
<title>Node55</title>
<g id="a_node43"><a xlink:href="../../d7/d1b/pen__toolbar_8cpp.html" target="_top" xlink:title=" ">
<polygon fill="white" stroke="black" points="2588.5,-67.5 2588.5,-97.5 2707.5,-97.5 2707.5,-67.5 2588.5,-67.5"/>
<text text-anchor="start" x="2596.5" y="-85.5" font-family="Helvetica,sans-Serif" font-size="10.00">src/libs/vwidgets/pen</text>
<text text-anchor="middle" x="2648" y="-74.5" font-family="Helvetica,sans-Serif" font-size="10.00">_toolbar.cpp</text>
</a>
</g>
</g>
<!-- Node19&#45;&gt;Node55 -->
<g id="edge49" class="edge">
<title>Node19&#45;&gt;Node55</title>
<path fill="none" stroke="midnightblue" d="M3498.33,-152.33C3330.46,-148.58 2996.52,-136.52 2716,-98 2713.25,-97.62 2710.44,-97.2 2707.62,-96.73"/>
<polygon fill="midnightblue" stroke="midnightblue" points="3498.33,-155.83 3508.41,-152.55 3498.49,-148.83 3498.33,-155.83"/>
</g>
<!-- Node56 -->
<g id="node44" class="node">
<title>Node56</title>
<g id="a_node44"><a xlink:href="../../dd/df6/vabstractmainwindow_8cpp.html" target="_top" xlink:title=" ">
<polygon fill="white" stroke="black" points="2725.5,-73 2725.5,-92 2954.5,-92 2954.5,-73 2725.5,-73"/>
<text text-anchor="middle" x="2840" y="-80" font-family="Helvetica,sans-Serif" font-size="10.00">src/libs/vwidgets/vabstractmainwindow.cpp</text>
</a>
</g>
</g>
<!-- Node19&#45;&gt;Node56 -->
<g id="edge50" class="edge">
<title>Node19&#45;&gt;Node56</title>
<path fill="none" stroke="midnightblue" d="M3498.24,-145.62C3370.44,-135.46 3151.03,-117.27 2963,-98 2945.57,-96.21 2926.77,-94.1 2909.24,-92.04"/>
<polygon fill="midnightblue" stroke="midnightblue" points="3498.17,-149.13 3508.42,-146.43 3498.73,-142.15 3498.17,-149.13"/>
</g>
<!-- Node38&#45;&gt;Node39 -->
<g id="edge29" class="edge">
<title>Node38&#45;&gt;Node39</title>
<path fill="none" stroke="midnightblue" d="M3870.28,-58.87C3876.21,-49.46 3882.91,-38.83 3888.12,-30.58"/>
<polygon fill="midnightblue" stroke="midnightblue" points="3867.27,-57.07 3864.9,-67.4 3873.19,-60.81 3867.27,-57.07"/>
</g>
<!-- Node50&#45;&gt;Node51 -->
<g id="edge43" class="edge">
<title>Node50&#45;&gt;Node51</title>
<path fill="none" stroke="midnightblue" d="M5043.88,-64.71C5080.98,-54.14 5128.34,-40.63 5163.5,-30.61"/>
<polygon fill="midnightblue" stroke="midnightblue" points="5042.85,-61.37 5034.19,-67.48 5044.77,-68.1 5042.85,-61.37"/>
</g>
</g>
</svg>
