<?xml version="1.0" encoding="UTF-8" standalone="no"?>
<!DOCTYPE svg PUBLIC "-//W3C//DTD SVG 1.1//EN"
 "http://www.w3.org/Graphics/SVG/1.1/DTD/svg11.dtd">
<!-- Generated by graphviz version 2.43.0 (0)
 -->
<!-- Title: src/libs/ifc/xml/vabstractpattern.h Pages: 1 -->
<!--zoomable 319 -->
<svg id="main" version="1.1" xmlns="http://www.w3.org/2000/svg" xmlns:xlink="http://www.w3.org/1999/xlink" xml:space="preserve" onload="init(evt)">
<style type="text/css"><![CDATA[
.edge:hover path { stroke: red; }
.edge:hover polygon { stroke: red; fill: red; }
]]></style>
<script type="text/javascript"><![CDATA[
var edges = document.getElementsByTagName('g');
if (edges && edges.length) {
  for (var i=0;i<edges.length;i++) {
    if (edges[i].id.substr(0,4)=='edge') {
      edges[i].setAttribute('class','edge');
    }
  }
}
]]></script>
        <defs>
                <circle id="rim" cx="0" cy="0" r="7"/>
                <circle id="rim2" cx="0" cy="0" r="3.5"/>
                <g id="zoomPlus">
                        <use xlink:href="#rim" fill="#404040">
                                <set attributeName="fill" to="#808080" begin="zoomplus.mouseover" end="zoomplus.mouseout"/>
                        </use>
                        <path d="M-4,0h8M0,-4v8" fill="none" stroke="white" stroke-width="1.5" pointer-events="none"/>
                </g>
                <g id="zoomMin">
                        <use xlink:href="#rim" fill="#404040">
                                <set attributeName="fill" to="#808080" begin="zoomminus.mouseover" end="zoomminus.mouseout"/>
                        </use>
                        <path d="M-4,0h8" fill="none" stroke="white" stroke-width="1.5" pointer-events="none"/>
                </g>
                <g id="dirArrow">
                        <path fill="none" stroke="white" stroke-width="1.5" d="M0,-3.0v7 M-2.5,-0.5L0,-3.0L2.5,-0.5"/>
                </g>
               <g id="resetDef">
                       <use xlink:href="#rim2" fill="#404040">
                               <set attributeName="fill" to="#808080" begin="reset.mouseover" end="reset.mouseout"/>
                       </use>
               </g>
        </defs>

<script type="text/javascript">
var viewWidth = 2863;
var viewHeight = 319;
var sectionId = 'dynsection-0';
</script>
<script xlink:href="../../svgpan.js"/>
<svg id="graph" class="graph">
<g id="viewport">
<title>src/libs/ifc/xml/vabstractpattern.h</title>
<polygon fill="white" stroke="transparent" points="-4,4 -4,-315 2859.04,-315 2859.04,4 -4,4"/>
<!-- Node1 -->
<g id="node1" class="node">
<title>Node1</title>
<g id="a_node1"><a xlink:title=" ">
<polygon fill="#bfbfbf" stroke="black" points="1279.5,-291.5 1279.5,-310.5 1460.5,-310.5 1460.5,-291.5 1279.5,-291.5"/>
<text text-anchor="middle" x="1370" y="-298.5" font-family="Helvetica,sans-Serif" font-size="10.00">src/libs/ifc/xml/vabstractpattern.h</text>
</a>
</g>
</g>
<!-- Node2 -->
<g id="node2" class="node">
<title>Node2</title>
<g id="a_node2"><a xlink:title=" ">
<polygon fill="white" stroke="#bfbfbf" points="0,-56.5 0,-75.5 120,-75.5 120,-56.5 0,-56.5"/>
<text text-anchor="middle" x="60" y="-63.5" font-family="Helvetica,sans-Serif" font-size="10.00">qcompilerdetection.h</text>
</a>
</g>
</g>
<!-- Node1&#45;&gt;Node2 -->
<g id="edge1" class="edge">
<title>Node1&#45;&gt;Node2</title>
<path fill="none" stroke="midnightblue" d="M1279.17,-297.38C1047.86,-289.82 441.46,-264.21 252,-199 178.27,-173.62 106.71,-111.62 75.86,-82.53"/>
<polygon fill="midnightblue" stroke="midnightblue" points="78.23,-79.96 68.59,-75.58 73.39,-85.02 78.23,-79.96"/>
</g>
<!-- Node3 -->
<g id="node3" class="node">
<title>Node3</title>
<g id="a_node3"><a xlink:title=" ">
<polygon fill="white" stroke="#bfbfbf" points="1429.5,-174 1429.5,-193 1478.5,-193 1478.5,-174 1429.5,-174"/>
<text text-anchor="middle" x="1454" y="-181" font-family="Helvetica,sans-Serif" font-size="10.00">QHash</text>
</a>
</g>
</g>
<!-- Node1&#45;&gt;Node3 -->
<g id="edge2" class="edge">
<title>Node1&#45;&gt;Node3</title>
<path fill="none" stroke="midnightblue" d="M1376.31,-291.32C1390.18,-272.26 1423.49,-226.45 1441.67,-201.46"/>
<polygon fill="midnightblue" stroke="midnightblue" points="1444.56,-203.43 1447.61,-193.28 1438.9,-199.31 1444.56,-203.43"/>
</g>
<!-- Node4 -->
<g id="node4" class="node">
<title>Node4</title>
<g id="a_node4"><a xlink:title=" ">
<polygon fill="white" stroke="#bfbfbf" points="2103.5,-235.5 2103.5,-254.5 2148.5,-254.5 2148.5,-235.5 2103.5,-235.5"/>
<text text-anchor="middle" x="2126" y="-242.5" font-family="Helvetica,sans-Serif" font-size="10.00">QMap</text>
</a>
</g>
</g>
<!-- Node1&#45;&gt;Node4 -->
<g id="edge3" class="edge">
<title>Node1&#45;&gt;Node4</title>
<path fill="none" stroke="midnightblue" d="M1460.78,-299.43C1597.7,-297.41 1864.87,-289 2089,-255 2090.47,-254.78 2091.97,-254.52 2093.48,-254.25"/>
<polygon fill="midnightblue" stroke="midnightblue" points="2094.36,-257.64 2103.43,-252.16 2092.92,-250.79 2094.36,-257.64"/>
</g>
<!-- Node5 -->
<g id="node5" class="node">
<title>Node5</title>
<g id="a_node5"><a xlink:title=" ">
<polygon fill="white" stroke="#bfbfbf" points="1041,-112.5 1041,-131.5 1121,-131.5 1121,-112.5 1041,-112.5"/>
<text text-anchor="middle" x="1081" y="-119.5" font-family="Helvetica,sans-Serif" font-size="10.00">QMetaObject</text>
</a>
</g>
</g>
<!-- Node1&#45;&gt;Node5 -->
<g id="edge4" class="edge">
<title>Node1&#45;&gt;Node5</title>
<path fill="none" stroke="midnightblue" d="M1279.11,-293.34C1243.64,-287.29 1204.12,-275.99 1173,-255 1130.1,-226.07 1101.11,-169.89 1088.37,-141.04"/>
<polygon fill="midnightblue" stroke="midnightblue" points="1091.55,-139.58 1084.41,-131.76 1085.11,-142.33 1091.55,-139.58"/>
</g>
<!-- Node6 -->
<g id="node6" class="node">
<title>Node6</title>
<g id="a_node6"><a xlink:title=" ">
<polygon fill="white" stroke="#bfbfbf" points="2167,-235.5 2167,-254.5 2223,-254.5 2223,-235.5 2167,-235.5"/>
<text text-anchor="middle" x="2195" y="-242.5" font-family="Helvetica,sans-Serif" font-size="10.00">QObject</text>
</a>
</g>
</g>
<!-- Node1&#45;&gt;Node6 -->
<g id="edge5" class="edge">
<title>Node1&#45;&gt;Node6</title>
<path fill="none" stroke="midnightblue" d="M1460.66,-300.15C1605.94,-299.21 1899.85,-292.49 2156.92,-254.88"/>
<polygon fill="midnightblue" stroke="midnightblue" points="2157.44,-258.34 2166.82,-253.41 2156.42,-251.42 2157.44,-258.34"/>
</g>
<!-- Node7 -->
<g id="node7" class="node">
<title>Node7</title>
<g id="a_node7"><a xlink:title=" ">
<polygon fill="white" stroke="#bfbfbf" points="2241,-235.5 2241,-254.5 2283,-254.5 2283,-235.5 2241,-235.5"/>
<text text-anchor="middle" x="2262" y="-242.5" font-family="Helvetica,sans-Serif" font-size="10.00">QPair</text>
</a>
</g>
</g>
<!-- Node1&#45;&gt;Node7 -->
<g id="edge6" class="edge">
<title>Node1&#45;&gt;Node7</title>
<path fill="none" stroke="midnightblue" d="M1460.54,-298.01C1646.76,-293.49 2068.17,-280.88 2230.96,-254.69"/>
<polygon fill="midnightblue" stroke="midnightblue" points="2231.56,-258.14 2240.85,-253.03 2230.4,-251.24 2231.56,-258.14"/>
</g>
<!-- Node8 -->
<g id="node8" class="node">
<title>Node8</title>
<g id="a_node8"><a xlink:title=" ">
<polygon fill="white" stroke="#bfbfbf" points="1198.5,-56.5 1198.5,-75.5 1251.5,-75.5 1251.5,-56.5 1198.5,-56.5"/>
<text text-anchor="middle" x="1225" y="-63.5" font-family="Helvetica,sans-Serif" font-size="10.00">QString</text>
</a>
</g>
</g>
<!-- Node1&#45;&gt;Node8 -->
<g id="edge7" class="edge">
<title>Node1&#45;&gt;Node8</title>
<path fill="none" stroke="midnightblue" d="M1314.25,-291.42C1291.62,-285.09 1267.27,-274.09 1252,-255 1212.05,-205.04 1217.14,-122.83 1221.95,-85.95"/>
<polygon fill="midnightblue" stroke="midnightblue" points="1225.47,-86.06 1223.45,-75.66 1218.55,-85.05 1225.47,-86.06"/>
</g>
<!-- Node9 -->
<g id="node9" class="node">
<title>Node9</title>
<g id="a_node9"><a xlink:title=" ">
<polygon fill="white" stroke="#bfbfbf" points="890,-56.5 890,-75.5 960,-75.5 960,-56.5 890,-56.5"/>
<text text-anchor="middle" x="925" y="-63.5" font-family="Helvetica,sans-Serif" font-size="10.00">QStringList</text>
</a>
</g>
</g>
<!-- Node1&#45;&gt;Node9 -->
<g id="edge8" class="edge">
<title>Node1&#45;&gt;Node9</title>
<path fill="none" stroke="midnightblue" d="M1321.67,-291.47C1294.31,-284.87 1260.56,-273.62 1235,-255 1171.27,-208.57 1196.09,-155 1130,-112 1081.51,-80.45 1014.31,-70.73 970.26,-67.89"/>
<polygon fill="midnightblue" stroke="midnightblue" points="970.32,-64.39 960.14,-67.33 969.93,-71.38 970.32,-64.39"/>
</g>
<!-- Node10 -->
<g id="node10" class="node">
<title>Node10</title>
<g id="a_node10"><a xlink:title=" ">
<polygon fill="white" stroke="#bfbfbf" points="967.5,-112.5 967.5,-131.5 1022.5,-131.5 1022.5,-112.5 967.5,-112.5"/>
<text text-anchor="middle" x="995" y="-119.5" font-family="Helvetica,sans-Serif" font-size="10.00">QVector</text>
</a>
</g>
</g>
<!-- Node1&#45;&gt;Node10 -->
<g id="edge9" class="edge">
<title>Node1&#45;&gt;Node10</title>
<path fill="none" stroke="midnightblue" d="M1279.43,-292.81C1236.93,-286.75 1186.59,-275.58 1145,-255 1086.39,-226 1032.77,-168.14 1008.56,-139.64"/>
<polygon fill="midnightblue" stroke="midnightblue" points="1011.12,-137.24 1002.02,-131.81 1005.74,-141.73 1011.12,-137.24"/>
</g>
<!-- Node11 -->
<g id="node11" class="node">
<title>Node11</title>
<g id="a_node11"><a xlink:title=" ">
<polygon fill="white" stroke="#bfbfbf" points="1856.5,-56.5 1856.5,-75.5 1915.5,-75.5 1915.5,-56.5 1856.5,-56.5"/>
<text text-anchor="middle" x="1886" y="-63.5" font-family="Helvetica,sans-Serif" font-size="10.00">QtGlobal</text>
</a>
</g>
</g>
<!-- Node1&#45;&gt;Node11 -->
<g id="edge10" class="edge">
<title>Node1&#45;&gt;Node11</title>
<path fill="none" stroke="midnightblue" d="M1460.54,-298.61C1620.49,-295.4 1946.5,-285.27 2056,-255 2074.78,-249.81 2076.18,-240.02 2095,-235 2175.93,-213.4 2790.2,-259.63 2848,-199 2857.51,-189.03 2857.22,-178.24 2848,-168 2785.26,-98.33 2099.89,-73.35 1925.95,-68.11"/>
<polygon fill="midnightblue" stroke="midnightblue" points="1925.81,-64.61 1915.71,-67.81 1925.6,-71.6 1925.81,-64.61"/>
</g>
<!-- Node12 -->
<g id="node12" class="node">
<title>Node12</title>
<g id="a_node12"><a xlink:href="../../d8/da5/vdomdocument_8h.html" target="_top" xlink:title=" ">
<polygon fill="white" stroke="black" points="1945,-235.5 1945,-254.5 2047,-254.5 2047,-235.5 1945,-235.5"/>
<text text-anchor="middle" x="1996" y="-242.5" font-family="Helvetica,sans-Serif" font-size="10.00">vdomdocument.h</text>
</a>
</g>
</g>
<!-- Node1&#45;&gt;Node12 -->
<g id="edge11" class="edge">
<title>Node1&#45;&gt;Node12</title>
<path fill="none" stroke="midnightblue" d="M1460.69,-292.18C1589.99,-281.02 1823.9,-260.85 1934.67,-251.29"/>
<polygon fill="midnightblue" stroke="midnightblue" points="1935.01,-254.77 1944.68,-250.43 1934.41,-247.8 1935.01,-254.77"/>
</g>
<!-- Node23 -->
<g id="node23" class="node">
<title>Node23</title>
<g id="a_node23"><a xlink:title=" ">
<polygon fill="white" stroke="#bfbfbf" points="1329,-174 1329,-193 1411,-193 1411,-174 1329,-174"/>
<text text-anchor="middle" x="1370" y="-181" font-family="Helvetica,sans-Serif" font-size="10.00">../vmisc/def.h</text>
</a>
</g>
</g>
<!-- Node1&#45;&gt;Node23 -->
<g id="edge32" class="edge">
<title>Node1&#45;&gt;Node23</title>
<path fill="none" stroke="midnightblue" d="M1370,-291.32C1370,-272.76 1370,-228.84 1370,-203.47"/>
<polygon fill="midnightblue" stroke="midnightblue" points="1373.5,-203.28 1370,-193.28 1366.5,-203.28 1373.5,-203.28"/>
</g>
<!-- Node26 -->
<g id="node26" class="node">
<title>Node26</title>
<g id="a_node26"><a xlink:href="../../d9/d47/vtoolrecord_8h.html" target="_top" xlink:title=" ">
<polygon fill="white" stroke="black" points="1260.5,-235.5 1260.5,-254.5 1341.5,-254.5 1341.5,-235.5 1260.5,-235.5"/>
<text text-anchor="middle" x="1301" y="-242.5" font-family="Helvetica,sans-Serif" font-size="10.00">vtoolrecord.h</text>
</a>
</g>
</g>
<!-- Node1&#45;&gt;Node26 -->
<g id="edge28" class="edge">
<title>Node1&#45;&gt;Node26</title>
<path fill="none" stroke="midnightblue" d="M1358.91,-291.32C1348.51,-283.18 1332.74,-270.84 1320.28,-261.09"/>
<polygon fill="midnightblue" stroke="midnightblue" points="1322.32,-258.24 1312.29,-254.83 1318.01,-263.75 1322.32,-258.24"/>
</g>
<!-- Node27 -->
<g id="node27" class="node">
<title>Node27</title>
<g id="a_node27"><a xlink:title=" ">
<polygon fill="white" stroke="#bfbfbf" points="2301.5,-235.5 2301.5,-254.5 2440.5,-254.5 2440.5,-235.5 2301.5,-235.5"/>
<text text-anchor="middle" x="2371" y="-242.5" font-family="Helvetica,sans-Serif" font-size="10.00">../vwidgets/pen_toolbar.h</text>
</a>
</g>
</g>
<!-- Node1&#45;&gt;Node27 -->
<g id="edge33" class="edge">
<title>Node1&#45;&gt;Node27</title>
<path fill="none" stroke="midnightblue" d="M1460.75,-297.52C1624.43,-292.61 1980.16,-279.99 2291.12,-255.01"/>
<polygon fill="midnightblue" stroke="midnightblue" points="2291.55,-258.49 2301.24,-254.2 2290.99,-251.51 2291.55,-258.49"/>
</g>
<!-- Node28 -->
<g id="node28" class="node">
<title>Node28</title>
<g id="a_node28"><a xlink:href="../../d1/d8d/image__item_8h.html" target="_top" xlink:title=" ">
<polygon fill="white" stroke="black" points="671.5,-235.5 671.5,-254.5 800.5,-254.5 800.5,-235.5 671.5,-235.5"/>
<text text-anchor="middle" x="736" y="-242.5" font-family="Helvetica,sans-Serif" font-size="10.00">../../tools/image_item.h</text>
</a>
</g>
</g>
<!-- Node1&#45;&gt;Node28 -->
<g id="edge34" class="edge">
<title>Node1&#45;&gt;Node28</title>
<path fill="none" stroke="midnightblue" d="M1279.16,-292.26C1153.2,-281.53 927.82,-262.34 810.93,-252.38"/>
<polygon fill="midnightblue" stroke="midnightblue" points="810.9,-248.87 800.64,-251.51 810.31,-255.84 810.9,-248.87"/>
</g>
<!-- Node12&#45;&gt;Node3 -->
<g id="edge16" class="edge">
<title>Node12&#45;&gt;Node3</title>
<path fill="none" stroke="midnightblue" d="M1944.98,-243.9C1853.33,-242.73 1655.26,-235.73 1493,-199 1489.93,-198.3 1486.77,-197.43 1483.65,-196.45"/>
<polygon fill="midnightblue" stroke="midnightblue" points="1484.52,-193.05 1473.93,-193.07 1482.23,-199.66 1484.52,-193.05"/>
</g>
<!-- Node12&#45;&gt;Node8 -->
<g id="edge19" class="edge">
<title>Node12&#45;&gt;Node8</title>
<path fill="none" stroke="midnightblue" d="M1944.65,-242.74C1839.17,-239.55 1601.71,-229.16 1527,-199 1506.47,-190.71 1507.22,-178.99 1488,-168 1411.96,-124.55 1313.62,-92.47 1261.38,-77.11"/>
<polygon fill="midnightblue" stroke="midnightblue" points="1262.15,-73.69 1251.57,-74.26 1260.2,-80.41 1262.15,-73.69"/>
</g>
<!-- Node12&#45;&gt;Node11 -->
<g id="edge22" class="edge">
<title>Node12&#45;&gt;Node11</title>
<path fill="none" stroke="midnightblue" d="M2047.1,-236.91C2136.02,-224.55 2309.92,-200.24 2311,-199 2320.03,-188.59 2319.54,-178.81 2311,-168 2263.07,-107.35 2021.97,-79.25 1925.75,-70.31"/>
<polygon fill="midnightblue" stroke="midnightblue" points="1925.83,-66.81 1915.55,-69.39 1925.2,-73.78 1925.83,-66.81"/>
</g>
<!-- Node13 -->
<g id="node13" class="node">
<title>Node13</title>
<g id="a_node13"><a xlink:title=" ">
<polygon fill="white" stroke="#bfbfbf" points="1886.5,-174 1886.5,-193 1987.5,-193 1987.5,-174 1886.5,-174"/>
<text text-anchor="middle" x="1937" y="-181" font-family="Helvetica,sans-Serif" font-size="10.00">QCoreApplication</text>
</a>
</g>
</g>
<!-- Node12&#45;&gt;Node13 -->
<g id="edge12" class="edge">
<title>Node12&#45;&gt;Node13</title>
<path fill="none" stroke="midnightblue" d="M1987.55,-235.48C1978.43,-226.28 1963.73,-211.46 1952.52,-200.16"/>
<polygon fill="midnightblue" stroke="midnightblue" points="1954.96,-197.65 1945.44,-193.01 1949.99,-202.57 1954.96,-197.65"/>
</g>
<!-- Node14 -->
<g id="node14" class="node">
<title>Node14</title>
<g id="a_node14"><a xlink:title=" ">
<polygon fill="white" stroke="#bfbfbf" points="2006,-174 2006,-193 2104,-193 2104,-174 2006,-174"/>
<text text-anchor="middle" x="2055" y="-181" font-family="Helvetica,sans-Serif" font-size="10.00">QDomDocument</text>
</a>
</g>
</g>
<!-- Node12&#45;&gt;Node14 -->
<g id="edge13" class="edge">
<title>Node12&#45;&gt;Node14</title>
<path fill="none" stroke="midnightblue" d="M2004.45,-235.48C2013.57,-226.28 2028.27,-211.46 2039.48,-200.16"/>
<polygon fill="midnightblue" stroke="midnightblue" points="2042.01,-202.57 2046.56,-193.01 2037.04,-197.65 2042.01,-202.57"/>
</g>
<!-- Node15 -->
<g id="node15" class="node">
<title>Node15</title>
<g id="a_node15"><a xlink:title=" ">
<polygon fill="white" stroke="#bfbfbf" points="2122,-174 2122,-193 2210,-193 2210,-174 2122,-174"/>
<text text-anchor="middle" x="2166" y="-181" font-family="Helvetica,sans-Serif" font-size="10.00">QDomElement</text>
</a>
</g>
</g>
<!-- Node12&#45;&gt;Node15 -->
<g id="edge14" class="edge">
<title>Node12&#45;&gt;Node15</title>
<path fill="none" stroke="midnightblue" d="M2020.36,-235.48C2049.64,-225.22 2098.97,-207.96 2132,-196.4"/>
<polygon fill="midnightblue" stroke="midnightblue" points="2133.41,-199.62 2141.69,-193.01 2131.09,-193.01 2133.41,-199.62"/>
</g>
<!-- Node16 -->
<g id="node16" class="node">
<title>Node16</title>
<g id="a_node16"><a xlink:title=" ">
<polygon fill="white" stroke="#bfbfbf" points="2228.5,-174 2228.5,-193 2301.5,-193 2301.5,-174 2228.5,-174"/>
<text text-anchor="middle" x="2265" y="-181" font-family="Helvetica,sans-Serif" font-size="10.00">QDomNode</text>
</a>
</g>
</g>
<!-- Node12&#45;&gt;Node16 -->
<g id="edge15" class="edge">
<title>Node12&#45;&gt;Node16</title>
<path fill="none" stroke="midnightblue" d="M2045.94,-235.49C2091.37,-227.38 2160.1,-214.18 2219,-199 2222.43,-198.12 2225.98,-197.13 2229.52,-196.1"/>
<polygon fill="midnightblue" stroke="midnightblue" points="2230.8,-199.37 2239.35,-193.11 2228.76,-192.67 2230.8,-199.37"/>
</g>
<!-- Node17 -->
<g id="node17" class="node">
<title>Node17</title>
<g id="a_node17"><a xlink:title=" ">
<polygon fill="white" stroke="#bfbfbf" points="2358.5,-174 2358.5,-193 2441.5,-193 2441.5,-174 2358.5,-174"/>
<text text-anchor="middle" x="2400" y="-181" font-family="Helvetica,sans-Serif" font-size="10.00">QLatin1String</text>
</a>
</g>
</g>
<!-- Node12&#45;&gt;Node17 -->
<g id="edge17" class="edge">
<title>Node12&#45;&gt;Node17</title>
<path fill="none" stroke="midnightblue" d="M2047.09,-236.87C2051.79,-236.23 2056.48,-235.6 2061,-235 2186.69,-218.3 2219.49,-222.94 2344,-199 2349.17,-198.01 2354.57,-196.81 2359.89,-195.54"/>
<polygon fill="midnightblue" stroke="midnightblue" points="2361.08,-198.85 2369.93,-193.03 2359.38,-192.06 2361.08,-198.85"/>
</g>
<!-- Node18 -->
<g id="node18" class="node">
<title>Node18</title>
<g id="a_node18"><a xlink:title=" ">
<polygon fill="white" stroke="#bfbfbf" points="2460,-174 2460,-193 2564,-193 2564,-174 2460,-174"/>
<text text-anchor="middle" x="2512" y="-181" font-family="Helvetica,sans-Serif" font-size="10.00">QStaticStringData</text>
</a>
</g>
</g>
<!-- Node12&#45;&gt;Node18 -->
<g id="edge18" class="edge">
<title>Node12&#45;&gt;Node18</title>
<path fill="none" stroke="midnightblue" d="M2047.07,-236.71C2051.77,-236.1 2056.47,-235.52 2061,-235 2233.92,-215.06 2279.23,-227.2 2451,-199 2457.2,-197.98 2463.71,-196.68 2470.07,-195.29"/>
<polygon fill="midnightblue" stroke="midnightblue" points="2470.92,-198.68 2479.88,-193.03 2469.35,-191.86 2470.92,-198.68"/>
</g>
<!-- Node19 -->
<g id="node19" class="node">
<title>Node19</title>
<g id="a_node19"><a xlink:title=" ">
<polygon fill="white" stroke="#bfbfbf" points="2582,-174 2582,-193 2658,-193 2658,-174 2582,-174"/>
<text text-anchor="middle" x="2620" y="-181" font-family="Helvetica,sans-Serif" font-size="10.00">QStringData</text>
</a>
</g>
</g>
<!-- Node12&#45;&gt;Node19 -->
<g id="edge20" class="edge">
<title>Node12&#45;&gt;Node19</title>
<path fill="none" stroke="midnightblue" d="M2047.06,-236.6C2051.76,-236.02 2056.47,-235.47 2061,-235 2287.89,-211.34 2348.76,-240.9 2573,-199 2577.25,-198.21 2581.66,-197.16 2585.99,-195.99"/>
<polygon fill="midnightblue" stroke="midnightblue" points="2587.26,-199.27 2595.87,-193.1 2585.29,-192.55 2587.26,-199.27"/>
</g>
<!-- Node20 -->
<g id="node20" class="node">
<title>Node20</title>
<g id="a_node20"><a xlink:title=" ">
<polygon fill="white" stroke="#bfbfbf" points="2676.5,-174 2676.5,-193 2765.5,-193 2765.5,-174 2676.5,-174"/>
<text text-anchor="middle" x="2721" y="-181" font-family="Helvetica,sans-Serif" font-size="10.00">QStringDataPtr</text>
</a>
</g>
</g>
<!-- Node12&#45;&gt;Node20 -->
<g id="edge21" class="edge">
<title>Node12&#45;&gt;Node20</title>
<path fill="none" stroke="midnightblue" d="M2047.05,-236.55C2051.76,-235.98 2056.47,-235.45 2061,-235 2329.5,-208.48 2400.67,-242.21 2667,-199 2672.45,-198.12 2678.14,-196.91 2683.7,-195.57"/>
<polygon fill="midnightblue" stroke="midnightblue" points="2684.68,-198.93 2693.49,-193.04 2682.93,-192.15 2684.68,-198.93"/>
</g>
<!-- Node21 -->
<g id="node21" class="node">
<title>Node21</title>
<g id="a_node21"><a xlink:title=" ">
<polygon fill="white" stroke="#bfbfbf" points="2783,-174 2783,-193 2839,-193 2839,-174 2783,-174"/>
<text text-anchor="middle" x="2811" y="-181" font-family="Helvetica,sans-Serif" font-size="10.00">QLocale</text>
</a>
</g>
</g>
<!-- Node12&#45;&gt;Node21 -->
<g id="edge23" class="edge">
<title>Node12&#45;&gt;Node21</title>
<path fill="none" stroke="midnightblue" d="M2047.05,-236.5C2051.76,-235.94 2056.46,-235.43 2061,-235 2377.33,-205.18 2464.69,-267.3 2775,-199 2777.84,-198.38 2780.74,-197.55 2783.61,-196.61"/>
<polygon fill="midnightblue" stroke="midnightblue" points="2784.91,-199.86 2793.06,-193.09 2782.47,-193.3 2784.91,-199.86"/>
</g>
<!-- Node22 -->
<g id="node22" class="node">
<title>Node22</title>
<g id="a_node22"><a xlink:title=" ">
<polygon fill="white" stroke="#bfbfbf" points="1535.5,-174 1535.5,-193 1612.5,-193 1612.5,-174 1535.5,-174"/>
<text text-anchor="middle" x="1574" y="-181" font-family="Helvetica,sans-Serif" font-size="10.00">../ifc/ifcdef.h</text>
</a>
</g>
</g>
<!-- Node12&#45;&gt;Node22 -->
<g id="edge24" class="edge">
<title>Node12&#45;&gt;Node22</title>
<path fill="none" stroke="midnightblue" d="M1944.73,-240.66C1872.24,-235.3 1735.94,-222.87 1622,-199 1617.78,-198.12 1613.4,-197.03 1609.08,-195.86"/>
<polygon fill="midnightblue" stroke="midnightblue" points="1609.78,-192.42 1599.2,-193.01 1607.83,-199.14 1609.78,-192.42"/>
</g>
<!-- Node12&#45;&gt;Node23 -->
<g id="edge25" class="edge">
<title>Node12&#45;&gt;Node23</title>
<path fill="none" stroke="midnightblue" d="M1944.8,-243.4C1843.82,-241.46 1612.2,-233.31 1421,-199 1416.16,-198.13 1411.12,-196.99 1406.17,-195.74"/>
<polygon fill="midnightblue" stroke="midnightblue" points="1406.8,-192.28 1396.24,-193.04 1404.97,-199.04 1406.8,-192.28"/>
</g>
<!-- Node24 -->
<g id="node24" class="node">
<title>Node24</title>
<g id="a_node24"><a xlink:title=" ">
<polygon fill="white" stroke="#bfbfbf" points="1630.5,-174 1630.5,-193 1747.5,-193 1747.5,-174 1630.5,-174"/>
<text text-anchor="middle" x="1689" y="-181" font-family="Helvetica,sans-Serif" font-size="10.00">../vmisc/diagnostic.h</text>
</a>
</g>
</g>
<!-- Node12&#45;&gt;Node24 -->
<g id="edge26" class="edge">
<title>Node12&#45;&gt;Node24</title>
<path fill="none" stroke="midnightblue" d="M1948.77,-235.45C1900.52,-226.64 1823.44,-212.34 1757,-199 1750.86,-197.77 1744.42,-196.44 1738.06,-195.11"/>
<polygon fill="midnightblue" stroke="midnightblue" points="1738.67,-191.66 1728.16,-193.02 1737.22,-198.51 1738.67,-191.66"/>
</g>
<!-- Node25 -->
<g id="node25" class="node">
<title>Node25</title>
<g id="a_node25"><a xlink:title=" ">
<polygon fill="white" stroke="#bfbfbf" points="1765.5,-174 1765.5,-193 1868.5,-193 1868.5,-174 1765.5,-174"/>
<text text-anchor="middle" x="1817" y="-181" font-family="Helvetica,sans-Serif" font-size="10.00">../vmisc/logging.h</text>
</a>
</g>
</g>
<!-- Node12&#45;&gt;Node25 -->
<g id="edge27" class="edge">
<title>Node12&#45;&gt;Node25</title>
<path fill="none" stroke="midnightblue" d="M1970.35,-235.48C1939.38,-225.18 1887.13,-207.81 1852.35,-196.25"/>
<polygon fill="midnightblue" stroke="midnightblue" points="1853.19,-192.84 1842.6,-193.01 1850.98,-199.48 1853.19,-192.84"/>
</g>
<!-- Node26&#45;&gt;Node8 -->
<g id="edge29" class="edge">
<title>Node26&#45;&gt;Node8</title>
<path fill="none" stroke="midnightblue" d="M1297.33,-235.46C1285.63,-208.19 1248.95,-122.78 1232.79,-85.13"/>
<polygon fill="midnightblue" stroke="midnightblue" points="1235.97,-83.68 1228.81,-75.87 1229.54,-86.44 1235.97,-83.68"/>
</g>
<!-- Node26&#45;&gt;Node11 -->
<g id="edge30" class="edge">
<title>Node26&#45;&gt;Node11</title>
<path fill="none" stroke="midnightblue" d="M1300.39,-235.47C1299.77,-219.66 1300.91,-185.82 1320,-168 1396.85,-96.24 1730.53,-74.19 1846.28,-68.63"/>
<polygon fill="midnightblue" stroke="midnightblue" points="1846.64,-72.12 1856.47,-68.16 1846.32,-65.12 1846.64,-72.12"/>
</g>
<!-- Node26&#45;&gt;Node23 -->
<g id="edge31" class="edge">
<title>Node26&#45;&gt;Node23</title>
<path fill="none" stroke="midnightblue" d="M1310.89,-235.48C1321.65,-226.2 1339.07,-211.17 1352.22,-199.83"/>
<polygon fill="midnightblue" stroke="midnightblue" points="1354.84,-202.19 1360.13,-193.01 1350.27,-196.89 1354.84,-202.19"/>
</g>
<!-- Node28&#45;&gt;Node2 -->
<g id="edge35" class="edge">
<title>Node28&#45;&gt;Node2</title>
<path fill="none" stroke="midnightblue" d="M671.24,-241.49C593.82,-237.35 460.81,-226.56 350,-199 270.39,-179.2 252.31,-166.76 178,-132 144.11,-116.15 106.5,-94.73 83.05,-80.89"/>
<polygon fill="midnightblue" stroke="midnightblue" points="84.6,-77.74 74.21,-75.63 81.02,-83.75 84.6,-77.74"/>
</g>
<!-- Node28&#45;&gt;Node5 -->
<g id="edge59" class="edge">
<title>Node28&#45;&gt;Node5</title>
<path fill="none" stroke="midnightblue" d="M779.58,-235.49C816.46,-227.73 870.42,-215.04 916,-199 967.23,-180.98 1024.19,-152.82 1056,-136.31"/>
<polygon fill="midnightblue" stroke="midnightblue" points="1057.79,-139.32 1065.03,-131.58 1054.54,-133.12 1057.79,-139.32"/>
</g>
<!-- Node28&#45;&gt;Node8 -->
<g id="edge61" class="edge">
<title>Node28&#45;&gt;Node8</title>
<path fill="none" stroke="midnightblue" d="M796.34,-235.49C843.19,-228.09 909.48,-215.9 966,-199 1041.44,-176.45 1060.67,-169.33 1130,-132 1157.8,-117.03 1187.47,-95.78 1206.11,-81.71"/>
<polygon fill="midnightblue" stroke="midnightblue" points="1208.26,-84.46 1214.09,-75.61 1204.01,-78.9 1208.26,-84.46"/>
</g>
<!-- Node28&#45;&gt;Node10 -->
<g id="edge63" class="edge">
<title>Node28&#45;&gt;Node10</title>
<path fill="none" stroke="midnightblue" d="M770.33,-235.48C799.03,-227.75 840.67,-215.11 875,-199 912.44,-181.43 952.34,-154.25 975.39,-137.61"/>
<polygon fill="midnightblue" stroke="midnightblue" points="977.63,-140.31 983.64,-131.58 973.5,-134.65 977.63,-140.31"/>
</g>
<!-- Node29 -->
<g id="node29" class="node">
<title>Node29</title>
<g id="a_node29"><a xlink:href="../../d4/da4/def_8h.html" target="_top" xlink:title=" ">
<polygon fill="white" stroke="black" points="295,-112.5 295,-131.5 377,-131.5 377,-112.5 295,-112.5"/>
<text text-anchor="middle" x="336" y="-119.5" font-family="Helvetica,sans-Serif" font-size="10.00">../vmisc/def.h</text>
</a>
</g>
</g>
<!-- Node28&#45;&gt;Node29 -->
<g id="edge36" class="edge">
<title>Node28&#45;&gt;Node29</title>
<path fill="none" stroke="midnightblue" d="M736.72,-235.34C737.53,-219.33 736.68,-185.16 717,-168 663.52,-121.36 475.16,-140.77 387.13,-131.72"/>
<polygon fill="midnightblue" stroke="midnightblue" points="387.51,-128.24 377.16,-130.5 386.66,-135.19 387.51,-128.24"/>
</g>
<!-- Node38 -->
<g id="node38" class="node">
<title>Node38</title>
<g id="a_node38"><a xlink:href="../../db/d8d/resize__handle_8h.html" target="_top" xlink:title=" ">
<polygon fill="white" stroke="black" points="764,-168.5 764,-198.5 866,-198.5 866,-168.5 764,-168.5"/>
<text text-anchor="start" x="772" y="-186.5" font-family="Helvetica,sans-Serif" font-size="10.00">../vwidgets/resize</text>
<text text-anchor="middle" x="815" y="-175.5" font-family="Helvetica,sans-Serif" font-size="10.00">_handle.h</text>
</a>
</g>
</g>
<!-- Node28&#45;&gt;Node38 -->
<g id="edge49" class="edge">
<title>Node28&#45;&gt;Node38</title>
<path fill="none" stroke="midnightblue" d="M747.32,-235.48C757.92,-227.49 774.17,-215.25 788.09,-204.77"/>
<polygon fill="midnightblue" stroke="midnightblue" points="790.5,-207.33 796.38,-198.52 786.29,-201.74 790.5,-207.33"/>
</g>
<!-- Node40 -->
<g id="node40" class="node">
<title>Node40</title>
<g id="a_node40"><a xlink:title=" ">
<polygon fill="white" stroke="#bfbfbf" points="187.5,-112.5 187.5,-131.5 276.5,-131.5 276.5,-112.5 187.5,-112.5"/>
<text text-anchor="middle" x="232" y="-119.5" font-family="Helvetica,sans-Serif" font-size="10.00">QGraphicsItem</text>
</a>
</g>
</g>
<!-- Node28&#45;&gt;Node40 -->
<g id="edge65" class="edge">
<title>Node28&#45;&gt;Node40</title>
<path fill="none" stroke="midnightblue" d="M671.39,-237.12C613.2,-230.13 525.59,-217.67 451,-199 381.97,-181.72 303.82,-152.05 262.08,-135.35"/>
<polygon fill="midnightblue" stroke="midnightblue" points="263.35,-132.09 252.76,-131.6 260.73,-138.58 263.35,-132.09"/>
</g>
<!-- Node45 -->
<g id="node45" class="node">
<title>Node45</title>
<g id="a_node45"><a xlink:title=" ">
<polygon fill="white" stroke="#bfbfbf" points="459.5,-174 459.5,-193 514.5,-193 514.5,-174 459.5,-174"/>
<text text-anchor="middle" x="487" y="-181" font-family="Helvetica,sans-Serif" font-size="10.00">QPointF</text>
</a>
</g>
</g>
<!-- Node28&#45;&gt;Node45 -->
<g id="edge60" class="edge">
<title>Node28&#45;&gt;Node45</title>
<path fill="none" stroke="midnightblue" d="M684,-235.43C640.71,-227.7 577.7,-215.1 524,-199 521.57,-198.27 519.08,-197.45 516.59,-196.59"/>
<polygon fill="midnightblue" stroke="midnightblue" points="517.74,-193.28 507.15,-193.09 515.31,-199.84 517.74,-193.28"/>
</g>
<!-- Node46 -->
<g id="node46" class="node">
<title>Node46</title>
<g id="a_node46"><a xlink:title=" ">
<polygon fill="white" stroke="#bfbfbf" points="532.5,-174 532.5,-193 591.5,-193 591.5,-174 532.5,-174"/>
<text text-anchor="middle" x="562" y="-181" font-family="Helvetica,sans-Serif" font-size="10.00">QVariant</text>
</a>
</g>
</g>
<!-- Node28&#45;&gt;Node46 -->
<g id="edge62" class="edge">
<title>Node28&#45;&gt;Node46</title>
<path fill="none" stroke="midnightblue" d="M709.52,-235.47C682.24,-226.61 638.51,-212.22 601,-199 598.76,-198.21 596.45,-197.38 594.12,-196.54"/>
<polygon fill="midnightblue" stroke="midnightblue" points="595.23,-193.22 584.64,-193.07 592.82,-199.79 595.23,-193.22"/>
</g>
<!-- Node47 -->
<g id="node47" class="node">
<title>Node47</title>
<g id="a_node47"><a xlink:title=" ">
<polygon fill="white" stroke="#bfbfbf" points="610,-174 610,-193 708,-193 708,-174 610,-174"/>
<text text-anchor="middle" x="659" y="-181" font-family="Helvetica,sans-Serif" font-size="10.00">QtCore/qglobal.h</text>
</a>
</g>
</g>
<!-- Node28&#45;&gt;Node47 -->
<g id="edge64" class="edge">
<title>Node28&#45;&gt;Node47</title>
<path fill="none" stroke="midnightblue" d="M724.97,-235.48C712.73,-226.02 692.77,-210.6 678.01,-199.19"/>
<polygon fill="midnightblue" stroke="midnightblue" points="680.06,-196.35 670.01,-193.01 675.78,-201.89 680.06,-196.35"/>
</g>
<!-- Node29&#45;&gt;Node2 -->
<g id="edge37" class="edge">
<title>Node29&#45;&gt;Node2</title>
<path fill="none" stroke="midnightblue" d="M294.98,-112.97C246.73,-103.53 166.5,-87.84 113.43,-77.45"/>
<polygon fill="midnightblue" stroke="midnightblue" points="114.01,-74 103.53,-75.52 112.67,-80.87 114.01,-74"/>
</g>
<!-- Node29&#45;&gt;Node8 -->
<g id="edge40" class="edge">
<title>Node29&#45;&gt;Node8</title>
<path fill="none" stroke="midnightblue" d="M377.13,-113.3C380.46,-112.81 383.78,-112.37 387,-112 545.71,-93.8 1047.4,-73.76 1188.03,-68.39"/>
<polygon fill="midnightblue" stroke="midnightblue" points="1188.42,-71.88 1198.28,-68 1188.15,-64.88 1188.42,-71.88"/>
</g>
<!-- Node29&#45;&gt;Node9 -->
<g id="edge41" class="edge">
<title>Node29&#45;&gt;Node9</title>
<path fill="none" stroke="midnightblue" d="M377.15,-113.41C380.47,-112.89 383.79,-112.42 387,-112 568.91,-88.39 787.11,-74.58 879.8,-69.38"/>
<polygon fill="midnightblue" stroke="midnightblue" points="880.16,-72.87 889.95,-68.82 879.77,-65.88 880.16,-72.87"/>
</g>
<!-- Node29&#45;&gt;Node11 -->
<g id="edge43" class="edge">
<title>Node29&#45;&gt;Node11</title>
<path fill="none" stroke="midnightblue" d="M377.12,-113.22C380.46,-112.75 383.78,-112.33 387,-112 681.99,-81.7 1638.84,-69.69 1846.15,-67.42"/>
<polygon fill="midnightblue" stroke="midnightblue" points="1846.31,-70.91 1856.28,-67.31 1846.24,-63.91 1846.31,-70.91"/>
</g>
<!-- Node30 -->
<g id="node30" class="node">
<title>Node30</title>
<g id="a_node30"><a xlink:title=" ">
<polygon fill="white" stroke="#bfbfbf" points="308.5,-56.5 308.5,-75.5 381.5,-75.5 381.5,-56.5 308.5,-56.5"/>
<text text-anchor="middle" x="345" y="-63.5" font-family="Helvetica,sans-Serif" font-size="10.00">QFileDialog</text>
</a>
</g>
</g>
<!-- Node29&#45;&gt;Node30 -->
<g id="edge38" class="edge">
<title>Node29&#45;&gt;Node30</title>
<path fill="none" stroke="midnightblue" d="M337.49,-112.08C338.68,-104.93 340.39,-94.64 341.88,-85.69"/>
<polygon fill="midnightblue" stroke="midnightblue" points="345.35,-86.19 343.54,-75.75 338.45,-85.04 345.35,-86.19"/>
</g>
<!-- Node31 -->
<g id="node31" class="node">
<title>Node31</title>
<g id="a_node31"><a xlink:title=" ">
<polygon fill="white" stroke="#bfbfbf" points="400,-56.5 400,-75.5 450,-75.5 450,-56.5 400,-56.5"/>
<text text-anchor="middle" x="425" y="-63.5" font-family="Helvetica,sans-Serif" font-size="10.00">QLineF</text>
</a>
</g>
</g>
<!-- Node29&#45;&gt;Node31 -->
<g id="edge39" class="edge">
<title>Node29&#45;&gt;Node31</title>
<path fill="none" stroke="midnightblue" d="M350.3,-112.32C364.18,-103.9 385.49,-90.97 401.8,-81.07"/>
<polygon fill="midnightblue" stroke="midnightblue" points="404,-83.83 410.74,-75.65 400.37,-77.85 404,-83.83"/>
</g>
<!-- Node32 -->
<g id="node32" class="node">
<title>Node32</title>
<g id="a_node32"><a xlink:title=" ">
<polygon fill="white" stroke="#bfbfbf" points="468.5,-56.5 468.5,-75.5 497.5,-75.5 497.5,-56.5 468.5,-56.5"/>
<text text-anchor="middle" x="483" y="-63.5" font-family="Helvetica,sans-Serif" font-size="10.00">Qt</text>
</a>
</g>
</g>
<!-- Node29&#45;&gt;Node32 -->
<g id="edge42" class="edge">
<title>Node29&#45;&gt;Node32</title>
<path fill="none" stroke="midnightblue" d="M359.6,-112.43C382.59,-104.07 418.74,-90.88 458.85,-76.04"/>
<polygon fill="midnightblue" stroke="midnightblue" points="460.12,-79.3 468.28,-72.54 457.69,-72.73 460.12,-79.3"/>
</g>
<!-- Node33 -->
<g id="node33" class="node">
<title>Node33</title>
<g id="a_node33"><a xlink:title=" ">
<polygon fill="white" stroke="#bfbfbf" points="516,-56.5 516,-75.5 572,-75.5 572,-56.5 516,-56.5"/>
<text text-anchor="middle" x="544" y="-63.5" font-family="Helvetica,sans-Serif" font-size="10.00">QPrinter</text>
</a>
</g>
</g>
<!-- Node29&#45;&gt;Node33 -->
<g id="edge44" class="edge">
<title>Node29&#45;&gt;Node33</title>
<path fill="none" stroke="midnightblue" d="M368.96,-112.44C406.26,-102.76 466.93,-87.01 506.14,-76.83"/>
<polygon fill="midnightblue" stroke="midnightblue" points="507.07,-80.2 515.87,-74.3 505.31,-73.43 507.07,-80.2"/>
</g>
<!-- Node34 -->
<g id="node34" class="node">
<title>Node34</title>
<g id="a_node34"><a xlink:title=" ">
<polygon fill="white" stroke="#bfbfbf" points="590.5,-56.5 590.5,-75.5 651.5,-75.5 651.5,-56.5 590.5,-56.5"/>
<text text-anchor="middle" x="621" y="-63.5" font-family="Helvetica,sans-Serif" font-size="10.00">QPixmap</text>
</a>
</g>
</g>
<!-- Node29&#45;&gt;Node34 -->
<g id="edge45" class="edge">
<title>Node29&#45;&gt;Node34</title>
<path fill="none" stroke="midnightblue" d="M377.38,-113.6C432.83,-103.66 529.28,-86.25 580.53,-76.01"/>
<polygon fill="midnightblue" stroke="midnightblue" points="581.34,-79.42 590.45,-74 579.96,-72.56 581.34,-79.42"/>
</g>
<!-- Node35 -->
<g id="node35" class="node">
<title>Node35</title>
<g id="a_node35"><a xlink:title=" ">
<polygon fill="white" stroke="#bfbfbf" points="138.5,-56.5 138.5,-75.5 189.5,-75.5 189.5,-56.5 138.5,-56.5"/>
<text text-anchor="middle" x="164" y="-63.5" font-family="Helvetica,sans-Serif" font-size="10.00">csignal</text>
</a>
</g>
</g>
<!-- Node29&#45;&gt;Node35 -->
<g id="edge46" class="edge">
<title>Node29&#45;&gt;Node35</title>
<path fill="none" stroke="midnightblue" d="M308.75,-112.44C279.13,-103.15 231.71,-88.26 199.27,-78.07"/>
<polygon fill="midnightblue" stroke="midnightblue" points="200.31,-74.73 189.72,-75.08 198.21,-81.41 200.31,-74.73"/>
</g>
<!-- Node36 -->
<g id="node36" class="node">
<title>Node36</title>
<g id="a_node36"><a xlink:href="../../d4/d82/debugbreak_8h.html" target="_top" xlink:title=" ">
<polygon fill="white" stroke="black" points="207.5,-56.5 207.5,-75.5 290.5,-75.5 290.5,-56.5 207.5,-56.5"/>
<text text-anchor="middle" x="249" y="-63.5" font-family="Helvetica,sans-Serif" font-size="10.00">debugbreak.h</text>
</a>
</g>
</g>
<!-- Node29&#45;&gt;Node36 -->
<g id="edge47" class="edge">
<title>Node29&#45;&gt;Node36</title>
<path fill="none" stroke="midnightblue" d="M322.02,-112.32C308.45,-103.9 287.62,-90.97 271.68,-81.07"/>
<polygon fill="midnightblue" stroke="midnightblue" points="273.29,-77.95 262.94,-75.65 269.59,-83.9 273.29,-77.95"/>
</g>
<!-- Node37 -->
<g id="node37" class="node">
<title>Node37</title>
<g id="a_node37"><a xlink:title=" ">
<polygon fill="white" stroke="#bfbfbf" points="221.5,-0.5 221.5,-19.5 276.5,-19.5 276.5,-0.5 221.5,-0.5"/>
<text text-anchor="middle" x="249" y="-7.5" font-family="Helvetica,sans-Serif" font-size="10.00">signal.h</text>
</a>
</g>
</g>
<!-- Node36&#45;&gt;Node37 -->
<g id="edge48" class="edge">
<title>Node36&#45;&gt;Node37</title>
<path fill="none" stroke="midnightblue" d="M249,-56.08C249,-49.01 249,-38.86 249,-29.99"/>
<polygon fill="midnightblue" stroke="midnightblue" points="252.5,-29.75 249,-19.75 245.5,-29.75 252.5,-29.75"/>
</g>
<!-- Node38&#45;&gt;Node5 -->
<g id="edge56" class="edge">
<title>Node38&#45;&gt;Node5</title>
<path fill="none" stroke="midnightblue" d="M866.29,-171.03C914.39,-160.27 985.77,-144.3 1032.83,-133.77"/>
<polygon fill="midnightblue" stroke="midnightblue" points="1033.79,-137.15 1042.78,-131.55 1032.26,-130.32 1033.79,-137.15"/>
</g>
<!-- Node38&#45;&gt;Node10 -->
<g id="edge58" class="edge">
<title>Node38&#45;&gt;Node10</title>
<path fill="none" stroke="midnightblue" d="M857.66,-168.4C888.63,-158.16 930.05,-144.47 959.28,-134.81"/>
<polygon fill="midnightblue" stroke="midnightblue" points="960.67,-138.03 969.07,-131.57 958.48,-131.39 960.67,-138.03"/>
</g>
<!-- Node38&#45;&gt;Node29 -->
<g id="edge50" class="edge">
<title>Node38&#45;&gt;Node29</title>
<path fill="none" stroke="midnightblue" d="M763.66,-170.45C759.06,-169.55 754.45,-168.71 750,-168 593.21,-142.83 549.4,-153.64 387.48,-131.94"/>
<polygon fill="midnightblue" stroke="midnightblue" points="387.53,-128.42 377.15,-130.54 386.59,-135.36 387.53,-128.42"/>
</g>
<!-- Node39 -->
<g id="node39" class="node">
<title>Node39</title>
<g id="a_node39"><a xlink:title=" ">
<polygon fill="white" stroke="#bfbfbf" points="899,-112.5 899,-131.5 949,-131.5 949,-112.5 899,-112.5"/>
<text text-anchor="middle" x="924" y="-119.5" font-family="Helvetica,sans-Serif" font-size="10.00">QColor</text>
</a>
</g>
</g>
<!-- Node38&#45;&gt;Node39 -->
<g id="edge51" class="edge">
<title>Node38&#45;&gt;Node39</title>
<path fill="none" stroke="midnightblue" d="M840.83,-168.4C858.47,-158.77 881.7,-146.09 899.13,-136.58"/>
<polygon fill="midnightblue" stroke="midnightblue" points="901.04,-139.52 908.14,-131.66 897.69,-133.38 901.04,-139.52"/>
</g>
<!-- Node38&#45;&gt;Node40 -->
<g id="edge52" class="edge">
<title>Node38&#45;&gt;Node40</title>
<path fill="none" stroke="midnightblue" d="M763.96,-174.32C748.87,-172.07 732.29,-169.77 717,-168 529.31,-146.3 478.47,-155.49 286.87,-132"/>
<polygon fill="midnightblue" stroke="midnightblue" points="287.1,-128.5 276.75,-130.75 286.24,-135.45 287.1,-128.5"/>
</g>
<!-- Node41 -->
<g id="node41" class="node">
<title>Node41</title>
<g id="a_node41"><a xlink:title=" ">
<polygon fill="white" stroke="#bfbfbf" points="395.5,-112.5 395.5,-131.5 548.5,-131.5 548.5,-112.5 395.5,-112.5"/>
<text text-anchor="middle" x="472" y="-119.5" font-family="Helvetica,sans-Serif" font-size="10.00">QGraphicsSceneHoverEvent</text>
</a>
</g>
</g>
<!-- Node38&#45;&gt;Node41 -->
<g id="edge53" class="edge">
<title>Node38&#45;&gt;Node41</title>
<path fill="none" stroke="midnightblue" d="M763.96,-170.82C759.25,-169.83 754.54,-168.87 750,-168 679.15,-154.38 597.61,-141.51 541.24,-133.05"/>
<polygon fill="midnightblue" stroke="midnightblue" points="541.43,-129.54 531.02,-131.52 540.39,-136.46 541.43,-129.54"/>
</g>
<!-- Node42 -->
<g id="node42" class="node">
<title>Node42</title>
<g id="a_node42"><a xlink:title=" ">
<polygon fill="white" stroke="#bfbfbf" points="567,-112.5 567,-131.5 723,-131.5 723,-112.5 567,-112.5"/>
<text text-anchor="middle" x="645" y="-119.5" font-family="Helvetica,sans-Serif" font-size="10.00">QGraphicsSceneMouseEvent</text>
</a>
</g>
</g>
<!-- Node38&#45;&gt;Node42 -->
<g id="edge54" class="edge">
<title>Node38&#45;&gt;Node42</title>
<path fill="none" stroke="midnightblue" d="M774.71,-168.4C745.68,-158.24 706.92,-144.67 679.35,-135.02"/>
<polygon fill="midnightblue" stroke="midnightblue" points="680.33,-131.66 669.74,-131.66 678.02,-138.26 680.33,-131.66"/>
</g>
<!-- Node43 -->
<g id="node43" class="node">
<title>Node43</title>
<g id="a_node43"><a xlink:title=" ">
<polygon fill="white" stroke="#bfbfbf" points="741,-112.5 741,-131.5 811,-131.5 811,-112.5 741,-112.5"/>
<text text-anchor="middle" x="776" y="-119.5" font-family="Helvetica,sans-Serif" font-size="10.00">QKeyEvent</text>
</a>
</g>
</g>
<!-- Node38&#45;&gt;Node43 -->
<g id="edge55" class="edge">
<title>Node38&#45;&gt;Node43</title>
<path fill="none" stroke="midnightblue" d="M805.76,-168.4C800.21,-159.93 793.11,-149.1 787.23,-140.14"/>
<polygon fill="midnightblue" stroke="midnightblue" points="790.08,-138.1 781.67,-131.66 784.23,-141.94 790.08,-138.1"/>
</g>
<!-- Node44 -->
<g id="node44" class="node">
<title>Node44</title>
<g id="a_node44"><a xlink:title=" ">
<polygon fill="white" stroke="#bfbfbf" points="829,-112.5 829,-131.5 881,-131.5 881,-112.5 829,-112.5"/>
<text text-anchor="middle" x="855" y="-119.5" font-family="Helvetica,sans-Serif" font-size="10.00">QRectF</text>
</a>
</g>
</g>
<!-- Node38&#45;&gt;Node44 -->
<g id="edge57" class="edge">
<title>Node38&#45;&gt;Node44</title>
<path fill="none" stroke="midnightblue" d="M824.48,-168.4C830.17,-159.93 837.45,-149.1 843.48,-140.14"/>
<polygon fill="midnightblue" stroke="midnightblue" points="846.51,-141.91 849.18,-131.66 840.7,-138 846.51,-141.91"/>
</g>
</g>
</svg>
        <g id="navigator" transform="translate(0 0)" fill="#404254">
                <rect fill="#f2f5e9" fill-opacity="0.5" stroke="#606060" stroke-width=".5" x="0" y="0" width="60" height="60"/>
                <use id="zoomplus" xlink:href="#zoomPlus" x="17" y="9" onmousedown="handleZoom(evt,'in')"/>
                <use id="zoomminus" xlink:href="#zoomMin" x="42" y="9" onmousedown="handleZoom(evt,'out')"/>
                <use id="reset" xlink:href="#resetDef" x="30" y="36" onmousedown="handleReset()"/>
                <g id="arrowUp" xlink:href="#dirArrow" transform="translate(30 24)" onmousedown="handlePan(0,-1)">
                  <use xlink:href="#rim" fill="#404040">
                        <set attributeName="fill" to="#808080" begin="arrowUp.mouseover" end="arrowUp.mouseout"/>
                  </use>
                  <path fill="none" stroke="white" stroke-width="1.5" d="M0,-3.0v7 M-2.5,-0.5L0,-3.0L2.5,-0.5"/>
                </g>
                <g id="arrowRight" xlink:href="#dirArrow" transform="rotate(90) translate(36 -43)" onmousedown="handlePan(1,0)">
                  <use xlink:href="#rim" fill="#404040">
                        <set attributeName="fill" to="#808080" begin="arrowRight.mouseover" end="arrowRight.mouseout"/>
                  </use>
                  <path fill="none" stroke="white" stroke-width="1.5" d="M0,-3.0v7 M-2.5,-0.5L0,-3.0L2.5,-0.5"/>
                </g>
                <g id="arrowDown" xlink:href="#dirArrow" transform="rotate(180) translate(-30 -48)" onmousedown="handlePan(0,1)">
                  <use xlink:href="#rim" fill="#404040">
                        <set attributeName="fill" to="#808080" begin="arrowDown.mouseover" end="arrowDown.mouseout"/>
                  </use>
                  <path fill="none" stroke="white" stroke-width="1.5" d="M0,-3.0v7 M-2.5,-0.5L0,-3.0L2.5,-0.5"/>
                </g>
                <g id="arrowLeft" xlink:href="#dirArrow" transform="rotate(270) translate(-36 17)" onmousedown="handlePan(-1,0)">
                  <use xlink:href="#rim" fill="#404040">
                        <set attributeName="fill" to="#808080" begin="arrowLeft.mouseover" end="arrowLeft.mouseout"/>
                  </use>
                  <path fill="none" stroke="white" stroke-width="1.5" d="M0,-3.0v7 M-2.5,-0.5L0,-3.0L2.5,-0.5"/>
                </g>
        </g>
        <svg viewBox="0 0 15 15" width="100%" height="30px" preserveAspectRatio="xMaxYMin meet">
         <g id="arrow_out" transform="scale(0.3 0.3)">
          <a xlink:href="vabstractpattern_8h__incl_org.svg" target="_base">
           <rect id="button" ry="5" rx="5" y="6" x="6" height="38" width="38"
                fill="#f2f5e9" fill-opacity="0.5" stroke="#606060" stroke-width="1.0"/>
           <path id="arrow"
             d="M 11.500037,31.436501 C 11.940474,20.09759 22.043105,11.32322 32.158766,21.979434 L 37.068811,17.246167 C 37.068811,17.246167 37.088388,32 37.088388,32 L 22.160133,31.978069 C 22.160133,31.978069 26.997745,27.140456 26.997745,27.140456 C 18.528582,18.264221 13.291696,25.230495 11.500037,31.436501 z"
             style="fill:#404040;"/>
          </a>
         </g>
        </svg>
</svg>
