<?xml version="1.0" encoding="UTF-8" standalone="no"?>
<!DOCTYPE svg PUBLIC "-//W3C//DTD SVG 1.1//EN"
 "http://www.w3.org/Graphics/SVG/1.1/DTD/svg11.dtd">
<!-- Generated by graphviz version 2.43.0 (0)
 -->
<!-- Title: src/libs/vwidgets/page_format_combobox.h Pages: 1 -->
<svg width="2878pt" height="386pt"
 viewBox="0.00 0.00 2878.21 386.00" xmlns="http://www.w3.org/2000/svg" xmlns:xlink="http://www.w3.org/1999/xlink">
<g id="graph0" class="graph" transform="scale(1 1) rotate(0) translate(4 382)">
<title>src/libs/vwidgets/page_format_combobox.h</title>
<polygon fill="white" stroke="transparent" points="-4,4 -4,-382 2874.21,-382 2874.21,4 -4,4"/>
<!-- Node1 -->
<g id="node1" class="node">
<title>Node1</title>
<g id="a_node1"><a xlink:title=" ">
<polygon fill="#bfbfbf" stroke="black" points="2081.71,-347.5 2081.71,-377.5 2206.71,-377.5 2206.71,-347.5 2081.71,-347.5"/>
<text text-anchor="start" x="2089.71" y="-365.5" font-family="Helvetica,sans-Serif" font-size="10.00">src/libs/vwidgets/page</text>
<text text-anchor="middle" x="2144.21" y="-354.5" font-family="Helvetica,sans-Serif" font-size="10.00">_format_combobox.h</text>
</a>
</g>
</g>
<!-- Node2 -->
<g id="node2" class="node">
<title>Node2</title>
<g id="a_node2"><a xlink:title=" ">
<polygon fill="white" stroke="#bfbfbf" points="1957.71,-291.5 1957.71,-310.5 2034.71,-310.5 2034.71,-291.5 1957.71,-291.5"/>
<text text-anchor="middle" x="1996.21" y="-298.5" font-family="Helvetica,sans-Serif" font-size="10.00">QComboBox</text>
</a>
</g>
</g>
<!-- Node1&#45;&gt;Node2 -->
<g id="edge1" class="edge">
<title>Node1&#45;&gt;Node2</title>
<path fill="none" stroke="midnightblue" d="M2109.13,-347.4C2084.19,-337.37 2051,-324.03 2027.06,-314.4"/>
<polygon fill="midnightblue" stroke="midnightblue" points="2028.33,-311.14 2017.74,-310.66 2025.72,-317.64 2028.33,-311.14"/>
</g>
<!-- Node3 -->
<g id="node3" class="node">
<title>Node3</title>
<g id="a_node3"><a xlink:title=" ">
<polygon fill="white" stroke="#bfbfbf" points="2052.71,-291.5 2052.71,-310.5 2111.71,-310.5 2111.71,-291.5 2052.71,-291.5"/>
<text text-anchor="middle" x="2082.21" y="-298.5" font-family="Helvetica,sans-Serif" font-size="10.00">QWidget</text>
</a>
</g>
</g>
<!-- Node1&#45;&gt;Node3 -->
<g id="edge2" class="edge">
<title>Node1&#45;&gt;Node3</title>
<path fill="none" stroke="midnightblue" d="M2129.51,-347.4C2120.23,-338.49 2108.21,-326.95 2098.61,-317.74"/>
<polygon fill="midnightblue" stroke="midnightblue" points="2100.87,-315.06 2091.23,-310.66 2096.02,-320.11 2100.87,-315.06"/>
</g>
<!-- Node4 -->
<g id="node4" class="node">
<title>Node4</title>
<g id="a_node4"><a xlink:href="../../d4/da4/def_8h.html" target="_top" xlink:title=" ">
<polygon fill="white" stroke="black" points="2550.21,-112.5 2550.21,-131.5 2632.21,-131.5 2632.21,-112.5 2550.21,-112.5"/>
<text text-anchor="middle" x="2591.21" y="-119.5" font-family="Helvetica,sans-Serif" font-size="10.00">../vmisc/def.h</text>
</a>
</g>
</g>
<!-- Node1&#45;&gt;Node4 -->
<g id="edge3" class="edge">
<title>Node1&#45;&gt;Node4</title>
<path fill="none" stroke="midnightblue" d="M2206.94,-356.3C2320.44,-345.46 2552.65,-316.18 2601.21,-255 2627.43,-221.96 2610.91,-168.44 2599.46,-140.79"/>
<polygon fill="midnightblue" stroke="midnightblue" points="2602.63,-139.32 2595.42,-131.56 2596.22,-142.13 2602.63,-139.32"/>
</g>
<!-- Node17 -->
<g id="node17" class="node">
<title>Node17</title>
<g id="a_node17"><a xlink:href="../../d0/d89/vabstractpattern_8h.html" target="_top" xlink:title=" ">
<polygon fill="white" stroke="black" points="2130.21,-291.5 2130.21,-310.5 2282.21,-310.5 2282.21,-291.5 2130.21,-291.5"/>
<text text-anchor="middle" x="2206.21" y="-298.5" font-family="Helvetica,sans-Serif" font-size="10.00">../ifc/xml/vabstractpattern.h</text>
</a>
</g>
</g>
<!-- Node1&#45;&gt;Node17 -->
<g id="edge16" class="edge">
<title>Node1&#45;&gt;Node17</title>
<path fill="none" stroke="midnightblue" d="M2158.9,-347.4C2168.19,-338.49 2180.21,-326.95 2189.8,-317.74"/>
<polygon fill="midnightblue" stroke="midnightblue" points="2192.39,-320.11 2197.19,-310.66 2187.55,-315.06 2192.39,-320.11"/>
</g>
<!-- Node5 -->
<g id="node5" class="node">
<title>Node5</title>
<g id="a_node5"><a xlink:title=" ">
<polygon fill="white" stroke="#bfbfbf" points="2750.21,-56.5 2750.21,-75.5 2870.21,-75.5 2870.21,-56.5 2750.21,-56.5"/>
<text text-anchor="middle" x="2810.21" y="-63.5" font-family="Helvetica,sans-Serif" font-size="10.00">qcompilerdetection.h</text>
</a>
</g>
</g>
<!-- Node4&#45;&gt;Node5 -->
<g id="edge4" class="edge">
<title>Node4&#45;&gt;Node5</title>
<path fill="none" stroke="midnightblue" d="M2625.91,-112.44C2663.79,-103.1 2724.56,-88.12 2765.87,-77.93"/>
<polygon fill="midnightblue" stroke="midnightblue" points="2766.8,-81.31 2775.67,-75.52 2765.12,-74.51 2766.8,-81.31"/>
</g>
<!-- Node6 -->
<g id="node6" class="node">
<title>Node6</title>
<g id="a_node6"><a xlink:title=" ">
<polygon fill="white" stroke="#bfbfbf" points="2454.71,-56.5 2454.71,-75.5 2527.71,-75.5 2527.71,-56.5 2454.71,-56.5"/>
<text text-anchor="middle" x="2491.21" y="-63.5" font-family="Helvetica,sans-Serif" font-size="10.00">QFileDialog</text>
</a>
</g>
</g>
<!-- Node4&#45;&gt;Node6 -->
<g id="edge5" class="edge">
<title>Node4&#45;&gt;Node6</title>
<path fill="none" stroke="midnightblue" d="M2575.14,-112.32C2559.25,-103.74 2534.7,-90.49 2516.25,-80.52"/>
<polygon fill="midnightblue" stroke="midnightblue" points="2517.7,-77.33 2507.23,-75.65 2514.37,-83.49 2517.7,-77.33"/>
</g>
<!-- Node7 -->
<g id="node7" class="node">
<title>Node7</title>
<g id="a_node7"><a xlink:title=" ">
<polygon fill="white" stroke="#bfbfbf" points="2546.21,-56.5 2546.21,-75.5 2596.21,-75.5 2596.21,-56.5 2546.21,-56.5"/>
<text text-anchor="middle" x="2571.21" y="-63.5" font-family="Helvetica,sans-Serif" font-size="10.00">QLineF</text>
</a>
</g>
</g>
<!-- Node4&#45;&gt;Node7 -->
<g id="edge6" class="edge">
<title>Node4&#45;&gt;Node7</title>
<path fill="none" stroke="midnightblue" d="M2587.9,-112.08C2585.23,-104.85 2581.36,-94.41 2578.02,-85.4"/>
<polygon fill="midnightblue" stroke="midnightblue" points="2581.2,-83.91 2574.45,-75.75 2574.64,-86.34 2581.2,-83.91"/>
</g>
<!-- Node8 -->
<g id="node8" class="node">
<title>Node8</title>
<g id="a_node8"><a xlink:title=" ">
<polygon fill="white" stroke="#bfbfbf" points="1606.71,-56.5 1606.71,-75.5 1659.71,-75.5 1659.71,-56.5 1606.71,-56.5"/>
<text text-anchor="middle" x="1633.21" y="-63.5" font-family="Helvetica,sans-Serif" font-size="10.00">QString</text>
</a>
</g>
</g>
<!-- Node4&#45;&gt;Node8 -->
<g id="edge7" class="edge">
<title>Node4&#45;&gt;Node8</title>
<path fill="none" stroke="midnightblue" d="M2550.07,-113.16C2547.08,-112.73 2544.1,-112.33 2541.21,-112 2204.47,-73.51 1793.76,-67.93 1670.12,-67.13"/>
<polygon fill="midnightblue" stroke="midnightblue" points="1670.07,-63.63 1660.05,-67.07 1670.03,-70.63 1670.07,-63.63"/>
</g>
<!-- Node9 -->
<g id="node9" class="node">
<title>Node9</title>
<g id="a_node9"><a xlink:title=" ">
<polygon fill="white" stroke="#bfbfbf" points="2662.21,-56.5 2662.21,-75.5 2732.21,-75.5 2732.21,-56.5 2662.21,-56.5"/>
<text text-anchor="middle" x="2697.21" y="-63.5" font-family="Helvetica,sans-Serif" font-size="10.00">QStringList</text>
</a>
</g>
</g>
<!-- Node4&#45;&gt;Node9 -->
<g id="edge8" class="edge">
<title>Node4&#45;&gt;Node9</title>
<path fill="none" stroke="midnightblue" d="M2608.24,-112.32C2625.24,-103.66 2651.58,-90.24 2671.2,-80.25"/>
<polygon fill="midnightblue" stroke="midnightblue" points="2672.9,-83.31 2680.22,-75.65 2669.72,-77.08 2672.9,-83.31"/>
</g>
<!-- Node10 -->
<g id="node10" class="node">
<title>Node10</title>
<g id="a_node10"><a xlink:title=" ">
<polygon fill="white" stroke="#bfbfbf" points="2614.71,-56.5 2614.71,-75.5 2643.71,-75.5 2643.71,-56.5 2614.71,-56.5"/>
<text text-anchor="middle" x="2629.21" y="-63.5" font-family="Helvetica,sans-Serif" font-size="10.00">Qt</text>
</a>
</g>
</g>
<!-- Node4&#45;&gt;Node10 -->
<g id="edge9" class="edge">
<title>Node4&#45;&gt;Node10</title>
<path fill="none" stroke="midnightblue" d="M2597.48,-112.08C2602.85,-104.46 2610.72,-93.26 2617.29,-83.94"/>
<polygon fill="midnightblue" stroke="midnightblue" points="2620.16,-85.94 2623.05,-75.75 2614.43,-81.91 2620.16,-85.94"/>
</g>
<!-- Node11 -->
<g id="node11" class="node">
<title>Node11</title>
<g id="a_node11"><a xlink:title=" ">
<polygon fill="white" stroke="#bfbfbf" points="797.71,-56.5 797.71,-75.5 856.71,-75.5 856.71,-56.5 797.71,-56.5"/>
<text text-anchor="middle" x="827.21" y="-63.5" font-family="Helvetica,sans-Serif" font-size="10.00">QtGlobal</text>
</a>
</g>
</g>
<!-- Node4&#45;&gt;Node11 -->
<g id="edge10" class="edge">
<title>Node4&#45;&gt;Node11</title>
<path fill="none" stroke="midnightblue" d="M2550.08,-113.09C2547.08,-112.67 2544.1,-112.3 2541.21,-112 2369.88,-94.43 1107.49,-71.85 866.79,-67.68"/>
<polygon fill="midnightblue" stroke="midnightblue" points="866.8,-64.18 856.74,-67.5 866.68,-71.18 866.8,-64.18"/>
</g>
<!-- Node12 -->
<g id="node12" class="node">
<title>Node12</title>
<g id="a_node12"><a xlink:title=" ">
<polygon fill="white" stroke="#bfbfbf" points="2131.21,-56.5 2131.21,-75.5 2187.21,-75.5 2187.21,-56.5 2131.21,-56.5"/>
<text text-anchor="middle" x="2159.21" y="-63.5" font-family="Helvetica,sans-Serif" font-size="10.00">QPrinter</text>
</a>
</g>
</g>
<!-- Node4&#45;&gt;Node12 -->
<g id="edge11" class="edge">
<title>Node4&#45;&gt;Node12</title>
<path fill="none" stroke="midnightblue" d="M2550.05,-113.34C2547.06,-112.86 2544.09,-112.41 2541.21,-112 2391.85,-90.8 2349.91,-101.78 2197.6,-76.02"/>
<polygon fill="midnightblue" stroke="midnightblue" points="2197.85,-72.52 2187.41,-74.27 2196.67,-79.42 2197.85,-72.52"/>
</g>
<!-- Node13 -->
<g id="node13" class="node">
<title>Node13</title>
<g id="a_node13"><a xlink:title=" ">
<polygon fill="white" stroke="#bfbfbf" points="2205.71,-56.5 2205.71,-75.5 2266.71,-75.5 2266.71,-56.5 2205.71,-56.5"/>
<text text-anchor="middle" x="2236.21" y="-63.5" font-family="Helvetica,sans-Serif" font-size="10.00">QPixmap</text>
</a>
</g>
</g>
<!-- Node4&#45;&gt;Node13 -->
<g id="edge12" class="edge">
<title>Node4&#45;&gt;Node13</title>
<path fill="none" stroke="midnightblue" d="M2550.03,-113.44C2547.05,-112.94 2544.08,-112.45 2541.21,-112 2426.58,-93.94 2394.31,-97.23 2276.92,-76.18"/>
<polygon fill="midnightblue" stroke="midnightblue" points="2277.27,-72.69 2266.81,-74.34 2276.02,-79.57 2277.27,-72.69"/>
</g>
<!-- Node14 -->
<g id="node14" class="node">
<title>Node14</title>
<g id="a_node14"><a xlink:title=" ">
<polygon fill="white" stroke="#bfbfbf" points="2284.71,-56.5 2284.71,-75.5 2335.71,-75.5 2335.71,-56.5 2284.71,-56.5"/>
<text text-anchor="middle" x="2310.21" y="-63.5" font-family="Helvetica,sans-Serif" font-size="10.00">csignal</text>
</a>
</g>
</g>
<!-- Node4&#45;&gt;Node14 -->
<g id="edge13" class="edge">
<title>Node4&#45;&gt;Node14</title>
<path fill="none" stroke="midnightblue" d="M2550.03,-113.59C2490.05,-102.77 2382.46,-83.33 2346.01,-76.12"/>
<polygon fill="midnightblue" stroke="midnightblue" points="2346.28,-72.6 2335.77,-74 2344.86,-79.46 2346.28,-72.6"/>
</g>
<!-- Node15 -->
<g id="node15" class="node">
<title>Node15</title>
<g id="a_node15"><a xlink:href="../../d4/d82/debugbreak_8h.html" target="_top" xlink:title=" ">
<polygon fill="white" stroke="black" points="2353.71,-56.5 2353.71,-75.5 2436.71,-75.5 2436.71,-56.5 2353.71,-56.5"/>
<text text-anchor="middle" x="2395.21" y="-63.5" font-family="Helvetica,sans-Serif" font-size="10.00">debugbreak.h</text>
</a>
</g>
</g>
<!-- Node4&#45;&gt;Node15 -->
<g id="edge14" class="edge">
<title>Node4&#45;&gt;Node15</title>
<path fill="none" stroke="midnightblue" d="M2560.15,-112.44C2526.6,-103.2 2473.01,-88.44 2436.07,-78.26"/>
<polygon fill="midnightblue" stroke="midnightblue" points="2436.69,-74.8 2426.12,-75.52 2434.83,-81.55 2436.69,-74.8"/>
</g>
<!-- Node16 -->
<g id="node16" class="node">
<title>Node16</title>
<g id="a_node16"><a xlink:title=" ">
<polygon fill="white" stroke="#bfbfbf" points="2367.71,-0.5 2367.71,-19.5 2422.71,-19.5 2422.71,-0.5 2367.71,-0.5"/>
<text text-anchor="middle" x="2395.21" y="-7.5" font-family="Helvetica,sans-Serif" font-size="10.00">signal.h</text>
</a>
</g>
</g>
<!-- Node15&#45;&gt;Node16 -->
<g id="edge15" class="edge">
<title>Node15&#45;&gt;Node16</title>
<path fill="none" stroke="midnightblue" d="M2395.21,-56.08C2395.21,-49.01 2395.21,-38.86 2395.21,-29.99"/>
<polygon fill="midnightblue" stroke="midnightblue" points="2398.71,-29.75 2395.21,-19.75 2391.71,-29.75 2398.71,-29.75"/>
</g>
<!-- Node17&#45;&gt;Node5 -->
<g id="edge17" class="edge">
<title>Node17&#45;&gt;Node5</title>
<path fill="none" stroke="midnightblue" d="M2282.62,-297.96C2386.86,-294.14 2567.4,-283.51 2626.21,-255 2708.42,-215.14 2774.5,-122.78 2799.46,-84.31"/>
<polygon fill="midnightblue" stroke="midnightblue" points="2802.49,-86.07 2804.91,-75.75 2796.58,-82.31 2802.49,-86.07"/>
</g>
<!-- Node17&#45;&gt;Node8 -->
<g id="edge23" class="edge">
<title>Node17&#45;&gt;Node8</title>
<path fill="none" stroke="midnightblue" d="M2154.24,-291.5C2050.58,-274.06 1821.92,-233 1750.21,-199 1706.74,-178.39 1695.47,-169.39 1665.21,-132 1653.84,-117.96 1645.16,-99.22 1639.72,-85.47"/>
<polygon fill="midnightblue" stroke="midnightblue" points="1642.85,-83.84 1636.07,-75.69 1636.29,-86.29 1642.85,-83.84"/>
</g>
<!-- Node17&#45;&gt;Node9 -->
<g id="edge24" class="edge">
<title>Node17&#45;&gt;Node9</title>
<path fill="none" stroke="midnightblue" d="M2282.34,-299.71C2382.35,-297.94 2551.14,-289.7 2601.21,-255 2660.7,-213.77 2685.53,-124.26 2693.78,-85.5"/>
<polygon fill="midnightblue" stroke="midnightblue" points="2697.23,-86.1 2695.75,-75.61 2690.36,-84.73 2697.23,-86.1"/>
</g>
<!-- Node17&#45;&gt;Node11 -->
<g id="edge26" class="edge">
<title>Node17&#45;&gt;Node11</title>
<path fill="none" stroke="midnightblue" d="M2129.8,-291.67C2126.56,-291.42 2123.35,-291.2 2120.21,-291 1713.35,-265.76 691.38,-299.71 286.21,-255 161.8,-241.27 89.43,-295.91 10.21,-199 -91.66,-74.38 610.56,-66.79 787.44,-66.83"/>
<polygon fill="midnightblue" stroke="midnightblue" points="787.61,-70.33 797.61,-66.84 787.62,-63.33 787.61,-70.33"/>
</g>
<!-- Node18 -->
<g id="node18" class="node">
<title>Node18</title>
<g id="a_node18"><a xlink:title=" ">
<polygon fill="white" stroke="#bfbfbf" points="19.71,-174 19.71,-193 68.71,-193 68.71,-174 19.71,-174"/>
<text text-anchor="middle" x="44.21" y="-181" font-family="Helvetica,sans-Serif" font-size="10.00">QHash</text>
</a>
</g>
</g>
<!-- Node17&#45;&gt;Node18 -->
<g id="edge18" class="edge">
<title>Node17&#45;&gt;Node18</title>
<path fill="none" stroke="midnightblue" d="M2129.8,-291.69C2126.56,-291.44 2123.35,-291.21 2120.21,-291 1516.84,-251.5 1363.97,-287.94 760.21,-255 458.74,-238.55 377.9,-264.66 83.21,-199 80.13,-198.32 76.98,-197.44 73.85,-196.47"/>
<polygon fill="midnightblue" stroke="midnightblue" points="74.73,-193.07 64.13,-193.1 72.43,-199.68 74.73,-193.07"/>
</g>
<!-- Node19 -->
<g id="node19" class="node">
<title>Node19</title>
<g id="a_node19"><a xlink:title=" ">
<polygon fill="white" stroke="#bfbfbf" points="2236.71,-235.5 2236.71,-254.5 2281.71,-254.5 2281.71,-235.5 2236.71,-235.5"/>
<text text-anchor="middle" x="2259.21" y="-242.5" font-family="Helvetica,sans-Serif" font-size="10.00">QMap</text>
</a>
</g>
</g>
<!-- Node17&#45;&gt;Node19 -->
<g id="edge19" class="edge">
<title>Node17&#45;&gt;Node19</title>
<path fill="none" stroke="midnightblue" d="M2214.96,-291.08C2222.68,-283.22 2234.11,-271.57 2243.42,-262.08"/>
<polygon fill="midnightblue" stroke="midnightblue" points="2246.11,-264.34 2250.62,-254.75 2241.12,-259.44 2246.11,-264.34"/>
</g>
<!-- Node20 -->
<g id="node20" class="node">
<title>Node20</title>
<g id="a_node20"><a xlink:title=" ">
<polygon fill="white" stroke="#bfbfbf" points="2452.21,-112.5 2452.21,-131.5 2532.21,-131.5 2532.21,-112.5 2452.21,-112.5"/>
<text text-anchor="middle" x="2492.21" y="-119.5" font-family="Helvetica,sans-Serif" font-size="10.00">QMetaObject</text>
</a>
</g>
</g>
<!-- Node17&#45;&gt;Node20 -->
<g id="edge20" class="edge">
<title>Node17&#45;&gt;Node20</title>
<path fill="none" stroke="midnightblue" d="M2282.49,-296.21C2386.63,-290.24 2562.68,-277 2582.21,-255 2617,-215.79 2551.38,-162.54 2514.63,-137.34"/>
<polygon fill="midnightblue" stroke="midnightblue" points="2516.25,-134.21 2505.99,-131.57 2512.36,-140.03 2516.25,-134.21"/>
</g>
<!-- Node21 -->
<g id="node21" class="node">
<title>Node21</title>
<g id="a_node21"><a xlink:title=" ">
<polygon fill="white" stroke="#bfbfbf" points="2300.21,-235.5 2300.21,-254.5 2356.21,-254.5 2356.21,-235.5 2300.21,-235.5"/>
<text text-anchor="middle" x="2328.21" y="-242.5" font-family="Helvetica,sans-Serif" font-size="10.00">QObject</text>
</a>
</g>
</g>
<!-- Node17&#45;&gt;Node21 -->
<g id="edge21" class="edge">
<title>Node17&#45;&gt;Node21</title>
<path fill="none" stroke="midnightblue" d="M2225.54,-291.44C2245.53,-282.6 2276.95,-268.69 2299.77,-258.59"/>
<polygon fill="midnightblue" stroke="midnightblue" points="2301.24,-261.76 2308.97,-254.52 2298.41,-255.36 2301.24,-261.76"/>
</g>
<!-- Node22 -->
<g id="node22" class="node">
<title>Node22</title>
<g id="a_node22"><a xlink:title=" ">
<polygon fill="white" stroke="#bfbfbf" points="2374.21,-235.5 2374.21,-254.5 2416.21,-254.5 2416.21,-235.5 2374.21,-235.5"/>
<text text-anchor="middle" x="2395.21" y="-242.5" font-family="Helvetica,sans-Serif" font-size="10.00">QPair</text>
</a>
</g>
</g>
<!-- Node17&#45;&gt;Node22 -->
<g id="edge22" class="edge">
<title>Node17&#45;&gt;Node22</title>
<path fill="none" stroke="midnightblue" d="M2237.03,-291.43C2267.15,-283.02 2314.55,-269.7 2364.27,-255.24"/>
<polygon fill="midnightblue" stroke="midnightblue" points="2365.29,-258.59 2373.91,-252.43 2363.33,-251.87 2365.29,-258.59"/>
</g>
<!-- Node23 -->
<g id="node23" class="node">
<title>Node23</title>
<g id="a_node23"><a xlink:title=" ">
<polygon fill="white" stroke="#bfbfbf" points="2378.71,-112.5 2378.71,-131.5 2433.71,-131.5 2433.71,-112.5 2378.71,-112.5"/>
<text text-anchor="middle" x="2406.21" y="-119.5" font-family="Helvetica,sans-Serif" font-size="10.00">QVector</text>
</a>
</g>
</g>
<!-- Node17&#45;&gt;Node23 -->
<g id="edge25" class="edge">
<title>Node17&#45;&gt;Node23</title>
<path fill="none" stroke="midnightblue" d="M2145.48,-291.44C2105.29,-282.78 2062.92,-266.08 2080.21,-235 2094.96,-208.49 2113.29,-216.32 2138.21,-199 2156.68,-186.16 2157.7,-177.23 2178.21,-168 2254.14,-133.84 2282.69,-149.01 2368.47,-131.99"/>
<polygon fill="midnightblue" stroke="midnightblue" points="2369.28,-135.4 2378.36,-129.94 2367.86,-128.54 2369.28,-135.4"/>
</g>
<!-- Node24 -->
<g id="node24" class="node">
<title>Node24</title>
<g id="a_node24"><a xlink:href="../../d8/da5/vdomdocument_8h.html" target="_top" xlink:title=" ">
<polygon fill="white" stroke="black" points="769.21,-235.5 769.21,-254.5 871.21,-254.5 871.21,-235.5 769.21,-235.5"/>
<text text-anchor="middle" x="820.21" y="-242.5" font-family="Helvetica,sans-Serif" font-size="10.00">vdomdocument.h</text>
</a>
</g>
</g>
<!-- Node17&#45;&gt;Node24 -->
<g id="edge27" class="edge">
<title>Node17&#45;&gt;Node24</title>
<path fill="none" stroke="midnightblue" d="M2129.8,-291.72C2126.56,-291.46 2123.35,-291.22 2120.21,-291 1644,-257.88 1067.89,-248.77 881.52,-246.61"/>
<polygon fill="midnightblue" stroke="midnightblue" points="881.41,-243.1 871.37,-246.49 881.33,-250.1 881.41,-243.1"/>
</g>
<!-- Node35 -->
<g id="node35" class="node">
<title>Node35</title>
<g id="a_node35"><a xlink:title=" ">
<polygon fill="white" stroke="#bfbfbf" points="1447.21,-174 1447.21,-193 1529.21,-193 1529.21,-174 1447.21,-174"/>
<text text-anchor="middle" x="1488.21" y="-181" font-family="Helvetica,sans-Serif" font-size="10.00">../vmisc/def.h</text>
</a>
</g>
</g>
<!-- Node17&#45;&gt;Node35 -->
<g id="edge48" class="edge">
<title>Node17&#45;&gt;Node35</title>
<path fill="none" stroke="midnightblue" d="M2129.79,-291.82C2126.55,-291.53 2123.35,-291.26 2120.21,-291 2052.54,-285.47 1563.69,-296.82 1510.21,-255 1494.61,-242.81 1489.83,-219.68 1488.48,-203.24"/>
<polygon fill="midnightblue" stroke="midnightblue" points="1491.98,-202.98 1488.01,-193.15 1484.98,-203.3 1491.98,-202.98"/>
</g>
<!-- Node38 -->
<g id="node38" class="node">
<title>Node38</title>
<g id="a_node38"><a xlink:href="../../d9/d47/vtoolrecord_8h.html" target="_top" xlink:title=" ">
<polygon fill="white" stroke="black" points="1519.71,-235.5 1519.71,-254.5 1600.71,-254.5 1600.71,-235.5 1519.71,-235.5"/>
<text text-anchor="middle" x="1560.21" y="-242.5" font-family="Helvetica,sans-Serif" font-size="10.00">vtoolrecord.h</text>
</a>
</g>
</g>
<!-- Node17&#45;&gt;Node38 -->
<g id="edge44" class="edge">
<title>Node17&#45;&gt;Node38</title>
<path fill="none" stroke="midnightblue" d="M2129.79,-291.87C2126.55,-291.57 2123.35,-291.28 2120.21,-291 1897.83,-271.38 1841.06,-279.85 1619.21,-255 1616.5,-254.7 1613.73,-254.36 1610.93,-254"/>
<polygon fill="midnightblue" stroke="midnightblue" points="1611.16,-250.5 1600.78,-252.62 1610.21,-257.44 1611.16,-250.5"/>
</g>
<!-- Node39 -->
<g id="node39" class="node">
<title>Node39</title>
<g id="a_node39"><a xlink:title=" ">
<polygon fill="white" stroke="#bfbfbf" points="2434.71,-235.5 2434.71,-254.5 2573.71,-254.5 2573.71,-235.5 2434.71,-235.5"/>
<text text-anchor="middle" x="2504.21" y="-242.5" font-family="Helvetica,sans-Serif" font-size="10.00">../vwidgets/pen_toolbar.h</text>
</a>
</g>
</g>
<!-- Node17&#45;&gt;Node39 -->
<g id="edge49" class="edge">
<title>Node17&#45;&gt;Node39</title>
<path fill="none" stroke="midnightblue" d="M2253.43,-291.44C2305.96,-281.92 2390.82,-266.55 2447.06,-256.36"/>
<polygon fill="midnightblue" stroke="midnightblue" points="2447.99,-259.74 2457.21,-254.52 2446.75,-252.86 2447.99,-259.74"/>
</g>
<!-- Node40 -->
<g id="node40" class="node">
<title>Node40</title>
<g id="a_node40"><a xlink:href="../../d1/d8d/image__item_8h.html" target="_top" xlink:title=" ">
<polygon fill="white" stroke="black" points="2089.71,-235.5 2089.71,-254.5 2218.71,-254.5 2218.71,-235.5 2089.71,-235.5"/>
<text text-anchor="middle" x="2154.21" y="-242.5" font-family="Helvetica,sans-Serif" font-size="10.00">../../tools/image_item.h</text>
</a>
</g>
</g>
<!-- Node17&#45;&gt;Node40 -->
<g id="edge50" class="edge">
<title>Node17&#45;&gt;Node40</title>
<path fill="none" stroke="midnightblue" d="M2197.62,-291.08C2190.05,-283.22 2178.83,-271.57 2169.69,-262.08"/>
<polygon fill="midnightblue" stroke="midnightblue" points="2172.09,-259.53 2162.63,-254.75 2167.05,-264.38 2172.09,-259.53"/>
</g>
<!-- Node24&#45;&gt;Node8 -->
<g id="edge35" class="edge">
<title>Node24&#45;&gt;Node8</title>
<path fill="none" stroke="midnightblue" d="M871.23,-243.83C994.18,-242.83 1303.73,-236.54 1399.21,-199 1419.81,-190.9 1419.62,-180.04 1438.21,-168 1494.55,-131.51 1565.64,-97.43 1604.53,-79.71"/>
<polygon fill="midnightblue" stroke="midnightblue" points="1606.03,-82.88 1613.7,-75.57 1603.14,-76.5 1606.03,-82.88"/>
</g>
<!-- Node24&#45;&gt;Node11 -->
<g id="edge38" class="edge">
<title>Node24&#45;&gt;Node11</title>
<path fill="none" stroke="midnightblue" d="M769.18,-242.63C611.06,-238.14 138.52,-222.78 116.21,-199 20.91,-97.42 624.9,-72.76 787.6,-68"/>
<polygon fill="midnightblue" stroke="midnightblue" points="787.77,-71.49 797.67,-67.71 787.57,-64.5 787.77,-71.49"/>
</g>
<!-- Node24&#45;&gt;Node18 -->
<g id="edge32" class="edge">
<title>Node24&#45;&gt;Node18</title>
<path fill="none" stroke="midnightblue" d="M769.1,-242.84C624.51,-239.23 214.58,-226.79 83.21,-199 79.96,-198.31 76.61,-197.4 73.32,-196.38"/>
<polygon fill="midnightblue" stroke="midnightblue" points="74.31,-193.01 63.71,-193.03 72.01,-199.62 74.31,-193.01"/>
</g>
<!-- Node25 -->
<g id="node25" class="node">
<title>Node25</title>
<g id="a_node25"><a xlink:title=" ">
<polygon fill="white" stroke="#bfbfbf" points="125.71,-174 125.71,-193 226.71,-193 226.71,-174 125.71,-174"/>
<text text-anchor="middle" x="176.21" y="-181" font-family="Helvetica,sans-Serif" font-size="10.00">QCoreApplication</text>
</a>
</g>
</g>
<!-- Node24&#45;&gt;Node25 -->
<g id="edge28" class="edge">
<title>Node24&#45;&gt;Node25</title>
<path fill="none" stroke="midnightblue" d="M769.11,-242.81C667.18,-239.84 431.56,-229.93 236.21,-199 230.02,-198.02 223.54,-196.73 217.21,-195.33"/>
<polygon fill="midnightblue" stroke="midnightblue" points="218,-191.92 207.47,-193.06 216.41,-198.74 218,-191.92"/>
</g>
<!-- Node26 -->
<g id="node26" class="node">
<title>Node26</title>
<g id="a_node26"><a xlink:title=" ">
<polygon fill="white" stroke="#bfbfbf" points="245.21,-174 245.21,-193 343.21,-193 343.21,-174 245.21,-174"/>
<text text-anchor="middle" x="294.21" y="-181" font-family="Helvetica,sans-Serif" font-size="10.00">QDomDocument</text>
</a>
</g>
</g>
<!-- Node24&#45;&gt;Node26 -->
<g id="edge29" class="edge">
<title>Node24&#45;&gt;Node26</title>
<path fill="none" stroke="midnightblue" d="M768.98,-241.58C682.53,-236.93 502.43,-224.85 352.21,-199 346.44,-198.01 340.4,-196.75 334.49,-195.39"/>
<polygon fill="midnightblue" stroke="midnightblue" points="335.27,-191.98 324.73,-193.04 333.63,-198.78 335.27,-191.98"/>
</g>
<!-- Node27 -->
<g id="node27" class="node">
<title>Node27</title>
<g id="a_node27"><a xlink:title=" ">
<polygon fill="white" stroke="#bfbfbf" points="361.21,-174 361.21,-193 449.21,-193 449.21,-174 361.21,-174"/>
<text text-anchor="middle" x="405.21" y="-181" font-family="Helvetica,sans-Serif" font-size="10.00">QDomElement</text>
</a>
</g>
</g>
<!-- Node24&#45;&gt;Node27 -->
<g id="edge30" class="edge">
<title>Node24&#45;&gt;Node27</title>
<path fill="none" stroke="midnightblue" d="M769.18,-239.98C698.76,-233.9 568.02,-220.73 458.21,-199 453.37,-198.04 448.33,-196.88 443.36,-195.64"/>
<polygon fill="midnightblue" stroke="midnightblue" points="443.92,-192.17 433.36,-193.01 442.14,-198.94 443.92,-192.17"/>
</g>
<!-- Node28 -->
<g id="node28" class="node">
<title>Node28</title>
<g id="a_node28"><a xlink:title=" ">
<polygon fill="white" stroke="#bfbfbf" points="467.71,-174 467.71,-193 540.71,-193 540.71,-174 467.71,-174"/>
<text text-anchor="middle" x="504.21" y="-181" font-family="Helvetica,sans-Serif" font-size="10.00">QDomNode</text>
</a>
</g>
</g>
<!-- Node24&#45;&gt;Node28 -->
<g id="edge31" class="edge">
<title>Node24&#45;&gt;Node28</title>
<path fill="none" stroke="midnightblue" d="M769.06,-237.79C714.24,-230.61 624.87,-217.37 549.21,-199 545.75,-198.16 542.18,-197.19 538.62,-196.16"/>
<polygon fill="midnightblue" stroke="midnightblue" points="539.36,-192.72 528.78,-193.14 537.31,-199.42 539.36,-192.72"/>
</g>
<!-- Node29 -->
<g id="node29" class="node">
<title>Node29</title>
<g id="a_node29"><a xlink:title=" ">
<polygon fill="white" stroke="#bfbfbf" points="558.71,-174 558.71,-193 641.71,-193 641.71,-174 558.71,-174"/>
<text text-anchor="middle" x="600.21" y="-181" font-family="Helvetica,sans-Serif" font-size="10.00">QLatin1String</text>
</a>
</g>
</g>
<!-- Node24&#45;&gt;Node29 -->
<g id="edge33" class="edge">
<title>Node24&#45;&gt;Node29</title>
<path fill="none" stroke="midnightblue" d="M787.45,-235.45C753.37,-226.52 698.48,-212.01 651.21,-199 647.42,-197.96 643.48,-196.86 639.54,-195.76"/>
<polygon fill="midnightblue" stroke="midnightblue" points="640.42,-192.37 629.85,-193.02 638.52,-199.1 640.42,-192.37"/>
</g>
<!-- Node30 -->
<g id="node30" class="node">
<title>Node30</title>
<g id="a_node30"><a xlink:title=" ">
<polygon fill="white" stroke="#bfbfbf" points="660.21,-174 660.21,-193 764.21,-193 764.21,-174 660.21,-174"/>
<text text-anchor="middle" x="712.21" y="-181" font-family="Helvetica,sans-Serif" font-size="10.00">QStaticStringData</text>
</a>
</g>
</g>
<!-- Node24&#45;&gt;Node30 -->
<g id="edge34" class="edge">
<title>Node24&#45;&gt;Node30</title>
<path fill="none" stroke="midnightblue" d="M804.73,-235.48C786.93,-225.67 757.47,-209.43 736.58,-197.92"/>
<polygon fill="midnightblue" stroke="midnightblue" points="738.1,-194.77 727.65,-193.01 734.72,-200.9 738.1,-194.77"/>
</g>
<!-- Node31 -->
<g id="node31" class="node">
<title>Node31</title>
<g id="a_node31"><a xlink:title=" ">
<polygon fill="white" stroke="#bfbfbf" points="782.21,-174 782.21,-193 858.21,-193 858.21,-174 782.21,-174"/>
<text text-anchor="middle" x="820.21" y="-181" font-family="Helvetica,sans-Serif" font-size="10.00">QStringData</text>
</a>
</g>
</g>
<!-- Node24&#45;&gt;Node31 -->
<g id="edge36" class="edge">
<title>Node24&#45;&gt;Node31</title>
<path fill="none" stroke="midnightblue" d="M820.21,-235.48C820.21,-227.08 820.21,-213.98 820.21,-203.16"/>
<polygon fill="midnightblue" stroke="midnightblue" points="823.71,-203.01 820.21,-193.01 816.71,-203.01 823.71,-203.01"/>
</g>
<!-- Node32 -->
<g id="node32" class="node">
<title>Node32</title>
<g id="a_node32"><a xlink:title=" ">
<polygon fill="white" stroke="#bfbfbf" points="876.71,-174 876.71,-193 965.71,-193 965.71,-174 876.71,-174"/>
<text text-anchor="middle" x="921.21" y="-181" font-family="Helvetica,sans-Serif" font-size="10.00">QStringDataPtr</text>
</a>
</g>
</g>
<!-- Node24&#45;&gt;Node32 -->
<g id="edge37" class="edge">
<title>Node24&#45;&gt;Node32</title>
<path fill="none" stroke="midnightblue" d="M834.68,-235.48C851.18,-225.75 878.39,-209.73 897.89,-198.24"/>
<polygon fill="midnightblue" stroke="midnightblue" points="899.92,-201.1 906.76,-193.01 896.37,-195.07 899.92,-201.1"/>
</g>
<!-- Node33 -->
<g id="node33" class="node">
<title>Node33</title>
<g id="a_node33"><a xlink:title=" ">
<polygon fill="white" stroke="#bfbfbf" points="983.21,-174 983.21,-193 1039.21,-193 1039.21,-174 983.21,-174"/>
<text text-anchor="middle" x="1011.21" y="-181" font-family="Helvetica,sans-Serif" font-size="10.00">QLocale</text>
</a>
</g>
</g>
<!-- Node24&#45;&gt;Node33 -->
<g id="edge39" class="edge">
<title>Node24&#45;&gt;Node33</title>
<path fill="none" stroke="midnightblue" d="M852.62,-235.43C883.97,-226.94 932.69,-213.17 974.21,-199 976.33,-198.28 978.51,-197.5 980.7,-196.7"/>
<polygon fill="midnightblue" stroke="midnightblue" points="982.08,-199.92 990.2,-193.11 979.6,-193.37 982.08,-199.92"/>
</g>
<!-- Node34 -->
<g id="node34" class="node">
<title>Node34</title>
<g id="a_node34"><a xlink:title=" ">
<polygon fill="white" stroke="#bfbfbf" points="1057.71,-174 1057.71,-193 1134.71,-193 1134.71,-174 1057.71,-174"/>
<text text-anchor="middle" x="1096.21" y="-181" font-family="Helvetica,sans-Serif" font-size="10.00">../ifc/ifcdef.h</text>
</a>
</g>
</g>
<!-- Node24&#45;&gt;Node34 -->
<g id="edge40" class="edge">
<title>Node24&#45;&gt;Node34</title>
<path fill="none" stroke="midnightblue" d="M870.78,-235.49C917.2,-227.34 987.72,-214.07 1048.21,-199 1052.04,-198.04 1056.02,-196.97 1059.98,-195.85"/>
<polygon fill="midnightblue" stroke="midnightblue" points="1061.06,-199.19 1069.68,-193.02 1059.1,-192.47 1061.06,-199.19"/>
</g>
<!-- Node24&#45;&gt;Node35 -->
<g id="edge41" class="edge">
<title>Node24&#45;&gt;Node35</title>
<path fill="none" stroke="midnightblue" d="M871.45,-243.42C977.18,-241.53 1226.91,-233.46 1433.21,-199 1438.69,-198.08 1444.41,-196.87 1450.01,-195.54"/>
<polygon fill="midnightblue" stroke="midnightblue" points="1451.04,-198.89 1459.88,-193.04 1449.32,-192.1 1451.04,-198.89"/>
</g>
<!-- Node36 -->
<g id="node36" class="node">
<title>Node36</title>
<g id="a_node36"><a xlink:title=" ">
<polygon fill="white" stroke="#bfbfbf" points="1152.71,-174 1152.71,-193 1269.71,-193 1269.71,-174 1152.71,-174"/>
<text text-anchor="middle" x="1211.21" y="-181" font-family="Helvetica,sans-Serif" font-size="10.00">../vmisc/diagnostic.h</text>
</a>
</g>
</g>
<!-- Node24&#45;&gt;Node36 -->
<g id="edge42" class="edge">
<title>Node24&#45;&gt;Node36</title>
<path fill="none" stroke="midnightblue" d="M871.29,-238.03C935.12,-230.31 1047.58,-215.83 1143.21,-199 1149.84,-197.83 1156.8,-196.49 1163.65,-195.09"/>
<polygon fill="midnightblue" stroke="midnightblue" points="1164.46,-198.5 1173.53,-193.04 1163.03,-191.65 1164.46,-198.5"/>
</g>
<!-- Node37 -->
<g id="node37" class="node">
<title>Node37</title>
<g id="a_node37"><a xlink:title=" ">
<polygon fill="white" stroke="#bfbfbf" points="1287.71,-174 1287.71,-193 1390.71,-193 1390.71,-174 1287.71,-174"/>
<text text-anchor="middle" x="1339.21" y="-181" font-family="Helvetica,sans-Serif" font-size="10.00">../vmisc/logging.h</text>
</a>
</g>
</g>
<!-- Node24&#45;&gt;Node37 -->
<g id="edge43" class="edge">
<title>Node24&#45;&gt;Node37</title>
<path fill="none" stroke="midnightblue" d="M871.33,-241.24C956.27,-236.16 1131.63,-223.51 1278.21,-199 1284.19,-198 1290.46,-196.75 1296.61,-195.4"/>
<polygon fill="midnightblue" stroke="midnightblue" points="1297.8,-198.72 1306.77,-193.07 1296.24,-191.9 1297.8,-198.72"/>
</g>
<!-- Node38&#45;&gt;Node8 -->
<g id="edge45" class="edge">
<title>Node38&#45;&gt;Node8</title>
<path fill="none" stroke="midnightblue" d="M1563.73,-235.46C1574.97,-208.19 1610.2,-122.78 1625.73,-85.13"/>
<polygon fill="midnightblue" stroke="midnightblue" points="1628.97,-86.45 1629.55,-75.87 1622.5,-83.78 1628.97,-86.45"/>
</g>
<!-- Node38&#45;&gt;Node11 -->
<g id="edge46" class="edge">
<title>Node38&#45;&gt;Node11</title>
<path fill="none" stroke="midnightblue" d="M1560.5,-235.37C1560.54,-219.4 1558.12,-185.29 1538.21,-168 1436.7,-79.85 1001.64,-68.54 867.05,-67.17"/>
<polygon fill="midnightblue" stroke="midnightblue" points="866.82,-63.66 856.79,-67.08 866.75,-70.66 866.82,-63.66"/>
</g>
<!-- Node38&#45;&gt;Node35 -->
<g id="edge47" class="edge">
<title>Node38&#45;&gt;Node35</title>
<path fill="none" stroke="midnightblue" d="M1549.89,-235.48C1538.56,-226.11 1520.13,-210.88 1506.37,-199.51"/>
<polygon fill="midnightblue" stroke="midnightblue" points="1508.44,-196.68 1498.5,-193.01 1503.98,-202.08 1508.44,-196.68"/>
</g>
<!-- Node40&#45;&gt;Node4 -->
<g id="edge52" class="edge">
<title>Node40&#45;&gt;Node4</title>
<path fill="none" stroke="midnightblue" d="M2210.53,-235.49C2273.7,-225.69 2372.05,-209.57 2408.21,-199 2466,-182.1 2530.32,-152.78 2565.22,-135.92"/>
<polygon fill="midnightblue" stroke="midnightblue" points="2566.8,-139.05 2574.25,-131.52 2563.73,-132.76 2566.8,-139.05"/>
</g>
<!-- Node40&#45;&gt;Node5 -->
<g id="edge51" class="edge">
<title>Node40&#45;&gt;Node5</title>
<path fill="none" stroke="midnightblue" d="M2217.69,-235.5C2301.16,-224.21 2439.98,-204.99 2463.21,-199 2545.06,-177.9 2562.2,-162.06 2641.21,-132 2689.21,-113.74 2744.77,-92.31 2778.69,-79.2"/>
<polygon fill="midnightblue" stroke="midnightblue" points="2780.02,-82.44 2788.08,-75.57 2777.49,-75.91 2780.02,-82.44"/>
</g>
<!-- Node40&#45;&gt;Node8 -->
<g id="edge65" class="edge">
<title>Node40&#45;&gt;Node8</title>
<path fill="none" stroke="midnightblue" d="M2089.34,-242.87C1993.73,-238.22 1813.05,-217.71 1690.21,-132 1671.63,-119.04 1655.14,-98.76 1644.74,-84.31"/>
<polygon fill="midnightblue" stroke="midnightblue" points="1647.4,-82 1638.82,-75.78 1641.65,-85.99 1647.4,-82"/>
</g>
<!-- Node40&#45;&gt;Node20 -->
<g id="edge63" class="edge">
<title>Node40&#45;&gt;Node20</title>
<path fill="none" stroke="midnightblue" d="M2218.72,-235.73C2261.09,-228.96 2317.17,-217.43 2364.21,-199 2404.96,-183.03 2447.81,-154.93 2472.15,-137.73"/>
<polygon fill="midnightblue" stroke="midnightblue" points="2474.44,-140.4 2480.53,-131.73 2470.36,-134.71 2474.44,-140.4"/>
</g>
<!-- Node40&#45;&gt;Node23 -->
<g id="edge67" class="edge">
<title>Node40&#45;&gt;Node23</title>
<path fill="none" stroke="midnightblue" d="M2158.47,-235.37C2166.83,-219.4 2186.95,-185.29 2214.21,-168 2271.36,-131.74 2298.07,-146.89 2368.57,-132.01"/>
<polygon fill="midnightblue" stroke="midnightblue" points="2369.34,-135.42 2378.33,-129.81 2367.81,-128.59 2369.34,-135.42"/>
</g>
<!-- Node41 -->
<g id="node41" class="node">
<title>Node41</title>
<g id="a_node41"><a xlink:href="../../db/d8d/resize__handle_8h.html" target="_top" xlink:title=" ">
<polygon fill="white" stroke="black" points="2027.21,-168.5 2027.21,-198.5 2129.21,-198.5 2129.21,-168.5 2027.21,-168.5"/>
<text text-anchor="start" x="2035.21" y="-186.5" font-family="Helvetica,sans-Serif" font-size="10.00">../vwidgets/resize</text>
<text text-anchor="middle" x="2078.21" y="-175.5" font-family="Helvetica,sans-Serif" font-size="10.00">_handle.h</text>
</a>
</g>
</g>
<!-- Node40&#45;&gt;Node41 -->
<g id="edge53" class="edge">
<title>Node40&#45;&gt;Node41</title>
<path fill="none" stroke="midnightblue" d="M2143.32,-235.48C2133.12,-227.49 2117.49,-215.25 2104.1,-204.77"/>
<polygon fill="midnightblue" stroke="midnightblue" points="2106.15,-201.93 2096.12,-198.52 2101.84,-207.44 2106.15,-201.93"/>
</g>
<!-- Node43 -->
<g id="node43" class="node">
<title>Node43</title>
<g id="a_node43"><a xlink:title=" ">
<polygon fill="white" stroke="#bfbfbf" points="1699.71,-112.5 1699.71,-131.5 1788.71,-131.5 1788.71,-112.5 1699.71,-112.5"/>
<text text-anchor="middle" x="1744.21" y="-119.5" font-family="Helvetica,sans-Serif" font-size="10.00">QGraphicsItem</text>
</a>
</g>
</g>
<!-- Node40&#45;&gt;Node43 -->
<g id="edge69" class="edge">
<title>Node40&#45;&gt;Node43</title>
<path fill="none" stroke="midnightblue" d="M2116.33,-235.44C2088.17,-228.15 2049.38,-216.11 2018.21,-199 1999.1,-188.51 1999.96,-177.21 1980.21,-168 1971.98,-164.16 1865.84,-144.74 1798.73,-132.7"/>
<polygon fill="midnightblue" stroke="midnightblue" points="1799.18,-129.23 1788.72,-130.91 1797.95,-136.12 1799.18,-129.23"/>
</g>
<!-- Node48 -->
<g id="node48" class="node">
<title>Node48</title>
<g id="a_node48"><a xlink:title=" ">
<polygon fill="white" stroke="#bfbfbf" points="2223.71,-174 2223.71,-193 2278.71,-193 2278.71,-174 2223.71,-174"/>
<text text-anchor="middle" x="2251.21" y="-181" font-family="Helvetica,sans-Serif" font-size="10.00">QPointF</text>
</a>
</g>
</g>
<!-- Node40&#45;&gt;Node48 -->
<g id="edge64" class="edge">
<title>Node40&#45;&gt;Node48</title>
<path fill="none" stroke="midnightblue" d="M2168.1,-235.48C2183.88,-225.8 2209.84,-209.87 2228.56,-198.39"/>
<polygon fill="midnightblue" stroke="midnightblue" points="2230.64,-201.22 2237.34,-193.01 2226.98,-195.25 2230.64,-201.22"/>
</g>
<!-- Node49 -->
<g id="node49" class="node">
<title>Node49</title>
<g id="a_node49"><a xlink:title=" ">
<polygon fill="white" stroke="#bfbfbf" points="2296.71,-174 2296.71,-193 2355.71,-193 2355.71,-174 2296.71,-174"/>
<text text-anchor="middle" x="2326.21" y="-181" font-family="Helvetica,sans-Serif" font-size="10.00">QVariant</text>
</a>
</g>
</g>
<!-- Node40&#45;&gt;Node49 -->
<g id="edge66" class="edge">
<title>Node40&#45;&gt;Node49</title>
<path fill="none" stroke="midnightblue" d="M2180.28,-235.43C2207.15,-226.54 2250.22,-212.13 2287.21,-199 2289.45,-198.2 2291.76,-197.37 2294.08,-196.53"/>
<polygon fill="midnightblue" stroke="midnightblue" points="2295.38,-199.78 2303.56,-193.05 2292.97,-193.21 2295.38,-199.78"/>
</g>
<!-- Node50 -->
<g id="node50" class="node">
<title>Node50</title>
<g id="a_node50"><a xlink:title=" ">
<polygon fill="white" stroke="#bfbfbf" points="1873.21,-174 1873.21,-193 1971.21,-193 1971.21,-174 1873.21,-174"/>
<text text-anchor="middle" x="1922.21" y="-181" font-family="Helvetica,sans-Serif" font-size="10.00">QtCore/qglobal.h</text>
</a>
</g>
</g>
<!-- Node40&#45;&gt;Node50 -->
<g id="edge68" class="edge">
<title>Node40&#45;&gt;Node50</title>
<path fill="none" stroke="midnightblue" d="M2120.97,-235.48C2079.96,-224.96 2010.18,-207.06 1965.15,-195.51"/>
<polygon fill="midnightblue" stroke="midnightblue" points="1965.94,-192.1 1955.39,-193.01 1964.2,-198.88 1965.94,-192.1"/>
</g>
<!-- Node41&#45;&gt;Node4 -->
<g id="edge54" class="edge">
<title>Node41&#45;&gt;Node4</title>
<path fill="none" stroke="midnightblue" d="M2129.48,-177C2237.37,-165.43 2482.09,-139.1 2540.05,-131.95"/>
<polygon fill="midnightblue" stroke="midnightblue" points="2540.58,-135.41 2550.04,-130.64 2539.67,-128.47 2540.58,-135.41"/>
</g>
<!-- Node41&#45;&gt;Node20 -->
<g id="edge60" class="edge">
<title>Node41&#45;&gt;Node20</title>
<path fill="none" stroke="midnightblue" d="M2129.24,-176.08C2199.74,-167.06 2330.85,-149.74 2442.21,-132 2442.31,-131.98 2442.41,-131.97 2442.51,-131.95"/>
<polygon fill="midnightblue" stroke="midnightblue" points="2442.82,-135.45 2452.11,-130.36 2441.68,-128.54 2442.82,-135.45"/>
</g>
<!-- Node41&#45;&gt;Node23 -->
<g id="edge62" class="edge">
<title>Node41&#45;&gt;Node23</title>
<path fill="none" stroke="midnightblue" d="M2129.24,-170.8C2133.95,-169.82 2138.66,-168.87 2143.21,-168 2239.99,-149.51 2267.77,-151.86 2368.41,-132.01"/>
<polygon fill="midnightblue" stroke="midnightblue" points="2369.26,-135.41 2378.38,-130.02 2367.89,-128.55 2369.26,-135.41"/>
</g>
<!-- Node42 -->
<g id="node42" class="node">
<title>Node42</title>
<g id="a_node42"><a xlink:title=" ">
<polygon fill="white" stroke="#bfbfbf" points="2310.21,-112.5 2310.21,-131.5 2360.21,-131.5 2360.21,-112.5 2310.21,-112.5"/>
<text text-anchor="middle" x="2335.21" y="-119.5" font-family="Helvetica,sans-Serif" font-size="10.00">QColor</text>
</a>
</g>
</g>
<!-- Node41&#45;&gt;Node42 -->
<g id="edge55" class="edge">
<title>Node41&#45;&gt;Node42</title>
<path fill="none" stroke="midnightblue" d="M2129.39,-171.01C2183.79,-158.79 2265.77,-140.32 2300.23,-132.14"/>
<polygon fill="midnightblue" stroke="midnightblue" points="2301.08,-135.53 2309.98,-129.79 2299.44,-128.73 2301.08,-135.53"/>
</g>
<!-- Node41&#45;&gt;Node43 -->
<g id="edge56" class="edge">
<title>Node41&#45;&gt;Node43</title>
<path fill="none" stroke="midnightblue" d="M2027.17,-170.84C2022.45,-169.85 2017.75,-168.88 2013.21,-168 1920.85,-150.02 1894.89,-148.25 1798.88,-132.27"/>
<polygon fill="midnightblue" stroke="midnightblue" points="1799.18,-128.77 1788.74,-130.57 1798.02,-135.67 1799.18,-128.77"/>
</g>
<!-- Node44 -->
<g id="node44" class="node">
<title>Node44</title>
<g id="a_node44"><a xlink:title=" ">
<polygon fill="white" stroke="#bfbfbf" points="1806.71,-112.5 1806.71,-131.5 1959.71,-131.5 1959.71,-112.5 1806.71,-112.5"/>
<text text-anchor="middle" x="1883.21" y="-119.5" font-family="Helvetica,sans-Serif" font-size="10.00">QGraphicsSceneHoverEvent</text>
</a>
</g>
</g>
<!-- Node41&#45;&gt;Node44 -->
<g id="edge57" class="edge">
<title>Node41&#45;&gt;Node44</title>
<path fill="none" stroke="midnightblue" d="M2031.99,-168.4C1998.15,-158.07 1952.79,-144.23 1921.08,-134.56"/>
<polygon fill="midnightblue" stroke="midnightblue" points="1921.88,-131.14 1911.3,-131.57 1919.84,-137.84 1921.88,-131.14"/>
</g>
<!-- Node45 -->
<g id="node45" class="node">
<title>Node45</title>
<g id="a_node45"><a xlink:title=" ">
<polygon fill="white" stroke="#bfbfbf" points="1978.21,-112.5 1978.21,-131.5 2134.21,-131.5 2134.21,-112.5 1978.21,-112.5"/>
<text text-anchor="middle" x="2056.21" y="-119.5" font-family="Helvetica,sans-Serif" font-size="10.00">QGraphicsSceneMouseEvent</text>
</a>
</g>
</g>
<!-- Node41&#45;&gt;Node45 -->
<g id="edge58" class="edge">
<title>Node41&#45;&gt;Node45</title>
<path fill="none" stroke="midnightblue" d="M2072.99,-168.4C2069.99,-160.29 2066.19,-150.01 2062.97,-141.28"/>
<polygon fill="midnightblue" stroke="midnightblue" points="2066.16,-139.82 2059.41,-131.66 2059.59,-142.25 2066.16,-139.82"/>
</g>
<!-- Node46 -->
<g id="node46" class="node">
<title>Node46</title>
<g id="a_node46"><a xlink:title=" ">
<polygon fill="white" stroke="#bfbfbf" points="2152.21,-112.5 2152.21,-131.5 2222.21,-131.5 2222.21,-112.5 2152.21,-112.5"/>
<text text-anchor="middle" x="2187.21" y="-119.5" font-family="Helvetica,sans-Serif" font-size="10.00">QKeyEvent</text>
</a>
</g>
</g>
<!-- Node41&#45;&gt;Node46 -->
<g id="edge59" class="edge">
<title>Node41&#45;&gt;Node46</title>
<path fill="none" stroke="midnightblue" d="M2104.04,-168.4C2121.67,-158.77 2144.91,-146.09 2162.33,-136.58"/>
<polygon fill="midnightblue" stroke="midnightblue" points="2164.25,-139.52 2171.35,-131.66 2160.89,-133.38 2164.25,-139.52"/>
</g>
<!-- Node47 -->
<g id="node47" class="node">
<title>Node47</title>
<g id="a_node47"><a xlink:title=" ">
<polygon fill="white" stroke="#bfbfbf" points="2240.21,-112.5 2240.21,-131.5 2292.21,-131.5 2292.21,-112.5 2240.21,-112.5"/>
<text text-anchor="middle" x="2266.21" y="-119.5" font-family="Helvetica,sans-Serif" font-size="10.00">QRectF</text>
</a>
</g>
</g>
<!-- Node41&#45;&gt;Node47 -->
<g id="edge61" class="edge">
<title>Node41&#45;&gt;Node47</title>
<path fill="none" stroke="midnightblue" d="M2122.76,-168.4C2155.54,-158.03 2199.53,-144.1 2230.12,-134.42"/>
<polygon fill="midnightblue" stroke="midnightblue" points="2231.47,-137.67 2239.94,-131.31 2229.35,-130.99 2231.47,-137.67"/>
</g>
</g>
</svg>
