<?xml version="1.0" encoding="UTF-8" standalone="no"?>
<!DOCTYPE svg PUBLIC "-//W3C//DTD SVG 1.1//EN"
 "http://www.w3.org/Graphics/SVG/1.1/DTD/svg11.dtd">
<!-- Generated by graphviz version 2.43.0 (0)
 -->
<!-- Title: src/libs/vtools/dialogs/support/edit_formula_dialog.h Pages: 1 -->
<svg width="4053pt" height="128pt"
 viewBox="0.00 0.00 4052.50 128.00" xmlns="http://www.w3.org/2000/svg" xmlns:xlink="http://www.w3.org/1999/xlink">
<g id="graph0" class="graph" transform="scale(1 1) rotate(0) translate(4 124)">
<title>src/libs/vtools/dialogs/support/edit_formula_dialog.h</title>
<polygon fill="white" stroke="transparent" points="-4,4 -4,-124 4048.5,-124 4048.5,4 -4,4"/>
<!-- Node1 -->
<g id="node1" class="node">
<title>Node1</title>
<g id="a_node1"><a xlink:title=" ">
<polygon fill="#bfbfbf" stroke="black" points="1932,-78.5 1932,-119.5 2054,-119.5 2054,-78.5 1932,-78.5"/>
<text text-anchor="start" x="1940" y="-107.5" font-family="Helvetica,sans-Serif" font-size="10.00">src/libs/vtools/dialogs</text>
<text text-anchor="start" x="1940" y="-96.5" font-family="Helvetica,sans-Serif" font-size="10.00">/support/edit_formula</text>
<text text-anchor="middle" x="1993" y="-85.5" font-family="Helvetica,sans-Serif" font-size="10.00">_dialog.h</text>
</a>
</g>
</g>
<!-- Node2 -->
<g id="node2" class="node">
<title>Node2</title>
<g id="a_node2"><a xlink:href="../../d7/d8d/edit__formula__dialog_8cpp.html" target="_top" xlink:title=" ">
<polygon fill="white" stroke="black" points="0,-0.5 0,-41.5 122,-41.5 122,-0.5 0,-0.5"/>
<text text-anchor="start" x="8" y="-29.5" font-family="Helvetica,sans-Serif" font-size="10.00">src/libs/vtools/dialogs</text>
<text text-anchor="start" x="8" y="-18.5" font-family="Helvetica,sans-Serif" font-size="10.00">/support/edit_formula</text>
<text text-anchor="middle" x="61" y="-7.5" font-family="Helvetica,sans-Serif" font-size="10.00">_dialog.cpp</text>
</a>
</g>
</g>
<!-- Node1&#45;&gt;Node2 -->
<g id="edge1" class="edge">
<title>Node1&#45;&gt;Node2</title>
<path fill="none" stroke="midnightblue" d="M1921.44,-98.22C1624.13,-98.75 485.52,-97.1 131,-42 128.13,-41.55 125.21,-41.03 122.27,-40.44"/>
<polygon fill="midnightblue" stroke="midnightblue" points="1921.66,-101.72 1931.66,-98.2 1921.65,-94.72 1921.66,-101.72"/>
</g>
<!-- Node3 -->
<g id="node3" class="node">
<title>Node3</title>
<g id="a_node3"><a xlink:href="../../d6/d5d/dialogalongline_8cpp.html" target="_top" xlink:title=" ">
<polygon fill="white" stroke="black" points="140,-6 140,-36 282,-36 282,-6 140,-6"/>
<text text-anchor="start" x="148" y="-24" font-family="Helvetica,sans-Serif" font-size="10.00">src/libs/vtools/dialogs</text>
<text text-anchor="middle" x="211" y="-13" font-family="Helvetica,sans-Serif" font-size="10.00">/tools/dialogalongline.cpp</text>
</a>
</g>
</g>
<!-- Node1&#45;&gt;Node3 -->
<g id="edge2" class="edge">
<title>Node1&#45;&gt;Node3</title>
<path fill="none" stroke="midnightblue" d="M1921.67,-97.67C1641.15,-96.05 613.48,-87.09 291,-42 280.93,-40.59 270.3,-38.43 260.18,-36.03"/>
<polygon fill="midnightblue" stroke="midnightblue" points="1921.7,-101.17 1931.72,-97.72 1921.74,-94.17 1921.7,-101.17"/>
</g>
<!-- Node4 -->
<g id="node4" class="node">
<title>Node4</title>
<g id="a_node4"><a xlink:href="../../d1/d37/dialogarc_8cpp.html" target="_top" xlink:title=" ">
<polygon fill="white" stroke="black" points="300,-6 300,-36 422,-36 422,-6 300,-6"/>
<text text-anchor="start" x="308" y="-24" font-family="Helvetica,sans-Serif" font-size="10.00">src/libs/vtools/dialogs</text>
<text text-anchor="middle" x="361" y="-13" font-family="Helvetica,sans-Serif" font-size="10.00">/tools/dialogarc.cpp</text>
</a>
</g>
</g>
<!-- Node1&#45;&gt;Node4 -->
<g id="edge3" class="edge">
<title>Node1&#45;&gt;Node4</title>
<path fill="none" stroke="midnightblue" d="M1921.41,-97.73C1655.36,-96.39 723.91,-88.39 431,-42 422.14,-40.6 412.81,-38.43 403.95,-36.04"/>
<polygon fill="midnightblue" stroke="midnightblue" points="1921.7,-101.24 1931.71,-97.78 1921.73,-94.24 1921.7,-101.24"/>
</g>
<!-- Node5 -->
<g id="node5" class="node">
<title>Node5</title>
<g id="a_node5"><a xlink:href="../../d2/d29/dialogarcwithlength_8cpp.html" target="_top" xlink:title=" ">
<polygon fill="white" stroke="black" points="440,-6 440,-36 604,-36 604,-6 440,-6"/>
<text text-anchor="start" x="448" y="-24" font-family="Helvetica,sans-Serif" font-size="10.00">src/libs/vtools/dialogs</text>
<text text-anchor="middle" x="522" y="-13" font-family="Helvetica,sans-Serif" font-size="10.00">/tools/dialogarcwithlength.cpp</text>
</a>
</g>
</g>
<!-- Node1&#45;&gt;Node5 -->
<g id="edge4" class="edge">
<title>Node1&#45;&gt;Node5</title>
<path fill="none" stroke="midnightblue" d="M1921.76,-96.76C1676.79,-92.26 870,-75.19 613,-42 601.77,-40.55 589.88,-38.4 578.52,-36.03"/>
<polygon fill="midnightblue" stroke="midnightblue" points="1921.9,-100.27 1931.97,-96.95 1922.03,-93.27 1921.9,-100.27"/>
</g>
<!-- Node6 -->
<g id="node6" class="node">
<title>Node6</title>
<g id="a_node6"><a xlink:href="../../da/dfa/dialogbisector_8cpp.html" target="_top" xlink:title=" ">
<polygon fill="white" stroke="black" points="622.5,-6 622.5,-36 757.5,-36 757.5,-6 622.5,-6"/>
<text text-anchor="start" x="630.5" y="-24" font-family="Helvetica,sans-Serif" font-size="10.00">src/libs/vtools/dialogs</text>
<text text-anchor="middle" x="690" y="-13" font-family="Helvetica,sans-Serif" font-size="10.00">/tools/dialogbisector.cpp</text>
</a>
</g>
</g>
<!-- Node1&#45;&gt;Node6 -->
<g id="edge5" class="edge">
<title>Node1&#45;&gt;Node6</title>
<path fill="none" stroke="midnightblue" d="M1921.68,-96.73C1694.74,-92.37 991.13,-76.36 766,-42 756.56,-40.56 746.6,-38.41 737.11,-36.05"/>
<polygon fill="midnightblue" stroke="midnightblue" points="1921.73,-100.23 1931.8,-96.92 1921.87,-93.23 1921.73,-100.23"/>
</g>
<!-- Node7 -->
<g id="node7" class="node">
<title>Node7</title>
<g id="a_node7"><a xlink:href="../../dd/d39/dialogcurveintersectaxis_8cpp.html" target="_top" xlink:title=" ">
<polygon fill="white" stroke="black" points="775.5,-6 775.5,-36 962.5,-36 962.5,-6 775.5,-6"/>
<text text-anchor="start" x="783.5" y="-24" font-family="Helvetica,sans-Serif" font-size="10.00">src/libs/vtools/dialogs</text>
<text text-anchor="middle" x="869" y="-13" font-family="Helvetica,sans-Serif" font-size="10.00">/tools/dialogcurveintersectaxis.cpp</text>
</a>
</g>
</g>
<!-- Node1&#45;&gt;Node7 -->
<g id="edge6" class="edge">
<title>Node1&#45;&gt;Node7</title>
<path fill="none" stroke="midnightblue" d="M1921.62,-97.44C1754.79,-95.4 1326.62,-85.94 972,-42 959.62,-40.47 946.49,-38.32 933.89,-36"/>
<polygon fill="midnightblue" stroke="midnightblue" points="1921.71,-100.94 1931.75,-97.56 1921.79,-93.94 1921.71,-100.94"/>
</g>
<!-- Node8 -->
<g id="node8" class="node">
<title>Node8</title>
<g id="a_node8"><a xlink:href="../../df/ded/tooldialogs_8h.html" target="_top" xlink:title=" ">
<polygon fill="white" stroke="black" points="981,-6 981,-36 1103,-36 1103,-6 981,-6"/>
<text text-anchor="start" x="989" y="-24" font-family="Helvetica,sans-Serif" font-size="10.00">src/libs/vtools/dialogs</text>
<text text-anchor="middle" x="1042" y="-13" font-family="Helvetica,sans-Serif" font-size="10.00">/tooldialogs.h</text>
</a>
</g>
</g>
<!-- Node1&#45;&gt;Node8 -->
<g id="edge7" class="edge">
<title>Node1&#45;&gt;Node8</title>
<path fill="none" stroke="midnightblue" d="M1921.82,-98.63C1771.2,-98.83 1409.67,-93.37 1112,-42 1103.41,-40.52 1094.36,-38.38 1085.73,-36.05"/>
<polygon fill="midnightblue" stroke="midnightblue" points="1921.87,-102.13 1931.86,-98.61 1921.85,-95.13 1921.87,-102.13"/>
</g>
<!-- Node9 -->
<g id="node9" class="node">
<title>Node9</title>
<g id="a_node9"><a xlink:href="../../d9/d90/dialogcutarc_8cpp.html" target="_top" xlink:title=" ">
<polygon fill="white" stroke="black" points="1121.5,-6 1121.5,-36 1248.5,-36 1248.5,-6 1121.5,-6"/>
<text text-anchor="start" x="1129.5" y="-24" font-family="Helvetica,sans-Serif" font-size="10.00">src/libs/vtools/dialogs</text>
<text text-anchor="middle" x="1185" y="-13" font-family="Helvetica,sans-Serif" font-size="10.00">/tools/dialogcutarc.cpp</text>
</a>
</g>
</g>
<!-- Node1&#45;&gt;Node9 -->
<g id="edge8" class="edge">
<title>Node1&#45;&gt;Node9</title>
<path fill="none" stroke="midnightblue" d="M1921.53,-97.18C1789.36,-94.63 1498.18,-84.26 1257,-42 1248.31,-40.48 1239.16,-38.35 1230.4,-36.05"/>
<polygon fill="midnightblue" stroke="midnightblue" points="1921.86,-100.68 1931.92,-97.36 1921.98,-93.68 1921.86,-100.68"/>
</g>
<!-- Node10 -->
<g id="node10" class="node">
<title>Node10</title>
<g id="a_node10"><a xlink:href="../../d3/d2e/dialogcutspline_8cpp.html" target="_top" xlink:title=" ">
<polygon fill="white" stroke="black" points="1266.5,-6 1266.5,-36 1407.5,-36 1407.5,-6 1266.5,-6"/>
<text text-anchor="start" x="1274.5" y="-24" font-family="Helvetica,sans-Serif" font-size="10.00">src/libs/vtools/dialogs</text>
<text text-anchor="middle" x="1337" y="-13" font-family="Helvetica,sans-Serif" font-size="10.00">/tools/dialogcutspline.cpp</text>
</a>
</g>
</g>
<!-- Node1&#45;&gt;Node10 -->
<g id="edge9" class="edge">
<title>Node1&#45;&gt;Node10</title>
<path fill="none" stroke="midnightblue" d="M1921.4,-94.45C1812.03,-88.27 1597.08,-73.09 1417,-42 1407.69,-40.39 1397.86,-38.28 1388.4,-36.04"/>
<polygon fill="midnightblue" stroke="midnightblue" points="1921.47,-97.96 1931.65,-95.02 1921.86,-90.97 1921.47,-97.96"/>
</g>
<!-- Node11 -->
<g id="node11" class="node">
<title>Node11</title>
<g id="a_node11"><a xlink:href="../../d9/d68/dialogellipticalarc_8cpp.html" target="_top" xlink:title=" ">
<polygon fill="white" stroke="black" points="1426,-6 1426,-36 1580,-36 1580,-6 1426,-6"/>
<text text-anchor="start" x="1434" y="-24" font-family="Helvetica,sans-Serif" font-size="10.00">src/libs/vtools/dialogs</text>
<text text-anchor="middle" x="1503" y="-13" font-family="Helvetica,sans-Serif" font-size="10.00">/tools/dialogellipticalarc.cpp</text>
</a>
</g>
</g>
<!-- Node1&#45;&gt;Node11 -->
<g id="edge10" class="edge">
<title>Node1&#45;&gt;Node11</title>
<path fill="none" stroke="midnightblue" d="M1921.73,-90.1C1840.76,-80.68 1704.85,-63.45 1589,-42 1579.65,-40.27 1569.79,-38.2 1560.21,-36.07"/>
<polygon fill="midnightblue" stroke="midnightblue" points="1921.47,-93.6 1931.81,-91.27 1922.28,-86.64 1921.47,-93.6"/>
</g>
<!-- Node12 -->
<g id="node12" class="node">
<title>Node12</title>
<g id="a_node12"><a xlink:href="../../df/d30/dialogcutsplinepath_8cpp.html" target="_top" xlink:title=" ">
<polygon fill="white" stroke="black" points="1598.5,-6 1598.5,-36 1761.5,-36 1761.5,-6 1598.5,-6"/>
<text text-anchor="start" x="1606.5" y="-24" font-family="Helvetica,sans-Serif" font-size="10.00">src/libs/vtools/dialogs</text>
<text text-anchor="middle" x="1680" y="-13" font-family="Helvetica,sans-Serif" font-size="10.00">/tools/dialogcutsplinepath.cpp</text>
</a>
</g>
</g>
<!-- Node1&#45;&gt;Node12 -->
<g id="edge11" class="edge">
<title>Node1&#45;&gt;Node12</title>
<path fill="none" stroke="midnightblue" d="M1922.11,-80.79C1866.4,-67.26 1789.79,-48.66 1737.77,-36.03"/>
<polygon fill="midnightblue" stroke="midnightblue" points="1921.36,-84.21 1931.91,-83.17 1923.02,-77.41 1921.36,-84.21"/>
</g>
<!-- Node13 -->
<g id="node13" class="node">
<title>Node13</title>
<g id="a_node13"><a xlink:href="../../d3/d15/dialogendline_8cpp.html" target="_top" xlink:title=" ">
<polygon fill="white" stroke="black" points="1779.5,-6 1779.5,-36 1912.5,-36 1912.5,-6 1779.5,-6"/>
<text text-anchor="start" x="1787.5" y="-24" font-family="Helvetica,sans-Serif" font-size="10.00">src/libs/vtools/dialogs</text>
<text text-anchor="middle" x="1846" y="-13" font-family="Helvetica,sans-Serif" font-size="10.00">/tools/dialogendline.cpp</text>
</a>
</g>
</g>
<!-- Node1&#45;&gt;Node13 -->
<g id="edge12" class="edge">
<title>Node1&#45;&gt;Node13</title>
<path fill="none" stroke="midnightblue" d="M1946.21,-73.81C1922.26,-61.43 1893.93,-46.78 1873.51,-36.23"/>
<polygon fill="midnightblue" stroke="midnightblue" points="1944.65,-76.94 1955.14,-78.43 1947.87,-70.73 1944.65,-76.94"/>
</g>
<!-- Node14 -->
<g id="node14" class="node">
<title>Node14</title>
<g id="a_node14"><a xlink:href="../../d2/d51/dialogmove_8cpp.html" target="_top" xlink:title=" ">
<polygon fill="white" stroke="black" points="1930.5,-6 1930.5,-36 2055.5,-36 2055.5,-6 1930.5,-6"/>
<text text-anchor="start" x="1938.5" y="-24" font-family="Helvetica,sans-Serif" font-size="10.00">src/libs/vtools/dialogs</text>
<text text-anchor="middle" x="1993" y="-13" font-family="Helvetica,sans-Serif" font-size="10.00">/tools/dialogmove.cpp</text>
</a>
</g>
</g>
<!-- Node1&#45;&gt;Node14 -->
<g id="edge13" class="edge">
<title>Node1&#45;&gt;Node14</title>
<path fill="none" stroke="midnightblue" d="M1993,-68.28C1993,-57.25 1993,-45.25 1993,-36.23"/>
<polygon fill="midnightblue" stroke="midnightblue" points="1989.5,-68.43 1993,-78.43 1996.5,-68.43 1989.5,-68.43"/>
</g>
<!-- Node15 -->
<g id="node15" class="node">
<title>Node15</title>
<g id="a_node15"><a xlink:href="../../da/df4/dialognormal_8cpp.html" target="_top" xlink:title=" ">
<polygon fill="white" stroke="black" points="2073.5,-6 2073.5,-36 2204.5,-36 2204.5,-6 2073.5,-6"/>
<text text-anchor="start" x="2081.5" y="-24" font-family="Helvetica,sans-Serif" font-size="10.00">src/libs/vtools/dialogs</text>
<text text-anchor="middle" x="2139" y="-13" font-family="Helvetica,sans-Serif" font-size="10.00">/tools/dialognormal.cpp</text>
</a>
</g>
</g>
<!-- Node1&#45;&gt;Node15 -->
<g id="edge14" class="edge">
<title>Node1&#45;&gt;Node15</title>
<path fill="none" stroke="midnightblue" d="M2039.48,-73.81C2063.26,-61.43 2091.4,-46.78 2111.67,-36.23"/>
<polygon fill="midnightblue" stroke="midnightblue" points="2037.85,-70.71 2030.6,-78.43 2041.08,-76.92 2037.85,-70.71"/>
</g>
<!-- Node16 -->
<g id="node16" class="node">
<title>Node16</title>
<g id="a_node16"><a xlink:href="../../de/d3c/dialoglineintersectaxis_8cpp.html" target="_top" xlink:title=" ">
<polygon fill="white" stroke="black" points="2223,-6 2223,-36 2401,-36 2401,-6 2223,-6"/>
<text text-anchor="start" x="2231" y="-24" font-family="Helvetica,sans-Serif" font-size="10.00">src/libs/vtools/dialogs</text>
<text text-anchor="middle" x="2312" y="-13" font-family="Helvetica,sans-Serif" font-size="10.00">/tools/dialoglineintersectaxis.cpp</text>
</a>
</g>
</g>
<!-- Node1&#45;&gt;Node16 -->
<g id="edge15" class="edge">
<title>Node1&#45;&gt;Node16</title>
<path fill="none" stroke="midnightblue" d="M2064.13,-81.05C2121.04,-67.5 2199.87,-48.71 2253.23,-36"/>
<polygon fill="midnightblue" stroke="midnightblue" points="2063.05,-77.71 2054.13,-83.44 2064.67,-84.52 2063.05,-77.71"/>
</g>
<!-- Node17 -->
<g id="node17" class="node">
<title>Node17</title>
<g id="a_node17"><a xlink:href="../../d9/df4/dialogpointofcontact_8cpp.html" target="_top" xlink:title=" ">
<polygon fill="white" stroke="black" points="2418.5,-6 2418.5,-36 2585.5,-36 2585.5,-6 2418.5,-6"/>
<text text-anchor="start" x="2426.5" y="-24" font-family="Helvetica,sans-Serif" font-size="10.00">src/libs/vtools/dialogs</text>
<text text-anchor="middle" x="2502" y="-13" font-family="Helvetica,sans-Serif" font-size="10.00">/tools/dialogpointofcontact.cpp</text>
</a>
</g>
</g>
<!-- Node1&#45;&gt;Node17 -->
<g id="edge16" class="edge">
<title>Node1&#45;&gt;Node17</title>
<path fill="none" stroke="midnightblue" d="M2064.11,-90.22C2147.33,-80.7 2289.14,-63.22 2410,-42 2419.98,-40.25 2430.52,-38.17 2440.77,-36.03"/>
<polygon fill="midnightblue" stroke="midnightblue" points="2063.55,-86.76 2054.01,-91.37 2064.34,-93.71 2063.55,-86.76"/>
</g>
<!-- Node18 -->
<g id="node18" class="node">
<title>Node18</title>
<g id="a_node18"><a xlink:href="../../d3/d23/dialogshoulderpoint_8cpp.html" target="_top" xlink:title=" ">
<polygon fill="white" stroke="black" points="2604,-6 2604,-36 2768,-36 2768,-6 2604,-6"/>
<text text-anchor="start" x="2612" y="-24" font-family="Helvetica,sans-Serif" font-size="10.00">src/libs/vtools/dialogs</text>
<text text-anchor="middle" x="2686" y="-13" font-family="Helvetica,sans-Serif" font-size="10.00">/tools/dialogshoulderpoint.cpp</text>
</a>
</g>
</g>
<!-- Node1&#45;&gt;Node18 -->
<g id="edge17" class="edge">
<title>Node1&#45;&gt;Node18</title>
<path fill="none" stroke="midnightblue" d="M2064.67,-94.21C2177.85,-87.57 2404.66,-71.65 2595,-42 2605.39,-40.38 2616.37,-38.3 2626.97,-36.08"/>
<polygon fill="midnightblue" stroke="midnightblue" points="2064.19,-90.73 2054.41,-94.8 2064.59,-97.72 2064.19,-90.73"/>
</g>
<!-- Node19 -->
<g id="node19" class="node">
<title>Node19</title>
<g id="a_node19"><a xlink:href="../../df/de5/dialogspline_8cpp.html" target="_top" xlink:title=" ">
<polygon fill="white" stroke="black" points="2786,-6 2786,-36 2912,-36 2912,-6 2786,-6"/>
<text text-anchor="start" x="2794" y="-24" font-family="Helvetica,sans-Serif" font-size="10.00">src/libs/vtools/dialogs</text>
<text text-anchor="middle" x="2849" y="-13" font-family="Helvetica,sans-Serif" font-size="10.00">/tools/dialogspline.cpp</text>
</a>
</g>
</g>
<!-- Node1&#45;&gt;Node19 -->
<g id="edge18" class="edge">
<title>Node1&#45;&gt;Node19</title>
<path fill="none" stroke="midnightblue" d="M2064.3,-97.65C2202.73,-95.93 2517.1,-86.92 2777,-42 2785.69,-40.5 2794.85,-38.38 2803.61,-36.09"/>
<polygon fill="midnightblue" stroke="midnightblue" points="2064.2,-94.15 2054.24,-97.77 2064.28,-101.15 2064.2,-94.15"/>
</g>
<!-- Node20 -->
<g id="node20" class="node">
<title>Node20</title>
<g id="a_node20"><a xlink:href="../../dc/d64/dialogrotation_8cpp.html" target="_top" xlink:title=" ">
<polygon fill="white" stroke="black" points="2930.5,-6 2930.5,-36 3065.5,-36 3065.5,-6 2930.5,-6"/>
<text text-anchor="start" x="2938.5" y="-24" font-family="Helvetica,sans-Serif" font-size="10.00">src/libs/vtools/dialogs</text>
<text text-anchor="middle" x="2998" y="-13" font-family="Helvetica,sans-Serif" font-size="10.00">/tools/dialogrotation.cpp</text>
</a>
</g>
</g>
<!-- Node1&#45;&gt;Node20 -->
<g id="edge19" class="edge">
<title>Node1&#45;&gt;Node20</title>
<path fill="none" stroke="midnightblue" d="M2064.67,-98.38C2221.14,-98.2 2604.66,-92.14 2921,-42 2930.41,-40.51 2940.34,-38.37 2949.83,-36.04"/>
<polygon fill="midnightblue" stroke="midnightblue" points="2064.24,-94.88 2054.25,-98.39 2064.25,-101.88 2064.24,-94.88"/>
</g>
<!-- Node21 -->
<g id="node21" class="node">
<title>Node21</title>
<g id="a_node21"><a xlink:href="../../dc/dc2/dialogsplinepath_8cpp.html" target="_top" xlink:title=" ">
<polygon fill="white" stroke="black" points="3084,-6 3084,-36 3232,-36 3232,-6 3084,-6"/>
<text text-anchor="start" x="3092" y="-24" font-family="Helvetica,sans-Serif" font-size="10.00">src/libs/vtools/dialogs</text>
<text text-anchor="middle" x="3158" y="-13" font-family="Helvetica,sans-Serif" font-size="10.00">/tools/dialogsplinepath.cpp</text>
</a>
</g>
</g>
<!-- Node1&#45;&gt;Node21 -->
<g id="edge20" class="edge">
<title>Node1&#45;&gt;Node21</title>
<path fill="none" stroke="midnightblue" d="M2064.13,-98.84C2237.81,-99.92 2696.97,-96.85 3075,-42 3085.12,-40.53 3095.82,-38.4 3106.04,-36.07"/>
<polygon fill="midnightblue" stroke="midnightblue" points="2064.12,-95.34 2054.1,-98.77 2064.07,-102.34 2064.12,-95.34"/>
</g>
<!-- Node22 -->
<g id="node22" class="node">
<title>Node22</title>
<g id="a_node22"><a xlink:href="../../d5/de8/intersect__circles__dialog_8cpp.html" target="_top" xlink:title=" ">
<polygon fill="white" stroke="black" points="3250,-0.5 3250,-41.5 3376,-41.5 3376,-0.5 3250,-0.5"/>
<text text-anchor="start" x="3258" y="-29.5" font-family="Helvetica,sans-Serif" font-size="10.00">src/libs/vtools/dialogs</text>
<text text-anchor="start" x="3258" y="-18.5" font-family="Helvetica,sans-Serif" font-size="10.00">/tools/intersect_circles</text>
<text text-anchor="middle" x="3313" y="-7.5" font-family="Helvetica,sans-Serif" font-size="10.00">_dialog.cpp</text>
</a>
</g>
</g>
<!-- Node1&#45;&gt;Node22 -->
<g id="edge21" class="edge">
<title>Node1&#45;&gt;Node22</title>
<path fill="none" stroke="midnightblue" d="M2064.37,-96.92C2293.97,-93.1 3011.86,-78.48 3241,-42 3243.95,-41.53 3246.95,-40.98 3249.96,-40.38"/>
<polygon fill="midnightblue" stroke="midnightblue" points="2064.08,-93.42 2054.13,-97.09 2064.19,-100.42 2064.08,-93.42"/>
</g>
<!-- Node23 -->
<g id="node23" class="node">
<title>Node23</title>
<g id="a_node23"><a xlink:href="../../d5/d5a/intersect__circletangent__dialog_8cpp.html" target="_top" xlink:title=" ">
<polygon fill="white" stroke="black" points="3394,-0.5 3394,-41.5 3552,-41.5 3552,-0.5 3394,-0.5"/>
<text text-anchor="start" x="3402" y="-29.5" font-family="Helvetica,sans-Serif" font-size="10.00">src/libs/vtools/dialogs</text>
<text text-anchor="start" x="3402" y="-18.5" font-family="Helvetica,sans-Serif" font-size="10.00">/tools/intersect_circletangent</text>
<text text-anchor="middle" x="3473" y="-7.5" font-family="Helvetica,sans-Serif" font-size="10.00">_dialog.cpp</text>
</a>
</g>
</g>
<!-- Node1&#45;&gt;Node23 -->
<g id="edge22" class="edge">
<title>Node1&#45;&gt;Node23</title>
<path fill="none" stroke="midnightblue" d="M2064.45,-96.86C2311.07,-92.64 3125.73,-76.38 3385,-42 3387.95,-41.61 3390.95,-41.17 3393.97,-40.68"/>
<polygon fill="midnightblue" stroke="midnightblue" points="2064.11,-93.36 2054.17,-97.03 2064.23,-100.36 2064.11,-93.36"/>
</g>
<!-- Node24 -->
<g id="node24" class="node">
<title>Node24</title>
<g id="a_node24"><a xlink:href="../../dc/d82/dialoginternalpath_8cpp.html" target="_top" xlink:title=" ">
<polygon fill="white" stroke="black" points="3569.5,-6 3569.5,-36 3754.5,-36 3754.5,-6 3569.5,-6"/>
<text text-anchor="start" x="3577.5" y="-24" font-family="Helvetica,sans-Serif" font-size="10.00">src/libs/vtools/dialogs</text>
<text text-anchor="middle" x="3662" y="-13" font-family="Helvetica,sans-Serif" font-size="10.00">/tools/piece/dialoginternalpath.cpp</text>
</a>
</g>
</g>
<!-- Node1&#45;&gt;Node24 -->
<g id="edge23" class="edge">
<title>Node1&#45;&gt;Node24</title>
<path fill="none" stroke="midnightblue" d="M2064.31,-96.97C2330.39,-92.88 3265.12,-76.36 3561,-42 3573.43,-40.56 3586.61,-38.41 3599.21,-36.05"/>
<polygon fill="midnightblue" stroke="midnightblue" points="2063.95,-93.47 2054,-97.13 2064.06,-100.47 2063.95,-93.47"/>
</g>
<!-- Node25 -->
<g id="node25" class="node">
<title>Node25</title>
<g id="a_node25"><a xlink:href="../../de/d46/pattern__piece__dialog_8cpp.html" target="_top" xlink:title=" ">
<polygon fill="white" stroke="black" points="3772.5,-0.5 3772.5,-41.5 3915.5,-41.5 3915.5,-0.5 3772.5,-0.5"/>
<text text-anchor="start" x="3780.5" y="-29.5" font-family="Helvetica,sans-Serif" font-size="10.00">src/libs/vtools/dialogs</text>
<text text-anchor="start" x="3780.5" y="-18.5" font-family="Helvetica,sans-Serif" font-size="10.00">/tools/piece/pattern_piece</text>
<text text-anchor="middle" x="3844" y="-7.5" font-family="Helvetica,sans-Serif" font-size="10.00">_dialog.cpp</text>
</a>
</g>
</g>
<!-- Node1&#45;&gt;Node25 -->
<g id="edge24" class="edge">
<title>Node1&#45;&gt;Node25</title>
<path fill="none" stroke="midnightblue" d="M2064.31,-97.77C2351.91,-96.55 3427.3,-88.86 3764,-42 3766.69,-41.63 3769.43,-41.2 3772.18,-40.72"/>
<polygon fill="midnightblue" stroke="midnightblue" points="2063.99,-94.28 2054.01,-97.82 2064.02,-101.28 2063.99,-94.28"/>
</g>
<!-- Node26 -->
<g id="node26" class="node">
<title>Node26</title>
<g id="a_node26"><a xlink:href="../../d9/d4e/vabstracttool_8cpp.html" target="_top" xlink:title=" ">
<polygon fill="white" stroke="black" points="3933.5,-6 3933.5,-36 4044.5,-36 4044.5,-6 3933.5,-6"/>
<text text-anchor="start" x="3941.5" y="-24" font-family="Helvetica,sans-Serif" font-size="10.00">src/libs/vtools/tools</text>
<text text-anchor="middle" x="3989" y="-13" font-family="Helvetica,sans-Serif" font-size="10.00">/vabstracttool.cpp</text>
</a>
</g>
</g>
<!-- Node1&#45;&gt;Node26 -->
<g id="edge25" class="edge">
<title>Node1&#45;&gt;Node26</title>
<path fill="none" stroke="midnightblue" d="M2064.31,-97.09C2391.27,-92.75 3739.1,-73.13 3925,-42 3933.15,-40.63 3941.7,-38.49 3949.81,-36.1"/>
<polygon fill="midnightblue" stroke="midnightblue" points="2063.97,-93.59 2054.02,-97.22 2064.07,-100.59 2063.97,-93.59"/>
</g>
</g>
</svg>
