<?xml version="1.0" encoding="UTF-8" standalone="no"?>
<!DOCTYPE svg PUBLIC "-//W3C//DTD SVG 1.1//EN"
 "http://www.w3.org/Graphics/SVG/1.1/DTD/svg11.dtd">
<!-- Generated by graphviz version 2.43.0 (0)
 -->
<!-- Title: src/libs/vtools/dialogs/support/edit_formula_dialog.h Pages: 1 -->
<svg width="4054pt" height="128pt"
 viewBox="0.00 0.00 4053.50 128.00" xmlns="http://www.w3.org/2000/svg" xmlns:xlink="http://www.w3.org/1999/xlink">
<g id="graph0" class="graph" transform="scale(1 1) rotate(0) translate(4 124)">
<title>src/libs/vtools/dialogs/support/edit_formula_dialog.h</title>
<polygon fill="white" stroke="transparent" points="-4,4 -4,-124 4049.5,-124 4049.5,4 -4,4"/>
<!-- Node1 -->
<g id="node1" class="node">
<title>Node1</title>
<g id="a_node1"><a xlink:title=" ">
<polygon fill="#bfbfbf" stroke="black" points="1959,-78.5 1959,-119.5 2081,-119.5 2081,-78.5 1959,-78.5"/>
<text text-anchor="start" x="1967" y="-107.5" font-family="Helvetica,sans-Serif" font-size="10.00">src/libs/vtools/dialogs</text>
<text text-anchor="start" x="1967" y="-96.5" font-family="Helvetica,sans-Serif" font-size="10.00">/support/edit_formula</text>
<text text-anchor="middle" x="2020" y="-85.5" font-family="Helvetica,sans-Serif" font-size="10.00">_dialog.h</text>
</a>
</g>
</g>
<!-- Node2 -->
<g id="node2" class="node">
<title>Node2</title>
<g id="a_node2"><a xlink:href="../../d7/d8d/edit__formula__dialog_8cpp.html" target="_top" xlink:title=" ">
<polygon fill="white" stroke="black" points="0,-0.5 0,-41.5 122,-41.5 122,-0.5 0,-0.5"/>
<text text-anchor="start" x="8" y="-29.5" font-family="Helvetica,sans-Serif" font-size="10.00">src/libs/vtools/dialogs</text>
<text text-anchor="start" x="8" y="-18.5" font-family="Helvetica,sans-Serif" font-size="10.00">/support/edit_formula</text>
<text text-anchor="middle" x="61" y="-7.5" font-family="Helvetica,sans-Serif" font-size="10.00">_dialog.cpp</text>
</a>
</g>
</g>
<!-- Node1&#45;&gt;Node2 -->
<g id="edge1" class="edge">
<title>Node1&#45;&gt;Node2</title>
<path fill="none" stroke="midnightblue" d="M1948.41,-98.25C1648.36,-98.95 491.07,-97.88 131,-42 128.13,-41.55 125.21,-41.03 122.27,-40.44"/>
<polygon fill="midnightblue" stroke="midnightblue" points="1948.72,-101.75 1958.71,-98.23 1948.71,-94.75 1948.72,-101.75"/>
</g>
<!-- Node3 -->
<g id="node3" class="node">
<title>Node3</title>
<g id="a_node3"><a xlink:href="../../d6/d5d/dialogalongline_8cpp.html" target="_top" xlink:title=" ">
<polygon fill="white" stroke="black" points="140,-6 140,-36 282,-36 282,-6 140,-6"/>
<text text-anchor="start" x="148" y="-24" font-family="Helvetica,sans-Serif" font-size="10.00">src/libs/vtools/dialogs</text>
<text text-anchor="middle" x="211" y="-13" font-family="Helvetica,sans-Serif" font-size="10.00">/tools/dialogalongline.cpp</text>
</a>
</g>
</g>
<!-- Node1&#45;&gt;Node3 -->
<g id="edge2" class="edge">
<title>Node1&#45;&gt;Node3</title>
<path fill="none" stroke="midnightblue" d="M1948.49,-97.71C1664.91,-96.24 618.97,-87.78 291,-42 280.93,-40.59 270.3,-38.43 260.18,-36.04"/>
<polygon fill="midnightblue" stroke="midnightblue" points="1948.63,-101.21 1958.65,-97.76 1948.67,-94.21 1948.63,-101.21"/>
</g>
<!-- Node4 -->
<g id="node4" class="node">
<title>Node4</title>
<g id="a_node4"><a xlink:href="../../d2/d29/dialogarcwithlength_8cpp.html" target="_top" xlink:title=" ">
<polygon fill="white" stroke="black" points="300,-6 300,-36 464,-36 464,-6 300,-6"/>
<text text-anchor="start" x="308" y="-24" font-family="Helvetica,sans-Serif" font-size="10.00">src/libs/vtools/dialogs</text>
<text text-anchor="middle" x="382" y="-13" font-family="Helvetica,sans-Serif" font-size="10.00">/tools/dialogarcwithlength.cpp</text>
</a>
</g>
</g>
<!-- Node1&#45;&gt;Node4 -->
<g id="edge3" class="edge">
<title>Node1&#45;&gt;Node4</title>
<path fill="none" stroke="midnightblue" d="M1948.73,-97.13C1684.94,-93.62 764.22,-78.97 473,-42 461.77,-40.57 449.87,-38.43 438.52,-36.07"/>
<polygon fill="midnightblue" stroke="midnightblue" points="1948.91,-100.63 1958.95,-97.26 1949,-93.63 1948.91,-100.63"/>
</g>
<!-- Node5 -->
<g id="node5" class="node">
<title>Node5</title>
<g id="a_node5"><a xlink:href="../../da/dfa/dialogbisector_8cpp.html" target="_top" xlink:title=" ">
<polygon fill="white" stroke="black" points="482.5,-6 482.5,-36 617.5,-36 617.5,-6 482.5,-6"/>
<text text-anchor="start" x="490.5" y="-24" font-family="Helvetica,sans-Serif" font-size="10.00">src/libs/vtools/dialogs</text>
<text text-anchor="middle" x="550" y="-13" font-family="Helvetica,sans-Serif" font-size="10.00">/tools/dialogbisector.cpp</text>
</a>
</g>
</g>
<!-- Node1&#45;&gt;Node5 -->
<g id="edge4" class="edge">
<title>Node1&#45;&gt;Node5</title>
<path fill="none" stroke="midnightblue" d="M1948.46,-97.15C1701.53,-93.88 885.9,-80.37 627,-42 617.44,-40.58 607.35,-38.44 597.73,-36.09"/>
<polygon fill="midnightblue" stroke="midnightblue" points="1948.7,-100.65 1958.75,-97.28 1948.79,-93.65 1948.7,-100.65"/>
</g>
<!-- Node6 -->
<g id="node6" class="node">
<title>Node6</title>
<g id="a_node6"><a xlink:href="../../d1/d37/dialogarc_8cpp.html" target="_top" xlink:title=" ">
<polygon fill="white" stroke="black" points="636,-6 636,-36 758,-36 758,-6 636,-6"/>
<text text-anchor="start" x="644" y="-24" font-family="Helvetica,sans-Serif" font-size="10.00">src/libs/vtools/dialogs</text>
<text text-anchor="middle" x="697" y="-13" font-family="Helvetica,sans-Serif" font-size="10.00">/tools/dialogarc.cpp</text>
</a>
</g>
</g>
<!-- Node1&#45;&gt;Node6 -->
<g id="edge5" class="edge">
<title>Node1&#45;&gt;Node6</title>
<path fill="none" stroke="midnightblue" d="M1948.73,-97C1718.61,-93.44 997.05,-79.48 767,-42 758.27,-40.58 749.08,-38.44 740.33,-36.08"/>
<polygon fill="midnightblue" stroke="midnightblue" points="1948.94,-100.51 1958.99,-97.16 1949.04,-93.51 1948.94,-100.51"/>
</g>
<!-- Node7 -->
<g id="node7" class="node">
<title>Node7</title>
<g id="a_node7"><a xlink:href="../../dd/d39/dialogcurveintersectaxis_8cpp.html" target="_top" xlink:title=" ">
<polygon fill="white" stroke="black" points="776.5,-6 776.5,-36 963.5,-36 963.5,-6 776.5,-6"/>
<text text-anchor="start" x="784.5" y="-24" font-family="Helvetica,sans-Serif" font-size="10.00">src/libs/vtools/dialogs</text>
<text text-anchor="middle" x="870" y="-13" font-family="Helvetica,sans-Serif" font-size="10.00">/tools/dialogcurveintersectaxis.cpp</text>
</a>
</g>
</g>
<!-- Node1&#45;&gt;Node7 -->
<g id="edge6" class="edge">
<title>Node1&#45;&gt;Node7</title>
<path fill="none" stroke="midnightblue" d="M1948.84,-97.63C1779.12,-96 1337.47,-87.37 972,-42 959.73,-40.48 946.73,-38.34 934.26,-36.02"/>
<polygon fill="midnightblue" stroke="midnightblue" points="1948.87,-101.13 1958.9,-97.72 1948.93,-94.13 1948.87,-101.13"/>
</g>
<!-- Node8 -->
<g id="node8" class="node">
<title>Node8</title>
<g id="a_node8"><a xlink:href="../../d9/d90/dialogcutarc_8cpp.html" target="_top" xlink:title=" ">
<polygon fill="white" stroke="black" points="981.5,-6 981.5,-36 1108.5,-36 1108.5,-6 981.5,-6"/>
<text text-anchor="start" x="989.5" y="-24" font-family="Helvetica,sans-Serif" font-size="10.00">src/libs/vtools/dialogs</text>
<text text-anchor="middle" x="1045" y="-13" font-family="Helvetica,sans-Serif" font-size="10.00">/tools/dialogcutarc.cpp</text>
</a>
</g>
</g>
<!-- Node1&#45;&gt;Node8 -->
<g id="edge7" class="edge">
<title>Node1&#45;&gt;Node8</title>
<path fill="none" stroke="midnightblue" d="M1948.78,-98.61C1795.51,-98.84 1423.44,-93.48 1117,-42 1108.17,-40.52 1098.87,-38.38 1090,-36.05"/>
<polygon fill="midnightblue" stroke="midnightblue" points="1949.01,-102.11 1959,-98.59 1948.99,-95.11 1949.01,-102.11"/>
</g>
<!-- Node9 -->
<g id="node9" class="node">
<title>Node9</title>
<g id="a_node9"><a xlink:href="../../d3/d2e/dialogcutspline_8cpp.html" target="_top" xlink:title=" ">
<polygon fill="white" stroke="black" points="1126.5,-6 1126.5,-36 1267.5,-36 1267.5,-6 1126.5,-6"/>
<text text-anchor="start" x="1134.5" y="-24" font-family="Helvetica,sans-Serif" font-size="10.00">src/libs/vtools/dialogs</text>
<text text-anchor="middle" x="1197" y="-13" font-family="Helvetica,sans-Serif" font-size="10.00">/tools/dialogcutspline.cpp</text>
</a>
</g>
</g>
<!-- Node1&#45;&gt;Node9 -->
<g id="edge8" class="edge">
<title>Node1&#45;&gt;Node9</title>
<path fill="none" stroke="midnightblue" d="M1948.86,-96.65C1816.03,-93.24 1521.57,-81.49 1277,-42 1267.39,-40.45 1257.24,-38.31 1247.52,-36.01"/>
<polygon fill="midnightblue" stroke="midnightblue" points="1948.83,-100.15 1958.91,-96.9 1949,-93.15 1948.83,-100.15"/>
</g>
<!-- Node10 -->
<g id="node10" class="node">
<title>Node10</title>
<g id="a_node10"><a xlink:href="../../d9/d68/dialogellipticalarc_8cpp.html" target="_top" xlink:title=" ">
<polygon fill="white" stroke="black" points="1286,-6 1286,-36 1440,-36 1440,-6 1286,-6"/>
<text text-anchor="start" x="1294" y="-24" font-family="Helvetica,sans-Serif" font-size="10.00">src/libs/vtools/dialogs</text>
<text text-anchor="middle" x="1363" y="-13" font-family="Helvetica,sans-Serif" font-size="10.00">/tools/dialogellipticalarc.cpp</text>
</a>
</g>
</g>
<!-- Node1&#45;&gt;Node10 -->
<g id="edge9" class="edge">
<title>Node1&#45;&gt;Node10</title>
<path fill="none" stroke="midnightblue" d="M1948.65,-94.01C1840.17,-87.26 1627.53,-71.38 1449,-42 1439.17,-40.38 1428.79,-38.3 1418.76,-36.08"/>
<polygon fill="midnightblue" stroke="midnightblue" points="1948.62,-97.51 1958.81,-94.63 1949.05,-90.53 1948.62,-97.51"/>
</g>
<!-- Node11 -->
<g id="node11" class="node">
<title>Node11</title>
<g id="a_node11"><a xlink:href="../../d3/d15/dialogendline_8cpp.html" target="_top" xlink:title=" ">
<polygon fill="white" stroke="black" points="1458.5,-6 1458.5,-36 1591.5,-36 1591.5,-6 1458.5,-6"/>
<text text-anchor="start" x="1466.5" y="-24" font-family="Helvetica,sans-Serif" font-size="10.00">src/libs/vtools/dialogs</text>
<text text-anchor="middle" x="1525" y="-13" font-family="Helvetica,sans-Serif" font-size="10.00">/tools/dialogendline.cpp</text>
</a>
</g>
</g>
<!-- Node1&#45;&gt;Node11 -->
<g id="edge10" class="edge">
<title>Node1&#45;&gt;Node11</title>
<path fill="none" stroke="midnightblue" d="M1948.55,-91.29C1864.6,-82.76 1721.37,-66.17 1600,-42 1591.54,-40.32 1582.62,-38.22 1574.01,-36.03"/>
<polygon fill="midnightblue" stroke="midnightblue" points="1948.44,-94.8 1958.74,-92.32 1949.14,-87.83 1948.44,-94.8"/>
</g>
<!-- Node12 -->
<g id="node12" class="node">
<title>Node12</title>
<g id="a_node12"><a xlink:href="../../df/d30/dialogcutsplinepath_8cpp.html" target="_top" xlink:title=" ">
<polygon fill="white" stroke="black" points="1609.5,-6 1609.5,-36 1772.5,-36 1772.5,-6 1609.5,-6"/>
<text text-anchor="start" x="1617.5" y="-24" font-family="Helvetica,sans-Serif" font-size="10.00">src/libs/vtools/dialogs</text>
<text text-anchor="middle" x="1691" y="-13" font-family="Helvetica,sans-Serif" font-size="10.00">/tools/dialogcutsplinepath.cpp</text>
</a>
</g>
</g>
<!-- Node1&#45;&gt;Node12 -->
<g id="edge11" class="edge">
<title>Node1&#45;&gt;Node12</title>
<path fill="none" stroke="midnightblue" d="M1948.93,-81.58C1890.15,-68 1807.54,-48.92 1751.78,-36.04"/>
<polygon fill="midnightblue" stroke="midnightblue" points="1948.36,-85.04 1958.89,-83.88 1949.93,-78.22 1948.36,-85.04"/>
</g>
<!-- Node13 -->
<g id="node13" class="node">
<title>Node13</title>
<g id="a_node13"><a xlink:href="../../df/ded/tooldialogs_8h.html" target="_top" xlink:title=" ">
<polygon fill="white" stroke="black" points="1791,-6 1791,-36 1913,-36 1913,-6 1791,-6"/>
<text text-anchor="start" x="1799" y="-24" font-family="Helvetica,sans-Serif" font-size="10.00">src/libs/vtools/dialogs</text>
<text text-anchor="middle" x="1852" y="-13" font-family="Helvetica,sans-Serif" font-size="10.00">/tooldialogs.h</text>
</a>
</g>
</g>
<!-- Node1&#45;&gt;Node13 -->
<g id="edge12" class="edge">
<title>Node1&#45;&gt;Node13</title>
<path fill="none" stroke="midnightblue" d="M1967.57,-74.28C1939.88,-61.76 1906.83,-46.81 1883.18,-36.11"/>
<polygon fill="midnightblue" stroke="midnightblue" points="1966.18,-77.5 1976.74,-78.43 1969.07,-71.12 1966.18,-77.5"/>
</g>
<!-- Node14 -->
<g id="node14" class="node">
<title>Node14</title>
<g id="a_node14"><a xlink:href="../../de/d3c/dialoglineintersectaxis_8cpp.html" target="_top" xlink:title=" ">
<polygon fill="white" stroke="black" points="1931,-6 1931,-36 2109,-36 2109,-6 1931,-6"/>
<text text-anchor="start" x="1939" y="-24" font-family="Helvetica,sans-Serif" font-size="10.00">src/libs/vtools/dialogs</text>
<text text-anchor="middle" x="2020" y="-13" font-family="Helvetica,sans-Serif" font-size="10.00">/tools/dialoglineintersectaxis.cpp</text>
</a>
</g>
</g>
<!-- Node1&#45;&gt;Node14 -->
<g id="edge13" class="edge">
<title>Node1&#45;&gt;Node14</title>
<path fill="none" stroke="midnightblue" d="M2020,-68.28C2020,-57.25 2020,-45.25 2020,-36.23"/>
<polygon fill="midnightblue" stroke="midnightblue" points="2016.5,-68.43 2020,-78.43 2023.5,-68.43 2016.5,-68.43"/>
</g>
<!-- Node15 -->
<g id="node15" class="node">
<title>Node15</title>
<g id="a_node15"><a xlink:href="../../d2/d51/dialogmove_8cpp.html" target="_top" xlink:title=" ">
<polygon fill="white" stroke="black" points="2126.5,-6 2126.5,-36 2251.5,-36 2251.5,-6 2126.5,-6"/>
<text text-anchor="start" x="2134.5" y="-24" font-family="Helvetica,sans-Serif" font-size="10.00">src/libs/vtools/dialogs</text>
<text text-anchor="middle" x="2189" y="-13" font-family="Helvetica,sans-Serif" font-size="10.00">/tools/dialogmove.cpp</text>
</a>
</g>
</g>
<!-- Node1&#45;&gt;Node15 -->
<g id="edge14" class="edge">
<title>Node1&#45;&gt;Node15</title>
<path fill="none" stroke="midnightblue" d="M2072.74,-74.28C2100.6,-61.76 2133.84,-46.81 2157.63,-36.11"/>
<polygon fill="midnightblue" stroke="midnightblue" points="2071.21,-71.13 2063.52,-78.43 2074.08,-77.52 2071.21,-71.13"/>
</g>
<!-- Node16 -->
<g id="node16" class="node">
<title>Node16</title>
<g id="a_node16"><a xlink:href="../../da/df4/dialognormal_8cpp.html" target="_top" xlink:title=" ">
<polygon fill="white" stroke="black" points="2269.5,-6 2269.5,-36 2400.5,-36 2400.5,-6 2269.5,-6"/>
<text text-anchor="start" x="2277.5" y="-24" font-family="Helvetica,sans-Serif" font-size="10.00">src/libs/vtools/dialogs</text>
<text text-anchor="middle" x="2335" y="-13" font-family="Helvetica,sans-Serif" font-size="10.00">/tools/dialognormal.cpp</text>
</a>
</g>
</g>
<!-- Node1&#45;&gt;Node16 -->
<g id="edge15" class="edge">
<title>Node1&#45;&gt;Node16</title>
<path fill="none" stroke="midnightblue" d="M2091.05,-82.19C2139.13,-71.32 2204.02,-56.32 2261,-42 2268.49,-40.12 2276.38,-38.06 2284.11,-36.01"/>
<polygon fill="midnightblue" stroke="midnightblue" points="2090.04,-78.83 2081.06,-84.44 2091.58,-85.66 2090.04,-78.83"/>
</g>
<!-- Node17 -->
<g id="node17" class="node">
<title>Node17</title>
<g id="a_node17"><a xlink:href="../../d9/df4/dialogpointofcontact_8cpp.html" target="_top" xlink:title=" ">
<polygon fill="white" stroke="black" points="2418.5,-6 2418.5,-36 2585.5,-36 2585.5,-6 2418.5,-6"/>
<text text-anchor="start" x="2426.5" y="-24" font-family="Helvetica,sans-Serif" font-size="10.00">src/libs/vtools/dialogs</text>
<text text-anchor="middle" x="2502" y="-13" font-family="Helvetica,sans-Serif" font-size="10.00">/tools/dialogpointofcontact.cpp</text>
</a>
</g>
</g>
<!-- Node1&#45;&gt;Node17 -->
<g id="edge16" class="edge">
<title>Node1&#45;&gt;Node17</title>
<path fill="none" stroke="midnightblue" d="M2091.26,-89.32C2169.63,-79.41 2299.19,-61.97 2410,-42 2419.81,-40.23 2430.17,-38.17 2440.26,-36.06"/>
<polygon fill="midnightblue" stroke="midnightblue" points="2090.5,-85.89 2081.01,-90.61 2091.37,-92.83 2090.5,-85.89"/>
</g>
<!-- Node18 -->
<g id="node18" class="node">
<title>Node18</title>
<g id="a_node18"><a xlink:href="../../d3/d23/dialogshoulderpoint_8cpp.html" target="_top" xlink:title=" ">
<polygon fill="white" stroke="black" points="2604,-6 2604,-36 2768,-36 2768,-6 2604,-6"/>
<text text-anchor="start" x="2612" y="-24" font-family="Helvetica,sans-Serif" font-size="10.00">src/libs/vtools/dialogs</text>
<text text-anchor="middle" x="2686" y="-13" font-family="Helvetica,sans-Serif" font-size="10.00">/tools/dialogshoulderpoint.cpp</text>
</a>
</g>
</g>
<!-- Node1&#45;&gt;Node18 -->
<g id="edge17" class="edge">
<title>Node1&#45;&gt;Node18</title>
<path fill="none" stroke="midnightblue" d="M2091.37,-93.8C2200.41,-86.75 2414.81,-70.47 2595,-42 2605.39,-40.36 2616.36,-38.26 2626.96,-36.05"/>
<polygon fill="midnightblue" stroke="midnightblue" points="2090.91,-90.32 2081.15,-94.45 2091.36,-97.3 2090.91,-90.32"/>
</g>
<!-- Node19 -->
<g id="node19" class="node">
<title>Node19</title>
<g id="a_node19"><a xlink:href="../../df/de5/dialogspline_8cpp.html" target="_top" xlink:title=" ">
<polygon fill="white" stroke="black" points="2786,-6 2786,-36 2912,-36 2912,-6 2786,-6"/>
<text text-anchor="start" x="2794" y="-24" font-family="Helvetica,sans-Serif" font-size="10.00">src/libs/vtools/dialogs</text>
<text text-anchor="middle" x="2849" y="-13" font-family="Helvetica,sans-Serif" font-size="10.00">/tools/dialogspline.cpp</text>
</a>
</g>
</g>
<!-- Node1&#45;&gt;Node19 -->
<g id="edge18" class="edge">
<title>Node1&#45;&gt;Node19</title>
<path fill="none" stroke="midnightblue" d="M2091.55,-97.39C2226.56,-95.2 2527.73,-85.4 2777,-42 2785.69,-40.49 2794.85,-38.37 2803.6,-36.07"/>
<polygon fill="midnightblue" stroke="midnightblue" points="2091.28,-93.89 2081.34,-97.54 2091.39,-100.89 2091.28,-93.89"/>
</g>
<!-- Node20 -->
<g id="node20" class="node">
<title>Node20</title>
<g id="a_node20"><a xlink:href="../../dc/dc2/dialogsplinepath_8cpp.html" target="_top" xlink:title=" ">
<polygon fill="white" stroke="black" points="2930,-6 2930,-36 3078,-36 3078,-6 2930,-6"/>
<text text-anchor="start" x="2938" y="-24" font-family="Helvetica,sans-Serif" font-size="10.00">src/libs/vtools/dialogs</text>
<text text-anchor="middle" x="3004" y="-13" font-family="Helvetica,sans-Serif" font-size="10.00">/tools/dialogsplinepath.cpp</text>
</a>
</g>
</g>
<!-- Node1&#45;&gt;Node20 -->
<g id="edge19" class="edge">
<title>Node1&#45;&gt;Node20</title>
<path fill="none" stroke="midnightblue" d="M2091.21,-97.78C2244.07,-96.39 2614.59,-88.08 2921,-42 2930.97,-40.5 2941.5,-38.39 2951.58,-36.09"/>
<polygon fill="midnightblue" stroke="midnightblue" points="2090.99,-94.28 2081.02,-97.86 2091.05,-101.28 2090.99,-94.28"/>
</g>
<!-- Node21 -->
<g id="node21" class="node">
<title>Node21</title>
<g id="a_node21"><a xlink:href="../../dc/d64/dialogrotation_8cpp.html" target="_top" xlink:title=" ">
<polygon fill="white" stroke="black" points="3096.5,-6 3096.5,-36 3231.5,-36 3231.5,-6 3096.5,-6"/>
<text text-anchor="start" x="3104.5" y="-24" font-family="Helvetica,sans-Serif" font-size="10.00">src/libs/vtools/dialogs</text>
<text text-anchor="middle" x="3164" y="-13" font-family="Helvetica,sans-Serif" font-size="10.00">/tools/dialogrotation.cpp</text>
</a>
</g>
</g>
<!-- Node1&#45;&gt;Node21 -->
<g id="edge20" class="edge">
<title>Node1&#45;&gt;Node21</title>
<path fill="none" stroke="midnightblue" d="M2091.37,-96.13C2297.99,-90.43 2894.21,-71.78 3087,-42 3096.42,-40.54 3106.35,-38.42 3115.84,-36.1"/>
<polygon fill="midnightblue" stroke="midnightblue" points="2091.14,-92.64 2081.24,-96.41 2091.33,-99.63 2091.14,-92.64"/>
</g>
<!-- Node22 -->
<g id="node22" class="node">
<title>Node22</title>
<g id="a_node22"><a xlink:href="../../d5/de8/intersect__circles__dialog_8cpp.html" target="_top" xlink:title=" ">
<polygon fill="white" stroke="black" points="3250,-0.5 3250,-41.5 3376,-41.5 3376,-0.5 3250,-0.5"/>
<text text-anchor="start" x="3258" y="-29.5" font-family="Helvetica,sans-Serif" font-size="10.00">src/libs/vtools/dialogs</text>
<text text-anchor="start" x="3258" y="-18.5" font-family="Helvetica,sans-Serif" font-size="10.00">/tools/intersect_circles</text>
<text text-anchor="middle" x="3313" y="-7.5" font-family="Helvetica,sans-Serif" font-size="10.00">_dialog.cpp</text>
</a>
</g>
</g>
<!-- Node1&#45;&gt;Node22 -->
<g id="edge21" class="edge">
<title>Node1&#45;&gt;Node22</title>
<path fill="none" stroke="midnightblue" d="M2091.39,-96.83C2317.69,-92.81 3017.34,-77.72 3241,-42 3243.95,-41.53 3246.94,-40.98 3249.96,-40.38"/>
<polygon fill="midnightblue" stroke="midnightblue" points="2091.23,-93.34 2081.29,-97.01 2091.35,-100.34 2091.23,-93.34"/>
</g>
<!-- Node23 -->
<g id="node23" class="node">
<title>Node23</title>
<g id="a_node23"><a xlink:href="../../dc/d82/dialoginternalpath_8cpp.html" target="_top" xlink:title=" ">
<polygon fill="white" stroke="black" points="3394.5,-6 3394.5,-36 3579.5,-36 3579.5,-6 3394.5,-6"/>
<text text-anchor="start" x="3402.5" y="-24" font-family="Helvetica,sans-Serif" font-size="10.00">src/libs/vtools/dialogs</text>
<text text-anchor="middle" x="3487" y="-13" font-family="Helvetica,sans-Serif" font-size="10.00">/tools/piece/dialoginternalpath.cpp</text>
</a>
</g>
</g>
<!-- Node1&#45;&gt;Node23 -->
<g id="edge22" class="edge">
<title>Node1&#45;&gt;Node23</title>
<path fill="none" stroke="midnightblue" d="M2091.27,-96.51C2334.49,-91.22 3130.73,-71.97 3385,-42 3397.46,-40.53 3410.67,-38.39 3423.3,-36.04"/>
<polygon fill="midnightblue" stroke="midnightblue" points="2091.06,-93.02 2081.14,-96.73 2091.21,-100.02 2091.06,-93.02"/>
</g>
<!-- Node24 -->
<g id="node24" class="node">
<title>Node24</title>
<g id="a_node24"><a xlink:href="../../d5/d5a/intersect__circletangent__dialog_8cpp.html" target="_top" xlink:title=" ">
<polygon fill="white" stroke="black" points="3597,-0.5 3597,-41.5 3755,-41.5 3755,-0.5 3597,-0.5"/>
<text text-anchor="start" x="3605" y="-29.5" font-family="Helvetica,sans-Serif" font-size="10.00">src/libs/vtools/dialogs</text>
<text text-anchor="start" x="3605" y="-18.5" font-family="Helvetica,sans-Serif" font-size="10.00">/tools/intersect_circletangent</text>
<text text-anchor="middle" x="3676" y="-7.5" font-family="Helvetica,sans-Serif" font-size="10.00">_dialog.cpp</text>
</a>
</g>
</g>
<!-- Node1&#45;&gt;Node24 -->
<g id="edge23" class="edge">
<title>Node1&#45;&gt;Node24</title>
<path fill="none" stroke="midnightblue" d="M2091.39,-97.26C2357.77,-94.2 3293.49,-80.88 3589,-42 3591.61,-41.66 3594.26,-41.27 3596.93,-40.85"/>
<polygon fill="midnightblue" stroke="midnightblue" points="2091.03,-93.76 2081.07,-97.37 2091.11,-100.76 2091.03,-93.76"/>
</g>
<!-- Node25 -->
<g id="node25" class="node">
<title>Node25</title>
<g id="a_node25"><a xlink:href="../../de/d46/pattern__piece__dialog_8cpp.html" target="_top" xlink:title=" ">
<polygon fill="white" stroke="black" points="3773.5,-0.5 3773.5,-41.5 3916.5,-41.5 3916.5,-0.5 3773.5,-0.5"/>
<text text-anchor="start" x="3781.5" y="-29.5" font-family="Helvetica,sans-Serif" font-size="10.00">src/libs/vtools/dialogs</text>
<text text-anchor="start" x="3781.5" y="-18.5" font-family="Helvetica,sans-Serif" font-size="10.00">/tools/piece/pattern_piece</text>
<text text-anchor="middle" x="3845" y="-7.5" font-family="Helvetica,sans-Serif" font-size="10.00">_dialog.cpp</text>
</a>
</g>
</g>
<!-- Node1&#45;&gt;Node25 -->
<g id="edge24" class="edge">
<title>Node1&#45;&gt;Node25</title>
<path fill="none" stroke="midnightblue" d="M2091.65,-97.7C2376.97,-96.22 3432.93,-87.67 3764,-42 3767.01,-41.58 3770.08,-41.1 3773.16,-40.57"/>
<polygon fill="midnightblue" stroke="midnightblue" points="2091.41,-94.21 2081.42,-97.76 2091.44,-101.21 2091.41,-94.21"/>
</g>
<!-- Node26 -->
<g id="node26" class="node">
<title>Node26</title>
<g id="a_node26"><a xlink:href="../../d9/d4e/vabstracttool_8cpp.html" target="_top" xlink:title=" ">
<polygon fill="white" stroke="black" points="3934.5,-6 3934.5,-36 4045.5,-36 4045.5,-6 3934.5,-6"/>
<text text-anchor="start" x="3942.5" y="-24" font-family="Helvetica,sans-Serif" font-size="10.00">src/libs/vtools/tools</text>
<text text-anchor="middle" x="3990" y="-13" font-family="Helvetica,sans-Serif" font-size="10.00">/vabstracttool.cpp</text>
</a>
</g>
</g>
<!-- Node1&#45;&gt;Node26 -->
<g id="edge25" class="edge">
<title>Node1&#45;&gt;Node26</title>
<path fill="none" stroke="midnightblue" d="M2091.42,-97.06C2415.84,-92.62 3742.81,-72.72 3926,-42 3934.15,-40.63 3942.7,-38.49 3950.81,-36.1"/>
<polygon fill="midnightblue" stroke="midnightblue" points="2091.16,-93.56 2081.21,-97.2 2091.25,-100.56 2091.16,-93.56"/>
</g>
</g>
</svg>
