<?xml version="1.0" encoding="UTF-8" standalone="no"?>
<!DOCTYPE svg PUBLIC "-//W3C//DTD SVG 1.1//EN"
 "http://www.w3.org/Graphics/SVG/1.1/DTD/svg11.dtd">
<!-- Generated by graphviz version 2.43.0 (0)
 -->
<!-- Title: src/libs/vtools/dialogs/support/edit_formula_dialog.h Pages: 1 -->
<svg width="4054pt" height="128pt"
 viewBox="0.00 0.00 4053.50 128.00" xmlns="http://www.w3.org/2000/svg" xmlns:xlink="http://www.w3.org/1999/xlink">
<g id="graph0" class="graph" transform="scale(1 1) rotate(0) translate(4 124)">
<title>src/libs/vtools/dialogs/support/edit_formula_dialog.h</title>
<polygon fill="white" stroke="transparent" points="-4,4 -4,-124 4049.5,-124 4049.5,4 -4,4"/>
<!-- Node1 -->
<g id="node1" class="node">
<title>Node1</title>
<g id="a_node1"><a xlink:title=" ">
<polygon fill="#bfbfbf" stroke="black" points="1960,-78.5 1960,-119.5 2082,-119.5 2082,-78.5 1960,-78.5"/>
<text text-anchor="start" x="1968" y="-107.5" font-family="Helvetica,sans-Serif" font-size="10.00">src/libs/vtools/dialogs</text>
<text text-anchor="start" x="1968" y="-96.5" font-family="Helvetica,sans-Serif" font-size="10.00">/support/edit_formula</text>
<text text-anchor="middle" x="2021" y="-85.5" font-family="Helvetica,sans-Serif" font-size="10.00">_dialog.h</text>
</a>
</g>
</g>
<!-- Node2 -->
<g id="node2" class="node">
<title>Node2</title>
<g id="a_node2"><a xlink:href="../../d7/d8d/edit__formula__dialog_8cpp.html" target="_top" xlink:title=" ">
<polygon fill="white" stroke="black" points="0,-0.5 0,-41.5 122,-41.5 122,-0.5 0,-0.5"/>
<text text-anchor="start" x="8" y="-29.5" font-family="Helvetica,sans-Serif" font-size="10.00">src/libs/vtools/dialogs</text>
<text text-anchor="start" x="8" y="-18.5" font-family="Helvetica,sans-Serif" font-size="10.00">/support/edit_formula</text>
<text text-anchor="middle" x="61" y="-7.5" font-family="Helvetica,sans-Serif" font-size="10.00">_dialog.cpp</text>
</a>
</g>
</g>
<!-- Node1&#45;&gt;Node2 -->
<g id="edge1" class="edge">
<title>Node1&#45;&gt;Node2</title>
<path fill="none" stroke="midnightblue" d="M1949.37,-98.25C1649.16,-98.96 491.26,-97.91 131,-42 128.13,-41.55 125.21,-41.03 122.27,-40.44"/>
<polygon fill="midnightblue" stroke="midnightblue" points="1949.69,-101.75 1959.68,-98.23 1949.67,-94.75 1949.69,-101.75"/>
</g>
<!-- Node3 -->
<g id="node3" class="node">
<title>Node3</title>
<g id="a_node3"><a xlink:href="../../d6/d5d/dialogalongline_8cpp.html" target="_top" xlink:title=" ">
<polygon fill="white" stroke="black" points="140,-6 140,-36 282,-36 282,-6 140,-6"/>
<text text-anchor="start" x="148" y="-24" font-family="Helvetica,sans-Serif" font-size="10.00">src/libs/vtools/dialogs</text>
<text text-anchor="middle" x="211" y="-13" font-family="Helvetica,sans-Serif" font-size="10.00">/tools/dialogalongline.cpp</text>
</a>
</g>
</g>
<!-- Node1&#45;&gt;Node3 -->
<g id="edge2" class="edge">
<title>Node1&#45;&gt;Node3</title>
<path fill="none" stroke="midnightblue" d="M1949.45,-97.71C1665.7,-96.25 619.16,-87.8 291,-42 280.93,-40.6 270.3,-38.43 260.18,-36.04"/>
<polygon fill="midnightblue" stroke="midnightblue" points="1949.6,-101.21 1959.62,-97.76 1949.63,-94.21 1949.6,-101.21"/>
</g>
<!-- Node4 -->
<g id="node4" class="node">
<title>Node4</title>
<g id="a_node4"><a xlink:href="../../d1/d37/dialogarc_8cpp.html" target="_top" xlink:title=" ">
<polygon fill="white" stroke="black" points="300,-6 300,-36 422,-36 422,-6 300,-6"/>
<text text-anchor="start" x="308" y="-24" font-family="Helvetica,sans-Serif" font-size="10.00">src/libs/vtools/dialogs</text>
<text text-anchor="middle" x="361" y="-13" font-family="Helvetica,sans-Serif" font-size="10.00">/tools/dialogarc.cpp</text>
</a>
</g>
</g>
<!-- Node1&#45;&gt;Node4 -->
<g id="edge3" class="edge">
<title>Node1&#45;&gt;Node4</title>
<path fill="none" stroke="midnightblue" d="M1949.89,-97.79C1681.47,-96.63 729.82,-89.23 431,-42 422.14,-40.6 412.8,-38.44 403.95,-36.04"/>
<polygon fill="midnightblue" stroke="midnightblue" points="1949.89,-101.29 1959.91,-97.83 1949.92,-94.29 1949.89,-101.29"/>
</g>
<!-- Node5 -->
<g id="node5" class="node">
<title>Node5</title>
<g id="a_node5"><a xlink:href="../../da/dfa/dialogbisector_8cpp.html" target="_top" xlink:title=" ">
<polygon fill="white" stroke="black" points="440.5,-6 440.5,-36 575.5,-36 575.5,-6 440.5,-6"/>
<text text-anchor="start" x="448.5" y="-24" font-family="Helvetica,sans-Serif" font-size="10.00">src/libs/vtools/dialogs</text>
<text text-anchor="middle" x="508" y="-13" font-family="Helvetica,sans-Serif" font-size="10.00">/tools/dialogbisector.cpp</text>
</a>
</g>
</g>
<!-- Node1&#45;&gt;Node5 -->
<g id="edge4" class="edge">
<title>Node1&#45;&gt;Node5</title>
<path fill="none" stroke="midnightblue" d="M1949.79,-97.25C1698.33,-94.28 852.79,-81.53 585,-42 575.44,-40.59 565.34,-38.45 555.73,-36.1"/>
<polygon fill="midnightblue" stroke="midnightblue" points="1949.86,-100.75 1959.9,-97.37 1949.94,-93.75 1949.86,-100.75"/>
</g>
<!-- Node6 -->
<g id="node6" class="node">
<title>Node6</title>
<g id="a_node6"><a xlink:href="../../d2/d29/dialogarcwithlength_8cpp.html" target="_top" xlink:title=" ">
<polygon fill="white" stroke="black" points="594,-6 594,-36 758,-36 758,-6 594,-6"/>
<text text-anchor="start" x="602" y="-24" font-family="Helvetica,sans-Serif" font-size="10.00">src/libs/vtools/dialogs</text>
<text text-anchor="middle" x="676" y="-13" font-family="Helvetica,sans-Serif" font-size="10.00">/tools/dialogarcwithlength.cpp</text>
</a>
</g>
</g>
<!-- Node1&#45;&gt;Node6 -->
<g id="edge5" class="edge">
<title>Node1&#45;&gt;Node6</title>
<path fill="none" stroke="midnightblue" d="M1949.36,-96.42C1718.89,-91.08 998.16,-72.33 767,-42 755.93,-40.55 744.22,-38.43 733.02,-36.1"/>
<polygon fill="midnightblue" stroke="midnightblue" points="1949.56,-99.93 1959.64,-96.66 1949.72,-92.93 1949.56,-99.93"/>
</g>
<!-- Node7 -->
<g id="node7" class="node">
<title>Node7</title>
<g id="a_node7"><a xlink:href="../../d9/d90/dialogcutarc_8cpp.html" target="_top" xlink:title=" ">
<polygon fill="white" stroke="black" points="776.5,-6 776.5,-36 903.5,-36 903.5,-6 776.5,-6"/>
<text text-anchor="start" x="784.5" y="-24" font-family="Helvetica,sans-Serif" font-size="10.00">src/libs/vtools/dialogs</text>
<text text-anchor="middle" x="840" y="-13" font-family="Helvetica,sans-Serif" font-size="10.00">/tools/dialogcutarc.cpp</text>
</a>
</g>
</g>
<!-- Node1&#45;&gt;Node7 -->
<g id="edge6" class="edge">
<title>Node1&#45;&gt;Node7</title>
<path fill="none" stroke="midnightblue" d="M1949.73,-96.45C1737.68,-91.53 1113.04,-74.59 912,-42 903.04,-40.55 893.59,-38.39 884.6,-36.03"/>
<polygon fill="midnightblue" stroke="midnightblue" points="1949.74,-99.96 1959.81,-96.69 1949.9,-92.96 1949.74,-99.96"/>
</g>
<!-- Node8 -->
<g id="node8" class="node">
<title>Node8</title>
<g id="a_node8"><a xlink:href="../../d3/d2e/dialogcutspline_8cpp.html" target="_top" xlink:title=" ">
<polygon fill="white" stroke="black" points="921.5,-6 921.5,-36 1062.5,-36 1062.5,-6 921.5,-6"/>
<text text-anchor="start" x="929.5" y="-24" font-family="Helvetica,sans-Serif" font-size="10.00">src/libs/vtools/dialogs</text>
<text text-anchor="middle" x="992" y="-13" font-family="Helvetica,sans-Serif" font-size="10.00">/tools/dialogcutspline.cpp</text>
</a>
</g>
</g>
<!-- Node1&#45;&gt;Node8 -->
<g id="edge7" class="edge">
<title>Node1&#45;&gt;Node8</title>
<path fill="none" stroke="midnightblue" d="M1949.61,-98.38C1790.73,-98.23 1396.33,-92.31 1071,-42 1061.35,-40.51 1051.17,-38.37 1041.43,-36.04"/>
<polygon fill="midnightblue" stroke="midnightblue" points="1949.73,-101.88 1959.73,-98.38 1949.73,-94.88 1949.73,-101.88"/>
</g>
<!-- Node9 -->
<g id="node9" class="node">
<title>Node9</title>
<g id="a_node9"><a xlink:href="../../df/d30/dialogcutsplinepath_8cpp.html" target="_top" xlink:title=" ">
<polygon fill="white" stroke="black" points="1080.5,-6 1080.5,-36 1243.5,-36 1243.5,-6 1080.5,-6"/>
<text text-anchor="start" x="1088.5" y="-24" font-family="Helvetica,sans-Serif" font-size="10.00">src/libs/vtools/dialogs</text>
<text text-anchor="middle" x="1162" y="-13" font-family="Helvetica,sans-Serif" font-size="10.00">/tools/dialogcutsplinepath.cpp</text>
</a>
</g>
</g>
<!-- Node1&#45;&gt;Node9 -->
<g id="edge8" class="edge">
<title>Node1&#45;&gt;Node9</title>
<path fill="none" stroke="midnightblue" d="M1949.66,-96.21C1813.54,-92.05 1507.64,-79.07 1253,-42 1242.28,-40.44 1230.93,-38.32 1220.03,-36.05"/>
<polygon fill="midnightblue" stroke="midnightblue" points="1949.85,-99.72 1959.95,-96.52 1950.06,-92.73 1949.85,-99.72"/>
</g>
<!-- Node10 -->
<g id="node10" class="node">
<title>Node10</title>
<g id="a_node10"><a xlink:href="../../df/ded/tooldialogs_8h.html" target="_top" xlink:title=" ">
<polygon fill="white" stroke="black" points="1262,-6 1262,-36 1384,-36 1384,-6 1262,-6"/>
<text text-anchor="start" x="1270" y="-24" font-family="Helvetica,sans-Serif" font-size="10.00">src/libs/vtools/dialogs</text>
<text text-anchor="middle" x="1323" y="-13" font-family="Helvetica,sans-Serif" font-size="10.00">/tooldialogs.h</text>
</a>
</g>
</g>
<!-- Node1&#45;&gt;Node10 -->
<g id="edge9" class="edge">
<title>Node1&#45;&gt;Node10</title>
<path fill="none" stroke="midnightblue" d="M1949.59,-96.03C1832.44,-91.81 1592.53,-79.06 1393,-42 1384.67,-40.45 1375.91,-38.35 1367.51,-36.08"/>
<polygon fill="midnightblue" stroke="midnightblue" points="1949.74,-99.53 1959.86,-96.39 1949.98,-92.54 1949.74,-99.53"/>
</g>
<!-- Node11 -->
<g id="node11" class="node">
<title>Node11</title>
<g id="a_node11"><a xlink:href="../../dd/d39/dialogcurveintersectaxis_8cpp.html" target="_top" xlink:title=" ">
<polygon fill="white" stroke="black" points="1402.5,-6 1402.5,-36 1589.5,-36 1589.5,-6 1402.5,-6"/>
<text text-anchor="start" x="1410.5" y="-24" font-family="Helvetica,sans-Serif" font-size="10.00">src/libs/vtools/dialogs</text>
<text text-anchor="middle" x="1496" y="-13" font-family="Helvetica,sans-Serif" font-size="10.00">/tools/dialogcurveintersectaxis.cpp</text>
</a>
</g>
</g>
<!-- Node1&#45;&gt;Node11 -->
<g id="edge10" class="edge">
<title>Node1&#45;&gt;Node11</title>
<path fill="none" stroke="midnightblue" d="M1949.73,-89.86C1865.68,-79.96 1721.83,-62.06 1599,-42 1588.03,-40.21 1576.45,-38.14 1565.15,-36.02"/>
<polygon fill="midnightblue" stroke="midnightblue" points="1949.34,-93.34 1959.68,-91.03 1950.16,-86.39 1949.34,-93.34"/>
</g>
<!-- Node12 -->
<g id="node12" class="node">
<title>Node12</title>
<g id="a_node12"><a xlink:href="../../d9/d68/dialogellipticalarc_8cpp.html" target="_top" xlink:title=" ">
<polygon fill="white" stroke="black" points="1608,-6 1608,-36 1762,-36 1762,-6 1608,-6"/>
<text text-anchor="start" x="1616" y="-24" font-family="Helvetica,sans-Serif" font-size="10.00">src/libs/vtools/dialogs</text>
<text text-anchor="middle" x="1685" y="-13" font-family="Helvetica,sans-Serif" font-size="10.00">/tools/dialogellipticalarc.cpp</text>
</a>
</g>
</g>
<!-- Node1&#45;&gt;Node12 -->
<g id="edge11" class="edge">
<title>Node1&#45;&gt;Node12</title>
<path fill="none" stroke="midnightblue" d="M1949.77,-82.21C1899.73,-71.07 1831.24,-55.75 1771,-42 1762.63,-40.09 1753.81,-38.06 1745.13,-36.05"/>
<polygon fill="midnightblue" stroke="midnightblue" points="1949.32,-85.69 1959.84,-84.45 1950.84,-78.86 1949.32,-85.69"/>
</g>
<!-- Node13 -->
<g id="node13" class="node">
<title>Node13</title>
<g id="a_node13"><a xlink:href="../../d3/d15/dialogendline_8cpp.html" target="_top" xlink:title=" ">
<polygon fill="white" stroke="black" points="1780.5,-6 1780.5,-36 1913.5,-36 1913.5,-6 1780.5,-6"/>
<text text-anchor="start" x="1788.5" y="-24" font-family="Helvetica,sans-Serif" font-size="10.00">src/libs/vtools/dialogs</text>
<text text-anchor="middle" x="1847" y="-13" font-family="Helvetica,sans-Serif" font-size="10.00">/tools/dialogendline.cpp</text>
</a>
</g>
</g>
<!-- Node1&#45;&gt;Node13 -->
<g id="edge12" class="edge">
<title>Node1&#45;&gt;Node13</title>
<path fill="none" stroke="midnightblue" d="M1966.7,-74.28C1938.02,-61.76 1903.79,-46.81 1879.3,-36.11"/>
<polygon fill="midnightblue" stroke="midnightblue" points="1965.63,-77.63 1976.19,-78.43 1968.43,-71.22 1965.63,-77.63"/>
</g>
<!-- Node14 -->
<g id="node14" class="node">
<title>Node14</title>
<g id="a_node14"><a xlink:href="../../de/d3c/dialoglineintersectaxis_8cpp.html" target="_top" xlink:title=" ">
<polygon fill="white" stroke="black" points="1932,-6 1932,-36 2110,-36 2110,-6 1932,-6"/>
<text text-anchor="start" x="1940" y="-24" font-family="Helvetica,sans-Serif" font-size="10.00">src/libs/vtools/dialogs</text>
<text text-anchor="middle" x="2021" y="-13" font-family="Helvetica,sans-Serif" font-size="10.00">/tools/dialoglineintersectaxis.cpp</text>
</a>
</g>
</g>
<!-- Node1&#45;&gt;Node14 -->
<g id="edge13" class="edge">
<title>Node1&#45;&gt;Node14</title>
<path fill="none" stroke="midnightblue" d="M2021,-68.28C2021,-57.25 2021,-45.25 2021,-36.23"/>
<polygon fill="midnightblue" stroke="midnightblue" points="2017.5,-68.43 2021,-78.43 2024.5,-68.43 2017.5,-68.43"/>
</g>
<!-- Node15 -->
<g id="node15" class="node">
<title>Node15</title>
<g id="a_node15"><a xlink:href="../../d2/d51/dialogmove_8cpp.html" target="_top" xlink:title=" ">
<polygon fill="white" stroke="black" points="2127.5,-6 2127.5,-36 2252.5,-36 2252.5,-6 2127.5,-6"/>
<text text-anchor="start" x="2135.5" y="-24" font-family="Helvetica,sans-Serif" font-size="10.00">src/libs/vtools/dialogs</text>
<text text-anchor="middle" x="2190" y="-13" font-family="Helvetica,sans-Serif" font-size="10.00">/tools/dialogmove.cpp</text>
</a>
</g>
</g>
<!-- Node1&#45;&gt;Node15 -->
<g id="edge14" class="edge">
<title>Node1&#45;&gt;Node15</title>
<path fill="none" stroke="midnightblue" d="M2073.74,-74.28C2101.6,-61.76 2134.84,-46.81 2158.63,-36.11"/>
<polygon fill="midnightblue" stroke="midnightblue" points="2072.21,-71.13 2064.52,-78.43 2075.08,-77.52 2072.21,-71.13"/>
</g>
<!-- Node16 -->
<g id="node16" class="node">
<title>Node16</title>
<g id="a_node16"><a xlink:href="../../da/df4/dialognormal_8cpp.html" target="_top" xlink:title=" ">
<polygon fill="white" stroke="black" points="2270.5,-6 2270.5,-36 2401.5,-36 2401.5,-6 2270.5,-6"/>
<text text-anchor="start" x="2278.5" y="-24" font-family="Helvetica,sans-Serif" font-size="10.00">src/libs/vtools/dialogs</text>
<text text-anchor="middle" x="2336" y="-13" font-family="Helvetica,sans-Serif" font-size="10.00">/tools/dialognormal.cpp</text>
</a>
</g>
</g>
<!-- Node1&#45;&gt;Node16 -->
<g id="edge15" class="edge">
<title>Node1&#45;&gt;Node16</title>
<path fill="none" stroke="midnightblue" d="M2092.05,-82.19C2140.13,-71.32 2205.02,-56.32 2262,-42 2269.49,-40.12 2277.38,-38.06 2285.11,-36.01"/>
<polygon fill="midnightblue" stroke="midnightblue" points="2091.04,-78.83 2082.06,-84.44 2092.58,-85.66 2091.04,-78.83"/>
</g>
<!-- Node17 -->
<g id="node17" class="node">
<title>Node17</title>
<g id="a_node17"><a xlink:href="../../d9/df4/dialogpointofcontact_8cpp.html" target="_top" xlink:title=" ">
<polygon fill="white" stroke="black" points="2419.5,-6 2419.5,-36 2586.5,-36 2586.5,-6 2419.5,-6"/>
<text text-anchor="start" x="2427.5" y="-24" font-family="Helvetica,sans-Serif" font-size="10.00">src/libs/vtools/dialogs</text>
<text text-anchor="middle" x="2503" y="-13" font-family="Helvetica,sans-Serif" font-size="10.00">/tools/dialogpointofcontact.cpp</text>
</a>
</g>
</g>
<!-- Node1&#45;&gt;Node17 -->
<g id="edge16" class="edge">
<title>Node1&#45;&gt;Node17</title>
<path fill="none" stroke="midnightblue" d="M2092.26,-89.32C2170.63,-79.41 2300.19,-61.97 2411,-42 2420.81,-40.23 2431.17,-38.17 2441.26,-36.06"/>
<polygon fill="midnightblue" stroke="midnightblue" points="2091.5,-85.89 2082.01,-90.61 2092.37,-92.83 2091.5,-85.89"/>
</g>
<!-- Node18 -->
<g id="node18" class="node">
<title>Node18</title>
<g id="a_node18"><a xlink:href="../../dc/d64/dialogrotation_8cpp.html" target="_top" xlink:title=" ">
<polygon fill="white" stroke="black" points="2604.5,-6 2604.5,-36 2739.5,-36 2739.5,-6 2604.5,-6"/>
<text text-anchor="start" x="2612.5" y="-24" font-family="Helvetica,sans-Serif" font-size="10.00">src/libs/vtools/dialogs</text>
<text text-anchor="middle" x="2672" y="-13" font-family="Helvetica,sans-Serif" font-size="10.00">/tools/dialogrotation.cpp</text>
</a>
</g>
</g>
<!-- Node1&#45;&gt;Node18 -->
<g id="edge17" class="edge">
<title>Node1&#45;&gt;Node18</title>
<path fill="none" stroke="midnightblue" d="M2092.53,-94.72C2201.77,-88.89 2416.43,-74.16 2596,-42 2604.86,-40.41 2614.21,-38.31 2623.2,-36.07"/>
<polygon fill="midnightblue" stroke="midnightblue" points="2092.09,-91.24 2082.29,-95.26 2092.46,-98.23 2092.09,-91.24"/>
</g>
<!-- Node19 -->
<g id="node19" class="node">
<title>Node19</title>
<g id="a_node19"><a xlink:href="../../d3/d23/dialogshoulderpoint_8cpp.html" target="_top" xlink:title=" ">
<polygon fill="white" stroke="black" points="2758,-6 2758,-36 2922,-36 2922,-6 2758,-6"/>
<text text-anchor="start" x="2766" y="-24" font-family="Helvetica,sans-Serif" font-size="10.00">src/libs/vtools/dialogs</text>
<text text-anchor="middle" x="2840" y="-13" font-family="Helvetica,sans-Serif" font-size="10.00">/tools/dialogshoulderpoint.cpp</text>
</a>
</g>
</g>
<!-- Node1&#45;&gt;Node19 -->
<g id="edge18" class="edge">
<title>Node1&#45;&gt;Node19</title>
<path fill="none" stroke="midnightblue" d="M2092.49,-95.81C2223.36,-91.07 2510,-77.28 2749,-42 2759.72,-40.42 2771.06,-38.29 2781.97,-36.02"/>
<polygon fill="midnightblue" stroke="midnightblue" points="2092.07,-92.32 2082.2,-96.18 2092.32,-99.32 2092.07,-92.32"/>
</g>
<!-- Node20 -->
<g id="node20" class="node">
<title>Node20</title>
<g id="a_node20"><a xlink:href="../../df/de5/dialogspline_8cpp.html" target="_top" xlink:title=" ">
<polygon fill="white" stroke="black" points="2940,-6 2940,-36 3066,-36 3066,-6 2940,-6"/>
<text text-anchor="start" x="2948" y="-24" font-family="Helvetica,sans-Serif" font-size="10.00">src/libs/vtools/dialogs</text>
<text text-anchor="middle" x="3003" y="-13" font-family="Helvetica,sans-Serif" font-size="10.00">/tools/dialogspline.cpp</text>
</a>
</g>
</g>
<!-- Node1&#45;&gt;Node20 -->
<g id="edge19" class="edge">
<title>Node1&#45;&gt;Node20</title>
<path fill="none" stroke="midnightblue" d="M2092.48,-98.66C2246.76,-98.99 2621.99,-93.84 2931,-42 2939.83,-40.52 2949.13,-38.38 2958,-36.05"/>
<polygon fill="midnightblue" stroke="midnightblue" points="2092.21,-95.16 2082.2,-98.63 2092.19,-102.16 2092.21,-95.16"/>
</g>
<!-- Node21 -->
<g id="node21" class="node">
<title>Node21</title>
<g id="a_node21"><a xlink:href="../../dc/dc2/dialogsplinepath_8cpp.html" target="_top" xlink:title=" ">
<polygon fill="white" stroke="black" points="3084,-6 3084,-36 3232,-36 3232,-6 3084,-6"/>
<text text-anchor="start" x="3092" y="-24" font-family="Helvetica,sans-Serif" font-size="10.00">src/libs/vtools/dialogs</text>
<text text-anchor="middle" x="3158" y="-13" font-family="Helvetica,sans-Serif" font-size="10.00">/tools/dialogsplinepath.cpp</text>
</a>
</g>
</g>
<!-- Node1&#45;&gt;Node21 -->
<g id="edge20" class="edge">
<title>Node1&#45;&gt;Node21</title>
<path fill="none" stroke="midnightblue" d="M2092.4,-98.7C2263.16,-99.4 2708.28,-95.46 3075,-42 3085.12,-40.52 3095.81,-38.39 3106.04,-36.06"/>
<polygon fill="midnightblue" stroke="midnightblue" points="2092.29,-95.2 2082.28,-98.65 2092.26,-102.2 2092.29,-95.2"/>
</g>
<!-- Node22 -->
<g id="node22" class="node">
<title>Node22</title>
<g id="a_node22"><a xlink:href="../../d5/d5a/intersect__circletangent__dialog_8cpp.html" target="_top" xlink:title=" ">
<polygon fill="white" stroke="black" points="3250,-0.5 3250,-41.5 3408,-41.5 3408,-0.5 3250,-0.5"/>
<text text-anchor="start" x="3258" y="-29.5" font-family="Helvetica,sans-Serif" font-size="10.00">src/libs/vtools/dialogs</text>
<text text-anchor="start" x="3258" y="-18.5" font-family="Helvetica,sans-Serif" font-size="10.00">/tools/intersect_circletangent</text>
<text text-anchor="middle" x="3329" y="-7.5" font-family="Helvetica,sans-Serif" font-size="10.00">_dialog.cpp</text>
</a>
</g>
</g>
<!-- Node1&#45;&gt;Node22 -->
<g id="edge21" class="edge">
<title>Node1&#45;&gt;Node22</title>
<path fill="none" stroke="midnightblue" d="M2092.26,-96.39C2318.18,-91.03 3016.74,-72.39 3241,-42 3243.95,-41.6 3246.95,-41.15 3249.97,-40.66"/>
<polygon fill="midnightblue" stroke="midnightblue" points="2092.1,-92.9 2082.18,-96.63 2092.26,-99.89 2092.1,-92.9"/>
</g>
<!-- Node23 -->
<g id="node23" class="node">
<title>Node23</title>
<g id="a_node23"><a xlink:href="../../dc/d82/dialoginternalpath_8cpp.html" target="_top" xlink:title=" ">
<polygon fill="white" stroke="black" points="3425.5,-6 3425.5,-36 3610.5,-36 3610.5,-6 3425.5,-6"/>
<text text-anchor="start" x="3433.5" y="-24" font-family="Helvetica,sans-Serif" font-size="10.00">src/libs/vtools/dialogs</text>
<text text-anchor="middle" x="3518" y="-13" font-family="Helvetica,sans-Serif" font-size="10.00">/tools/piece/dialoginternalpath.cpp</text>
</a>
</g>
</g>
<!-- Node1&#45;&gt;Node23 -->
<g id="edge22" class="edge">
<title>Node1&#45;&gt;Node23</title>
<path fill="none" stroke="midnightblue" d="M2092.62,-96.6C2339.84,-91.53 3156.53,-72.82 3417,-42 3429.43,-40.53 3442.61,-38.37 3455.2,-36"/>
<polygon fill="midnightblue" stroke="midnightblue" points="2092.25,-93.11 2082.32,-96.81 2092.39,-100.1 2092.25,-93.11"/>
</g>
<!-- Node24 -->
<g id="node24" class="node">
<title>Node24</title>
<g id="a_node24"><a xlink:href="../../d5/de8/intersect__circles__dialog_8cpp.html" target="_top" xlink:title=" ">
<polygon fill="white" stroke="black" points="3629,-0.5 3629,-41.5 3755,-41.5 3755,-0.5 3629,-0.5"/>
<text text-anchor="start" x="3637" y="-29.5" font-family="Helvetica,sans-Serif" font-size="10.00">src/libs/vtools/dialogs</text>
<text text-anchor="start" x="3637" y="-18.5" font-family="Helvetica,sans-Serif" font-size="10.00">/tools/intersect_circles</text>
<text text-anchor="middle" x="3692" y="-7.5" font-family="Helvetica,sans-Serif" font-size="10.00">_dialog.cpp</text>
</a>
</g>
</g>
<!-- Node1&#45;&gt;Node24 -->
<g id="edge23" class="edge">
<title>Node1&#45;&gt;Node24</title>
<path fill="none" stroke="midnightblue" d="M2092.5,-97.73C2362.4,-96.38 3319.31,-88.36 3620,-42 3622.95,-41.55 3625.95,-41.01 3628.97,-40.41"/>
<polygon fill="midnightblue" stroke="midnightblue" points="2092.41,-94.23 2082.43,-97.78 2092.45,-101.23 2092.41,-94.23"/>
</g>
<!-- Node25 -->
<g id="node25" class="node">
<title>Node25</title>
<g id="a_node25"><a xlink:href="../../de/d46/pattern__piece__dialog_8cpp.html" target="_top" xlink:title=" ">
<polygon fill="white" stroke="black" points="3773.5,-0.5 3773.5,-41.5 3916.5,-41.5 3916.5,-0.5 3773.5,-0.5"/>
<text text-anchor="start" x="3781.5" y="-29.5" font-family="Helvetica,sans-Serif" font-size="10.00">src/libs/vtools/dialogs</text>
<text text-anchor="start" x="3781.5" y="-18.5" font-family="Helvetica,sans-Serif" font-size="10.00">/tools/piece/pattern_piece</text>
<text text-anchor="middle" x="3845" y="-7.5" font-family="Helvetica,sans-Serif" font-size="10.00">_dialog.cpp</text>
</a>
</g>
</g>
<!-- Node1&#45;&gt;Node25 -->
<g id="edge24" class="edge">
<title>Node1&#45;&gt;Node25</title>
<path fill="none" stroke="midnightblue" d="M2092.61,-97.7C2377.77,-96.21 3433.12,-87.65 3764,-42 3767.01,-41.58 3770.08,-41.1 3773.16,-40.57"/>
<polygon fill="midnightblue" stroke="midnightblue" points="2092.37,-94.2 2082.39,-97.75 2092.41,-101.2 2092.37,-94.2"/>
</g>
<!-- Node26 -->
<g id="node26" class="node">
<title>Node26</title>
<g id="a_node26"><a xlink:href="../../d9/d4e/vabstracttool_8cpp.html" target="_top" xlink:title=" ">
<polygon fill="white" stroke="black" points="3934.5,-6 3934.5,-36 4045.5,-36 4045.5,-6 3934.5,-6"/>
<text text-anchor="start" x="3942.5" y="-24" font-family="Helvetica,sans-Serif" font-size="10.00">src/libs/vtools/tools</text>
<text text-anchor="middle" x="3990" y="-13" font-family="Helvetica,sans-Serif" font-size="10.00">/vabstracttool.cpp</text>
</a>
</g>
</g>
<!-- Node1&#45;&gt;Node26 -->
<g id="edge25" class="edge">
<title>Node1&#45;&gt;Node26</title>
<path fill="none" stroke="midnightblue" d="M2092.38,-97.06C2416.63,-92.61 3742.91,-72.7 3926,-42 3934.15,-40.63 3942.7,-38.49 3950.81,-36.1"/>
<polygon fill="midnightblue" stroke="midnightblue" points="2092.13,-93.56 2082.17,-97.2 2092.22,-100.56 2092.13,-93.56"/>
</g>
</g>
</svg>
