<?xml version="1.0" encoding="UTF-8" standalone="no"?>
<!DOCTYPE svg PUBLIC "-//W3C//DTD SVG 1.1//EN"
 "http://www.w3.org/Graphics/SVG/1.1/DTD/svg11.dtd">
<!-- Generated by graphviz version 2.43.0 (0)
 -->
<!-- Title: src/libs/vtools/dialogs/support/edit_formula_dialog.h Pages: 1 -->
<svg width="4053pt" height="128pt"
 viewBox="0.00 0.00 4052.50 128.00" xmlns="http://www.w3.org/2000/svg" xmlns:xlink="http://www.w3.org/1999/xlink">
<g id="graph0" class="graph" transform="scale(1 1) rotate(0) translate(4 124)">
<title>src/libs/vtools/dialogs/support/edit_formula_dialog.h</title>
<polygon fill="white" stroke="transparent" points="-4,4 -4,-124 4048.5,-124 4048.5,4 -4,4"/>
<!-- Node1 -->
<g id="node1" class="node">
<title>Node1</title>
<g id="a_node1"><a xlink:title=" ">
<polygon fill="#bfbfbf" stroke="black" points="1932,-78.5 1932,-119.5 2054,-119.5 2054,-78.5 1932,-78.5"/>
<text text-anchor="start" x="1940" y="-107.5" font-family="Helvetica,sans-Serif" font-size="10.00">src/libs/vtools/dialogs</text>
<text text-anchor="start" x="1940" y="-96.5" font-family="Helvetica,sans-Serif" font-size="10.00">/support/edit_formula</text>
<text text-anchor="middle" x="1993" y="-85.5" font-family="Helvetica,sans-Serif" font-size="10.00">_dialog.h</text>
</a>
</g>
</g>
<!-- Node2 -->
<g id="node2" class="node">
<title>Node2</title>
<g id="a_node2"><a xlink:href="../../d7/d8d/edit__formula__dialog_8cpp.html" target="_top" xlink:title=" ">
<polygon fill="white" stroke="black" points="0,-0.5 0,-41.5 122,-41.5 122,-0.5 0,-0.5"/>
<text text-anchor="start" x="8" y="-29.5" font-family="Helvetica,sans-Serif" font-size="10.00">src/libs/vtools/dialogs</text>
<text text-anchor="start" x="8" y="-18.5" font-family="Helvetica,sans-Serif" font-size="10.00">/support/edit_formula</text>
<text text-anchor="middle" x="61" y="-7.5" font-family="Helvetica,sans-Serif" font-size="10.00">_dialog.cpp</text>
</a>
</g>
</g>
<!-- Node1&#45;&gt;Node2 -->
<g id="edge1" class="edge">
<title>Node1&#45;&gt;Node2</title>
<path fill="none" stroke="midnightblue" d="M1921.44,-98.22C1624.13,-98.75 485.52,-97.1 131,-42 128.13,-41.55 125.21,-41.03 122.27,-40.44"/>
<polygon fill="midnightblue" stroke="midnightblue" points="1921.66,-101.72 1931.66,-98.2 1921.65,-94.72 1921.66,-101.72"/>
</g>
<!-- Node3 -->
<g id="node3" class="node">
<title>Node3</title>
<g id="a_node3"><a xlink:href="../../d6/d5d/dialogalongline_8cpp.html" target="_top" xlink:title=" ">
<polygon fill="white" stroke="black" points="140,-6 140,-36 282,-36 282,-6 140,-6"/>
<text text-anchor="start" x="148" y="-24" font-family="Helvetica,sans-Serif" font-size="10.00">src/libs/vtools/dialogs</text>
<text text-anchor="middle" x="211" y="-13" font-family="Helvetica,sans-Serif" font-size="10.00">/tools/dialogalongline.cpp</text>
</a>
</g>
</g>
<!-- Node1&#45;&gt;Node3 -->
<g id="edge2" class="edge">
<title>Node1&#45;&gt;Node3</title>
<path fill="none" stroke="midnightblue" d="M1921.67,-97.67C1641.15,-96.05 613.48,-87.09 291,-42 280.93,-40.59 270.3,-38.43 260.18,-36.03"/>
<polygon fill="midnightblue" stroke="midnightblue" points="1921.7,-101.17 1931.72,-97.72 1921.74,-94.17 1921.7,-101.17"/>
</g>
<!-- Node4 -->
<g id="node4" class="node">
<title>Node4</title>
<g id="a_node4"><a xlink:href="../../d1/d37/dialogarc_8cpp.html" target="_top" xlink:title=" ">
<polygon fill="white" stroke="black" points="300,-6 300,-36 422,-36 422,-6 300,-6"/>
<text text-anchor="start" x="308" y="-24" font-family="Helvetica,sans-Serif" font-size="10.00">src/libs/vtools/dialogs</text>
<text text-anchor="middle" x="361" y="-13" font-family="Helvetica,sans-Serif" font-size="10.00">/tools/dialogarc.cpp</text>
</a>
</g>
</g>
<!-- Node1&#45;&gt;Node4 -->
<g id="edge3" class="edge">
<title>Node1&#45;&gt;Node4</title>
<path fill="none" stroke="midnightblue" d="M1921.41,-97.73C1655.36,-96.39 723.91,-88.39 431,-42 422.14,-40.6 412.81,-38.43 403.95,-36.04"/>
<polygon fill="midnightblue" stroke="midnightblue" points="1921.7,-101.24 1931.71,-97.78 1921.73,-94.24 1921.7,-101.24"/>
</g>
<!-- Node5 -->
<g id="node5" class="node">
<title>Node5</title>
<g id="a_node5"><a xlink:href="../../d2/d29/dialogarcwithlength_8cpp.html" target="_top" xlink:title=" ">
<polygon fill="white" stroke="black" points="440,-6 440,-36 604,-36 604,-6 440,-6"/>
<text text-anchor="start" x="448" y="-24" font-family="Helvetica,sans-Serif" font-size="10.00">src/libs/vtools/dialogs</text>
<text text-anchor="middle" x="522" y="-13" font-family="Helvetica,sans-Serif" font-size="10.00">/tools/dialogarcwithlength.cpp</text>
</a>
</g>
</g>
<!-- Node1&#45;&gt;Node5 -->
<g id="edge4" class="edge">
<title>Node1&#45;&gt;Node5</title>
<path fill="none" stroke="midnightblue" d="M1921.76,-96.76C1676.79,-92.26 870,-75.19 613,-42 601.77,-40.55 589.88,-38.4 578.52,-36.03"/>
<polygon fill="midnightblue" stroke="midnightblue" points="1921.9,-100.27 1931.97,-96.95 1922.03,-93.27 1921.9,-100.27"/>
</g>
<!-- Node6 -->
<g id="node6" class="node">
<title>Node6</title>
<g id="a_node6"><a xlink:href="../../da/dfa/dialogbisector_8cpp.html" target="_top" xlink:title=" ">
<polygon fill="white" stroke="black" points="622.5,-6 622.5,-36 757.5,-36 757.5,-6 622.5,-6"/>
<text text-anchor="start" x="630.5" y="-24" font-family="Helvetica,sans-Serif" font-size="10.00">src/libs/vtools/dialogs</text>
<text text-anchor="middle" x="690" y="-13" font-family="Helvetica,sans-Serif" font-size="10.00">/tools/dialogbisector.cpp</text>
</a>
</g>
</g>
<!-- Node1&#45;&gt;Node6 -->
<g id="edge5" class="edge">
<title>Node1&#45;&gt;Node6</title>
<path fill="none" stroke="midnightblue" d="M1921.68,-96.73C1694.74,-92.37 991.13,-76.36 766,-42 756.56,-40.56 746.6,-38.41 737.11,-36.05"/>
<polygon fill="midnightblue" stroke="midnightblue" points="1921.73,-100.23 1931.8,-96.92 1921.87,-93.23 1921.73,-100.23"/>
</g>
<!-- Node7 -->
<g id="node7" class="node">
<title>Node7</title>
<g id="a_node7"><a xlink:href="../../d9/d90/dialogcutarc_8cpp.html" target="_top" xlink:title=" ">
<polygon fill="white" stroke="black" points="775.5,-6 775.5,-36 902.5,-36 902.5,-6 775.5,-6"/>
<text text-anchor="start" x="783.5" y="-24" font-family="Helvetica,sans-Serif" font-size="10.00">src/libs/vtools/dialogs</text>
<text text-anchor="middle" x="839" y="-13" font-family="Helvetica,sans-Serif" font-size="10.00">/tools/dialogcutarc.cpp</text>
</a>
</g>
</g>
<!-- Node1&#45;&gt;Node7 -->
<g id="edge6" class="edge">
<title>Node1&#45;&gt;Node7</title>
<path fill="none" stroke="midnightblue" d="M1921.7,-96.35C1713.13,-91.2 1106.58,-73.83 911,-42 902.04,-40.54 892.59,-38.38 883.6,-36.02"/>
<polygon fill="midnightblue" stroke="midnightblue" points="1921.84,-99.85 1931.92,-96.6 1922.01,-92.86 1921.84,-99.85"/>
</g>
<!-- Node8 -->
<g id="node8" class="node">
<title>Node8</title>
<g id="a_node8"><a xlink:href="../../d3/d2e/dialogcutspline_8cpp.html" target="_top" xlink:title=" ">
<polygon fill="white" stroke="black" points="920.5,-6 920.5,-36 1061.5,-36 1061.5,-6 920.5,-6"/>
<text text-anchor="start" x="928.5" y="-24" font-family="Helvetica,sans-Serif" font-size="10.00">src/libs/vtools/dialogs</text>
<text text-anchor="middle" x="991" y="-13" font-family="Helvetica,sans-Serif" font-size="10.00">/tools/dialogcutspline.cpp</text>
</a>
</g>
</g>
<!-- Node1&#45;&gt;Node8 -->
<g id="edge7" class="edge">
<title>Node1&#45;&gt;Node8</title>
<path fill="none" stroke="midnightblue" d="M1921.45,-98.2C1765.69,-97.65 1384.59,-90.92 1070,-42 1060.35,-40.5 1050.17,-38.36 1040.44,-36.02"/>
<polygon fill="midnightblue" stroke="midnightblue" points="1921.82,-101.7 1931.83,-98.23 1921.84,-94.7 1921.82,-101.7"/>
</g>
<!-- Node9 -->
<g id="node9" class="node">
<title>Node9</title>
<g id="a_node9"><a xlink:href="../../df/d30/dialogcutsplinepath_8cpp.html" target="_top" xlink:title=" ">
<polygon fill="white" stroke="black" points="1079.5,-6 1079.5,-36 1242.5,-36 1242.5,-6 1079.5,-6"/>
<text text-anchor="start" x="1087.5" y="-24" font-family="Helvetica,sans-Serif" font-size="10.00">src/libs/vtools/dialogs</text>
<text text-anchor="middle" x="1161" y="-13" font-family="Helvetica,sans-Serif" font-size="10.00">/tools/dialogcutsplinepath.cpp</text>
</a>
</g>
</g>
<!-- Node1&#45;&gt;Node9 -->
<g id="edge8" class="edge">
<title>Node1&#45;&gt;Node9</title>
<path fill="none" stroke="midnightblue" d="M1921.65,-95.95C1789.1,-91.4 1496.14,-77.87 1252,-42 1241.28,-40.42 1229.93,-38.3 1219.03,-36.03"/>
<polygon fill="midnightblue" stroke="midnightblue" points="1921.57,-99.45 1931.68,-96.29 1921.81,-92.45 1921.57,-99.45"/>
</g>
<!-- Node10 -->
<g id="node10" class="node">
<title>Node10</title>
<g id="a_node10"><a xlink:href="../../df/ded/tooldialogs_8h.html" target="_top" xlink:title=" ">
<polygon fill="white" stroke="black" points="1261,-6 1261,-36 1383,-36 1383,-6 1261,-6"/>
<text text-anchor="start" x="1269" y="-24" font-family="Helvetica,sans-Serif" font-size="10.00">src/libs/vtools/dialogs</text>
<text text-anchor="middle" x="1322" y="-13" font-family="Helvetica,sans-Serif" font-size="10.00">/tooldialogs.h</text>
</a>
</g>
</g>
<!-- Node1&#45;&gt;Node10 -->
<g id="edge9" class="edge">
<title>Node1&#45;&gt;Node10</title>
<path fill="none" stroke="midnightblue" d="M1921.65,-95.63C1808.49,-90.91 1581.26,-77.54 1392,-42 1383.68,-40.44 1374.92,-38.32 1366.52,-36.05"/>
<polygon fill="midnightblue" stroke="midnightblue" points="1921.78,-99.14 1931.92,-96.05 1922.07,-92.14 1921.78,-99.14"/>
</g>
<!-- Node11 -->
<g id="node11" class="node">
<title>Node11</title>
<g id="a_node11"><a xlink:href="../../dd/d39/dialogcurveintersectaxis_8cpp.html" target="_top" xlink:title=" ">
<polygon fill="white" stroke="black" points="1401.5,-6 1401.5,-36 1588.5,-36 1588.5,-6 1401.5,-6"/>
<text text-anchor="start" x="1409.5" y="-24" font-family="Helvetica,sans-Serif" font-size="10.00">src/libs/vtools/dialogs</text>
<text text-anchor="middle" x="1495" y="-13" font-family="Helvetica,sans-Serif" font-size="10.00">/tools/dialogcurveintersectaxis.cpp</text>
</a>
</g>
</g>
<!-- Node1&#45;&gt;Node11 -->
<g id="edge10" class="edge">
<title>Node1&#45;&gt;Node11</title>
<path fill="none" stroke="midnightblue" d="M1921.41,-89.04C1841.96,-78.83 1710.03,-61.06 1597,-42 1586.23,-40.18 1574.86,-38.11 1563.77,-36"/>
<polygon fill="midnightblue" stroke="midnightblue" points="1921.43,-92.57 1931.79,-90.37 1922.32,-85.63 1921.43,-92.57"/>
</g>
<!-- Node12 -->
<g id="node12" class="node">
<title>Node12</title>
<g id="a_node12"><a xlink:href="../../d3/d15/dialogendline_8cpp.html" target="_top" xlink:title=" ">
<polygon fill="white" stroke="black" points="1606.5,-6 1606.5,-36 1739.5,-36 1739.5,-6 1606.5,-6"/>
<text text-anchor="start" x="1614.5" y="-24" font-family="Helvetica,sans-Serif" font-size="10.00">src/libs/vtools/dialogs</text>
<text text-anchor="middle" x="1673" y="-13" font-family="Helvetica,sans-Serif" font-size="10.00">/tools/dialogendline.cpp</text>
</a>
</g>
</g>
<!-- Node1&#45;&gt;Node12 -->
<g id="edge11" class="edge">
<title>Node1&#45;&gt;Node12</title>
<path fill="none" stroke="midnightblue" d="M1922.13,-82.36C1873.36,-71.44 1807.14,-56.32 1749,-42 1741.45,-40.14 1733.49,-38.12 1725.69,-36.1"/>
<polygon fill="midnightblue" stroke="midnightblue" points="1921.43,-85.79 1931.96,-84.55 1922.96,-78.96 1921.43,-85.79"/>
</g>
<!-- Node13 -->
<g id="node13" class="node">
<title>Node13</title>
<g id="a_node13"><a xlink:href="../../d9/d68/dialogellipticalarc_8cpp.html" target="_top" xlink:title=" ">
<polygon fill="white" stroke="black" points="1758,-6 1758,-36 1912,-36 1912,-6 1758,-6"/>
<text text-anchor="start" x="1766" y="-24" font-family="Helvetica,sans-Serif" font-size="10.00">src/libs/vtools/dialogs</text>
<text text-anchor="middle" x="1835" y="-13" font-family="Helvetica,sans-Serif" font-size="10.00">/tools/dialogellipticalarc.cpp</text>
</a>
</g>
</g>
<!-- Node1&#45;&gt;Node13 -->
<g id="edge12" class="edge">
<title>Node1&#45;&gt;Node13</title>
<path fill="none" stroke="midnightblue" d="M1943.04,-73.97C1917.23,-61.55 1886.61,-46.83 1864.57,-36.23"/>
<polygon fill="midnightblue" stroke="midnightblue" points="1941.78,-77.25 1952.31,-78.43 1944.82,-70.94 1941.78,-77.25"/>
</g>
<!-- Node14 -->
<g id="node14" class="node">
<title>Node14</title>
<g id="a_node14"><a xlink:href="../../d2/d51/dialogmove_8cpp.html" target="_top" xlink:title=" ">
<polygon fill="white" stroke="black" points="1930.5,-6 1930.5,-36 2055.5,-36 2055.5,-6 1930.5,-6"/>
<text text-anchor="start" x="1938.5" y="-24" font-family="Helvetica,sans-Serif" font-size="10.00">src/libs/vtools/dialogs</text>
<text text-anchor="middle" x="1993" y="-13" font-family="Helvetica,sans-Serif" font-size="10.00">/tools/dialogmove.cpp</text>
</a>
</g>
</g>
<!-- Node1&#45;&gt;Node14 -->
<g id="edge13" class="edge">
<title>Node1&#45;&gt;Node14</title>
<path fill="none" stroke="midnightblue" d="M1993,-68.28C1993,-57.25 1993,-45.25 1993,-36.23"/>
<polygon fill="midnightblue" stroke="midnightblue" points="1989.5,-68.43 1993,-78.43 1996.5,-68.43 1989.5,-68.43"/>
</g>
<!-- Node15 -->
<g id="node15" class="node">
<title>Node15</title>
<g id="a_node15"><a xlink:href="../../de/d3c/dialoglineintersectaxis_8cpp.html" target="_top" xlink:title=" ">
<polygon fill="white" stroke="black" points="2074,-6 2074,-36 2252,-36 2252,-6 2074,-6"/>
<text text-anchor="start" x="2082" y="-24" font-family="Helvetica,sans-Serif" font-size="10.00">src/libs/vtools/dialogs</text>
<text text-anchor="middle" x="2163" y="-13" font-family="Helvetica,sans-Serif" font-size="10.00">/tools/dialoglineintersectaxis.cpp</text>
</a>
</g>
</g>
<!-- Node1&#45;&gt;Node15 -->
<g id="edge14" class="edge">
<title>Node1&#45;&gt;Node15</title>
<path fill="none" stroke="midnightblue" d="M2046.05,-74.28C2074.07,-61.76 2107.52,-46.81 2131.45,-36.11"/>
<polygon fill="midnightblue" stroke="midnightblue" points="2044.48,-71.15 2036.78,-78.43 2047.34,-77.54 2044.48,-71.15"/>
</g>
<!-- Node16 -->
<g id="node16" class="node">
<title>Node16</title>
<g id="a_node16"><a xlink:href="../../d9/df4/dialogpointofcontact_8cpp.html" target="_top" xlink:title=" ">
<polygon fill="white" stroke="black" points="2269.5,-6 2269.5,-36 2436.5,-36 2436.5,-6 2269.5,-6"/>
<text text-anchor="start" x="2277.5" y="-24" font-family="Helvetica,sans-Serif" font-size="10.00">src/libs/vtools/dialogs</text>
<text text-anchor="middle" x="2353" y="-13" font-family="Helvetica,sans-Serif" font-size="10.00">/tools/dialogpointofcontact.cpp</text>
</a>
</g>
</g>
<!-- Node1&#45;&gt;Node16 -->
<g id="edge15" class="edge">
<title>Node1&#45;&gt;Node16</title>
<path fill="none" stroke="midnightblue" d="M2064.06,-83.32C2118.09,-72.11 2194.26,-56.23 2261,-42 2269.95,-40.09 2279.39,-38.06 2288.67,-36.05"/>
<polygon fill="midnightblue" stroke="midnightblue" points="2063.31,-79.89 2054.23,-85.35 2064.74,-86.75 2063.31,-79.89"/>
</g>
<!-- Node17 -->
<g id="node17" class="node">
<title>Node17</title>
<g id="a_node17"><a xlink:href="../../da/df4/dialognormal_8cpp.html" target="_top" xlink:title=" ">
<polygon fill="white" stroke="black" points="2454.5,-6 2454.5,-36 2585.5,-36 2585.5,-6 2454.5,-6"/>
<text text-anchor="start" x="2462.5" y="-24" font-family="Helvetica,sans-Serif" font-size="10.00">src/libs/vtools/dialogs</text>
<text text-anchor="middle" x="2520" y="-13" font-family="Helvetica,sans-Serif" font-size="10.00">/tools/dialognormal.cpp</text>
</a>
</g>
</g>
<!-- Node1&#45;&gt;Node17 -->
<g id="edge16" class="edge">
<title>Node1&#45;&gt;Node17</title>
<path fill="none" stroke="midnightblue" d="M2064.3,-92.32C2153.96,-84.45 2312.34,-68.19 2446,-42 2454.49,-40.34 2463.44,-38.23 2472.07,-36.01"/>
<polygon fill="midnightblue" stroke="midnightblue" points="2063.91,-88.84 2054.25,-93.19 2064.51,-95.81 2063.91,-88.84"/>
</g>
<!-- Node18 -->
<g id="node18" class="node">
<title>Node18</title>
<g id="a_node18"><a xlink:href="../../dc/d64/dialogrotation_8cpp.html" target="_top" xlink:title=" ">
<polygon fill="white" stroke="black" points="2603.5,-6 2603.5,-36 2738.5,-36 2738.5,-6 2603.5,-6"/>
<text text-anchor="start" x="2611.5" y="-24" font-family="Helvetica,sans-Serif" font-size="10.00">src/libs/vtools/dialogs</text>
<text text-anchor="middle" x="2671" y="-13" font-family="Helvetica,sans-Serif" font-size="10.00">/tools/dialogrotation.cpp</text>
</a>
</g>
</g>
<!-- Node1&#45;&gt;Node18 -->
<g id="edge17" class="edge">
<title>Node1&#45;&gt;Node18</title>
<path fill="none" stroke="midnightblue" d="M2064.38,-95.16C2177.61,-89.81 2405.06,-75.59 2595,-42 2604,-40.41 2613.5,-38.28 2622.61,-36"/>
<polygon fill="midnightblue" stroke="midnightblue" points="2063.94,-91.68 2054.11,-95.64 2064.26,-98.67 2063.94,-91.68"/>
</g>
<!-- Node19 -->
<g id="node19" class="node">
<title>Node19</title>
<g id="a_node19"><a xlink:href="../../df/de5/dialogspline_8cpp.html" target="_top" xlink:title=" ">
<polygon fill="white" stroke="black" points="2757,-6 2757,-36 2883,-36 2883,-6 2757,-6"/>
<text text-anchor="start" x="2765" y="-24" font-family="Helvetica,sans-Serif" font-size="10.00">src/libs/vtools/dialogs</text>
<text text-anchor="middle" x="2820" y="-13" font-family="Helvetica,sans-Serif" font-size="10.00">/tools/dialogspline.cpp</text>
</a>
</g>
</g>
<!-- Node1&#45;&gt;Node19 -->
<g id="edge18" class="edge">
<title>Node1&#45;&gt;Node19</title>
<path fill="none" stroke="midnightblue" d="M2064.36,-97.37C2199.01,-95.16 2499.39,-85.31 2748,-42 2756.69,-40.49 2765.84,-38.36 2774.6,-36.07"/>
<polygon fill="midnightblue" stroke="midnightblue" points="2064.12,-93.87 2054.18,-97.53 2064.23,-100.87 2064.12,-93.87"/>
</g>
<!-- Node20 -->
<g id="node20" class="node">
<title>Node20</title>
<g id="a_node20"><a xlink:href="../../dc/dc2/dialogsplinepath_8cpp.html" target="_top" xlink:title=" ">
<polygon fill="white" stroke="black" points="2901,-6 2901,-36 3049,-36 3049,-6 2901,-6"/>
<text text-anchor="start" x="2909" y="-24" font-family="Helvetica,sans-Serif" font-size="10.00">src/libs/vtools/dialogs</text>
<text text-anchor="middle" x="2975" y="-13" font-family="Helvetica,sans-Serif" font-size="10.00">/tools/dialogsplinepath.cpp</text>
</a>
</g>
</g>
<!-- Node1&#45;&gt;Node20 -->
<g id="edge19" class="edge">
<title>Node1&#45;&gt;Node20</title>
<path fill="none" stroke="midnightblue" d="M2064.34,-97.76C2217.03,-96.34 2586.46,-87.97 2892,-42 2901.97,-40.5 2912.5,-38.39 2922.58,-36.09"/>
<polygon fill="midnightblue" stroke="midnightblue" points="2064.13,-94.27 2054.16,-97.85 2064.19,-101.27 2064.13,-94.27"/>
</g>
<!-- Node21 -->
<g id="node21" class="node">
<title>Node21</title>
<g id="a_node21"><a xlink:href="../../d3/d23/dialogshoulderpoint_8cpp.html" target="_top" xlink:title=" ">
<polygon fill="white" stroke="black" points="3067,-6 3067,-36 3231,-36 3231,-6 3067,-6"/>
<text text-anchor="start" x="3075" y="-24" font-family="Helvetica,sans-Serif" font-size="10.00">src/libs/vtools/dialogs</text>
<text text-anchor="middle" x="3149" y="-13" font-family="Helvetica,sans-Serif" font-size="10.00">/tools/dialogshoulderpoint.cpp</text>
</a>
</g>
</g>
<!-- Node1&#45;&gt;Node21 -->
<g id="edge20" class="edge">
<title>Node1&#45;&gt;Node21</title>
<path fill="none" stroke="midnightblue" d="M2064.45,-98.27C2236.38,-98.04 2686.47,-92.25 3058,-42 3069.06,-40.5 3080.77,-38.36 3091.97,-36.03"/>
<polygon fill="midnightblue" stroke="midnightblue" points="2064.26,-94.77 2054.26,-98.28 2064.26,-101.77 2064.26,-94.77"/>
</g>
<!-- Node22 -->
<g id="node22" class="node">
<title>Node22</title>
<g id="a_node22"><a xlink:href="../../d5/d5a/intersect__circletangent__dialog_8cpp.html" target="_top" xlink:title=" ">
<polygon fill="white" stroke="black" points="3249,-0.5 3249,-41.5 3407,-41.5 3407,-0.5 3249,-0.5"/>
<text text-anchor="start" x="3257" y="-29.5" font-family="Helvetica,sans-Serif" font-size="10.00">src/libs/vtools/dialogs</text>
<text text-anchor="start" x="3257" y="-18.5" font-family="Helvetica,sans-Serif" font-size="10.00">/tools/intersect_circletangent</text>
<text text-anchor="middle" x="3328" y="-7.5" font-family="Helvetica,sans-Serif" font-size="10.00">_dialog.cpp</text>
</a>
</g>
</g>
<!-- Node1&#45;&gt;Node22 -->
<g id="edge21" class="edge">
<title>Node1&#45;&gt;Node22</title>
<path fill="none" stroke="midnightblue" d="M2064.25,-96.47C2293.46,-91.3 3010.24,-73.01 3240,-42 3242.95,-41.6 3245.95,-41.15 3248.97,-40.66"/>
<polygon fill="midnightblue" stroke="midnightblue" points="2063.95,-92.98 2054.03,-96.7 2064.11,-99.98 2063.95,-92.98"/>
</g>
<!-- Node23 -->
<g id="node23" class="node">
<title>Node23</title>
<g id="a_node23"><a xlink:href="../../dc/d82/dialoginternalpath_8cpp.html" target="_top" xlink:title=" ">
<polygon fill="white" stroke="black" points="3424.5,-6 3424.5,-36 3609.5,-36 3609.5,-6 3424.5,-6"/>
<text text-anchor="start" x="3432.5" y="-24" font-family="Helvetica,sans-Serif" font-size="10.00">src/libs/vtools/dialogs</text>
<text text-anchor="middle" x="3517" y="-13" font-family="Helvetica,sans-Serif" font-size="10.00">/tools/piece/dialoginternalpath.cpp</text>
</a>
</g>
</g>
<!-- Node1&#45;&gt;Node23 -->
<g id="edge22" class="edge">
<title>Node1&#45;&gt;Node23</title>
<path fill="none" stroke="midnightblue" d="M2064.34,-96.67C2314.34,-91.77 3149.9,-73.39 3416,-42 3428.43,-40.53 3441.61,-38.37 3454.2,-36.01"/>
<polygon fill="midnightblue" stroke="midnightblue" points="2064.22,-93.17 2054.29,-96.86 2064.36,-100.17 2064.22,-93.17"/>
</g>
<!-- Node24 -->
<g id="node24" class="node">
<title>Node24</title>
<g id="a_node24"><a xlink:href="../../d5/de8/intersect__circles__dialog_8cpp.html" target="_top" xlink:title=" ">
<polygon fill="white" stroke="black" points="3628,-0.5 3628,-41.5 3754,-41.5 3754,-0.5 3628,-0.5"/>
<text text-anchor="start" x="3636" y="-29.5" font-family="Helvetica,sans-Serif" font-size="10.00">src/libs/vtools/dialogs</text>
<text text-anchor="start" x="3636" y="-18.5" font-family="Helvetica,sans-Serif" font-size="10.00">/tools/intersect_circles</text>
<text text-anchor="middle" x="3691" y="-7.5" font-family="Helvetica,sans-Serif" font-size="10.00">_dialog.cpp</text>
</a>
</g>
</g>
<!-- Node1&#45;&gt;Node24 -->
<g id="edge23" class="edge">
<title>Node1&#45;&gt;Node24</title>
<path fill="none" stroke="midnightblue" d="M2064.32,-97.78C2336.88,-96.61 3312.71,-89.13 3619,-42 3621.95,-41.55 3624.95,-41.01 3627.97,-40.42"/>
<polygon fill="midnightblue" stroke="midnightblue" points="2064.14,-94.28 2054.16,-97.83 2064.17,-101.28 2064.14,-94.28"/>
</g>
<!-- Node25 -->
<g id="node25" class="node">
<title>Node25</title>
<g id="a_node25"><a xlink:href="../../de/d46/pattern__piece__dialog_8cpp.html" target="_top" xlink:title=" ">
<polygon fill="white" stroke="black" points="3772.5,-0.5 3772.5,-41.5 3915.5,-41.5 3915.5,-0.5 3772.5,-0.5"/>
<text text-anchor="start" x="3780.5" y="-29.5" font-family="Helvetica,sans-Serif" font-size="10.00">src/libs/vtools/dialogs</text>
<text text-anchor="start" x="3780.5" y="-18.5" font-family="Helvetica,sans-Serif" font-size="10.00">/tools/piece/pattern_piece</text>
<text text-anchor="middle" x="3844" y="-7.5" font-family="Helvetica,sans-Serif" font-size="10.00">_dialog.cpp</text>
</a>
</g>
</g>
<!-- Node1&#45;&gt;Node25 -->
<g id="edge24" class="edge">
<title>Node1&#45;&gt;Node25</title>
<path fill="none" stroke="midnightblue" d="M2064.75,-97.74C2352.89,-96.4 3426.61,-88.32 3763,-42 3766.01,-41.59 3769.08,-41.1 3772.16,-40.57"/>
<polygon fill="midnightblue" stroke="midnightblue" points="2064.41,-94.24 2054.43,-97.79 2064.44,-101.24 2064.41,-94.24"/>
</g>
<!-- Node26 -->
<g id="node26" class="node">
<title>Node26</title>
<g id="a_node26"><a xlink:href="../../d9/d4e/vabstracttool_8cpp.html" target="_top" xlink:title=" ">
<polygon fill="white" stroke="black" points="3933.5,-6 3933.5,-36 4044.5,-36 4044.5,-6 3933.5,-6"/>
<text text-anchor="start" x="3941.5" y="-24" font-family="Helvetica,sans-Serif" font-size="10.00">src/libs/vtools/tools</text>
<text text-anchor="middle" x="3989" y="-13" font-family="Helvetica,sans-Serif" font-size="10.00">/vabstracttool.cpp</text>
</a>
</g>
</g>
<!-- Node1&#45;&gt;Node26 -->
<g id="edge25" class="edge">
<title>Node1&#45;&gt;Node26</title>
<path fill="none" stroke="midnightblue" d="M2064.31,-97.09C2391.27,-92.75 3739.1,-73.13 3925,-42 3933.15,-40.63 3941.7,-38.49 3949.81,-36.1"/>
<polygon fill="midnightblue" stroke="midnightblue" points="2063.97,-93.59 2054.02,-97.22 2064.07,-100.59 2063.97,-93.59"/>
</g>
</g>
</svg>
