<?xml version="1.0" encoding="UTF-8" standalone="no"?>
<!DOCTYPE svg PUBLIC "-//W3C//DTD SVG 1.1//EN"
 "http://www.w3.org/Graphics/SVG/1.1/DTD/svg11.dtd">
<!-- Generated by graphviz version 2.43.0 (0)
 -->
<!-- Title: src/app/seamly2d/xml/vpattern.cpp Pages: 1 -->
<svg width="6051pt" height="214pt"
 viewBox="0.00 0.00 6051.00 214.00" xmlns="http://www.w3.org/2000/svg" xmlns:xlink="http://www.w3.org/1999/xlink">
<g id="graph0" class="graph" transform="scale(1 1) rotate(0) translate(4 210)">
<title>src/app/seamly2d/xml/vpattern.cpp</title>
<!-- Node1 -->
<g id="Node000001" class="node">
<title>Node1</title>
<g id="a_Node000001"><a xlink:title=" ">
<polygon fill="#999999" stroke="#666666" points="3328.5,-206 3203.5,-206 3203.5,-176 3328.5,-176 3328.5,-206"/>
<text text-anchor="start" x="3211.5" y="-194" font-family="Helvetica,sans-Serif" font-size="10.00">src/app/seamly2d/xml</text>
<text text-anchor="middle" x="3266" y="-183" font-family="Helvetica,sans-Serif" font-size="10.00">/vpattern.cpp</text>
</a>
</g>
</g>
<!-- Node2 -->
<g id="Node000002" class="node">
<title>Node2</title>
<g id="a_Node000002"><a xlink:href="../../d4/d38/vpattern_8h.html" target="_top" xlink:title=" ">
<polygon fill="white" stroke="#666666" points="420.5,-134.5 353.5,-134.5 353.5,-115.5 420.5,-115.5 420.5,-134.5"/>
<text text-anchor="middle" x="387" y="-122.5" font-family="Helvetica,sans-Serif" font-size="10.00">vpattern.h</text>
</a>
</g>
</g>
<!-- Node1&#45;&gt;Node2 -->
<g id="edge1_Node000001_Node000002" class="edge">
<title>Node1&#45;&gt;Node2</title>
<g id="a_edge1_Node000001_Node000002"><a xlink:title=" ">
<path fill="none" stroke="#63b8ff" d="M3203.26,-189.89C2843.69,-189.13 1041.19,-183.16 488,-140 469.12,-138.53 448.37,-135.84 430.62,-133.21"/>
<polygon fill="#63b8ff" stroke="#63b8ff" points="430.97,-129.72 420.56,-131.68 429.92,-136.64 430.97,-129.72"/>
</a>
</g>
</g>
<!-- Node6 -->
<g id="Node000006" class="node">
<title>Node6</title>
<g id="a_Node000006"><a xlink:title=" ">
<polygon fill="#e0e0e0" stroke="#999999" points="634,-74 476,-74 476,-55 634,-55 634,-74"/>
<text text-anchor="middle" x="555" y="-62" font-family="Helvetica,sans-Serif" font-size="10.00">../ifc/xml/vpatternconverter.h</text>
</a>
</g>
</g>
<!-- Node1&#45;&gt;Node6 -->
<g id="edge17_Node000001_Node000006" class="edge">
<title>Node1&#45;&gt;Node6</title>
<g id="a_edge17_Node000001_Node000006"><a xlink:title=" ">
<path fill="none" stroke="#63b8ff" d="M3203.39,-190.06C2798.86,-190.32 569.58,-189.47 521,-140 504.91,-123.61 522.67,-98.24 537.96,-81.74"/>
<polygon fill="#63b8ff" stroke="#63b8ff" points="540.62,-84.03 545.11,-74.44 535.62,-79.14 540.62,-84.03"/>
</a>
</g>
</g>
<!-- Node7 -->
<g id="Node000007" class="node">
<title>Node7</title>
<g id="a_Node000007"><a xlink:title=" ">
<polygon fill="#e0e0e0" stroke="#999999" points="719.5,-134.5 530.5,-134.5 530.5,-115.5 719.5,-115.5 719.5,-134.5"/>
<text text-anchor="middle" x="625" y="-122.5" font-family="Helvetica,sans-Serif" font-size="10.00">../vwidgets/vabstractmainwindow.h</text>
</a>
</g>
</g>
<!-- Node1&#45;&gt;Node7 -->
<g id="edge6_Node000001_Node000007" class="edge">
<title>Node1&#45;&gt;Node7</title>
<g id="a_edge6_Node000001_Node000007"><a xlink:title=" ">
<path fill="none" stroke="#63b8ff" d="M3203.49,-189.75C2863.21,-188.23 1230.83,-178.99 728,-140 715.36,-139.02 701.91,-137.52 689.04,-135.87"/>
<polygon fill="#63b8ff" stroke="#63b8ff" points="689.24,-132.37 678.87,-134.51 688.32,-139.3 689.24,-132.37"/>
</a>
</g>
</g>
<!-- Node8 -->
<g id="Node000008" class="node">
<title>Node8</title>
<g id="a_Node000008"><a xlink:title=" ">
<polygon fill="#e0e0e0" stroke="#999999" points="878.5,-134.5 737.5,-134.5 737.5,-115.5 878.5,-115.5 878.5,-134.5"/>
<text text-anchor="middle" x="808" y="-122.5" font-family="Helvetica,sans-Serif" font-size="10.00">../vtools/tools/vdatatool.h</text>
</a>
</g>
</g>
<!-- Node1&#45;&gt;Node8 -->
<g id="edge7_Node000001_Node000008" class="edge">
<title>Node1&#45;&gt;Node8</title>
<g id="a_edge7_Node000001_Node000008"><a xlink:title=" ">
<path fill="none" stroke="#63b8ff" d="M3203.4,-189.99C2875.74,-189.76 1355.55,-186.16 887,-140 877.94,-139.11 868.36,-137.76 859.11,-136.24"/>
<polygon fill="#63b8ff" stroke="#63b8ff" points="859.69,-132.79 849.24,-134.55 858.51,-139.69 859.69,-132.79"/>
</a>
</g>
</g>
<!-- Node9 -->
<g id="Node000009" class="node">
<title>Node9</title>
<g id="a_Node000009"><a xlink:title=" ">
<polygon fill="#e0e0e0" stroke="#999999" points="1017.5,-140 896.5,-140 896.5,-110 1017.5,-110 1017.5,-140"/>
<text text-anchor="start" x="904.5" y="-128" font-family="Helvetica,sans-Serif" font-size="10.00">../vtools/tools/pattern</text>
<text text-anchor="middle" x="957" y="-117" font-family="Helvetica,sans-Serif" font-size="10.00">_piece_tool.h</text>
</a>
</g>
</g>
<!-- Node1&#45;&gt;Node9 -->
<g id="edge8_Node000001_Node000009" class="edge">
<title>Node1&#45;&gt;Node9</title>
<g id="a_edge8_Node000001_Node000009"><a xlink:title=" ">
<path fill="none" stroke="#63b8ff" d="M3203.43,-190.11C2889.75,-190.42 1485.67,-189.05 1027.84,-140.05"/>
<polygon fill="#63b8ff" stroke="#63b8ff" points="1028.18,-136.57 1017.86,-138.96 1027.42,-143.53 1028.18,-136.57"/>
</a>
</g>
</g>
<!-- Node10 -->
<g id="Node000010" class="node">
<title>Node10</title>
<g id="a_Node000010"><a xlink:title=" ">
<polygon fill="#e0e0e0" stroke="#999999" points="1148.5,-140 1035.5,-140 1035.5,-110 1148.5,-110 1148.5,-140"/>
<text text-anchor="start" x="1043.5" y="-128" font-family="Helvetica,sans-Serif" font-size="10.00">../vtools/tools/union</text>
<text text-anchor="middle" x="1092" y="-117" font-family="Helvetica,sans-Serif" font-size="10.00">_tool.h</text>
</a>
</g>
</g>
<!-- Node1&#45;&gt;Node10 -->
<g id="edge9_Node000001_Node000010" class="edge">
<title>Node1&#45;&gt;Node10</title>
<g id="a_edge9_Node000001_Node000010"><a xlink:title=" ">
<path fill="none" stroke="#63b8ff" d="M3203.37,-190.08C2901.03,-190.23 1589.81,-188.09 1158.79,-139.89"/>
<polygon fill="#63b8ff" stroke="#63b8ff" points="1159.1,-136.4 1148.77,-138.74 1158.31,-143.36 1159.1,-136.4"/>
</a>
</g>
</g>
<!-- Node11 -->
<g id="Node000011" class="node">
<title>Node11</title>
<g id="a_Node000011"><a xlink:title=" ">
<polygon fill="#e0e0e0" stroke="#999999" points="1301,-140 1167,-140 1167,-110 1301,-110 1301,-140"/>
<text text-anchor="start" x="1175" y="-128" font-family="Helvetica,sans-Serif" font-size="10.00">../vtools/tools/drawTools</text>
<text text-anchor="middle" x="1234" y="-117" font-family="Helvetica,sans-Serif" font-size="10.00">/drawtools.h</text>
</a>
</g>
</g>
<!-- Node1&#45;&gt;Node11 -->
<g id="edge10_Node000001_Node000011" class="edge">
<title>Node1&#45;&gt;Node11</title>
<g id="a_edge10_Node000001_Node000011"><a xlink:title=" ">
<path fill="none" stroke="#63b8ff" d="M3203.14,-189.72C2914.15,-188.22 1710.7,-179.75 1311.2,-139.98"/>
<polygon fill="#63b8ff" stroke="#63b8ff" points="1311.36,-136.47 1301.05,-138.94 1310.65,-143.44 1311.36,-136.47"/>
</a>
</g>
</g>
<!-- Node12 -->
<g id="Node000012" class="node">
<title>Node12</title>
<g id="a_Node000012"><a xlink:title=" ">
<polygon fill="#e0e0e0" stroke="#999999" points="1463,-140 1319,-140 1319,-110 1463,-110 1463,-140"/>
<text text-anchor="start" x="1327" y="-128" font-family="Helvetica,sans-Serif" font-size="10.00">../vtools/tools/nodeDetails</text>
<text text-anchor="middle" x="1391" y="-117" font-family="Helvetica,sans-Serif" font-size="10.00">/nodedetails.h</text>
</a>
</g>
</g>
<!-- Node1&#45;&gt;Node12 -->
<g id="edge11_Node000001_Node000012" class="edge">
<title>Node1&#45;&gt;Node12</title>
<g id="a_edge11_Node000001_Node000012"><a xlink:title=" ">
<path fill="none" stroke="#63b8ff" d="M3203.35,-189.46C2929.94,-186.92 1838.97,-174.82 1473.43,-140.02"/>
<polygon fill="#63b8ff" stroke="#63b8ff" points="1473.65,-136.52 1463.35,-139.03 1472.97,-143.49 1473.65,-136.52"/>
</a>
</g>
</g>
<!-- Node13 -->
<g id="Node000013" class="node">
<title>Node13</title>
<g id="a_Node000013"><a xlink:title=" ">
<polygon fill="#e0e0e0" stroke="#999999" points="1688.5,-134.5 1481.5,-134.5 1481.5,-115.5 1688.5,-115.5 1688.5,-134.5"/>
<text text-anchor="middle" x="1585" y="-122.5" font-family="Helvetica,sans-Serif" font-size="10.00">../ifc/exception/vexceptionobjecterror.h</text>
</a>
</g>
</g>
<!-- Node1&#45;&gt;Node13 -->
<g id="edge12_Node000001_Node000013" class="edge">
<title>Node1&#45;&gt;Node13</title>
<g id="a_edge12_Node000001_Node000013"><a xlink:title=" ">
<path fill="none" stroke="#63b8ff" d="M3203.15,-190.06C2990.97,-189.8 2281.81,-185.38 1698,-140 1684.2,-138.93 1669.5,-137.39 1655.42,-135.73"/>
<polygon fill="#63b8ff" stroke="#63b8ff" points="1655.65,-132.24 1645.3,-134.51 1654.81,-139.18 1655.65,-132.24"/>
</a>
</g>
</g>
<!-- Node14 -->
<g id="Node000014" class="node">
<title>Node14</title>
<g id="a_Node000014"><a xlink:title=" ">
<polygon fill="#e0e0e0" stroke="#999999" points="1901,-134.5 1707,-134.5 1707,-115.5 1901,-115.5 1901,-134.5"/>
<text text-anchor="middle" x="1804" y="-122.5" font-family="Helvetica,sans-Serif" font-size="10.00">../ifc/exception/vexceptionwrongid.h</text>
</a>
</g>
</g>
<!-- Node1&#45;&gt;Node14 -->
<g id="edge13_Node000001_Node000014" class="edge">
<title>Node1&#45;&gt;Node14</title>
<g id="a_edge13_Node000001_Node000014"><a xlink:title=" ">
<path fill="none" stroke="#63b8ff" d="M3203.36,-189.79C3010.29,-188.7 2407.36,-181.92 1910,-140 1897.38,-138.94 1883.95,-137.44 1871.04,-135.83"/>
<polygon fill="#63b8ff" stroke="#63b8ff" points="1871.2,-132.32 1860.83,-134.51 1870.3,-139.26 1871.2,-132.32"/>
</a>
</g>
</g>
<!-- Node15 -->
<g id="Node000015" class="node">
<title>Node15</title>
<g id="a_Node000015"><a xlink:title=" ">
<polygon fill="#e0e0e0" stroke="#999999" points="2149,-134.5 1919,-134.5 1919,-115.5 2149,-115.5 2149,-134.5"/>
<text text-anchor="middle" x="2034" y="-122.5" font-family="Helvetica,sans-Serif" font-size="10.00">../ifc/exception/vexceptionconversionerror.h</text>
</a>
</g>
</g>
<!-- Node1&#45;&gt;Node15 -->
<g id="edge14_Node000001_Node000015" class="edge">
<title>Node1&#45;&gt;Node15</title>
<g id="a_edge14_Node000001_Node000015"><a xlink:title=" ">
<path fill="none" stroke="#63b8ff" d="M3203.43,-188.65C3034.55,-184.7 2555.36,-171.36 2158,-140 2143.26,-138.84 2127.57,-137.3 2112.47,-135.67"/>
<polygon fill="#63b8ff" stroke="#63b8ff" points="2112.46,-132.15 2102.14,-134.53 2111.7,-139.1 2112.46,-132.15"/>
</a>
</g>
</g>
<!-- Node16 -->
<g id="Node000016" class="node">
<title>Node16</title>
<g id="a_Node000016"><a xlink:title=" ">
<polygon fill="#e0e0e0" stroke="#999999" points="2403,-134.5 2167,-134.5 2167,-115.5 2403,-115.5 2403,-134.5"/>
<text text-anchor="middle" x="2285" y="-122.5" font-family="Helvetica,sans-Serif" font-size="10.00">../ifc/exception/vexceptionemptyparameter.h</text>
</a>
</g>
</g>
<!-- Node1&#45;&gt;Node16 -->
<g id="edge15_Node000001_Node000016" class="edge">
<title>Node1&#45;&gt;Node16</title>
<g id="a_edge15_Node000001_Node000016"><a xlink:title=" ">
<path fill="none" stroke="#63b8ff" d="M3203.24,-187.43C3061.85,-181.4 2707.61,-164.93 2412,-140 2397.36,-138.77 2381.8,-137.23 2366.77,-135.64"/>
<polygon fill="#63b8ff" stroke="#63b8ff" points="2366.79,-132.12 2356.47,-134.53 2366.04,-139.08 2366.79,-132.12"/>
</a>
</g>
</g>
<!-- Node17 -->
<g id="Node000017" class="node">
<title>Node17</title>
<g id="a_Node000017"><a xlink:title=" ">
<polygon fill="#e0e0e0" stroke="#999999" points="2600.5,-134.5 2421.5,-134.5 2421.5,-115.5 2600.5,-115.5 2600.5,-134.5"/>
<text text-anchor="middle" x="2511" y="-122.5" font-family="Helvetica,sans-Serif" font-size="10.00">../ifc/exception/vexceptionundo.h</text>
</a>
</g>
</g>
<!-- Node1&#45;&gt;Node17 -->
<g id="edge16_Node000001_Node000017" class="edge">
<title>Node1&#45;&gt;Node17</title>
<g id="a_edge16_Node000001_Node000017"><a xlink:title=" ">
<path fill="none" stroke="#63b8ff" d="M3203.47,-186.58C3086.65,-179.89 2827.45,-163.64 2610,-140 2599.23,-138.83 2587.83,-137.4 2576.75,-135.9"/>
<polygon fill="#63b8ff" stroke="#63b8ff" points="2577.07,-132.41 2566.68,-134.52 2576.11,-139.35 2577.07,-132.41"/>
</a>
</g>
</g>
<!-- Node18 -->
<g id="Node000018" class="node">
<title>Node18</title>
<g id="a_Node000018"><a xlink:title=" ">
<polygon fill="#e0e0e0" stroke="#999999" points="2755,-134.5 2619,-134.5 2619,-115.5 2755,-115.5 2755,-134.5"/>
<text text-anchor="middle" x="2687" y="-122.5" font-family="Helvetica,sans-Serif" font-size="10.00">../vmisc/customevents.h</text>
</a>
</g>
</g>
<!-- Node1&#45;&gt;Node18 -->
<g id="edge18_Node000001_Node000018" class="edge">
<title>Node1&#45;&gt;Node18</title>
<g id="a_edge18_Node000001_Node000018"><a xlink:title=" ">
<path fill="none" stroke="#63b8ff" d="M3203.46,-185.1C3109.09,-177.39 2924.76,-161.11 2769,-140 2760.86,-138.9 2752.29,-137.59 2743.88,-136.23"/>
<polygon fill="#63b8ff" stroke="#63b8ff" points="2744.18,-132.73 2733.75,-134.55 2743.04,-139.64 2744.18,-132.73"/>
</a>
</g>
</g>
<!-- Node19 -->
<g id="Node000019" class="node">
<title>Node19</title>
<g id="a_Node000019"><a xlink:title=" ">
<polygon fill="#e0e0e0" stroke="#999999" points="2671,-74 2559,-74 2559,-55 2671,-55 2671,-74"/>
<text text-anchor="middle" x="2615" y="-62" font-family="Helvetica,sans-Serif" font-size="10.00">../vmisc/vsettings.h</text>
</a>
</g>
</g>
<!-- Node1&#45;&gt;Node19 -->
<g id="edge19_Node000001_Node000019" class="edge">
<title>Node1&#45;&gt;Node19</title>
<g id="a_edge19_Node000001_Node000019"><a xlink:title=" ">
<path fill="none" stroke="#63b8ff" d="M3203.42,-187.65C3093.86,-182.82 2872.22,-169.63 2801,-140 2781.45,-131.87 2782.72,-119.88 2764,-110 2734.53,-94.44 2698.83,-83.54 2669.77,-76.42"/>
<polygon fill="#63b8ff" stroke="#63b8ff" points="2670.32,-72.96 2659.79,-74.06 2668.71,-79.77 2670.32,-72.96"/>
</a>
</g>
</g>
<!-- Node20 -->
<g id="Node000020" class="node">
<title>Node20</title>
<g id="a_Node000020"><a xlink:title=" ">
<polygon fill="#e0e0e0" stroke="#999999" points="3095,-134.5 2997,-134.5 2997,-115.5 3095,-115.5 3095,-134.5"/>
<text text-anchor="middle" x="3046" y="-122.5" font-family="Helvetica,sans-Serif" font-size="10.00">../vmisc/vmath.h</text>
</a>
</g>
</g>
<!-- Node1&#45;&gt;Node20 -->
<g id="edge20_Node000001_Node000020" class="edge">
<title>Node1&#45;&gt;Node20</title>
<g id="a_edge20_Node000001_Node000020"><a xlink:title=" ">
<path fill="none" stroke="#63b8ff" d="M3217.72,-175.95C3177.95,-164.38 3122.26,-148.18 3085.21,-137.41"/>
<polygon fill="#63b8ff" stroke="#63b8ff" points="3085.86,-133.95 3075.28,-134.52 3083.9,-140.67 3085.86,-133.95"/>
</a>
</g>
</g>
<!-- Node21 -->
<g id="Node000021" class="node">
<title>Node21</title>
<g id="a_Node000021"><a xlink:title=" ">
<polygon fill="#e0e0e0" stroke="#999999" points="3250.5,-134.5 3113.5,-134.5 3113.5,-115.5 3250.5,-115.5 3250.5,-134.5"/>
<text text-anchor="middle" x="3182" y="-122.5" font-family="Helvetica,sans-Serif" font-size="10.00">../vmisc/projectversion.h</text>
</a>
</g>
</g>
<!-- Node1&#45;&gt;Node21 -->
<g id="edge21_Node000001_Node000021" class="edge">
<title>Node1&#45;&gt;Node21</title>
<g id="a_edge21_Node000001_Node000021"><a xlink:title=" ">
<path fill="none" stroke="#63b8ff" d="M3247.36,-175.8C3233.88,-165.53 3215.69,-151.67 3201.92,-141.18"/>
<polygon fill="#63b8ff" stroke="#63b8ff" points="3203.68,-138.12 3193.61,-134.84 3199.44,-143.69 3203.68,-138.12"/>
</a>
</g>
</g>
<!-- Node22 -->
<g id="Node000022" class="node">
<title>Node22</title>
<g id="a_Node000022"><a xlink:title=" ">
<polygon fill="#e0e0e0" stroke="#999999" points="2856.5,-74 2689.5,-74 2689.5,-55 2856.5,-55 2856.5,-74"/>
<text text-anchor="middle" x="2773" y="-62" font-family="Helvetica,sans-Serif" font-size="10.00">../vmisc/vabstractapplication.h</text>
</a>
</g>
</g>
<!-- Node1&#45;&gt;Node22 -->
<g id="edge22_Node000001_Node000022" class="edge">
<title>Node1&#45;&gt;Node22</title>
<g id="a_edge22_Node000001_Node000022"><a xlink:title=" ">
<path fill="none" stroke="#63b8ff" d="M3203.32,-188.04C3100.64,-183.93 2901.83,-172 2840,-140 2814.97,-127.05 2794.79,-100.65 2783.34,-83.02"/>
<polygon fill="#63b8ff" stroke="#63b8ff" points="2786.16,-80.91 2777.91,-74.26 2780.21,-84.6 2786.16,-80.91"/>
</a>
</g>
</g>
<!-- Node23 -->
<g id="Node000023" class="node">
<title>Node23</title>
<g id="a_Node000023"><a xlink:title=" ">
<polygon fill="#e0e0e0" stroke="#999999" points="3433.5,-134.5 3268.5,-134.5 3268.5,-115.5 3433.5,-115.5 3433.5,-134.5"/>
<text text-anchor="middle" x="3351" y="-122.5" font-family="Helvetica,sans-Serif" font-size="10.00">../qmuparser/qmuparsererror.h</text>
</a>
</g>
</g>
<!-- Node1&#45;&gt;Node23 -->
<g id="edge23_Node000001_Node000023" class="edge">
<title>Node1&#45;&gt;Node23</title>
<g id="a_edge23_Node000001_Node000023"><a xlink:title=" ">
<path fill="none" stroke="#63b8ff" d="M3284.86,-175.8C3298.64,-165.43 3317.26,-151.4 3331.24,-140.88"/>
<polygon fill="#63b8ff" stroke="#63b8ff" points="3333.37,-143.66 3339.25,-134.84 3329.16,-138.06 3333.37,-143.66"/>
</a>
</g>
</g>
<!-- Node24 -->
<g id="Node000024" class="node">
<title>Node24</title>
<g id="a_Node000024"><a xlink:title=" ">
<polygon fill="#e0e0e0" stroke="#999999" points="3620.5,-134.5 3451.5,-134.5 3451.5,-115.5 3620.5,-115.5 3620.5,-134.5"/>
<text text-anchor="middle" x="3536" y="-122.5" font-family="Helvetica,sans-Serif" font-size="10.00">../qmuparser/qmutokenparser.h</text>
</a>
</g>
</g>
<!-- Node1&#45;&gt;Node24 -->
<g id="edge24_Node000001_Node000024" class="edge">
<title>Node1&#45;&gt;Node24</title>
<g id="a_edge24_Node000001_Node000024"><a xlink:title=" ">
<path fill="none" stroke="#63b8ff" d="M3325.25,-175.95C3374.9,-164.19 3444.75,-147.63 3490.19,-136.86"/>
<polygon fill="#63b8ff" stroke="#63b8ff" points="3491.14,-140.23 3500.07,-134.52 3489.53,-133.42 3491.14,-140.23"/>
</a>
</g>
</g>
<!-- Node25 -->
<g id="Node000025" class="node">
<title>Node25</title>
<g id="a_Node000025"><a xlink:title=" ">
<polygon fill="#e0e0e0" stroke="#999999" points="3750,-134.5 3638,-134.5 3638,-115.5 3750,-115.5 3750,-134.5"/>
<text text-anchor="middle" x="3694" y="-122.5" font-family="Helvetica,sans-Serif" font-size="10.00">../vgeometry/varc.h</text>
</a>
</g>
</g>
<!-- Node1&#45;&gt;Node25 -->
<g id="edge25_Node000001_Node000025" class="edge">
<title>Node1&#45;&gt;Node25</title>
<g id="a_edge25_Node000001_Node000025"><a xlink:title=" ">
<path fill="none" stroke="#63b8ff" d="M3328.71,-182.91C3401.44,-174.33 3524.8,-158.7 3630,-140 3635.53,-139.02 3641.31,-137.89 3647.03,-136.72"/>
<polygon fill="#63b8ff" stroke="#63b8ff" points="3648.15,-140.06 3657.21,-134.57 3646.7,-133.21 3648.15,-140.06"/>
</a>
</g>
</g>
<!-- Node26 -->
<g id="Node000026" class="node">
<title>Node26</title>
<g id="a_Node000026"><a xlink:title=" ">
<polygon fill="#e0e0e0" stroke="#999999" points="3922,-134.5 3768,-134.5 3768,-115.5 3922,-115.5 3922,-134.5"/>
<text text-anchor="middle" x="3845" y="-122.5" font-family="Helvetica,sans-Serif" font-size="10.00">../vgeometry/vellipticalarc.h</text>
</a>
</g>
</g>
<!-- Node1&#45;&gt;Node26 -->
<g id="edge26_Node000001_Node000026" class="edge">
<title>Node1&#45;&gt;Node26</title>
<g id="a_edge26_Node000001_Node000026"><a xlink:title=" ">
<path fill="none" stroke="#63b8ff" d="M3328.79,-184.85C3422.6,-176.89 3604.84,-160.35 3759,-140 3767.72,-138.85 3776.91,-137.5 3785.91,-136.1"/>
<polygon fill="#63b8ff" stroke="#63b8ff" points="3786.63,-139.53 3795.96,-134.51 3785.53,-132.62 3786.63,-139.53"/>
</a>
</g>
</g>
<!-- Node27 -->
<g id="Node000027" class="node">
<title>Node27</title>
<g id="a_Node000027"><a xlink:title=" ">
<polygon fill="#e0e0e0" stroke="#999999" points="4088,-134.5 3940,-134.5 3940,-115.5 4088,-115.5 4088,-134.5"/>
<text text-anchor="middle" x="4014" y="-122.5" font-family="Helvetica,sans-Serif" font-size="10.00">../vgeometry/vsplinepath.h</text>
</a>
</g>
</g>
<!-- Node1&#45;&gt;Node27 -->
<g id="edge27_Node000001_Node000027" class="edge">
<title>Node1&#45;&gt;Node27</title>
<g id="a_edge27_Node000001_Node000027"><a xlink:title=" ">
<path fill="none" stroke="#63b8ff" d="M3328.53,-187.22C3446.6,-181.55 3710.33,-166.85 3931,-140 3939.75,-138.94 3948.98,-137.6 3957.98,-136.17"/>
<polygon fill="#63b8ff" stroke="#63b8ff" points="3958.71,-139.6 3968.01,-134.53 3957.58,-132.69 3958.71,-139.6"/>
</a>
</g>
</g>
<!-- Node28 -->
<g id="Node000028" class="node">
<title>Node28</title>
<g id="a_Node000028"><a xlink:title=" ">
<polygon fill="#e0e0e0" stroke="#999999" points="4258,-134.5 4106,-134.5 4106,-115.5 4258,-115.5 4258,-134.5"/>
<text text-anchor="middle" x="4182" y="-122.5" font-family="Helvetica,sans-Serif" font-size="10.00">../vgeometry/vcubicbezier.h</text>
</a>
</g>
</g>
<!-- Node1&#45;&gt;Node28 -->
<g id="edge28_Node000001_Node000028" class="edge">
<title>Node1&#45;&gt;Node28</title>
<g id="a_edge28_Node000001_Node000028"><a xlink:title=" ">
<path fill="none" stroke="#63b8ff" d="M3328.74,-188.43C3467.57,-184.49 3811.17,-172.05 4097,-140 4106.17,-138.97 4115.85,-137.63 4125.27,-136.18"/>
<polygon fill="#63b8ff" stroke="#63b8ff" points="4126.03,-139.6 4135.36,-134.57 4124.93,-132.69 4126.03,-139.6"/>
</a>
</g>
</g>
<!-- Node29 -->
<g id="Node000029" class="node">
<title>Node29</title>
<g id="a_Node000029"><a xlink:title=" ">
<polygon fill="#e0e0e0" stroke="#999999" points="4450,-134.5 4276,-134.5 4276,-115.5 4450,-115.5 4450,-134.5"/>
<text text-anchor="middle" x="4363" y="-122.5" font-family="Helvetica,sans-Serif" font-size="10.00">../vgeometry/vcubicbezierpath.h</text>
</a>
</g>
</g>
<!-- Node1&#45;&gt;Node29 -->
<g id="edge29_Node000001_Node000029" class="edge">
<title>Node1&#45;&gt;Node29</title>
<g id="a_edge29_Node000001_Node000029"><a xlink:title=" ">
<path fill="none" stroke="#63b8ff" d="M3328.52,-188.94C3486.27,-185.81 3913.07,-174.57 4267,-140 4277.91,-138.93 4289.48,-137.51 4300.66,-135.97"/>
<polygon fill="#63b8ff" stroke="#63b8ff" points="4301.38,-139.4 4310.79,-134.53 4300.4,-132.47 4301.38,-139.4"/>
</a>
</g>
</g>
<!-- Node30 -->
<g id="Node000030" class="node">
<title>Node30</title>
<g id="a_Node000030"><a xlink:href="../../d7/d61/application__2d_8h.html" target="_top" xlink:title=" ">
<polygon fill="white" stroke="#666666" points="2979,-134.5 2849,-134.5 2849,-115.5 2979,-115.5 2979,-134.5"/>
<text text-anchor="middle" x="2914" y="-122.5" font-family="Helvetica,sans-Serif" font-size="10.00">../core/application_2d.h</text>
</a>
</g>
</g>
<!-- Node1&#45;&gt;Node30 -->
<g id="edge30_Node000001_Node000030" class="edge">
<title>Node1&#45;&gt;Node30</title>
<g id="a_edge30_Node000001_Node000030"><a xlink:title=" ">
<path fill="none" stroke="#63b8ff" d="M3203.31,-178.89C3146.95,-168.86 3061.9,-153.64 2988,-140 2981.76,-138.85 2975.22,-137.63 2968.72,-136.41"/>
<polygon fill="#63b8ff" stroke="#63b8ff" points="2969.07,-132.91 2958.6,-134.5 2967.78,-139.79 2969.07,-132.91"/>
</a>
</g>
</g>
<!-- Node51 -->
<g id="Node000051" class="node">
<title>Node51</title>
<g id="a_Node000051"><a xlink:title=" ">
<polygon fill="#e0e0e0" stroke="#999999" points="4615.5,-134.5 4468.5,-134.5 4468.5,-115.5 4615.5,-115.5 4615.5,-134.5"/>
<text text-anchor="middle" x="4542" y="-122.5" font-family="Helvetica,sans-Serif" font-size="10.00">../vpatterndb/vpiecenode.h</text>
</a>
</g>
</g>
<!-- Node1&#45;&gt;Node51 -->
<g id="edge42_Node000001_Node000051" class="edge">
<title>Node1&#45;&gt;Node51</title>
<g id="a_edge42_Node000001_Node000051"><a xlink:title=" ">
<path fill="none" stroke="#63b8ff" d="M3328.62,-190.13C3506.25,-189.91 4028.36,-185.16 4459,-140 4468.29,-139.03 4478.11,-137.67 4487.62,-136.17"/>
<polygon fill="#63b8ff" stroke="#63b8ff" points="4488.47,-139.58 4497.77,-134.51 4487.34,-132.67 4488.47,-139.58"/>
</a>
</g>
</g>
<!-- Node52 -->
<g id="Node000052" class="node">
<title>Node52</title>
<g id="a_Node000052"><a xlink:title=" ">
<polygon fill="#e0e0e0" stroke="#999999" points="4772,-134.5 4634,-134.5 4634,-115.5 4772,-115.5 4772,-134.5"/>
<text text-anchor="middle" x="4703" y="-122.5" font-family="Helvetica,sans-Serif" font-size="10.00">../vpatterndb/calculator.h</text>
</a>
</g>
</g>
<!-- Node1&#45;&gt;Node52 -->
<g id="edge43_Node000001_Node000052" class="edge">
<title>Node1&#45;&gt;Node52</title>
<g id="a_edge43_Node000001_Node000052"><a xlink:title=" ">
<path fill="none" stroke="#63b8ff" d="M3328.83,-188.86C3560.78,-184.49 4368.69,-167.58 4625,-140 4633.75,-139.06 4642.99,-137.71 4651.93,-136.23"/>
<polygon fill="#63b8ff" stroke="#63b8ff" points="4652.61,-139.66 4661.87,-134.5 4651.41,-132.77 4652.61,-139.66"/>
</a>
</g>
</g>
<!-- Node53 -->
<g id="Node000053" class="node">
<title>Node53</title>
<g id="a_Node000053"><a xlink:title=" ">
<polygon fill="#e0e0e0" stroke="#999999" points="4939.5,-140 4790.5,-140 4790.5,-110 4939.5,-110 4939.5,-140"/>
<text text-anchor="start" x="4798.5" y="-128" font-family="Helvetica,sans-Serif" font-size="10.00">../vpatterndb/floatItemData</text>
<text text-anchor="middle" x="4865" y="-117" font-family="Helvetica,sans-Serif" font-size="10.00">/vpiecelabeldata.h</text>
</a>
</g>
</g>
<!-- Node1&#45;&gt;Node53 -->
<g id="edge44_Node000001_Node000053" class="edge">
<title>Node1&#45;&gt;Node53</title>
<g id="a_edge44_Node000001_Node000053"><a xlink:title=" ">
<path fill="none" stroke="#63b8ff" d="M3328.66,-189.04C3574.18,-185.1 4471.81,-169.06 4780.14,-139.95"/>
<polygon fill="#63b8ff" stroke="#63b8ff" points="4780.8,-143.41 4790.41,-138.96 4780.12,-136.44 4780.8,-143.41"/>
</a>
</g>
</g>
<!-- Node54 -->
<g id="Node000054" class="node">
<title>Node54</title>
<g id="a_Node000054"><a xlink:title=" ">
<polygon fill="#e0e0e0" stroke="#999999" points="5106.5,-140 4957.5,-140 4957.5,-110 5106.5,-110 5106.5,-140"/>
<text text-anchor="start" x="4965.5" y="-128" font-family="Helvetica,sans-Serif" font-size="10.00">../vpatterndb/floatItemData</text>
<text text-anchor="middle" x="5032" y="-117" font-family="Helvetica,sans-Serif" font-size="10.00">/vpatternlabeldata.h</text>
</a>
</g>
</g>
<!-- Node1&#45;&gt;Node54 -->
<g id="edge45_Node000001_Node000054" class="edge">
<title>Node1&#45;&gt;Node54</title>
<g id="a_edge45_Node000001_Node000054"><a xlink:title=" ">
<path fill="none" stroke="#63b8ff" d="M3328.74,-189.29C3591.46,-186.15 4604.98,-172.21 4947.23,-140.06"/>
<polygon fill="#63b8ff" stroke="#63b8ff" points="4947.79,-143.52 4957.41,-139.08 4947.12,-136.55 4947.79,-143.52"/>
</a>
</g>
</g>
<!-- Node55 -->
<g id="Node000055" class="node">
<title>Node55</title>
<g id="a_Node000055"><a xlink:title=" ">
<polygon fill="#e0e0e0" stroke="#999999" points="5273.5,-140 5124.5,-140 5124.5,-110 5273.5,-110 5273.5,-140"/>
<text text-anchor="start" x="5132.5" y="-128" font-family="Helvetica,sans-Serif" font-size="10.00">../vpatterndb/floatItemData</text>
<text text-anchor="middle" x="5199" y="-117" font-family="Helvetica,sans-Serif" font-size="10.00">/vgrainlinedata.h</text>
</a>
</g>
</g>
<!-- Node1&#45;&gt;Node55 -->
<g id="edge46_Node000001_Node000055" class="edge">
<title>Node1&#45;&gt;Node55</title>
<g id="a_edge46_Node000001_Node000055"><a xlink:title=" ">
<path fill="none" stroke="#63b8ff" d="M3328.7,-189.49C3607.51,-187.02 4737.17,-175.09 5114.29,-140.05"/>
<polygon fill="#63b8ff" stroke="#63b8ff" points="5114.79,-143.52 5124.41,-139.09 5114.12,-136.55 5114.79,-143.52"/>
</a>
</g>
</g>
<!-- Node56 -->
<g id="Node000056" class="node">
<title>Node56</title>
<g id="a_Node000056"><a xlink:title=" ">
<polygon fill="#e0e0e0" stroke="#999999" points="5436.5,-134.5 5291.5,-134.5 5291.5,-115.5 5436.5,-115.5 5436.5,-134.5"/>
<text text-anchor="middle" x="5364" y="-122.5" font-family="Helvetica,sans-Serif" font-size="10.00">../vpatterndb/vpiecepath.h</text>
</a>
</g>
</g>
<!-- Node1&#45;&gt;Node56 -->
<g id="edge47_Node000001_Node000056" class="edge">
<title>Node1&#45;&gt;Node56</title>
<g id="a_edge47_Node000001_Node000056"><a xlink:title=" ">
<path fill="none" stroke="#63b8ff" d="M3328.82,-189.68C3625.73,-187.99 4890.17,-178.61 5283,-140 5292.28,-139.09 5302.11,-137.73 5311.59,-136.21"/>
<polygon fill="#63b8ff" stroke="#63b8ff" points="5312.42,-139.62 5321.7,-134.51 5311.26,-132.72 5312.42,-139.62"/>
</a>
</g>
</g>
<!-- Node57 -->
<g id="Node000057" class="node">
<title>Node57</title>
<g id="a_Node000057"><a xlink:title=" ">
<polygon fill="#e0e0e0" stroke="#999999" points="5603.5,-134.5 5454.5,-134.5 5454.5,-115.5 5603.5,-115.5 5603.5,-134.5"/>
<text text-anchor="middle" x="5529" y="-122.5" font-family="Helvetica,sans-Serif" font-size="10.00">../vpatterndb/vnodedetail.h</text>
</a>
</g>
</g>
<!-- Node1&#45;&gt;Node57 -->
<g id="edge48_Node000001_Node000057" class="edge">
<title>Node1&#45;&gt;Node57</title>
<g id="a_edge48_Node000001_Node000057"><a xlink:title=" ">
<path fill="none" stroke="#63b8ff" d="M3328.65,-189.78C3639.59,-188.52 5018.97,-180.7 5446,-140 5455.61,-139.08 5465.79,-137.71 5475.6,-136.17"/>
<polygon fill="#63b8ff" stroke="#63b8ff" points="5476.35,-139.6 5485.65,-134.52 5475.21,-132.69 5476.35,-139.6"/>
</a>
</g>
</g>
<!-- Node58 -->
<g id="Node000058" class="node">
<title>Node58</title>
<g id="a_Node000058"><a xlink:title=" ">
<polygon fill="#e0e0e0" stroke="#999999" points="5708,-134.5 5622,-134.5 5622,-115.5 5708,-115.5 5708,-134.5"/>
<text text-anchor="middle" x="5665" y="-122.5" font-family="Helvetica,sans-Serif" font-size="10.00">QMessageBox</text>
</a>
</g>
</g>
<!-- Node1&#45;&gt;Node58 -->
<g id="edge49_Node000001_Node000058" class="edge">
<title>Node1&#45;&gt;Node58</title>
<g id="a_edge49_Node000001_Node000058"><a xlink:title=" ">
<path fill="none" stroke="#63b8ff" d="M3328.51,-189.57C3677.9,-187.05 5381.46,-173.14 5613,-140 5618.08,-139.27 5623.36,-138.22 5628.54,-137"/>
<polygon fill="#63b8ff" stroke="#63b8ff" points="5629.44,-140.38 5638.27,-134.52 5627.71,-133.6 5629.44,-140.38"/>
</a>
</g>
</g>
<!-- Node59 -->
<g id="Node000059" class="node">
<title>Node59</title>
<g id="a_Node000059"><a xlink:title=" ">
<polygon fill="#e0e0e0" stroke="#999999" points="5803.5,-134.5 5726.5,-134.5 5726.5,-115.5 5803.5,-115.5 5803.5,-134.5"/>
<text text-anchor="middle" x="5765" y="-122.5" font-family="Helvetica,sans-Serif" font-size="10.00">QUndoStack</text>
</a>
</g>
</g>
<!-- Node1&#45;&gt;Node59 -->
<g id="edge50_Node000001_Node000059" class="edge">
<title>Node1&#45;&gt;Node59</title>
<g id="a_edge50_Node000001_Node000059"><a xlink:title=" ">
<path fill="none" stroke="#63b8ff" d="M3328.64,-189.71C3687.5,-187.9 5474.97,-177.1 5717,-140 5721.46,-139.32 5726.1,-138.33 5730.64,-137.2"/>
<polygon fill="#63b8ff" stroke="#63b8ff" points="5731.65,-140.55 5740.37,-134.53 5729.8,-133.8 5731.65,-140.55"/>
</a>
</g>
</g>
<!-- Node60 -->
<g id="Node000060" class="node">
<title>Node60</title>
<g id="a_Node000060"><a xlink:title=" ">
<polygon fill="#e0e0e0" stroke="#999999" points="5890.5,-134.5 5821.5,-134.5 5821.5,-115.5 5890.5,-115.5 5890.5,-134.5"/>
<text text-anchor="middle" x="5856" y="-122.5" font-family="Helvetica,sans-Serif" font-size="10.00">QtNumeric</text>
</a>
</g>
</g>
<!-- Node1&#45;&gt;Node60 -->
<g id="edge51_Node000001_Node000060" class="edge">
<title>Node1&#45;&gt;Node60</title>
<g id="a_edge51_Node000001_Node000060"><a xlink:title=" ">
<path fill="none" stroke="#63b8ff" d="M3328.7,-189.87C3696.05,-188.99 5561.56,-182.44 5813,-140 5816.7,-139.38 5820.52,-138.5 5824.28,-137.48"/>
<polygon fill="#63b8ff" stroke="#63b8ff" points="5825.44,-140.79 5834,-134.54 5823.41,-134.09 5825.44,-140.79"/>
</a>
</g>
</g>
<!-- Node61 -->
<g id="Node000061" class="node">
<title>Node61</title>
<g id="a_Node000061"><a xlink:title=" ">
<polygon fill="#e0e0e0" stroke="#999999" points="5965,-134.5 5909,-134.5 5909,-115.5 5965,-115.5 5965,-134.5"/>
<text text-anchor="middle" x="5937" y="-122.5" font-family="Helvetica,sans-Serif" font-size="10.00">QDebug</text>
</a>
</g>
</g>
<!-- Node1&#45;&gt;Node61 -->
<g id="edge52_Node000001_Node000061" class="edge">
<title>Node1&#45;&gt;Node61</title>
<g id="a_edge52_Node000001_Node000061"><a xlink:title=" ">
<path fill="none" stroke="#63b8ff" d="M3328.73,-190.09C3703.63,-190.47 5640.57,-189.99 5900,-140 5902.85,-139.45 5905.76,-138.7 5908.64,-137.84"/>
<polygon fill="#63b8ff" stroke="#63b8ff" points="5909.85,-141.12 5918.16,-134.55 5907.57,-134.5 5909.85,-141.12"/>
</a>
</g>
</g>
<!-- Node62 -->
<g id="Node000062" class="node">
<title>Node62</title>
<g id="a_Node000062"><a xlink:title=" ">
<polygon fill="#e0e0e0" stroke="#999999" points="6043,-134.5 5983,-134.5 5983,-115.5 6043,-115.5 6043,-134.5"/>
<text text-anchor="middle" x="6013" y="-122.5" font-family="Helvetica,sans-Serif" font-size="10.00">QFileInfo</text>
</a>
</g>
</g>
<!-- Node1&#45;&gt;Node62 -->
<g id="edge53_Node000001_Node000062" class="edge">
<title>Node1&#45;&gt;Node62</title>
<g id="a_edge53_Node000001_Node000062"><a xlink:title=" ">
<path fill="none" stroke="#63b8ff" d="M3328.61,-190.06C3709.37,-190.29 5706.41,-189.12 5974,-140 5977.08,-139.43 5980.25,-138.65 5983.38,-137.75"/>
<polygon fill="#63b8ff" stroke="#63b8ff" points="5984.7,-141 5993.1,-134.55 5982.51,-134.35 5984.7,-141"/>
</a>
</g>
</g>
<!-- Node3 -->
<g id="Node000003" class="node">
<title>Node3</title>
<g id="a_Node000003"><a xlink:title=" ">
<polygon fill="#e0e0e0" stroke="#999999" points="152,-74 0,-74 0,-55 152,-55 152,-74"/>
<text text-anchor="middle" x="76" y="-62" font-family="Helvetica,sans-Serif" font-size="10.00">../ifc/xml/vabstractpattern.h</text>
</a>
</g>
</g>
<!-- Node2&#45;&gt;Node3 -->
<g id="edge2_Node000002_Node000003" class="edge">
<title>Node2&#45;&gt;Node3</title>
<g id="a_edge2_Node000002_Node000003"><a xlink:title=" ">
<path fill="none" stroke="#63b8ff" d="M353.42,-117.68C300.12,-107.66 195.61,-88 131.18,-75.88"/>
<polygon fill="#63b8ff" stroke="#63b8ff" points="131.67,-72.41 121.2,-74 130.38,-79.29 131.67,-72.41"/>
</a>
</g>
</g>
<!-- Node4 -->
<g id="Node000004" class="node">
<title>Node4</title>
<g id="a_Node000004"><a xlink:title=" ">
<polygon fill="#e0e0e0" stroke="#999999" points="297.5,-74 170.5,-74 170.5,-55 297.5,-55 297.5,-74"/>
<text text-anchor="middle" x="234" y="-62" font-family="Helvetica,sans-Serif" font-size="10.00">../ifc/xml/vtoolrecord.h</text>
</a>
</g>
</g>
<!-- Node2&#45;&gt;Node4 -->
<g id="edge3_Node000002_Node000004" class="edge">
<title>Node2&#45;&gt;Node4</title>
<g id="a_edge3_Node000002_Node000004"><a xlink:title=" ">
<path fill="none" stroke="#63b8ff" d="M364.75,-115.49C338.69,-105.53 295.32,-88.95 265.73,-77.63"/>
<polygon fill="#63b8ff" stroke="#63b8ff" points="266.86,-74.32 256.27,-74.02 264.36,-80.86 266.86,-74.32"/>
</a>
</g>
</g>
<!-- Node5 -->
<g id="Node000005" class="node">
<title>Node5</title>
<g id="a_Node000005"><a xlink:title=" ">
<polygon fill="#e0e0e0" stroke="#999999" points="458,-74 316,-74 316,-55 458,-55 458,-74"/>
<text text-anchor="middle" x="387" y="-62" font-family="Helvetica,sans-Serif" font-size="10.00">../vpatterndb/vcontainer.h</text>
</a>
</g>
</g>
<!-- Node2&#45;&gt;Node5 -->
<g id="edge4_Node000002_Node000005" class="edge">
<title>Node2&#45;&gt;Node5</title>
<g id="a_edge4_Node000002_Node000005"><a xlink:title=" ">
<path fill="none" stroke="#63b8ff" d="M387,-115.37C387,-107.25 387,-94.81 387,-84.39"/>
<polygon fill="#63b8ff" stroke="#63b8ff" points="390.5,-84.17 387,-74.17 383.5,-84.17 390.5,-84.17"/>
</a>
</g>
</g>
<!-- Node2&#45;&gt;Node6 -->
<g id="edge5_Node000002_Node000006" class="edge">
<title>Node2&#45;&gt;Node6</title>
<g id="a_edge5_Node000002_Node000006"><a xlink:title=" ">
<path fill="none" stroke="#63b8ff" d="M411.43,-115.49C440.29,-105.44 488.5,-88.66 521,-77.34"/>
<polygon fill="#63b8ff" stroke="#63b8ff" points="522.25,-80.61 530.54,-74.02 519.95,-74 522.25,-80.61"/>
</a>
</g>
</g>
<!-- Node30&#45;&gt;Node19 -->
<g id="edge32_Node000030_Node000019" class="edge">
<title>Node30&#45;&gt;Node19</title>
<g id="a_edge32_Node000030_Node000019"><a xlink:title=" ">
<path fill="none" stroke="#63b8ff" d="M2870.52,-115.49C2817.05,-105.03 2726.28,-87.27 2668.55,-75.98"/>
<polygon fill="#63b8ff" stroke="#63b8ff" points="2669.02,-72.5 2658.53,-74.02 2667.67,-79.37 2669.02,-72.5"/>
</a>
</g>
</g>
<!-- Node30&#45;&gt;Node22 -->
<g id="edge31_Node000030_Node000022" class="edge">
<title>Node30&#45;&gt;Node22</title>
<g id="a_edge31_Node000030_Node000022"><a xlink:title=" ">
<path fill="none" stroke="#63b8ff" d="M2893.5,-115.49C2869.69,-105.62 2830.21,-89.23 2802.96,-77.93"/>
<polygon fill="#63b8ff" stroke="#63b8ff" points="2804.11,-74.62 2793.53,-74.02 2801.42,-81.08 2804.11,-74.62"/>
</a>
</g>
</g>
<!-- Node31 -->
<g id="Node000031" class="node">
<title>Node31</title>
<g id="a_Node000031"><a xlink:href="../../d7/d5b/options_8h.html" target="_top" xlink:title=" ">
<polygon fill="white" stroke="#666666" points="3318.5,-74 3247.5,-74 3247.5,-55 3318.5,-55 3318.5,-74"/>
<text text-anchor="middle" x="3283" y="-62" font-family="Helvetica,sans-Serif" font-size="10.00">../options.h</text>
</a>
</g>
</g>
<!-- Node30&#45;&gt;Node31 -->
<g id="edge33_Node000030_Node000031" class="edge">
<title>Node30&#45;&gt;Node31</title>
<g id="a_edge33_Node000030_Node000031"><a xlink:title=" ">
<path fill="none" stroke="#63b8ff" d="M2957.38,-115.46C2967.42,-113.58 2978.07,-111.65 2988,-110 3095.6,-92.08 3125.58,-92.39 3237.19,-74.07"/>
<polygon fill="#63b8ff" stroke="#63b8ff" points="3237.87,-77.5 3247.16,-72.42 3236.73,-70.6 3237.87,-77.5"/>
</a>
</g>
</g>
<!-- Node36 -->
<g id="Node000036" class="node">
<title>Node36</title>
<g id="a_Node000036"><a xlink:title=" ">
<polygon fill="#e0e0e0" stroke="#999999" points="3050,-74 2874,-74 2874,-55 3050,-55 3050,-74"/>
<text text-anchor="middle" x="2962" y="-62" font-family="Helvetica,sans-Serif" font-size="10.00">../vwidgets/vmaingraphicsview.h</text>
</a>
</g>
</g>
<!-- Node30&#45;&gt;Node36 -->
<g id="edge38_Node000030_Node000036" class="edge">
<title>Node30&#45;&gt;Node36</title>
<g id="a_edge38_Node000030_Node000036"><a xlink:title=" ">
<path fill="none" stroke="#63b8ff" d="M2921.08,-115.37C2928.24,-106.64 2939.49,-92.93 2948.39,-82.09"/>
<polygon fill="#63b8ff" stroke="#63b8ff" points="2951.25,-84.12 2954.89,-74.17 2945.84,-79.68 2951.25,-84.12"/>
</a>
</g>
</g>
<!-- Node37 -->
<g id="Node000037" class="node">
<title>Node37</title>
<g id="a_Node000037"><a xlink:title=" ">
<polygon fill="#e0e0e0" stroke="#999999" points="3229.5,-74 3068.5,-74 3068.5,-55 3229.5,-55 3229.5,-74"/>
<text text-anchor="middle" x="3149" y="-62" font-family="Helvetica,sans-Serif" font-size="10.00">../vpatterndb/vtranslatevars.h</text>
</a>
</g>
</g>
<!-- Node30&#45;&gt;Node37 -->
<g id="edge39_Node000030_Node000037" class="edge">
<title>Node30&#45;&gt;Node37</title>
<g id="a_edge39_Node000030_Node000037"><a xlink:title=" ">
<path fill="none" stroke="#63b8ff" d="M2948.17,-115.49C2989.59,-105.18 3059.48,-87.78 3104.92,-76.47"/>
<polygon fill="#63b8ff" stroke="#63b8ff" points="3105.93,-79.83 3114.79,-74.02 3104.24,-73.04 3105.93,-79.83"/>
</a>
</g>
</g>
<!-- Node38 -->
<g id="Node000038" class="node">
<title>Node38</title>
<g id="a_Node000038"><a xlink:href="../../dd/d57/vcmdexport_8h.html" target="_top" xlink:title=" ">
<polygon fill="#fff0f0" stroke="red" points="3435,-74 3351,-74 3351,-55 3435,-55 3435,-74"/>
<text text-anchor="middle" x="3393" y="-62" font-family="Helvetica,sans-Serif" font-size="10.00">vcmdexport.h</text>
</a>
</g>
</g>
<!-- Node30&#45;&gt;Node38 -->
<g id="edge40_Node000030_Node000038" class="edge">
<title>Node30&#45;&gt;Node38</title>
<g id="a_edge40_Node000030_Node000038"><a xlink:title=" ">
<path fill="none" stroke="#63b8ff" d="M2955.77,-115.48C2966.27,-113.51 2977.52,-111.54 2988,-110 3138.33,-87.86 3177.1,-91.85 3328,-74 3332.13,-73.51 3336.41,-72.99 3340.71,-72.45"/>
<polygon fill="#63b8ff" stroke="#63b8ff" points="3341.23,-75.91 3350.71,-71.18 3340.35,-68.97 3341.23,-75.91"/>
</a>
</g>
</g>
<!-- Node32 -->
<g id="Node000032" class="node">
<title>Node32</title>
<g id="a_Node000032"><a xlink:title=" ">
<polygon fill="#e0e0e0" stroke="#999999" points="3024.5,-19 2947.5,-19 2947.5,0 3024.5,0 3024.5,-19"/>
<text text-anchor="middle" x="2986" y="-7" font-family="Helvetica,sans-Serif" font-size="10.00">../ifc/ifcdef.h</text>
</a>
</g>
</g>
<!-- Node31&#45;&gt;Node32 -->
<g id="edge34_Node000031_Node000032" class="edge">
<title>Node31&#45;&gt;Node32</title>
<g id="a_edge34_Node000031_Node000032"><a xlink:title=" ">
<path fill="none" stroke="#63b8ff" d="M3247.15,-56.68C3244.05,-56.11 3240.97,-55.54 3238,-55 3150.1,-38.98 3125.72,-35.46 3034.65,-19.29"/>
<polygon fill="#63b8ff" stroke="#63b8ff" points="3035.18,-15.83 3024.73,-17.52 3033.96,-22.72 3035.18,-15.83"/>
</a>
</g>
</g>
<!-- Node33 -->
<g id="Node000033" class="node">
<title>Node33</title>
<g id="a_Node000033"><a xlink:title=" ">
<polygon fill="#e0e0e0" stroke="#999999" points="3201.5,-19 3042.5,-19 3042.5,0 3201.5,0 3201.5,-19"/>
<text text-anchor="middle" x="3122" y="-7" font-family="Helvetica,sans-Serif" font-size="10.00">../vgeometry/vgeometrydef.h</text>
</a>
</g>
</g>
<!-- Node31&#45;&gt;Node33 -->
<g id="edge35_Node000031_Node000033" class="edge">
<title>Node31&#45;&gt;Node33</title>
<g id="a_edge35_Node000031_Node000033"><a xlink:title=" ">
<path fill="none" stroke="#63b8ff" d="M3257.13,-54.98C3230.22,-46.13 3187.88,-32.19 3157.77,-22.28"/>
<polygon fill="#63b8ff" stroke="#63b8ff" points="3158.66,-18.88 3148.07,-19.08 3156.47,-25.53 3158.66,-18.88"/>
</a>
</g>
</g>
<!-- Node34 -->
<g id="Node000034" class="node">
<title>Node34</title>
<g id="a_Node000034"><a xlink:title=" ">
<polygon fill="#e0e0e0" stroke="#999999" points="3346.5,-19 3219.5,-19 3219.5,0 3346.5,0 3346.5,-19"/>
<text text-anchor="middle" x="3283" y="-7" font-family="Helvetica,sans-Serif" font-size="10.00">../qmuparser/qmudef.h</text>
</a>
</g>
</g>
<!-- Node31&#45;&gt;Node34 -->
<g id="edge36_Node000031_Node000034" class="edge">
<title>Node31&#45;&gt;Node34</title>
<g id="a_edge36_Node000031_Node000034"><a xlink:title=" ">
<path fill="none" stroke="#63b8ff" d="M3283,-54.75C3283,-47.8 3283,-37.85 3283,-29.13"/>
<polygon fill="#63b8ff" stroke="#63b8ff" points="3286.5,-29.09 3283,-19.09 3279.5,-29.09 3286.5,-29.09"/>
</a>
</g>
</g>
<!-- Node35 -->
<g id="Node000035" class="node">
<title>Node35</title>
<g id="a_Node000035"><a xlink:title=" ">
<polygon fill="#e0e0e0" stroke="#999999" points="3447,-19 3365,-19 3365,0 3447,0 3447,-19"/>
<text text-anchor="middle" x="3406" y="-7" font-family="Helvetica,sans-Serif" font-size="10.00">../vmisc/def.h</text>
</a>
</g>
</g>
<!-- Node31&#45;&gt;Node35 -->
<g id="edge37_Node000031_Node000035" class="edge">
<title>Node31&#45;&gt;Node35</title>
<g id="a_edge37_Node000031_Node000035"><a xlink:title=" ">
<path fill="none" stroke="#63b8ff" d="M3302.76,-54.98C3322.73,-46.38 3353.8,-32.99 3376.65,-23.15"/>
<polygon fill="#63b8ff" stroke="#63b8ff" points="3378.08,-26.34 3385.88,-19.17 3375.31,-19.91 3378.08,-26.34"/>
</a>
</g>
</g>
<!-- Node38&#45;&gt;Node35 -->
<g id="edge41_Node000038_Node000035" class="edge">
<title>Node38&#45;&gt;Node35</title>
<g id="a_edge41_Node000038_Node000035"><a xlink:title=" ">
<path fill="none" stroke="#63b8ff" d="M3395.15,-54.75C3396.87,-47.72 3399.35,-37.62 3401.5,-28.84"/>
<polygon fill="#63b8ff" stroke="#63b8ff" points="3404.91,-29.63 3403.89,-19.09 3398.11,-27.97 3404.91,-29.63"/>
</a>
</g>
</g>
</g>
</svg>
