<?xml version="1.0" encoding="UTF-8" standalone="no"?>
<!DOCTYPE svg PUBLIC "-//W3C//DTD SVG 1.1//EN"
 "http://www.w3.org/Graphics/SVG/1.1/DTD/svg11.dtd">
<!-- Generated by graphviz version 2.43.0 (0)
 -->
<!-- Title: src/libs/ifc/xml/vdomdocument.h Pages: 1 -->
<svg width="3132pt" height="296pt"
 viewBox="0.00 0.00 3131.50 296.00" xmlns="http://www.w3.org/2000/svg" xmlns:xlink="http://www.w3.org/1999/xlink">
<g id="graph0" class="graph" transform="scale(1 1) rotate(0) translate(4 292)">
<title>src/libs/ifc/xml/vdomdocument.h</title>
<polygon fill="white" stroke="transparent" points="-4,4 -4,-292 3127.5,-292 3127.5,4 -4,4"/>
<!-- Node1 -->
<g id="node1" class="node">
<title>Node1</title>
<g id="a_node1"><a xlink:title=" ">
<polygon fill="#bfbfbf" stroke="black" points="1062,-268.5 1062,-287.5 1238,-287.5 1238,-268.5 1062,-268.5"/>
<text text-anchor="middle" x="1150" y="-275.5" font-family="Helvetica,sans-Serif" font-size="10.00">src/libs/ifc/xml/vdomdocument.h</text>
</a>
</g>
</g>
<!-- Node2 -->
<g id="node2" class="node">
<title>Node2</title>
<g id="a_node2"><a xlink:href="../../d0/da1/abstract__converter_8h.html" target="_top" xlink:title=" ">
<polygon fill="white" stroke="black" points="433.5,-201.5 433.5,-231.5 564.5,-231.5 564.5,-201.5 433.5,-201.5"/>
<text text-anchor="start" x="441.5" y="-219.5" font-family="Helvetica,sans-Serif" font-size="10.00">src/libs/ifc/xml/abstract</text>
<text text-anchor="middle" x="499" y="-208.5" font-family="Helvetica,sans-Serif" font-size="10.00">_converter.h</text>
</a>
</g>
</g>
<!-- Node1&#45;&gt;Node2 -->
<g id="edge1" class="edge">
<title>Node1&#45;&gt;Node2</title>
<path fill="none" stroke="midnightblue" d="M1051.57,-268C917.06,-255.71 679.47,-233.99 564.7,-223.5"/>
<polygon fill="midnightblue" stroke="midnightblue" points="1051.59,-271.52 1061.86,-268.94 1052.22,-264.55 1051.59,-271.52"/>
</g>
<!-- Node3 -->
<g id="node3" class="node">
<title>Node3</title>
<g id="a_node3"><a xlink:href="../../d0/d08/abstract__converter_8cpp.html" target="_top" xlink:title=" ">
<polygon fill="white" stroke="black" points="94.5,-134.5 94.5,-164.5 225.5,-164.5 225.5,-134.5 94.5,-134.5"/>
<text text-anchor="start" x="102.5" y="-152.5" font-family="Helvetica,sans-Serif" font-size="10.00">src/libs/ifc/xml/abstract</text>
<text text-anchor="middle" x="160" y="-141.5" font-family="Helvetica,sans-Serif" font-size="10.00">_converter.cpp</text>
</a>
</g>
</g>
<!-- Node1&#45;&gt;Node3 -->
<g id="edge24" class="edge">
<title>Node1&#45;&gt;Node3</title>
<path fill="none" stroke="midnightblue" d="M1051.66,-273.8C882.09,-267.79 541.56,-253.47 424,-232 340.48,-216.74 246.25,-183.62 196.04,-164.64"/>
<polygon fill="midnightblue" stroke="midnightblue" points="1051.72,-277.3 1061.84,-274.16 1051.97,-270.31 1051.72,-277.3"/>
</g>
<!-- Node17 -->
<g id="node17" class="node">
<title>Node17</title>
<g id="a_node17"><a xlink:href="../../de/d7d/vabstractpattern_8cpp.html" target="_top" xlink:title=" ">
<polygon fill="white" stroke="black" points="1279,-73 1279,-92 1471,-92 1471,-73 1279,-73"/>
<text text-anchor="middle" x="1375" y="-80" font-family="Helvetica,sans-Serif" font-size="10.00">src/libs/ifc/xml/vabstractpattern.cpp</text>
</a>
</g>
</g>
<!-- Node1&#45;&gt;Node17 -->
<g id="edge48" class="edge">
<title>Node1&#45;&gt;Node17</title>
<path fill="none" stroke="midnightblue" d="M1166.16,-261.06C1173.81,-252.89 1182.63,-242.47 1189,-232 1213.36,-191.95 1194.07,-166.35 1228,-134 1251.63,-111.47 1285.77,-98.96 1315.19,-92.02"/>
<polygon fill="midnightblue" stroke="midnightblue" points="1163.49,-258.79 1159.04,-268.4 1168.51,-263.66 1163.49,-258.79"/>
</g>
<!-- Node18 -->
<g id="node18" class="node">
<title>Node18</title>
<g id="a_node18"><a xlink:href="../../d7/d49/vdomdocument_8cpp.html" target="_top" xlink:title=" ">
<polygon fill="white" stroke="black" points="1653,-207 1653,-226 1841,-226 1841,-207 1653,-207"/>
<text text-anchor="middle" x="1747" y="-214" font-family="Helvetica,sans-Serif" font-size="10.00">src/libs/ifc/xml/vdomdocument.cpp</text>
</a>
</g>
</g>
<!-- Node1&#45;&gt;Node18 -->
<g id="edge25" class="edge">
<title>Node1&#45;&gt;Node18</title>
<path fill="none" stroke="midnightblue" d="M1248.1,-269.49C1347.89,-261.51 1506.91,-247.88 1644,-232 1658.98,-230.26 1675.14,-228.12 1690.13,-226.01"/>
<polygon fill="midnightblue" stroke="midnightblue" points="1247.72,-266.01 1238.03,-270.29 1248.28,-272.99 1247.72,-266.01"/>
</g>
<!-- Node19 -->
<g id="node19" class="node">
<title>Node19</title>
<g id="a_node19"><a xlink:href="../../d0/d89/vabstractpattern_8h.html" target="_top" xlink:title=" ">
<polygon fill="white" stroke="black" points="1453.5,-207 1453.5,-226 1634.5,-226 1634.5,-207 1453.5,-207"/>
<text text-anchor="middle" x="1544" y="-214" font-family="Helvetica,sans-Serif" font-size="10.00">src/libs/ifc/xml/vabstractpattern.h</text>
</a>
</g>
</g>
<!-- Node1&#45;&gt;Node19 -->
<g id="edge26" class="edge">
<title>Node1&#45;&gt;Node19</title>
<path fill="none" stroke="midnightblue" d="M1216.41,-266.97C1292.54,-255.47 1416.02,-236.83 1487.65,-226.01"/>
<polygon fill="midnightblue" stroke="midnightblue" points="1215.82,-263.52 1206.45,-268.48 1216.86,-270.44 1215.82,-263.52"/>
</g>
<!-- Node20 -->
<g id="node20" class="node">
<title>Node20</title>
<g id="a_node20"><a xlink:href="../../d2/d47/image__dialog_8cpp.html" target="_top" xlink:title=" ">
<polygon fill="white" stroke="black" points="1237,-134.5 1237,-164.5 1349,-164.5 1349,-134.5 1237,-134.5"/>
<text text-anchor="start" x="1245" y="-152.5" font-family="Helvetica,sans-Serif" font-size="10.00">src/libs/tools/image</text>
<text text-anchor="middle" x="1293" y="-141.5" font-family="Helvetica,sans-Serif" font-size="10.00">_dialog.cpp</text>
</a>
</g>
</g>
<!-- Node1&#45;&gt;Node20 -->
<g id="edge49" class="edge">
<title>Node1&#45;&gt;Node20</title>
<path fill="none" stroke="midnightblue" d="M1176.21,-263.46C1190.73,-255.33 1208.7,-244.21 1223,-232 1247.25,-211.29 1270.34,-181.88 1283,-164.64"/>
<polygon fill="midnightblue" stroke="midnightblue" points="1174.33,-260.49 1167.23,-268.35 1177.68,-266.64 1174.33,-260.49"/>
</g>
<!-- Node38 -->
<g id="node38" class="node">
<title>Node38</title>
<g id="a_node38"><a xlink:href="../../dc/db7/measurements_8h.html" target="_top" xlink:title=" ">
<polygon fill="white" stroke="black" points="10.5,-207 10.5,-226 189.5,-226 189.5,-207 10.5,-207"/>
<text text-anchor="middle" x="100" y="-214" font-family="Helvetica,sans-Serif" font-size="10.00">src/libs/vformat/measurements.h</text>
</a>
</g>
</g>
<!-- Node1&#45;&gt;Node38 -->
<g id="edge50" class="edge">
<title>Node1&#45;&gt;Node38</title>
<path fill="none" stroke="midnightblue" d="M1051.52,-271.87C897.4,-263.79 589.84,-247.41 329,-232 283.07,-229.29 231.97,-226.07 189.71,-223.36"/>
<polygon fill="midnightblue" stroke="midnightblue" points="1051.73,-275.39 1061.9,-272.42 1052.1,-268.4 1051.73,-275.39"/>
</g>
<!-- Node39 -->
<g id="node39" class="node">
<title>Node39</title>
<g id="a_node39"><a xlink:href="../../d2/d8a/vlabeltemplate_8h.html" target="_top" xlink:title=" ">
<polygon fill="white" stroke="black" points="1001.5,-207 1001.5,-226 1180.5,-226 1180.5,-207 1001.5,-207"/>
<text text-anchor="middle" x="1091" y="-214" font-family="Helvetica,sans-Serif" font-size="10.00">src/libs/vformat/vlabeltemplate.h</text>
</a>
</g>
</g>
<!-- Node1&#45;&gt;Node39 -->
<g id="edge52" class="edge">
<title>Node1&#45;&gt;Node39</title>
<path fill="none" stroke="midnightblue" d="M1134.46,-261.32C1123.25,-250.02 1108.54,-235.19 1099.44,-226.01"/>
<polygon fill="midnightblue" stroke="midnightblue" points="1132.02,-263.84 1141.55,-268.48 1136.99,-258.91 1132.02,-263.84"/>
</g>
<!-- Node2&#45;&gt;Node3 -->
<g id="edge2" class="edge">
<title>Node2&#45;&gt;Node3</title>
<path fill="none" stroke="midnightblue" d="M423.17,-200.96C363.82,-189.58 282.13,-173.92 225.58,-163.07"/>
<polygon fill="midnightblue" stroke="midnightblue" points="422.76,-204.44 433.24,-202.89 424.07,-197.57 422.76,-204.44"/>
</g>
<!-- Node4 -->
<g id="node4" class="node">
<title>Node4</title>
<g id="a_node4"><a xlink:href="../../da/d2c/abstract__m__converter_8h.html" target="_top" xlink:title=" ">
<polygon fill="white" stroke="black" points="320.5,-134.5 320.5,-164.5 451.5,-164.5 451.5,-134.5 320.5,-134.5"/>
<text text-anchor="start" x="328.5" y="-152.5" font-family="Helvetica,sans-Serif" font-size="10.00">src/libs/ifc/xml/abstract</text>
<text text-anchor="middle" x="386" y="-141.5" font-family="Helvetica,sans-Serif" font-size="10.00">_m_converter.h</text>
</a>
</g>
</g>
<!-- Node2&#45;&gt;Node4 -->
<g id="edge3" class="edge">
<title>Node2&#45;&gt;Node4</title>
<path fill="none" stroke="midnightblue" d="M465.61,-196.3C447.93,-186.12 426.6,-173.85 410.47,-164.58"/>
<polygon fill="midnightblue" stroke="midnightblue" points="464.07,-199.44 474.48,-201.4 467.56,-193.38 464.07,-199.44"/>
</g>
<!-- Node5 -->
<g id="node5" class="node">
<title>Node5</title>
<g id="a_node5"><a xlink:href="../../d0/d93/individual__size__converter_8h.html" target="_top" xlink:title=" ">
<polygon fill="white" stroke="black" points="84.5,-67.5 84.5,-97.5 223.5,-97.5 223.5,-67.5 84.5,-67.5"/>
<text text-anchor="start" x="92.5" y="-85.5" font-family="Helvetica,sans-Serif" font-size="10.00">src/libs/ifc/xml/individual</text>
<text text-anchor="middle" x="154" y="-74.5" font-family="Helvetica,sans-Serif" font-size="10.00">_size_converter.h</text>
</a>
</g>
</g>
<!-- Node2&#45;&gt;Node5 -->
<g id="edge13" class="edge">
<title>Node2&#45;&gt;Node5</title>
<path fill="none" stroke="midnightblue" d="M423.52,-202.29C384.07,-194.05 335.51,-181.79 294,-165 270.27,-155.4 209.52,-118.26 176.38,-97.59"/>
<polygon fill="midnightblue" stroke="midnightblue" points="422.84,-205.72 433.34,-204.3 424.24,-198.86 422.84,-205.72"/>
</g>
<!-- Node8 -->
<g id="node8" class="node">
<title>Node8</title>
<g id="a_node8"><a xlink:href="../../de/dec/abstract__m__converter_8cpp.html" target="_top" xlink:title=" ">
<polygon fill="white" stroke="black" points="452.5,-67.5 452.5,-97.5 583.5,-97.5 583.5,-67.5 452.5,-67.5"/>
<text text-anchor="start" x="460.5" y="-85.5" font-family="Helvetica,sans-Serif" font-size="10.00">src/libs/ifc/xml/abstract</text>
<text text-anchor="middle" x="518" y="-74.5" font-family="Helvetica,sans-Serif" font-size="10.00">_m_converter.cpp</text>
</a>
</g>
</g>
<!-- Node2&#45;&gt;Node8 -->
<g id="edge14" class="edge">
<title>Node2&#45;&gt;Node8</title>
<path fill="none" stroke="midnightblue" d="M499.17,-190.99C499.61,-174.73 500.82,-152.97 504,-134 506.07,-121.62 509.98,-107.91 513.14,-97.9"/>
<polygon fill="midnightblue" stroke="midnightblue" points="495.67,-191.2 498.98,-201.26 502.67,-191.33 495.67,-191.2"/>
</g>
<!-- Node9 -->
<g id="node9" class="node">
<title>Node9</title>
<g id="a_node9"><a xlink:href="../../d5/d4c/multi__size__converter_8h.html" target="_top" xlink:title=" ">
<polygon fill="white" stroke="black" points="242,-67.5 242,-97.5 358,-97.5 358,-67.5 242,-67.5"/>
<text text-anchor="start" x="250" y="-85.5" font-family="Helvetica,sans-Serif" font-size="10.00">src/libs/ifc/xml/multi</text>
<text text-anchor="middle" x="300" y="-74.5" font-family="Helvetica,sans-Serif" font-size="10.00">_size_converter.h</text>
</a>
</g>
</g>
<!-- Node2&#45;&gt;Node9 -->
<g id="edge15" class="edge">
<title>Node2&#45;&gt;Node9</title>
<path fill="none" stroke="midnightblue" d="M423.36,-203.91C377.94,-195.35 326.13,-182.2 311,-165 294.69,-146.45 295.4,-115.75 297.58,-97.8"/>
<polygon fill="midnightblue" stroke="midnightblue" points="422.76,-207.36 433.23,-205.72 424.03,-200.47 422.76,-207.36"/>
</g>
<!-- Node11 -->
<g id="node11" class="node">
<title>Node11</title>
<g id="a_node11"><a xlink:href="../../d5/d35/vlabeltemplateconverter_8h.html" target="_top" xlink:title=" ">
<polygon fill="white" stroke="black" points="718,-140 718,-159 938,-159 938,-140 718,-140"/>
<text text-anchor="middle" x="828" y="-147" font-family="Helvetica,sans-Serif" font-size="10.00">src/libs/ifc/xml/vlabeltemplateconverter.h</text>
</a>
</g>
</g>
<!-- Node2&#45;&gt;Node11 -->
<g id="edge16" class="edge">
<title>Node2&#45;&gt;Node11</title>
<path fill="none" stroke="midnightblue" d="M574.6,-200.56C639.75,-187.69 731.49,-169.57 784.85,-159.02"/>
<polygon fill="midnightblue" stroke="midnightblue" points="573.92,-197.13 564.79,-202.5 575.28,-204 573.92,-197.13"/>
</g>
<!-- Node14 -->
<g id="node14" class="node">
<title>Node14</title>
<g id="a_node14"><a xlink:href="../../d4/d90/fvupdater_8cpp.html" target="_top" xlink:title=" ">
<polygon fill="white" stroke="black" points="546.5,-140 546.5,-159 699.5,-159 699.5,-140 546.5,-140"/>
<text text-anchor="middle" x="623" y="-147" font-family="Helvetica,sans-Serif" font-size="10.00">src/libs/fervor/fvupdater.cpp</text>
</a>
</g>
</g>
<!-- Node2&#45;&gt;Node14 -->
<g id="edge19" class="edge">
<title>Node2&#45;&gt;Node14</title>
<path fill="none" stroke="midnightblue" d="M534.98,-196.64C558.71,-184.2 588.64,-168.51 606.77,-159.01"/>
<polygon fill="midnightblue" stroke="midnightblue" points="533.14,-193.65 525.91,-201.4 536.39,-199.85 533.14,-193.65"/>
</g>
<!-- Node15 -->
<g id="node15" class="node">
<title>Node15</title>
<g id="a_node15"><a xlink:href="../../df/d2f/vpatternconverter_8h.html" target="_top" xlink:title=" ">
<polygon fill="white" stroke="black" points="956.5,-140 956.5,-159 1143.5,-159 1143.5,-140 956.5,-140"/>
<text text-anchor="middle" x="1050" y="-147" font-family="Helvetica,sans-Serif" font-size="10.00">src/libs/ifc/xml/vpatternconverter.h</text>
</a>
</g>
</g>
<!-- Node2&#45;&gt;Node15 -->
<g id="edge20" class="edge">
<title>Node2&#45;&gt;Node15</title>
<path fill="none" stroke="midnightblue" d="M574.75,-207.61C663.9,-198.17 816.34,-181.56 947,-165 961.42,-163.17 976.96,-161.06 991.48,-159.02"/>
<polygon fill="midnightblue" stroke="midnightblue" points="574.31,-204.13 564.73,-208.66 575.04,-211.09 574.31,-204.13"/>
</g>
<!-- Node16 -->
<g id="node16" class="node">
<title>Node16</title>
<g id="a_node16"><a xlink:href="../../d5/d2c/vpatternconverter_8cpp.html" target="_top" xlink:title=" ">
<polygon fill="white" stroke="black" points="853,-73 853,-92 1051,-92 1051,-73 853,-73"/>
<text text-anchor="middle" x="952" y="-80" font-family="Helvetica,sans-Serif" font-size="10.00">src/libs/ifc/xml/vpatternconverter.cpp</text>
</a>
</g>
</g>
<!-- Node2&#45;&gt;Node16 -->
<g id="edge23" class="edge">
<title>Node2&#45;&gt;Node16</title>
<path fill="none" stroke="midnightblue" d="M503.6,-191.38C508.52,-172.6 518.3,-147.52 537,-134 592.49,-93.89 775.06,-106.51 843,-98 857.96,-96.12 874.07,-94.03 889.19,-92.02"/>
<polygon fill="midnightblue" stroke="midnightblue" points="500.15,-190.78 501.29,-201.31 506.97,-192.37 500.15,-190.78"/>
</g>
<!-- Node4&#45;&gt;Node5 -->
<g id="edge4" class="edge">
<title>Node4&#45;&gt;Node5</title>
<path fill="none" stroke="midnightblue" d="M326.09,-131.71C288.34,-121.14 240.14,-107.63 204.37,-97.61"/>
<polygon fill="midnightblue" stroke="midnightblue" points="325.37,-135.15 335.95,-134.48 327.26,-128.41 325.37,-135.15"/>
</g>
<!-- Node6 -->
<g id="node6" class="node">
<title>Node6</title>
<g id="a_node6"><a xlink:href="../../d5/d6e/individual__size__converter_8cpp.html" target="_top" xlink:title=" ">
<polygon fill="white" stroke="black" points="208.5,-0.5 208.5,-30.5 347.5,-30.5 347.5,-0.5 208.5,-0.5"/>
<text text-anchor="start" x="216.5" y="-18.5" font-family="Helvetica,sans-Serif" font-size="10.00">src/libs/ifc/xml/individual</text>
<text text-anchor="middle" x="278" y="-7.5" font-family="Helvetica,sans-Serif" font-size="10.00">_size_converter.cpp</text>
</a>
</g>
</g>
<!-- Node4&#45;&gt;Node6 -->
<g id="edge8" class="edge">
<title>Node4&#45;&gt;Node6</title>
<path fill="none" stroke="midnightblue" d="M385.41,-124.4C383.87,-106.94 379.39,-83.58 367,-67 354.77,-50.64 335.57,-38.78 318.12,-30.69"/>
<polygon fill="midnightblue" stroke="midnightblue" points="381.92,-124.64 386.04,-134.4 388.91,-124.2 381.92,-124.64"/>
</g>
<!-- Node4&#45;&gt;Node8 -->
<g id="edge7" class="edge">
<title>Node4&#45;&gt;Node8</title>
<path fill="none" stroke="midnightblue" d="M423.87,-129.85C444.74,-119.58 470.23,-107.03 489.41,-97.58"/>
<polygon fill="midnightblue" stroke="midnightblue" points="422.07,-126.84 414.64,-134.4 425.16,-133.12 422.07,-126.84"/>
</g>
<!-- Node4&#45;&gt;Node9 -->
<g id="edge9" class="edge">
<title>Node4&#45;&gt;Node9</title>
<path fill="none" stroke="midnightblue" d="M359.1,-128.17C345.95,-118.23 330.45,-106.51 318.62,-97.58"/>
<polygon fill="midnightblue" stroke="midnightblue" points="357.25,-131.16 367.34,-134.4 361.47,-125.57 357.25,-131.16"/>
</g>
<!-- Node10 -->
<g id="node10" class="node">
<title>Node10</title>
<g id="a_node10"><a xlink:href="../../d9/d94/multi__size__converter_8cpp.html" target="_top" xlink:title=" ">
<polygon fill="white" stroke="black" points="366,-0.5 366,-30.5 482,-30.5 482,-0.5 366,-0.5"/>
<text text-anchor="start" x="374" y="-18.5" font-family="Helvetica,sans-Serif" font-size="10.00">src/libs/ifc/xml/multi</text>
<text text-anchor="middle" x="424" y="-7.5" font-family="Helvetica,sans-Serif" font-size="10.00">_size_converter.cpp</text>
</a>
</g>
</g>
<!-- Node4&#45;&gt;Node10 -->
<g id="edge12" class="edge">
<title>Node4&#45;&gt;Node10</title>
<path fill="none" stroke="midnightblue" d="M392.84,-124.75C400.74,-97.29 413.5,-52.99 419.96,-30.52"/>
<polygon fill="midnightblue" stroke="midnightblue" points="389.47,-123.8 390.07,-134.37 396.2,-125.73 389.47,-123.8"/>
</g>
<!-- Node5&#45;&gt;Node6 -->
<g id="edge5" class="edge">
<title>Node5&#45;&gt;Node6</title>
<path fill="none" stroke="midnightblue" d="M189.84,-62.71C209.39,-52.46 233.2,-39.98 251.15,-30.58"/>
<polygon fill="midnightblue" stroke="midnightblue" points="188.14,-59.65 180.91,-67.4 191.39,-65.85 188.14,-59.65"/>
</g>
<!-- Node7 -->
<g id="node7" class="node">
<title>Node7</title>
<g id="a_node7"><a xlink:href="../../d9/de3/measurements_8cpp.html" target="_top" xlink:title=" ">
<polygon fill="white" stroke="black" points="0,-6 0,-25 190,-25 190,-6 0,-6"/>
<text text-anchor="middle" x="95" y="-13" font-family="Helvetica,sans-Serif" font-size="10.00">src/libs/vformat/measurements.cpp</text>
</a>
</g>
</g>
<!-- Node5&#45;&gt;Node7 -->
<g id="edge6" class="edge">
<title>Node5&#45;&gt;Node7</title>
<path fill="none" stroke="midnightblue" d="M134.17,-59.66C123.47,-47.86 110.85,-33.97 102.89,-25.19"/>
<polygon fill="midnightblue" stroke="midnightblue" points="131.89,-62.34 141.2,-67.4 137.07,-57.64 131.89,-62.34"/>
</g>
<!-- Node9&#45;&gt;Node7 -->
<g id="edge11" class="edge">
<title>Node9&#45;&gt;Node7</title>
<path fill="none" stroke="midnightblue" d="M246.16,-64.43C206.19,-51.75 153.35,-35 121.9,-25.03"/>
<polygon fill="midnightblue" stroke="midnightblue" points="245.18,-67.79 255.77,-67.48 247.3,-61.12 245.18,-67.79"/>
</g>
<!-- Node9&#45;&gt;Node10 -->
<g id="edge10" class="edge">
<title>Node9&#45;&gt;Node10</title>
<path fill="none" stroke="midnightblue" d="M335.84,-62.71C355.39,-52.46 379.2,-39.98 397.15,-30.58"/>
<polygon fill="midnightblue" stroke="midnightblue" points="334.14,-59.65 326.91,-67.4 337.39,-65.85 334.14,-59.65"/>
</g>
<!-- Node12 -->
<g id="node12" class="node">
<title>Node12</title>
<g id="a_node12"><a xlink:href="../../d7/d63/vlabeltemplateconverter_8cpp.html" target="_top" xlink:title=" ">
<polygon fill="white" stroke="black" points="603.5,-73 603.5,-92 834.5,-92 834.5,-73 603.5,-73"/>
<text text-anchor="middle" x="719" y="-80" font-family="Helvetica,sans-Serif" font-size="10.00">src/libs/ifc/xml/vlabeltemplateconverter.cpp</text>
</a>
</g>
</g>
<!-- Node11&#45;&gt;Node12 -->
<g id="edge17" class="edge">
<title>Node11&#45;&gt;Node12</title>
<path fill="none" stroke="midnightblue" d="M804.43,-134.44C782.84,-121.57 751.58,-102.93 733.47,-92.13"/>
<polygon fill="midnightblue" stroke="midnightblue" points="802.92,-137.62 813.3,-139.73 806.5,-131.61 802.92,-137.62"/>
</g>
<!-- Node13 -->
<g id="node13" class="node">
<title>Node13</title>
<g id="a_node13"><a xlink:href="../../d9/daf/vlabeltemplate_8cpp.html" target="_top" xlink:title=" ">
<polygon fill="white" stroke="black" points="1069.5,-73 1069.5,-92 1260.5,-92 1260.5,-73 1069.5,-73"/>
<text text-anchor="middle" x="1165" y="-80" font-family="Helvetica,sans-Serif" font-size="10.00">src/libs/vformat/vlabeltemplate.cpp</text>
</a>
</g>
</g>
<!-- Node11&#45;&gt;Node13 -->
<g id="edge18" class="edge">
<title>Node11&#45;&gt;Node13</title>
<path fill="none" stroke="midnightblue" d="M882.25,-138.04C948.53,-125.25 1059.4,-103.87 1120.77,-92.03"/>
<polygon fill="midnightblue" stroke="midnightblue" points="881.56,-134.6 872.4,-139.94 882.89,-141.48 881.56,-134.6"/>
</g>
<!-- Node15&#45;&gt;Node16 -->
<g id="edge21" class="edge">
<title>Node15&#45;&gt;Node16</title>
<path fill="none" stroke="midnightblue" d="M1028.28,-134.09C1008.89,-121.24 981.14,-102.83 965.01,-92.13"/>
<polygon fill="midnightblue" stroke="midnightblue" points="1026.52,-137.12 1036.78,-139.73 1030.38,-131.29 1026.52,-137.12"/>
</g>
<!-- Node15&#45;&gt;Node17 -->
<g id="edge22" class="edge">
<title>Node15&#45;&gt;Node17</title>
<path fill="none" stroke="midnightblue" d="M1102.71,-137.96C1166.68,-125.16 1273.28,-103.84 1332.34,-92.03"/>
<polygon fill="midnightblue" stroke="midnightblue" points="1101.94,-134.54 1092.82,-139.94 1103.31,-141.41 1101.94,-134.54"/>
</g>
<!-- Node19&#45;&gt;Node17 -->
<g id="edge27" class="edge">
<title>Node19&#45;&gt;Node17</title>
<path fill="none" stroke="midnightblue" d="M1467.15,-204.43C1441.41,-197.14 1414.57,-185.05 1396,-165 1376.94,-144.42 1374.66,-108.86 1374.71,-92.38"/>
<polygon fill="midnightblue" stroke="midnightblue" points="1466.38,-207.84 1476.94,-206.99 1468.16,-201.07 1466.38,-207.84"/>
</g>
<!-- Node19&#45;&gt;Node20 -->
<g id="edge28" class="edge">
<title>Node19&#45;&gt;Node20</title>
<path fill="none" stroke="midnightblue" d="M1501.17,-204.41C1458.67,-193.4 1393.4,-176.5 1347.29,-164.56"/>
<polygon fill="midnightblue" stroke="midnightblue" points="1500.37,-207.82 1510.93,-206.94 1502.12,-201.04 1500.37,-207.82"/>
</g>
<!-- Node21 -->
<g id="node21" class="node">
<title>Node21</title>
<g id="a_node21"><a xlink:href="../../d6/de0/vlayoutpiece_8h.html" target="_top" xlink:title=" ">
<polygon fill="white" stroke="black" points="2203,-140 2203,-159 2369,-159 2369,-140 2203,-140"/>
<text text-anchor="middle" x="2286" y="-147" font-family="Helvetica,sans-Serif" font-size="10.00">src/libs/vlayout/vlayoutpiece.h</text>
</a>
</g>
</g>
<!-- Node19&#45;&gt;Node21 -->
<g id="edge29" class="edge">
<title>Node19&#45;&gt;Node21</title>
<path fill="none" stroke="midnightblue" d="M1608.4,-205.53C1620.23,-203.88 1632.47,-202.29 1644,-201 1844.14,-178.64 2080.47,-162.75 2202.98,-155.29"/>
<polygon fill="midnightblue" stroke="midnightblue" points="1607.56,-202.11 1598.15,-206.99 1608.54,-209.04 1607.56,-202.11"/>
</g>
<!-- Node31 -->
<g id="node31" class="node">
<title>Node31</title>
<g id="a_node31"><a xlink:href="../../d8/d70/vtextmanager_8cpp.html" target="_top" xlink:title=" ">
<polygon fill="white" stroke="black" points="2387,-140 2387,-159 2569,-159 2569,-140 2387,-140"/>
<text text-anchor="middle" x="2478" y="-147" font-family="Helvetica,sans-Serif" font-size="10.00">src/libs/vlayout/vtextmanager.cpp</text>
</a>
</g>
</g>
<!-- Node19&#45;&gt;Node31 -->
<g id="edge41" class="edge">
<title>Node19&#45;&gt;Node31</title>
<path fill="none" stroke="midnightblue" d="M1605.97,-205.58C1618.53,-203.83 1631.67,-202.19 1644,-201 1969.09,-169.53 2052.91,-196.47 2378,-165 2393.63,-163.49 2410.55,-161.26 2425.95,-159"/>
<polygon fill="midnightblue" stroke="midnightblue" points="1605.45,-202.12 1596.05,-207 1606.44,-209.05 1605.45,-202.12"/>
</g>
<!-- Node32 -->
<g id="node32" class="node">
<title>Node32</title>
<g id="a_node32"><a xlink:href="../../d0/da5/export__format__combobox_8h.html" target="_top" xlink:title=" ">
<polygon fill="white" stroke="black" points="1552.5,-134.5 1552.5,-164.5 1685.5,-164.5 1685.5,-134.5 1552.5,-134.5"/>
<text text-anchor="start" x="1560.5" y="-152.5" font-family="Helvetica,sans-Serif" font-size="10.00">src/libs/vwidgets/export</text>
<text text-anchor="middle" x="1619" y="-141.5" font-family="Helvetica,sans-Serif" font-size="10.00">_format_combobox.h</text>
</a>
</g>
</g>
<!-- Node19&#45;&gt;Node32 -->
<g id="edge42" class="edge">
<title>Node19&#45;&gt;Node32</title>
<path fill="none" stroke="midnightblue" d="M1561.97,-199.93C1574.37,-189.18 1590.73,-175 1602.74,-164.59"/>
<polygon fill="midnightblue" stroke="midnightblue" points="1559.38,-197.54 1554.11,-206.73 1563.96,-202.83 1559.38,-197.54"/>
</g>
<!-- Node34 -->
<g id="node34" class="node">
<title>Node34</title>
<g id="a_node34"><a xlink:href="../../d7/df4/group__tablewidgetitem_8cpp.html" target="_top" xlink:title=" ">
<polygon fill="white" stroke="black" points="1405.5,-134.5 1405.5,-164.5 1534.5,-164.5 1534.5,-134.5 1405.5,-134.5"/>
<text text-anchor="start" x="1413.5" y="-152.5" font-family="Helvetica,sans-Serif" font-size="10.00">src/libs/vwidgets/group</text>
<text text-anchor="middle" x="1470" y="-141.5" font-family="Helvetica,sans-Serif" font-size="10.00">_tablewidgetitem.cpp</text>
</a>
</g>
</g>
<!-- Node19&#45;&gt;Node34 -->
<g id="edge44" class="edge">
<title>Node19&#45;&gt;Node34</title>
<path fill="none" stroke="midnightblue" d="M1526.27,-199.93C1514.03,-189.18 1497.9,-175 1486.04,-164.59"/>
<polygon fill="midnightblue" stroke="midnightblue" points="1524.2,-202.76 1534.02,-206.73 1528.82,-197.5 1524.2,-202.76"/>
</g>
<!-- Node35 -->
<g id="node35" class="node">
<title>Node35</title>
<g id="a_node35"><a xlink:href="../../d3/d86/page__format__combobox_8h.html" target="_top" xlink:title=" ">
<polygon fill="white" stroke="black" points="1910.5,-134.5 1910.5,-164.5 2035.5,-164.5 2035.5,-134.5 1910.5,-134.5"/>
<text text-anchor="start" x="1918.5" y="-152.5" font-family="Helvetica,sans-Serif" font-size="10.00">src/libs/vwidgets/page</text>
<text text-anchor="middle" x="1973" y="-141.5" font-family="Helvetica,sans-Serif" font-size="10.00">_format_combobox.h</text>
</a>
</g>
</g>
<!-- Node19&#45;&gt;Node35 -->
<g id="edge45" class="edge">
<title>Node19&#45;&gt;Node35</title>
<path fill="none" stroke="midnightblue" d="M1612.46,-205.53C1623.02,-204 1633.8,-202.45 1644,-201 1758.18,-184.72 1787.3,-184.39 1901,-165 1904.02,-164.49 1907.1,-163.94 1910.21,-163.37"/>
<polygon fill="midnightblue" stroke="midnightblue" points="1611.82,-202.08 1602.42,-206.98 1612.82,-209.01 1611.82,-202.08"/>
</g>
<!-- Node37 -->
<g id="node37" class="node">
<title>Node37</title>
<g id="a_node37"><a xlink:href="../../de/d22/vsimplecurve_8cpp.html" target="_top" xlink:title=" ">
<polygon fill="white" stroke="black" points="1704,-140 1704,-159 1892,-159 1892,-140 1704,-140"/>
<text text-anchor="middle" x="1798" y="-147" font-family="Helvetica,sans-Serif" font-size="10.00">src/libs/vwidgets/vsimplecurve.cpp</text>
</a>
</g>
</g>
<!-- Node19&#45;&gt;Node37 -->
<g id="edge47" class="edge">
<title>Node19&#45;&gt;Node37</title>
<path fill="none" stroke="midnightblue" d="M1587.36,-204.4C1637.49,-191.58 1718.92,-170.74 1764.46,-159.08"/>
<polygon fill="midnightblue" stroke="midnightblue" points="1586.29,-201.07 1577.47,-206.94 1588.02,-207.85 1586.29,-201.07"/>
</g>
<!-- Node22 -->
<g id="node22" class="node">
<title>Node22</title>
<g id="a_node22"><a xlink:href="../../dd/d66/vdxfengine_8cpp.html" target="_top" xlink:title=" ">
<polygon fill="white" stroke="black" points="1821,-73 1821,-92 1975,-92 1975,-73 1821,-73"/>
<text text-anchor="middle" x="1898" y="-80" font-family="Helvetica,sans-Serif" font-size="10.00">src/libs/vdxf/vdxfengine.cpp</text>
</a>
</g>
</g>
<!-- Node21&#45;&gt;Node22 -->
<g id="edge30" class="edge">
<title>Node21&#45;&gt;Node22</title>
<path fill="none" stroke="midnightblue" d="M2224.74,-138.28C2163.73,-128.1 2067.38,-112 1984,-98 1972.5,-96.07 1960.14,-93.99 1948.48,-92.02"/>
<polygon fill="midnightblue" stroke="midnightblue" points="2224.53,-141.79 2234.97,-139.99 2225.68,-134.89 2224.53,-141.79"/>
</g>
<!-- Node23 -->
<g id="node23" class="node">
<title>Node23</title>
<g id="a_node23"><a xlink:href="../../de/da8/vbank_8cpp.html" target="_top" xlink:title=" ">
<polygon fill="white" stroke="black" points="1993,-73 1993,-92 2137,-92 2137,-73 1993,-73"/>
<text text-anchor="middle" x="2065" y="-80" font-family="Helvetica,sans-Serif" font-size="10.00">src/libs/vlayout/vbank.cpp</text>
</a>
</g>
</g>
<!-- Node21&#45;&gt;Node23 -->
<g id="edge31" class="edge">
<title>Node21&#45;&gt;Node23</title>
<path fill="none" stroke="midnightblue" d="M2246.93,-137.01C2203.19,-124.15 2133.32,-103.59 2094.12,-92.06"/>
<polygon fill="midnightblue" stroke="midnightblue" points="2246.07,-140.4 2256.65,-139.87 2248.05,-133.69 2246.07,-140.4"/>
</g>
<!-- Node24 -->
<g id="node24" class="node">
<title>Node24</title>
<g id="a_node24"><a xlink:href="../../df/d5d/vcontour_8cpp.html" target="_top" xlink:title=" ">
<polygon fill="white" stroke="black" points="2155,-73 2155,-92 2311,-92 2311,-73 2155,-73"/>
<text text-anchor="middle" x="2233" y="-80" font-family="Helvetica,sans-Serif" font-size="10.00">src/libs/vlayout/vcontour.cpp</text>
</a>
</g>
</g>
<!-- Node21&#45;&gt;Node24 -->
<g id="edge32" class="edge">
<title>Node21&#45;&gt;Node24</title>
<path fill="none" stroke="midnightblue" d="M2272.36,-131.77C2262.03,-119.1 2248.25,-102.2 2240.03,-92.13"/>
<polygon fill="midnightblue" stroke="midnightblue" points="2269.82,-134.2 2278.85,-139.73 2275.25,-129.77 2269.82,-134.2"/>
</g>
<!-- Node25 -->
<g id="node25" class="node">
<title>Node25</title>
<g id="a_node25"><a xlink:href="../../d2/d2d/vlayoutpaper__p_8h.html" target="_top" xlink:title=" ">
<polygon fill="white" stroke="black" points="2367.5,-73 2367.5,-92 2546.5,-92 2546.5,-73 2367.5,-73"/>
<text text-anchor="middle" x="2457" y="-80" font-family="Helvetica,sans-Serif" font-size="10.00">src/libs/vlayout/vlayoutpaper_p.h</text>
</a>
</g>
</g>
<!-- Node21&#45;&gt;Node25 -->
<g id="edge33" class="edge">
<title>Node21&#45;&gt;Node25</title>
<path fill="none" stroke="midnightblue" d="M2318.17,-136.27C2352.11,-123.37 2404.71,-103.38 2434.47,-92.06"/>
<polygon fill="midnightblue" stroke="midnightblue" points="2316.81,-133.04 2308.71,-139.87 2319.3,-139.59 2316.81,-133.04"/>
</g>
<!-- Node26 -->
<g id="node26" class="node">
<title>Node26</title>
<g id="a_node26"><a xlink:href="../../d1/dd1/vlayoutpaper_8cpp.html" target="_top" xlink:title=" ">
<polygon fill="white" stroke="black" points="2366,-6 2366,-25 2544,-25 2544,-6 2366,-6"/>
<text text-anchor="middle" x="2455" y="-13" font-family="Helvetica,sans-Serif" font-size="10.00">src/libs/vlayout/vlayoutpaper.cpp</text>
</a>
</g>
</g>
<!-- Node21&#45;&gt;Node26 -->
<g id="edge36" class="edge">
<title>Node21&#45;&gt;Node26</title>
<path fill="none" stroke="midnightblue" d="M2298.11,-131.75C2311.52,-114.05 2334.51,-86.1 2359,-67 2382.32,-48.82 2413.14,-33.94 2433.49,-25.16"/>
<polygon fill="midnightblue" stroke="midnightblue" points="2295.16,-129.85 2292.01,-139.97 2300.78,-134.02 2295.16,-129.85"/>
</g>
<!-- Node27 -->
<g id="node27" class="node">
<title>Node27</title>
<g id="a_node27"><a xlink:href="../../d3/d39/vlayoutgenerator_8cpp.html" target="_top" xlink:title=" ">
<polygon fill="white" stroke="black" points="2731.5,-73 2731.5,-92 2928.5,-92 2928.5,-73 2731.5,-73"/>
<text text-anchor="middle" x="2830" y="-80" font-family="Helvetica,sans-Serif" font-size="10.00">src/libs/vlayout/vlayoutgenerator.cpp</text>
</a>
</g>
</g>
<!-- Node21&#45;&gt;Node27 -->
<g id="edge35" class="edge">
<title>Node21&#45;&gt;Node27</title>
<path fill="none" stroke="midnightblue" d="M2347.18,-138.4C2357.45,-136.84 2368.02,-135.31 2378,-134 2530.42,-114.03 2569.36,-116.23 2722,-98 2737.22,-96.18 2753.61,-94.06 2768.93,-92.02"/>
<polygon fill="midnightblue" stroke="midnightblue" points="2346.37,-134.98 2337.03,-139.97 2347.45,-141.9 2346.37,-134.98"/>
</g>
<!-- Node28 -->
<g id="node28" class="node">
<title>Node28</title>
<g id="a_node28"><a xlink:href="../../db/d5c/vposition_8h.html" target="_top" xlink:title=" ">
<polygon fill="white" stroke="black" points="2565,-73 2565,-92 2713,-92 2713,-73 2565,-73"/>
<text text-anchor="middle" x="2639" y="-80" font-family="Helvetica,sans-Serif" font-size="10.00">src/libs/vlayout/vposition.h</text>
</a>
</g>
</g>
<!-- Node21&#45;&gt;Node28 -->
<g id="edge37" class="edge">
<title>Node21&#45;&gt;Node28</title>
<path fill="none" stroke="midnightblue" d="M2342.39,-138.12C2411.77,-125.34 2528.26,-103.89 2592.67,-92.03"/>
<polygon fill="midnightblue" stroke="midnightblue" points="2341.71,-134.68 2332.51,-139.94 2342.98,-141.57 2341.71,-134.68"/>
</g>
<!-- Node30 -->
<g id="node30" class="node">
<title>Node30</title>
<g id="a_node30"><a xlink:href="../../dd/d70/vlayoutpiece_8cpp.html" target="_top" xlink:title=" ">
<polygon fill="white" stroke="black" points="2946.5,-73 2946.5,-92 3123.5,-92 3123.5,-73 2946.5,-73"/>
<text text-anchor="middle" x="3035" y="-80" font-family="Helvetica,sans-Serif" font-size="10.00">src/libs/vlayout/vlayoutpiece.cpp</text>
</a>
</g>
</g>
<!-- Node21&#45;&gt;Node30 -->
<g id="edge40" class="edge">
<title>Node21&#45;&gt;Node30</title>
<path fill="none" stroke="midnightblue" d="M2344.6,-138.44C2355.67,-136.77 2367.17,-135.2 2378,-134 2625.89,-106.56 2690,-124.46 2938,-98 2952.81,-96.42 2968.83,-94.23 2983.5,-92.02"/>
<polygon fill="midnightblue" stroke="midnightblue" points="2343.94,-135 2334.59,-139.99 2345.01,-141.92 2343.94,-135"/>
</g>
<!-- Node25&#45;&gt;Node26 -->
<g id="edge34" class="edge">
<title>Node25&#45;&gt;Node26</title>
<path fill="none" stroke="midnightblue" d="M2456.42,-62.54C2456.04,-50.17 2455.56,-34.62 2455.27,-25.13"/>
<polygon fill="midnightblue" stroke="midnightblue" points="2452.92,-62.85 2456.73,-72.73 2459.92,-62.63 2452.92,-62.85"/>
</g>
<!-- Node28&#45;&gt;Node26 -->
<g id="edge38" class="edge">
<title>Node28&#45;&gt;Node26</title>
<path fill="none" stroke="midnightblue" d="M2604.85,-69.44C2568.35,-56.54 2511.4,-36.42 2479.24,-25.06"/>
<polygon fill="midnightblue" stroke="midnightblue" points="2603.97,-72.84 2614.57,-72.87 2606.3,-66.24 2603.97,-72.84"/>
</g>
<!-- Node29 -->
<g id="node29" class="node">
<title>Node29</title>
<g id="a_node29"><a xlink:href="../../df/d76/vposition_8cpp.html" target="_top" xlink:title=" ">
<polygon fill="white" stroke="black" points="2561.5,-6 2561.5,-25 2720.5,-25 2720.5,-6 2561.5,-6"/>
<text text-anchor="middle" x="2641" y="-13" font-family="Helvetica,sans-Serif" font-size="10.00">src/libs/vlayout/vposition.cpp</text>
</a>
</g>
</g>
<!-- Node28&#45;&gt;Node29 -->
<g id="edge39" class="edge">
<title>Node28&#45;&gt;Node29</title>
<path fill="none" stroke="midnightblue" d="M2639.58,-62.54C2639.96,-50.17 2640.44,-34.62 2640.73,-25.13"/>
<polygon fill="midnightblue" stroke="midnightblue" points="2636.08,-62.63 2639.27,-72.73 2643.08,-62.85 2636.08,-62.63"/>
</g>
<!-- Node33 -->
<g id="node33" class="node">
<title>Node33</title>
<g id="a_node33"><a xlink:href="../../df/d40/export__format__combobox_8cpp.html" target="_top" xlink:title=" ">
<polygon fill="white" stroke="black" points="1520.5,-67.5 1520.5,-97.5 1653.5,-97.5 1653.5,-67.5 1520.5,-67.5"/>
<text text-anchor="start" x="1528.5" y="-85.5" font-family="Helvetica,sans-Serif" font-size="10.00">src/libs/vwidgets/export</text>
<text text-anchor="middle" x="1587" y="-74.5" font-family="Helvetica,sans-Serif" font-size="10.00">_format_combobox.cpp</text>
</a>
</g>
</g>
<!-- Node32&#45;&gt;Node33 -->
<g id="edge43" class="edge">
<title>Node32&#45;&gt;Node33</title>
<path fill="none" stroke="midnightblue" d="M1607.57,-125.28C1603.01,-116.02 1597.91,-105.66 1593.93,-97.58"/>
<polygon fill="midnightblue" stroke="midnightblue" points="1604.5,-126.97 1612.06,-134.4 1610.78,-123.88 1604.5,-126.97"/>
</g>
<!-- Node36 -->
<g id="node36" class="node">
<title>Node36</title>
<g id="a_node36"><a xlink:href="../../d2/d28/page__format__combobox_8cpp.html" target="_top" xlink:title=" ">
<polygon fill="white" stroke="black" points="1671.5,-67.5 1671.5,-97.5 1802.5,-97.5 1802.5,-67.5 1671.5,-67.5"/>
<text text-anchor="start" x="1679.5" y="-85.5" font-family="Helvetica,sans-Serif" font-size="10.00">src/libs/vwidgets/page</text>
<text text-anchor="middle" x="1737" y="-74.5" font-family="Helvetica,sans-Serif" font-size="10.00">_format_combobox.cpp</text>
</a>
</g>
</g>
<!-- Node35&#45;&gt;Node36 -->
<g id="edge46" class="edge">
<title>Node35&#45;&gt;Node36</title>
<path fill="none" stroke="midnightblue" d="M1912.06,-131.71C1873.65,-121.14 1824.63,-107.63 1788.23,-97.61"/>
<polygon fill="midnightblue" stroke="midnightblue" points="1911.51,-135.19 1922.08,-134.48 1913.37,-128.45 1911.51,-135.19"/>
</g>
<!-- Node38&#45;&gt;Node7 -->
<g id="edge51" class="edge">
<title>Node38&#45;&gt;Node7</title>
<path fill="none" stroke="midnightblue" d="M92.68,-197.1C82.45,-168.99 66.09,-113.7 75,-67 77.93,-51.62 85.47,-34.95 90.41,-25.13"/>
<polygon fill="midnightblue" stroke="midnightblue" points="89.53,-198.67 96.36,-206.77 96.08,-196.18 89.53,-198.67"/>
</g>
<!-- Node39&#45;&gt;Node13 -->
<g id="edge53" class="edge">
<title>Node39&#45;&gt;Node13</title>
<path fill="none" stroke="midnightblue" d="M1115.34,-201.45C1128.32,-192.66 1143.36,-180.13 1152,-165 1165.5,-141.36 1166.12,-107.92 1165.54,-92.24"/>
<polygon fill="midnightblue" stroke="midnightblue" points="1113.32,-198.59 1106.78,-206.93 1117.09,-204.49 1113.32,-198.59"/>
</g>
</g>
</svg>
