<?xml version="1.0" encoding="UTF-8" standalone="no"?>
<!DOCTYPE svg PUBLIC "-//W3C//DTD SVG 1.1//EN"
 "http://www.w3.org/Graphics/SVG/1.1/DTD/svg11.dtd">
<!-- Generated by graphviz version 2.43.0 (0)
 -->
<!-- Title: src/libs/ifc/xml/vdomdocument.h Pages: 1 -->
<!--zoomable 296 -->
<svg id="main" version="1.1" xmlns="http://www.w3.org/2000/svg" xmlns:xlink="http://www.w3.org/1999/xlink" xml:space="preserve" onload="init(evt)">
<style type="text/css"><![CDATA[
.edge:hover path { stroke: red; }
.edge:hover polygon { stroke: red; fill: red; }
]]></style>
<script type="text/javascript"><![CDATA[
var edges = document.getElementsByTagName('g');
if (edges && edges.length) {
  for (var i=0;i<edges.length;i++) {
    if (edges[i].id.substr(0,4)=='edge') {
      edges[i].setAttribute('class','edge');
    }
  }
}
]]></script>
        <defs>
                <circle id="rim" cx="0" cy="0" r="7"/>
                <circle id="rim2" cx="0" cy="0" r="3.5"/>
                <g id="zoomPlus">
                        <use xlink:href="#rim" fill="#404040">
                                <set attributeName="fill" to="#808080" begin="zoomplus.mouseover" end="zoomplus.mouseout"/>
                        </use>
                        <path d="M-4,0h8M0,-4v8" fill="none" stroke="white" stroke-width="1.5" pointer-events="none"/>
                </g>
                <g id="zoomMin">
                        <use xlink:href="#rim" fill="#404040">
                                <set attributeName="fill" to="#808080" begin="zoomminus.mouseover" end="zoomminus.mouseout"/>
                        </use>
                        <path d="M-4,0h8" fill="none" stroke="white" stroke-width="1.5" pointer-events="none"/>
                </g>
                <g id="dirArrow">
                        <path fill="none" stroke="white" stroke-width="1.5" d="M0,-3.0v7 M-2.5,-0.5L0,-3.0L2.5,-0.5"/>
                </g>
               <g id="resetDef">
                       <use xlink:href="#rim2" fill="#404040">
                               <set attributeName="fill" to="#808080" begin="reset.mouseover" end="reset.mouseout"/>
                       </use>
               </g>
        </defs>

<script type="text/javascript">
var viewWidth = 3167;
var viewHeight = 296;
var sectionId = 'dynsection-1';
</script>
<script xlink:href="../../svgpan.js"/>
<svg id="graph" class="graph">
<g id="viewport">
<title>src/libs/ifc/xml/vdomdocument.h</title>
<polygon fill="white" stroke="transparent" points="-4,4 -4,-292 3163,-292 3163,4 -4,4"/>
<!-- Node1 -->
<g id="node1" class="node">
<title>Node1</title>
<g id="a_node1"><a xlink:title=" ">
<polygon fill="#bfbfbf" stroke="black" points="1289.5,-268.5 1289.5,-287.5 1465.5,-287.5 1465.5,-268.5 1289.5,-268.5"/>
<text text-anchor="middle" x="1377.5" y="-275.5" font-family="Helvetica,sans-Serif" font-size="10.00">src/libs/ifc/xml/vdomdocument.h</text>
</a>
</g>
</g>
<!-- Node2 -->
<g id="node2" class="node">
<title>Node2</title>
<g id="a_node2"><a xlink:href="../../d0/da1/abstract__converter_8h.html" target="_top" xlink:title=" ">
<polygon fill="white" stroke="black" points="472,-201.5 472,-231.5 603,-231.5 603,-201.5 472,-201.5"/>
<text text-anchor="start" x="480" y="-219.5" font-family="Helvetica,sans-Serif" font-size="10.00">src/libs/ifc/xml/abstract</text>
<text text-anchor="middle" x="537.5" y="-208.5" font-family="Helvetica,sans-Serif" font-size="10.00">_converter.h</text>
</a>
</g>
</g>
<!-- Node1&#45;&gt;Node2 -->
<g id="edge1" class="edge">
<title>Node1&#45;&gt;Node2</title>
<path fill="none" stroke="midnightblue" d="M1279.05,-270.03C1105.61,-257.74 750.11,-232.56 603.23,-222.16"/>
<polygon fill="midnightblue" stroke="midnightblue" points="1278.97,-273.53 1289.19,-270.74 1279.47,-266.55 1278.97,-273.53"/>
</g>
<!-- Node3 -->
<g id="node3" class="node">
<title>Node3</title>
<g id="a_node3"><a xlink:href="../../d0/d08/abstract__converter_8cpp.html" target="_top" xlink:title=" ">
<polygon fill="white" stroke="black" points="0,-134.5 0,-164.5 131,-164.5 131,-134.5 0,-134.5"/>
<text text-anchor="start" x="8" y="-152.5" font-family="Helvetica,sans-Serif" font-size="10.00">src/libs/ifc/xml/abstract</text>
<text text-anchor="middle" x="65.5" y="-141.5" font-family="Helvetica,sans-Serif" font-size="10.00">_converter.cpp</text>
</a>
</g>
</g>
<!-- Node1&#45;&gt;Node3 -->
<g id="edge24" class="edge">
<title>Node1&#45;&gt;Node3</title>
<path fill="none" stroke="midnightblue" d="M1279.36,-277.09C1111.38,-276.16 758.23,-269.4 462.5,-232 338.95,-216.37 196.46,-183.39 120.29,-164.53"/>
<polygon fill="midnightblue" stroke="midnightblue" points="1279.4,-280.59 1289.42,-277.14 1279.44,-273.59 1279.4,-280.59"/>
</g>
<!-- Node17 -->
<g id="node17" class="node">
<title>Node17</title>
<g id="a_node17"><a xlink:href="../../de/d7d/vabstractpattern_8cpp.html" target="_top" xlink:title=" ">
<polygon fill="white" stroke="black" points="1345.5,-73 1345.5,-92 1537.5,-92 1537.5,-73 1345.5,-73"/>
<text text-anchor="middle" x="1441.5" y="-80" font-family="Helvetica,sans-Serif" font-size="10.00">src/libs/ifc/xml/vabstractpattern.cpp</text>
</a>
</g>
</g>
<!-- Node1&#45;&gt;Node17 -->
<g id="edge48" class="edge">
<title>Node1&#45;&gt;Node17</title>
<path fill="none" stroke="midnightblue" d="M1394.95,-261.28C1402.75,-253.28 1411.34,-242.94 1416.5,-232 1439.68,-182.81 1441.7,-115.52 1441.64,-92.02"/>
<polygon fill="midnightblue" stroke="midnightblue" points="1392.3,-258.97 1387.56,-268.44 1397.17,-264 1392.3,-258.97"/>
</g>
<!-- Node18 -->
<g id="node18" class="node">
<title>Node18</title>
<g id="a_node18"><a xlink:href="../../d0/d89/vabstractpattern_8h.html" target="_top" xlink:title=" ">
<polygon fill="white" stroke="black" points="1870,-207 1870,-226 2051,-226 2051,-207 1870,-207"/>
<text text-anchor="middle" x="1960.5" y="-214" font-family="Helvetica,sans-Serif" font-size="10.00">src/libs/ifc/xml/vabstractpattern.h</text>
</a>
</g>
</g>
<!-- Node1&#45;&gt;Node18 -->
<g id="edge25" class="edge">
<title>Node1&#45;&gt;Node18</title>
<path fill="none" stroke="midnightblue" d="M1470.98,-267.46C1583.18,-256.01 1769.62,-236.98 1877.13,-226.01"/>
<polygon fill="midnightblue" stroke="midnightblue" points="1470.62,-263.98 1461.03,-268.48 1471.33,-270.94 1470.62,-263.98"/>
</g>
<!-- Node19 -->
<g id="node19" class="node">
<title>Node19</title>
<g id="a_node19"><a xlink:href="../../d2/d47/image__dialog_8cpp.html" target="_top" xlink:title=" ">
<polygon fill="white" stroke="black" points="1528.5,-134.5 1528.5,-164.5 1640.5,-164.5 1640.5,-134.5 1528.5,-134.5"/>
<text text-anchor="start" x="1536.5" y="-152.5" font-family="Helvetica,sans-Serif" font-size="10.00">src/libs/tools/image</text>
<text text-anchor="middle" x="1584.5" y="-141.5" font-family="Helvetica,sans-Serif" font-size="10.00">_dialog.cpp</text>
</a>
</g>
</g>
<!-- Node1&#45;&gt;Node19 -->
<g id="edge49" class="edge">
<title>Node1&#45;&gt;Node19</title>
<path fill="none" stroke="midnightblue" d="M1400.81,-263.38C1415.89,-254.52 1435.91,-242.67 1453.5,-232 1491.74,-208.79 1535.83,-181.18 1561.87,-164.79"/>
<polygon fill="midnightblue" stroke="midnightblue" points="1398.98,-260.39 1392.13,-268.47 1402.52,-266.43 1398.98,-260.39"/>
</g>
<!-- Node37 -->
<g id="node37" class="node">
<title>Node37</title>
<g id="a_node37"><a xlink:href="../../d7/d49/vdomdocument_8cpp.html" target="_top" xlink:title=" ">
<polygon fill="white" stroke="black" points="2069.5,-207 2069.5,-226 2257.5,-226 2257.5,-207 2069.5,-207"/>
<text text-anchor="middle" x="2163.5" y="-214" font-family="Helvetica,sans-Serif" font-size="10.00">src/libs/ifc/xml/vdomdocument.cpp</text>
</a>
</g>
</g>
<!-- Node1&#45;&gt;Node37 -->
<g id="edge47" class="edge">
<title>Node1&#45;&gt;Node37</title>
<path fill="none" stroke="midnightblue" d="M1475.83,-272.76C1608.55,-266.52 1852.28,-253.25 2059.5,-232 2075.19,-230.39 2092.15,-228.21 2107.73,-226.04"/>
<polygon fill="midnightblue" stroke="midnightblue" points="1475.51,-269.27 1465.68,-273.23 1475.84,-276.26 1475.51,-269.27"/>
</g>
<!-- Node38 -->
<g id="node38" class="node">
<title>Node38</title>
<g id="a_node38"><a xlink:href="../../dc/db7/measurements_8h.html" target="_top" xlink:title=" ">
<polygon fill="white" stroke="black" points="1229,-207 1229,-226 1408,-226 1408,-207 1229,-207"/>
<text text-anchor="middle" x="1318.5" y="-214" font-family="Helvetica,sans-Serif" font-size="10.00">src/libs/vformat/measurements.h</text>
</a>
</g>
</g>
<!-- Node1&#45;&gt;Node38 -->
<g id="edge50" class="edge">
<title>Node1&#45;&gt;Node38</title>
<path fill="none" stroke="midnightblue" d="M1361.96,-261.32C1350.75,-250.02 1336.04,-235.19 1326.94,-226.01"/>
<polygon fill="midnightblue" stroke="midnightblue" points="1359.52,-263.84 1369.05,-268.48 1364.49,-258.91 1359.52,-263.84"/>
</g>
<!-- Node39 -->
<g id="node39" class="node">
<title>Node39</title>
<g id="a_node39"><a xlink:href="../../d2/d8a/vlabeltemplate_8h.html" target="_top" xlink:title=" ">
<polygon fill="white" stroke="black" points="995,-207 995,-226 1174,-226 1174,-207 995,-207"/>
<text text-anchor="middle" x="1084.5" y="-214" font-family="Helvetica,sans-Serif" font-size="10.00">src/libs/vformat/vlabeltemplate.h</text>
</a>
</g>
</g>
<!-- Node1&#45;&gt;Node39 -->
<g id="edge52" class="edge">
<title>Node1&#45;&gt;Node39</title>
<path fill="none" stroke="midnightblue" d="M1325.67,-266.47C1268.88,-254.94 1178.91,-236.67 1126.4,-226.01"/>
<polygon fill="midnightblue" stroke="midnightblue" points="1325.02,-269.91 1335.52,-268.48 1326.42,-263.05 1325.02,-269.91"/>
</g>
<!-- Node2&#45;&gt;Node3 -->
<g id="edge2" class="edge">
<title>Node2&#45;&gt;Node3</title>
<path fill="none" stroke="midnightblue" d="M461.79,-207.43C381.56,-198.52 251.27,-183.02 139.5,-165 136.79,-164.56 134.02,-164.1 131.23,-163.62"/>
<polygon fill="midnightblue" stroke="midnightblue" points="461.48,-210.92 471.81,-208.54 462.25,-203.96 461.48,-210.92"/>
</g>
<!-- Node4 -->
<g id="node4" class="node">
<title>Node4</title>
<g id="a_node4"><a xlink:href="../../da/d2c/abstract__m__converter_8h.html" target="_top" xlink:title=" ">
<polygon fill="white" stroke="black" points="359,-134.5 359,-164.5 490,-164.5 490,-134.5 359,-134.5"/>
<text text-anchor="start" x="367" y="-152.5" font-family="Helvetica,sans-Serif" font-size="10.00">src/libs/ifc/xml/abstract</text>
<text text-anchor="middle" x="424.5" y="-141.5" font-family="Helvetica,sans-Serif" font-size="10.00">_m_converter.h</text>
</a>
</g>
</g>
<!-- Node2&#45;&gt;Node4 -->
<g id="edge3" class="edge">
<title>Node2&#45;&gt;Node4</title>
<path fill="none" stroke="midnightblue" d="M504.11,-196.3C486.43,-186.12 465.1,-173.85 448.97,-164.58"/>
<polygon fill="midnightblue" stroke="midnightblue" points="502.57,-199.44 512.98,-201.4 506.06,-193.38 502.57,-199.44"/>
</g>
<!-- Node5 -->
<g id="node5" class="node">
<title>Node5</title>
<g id="a_node5"><a xlink:href="../../de/dec/abstract__m__converter_8cpp.html" target="_top" xlink:title=" ">
<polygon fill="white" stroke="black" points="115,-67.5 115,-97.5 246,-97.5 246,-67.5 115,-67.5"/>
<text text-anchor="start" x="123" y="-85.5" font-family="Helvetica,sans-Serif" font-size="10.00">src/libs/ifc/xml/abstract</text>
<text text-anchor="middle" x="180.5" y="-74.5" font-family="Helvetica,sans-Serif" font-size="10.00">_m_converter.cpp</text>
</a>
</g>
</g>
<!-- Node2&#45;&gt;Node5 -->
<g id="edge13" class="edge">
<title>Node2&#45;&gt;Node5</title>
<path fill="none" stroke="midnightblue" d="M461.81,-202.56C426.45,-194.69 384.53,-182.66 349.5,-165 329.73,-155.03 329.7,-145.02 310.5,-134 284.04,-118.81 252.14,-106.34 226.55,-97.59"/>
<polygon fill="midnightblue" stroke="midnightblue" points="461.08,-205.99 471.59,-204.67 462.56,-199.14 461.08,-205.99"/>
</g>
<!-- Node6 -->
<g id="node6" class="node">
<title>Node6</title>
<g id="a_node6"><a xlink:href="../../d0/d93/individual__size__converter_8h.html" target="_top" xlink:title=" ">
<polygon fill="white" stroke="black" points="341,-67.5 341,-97.5 480,-97.5 480,-67.5 341,-67.5"/>
<text text-anchor="start" x="349" y="-85.5" font-family="Helvetica,sans-Serif" font-size="10.00">src/libs/ifc/xml/individual</text>
<text text-anchor="middle" x="410.5" y="-74.5" font-family="Helvetica,sans-Serif" font-size="10.00">_size_converter.h</text>
</a>
</g>
</g>
<!-- Node2&#45;&gt;Node6 -->
<g id="edge14" class="edge">
<title>Node2&#45;&gt;Node6</title>
<path fill="none" stroke="midnightblue" d="M530.43,-191.78C524.25,-174.2 513.84,-150.53 498.5,-134 483.88,-118.25 463.21,-106.04 445.58,-97.58"/>
<polygon fill="midnightblue" stroke="midnightblue" points="527.12,-192.93 533.59,-201.32 533.77,-190.73 527.12,-192.93"/>
</g>
<!-- Node10 -->
<g id="node10" class="node">
<title>Node10</title>
<g id="a_node10"><a xlink:href="../../d5/d4c/multi__size__converter_8h.html" target="_top" xlink:title=" ">
<polygon fill="white" stroke="black" points="498.5,-67.5 498.5,-97.5 614.5,-97.5 614.5,-67.5 498.5,-67.5"/>
<text text-anchor="start" x="506.5" y="-85.5" font-family="Helvetica,sans-Serif" font-size="10.00">src/libs/ifc/xml/multi</text>
<text text-anchor="middle" x="556.5" y="-74.5" font-family="Helvetica,sans-Serif" font-size="10.00">_size_converter.h</text>
</a>
</g>
</g>
<!-- Node2&#45;&gt;Node10 -->
<g id="edge16" class="edge">
<title>Node2&#45;&gt;Node10</title>
<path fill="none" stroke="midnightblue" d="M540.97,-191.39C544.93,-163.9 551.26,-119.89 554.48,-97.52"/>
<polygon fill="midnightblue" stroke="midnightblue" points="537.49,-190.98 539.53,-201.37 544.42,-191.97 537.49,-190.98"/>
</g>
<!-- Node11 -->
<g id="node11" class="node">
<title>Node11</title>
<g id="a_node11"><a xlink:href="../../d4/d90/fvupdater_8cpp.html" target="_top" xlink:title=" ">
<polygon fill="white" stroke="black" points="149,-140 149,-159 302,-159 302,-140 149,-140"/>
<text text-anchor="middle" x="225.5" y="-147" font-family="Helvetica,sans-Serif" font-size="10.00">src/libs/fervor/fvupdater.cpp</text>
</a>
</g>
</g>
<!-- Node2&#45;&gt;Node11 -->
<g id="edge15" class="edge">
<title>Node2&#45;&gt;Node11</title>
<path fill="none" stroke="midnightblue" d="M461.67,-199.7C400.18,-186.89 315.88,-169.33 266.4,-159.02"/>
<polygon fill="midnightblue" stroke="midnightblue" points="461.21,-203.18 471.71,-201.79 462.64,-196.33 461.21,-203.18"/>
</g>
<!-- Node12 -->
<g id="node12" class="node">
<title>Node12</title>
<g id="a_node12"><a xlink:href="../../d5/d35/vlabeltemplateconverter_8h.html" target="_top" xlink:title=" ">
<polygon fill="white" stroke="black" points="638.5,-140 638.5,-159 858.5,-159 858.5,-140 638.5,-140"/>
<text text-anchor="middle" x="748.5" y="-147" font-family="Helvetica,sans-Serif" font-size="10.00">src/libs/ifc/xml/vlabeltemplateconverter.h</text>
</a>
</g>
</g>
<!-- Node2&#45;&gt;Node12 -->
<g id="edge17" class="edge">
<title>Node2&#45;&gt;Node12</title>
<path fill="none" stroke="midnightblue" d="M592.65,-198.51C633.83,-185.83 688.38,-169.02 720.81,-159.03"/>
<polygon fill="midnightblue" stroke="midnightblue" points="591.55,-195.19 583.02,-201.48 593.61,-201.88 591.55,-195.19"/>
</g>
<!-- Node15 -->
<g id="node15" class="node">
<title>Node15</title>
<g id="a_node15"><a xlink:href="../../df/d2f/vpatternconverter_8h.html" target="_top" xlink:title=" ">
<polygon fill="white" stroke="black" points="1097,-140 1097,-159 1284,-159 1284,-140 1097,-140"/>
<text text-anchor="middle" x="1190.5" y="-147" font-family="Helvetica,sans-Serif" font-size="10.00">src/libs/ifc/xml/vpatternconverter.h</text>
</a>
</g>
</g>
<!-- Node2&#45;&gt;Node15 -->
<g id="edge20" class="edge">
<title>Node2&#45;&gt;Node15</title>
<path fill="none" stroke="midnightblue" d="M613.14,-207.97C735.59,-195.78 976.43,-171.81 1104.95,-159.02"/>
<polygon fill="midnightblue" stroke="midnightblue" points="612.71,-204.5 603.1,-208.97 613.4,-211.46 612.71,-204.5"/>
</g>
<!-- Node16 -->
<g id="node16" class="node">
<title>Node16</title>
<g id="a_node16"><a xlink:href="../../d5/d2c/vpatternconverter_8cpp.html" target="_top" xlink:title=" ">
<polygon fill="white" stroke="black" points="1091.5,-73 1091.5,-92 1289.5,-92 1289.5,-73 1091.5,-73"/>
<text text-anchor="middle" x="1190.5" y="-80" font-family="Helvetica,sans-Serif" font-size="10.00">src/libs/ifc/xml/vpatternconverter.cpp</text>
</a>
</g>
</g>
<!-- Node2&#45;&gt;Node16 -->
<g id="edge23" class="edge">
<title>Node2&#45;&gt;Node16</title>
<path fill="none" stroke="midnightblue" d="M613.32,-205.99C680.44,-197.07 780.91,-182.51 867.5,-165 976.34,-142.99 1103.61,-108.15 1160.44,-92.11"/>
<polygon fill="midnightblue" stroke="midnightblue" points="612.71,-202.54 603.25,-207.32 613.63,-209.48 612.71,-202.54"/>
</g>
<!-- Node4&#45;&gt;Node5 -->
<g id="edge4" class="edge">
<title>Node4&#45;&gt;Node5</title>
<path fill="none" stroke="midnightblue" d="M362,-131.85C322.22,-121.25 271.26,-107.68 233.47,-97.61"/>
<polygon fill="midnightblue" stroke="midnightblue" points="361.29,-135.28 371.86,-134.48 363.09,-128.52 361.29,-135.28"/>
</g>
<!-- Node4&#45;&gt;Node6 -->
<g id="edge5" class="edge">
<title>Node4&#45;&gt;Node6</title>
<path fill="none" stroke="midnightblue" d="M419.31,-124.4C417.36,-115.37 415.22,-105.41 413.53,-97.58"/>
<polygon fill="midnightblue" stroke="midnightblue" points="415.94,-125.36 421.46,-134.4 422.78,-123.88 415.94,-125.36"/>
</g>
<!-- Node7 -->
<g id="node7" class="node">
<title>Node7</title>
<g id="a_node7"><a xlink:href="../../d5/d6e/individual__size__converter_8cpp.html" target="_top" xlink:title=" ">
<polygon fill="white" stroke="black" points="205,-0.5 205,-30.5 344,-30.5 344,-0.5 205,-0.5"/>
<text text-anchor="start" x="213" y="-18.5" font-family="Helvetica,sans-Serif" font-size="10.00">src/libs/ifc/xml/individual</text>
<text text-anchor="middle" x="274.5" y="-7.5" font-family="Helvetica,sans-Serif" font-size="10.00">_size_converter.cpp</text>
</a>
</g>
</g>
<!-- Node4&#45;&gt;Node7 -->
<g id="edge8" class="edge">
<title>Node4&#45;&gt;Node7</title>
<path fill="none" stroke="midnightblue" d="M373.59,-130.29C356.01,-122.28 337.09,-111.57 322.5,-98 301.7,-78.65 287.09,-48.24 279.8,-30.55"/>
<polygon fill="midnightblue" stroke="midnightblue" points="372.61,-133.68 383.18,-134.45 375.4,-127.26 372.61,-133.68"/>
</g>
<!-- Node9 -->
<g id="node9" class="node">
<title>Node9</title>
<g id="a_node9"><a xlink:href="../../d9/d94/multi__size__converter_8cpp.html" target="_top" xlink:title=" ">
<polygon fill="white" stroke="black" points="362.5,-0.5 362.5,-30.5 478.5,-30.5 478.5,-0.5 362.5,-0.5"/>
<text text-anchor="start" x="370.5" y="-18.5" font-family="Helvetica,sans-Serif" font-size="10.00">src/libs/ifc/xml/multi</text>
<text text-anchor="middle" x="420.5" y="-7.5" font-family="Helvetica,sans-Serif" font-size="10.00">_size_converter.cpp</text>
</a>
</g>
</g>
<!-- Node4&#45;&gt;Node9 -->
<g id="edge9" class="edge">
<title>Node4&#45;&gt;Node9</title>
<path fill="none" stroke="midnightblue" d="M368.29,-130.12C353.78,-122.54 339.9,-112.12 331.5,-98 324.46,-86.16 324.57,-78.91 331.5,-67 341.33,-50.11 359.15,-38.41 376.27,-30.56"/>
<polygon fill="midnightblue" stroke="midnightblue" points="366.83,-133.3 377.36,-134.48 369.87,-126.99 366.83,-133.3"/>
</g>
<!-- Node4&#45;&gt;Node10 -->
<g id="edge10" class="edge">
<title>Node4&#45;&gt;Node10</title>
<path fill="none" stroke="midnightblue" d="M462.37,-129.85C483.24,-119.58 508.73,-107.03 527.91,-97.58"/>
<polygon fill="midnightblue" stroke="midnightblue" points="460.57,-126.84 453.14,-134.4 463.66,-133.12 460.57,-126.84"/>
</g>
<!-- Node6&#45;&gt;Node7 -->
<g id="edge6" class="edge">
<title>Node6&#45;&gt;Node7</title>
<path fill="none" stroke="midnightblue" d="M371.78,-62.99C350.22,-52.69 323.81,-40.07 303.95,-30.58"/>
<polygon fill="midnightblue" stroke="midnightblue" points="370.46,-66.24 380.99,-67.4 373.48,-59.93 370.46,-66.24"/>
</g>
<!-- Node8 -->
<g id="node8" class="node">
<title>Node8</title>
<g id="a_node8"><a xlink:href="../../d9/de3/measurements_8cpp.html" target="_top" xlink:title=" ">
<polygon fill="white" stroke="black" points="496.5,-6 496.5,-25 686.5,-25 686.5,-6 496.5,-6"/>
<text text-anchor="middle" x="591.5" y="-13" font-family="Helvetica,sans-Serif" font-size="10.00">src/libs/vformat/measurements.cpp</text>
</a>
</g>
</g>
<!-- Node6&#45;&gt;Node8 -->
<g id="edge7" class="edge">
<title>Node6&#45;&gt;Node8</title>
<path fill="none" stroke="midnightblue" d="M459.38,-63.95C494.54,-51.32 540.4,-34.85 567.81,-25.01"/>
<polygon fill="midnightblue" stroke="midnightblue" points="458,-60.72 449.77,-67.4 460.37,-67.31 458,-60.72"/>
</g>
<!-- Node10&#45;&gt;Node8 -->
<g id="edge12" class="edge">
<title>Node10&#45;&gt;Node8</title>
<path fill="none" stroke="midnightblue" d="M569,-58.29C575.18,-46.8 582.28,-33.63 586.82,-25.19"/>
<polygon fill="midnightblue" stroke="midnightblue" points="565.75,-56.93 564.09,-67.4 571.92,-60.25 565.75,-56.93"/>
</g>
<!-- Node10&#45;&gt;Node9 -->
<g id="edge11" class="edge">
<title>Node10&#45;&gt;Node9</title>
<path fill="none" stroke="midnightblue" d="M517.78,-62.99C496.22,-52.69 469.81,-40.07 449.95,-30.58"/>
<polygon fill="midnightblue" stroke="midnightblue" points="516.46,-66.24 526.99,-67.4 519.48,-59.93 516.46,-66.24"/>
</g>
<!-- Node13 -->
<g id="node13" class="node">
<title>Node13</title>
<g id="a_node13"><a xlink:href="../../d7/d63/vlabeltemplateconverter_8cpp.html" target="_top" xlink:title=" ">
<polygon fill="white" stroke="black" points="633,-73 633,-92 864,-92 864,-73 633,-73"/>
<text text-anchor="middle" x="748.5" y="-80" font-family="Helvetica,sans-Serif" font-size="10.00">src/libs/ifc/xml/vlabeltemplateconverter.cpp</text>
</a>
</g>
</g>
<!-- Node12&#45;&gt;Node13 -->
<g id="edge18" class="edge">
<title>Node12&#45;&gt;Node13</title>
<path fill="none" stroke="midnightblue" d="M748.5,-129.54C748.5,-117.17 748.5,-101.62 748.5,-92.13"/>
<polygon fill="midnightblue" stroke="midnightblue" points="745,-129.73 748.5,-139.73 752,-129.73 745,-129.73"/>
</g>
<!-- Node14 -->
<g id="node14" class="node">
<title>Node14</title>
<g id="a_node14"><a xlink:href="../../d9/daf/vlabeltemplate_8cpp.html" target="_top" xlink:title=" ">
<polygon fill="white" stroke="black" points="882,-73 882,-92 1073,-92 1073,-73 882,-73"/>
<text text-anchor="middle" x="977.5" y="-80" font-family="Helvetica,sans-Serif" font-size="10.00">src/libs/vformat/vlabeltemplate.cpp</text>
</a>
</g>
</g>
<!-- Node12&#45;&gt;Node14 -->
<g id="edge19" class="edge">
<title>Node12&#45;&gt;Node14</title>
<path fill="none" stroke="midnightblue" d="M788.69,-137.09C834,-124.23 906.62,-103.62 947.33,-92.06"/>
<polygon fill="midnightblue" stroke="midnightblue" points="787.57,-133.77 778.91,-139.87 789.49,-140.5 787.57,-133.77"/>
</g>
<!-- Node15&#45;&gt;Node16 -->
<g id="edge21" class="edge">
<title>Node15&#45;&gt;Node16</title>
<path fill="none" stroke="midnightblue" d="M1190.5,-129.54C1190.5,-117.17 1190.5,-101.62 1190.5,-92.13"/>
<polygon fill="midnightblue" stroke="midnightblue" points="1187,-129.73 1190.5,-139.73 1194,-129.73 1187,-129.73"/>
</g>
<!-- Node15&#45;&gt;Node17 -->
<g id="edge22" class="edge">
<title>Node15&#45;&gt;Node17</title>
<path fill="none" stroke="midnightblue" d="M1233.35,-137.4C1282.88,-124.58 1363.36,-103.74 1408.35,-92.08"/>
<polygon fill="midnightblue" stroke="midnightblue" points="1232.38,-134.04 1223.57,-139.94 1234.13,-140.82 1232.38,-134.04"/>
</g>
<!-- Node18&#45;&gt;Node17 -->
<g id="edge26" class="edge">
<title>Node18&#45;&gt;Node17</title>
<path fill="none" stroke="midnightblue" d="M1947.66,-198.76C1930.76,-177.22 1901.45,-141.66 1886.5,-134 1882.45,-131.93 1646.24,-105.87 1519.67,-92.02"/>
<polygon fill="midnightblue" stroke="midnightblue" points="1944.97,-201.01 1953.87,-206.76 1950.5,-196.71 1944.97,-201.01"/>
</g>
<!-- Node18&#45;&gt;Node19 -->
<g id="edge27" class="edge">
<title>Node18&#45;&gt;Node19</title>
<path fill="none" stroke="midnightblue" d="M1900.76,-205.17C1829.26,-192.81 1710.44,-172.27 1640.59,-160.2"/>
<polygon fill="midnightblue" stroke="midnightblue" points="1900.51,-208.68 1910.96,-206.94 1901.7,-201.78 1900.51,-208.68"/>
</g>
<!-- Node20 -->
<g id="node20" class="node">
<title>Node20</title>
<g id="a_node20"><a xlink:href="../../d6/de0/vlayoutpiece_8h.html" target="_top" xlink:title=" ">
<polygon fill="white" stroke="black" points="1933.5,-140 1933.5,-159 2099.5,-159 2099.5,-140 1933.5,-140"/>
<text text-anchor="middle" x="2016.5" y="-147" font-family="Helvetica,sans-Serif" font-size="10.00">src/libs/vlayout/vlayoutpiece.h</text>
</a>
</g>
</g>
<!-- Node18&#45;&gt;Node20 -->
<g id="edge28" class="edge">
<title>Node18&#45;&gt;Node20</title>
<path fill="none" stroke="midnightblue" d="M1974.6,-199.13C1985.55,-186.42 2000.3,-169.3 2009.07,-159.13"/>
<polygon fill="midnightblue" stroke="midnightblue" points="1971.93,-196.87 1968.05,-206.73 1977.23,-201.44 1971.93,-196.87"/>
</g>
<!-- Node30 -->
<g id="node30" class="node">
<title>Node30</title>
<g id="a_node30"><a xlink:href="../../d8/d70/vtextmanager_8cpp.html" target="_top" xlink:title=" ">
<polygon fill="white" stroke="black" points="2117.5,-140 2117.5,-159 2299.5,-159 2299.5,-140 2117.5,-140"/>
<text text-anchor="middle" x="2208.5" y="-147" font-family="Helvetica,sans-Serif" font-size="10.00">src/libs/vlayout/vtextmanager.cpp</text>
</a>
</g>
</g>
<!-- Node18&#45;&gt;Node30 -->
<g id="edge40" class="edge">
<title>Node18&#45;&gt;Node30</title>
<path fill="none" stroke="midnightblue" d="M2003.14,-204.32C2052.11,-191.49 2131.38,-170.71 2175.75,-159.08"/>
<polygon fill="midnightblue" stroke="midnightblue" points="2001.96,-201.01 1993.18,-206.94 2003.74,-207.79 2001.96,-201.01"/>
</g>
<!-- Node31 -->
<g id="node31" class="node">
<title>Node31</title>
<g id="a_node31"><a xlink:href="../../d0/da5/export__format__combobox_8h.html" target="_top" xlink:title=" ">
<polygon fill="white" stroke="black" points="2318,-134.5 2318,-164.5 2451,-164.5 2451,-134.5 2318,-134.5"/>
<text text-anchor="start" x="2326" y="-152.5" font-family="Helvetica,sans-Serif" font-size="10.00">src/libs/vwidgets/export</text>
<text text-anchor="middle" x="2384.5" y="-141.5" font-family="Helvetica,sans-Serif" font-size="10.00">_format_combobox.h</text>
</a>
</g>
</g>
<!-- Node18&#45;&gt;Node31 -->
<g id="edge41" class="edge">
<title>Node18&#45;&gt;Node31</title>
<path fill="none" stroke="midnightblue" d="M2029.29,-205.53C2130.22,-190.89 2306.78,-165.29 2308.5,-165 2311.55,-164.49 2314.66,-163.95 2317.8,-163.4"/>
<polygon fill="midnightblue" stroke="midnightblue" points="2028.56,-202.1 2019.17,-206.99 2029.57,-209.02 2028.56,-202.1"/>
</g>
<!-- Node33 -->
<g id="node33" class="node">
<title>Node33</title>
<g id="a_node33"><a xlink:href="../../d7/df4/group__tablewidgetitem_8cpp.html" target="_top" xlink:title=" ">
<polygon fill="white" stroke="black" points="2469,-134.5 2469,-164.5 2598,-164.5 2598,-134.5 2469,-134.5"/>
<text text-anchor="start" x="2477" y="-152.5" font-family="Helvetica,sans-Serif" font-size="10.00">src/libs/vwidgets/group</text>
<text text-anchor="middle" x="2533.5" y="-141.5" font-family="Helvetica,sans-Serif" font-size="10.00">_tablewidgetitem.cpp</text>
</a>
</g>
</g>
<!-- Node18&#45;&gt;Node33 -->
<g id="edge43" class="edge">
<title>Node18&#45;&gt;Node33</title>
<path fill="none" stroke="midnightblue" d="M2025.54,-205.55C2037.17,-203.92 2049.18,-202.33 2060.5,-201 2237.34,-180.22 2283.23,-190.15 2459.5,-165 2462.61,-164.56 2465.79,-164.07 2468.99,-163.55"/>
<polygon fill="midnightblue" stroke="midnightblue" points="2024.85,-202.11 2015.45,-206.99 2025.84,-209.04 2024.85,-202.11"/>
</g>
<!-- Node34 -->
<g id="node34" class="node">
<title>Node34</title>
<g id="a_node34"><a xlink:href="../../d3/d86/page__format__combobox_8h.html" target="_top" xlink:title=" ">
<polygon fill="white" stroke="black" points="2824,-134.5 2824,-164.5 2949,-164.5 2949,-134.5 2824,-134.5"/>
<text text-anchor="start" x="2832" y="-152.5" font-family="Helvetica,sans-Serif" font-size="10.00">src/libs/vwidgets/page</text>
<text text-anchor="middle" x="2886.5" y="-141.5" font-family="Helvetica,sans-Serif" font-size="10.00">_format_combobox.h</text>
</a>
</g>
</g>
<!-- Node18&#45;&gt;Node34 -->
<g id="edge44" class="edge">
<title>Node18&#45;&gt;Node34</title>
<path fill="none" stroke="midnightblue" d="M2023.69,-205.53C2035.88,-203.83 2048.57,-202.23 2060.5,-201 2208.51,-185.77 2657.73,-162.13 2823.86,-153.65"/>
<polygon fill="midnightblue" stroke="midnightblue" points="2023,-202.09 2013.59,-206.97 2023.99,-209.02 2023,-202.09"/>
</g>
<!-- Node36 -->
<g id="node36" class="node">
<title>Node36</title>
<g id="a_node36"><a xlink:href="../../de/d22/vsimplecurve_8cpp.html" target="_top" xlink:title=" ">
<polygon fill="white" stroke="black" points="1689.5,-140 1689.5,-159 1877.5,-159 1877.5,-140 1689.5,-140"/>
<text text-anchor="middle" x="1783.5" y="-147" font-family="Helvetica,sans-Serif" font-size="10.00">src/libs/vwidgets/vsimplecurve.cpp</text>
</a>
</g>
</g>
<!-- Node18&#45;&gt;Node36 -->
<g id="edge46" class="edge">
<title>Node18&#45;&gt;Node36</title>
<path fill="none" stroke="midnightblue" d="M1927.2,-203.27C1892.07,-190.37 1837.62,-170.38 1806.82,-159.06"/>
<polygon fill="midnightblue" stroke="midnightblue" points="1926.4,-206.71 1937,-206.87 1928.82,-200.14 1926.4,-206.71"/>
</g>
<!-- Node21 -->
<g id="node21" class="node">
<title>Node21</title>
<g id="a_node21"><a xlink:href="../../dd/d66/vdxfengine_8cpp.html" target="_top" xlink:title=" ">
<polygon fill="white" stroke="black" points="2153.5,-73 2153.5,-92 2307.5,-92 2307.5,-73 2153.5,-73"/>
<text text-anchor="middle" x="2230.5" y="-80" font-family="Helvetica,sans-Serif" font-size="10.00">src/libs/vdxf/vdxfengine.cpp</text>
</a>
</g>
</g>
<!-- Node20&#45;&gt;Node21 -->
<g id="edge29" class="edge">
<title>Node20&#45;&gt;Node21</title>
<path fill="none" stroke="midnightblue" d="M2054.6,-136.93C2096.97,-124.06 2164.42,-103.57 2202.31,-92.06"/>
<polygon fill="midnightblue" stroke="midnightblue" points="2053.47,-133.61 2044.92,-139.87 2055.5,-140.31 2053.47,-133.61"/>
</g>
<!-- Node22 -->
<g id="node22" class="node">
<title>Node22</title>
<g id="a_node22"><a xlink:href="../../de/da8/vbank_8cpp.html" target="_top" xlink:title=" ">
<polygon fill="white" stroke="black" points="2325.5,-73 2325.5,-92 2469.5,-92 2469.5,-73 2325.5,-73"/>
<text text-anchor="middle" x="2397.5" y="-80" font-family="Helvetica,sans-Serif" font-size="10.00">src/libs/vlayout/vbank.cpp</text>
</a>
</g>
</g>
<!-- Node20&#45;&gt;Node22 -->
<g id="edge30" class="edge">
<title>Node20&#45;&gt;Node22</title>
<path fill="none" stroke="midnightblue" d="M2078.19,-138.31C2138.87,-128.24 2234.1,-112.31 2316.5,-98 2327.48,-96.09 2339.29,-94 2350.4,-92.02"/>
<polygon fill="midnightblue" stroke="midnightblue" points="2077.31,-134.91 2068.02,-139.99 2078.46,-141.81 2077.31,-134.91"/>
</g>
<!-- Node23 -->
<g id="node23" class="node">
<title>Node23</title>
<g id="a_node23"><a xlink:href="../../df/d5d/vcontour_8cpp.html" target="_top" xlink:title=" ">
<polygon fill="white" stroke="black" points="2487.5,-73 2487.5,-92 2643.5,-92 2643.5,-73 2487.5,-73"/>
<text text-anchor="middle" x="2565.5" y="-80" font-family="Helvetica,sans-Serif" font-size="10.00">src/libs/vlayout/vcontour.cpp</text>
</a>
</g>
</g>
<!-- Node20&#45;&gt;Node23 -->
<g id="edge31" class="edge">
<title>Node20&#45;&gt;Node23</title>
<path fill="none" stroke="midnightblue" d="M2076.97,-138.45C2087.47,-136.85 2098.29,-135.3 2108.5,-134 2272.4,-113.13 2314.7,-119.59 2478.5,-98 2491.25,-96.32 2505,-94.18 2517.72,-92.06"/>
<polygon fill="midnightblue" stroke="midnightblue" points="2076.39,-134.99 2067.04,-139.98 2077.46,-141.91 2076.39,-134.99"/>
</g>
<!-- Node24 -->
<g id="node24" class="node">
<title>Node24</title>
<g id="a_node24"><a xlink:href="../../d3/d39/vlayoutgenerator_8cpp.html" target="_top" xlink:title=" ">
<polygon fill="white" stroke="black" points="2662,-73 2662,-92 2859,-92 2859,-73 2662,-73"/>
<text text-anchor="middle" x="2760.5" y="-80" font-family="Helvetica,sans-Serif" font-size="10.00">src/libs/vlayout/vlayoutgenerator.cpp</text>
</a>
</g>
</g>
<!-- Node20&#45;&gt;Node24 -->
<g id="edge32" class="edge">
<title>Node20&#45;&gt;Node24</title>
<path fill="none" stroke="midnightblue" d="M2075.48,-138.4C2086.43,-136.75 2097.8,-135.2 2108.5,-134 2349.31,-107.11 2411.4,-122.14 2652.5,-98 2668.78,-96.37 2686.39,-94.19 2702.57,-92.01"/>
<polygon fill="midnightblue" stroke="midnightblue" points="2074.92,-134.94 2065.57,-139.93 2075.98,-141.86 2074.92,-134.94"/>
</g>
<!-- Node25 -->
<g id="node25" class="node">
<title>Node25</title>
<g id="a_node25"><a xlink:href="../../d2/d2d/vlayoutpaper__p_8h.html" target="_top" xlink:title=" ">
<polygon fill="white" stroke="black" points="1594,-73 1594,-92 1773,-92 1773,-73 1594,-73"/>
<text text-anchor="middle" x="1683.5" y="-80" font-family="Helvetica,sans-Serif" font-size="10.00">src/libs/vlayout/vlayoutpaper_p.h</text>
</a>
</g>
</g>
<!-- Node20&#45;&gt;Node25 -->
<g id="edge33" class="edge">
<title>Node20&#45;&gt;Node25</title>
<path fill="none" stroke="midnightblue" d="M1962.49,-137.96C1896.95,-125.16 1787.72,-103.84 1727.21,-92.03"/>
<polygon fill="midnightblue" stroke="midnightblue" points="1962.14,-141.45 1972.62,-139.94 1963.48,-134.58 1962.14,-141.45"/>
</g>
<!-- Node26 -->
<g id="node26" class="node">
<title>Node26</title>
<g id="a_node26"><a xlink:href="../../d1/dd1/vlayoutpaper_8cpp.html" target="_top" xlink:title=" ">
<polygon fill="white" stroke="black" points="1592.5,-6 1592.5,-25 1770.5,-25 1770.5,-6 1592.5,-6"/>
<text text-anchor="middle" x="1681.5" y="-13" font-family="Helvetica,sans-Serif" font-size="10.00">src/libs/vlayout/vlayoutpaper.cpp</text>
</a>
</g>
</g>
<!-- Node20&#45;&gt;Node26 -->
<g id="edge35" class="edge">
<title>Node20&#45;&gt;Node26</title>
<path fill="none" stroke="midnightblue" d="M1952.26,-138.52C1941.34,-136.93 1930.1,-135.36 1919.5,-134 1845.24,-124.46 1634.53,-153.7 1584.5,-98 1557.45,-67.89 1619.4,-38.96 1656.38,-25.07"/>
<polygon fill="midnightblue" stroke="midnightblue" points="1951.77,-141.98 1962.17,-139.97 1952.79,-135.06 1951.77,-141.98"/>
</g>
<!-- Node27 -->
<g id="node27" class="node">
<title>Node27</title>
<g id="a_node27"><a xlink:href="../../db/d5c/vposition_8h.html" target="_top" xlink:title=" ">
<polygon fill="white" stroke="black" points="1791.5,-73 1791.5,-92 1939.5,-92 1939.5,-73 1791.5,-73"/>
<text text-anchor="middle" x="1865.5" y="-80" font-family="Helvetica,sans-Serif" font-size="10.00">src/libs/vlayout/vposition.h</text>
</a>
</g>
</g>
<!-- Node20&#45;&gt;Node27 -->
<g id="edge36" class="edge">
<title>Node20&#45;&gt;Node27</title>
<path fill="none" stroke="midnightblue" d="M1986.95,-135.78C1957.05,-122.91 1911.62,-103.35 1885.63,-92.17"/>
<polygon fill="midnightblue" stroke="midnightblue" points="1985.88,-139.13 1996.45,-139.87 1988.65,-132.7 1985.88,-139.13"/>
</g>
<!-- Node29 -->
<g id="node29" class="node">
<title>Node29</title>
<g id="a_node29"><a xlink:href="../../dd/d70/vlayoutpiece_8cpp.html" target="_top" xlink:title=" ">
<polygon fill="white" stroke="black" points="1958,-73 1958,-92 2135,-92 2135,-73 1958,-73"/>
<text text-anchor="middle" x="2046.5" y="-80" font-family="Helvetica,sans-Serif" font-size="10.00">src/libs/vlayout/vlayoutpiece.cpp</text>
</a>
</g>
</g>
<!-- Node20&#45;&gt;Node29 -->
<g id="edge39" class="edge">
<title>Node20&#45;&gt;Node29</title>
<path fill="none" stroke="midnightblue" d="M2024.9,-130.29C2030.67,-117.81 2038.05,-101.81 2042.52,-92.13"/>
<polygon fill="midnightblue" stroke="midnightblue" points="2021.56,-129.19 2020.55,-139.73 2027.91,-132.12 2021.56,-129.19"/>
</g>
<!-- Node25&#45;&gt;Node26 -->
<g id="edge34" class="edge">
<title>Node25&#45;&gt;Node26</title>
<path fill="none" stroke="midnightblue" d="M1682.92,-62.54C1682.54,-50.17 1682.06,-34.62 1681.77,-25.13"/>
<polygon fill="midnightblue" stroke="midnightblue" points="1679.42,-62.85 1683.23,-72.73 1686.42,-62.63 1679.42,-62.85"/>
</g>
<!-- Node27&#45;&gt;Node26 -->
<g id="edge37" class="edge">
<title>Node27&#45;&gt;Node26</title>
<path fill="none" stroke="midnightblue" d="M1831.35,-69.44C1794.85,-56.54 1737.9,-36.42 1705.74,-25.06"/>
<polygon fill="midnightblue" stroke="midnightblue" points="1830.47,-72.84 1841.07,-72.87 1832.8,-66.24 1830.47,-72.84"/>
</g>
<!-- Node28 -->
<g id="node28" class="node">
<title>Node28</title>
<g id="a_node28"><a xlink:href="../../df/d76/vposition_8cpp.html" target="_top" xlink:title=" ">
<polygon fill="white" stroke="black" points="1788,-6 1788,-25 1947,-25 1947,-6 1788,-6"/>
<text text-anchor="middle" x="1867.5" y="-13" font-family="Helvetica,sans-Serif" font-size="10.00">src/libs/vlayout/vposition.cpp</text>
</a>
</g>
</g>
<!-- Node27&#45;&gt;Node28 -->
<g id="edge38" class="edge">
<title>Node27&#45;&gt;Node28</title>
<path fill="none" stroke="midnightblue" d="M1866.08,-62.54C1866.46,-50.17 1866.94,-34.62 1867.23,-25.13"/>
<polygon fill="midnightblue" stroke="midnightblue" points="1862.58,-62.63 1865.77,-72.73 1869.58,-62.85 1862.58,-62.63"/>
</g>
<!-- Node32 -->
<g id="node32" class="node">
<title>Node32</title>
<g id="a_node32"><a xlink:href="../../df/d40/export__format__combobox_8cpp.html" target="_top" xlink:title=" ">
<polygon fill="white" stroke="black" points="2877,-67.5 2877,-97.5 3010,-97.5 3010,-67.5 2877,-67.5"/>
<text text-anchor="start" x="2885" y="-85.5" font-family="Helvetica,sans-Serif" font-size="10.00">src/libs/vwidgets/export</text>
<text text-anchor="middle" x="2943.5" y="-74.5" font-family="Helvetica,sans-Serif" font-size="10.00">_format_combobox.cpp</text>
</a>
</g>
</g>
<!-- Node31&#45;&gt;Node32 -->
<g id="edge42" class="edge">
<title>Node31&#45;&gt;Node32</title>
<path fill="none" stroke="midnightblue" d="M2461.21,-133.85C2641.97,-109.17 2691.05,-122.89 2868.5,-98 2871.26,-97.61 2874.07,-97.19 2876.9,-96.75"/>
<polygon fill="midnightblue" stroke="midnightblue" points="2460.52,-130.41 2451.1,-135.25 2461.48,-137.35 2460.52,-130.41"/>
</g>
<!-- Node35 -->
<g id="node35" class="node">
<title>Node35</title>
<g id="a_node35"><a xlink:href="../../d2/d28/page__format__combobox_8cpp.html" target="_top" xlink:title=" ">
<polygon fill="white" stroke="black" points="3028,-67.5 3028,-97.5 3159,-97.5 3159,-67.5 3028,-67.5"/>
<text text-anchor="start" x="3036" y="-85.5" font-family="Helvetica,sans-Serif" font-size="10.00">src/libs/vwidgets/page</text>
<text text-anchor="middle" x="3093.5" y="-74.5" font-family="Helvetica,sans-Serif" font-size="10.00">_format_combobox.cpp</text>
</a>
</g>
</g>
<!-- Node34&#45;&gt;Node35 -->
<g id="edge45" class="edge">
<title>Node34&#45;&gt;Node35</title>
<path fill="none" stroke="midnightblue" d="M2940.82,-131.44C2974.37,-120.91 3016.91,-107.55 3048.56,-97.61"/>
<polygon fill="midnightblue" stroke="midnightblue" points="2939.65,-128.14 2931.16,-134.48 2941.75,-134.82 2939.65,-128.14"/>
</g>
<!-- Node38&#45;&gt;Node8 -->
<g id="edge51" class="edge">
<title>Node38&#45;&gt;Node8</title>
<path fill="none" stroke="midnightblue" d="M1322.57,-196.68C1328.23,-164.82 1334.13,-100.47 1298.5,-67 1254.89,-26.03 869.43,-18.17 686.75,-16.75"/>
<polygon fill="midnightblue" stroke="midnightblue" points="1319.07,-196.34 1320.57,-206.83 1325.94,-197.69 1319.07,-196.34"/>
</g>
<!-- Node39&#45;&gt;Node14 -->
<g id="edge53" class="edge">
<title>Node39&#45;&gt;Node14</title>
<path fill="none" stroke="midnightblue" d="M1071.15,-199.03C1048.16,-170.67 1001.9,-113.6 984.41,-92.02"/>
<polygon fill="midnightblue" stroke="midnightblue" points="1068.46,-201.27 1077.48,-206.84 1073.9,-196.87 1068.46,-201.27"/>
</g>
</g>
</svg>
        <g id="navigator" transform="translate(0 0)" fill="#404254">
                <rect fill="#f2f5e9" fill-opacity="0.5" stroke="#606060" stroke-width=".5" x="0" y="0" width="60" height="60"/>
                <use id="zoomplus" xlink:href="#zoomPlus" x="17" y="9" onmousedown="handleZoom(evt,'in')"/>
                <use id="zoomminus" xlink:href="#zoomMin" x="42" y="9" onmousedown="handleZoom(evt,'out')"/>
                <use id="reset" xlink:href="#resetDef" x="30" y="36" onmousedown="handleReset()"/>
                <g id="arrowUp" xlink:href="#dirArrow" transform="translate(30 24)" onmousedown="handlePan(0,-1)">
                  <use xlink:href="#rim" fill="#404040">
                        <set attributeName="fill" to="#808080" begin="arrowUp.mouseover" end="arrowUp.mouseout"/>
                  </use>
                  <path fill="none" stroke="white" stroke-width="1.5" d="M0,-3.0v7 M-2.5,-0.5L0,-3.0L2.5,-0.5"/>
                </g>
                <g id="arrowRight" xlink:href="#dirArrow" transform="rotate(90) translate(36 -43)" onmousedown="handlePan(1,0)">
                  <use xlink:href="#rim" fill="#404040">
                        <set attributeName="fill" to="#808080" begin="arrowRight.mouseover" end="arrowRight.mouseout"/>
                  </use>
                  <path fill="none" stroke="white" stroke-width="1.5" d="M0,-3.0v7 M-2.5,-0.5L0,-3.0L2.5,-0.5"/>
                </g>
                <g id="arrowDown" xlink:href="#dirArrow" transform="rotate(180) translate(-30 -48)" onmousedown="handlePan(0,1)">
                  <use xlink:href="#rim" fill="#404040">
                        <set attributeName="fill" to="#808080" begin="arrowDown.mouseover" end="arrowDown.mouseout"/>
                  </use>
                  <path fill="none" stroke="white" stroke-width="1.5" d="M0,-3.0v7 M-2.5,-0.5L0,-3.0L2.5,-0.5"/>
                </g>
                <g id="arrowLeft" xlink:href="#dirArrow" transform="rotate(270) translate(-36 17)" onmousedown="handlePan(-1,0)">
                  <use xlink:href="#rim" fill="#404040">
                        <set attributeName="fill" to="#808080" begin="arrowLeft.mouseover" end="arrowLeft.mouseout"/>
                  </use>
                  <path fill="none" stroke="white" stroke-width="1.5" d="M0,-3.0v7 M-2.5,-0.5L0,-3.0L2.5,-0.5"/>
                </g>
        </g>
        <svg viewBox="0 0 15 15" width="100%" height="30px" preserveAspectRatio="xMaxYMin meet">
         <g id="arrow_out" transform="scale(0.3 0.3)">
          <a xlink:href="vdomdocument_8h__dep__incl_org.svg" target="_base">
           <rect id="button" ry="5" rx="5" y="6" x="6" height="38" width="38"
                fill="#f2f5e9" fill-opacity="0.5" stroke="#606060" stroke-width="1.0"/>
           <path id="arrow"
             d="M 11.500037,31.436501 C 11.940474,20.09759 22.043105,11.32322 32.158766,21.979434 L 37.068811,17.246167 C 37.068811,17.246167 37.088388,32 37.088388,32 L 22.160133,31.978069 C 22.160133,31.978069 26.997745,27.140456 26.997745,27.140456 C 18.528582,18.264221 13.291696,25.230495 11.500037,31.436501 z"
             style="fill:#404040;"/>
          </a>
         </g>
        </svg>
</svg>
