<?xml version="1.0" encoding="UTF-8" standalone="no"?>
<!DOCTYPE svg PUBLIC "-//W3C//DTD SVG 1.1//EN"
 "http://www.w3.org/Graphics/SVG/1.1/DTD/svg11.dtd">
<!-- Generated by graphviz version 2.43.0 (0)
 -->
<!-- Title: src/libs/ifc/xml/vdomdocument.h Pages: 1 -->
<svg width="3052pt" height="291pt"
 viewBox="0.00 0.00 3052.00 291.00" xmlns="http://www.w3.org/2000/svg" xmlns:xlink="http://www.w3.org/1999/xlink">
<g id="graph0" class="graph" transform="scale(1 1) rotate(0) translate(4 287)">
<title>src/libs/ifc/xml/vdomdocument.h</title>
<!-- Node1 -->
<g id="Node000001" class="node">
<title>Node1</title>
<g id="a_Node000001"><a xlink:title=" ">
<polygon fill="#999999" stroke="#666666" points="1300.5,-283 1124.5,-283 1124.5,-264 1300.5,-264 1300.5,-283"/>
<text text-anchor="middle" x="1212.5" y="-271" font-family="Helvetica,sans-Serif" font-size="10.00">src/libs/ifc/xml/vdomdocument.h</text>
</a>
</g>
</g>
<!-- Node2 -->
<g id="Node000002" class="node">
<title>Node2</title>
<g id="a_Node000002"><a xlink:href="../../d0/d08/abstract__converter_8cpp.html" target="_top" xlink:title=" ">
<polygon fill="white" stroke="#666666" points="257,-162 126,-162 126,-132 257,-132 257,-162"/>
<text text-anchor="start" x="134" y="-150" font-family="Helvetica,sans-Serif" font-size="10.00">src/libs/ifc/xml/abstract</text>
<text text-anchor="middle" x="191.5" y="-139" font-family="Helvetica,sans-Serif" font-size="10.00">_converter.cpp</text>
</a>
</g>
</g>
<!-- Node1&#45;&gt;Node2 -->
<g id="edge1_Node000001_Node000002" class="edge">
<title>Node1&#45;&gt;Node2</title>
<g id="a_edge1_Node000001_Node000002"><a xlink:title=" ">
<path fill="none" stroke="#63b8ff" d="M1114.25,-267.28C1002.76,-260.75 815.6,-247.94 655.5,-228 481.48,-206.33 439.14,-192.76 266.5,-162 263.5,-161.47 260.43,-160.91 257.34,-160.35"/>
<polygon fill="#63b8ff" stroke="#63b8ff" points="1114.28,-270.79 1124.47,-267.88 1114.69,-263.8 1114.28,-270.79"/>
</a>
</g>
</g>
<!-- Node3 -->
<g id="Node000003" class="node">
<title>Node3</title>
<g id="a_Node000003"><a xlink:href="../../d0/da1/abstract__converter_8h.html" target="_top" xlink:title=" ">
<polygon fill="white" stroke="#666666" points="796,-228 665,-228 665,-198 796,-198 796,-228"/>
<text text-anchor="start" x="673" y="-216" font-family="Helvetica,sans-Serif" font-size="10.00">src/libs/ifc/xml/abstract</text>
<text text-anchor="middle" x="730.5" y="-205" font-family="Helvetica,sans-Serif" font-size="10.00">_converter.h</text>
</a>
</g>
</g>
<!-- Node1&#45;&gt;Node3 -->
<g id="edge2_Node000001_Node000003" class="edge">
<title>Node1&#45;&gt;Node3</title>
<g id="a_edge2_Node000001_Node000003"><a xlink:title=" ">
<path fill="none" stroke="#63b8ff" d="M1132.36,-262.77C1038.1,-251.33 883.44,-232.56 796.03,-221.95"/>
<polygon fill="#63b8ff" stroke="#63b8ff" points="1132.06,-266.26 1142.41,-263.99 1132.91,-259.31 1132.06,-266.26"/>
</a>
</g>
</g>
<!-- Node17 -->
<g id="Node000017" class="node">
<title>Node17</title>
<g id="a_Node000017"><a xlink:href="../../de/d7d/vabstractpattern_8cpp.html" target="_top" xlink:title=" ">
<polygon fill="white" stroke="#666666" points="1421.5,-90.5 1229.5,-90.5 1229.5,-71.5 1421.5,-71.5 1421.5,-90.5"/>
<text text-anchor="middle" x="1325.5" y="-78.5" font-family="Helvetica,sans-Serif" font-size="10.00">src/libs/ifc/xml/vabstractpattern.cpp</text>
</a>
</g>
</g>
<!-- Node1&#45;&gt;Node17 -->
<g id="edge25_Node000001_Node000017" class="edge">
<title>Node1&#45;&gt;Node17</title>
<g id="a_edge25_Node000001_Node000017"><a xlink:title=" ">
<path fill="none" stroke="#63b8ff" d="M1228.93,-256.44C1236.5,-248.4 1245.19,-238.23 1251.5,-228 1275.68,-188.81 1268.49,-172.45 1290.5,-132 1298.81,-116.74 1310.83,-100.51 1318.41,-90.82"/>
<polygon fill="#63b8ff" stroke="#63b8ff" points="1226.34,-254.08 1221.85,-263.68 1231.34,-258.97 1226.34,-254.08"/>
</a>
</g>
</g>
<!-- Node18 -->
<g id="Node000018" class="node">
<title>Node18</title>
<g id="a_Node000018"><a xlink:href="../../d0/d89/vabstractpattern_8h.html" target="_top" xlink:title=" ">
<polygon fill="white" stroke="#666666" points="1739,-222.5 1558,-222.5 1558,-203.5 1739,-203.5 1739,-222.5"/>
<text text-anchor="middle" x="1648.5" y="-210.5" font-family="Helvetica,sans-Serif" font-size="10.00">src/libs/ifc/xml/vabstractpattern.h</text>
</a>
</g>
</g>
<!-- Node1&#45;&gt;Node18 -->
<g id="edge26_Node000001_Node000018" class="edge">
<title>Node1&#45;&gt;Node18</title>
<g id="a_edge26_Node000001_Node000018"><a xlink:title=" ">
<path fill="none" stroke="#63b8ff" d="M1285.86,-262.66C1369.7,-251.41 1505.56,-233.18 1585.03,-222.52"/>
<polygon fill="#63b8ff" stroke="#63b8ff" points="1285.34,-259.19 1275.9,-263.99 1286.27,-266.13 1285.34,-259.19"/>
</a>
</g>
</g>
<!-- Node19 -->
<g id="Node000019" class="node">
<title>Node19</title>
<g id="a_Node000019"><a xlink:href="../../d2/d47/image__dialog_8cpp.html" target="_top" xlink:title=" ">
<polygon fill="white" stroke="#666666" points="1411.5,-162 1299.5,-162 1299.5,-132 1411.5,-132 1411.5,-162"/>
<text text-anchor="start" x="1307.5" y="-150" font-family="Helvetica,sans-Serif" font-size="10.00">src/libs/tools/image</text>
<text text-anchor="middle" x="1355.5" y="-139" font-family="Helvetica,sans-Serif" font-size="10.00">_dialog.cpp</text>
</a>
</g>
</g>
<!-- Node1&#45;&gt;Node19 -->
<g id="edge49_Node000001_Node000019" class="edge">
<title>Node1&#45;&gt;Node19</title>
<g id="a_edge49_Node000001_Node000019"><a xlink:title=" ">
<path fill="none" stroke="#63b8ff" d="M1238.67,-259.11C1253.19,-251.07 1271.16,-240.08 1285.5,-228 1309.5,-207.8 1332.49,-179.15 1345.23,-162.18"/>
<polygon fill="#63b8ff" stroke="#63b8ff" points="1236.84,-256.12 1229.7,-263.95 1240.17,-262.28 1236.84,-256.12"/>
</a>
</g>
</g>
<!-- Node37 -->
<g id="Node000037" class="node">
<title>Node37</title>
<g id="a_Node000037"><a xlink:href="../../d7/d49/vdomdocument_8cpp.html" target="_top" xlink:title=" ">
<polygon fill="white" stroke="#666666" points="1945.5,-222.5 1757.5,-222.5 1757.5,-203.5 1945.5,-203.5 1945.5,-222.5"/>
<text text-anchor="middle" x="1851.5" y="-210.5" font-family="Helvetica,sans-Serif" font-size="10.00">src/libs/ifc/xml/vdomdocument.cpp</text>
</a>
</g>
</g>
<!-- Node1&#45;&gt;Node37 -->
<g id="edge48_Node000001_Node000037" class="edge">
<title>Node1&#45;&gt;Node37</title>
<g id="a_edge48_Node000001_Node000037"><a xlink:title=" ">
<path fill="none" stroke="#63b8ff" d="M1310.85,-265.82C1418.28,-258.18 1595.36,-244.56 1747.5,-228 1761.99,-226.42 1777.58,-224.46 1792.17,-222.52"/>
<polygon fill="#63b8ff" stroke="#63b8ff" points="1310.4,-262.35 1300.67,-266.55 1310.9,-269.33 1310.4,-262.35"/>
</a>
</g>
</g>
<!-- Node38 -->
<g id="Node000038" class="node">
<title>Node38</title>
<g id="a_Node000038"><a xlink:href="../../dc/db7/measurements_8h.html" target="_top" xlink:title=" ">
<polygon fill="white" stroke="#666666" points="1243,-222.5 1064,-222.5 1064,-203.5 1243,-203.5 1243,-222.5"/>
<text text-anchor="middle" x="1153.5" y="-210.5" font-family="Helvetica,sans-Serif" font-size="10.00">src/libs/vformat/measurements.h</text>
</a>
</g>
</g>
<!-- Node1&#45;&gt;Node38 -->
<g id="edge50_Node000001_Node000038" class="edge">
<title>Node1&#45;&gt;Node38</title>
<g id="a_edge50_Node000001_Node000038"><a xlink:title=" ">
<path fill="none" stroke="#63b8ff" d="M1196.45,-256.59C1185.44,-245.67 1171.23,-231.58 1162.24,-222.67"/>
<polygon fill="#63b8ff" stroke="#63b8ff" points="1194.23,-259.31 1203.79,-263.87 1199.16,-254.34 1194.23,-259.31"/>
</a>
</g>
</g>
<!-- Node39 -->
<g id="Node000039" class="node">
<title>Node39</title>
<g id="a_Node000039"><a xlink:href="../../d2/d8a/vlabeltemplate_8h.html" target="_top" xlink:title=" ">
<polygon fill="white" stroke="#666666" points="278,-222.5 99,-222.5 99,-203.5 278,-203.5 278,-222.5"/>
<text text-anchor="middle" x="188.5" y="-210.5" font-family="Helvetica,sans-Serif" font-size="10.00">src/libs/vformat/vlabeltemplate.h</text>
</a>
</g>
</g>
<!-- Node1&#45;&gt;Node39 -->
<g id="edge52_Node000001_Node000039" class="edge">
<title>Node1&#45;&gt;Node39</title>
<g id="a_edge52_Node000001_Node000039"><a xlink:title=" ">
<path fill="none" stroke="#63b8ff" d="M1114.18,-266.88C915.64,-255.54 469.53,-230.05 278.3,-219.13"/>
<polygon fill="#63b8ff" stroke="#63b8ff" points="1114.12,-270.39 1124.31,-267.46 1114.52,-263.4 1114.12,-270.39"/>
</a>
</g>
</g>
<!-- Node3&#45;&gt;Node2 -->
<g id="edge4_Node000003_Node000002" class="edge">
<title>Node3&#45;&gt;Node2</title>
<g id="a_edge4_Node000003_Node000002"><a xlink:title=" ">
<path fill="none" stroke="#63b8ff" d="M654.93,-205.66C562.9,-197.53 402.87,-182.05 266.5,-162 263.49,-161.56 260.41,-161.08 257.3,-160.58"/>
<polygon fill="#63b8ff" stroke="#63b8ff" points="654.71,-209.16 664.98,-206.55 655.33,-202.18 654.71,-209.16"/>
</a>
</g>
</g>
<!-- Node4 -->
<g id="Node000004" class="node">
<title>Node4</title>
<g id="a_Node000004"><a xlink:href="../../d4/d90/fvupdater_8cpp.html" target="_top" xlink:title=" ">
<polygon fill="white" stroke="#666666" points="969,-156.5 816,-156.5 816,-137.5 969,-137.5 969,-156.5"/>
<text text-anchor="middle" x="892.5" y="-144.5" font-family="Helvetica,sans-Serif" font-size="10.00">src/libs/fervor/fvupdater.cpp</text>
</a>
</g>
</g>
<!-- Node3&#45;&gt;Node4 -->
<g id="edge3_Node000003_Node000004" class="edge">
<title>Node3&#45;&gt;Node4</title>
<g id="a_edge3_Node000003_Node000004"><a xlink:title=" ">
<path fill="none" stroke="#63b8ff" d="M775.41,-194.26C806.56,-181.95 846.67,-166.11 870.94,-156.52"/>
<polygon fill="#63b8ff" stroke="#63b8ff" points="774.07,-191.03 766.05,-197.95 776.64,-197.54 774.07,-191.03"/>
</a>
</g>
</g>
<!-- Node5 -->
<g id="Node000005" class="node">
<title>Node5</title>
<g id="a_Node000005"><a xlink:href="../../de/dec/abstract__m__converter_8cpp.html" target="_top" xlink:title=" ">
<polygon fill="white" stroke="#666666" points="589,-96 458,-96 458,-66 589,-66 589,-96"/>
<text text-anchor="start" x="466" y="-84" font-family="Helvetica,sans-Serif" font-size="10.00">src/libs/ifc/xml/abstract</text>
<text text-anchor="middle" x="523.5" y="-73" font-family="Helvetica,sans-Serif" font-size="10.00">_m_converter.cpp</text>
</a>
</g>
</g>
<!-- Node3&#45;&gt;Node5 -->
<g id="edge5_Node000003_Node000005" class="edge">
<title>Node3&#45;&gt;Node5</title>
<g id="a_edge5_Node000003_Node000005"><a xlink:title=" ">
<path fill="none" stroke="#63b8ff" d="M654.47,-209.64C616.02,-204.47 571.48,-191.77 542.5,-162 525.27,-144.31 522.65,-113.99 522.76,-96.2"/>
<polygon fill="#63b8ff" stroke="#63b8ff" points="654.27,-213.14 664.61,-210.85 655.1,-206.19 654.27,-213.14"/>
</a>
</g>
</g>
<!-- Node6 -->
<g id="Node000006" class="node">
<title>Node6</title>
<g id="a_Node000006"><a xlink:href="../../da/d2c/abstract__m__converter_8h.html" target="_top" xlink:title=" ">
<polygon fill="white" stroke="#666666" points="683,-162 552,-162 552,-132 683,-132 683,-162"/>
<text text-anchor="start" x="560" y="-150" font-family="Helvetica,sans-Serif" font-size="10.00">src/libs/ifc/xml/abstract</text>
<text text-anchor="middle" x="617.5" y="-139" font-family="Helvetica,sans-Serif" font-size="10.00">_m_converter.h</text>
</a>
</g>
</g>
<!-- Node3&#45;&gt;Node6 -->
<g id="edge6_Node000003_Node000006" class="edge">
<title>Node3&#45;&gt;Node6</title>
<g id="a_edge6_Node000003_Node000006"><a xlink:title=" ">
<path fill="none" stroke="#63b8ff" d="M696.9,-192.97C679.36,-183.03 658.27,-171.09 642.24,-162.01"/>
<polygon fill="#63b8ff" stroke="#63b8ff" points="695.28,-196.07 705.7,-197.95 698.73,-189.98 695.28,-196.07"/>
</a>
</g>
</g>
<!-- Node8 -->
<g id="Node000008" class="node">
<title>Node8</title>
<g id="a_Node000008"><a xlink:href="../../d0/d93/individual__size__converter_8h.html" target="_top" xlink:title=" ">
<polygon fill="white" stroke="#666666" points="823,-96 684,-96 684,-66 823,-66 823,-96"/>
<text text-anchor="start" x="692" y="-84" font-family="Helvetica,sans-Serif" font-size="10.00">src/libs/ifc/xml/individual</text>
<text text-anchor="middle" x="753.5" y="-73" font-family="Helvetica,sans-Serif" font-size="10.00">_size_converter.h</text>
</a>
</g>
</g>
<!-- Node3&#45;&gt;Node8 -->
<g id="edge16_Node000003_Node000008" class="edge">
<title>Node3&#45;&gt;Node8</title>
<g id="a_edge16_Node000003_Node000008"><a xlink:title=" ">
<path fill="none" stroke="#63b8ff" d="M730.24,-187.85C730.5,-171.85 731.67,-150.49 735.5,-132 738.08,-119.53 743.11,-105.98 747.2,-96.13"/>
<polygon fill="#63b8ff" stroke="#63b8ff" points="726.74,-187.95 730.19,-197.97 733.74,-187.99 726.74,-187.95"/>
</a>
</g>
</g>
<!-- Node11 -->
<g id="Node000011" class="node">
<title>Node11</title>
<g id="a_Node000011"><a xlink:href="../../d5/d4c/multi__size__converter_8h.html" target="_top" xlink:title=" ">
<polygon fill="white" stroke="#666666" points="957.5,-96 841.5,-96 841.5,-66 957.5,-66 957.5,-96"/>
<text text-anchor="start" x="849.5" y="-84" font-family="Helvetica,sans-Serif" font-size="10.00">src/libs/ifc/xml/multi</text>
<text text-anchor="middle" x="899.5" y="-73" font-family="Helvetica,sans-Serif" font-size="10.00">_size_converter.h</text>
</a>
</g>
</g>
<!-- Node3&#45;&gt;Node11 -->
<g id="edge17_Node000003_Node000011" class="edge">
<title>Node3&#45;&gt;Node11</title>
<g id="a_edge17_Node000003_Node000011"><a xlink:title=" ">
<path fill="none" stroke="#63b8ff" d="M738.17,-188.36C744.96,-170.73 756.47,-147.17 773.5,-132 792.57,-115.02 818.11,-103.45 841.2,-95.75"/>
<polygon fill="#63b8ff" stroke="#63b8ff" points="734.81,-187.35 734.71,-197.95 741.39,-189.73 734.81,-187.35"/>
</a>
</g>
</g>
<!-- Node12 -->
<g id="Node000012" class="node">
<title>Node12</title>
<g id="a_Node000012"><a xlink:href="../../d5/d35/vlabeltemplateconverter_8h.html" target="_top" xlink:title=" ">
<polygon fill="white" stroke="#666666" points="495.5,-156.5 275.5,-156.5 275.5,-137.5 495.5,-137.5 495.5,-156.5"/>
<text text-anchor="middle" x="385.5" y="-144.5" font-family="Helvetica,sans-Serif" font-size="10.00">src/libs/ifc/xml/vlabeltemplateconverter.h</text>
</a>
</g>
</g>
<!-- Node3&#45;&gt;Node12 -->
<g id="edge18_Node000003_Node000012" class="edge">
<title>Node3&#45;&gt;Node12</title>
<g id="a_edge18_Node000003_Node000012"><a xlink:title=" ">
<path fill="none" stroke="#63b8ff" d="M654.95,-197.99C586.71,-185.33 488.47,-167.1 431.39,-156.51"/>
<polygon fill="#63b8ff" stroke="#63b8ff" points="654.33,-201.43 664.8,-199.81 655.6,-194.55 654.33,-201.43"/>
</a>
</g>
</g>
<!-- Node15 -->
<g id="Node000015" class="node">
<title>Node15</title>
<g id="a_Node000015"><a xlink:href="../../d5/d2c/vpatternconverter_8cpp.html" target="_top" xlink:title=" ">
<polygon fill="white" stroke="#666666" points="1173.5,-90.5 975.5,-90.5 975.5,-71.5 1173.5,-71.5 1173.5,-90.5"/>
<text text-anchor="middle" x="1074.5" y="-78.5" font-family="Helvetica,sans-Serif" font-size="10.00">src/libs/ifc/xml/vpatternconverter.cpp</text>
</a>
</g>
</g>
<!-- Node3&#45;&gt;Node15 -->
<g id="edge21_Node000003_Node000015" class="edge">
<title>Node3&#45;&gt;Node15</title>
<g id="a_edge21_Node000003_Node000015"><a xlink:title=" ">
<path fill="none" stroke="#63b8ff" d="M749.94,-190.2C770.08,-167.82 799.57,-135.77 806.5,-132 824.88,-122.01 945.63,-101.98 1018.63,-90.54"/>
<polygon fill="#63b8ff" stroke="#63b8ff" points="747.07,-188.15 743,-197.93 752.28,-192.82 747.07,-188.15"/>
</a>
</g>
</g>
<!-- Node16 -->
<g id="Node000016" class="node">
<title>Node16</title>
<g id="a_Node000016"><a xlink:href="../../df/d2f/vpatternconverter_8h.html" target="_top" xlink:title=" ">
<polygon fill="white" stroke="#666666" points="1174,-156.5 987,-156.5 987,-137.5 1174,-137.5 1174,-156.5"/>
<text text-anchor="middle" x="1080.5" y="-144.5" font-family="Helvetica,sans-Serif" font-size="10.00">src/libs/ifc/xml/vpatternconverter.h</text>
</a>
</g>
</g>
<!-- Node3&#45;&gt;Node16 -->
<g id="edge22_Node000003_Node000016" class="edge">
<title>Node3&#45;&gt;Node16</title>
<g id="a_edge22_Node000003_Node000016"><a xlink:title=" ">
<path fill="none" stroke="#63b8ff" d="M806.32,-198.14C875.6,-185.47 975.84,-167.14 1033.97,-156.51"/>
<polygon fill="#63b8ff" stroke="#63b8ff" points="805.54,-194.72 796.33,-199.96 806.8,-201.61 805.54,-194.72"/>
</a>
</g>
</g>
<!-- Node6&#45;&gt;Node5 -->
<g id="edge7_Node000006_Node000005" class="edge">
<title>Node6&#45;&gt;Node5</title>
<g id="a_edge7_Node000006_Node000005"><a xlink:title=" ">
<path fill="none" stroke="#63b8ff" d="M588.17,-126.03C573.94,-116.34 557.19,-104.94 544.3,-96.16"/>
<polygon fill="#63b8ff" stroke="#63b8ff" points="586.4,-129.06 596.64,-131.8 590.34,-123.28 586.4,-129.06"/>
</a>
</g>
</g>
<!-- Node7 -->
<g id="Node000007" class="node">
<title>Node7</title>
<g id="a_Node000007"><a xlink:href="../../d5/d6e/individual__size__converter_8cpp.html" target="_top" xlink:title=" ">
<polygon fill="white" stroke="#666666" points="687,-30 548,-30 548,0 687,0 687,-30"/>
<text text-anchor="start" x="556" y="-18" font-family="Helvetica,sans-Serif" font-size="10.00">src/libs/ifc/xml/individual</text>
<text text-anchor="middle" x="617.5" y="-7" font-family="Helvetica,sans-Serif" font-size="10.00">_size_converter.cpp</text>
</a>
</g>
</g>
<!-- Node6&#45;&gt;Node7 -->
<g id="edge8_Node000006_Node000007" class="edge">
<title>Node6&#45;&gt;Node7</title>
<g id="a_edge8_Node000006_Node000007"><a xlink:title=" ">
<path fill="none" stroke="#63b8ff" d="M617.5,-121.68C617.5,-94.7 617.5,-52.11 617.5,-30.14"/>
<polygon fill="#63b8ff" stroke="#63b8ff" points="614,-121.84 617.5,-131.84 621,-121.84 614,-121.84"/>
</a>
</g>
</g>
<!-- Node6&#45;&gt;Node8 -->
<g id="edge9_Node000006_Node000008" class="edge">
<title>Node6&#45;&gt;Node8</title>
<g id="a_edge9_Node000006_Node000008"><a xlink:title=" ">
<path fill="none" stroke="#63b8ff" d="M656.5,-127.65C677.89,-117.58 703.99,-105.3 723.72,-96.01"/>
<polygon fill="#63b8ff" stroke="#63b8ff" points="654.9,-124.53 647.35,-131.95 657.88,-130.86 654.9,-124.53"/>
</a>
</g>
</g>
<!-- Node10 -->
<g id="Node000010" class="node">
<title>Node10</title>
<g id="a_Node000010"><a xlink:href="../../d9/d94/multi__size__converter_8cpp.html" target="_top" xlink:title=" ">
<polygon fill="white" stroke="#666666" points="821.5,-30 705.5,-30 705.5,0 821.5,0 821.5,-30"/>
<text text-anchor="start" x="713.5" y="-18" font-family="Helvetica,sans-Serif" font-size="10.00">src/libs/ifc/xml/multi</text>
<text text-anchor="middle" x="763.5" y="-7" font-family="Helvetica,sans-Serif" font-size="10.00">_size_converter.cpp</text>
</a>
</g>
</g>
<!-- Node6&#45;&gt;Node10 -->
<g id="edge12_Node000006_Node000010" class="edge">
<title>Node6&#45;&gt;Node10</title>
<g id="a_edge12_Node000006_Node000010"><a xlink:title=" ">
<path fill="none" stroke="#63b8ff" d="M630.13,-122.98C640.42,-105.76 656.19,-82.44 674.5,-66 691.11,-51.08 712.93,-38.73 730.81,-30.04"/>
<polygon fill="#63b8ff" stroke="#63b8ff" points="626.99,-121.43 625,-131.84 633.04,-124.94 626.99,-121.43"/>
</a>
</g>
</g>
<!-- Node6&#45;&gt;Node11 -->
<g id="edge13_Node000006_Node000011" class="edge">
<title>Node6&#45;&gt;Node11</title>
<g id="a_edge13_Node000006_Node000011"><a xlink:title=" ">
<path fill="none" stroke="#63b8ff" d="M689.21,-129.73C736.27,-119.05 797.03,-105.26 841.13,-95.25"/>
<polygon fill="#63b8ff" stroke="#63b8ff" points="688.36,-126.33 679.39,-131.95 689.91,-133.15 688.36,-126.33"/>
</a>
</g>
</g>
<!-- Node8&#45;&gt;Node7 -->
<g id="edge10_Node000008_Node000007" class="edge">
<title>Node8&#45;&gt;Node7</title>
<g id="a_edge10_Node000008_Node000007"><a xlink:title=" ">
<path fill="none" stroke="#63b8ff" d="M714.5,-61.65C693.11,-51.58 667.01,-39.3 647.28,-30.01"/>
<polygon fill="#63b8ff" stroke="#63b8ff" points="713.12,-64.86 723.65,-65.95 716.1,-58.53 713.12,-64.86"/>
</a>
</g>
</g>
<!-- Node9 -->
<g id="Node000009" class="node">
<title>Node9</title>
<g id="a_Node000009"><a xlink:href="../../d9/de3/measurements_8cpp.html" target="_top" xlink:title=" ">
<polygon fill="white" stroke="#666666" points="1029.5,-24.5 839.5,-24.5 839.5,-5.5 1029.5,-5.5 1029.5,-24.5"/>
<text text-anchor="middle" x="934.5" y="-12.5" font-family="Helvetica,sans-Serif" font-size="10.00">src/libs/vformat/measurements.cpp</text>
</a>
</g>
</g>
<!-- Node8&#45;&gt;Node9 -->
<g id="edge11_Node000008_Node000009" class="edge">
<title>Node8&#45;&gt;Node9</title>
<g id="a_edge11_Node000008_Node000009"><a xlink:title=" ">
<path fill="none" stroke="#63b8ff" d="M802.77,-62.58C837.71,-50.23 883.06,-34.19 910.41,-24.52"/>
<polygon fill="#63b8ff" stroke="#63b8ff" points="801.48,-59.32 793.22,-65.95 803.82,-65.92 801.48,-59.32"/>
</a>
</g>
</g>
<!-- Node11&#45;&gt;Node9 -->
<g id="edge15_Node000011_Node000009" class="edge">
<title>Node11&#45;&gt;Node9</title>
<g id="a_edge15_Node000011_Node000009"><a xlink:title=" ">
<path fill="none" stroke="#63b8ff" d="M912.11,-56.95C918.2,-45.81 925.14,-33.11 929.66,-24.84"/>
<polygon fill="#63b8ff" stroke="#63b8ff" points="909,-55.34 907.27,-65.8 915.14,-58.7 909,-55.34"/>
</a>
</g>
</g>
<!-- Node11&#45;&gt;Node10 -->
<g id="edge14_Node000011_Node000010" class="edge">
<title>Node11&#45;&gt;Node10</title>
<g id="a_edge14_Node000011_Node000010"><a xlink:title=" ">
<path fill="none" stroke="#63b8ff" d="M860.5,-61.65C839.11,-51.58 813.01,-39.3 793.28,-30.01"/>
<polygon fill="#63b8ff" stroke="#63b8ff" points="859.12,-64.86 869.65,-65.95 862.1,-58.53 859.12,-64.86"/>
</a>
</g>
</g>
<!-- Node13 -->
<g id="Node000013" class="node">
<title>Node13</title>
<g id="a_Node000013"><a xlink:href="../../d7/d63/vlabeltemplateconverter_8cpp.html" target="_top" xlink:title=" ">
<polygon fill="white" stroke="#666666" points="440,-90.5 209,-90.5 209,-71.5 440,-71.5 440,-90.5"/>
<text text-anchor="middle" x="324.5" y="-78.5" font-family="Helvetica,sans-Serif" font-size="10.00">src/libs/ifc/xml/vlabeltemplateconverter.cpp</text>
</a>
</g>
</g>
<!-- Node12&#45;&gt;Node13 -->
<g id="edge19_Node000012_Node000013" class="edge">
<title>Node12&#45;&gt;Node13</title>
<g id="a_edge19_Node000012_Node000013"><a xlink:title=" ">
<path fill="none" stroke="#63b8ff" d="M370.23,-129.98C358.45,-117.62 342.6,-100.99 332.99,-90.91"/>
<polygon fill="#63b8ff" stroke="#63b8ff" points="367.84,-132.54 377.27,-137.37 372.91,-127.72 367.84,-132.54"/>
</a>
</g>
</g>
<!-- Node14 -->
<g id="Node000014" class="node">
<title>Node14</title>
<g id="a_Node000014"><a xlink:href="../../d9/daf/vlabeltemplate_8cpp.html" target="_top" xlink:title=" ">
<polygon fill="white" stroke="#666666" points="191,-90.5 0,-90.5 0,-71.5 191,-71.5 191,-90.5"/>
<text text-anchor="middle" x="95.5" y="-78.5" font-family="Helvetica,sans-Serif" font-size="10.00">src/libs/vformat/vlabeltemplate.cpp</text>
</a>
</g>
</g>
<!-- Node12&#45;&gt;Node14 -->
<g id="edge20_Node000012_Node000014" class="edge">
<title>Node12&#45;&gt;Node14</title>
<g id="a_edge20_Node000012_Node000014"><a xlink:title=" ">
<path fill="none" stroke="#63b8ff" d="M336.82,-135.26C279.76,-122.67 186.38,-102.06 134.08,-90.51"/>
<polygon fill="#63b8ff" stroke="#63b8ff" points="336.17,-138.7 346.69,-137.44 337.68,-131.86 336.17,-138.7"/>
</a>
</g>
</g>
<!-- Node16&#45;&gt;Node15 -->
<g id="edge24_Node000016_Node000015" class="edge">
<title>Node16&#45;&gt;Node15</title>
<g id="a_edge24_Node000016_Node000015"><a xlink:title=" ">
<path fill="none" stroke="#63b8ff" d="M1078.73,-127.08C1077.61,-115.13 1076.21,-100.22 1075.33,-90.91"/>
<polygon fill="#63b8ff" stroke="#63b8ff" points="1075.27,-127.74 1079.69,-137.37 1082.24,-127.09 1075.27,-127.74"/>
</a>
</g>
</g>
<!-- Node16&#45;&gt;Node17 -->
<g id="edge23_Node000016_Node000017" class="edge">
<title>Node16&#45;&gt;Node17</title>
<g id="a_edge23_Node000016_Node000017"><a xlink:title=" ">
<path fill="none" stroke="#63b8ff" d="M1123.13,-134.86C1171.46,-122.24 1249.18,-101.94 1292.91,-90.51"/>
<polygon fill="#63b8ff" stroke="#63b8ff" points="1122.08,-131.52 1113.29,-137.44 1123.85,-138.29 1122.08,-131.52"/>
</a>
</g>
</g>
<!-- Node18&#45;&gt;Node17 -->
<g id="edge27_Node000018_Node000017" class="edge">
<title>Node18&#45;&gt;Node17</title>
<g id="a_edge27_Node000018_Node000017"><a xlink:title=" ">
<path fill="none" stroke="#63b8ff" d="M1634.1,-195.74C1615.25,-174.82 1582.81,-140.19 1567.5,-132 1536.72,-115.52 1447.27,-99.79 1386.18,-90.51"/>
<polygon fill="#63b8ff" stroke="#63b8ff" points="1631.55,-198.13 1640.82,-203.25 1636.76,-193.46 1631.55,-198.13"/>
</a>
</g>
</g>
<!-- Node18&#45;&gt;Node19 -->
<g id="edge28_Node000018_Node000019" class="edge">
<title>Node18&#45;&gt;Node19</title>
<g id="a_edge28_Node000018_Node000019"><a xlink:title=" ">
<path fill="none" stroke="#63b8ff" d="M1599.33,-201.26C1547.45,-189.93 1465.84,-172.1 1411.52,-160.24"/>
<polygon fill="#63b8ff" stroke="#63b8ff" points="1598.77,-204.72 1609.29,-203.44 1600.27,-197.88 1598.77,-204.72"/>
</a>
</g>
</g>
<!-- Node20 -->
<g id="Node000020" class="node">
<title>Node20</title>
<g id="a_Node000020"><a xlink:href="../../d6/de0/vlayoutpiece_8h.html" target="_top" xlink:title=" ">
<polygon fill="white" stroke="#666666" points="2147.5,-156.5 1981.5,-156.5 1981.5,-137.5 2147.5,-137.5 2147.5,-156.5"/>
<text text-anchor="middle" x="2064.5" y="-144.5" font-family="Helvetica,sans-Serif" font-size="10.00">src/libs/vlayout/vlayoutpiece.h</text>
</a>
</g>
</g>
<!-- Node18&#45;&gt;Node20 -->
<g id="edge29_Node000018_Node000020" class="edge">
<title>Node18&#45;&gt;Node20</title>
<g id="a_edge29_Node000018_Node000020"><a xlink:title=" ">
<path fill="none" stroke="#63b8ff" d="M1714.3,-201.88C1795.72,-189.35 1932.9,-168.25 2009.16,-156.51"/>
<polygon fill="#63b8ff" stroke="#63b8ff" points="1713.52,-198.46 1704.17,-203.44 1714.59,-205.37 1713.52,-198.46"/>
</a>
</g>
</g>
<!-- Node30 -->
<g id="Node000030" class="node">
<title>Node30</title>
<g id="a_Node000030"><a xlink:href="../../d8/d70/vtextmanager_8cpp.html" target="_top" xlink:title=" ">
<polygon fill="white" stroke="#666666" points="2347.5,-156.5 2165.5,-156.5 2165.5,-137.5 2347.5,-137.5 2347.5,-156.5"/>
<text text-anchor="middle" x="2256.5" y="-144.5" font-family="Helvetica,sans-Serif" font-size="10.00">src/libs/vlayout/vtextmanager.cpp</text>
</a>
</g>
</g>
<!-- Node18&#45;&gt;Node30 -->
<g id="edge41_Node000018_Node000030" class="edge">
<title>Node18&#45;&gt;Node30</title>
<g id="a_edge41_Node000018_Node000030"><a xlink:title=" ">
<path fill="none" stroke="#63b8ff" d="M1715.75,-202.11C1726.69,-200.63 1737.9,-199.21 1748.5,-198 1929.37,-177.37 1975.63,-182.63 2156.5,-162 2170.35,-160.42 2185.24,-158.47 2199.19,-156.54"/>
<polygon fill="#63b8ff" stroke="#63b8ff" points="1715.25,-198.64 1705.81,-203.46 1716.19,-205.58 1715.25,-198.64"/>
</a>
</g>
</g>
<!-- Node31 -->
<g id="Node000031" class="node">
<title>Node31</title>
<g id="a_Node000031"><a xlink:href="../../d0/da5/export__format__combobox_8h.html" target="_top" xlink:title=" ">
<polygon fill="white" stroke="#666666" points="2771,-162 2638,-162 2638,-132 2771,-132 2771,-162"/>
<text text-anchor="start" x="2646" y="-150" font-family="Helvetica,sans-Serif" font-size="10.00">src/libs/vwidgets/export</text>
<text text-anchor="middle" x="2704.5" y="-139" font-family="Helvetica,sans-Serif" font-size="10.00">_format_combobox.h</text>
</a>
</g>
</g>
<!-- Node18&#45;&gt;Node31 -->
<g id="edge42_Node000018_Node000031" class="edge">
<title>Node18&#45;&gt;Node31</title>
<g id="a_edge42_Node000018_Node000031"><a xlink:title=" ">
<path fill="none" stroke="#63b8ff" d="M1713.3,-202.09C1725,-200.54 1737.1,-199.09 1748.5,-198 1921.59,-181.39 2450.44,-158.53 2637.82,-150.73"/>
<polygon fill="#63b8ff" stroke="#63b8ff" points="1712.59,-198.66 1703.15,-203.47 1713.53,-205.59 1712.59,-198.66"/>
</a>
</g>
</g>
<!-- Node33 -->
<g id="Node000033" class="node">
<title>Node33</title>
<g id="a_Node000033"><a xlink:href="../../d7/df4/group__tablewidgetitem_8cpp.html" target="_top" xlink:title=" ">
<polygon fill="white" stroke="#666666" points="1559,-162 1430,-162 1430,-132 1559,-132 1559,-162"/>
<text text-anchor="start" x="1438" y="-150" font-family="Helvetica,sans-Serif" font-size="10.00">src/libs/vwidgets/group</text>
<text text-anchor="middle" x="1494.5" y="-139" font-family="Helvetica,sans-Serif" font-size="10.00">_tablewidgetitem.cpp</text>
</a>
</g>
</g>
<!-- Node18&#45;&gt;Node33 -->
<g id="edge44_Node000018_Node000033" class="edge">
<title>Node18&#45;&gt;Node33</title>
<g id="a_edge44_Node000018_Node000033"><a xlink:title=" ">
<path fill="none" stroke="#63b8ff" d="M1618.43,-199.5C1592.6,-188.77 1555.37,-173.3 1528.47,-162.12"/>
<polygon fill="#63b8ff" stroke="#63b8ff" points="1617.15,-202.76 1627.73,-203.37 1619.84,-196.3 1617.15,-202.76"/>
</a>
</g>
</g>
<!-- Node34 -->
<g id="Node000034" class="node">
<title>Node34</title>
<g id="a_Node000034"><a xlink:href="../../d3/d86/page__format__combobox_8h.html" target="_top" xlink:title=" ">
<polygon fill="white" stroke="#666666" points="1947,-162 1822,-162 1822,-132 1947,-132 1947,-162"/>
<text text-anchor="start" x="1830" y="-150" font-family="Helvetica,sans-Serif" font-size="10.00">src/libs/vwidgets/page</text>
<text text-anchor="middle" x="1884.5" y="-139" font-family="Helvetica,sans-Serif" font-size="10.00">_format_combobox.h</text>
</a>
</g>
</g>
<!-- Node18&#45;&gt;Node34 -->
<g id="edge45_Node000018_Node000034" class="edge">
<title>Node18&#45;&gt;Node34</title>
<g id="a_edge45_Node000018_Node000034"><a xlink:title=" ">
<path fill="none" stroke="#63b8ff" d="M1690.2,-200.69C1729.87,-189.93 1789.68,-173.72 1832.45,-162.12"/>
<polygon fill="#63b8ff" stroke="#63b8ff" points="1689.06,-197.37 1680.33,-203.37 1690.9,-204.13 1689.06,-197.37"/>
</a>
</g>
</g>
<!-- Node36 -->
<g id="Node000036" class="node">
<title>Node36</title>
<g id="a_Node000036"><a xlink:href="../../de/d22/vsimplecurve_8cpp.html" target="_top" xlink:title=" ">
<polygon fill="white" stroke="#666666" points="1803.5,-156.5 1615.5,-156.5 1615.5,-137.5 1803.5,-137.5 1803.5,-156.5"/>
<text text-anchor="middle" x="1709.5" y="-144.5" font-family="Helvetica,sans-Serif" font-size="10.00">src/libs/vwidgets/vsimplecurve.cpp</text>
</a>
</g>
</g>
<!-- Node18&#45;&gt;Node36 -->
<g id="edge47_Node000018_Node000036" class="edge">
<title>Node18&#45;&gt;Node36</title>
<g id="a_edge47_Node000018_Node000036"><a xlink:title=" ">
<path fill="none" stroke="#63b8ff" d="M1663.77,-195.98C1675.55,-183.62 1691.4,-166.99 1701.01,-156.91"/>
<polygon fill="#63b8ff" stroke="#63b8ff" points="1661.09,-193.72 1656.73,-203.37 1666.16,-198.54 1661.09,-193.72"/>
</a>
</g>
</g>
<!-- Node21 -->
<g id="Node000021" class="node">
<title>Node21</title>
<g id="a_Node000021"><a xlink:href="../../dd/d66/vdxfengine_8cpp.html" target="_top" xlink:title=" ">
<polygon fill="white" stroke="#666666" points="2341.5,-90.5 2187.5,-90.5 2187.5,-71.5 2341.5,-71.5 2341.5,-90.5"/>
<text text-anchor="middle" x="2264.5" y="-78.5" font-family="Helvetica,sans-Serif" font-size="10.00">src/libs/vdxf/vdxfengine.cpp</text>
</a>
</g>
</g>
<!-- Node20&#45;&gt;Node21 -->
<g id="edge30_Node000020_Node000021" class="edge">
<title>Node20&#45;&gt;Node21</title>
<g id="a_edge30_Node000020_Node000021"><a xlink:title=" ">
<path fill="none" stroke="#63b8ff" d="M2101.24,-134.24C2140.71,-121.61 2202.48,-101.85 2237.64,-90.6"/>
<polygon fill="#63b8ff" stroke="#63b8ff" points="2099.93,-130.99 2091.47,-137.37 2102.06,-137.65 2099.93,-130.99"/>
</a>
</g>
</g>
<!-- Node22 -->
<g id="Node000022" class="node">
<title>Node22</title>
<g id="a_Node000022"><a xlink:href="../../de/da8/vbank_8cpp.html" target="_top" xlink:title=" ">
<polygon fill="white" stroke="#666666" points="2503.5,-90.5 2359.5,-90.5 2359.5,-71.5 2503.5,-71.5 2503.5,-90.5"/>
<text text-anchor="middle" x="2431.5" y="-78.5" font-family="Helvetica,sans-Serif" font-size="10.00">src/libs/vlayout/vbank.cpp</text>
</a>
</g>
</g>
<!-- Node20&#45;&gt;Node22 -->
<g id="edge31_Node000020_Node000022" class="edge">
<title>Node20&#45;&gt;Node22</title>
<g id="a_edge31_Node000020_Node000022"><a xlink:title=" ">
<path fill="none" stroke="#63b8ff" d="M2123.87,-135.65C2195.86,-123.09 2315.81,-102.17 2382.68,-90.51"/>
<polygon fill="#63b8ff" stroke="#63b8ff" points="2122.86,-132.27 2113.61,-137.44 2124.07,-139.17 2122.86,-132.27"/>
</a>
</g>
</g>
<!-- Node23 -->
<g id="Node000023" class="node">
<title>Node23</title>
<g id="a_Node000023"><a xlink:href="../../df/d5d/vcontour_8cpp.html" target="_top" xlink:title=" ">
<polygon fill="white" stroke="#666666" points="2677.5,-90.5 2521.5,-90.5 2521.5,-71.5 2677.5,-71.5 2677.5,-90.5"/>
<text text-anchor="middle" x="2599.5" y="-78.5" font-family="Helvetica,sans-Serif" font-size="10.00">src/libs/vlayout/vcontour.cpp</text>
</a>
</g>
</g>
<!-- Node20&#45;&gt;Node23 -->
<g id="edge32_Node000020_Node000023" class="edge">
<title>Node20&#45;&gt;Node23</title>
<g id="a_edge32_Node000020_Node000023"><a xlink:title=" ">
<path fill="none" stroke="#63b8ff" d="M2127.47,-135.99C2137.18,-134.57 2147.1,-133.19 2156.5,-132 2314.27,-112.03 2354.82,-116.64 2512.5,-96 2524.64,-94.41 2537.68,-92.45 2549.89,-90.5"/>
<polygon fill="#63b8ff" stroke="#63b8ff" points="2126.84,-132.54 2117.46,-137.48 2127.87,-139.47 2126.84,-132.54"/>
</a>
</g>
</g>
<!-- Node24 -->
<g id="Node000024" class="node">
<title>Node24</title>
<g id="a_Node000024"><a xlink:href="../../d3/d39/vlayoutgenerator_8cpp.html" target="_top" xlink:title=" ">
<polygon fill="white" stroke="#666666" points="2893,-90.5 2696,-90.5 2696,-71.5 2893,-71.5 2893,-90.5"/>
<text text-anchor="middle" x="2794.5" y="-78.5" font-family="Helvetica,sans-Serif" font-size="10.00">src/libs/vlayout/vlayoutgenerator.cpp</text>
</a>
</g>
</g>
<!-- Node20&#45;&gt;Node24 -->
<g id="edge33_Node000020_Node000024" class="edge">
<title>Node20&#45;&gt;Node24</title>
<g id="a_edge33_Node000020_Node000024"><a xlink:title=" ">
<path fill="none" stroke="#63b8ff" d="M2125.65,-135.97C2135.93,-134.49 2146.5,-133.1 2156.5,-132 2391.19,-106.22 2451.54,-119.19 2686.5,-96 2701.93,-94.48 2718.55,-92.49 2734.03,-90.5"/>
<polygon fill="#63b8ff" stroke="#63b8ff" points="2124.88,-132.54 2115.5,-137.47 2125.9,-139.47 2124.88,-132.54"/>
</a>
</g>
</g>
<!-- Node25 -->
<g id="Node000025" class="node">
<title>Node25</title>
<g id="a_Node000025"><a xlink:href="../../d1/dd1/vlayoutpaper_8cpp.html" target="_top" xlink:title=" ">
<polygon fill="white" stroke="#666666" points="1804.5,-24.5 1626.5,-24.5 1626.5,-5.5 1804.5,-5.5 1804.5,-24.5"/>
<text text-anchor="middle" x="1715.5" y="-12.5" font-family="Helvetica,sans-Serif" font-size="10.00">src/libs/vlayout/vlayoutpaper.cpp</text>
</a>
</g>
</g>
<!-- Node20&#45;&gt;Node25 -->
<g id="edge34_Node000020_Node000025" class="edge">
<title>Node20&#45;&gt;Node25</title>
<g id="a_edge34_Node000020_Node000025"><a xlink:title=" ">
<path fill="none" stroke="#63b8ff" d="M1989.93,-136.21C1978.41,-134.76 1966.64,-133.31 1955.5,-132 1880.7,-123.2 1668.85,-152.01 1618.5,-96 1591.8,-66.29 1652.84,-38.18 1689.82,-24.56"/>
<polygon fill="#63b8ff" stroke="#63b8ff" points="1989.61,-139.7 1999.97,-137.48 1990.49,-132.75 1989.61,-139.7"/>
</a>
</g>
</g>
<!-- Node26 -->
<g id="Node000026" class="node">
<title>Node26</title>
<g id="a_Node000026"><a xlink:href="../../d2/d2d/vlayoutpaper__p_8h.html" target="_top" xlink:title=" ">
<polygon fill="white" stroke="#666666" points="1807,-90.5 1628,-90.5 1628,-71.5 1807,-71.5 1807,-90.5"/>
<text text-anchor="middle" x="1717.5" y="-78.5" font-family="Helvetica,sans-Serif" font-size="10.00">src/libs/vlayout/vlayoutpaper_p.h</text>
</a>
</g>
</g>
<!-- Node20&#45;&gt;Node26 -->
<g id="edge35_Node000020_Node000026" class="edge">
<title>Node20&#45;&gt;Node26</title>
<g id="a_edge35_Node000020_Node000026"><a xlink:title=" ">
<path fill="none" stroke="#63b8ff" d="M2007.94,-135.57C1939.84,-123.01 1826.76,-102.15 1763.66,-90.51"/>
<polygon fill="#63b8ff" stroke="#63b8ff" points="2007.59,-139.06 2018.06,-137.44 2008.86,-132.18 2007.59,-139.06"/>
</a>
</g>
</g>
<!-- Node27 -->
<g id="Node000027" class="node">
<title>Node27</title>
<g id="a_Node000027"><a xlink:href="../../dd/d70/vlayoutpiece_8cpp.html" target="_top" xlink:title=" ">
<polygon fill="white" stroke="#666666" points="2169,-90.5 1992,-90.5 1992,-71.5 2169,-71.5 2169,-90.5"/>
<text text-anchor="middle" x="2080.5" y="-78.5" font-family="Helvetica,sans-Serif" font-size="10.00">src/libs/vlayout/vlayoutpiece.cpp</text>
</a>
</g>
</g>
<!-- Node20&#45;&gt;Node27 -->
<g id="edge37_Node000020_Node000027" class="edge">
<title>Node20&#45;&gt;Node27</title>
<g id="a_edge37_Node000020_Node000027"><a xlink:title=" ">
<path fill="none" stroke="#63b8ff" d="M2069.14,-127.45C2072.14,-115.43 2075.92,-100.32 2078.27,-90.91"/>
<polygon fill="#63b8ff" stroke="#63b8ff" points="2065.69,-126.82 2066.66,-137.37 2072.48,-128.52 2065.69,-126.82"/>
</a>
</g>
</g>
<!-- Node28 -->
<g id="Node000028" class="node">
<title>Node28</title>
<g id="a_Node000028"><a xlink:href="../../db/d5c/vposition_8h.html" target="_top" xlink:title=" ">
<polygon fill="white" stroke="#666666" points="1973.5,-90.5 1825.5,-90.5 1825.5,-71.5 1973.5,-71.5 1973.5,-90.5"/>
<text text-anchor="middle" x="1899.5" y="-78.5" font-family="Helvetica,sans-Serif" font-size="10.00">src/libs/vlayout/vposition.h</text>
</a>
</g>
</g>
<!-- Node20&#45;&gt;Node28 -->
<g id="edge38_Node000020_Node000028" class="edge">
<title>Node20&#45;&gt;Node28</title>
<g id="a_edge38_Node000020_Node000028"><a xlink:title=" ">
<path fill="none" stroke="#63b8ff" d="M2032.73,-133.68C2000.12,-121.03 1950.24,-101.68 1921.66,-90.6"/>
<polygon fill="#63b8ff" stroke="#63b8ff" points="2031.66,-137.02 2042.25,-137.37 2034.19,-130.49 2031.66,-137.02"/>
</a>
</g>
</g>
<!-- Node26&#45;&gt;Node25 -->
<g id="edge36_Node000026_Node000025" class="edge">
<title>Node26&#45;&gt;Node25</title>
<g id="a_edge36_Node000026_Node000025"><a xlink:title=" ">
<path fill="none" stroke="#63b8ff" d="M1716.91,-61.08C1716.54,-49.13 1716.07,-34.22 1715.78,-24.91"/>
<polygon fill="#63b8ff" stroke="#63b8ff" points="1713.42,-61.48 1717.23,-71.37 1720.42,-61.26 1713.42,-61.48"/>
</a>
</g>
</g>
<!-- Node28&#45;&gt;Node25 -->
<g id="edge39_Node000028_Node000025" class="edge">
<title>Node28&#45;&gt;Node25</title>
<g id="a_edge39_Node000028_Node000025"><a xlink:title=" ">
<path fill="none" stroke="#63b8ff" d="M1865,-68C1828.67,-55.36 1772.35,-35.78 1740.22,-24.6"/>
<polygon fill="#63b8ff" stroke="#63b8ff" points="1864.09,-71.39 1874.68,-71.37 1866.39,-64.78 1864.09,-71.39"/>
</a>
</g>
</g>
<!-- Node29 -->
<g id="Node000029" class="node">
<title>Node29</title>
<g id="a_Node000029"><a xlink:href="../../df/d76/vposition_8cpp.html" target="_top" xlink:title=" ">
<polygon fill="white" stroke="#666666" points="1981,-24.5 1822,-24.5 1822,-5.5 1981,-5.5 1981,-24.5"/>
<text text-anchor="middle" x="1901.5" y="-12.5" font-family="Helvetica,sans-Serif" font-size="10.00">src/libs/vlayout/vposition.cpp</text>
</a>
</g>
</g>
<!-- Node28&#45;&gt;Node29 -->
<g id="edge40_Node000028_Node000029" class="edge">
<title>Node28&#45;&gt;Node29</title>
<g id="a_edge40_Node000028_Node000029"><a xlink:title=" ">
<path fill="none" stroke="#63b8ff" d="M1900.09,-61.08C1900.46,-49.13 1900.93,-34.22 1901.22,-24.91"/>
<polygon fill="#63b8ff" stroke="#63b8ff" points="1896.58,-61.26 1899.77,-71.37 1903.58,-61.48 1896.58,-61.26"/>
</a>
</g>
</g>
<!-- Node32 -->
<g id="Node000032" class="node">
<title>Node32</title>
<g id="a_Node000032"><a xlink:href="../../df/d40/export__format__combobox_8cpp.html" target="_top" xlink:title=" ">
<polygon fill="white" stroke="#666666" points="3044,-96 2911,-96 2911,-66 3044,-66 3044,-96"/>
<text text-anchor="start" x="2919" y="-84" font-family="Helvetica,sans-Serif" font-size="10.00">src/libs/vwidgets/export</text>
<text text-anchor="middle" x="2977.5" y="-73" font-family="Helvetica,sans-Serif" font-size="10.00">_format_combobox.cpp</text>
</a>
</g>
</g>
<!-- Node31&#45;&gt;Node32 -->
<g id="edge43_Node000031_Node000032" class="edge">
<title>Node31&#45;&gt;Node32</title>
<g id="a_edge43_Node000031_Node000032"><a xlink:title=" ">
<path fill="none" stroke="#63b8ff" d="M2774.25,-129.65C2818.61,-119.25 2875.44,-105.93 2917.73,-96.01"/>
<polygon fill="#63b8ff" stroke="#63b8ff" points="2773.35,-126.26 2764.41,-131.95 2774.95,-133.08 2773.35,-126.26"/>
</a>
</g>
</g>
<!-- Node35 -->
<g id="Node000035" class="node">
<title>Node35</title>
<g id="a_Node000035"><a xlink:href="../../d2/d28/page__format__combobox_8cpp.html" target="_top" xlink:title=" ">
<polygon fill="white" stroke="#666666" points="1571,-96 1440,-96 1440,-66 1571,-66 1571,-96"/>
<text text-anchor="start" x="1448" y="-84" font-family="Helvetica,sans-Serif" font-size="10.00">src/libs/vwidgets/page</text>
<text text-anchor="middle" x="1505.5" y="-73" font-family="Helvetica,sans-Serif" font-size="10.00">_format_combobox.cpp</text>
</a>
</g>
</g>
<!-- Node34&#45;&gt;Node35 -->
<g id="edge46_Node000034_Node000035" class="edge">
<title>Node34&#45;&gt;Node35</title>
<g id="a_edge46_Node000034_Node000035"><a xlink:title=" ">
<path fill="none" stroke="#63b8ff" d="M1811.64,-131.89C1710.23,-114.14 1683.11,-112.28 1585.5,-96 1580.91,-95.23 1576.17,-94.43 1571.41,-93.62"/>
<polygon fill="#63b8ff" stroke="#63b8ff" points="1811.24,-135.37 1821.7,-133.65 1812.45,-128.48 1811.24,-135.37"/>
</a>
</g>
</g>
<!-- Node38&#45;&gt;Node9 -->
<g id="edge51_Node000038_Node000009" class="edge">
<title>Node38&#45;&gt;Node9</title>
<g id="a_edge51_Node000038_Node000009"><a xlink:title=" ">
<path fill="none" stroke="#63b8ff" d="M1166.25,-195.19C1172.47,-185.93 1179.29,-173.92 1182.5,-162 1193.58,-120.8 1209.52,-99.02 1182.5,-66 1163.1,-42.29 1091.2,-29.58 1029.78,-22.91"/>
<polygon fill="#63b8ff" stroke="#63b8ff" points="1163.34,-193.25 1160.39,-203.43 1169.04,-197.31 1163.34,-193.25"/>
</a>
</g>
</g>
<!-- Node39&#45;&gt;Node14 -->
<g id="edge53_Node000039_Node000014" class="edge">
<title>Node39&#45;&gt;Node14</title>
<g id="a_edge53_Node000039_Node000014"><a xlink:title=" ">
<path fill="none" stroke="#63b8ff" d="M160.41,-198.71C145.3,-190.21 127.55,-177.8 116.5,-162 100.78,-139.52 96.83,-106.05 95.83,-90.51"/>
<polygon fill="#63b8ff" stroke="#63b8ff" points="158.92,-201.89 169.39,-203.5 162.21,-195.71 158.92,-201.89"/>
</a>
</g>
</g>
</g>
</svg>
