<?xml version="1.0" encoding="UTF-8" standalone="no"?>
<!DOCTYPE svg PUBLIC "-//W3C//DTD SVG 1.1//EN"
 "http://www.w3.org/Graphics/SVG/1.1/DTD/svg11.dtd">
<!-- Generated by graphviz version 2.43.0 (0)
 -->
<!-- Title: src/libs/ifc/xml/vdomdocument.h Pages: 1 -->
<svg width="3064pt" height="296pt"
 viewBox="0.00 0.00 3064.00 296.00" xmlns="http://www.w3.org/2000/svg" xmlns:xlink="http://www.w3.org/1999/xlink">
<g id="graph0" class="graph" transform="scale(1 1) rotate(0) translate(4 292)">
<title>src/libs/ifc/xml/vdomdocument.h</title>
<polygon fill="white" stroke="transparent" points="-4,4 -4,-292 3060,-292 3060,4 -4,4"/>
<!-- Node1 -->
<g id="node1" class="node">
<title>Node1</title>
<g id="a_node1"><a xlink:title=" ">
<polygon fill="#bfbfbf" stroke="black" points="1172.5,-268.5 1172.5,-287.5 1348.5,-287.5 1348.5,-268.5 1172.5,-268.5"/>
<text text-anchor="middle" x="1260.5" y="-275.5" font-family="Helvetica,sans-Serif" font-size="10.00">src/libs/ifc/xml/vdomdocument.h</text>
</a>
</g>
</g>
<!-- Node2 -->
<g id="node2" class="node">
<title>Node2</title>
<g id="a_node2"><a xlink:href="../../d0/da1/abstract__converter_8h.html" target="_top" xlink:title=" ">
<polygon fill="white" stroke="black" points="691,-201.5 691,-231.5 822,-231.5 822,-201.5 691,-201.5"/>
<text text-anchor="start" x="699" y="-219.5" font-family="Helvetica,sans-Serif" font-size="10.00">src/libs/ifc/xml/abstract</text>
<text text-anchor="middle" x="756.5" y="-208.5" font-family="Helvetica,sans-Serif" font-size="10.00">_converter.h</text>
</a>
</g>
</g>
<!-- Node1&#45;&gt;Node2 -->
<g id="edge1" class="edge">
<title>Node1&#45;&gt;Node2</title>
<path fill="none" stroke="midnightblue" d="M1178.28,-267.29C1078.86,-255.56 913.5,-236.03 822.16,-225.25"/>
<polygon fill="midnightblue" stroke="midnightblue" points="1177.95,-270.78 1188.29,-268.48 1178.77,-263.83 1177.95,-270.78"/>
</g>
<!-- Node11 -->
<g id="node11" class="node">
<title>Node11</title>
<g id="a_node11"><a xlink:href="../../d0/d08/abstract__converter_8cpp.html" target="_top" xlink:title=" ">
<polygon fill="white" stroke="black" points="1046,-134.5 1046,-164.5 1177,-164.5 1177,-134.5 1046,-134.5"/>
<text text-anchor="start" x="1054" y="-152.5" font-family="Helvetica,sans-Serif" font-size="10.00">src/libs/ifc/xml/abstract</text>
<text text-anchor="middle" x="1111.5" y="-141.5" font-family="Helvetica,sans-Serif" font-size="10.00">_converter.cpp</text>
</a>
</g>
</g>
<!-- Node1&#45;&gt;Node11 -->
<g id="edge24" class="edge">
<title>Node1&#45;&gt;Node11</title>
<path fill="none" stroke="midnightblue" d="M1195.31,-266.55C1157.07,-258.95 1114.06,-247.31 1102.5,-232 1087.75,-212.46 1096.88,-182.39 1104.46,-164.75"/>
<polygon fill="midnightblue" stroke="midnightblue" points="1194.94,-270.05 1205.42,-268.5 1196.26,-263.17 1194.94,-270.05"/>
</g>
<!-- Node16 -->
<g id="node16" class="node">
<title>Node16</title>
<g id="a_node16"><a xlink:href="../../de/d7d/vabstractpattern_8cpp.html" target="_top" xlink:title=" ">
<polygon fill="white" stroke="black" points="1233.5,-73 1233.5,-92 1425.5,-92 1425.5,-73 1233.5,-73"/>
<text text-anchor="middle" x="1329.5" y="-80" font-family="Helvetica,sans-Serif" font-size="10.00">src/libs/ifc/xml/vabstractpattern.cpp</text>
</a>
</g>
</g>
<!-- Node1&#45;&gt;Node16 -->
<g id="edge48" class="edge">
<title>Node1&#45;&gt;Node16</title>
<path fill="none" stroke="midnightblue" d="M1277.79,-261.21C1285.56,-253.19 1294.17,-242.86 1299.5,-232 1323.63,-182.9 1328.35,-115.55 1329.28,-92.03"/>
<polygon fill="midnightblue" stroke="midnightblue" points="1275.15,-258.9 1270.45,-268.39 1280.04,-263.9 1275.15,-258.9"/>
</g>
<!-- Node18 -->
<g id="node18" class="node">
<title>Node18</title>
<g id="a_node18"><a xlink:href="../../d0/d89/vabstractpattern_8h.html" target="_top" xlink:title=" ">
<polygon fill="white" stroke="black" points="1606,-207 1606,-226 1787,-226 1787,-207 1606,-207"/>
<text text-anchor="middle" x="1696.5" y="-214" font-family="Helvetica,sans-Serif" font-size="10.00">src/libs/ifc/xml/vabstractpattern.h</text>
</a>
</g>
</g>
<!-- Node1&#45;&gt;Node18 -->
<g id="edge25" class="edge">
<title>Node1&#45;&gt;Node18</title>
<path fill="none" stroke="midnightblue" d="M1332.96,-267.11C1417.12,-255.63 1554.56,-236.87 1634.15,-226.01"/>
<polygon fill="midnightblue" stroke="midnightblue" points="1332.4,-263.66 1322.97,-268.48 1333.35,-270.59 1332.4,-263.66"/>
</g>
<!-- Node19 -->
<g id="node19" class="node">
<title>Node19</title>
<g id="a_node19"><a xlink:href="../../d2/d47/image__dialog_8cpp.html" target="_top" xlink:title=" ">
<polygon fill="white" stroke="black" points="1347.5,-134.5 1347.5,-164.5 1459.5,-164.5 1459.5,-134.5 1347.5,-134.5"/>
<text text-anchor="start" x="1355.5" y="-152.5" font-family="Helvetica,sans-Serif" font-size="10.00">src/libs/tools/image</text>
<text text-anchor="middle" x="1403.5" y="-141.5" font-family="Helvetica,sans-Serif" font-size="10.00">_dialog.cpp</text>
</a>
</g>
</g>
<!-- Node1&#45;&gt;Node19 -->
<g id="edge49" class="edge">
<title>Node1&#45;&gt;Node19</title>
<path fill="none" stroke="midnightblue" d="M1286.71,-263.46C1301.23,-255.33 1319.2,-244.21 1333.5,-232 1357.75,-211.29 1380.84,-181.88 1393.5,-164.64"/>
<polygon fill="midnightblue" stroke="midnightblue" points="1284.83,-260.49 1277.73,-268.35 1288.18,-266.64 1284.83,-260.49"/>
</g>
<!-- Node37 -->
<g id="node37" class="node">
<title>Node37</title>
<g id="a_node37"><a xlink:href="../../d7/d49/vdomdocument_8cpp.html" target="_top" xlink:title=" ">
<polygon fill="white" stroke="black" points="1805.5,-207 1805.5,-226 1993.5,-226 1993.5,-207 1805.5,-207"/>
<text text-anchor="middle" x="1899.5" y="-214" font-family="Helvetica,sans-Serif" font-size="10.00">src/libs/ifc/xml/vdomdocument.cpp</text>
</a>
</g>
</g>
<!-- Node1&#45;&gt;Node37 -->
<g id="edge47" class="edge">
<title>Node1&#45;&gt;Node37</title>
<path fill="none" stroke="midnightblue" d="M1359.05,-270.39C1466.7,-262.78 1644.12,-249.11 1796.5,-232 1811.66,-230.3 1828.04,-228.14 1843.17,-226.01"/>
<polygon fill="midnightblue" stroke="midnightblue" points="1358.59,-266.91 1348.86,-271.11 1359.08,-273.9 1358.59,-266.91"/>
</g>
<!-- Node38 -->
<g id="node38" class="node">
<title>Node38</title>
<g id="a_node38"><a xlink:href="../../dc/db7/measurements_8h.html" target="_top" xlink:title=" ">
<polygon fill="white" stroke="black" points="1112,-207 1112,-226 1291,-226 1291,-207 1112,-207"/>
<text text-anchor="middle" x="1201.5" y="-214" font-family="Helvetica,sans-Serif" font-size="10.00">src/libs/vformat/measurements.h</text>
</a>
</g>
</g>
<!-- Node1&#45;&gt;Node38 -->
<g id="edge50" class="edge">
<title>Node1&#45;&gt;Node38</title>
<path fill="none" stroke="midnightblue" d="M1244.96,-261.32C1233.75,-250.02 1219.04,-235.19 1209.94,-226.01"/>
<polygon fill="midnightblue" stroke="midnightblue" points="1242.52,-263.84 1252.05,-268.48 1247.49,-258.91 1242.52,-263.84"/>
</g>
<!-- Node39 -->
<g id="node39" class="node">
<title>Node39</title>
<g id="a_node39"><a xlink:href="../../d2/d8a/vlabeltemplate_8h.html" target="_top" xlink:title=" ">
<polygon fill="white" stroke="black" points="244,-207 244,-226 423,-226 423,-207 244,-207"/>
<text text-anchor="middle" x="333.5" y="-214" font-family="Helvetica,sans-Serif" font-size="10.00">src/libs/vformat/vlabeltemplate.h</text>
</a>
</g>
</g>
<!-- Node1&#45;&gt;Node39 -->
<g id="edge52" class="edge">
<title>Node1&#45;&gt;Node39</title>
<path fill="none" stroke="midnightblue" d="M1162.41,-270.7C981.5,-259.09 597.88,-234.47 423.34,-223.27"/>
<polygon fill="midnightblue" stroke="midnightblue" points="1162.25,-274.2 1172.45,-271.35 1162.7,-267.22 1162.25,-274.2"/>
</g>
<!-- Node3 -->
<g id="node3" class="node">
<title>Node3</title>
<g id="a_node3"><a xlink:href="../../d4/d90/fvupdater_8cpp.html" target="_top" xlink:title=" ">
<polygon fill="white" stroke="black" points="128,-140 128,-159 281,-159 281,-140 128,-140"/>
<text text-anchor="middle" x="204.5" y="-147" font-family="Helvetica,sans-Serif" font-size="10.00">src/libs/fervor/fvupdater.cpp</text>
</a>
</g>
</g>
<!-- Node2&#45;&gt;Node3 -->
<g id="edge2" class="edge">
<title>Node2&#45;&gt;Node3</title>
<path fill="none" stroke="midnightblue" d="M680.66,-208.67C588.3,-200.03 427.63,-183.97 290.5,-165 278.05,-163.28 264.63,-161.15 252.19,-159.06"/>
<polygon fill="midnightblue" stroke="midnightblue" points="680.47,-212.17 690.75,-209.61 681.12,-205.2 680.47,-212.17"/>
</g>
<!-- Node4 -->
<g id="node4" class="node">
<title>Node4</title>
<g id="a_node4"><a xlink:href="../../da/d2c/abstract__m__converter_8h.html" target="_top" xlink:title=" ">
<polygon fill="white" stroke="black" points="578,-134.5 578,-164.5 709,-164.5 709,-134.5 578,-134.5"/>
<text text-anchor="start" x="586" y="-152.5" font-family="Helvetica,sans-Serif" font-size="10.00">src/libs/ifc/xml/abstract</text>
<text text-anchor="middle" x="643.5" y="-141.5" font-family="Helvetica,sans-Serif" font-size="10.00">_m_converter.h</text>
</a>
</g>
</g>
<!-- Node2&#45;&gt;Node4 -->
<g id="edge3" class="edge">
<title>Node2&#45;&gt;Node4</title>
<path fill="none" stroke="midnightblue" d="M723.11,-196.3C705.43,-186.12 684.1,-173.85 667.97,-164.58"/>
<polygon fill="midnightblue" stroke="midnightblue" points="721.57,-199.44 731.98,-201.4 725.06,-193.38 721.57,-199.44"/>
</g>
<!-- Node5 -->
<g id="node5" class="node">
<title>Node5</title>
<g id="a_node5"><a xlink:href="../../de/dec/abstract__m__converter_8cpp.html" target="_top" xlink:title=" ">
<polygon fill="white" stroke="black" points="458,-67.5 458,-97.5 589,-97.5 589,-67.5 458,-67.5"/>
<text text-anchor="start" x="466" y="-85.5" font-family="Helvetica,sans-Serif" font-size="10.00">src/libs/ifc/xml/abstract</text>
<text text-anchor="middle" x="523.5" y="-74.5" font-family="Helvetica,sans-Serif" font-size="10.00">_m_converter.cpp</text>
</a>
</g>
</g>
<!-- Node2&#45;&gt;Node5 -->
<g id="edge13" class="edge">
<title>Node2&#45;&gt;Node5</title>
<path fill="none" stroke="midnightblue" d="M680.49,-209.02C643.55,-202.61 600.36,-189.95 568.5,-165 546.23,-147.56 533.38,-115.88 527.48,-97.58"/>
<polygon fill="midnightblue" stroke="midnightblue" points="680.31,-212.53 690.74,-210.66 681.42,-205.62 680.31,-212.53"/>
</g>
<!-- Node7 -->
<g id="node7" class="node">
<title>Node7</title>
<g id="a_node7"><a xlink:href="../../d0/d93/individual__size__converter_8h.html" target="_top" xlink:title=" ">
<polygon fill="white" stroke="black" points="818,-67.5 818,-97.5 957,-97.5 957,-67.5 818,-67.5"/>
<text text-anchor="start" x="826" y="-85.5" font-family="Helvetica,sans-Serif" font-size="10.00">src/libs/ifc/xml/individual</text>
<text text-anchor="middle" x="887.5" y="-74.5" font-family="Helvetica,sans-Serif" font-size="10.00">_size_converter.h</text>
</a>
</g>
</g>
<!-- Node2&#45;&gt;Node7 -->
<g id="edge14" class="edge">
<title>Node2&#45;&gt;Node7</title>
<path fill="none" stroke="midnightblue" d="M764.84,-191.79C771.93,-174.22 783.53,-150.55 799.5,-134 814.55,-118.41 835.45,-106.14 853.11,-97.61"/>
<polygon fill="midnightblue" stroke="midnightblue" points="761.49,-190.74 761.18,-201.33 768.03,-193.24 761.49,-190.74"/>
</g>
<!-- Node9 -->
<g id="node9" class="node">
<title>Node9</title>
<g id="a_node9"><a xlink:href="../../d5/d4c/multi__size__converter_8h.html" target="_top" xlink:title=" ">
<polygon fill="white" stroke="black" points="683.5,-67.5 683.5,-97.5 799.5,-97.5 799.5,-67.5 683.5,-67.5"/>
<text text-anchor="start" x="691.5" y="-85.5" font-family="Helvetica,sans-Serif" font-size="10.00">src/libs/ifc/xml/multi</text>
<text text-anchor="middle" x="741.5" y="-74.5" font-family="Helvetica,sans-Serif" font-size="10.00">_size_converter.h</text>
</a>
</g>
</g>
<!-- Node2&#45;&gt;Node9 -->
<g id="edge15" class="edge">
<title>Node2&#45;&gt;Node9</title>
<path fill="none" stroke="midnightblue" d="M753.76,-191.39C750.64,-163.9 745.64,-119.89 743.09,-97.52"/>
<polygon fill="midnightblue" stroke="midnightblue" points="750.29,-191.83 754.89,-201.37 757.24,-191.04 750.29,-191.83"/>
</g>
<!-- Node2&#45;&gt;Node11 -->
<g id="edge16" class="edge">
<title>Node2&#45;&gt;Node11</title>
<path fill="none" stroke="midnightblue" d="M832.07,-202.13C888.45,-192.1 967.33,-177.92 1036.5,-165 1039.5,-164.44 1042.56,-163.86 1045.66,-163.28"/>
<polygon fill="midnightblue" stroke="midnightblue" points="831.4,-198.7 822.17,-203.9 832.63,-205.59 831.4,-198.7"/>
</g>
<!-- Node12 -->
<g id="node12" class="node">
<title>Node12</title>
<g id="a_node12"><a xlink:href="../../d5/d35/vlabeltemplateconverter_8h.html" target="_top" xlink:title=" ">
<polygon fill="white" stroke="black" points="299.5,-140 299.5,-159 519.5,-159 519.5,-140 299.5,-140"/>
<text text-anchor="middle" x="409.5" y="-147" font-family="Helvetica,sans-Serif" font-size="10.00">src/libs/ifc/xml/vlabeltemplateconverter.h</text>
</a>
</g>
</g>
<!-- Node2&#45;&gt;Node12 -->
<g id="edge17" class="edge">
<title>Node2&#45;&gt;Node12</title>
<path fill="none" stroke="midnightblue" d="M680.89,-201.34C611.96,-188.43 512.41,-169.78 455,-159.02"/>
<polygon fill="midnightblue" stroke="midnightblue" points="680.35,-204.8 690.82,-203.2 681.64,-197.92 680.35,-204.8"/>
</g>
<!-- Node15 -->
<g id="node15" class="node">
<title>Node15</title>
<g id="a_node15"><a xlink:href="../../df/d2f/vpatternconverter_8h.html" target="_top" xlink:title=" ">
<polygon fill="white" stroke="black" points="841,-140 841,-159 1028,-159 1028,-140 841,-140"/>
<text text-anchor="middle" x="934.5" y="-147" font-family="Helvetica,sans-Serif" font-size="10.00">src/libs/ifc/xml/vpatternconverter.h</text>
</a>
</g>
</g>
<!-- Node2&#45;&gt;Node15 -->
<g id="edge20" class="edge">
<title>Node2&#45;&gt;Node15</title>
<path fill="none" stroke="midnightblue" d="M804.57,-197.95C839.14,-185.32 884.25,-168.85 911.2,-159.01"/>
<polygon fill="midnightblue" stroke="midnightblue" points="803.32,-194.68 795.12,-201.4 805.72,-201.25 803.32,-194.68"/>
</g>
<!-- Node17 -->
<g id="node17" class="node">
<title>Node17</title>
<g id="a_node17"><a xlink:href="../../d5/d2c/vpatternconverter_8cpp.html" target="_top" xlink:title=" ">
<polygon fill="white" stroke="black" points="975.5,-73 975.5,-92 1173.5,-92 1173.5,-73 975.5,-73"/>
<text text-anchor="middle" x="1074.5" y="-80" font-family="Helvetica,sans-Serif" font-size="10.00">src/libs/ifc/xml/vpatternconverter.cpp</text>
</a>
</g>
</g>
<!-- Node2&#45;&gt;Node17 -->
<g id="edge23" class="edge">
<title>Node2&#45;&gt;Node17</title>
<path fill="none" stroke="midnightblue" d="M775.4,-193.61C795.27,-170.83 824.58,-137.92 831.5,-134 861.81,-116.81 950.83,-101.18 1012.27,-92"/>
<polygon fill="midnightblue" stroke="midnightblue" points="772.74,-191.34 768.82,-201.18 778.02,-195.93 772.74,-191.34"/>
</g>
<!-- Node4&#45;&gt;Node5 -->
<g id="edge4" class="edge">
<title>Node4&#45;&gt;Node5</title>
<path fill="none" stroke="midnightblue" d="M608.56,-129.57C589.68,-119.35 566.77,-106.94 549.49,-97.58"/>
<polygon fill="midnightblue" stroke="midnightblue" points="607,-132.71 617.46,-134.4 610.34,-126.56 607,-132.71"/>
</g>
<!-- Node6 -->
<g id="node6" class="node">
<title>Node6</title>
<g id="a_node6"><a xlink:href="../../d5/d6e/individual__size__converter_8cpp.html" target="_top" xlink:title=" ">
<polygon fill="white" stroke="black" points="694,-0.5 694,-30.5 833,-30.5 833,-0.5 694,-0.5"/>
<text text-anchor="start" x="702" y="-18.5" font-family="Helvetica,sans-Serif" font-size="10.00">src/libs/ifc/xml/individual</text>
<text text-anchor="middle" x="763.5" y="-7.5" font-family="Helvetica,sans-Serif" font-size="10.00">_size_converter.cpp</text>
</a>
</g>
</g>
<!-- Node4&#45;&gt;Node6 -->
<g id="edge5" class="edge">
<title>Node4&#45;&gt;Node6</title>
<path fill="none" stroke="midnightblue" d="M648.1,-124.28C652.45,-106.75 660.46,-83.37 674.5,-67 688.27,-50.95 708.46,-38.91 726.14,-30.62"/>
<polygon fill="midnightblue" stroke="midnightblue" points="644.62,-123.79 645.85,-134.32 651.45,-125.33 644.62,-123.79"/>
</g>
<!-- Node4&#45;&gt;Node7 -->
<g id="edge6" class="edge">
<title>Node4&#45;&gt;Node7</title>
<path fill="none" stroke="midnightblue" d="M706,-131.85C745.78,-121.25 796.74,-107.68 834.53,-97.61"/>
<polygon fill="midnightblue" stroke="midnightblue" points="704.91,-128.52 696.14,-134.48 706.71,-135.28 704.91,-128.52"/>
</g>
<!-- Node4&#45;&gt;Node9 -->
<g id="edge9" class="edge">
<title>Node4&#45;&gt;Node9</title>
<path fill="none" stroke="midnightblue" d="M673.3,-128.73C688.47,-118.68 706.54,-106.68 720.28,-97.58"/>
<polygon fill="midnightblue" stroke="midnightblue" points="671.16,-125.95 664.76,-134.4 675.03,-131.79 671.16,-125.95"/>
</g>
<!-- Node10 -->
<g id="node10" class="node">
<title>Node10</title>
<g id="a_node10"><a xlink:href="../../d9/d94/multi__size__converter_8cpp.html" target="_top" xlink:title=" ">
<polygon fill="white" stroke="black" points="559.5,-0.5 559.5,-30.5 675.5,-30.5 675.5,-0.5 559.5,-0.5"/>
<text text-anchor="start" x="567.5" y="-18.5" font-family="Helvetica,sans-Serif" font-size="10.00">src/libs/ifc/xml/multi</text>
<text text-anchor="middle" x="617.5" y="-7.5" font-family="Helvetica,sans-Serif" font-size="10.00">_size_converter.cpp</text>
</a>
</g>
</g>
<!-- Node4&#45;&gt;Node10 -->
<g id="edge12" class="edge">
<title>Node4&#45;&gt;Node10</title>
<path fill="none" stroke="midnightblue" d="M638.75,-124.39C633.34,-96.9 624.67,-52.89 620.26,-30.52"/>
<polygon fill="midnightblue" stroke="midnightblue" points="635.35,-125.24 640.72,-134.37 642.22,-123.89 635.35,-125.24"/>
</g>
<!-- Node7&#45;&gt;Node6 -->
<g id="edge7" class="edge">
<title>Node7&#45;&gt;Node6</title>
<path fill="none" stroke="midnightblue" d="M851.66,-62.71C832.11,-52.46 808.3,-39.98 790.35,-30.58"/>
<polygon fill="midnightblue" stroke="midnightblue" points="850.11,-65.85 860.59,-67.4 853.36,-59.65 850.11,-65.85"/>
</g>
<!-- Node8 -->
<g id="node8" class="node">
<title>Node8</title>
<g id="a_node8"><a xlink:href="../../d9/de3/measurements_8cpp.html" target="_top" xlink:title=" ">
<polygon fill="white" stroke="black" points="851.5,-6 851.5,-25 1041.5,-25 1041.5,-6 851.5,-6"/>
<text text-anchor="middle" x="946.5" y="-13" font-family="Helvetica,sans-Serif" font-size="10.00">src/libs/vformat/measurements.cpp</text>
</a>
</g>
</g>
<!-- Node7&#45;&gt;Node8 -->
<g id="edge8" class="edge">
<title>Node7&#45;&gt;Node8</title>
<path fill="none" stroke="midnightblue" d="M907.33,-59.66C918.03,-47.86 930.65,-33.97 938.61,-25.19"/>
<polygon fill="midnightblue" stroke="midnightblue" points="904.43,-57.64 900.3,-67.4 909.61,-62.34 904.43,-57.64"/>
</g>
<!-- Node9&#45;&gt;Node8 -->
<g id="edge11" class="edge">
<title>Node9&#45;&gt;Node8</title>
<path fill="none" stroke="midnightblue" d="M795.34,-64.43C835.31,-51.75 888.15,-35 919.6,-25.03"/>
<polygon fill="midnightblue" stroke="midnightblue" points="794.2,-61.12 785.73,-67.48 796.32,-67.79 794.2,-61.12"/>
</g>
<!-- Node9&#45;&gt;Node10 -->
<g id="edge10" class="edge">
<title>Node9&#45;&gt;Node10</title>
<path fill="none" stroke="midnightblue" d="M705.66,-62.71C686.11,-52.46 662.3,-39.98 644.35,-30.58"/>
<polygon fill="midnightblue" stroke="midnightblue" points="704.11,-65.85 714.59,-67.4 707.36,-59.65 704.11,-65.85"/>
</g>
<!-- Node13 -->
<g id="node13" class="node">
<title>Node13</title>
<g id="a_node13"><a xlink:href="../../d7/d63/vlabeltemplateconverter_8cpp.html" target="_top" xlink:title=" ">
<polygon fill="white" stroke="black" points="209,-73 209,-92 440,-92 440,-73 209,-73"/>
<text text-anchor="middle" x="324.5" y="-80" font-family="Helvetica,sans-Serif" font-size="10.00">src/libs/ifc/xml/vlabeltemplateconverter.cpp</text>
</a>
</g>
</g>
<!-- Node12&#45;&gt;Node13 -->
<g id="edge18" class="edge">
<title>Node12&#45;&gt;Node13</title>
<path fill="none" stroke="midnightblue" d="M389.97,-133.57C373.2,-120.74 349.59,-102.69 335.78,-92.13"/>
<polygon fill="midnightblue" stroke="midnightblue" points="387.97,-136.44 398.04,-139.73 392.22,-130.88 387.97,-136.44"/>
</g>
<!-- Node14 -->
<g id="node14" class="node">
<title>Node14</title>
<g id="a_node14"><a xlink:href="../../d9/daf/vlabeltemplate_8cpp.html" target="_top" xlink:title=" ">
<polygon fill="white" stroke="black" points="0,-73 0,-92 191,-92 191,-73 0,-73"/>
<text text-anchor="middle" x="95.5" y="-80" font-family="Helvetica,sans-Serif" font-size="10.00">src/libs/vformat/vlabeltemplate.cpp</text>
</a>
</g>
</g>
<!-- Node12&#45;&gt;Node14 -->
<g id="edge19" class="edge">
<title>Node12&#45;&gt;Node14</title>
<path fill="none" stroke="midnightblue" d="M358.21,-137.88C296.46,-125.1 193.96,-103.88 136.96,-92.08"/>
<polygon fill="midnightblue" stroke="midnightblue" points="357.63,-141.34 368.13,-139.94 359.04,-134.48 357.63,-141.34"/>
</g>
<!-- Node15&#45;&gt;Node16 -->
<g id="edge21" class="edge">
<title>Node15&#45;&gt;Node16</title>
<path fill="none" stroke="midnightblue" d="M996.65,-138.27C1074.17,-125.52 1205.28,-103.94 1277.65,-92.03"/>
<polygon fill="midnightblue" stroke="midnightblue" points="995.84,-134.86 986.55,-139.94 996.98,-141.77 995.84,-134.86"/>
</g>
<!-- Node15&#45;&gt;Node17 -->
<g id="edge22" class="edge">
<title>Node15&#45;&gt;Node17</title>
<path fill="none" stroke="midnightblue" d="M962.26,-135.61C989.99,-122.74 1031.84,-103.31 1055.83,-92.17"/>
<polygon fill="midnightblue" stroke="midnightblue" points="960.69,-132.48 953.09,-139.87 963.63,-138.83 960.69,-132.48"/>
</g>
<!-- Node18&#45;&gt;Node16 -->
<g id="edge26" class="edge">
<title>Node18&#45;&gt;Node16</title>
<path fill="none" stroke="midnightblue" d="M1682.65,-199.18C1664.17,-177.83 1631.99,-142.15 1616.5,-134 1596.72,-123.59 1467.44,-103.48 1389.3,-92.03"/>
<polygon fill="midnightblue" stroke="midnightblue" points="1680.04,-201.52 1689.21,-206.83 1685.35,-196.96 1680.04,-201.52"/>
</g>
<!-- Node18&#45;&gt;Node19 -->
<g id="edge27" class="edge">
<title>Node18&#45;&gt;Node19</title>
<path fill="none" stroke="midnightblue" d="M1647.74,-204.72C1601.57,-194.51 1530.31,-178.74 1468.5,-165 1465.57,-164.35 1462.56,-163.68 1459.52,-163"/>
<polygon fill="midnightblue" stroke="midnightblue" points="1647.25,-208.2 1657.77,-206.94 1648.76,-201.36 1647.25,-208.2"/>
</g>
<!-- Node20 -->
<g id="node20" class="node">
<title>Node20</title>
<g id="a_node20"><a xlink:href="../../d6/de0/vlayoutpiece_8h.html" target="_top" xlink:title=" ">
<polygon fill="white" stroke="black" points="2013.5,-140 2013.5,-159 2179.5,-159 2179.5,-140 2013.5,-140"/>
<text text-anchor="middle" x="2096.5" y="-147" font-family="Helvetica,sans-Serif" font-size="10.00">src/libs/vlayout/vlayoutpiece.h</text>
</a>
</g>
</g>
<!-- Node18&#45;&gt;Node20 -->
<g id="edge28" class="edge">
<title>Node18&#45;&gt;Node20</title>
<path fill="none" stroke="midnightblue" d="M1759.44,-205.27C1837.94,-192.52 1970.71,-170.94 2044,-159.03"/>
<polygon fill="midnightblue" stroke="midnightblue" points="1758.51,-201.88 1749.2,-206.94 1759.64,-208.79 1758.51,-201.88"/>
</g>
<!-- Node30 -->
<g id="node30" class="node">
<title>Node30</title>
<g id="a_node30"><a xlink:href="../../d8/d70/vtextmanager_8cpp.html" target="_top" xlink:title=" ">
<polygon fill="white" stroke="black" points="2197.5,-140 2197.5,-159 2379.5,-159 2379.5,-140 2197.5,-140"/>
<text text-anchor="middle" x="2288.5" y="-147" font-family="Helvetica,sans-Serif" font-size="10.00">src/libs/vlayout/vtextmanager.cpp</text>
</a>
</g>
</g>
<!-- Node18&#45;&gt;Node30 -->
<g id="edge40" class="edge">
<title>Node18&#45;&gt;Node30</title>
<path fill="none" stroke="midnightblue" d="M1761.75,-205.54C1773.31,-203.91 1785.25,-202.33 1796.5,-201 1970.24,-180.44 2014.76,-185.56 2188.5,-165 2203.05,-163.28 2218.74,-161.14 2233.29,-159.03"/>
<polygon fill="midnightblue" stroke="midnightblue" points="1761.12,-202.09 1751.71,-206.97 1762.1,-209.02 1761.12,-202.09"/>
</g>
<!-- Node31 -->
<g id="node31" class="node">
<title>Node31</title>
<g id="a_node31"><a xlink:href="../../d0/da5/export__format__combobox_8h.html" target="_top" xlink:title=" ">
<polygon fill="white" stroke="black" points="2662,-134.5 2662,-164.5 2795,-164.5 2795,-134.5 2662,-134.5"/>
<text text-anchor="start" x="2670" y="-152.5" font-family="Helvetica,sans-Serif" font-size="10.00">src/libs/vwidgets/export</text>
<text text-anchor="middle" x="2728.5" y="-141.5" font-family="Helvetica,sans-Serif" font-size="10.00">_format_combobox.h</text>
</a>
</g>
</g>
<!-- Node18&#45;&gt;Node31 -->
<g id="edge41" class="edge">
<title>Node18&#45;&gt;Node31</title>
<path fill="none" stroke="midnightblue" d="M1759.27,-205.52C1771.59,-203.81 1784.43,-202.2 1796.5,-201 1964.7,-184.28 2477.72,-161.27 2661.84,-153.33"/>
<polygon fill="midnightblue" stroke="midnightblue" points="1758.47,-202.1 1749.07,-206.97 1759.46,-209.03 1758.47,-202.1"/>
</g>
<!-- Node33 -->
<g id="node33" class="node">
<title>Node33</title>
<g id="a_node33"><a xlink:href="../../d7/df4/group__tablewidgetitem_8cpp.html" target="_top" xlink:title=" ">
<polygon fill="white" stroke="black" points="1478,-134.5 1478,-164.5 1607,-164.5 1607,-134.5 1478,-134.5"/>
<text text-anchor="start" x="1486" y="-152.5" font-family="Helvetica,sans-Serif" font-size="10.00">src/libs/vwidgets/group</text>
<text text-anchor="middle" x="1542.5" y="-141.5" font-family="Helvetica,sans-Serif" font-size="10.00">_tablewidgetitem.cpp</text>
</a>
</g>
</g>
<!-- Node18&#45;&gt;Node33 -->
<g id="edge43" class="edge">
<title>Node18&#45;&gt;Node33</title>
<path fill="none" stroke="midnightblue" d="M1666.68,-202.91C1640.6,-191.91 1602.78,-175.94 1575.74,-164.53"/>
<polygon fill="midnightblue" stroke="midnightblue" points="1665.48,-206.2 1676.05,-206.87 1668.2,-199.76 1665.48,-206.2"/>
</g>
<!-- Node34 -->
<g id="node34" class="node">
<title>Node34</title>
<g id="a_node34"><a xlink:href="../../d3/d86/page__format__combobox_8h.html" target="_top" xlink:title=" ">
<polygon fill="white" stroke="black" points="1870,-134.5 1870,-164.5 1995,-164.5 1995,-134.5 1870,-134.5"/>
<text text-anchor="start" x="1878" y="-152.5" font-family="Helvetica,sans-Serif" font-size="10.00">src/libs/vwidgets/page</text>
<text text-anchor="middle" x="1932.5" y="-141.5" font-family="Helvetica,sans-Serif" font-size="10.00">_format_combobox.h</text>
</a>
</g>
</g>
<!-- Node18&#45;&gt;Node34 -->
<g id="edge44" class="edge">
<title>Node18&#45;&gt;Node34</title>
<path fill="none" stroke="midnightblue" d="M1737.54,-204.2C1777.54,-193.18 1838.48,-176.39 1881.57,-164.53"/>
<polygon fill="midnightblue" stroke="midnightblue" points="1736.55,-200.84 1727.84,-206.87 1738.41,-207.59 1736.55,-200.84"/>
</g>
<!-- Node36 -->
<g id="node36" class="node">
<title>Node36</title>
<g id="a_node36"><a xlink:href="../../de/d22/vsimplecurve_8cpp.html" target="_top" xlink:title=" ">
<polygon fill="white" stroke="black" points="1663.5,-140 1663.5,-159 1851.5,-159 1851.5,-140 1663.5,-140"/>
<text text-anchor="middle" x="1757.5" y="-147" font-family="Helvetica,sans-Serif" font-size="10.00">src/libs/vwidgets/vsimplecurve.cpp</text>
</a>
</g>
</g>
<!-- Node18&#45;&gt;Node36 -->
<g id="edge46" class="edge">
<title>Node18&#45;&gt;Node36</title>
<path fill="none" stroke="midnightblue" d="M1711.86,-199.13C1723.79,-186.42 1739.86,-169.3 1749.4,-159.13"/>
<polygon fill="midnightblue" stroke="midnightblue" points="1709.02,-197.05 1704.73,-206.73 1714.12,-201.84 1709.02,-197.05"/>
</g>
<!-- Node21 -->
<g id="node21" class="node">
<title>Node21</title>
<g id="a_node21"><a xlink:href="../../dd/d66/vdxfengine_8cpp.html" target="_top" xlink:title=" ">
<polygon fill="white" stroke="black" points="2199.5,-73 2199.5,-92 2353.5,-92 2353.5,-73 2199.5,-73"/>
<text text-anchor="middle" x="2276.5" y="-80" font-family="Helvetica,sans-Serif" font-size="10.00">src/libs/vdxf/vdxfengine.cpp</text>
</a>
</g>
</g>
<!-- Node20&#45;&gt;Node21 -->
<g id="edge29" class="edge">
<title>Node20&#45;&gt;Node21</title>
<path fill="none" stroke="midnightblue" d="M2129.91,-136.44C2165.62,-123.54 2221.33,-103.42 2252.79,-92.06"/>
<polygon fill="midnightblue" stroke="midnightblue" points="2128.62,-133.18 2120.4,-139.87 2131,-139.76 2128.62,-133.18"/>
</g>
<!-- Node22 -->
<g id="node22" class="node">
<title>Node22</title>
<g id="a_node22"><a xlink:href="../../de/da8/vbank_8cpp.html" target="_top" xlink:title=" ">
<polygon fill="white" stroke="black" points="2371.5,-73 2371.5,-92 2515.5,-92 2515.5,-73 2371.5,-73"/>
<text text-anchor="middle" x="2443.5" y="-80" font-family="Helvetica,sans-Serif" font-size="10.00">src/libs/vlayout/vbank.cpp</text>
</a>
</g>
</g>
<!-- Node20&#45;&gt;Node22 -->
<g id="edge30" class="edge">
<title>Node20&#45;&gt;Node22</title>
<path fill="none" stroke="midnightblue" d="M2152.36,-138.04C2220.6,-125.25 2334.77,-103.87 2397.95,-92.03"/>
<polygon fill="midnightblue" stroke="midnightblue" points="2151.41,-134.65 2142.22,-139.94 2152.69,-141.53 2151.41,-134.65"/>
</g>
<!-- Node23 -->
<g id="node23" class="node">
<title>Node23</title>
<g id="a_node23"><a xlink:href="../../df/d5d/vcontour_8cpp.html" target="_top" xlink:title=" ">
<polygon fill="white" stroke="black" points="2533.5,-73 2533.5,-92 2689.5,-92 2689.5,-73 2533.5,-73"/>
<text text-anchor="middle" x="2611.5" y="-80" font-family="Helvetica,sans-Serif" font-size="10.00">src/libs/vlayout/vcontour.cpp</text>
</a>
</g>
</g>
<!-- Node20&#45;&gt;Node23 -->
<g id="edge31" class="edge">
<title>Node20&#45;&gt;Node23</title>
<path fill="none" stroke="midnightblue" d="M2157.68,-138.42C2167.96,-136.86 2178.52,-135.32 2188.5,-134 2337.39,-114.3 2375.7,-118.35 2524.5,-98 2537.09,-96.28 2550.66,-94.15 2563.26,-92.06"/>
<polygon fill="midnightblue" stroke="midnightblue" points="2156.88,-135.01 2147.53,-140 2157.95,-141.92 2156.88,-135.01"/>
</g>
<!-- Node24 -->
<g id="node24" class="node">
<title>Node24</title>
<g id="a_node24"><a xlink:href="../../d3/d39/vlayoutgenerator_8cpp.html" target="_top" xlink:title=" ">
<polygon fill="white" stroke="black" points="2708,-73 2708,-92 2905,-92 2905,-73 2708,-73"/>
<text text-anchor="middle" x="2806.5" y="-80" font-family="Helvetica,sans-Serif" font-size="10.00">src/libs/vlayout/vlayoutgenerator.cpp</text>
</a>
</g>
</g>
<!-- Node20&#45;&gt;Node24 -->
<g id="edge32" class="edge">
<title>Node20&#45;&gt;Node24</title>
<path fill="none" stroke="midnightblue" d="M2155.49,-138.44C2166.44,-136.78 2177.8,-135.22 2188.5,-134 2414.27,-108.29 2472.45,-121.13 2698.5,-98 2714.59,-96.35 2731.98,-94.19 2748.01,-92.04"/>
<polygon fill="midnightblue" stroke="midnightblue" points="2154.92,-134.98 2145.57,-139.97 2155.99,-141.9 2154.92,-134.98"/>
</g>
<!-- Node25 -->
<g id="node25" class="node">
<title>Node25</title>
<g id="a_node25"><a xlink:href="../../d1/dd1/vlayoutpaper_8cpp.html" target="_top" xlink:title=" ">
<polygon fill="white" stroke="black" points="1638.5,-6 1638.5,-25 1816.5,-25 1816.5,-6 1638.5,-6"/>
<text text-anchor="middle" x="1727.5" y="-13" font-family="Helvetica,sans-Serif" font-size="10.00">src/libs/vlayout/vlayoutpaper.cpp</text>
</a>
</g>
</g>
<!-- Node20&#45;&gt;Node25 -->
<g id="edge33" class="edge">
<title>Node20&#45;&gt;Node25</title>
<path fill="none" stroke="midnightblue" d="M2036.03,-138.44C2025.53,-136.84 2014.71,-135.3 2004.5,-134 1963.19,-128.76 1659.49,-128.82 1631.5,-98 1604.38,-68.14 1666.22,-38.99 1702.87,-25.03"/>
<polygon fill="midnightblue" stroke="midnightblue" points="2035.55,-141.91 2045.96,-139.98 2036.62,-134.99 2035.55,-141.91"/>
</g>
<!-- Node26 -->
<g id="node26" class="node">
<title>Node26</title>
<g id="a_node26"><a xlink:href="../../d2/d2d/vlayoutpaper__p_8h.html" target="_top" xlink:title=" ">
<polygon fill="white" stroke="black" points="1640,-73 1640,-92 1819,-92 1819,-73 1640,-73"/>
<text text-anchor="middle" x="1729.5" y="-80" font-family="Helvetica,sans-Serif" font-size="10.00">src/libs/vlayout/vlayoutpaper_p.h</text>
</a>
</g>
</g>
<!-- Node20&#45;&gt;Node26 -->
<g id="edge34" class="edge">
<title>Node20&#45;&gt;Node26</title>
<path fill="none" stroke="midnightblue" d="M2037.87,-138.12C1965.74,-125.34 1844.64,-103.89 1777.67,-92.03"/>
<polygon fill="midnightblue" stroke="midnightblue" points="2037.69,-141.64 2048.14,-139.94 2038.91,-134.75 2037.69,-141.64"/>
</g>
<!-- Node27 -->
<g id="node27" class="node">
<title>Node27</title>
<g id="a_node27"><a xlink:href="../../db/d5c/vposition_8h.html" target="_top" xlink:title=" ">
<polygon fill="white" stroke="black" points="1837.5,-73 1837.5,-92 1985.5,-92 1985.5,-73 1837.5,-73"/>
<text text-anchor="middle" x="1911.5" y="-80" font-family="Helvetica,sans-Serif" font-size="10.00">src/libs/vlayout/vposition.h</text>
</a>
</g>
</g>
<!-- Node20&#45;&gt;Node27 -->
<g id="edge36" class="edge">
<title>Node20&#45;&gt;Node27</title>
<path fill="none" stroke="midnightblue" d="M2062.16,-136.44C2025.46,-123.54 1968.21,-103.42 1935.87,-92.06"/>
<polygon fill="midnightblue" stroke="midnightblue" points="2061.34,-139.86 2071.93,-139.87 2063.66,-133.25 2061.34,-139.86"/>
</g>
<!-- Node29 -->
<g id="node29" class="node">
<title>Node29</title>
<g id="a_node29"><a xlink:href="../../dd/d70/vlayoutpiece_8cpp.html" target="_top" xlink:title=" ">
<polygon fill="white" stroke="black" points="2004,-73 2004,-92 2181,-92 2181,-73 2004,-73"/>
<text text-anchor="middle" x="2092.5" y="-80" font-family="Helvetica,sans-Serif" font-size="10.00">src/libs/vlayout/vlayoutpiece.cpp</text>
</a>
</g>
</g>
<!-- Node20&#45;&gt;Node29 -->
<g id="edge39" class="edge">
<title>Node20&#45;&gt;Node29</title>
<path fill="none" stroke="midnightblue" d="M2095.33,-129.54C2094.57,-117.17 2093.62,-101.62 2093.03,-92.13"/>
<polygon fill="midnightblue" stroke="midnightblue" points="2091.85,-129.97 2095.96,-139.73 2098.84,-129.54 2091.85,-129.97"/>
</g>
<!-- Node26&#45;&gt;Node25 -->
<g id="edge35" class="edge">
<title>Node26&#45;&gt;Node25</title>
<path fill="none" stroke="midnightblue" d="M1728.92,-62.54C1728.54,-50.17 1728.06,-34.62 1727.77,-25.13"/>
<polygon fill="midnightblue" stroke="midnightblue" points="1725.42,-62.85 1729.23,-72.73 1732.42,-62.63 1725.42,-62.85"/>
</g>
<!-- Node27&#45;&gt;Node25 -->
<g id="edge37" class="edge">
<title>Node27&#45;&gt;Node25</title>
<path fill="none" stroke="midnightblue" d="M1877.35,-69.44C1840.85,-56.54 1783.9,-36.42 1751.74,-25.06"/>
<polygon fill="midnightblue" stroke="midnightblue" points="1876.47,-72.84 1887.07,-72.87 1878.8,-66.24 1876.47,-72.84"/>
</g>
<!-- Node28 -->
<g id="node28" class="node">
<title>Node28</title>
<g id="a_node28"><a xlink:href="../../df/d76/vposition_8cpp.html" target="_top" xlink:title=" ">
<polygon fill="white" stroke="black" points="1834,-6 1834,-25 1993,-25 1993,-6 1834,-6"/>
<text text-anchor="middle" x="1913.5" y="-13" font-family="Helvetica,sans-Serif" font-size="10.00">src/libs/vlayout/vposition.cpp</text>
</a>
</g>
</g>
<!-- Node27&#45;&gt;Node28 -->
<g id="edge38" class="edge">
<title>Node27&#45;&gt;Node28</title>
<path fill="none" stroke="midnightblue" d="M1912.08,-62.54C1912.46,-50.17 1912.94,-34.62 1913.23,-25.13"/>
<polygon fill="midnightblue" stroke="midnightblue" points="1908.58,-62.63 1911.77,-72.73 1915.58,-62.85 1908.58,-62.63"/>
</g>
<!-- Node32 -->
<g id="node32" class="node">
<title>Node32</title>
<g id="a_node32"><a xlink:href="../../df/d40/export__format__combobox_8cpp.html" target="_top" xlink:title=" ">
<polygon fill="white" stroke="black" points="2923,-67.5 2923,-97.5 3056,-97.5 3056,-67.5 2923,-67.5"/>
<text text-anchor="start" x="2931" y="-85.5" font-family="Helvetica,sans-Serif" font-size="10.00">src/libs/vwidgets/export</text>
<text text-anchor="middle" x="2989.5" y="-74.5" font-family="Helvetica,sans-Serif" font-size="10.00">_format_combobox.cpp</text>
</a>
</g>
</g>
<!-- Node31&#45;&gt;Node32 -->
<g id="edge42" class="edge">
<title>Node31&#45;&gt;Node32</title>
<path fill="none" stroke="midnightblue" d="M2794.55,-132.05C2837.22,-121.43 2892.16,-107.74 2932.84,-97.61"/>
<polygon fill="midnightblue" stroke="midnightblue" points="2793.67,-128.66 2784.81,-134.48 2795.36,-135.46 2793.67,-128.66"/>
</g>
<!-- Node35 -->
<g id="node35" class="node">
<title>Node35</title>
<g id="a_node35"><a xlink:href="../../d2/d28/page__format__combobox_8cpp.html" target="_top" xlink:title=" ">
<polygon fill="white" stroke="black" points="1452,-67.5 1452,-97.5 1583,-97.5 1583,-67.5 1452,-67.5"/>
<text text-anchor="start" x="1460" y="-85.5" font-family="Helvetica,sans-Serif" font-size="10.00">src/libs/vwidgets/page</text>
<text text-anchor="middle" x="1517.5" y="-74.5" font-family="Helvetica,sans-Serif" font-size="10.00">_format_combobox.cpp</text>
</a>
</g>
</g>
<!-- Node34&#45;&gt;Node35 -->
<g id="edge45" class="edge">
<title>Node34&#45;&gt;Node35</title>
<path fill="none" stroke="midnightblue" d="M1859.63,-133.92C1742.46,-114.45 1710.83,-116.02 1597.5,-98 1592.9,-97.27 1588.16,-96.48 1583.38,-95.67"/>
<polygon fill="midnightblue" stroke="midnightblue" points="1859.27,-137.41 1869.71,-135.61 1860.43,-130.51 1859.27,-137.41"/>
</g>
<!-- Node38&#45;&gt;Node8 -->
<g id="edge51" class="edge">
<title>Node38&#45;&gt;Node8</title>
<path fill="none" stroke="midnightblue" d="M1205.27,-196.76C1210.37,-165.54 1215.41,-102.78 1182.5,-67 1162.75,-45.53 1094.66,-32.47 1036.66,-25.03"/>
<polygon fill="midnightblue" stroke="midnightblue" points="1201.8,-196.27 1203.46,-206.73 1208.69,-197.52 1201.8,-196.27"/>
</g>
<!-- Node39&#45;&gt;Node14 -->
<g id="edge53" class="edge">
<title>Node39&#45;&gt;Node14</title>
<path fill="none" stroke="midnightblue" d="M254.32,-205.42C201.41,-197.14 138.05,-183.71 118.5,-165 97.89,-145.28 95.31,-108.65 95.27,-92.06"/>
<polygon fill="midnightblue" stroke="midnightblue" points="253.99,-208.91 264.4,-206.96 255.04,-201.99 253.99,-208.91"/>
</g>
</g>
</svg>
