<?xml version="1.0" encoding="UTF-8" standalone="no"?>
<!DOCTYPE svg PUBLIC "-//W3C//DTD SVG 1.1//EN"
 "http://www.w3.org/Graphics/SVG/1.1/DTD/svg11.dtd">
<!-- Generated by graphviz version 2.43.0 (0)
 -->
<!-- Title: src/libs/ifc/xml/vdomdocument.h Pages: 1 -->
<!--zoomable 296 -->
<svg id="main" version="1.1" xmlns="http://www.w3.org/2000/svg" xmlns:xlink="http://www.w3.org/1999/xlink" xml:space="preserve" onload="init(evt)">
<style type="text/css"><![CDATA[
.edge:hover path { stroke: red; }
.edge:hover polygon { stroke: red; fill: red; }
]]></style>
<script type="text/javascript"><![CDATA[
var edges = document.getElementsByTagName('g');
if (edges && edges.length) {
  for (var i=0;i<edges.length;i++) {
    if (edges[i].id.substr(0,4)=='edge') {
      edges[i].setAttribute('class','edge');
    }
  }
}
]]></script>
        <defs>
                <circle id="rim" cx="0" cy="0" r="7"/>
                <circle id="rim2" cx="0" cy="0" r="3.5"/>
                <g id="zoomPlus">
                        <use xlink:href="#rim" fill="#404040">
                                <set attributeName="fill" to="#808080" begin="zoomplus.mouseover" end="zoomplus.mouseout"/>
                        </use>
                        <path d="M-4,0h8M0,-4v8" fill="none" stroke="white" stroke-width="1.5" pointer-events="none"/>
                </g>
                <g id="zoomMin">
                        <use xlink:href="#rim" fill="#404040">
                                <set attributeName="fill" to="#808080" begin="zoomminus.mouseover" end="zoomminus.mouseout"/>
                        </use>
                        <path d="M-4,0h8" fill="none" stroke="white" stroke-width="1.5" pointer-events="none"/>
                </g>
                <g id="dirArrow">
                        <path fill="none" stroke="white" stroke-width="1.5" d="M0,-3.0v7 M-2.5,-0.5L0,-3.0L2.5,-0.5"/>
                </g>
               <g id="resetDef">
                       <use xlink:href="#rim2" fill="#404040">
                               <set attributeName="fill" to="#808080" begin="reset.mouseover" end="reset.mouseout"/>
                       </use>
               </g>
        </defs>

<script type="text/javascript">
var viewWidth = 3293;
var viewHeight = 296;
var sectionId = 'dynsection-1';
</script>
<script xlink:href="../../svgpan.js"/>
<svg id="graph" class="graph">
<g id="viewport">
<title>src/libs/ifc/xml/vdomdocument.h</title>
<polygon fill="white" stroke="transparent" points="-4,4 -4,-292 3289,-292 3289,4 -4,4"/>
<!-- Node1 -->
<g id="node1" class="node">
<title>Node1</title>
<g id="a_node1"><a xlink:title=" ">
<polygon fill="#bfbfbf" stroke="black" points="1119.5,-268.5 1119.5,-287.5 1295.5,-287.5 1295.5,-268.5 1119.5,-268.5"/>
<text text-anchor="middle" x="1207.5" y="-275.5" font-family="Helvetica,sans-Serif" font-size="10.00">src/libs/ifc/xml/vdomdocument.h</text>
</a>
</g>
</g>
<!-- Node2 -->
<g id="node2" class="node">
<title>Node2</title>
<g id="a_node2"><a xlink:href="../../d0/da1/abstract__converter_8h.html" target="_top" xlink:title=" ">
<polygon fill="white" stroke="black" points="748,-201.5 748,-231.5 879,-231.5 879,-201.5 748,-201.5"/>
<text text-anchor="start" x="756" y="-219.5" font-family="Helvetica,sans-Serif" font-size="10.00">src/libs/ifc/xml/abstract</text>
<text text-anchor="middle" x="813.5" y="-208.5" font-family="Helvetica,sans-Serif" font-size="10.00">_converter.h</text>
</a>
</g>
</g>
<!-- Node1&#45;&gt;Node2 -->
<g id="edge1" class="edge">
<title>Node1&#45;&gt;Node2</title>
<path fill="none" stroke="midnightblue" d="M1141.05,-266.97C1068.08,-255.95 951.64,-238.36 879.04,-227.4"/>
<polygon fill="midnightblue" stroke="midnightblue" points="1140.64,-270.44 1151.05,-268.48 1141.68,-263.52 1140.64,-270.44"/>
</g>
<!-- Node3 -->
<g id="node3" class="node">
<title>Node3</title>
<g id="a_node3"><a xlink:href="../../d0/d08/abstract__converter_8cpp.html" target="_top" xlink:title=" ">
<polygon fill="white" stroke="black" points="104,-134.5 104,-164.5 235,-164.5 235,-134.5 104,-134.5"/>
<text text-anchor="start" x="112" y="-152.5" font-family="Helvetica,sans-Serif" font-size="10.00">src/libs/ifc/xml/abstract</text>
<text text-anchor="middle" x="169.5" y="-141.5" font-family="Helvetica,sans-Serif" font-size="10.00">_converter.cpp</text>
</a>
</g>
</g>
<!-- Node1&#45;&gt;Node3 -->
<g id="edge24" class="edge">
<title>Node1&#45;&gt;Node3</title>
<path fill="none" stroke="midnightblue" d="M1109.05,-268.68C1014.07,-260.38 866.29,-246.77 738.5,-232 517.96,-206.5 462.53,-201.25 243.5,-165 240.79,-164.55 238.02,-164.08 235.23,-163.59"/>
<polygon fill="midnightblue" stroke="midnightblue" points="1108.96,-272.18 1119.22,-269.56 1109.56,-265.21 1108.96,-272.18"/>
</g>
<!-- Node16 -->
<g id="node16" class="node">
<title>Node16</title>
<g id="a_node16"><a xlink:href="../../de/d7d/vabstractpattern_8cpp.html" target="_top" xlink:title=" ">
<polygon fill="white" stroke="black" points="1200.5,-73 1200.5,-92 1392.5,-92 1392.5,-73 1200.5,-73"/>
<text text-anchor="middle" x="1296.5" y="-80" font-family="Helvetica,sans-Serif" font-size="10.00">src/libs/ifc/xml/vabstractpattern.cpp</text>
</a>
</g>
</g>
<!-- Node1&#45;&gt;Node16 -->
<g id="edge48" class="edge">
<title>Node1&#45;&gt;Node16</title>
<path fill="none" stroke="midnightblue" d="M1225.36,-261.41C1233.68,-253.34 1243.13,-242.91 1249.5,-232 1277.87,-183.43 1291.17,-115.75 1295.16,-92.08"/>
<polygon fill="midnightblue" stroke="midnightblue" points="1222.82,-258.99 1217.87,-268.35 1227.58,-264.12 1222.82,-258.99"/>
</g>
<!-- Node18 -->
<g id="node18" class="node">
<title>Node18</title>
<g id="a_node18"><a xlink:href="../../d7/d49/vdomdocument_8cpp.html" target="_top" xlink:title=" ">
<polygon fill="white" stroke="black" points="1052.5,-207 1052.5,-226 1240.5,-226 1240.5,-207 1052.5,-207"/>
<text text-anchor="middle" x="1146.5" y="-214" font-family="Helvetica,sans-Serif" font-size="10.00">src/libs/ifc/xml/vdomdocument.cpp</text>
</a>
</g>
</g>
<!-- Node1&#45;&gt;Node18 -->
<g id="edge25" class="edge">
<title>Node1&#45;&gt;Node18</title>
<path fill="none" stroke="midnightblue" d="M1191.43,-261.32C1179.84,-250.02 1164.64,-235.19 1155.22,-226.01"/>
<polygon fill="midnightblue" stroke="midnightblue" points="1189.16,-264 1198.76,-268.48 1194.05,-258.99 1189.16,-264"/>
</g>
<!-- Node19 -->
<g id="node19" class="node">
<title>Node19</title>
<g id="a_node19"><a xlink:href="../../d0/d89/vabstractpattern_8h.html" target="_top" xlink:title=" ">
<polygon fill="white" stroke="black" points="1740,-207 1740,-226 1921,-226 1921,-207 1740,-207"/>
<text text-anchor="middle" x="1830.5" y="-214" font-family="Helvetica,sans-Serif" font-size="10.00">src/libs/ifc/xml/vabstractpattern.h</text>
</a>
</g>
</g>
<!-- Node1&#45;&gt;Node19 -->
<g id="edge26" class="edge">
<title>Node1&#45;&gt;Node19</title>
<path fill="none" stroke="midnightblue" d="M1306.03,-267.59C1425.76,-256.16 1626.02,-237.03 1741.35,-226.01"/>
<polygon fill="midnightblue" stroke="midnightblue" points="1305.39,-264.13 1295.77,-268.57 1306.06,-271.1 1305.39,-264.13"/>
</g>
<!-- Node20 -->
<g id="node20" class="node">
<title>Node20</title>
<g id="a_node20"><a xlink:href="../../d2/d47/image__dialog_8cpp.html" target="_top" xlink:title=" ">
<polygon fill="white" stroke="black" points="1448.5,-134.5 1448.5,-164.5 1560.5,-164.5 1560.5,-134.5 1448.5,-134.5"/>
<text text-anchor="start" x="1456.5" y="-152.5" font-family="Helvetica,sans-Serif" font-size="10.00">src/libs/tools/image</text>
<text text-anchor="middle" x="1504.5" y="-141.5" font-family="Helvetica,sans-Serif" font-size="10.00">_dialog.cpp</text>
</a>
</g>
</g>
<!-- Node1&#45;&gt;Node20 -->
<g id="edge49" class="edge">
<title>Node1&#45;&gt;Node20</title>
<path fill="none" stroke="midnightblue" d="M1305.82,-272.33C1374.68,-267.01 1458.78,-255.75 1484.5,-232 1503.23,-214.7 1505.7,-182.97 1505.39,-164.62"/>
<polygon fill="midnightblue" stroke="midnightblue" points="1305.5,-268.84 1295.78,-273.07 1306.01,-275.82 1305.5,-268.84"/>
</g>
<!-- Node38 -->
<g id="node38" class="node">
<title>Node38</title>
<g id="a_node38"><a xlink:href="../../dc/db7/measurements_8h.html" target="_top" xlink:title=" ">
<polygon fill="white" stroke="black" points="1297,-207 1297,-226 1476,-226 1476,-207 1297,-207"/>
<text text-anchor="middle" x="1386.5" y="-214" font-family="Helvetica,sans-Serif" font-size="10.00">src/libs/vformat/measurements.h</text>
</a>
</g>
</g>
<!-- Node1&#45;&gt;Node38 -->
<g id="edge50" class="edge">
<title>Node1&#45;&gt;Node38</title>
<path fill="none" stroke="midnightblue" d="M1242.9,-265.23C1277.7,-253.67 1329.95,-236.3 1360.9,-226.01"/>
<polygon fill="midnightblue" stroke="midnightblue" points="1241.53,-262 1233.15,-268.48 1243.74,-268.64 1241.53,-262"/>
</g>
<!-- Node39 -->
<g id="node39" class="node">
<title>Node39</title>
<g id="a_node39"><a xlink:href="../../d2/d8a/vlabeltemplate_8h.html" target="_top" xlink:title=" ">
<polygon fill="white" stroke="black" points="83,-207 83,-226 262,-226 262,-207 83,-207"/>
<text text-anchor="middle" x="172.5" y="-214" font-family="Helvetica,sans-Serif" font-size="10.00">src/libs/vformat/vlabeltemplate.h</text>
</a>
</g>
</g>
<!-- Node1&#45;&gt;Node39 -->
<g id="edge52" class="edge">
<title>Node1&#45;&gt;Node39</title>
<path fill="none" stroke="midnightblue" d="M1109.03,-271.34C908.49,-259.81 455.42,-233.76 262.36,-222.67"/>
<polygon fill="midnightblue" stroke="midnightblue" points="1109.07,-274.85 1119.26,-271.93 1109.47,-267.86 1109.07,-274.85"/>
</g>
<!-- Node2&#45;&gt;Node3 -->
<g id="edge2" class="edge">
<title>Node2&#45;&gt;Node3</title>
<path fill="none" stroke="midnightblue" d="M737.6,-209.77C605.11,-199.61 336.85,-178.24 243.5,-165 240.78,-164.61 238,-164.19 235.21,-163.75"/>
<polygon fill="midnightblue" stroke="midnightblue" points="737.44,-213.27 747.67,-210.54 737.97,-206.29 737.44,-213.27"/>
</g>
<!-- Node4 -->
<g id="node4" class="node">
<title>Node4</title>
<g id="a_node4"><a xlink:href="../../da/d2c/abstract__m__converter_8h.html" target="_top" xlink:title=" ">
<polygon fill="white" stroke="black" points="701,-134.5 701,-164.5 832,-164.5 832,-134.5 701,-134.5"/>
<text text-anchor="start" x="709" y="-152.5" font-family="Helvetica,sans-Serif" font-size="10.00">src/libs/ifc/xml/abstract</text>
<text text-anchor="middle" x="766.5" y="-141.5" font-family="Helvetica,sans-Serif" font-size="10.00">_m_converter.h</text>
</a>
</g>
</g>
<!-- Node2&#45;&gt;Node4 -->
<g id="edge3" class="edge">
<title>Node2&#45;&gt;Node4</title>
<path fill="none" stroke="midnightblue" d="M797.34,-193.16C790.49,-183.68 782.71,-172.92 776.68,-164.58"/>
<polygon fill="midnightblue" stroke="midnightblue" points="794.61,-195.34 803.3,-201.4 800.28,-191.24 794.61,-195.34"/>
</g>
<!-- Node5 -->
<g id="node5" class="node">
<title>Node5</title>
<g id="a_node5"><a xlink:href="../../de/dec/abstract__m__converter_8cpp.html" target="_top" xlink:title=" ">
<polygon fill="white" stroke="black" points="467,-67.5 467,-97.5 598,-97.5 598,-67.5 467,-67.5"/>
<text text-anchor="start" x="475" y="-85.5" font-family="Helvetica,sans-Serif" font-size="10.00">src/libs/ifc/xml/abstract</text>
<text text-anchor="middle" x="532.5" y="-74.5" font-family="Helvetica,sans-Serif" font-size="10.00">_m_converter.cpp</text>
</a>
</g>
</g>
<!-- Node2&#45;&gt;Node5 -->
<g id="edge13" class="edge">
<title>Node2&#45;&gt;Node5</title>
<path fill="none" stroke="midnightblue" d="M761.48,-197.82C739.21,-189.29 713.36,-178.05 691.5,-165 672.79,-153.82 672.2,-145.2 653.5,-134 628.51,-119.02 598.26,-106.4 574.26,-97.52"/>
<polygon fill="midnightblue" stroke="midnightblue" points="760.52,-201.2 771.11,-201.43 762.97,-194.64 760.52,-201.2"/>
</g>
<!-- Node6 -->
<g id="node6" class="node">
<title>Node6</title>
<g id="a_node6"><a xlink:href="../../d0/d93/individual__size__converter_8h.html" target="_top" xlink:title=" ">
<polygon fill="white" stroke="black" points="693,-67.5 693,-97.5 832,-97.5 832,-67.5 693,-67.5"/>
<text text-anchor="start" x="701" y="-85.5" font-family="Helvetica,sans-Serif" font-size="10.00">src/libs/ifc/xml/individual</text>
<text text-anchor="middle" x="762.5" y="-74.5" font-family="Helvetica,sans-Serif" font-size="10.00">_size_converter.h</text>
</a>
</g>
</g>
<!-- Node2&#45;&gt;Node6 -->
<g id="edge14" class="edge">
<title>Node2&#45;&gt;Node6</title>
<path fill="none" stroke="midnightblue" d="M830.68,-192.68C841.12,-175.83 850.65,-152.67 840.5,-134 831.56,-117.56 814.71,-105.65 798.95,-97.54"/>
<polygon fill="midnightblue" stroke="midnightblue" points="827.55,-191.07 824.91,-201.33 833.37,-194.95 827.55,-191.07"/>
</g>
<!-- Node9 -->
<g id="node9" class="node">
<title>Node9</title>
<g id="a_node9"><a xlink:href="../../d5/d4c/multi__size__converter_8h.html" target="_top" xlink:title=" ">
<polygon fill="white" stroke="black" points="850.5,-67.5 850.5,-97.5 966.5,-97.5 966.5,-67.5 850.5,-67.5"/>
<text text-anchor="start" x="858.5" y="-85.5" font-family="Helvetica,sans-Serif" font-size="10.00">src/libs/ifc/xml/multi</text>
<text text-anchor="middle" x="908.5" y="-74.5" font-family="Helvetica,sans-Serif" font-size="10.00">_size_converter.h</text>
</a>
</g>
</g>
<!-- Node2&#45;&gt;Node9 -->
<g id="edge15" class="edge">
<title>Node2&#45;&gt;Node9</title>
<path fill="none" stroke="midnightblue" d="M833.63,-193.92C841.41,-185.19 850.18,-174.87 857.5,-165 874.2,-142.47 890.94,-114.41 900.48,-97.78"/>
<polygon fill="midnightblue" stroke="midnightblue" points="830.96,-191.66 826.84,-201.42 836.14,-196.36 830.96,-191.66"/>
</g>
<!-- Node11 -->
<g id="node11" class="node">
<title>Node11</title>
<g id="a_node11"><a xlink:href="../../d5/d35/vlabeltemplateconverter_8h.html" target="_top" xlink:title=" ">
<polygon fill="white" stroke="black" points="424.5,-140 424.5,-159 644.5,-159 644.5,-140 424.5,-140"/>
<text text-anchor="middle" x="534.5" y="-147" font-family="Helvetica,sans-Serif" font-size="10.00">src/libs/ifc/xml/vlabeltemplateconverter.h</text>
</a>
</g>
</g>
<!-- Node2&#45;&gt;Node11 -->
<g id="edge16" class="edge">
<title>Node2&#45;&gt;Node11</title>
<path fill="none" stroke="midnightblue" d="M743.32,-199.15C688.57,-186.39 614.73,-169.19 571.11,-159.03"/>
<polygon fill="midnightblue" stroke="midnightblue" points="742.77,-202.62 753.3,-201.48 744.36,-195.8 742.77,-202.62"/>
</g>
<!-- Node14 -->
<g id="node14" class="node">
<title>Node14</title>
<g id="a_node14"><a xlink:href="../../d4/d90/fvupdater_8cpp.html" target="_top" xlink:title=" ">
<polygon fill="white" stroke="black" points="253,-140 253,-159 406,-159 406,-140 253,-140"/>
<text text-anchor="middle" x="329.5" y="-147" font-family="Helvetica,sans-Serif" font-size="10.00">src/libs/fervor/fvupdater.cpp</text>
</a>
</g>
</g>
<!-- Node2&#45;&gt;Node14 -->
<g id="edge19" class="edge">
<title>Node2&#45;&gt;Node14</title>
<path fill="none" stroke="midnightblue" d="M737.89,-206.84C657.73,-197.44 527.5,-181.54 415.5,-165 403.37,-163.21 390.3,-161.1 378.11,-159.05"/>
<polygon fill="midnightblue" stroke="midnightblue" points="737.55,-210.32 747.89,-208.01 738.37,-203.37 737.55,-210.32"/>
</g>
<!-- Node15 -->
<g id="node15" class="node">
<title>Node15</title>
<g id="a_node15"><a xlink:href="../../df/d2f/vpatternconverter_8h.html" target="_top" xlink:title=" ">
<polygon fill="white" stroke="black" points="990,-140 990,-159 1177,-159 1177,-140 990,-140"/>
<text text-anchor="middle" x="1083.5" y="-147" font-family="Helvetica,sans-Serif" font-size="10.00">src/libs/ifc/xml/vpatternconverter.h</text>
</a>
</g>
</g>
<!-- Node2&#45;&gt;Node15 -->
<g id="edge20" class="edge">
<title>Node2&#45;&gt;Node15</title>
<path fill="none" stroke="midnightblue" d="M881.75,-199.07C934.7,-186.32 1005.95,-169.17 1048.07,-159.03"/>
<polygon fill="midnightblue" stroke="midnightblue" points="880.66,-195.73 871.75,-201.48 882.3,-202.54 880.66,-195.73"/>
</g>
<!-- Node17 -->
<g id="node17" class="node">
<title>Node17</title>
<g id="a_node17"><a xlink:href="../../d5/d2c/vpatternconverter_8cpp.html" target="_top" xlink:title=" ">
<polygon fill="white" stroke="black" points="984.5,-73 984.5,-92 1182.5,-92 1182.5,-73 984.5,-73"/>
<text text-anchor="middle" x="1083.5" y="-80" font-family="Helvetica,sans-Serif" font-size="10.00">src/libs/ifc/xml/vpatternconverter.cpp</text>
</a>
</g>
</g>
<!-- Node2&#45;&gt;Node17 -->
<g id="edge23" class="edge">
<title>Node2&#45;&gt;Node17</title>
<path fill="none" stroke="midnightblue" d="M851.15,-197.09C910.27,-168.19 1022.58,-113.28 1065.87,-92.12"/>
<polygon fill="midnightblue" stroke="midnightblue" points="849.59,-193.96 842.14,-201.5 852.66,-200.25 849.59,-193.96"/>
</g>
<!-- Node4&#45;&gt;Node5 -->
<g id="edge4" class="edge">
<title>Node4&#45;&gt;Node5</title>
<path fill="none" stroke="midnightblue" d="M706.07,-131.71C667.99,-121.14 619.39,-107.63 583.3,-97.61"/>
<polygon fill="midnightblue" stroke="midnightblue" points="705.44,-135.17 716.01,-134.48 707.32,-128.43 705.44,-135.17"/>
</g>
<!-- Node4&#45;&gt;Node6 -->
<g id="edge5" class="edge">
<title>Node4&#45;&gt;Node6</title>
<path fill="none" stroke="midnightblue" d="M765.02,-124.4C764.46,-115.37 763.85,-105.41 763.37,-97.58"/>
<polygon fill="midnightblue" stroke="midnightblue" points="761.52,-124.63 765.63,-134.4 768.51,-124.2 761.52,-124.63"/>
</g>
<!-- Node7 -->
<g id="node7" class="node">
<title>Node7</title>
<g id="a_node7"><a xlink:href="../../d5/d6e/individual__size__converter_8cpp.html" target="_top" xlink:title=" ">
<polygon fill="white" stroke="black" points="557,-0.5 557,-30.5 696,-30.5 696,-0.5 557,-0.5"/>
<text text-anchor="start" x="565" y="-18.5" font-family="Helvetica,sans-Serif" font-size="10.00">src/libs/ifc/xml/individual</text>
<text text-anchor="middle" x="626.5" y="-7.5" font-family="Helvetica,sans-Serif" font-size="10.00">_size_converter.cpp</text>
</a>
</g>
</g>
<!-- Node4&#45;&gt;Node7 -->
<g id="edge8" class="edge">
<title>Node4&#45;&gt;Node7</title>
<path fill="none" stroke="midnightblue" d="M721.54,-129.91C705.43,-121.76 687.95,-111.05 674.5,-98 654.23,-78.33 639.53,-48.3 632.06,-30.71"/>
<polygon fill="midnightblue" stroke="midnightblue" points="720.31,-133.2 730.83,-134.41 723.36,-126.9 720.31,-133.2"/>
</g>
<!-- Node4&#45;&gt;Node9 -->
<g id="edge9" class="edge">
<title>Node4&#45;&gt;Node9</title>
<path fill="none" stroke="midnightblue" d="M806.63,-130.13C829.19,-119.8 856.92,-107.11 877.75,-97.58"/>
<polygon fill="midnightblue" stroke="midnightblue" points="804.95,-127.05 797.31,-134.4 807.86,-133.42 804.95,-127.05"/>
</g>
<!-- Node10 -->
<g id="node10" class="node">
<title>Node10</title>
<g id="a_node10"><a xlink:href="../../d9/d94/multi__size__converter_8cpp.html" target="_top" xlink:title=" ">
<polygon fill="white" stroke="black" points="714.5,-0.5 714.5,-30.5 830.5,-30.5 830.5,-0.5 714.5,-0.5"/>
<text text-anchor="start" x="722.5" y="-18.5" font-family="Helvetica,sans-Serif" font-size="10.00">src/libs/ifc/xml/multi</text>
<text text-anchor="middle" x="772.5" y="-7.5" font-family="Helvetica,sans-Serif" font-size="10.00">_size_converter.cpp</text>
</a>
</g>
</g>
<!-- Node4&#45;&gt;Node10 -->
<g id="edge12" class="edge">
<title>Node4&#45;&gt;Node10</title>
<path fill="none" stroke="midnightblue" d="M717.62,-129.71C704.16,-122.01 691.16,-111.63 683.5,-98 676.75,-85.99 676.57,-78.91 683.5,-67 693.33,-50.11 711.15,-38.41 728.27,-30.56"/>
<polygon fill="midnightblue" stroke="midnightblue" points="716,-132.81 726.48,-134.38 719.27,-126.62 716,-132.81"/>
</g>
<!-- Node6&#45;&gt;Node7 -->
<g id="edge6" class="edge">
<title>Node6&#45;&gt;Node7</title>
<path fill="none" stroke="midnightblue" d="M723.78,-62.99C702.22,-52.69 675.81,-40.07 655.95,-30.58"/>
<polygon fill="midnightblue" stroke="midnightblue" points="722.46,-66.24 732.99,-67.4 725.48,-59.93 722.46,-66.24"/>
</g>
<!-- Node8 -->
<g id="node8" class="node">
<title>Node8</title>
<g id="a_node8"><a xlink:href="../../d9/de3/measurements_8cpp.html" target="_top" xlink:title=" ">
<polygon fill="white" stroke="black" points="848.5,-6 848.5,-25 1038.5,-25 1038.5,-6 848.5,-6"/>
<text text-anchor="middle" x="943.5" y="-13" font-family="Helvetica,sans-Serif" font-size="10.00">src/libs/vformat/measurements.cpp</text>
</a>
</g>
</g>
<!-- Node6&#45;&gt;Node8 -->
<g id="edge7" class="edge">
<title>Node6&#45;&gt;Node8</title>
<path fill="none" stroke="midnightblue" d="M811.38,-63.95C846.54,-51.32 892.4,-34.85 919.81,-25.01"/>
<polygon fill="midnightblue" stroke="midnightblue" points="810,-60.72 801.77,-67.4 812.37,-67.31 810,-60.72"/>
</g>
<!-- Node9&#45;&gt;Node8 -->
<g id="edge11" class="edge">
<title>Node9&#45;&gt;Node8</title>
<path fill="none" stroke="midnightblue" d="M921,-58.29C927.18,-46.8 934.28,-33.63 938.82,-25.19"/>
<polygon fill="midnightblue" stroke="midnightblue" points="917.75,-56.93 916.09,-67.4 923.92,-60.25 917.75,-56.93"/>
</g>
<!-- Node9&#45;&gt;Node10 -->
<g id="edge10" class="edge">
<title>Node9&#45;&gt;Node10</title>
<path fill="none" stroke="midnightblue" d="M869.78,-62.99C848.22,-52.69 821.81,-40.07 801.95,-30.58"/>
<polygon fill="midnightblue" stroke="midnightblue" points="868.46,-66.24 878.99,-67.4 871.48,-59.93 868.46,-66.24"/>
</g>
<!-- Node12 -->
<g id="node12" class="node">
<title>Node12</title>
<g id="a_node12"><a xlink:href="../../d7/d63/vlabeltemplateconverter_8cpp.html" target="_top" xlink:title=" ">
<polygon fill="white" stroke="black" points="218,-73 218,-92 449,-92 449,-73 218,-73"/>
<text text-anchor="middle" x="333.5" y="-80" font-family="Helvetica,sans-Serif" font-size="10.00">src/libs/ifc/xml/vlabeltemplateconverter.cpp</text>
</a>
</g>
</g>
<!-- Node11&#45;&gt;Node12 -->
<g id="edge17" class="edge">
<title>Node11&#45;&gt;Node12</title>
<path fill="none" stroke="midnightblue" d="M498.21,-136.77C458.39,-123.89 395.41,-103.52 359.98,-92.06"/>
<polygon fill="midnightblue" stroke="midnightblue" points="497.22,-140.12 507.81,-139.87 499.37,-133.46 497.22,-140.12"/>
</g>
<!-- Node13 -->
<g id="node13" class="node">
<title>Node13</title>
<g id="a_node13"><a xlink:href="../../d9/daf/vlabeltemplate_8cpp.html" target="_top" xlink:title=" ">
<polygon fill="white" stroke="black" points="0,-73 0,-92 191,-92 191,-73 0,-73"/>
<text text-anchor="middle" x="95.5" y="-80" font-family="Helvetica,sans-Serif" font-size="10.00">src/libs/vformat/vlabeltemplate.cpp</text>
</a>
</g>
</g>
<!-- Node11&#45;&gt;Node13 -->
<g id="edge18" class="edge">
<title>Node11&#45;&gt;Node13</title>
<path fill="none" stroke="midnightblue" d="M466.74,-138.47C380.76,-125.74 233.96,-104 153.12,-92.03"/>
<polygon fill="midnightblue" stroke="midnightblue" points="466.25,-141.93 476.66,-139.94 467.28,-135.01 466.25,-141.93"/>
</g>
<!-- Node15&#45;&gt;Node16 -->
<g id="edge21" class="edge">
<title>Node15&#45;&gt;Node16</title>
<path fill="none" stroke="midnightblue" d="M1121.42,-136.93C1163.59,-124.06 1230.73,-103.57 1268.44,-92.06"/>
<polygon fill="midnightblue" stroke="midnightblue" points="1120.33,-133.6 1111.78,-139.87 1122.37,-140.3 1120.33,-133.6"/>
</g>
<!-- Node15&#45;&gt;Node17 -->
<g id="edge22" class="edge">
<title>Node15&#45;&gt;Node17</title>
<path fill="none" stroke="midnightblue" d="M1083.5,-129.54C1083.5,-117.17 1083.5,-101.62 1083.5,-92.13"/>
<polygon fill="midnightblue" stroke="midnightblue" points="1080,-129.73 1083.5,-139.73 1087,-129.73 1080,-129.73"/>
</g>
<!-- Node19&#45;&gt;Node16 -->
<g id="edge27" class="edge">
<title>Node19&#45;&gt;Node16</title>
<path fill="none" stroke="midnightblue" d="M1743.45,-205.32C1700.9,-198.01 1649.87,-185.65 1607.5,-165 1587.91,-155.45 1589.28,-143.16 1569.5,-134 1514.06,-108.33 1446.6,-95.7 1392.6,-89.49"/>
<polygon fill="midnightblue" stroke="midnightblue" points="1743.08,-208.81 1753.52,-206.99 1744.22,-201.9 1743.08,-208.81"/>
</g>
<!-- Node19&#45;&gt;Node20 -->
<g id="edge28" class="edge">
<title>Node19&#45;&gt;Node20</title>
<path fill="none" stroke="midnightblue" d="M1776.56,-205.01C1724.73,-194.9 1644.23,-179.1 1574.5,-165 1570,-164.09 1565.34,-163.14 1560.65,-162.18"/>
<polygon fill="midnightblue" stroke="midnightblue" points="1776.05,-208.48 1786.53,-206.96 1777.39,-201.61 1776.05,-208.48"/>
</g>
<!-- Node21 -->
<g id="node21" class="node">
<title>Node21</title>
<g id="a_node21"><a xlink:href="../../d6/de0/vlayoutpiece_8h.html" target="_top" xlink:title=" ">
<polygon fill="white" stroke="black" points="2465.5,-140 2465.5,-159 2631.5,-159 2631.5,-140 2465.5,-140"/>
<text text-anchor="middle" x="2548.5" y="-147" font-family="Helvetica,sans-Serif" font-size="10.00">src/libs/vlayout/vlayoutpiece.h</text>
</a>
</g>
</g>
<!-- Node19&#45;&gt;Node21 -->
<g id="edge29" class="edge">
<title>Node19&#45;&gt;Node21</title>
<path fill="none" stroke="midnightblue" d="M1931.39,-209.72C2055.31,-202.08 2271.81,-186.97 2456.5,-165 2470.31,-163.36 2485.22,-161.18 2498.94,-159.02"/>
<polygon fill="midnightblue" stroke="midnightblue" points="1930.93,-206.24 1921.16,-210.35 1931.36,-213.23 1930.93,-206.24"/>
</g>
<!-- Node31 -->
<g id="node31" class="node">
<title>Node31</title>
<g id="a_node31"><a xlink:href="../../d8/d70/vtextmanager_8cpp.html" target="_top" xlink:title=" ">
<polygon fill="white" stroke="black" points="2117.5,-140 2117.5,-159 2299.5,-159 2299.5,-140 2117.5,-140"/>
<text text-anchor="middle" x="2208.5" y="-147" font-family="Helvetica,sans-Serif" font-size="10.00">src/libs/vlayout/vtextmanager.cpp</text>
</a>
</g>
</g>
<!-- Node19&#45;&gt;Node31 -->
<g id="edge41" class="edge">
<title>Node19&#45;&gt;Node31</title>
<path fill="none" stroke="midnightblue" d="M1890.43,-205.19C1964.67,-192.43 2089.77,-170.92 2158.88,-159.03"/>
<polygon fill="midnightblue" stroke="midnightblue" points="1889.57,-201.79 1880.31,-206.94 1890.75,-208.69 1889.57,-201.79"/>
</g>
<!-- Node32 -->
<g id="node32" class="node">
<title>Node32</title>
<g id="a_node32"><a xlink:href="../../d0/da5/export__format__combobox_8h.html" target="_top" xlink:title=" ">
<polygon fill="white" stroke="black" points="1617,-134.5 1617,-164.5 1750,-164.5 1750,-134.5 1617,-134.5"/>
<text text-anchor="start" x="1625" y="-152.5" font-family="Helvetica,sans-Serif" font-size="10.00">src/libs/vwidgets/export</text>
<text text-anchor="middle" x="1683.5" y="-141.5" font-family="Helvetica,sans-Serif" font-size="10.00">_format_combobox.h</text>
</a>
</g>
</g>
<!-- Node19&#45;&gt;Node32 -->
<g id="edge42" class="edge">
<title>Node19&#45;&gt;Node32</title>
<path fill="none" stroke="midnightblue" d="M1801.7,-202.77C1776.82,-191.77 1740.92,-175.89 1715.23,-164.53"/>
<polygon fill="midnightblue" stroke="midnightblue" points="1800.42,-206.03 1810.98,-206.87 1803.25,-199.62 1800.42,-206.03"/>
</g>
<!-- Node34 -->
<g id="node34" class="node">
<title>Node34</title>
<g id="a_node34"><a xlink:href="../../d7/df4/group__tablewidgetitem_8cpp.html" target="_top" xlink:title=" ">
<polygon fill="white" stroke="black" points="2318,-134.5 2318,-164.5 2447,-164.5 2447,-134.5 2318,-134.5"/>
<text text-anchor="start" x="2326" y="-152.5" font-family="Helvetica,sans-Serif" font-size="10.00">src/libs/vwidgets/group</text>
<text text-anchor="middle" x="2382.5" y="-141.5" font-family="Helvetica,sans-Serif" font-size="10.00">_tablewidgetitem.cpp</text>
</a>
</g>
</g>
<!-- Node19&#45;&gt;Node34 -->
<g id="edge44" class="edge">
<title>Node19&#45;&gt;Node34</title>
<path fill="none" stroke="midnightblue" d="M1931.2,-207.46C2028.16,-199.11 2178.79,-184.52 2308.5,-165 2311.61,-164.53 2314.78,-164.03 2317.98,-163.49"/>
<polygon fill="midnightblue" stroke="midnightblue" points="1930.77,-203.99 1921.11,-208.33 1931.37,-210.96 1930.77,-203.99"/>
</g>
<!-- Node35 -->
<g id="node35" class="node">
<title>Node35</title>
<g id="a_node35"><a xlink:href="../../d3/d86/page__format__combobox_8h.html" target="_top" xlink:title=" ">
<polygon fill="white" stroke="black" points="1768,-134.5 1768,-164.5 1893,-164.5 1893,-134.5 1768,-134.5"/>
<text text-anchor="start" x="1776" y="-152.5" font-family="Helvetica,sans-Serif" font-size="10.00">src/libs/vwidgets/page</text>
<text text-anchor="middle" x="1830.5" y="-141.5" font-family="Helvetica,sans-Serif" font-size="10.00">_format_combobox.h</text>
</a>
</g>
</g>
<!-- Node19&#45;&gt;Node35 -->
<g id="edge45" class="edge">
<title>Node19&#45;&gt;Node35</title>
<path fill="none" stroke="midnightblue" d="M1830.5,-196.41C1830.5,-186.22 1830.5,-173.9 1830.5,-164.59"/>
<polygon fill="midnightblue" stroke="midnightblue" points="1827,-196.73 1830.5,-206.73 1834,-196.73 1827,-196.73"/>
</g>
<!-- Node37 -->
<g id="node37" class="node">
<title>Node37</title>
<g id="a_node37"><a xlink:href="../../de/d22/vsimplecurve_8cpp.html" target="_top" xlink:title=" ">
<polygon fill="white" stroke="black" points="1911.5,-140 1911.5,-159 2099.5,-159 2099.5,-140 1911.5,-140"/>
<text text-anchor="middle" x="2005.5" y="-147" font-family="Helvetica,sans-Serif" font-size="10.00">src/libs/vwidgets/vsimplecurve.cpp</text>
</a>
</g>
</g>
<!-- Node19&#45;&gt;Node37 -->
<g id="edge47" class="edge">
<title>Node19&#45;&gt;Node37</title>
<path fill="none" stroke="midnightblue" d="M1863.43,-203.27C1898.16,-190.37 1951.99,-170.38 1982.44,-159.06"/>
<polygon fill="midnightblue" stroke="midnightblue" points="1861.89,-200.11 1853.74,-206.87 1864.33,-206.67 1861.89,-200.11"/>
</g>
<!-- Node22 -->
<g id="node22" class="node">
<title>Node22</title>
<g id="a_node22"><a xlink:href="../../dd/d66/vdxfengine_8cpp.html" target="_top" xlink:title=" ">
<polygon fill="white" stroke="black" points="2407.5,-73 2407.5,-92 2561.5,-92 2561.5,-73 2407.5,-73"/>
<text text-anchor="middle" x="2484.5" y="-80" font-family="Helvetica,sans-Serif" font-size="10.00">src/libs/vdxf/vdxfengine.cpp</text>
</a>
</g>
</g>
<!-- Node21&#45;&gt;Node22 -->
<g id="edge30" class="edge">
<title>Node21&#45;&gt;Node22</title>
<path fill="none" stroke="midnightblue" d="M2532.74,-132.5C2520.19,-119.75 2503.1,-102.39 2492.99,-92.13"/>
<polygon fill="midnightblue" stroke="midnightblue" points="2530.36,-135.06 2539.87,-139.73 2535.35,-130.15 2530.36,-135.06"/>
</g>
<!-- Node23 -->
<g id="node23" class="node">
<title>Node23</title>
<g id="a_node23"><a xlink:href="../../de/da8/vbank_8cpp.html" target="_top" xlink:title=" ">
<polygon fill="white" stroke="black" points="2579.5,-73 2579.5,-92 2723.5,-92 2723.5,-73 2579.5,-73"/>
<text text-anchor="middle" x="2651.5" y="-80" font-family="Helvetica,sans-Serif" font-size="10.00">src/libs/vlayout/vbank.cpp</text>
</a>
</g>
</g>
<!-- Node21&#45;&gt;Node23 -->
<g id="edge31" class="edge">
<title>Node21&#45;&gt;Node23</title>
<path fill="none" stroke="midnightblue" d="M2571.05,-134.27C2591.44,-121.4 2620.79,-102.88 2637.83,-92.13"/>
<polygon fill="midnightblue" stroke="midnightblue" points="2568.98,-131.44 2562.39,-139.73 2572.72,-137.36 2568.98,-131.44"/>
</g>
<!-- Node24 -->
<g id="node24" class="node">
<title>Node24</title>
<g id="a_node24"><a xlink:href="../../df/d5d/vcontour_8cpp.html" target="_top" xlink:title=" ">
<polygon fill="white" stroke="black" points="2741.5,-73 2741.5,-92 2897.5,-92 2897.5,-73 2741.5,-73"/>
<text text-anchor="middle" x="2819.5" y="-80" font-family="Helvetica,sans-Serif" font-size="10.00">src/libs/vlayout/vcontour.cpp</text>
</a>
</g>
</g>
<!-- Node21&#45;&gt;Node24 -->
<g id="edge32" class="edge">
<title>Node21&#45;&gt;Node24</title>
<path fill="none" stroke="midnightblue" d="M2594.09,-137.56C2647.52,-124.75 2734.93,-103.78 2783.71,-92.08"/>
<polygon fill="midnightblue" stroke="midnightblue" points="2593.12,-134.2 2584.21,-139.94 2594.75,-141.01 2593.12,-134.2"/>
</g>
<!-- Node25 -->
<g id="node25" class="node">
<title>Node25</title>
<g id="a_node25"><a xlink:href="../../d3/d39/vlayoutgenerator_8cpp.html" target="_top" xlink:title=" ">
<polygon fill="white" stroke="black" points="2916,-73 2916,-92 3113,-92 3113,-73 2916,-73"/>
<text text-anchor="middle" x="3014.5" y="-80" font-family="Helvetica,sans-Serif" font-size="10.00">src/libs/vlayout/vlayoutgenerator.cpp</text>
</a>
</g>
</g>
<!-- Node21&#45;&gt;Node25 -->
<g id="edge33" class="edge">
<title>Node21&#45;&gt;Node25</title>
<path fill="none" stroke="midnightblue" d="M2619.87,-138.54C2711.06,-125.83 2867.35,-104.03 2953.33,-92.03"/>
<polygon fill="midnightblue" stroke="midnightblue" points="2619.32,-135.09 2609.9,-139.94 2620.29,-142.02 2619.32,-135.09"/>
</g>
<!-- Node26 -->
<g id="node26" class="node">
<title>Node26</title>
<g id="a_node26"><a xlink:href="../../d2/d2d/vlayoutpaper__p_8h.html" target="_top" xlink:title=" ">
<polygon fill="white" stroke="black" points="1978,-73 1978,-92 2157,-92 2157,-73 1978,-73"/>
<text text-anchor="middle" x="2067.5" y="-80" font-family="Helvetica,sans-Serif" font-size="10.00">src/libs/vlayout/vlayoutpaper_p.h</text>
</a>
</g>
</g>
<!-- Node21&#45;&gt;Node26 -->
<g id="edge34" class="edge">
<title>Node21&#45;&gt;Node26</title>
<path fill="none" stroke="midnightblue" d="M2486.56,-138.45C2476.52,-136.91 2466.23,-135.37 2456.5,-134 2327.89,-115.89 2295.21,-115.41 2166.5,-98 2152.81,-96.15 2138.08,-94.05 2124.27,-92.03"/>
<polygon fill="midnightblue" stroke="midnightblue" points="2486.07,-141.92 2496.48,-140 2487.14,-135 2486.07,-141.92"/>
</g>
<!-- Node27 -->
<g id="node27" class="node">
<title>Node27</title>
<g id="a_node27"><a xlink:href="../../d1/dd1/vlayoutpaper_8cpp.html" target="_top" xlink:title=" ">
<polygon fill="white" stroke="black" points="2290.5,-6 2290.5,-25 2468.5,-25 2468.5,-6 2290.5,-6"/>
<text text-anchor="middle" x="2379.5" y="-13" font-family="Helvetica,sans-Serif" font-size="10.00">src/libs/vlayout/vlayoutpaper.cpp</text>
</a>
</g>
</g>
<!-- Node21&#45;&gt;Node27 -->
<g id="edge36" class="edge">
<title>Node21&#45;&gt;Node27</title>
<path fill="none" stroke="midnightblue" d="M2468.64,-137.41C2443.06,-130.11 2416.69,-118.02 2398.5,-98 2379.74,-77.35 2378.43,-41.83 2378.95,-25.36"/>
<polygon fill="midnightblue" stroke="midnightblue" points="2467.83,-140.81 2478.39,-139.98 2469.61,-134.04 2467.83,-140.81"/>
</g>
<!-- Node28 -->
<g id="node28" class="node">
<title>Node28</title>
<g id="a_node28"><a xlink:href="../../dd/d70/vlayoutpiece_8cpp.html" target="_top" xlink:title=" ">
<polygon fill="white" stroke="black" points="2175,-73 2175,-92 2352,-92 2352,-73 2175,-73"/>
<text text-anchor="middle" x="2263.5" y="-80" font-family="Helvetica,sans-Serif" font-size="10.00">src/libs/vlayout/vlayoutpiece.cpp</text>
</a>
</g>
</g>
<!-- Node21&#45;&gt;Node28 -->
<g id="edge37" class="edge">
<title>Node21&#45;&gt;Node28</title>
<path fill="none" stroke="midnightblue" d="M2500.9,-137.64C2444.75,-124.84 2352.55,-103.81 2301.14,-92.08"/>
<polygon fill="midnightblue" stroke="midnightblue" points="2500.42,-141.12 2510.95,-139.94 2501.98,-134.3 2500.42,-141.12"/>
</g>
<!-- Node29 -->
<g id="node29" class="node">
<title>Node29</title>
<g id="a_node29"><a xlink:href="../../db/d5c/vposition_8h.html" target="_top" xlink:title=" ">
<polygon fill="white" stroke="black" points="3131.5,-73 3131.5,-92 3279.5,-92 3279.5,-73 3131.5,-73"/>
<text text-anchor="middle" x="3205.5" y="-80" font-family="Helvetica,sans-Serif" font-size="10.00">src/libs/vlayout/vposition.h</text>
</a>
</g>
</g>
<!-- Node21&#45;&gt;Node29 -->
<g id="edge38" class="edge">
<title>Node21&#45;&gt;Node29</title>
<path fill="none" stroke="midnightblue" d="M2641.99,-142.73C2755.82,-135.14 2953.76,-120.12 3122.5,-98 3134.97,-96.36 3148.43,-94.19 3160.81,-92.03"/>
<polygon fill="midnightblue" stroke="midnightblue" points="2641.66,-139.25 2631.92,-143.4 2642.13,-146.23 2641.66,-139.25"/>
</g>
<!-- Node26&#45;&gt;Node27 -->
<g id="edge35" class="edge">
<title>Node26&#45;&gt;Node27</title>
<path fill="none" stroke="midnightblue" d="M2118.47,-70.88C2179.82,-58.1 2281.67,-36.88 2338.3,-25.08"/>
<polygon fill="midnightblue" stroke="midnightblue" points="2117.69,-67.47 2108.61,-72.94 2119.11,-74.32 2117.69,-67.47"/>
</g>
<!-- Node29&#45;&gt;Node27 -->
<g id="edge39" class="edge">
<title>Node29&#45;&gt;Node27</title>
<path fill="none" stroke="midnightblue" d="M3151.74,-71.26C3142.03,-69.65 3131.98,-68.15 3122.5,-67 2887.45,-38.56 2608.48,-24.97 2468.71,-19.53"/>
<polygon fill="midnightblue" stroke="midnightblue" points="3151.24,-74.73 3161.69,-72.96 3152.42,-67.83 3151.24,-74.73"/>
</g>
<!-- Node30 -->
<g id="node30" class="node">
<title>Node30</title>
<g id="a_node30"><a xlink:href="../../df/d76/vposition_8cpp.html" target="_top" xlink:title=" ">
<polygon fill="white" stroke="black" points="3126,-6 3126,-25 3285,-25 3285,-6 3126,-6"/>
<text text-anchor="middle" x="3205.5" y="-13" font-family="Helvetica,sans-Serif" font-size="10.00">src/libs/vlayout/vposition.cpp</text>
</a>
</g>
</g>
<!-- Node29&#45;&gt;Node30 -->
<g id="edge40" class="edge">
<title>Node29&#45;&gt;Node30</title>
<path fill="none" stroke="midnightblue" d="M3205.5,-62.54C3205.5,-50.17 3205.5,-34.62 3205.5,-25.13"/>
<polygon fill="midnightblue" stroke="midnightblue" points="3202,-62.73 3205.5,-72.73 3209,-62.73 3202,-62.73"/>
</g>
<!-- Node33 -->
<g id="node33" class="node">
<title>Node33</title>
<g id="a_node33"><a xlink:href="../../df/d40/export__format__combobox_8cpp.html" target="_top" xlink:title=" ">
<polygon fill="white" stroke="black" points="1616,-67.5 1616,-97.5 1749,-97.5 1749,-67.5 1616,-67.5"/>
<text text-anchor="start" x="1624" y="-85.5" font-family="Helvetica,sans-Serif" font-size="10.00">src/libs/vwidgets/export</text>
<text text-anchor="middle" x="1682.5" y="-74.5" font-family="Helvetica,sans-Serif" font-size="10.00">_format_combobox.cpp</text>
</a>
</g>
</g>
<!-- Node32&#45;&gt;Node33 -->
<g id="edge43" class="edge">
<title>Node32&#45;&gt;Node33</title>
<path fill="none" stroke="midnightblue" d="M1683.12,-124.11C1682.99,-115.15 1682.84,-105.32 1682.72,-97.58"/>
<polygon fill="midnightblue" stroke="midnightblue" points="1679.63,-124.45 1683.28,-134.4 1686.63,-124.34 1679.63,-124.45"/>
</g>
<!-- Node36 -->
<g id="node36" class="node">
<title>Node36</title>
<g id="a_node36"><a xlink:href="../../d2/d28/page__format__combobox_8cpp.html" target="_top" xlink:title=" ">
<polygon fill="white" stroke="black" points="1767,-67.5 1767,-97.5 1898,-97.5 1898,-67.5 1767,-67.5"/>
<text text-anchor="start" x="1775" y="-85.5" font-family="Helvetica,sans-Serif" font-size="10.00">src/libs/vwidgets/page</text>
<text text-anchor="middle" x="1832.5" y="-74.5" font-family="Helvetica,sans-Serif" font-size="10.00">_format_combobox.cpp</text>
</a>
</g>
</g>
<!-- Node35&#45;&gt;Node36 -->
<g id="edge46" class="edge">
<title>Node35&#45;&gt;Node36</title>
<path fill="none" stroke="midnightblue" d="M1831.25,-124.11C1831.53,-115.15 1831.83,-105.32 1832.07,-97.58"/>
<polygon fill="midnightblue" stroke="midnightblue" points="1827.74,-124.29 1830.93,-134.4 1834.74,-124.51 1827.74,-124.29"/>
</g>
<!-- Node38&#45;&gt;Node8 -->
<g id="edge51" class="edge">
<title>Node38&#45;&gt;Node8</title>
<path fill="none" stroke="midnightblue" d="M1395.84,-197.64C1410.51,-166.81 1434.12,-103.42 1401.5,-67 1377.75,-40.48 1165.6,-26.43 1038.53,-20.32"/>
<polygon fill="midnightblue" stroke="midnightblue" points="1392.62,-196.25 1391.3,-206.76 1398.89,-199.37 1392.62,-196.25"/>
</g>
<!-- Node39&#45;&gt;Node13 -->
<g id="edge53" class="edge">
<title>Node39&#45;&gt;Node13</title>
<path fill="none" stroke="midnightblue" d="M138.17,-202.53C121.82,-194.41 103.84,-182.18 94.5,-165 81.59,-141.26 88.5,-107.58 92.84,-92"/>
<polygon fill="midnightblue" stroke="midnightblue" points="136.98,-205.83 147.53,-206.84 139.91,-199.48 136.98,-205.83"/>
</g>
</g>
</svg>
        <g id="navigator" transform="translate(0 0)" fill="#404254">
                <rect fill="#f2f5e9" fill-opacity="0.5" stroke="#606060" stroke-width=".5" x="0" y="0" width="60" height="60"/>
                <use id="zoomplus" xlink:href="#zoomPlus" x="17" y="9" onmousedown="handleZoom(evt,'in')"/>
                <use id="zoomminus" xlink:href="#zoomMin" x="42" y="9" onmousedown="handleZoom(evt,'out')"/>
                <use id="reset" xlink:href="#resetDef" x="30" y="36" onmousedown="handleReset()"/>
                <g id="arrowUp" xlink:href="#dirArrow" transform="translate(30 24)" onmousedown="handlePan(0,-1)">
                  <use xlink:href="#rim" fill="#404040">
                        <set attributeName="fill" to="#808080" begin="arrowUp.mouseover" end="arrowUp.mouseout"/>
                  </use>
                  <path fill="none" stroke="white" stroke-width="1.5" d="M0,-3.0v7 M-2.5,-0.5L0,-3.0L2.5,-0.5"/>
                </g>
                <g id="arrowRight" xlink:href="#dirArrow" transform="rotate(90) translate(36 -43)" onmousedown="handlePan(1,0)">
                  <use xlink:href="#rim" fill="#404040">
                        <set attributeName="fill" to="#808080" begin="arrowRight.mouseover" end="arrowRight.mouseout"/>
                  </use>
                  <path fill="none" stroke="white" stroke-width="1.5" d="M0,-3.0v7 M-2.5,-0.5L0,-3.0L2.5,-0.5"/>
                </g>
                <g id="arrowDown" xlink:href="#dirArrow" transform="rotate(180) translate(-30 -48)" onmousedown="handlePan(0,1)">
                  <use xlink:href="#rim" fill="#404040">
                        <set attributeName="fill" to="#808080" begin="arrowDown.mouseover" end="arrowDown.mouseout"/>
                  </use>
                  <path fill="none" stroke="white" stroke-width="1.5" d="M0,-3.0v7 M-2.5,-0.5L0,-3.0L2.5,-0.5"/>
                </g>
                <g id="arrowLeft" xlink:href="#dirArrow" transform="rotate(270) translate(-36 17)" onmousedown="handlePan(-1,0)">
                  <use xlink:href="#rim" fill="#404040">
                        <set attributeName="fill" to="#808080" begin="arrowLeft.mouseover" end="arrowLeft.mouseout"/>
                  </use>
                  <path fill="none" stroke="white" stroke-width="1.5" d="M0,-3.0v7 M-2.5,-0.5L0,-3.0L2.5,-0.5"/>
                </g>
        </g>
        <svg viewBox="0 0 15 15" width="100%" height="30px" preserveAspectRatio="xMaxYMin meet">
         <g id="arrow_out" transform="scale(0.3 0.3)">
          <a xlink:href="vdomdocument_8h__dep__incl_org.svg" target="_base">
           <rect id="button" ry="5" rx="5" y="6" x="6" height="38" width="38"
                fill="#f2f5e9" fill-opacity="0.5" stroke="#606060" stroke-width="1.0"/>
           <path id="arrow"
             d="M 11.500037,31.436501 C 11.940474,20.09759 22.043105,11.32322 32.158766,21.979434 L 37.068811,17.246167 C 37.068811,17.246167 37.088388,32 37.088388,32 L 22.160133,31.978069 C 22.160133,31.978069 26.997745,27.140456 26.997745,27.140456 C 18.528582,18.264221 13.291696,25.230495 11.500037,31.436501 z"
             style="fill:#404040;"/>
          </a>
         </g>
        </svg>
</svg>
