<?xml version="1.0" encoding="UTF-8" standalone="no"?>
<!DOCTYPE svg PUBLIC "-//W3C//DTD SVG 1.1//EN"
 "http://www.w3.org/Graphics/SVG/1.1/DTD/svg11.dtd">
<!-- Generated by graphviz version 2.43.0 (0)
 -->
<!-- Title: src/libs/ifc/xml/vdomdocument.h Pages: 1 -->
<svg width="3041pt" height="296pt"
 viewBox="0.00 0.00 3041.00 296.00" xmlns="http://www.w3.org/2000/svg" xmlns:xlink="http://www.w3.org/1999/xlink">
<g id="graph0" class="graph" transform="scale(1 1) rotate(0) translate(4 292)">
<title>src/libs/ifc/xml/vdomdocument.h</title>
<polygon fill="white" stroke="transparent" points="-4,4 -4,-292 3037,-292 3037,4 -4,4"/>
<!-- Node1 -->
<g id="node1" class="node">
<title>Node1</title>
<g id="a_node1"><a xlink:title=" ">
<polygon fill="#bfbfbf" stroke="black" points="1236.5,-268.5 1236.5,-287.5 1412.5,-287.5 1412.5,-268.5 1236.5,-268.5"/>
<text text-anchor="middle" x="1324.5" y="-275.5" font-family="Helvetica,sans-Serif" font-size="10.00">src/libs/ifc/xml/vdomdocument.h</text>
</a>
</g>
</g>
<!-- Node2 -->
<g id="node2" class="node">
<title>Node2</title>
<g id="a_node2"><a xlink:href="../../d0/da1/abstract__converter_8h.html" target="_top" xlink:title=" ">
<polygon fill="white" stroke="black" points="806,-201.5 806,-231.5 937,-231.5 937,-201.5 806,-201.5"/>
<text text-anchor="start" x="814" y="-219.5" font-family="Helvetica,sans-Serif" font-size="10.00">src/libs/ifc/xml/abstract</text>
<text text-anchor="middle" x="871.5" y="-208.5" font-family="Helvetica,sans-Serif" font-size="10.00">_converter.h</text>
</a>
</g>
</g>
<!-- Node1&#45;&gt;Node2 -->
<g id="edge1" class="edge">
<title>Node1&#45;&gt;Node2</title>
<path fill="none" stroke="midnightblue" d="M1249.51,-267.15C1162.35,-255.7 1019.91,-236.99 937.02,-226.11"/>
<polygon fill="midnightblue" stroke="midnightblue" points="1249.23,-270.64 1259.6,-268.48 1250.14,-263.7 1249.23,-270.64"/>
</g>
<!-- Node10 -->
<g id="node10" class="node">
<title>Node10</title>
<g id="a_node10"><a xlink:href="../../d0/d08/abstract__converter_8cpp.html" target="_top" xlink:title=" ">
<polygon fill="white" stroke="black" points="1189,-134.5 1189,-164.5 1320,-164.5 1320,-134.5 1189,-134.5"/>
<text text-anchor="start" x="1197" y="-152.5" font-family="Helvetica,sans-Serif" font-size="10.00">src/libs/ifc/xml/abstract</text>
<text text-anchor="middle" x="1254.5" y="-141.5" font-family="Helvetica,sans-Serif" font-size="10.00">_converter.cpp</text>
</a>
</g>
</g>
<!-- Node1&#45;&gt;Node10 -->
<g id="edge24" class="edge">
<title>Node1&#45;&gt;Node10</title>
<path fill="none" stroke="midnightblue" d="M1314.8,-259.47C1300.84,-234.25 1275.38,-188.22 1262.46,-164.89"/>
<polygon fill="midnightblue" stroke="midnightblue" points="1311.78,-261.25 1319.69,-268.31 1317.91,-257.86 1311.78,-261.25"/>
</g>
<!-- Node16 -->
<g id="node16" class="node">
<title>Node16</title>
<g id="a_node16"><a xlink:href="../../de/d7d/vabstractpattern_8cpp.html" target="_top" xlink:title=" ">
<polygon fill="white" stroke="black" points="1218.5,-73 1218.5,-92 1410.5,-92 1410.5,-73 1218.5,-73"/>
<text text-anchor="middle" x="1314.5" y="-80" font-family="Helvetica,sans-Serif" font-size="10.00">src/libs/ifc/xml/vabstractpattern.cpp</text>
</a>
</g>
</g>
<!-- Node1&#45;&gt;Node16 -->
<g id="edge48" class="edge">
<title>Node1&#45;&gt;Node16</title>
<path fill="none" stroke="midnightblue" d="M1326.97,-258.1C1330.13,-230.63 1334.51,-178.14 1328.5,-134 1326.46,-119.04 1321.18,-102.24 1317.72,-92.29"/>
<polygon fill="midnightblue" stroke="midnightblue" points="1323.47,-257.89 1325.73,-268.24 1330.42,-258.74 1323.47,-257.89"/>
</g>
<!-- Node18 -->
<g id="node18" class="node">
<title>Node18</title>
<g id="a_node18"><a xlink:href="../../d7/d49/vdomdocument_8cpp.html" target="_top" xlink:title=" ">
<polygon fill="white" stroke="black" points="1834.5,-207 1834.5,-226 2022.5,-226 2022.5,-207 1834.5,-207"/>
<text text-anchor="middle" x="1928.5" y="-214" font-family="Helvetica,sans-Serif" font-size="10.00">src/libs/ifc/xml/vdomdocument.cpp</text>
</a>
</g>
</g>
<!-- Node1&#45;&gt;Node18 -->
<g id="edge25" class="edge">
<title>Node1&#45;&gt;Node18</title>
<path fill="none" stroke="midnightblue" d="M1423.08,-269.62C1524.22,-261.7 1686.06,-248.07 1825.5,-232 1840.48,-230.27 1856.65,-228.13 1871.63,-226.03"/>
<polygon fill="midnightblue" stroke="midnightblue" points="1422.57,-266.15 1412.88,-270.41 1423.12,-273.13 1422.57,-266.15"/>
</g>
<!-- Node19 -->
<g id="node19" class="node">
<title>Node19</title>
<g id="a_node19"><a xlink:href="../../d0/d89/vabstractpattern_8h.html" target="_top" xlink:title=" ">
<polygon fill="white" stroke="black" points="1635,-207 1635,-226 1816,-226 1816,-207 1635,-207"/>
<text text-anchor="middle" x="1725.5" y="-214" font-family="Helvetica,sans-Serif" font-size="10.00">src/libs/ifc/xml/vabstractpattern.h</text>
</a>
</g>
</g>
<!-- Node1&#45;&gt;Node19 -->
<g id="edge26" class="edge">
<title>Node1&#45;&gt;Node19</title>
<path fill="none" stroke="midnightblue" d="M1392.09,-266.97C1469.58,-255.47 1595.25,-236.83 1668.15,-226.01"/>
<polygon fill="midnightblue" stroke="midnightblue" points="1391.33,-263.55 1381.95,-268.48 1392.36,-270.47 1391.33,-263.55"/>
</g>
<!-- Node20 -->
<g id="node20" class="node">
<title>Node20</title>
<g id="a_node20"><a xlink:href="../../d2/d47/image__dialog_8cpp.html" target="_top" xlink:title=" ">
<polygon fill="white" stroke="black" points="1376.5,-134.5 1376.5,-164.5 1488.5,-164.5 1488.5,-134.5 1376.5,-134.5"/>
<text text-anchor="start" x="1384.5" y="-152.5" font-family="Helvetica,sans-Serif" font-size="10.00">src/libs/tools/image</text>
<text text-anchor="middle" x="1432.5" y="-141.5" font-family="Helvetica,sans-Serif" font-size="10.00">_dialog.cpp</text>
</a>
</g>
</g>
<!-- Node1&#45;&gt;Node20 -->
<g id="edge49" class="edge">
<title>Node1&#45;&gt;Node20</title>
<path fill="none" stroke="midnightblue" d="M1338.62,-260.46C1359.95,-235.48 1400.03,-188.53 1420.22,-164.89"/>
<polygon fill="midnightblue" stroke="midnightblue" points="1335.75,-258.43 1331.92,-268.31 1341.08,-262.97 1335.75,-258.43"/>
</g>
<!-- Node38 -->
<g id="node38" class="node">
<title>Node38</title>
<g id="a_node38"><a xlink:href="../../dc/db7/measurements_8h.html" target="_top" xlink:title=" ">
<polygon fill="white" stroke="black" points="0,-207 0,-226 179,-226 179,-207 0,-207"/>
<text text-anchor="middle" x="89.5" y="-214" font-family="Helvetica,sans-Serif" font-size="10.00">src/libs/vformat/measurements.h</text>
</a>
</g>
</g>
<!-- Node1&#45;&gt;Node38 -->
<g id="edge50" class="edge">
<title>Node1&#45;&gt;Node38</title>
<path fill="none" stroke="midnightblue" d="M1225.97,-272.25C991.73,-260.97 404.41,-232.67 179.27,-221.83"/>
<polygon fill="midnightblue" stroke="midnightblue" points="1226.02,-275.76 1236.18,-272.74 1226.36,-268.77 1226.02,-275.76"/>
</g>
<!-- Node39 -->
<g id="node39" class="node">
<title>Node39</title>
<g id="a_node39"><a xlink:href="../../d2/d8a/vlabeltemplate_8h.html" target="_top" xlink:title=" ">
<polygon fill="white" stroke="black" points="472,-207 472,-226 651,-226 651,-207 472,-207"/>
<text text-anchor="middle" x="561.5" y="-214" font-family="Helvetica,sans-Serif" font-size="10.00">src/libs/vformat/vlabeltemplate.h</text>
</a>
</g>
</g>
<!-- Node1&#45;&gt;Node39 -->
<g id="edge52" class="edge">
<title>Node1&#45;&gt;Node39</title>
<path fill="none" stroke="midnightblue" d="M1226.15,-269.33C1076.79,-257.68 794.98,-235.71 651.04,-224.48"/>
<polygon fill="midnightblue" stroke="midnightblue" points="1225.99,-272.83 1236.23,-270.12 1226.53,-265.85 1225.99,-272.83"/>
</g>
<!-- Node3 -->
<g id="node3" class="node">
<title>Node3</title>
<g id="a_node3"><a xlink:href="../../da/d2c/abstract__m__converter_8h.html" target="_top" xlink:title=" ">
<polygon fill="white" stroke="black" points="759,-134.5 759,-164.5 890,-164.5 890,-134.5 759,-134.5"/>
<text text-anchor="start" x="767" y="-152.5" font-family="Helvetica,sans-Serif" font-size="10.00">src/libs/ifc/xml/abstract</text>
<text text-anchor="middle" x="824.5" y="-141.5" font-family="Helvetica,sans-Serif" font-size="10.00">_m_converter.h</text>
</a>
</g>
</g>
<!-- Node2&#45;&gt;Node3 -->
<g id="edge2" class="edge">
<title>Node2&#45;&gt;Node3</title>
<path fill="none" stroke="midnightblue" d="M855.34,-193.16C848.49,-183.68 840.71,-172.92 834.68,-164.58"/>
<polygon fill="midnightblue" stroke="midnightblue" points="852.61,-195.34 861.3,-201.4 858.28,-191.24 852.61,-195.34"/>
</g>
<!-- Node5 -->
<g id="node5" class="node">
<title>Node5</title>
<g id="a_node5"><a xlink:href="../../d0/d93/individual__size__converter_8h.html" target="_top" xlink:title=" ">
<polygon fill="white" stroke="black" points="485,-67.5 485,-97.5 624,-97.5 624,-67.5 485,-67.5"/>
<text text-anchor="start" x="493" y="-85.5" font-family="Helvetica,sans-Serif" font-size="10.00">src/libs/ifc/xml/individual</text>
<text text-anchor="middle" x="554.5" y="-74.5" font-family="Helvetica,sans-Serif" font-size="10.00">_size_converter.h</text>
</a>
</g>
</g>
<!-- Node2&#45;&gt;Node5 -->
<g id="edge13" class="edge">
<title>Node2&#45;&gt;Node5</title>
<path fill="none" stroke="midnightblue" d="M795.46,-212.64C716.33,-208.02 599.66,-196 568.5,-165 550.79,-147.38 550.69,-116.06 552.44,-97.81"/>
<polygon fill="midnightblue" stroke="midnightblue" points="795.71,-216.16 805.89,-213.22 796.09,-209.17 795.71,-216.16"/>
</g>
<!-- Node7 -->
<g id="node7" class="node">
<title>Node7</title>
<g id="a_node7"><a xlink:href="../../d5/d4c/multi__size__converter_8h.html" target="_top" xlink:title=" ">
<polygon fill="white" stroke="black" points="642.5,-67.5 642.5,-97.5 758.5,-97.5 758.5,-67.5 642.5,-67.5"/>
<text text-anchor="start" x="650.5" y="-85.5" font-family="Helvetica,sans-Serif" font-size="10.00">src/libs/ifc/xml/multi</text>
<text text-anchor="middle" x="700.5" y="-74.5" font-family="Helvetica,sans-Serif" font-size="10.00">_size_converter.h</text>
</a>
</g>
</g>
<!-- Node2&#45;&gt;Node7 -->
<g id="edge14" class="edge">
<title>Node2&#45;&gt;Node7</title>
<path fill="none" stroke="midnightblue" d="M795.59,-213.16C718.2,-208.98 605.75,-197.35 578.5,-165 553.15,-134.9 602.83,-111.45 646.22,-97.58"/>
<polygon fill="midnightblue" stroke="midnightblue" points="795.62,-216.66 805.79,-213.67 795.98,-209.67 795.62,-216.66"/>
</g>
<!-- Node9 -->
<g id="node9" class="node">
<title>Node9</title>
<g id="a_node9"><a xlink:href="../../de/dec/abstract__m__converter_8cpp.html" target="_top" xlink:title=" ">
<polygon fill="white" stroke="black" points="853,-67.5 853,-97.5 984,-97.5 984,-67.5 853,-67.5"/>
<text text-anchor="start" x="861" y="-85.5" font-family="Helvetica,sans-Serif" font-size="10.00">src/libs/ifc/xml/abstract</text>
<text text-anchor="middle" x="918.5" y="-74.5" font-family="Helvetica,sans-Serif" font-size="10.00">_m_converter.cpp</text>
</a>
</g>
</g>
<!-- Node2&#45;&gt;Node9 -->
<g id="edge15" class="edge">
<title>Node2&#45;&gt;Node9</title>
<path fill="none" stroke="midnightblue" d="M885.36,-192.51C890.02,-184.07 894.93,-174.31 898.5,-165 907.26,-142.14 913.13,-114.19 916.14,-97.67"/>
<polygon fill="midnightblue" stroke="midnightblue" points="882.22,-190.95 880.29,-201.37 888.3,-194.43 882.22,-190.95"/>
</g>
<!-- Node2&#45;&gt;Node10 -->
<g id="edge12" class="edge">
<title>Node2&#45;&gt;Node10</title>
<path fill="none" stroke="midnightblue" d="M947.24,-203.7C1009.64,-193.82 1100.42,-179.12 1179.5,-165 1182.5,-164.46 1185.57,-163.91 1188.67,-163.34"/>
<polygon fill="midnightblue" stroke="midnightblue" points="946.41,-200.28 937.08,-205.3 947.51,-207.2 946.41,-200.28"/>
</g>
<!-- Node11 -->
<g id="node11" class="node">
<title>Node11</title>
<g id="a_node11"><a xlink:href="../../d4/d90/fvupdater_8cpp.html" target="_top" xlink:title=" ">
<polygon fill="white" stroke="black" points="588,-140 588,-159 741,-159 741,-140 588,-140"/>
<text text-anchor="middle" x="664.5" y="-147" font-family="Helvetica,sans-Serif" font-size="10.00">src/libs/fervor/fvupdater.cpp</text>
</a>
</g>
</g>
<!-- Node2&#45;&gt;Node11 -->
<g id="edge16" class="edge">
<title>Node2&#45;&gt;Node11</title>
<path fill="none" stroke="midnightblue" d="M817.14,-198.43C776.77,-185.75 723.42,-169 691.66,-159.03"/>
<polygon fill="midnightblue" stroke="midnightblue" points="816.25,-201.82 826.84,-201.48 818.35,-195.14 816.25,-201.82"/>
</g>
<!-- Node12 -->
<g id="node12" class="node">
<title>Node12</title>
<g id="a_node12"><a xlink:href="../../d5/d35/vlabeltemplateconverter_8h.html" target="_top" xlink:title=" ">
<polygon fill="white" stroke="black" points="241.5,-140 241.5,-159 461.5,-159 461.5,-140 241.5,-140"/>
<text text-anchor="middle" x="351.5" y="-147" font-family="Helvetica,sans-Serif" font-size="10.00">src/libs/ifc/xml/vlabeltemplateconverter.h</text>
</a>
</g>
</g>
<!-- Node2&#45;&gt;Node12 -->
<g id="edge17" class="edge">
<title>Node2&#45;&gt;Node12</title>
<path fill="none" stroke="midnightblue" d="M795.76,-206.03C694.63,-193.39 516.99,-171.19 419.79,-159.04"/>
<polygon fill="midnightblue" stroke="midnightblue" points="795.55,-209.53 805.91,-207.3 796.42,-202.59 795.55,-209.53"/>
</g>
<!-- Node15 -->
<g id="node15" class="node">
<title>Node15</title>
<g id="a_node15"><a xlink:href="../../df/d2f/vpatternconverter_8h.html" target="_top" xlink:title=" ">
<polygon fill="white" stroke="black" points="984,-140 984,-159 1171,-159 1171,-140 984,-140"/>
<text text-anchor="middle" x="1077.5" y="-147" font-family="Helvetica,sans-Serif" font-size="10.00">src/libs/ifc/xml/vpatternconverter.h</text>
</a>
</g>
</g>
<!-- Node2&#45;&gt;Node15 -->
<g id="edge20" class="edge">
<title>Node2&#45;&gt;Node15</title>
<path fill="none" stroke="midnightblue" d="M925.6,-198.43C965.77,-185.75 1018.87,-169 1050.47,-159.03"/>
<polygon fill="midnightblue" stroke="midnightblue" points="924.43,-195.13 915.95,-201.48 926.54,-201.8 924.43,-195.13"/>
</g>
<!-- Node17 -->
<g id="node17" class="node">
<title>Node17</title>
<g id="a_node17"><a xlink:href="../../d5/d2c/vpatternconverter_8cpp.html" target="_top" xlink:title=" ">
<polygon fill="white" stroke="black" points="1002.5,-73 1002.5,-92 1200.5,-92 1200.5,-73 1002.5,-73"/>
<text text-anchor="middle" x="1101.5" y="-80" font-family="Helvetica,sans-Serif" font-size="10.00">src/libs/ifc/xml/vpatternconverter.cpp</text>
</a>
</g>
</g>
<!-- Node2&#45;&gt;Node17 -->
<g id="edge23" class="edge">
<title>Node2&#45;&gt;Node17</title>
<path fill="none" stroke="midnightblue" d="M894.15,-194.37C914.14,-176.54 944.65,-151.25 974.5,-134 1006.65,-115.42 1046.96,-100.69 1073.43,-92.04"/>
<polygon fill="midnightblue" stroke="midnightblue" points="891.59,-191.97 886.52,-201.27 896.29,-197.16 891.59,-191.97"/>
</g>
<!-- Node4 -->
<g id="node4" class="node">
<title>Node4</title>
<g id="a_node4"><a xlink:href="../../d5/d6e/individual__size__converter_8cpp.html" target="_top" xlink:title=" ">
<polygon fill="white" stroke="black" points="609,-0.5 609,-30.5 748,-30.5 748,-0.5 609,-0.5"/>
<text text-anchor="start" x="617" y="-18.5" font-family="Helvetica,sans-Serif" font-size="10.00">src/libs/ifc/xml/individual</text>
<text text-anchor="middle" x="678.5" y="-7.5" font-family="Helvetica,sans-Serif" font-size="10.00">_size_converter.cpp</text>
</a>
</g>
</g>
<!-- Node3&#45;&gt;Node4 -->
<g id="edge3" class="edge">
<title>Node3&#45;&gt;Node4</title>
<path fill="none" stroke="midnightblue" d="M812.11,-125.37C801.87,-107.8 786.03,-83.86 767.5,-67 750.94,-51.93 729.13,-39.47 711.23,-30.69"/>
<polygon fill="midnightblue" stroke="midnightblue" points="809.24,-127.41 817.21,-134.39 815.34,-123.96 809.24,-127.41"/>
</g>
<!-- Node3&#45;&gt;Node5 -->
<g id="edge4" class="edge">
<title>Node3&#45;&gt;Node5</title>
<path fill="none" stroke="midnightblue" d="M756.45,-132.12C712.27,-121.48 655.28,-107.76 613.11,-97.61"/>
<polygon fill="midnightblue" stroke="midnightblue" points="755.7,-135.54 766.25,-134.48 757.34,-128.73 755.7,-135.54"/>
</g>
<!-- Node3&#45;&gt;Node7 -->
<g id="edge7" class="edge">
<title>Node3&#45;&gt;Node7</title>
<path fill="none" stroke="midnightblue" d="M788.66,-129.71C769.11,-119.46 745.3,-106.98 727.35,-97.58"/>
<polygon fill="midnightblue" stroke="midnightblue" points="787.11,-132.85 797.59,-134.4 790.36,-126.65 787.11,-132.85"/>
</g>
<!-- Node8 -->
<g id="node8" class="node">
<title>Node8</title>
<g id="a_node8"><a xlink:href="../../d9/d94/multi__size__converter_8cpp.html" target="_top" xlink:title=" ">
<polygon fill="white" stroke="black" points="766.5,-0.5 766.5,-30.5 882.5,-30.5 882.5,-0.5 766.5,-0.5"/>
<text text-anchor="start" x="774.5" y="-18.5" font-family="Helvetica,sans-Serif" font-size="10.00">src/libs/ifc/xml/multi</text>
<text text-anchor="middle" x="824.5" y="-7.5" font-family="Helvetica,sans-Serif" font-size="10.00">_size_converter.cpp</text>
</a>
</g>
</g>
<!-- Node3&#45;&gt;Node8 -->
<g id="edge11" class="edge">
<title>Node3&#45;&gt;Node8</title>
<path fill="none" stroke="midnightblue" d="M824.5,-124.02C824.5,-96.51 824.5,-52.79 824.5,-30.52"/>
<polygon fill="midnightblue" stroke="midnightblue" points="821,-124.37 824.5,-134.37 828,-124.37 821,-124.37"/>
</g>
<!-- Node3&#45;&gt;Node9 -->
<g id="edge10" class="edge">
<title>Node3&#45;&gt;Node9</title>
<path fill="none" stroke="midnightblue" d="M853.49,-128.45C867.95,-118.45 885.09,-106.6 898.14,-97.58"/>
<polygon fill="midnightblue" stroke="midnightblue" points="851.13,-125.83 844.9,-134.4 855.11,-131.59 851.13,-125.83"/>
</g>
<!-- Node5&#45;&gt;Node4 -->
<g id="edge5" class="edge">
<title>Node5&#45;&gt;Node4</title>
<path fill="none" stroke="midnightblue" d="M590.34,-62.71C609.89,-52.46 633.7,-39.98 651.65,-30.58"/>
<polygon fill="midnightblue" stroke="midnightblue" points="588.64,-59.65 581.41,-67.4 591.89,-65.85 588.64,-59.65"/>
</g>
<!-- Node6 -->
<g id="node6" class="node">
<title>Node6</title>
<g id="a_node6"><a xlink:href="../../d9/de3/measurements_8cpp.html" target="_top" xlink:title=" ">
<polygon fill="white" stroke="black" points="400.5,-6 400.5,-25 590.5,-25 590.5,-6 400.5,-6"/>
<text text-anchor="middle" x="495.5" y="-13" font-family="Helvetica,sans-Serif" font-size="10.00">src/libs/vformat/measurements.cpp</text>
</a>
</g>
</g>
<!-- Node5&#45;&gt;Node6 -->
<g id="edge6" class="edge">
<title>Node5&#45;&gt;Node6</title>
<path fill="none" stroke="midnightblue" d="M534.67,-59.66C523.97,-47.86 511.35,-33.97 503.39,-25.19"/>
<polygon fill="midnightblue" stroke="midnightblue" points="532.39,-62.34 541.7,-67.4 537.57,-57.64 532.39,-62.34"/>
</g>
<!-- Node7&#45;&gt;Node6 -->
<g id="edge9" class="edge">
<title>Node7&#45;&gt;Node6</title>
<path fill="none" stroke="midnightblue" d="M646.66,-64.43C606.69,-51.75 553.85,-35 522.4,-25.03"/>
<polygon fill="midnightblue" stroke="midnightblue" points="645.68,-67.79 656.27,-67.48 647.8,-61.12 645.68,-67.79"/>
</g>
<!-- Node7&#45;&gt;Node8 -->
<g id="edge8" class="edge">
<title>Node7&#45;&gt;Node8</title>
<path fill="none" stroke="midnightblue" d="M736.34,-62.71C755.89,-52.46 779.7,-39.98 797.65,-30.58"/>
<polygon fill="midnightblue" stroke="midnightblue" points="734.64,-59.65 727.41,-67.4 737.89,-65.85 734.64,-59.65"/>
</g>
<!-- Node13 -->
<g id="node13" class="node">
<title>Node13</title>
<g id="a_node13"><a xlink:href="../../d7/d63/vlabeltemplateconverter_8cpp.html" target="_top" xlink:title=" ">
<polygon fill="white" stroke="black" points="236,-73 236,-92 467,-92 467,-73 236,-73"/>
<text text-anchor="middle" x="351.5" y="-80" font-family="Helvetica,sans-Serif" font-size="10.00">src/libs/ifc/xml/vlabeltemplateconverter.cpp</text>
</a>
</g>
</g>
<!-- Node12&#45;&gt;Node13 -->
<g id="edge18" class="edge">
<title>Node12&#45;&gt;Node13</title>
<path fill="none" stroke="midnightblue" d="M351.5,-129.54C351.5,-117.17 351.5,-101.62 351.5,-92.13"/>
<polygon fill="midnightblue" stroke="midnightblue" points="348,-129.73 351.5,-139.73 355,-129.73 348,-129.73"/>
</g>
<!-- Node14 -->
<g id="node14" class="node">
<title>Node14</title>
<g id="a_node14"><a xlink:href="../../d9/daf/vlabeltemplate_8cpp.html" target="_top" xlink:title=" ">
<polygon fill="white" stroke="black" points="27,-73 27,-92 218,-92 218,-73 27,-73"/>
<text text-anchor="middle" x="122.5" y="-80" font-family="Helvetica,sans-Serif" font-size="10.00">src/libs/vformat/vlabeltemplate.cpp</text>
</a>
</g>
</g>
<!-- Node12&#45;&gt;Node14 -->
<g id="edge19" class="edge">
<title>Node12&#45;&gt;Node14</title>
<path fill="none" stroke="midnightblue" d="M311.31,-137.09C266,-124.23 193.38,-103.62 152.67,-92.06"/>
<polygon fill="midnightblue" stroke="midnightblue" points="310.51,-140.5 321.09,-139.87 312.43,-133.77 310.51,-140.5"/>
</g>
<!-- Node15&#45;&gt;Node16 -->
<g id="edge21" class="edge">
<title>Node15&#45;&gt;Node16</title>
<path fill="none" stroke="midnightblue" d="M1118.8,-137.17C1165.67,-124.32 1241.06,-103.64 1283.28,-92.06"/>
<polygon fill="midnightblue" stroke="midnightblue" points="1117.69,-133.85 1108.97,-139.87 1119.54,-140.6 1117.69,-133.85"/>
</g>
<!-- Node15&#45;&gt;Node17 -->
<g id="edge22" class="edge">
<title>Node15&#45;&gt;Node17</title>
<path fill="none" stroke="midnightblue" d="M1084.22,-130.29C1088.83,-117.81 1094.74,-101.81 1098.31,-92.13"/>
<polygon fill="midnightblue" stroke="midnightblue" points="1080.92,-129.14 1080.74,-139.73 1087.48,-131.57 1080.92,-129.14"/>
</g>
<!-- Node19&#45;&gt;Node16 -->
<g id="edge27" class="edge">
<title>Node19&#45;&gt;Node16</title>
<path fill="none" stroke="midnightblue" d="M1658.92,-204.99C1621.27,-197.32 1574.15,-184.73 1535.5,-165 1516.09,-155.09 1516.87,-144 1497.5,-134 1456.21,-112.67 1404.89,-99.52 1367.11,-92.01"/>
<polygon fill="midnightblue" stroke="midnightblue" points="1658.28,-208.44 1668.77,-206.93 1659.64,-201.57 1658.28,-208.44"/>
</g>
<!-- Node19&#45;&gt;Node20 -->
<g id="edge28" class="edge">
<title>Node19&#45;&gt;Node20</title>
<path fill="none" stroke="midnightblue" d="M1676.94,-204.73C1625.1,-193.23 1543.04,-175.02 1488.5,-162.92"/>
<polygon fill="midnightblue" stroke="midnightblue" points="1676.37,-208.19 1686.89,-206.94 1677.89,-201.35 1676.37,-208.19"/>
</g>
<!-- Node21 -->
<g id="node21" class="node">
<title>Node21</title>
<g id="a_node21"><a xlink:href="../../d6/de0/vlayoutpiece_8h.html" target="_top" xlink:title=" ">
<polygon fill="white" stroke="black" points="1907.5,-140 1907.5,-159 2073.5,-159 2073.5,-140 1907.5,-140"/>
<text text-anchor="middle" x="1990.5" y="-147" font-family="Helvetica,sans-Serif" font-size="10.00">src/libs/vlayout/vlayoutpiece.h</text>
</a>
</g>
</g>
<!-- Node19&#45;&gt;Node21 -->
<g id="edge29" class="edge">
<title>Node19&#45;&gt;Node21</title>
<path fill="none" stroke="midnightblue" d="M1770.41,-204.48C1822.68,-191.66 1907.9,-170.76 1955.51,-159.08"/>
<polygon fill="midnightblue" stroke="midnightblue" points="1769.29,-201.15 1760.42,-206.94 1770.96,-207.95 1769.29,-201.15"/>
</g>
<!-- Node31 -->
<g id="node31" class="node">
<title>Node31</title>
<g id="a_node31"><a xlink:href="../../d8/d70/vtextmanager_8cpp.html" target="_top" xlink:title=" ">
<polygon fill="white" stroke="black" points="2091.5,-140 2091.5,-159 2273.5,-159 2273.5,-140 2091.5,-140"/>
<text text-anchor="middle" x="2182.5" y="-147" font-family="Helvetica,sans-Serif" font-size="10.00">src/libs/vlayout/vtextmanager.cpp</text>
</a>
</g>
</g>
<!-- Node19&#45;&gt;Node31 -->
<g id="edge41" class="edge">
<title>Node19&#45;&gt;Node31</title>
<path fill="none" stroke="midnightblue" d="M1793.96,-205.53C1804.52,-204 1815.3,-202.45 1825.5,-201 1939.68,-184.72 1968.32,-181.28 2082.5,-165 2095.96,-163.08 2110.43,-161 2124.08,-159.02"/>
<polygon fill="midnightblue" stroke="midnightblue" points="1793.32,-202.08 1783.92,-206.98 1794.32,-209.01 1793.32,-202.08"/>
</g>
<!-- Node32 -->
<g id="node32" class="node">
<title>Node32</title>
<g id="a_node32"><a xlink:href="../../d0/da5/export__format__combobox_8h.html" target="_top" xlink:title=" ">
<polygon fill="white" stroke="black" points="2292,-134.5 2292,-164.5 2425,-164.5 2425,-134.5 2292,-134.5"/>
<text text-anchor="start" x="2300" y="-152.5" font-family="Helvetica,sans-Serif" font-size="10.00">src/libs/vwidgets/export</text>
<text text-anchor="middle" x="2358.5" y="-141.5" font-family="Helvetica,sans-Serif" font-size="10.00">_format_combobox.h</text>
</a>
</g>
</g>
<!-- Node19&#45;&gt;Node32 -->
<g id="edge42" class="edge">
<title>Node19&#45;&gt;Node32</title>
<path fill="none" stroke="midnightblue" d="M1789.9,-205.53C1801.73,-203.88 1813.97,-202.29 1825.5,-201 2027.98,-178.37 2080.57,-192.13 2282.5,-165 2285.56,-164.59 2288.69,-164.13 2291.84,-163.65"/>
<polygon fill="midnightblue" stroke="midnightblue" points="1789.06,-202.11 1779.65,-206.99 1790.04,-209.04 1789.06,-202.11"/>
</g>
<!-- Node34 -->
<g id="node34" class="node">
<title>Node34</title>
<g id="a_node34"><a xlink:href="../../d7/df4/group__tablewidgetitem_8cpp.html" target="_top" xlink:title=" ">
<polygon fill="white" stroke="black" points="2443,-134.5 2443,-164.5 2572,-164.5 2572,-134.5 2443,-134.5"/>
<text text-anchor="start" x="2451" y="-152.5" font-family="Helvetica,sans-Serif" font-size="10.00">src/libs/vwidgets/group</text>
<text text-anchor="middle" x="2507.5" y="-141.5" font-family="Helvetica,sans-Serif" font-size="10.00">_tablewidgetitem.cpp</text>
</a>
</g>
</g>
<!-- Node19&#45;&gt;Node34 -->
<g id="edge44" class="edge">
<title>Node19&#45;&gt;Node34</title>
<path fill="none" stroke="midnightblue" d="M1788.48,-205.54C1800.74,-203.83 1813.5,-202.22 1825.5,-201 2095.24,-173.52 2165.56,-199.49 2434.5,-165 2437.19,-164.65 2439.93,-164.27 2442.7,-163.85"/>
<polygon fill="midnightblue" stroke="midnightblue" points="1787.74,-202.11 1778.33,-206.98 1788.73,-209.04 1787.74,-202.11"/>
</g>
<!-- Node35 -->
<g id="node35" class="node">
<title>Node35</title>
<g id="a_node35"><a xlink:href="../../d3/d86/page__format__combobox_8h.html" target="_top" xlink:title=" ">
<polygon fill="white" stroke="black" points="1751,-134.5 1751,-164.5 1876,-164.5 1876,-134.5 1751,-134.5"/>
<text text-anchor="start" x="1759" y="-152.5" font-family="Helvetica,sans-Serif" font-size="10.00">src/libs/vwidgets/page</text>
<text text-anchor="middle" x="1813.5" y="-141.5" font-family="Helvetica,sans-Serif" font-size="10.00">_format_combobox.h</text>
</a>
</g>
</g>
<!-- Node19&#45;&gt;Node35 -->
<g id="edge45" class="edge">
<title>Node19&#45;&gt;Node35</title>
<path fill="none" stroke="midnightblue" d="M1745.75,-200.54C1760.39,-189.73 1780.06,-175.2 1794.43,-164.59"/>
<polygon fill="midnightblue" stroke="midnightblue" points="1743.33,-197.98 1737.37,-206.73 1747.49,-203.61 1743.33,-197.98"/>
</g>
<!-- Node37 -->
<g id="node37" class="node">
<title>Node37</title>
<g id="a_node37"><a xlink:href="../../de/d22/vsimplecurve_8cpp.html" target="_top" xlink:title=" ">
<polygon fill="white" stroke="black" points="1544.5,-140 1544.5,-159 1732.5,-159 1732.5,-140 1544.5,-140"/>
<text text-anchor="middle" x="1638.5" y="-147" font-family="Helvetica,sans-Serif" font-size="10.00">src/libs/vwidgets/vsimplecurve.cpp</text>
</a>
</g>
</g>
<!-- Node19&#45;&gt;Node37 -->
<g id="edge47" class="edge">
<title>Node19&#45;&gt;Node37</title>
<path fill="none" stroke="midnightblue" d="M1705.51,-200.57C1688.34,-187.74 1664.18,-169.69 1650.05,-159.13"/>
<polygon fill="midnightblue" stroke="midnightblue" points="1703.66,-203.55 1713.77,-206.73 1707.85,-197.94 1703.66,-203.55"/>
</g>
<!-- Node22 -->
<g id="node22" class="node">
<title>Node22</title>
<g id="a_node22"><a xlink:href="../../dd/d66/vdxfengine_8cpp.html" target="_top" xlink:title=" ">
<polygon fill="white" stroke="black" points="1578.5,-73 1578.5,-92 1732.5,-92 1732.5,-73 1578.5,-73"/>
<text text-anchor="middle" x="1655.5" y="-80" font-family="Helvetica,sans-Serif" font-size="10.00">src/libs/vdxf/vdxfengine.cpp</text>
</a>
</g>
</g>
<!-- Node21&#45;&gt;Node22 -->
<g id="edge30" class="edge">
<title>Node21&#45;&gt;Node22</title>
<path fill="none" stroke="midnightblue" d="M1936.17,-137.96C1870.23,-125.16 1760.35,-103.84 1699.47,-92.03"/>
<polygon fill="midnightblue" stroke="midnightblue" points="1935.88,-141.47 1946.36,-139.94 1937.21,-134.59 1935.88,-141.47"/>
</g>
<!-- Node23 -->
<g id="node23" class="node">
<title>Node23</title>
<g id="a_node23"><a xlink:href="../../de/da8/vbank_8cpp.html" target="_top" xlink:title=" ">
<polygon fill="white" stroke="black" points="1750.5,-73 1750.5,-92 1894.5,-92 1894.5,-73 1750.5,-73"/>
<text text-anchor="middle" x="1822.5" y="-80" font-family="Helvetica,sans-Serif" font-size="10.00">src/libs/vlayout/vbank.cpp</text>
</a>
</g>
</g>
<!-- Node21&#45;&gt;Node23 -->
<g id="edge31" class="edge">
<title>Node21&#45;&gt;Node23</title>
<path fill="none" stroke="midnightblue" d="M1958.46,-136.1C1925.11,-123.2 1873.75,-103.33 1844.63,-92.06"/>
<polygon fill="midnightblue" stroke="midnightblue" points="1957.6,-139.52 1968.19,-139.87 1960.13,-133 1957.6,-139.52"/>
</g>
<!-- Node24 -->
<g id="node24" class="node">
<title>Node24</title>
<g id="a_node24"><a xlink:href="../../df/d5d/vcontour_8cpp.html" target="_top" xlink:title=" ">
<polygon fill="white" stroke="black" points="1912.5,-73 1912.5,-92 2068.5,-92 2068.5,-73 1912.5,-73"/>
<text text-anchor="middle" x="1990.5" y="-80" font-family="Helvetica,sans-Serif" font-size="10.00">src/libs/vlayout/vcontour.cpp</text>
</a>
</g>
</g>
<!-- Node21&#45;&gt;Node24 -->
<g id="edge32" class="edge">
<title>Node21&#45;&gt;Node24</title>
<path fill="none" stroke="midnightblue" d="M1990.5,-129.54C1990.5,-117.17 1990.5,-101.62 1990.5,-92.13"/>
<polygon fill="midnightblue" stroke="midnightblue" points="1987,-129.73 1990.5,-139.73 1994,-129.73 1987,-129.73"/>
</g>
<!-- Node25 -->
<g id="node25" class="node">
<title>Node25</title>
<g id="a_node25"><a xlink:href="../../d3/d39/vlayoutgenerator_8cpp.html" target="_top" xlink:title=" ">
<polygon fill="white" stroke="black" points="2087,-73 2087,-92 2284,-92 2284,-73 2087,-73"/>
<text text-anchor="middle" x="2185.5" y="-80" font-family="Helvetica,sans-Serif" font-size="10.00">src/libs/vlayout/vlayoutgenerator.cpp</text>
</a>
</g>
</g>
<!-- Node21&#45;&gt;Node25 -->
<g id="edge33" class="edge">
<title>Node21&#45;&gt;Node25</title>
<path fill="none" stroke="midnightblue" d="M2026.2,-136.6C2064.86,-123.71 2125.58,-103.47 2159.81,-92.06"/>
<polygon fill="midnightblue" stroke="midnightblue" points="2024.77,-133.39 2016.39,-139.87 2026.99,-140.03 2024.77,-133.39"/>
</g>
<!-- Node26 -->
<g id="node26" class="node">
<title>Node26</title>
<g id="a_node26"><a xlink:href="../../d2/d2d/vlayoutpaper__p_8h.html" target="_top" xlink:title=" ">
<polygon fill="white" stroke="black" points="2341,-73 2341,-92 2520,-92 2520,-73 2341,-73"/>
<text text-anchor="middle" x="2430.5" y="-80" font-family="Helvetica,sans-Serif" font-size="10.00">src/libs/vlayout/vlayoutpaper_p.h</text>
</a>
</g>
</g>
<!-- Node21&#45;&gt;Node26 -->
<g id="edge34" class="edge">
<title>Node21&#45;&gt;Node26</title>
<path fill="none" stroke="midnightblue" d="M2053.89,-138.41C2063.47,-136.91 2073.24,-135.4 2082.5,-134 2183.3,-118.74 2300.68,-101.9 2370.11,-92.03"/>
<polygon fill="midnightblue" stroke="midnightblue" points="2053.33,-134.95 2044,-139.96 2054.42,-141.87 2053.33,-134.95"/>
</g>
<!-- Node27 -->
<g id="node27" class="node">
<title>Node27</title>
<g id="a_node27"><a xlink:href="../../d1/dd1/vlayoutpaper_8cpp.html" target="_top" xlink:title=" ">
<polygon fill="white" stroke="black" points="2339.5,-6 2339.5,-25 2517.5,-25 2517.5,-6 2339.5,-6"/>
<text text-anchor="middle" x="2428.5" y="-13" font-family="Helvetica,sans-Serif" font-size="10.00">src/libs/vlayout/vlayoutpaper.cpp</text>
</a>
</g>
</g>
<!-- Node21&#45;&gt;Node27 -->
<g id="edge36" class="edge">
<title>Node21&#45;&gt;Node27</title>
<path fill="none" stroke="midnightblue" d="M2053.84,-138.35C2141.04,-124.32 2288.03,-100.43 2293.5,-98 2313.73,-89 2313.95,-79.1 2332.5,-67 2358.21,-50.23 2390.1,-34.34 2409.88,-25.01"/>
<polygon fill="midnightblue" stroke="midnightblue" points="2053.09,-134.92 2043.77,-139.97 2054.2,-141.84 2053.09,-134.92"/>
</g>
<!-- Node28 -->
<g id="node28" class="node">
<title>Node28</title>
<g id="a_node28"><a xlink:href="../../db/d5c/vposition_8h.html" target="_top" xlink:title=" ">
<polygon fill="white" stroke="black" points="2538.5,-73 2538.5,-92 2686.5,-92 2686.5,-73 2538.5,-73"/>
<text text-anchor="middle" x="2612.5" y="-80" font-family="Helvetica,sans-Serif" font-size="10.00">src/libs/vlayout/vposition.h</text>
</a>
</g>
</g>
<!-- Node21&#45;&gt;Node28 -->
<g id="edge37" class="edge">
<title>Node21&#45;&gt;Node28</title>
<path fill="none" stroke="midnightblue" d="M2050.2,-138.41C2060.94,-136.79 2072.04,-135.24 2082.5,-134 2280.42,-110.47 2331.79,-123.18 2529.5,-98 2542.12,-96.39 2555.75,-94.2 2568.25,-92.01"/>
<polygon fill="midnightblue" stroke="midnightblue" points="2049.41,-135 2040.06,-139.98 2050.48,-141.91 2049.41,-135"/>
</g>
<!-- Node30 -->
<g id="node30" class="node">
<title>Node30</title>
<g id="a_node30"><a xlink:href="../../dd/d70/vlayoutpiece_8cpp.html" target="_top" xlink:title=" ">
<polygon fill="white" stroke="black" points="2705,-73 2705,-92 2882,-92 2882,-73 2705,-73"/>
<text text-anchor="middle" x="2793.5" y="-80" font-family="Helvetica,sans-Serif" font-size="10.00">src/libs/vlayout/vlayoutpiece.cpp</text>
</a>
</g>
</g>
<!-- Node21&#45;&gt;Node30 -->
<g id="edge40" class="edge">
<title>Node21&#45;&gt;Node30</title>
<path fill="none" stroke="midnightblue" d="M2049.1,-138.39C2060.17,-136.73 2071.67,-135.17 2082.5,-134 2353.84,-104.72 2424.03,-126 2695.5,-98 2710.56,-96.45 2726.84,-94.25 2741.73,-92.03"/>
<polygon fill="midnightblue" stroke="midnightblue" points="2048.43,-134.95 2039.08,-139.93 2049.5,-141.87 2048.43,-134.95"/>
</g>
<!-- Node26&#45;&gt;Node27 -->
<g id="edge35" class="edge">
<title>Node26&#45;&gt;Node27</title>
<path fill="none" stroke="midnightblue" d="M2429.92,-62.54C2429.54,-50.17 2429.06,-34.62 2428.77,-25.13"/>
<polygon fill="midnightblue" stroke="midnightblue" points="2426.42,-62.85 2430.23,-72.73 2433.42,-62.63 2426.42,-62.85"/>
</g>
<!-- Node28&#45;&gt;Node27 -->
<g id="edge38" class="edge">
<title>Node28&#45;&gt;Node27</title>
<path fill="none" stroke="midnightblue" d="M2578.35,-69.44C2541.85,-56.54 2484.9,-36.42 2452.74,-25.06"/>
<polygon fill="midnightblue" stroke="midnightblue" points="2577.47,-72.84 2588.07,-72.87 2579.8,-66.24 2577.47,-72.84"/>
</g>
<!-- Node29 -->
<g id="node29" class="node">
<title>Node29</title>
<g id="a_node29"><a xlink:href="../../df/d76/vposition_8cpp.html" target="_top" xlink:title=" ">
<polygon fill="white" stroke="black" points="2535,-6 2535,-25 2694,-25 2694,-6 2535,-6"/>
<text text-anchor="middle" x="2614.5" y="-13" font-family="Helvetica,sans-Serif" font-size="10.00">src/libs/vlayout/vposition.cpp</text>
</a>
</g>
</g>
<!-- Node28&#45;&gt;Node29 -->
<g id="edge39" class="edge">
<title>Node28&#45;&gt;Node29</title>
<path fill="none" stroke="midnightblue" d="M2613.08,-62.54C2613.46,-50.17 2613.94,-34.62 2614.23,-25.13"/>
<polygon fill="midnightblue" stroke="midnightblue" points="2609.58,-62.63 2612.77,-72.73 2616.58,-62.85 2609.58,-62.63"/>
</g>
<!-- Node33 -->
<g id="node33" class="node">
<title>Node33</title>
<g id="a_node33"><a xlink:href="../../df/d40/export__format__combobox_8cpp.html" target="_top" xlink:title=" ">
<polygon fill="white" stroke="black" points="2900,-67.5 2900,-97.5 3033,-97.5 3033,-67.5 2900,-67.5"/>
<text text-anchor="start" x="2908" y="-85.5" font-family="Helvetica,sans-Serif" font-size="10.00">src/libs/vwidgets/export</text>
<text text-anchor="middle" x="2966.5" y="-74.5" font-family="Helvetica,sans-Serif" font-size="10.00">_format_combobox.cpp</text>
</a>
</g>
</g>
<!-- Node32&#45;&gt;Node33 -->
<g id="edge43" class="edge">
<title>Node32&#45;&gt;Node33</title>
<path fill="none" stroke="midnightblue" d="M2435.25,-134.01C2638.18,-107.45 2692.86,-124.94 2891.5,-98 2894.26,-97.63 2897.07,-97.22 2899.91,-96.78"/>
<polygon fill="midnightblue" stroke="midnightblue" points="2434.61,-130.57 2425.16,-135.35 2435.53,-137.5 2434.61,-130.57"/>
</g>
<!-- Node36 -->
<g id="node36" class="node">
<title>Node36</title>
<g id="a_node36"><a xlink:href="../../d2/d28/page__format__combobox_8cpp.html" target="_top" xlink:title=" ">
<polygon fill="white" stroke="black" points="1429,-67.5 1429,-97.5 1560,-97.5 1560,-67.5 1429,-67.5"/>
<text text-anchor="start" x="1437" y="-85.5" font-family="Helvetica,sans-Serif" font-size="10.00">src/libs/vwidgets/page</text>
<text text-anchor="middle" x="1494.5" y="-74.5" font-family="Helvetica,sans-Serif" font-size="10.00">_format_combobox.cpp</text>
</a>
</g>
</g>
<!-- Node35&#45;&gt;Node36 -->
<g id="edge46" class="edge">
<title>Node35&#45;&gt;Node36</title>
<path fill="none" stroke="midnightblue" d="M1740.93,-133.71C1686.51,-122.62 1612.65,-107.57 1560.02,-96.85"/>
<polygon fill="midnightblue" stroke="midnightblue" points="1740.36,-137.17 1750.86,-135.74 1741.76,-130.31 1740.36,-137.17"/>
</g>
<!-- Node38&#45;&gt;Node6 -->
<g id="edge51" class="edge">
<title>Node38&#45;&gt;Node6</title>
<path fill="none" stroke="midnightblue" d="M71.28,-199.9C39.51,-170.88 -19.27,-107.86 17.5,-67 42.6,-39.11 268.42,-25.48 400.49,-19.84"/>
<polygon fill="midnightblue" stroke="midnightblue" points="69.26,-202.79 79.06,-206.82 73.92,-197.56 69.26,-202.79"/>
</g>
<!-- Node39&#45;&gt;Node14 -->
<g id="edge53" class="edge">
<title>Node39&#45;&gt;Node14</title>
<path fill="none" stroke="midnightblue" d="M461.64,-212.65C394.62,-207.78 305.56,-195.46 232.5,-165 189.72,-147.17 148.29,-109.21 130.97,-92.14"/>
<polygon fill="midnightblue" stroke="midnightblue" points="461.57,-216.16 471.79,-213.35 462.05,-209.17 461.57,-216.16"/>
</g>
</g>
</svg>
