<?xml version="1.0" encoding="UTF-8" standalone="no"?>
<!DOCTYPE svg PUBLIC "-//W3C//DTD SVG 1.1//EN"
 "http://www.w3.org/Graphics/SVG/1.1/DTD/svg11.dtd">
<!-- Generated by graphviz version 2.43.0 (0)
 -->
<!-- Title: src/app/seamlyme/mapplication.h Pages: 1 -->
<svg width="2059pt" height="95pt"
 viewBox="0.00 0.00 2059.00 95.00" xmlns="http://www.w3.org/2000/svg" xmlns:xlink="http://www.w3.org/1999/xlink">
<g id="graph0" class="graph" transform="scale(1 1) rotate(0) translate(4 91)">
<title>src/app/seamlyme/mapplication.h</title>
<polygon fill="white" stroke="transparent" points="-4,4 -4,-91 2055,-91 2055,4 -4,4"/>
<!-- Node1 -->
<g id="node1" class="node">
<title>Node1</title>
<g id="a_node1"><a xlink:title=" ">
<polygon fill="#bfbfbf" stroke="black" points="988.5,-67.5 988.5,-86.5 1170.5,-86.5 1170.5,-67.5 988.5,-67.5"/>
<text text-anchor="middle" x="1079.5" y="-74.5" font-family="Helvetica,sans-Serif" font-size="10.00">src/app/seamlyme/mapplication.h</text>
</a>
</g>
</g>
<!-- Node2 -->
<g id="node2" class="node">
<title>Node2</title>
<g id="a_node2"><a xlink:href="../../d9/d23/seamlymepreferencesconfigurationpage_8cpp.html" target="_top" xlink:title=" ">
<polygon fill="white" stroke="black" points="0,-0.5 0,-30.5 299,-30.5 299,-0.5 0,-0.5"/>
<text text-anchor="start" x="8" y="-18.5" font-family="Helvetica,sans-Serif" font-size="10.00">src/app/seamlyme/dialogs</text>
<text text-anchor="middle" x="149.5" y="-7.5" font-family="Helvetica,sans-Serif" font-size="10.00">/configpages/seamlymepreferencesconfigurationpage.cpp</text>
</a>
</g>
</g>
<!-- Node1&#45;&gt;Node2 -->
<g id="edge1" class="edge">
<title>Node1&#45;&gt;Node2</title>
<path fill="none" stroke="midnightblue" d="M977.82,-71.15C830.11,-63.87 547.57,-49.01 307.5,-31 304.75,-30.79 301.98,-30.58 299.19,-30.36"/>
<polygon fill="midnightblue" stroke="midnightblue" points="978.06,-74.67 988.22,-71.67 978.41,-67.68 978.06,-74.67"/>
</g>
<!-- Node3 -->
<g id="node3" class="node">
<title>Node3</title>
<g id="a_node3"><a xlink:href="../../d8/dcc/seamlymepreferencespathpage_8cpp.html" target="_top" xlink:title=" ">
<polygon fill="white" stroke="black" points="317,-0.5 317,-30.5 574,-30.5 574,-0.5 317,-0.5"/>
<text text-anchor="start" x="325" y="-18.5" font-family="Helvetica,sans-Serif" font-size="10.00">src/app/seamlyme/dialogs</text>
<text text-anchor="middle" x="445.5" y="-7.5" font-family="Helvetica,sans-Serif" font-size="10.00">/configpages/seamlymepreferencespathpage.cpp</text>
</a>
</g>
</g>
<!-- Node1&#45;&gt;Node3 -->
<g id="edge2" class="edge">
<title>Node1&#45;&gt;Node3</title>
<path fill="none" stroke="midnightblue" d="M978.17,-67.28C877.71,-58.52 719.42,-44.44 582.5,-31 579.76,-30.73 576.99,-30.46 574.2,-30.18"/>
<polygon fill="midnightblue" stroke="midnightblue" points="978.05,-70.78 988.32,-68.16 978.66,-63.81 978.05,-70.78"/>
</g>
<!-- Node4 -->
<g id="node4" class="node">
<title>Node4</title>
<g id="a_node4"><a xlink:href="../../d1/d42/dialogmdatabase_8cpp.html" target="_top" xlink:title=" ">
<polygon fill="white" stroke="black" points="592,-0.5 592,-30.5 737,-30.5 737,-0.5 592,-0.5"/>
<text text-anchor="start" x="600" y="-18.5" font-family="Helvetica,sans-Serif" font-size="10.00">src/app/seamlyme/dialogs</text>
<text text-anchor="middle" x="664.5" y="-7.5" font-family="Helvetica,sans-Serif" font-size="10.00">/dialogmdatabase.cpp</text>
</a>
</g>
</g>
<!-- Node1&#45;&gt;Node4 -->
<g id="edge3" class="edge">
<title>Node1&#45;&gt;Node4</title>
<path fill="none" stroke="midnightblue" d="M999.47,-66.2C931.72,-57.67 832.1,-44.58 745.5,-31 742.82,-30.58 740.09,-30.14 737.33,-29.69"/>
<polygon fill="midnightblue" stroke="midnightblue" points="999.29,-69.71 1009.64,-67.48 1000.16,-62.76 999.29,-69.71"/>
</g>
<!-- Node5 -->
<g id="node5" class="node">
<title>Node5</title>
<g id="a_node5"><a xlink:href="../../d6/d8e/me__shortcuts__dialog_8cpp.html" target="_top" xlink:title=" ">
<polygon fill="white" stroke="black" points="755,-0.5 755,-30.5 900,-30.5 900,-0.5 755,-0.5"/>
<text text-anchor="start" x="763" y="-18.5" font-family="Helvetica,sans-Serif" font-size="10.00">src/app/seamlyme/dialogs</text>
<text text-anchor="middle" x="827.5" y="-7.5" font-family="Helvetica,sans-Serif" font-size="10.00">/me_shortcuts_dialog.cpp</text>
</a>
</g>
</g>
<!-- Node1&#45;&gt;Node5 -->
<g id="edge4" class="edge">
<title>Node1&#45;&gt;Node5</title>
<path fill="none" stroke="midnightblue" d="M1033.63,-65.17C992.45,-55.45 931.76,-41.12 886.89,-30.52"/>
<polygon fill="midnightblue" stroke="midnightblue" points="1032.86,-68.58 1043.39,-67.48 1034.47,-61.77 1032.86,-68.58"/>
</g>
<!-- Node6 -->
<g id="node6" class="node">
<title>Node6</title>
<g id="a_node6"><a xlink:href="../../dc/d74/me__welcome__dialog_8cpp.html" target="_top" xlink:title=" ">
<polygon fill="white" stroke="black" points="918,-0.5 918,-30.5 1063,-30.5 1063,-0.5 918,-0.5"/>
<text text-anchor="start" x="926" y="-18.5" font-family="Helvetica,sans-Serif" font-size="10.00">src/app/seamlyme/dialogs</text>
<text text-anchor="middle" x="990.5" y="-7.5" font-family="Helvetica,sans-Serif" font-size="10.00">/me_welcome_dialog.cpp</text>
</a>
</g>
</g>
<!-- Node1&#45;&gt;Node6 -->
<g id="edge5" class="edge">
<title>Node1&#45;&gt;Node6</title>
<path fill="none" stroke="midnightblue" d="M1058.17,-61.74C1044.02,-52.28 1025.55,-39.93 1011.48,-30.52"/>
<polygon fill="midnightblue" stroke="midnightblue" points="1056.49,-64.83 1066.75,-67.48 1060.38,-59.01 1056.49,-64.83"/>
</g>
<!-- Node7 -->
<g id="node7" class="node">
<title>Node7</title>
<g id="a_node7"><a xlink:href="../../d7/d31/new__measurements__dialog_8cpp.html" target="_top" xlink:title=" ">
<polygon fill="white" stroke="black" points="1081.5,-0.5 1081.5,-30.5 1255.5,-30.5 1255.5,-0.5 1081.5,-0.5"/>
<text text-anchor="start" x="1089.5" y="-18.5" font-family="Helvetica,sans-Serif" font-size="10.00">src/app/seamlyme/dialogs</text>
<text text-anchor="middle" x="1168.5" y="-7.5" font-family="Helvetica,sans-Serif" font-size="10.00">/new_measurements_dialog.cpp</text>
</a>
</g>
</g>
<!-- Node1&#45;&gt;Node7 -->
<g id="edge6" class="edge">
<title>Node1&#45;&gt;Node7</title>
<path fill="none" stroke="midnightblue" d="M1100.83,-61.74C1114.98,-52.28 1133.45,-39.93 1147.52,-30.52"/>
<polygon fill="midnightblue" stroke="midnightblue" points="1098.62,-59.01 1092.25,-67.48 1102.51,-64.83 1098.62,-59.01"/>
</g>
<!-- Node8 -->
<g id="node8" class="node">
<title>Node8</title>
<g id="a_node8"><a xlink:href="../../db/de0/app_2seamlyme_2main_8cpp.html" target="_top" xlink:title=" ">
<polygon fill="white" stroke="black" points="1274,-6 1274,-25 1429,-25 1429,-6 1274,-6"/>
<text text-anchor="middle" x="1351.5" y="-13" font-family="Helvetica,sans-Serif" font-size="10.00">src/app/seamlyme/main.cpp</text>
</a>
</g>
</g>
<!-- Node1&#45;&gt;Node8 -->
<g id="edge7" class="edge">
<title>Node1&#45;&gt;Node8</title>
<path fill="none" stroke="midnightblue" d="M1128.28,-65.33C1181.02,-53.79 1264.06,-35.63 1312.6,-25.01"/>
<polygon fill="midnightblue" stroke="midnightblue" points="1127.49,-61.92 1118.47,-67.48 1128.99,-68.76 1127.49,-61.92"/>
</g>
<!-- Node9 -->
<g id="node9" class="node">
<title>Node9</title>
<g id="a_node9"><a xlink:href="../../dd/db1/dialogseamlymepreferences_8cpp.html" target="_top" xlink:title=" ">
<polygon fill="white" stroke="black" points="1447,-0.5 1447,-30.5 1626,-30.5 1626,-0.5 1447,-0.5"/>
<text text-anchor="start" x="1455" y="-18.5" font-family="Helvetica,sans-Serif" font-size="10.00">src/app/seamlyme/dialogs</text>
<text text-anchor="middle" x="1536.5" y="-7.5" font-family="Helvetica,sans-Serif" font-size="10.00">/dialogseamlymepreferences.cpp</text>
</a>
</g>
</g>
<!-- Node1&#45;&gt;Node9 -->
<g id="edge8" class="edge">
<title>Node1&#45;&gt;Node9</title>
<path fill="none" stroke="midnightblue" d="M1161.45,-66.25C1234.26,-57.47 1343.54,-43.97 1438.5,-31 1441.23,-30.63 1444,-30.24 1446.79,-29.85"/>
<polygon fill="midnightblue" stroke="midnightblue" points="1160.93,-62.79 1151.42,-67.46 1161.77,-69.74 1160.93,-62.79"/>
</g>
<!-- Node10 -->
<g id="node10" class="node">
<title>Node10</title>
<g id="a_node10"><a xlink:href="../../da/dfb/mapplication_8cpp.html" target="_top" xlink:title=" ">
<polygon fill="white" stroke="black" points="1644.5,-6 1644.5,-25 1838.5,-25 1838.5,-6 1644.5,-6"/>
<text text-anchor="middle" x="1741.5" y="-13" font-family="Helvetica,sans-Serif" font-size="10.00">src/app/seamlyme/mapplication.cpp</text>
</a>
</g>
</g>
<!-- Node1&#45;&gt;Node10 -->
<g id="edge9" class="edge">
<title>Node1&#45;&gt;Node10</title>
<path fill="none" stroke="midnightblue" d="M1180.89,-69.48C1292.46,-61.91 1477.02,-48.24 1635.5,-31 1651.1,-29.3 1667.95,-27.15 1683.53,-25.02"/>
<polygon fill="midnightblue" stroke="midnightblue" points="1180.4,-66.01 1170.66,-70.17 1180.87,-72.99 1180.4,-66.01"/>
</g>
<!-- Node11 -->
<g id="node11" class="node">
<title>Node11</title>
<g id="a_node11"><a xlink:href="../../dc/de1/tmainwindow_8cpp.html" target="_top" xlink:title=" ">
<polygon fill="white" stroke="black" points="1856,-6 1856,-25 2051,-25 2051,-6 1856,-6"/>
<text text-anchor="middle" x="1953.5" y="-13" font-family="Helvetica,sans-Serif" font-size="10.00">src/app/seamlyme/tmainwindow.cpp</text>
</a>
</g>
</g>
<!-- Node1&#45;&gt;Node11 -->
<g id="edge10" class="edge">
<title>Node1&#45;&gt;Node11</title>
<path fill="none" stroke="midnightblue" d="M1181.07,-72.55C1328.25,-66.99 1609.29,-54.24 1847.5,-31 1863.68,-29.42 1881.18,-27.23 1897.21,-25.03"/>
<polygon fill="midnightblue" stroke="midnightblue" points="1180.57,-69.07 1170.71,-72.94 1180.83,-76.07 1180.57,-69.07"/>
</g>
</g>
</svg>
