<?xml version="1.0" encoding="UTF-8" standalone="no"?>
<!DOCTYPE svg PUBLIC "-//W3C//DTD SVG 1.1//EN"
 "http://www.w3.org/Graphics/SVG/1.1/DTD/svg11.dtd">
<!-- Generated by graphviz version 2.43.0 (0)
 -->
<!-- Title: src/app/seamlyme/mapplication.h Pages: 1 -->
<!--zoomable 95 -->
<svg id="main" version="1.1" xmlns="http://www.w3.org/2000/svg" xmlns:xlink="http://www.w3.org/1999/xlink" xml:space="preserve" onload="init(evt)">
<style type="text/css"><![CDATA[
.edge:hover path { stroke: red; }
.edge:hover polygon { stroke: red; fill: red; }
]]></style>
<script type="text/javascript"><![CDATA[
var edges = document.getElementsByTagName('g');
if (edges && edges.length) {
  for (var i=0;i<edges.length;i++) {
    if (edges[i].id.substr(0,4)=='edge') {
      edges[i].setAttribute('class','edge');
    }
  }
}
]]></script>
        <defs>
                <circle id="rim" cx="0" cy="0" r="7"/>
                <circle id="rim2" cx="0" cy="0" r="3.5"/>
                <g id="zoomPlus">
                        <use xlink:href="#rim" fill="#404040">
                                <set attributeName="fill" to="#808080" begin="zoomplus.mouseover" end="zoomplus.mouseout"/>
                        </use>
                        <path d="M-4,0h8M0,-4v8" fill="none" stroke="white" stroke-width="1.5" pointer-events="none"/>
                </g>
                <g id="zoomMin">
                        <use xlink:href="#rim" fill="#404040">
                                <set attributeName="fill" to="#808080" begin="zoomminus.mouseover" end="zoomminus.mouseout"/>
                        </use>
                        <path d="M-4,0h8" fill="none" stroke="white" stroke-width="1.5" pointer-events="none"/>
                </g>
                <g id="dirArrow">
                        <path fill="none" stroke="white" stroke-width="1.5" d="M0,-3.0v7 M-2.5,-0.5L0,-3.0L2.5,-0.5"/>
                </g>
               <g id="resetDef">
                       <use xlink:href="#rim2" fill="#404040">
                               <set attributeName="fill" to="#808080" begin="reset.mouseover" end="reset.mouseout"/>
                       </use>
               </g>
        </defs>

<script type="text/javascript">
var viewWidth = 2059;
var viewHeight = 95;
var sectionId = 'dynsection-1';
</script>
<script xlink:href="../../svgpan.js"/>
<svg id="graph" class="graph">
<g id="viewport">
<title>src/app/seamlyme/mapplication.h</title>
<polygon fill="white" stroke="transparent" points="-4,4 -4,-91 2055,-91 2055,4 -4,4"/>
<!-- Node1 -->
<g id="node1" class="node">
<title>Node1</title>
<g id="a_node1"><a xlink:title=" ">
<polygon fill="#bfbfbf" stroke="black" points="988.5,-67.5 988.5,-86.5 1170.5,-86.5 1170.5,-67.5 988.5,-67.5"/>
<text text-anchor="middle" x="1079.5" y="-74.5" font-family="Helvetica,sans-Serif" font-size="10.00">src/app/seamlyme/mapplication.h</text>
</a>
</g>
</g>
<!-- Node2 -->
<g id="node2" class="node">
<title>Node2</title>
<g id="a_node2"><a xlink:href="../../d9/d23/seamlymepreferencesconfigurationpage_8cpp.html" target="_top" xlink:title=" ">
<polygon fill="white" stroke="black" points="0,-0.5 0,-30.5 299,-30.5 299,-0.5 0,-0.5"/>
<text text-anchor="start" x="8" y="-18.5" font-family="Helvetica,sans-Serif" font-size="10.00">src/app/seamlyme/dialogs</text>
<text text-anchor="middle" x="149.5" y="-7.5" font-family="Helvetica,sans-Serif" font-size="10.00">/configpages/seamlymepreferencesconfigurationpage.cpp</text>
</a>
</g>
</g>
<!-- Node1&#45;&gt;Node2 -->
<g id="edge1" class="edge">
<title>Node1&#45;&gt;Node2</title>
<path fill="none" stroke="midnightblue" d="M977.82,-71.15C830.11,-63.87 547.57,-49.01 307.5,-31 304.75,-30.79 301.98,-30.58 299.19,-30.36"/>
<polygon fill="midnightblue" stroke="midnightblue" points="978.06,-74.67 988.22,-71.67 978.41,-67.68 978.06,-74.67"/>
</g>
<!-- Node3 -->
<g id="node3" class="node">
<title>Node3</title>
<g id="a_node3"><a xlink:href="../../d8/dcc/seamlymepreferencespathpage_8cpp.html" target="_top" xlink:title=" ">
<polygon fill="white" stroke="black" points="317,-0.5 317,-30.5 574,-30.5 574,-0.5 317,-0.5"/>
<text text-anchor="start" x="325" y="-18.5" font-family="Helvetica,sans-Serif" font-size="10.00">src/app/seamlyme/dialogs</text>
<text text-anchor="middle" x="445.5" y="-7.5" font-family="Helvetica,sans-Serif" font-size="10.00">/configpages/seamlymepreferencespathpage.cpp</text>
</a>
</g>
</g>
<!-- Node1&#45;&gt;Node3 -->
<g id="edge2" class="edge">
<title>Node1&#45;&gt;Node3</title>
<path fill="none" stroke="midnightblue" d="M978.17,-67.28C877.71,-58.52 719.42,-44.44 582.5,-31 579.76,-30.73 576.99,-30.46 574.2,-30.18"/>
<polygon fill="midnightblue" stroke="midnightblue" points="978.05,-70.78 988.32,-68.16 978.66,-63.81 978.05,-70.78"/>
</g>
<!-- Node4 -->
<g id="node4" class="node">
<title>Node4</title>
<g id="a_node4"><a xlink:href="../../d1/d42/dialogmdatabase_8cpp.html" target="_top" xlink:title=" ">
<polygon fill="white" stroke="black" points="592,-0.5 592,-30.5 737,-30.5 737,-0.5 592,-0.5"/>
<text text-anchor="start" x="600" y="-18.5" font-family="Helvetica,sans-Serif" font-size="10.00">src/app/seamlyme/dialogs</text>
<text text-anchor="middle" x="664.5" y="-7.5" font-family="Helvetica,sans-Serif" font-size="10.00">/dialogmdatabase.cpp</text>
</a>
</g>
</g>
<!-- Node1&#45;&gt;Node4 -->
<g id="edge3" class="edge">
<title>Node1&#45;&gt;Node4</title>
<path fill="none" stroke="midnightblue" d="M999.47,-66.2C931.72,-57.67 832.1,-44.58 745.5,-31 742.82,-30.58 740.09,-30.14 737.33,-29.69"/>
<polygon fill="midnightblue" stroke="midnightblue" points="999.29,-69.71 1009.64,-67.48 1000.16,-62.76 999.29,-69.71"/>
</g>
<!-- Node5 -->
<g id="node5" class="node">
<title>Node5</title>
<g id="a_node5"><a xlink:href="../../d6/d8e/me__shortcuts__dialog_8cpp.html" target="_top" xlink:title=" ">
<polygon fill="white" stroke="black" points="755,-0.5 755,-30.5 900,-30.5 900,-0.5 755,-0.5"/>
<text text-anchor="start" x="763" y="-18.5" font-family="Helvetica,sans-Serif" font-size="10.00">src/app/seamlyme/dialogs</text>
<text text-anchor="middle" x="827.5" y="-7.5" font-family="Helvetica,sans-Serif" font-size="10.00">/me_shortcuts_dialog.cpp</text>
</a>
</g>
</g>
<!-- Node1&#45;&gt;Node5 -->
<g id="edge4" class="edge">
<title>Node1&#45;&gt;Node5</title>
<path fill="none" stroke="midnightblue" d="M1033.63,-65.17C992.45,-55.45 931.76,-41.12 886.89,-30.52"/>
<polygon fill="midnightblue" stroke="midnightblue" points="1032.86,-68.58 1043.39,-67.48 1034.47,-61.77 1032.86,-68.58"/>
</g>
<!-- Node6 -->
<g id="node6" class="node">
<title>Node6</title>
<g id="a_node6"><a xlink:href="../../dc/d74/me__welcome__dialog_8cpp.html" target="_top" xlink:title=" ">
<polygon fill="white" stroke="black" points="918,-0.5 918,-30.5 1063,-30.5 1063,-0.5 918,-0.5"/>
<text text-anchor="start" x="926" y="-18.5" font-family="Helvetica,sans-Serif" font-size="10.00">src/app/seamlyme/dialogs</text>
<text text-anchor="middle" x="990.5" y="-7.5" font-family="Helvetica,sans-Serif" font-size="10.00">/me_welcome_dialog.cpp</text>
</a>
</g>
</g>
<!-- Node1&#45;&gt;Node6 -->
<g id="edge5" class="edge">
<title>Node1&#45;&gt;Node6</title>
<path fill="none" stroke="midnightblue" d="M1058.17,-61.74C1044.02,-52.28 1025.55,-39.93 1011.48,-30.52"/>
<polygon fill="midnightblue" stroke="midnightblue" points="1056.49,-64.83 1066.75,-67.48 1060.38,-59.01 1056.49,-64.83"/>
</g>
<!-- Node7 -->
<g id="node7" class="node">
<title>Node7</title>
<g id="a_node7"><a xlink:href="../../d7/d31/new__measurements__dialog_8cpp.html" target="_top" xlink:title=" ">
<polygon fill="white" stroke="black" points="1081.5,-0.5 1081.5,-30.5 1255.5,-30.5 1255.5,-0.5 1081.5,-0.5"/>
<text text-anchor="start" x="1089.5" y="-18.5" font-family="Helvetica,sans-Serif" font-size="10.00">src/app/seamlyme/dialogs</text>
<text text-anchor="middle" x="1168.5" y="-7.5" font-family="Helvetica,sans-Serif" font-size="10.00">/new_measurements_dialog.cpp</text>
</a>
</g>
</g>
<!-- Node1&#45;&gt;Node7 -->
<g id="edge6" class="edge">
<title>Node1&#45;&gt;Node7</title>
<path fill="none" stroke="midnightblue" d="M1100.83,-61.74C1114.98,-52.28 1133.45,-39.93 1147.52,-30.52"/>
<polygon fill="midnightblue" stroke="midnightblue" points="1098.62,-59.01 1092.25,-67.48 1102.51,-64.83 1098.62,-59.01"/>
</g>
<!-- Node8 -->
<g id="node8" class="node">
<title>Node8</title>
<g id="a_node8"><a xlink:href="../../db/de0/app_2seamlyme_2main_8cpp.html" target="_top" xlink:title=" ">
<polygon fill="white" stroke="black" points="1274,-6 1274,-25 1429,-25 1429,-6 1274,-6"/>
<text text-anchor="middle" x="1351.5" y="-13" font-family="Helvetica,sans-Serif" font-size="10.00">src/app/seamlyme/main.cpp</text>
</a>
</g>
</g>
<!-- Node1&#45;&gt;Node8 -->
<g id="edge7" class="edge">
<title>Node1&#45;&gt;Node8</title>
<path fill="none" stroke="midnightblue" d="M1128.28,-65.33C1181.02,-53.79 1264.06,-35.63 1312.6,-25.01"/>
<polygon fill="midnightblue" stroke="midnightblue" points="1127.49,-61.92 1118.47,-67.48 1128.99,-68.76 1127.49,-61.92"/>
</g>
<!-- Node9 -->
<g id="node9" class="node">
<title>Node9</title>
<g id="a_node9"><a xlink:href="../../dd/db1/dialogseamlymepreferences_8cpp.html" target="_top" xlink:title=" ">
<polygon fill="white" stroke="black" points="1447,-0.5 1447,-30.5 1626,-30.5 1626,-0.5 1447,-0.5"/>
<text text-anchor="start" x="1455" y="-18.5" font-family="Helvetica,sans-Serif" font-size="10.00">src/app/seamlyme/dialogs</text>
<text text-anchor="middle" x="1536.5" y="-7.5" font-family="Helvetica,sans-Serif" font-size="10.00">/dialogseamlymepreferences.cpp</text>
</a>
</g>
</g>
<!-- Node1&#45;&gt;Node9 -->
<g id="edge8" class="edge">
<title>Node1&#45;&gt;Node9</title>
<path fill="none" stroke="midnightblue" d="M1161.45,-66.25C1234.26,-57.47 1343.54,-43.97 1438.5,-31 1441.23,-30.63 1444,-30.24 1446.79,-29.85"/>
<polygon fill="midnightblue" stroke="midnightblue" points="1160.93,-62.79 1151.42,-67.46 1161.77,-69.74 1160.93,-62.79"/>
</g>
<!-- Node10 -->
<g id="node10" class="node">
<title>Node10</title>
<g id="a_node10"><a xlink:href="../../da/dfb/mapplication_8cpp.html" target="_top" xlink:title=" ">
<polygon fill="white" stroke="black" points="1644.5,-6 1644.5,-25 1838.5,-25 1838.5,-6 1644.5,-6"/>
<text text-anchor="middle" x="1741.5" y="-13" font-family="Helvetica,sans-Serif" font-size="10.00">src/app/seamlyme/mapplication.cpp</text>
</a>
</g>
</g>
<!-- Node1&#45;&gt;Node10 -->
<g id="edge9" class="edge">
<title>Node1&#45;&gt;Node10</title>
<path fill="none" stroke="midnightblue" d="M1180.89,-69.48C1292.46,-61.91 1477.02,-48.24 1635.5,-31 1651.1,-29.3 1667.95,-27.15 1683.53,-25.02"/>
<polygon fill="midnightblue" stroke="midnightblue" points="1180.4,-66.01 1170.66,-70.17 1180.87,-72.99 1180.4,-66.01"/>
</g>
<!-- Node11 -->
<g id="node11" class="node">
<title>Node11</title>
<g id="a_node11"><a xlink:href="../../dc/de1/tmainwindow_8cpp.html" target="_top" xlink:title=" ">
<polygon fill="white" stroke="black" points="1856,-6 1856,-25 2051,-25 2051,-6 1856,-6"/>
<text text-anchor="middle" x="1953.5" y="-13" font-family="Helvetica,sans-Serif" font-size="10.00">src/app/seamlyme/tmainwindow.cpp</text>
</a>
</g>
</g>
<!-- Node1&#45;&gt;Node11 -->
<g id="edge10" class="edge">
<title>Node1&#45;&gt;Node11</title>
<path fill="none" stroke="midnightblue" d="M1181.07,-72.55C1328.25,-66.99 1609.29,-54.24 1847.5,-31 1863.68,-29.42 1881.18,-27.23 1897.21,-25.03"/>
<polygon fill="midnightblue" stroke="midnightblue" points="1180.57,-69.07 1170.71,-72.94 1180.83,-76.07 1180.57,-69.07"/>
</g>
</g>
</svg>
        <g id="navigator" transform="translate(0 0)" fill="#404254">
                <rect fill="#f2f5e9" fill-opacity="0.5" stroke="#606060" stroke-width=".5" x="0" y="0" width="60" height="60"/>
                <use id="zoomplus" xlink:href="#zoomPlus" x="17" y="9" onmousedown="handleZoom(evt,'in')"/>
                <use id="zoomminus" xlink:href="#zoomMin" x="42" y="9" onmousedown="handleZoom(evt,'out')"/>
                <use id="reset" xlink:href="#resetDef" x="30" y="36" onmousedown="handleReset()"/>
                <g id="arrowUp" xlink:href="#dirArrow" transform="translate(30 24)" onmousedown="handlePan(0,-1)">
                  <use xlink:href="#rim" fill="#404040">
                        <set attributeName="fill" to="#808080" begin="arrowUp.mouseover" end="arrowUp.mouseout"/>
                  </use>
                  <path fill="none" stroke="white" stroke-width="1.5" d="M0,-3.0v7 M-2.5,-0.5L0,-3.0L2.5,-0.5"/>
                </g>
                <g id="arrowRight" xlink:href="#dirArrow" transform="rotate(90) translate(36 -43)" onmousedown="handlePan(1,0)">
                  <use xlink:href="#rim" fill="#404040">
                        <set attributeName="fill" to="#808080" begin="arrowRight.mouseover" end="arrowRight.mouseout"/>
                  </use>
                  <path fill="none" stroke="white" stroke-width="1.5" d="M0,-3.0v7 M-2.5,-0.5L0,-3.0L2.5,-0.5"/>
                </g>
                <g id="arrowDown" xlink:href="#dirArrow" transform="rotate(180) translate(-30 -48)" onmousedown="handlePan(0,1)">
                  <use xlink:href="#rim" fill="#404040">
                        <set attributeName="fill" to="#808080" begin="arrowDown.mouseover" end="arrowDown.mouseout"/>
                  </use>
                  <path fill="none" stroke="white" stroke-width="1.5" d="M0,-3.0v7 M-2.5,-0.5L0,-3.0L2.5,-0.5"/>
                </g>
                <g id="arrowLeft" xlink:href="#dirArrow" transform="rotate(270) translate(-36 17)" onmousedown="handlePan(-1,0)">
                  <use xlink:href="#rim" fill="#404040">
                        <set attributeName="fill" to="#808080" begin="arrowLeft.mouseover" end="arrowLeft.mouseout"/>
                  </use>
                  <path fill="none" stroke="white" stroke-width="1.5" d="M0,-3.0v7 M-2.5,-0.5L0,-3.0L2.5,-0.5"/>
                </g>
        </g>
        <svg viewBox="0 0 15 15" width="100%" height="30px" preserveAspectRatio="xMaxYMin meet">
         <g id="arrow_out" transform="scale(0.3 0.3)">
          <a xlink:href="mapplication_8h__dep__incl_org.svg" target="_base">
           <rect id="button" ry="5" rx="5" y="6" x="6" height="38" width="38"
                fill="#f2f5e9" fill-opacity="0.5" stroke="#606060" stroke-width="1.0"/>
           <path id="arrow"
             d="M 11.500037,31.436501 C 11.940474,20.09759 22.043105,11.32322 32.158766,21.979434 L 37.068811,17.246167 C 37.068811,17.246167 37.088388,32 37.088388,32 L 22.160133,31.978069 C 22.160133,31.978069 26.997745,27.140456 26.997745,27.140456 C 18.528582,18.264221 13.291696,25.230495 11.500037,31.436501 z"
             style="fill:#404040;"/>
          </a>
         </g>
        </svg>
</svg>
