<?xml version="1.0" encoding="UTF-8" standalone="no"?>
<!DOCTYPE svg PUBLIC "-//W3C//DTD SVG 1.1//EN"
 "http://www.w3.org/Graphics/SVG/1.1/DTD/svg11.dtd">
<!-- Generated by graphviz version 2.43.0 (0)
 -->
<!-- Title: src/libs/vtools/tools/drawTools/operation/vabstractoperation.h Pages: 1 -->
<!--zoomable 351 -->
<svg id="main" version="1.1" xmlns="http://www.w3.org/2000/svg" xmlns:xlink="http://www.w3.org/1999/xlink" xml:space="preserve" onload="init(evt)">
<style type="text/css"><![CDATA[
.edge:hover path { stroke: red; }
.edge:hover polygon { stroke: red; fill: red; }
]]></style>
<script type="text/javascript"><![CDATA[
var edges = document.getElementsByTagName('g');
if (edges && edges.length) {
  for (var i=0;i<edges.length;i++) {
    if (edges[i].id.substr(0,4)=='edge') {
      edges[i].setAttribute('class','edge');
    }
  }
}
]]></script>
        <defs>
                <circle id="rim" cx="0" cy="0" r="7"/>
                <circle id="rim2" cx="0" cy="0" r="3.5"/>
                <g id="zoomPlus">
                        <use xlink:href="#rim" fill="#404040">
                                <set attributeName="fill" to="#808080" begin="zoomplus.mouseover" end="zoomplus.mouseout"/>
                        </use>
                        <path d="M-4,0h8M0,-4v8" fill="none" stroke="white" stroke-width="1.5" pointer-events="none"/>
                </g>
                <g id="zoomMin">
                        <use xlink:href="#rim" fill="#404040">
                                <set attributeName="fill" to="#808080" begin="zoomminus.mouseover" end="zoomminus.mouseout"/>
                        </use>
                        <path d="M-4,0h8" fill="none" stroke="white" stroke-width="1.5" pointer-events="none"/>
                </g>
                <g id="dirArrow">
                        <path fill="none" stroke="white" stroke-width="1.5" d="M0,-3.0v7 M-2.5,-0.5L0,-3.0L2.5,-0.5"/>
                </g>
               <g id="resetDef">
                       <use xlink:href="#rim2" fill="#404040">
                               <set attributeName="fill" to="#808080" begin="reset.mouseover" end="reset.mouseout"/>
                       </use>
               </g>
        </defs>

<script type="text/javascript">
var viewWidth = 2003;
var viewHeight = 351;
var sectionId = 'dynsection-1';
</script>
<script xlink:href="../../svgpan.js"/>
<svg id="graph" class="graph">
<g id="viewport">
<title>src/libs/vtools/tools/drawTools/operation/vabstractoperation.h</title>
<polygon fill="white" stroke="transparent" points="-4,4 -4,-347 1998.5,-347 1998.5,4 -4,4"/>
<!-- Node1 -->
<g id="node1" class="node">
<title>Node1</title>
<g id="a_node1"><a xlink:title=" ">
<polygon fill="#bfbfbf" stroke="black" points="938.5,-301.5 938.5,-342.5 1059.5,-342.5 1059.5,-301.5 938.5,-301.5"/>
<text text-anchor="start" x="946.5" y="-330.5" font-family="Helvetica,sans-Serif" font-size="10.00">src/libs/vtools/tools</text>
<text text-anchor="start" x="946.5" y="-319.5" font-family="Helvetica,sans-Serif" font-size="10.00">/drawTools/operation</text>
<text text-anchor="middle" x="999" y="-308.5" font-family="Helvetica,sans-Serif" font-size="10.00">/vabstractoperation.h</text>
</a>
</g>
</g>
<!-- Node2 -->
<g id="node2" class="node">
<title>Node2</title>
<g id="a_node2"><a xlink:href="../../dd/dfa/image__dialog_8h.html" target="_top" xlink:title=" ">
<polygon fill="white" stroke="black" points="130,-229 130,-259 242,-259 242,-229 130,-229"/>
<text text-anchor="start" x="138" y="-247" font-family="Helvetica,sans-Serif" font-size="10.00">src/libs/tools/image</text>
<text text-anchor="middle" x="186" y="-236" font-family="Helvetica,sans-Serif" font-size="10.00">_dialog.h</text>
</a>
</g>
</g>
<!-- Node1&#45;&gt;Node2 -->
<g id="edge1" class="edge">
<title>Node1&#45;&gt;Node2</title>
<path fill="none" stroke="midnightblue" d="M928.27,-317.1C803.24,-309.78 535.11,-292.26 310,-265 287.7,-262.3 263.27,-258.53 242.04,-255"/>
<polygon fill="midnightblue" stroke="midnightblue" points="928.29,-320.6 938.47,-317.69 928.69,-313.61 928.29,-320.6"/>
</g>
<!-- Node4 -->
<g id="node4" class="node">
<title>Node4</title>
<g id="a_node4"><a xlink:href="../../d2/d47/image__dialog_8cpp.html" target="_top" xlink:title=" ">
<polygon fill="white" stroke="black" points="130,-151 130,-181 242,-181 242,-151 130,-151"/>
<text text-anchor="start" x="138" y="-169" font-family="Helvetica,sans-Serif" font-size="10.00">src/libs/tools/image</text>
<text text-anchor="middle" x="186" y="-158" font-family="Helvetica,sans-Serif" font-size="10.00">_dialog.cpp</text>
</a>
</g>
</g>
<!-- Node1&#45;&gt;Node4 -->
<g id="edge4" class="edge">
<title>Node1&#45;&gt;Node4</title>
<path fill="none" stroke="midnightblue" d="M928.22,-321.72C815.55,-321.22 589.32,-313.52 405,-265 330.68,-245.44 249.73,-203.17 210.32,-181.09"/>
<polygon fill="midnightblue" stroke="midnightblue" points="928.43,-325.22 938.43,-321.74 928.44,-318.22 928.43,-325.22"/>
</g>
<!-- Node5 -->
<g id="node5" class="node">
<title>Node5</title>
<g id="a_node5"><a xlink:href="../../d8/da9/dialogmirrorbyaxis_8h.html" target="_top" xlink:title=" ">
<polygon fill="white" stroke="black" points="609,-229 609,-259 757,-259 757,-229 609,-229"/>
<text text-anchor="start" x="617" y="-247" font-family="Helvetica,sans-Serif" font-size="10.00">src/libs/vtools/dialogs</text>
<text text-anchor="middle" x="683" y="-236" font-family="Helvetica,sans-Serif" font-size="10.00">/tools/dialogmirrorbyaxis.h</text>
</a>
</g>
</g>
<!-- Node1&#45;&gt;Node5 -->
<g id="edge5" class="edge">
<title>Node1&#45;&gt;Node5</title>
<path fill="none" stroke="midnightblue" d="M928.54,-304.05C872.17,-290.5 794.08,-271.71 741.21,-259"/>
<polygon fill="midnightblue" stroke="midnightblue" points="927.9,-307.5 938.45,-306.44 929.54,-300.69 927.9,-307.5"/>
</g>
<!-- Node9 -->
<g id="node9" class="node">
<title>Node9</title>
<g id="a_node9"><a xlink:href="../../db/d11/dialogmirrorbyline_8h.html" target="_top" xlink:title=" ">
<polygon fill="white" stroke="black" points="414,-229 414,-259 560,-259 560,-229 414,-229"/>
<text text-anchor="start" x="422" y="-247" font-family="Helvetica,sans-Serif" font-size="10.00">src/libs/vtools/dialogs</text>
<text text-anchor="middle" x="487" y="-236" font-family="Helvetica,sans-Serif" font-size="10.00">/tools/dialogmirrorbyline.h</text>
</a>
</g>
</g>
<!-- Node1&#45;&gt;Node9 -->
<g id="edge9" class="edge">
<title>Node1&#45;&gt;Node9</title>
<path fill="none" stroke="midnightblue" d="M928.46,-311.87C848.64,-301.37 714.78,-283.21 600,-265 587.11,-262.96 573.42,-260.65 560.18,-258.35"/>
<polygon fill="midnightblue" stroke="midnightblue" points="928.03,-315.35 938.4,-313.18 928.94,-308.41 928.03,-315.35"/>
</g>
<!-- Node12 -->
<g id="node12" class="node">
<title>Node12</title>
<g id="a_node12"><a xlink:href="../../d4/d1d/dialogmove_8h.html" target="_top" xlink:title=" ">
<polygon fill="white" stroke="black" points="804,-229 804,-259 926,-259 926,-229 804,-229"/>
<text text-anchor="start" x="812" y="-247" font-family="Helvetica,sans-Serif" font-size="10.00">src/libs/vtools/dialogs</text>
<text text-anchor="middle" x="865" y="-236" font-family="Helvetica,sans-Serif" font-size="10.00">/tools/dialogmove.h</text>
</a>
</g>
</g>
<!-- Node1&#45;&gt;Node12 -->
<g id="edge13" class="edge">
<title>Node1&#45;&gt;Node12</title>
<path fill="none" stroke="midnightblue" d="M955.77,-296.48C934.06,-284.17 908.53,-269.69 890.08,-259.23"/>
<polygon fill="midnightblue" stroke="midnightblue" points="954.07,-299.54 964.49,-301.43 957.52,-293.45 954.07,-299.54"/>
</g>
<!-- Node13 -->
<g id="node13" class="node">
<title>Node13</title>
<g id="a_node13"><a xlink:href="../../d2/d51/dialogmove_8cpp.html" target="_top" xlink:title=" ">
<polygon fill="white" stroke="black" points="828.5,-151 828.5,-181 953.5,-181 953.5,-151 828.5,-151"/>
<text text-anchor="start" x="836.5" y="-169" font-family="Helvetica,sans-Serif" font-size="10.00">src/libs/vtools/dialogs</text>
<text text-anchor="middle" x="891" y="-158" font-family="Helvetica,sans-Serif" font-size="10.00">/tools/dialogmove.cpp</text>
</a>
</g>
</g>
<!-- Node1&#45;&gt;Node13 -->
<g id="edge17" class="edge">
<title>Node1&#45;&gt;Node13</title>
<path fill="none" stroke="midnightblue" d="M981.36,-292.58C968.85,-272.77 951.43,-245.91 935,-223 924.48,-208.33 911.65,-192.18 902.56,-181.01"/>
<polygon fill="midnightblue" stroke="midnightblue" points="978.46,-294.53 986.74,-301.14 984.39,-290.81 978.46,-294.53"/>
</g>
<!-- Node15 -->
<g id="node15" class="node">
<title>Node15</title>
<g id="a_node15"><a xlink:href="../../d7/de1/dialogrotation_8h.html" target="_top" xlink:title=" ">
<polygon fill="white" stroke="black" points="982,-229 982,-259 1106,-259 1106,-229 982,-229"/>
<text text-anchor="start" x="990" y="-247" font-family="Helvetica,sans-Serif" font-size="10.00">src/libs/vtools/dialogs</text>
<text text-anchor="middle" x="1044" y="-236" font-family="Helvetica,sans-Serif" font-size="10.00">/tools/dialogrotation.h</text>
</a>
</g>
</g>
<!-- Node1&#45;&gt;Node15 -->
<g id="edge18" class="edge">
<title>Node1&#45;&gt;Node15</title>
<path fill="none" stroke="midnightblue" d="M1015.79,-292.64C1022.54,-281.25 1030.02,-268.62 1035.58,-259.23"/>
<polygon fill="midnightblue" stroke="midnightblue" points="1012.67,-291.04 1010.59,-301.43 1018.7,-294.61 1012.67,-291.04"/>
</g>
<!-- Node18 -->
<g id="node18" class="node">
<title>Node18</title>
<g id="a_node18"><a xlink:href="../../db/d1f/vabstractmirror_8h.html" target="_top" xlink:title=" ">
<polygon fill="white" stroke="black" points="1129.5,-223.5 1129.5,-264.5 1266.5,-264.5 1266.5,-223.5 1129.5,-223.5"/>
<text text-anchor="start" x="1137.5" y="-252.5" font-family="Helvetica,sans-Serif" font-size="10.00">src/libs/vtools/tools</text>
<text text-anchor="start" x="1137.5" y="-241.5" font-family="Helvetica,sans-Serif" font-size="10.00">/drawTools/operation</text>
<text text-anchor="middle" x="1198" y="-230.5" font-family="Helvetica,sans-Serif" font-size="10.00">/mirror/vabstractmirror.h</text>
</a>
</g>
</g>
<!-- Node1&#45;&gt;Node18 -->
<g id="edge22" class="edge">
<title>Node1&#45;&gt;Node18</title>
<path fill="none" stroke="midnightblue" d="M1059.88,-297.75C1087.74,-287.11 1120.37,-274.65 1146.93,-264.51"/>
<polygon fill="midnightblue" stroke="midnightblue" points="1058.34,-294.59 1050.25,-301.43 1060.84,-301.13 1058.34,-294.59"/>
</g>
<!-- Node24 -->
<g id="node24" class="node">
<title>Node24</title>
<g id="a_node24"><a xlink:href="../../d8/de3/vabstractoperation_8cpp.html" target="_top" xlink:title=" ">
<polygon fill="white" stroke="black" points="1285,-223.5 1285,-264.5 1417,-264.5 1417,-223.5 1285,-223.5"/>
<text text-anchor="start" x="1293" y="-252.5" font-family="Helvetica,sans-Serif" font-size="10.00">src/libs/vtools/tools</text>
<text text-anchor="start" x="1293" y="-241.5" font-family="Helvetica,sans-Serif" font-size="10.00">/drawTools/operation</text>
<text text-anchor="middle" x="1351" y="-230.5" font-family="Helvetica,sans-Serif" font-size="10.00">/vabstractoperation.cpp</text>
</a>
</g>
</g>
<!-- Node1&#45;&gt;Node24 -->
<g id="edge31" class="edge">
<title>Node1&#45;&gt;Node24</title>
<path fill="none" stroke="midnightblue" d="M1069.59,-307.96C1125.72,-297.3 1206.15,-281.36 1276,-265 1278.89,-264.32 1281.83,-263.62 1284.8,-262.89"/>
<polygon fill="midnightblue" stroke="midnightblue" points="1068.93,-304.53 1059.75,-309.83 1070.23,-311.4 1068.93,-304.53"/>
</g>
<!-- Node25 -->
<g id="node25" class="node">
<title>Node25</title>
<g id="a_node25"><a xlink:href="../../d3/d95/vtoolmove_8h.html" target="_top" xlink:title=" ">
<polygon fill="white" stroke="black" points="1455,-223.5 1455,-264.5 1573,-264.5 1573,-223.5 1455,-223.5"/>
<text text-anchor="start" x="1463" y="-252.5" font-family="Helvetica,sans-Serif" font-size="10.00">src/libs/vtools/tools</text>
<text text-anchor="start" x="1463" y="-241.5" font-family="Helvetica,sans-Serif" font-size="10.00">/drawTools/operation</text>
<text text-anchor="middle" x="1514" y="-230.5" font-family="Helvetica,sans-Serif" font-size="10.00">/vtoolmove.h</text>
</a>
</g>
</g>
<!-- Node1&#45;&gt;Node25 -->
<g id="edge32" class="edge">
<title>Node1&#45;&gt;Node25</title>
<path fill="none" stroke="midnightblue" d="M1069.78,-313.76C1154.74,-304.6 1301.35,-287.29 1426,-265 1435.41,-263.32 1445.33,-261.3 1454.98,-259.21"/>
<polygon fill="midnightblue" stroke="midnightblue" points="1069.3,-310.29 1059.73,-314.84 1070.05,-317.25 1069.3,-310.29"/>
</g>
<!-- Node26 -->
<g id="node26" class="node">
<title>Node26</title>
<g id="a_node26"><a xlink:href="../../d6/da5/vtoolrotation_8h.html" target="_top" xlink:title=" ">
<polygon fill="white" stroke="black" points="1693,-223.5 1693,-264.5 1811,-264.5 1811,-223.5 1693,-223.5"/>
<text text-anchor="start" x="1701" y="-252.5" font-family="Helvetica,sans-Serif" font-size="10.00">src/libs/vtools/tools</text>
<text text-anchor="start" x="1701" y="-241.5" font-family="Helvetica,sans-Serif" font-size="10.00">/drawTools/operation</text>
<text text-anchor="middle" x="1752" y="-230.5" font-family="Helvetica,sans-Serif" font-size="10.00">/vtoolrotation.h</text>
</a>
</g>
</g>
<!-- Node1&#45;&gt;Node26 -->
<g id="edge35" class="edge">
<title>Node1&#45;&gt;Node26</title>
<path fill="none" stroke="midnightblue" d="M1069.86,-314.69C1179.64,-304.79 1397.43,-284.72 1582,-265 1618.79,-261.07 1660,-256.23 1692.64,-252.3"/>
<polygon fill="midnightblue" stroke="midnightblue" points="1069.54,-311.2 1059.89,-315.58 1070.17,-318.17 1069.54,-311.2"/>
</g>
<!-- Node27 -->
<g id="node27" class="node">
<title>Node27</title>
<g id="a_node27"><a xlink:href="../../d4/d1a/vundocommand_8cpp.html" target="_top" xlink:title=" ">
<polygon fill="white" stroke="black" points="1829.5,-229 1829.5,-259 1994.5,-259 1994.5,-229 1829.5,-229"/>
<text text-anchor="start" x="1837.5" y="-247" font-family="Helvetica,sans-Serif" font-size="10.00">src/libs/vtools/undocommands</text>
<text text-anchor="middle" x="1912" y="-236" font-family="Helvetica,sans-Serif" font-size="10.00">/vundocommand.cpp</text>
</a>
</g>
</g>
<!-- Node1&#45;&gt;Node27 -->
<g id="edge38" class="edge">
<title>Node1&#45;&gt;Node27</title>
<path fill="none" stroke="midnightblue" d="M1069.93,-319.64C1212.63,-316.15 1544.36,-304.15 1820,-265 1830.84,-263.46 1842.31,-261.36 1853.34,-259.09"/>
<polygon fill="midnightblue" stroke="midnightblue" points="1069.49,-316.15 1059.57,-319.89 1069.65,-323.15 1069.49,-316.15"/>
</g>
<!-- Node3 -->
<g id="node3" class="node">
<title>Node3</title>
<g id="a_node3"><a xlink:href="../../df/d1e/image__item_8cpp.html" target="_top" xlink:title=" ">
<polygon fill="white" stroke="black" points="0,-151 0,-181 112,-181 112,-151 0,-151"/>
<text text-anchor="start" x="8" y="-169" font-family="Helvetica,sans-Serif" font-size="10.00">src/libs/tools/image</text>
<text text-anchor="middle" x="56" y="-158" font-family="Helvetica,sans-Serif" font-size="10.00">_item.cpp</text>
</a>
</g>
</g>
<!-- Node2&#45;&gt;Node3 -->
<g id="edge2" class="edge">
<title>Node2&#45;&gt;Node3</title>
<path fill="none" stroke="midnightblue" d="M153.19,-223.82C130.42,-210.51 100.59,-193.07 80.02,-181.04"/>
<polygon fill="midnightblue" stroke="midnightblue" points="151.45,-226.86 161.85,-228.88 154.99,-220.81 151.45,-226.86"/>
</g>
<!-- Node2&#45;&gt;Node4 -->
<g id="edge3" class="edge">
<title>Node2&#45;&gt;Node4</title>
<path fill="none" stroke="midnightblue" d="M186,-218.59C186,-206.26 186,-191.72 186,-181.23"/>
<polygon fill="midnightblue" stroke="midnightblue" points="182.5,-218.7 186,-228.7 189.5,-218.71 182.5,-218.7"/>
</g>
<!-- Node6 -->
<g id="node6" class="node">
<title>Node6</title>
<g id="a_node6"><a xlink:href="../../d9/d34/dialogmirrorbyaxis_8cpp.html" target="_top" xlink:title=" ">
<polygon fill="white" stroke="black" points="473.5,-151 473.5,-181 632.5,-181 632.5,-151 473.5,-151"/>
<text text-anchor="start" x="481.5" y="-169" font-family="Helvetica,sans-Serif" font-size="10.00">src/libs/vtools/dialogs</text>
<text text-anchor="middle" x="553" y="-158" font-family="Helvetica,sans-Serif" font-size="10.00">/tools/dialogmirrorbyaxis.cpp</text>
</a>
</g>
</g>
<!-- Node5&#45;&gt;Node6 -->
<g id="edge6" class="edge">
<title>Node5&#45;&gt;Node6</title>
<path fill="none" stroke="midnightblue" d="M650.19,-223.82C627.42,-210.51 597.59,-193.07 577.02,-181.04"/>
<polygon fill="midnightblue" stroke="midnightblue" points="648.45,-226.86 658.85,-228.88 651.99,-220.81 648.45,-226.86"/>
</g>
<!-- Node7 -->
<g id="node7" class="node">
<title>Node7</title>
<g id="a_node7"><a xlink:href="../../df/ded/tooldialogs_8h.html" target="_top" xlink:title=" ">
<polygon fill="white" stroke="black" points="688,-151 688,-181 810,-181 810,-151 688,-151"/>
<text text-anchor="start" x="696" y="-169" font-family="Helvetica,sans-Serif" font-size="10.00">src/libs/vtools/dialogs</text>
<text text-anchor="middle" x="749" y="-158" font-family="Helvetica,sans-Serif" font-size="10.00">/tooldialogs.h</text>
</a>
</g>
</g>
<!-- Node5&#45;&gt;Node7 -->
<g id="edge7" class="edge">
<title>Node5&#45;&gt;Node7</title>
<path fill="none" stroke="midnightblue" d="M702.27,-220.81C713.37,-208.03 726.98,-192.36 736.64,-181.23"/>
<polygon fill="midnightblue" stroke="midnightblue" points="699.33,-218.86 695.41,-228.7 704.61,-223.45 699.33,-218.86"/>
</g>
<!-- Node8 -->
<g id="node8" class="node">
<title>Node8</title>
<g id="a_node8"><a xlink:href="../../d5/d3b/vtoolmirrorbyaxis_8cpp.html" target="_top" xlink:title=" ">
<polygon fill="white" stroke="black" points="990,-67.5 990,-108.5 1150,-108.5 1150,-67.5 990,-67.5"/>
<text text-anchor="start" x="998" y="-96.5" font-family="Helvetica,sans-Serif" font-size="10.00">src/libs/vtools/tools</text>
<text text-anchor="start" x="998" y="-85.5" font-family="Helvetica,sans-Serif" font-size="10.00">/drawTools/operation</text>
<text text-anchor="middle" x="1070" y="-74.5" font-family="Helvetica,sans-Serif" font-size="10.00">/mirror/vtoolmirrorbyaxis.cpp</text>
</a>
</g>
</g>
<!-- Node5&#45;&gt;Node8 -->
<g id="edge8" class="edge">
<title>Node5&#45;&gt;Node8</title>
<path fill="none" stroke="midnightblue" d="M673.71,-219.12C666.91,-197.18 661.57,-165.1 679,-145 689.11,-133.34 878.31,-110.39 989.75,-97.79"/>
<polygon fill="midnightblue" stroke="midnightblue" points="670.44,-220.35 676.97,-228.69 677.06,-218.1 670.44,-220.35"/>
</g>
<!-- Node9&#45;&gt;Node7 -->
<g id="edge11" class="edge">
<title>Node9&#45;&gt;Node7</title>
<path fill="none" stroke="midnightblue" d="M545.03,-226.17C591.71,-212.63 656.53,-193.82 700.48,-181.07"/>
<polygon fill="midnightblue" stroke="midnightblue" points="543.99,-222.82 535.36,-228.97 545.94,-229.55 543.99,-222.82"/>
</g>
<!-- Node10 -->
<g id="node10" class="node">
<title>Node10</title>
<g id="a_node10"><a xlink:href="../../df/d5e/dialogmirrorbyline_8cpp.html" target="_top" xlink:title=" ">
<polygon fill="white" stroke="black" points="298.5,-151 298.5,-181 455.5,-181 455.5,-151 298.5,-151"/>
<text text-anchor="start" x="306.5" y="-169" font-family="Helvetica,sans-Serif" font-size="10.00">src/libs/vtools/dialogs</text>
<text text-anchor="middle" x="377" y="-158" font-family="Helvetica,sans-Serif" font-size="10.00">/tools/dialogmirrorbyline.cpp</text>
</a>
</g>
</g>
<!-- Node9&#45;&gt;Node10 -->
<g id="edge10" class="edge">
<title>Node9&#45;&gt;Node10</title>
<path fill="none" stroke="midnightblue" d="M458.21,-223.11C439.08,-209.89 414.42,-192.86 397.32,-181.04"/>
<polygon fill="midnightblue" stroke="midnightblue" points="456.35,-226.08 466.57,-228.88 460.33,-220.32 456.35,-226.08"/>
</g>
<!-- Node11 -->
<g id="node11" class="node">
<title>Node11</title>
<g id="a_node11"><a xlink:href="../../d2/d3c/vtoolmirrorbyline_8cpp.html" target="_top" xlink:title=" ">
<polygon fill="white" stroke="black" points="708,-67.5 708,-108.5 866,-108.5 866,-67.5 708,-67.5"/>
<text text-anchor="start" x="716" y="-96.5" font-family="Helvetica,sans-Serif" font-size="10.00">src/libs/vtools/tools</text>
<text text-anchor="start" x="716" y="-85.5" font-family="Helvetica,sans-Serif" font-size="10.00">/drawTools/operation</text>
<text text-anchor="middle" x="787" y="-74.5" font-family="Helvetica,sans-Serif" font-size="10.00">/mirror/vtoolmirrorbyline.cpp</text>
</a>
</g>
</g>
<!-- Node9&#45;&gt;Node11 -->
<g id="edge12" class="edge">
<title>Node9&#45;&gt;Node11</title>
<path fill="none" stroke="midnightblue" d="M403.86,-230.67C333.06,-216.78 248.72,-190.06 289,-145 316.38,-114.37 574.44,-98.45 707.89,-92.21"/>
<polygon fill="midnightblue" stroke="midnightblue" points="403.27,-234.12 413.74,-232.54 404.57,-227.24 403.27,-234.12"/>
</g>
<!-- Node12&#45;&gt;Node7 -->
<g id="edge15" class="edge">
<title>Node12&#45;&gt;Node7</title>
<path fill="none" stroke="midnightblue" d="M834.91,-223.29C814.7,-210.05 788.55,-192.91 770.43,-181.04"/>
<polygon fill="midnightblue" stroke="midnightblue" points="833.17,-226.33 843.45,-228.88 837.01,-220.48 833.17,-226.33"/>
</g>
<!-- Node12&#45;&gt;Node13 -->
<g id="edge14" class="edge">
<title>Node12&#45;&gt;Node13</title>
<path fill="none" stroke="midnightblue" d="M873.22,-218.96C877.47,-206.55 882.51,-191.83 886.13,-181.23"/>
<polygon fill="midnightblue" stroke="midnightblue" points="869.82,-218.11 869.89,-228.7 876.44,-220.38 869.82,-218.11"/>
</g>
<!-- Node14 -->
<g id="node14" class="node">
<title>Node14</title>
<g id="a_node14"><a xlink:href="../../d3/d2b/vtoolmove_8cpp.html" target="_top" xlink:title=" ">
<polygon fill="white" stroke="black" points="1455,-145.5 1455,-186.5 1573,-186.5 1573,-145.5 1455,-145.5"/>
<text text-anchor="start" x="1463" y="-174.5" font-family="Helvetica,sans-Serif" font-size="10.00">src/libs/vtools/tools</text>
<text text-anchor="start" x="1463" y="-163.5" font-family="Helvetica,sans-Serif" font-size="10.00">/drawTools/operation</text>
<text text-anchor="middle" x="1514" y="-152.5" font-family="Helvetica,sans-Serif" font-size="10.00">/vtoolmove.cpp</text>
</a>
</g>
</g>
<!-- Node12&#45;&gt;Node14 -->
<g id="edge16" class="edge">
<title>Node12&#45;&gt;Node14</title>
<path fill="none" stroke="midnightblue" d="M936.35,-228.67C948.54,-226.54 961.11,-224.55 973,-223 1182.06,-195.77 1238.61,-224.95 1446,-187 1448.91,-186.47 1451.86,-185.86 1454.84,-185.2"/>
<polygon fill="midnightblue" stroke="midnightblue" points="935.44,-225.28 926.22,-230.48 936.68,-232.17 935.44,-225.28"/>
</g>
<!-- Node15&#45;&gt;Node7 -->
<g id="edge19" class="edge">
<title>Node15&#45;&gt;Node7</title>
<path fill="none" stroke="midnightblue" d="M975.25,-226.54C930.62,-215.69 871.24,-200.96 819,-187 812.04,-185.14 804.71,-183.12 797.52,-181.1"/>
<polygon fill="midnightblue" stroke="midnightblue" points="974.57,-229.97 985.11,-228.93 976.22,-223.17 974.57,-229.97"/>
</g>
<!-- Node16 -->
<g id="node16" class="node">
<title>Node16</title>
<g id="a_node16"><a xlink:href="../../dc/d64/dialogrotation_8cpp.html" target="_top" xlink:title=" ">
<polygon fill="white" stroke="black" points="971.5,-151 971.5,-181 1106.5,-181 1106.5,-151 971.5,-151"/>
<text text-anchor="start" x="979.5" y="-169" font-family="Helvetica,sans-Serif" font-size="10.00">src/libs/vtools/dialogs</text>
<text text-anchor="middle" x="1039" y="-158" font-family="Helvetica,sans-Serif" font-size="10.00">/tools/dialogrotation.cpp</text>
</a>
</g>
</g>
<!-- Node15&#45;&gt;Node16 -->
<g id="edge20" class="edge">
<title>Node15&#45;&gt;Node16</title>
<path fill="none" stroke="midnightblue" d="M1042.39,-218.59C1041.58,-206.26 1040.63,-191.72 1039.94,-181.23"/>
<polygon fill="midnightblue" stroke="midnightblue" points="1038.91,-218.96 1043.06,-228.7 1045.9,-218.5 1038.91,-218.96"/>
</g>
<!-- Node17 -->
<g id="node17" class="node">
<title>Node17</title>
<g id="a_node17"><a xlink:href="../../df/dd2/vtoolrotation_8cpp.html" target="_top" xlink:title=" ">
<polygon fill="white" stroke="black" points="1796,-145.5 1796,-186.5 1914,-186.5 1914,-145.5 1796,-145.5"/>
<text text-anchor="start" x="1804" y="-174.5" font-family="Helvetica,sans-Serif" font-size="10.00">src/libs/vtools/tools</text>
<text text-anchor="start" x="1804" y="-163.5" font-family="Helvetica,sans-Serif" font-size="10.00">/drawTools/operation</text>
<text text-anchor="middle" x="1855" y="-152.5" font-family="Helvetica,sans-Serif" font-size="10.00">/vtoolrotation.cpp</text>
</a>
</g>
</g>
<!-- Node15&#45;&gt;Node17 -->
<g id="edge21" class="edge">
<title>Node15&#45;&gt;Node17</title>
<path fill="none" stroke="midnightblue" d="M1102.07,-226.63C1108.42,-225.22 1114.82,-223.97 1121,-223 1397.63,-179.59 1472.09,-221.27 1750,-187 1764.92,-185.16 1780.91,-182.48 1795.8,-179.68"/>
<polygon fill="midnightblue" stroke="midnightblue" points="1101.1,-223.26 1092.16,-228.94 1102.7,-230.07 1101.1,-223.26"/>
</g>
<!-- Node19 -->
<g id="node19" class="node">
<title>Node19</title>
<g id="a_node19"><a xlink:href="../../da/ddc/vabstractmirror_8cpp.html" target="_top" xlink:title=" ">
<polygon fill="white" stroke="black" points="1289,-145.5 1289,-186.5 1437,-186.5 1437,-145.5 1289,-145.5"/>
<text text-anchor="start" x="1297" y="-174.5" font-family="Helvetica,sans-Serif" font-size="10.00">src/libs/vtools/tools</text>
<text text-anchor="start" x="1297" y="-163.5" font-family="Helvetica,sans-Serif" font-size="10.00">/drawTools/operation</text>
<text text-anchor="middle" x="1363" y="-152.5" font-family="Helvetica,sans-Serif" font-size="10.00">/mirror/vabstractmirror.cpp</text>
</a>
</g>
</g>
<!-- Node18&#45;&gt;Node19 -->
<g id="edge23" class="edge">
<title>Node18&#45;&gt;Node19</title>
<path fill="none" stroke="midnightblue" d="M1249.69,-219.19C1272.52,-208.67 1299.02,-196.47 1320.65,-186.51"/>
<polygon fill="midnightblue" stroke="midnightblue" points="1248.11,-216.07 1240.49,-223.43 1251.04,-222.42 1248.11,-216.07"/>
</g>
<!-- Node20 -->
<g id="node20" class="node">
<title>Node20</title>
<g id="a_node20"><a xlink:href="../../df/db5/vtoolmirrorbyaxis_8h.html" target="_top" xlink:title=" ">
<polygon fill="white" stroke="black" points="1591.5,-145.5 1591.5,-186.5 1740.5,-186.5 1740.5,-145.5 1591.5,-145.5"/>
<text text-anchor="start" x="1599.5" y="-174.5" font-family="Helvetica,sans-Serif" font-size="10.00">src/libs/vtools/tools</text>
<text text-anchor="start" x="1599.5" y="-163.5" font-family="Helvetica,sans-Serif" font-size="10.00">/drawTools/operation</text>
<text text-anchor="middle" x="1666" y="-152.5" font-family="Helvetica,sans-Serif" font-size="10.00">/mirror/vtoolmirrorbyaxis.h</text>
</a>
</g>
</g>
<!-- Node18&#45;&gt;Node20 -->
<g id="edge24" class="edge">
<title>Node18&#45;&gt;Node20</title>
<path fill="none" stroke="midnightblue" d="M1276.73,-223C1412.39,-198.53 1450.32,-210.34 1582,-187 1585.1,-186.45 1588.26,-185.86 1591.44,-185.23"/>
<polygon fill="midnightblue" stroke="midnightblue" points="1276,-219.58 1266.79,-224.83 1277.26,-226.46 1276,-219.58"/>
</g>
<!-- Node23 -->
<g id="node23" class="node">
<title>Node23</title>
<g id="a_node23"><a xlink:href="../../dc/d5e/vtoolmirrorbyline_8h.html" target="_top" xlink:title=" ">
<polygon fill="white" stroke="black" points="1125,-145.5 1125,-186.5 1271,-186.5 1271,-145.5 1125,-145.5"/>
<text text-anchor="start" x="1133" y="-174.5" font-family="Helvetica,sans-Serif" font-size="10.00">src/libs/vtools/tools</text>
<text text-anchor="start" x="1133" y="-163.5" font-family="Helvetica,sans-Serif" font-size="10.00">/drawTools/operation</text>
<text text-anchor="middle" x="1198" y="-152.5" font-family="Helvetica,sans-Serif" font-size="10.00">/mirror/vtoolmirrorbyline.h</text>
</a>
</g>
</g>
<!-- Node18&#45;&gt;Node23 -->
<g id="edge28" class="edge">
<title>Node18&#45;&gt;Node23</title>
<path fill="none" stroke="midnightblue" d="M1198,-213.3C1198,-204.3 1198,-194.65 1198,-186.51"/>
<polygon fill="midnightblue" stroke="midnightblue" points="1194.5,-213.43 1198,-223.43 1201.5,-213.43 1194.5,-213.43"/>
</g>
<!-- Node20&#45;&gt;Node8 -->
<g id="edge25" class="edge">
<title>Node20&#45;&gt;Node8</title>
<path fill="none" stroke="midnightblue" d="M1581.52,-145.03C1423.14,-118.11 1249.35,-102.35 1150.25,-94.66"/>
<polygon fill="midnightblue" stroke="midnightblue" points="1581,-148.49 1591.44,-146.74 1582.18,-141.6 1581,-148.49"/>
</g>
<!-- Node21 -->
<g id="node21" class="node">
<title>Node21</title>
<g id="a_node21"><a xlink:href="../../d4/d56/drawtools_8h.html" target="_top" xlink:title=" ">
<polygon fill="white" stroke="black" points="1653,-73 1653,-103 1781,-103 1781,-73 1653,-73"/>
<text text-anchor="start" x="1661" y="-91" font-family="Helvetica,sans-Serif" font-size="10.00">src/libs/vtools/tools</text>
<text text-anchor="middle" x="1717" y="-80" font-family="Helvetica,sans-Serif" font-size="10.00">/drawTools/drawtools.h</text>
</a>
</g>
</g>
<!-- Node20&#45;&gt;Node21 -->
<g id="edge26" class="edge">
<title>Node20&#45;&gt;Node21</title>
<path fill="none" stroke="midnightblue" d="M1684.8,-136.98C1692.51,-125.5 1701.09,-112.71 1707.45,-103.23"/>
<polygon fill="midnightblue" stroke="midnightblue" points="1681.8,-135.17 1679.13,-145.43 1687.61,-139.07 1681.8,-135.17"/>
</g>
<!-- Node22 -->
<g id="node22" class="node">
<title>Node22</title>
<g id="a_node22"><a xlink:href="../../d5/da5/tools_8h.html" target="_top" xlink:title=" ">
<polygon fill="white" stroke="black" points="1661.5,-0.5 1661.5,-30.5 1772.5,-30.5 1772.5,-0.5 1661.5,-0.5"/>
<text text-anchor="start" x="1669.5" y="-18.5" font-family="Helvetica,sans-Serif" font-size="10.00">src/libs/vtools/tools</text>
<text text-anchor="middle" x="1717" y="-7.5" font-family="Helvetica,sans-Serif" font-size="10.00">/tools.h</text>
</a>
</g>
</g>
<!-- Node21&#45;&gt;Node22 -->
<g id="edge27" class="edge">
<title>Node21&#45;&gt;Node22</title>
<path fill="none" stroke="midnightblue" d="M1717,-62.73C1717,-52.07 1717,-39.91 1717,-30.75"/>
<polygon fill="midnightblue" stroke="midnightblue" points="1713.5,-62.73 1717,-72.73 1720.5,-62.73 1713.5,-62.73"/>
</g>
<!-- Node23&#45;&gt;Node11 -->
<g id="edge29" class="edge">
<title>Node23&#45;&gt;Node11</title>
<path fill="none" stroke="midnightblue" d="M1114.84,-144.82C1024.17,-126.3 930.54,-110.89 866.07,-100.85"/>
<polygon fill="midnightblue" stroke="midnightblue" points="1114.24,-148.27 1124.74,-146.86 1115.65,-141.42 1114.24,-148.27"/>
</g>
<!-- Node23&#45;&gt;Node21 -->
<g id="edge30" class="edge">
<title>Node23&#45;&gt;Node21</title>
<path fill="none" stroke="midnightblue" d="M1281.13,-144.89C1418.88,-119.79 1569.5,-103.19 1652.97,-94.94"/>
<polygon fill="midnightblue" stroke="midnightblue" points="1280.43,-141.46 1271.23,-146.71 1281.7,-148.34 1280.43,-141.46"/>
</g>
<!-- Node25&#45;&gt;Node14 -->
<g id="edge33" class="edge">
<title>Node25&#45;&gt;Node14</title>
<path fill="none" stroke="midnightblue" d="M1514,-213.3C1514,-204.3 1514,-194.65 1514,-186.51"/>
<polygon fill="midnightblue" stroke="midnightblue" points="1510.5,-213.43 1514,-223.43 1517.5,-213.43 1510.5,-213.43"/>
</g>
<!-- Node25&#45;&gt;Node21 -->
<g id="edge34" class="edge">
<title>Node25&#45;&gt;Node21</title>
<path fill="none" stroke="midnightblue" d="M1583.38,-235.99C1645.37,-228.12 1729.5,-212.93 1750,-187 1770.04,-161.65 1745.58,-123.5 1729.3,-103.08"/>
<polygon fill="midnightblue" stroke="midnightblue" points="1582.74,-232.54 1573.24,-237.24 1583.6,-239.49 1582.74,-232.54"/>
</g>
<!-- Node26&#45;&gt;Node17 -->
<g id="edge36" class="edge">
<title>Node26&#45;&gt;Node17</title>
<path fill="none" stroke="midnightblue" d="M1786.76,-217.35C1800.42,-207.27 1815.84,-195.89 1828.56,-186.51"/>
<polygon fill="midnightblue" stroke="midnightblue" points="1784.49,-214.67 1778.53,-223.43 1788.65,-220.31 1784.49,-214.67"/>
</g>
<!-- Node26&#45;&gt;Node21 -->
<g id="edge37" class="edge">
<title>Node26&#45;&gt;Node21</title>
<path fill="none" stroke="midnightblue" d="M1820.78,-222.49C1866.87,-208.43 1919.73,-191.52 1923,-187 1933.95,-171.89 1934.34,-159.83 1923,-145 1905.7,-122.36 1834.87,-106.72 1781.06,-97.83"/>
<polygon fill="midnightblue" stroke="midnightblue" points="1819.62,-219.19 1811.07,-225.45 1821.65,-225.89 1819.62,-219.19"/>
</g>
</g>
</svg>
        <g id="navigator" transform="translate(0 0)" fill="#404254">
                <rect fill="#f2f5e9" fill-opacity="0.5" stroke="#606060" stroke-width=".5" x="0" y="0" width="60" height="60"/>
                <use id="zoomplus" xlink:href="#zoomPlus" x="17" y="9" onmousedown="handleZoom(evt,'in')"/>
                <use id="zoomminus" xlink:href="#zoomMin" x="42" y="9" onmousedown="handleZoom(evt,'out')"/>
                <use id="reset" xlink:href="#resetDef" x="30" y="36" onmousedown="handleReset()"/>
                <g id="arrowUp" xlink:href="#dirArrow" transform="translate(30 24)" onmousedown="handlePan(0,-1)">
                  <use xlink:href="#rim" fill="#404040">
                        <set attributeName="fill" to="#808080" begin="arrowUp.mouseover" end="arrowUp.mouseout"/>
                  </use>
                  <path fill="none" stroke="white" stroke-width="1.5" d="M0,-3.0v7 M-2.5,-0.5L0,-3.0L2.5,-0.5"/>
                </g>
                <g id="arrowRight" xlink:href="#dirArrow" transform="rotate(90) translate(36 -43)" onmousedown="handlePan(1,0)">
                  <use xlink:href="#rim" fill="#404040">
                        <set attributeName="fill" to="#808080" begin="arrowRight.mouseover" end="arrowRight.mouseout"/>
                  </use>
                  <path fill="none" stroke="white" stroke-width="1.5" d="M0,-3.0v7 M-2.5,-0.5L0,-3.0L2.5,-0.5"/>
                </g>
                <g id="arrowDown" xlink:href="#dirArrow" transform="rotate(180) translate(-30 -48)" onmousedown="handlePan(0,1)">
                  <use xlink:href="#rim" fill="#404040">
                        <set attributeName="fill" to="#808080" begin="arrowDown.mouseover" end="arrowDown.mouseout"/>
                  </use>
                  <path fill="none" stroke="white" stroke-width="1.5" d="M0,-3.0v7 M-2.5,-0.5L0,-3.0L2.5,-0.5"/>
                </g>
                <g id="arrowLeft" xlink:href="#dirArrow" transform="rotate(270) translate(-36 17)" onmousedown="handlePan(-1,0)">
                  <use xlink:href="#rim" fill="#404040">
                        <set attributeName="fill" to="#808080" begin="arrowLeft.mouseover" end="arrowLeft.mouseout"/>
                  </use>
                  <path fill="none" stroke="white" stroke-width="1.5" d="M0,-3.0v7 M-2.5,-0.5L0,-3.0L2.5,-0.5"/>
                </g>
        </g>
        <svg viewBox="0 0 15 15" width="100%" height="30px" preserveAspectRatio="xMaxYMin meet">
         <g id="arrow_out" transform="scale(0.3 0.3)">
          <a xlink:href="vabstractoperation_8h__dep__incl_org.svg" target="_base">
           <rect id="button" ry="5" rx="5" y="6" x="6" height="38" width="38"
                fill="#f2f5e9" fill-opacity="0.5" stroke="#606060" stroke-width="1.0"/>
           <path id="arrow"
             d="M 11.500037,31.436501 C 11.940474,20.09759 22.043105,11.32322 32.158766,21.979434 L 37.068811,17.246167 C 37.068811,17.246167 37.088388,32 37.088388,32 L 22.160133,31.978069 C 22.160133,31.978069 26.997745,27.140456 26.997745,27.140456 C 18.528582,18.264221 13.291696,25.230495 11.500037,31.436501 z"
             style="fill:#404040;"/>
          </a>
         </g>
        </svg>
</svg>
