<?xml version="1.0" encoding="UTF-8" standalone="no"?>
<!DOCTYPE svg PUBLIC "-//W3C//DTD SVG 1.1//EN"
 "http://www.w3.org/Graphics/SVG/1.1/DTD/svg11.dtd">
<!-- Generated by graphviz version 2.43.0 (0)
 -->
<!-- Title: src/libs/vtools/tools/drawTools/operation/vabstractoperation.h Pages: 1 -->
<svg width="2143pt" height="346pt"
 viewBox="0.00 0.00 2142.50 346.00" xmlns="http://www.w3.org/2000/svg" xmlns:xlink="http://www.w3.org/1999/xlink">
<g id="graph0" class="graph" transform="scale(1 1) rotate(0) translate(4 342)">
<title>src/libs/vtools/tools/drawTools/operation/vabstractoperation.h</title>
<!-- Node1 -->
<g id="Node000001" class="node">
<title>Node1</title>
<g id="a_Node000001"><a xlink:title=" ">
<polygon fill="#999999" stroke="#666666" points="1415.5,-338 1294.5,-338 1294.5,-297 1415.5,-297 1415.5,-338"/>
<text text-anchor="start" x="1302.5" y="-326" font-family="Helvetica,sans-Serif" font-size="10.00">src/libs/vtools/tools</text>
<text text-anchor="start" x="1302.5" y="-315" font-family="Helvetica,sans-Serif" font-size="10.00">/drawTools/operation</text>
<text text-anchor="middle" x="1355" y="-304" font-family="Helvetica,sans-Serif" font-size="10.00">/vabstractoperation.h</text>
</a>
</g>
</g>
<!-- Node2 -->
<g id="Node000002" class="node">
<title>Node2</title>
<g id="a_Node000002"><a xlink:href="../../d2/d47/image__dialog_8cpp.html" target="_top" xlink:title=" ">
<polygon fill="white" stroke="#666666" points="112,-178.5 0,-178.5 0,-148.5 112,-148.5 112,-178.5"/>
<text text-anchor="start" x="8" y="-166.5" font-family="Helvetica,sans-Serif" font-size="10.00">src/libs/tools/image</text>
<text text-anchor="middle" x="56" y="-155.5" font-family="Helvetica,sans-Serif" font-size="10.00">_dialog.cpp</text>
</a>
</g>
</g>
<!-- Node1&#45;&gt;Node2 -->
<g id="edge1_Node000001_Node000002" class="edge">
<title>Node1&#45;&gt;Node2</title>
<g id="a_edge1_Node000001_Node000002"><a xlink:title=" ">
<path fill="none" stroke="#63b8ff" d="M1284.06,-317C1036.77,-318.23 222.34,-317.88 121,-261 88.59,-242.81 69.19,-200.91 60.84,-178.79"/>
<polygon fill="#63b8ff" stroke="#63b8ff" points="1284.38,-320.5 1294.36,-316.94 1284.34,-313.5 1284.38,-320.5"/>
</a>
</g>
</g>
<!-- Node3 -->
<g id="Node000003" class="node">
<title>Node3</title>
<g id="a_Node000003"><a xlink:href="../../dd/dfa/image__dialog_8h.html" target="_top" xlink:title=" ">
<polygon fill="white" stroke="#666666" points="242,-255.5 130,-255.5 130,-225.5 242,-225.5 242,-255.5"/>
<text text-anchor="start" x="138" y="-243.5" font-family="Helvetica,sans-Serif" font-size="10.00">src/libs/tools/image</text>
<text text-anchor="middle" x="186" y="-232.5" font-family="Helvetica,sans-Serif" font-size="10.00">_dialog.h</text>
</a>
</g>
</g>
<!-- Node1&#45;&gt;Node3 -->
<g id="edge2_Node000001_Node000003" class="edge">
<title>Node1&#45;&gt;Node3</title>
<g id="a_edge2_Node000001_Node000003"><a xlink:title=" ">
<path fill="none" stroke="#63b8ff" d="M1283.99,-312.68C1129.29,-304.25 750.25,-283.07 433,-261 367.56,-256.45 292.43,-250.4 242.39,-246.25"/>
<polygon fill="#63b8ff" stroke="#63b8ff" points="1284.12,-316.19 1294.29,-313.24 1284.5,-309.2 1284.12,-316.19"/>
</a>
</g>
</g>
<!-- Node5 -->
<g id="Node000005" class="node">
<title>Node5</title>
<g id="a_Node000005"><a xlink:href="../../d8/da9/dialogmirrorbyaxis_8h.html" target="_top" xlink:title=" ">
<polygon fill="white" stroke="#666666" points="1185,-255.5 1037,-255.5 1037,-225.5 1185,-225.5 1185,-255.5"/>
<text text-anchor="start" x="1045" y="-243.5" font-family="Helvetica,sans-Serif" font-size="10.00">src/libs/vtools/dialogs</text>
<text text-anchor="middle" x="1111" y="-232.5" font-family="Helvetica,sans-Serif" font-size="10.00">/tools/dialogmirrorbyaxis.h</text>
</a>
</g>
</g>
<!-- Node1&#45;&gt;Node5 -->
<g id="edge5_Node000001_Node000005" class="edge">
<title>Node1&#45;&gt;Node5</title>
<g id="a_edge5_Node000001_Node000005"><a xlink:title=" ">
<path fill="none" stroke="#63b8ff" d="M1284.67,-294.88C1243.51,-282.23 1192.72,-266.62 1156.73,-255.56"/>
<polygon fill="#63b8ff" stroke="#63b8ff" points="1283.78,-298.27 1294.37,-297.86 1285.84,-291.58 1283.78,-298.27"/>
</a>
</g>
</g>
<!-- Node9 -->
<g id="Node000009" class="node">
<title>Node9</title>
<g id="a_Node000009"><a xlink:href="../../db/d11/dialogmirrorbyline_8h.html" target="_top" xlink:title=" ">
<polygon fill="white" stroke="#666666" points="588,-255.5 442,-255.5 442,-225.5 588,-225.5 588,-255.5"/>
<text text-anchor="start" x="450" y="-243.5" font-family="Helvetica,sans-Serif" font-size="10.00">src/libs/vtools/dialogs</text>
<text text-anchor="middle" x="515" y="-232.5" font-family="Helvetica,sans-Serif" font-size="10.00">/tools/dialogmirrorbyline.h</text>
</a>
</g>
</g>
<!-- Node1&#45;&gt;Node9 -->
<g id="edge9_Node000001_Node000009" class="edge">
<title>Node1&#45;&gt;Node9</title>
<g id="a_edge9_Node000001_Node000009"><a xlink:title=" ">
<path fill="none" stroke="#63b8ff" d="M1283.95,-310.17C1168.43,-299.87 932.68,-278.84 733,-261 684.74,-256.69 630.48,-251.84 588.16,-248.05"/>
<polygon fill="#63b8ff" stroke="#63b8ff" points="1283.81,-313.67 1294.08,-311.07 1284.43,-306.69 1283.81,-313.67"/>
</a>
</g>
</g>
<!-- Node12 -->
<g id="Node000012" class="node">
<title>Node12</title>
<g id="a_Node000012"><a xlink:href="../../d2/d51/dialogmove_8cpp.html" target="_top" xlink:title=" ">
<polygon fill="white" stroke="#666666" points="1625.5,-178.5 1500.5,-178.5 1500.5,-148.5 1625.5,-148.5 1625.5,-178.5"/>
<text text-anchor="start" x="1508.5" y="-166.5" font-family="Helvetica,sans-Serif" font-size="10.00">src/libs/vtools/dialogs</text>
<text text-anchor="middle" x="1563" y="-155.5" font-family="Helvetica,sans-Serif" font-size="10.00">/tools/dialogmove.cpp</text>
</a>
</g>
</g>
<!-- Node1&#45;&gt;Node12 -->
<g id="edge13_Node000001_Node000012" class="edge">
<title>Node1&#45;&gt;Node12</title>
<g id="a_edge13_Node000001_Node000012"><a xlink:title=" ">
<path fill="none" stroke="#63b8ff" d="M1425.27,-297.24C1448.67,-288.63 1473.87,-276.78 1494,-261 1523.34,-238 1545.68,-199.28 1556.26,-178.57"/>
<polygon fill="#63b8ff" stroke="#63b8ff" points="1423.99,-293.99 1415.72,-300.62 1426.32,-300.59 1423.99,-293.99"/>
</a>
</g>
</g>
<!-- Node13 -->
<g id="Node000013" class="node">
<title>Node13</title>
<g id="a_Node000013"><a xlink:href="../../d4/d1d/dialogmove_8h.html" target="_top" xlink:title=" ">
<polygon fill="white" stroke="#666666" points="1485,-255.5 1363,-255.5 1363,-225.5 1485,-225.5 1485,-255.5"/>
<text text-anchor="start" x="1371" y="-243.5" font-family="Helvetica,sans-Serif" font-size="10.00">src/libs/vtools/dialogs</text>
<text text-anchor="middle" x="1424" y="-232.5" font-family="Helvetica,sans-Serif" font-size="10.00">/tools/dialogmove.h</text>
</a>
</g>
</g>
<!-- Node1&#45;&gt;Node13 -->
<g id="edge14_Node000001_Node000013" class="edge">
<title>Node1&#45;&gt;Node13</title>
<g id="a_edge14_Node000001_Node000013"><a xlink:title=" ">
<path fill="none" stroke="#63b8ff" d="M1380.08,-289.24C1390.47,-277.94 1402.11,-265.3 1410.79,-255.86"/>
<polygon fill="#63b8ff" stroke="#63b8ff" points="1377.32,-287.07 1373.13,-296.79 1382.48,-291.81 1377.32,-287.07"/>
</a>
</g>
</g>
<!-- Node15 -->
<g id="Node000015" class="node">
<title>Node15</title>
<g id="a_Node000015"><a xlink:href="../../d7/de1/dialogrotation_8h.html" target="_top" xlink:title=" ">
<polygon fill="white" stroke="#666666" points="1801,-255.5 1677,-255.5 1677,-225.5 1801,-225.5 1801,-255.5"/>
<text text-anchor="start" x="1685" y="-243.5" font-family="Helvetica,sans-Serif" font-size="10.00">src/libs/vtools/dialogs</text>
<text text-anchor="middle" x="1739" y="-232.5" font-family="Helvetica,sans-Serif" font-size="10.00">/tools/dialogrotation.h</text>
</a>
</g>
</g>
<!-- Node1&#45;&gt;Node15 -->
<g id="edge18_Node000001_Node000015" class="edge">
<title>Node1&#45;&gt;Node15</title>
<g id="a_edge18_Node000001_Node000015"><a xlink:title=" ">
<path fill="none" stroke="#63b8ff" d="M1425.56,-305.9C1489.25,-295.88 1585.34,-279.64 1668,-261 1675.23,-259.37 1682.83,-257.48 1690.26,-255.52"/>
<polygon fill="#63b8ff" stroke="#63b8ff" points="1424.97,-302.45 1415.63,-307.46 1426.05,-309.37 1424.97,-302.45"/>
</a>
</g>
</g>
<!-- Node18 -->
<g id="Node000018" class="node">
<title>Node18</title>
<g id="a_Node000018"><a xlink:href="../../db/d1f/vabstractmirror_8h.html" target="_top" xlink:title=" ">
<polygon fill="white" stroke="#666666" points="879.5,-261 742.5,-261 742.5,-220 879.5,-220 879.5,-261"/>
<text text-anchor="start" x="750.5" y="-249" font-family="Helvetica,sans-Serif" font-size="10.00">src/libs/vtools/tools</text>
<text text-anchor="start" x="750.5" y="-238" font-family="Helvetica,sans-Serif" font-size="10.00">/drawTools/operation</text>
<text text-anchor="middle" x="811" y="-227" font-family="Helvetica,sans-Serif" font-size="10.00">/mirror/vabstractmirror.h</text>
</a>
</g>
</g>
<!-- Node1&#45;&gt;Node18 -->
<g id="edge22_Node000001_Node000018" class="edge">
<title>Node1&#45;&gt;Node18</title>
<g id="a_edge22_Node000001_Node000018"><a xlink:title=" ">
<path fill="none" stroke="#63b8ff" d="M1284.26,-306.75C1179.24,-292.27 983.35,-265.26 879.59,-250.96"/>
<polygon fill="#63b8ff" stroke="#63b8ff" points="1284.06,-310.25 1294.44,-308.15 1285.01,-303.32 1284.06,-310.25"/>
</a>
</g>
</g>
<!-- Node24 -->
<g id="Node000024" class="node">
<title>Node24</title>
<g id="a_Node000024"><a xlink:href="../../d8/de3/vabstractoperation_8cpp.html" target="_top" xlink:title=" ">
<polygon fill="white" stroke="#666666" points="1951,-261 1819,-261 1819,-220 1951,-220 1951,-261"/>
<text text-anchor="start" x="1827" y="-249" font-family="Helvetica,sans-Serif" font-size="10.00">src/libs/vtools/tools</text>
<text text-anchor="start" x="1827" y="-238" font-family="Helvetica,sans-Serif" font-size="10.00">/drawTools/operation</text>
<text text-anchor="middle" x="1885" y="-227" font-family="Helvetica,sans-Serif" font-size="10.00">/vabstractoperation.cpp</text>
</a>
</g>
</g>
<!-- Node1&#45;&gt;Node24 -->
<g id="edge31_Node000001_Node000024" class="edge">
<title>Node1&#45;&gt;Node24</title>
<g id="a_edge31_Node000001_Node000024"><a xlink:title=" ">
<path fill="none" stroke="#63b8ff" d="M1425.82,-310.8C1515.7,-302.9 1675.25,-286.62 1810,-261 1812.91,-260.45 1815.87,-259.85 1818.85,-259.21"/>
<polygon fill="#63b8ff" stroke="#63b8ff" points="1425.41,-307.32 1415.75,-311.68 1426.01,-314.3 1425.41,-307.32"/>
</a>
</g>
</g>
<!-- Node25 -->
<g id="Node000025" class="node">
<title>Node25</title>
<g id="a_Node000025"><a xlink:href="../../d3/d95/vtoolmove_8h.html" target="_top" xlink:title=" ">
<polygon fill="white" stroke="#666666" points="1345,-261 1227,-261 1227,-220 1345,-220 1345,-261"/>
<text text-anchor="start" x="1235" y="-249" font-family="Helvetica,sans-Serif" font-size="10.00">src/libs/vtools/tools</text>
<text text-anchor="start" x="1235" y="-238" font-family="Helvetica,sans-Serif" font-size="10.00">/drawTools/operation</text>
<text text-anchor="middle" x="1286" y="-227" font-family="Helvetica,sans-Serif" font-size="10.00">/vtoolmove.h</text>
</a>
</g>
</g>
<!-- Node1&#45;&gt;Node25 -->
<g id="edge32_Node000001_Node000025" class="edge">
<title>Node1&#45;&gt;Node25</title>
<g id="a_edge32_Node000001_Node000025"><a xlink:title=" ">
<path fill="none" stroke="#63b8ff" d="M1329.91,-289.23C1321.34,-279.91 1311.92,-269.67 1304.01,-261.07"/>
<polygon fill="#63b8ff" stroke="#63b8ff" points="1327.52,-291.81 1336.87,-296.79 1332.68,-287.07 1327.52,-291.81"/>
</a>
</g>
</g>
<!-- Node26 -->
<g id="Node000026" class="node">
<title>Node26</title>
<g id="a_Node000026"><a xlink:href="../../d6/da5/vtoolrotation_8h.html" target="_top" xlink:title=" ">
<polygon fill="white" stroke="#666666" points="1659,-261 1541,-261 1541,-220 1659,-220 1659,-261"/>
<text text-anchor="start" x="1549" y="-249" font-family="Helvetica,sans-Serif" font-size="10.00">src/libs/vtools/tools</text>
<text text-anchor="start" x="1549" y="-238" font-family="Helvetica,sans-Serif" font-size="10.00">/drawTools/operation</text>
<text text-anchor="middle" x="1600" y="-227" font-family="Helvetica,sans-Serif" font-size="10.00">/vtoolrotation.h</text>
</a>
</g>
</g>
<!-- Node1&#45;&gt;Node26 -->
<g id="edge35_Node000001_Node000026" class="edge">
<title>Node1&#45;&gt;Node26</title>
<g id="a_edge35_Node000001_Node000026"><a xlink:title=" ">
<path fill="none" stroke="#63b8ff" d="M1425.19,-295.01C1461.82,-283.8 1506.13,-270.23 1540.98,-259.57"/>
<polygon fill="#63b8ff" stroke="#63b8ff" points="1424.1,-291.69 1415.56,-297.96 1426.15,-298.38 1424.1,-291.69"/>
</a>
</g>
</g>
<!-- Node27 -->
<g id="Node000027" class="node">
<title>Node27</title>
<g id="a_Node000027"><a xlink:href="../../d4/d1a/vundocommand_8cpp.html" target="_top" xlink:title=" ">
<polygon fill="white" stroke="#666666" points="2134.5,-255.5 1969.5,-255.5 1969.5,-225.5 2134.5,-225.5 2134.5,-255.5"/>
<text text-anchor="start" x="1977.5" y="-243.5" font-family="Helvetica,sans-Serif" font-size="10.00">src/libs/vtools/undocommands</text>
<text text-anchor="middle" x="2052" y="-232.5" font-family="Helvetica,sans-Serif" font-size="10.00">/vundocommand.cpp</text>
</a>
</g>
</g>
<!-- Node1&#45;&gt;Node27 -->
<g id="edge38_Node000001_Node000027" class="edge">
<title>Node1&#45;&gt;Node27</title>
<g id="a_edge38_Node000001_Node000027"><a xlink:title=" ">
<path fill="none" stroke="#63b8ff" d="M1426.1,-312.69C1539.5,-306 1768.1,-290.04 1960,-261 1970.01,-259.49 1980.57,-257.56 1990.82,-255.51"/>
<polygon fill="#63b8ff" stroke="#63b8ff" points="1425.6,-309.21 1415.82,-313.29 1426.01,-316.2 1425.6,-309.21"/>
</a>
</g>
</g>
<!-- Node3&#45;&gt;Node2 -->
<g id="edge3_Node000003_Node000002" class="edge">
<title>Node3&#45;&gt;Node2</title>
<g id="a_edge3_Node000003_Node000002"><a xlink:title=" ">
<path fill="none" stroke="#63b8ff" d="M152.64,-220.25C130.06,-207.23 100.74,-190.31 80.34,-178.54"/>
<polygon fill="#63b8ff" stroke="#63b8ff" points="151.14,-223.43 161.55,-225.39 154.64,-217.36 151.14,-223.43"/>
</a>
</g>
</g>
<!-- Node4 -->
<g id="Node000004" class="node">
<title>Node4</title>
<g id="a_Node000004"><a xlink:href="../../df/d1e/image__item_8cpp.html" target="_top" xlink:title=" ">
<polygon fill="white" stroke="#666666" points="242,-178.5 130,-178.5 130,-148.5 242,-148.5 242,-178.5"/>
<text text-anchor="start" x="138" y="-166.5" font-family="Helvetica,sans-Serif" font-size="10.00">src/libs/tools/image</text>
<text text-anchor="middle" x="186" y="-155.5" font-family="Helvetica,sans-Serif" font-size="10.00">_item.cpp</text>
</a>
</g>
</g>
<!-- Node3&#45;&gt;Node4 -->
<g id="edge4_Node000003_Node000004" class="edge">
<title>Node3&#45;&gt;Node4</title>
<g id="a_edge4_Node000003_Node000004"><a xlink:title=" ">
<path fill="none" stroke="#63b8ff" d="M186,-215.04C186,-202.95 186,-188.79 186,-178.54"/>
<polygon fill="#63b8ff" stroke="#63b8ff" points="182.5,-215.39 186,-225.39 189.5,-215.39 182.5,-215.39"/>
</a>
</g>
</g>
<!-- Node6 -->
<g id="Node000006" class="node">
<title>Node6</title>
<g id="a_Node000006"><a xlink:href="../../df/ded/tooldialogs_8h.html" target="_top" xlink:title=" ">
<polygon fill="white" stroke="#666666" points="1308,-178.5 1186,-178.5 1186,-148.5 1308,-148.5 1308,-178.5"/>
<text text-anchor="start" x="1194" y="-166.5" font-family="Helvetica,sans-Serif" font-size="10.00">src/libs/vtools/dialogs</text>
<text text-anchor="middle" x="1247" y="-155.5" font-family="Helvetica,sans-Serif" font-size="10.00">/tooldialogs.h</text>
</a>
</g>
</g>
<!-- Node5&#45;&gt;Node6 -->
<g id="edge6_Node000005_Node000006" class="edge">
<title>Node5&#45;&gt;Node6</title>
<g id="a_edge6_Node000005_Node000006"><a xlink:title=" ">
<path fill="none" stroke="#63b8ff" d="M1145.59,-220.43C1169.25,-207.38 1200.1,-190.36 1221.53,-178.54"/>
<polygon fill="#63b8ff" stroke="#63b8ff" points="1143.65,-217.5 1136.58,-225.39 1147.03,-223.63 1143.65,-217.5"/>
</a>
</g>
</g>
<!-- Node7 -->
<g id="Node000007" class="node">
<title>Node7</title>
<g id="a_Node000007"><a xlink:href="../../d9/d34/dialogmirrorbyaxis_8cpp.html" target="_top" xlink:title=" ">
<polygon fill="white" stroke="#666666" points="1167.5,-178.5 1008.5,-178.5 1008.5,-148.5 1167.5,-148.5 1167.5,-178.5"/>
<text text-anchor="start" x="1016.5" y="-166.5" font-family="Helvetica,sans-Serif" font-size="10.00">src/libs/vtools/dialogs</text>
<text text-anchor="middle" x="1088" y="-155.5" font-family="Helvetica,sans-Serif" font-size="10.00">/tools/dialogmirrorbyaxis.cpp</text>
</a>
</g>
</g>
<!-- Node5&#45;&gt;Node7 -->
<g id="edge7_Node000005_Node000007" class="edge">
<title>Node5&#45;&gt;Node7</title>
<g id="a_edge7_Node000005_Node000007"><a xlink:title=" ">
<path fill="none" stroke="#63b8ff" d="M1103.73,-215.78C1099.97,-203.53 1095.51,-189 1092.31,-178.54"/>
<polygon fill="#63b8ff" stroke="#63b8ff" points="1100.4,-216.86 1106.67,-225.39 1107.09,-214.81 1100.4,-216.86"/>
</a>
</g>
</g>
<!-- Node8 -->
<g id="Node000008" class="node">
<title>Node8</title>
<g id="a_Node000008"><a xlink:href="../../d5/d3b/vtoolmirrorbyaxis_8cpp.html" target="_top" xlink:title=" ">
<polygon fill="white" stroke="#666666" points="1010,-107 850,-107 850,-66 1010,-66 1010,-107"/>
<text text-anchor="start" x="858" y="-95" font-family="Helvetica,sans-Serif" font-size="10.00">src/libs/vtools/tools</text>
<text text-anchor="start" x="858" y="-84" font-family="Helvetica,sans-Serif" font-size="10.00">/drawTools/operation</text>
<text text-anchor="middle" x="930" y="-73" font-family="Helvetica,sans-Serif" font-size="10.00">/mirror/vtoolmirrorbyaxis.cpp</text>
</a>
</g>
</g>
<!-- Node5&#45;&gt;Node8 -->
<g id="edge8_Node000005_Node000008" class="edge">
<title>Node5&#45;&gt;Node8</title>
<g id="a_edge8_Node000005_Node000008"><a xlink:title=" ">
<path fill="none" stroke="#63b8ff" d="M1062.05,-221.49C1041.2,-212.31 1017.49,-199.73 999,-184 973.12,-161.98 951.94,-128.25 940.15,-107.06"/>
<polygon fill="#63b8ff" stroke="#63b8ff" points="1060.82,-224.78 1071.4,-225.47 1063.57,-218.33 1060.82,-224.78"/>
</a>
</g>
</g>
<!-- Node9&#45;&gt;Node6 -->
<g id="edge10_Node000009_Node000006" class="edge">
<title>Node9&#45;&gt;Node6</title>
<g id="a_edge10_Node000009_Node000006"><a xlink:title=" ">
<path fill="none" stroke="#63b8ff" d="M598.28,-231.89C638.91,-228.22 688.5,-223.8 733,-220 929.82,-203.2 981.46,-218.31 1176,-184 1184.06,-182.58 1192.52,-180.65 1200.69,-178.56"/>
<polygon fill="#63b8ff" stroke="#63b8ff" points="597.79,-228.42 588.15,-232.81 598.43,-235.39 597.79,-228.42"/>
</a>
</g>
</g>
<!-- Node10 -->
<g id="Node000010" class="node">
<title>Node10</title>
<g id="a_Node000010"><a xlink:href="../../df/d5e/dialogmirrorbyline_8cpp.html" target="_top" xlink:title=" ">
<polygon fill="white" stroke="#666666" points="417.5,-178.5 260.5,-178.5 260.5,-148.5 417.5,-148.5 417.5,-178.5"/>
<text text-anchor="start" x="268.5" y="-166.5" font-family="Helvetica,sans-Serif" font-size="10.00">src/libs/vtools/dialogs</text>
<text text-anchor="middle" x="339" y="-155.5" font-family="Helvetica,sans-Serif" font-size="10.00">/tools/dialogmirrorbyline.cpp</text>
</a>
</g>
</g>
<!-- Node9&#45;&gt;Node10 -->
<g id="edge11_Node000009_Node000010" class="edge">
<title>Node9&#45;&gt;Node10</title>
<g id="a_edge11_Node000009_Node000010"><a xlink:title=" ">
<path fill="none" stroke="#63b8ff" d="M472.66,-221.46C441.74,-208.28 400.43,-190.68 371.96,-178.54"/>
<polygon fill="#63b8ff" stroke="#63b8ff" points="471.32,-224.69 481.9,-225.39 474.07,-218.25 471.32,-224.69"/>
</a>
</g>
</g>
<!-- Node11 -->
<g id="Node000011" class="node">
<title>Node11</title>
<g id="a_Node000011"><a xlink:href="../../d2/d3c/vtoolmirrorbyline_8cpp.html" target="_top" xlink:title=" ">
<polygon fill="white" stroke="#666666" points="704,-107 546,-107 546,-66 704,-66 704,-107"/>
<text text-anchor="start" x="554" y="-95" font-family="Helvetica,sans-Serif" font-size="10.00">src/libs/vtools/tools</text>
<text text-anchor="start" x="554" y="-84" font-family="Helvetica,sans-Serif" font-size="10.00">/drawTools/operation</text>
<text text-anchor="middle" x="625" y="-73" font-family="Helvetica,sans-Serif" font-size="10.00">/mirror/vtoolmirrorbyline.cpp</text>
</a>
</g>
</g>
<!-- Node9&#45;&gt;Node11 -->
<g id="edge12_Node000009_Node000011" class="edge">
<title>Node9&#45;&gt;Node11</title>
<g id="a_edge12_Node000009_Node000011"><a xlink:title=" ">
<path fill="none" stroke="#63b8ff" d="M490.89,-218.44C470.71,-198.22 447.75,-167.24 465,-143 483.58,-116.89 515.34,-102.95 545.7,-95.55"/>
<polygon fill="#63b8ff" stroke="#63b8ff" points="488.48,-220.98 498.12,-225.38 493.33,-215.93 488.48,-220.98"/>
</a>
</g>
</g>
<!-- Node13&#45;&gt;Node6 -->
<g id="edge15_Node000013_Node000006" class="edge">
<title>Node13&#45;&gt;Node6</title>
<g id="a_edge15_Node000013_Node000006"><a xlink:title=" ">
<path fill="none" stroke="#63b8ff" d="M1381.42,-221.46C1350.33,-208.28 1308.78,-190.68 1280.14,-178.54"/>
<polygon fill="#63b8ff" stroke="#63b8ff" points="1380.13,-224.71 1390.71,-225.39 1382.87,-218.27 1380.13,-224.71"/>
</a>
</g>
</g>
<!-- Node13&#45;&gt;Node12 -->
<g id="edge16_Node000013_Node000012" class="edge">
<title>Node13&#45;&gt;Node12</title>
<g id="a_edge16_Node000013_Node000012"><a xlink:title=" ">
<path fill="none" stroke="#63b8ff" d="M1459.03,-220.6C1483.26,-207.53 1514.97,-190.41 1536.97,-178.54"/>
<polygon fill="#63b8ff" stroke="#63b8ff" points="1457.28,-217.56 1450.14,-225.39 1460.61,-223.72 1457.28,-217.56"/>
</a>
</g>
</g>
<!-- Node14 -->
<g id="Node000014" class="node">
<title>Node14</title>
<g id="a_Node000014"><a xlink:href="../../d3/d2b/vtoolmove_8cpp.html" target="_top" xlink:title=" ">
<polygon fill="white" stroke="#666666" points="1482,-184 1364,-184 1364,-143 1482,-143 1482,-184"/>
<text text-anchor="start" x="1372" y="-172" font-family="Helvetica,sans-Serif" font-size="10.00">src/libs/vtools/tools</text>
<text text-anchor="start" x="1372" y="-161" font-family="Helvetica,sans-Serif" font-size="10.00">/drawTools/operation</text>
<text text-anchor="middle" x="1423" y="-150" font-family="Helvetica,sans-Serif" font-size="10.00">/vtoolmove.cpp</text>
</a>
</g>
</g>
<!-- Node13&#45;&gt;Node14 -->
<g id="edge17_Node000013_Node000014" class="edge">
<title>Node13&#45;&gt;Node14</title>
<g id="a_edge17_Node000013_Node000014"><a xlink:title=" ">
<path fill="none" stroke="#63b8ff" d="M1423.68,-215.23C1423.54,-205.2 1423.39,-193.71 1423.26,-184.2"/>
<polygon fill="#63b8ff" stroke="#63b8ff" points="1420.18,-215.44 1423.81,-225.39 1427.18,-215.35 1420.18,-215.44"/>
</a>
</g>
</g>
<!-- Node15&#45;&gt;Node6 -->
<g id="edge19_Node000015_Node000006" class="edge">
<title>Node15&#45;&gt;Node6</title>
<g id="a_edge19_Node000015_Node000006"><a xlink:title=" ">
<path fill="none" stroke="#63b8ff" d="M1682.14,-223.06C1677.38,-221.94 1672.62,-220.89 1668,-220 1530.53,-193.38 1493.53,-204.45 1355,-184 1339.73,-181.75 1323.31,-178.97 1308,-176.22"/>
<polygon fill="#63b8ff" stroke="#63b8ff" points="1681.33,-226.47 1691.88,-225.47 1683.02,-219.67 1681.33,-226.47"/>
</a>
</g>
</g>
<!-- Node16 -->
<g id="Node000016" class="node">
<title>Node16</title>
<g id="a_Node000016"><a xlink:href="../../dc/d64/dialogrotation_8cpp.html" target="_top" xlink:title=" ">
<polygon fill="white" stroke="#666666" points="1953.5,-178.5 1818.5,-178.5 1818.5,-148.5 1953.5,-148.5 1953.5,-178.5"/>
<text text-anchor="start" x="1826.5" y="-166.5" font-family="Helvetica,sans-Serif" font-size="10.00">src/libs/vtools/dialogs</text>
<text text-anchor="middle" x="1886" y="-155.5" font-family="Helvetica,sans-Serif" font-size="10.00">/tools/dialogrotation.cpp</text>
</a>
</g>
</g>
<!-- Node15&#45;&gt;Node16 -->
<g id="edge20_Node000015_Node000016" class="edge">
<title>Node15&#45;&gt;Node16</title>
<g id="a_edge20_Node000015_Node000016"><a xlink:title=" ">
<path fill="none" stroke="#63b8ff" d="M1775.71,-220.77C1801.37,-207.68 1835.1,-190.47 1858.47,-178.54"/>
<polygon fill="#63b8ff" stroke="#63b8ff" points="1773.97,-217.73 1766.65,-225.39 1777.15,-223.97 1773.97,-217.73"/>
</a>
</g>
</g>
<!-- Node17 -->
<g id="Node000017" class="node">
<title>Node17</title>
<g id="a_Node000017"><a xlink:href="../../df/dd2/vtoolrotation_8cpp.html" target="_top" xlink:title=" ">
<polygon fill="white" stroke="#666666" points="1800,-184 1682,-184 1682,-143 1800,-143 1800,-184"/>
<text text-anchor="start" x="1690" y="-172" font-family="Helvetica,sans-Serif" font-size="10.00">src/libs/vtools/tools</text>
<text text-anchor="start" x="1690" y="-161" font-family="Helvetica,sans-Serif" font-size="10.00">/drawTools/operation</text>
<text text-anchor="middle" x="1741" y="-150" font-family="Helvetica,sans-Serif" font-size="10.00">/vtoolrotation.cpp</text>
</a>
</g>
</g>
<!-- Node15&#45;&gt;Node17 -->
<g id="edge21_Node000015_Node000017" class="edge">
<title>Node15&#45;&gt;Node17</title>
<g id="a_edge21_Node000015_Node000017"><a xlink:title=" ">
<path fill="none" stroke="#63b8ff" d="M1739.65,-215.23C1739.91,-205.2 1740.22,-193.71 1740.47,-184.2"/>
<polygon fill="#63b8ff" stroke="#63b8ff" points="1736.14,-215.3 1739.38,-225.39 1743.14,-215.49 1736.14,-215.3"/>
</a>
</g>
</g>
<!-- Node19 -->
<g id="Node000019" class="node">
<title>Node19</title>
<g id="a_Node000019"><a xlink:href="../../da/ddc/vabstractmirror_8cpp.html" target="_top" xlink:title=" ">
<polygon fill="white" stroke="#666666" points="622,-184 474,-184 474,-143 622,-143 622,-184"/>
<text text-anchor="start" x="482" y="-172" font-family="Helvetica,sans-Serif" font-size="10.00">src/libs/vtools/tools</text>
<text text-anchor="start" x="482" y="-161" font-family="Helvetica,sans-Serif" font-size="10.00">/drawTools/operation</text>
<text text-anchor="middle" x="548" y="-150" font-family="Helvetica,sans-Serif" font-size="10.00">/mirror/vabstractmirror.cpp</text>
</a>
</g>
</g>
<!-- Node18&#45;&gt;Node19 -->
<g id="edge23_Node000018_Node000019" class="edge">
<title>Node18&#45;&gt;Node19</title>
<g id="a_edge23_Node000018_Node000019"><a xlink:title=" ">
<path fill="none" stroke="#63b8ff" d="M732.85,-217.21C695.9,-206.68 652.17,-194.21 616.53,-184.04"/>
<polygon fill="#63b8ff" stroke="#63b8ff" points="732.01,-220.61 742.59,-219.99 733.93,-213.88 732.01,-220.61"/>
</a>
</g>
</g>
<!-- Node20 -->
<g id="Node000020" class="node">
<title>Node20</title>
<g id="a_Node000020"><a xlink:href="../../df/db5/vtoolmirrorbyaxis_8h.html" target="_top" xlink:title=" ">
<polygon fill="white" stroke="#666666" points="953.5,-184 804.5,-184 804.5,-143 953.5,-143 953.5,-184"/>
<text text-anchor="start" x="812.5" y="-172" font-family="Helvetica,sans-Serif" font-size="10.00">src/libs/vtools/tools</text>
<text text-anchor="start" x="812.5" y="-161" font-family="Helvetica,sans-Serif" font-size="10.00">/drawTools/operation</text>
<text text-anchor="middle" x="879" y="-150" font-family="Helvetica,sans-Serif" font-size="10.00">/mirror/vtoolmirrorbyaxis.h</text>
</a>
</g>
</g>
<!-- Node18&#45;&gt;Node20 -->
<g id="edge24_Node000018_Node000020" class="edge">
<title>Node18&#45;&gt;Node20</title>
<g id="a_edge24_Node000018_Node000020"><a xlink:title=" ">
<path fill="none" stroke="#63b8ff" d="M835.72,-212.23C844.18,-202.91 853.46,-192.67 861.25,-184.07"/>
<polygon fill="#63b8ff" stroke="#63b8ff" points="832.99,-210.04 828.87,-219.79 838.18,-214.74 832.99,-210.04"/>
</a>
</g>
</g>
<!-- Node23 -->
<g id="Node000023" class="node">
<title>Node23</title>
<g id="a_Node000023"><a xlink:href="../../dc/d5e/vtoolmirrorbyline_8h.html" target="_top" xlink:title=" ">
<polygon fill="white" stroke="#666666" points="786,-184 640,-184 640,-143 786,-143 786,-184"/>
<text text-anchor="start" x="648" y="-172" font-family="Helvetica,sans-Serif" font-size="10.00">src/libs/vtools/tools</text>
<text text-anchor="start" x="648" y="-161" font-family="Helvetica,sans-Serif" font-size="10.00">/drawTools/operation</text>
<text text-anchor="middle" x="713" y="-150" font-family="Helvetica,sans-Serif" font-size="10.00">/mirror/vtoolmirrorbyline.h</text>
</a>
</g>
</g>
<!-- Node18&#45;&gt;Node23 -->
<g id="edge28_Node000018_Node000023" class="edge">
<title>Node18&#45;&gt;Node23</title>
<g id="a_edge28_Node000018_Node000023"><a xlink:title=" ">
<path fill="none" stroke="#63b8ff" d="M777.44,-213.82C764.76,-204.11 750.55,-193.24 738.71,-184.17"/>
<polygon fill="#63b8ff" stroke="#63b8ff" points="775.44,-216.69 785.51,-219.99 779.69,-211.13 775.44,-216.69"/>
</a>
</g>
</g>
<!-- Node20&#45;&gt;Node8 -->
<g id="edge27_Node000020_Node000008" class="edge">
<title>Node20&#45;&gt;Node8</title>
<g id="a_edge27_Node000020_Node000008"><a xlink:title=" ">
<path fill="none" stroke="#63b8ff" d="M898.11,-134.39C904.3,-125.3 911.02,-115.41 916.69,-107.07"/>
<polygon fill="#63b8ff" stroke="#63b8ff" points="895.13,-132.56 892.4,-142.79 900.92,-136.49 895.13,-132.56"/>
</a>
</g>
</g>
<!-- Node21 -->
<g id="Node000021" class="node">
<title>Node21</title>
<g id="a_Node000021"><a xlink:href="../../d4/d56/drawtools_8h.html" target="_top" xlink:title=" ">
<polygon fill="white" stroke="#666666" points="1303,-101.5 1175,-101.5 1175,-71.5 1303,-71.5 1303,-101.5"/>
<text text-anchor="start" x="1183" y="-89.5" font-family="Helvetica,sans-Serif" font-size="10.00">src/libs/vtools/tools</text>
<text text-anchor="middle" x="1239" y="-78.5" font-family="Helvetica,sans-Serif" font-size="10.00">/drawTools/drawtools.h</text>
</a>
</g>
</g>
<!-- Node20&#45;&gt;Node21 -->
<g id="edge25_Node000020_Node000021" class="edge">
<title>Node20&#45;&gt;Node21</title>
<g id="a_edge25_Node000020_Node000021"><a xlink:title=" ">
<path fill="none" stroke="#63b8ff" d="M963.75,-144.84C1028.33,-131.39 1115.88,-113.15 1174.75,-100.89"/>
<polygon fill="#63b8ff" stroke="#63b8ff" points="962.67,-141.49 953.59,-146.96 964.1,-148.35 962.67,-141.49"/>
</a>
</g>
</g>
<!-- Node22 -->
<g id="Node000022" class="node">
<title>Node22</title>
<g id="a_Node000022"><a xlink:href="../../d5/da5/tools_8h.html" target="_top" xlink:title=" ">
<polygon fill="white" stroke="#666666" points="1294.5,-30 1183.5,-30 1183.5,0 1294.5,0 1294.5,-30"/>
<text text-anchor="start" x="1191.5" y="-18" font-family="Helvetica,sans-Serif" font-size="10.00">src/libs/vtools/tools</text>
<text text-anchor="middle" x="1239" y="-7" font-family="Helvetica,sans-Serif" font-size="10.00">/tools.h</text>
</a>
</g>
</g>
<!-- Node21&#45;&gt;Node22 -->
<g id="edge26_Node000021_Node000022" class="edge">
<title>Node21&#45;&gt;Node22</title>
<g id="a_edge26_Node000021_Node000022"><a xlink:title=" ">
<path fill="none" stroke="#63b8ff" d="M1239,-61.25C1239,-50.81 1239,-38.99 1239,-30.04"/>
<polygon fill="#63b8ff" stroke="#63b8ff" points="1235.5,-61.44 1239,-71.44 1242.5,-61.44 1235.5,-61.44"/>
</a>
</g>
</g>
<!-- Node23&#45;&gt;Node11 -->
<g id="edge30_Node000023_Node000011" class="edge">
<title>Node23&#45;&gt;Node11</title>
<g id="a_edge30_Node000023_Node000011"><a xlink:title=" ">
<path fill="none" stroke="#63b8ff" d="M681.99,-136.07C670.79,-126.52 658.35,-115.93 647.97,-107.07"/>
<polygon fill="#63b8ff" stroke="#63b8ff" points="680,-138.97 689.88,-142.79 684.54,-133.64 680,-138.97"/>
</a>
</g>
</g>
<!-- Node23&#45;&gt;Node21 -->
<g id="edge29_Node000023_Node000021" class="edge">
<title>Node23&#45;&gt;Node21</title>
<g id="a_edge29_Node000023_Node000021"><a xlink:title=" ">
<path fill="none" stroke="#63b8ff" d="M796.31,-142.86C936.57,-117.94 1090.07,-101.46 1174.7,-93.32"/>
<polygon fill="#63b8ff" stroke="#63b8ff" points="795.46,-139.45 786.23,-144.67 796.7,-146.34 795.46,-139.45"/>
</a>
</g>
</g>
<!-- Node25&#45;&gt;Node14 -->
<g id="edge34_Node000025_Node000014" class="edge">
<title>Node25&#45;&gt;Node14</title>
<g id="a_edge34_Node000025_Node000014"><a xlink:title=" ">
<path fill="none" stroke="#63b8ff" d="M1330.65,-215.06C1348.93,-205.05 1369.8,-193.63 1387.07,-184.17"/>
<polygon fill="#63b8ff" stroke="#63b8ff" points="1328.73,-212.12 1321.64,-219.99 1332.09,-218.26 1328.73,-212.12"/>
</a>
</g>
</g>
<!-- Node25&#45;&gt;Node21 -->
<g id="edge33_Node000025_Node000021" class="edge">
<title>Node25&#45;&gt;Node21</title>
<g id="a_edge33_Node000025_Node000021"><a xlink:title=" ">
<path fill="none" stroke="#63b8ff" d="M1306.38,-211.34C1318.02,-191.56 1328.26,-164.83 1317,-143 1307.4,-124.39 1288.36,-110.65 1271.49,-101.5"/>
<polygon fill="#63b8ff" stroke="#63b8ff" points="1303.36,-209.57 1301,-219.9 1309.29,-213.29 1303.36,-209.57"/>
</a>
</g>
</g>
<!-- Node26&#45;&gt;Node17 -->
<g id="edge37_Node000026_Node000017" class="edge">
<title>Node26&#45;&gt;Node17</title>
<g id="a_edge37_Node000026_Node000017"><a xlink:title=" ">
<path fill="none" stroke="#63b8ff" d="M1645.7,-215.19C1664.57,-205.15 1686.16,-193.67 1704.02,-184.17"/>
<polygon fill="#63b8ff" stroke="#63b8ff" points="1643.86,-212.2 1636.68,-219.99 1647.15,-218.38 1643.86,-212.2"/>
</a>
</g>
</g>
<!-- Node26&#45;&gt;Node21 -->
<g id="edge36_Node000026_Node000021" class="edge">
<title>Node26&#45;&gt;Node21</title>
<g id="a_edge36_Node000026_Node000021"><a xlink:title=" ">
<path fill="none" stroke="#63b8ff" d="M1623.16,-211.78C1637.74,-190.82 1650.9,-162.44 1634,-143 1591.92,-94.59 1403.9,-87.18 1303.19,-86.78"/>
<polygon fill="#63b8ff" stroke="#63b8ff" points="1620.23,-209.85 1617.12,-219.97 1625.87,-214 1620.23,-209.85"/>
</a>
</g>
</g>
</g>
</svg>
