<?xml version="1.0" encoding="UTF-8" standalone="no"?>
<!DOCTYPE svg PUBLIC "-//W3C//DTD SVG 1.1//EN"
 "http://www.w3.org/Graphics/SVG/1.1/DTD/svg11.dtd">
<!-- Generated by graphviz version 2.43.0 (0)
 -->
<!-- Title: src/libs/qmuparser/qmuparserbytecode.h Pages: 1 -->
<svg width="1198pt" height="441pt"
 viewBox="0.00 0.00 1198.00 441.00" xmlns="http://www.w3.org/2000/svg" xmlns:xlink="http://www.w3.org/1999/xlink">
<g id="graph0" class="graph" transform="scale(1 1) rotate(0) translate(4 437)">
<title>src/libs/qmuparser/qmuparserbytecode.h</title>
<polygon fill="white" stroke="transparent" points="-4,4 -4,-437 1194,-437 1194,4 -4,4"/>
<!-- Node1 -->
<g id="node1" class="node">
<title>Node1</title>
<g id="a_node1"><a xlink:title="Definition of the parser bytecode class.">
<polygon fill="#bfbfbf" stroke="black" points="867.5,-402.5 867.5,-432.5 993.5,-432.5 993.5,-402.5 867.5,-402.5"/>
<text text-anchor="start" x="875.5" y="-420.5" font-family="Helvetica,sans-Serif" font-size="10.00">src/libs/qmuparser</text>
<text text-anchor="middle" x="930.5" y="-409.5" font-family="Helvetica,sans-Serif" font-size="10.00">/qmuparserbytecode.h</text>
</a>
</g>
</g>
<!-- Node2 -->
<g id="node2" class="node">
<title>Node2</title>
<g id="a_node2"><a xlink:href="../../df/d18/qmuparserbase_8h.html" target="_top" xlink:title="This file contains the class definition of the qmuparser engine.">
<polygon fill="white" stroke="black" points="807,-335.5 807,-365.5 914,-365.5 914,-335.5 807,-335.5"/>
<text text-anchor="start" x="815" y="-353.5" font-family="Helvetica,sans-Serif" font-size="10.00">src/libs/qmuparser</text>
<text text-anchor="middle" x="860.5" y="-342.5" font-family="Helvetica,sans-Serif" font-size="10.00">/qmuparserbase.h</text>
</a>
</g>
</g>
<!-- Node1&#45;&gt;Node2 -->
<g id="edge1" class="edge">
<title>Node1&#45;&gt;Node2</title>
<path fill="none" stroke="midnightblue" d="M907.68,-395.31C897.18,-385.56 885.01,-374.26 875.66,-365.58"/>
<polygon fill="midnightblue" stroke="midnightblue" points="905.6,-398.16 915.31,-402.4 910.36,-393.03 905.6,-398.16"/>
</g>
<!-- Node22 -->
<g id="node22" class="node">
<title>Node22</title>
<g id="a_node22"><a xlink:href="../../d1/d4b/qmuparserbytecode_8cpp.html" target="_top" xlink:title=" ">
<polygon fill="white" stroke="black" points="932,-335.5 932,-365.5 1069,-365.5 1069,-335.5 932,-335.5"/>
<text text-anchor="start" x="940" y="-353.5" font-family="Helvetica,sans-Serif" font-size="10.00">src/libs/qmuparser</text>
<text text-anchor="middle" x="1000.5" y="-342.5" font-family="Helvetica,sans-Serif" font-size="10.00">/qmuparserbytecode.cpp</text>
</a>
</g>
</g>
<!-- Node1&#45;&gt;Node22 -->
<g id="edge24" class="edge">
<title>Node1&#45;&gt;Node22</title>
<path fill="none" stroke="midnightblue" d="M953.32,-395.31C963.82,-385.56 975.99,-374.26 985.34,-365.58"/>
<polygon fill="midnightblue" stroke="midnightblue" points="950.64,-393.03 945.69,-402.4 955.4,-398.16 950.64,-393.03"/>
</g>
<!-- Node3 -->
<g id="node3" class="node">
<title>Node3</title>
<g id="a_node3"><a xlink:href="../../d6/dc3/qmuparser_8h.html" target="_top" xlink:title="Definition of the standard floating point parser.">
<polygon fill="white" stroke="black" points="677,-268.5 677,-298.5 784,-298.5 784,-268.5 677,-268.5"/>
<text text-anchor="start" x="685" y="-286.5" font-family="Helvetica,sans-Serif" font-size="10.00">src/libs/qmuparser</text>
<text text-anchor="middle" x="730.5" y="-275.5" font-family="Helvetica,sans-Serif" font-size="10.00">/qmuparser.h</text>
</a>
</g>
</g>
<!-- Node2&#45;&gt;Node3 -->
<g id="edge2" class="edge">
<title>Node2&#45;&gt;Node3</title>
<path fill="none" stroke="midnightblue" d="M823.21,-330.85C802.65,-320.58 777.55,-308.03 758.65,-298.58"/>
<polygon fill="midnightblue" stroke="midnightblue" points="821.78,-334.05 832.29,-335.4 824.91,-327.79 821.78,-334.05"/>
</g>
<!-- Node20 -->
<g id="node20" class="node">
<title>Node20</title>
<g id="a_node20"><a xlink:href="../../d0/d70/qmuparserbase_8cpp.html" target="_top" xlink:title="This file contains the basic implementation of the muparser engine.">
<polygon fill="white" stroke="black" points="802.5,-268.5 802.5,-298.5 918.5,-298.5 918.5,-268.5 802.5,-268.5"/>
<text text-anchor="start" x="810.5" y="-286.5" font-family="Helvetica,sans-Serif" font-size="10.00">src/libs/qmuparser</text>
<text text-anchor="middle" x="860.5" y="-275.5" font-family="Helvetica,sans-Serif" font-size="10.00">/qmuparserbase.cpp</text>
</a>
</g>
</g>
<!-- Node2&#45;&gt;Node20 -->
<g id="edge22" class="edge">
<title>Node2&#45;&gt;Node20</title>
<path fill="none" stroke="midnightblue" d="M860.5,-325.11C860.5,-316.15 860.5,-306.32 860.5,-298.58"/>
<polygon fill="midnightblue" stroke="midnightblue" points="857,-325.4 860.5,-335.4 864,-325.4 857,-325.4"/>
</g>
<!-- Node21 -->
<g id="node21" class="node">
<title>Node21</title>
<g id="a_node21"><a xlink:href="../../df/d10/qmuparsertokenreader_8cpp.html" target="_top" xlink:title="This file contains the parser token reader implementation.">
<polygon fill="white" stroke="black" points="936.5,-268.5 936.5,-298.5 1086.5,-298.5 1086.5,-268.5 936.5,-268.5"/>
<text text-anchor="start" x="944.5" y="-286.5" font-family="Helvetica,sans-Serif" font-size="10.00">src/libs/qmuparser</text>
<text text-anchor="middle" x="1011.5" y="-275.5" font-family="Helvetica,sans-Serif" font-size="10.00">/qmuparsertokenreader.cpp</text>
</a>
</g>
</g>
<!-- Node2&#45;&gt;Node21 -->
<g id="edge23" class="edge">
<title>Node2&#45;&gt;Node21</title>
<path fill="none" stroke="midnightblue" d="M902.53,-331.41C926.64,-321.03 956.45,-308.2 978.8,-298.58"/>
<polygon fill="midnightblue" stroke="midnightblue" points="901.07,-328.23 893.26,-335.4 903.83,-334.66 901.07,-328.23"/>
</g>
<!-- Node4 -->
<g id="node4" class="node">
<title>Node4</title>
<g id="a_node4"><a xlink:href="../../d7/da3/qmuformulabase_8h.html" target="_top" xlink:title=" ">
<polygon fill="white" stroke="black" points="403.5,-201.5 403.5,-231.5 515.5,-231.5 515.5,-201.5 403.5,-201.5"/>
<text text-anchor="start" x="411.5" y="-219.5" font-family="Helvetica,sans-Serif" font-size="10.00">src/libs/qmuparser</text>
<text text-anchor="middle" x="459.5" y="-208.5" font-family="Helvetica,sans-Serif" font-size="10.00">/qmuformulabase.h</text>
</a>
</g>
</g>
<!-- Node3&#45;&gt;Node4 -->
<g id="edge3" class="edge">
<title>Node3&#45;&gt;Node4</title>
<path fill="none" stroke="midnightblue" d="M667.13,-267.3C621.27,-256.3 559.85,-241.57 515.73,-230.99"/>
<polygon fill="midnightblue" stroke="midnightblue" points="666.42,-270.73 676.96,-269.66 668.05,-263.92 666.42,-270.73"/>
</g>
<!-- Node17 -->
<g id="node17" class="node">
<title>Node17</title>
<g id="a_node17"><a xlink:href="../../da/d59/qmuparser_8cpp.html" target="_top" xlink:title="Implementation of the standard floating point QmuParser.">
<polygon fill="white" stroke="black" points="636,-201.5 636,-231.5 743,-231.5 743,-201.5 636,-201.5"/>
<text text-anchor="start" x="644" y="-219.5" font-family="Helvetica,sans-Serif" font-size="10.00">src/libs/qmuparser</text>
<text text-anchor="middle" x="689.5" y="-208.5" font-family="Helvetica,sans-Serif" font-size="10.00">/qmuparser.cpp</text>
</a>
</g>
</g>
<!-- Node3&#45;&gt;Node17 -->
<g id="edge18" class="edge">
<title>Node3&#45;&gt;Node17</title>
<path fill="none" stroke="midnightblue" d="M716.22,-259.87C710.29,-250.46 703.59,-239.83 698.38,-231.58"/>
<polygon fill="midnightblue" stroke="midnightblue" points="713.31,-261.81 721.6,-268.4 719.23,-258.07 713.31,-261.81"/>
</g>
<!-- Node18 -->
<g id="node18" class="node">
<title>Node18</title>
<g id="a_node18"><a xlink:href="../../df/dbf/qmuparsertest_8cpp.html" target="_top" xlink:title="This file contains the implementation of parser test cases.">
<polygon fill="white" stroke="black" points="798,-134.5 798,-164.5 909,-164.5 909,-134.5 798,-134.5"/>
<text text-anchor="start" x="806" y="-152.5" font-family="Helvetica,sans-Serif" font-size="10.00">src/libs/qmuparser</text>
<text text-anchor="middle" x="853.5" y="-141.5" font-family="Helvetica,sans-Serif" font-size="10.00">/qmuparsertest.cpp</text>
</a>
</g>
</g>
<!-- Node3&#45;&gt;Node18 -->
<g id="edge19" class="edge">
<title>Node3&#45;&gt;Node18</title>
<path fill="none" stroke="midnightblue" d="M745.33,-259.69C756.91,-242.67 773.95,-219.29 791.5,-201 804.48,-187.48 821.01,-174.17 833.74,-164.62"/>
<polygon fill="midnightblue" stroke="midnightblue" points="742.14,-258.17 739.48,-268.43 747.95,-262.06 742.14,-258.17"/>
</g>
<!-- Node19 -->
<g id="node19" class="node">
<title>Node19</title>
<g id="a_node19"><a xlink:href="../../db/dfa/qmuparsertest_8h.html" target="_top" xlink:title="This file contains the parser test class.">
<polygon fill="white" stroke="black" points="800,-201.5 800,-231.5 907,-231.5 907,-201.5 800,-201.5"/>
<text text-anchor="start" x="808" y="-219.5" font-family="Helvetica,sans-Serif" font-size="10.00">src/libs/qmuparser</text>
<text text-anchor="middle" x="853.5" y="-208.5" font-family="Helvetica,sans-Serif" font-size="10.00">/qmuparsertest.h</text>
</a>
</g>
</g>
<!-- Node3&#45;&gt;Node19 -->
<g id="edge20" class="edge">
<title>Node3&#45;&gt;Node19</title>
<path fill="none" stroke="midnightblue" d="M766.05,-263.71C785.45,-253.46 809.06,-240.98 826.86,-231.58"/>
<polygon fill="midnightblue" stroke="midnightblue" points="764.4,-260.63 757.19,-268.4 767.67,-266.82 764.4,-260.63"/>
</g>
<!-- Node5 -->
<g id="node5" class="node">
<title>Node5</title>
<g id="a_node5"><a xlink:href="../../d4/d67/qmuformulabase_8cpp.html" target="_top" xlink:title=" ">
<polygon fill="white" stroke="black" points="162,-134.5 162,-164.5 285,-164.5 285,-134.5 162,-134.5"/>
<text text-anchor="start" x="170" y="-152.5" font-family="Helvetica,sans-Serif" font-size="10.00">src/libs/qmuparser</text>
<text text-anchor="middle" x="223.5" y="-141.5" font-family="Helvetica,sans-Serif" font-size="10.00">/qmuformulabase.cpp</text>
</a>
</g>
</g>
<!-- Node4&#45;&gt;Node5 -->
<g id="edge4" class="edge">
<title>Node4&#45;&gt;Node5</title>
<path fill="none" stroke="midnightblue" d="M398.56,-198.71C360.15,-188.14 311.13,-174.63 274.73,-164.61"/>
<polygon fill="midnightblue" stroke="midnightblue" points="398.01,-202.19 408.58,-201.48 399.87,-195.45 398.01,-202.19"/>
</g>
<!-- Node6 -->
<g id="node6" class="node">
<title>Node6</title>
<g id="a_node6"><a xlink:href="../../db/d75/qmutokenparser_8h.html" target="_top" xlink:title=" ">
<polygon fill="white" stroke="black" points="303,-134.5 303,-164.5 410,-164.5 410,-134.5 303,-134.5"/>
<text text-anchor="start" x="311" y="-152.5" font-family="Helvetica,sans-Serif" font-size="10.00">src/libs/qmuparser</text>
<text text-anchor="middle" x="356.5" y="-141.5" font-family="Helvetica,sans-Serif" font-size="10.00">/qmutokenparser.h</text>
</a>
</g>
</g>
<!-- Node4&#45;&gt;Node6 -->
<g id="edge5" class="edge">
<title>Node4&#45;&gt;Node6</title>
<path fill="none" stroke="midnightblue" d="M428.62,-196.02C412.6,-185.9 393.37,-173.77 378.81,-164.58"/>
<polygon fill="midnightblue" stroke="midnightblue" points="426.83,-199.02 437.15,-201.4 430.56,-193.1 426.83,-199.02"/>
</g>
<!-- Node12 -->
<g id="node12" class="node">
<title>Node12</title>
<g id="a_node12"><a xlink:href="../../db/db8/vpatterndb_2calculator_8h.html" target="_top" xlink:title=" ">
<polygon fill="white" stroke="black" points="673,-134.5 673,-164.5 780,-164.5 780,-134.5 673,-134.5"/>
<text text-anchor="start" x="681" y="-152.5" font-family="Helvetica,sans-Serif" font-size="10.00">src/libs/vpatterndb</text>
<text text-anchor="middle" x="726.5" y="-141.5" font-family="Helvetica,sans-Serif" font-size="10.00">/calculator.h</text>
</a>
</g>
</g>
<!-- Node4&#45;&gt;Node12 -->
<g id="edge12" class="edge">
<title>Node4&#45;&gt;Node12</title>
<path fill="none" stroke="midnightblue" d="M525.52,-199.43C570.8,-188.4 630.12,-173.96 672.56,-163.63"/>
<polygon fill="midnightblue" stroke="midnightblue" points="524.69,-196.03 515.8,-201.79 526.34,-202.83 524.69,-196.03"/>
</g>
<!-- Node7 -->
<g id="node7" class="node">
<title>Node7</title>
<g id="a_node7"><a xlink:href="../../dd/d20/qmutokenparser_8cpp.html" target="_top" xlink:title=" ">
<polygon fill="white" stroke="black" points="0,-67.5 0,-97.5 119,-97.5 119,-67.5 0,-67.5"/>
<text text-anchor="start" x="8" y="-85.5" font-family="Helvetica,sans-Serif" font-size="10.00">src/libs/qmuparser</text>
<text text-anchor="middle" x="59.5" y="-74.5" font-family="Helvetica,sans-Serif" font-size="10.00">/qmutokenparser.cpp</text>
</a>
</g>
</g>
<!-- Node6&#45;&gt;Node7 -->
<g id="edge6" class="edge">
<title>Node6&#45;&gt;Node7</title>
<path fill="none" stroke="midnightblue" d="M292.85,-133.87C227.71,-119.38 164.18,-105.73 119.18,-96.14"/>
<polygon fill="midnightblue" stroke="midnightblue" points="292.37,-137.35 302.9,-136.11 293.9,-130.52 292.37,-137.35"/>
</g>
<!-- Node8 -->
<g id="node8" class="node">
<title>Node8</title>
<g id="a_node8"><a xlink:href="../../d9/de3/measurements_8cpp.html" target="_top" xlink:title=" ">
<polygon fill="white" stroke="black" points="429.5,-73 429.5,-92 619.5,-92 619.5,-73 429.5,-73"/>
<text text-anchor="middle" x="524.5" y="-80" font-family="Helvetica,sans-Serif" font-size="10.00">src/libs/vformat/measurements.cpp</text>
</a>
</g>
</g>
<!-- Node6&#45;&gt;Node8 -->
<g id="edge7" class="edge">
<title>Node6&#45;&gt;Node8</title>
<path fill="none" stroke="midnightblue" d="M402.29,-130.78C434.86,-118.18 477.18,-101.81 502.51,-92.01"/>
<polygon fill="midnightblue" stroke="midnightblue" points="401.02,-127.52 392.95,-134.4 403.54,-134.05 401.02,-127.52"/>
</g>
<!-- Node9 -->
<g id="node9" class="node">
<title>Node9</title>
<g id="a_node9"><a xlink:href="../../d5/d81/vsplinepoint_8cpp.html" target="_top" xlink:title=" ">
<polygon fill="white" stroke="black" points="135,-0.5 135,-30.5 242,-30.5 242,-0.5 135,-0.5"/>
<text text-anchor="start" x="143" y="-18.5" font-family="Helvetica,sans-Serif" font-size="10.00">src/libs/vgeometry</text>
<text text-anchor="middle" x="188.5" y="-7.5" font-family="Helvetica,sans-Serif" font-size="10.00">/vsplinepoint.cpp</text>
</a>
</g>
</g>
<!-- Node6&#45;&gt;Node9 -->
<g id="edge8" class="edge">
<title>Node6&#45;&gt;Node9</title>
<path fill="none" stroke="midnightblue" d="M292.85,-133.53C239.21,-120.62 170.53,-103.24 166.5,-98 151.13,-78.02 166.35,-48.1 177.99,-30.61"/>
<polygon fill="midnightblue" stroke="midnightblue" points="292.13,-136.96 302.67,-135.89 293.77,-130.15 292.13,-136.96"/>
</g>
<!-- Node10 -->
<g id="node10" class="node">
<title>Node10</title>
<g id="a_node10"><a xlink:href="../../da/db2/vsplinepoint__p_8h.html" target="_top" xlink:title=" ">
<polygon fill="white" stroke="black" points="176,-67.5 176,-97.5 283,-97.5 283,-67.5 176,-67.5"/>
<text text-anchor="start" x="184" y="-85.5" font-family="Helvetica,sans-Serif" font-size="10.00">src/libs/vgeometry</text>
<text text-anchor="middle" x="229.5" y="-74.5" font-family="Helvetica,sans-Serif" font-size="10.00">/vsplinepoint_p.h</text>
</a>
</g>
</g>
<!-- Node6&#45;&gt;Node10 -->
<g id="edge9" class="edge">
<title>Node6&#45;&gt;Node10</title>
<path fill="none" stroke="midnightblue" d="M319.8,-129.71C299.77,-119.46 275.38,-106.98 257,-97.58"/>
<polygon fill="midnightblue" stroke="midnightblue" points="318.45,-132.96 328.94,-134.4 321.64,-126.72 318.45,-132.96"/>
</g>
<!-- Node11 -->
<g id="node11" class="node">
<title>Node11</title>
<g id="a_node11"><a xlink:href="../../de/d3e/vtranslatevars_8cpp.html" target="_top" xlink:title=" ">
<polygon fill="white" stroke="black" points="301.5,-67.5 301.5,-97.5 411.5,-97.5 411.5,-67.5 301.5,-67.5"/>
<text text-anchor="start" x="309.5" y="-85.5" font-family="Helvetica,sans-Serif" font-size="10.00">src/libs/vpatterndb</text>
<text text-anchor="middle" x="356.5" y="-74.5" font-family="Helvetica,sans-Serif" font-size="10.00">/vtranslatevars.cpp</text>
</a>
</g>
</g>
<!-- Node6&#45;&gt;Node11 -->
<g id="edge11" class="edge">
<title>Node6&#45;&gt;Node11</title>
<path fill="none" stroke="midnightblue" d="M356.5,-124.11C356.5,-115.15 356.5,-105.32 356.5,-97.58"/>
<polygon fill="midnightblue" stroke="midnightblue" points="353,-124.4 356.5,-134.4 360,-124.4 353,-124.4"/>
</g>
<!-- Node10&#45;&gt;Node9 -->
<g id="edge10" class="edge">
<title>Node10&#45;&gt;Node9</title>
<path fill="none" stroke="midnightblue" d="M215.22,-58.87C209.29,-49.46 202.59,-38.83 197.38,-30.58"/>
<polygon fill="midnightblue" stroke="midnightblue" points="212.31,-60.81 220.6,-67.4 218.23,-57.07 212.31,-60.81"/>
</g>
<!-- Node12&#45;&gt;Node8 -->
<g id="edge13" class="edge">
<title>Node12&#45;&gt;Node8</title>
<path fill="none" stroke="midnightblue" d="M672.95,-131.27C633.59,-118.6 581.79,-101.93 550.94,-92.01"/>
<polygon fill="midnightblue" stroke="midnightblue" points="672.08,-134.66 682.67,-134.4 674.22,-128 672.08,-134.66"/>
</g>
<!-- Node13 -->
<g id="node13" class="node">
<title>Node13</title>
<g id="a_node13"><a xlink:href="../../dd/d70/vlayoutpiece_8cpp.html" target="_top" xlink:title=" ">
<polygon fill="white" stroke="black" points="638,-73 638,-92 815,-92 815,-73 638,-73"/>
<text text-anchor="middle" x="726.5" y="-80" font-family="Helvetica,sans-Serif" font-size="10.00">src/libs/vlayout/vlayoutpiece.cpp</text>
</a>
</g>
</g>
<!-- Node12&#45;&gt;Node13 -->
<g id="edge14" class="edge">
<title>Node12&#45;&gt;Node13</title>
<path fill="none" stroke="midnightblue" d="M726.5,-124.25C726.5,-113.02 726.5,-100.38 726.5,-92.19"/>
<polygon fill="midnightblue" stroke="midnightblue" points="723,-124.4 726.5,-134.4 730,-124.4 723,-124.4"/>
</g>
<!-- Node14 -->
<g id="node14" class="node">
<title>Node14</title>
<g id="a_node14"><a xlink:href="../../db/d8e/vpatterndb_2calculator_8cpp.html" target="_top" xlink:title=" ">
<polygon fill="white" stroke="black" points="833,-67.5 833,-97.5 940,-97.5 940,-67.5 833,-67.5"/>
<text text-anchor="start" x="841" y="-85.5" font-family="Helvetica,sans-Serif" font-size="10.00">src/libs/vpatterndb</text>
<text text-anchor="middle" x="886.5" y="-74.5" font-family="Helvetica,sans-Serif" font-size="10.00">/calculator.cpp</text>
</a>
</g>
</g>
<!-- Node12&#45;&gt;Node14 -->
<g id="edge15" class="edge">
<title>Node12&#45;&gt;Node14</title>
<path fill="none" stroke="midnightblue" d="M770.7,-130.54C796.3,-120.14 828.07,-107.24 851.85,-97.58"/>
<polygon fill="midnightblue" stroke="midnightblue" points="769.16,-127.39 761.22,-134.4 771.8,-133.87 769.16,-127.39"/>
</g>
<!-- Node15 -->
<g id="node15" class="node">
<title>Node15</title>
<g id="a_node15"><a xlink:href="../../db/d11/vformula_8cpp.html" target="_top" xlink:title=" ">
<polygon fill="white" stroke="black" points="958,-67.5 958,-97.5 1065,-97.5 1065,-67.5 958,-67.5"/>
<text text-anchor="start" x="966" y="-85.5" font-family="Helvetica,sans-Serif" font-size="10.00">src/libs/vpatterndb</text>
<text text-anchor="middle" x="1011.5" y="-74.5" font-family="Helvetica,sans-Serif" font-size="10.00">/vformula.cpp</text>
</a>
</g>
</g>
<!-- Node12&#45;&gt;Node15 -->
<g id="edge16" class="edge">
<title>Node12&#45;&gt;Node15</title>
<path fill="none" stroke="midnightblue" d="M790.15,-133.86C862.21,-117.5 881.51,-113.6 949.5,-98 952.19,-97.38 954.95,-96.75 957.74,-96.1"/>
<polygon fill="midnightblue" stroke="midnightblue" points="789.09,-130.51 780.11,-136.14 790.64,-137.34 789.09,-130.51"/>
</g>
<!-- Node16 -->
<g id="node16" class="node">
<title>Node16</title>
<g id="a_node16"><a xlink:href="../../d8/dba/vpiecenode_8cpp.html" target="_top" xlink:title=" ">
<polygon fill="white" stroke="black" points="1083,-67.5 1083,-97.5 1190,-97.5 1190,-67.5 1083,-67.5"/>
<text text-anchor="start" x="1091" y="-85.5" font-family="Helvetica,sans-Serif" font-size="10.00">src/libs/vpatterndb</text>
<text text-anchor="middle" x="1136.5" y="-74.5" font-family="Helvetica,sans-Serif" font-size="10.00">/vpiecenode.cpp</text>
</a>
</g>
</g>
<!-- Node12&#45;&gt;Node16 -->
<g id="edge17" class="edge">
<title>Node12&#45;&gt;Node16</title>
<path fill="none" stroke="midnightblue" d="M790.14,-134.02C916.97,-112.09 952.03,-119.99 1074.5,-98 1077.22,-97.51 1080,-96.98 1082.8,-96.42"/>
<polygon fill="midnightblue" stroke="midnightblue" points="789.28,-130.61 780.04,-135.79 790.5,-137.51 789.28,-130.61"/>
</g>
<!-- Node19&#45;&gt;Node18 -->
<g id="edge21" class="edge">
<title>Node19&#45;&gt;Node18</title>
<path fill="none" stroke="midnightblue" d="M853.5,-191.11C853.5,-182.15 853.5,-172.32 853.5,-164.58"/>
<polygon fill="midnightblue" stroke="midnightblue" points="850,-191.4 853.5,-201.4 857,-191.4 850,-191.4"/>
</g>
</g>
</svg>
