<?xml version="1.0" encoding="UTF-8" standalone="no"?>
<!DOCTYPE svg PUBLIC "-//W3C//DTD SVG 1.1//EN"
 "http://www.w3.org/Graphics/SVG/1.1/DTD/svg11.dtd">
<!-- Generated by graphviz version 2.43.0 (0)
 -->
<!-- Title: src/libs/vpropertyexplorer/vproperty_p.h Pages: 1 -->
<svg width="3029pt" height="173pt"
 viewBox="0.00 0.00 3028.50 173.00" xmlns="http://www.w3.org/2000/svg" xmlns:xlink="http://www.w3.org/1999/xlink">
<g id="graph0" class="graph" transform="scale(1 1) rotate(0) translate(4 169)">
<title>src/libs/vpropertyexplorer/vproperty_p.h</title>
<polygon fill="white" stroke="transparent" points="-4,4 -4,-169 3024.5,-169 3024.5,4 -4,4"/>
<!-- Node1 -->
<g id="node1" class="node">
<title>Node1</title>
<g id="a_node1"><a xlink:title=" ">
<polygon fill="#bfbfbf" stroke="black" points="1450,-134.5 1450,-164.5 1592,-164.5 1592,-134.5 1450,-134.5"/>
<text text-anchor="start" x="1458" y="-152.5" font-family="Helvetica,sans-Serif" font-size="10.00">src/libs/vpropertyexplorer</text>
<text text-anchor="middle" x="1521" y="-141.5" font-family="Helvetica,sans-Serif" font-size="10.00">/vproperty_p.h</text>
</a>
</g>
</g>
<!-- Node2 -->
<g id="node2" class="node">
<title>Node2</title>
<g id="a_node2"><a xlink:href="../../d9/d33/lineweight__property_8cpp.html" target="_top" xlink:title=" ">
<polygon fill="white" stroke="black" points="0,-67.5 0,-97.5 174,-97.5 174,-67.5 0,-67.5"/>
<text text-anchor="start" x="8" y="-85.5" font-family="Helvetica,sans-Serif" font-size="10.00">src/libs/vpropertyexplorer</text>
<text text-anchor="middle" x="87" y="-74.5" font-family="Helvetica,sans-Serif" font-size="10.00">/plugins/lineweight_property.cpp</text>
</a>
</g>
</g>
<!-- Node1&#45;&gt;Node2 -->
<g id="edge1" class="edge">
<title>Node1&#45;&gt;Node2</title>
<path fill="none" stroke="midnightblue" d="M1439.46,-148.6C1230.24,-148.17 657.53,-142.65 183,-98 180.06,-97.72 177.08,-97.42 174.07,-97.09"/>
<polygon fill="midnightblue" stroke="midnightblue" points="1439.73,-152.1 1449.74,-148.62 1439.75,-145.1 1439.73,-152.1"/>
</g>
<!-- Node3 -->
<g id="node3" class="node">
<title>Node3</title>
<g id="a_node3"><a xlink:href="../../da/d2f/plaintext__property_8cpp.html" target="_top" xlink:title=" ">
<polygon fill="white" stroke="black" points="192.5,-67.5 192.5,-97.5 359.5,-97.5 359.5,-67.5 192.5,-67.5"/>
<text text-anchor="start" x="200.5" y="-85.5" font-family="Helvetica,sans-Serif" font-size="10.00">src/libs/vpropertyexplorer</text>
<text text-anchor="middle" x="276" y="-74.5" font-family="Helvetica,sans-Serif" font-size="10.00">/plugins/plaintext_property.cpp</text>
</a>
</g>
</g>
<!-- Node1&#45;&gt;Node3 -->
<g id="edge2" class="edge">
<title>Node1&#45;&gt;Node3</title>
<path fill="none" stroke="midnightblue" d="M1439.84,-148.08C1251.22,-146.42 768.82,-138.24 368,-98 365.26,-97.73 362.49,-97.42 359.69,-97.1"/>
<polygon fill="midnightblue" stroke="midnightblue" points="1439.92,-151.58 1449.95,-148.17 1439.98,-144.58 1439.92,-151.58"/>
</g>
<!-- Node4 -->
<g id="node4" class="node">
<title>Node4</title>
<g id="a_node4"><a xlink:href="../../d8/d83/vboolproperty_8cpp.html" target="_top" xlink:title=" ">
<polygon fill="white" stroke="black" points="377.5,-67.5 377.5,-97.5 522.5,-97.5 522.5,-67.5 377.5,-67.5"/>
<text text-anchor="start" x="385.5" y="-85.5" font-family="Helvetica,sans-Serif" font-size="10.00">src/libs/vpropertyexplorer</text>
<text text-anchor="middle" x="450" y="-74.5" font-family="Helvetica,sans-Serif" font-size="10.00">/plugins/vboolproperty.cpp</text>
</a>
</g>
</g>
<!-- Node1&#45;&gt;Node4 -->
<g id="edge3" class="edge">
<title>Node1&#45;&gt;Node4</title>
<path fill="none" stroke="midnightblue" d="M1439.92,-147.76C1270.68,-145.46 867.65,-136.1 532,-98 528.98,-97.66 525.91,-97.27 522.81,-96.86"/>
<polygon fill="midnightblue" stroke="midnightblue" points="1439.95,-151.26 1450,-147.89 1440.05,-144.26 1439.95,-151.26"/>
</g>
<!-- Node5 -->
<g id="node5" class="node">
<title>Node5</title>
<g id="a_node5"><a xlink:href="../../d0/d6b/vcolorproperty_8cpp.html" target="_top" xlink:title=" ">
<polygon fill="white" stroke="black" points="541,-67.5 541,-97.5 689,-97.5 689,-67.5 541,-67.5"/>
<text text-anchor="start" x="549" y="-85.5" font-family="Helvetica,sans-Serif" font-size="10.00">src/libs/vpropertyexplorer</text>
<text text-anchor="middle" x="615" y="-74.5" font-family="Helvetica,sans-Serif" font-size="10.00">/plugins/vcolorproperty.cpp</text>
</a>
</g>
</g>
<!-- Node1&#45;&gt;Node5 -->
<g id="edge4" class="edge">
<title>Node1&#45;&gt;Node5</title>
<path fill="none" stroke="midnightblue" d="M1439.4,-146.51C1291.26,-142.23 968.39,-129.81 698,-98 695.09,-97.66 692.14,-97.28 689.15,-96.88"/>
<polygon fill="midnightblue" stroke="midnightblue" points="1439.66,-150.02 1449.76,-146.81 1439.86,-143.02 1439.66,-150.02"/>
</g>
<!-- Node6 -->
<g id="node6" class="node">
<title>Node6</title>
<g id="a_node6"><a xlink:href="../../d2/d8f/vvector3dproperty_8cpp.html" target="_top" xlink:title=" ">
<polygon fill="white" stroke="black" points="707,-67.5 707,-97.5 919,-97.5 919,-67.5 707,-67.5"/>
<text text-anchor="start" x="715" y="-85.5" font-family="Helvetica,sans-Serif" font-size="10.00">src/libs/vpropertyexplorer</text>
<text text-anchor="middle" x="813" y="-74.5" font-family="Helvetica,sans-Serif" font-size="10.00">/plugins/Vector3d/vvector3dproperty.cpp</text>
</a>
</g>
</g>
<!-- Node1&#45;&gt;Node6 -->
<g id="edge5" class="edge">
<title>Node1&#45;&gt;Node6</title>
<path fill="none" stroke="midnightblue" d="M1439.64,-142.62C1325.27,-134.11 1110.53,-117.27 928,-98 925.1,-97.69 922.16,-97.38 919.19,-97.05"/>
<polygon fill="midnightblue" stroke="midnightblue" points="1439.48,-146.12 1449.71,-143.37 1440,-139.14 1439.48,-146.12"/>
</g>
<!-- Node7 -->
<g id="node7" class="node">
<title>Node7</title>
<g id="a_node7"><a xlink:href="../../d3/d60/venumproperty_8cpp.html" target="_top" xlink:title=" ">
<polygon fill="white" stroke="black" points="937,-67.5 937,-97.5 1089,-97.5 1089,-67.5 937,-67.5"/>
<text text-anchor="start" x="945" y="-85.5" font-family="Helvetica,sans-Serif" font-size="10.00">src/libs/vpropertyexplorer</text>
<text text-anchor="middle" x="1013" y="-74.5" font-family="Helvetica,sans-Serif" font-size="10.00">/plugins/venumproperty.cpp</text>
</a>
</g>
</g>
<!-- Node1&#45;&gt;Node7 -->
<g id="edge6" class="edge">
<title>Node1&#45;&gt;Node7</title>
<path fill="none" stroke="midnightblue" d="M1439.62,-140.01C1354.33,-130.82 1216.52,-115.17 1098,-98 1095.19,-97.59 1092.32,-97.16 1089.43,-96.72"/>
<polygon fill="midnightblue" stroke="midnightblue" points="1439.44,-143.51 1449.76,-141.1 1440.19,-136.55 1439.44,-143.51"/>
</g>
<!-- Node8 -->
<g id="node8" class="node">
<title>Node8</title>
<g id="a_node8"><a xlink:href="../../d6/ddf/vlabelproperty_8cpp.html" target="_top" xlink:title=" ">
<polygon fill="white" stroke="black" points="1107,-67.5 1107,-97.5 1255,-97.5 1255,-67.5 1107,-67.5"/>
<text text-anchor="start" x="1115" y="-85.5" font-family="Helvetica,sans-Serif" font-size="10.00">src/libs/vpropertyexplorer</text>
<text text-anchor="middle" x="1181" y="-74.5" font-family="Helvetica,sans-Serif" font-size="10.00">/plugins/vlabelproperty.cpp</text>
</a>
</g>
</g>
<!-- Node1&#45;&gt;Node8 -->
<g id="edge7" class="edge">
<title>Node1&#45;&gt;Node8</title>
<path fill="none" stroke="midnightblue" d="M1439.77,-132.97C1383.36,-122.19 1308.82,-107.94 1254.23,-97.5"/>
<polygon fill="midnightblue" stroke="midnightblue" points="1439.25,-136.43 1449.72,-134.87 1440.56,-129.56 1439.25,-136.43"/>
</g>
<!-- Node9 -->
<g id="node9" class="node">
<title>Node9</title>
<g id="a_node9"><a xlink:href="../../dd/d22/vlinecolorproperty_8cpp.html" target="_top" xlink:title=" ">
<polygon fill="white" stroke="black" points="1273,-67.5 1273,-97.5 1439,-97.5 1439,-67.5 1273,-67.5"/>
<text text-anchor="start" x="1281" y="-85.5" font-family="Helvetica,sans-Serif" font-size="10.00">src/libs/vpropertyexplorer</text>
<text text-anchor="middle" x="1356" y="-74.5" font-family="Helvetica,sans-Serif" font-size="10.00">/plugins/vlinecolorproperty.cpp</text>
</a>
</g>
</g>
<!-- Node1&#45;&gt;Node9 -->
<g id="edge8" class="edge">
<title>Node1&#45;&gt;Node9</title>
<path fill="none" stroke="midnightblue" d="M1475.77,-130.68C1449.31,-120.26 1416.37,-107.28 1391.73,-97.58"/>
<polygon fill="midnightblue" stroke="midnightblue" points="1474.61,-133.99 1485.2,-134.4 1477.18,-127.47 1474.61,-133.99"/>
</g>
<!-- Node10 -->
<g id="node10" class="node">
<title>Node10</title>
<g id="a_node10"><a xlink:href="../../d7/dd2/vfileproperty_8cpp.html" target="_top" xlink:title=" ">
<polygon fill="white" stroke="black" points="1974,-0.5 1974,-30.5 2116,-30.5 2116,-0.5 1974,-0.5"/>
<text text-anchor="start" x="1982" y="-18.5" font-family="Helvetica,sans-Serif" font-size="10.00">src/libs/vpropertyexplorer</text>
<text text-anchor="middle" x="2045" y="-7.5" font-family="Helvetica,sans-Serif" font-size="10.00">/plugins/vfileproperty.cpp</text>
</a>
</g>
</g>
<!-- Node1&#45;&gt;Node10 -->
<g id="edge9" class="edge">
<title>Node1&#45;&gt;Node10</title>
<path fill="none" stroke="midnightblue" d="M1499.7,-126.62C1484.95,-108.82 1470.51,-83.96 1486,-67 1518.31,-31.64 1830.76,-20.81 1973.95,-17.68"/>
<polygon fill="midnightblue" stroke="midnightblue" points="1497.17,-129.04 1506.4,-134.25 1502.43,-124.42 1497.17,-129.04"/>
</g>
<!-- Node11 -->
<g id="node11" class="node">
<title>Node11</title>
<g id="a_node11"><a xlink:href="../../d7/dda/vnumberproperty_8cpp.html" target="_top" xlink:title=" ">
<polygon fill="white" stroke="black" points="1495.5,-67.5 1495.5,-97.5 1656.5,-97.5 1656.5,-67.5 1495.5,-67.5"/>
<text text-anchor="start" x="1503.5" y="-85.5" font-family="Helvetica,sans-Serif" font-size="10.00">src/libs/vpropertyexplorer</text>
<text text-anchor="middle" x="1576" y="-74.5" font-family="Helvetica,sans-Serif" font-size="10.00">/plugins/vnumberproperty.cpp</text>
</a>
</g>
</g>
<!-- Node1&#45;&gt;Node11 -->
<g id="edge10" class="edge">
<title>Node1&#45;&gt;Node11</title>
<path fill="none" stroke="midnightblue" d="M1539.42,-126.74C1547.55,-117.12 1556.89,-106.09 1564.09,-97.58"/>
<polygon fill="midnightblue" stroke="midnightblue" points="1536.72,-124.5 1532.93,-134.4 1542.07,-129.02 1536.72,-124.5"/>
</g>
<!-- Node12 -->
<g id="node12" class="node">
<title>Node12</title>
<g id="a_node12"><a xlink:href="../../d5/d66/vobjectproperty_8cpp.html" target="_top" xlink:title=" ">
<polygon fill="white" stroke="black" points="1675,-67.5 1675,-97.5 1829,-97.5 1829,-67.5 1675,-67.5"/>
<text text-anchor="start" x="1683" y="-85.5" font-family="Helvetica,sans-Serif" font-size="10.00">src/libs/vpropertyexplorer</text>
<text text-anchor="middle" x="1752" y="-74.5" font-family="Helvetica,sans-Serif" font-size="10.00">/plugins/vobjectproperty.cpp</text>
</a>
</g>
</g>
<!-- Node1&#45;&gt;Node12 -->
<g id="edge11" class="edge">
<title>Node1&#45;&gt;Node12</title>
<path fill="none" stroke="midnightblue" d="M1580.65,-131.71C1618.24,-121.14 1666.23,-107.63 1701.85,-97.61"/>
<polygon fill="midnightblue" stroke="midnightblue" points="1579.52,-128.4 1570.84,-134.48 1581.41,-135.14 1579.52,-128.4"/>
</g>
<!-- Node13 -->
<g id="node13" class="node">
<title>Node13</title>
<g id="a_node13"><a xlink:href="../../dc/d32/vlinetypeproperty_8cpp.html" target="_top" xlink:title=" ">
<polygon fill="white" stroke="black" points="1847,-67.5 1847,-97.5 2011,-97.5 2011,-67.5 1847,-67.5"/>
<text text-anchor="start" x="1855" y="-85.5" font-family="Helvetica,sans-Serif" font-size="10.00">src/libs/vpropertyexplorer</text>
<text text-anchor="middle" x="1929" y="-74.5" font-family="Helvetica,sans-Serif" font-size="10.00">/plugins/vlinetypeproperty.cpp</text>
</a>
</g>
</g>
<!-- Node1&#45;&gt;Node13 -->
<g id="edge12" class="edge">
<title>Node1&#45;&gt;Node13</title>
<path fill="none" stroke="midnightblue" d="M1602.3,-135.55C1673.22,-124.25 1775.63,-107.93 1846.82,-96.59"/>
<polygon fill="midnightblue" stroke="midnightblue" points="1601.39,-132.15 1592.07,-137.18 1602.49,-139.06 1601.39,-132.15"/>
</g>
<!-- Node14 -->
<g id="node14" class="node">
<title>Node14</title>
<g id="a_node14"><a xlink:href="../../d2/dec/vpointfproperty_8cpp.html" target="_top" xlink:title=" ">
<polygon fill="white" stroke="black" points="2029,-67.5 2029,-97.5 2181,-97.5 2181,-67.5 2029,-67.5"/>
<text text-anchor="start" x="2037" y="-85.5" font-family="Helvetica,sans-Serif" font-size="10.00">src/libs/vpropertyexplorer</text>
<text text-anchor="middle" x="2105" y="-74.5" font-family="Helvetica,sans-Serif" font-size="10.00">/plugins/vpointfproperty.cpp</text>
</a>
</g>
</g>
<!-- Node1&#45;&gt;Node14 -->
<g id="edge13" class="edge">
<title>Node1&#45;&gt;Node14</title>
<path fill="none" stroke="midnightblue" d="M1602.47,-141.97C1701.43,-133.64 1873.33,-117.91 2020,-98 2022.82,-97.62 2025.69,-97.21 2028.58,-96.79"/>
<polygon fill="midnightblue" stroke="midnightblue" points="1601.92,-138.5 1592.25,-142.83 1602.5,-145.48 1601.92,-138.5"/>
</g>
<!-- Node15 -->
<g id="node15" class="node">
<title>Node15</title>
<g id="a_node15"><a xlink:href="../../de/d34/vshortcutproperty_8cpp.html" target="_top" xlink:title=" ">
<polygon fill="white" stroke="black" points="2199,-67.5 2199,-97.5 2363,-97.5 2363,-67.5 2199,-67.5"/>
<text text-anchor="start" x="2207" y="-85.5" font-family="Helvetica,sans-Serif" font-size="10.00">src/libs/vpropertyexplorer</text>
<text text-anchor="middle" x="2281" y="-74.5" font-family="Helvetica,sans-Serif" font-size="10.00">/plugins/vshortcutproperty.cpp</text>
</a>
</g>
</g>
<!-- Node1&#45;&gt;Node15 -->
<g id="edge14" class="edge">
<title>Node1&#45;&gt;Node15</title>
<path fill="none" stroke="midnightblue" d="M1602.83,-144.51C1729.12,-137.85 1979.02,-122.73 2190,-98 2192.86,-97.66 2195.77,-97.31 2198.7,-96.93"/>
<polygon fill="midnightblue" stroke="midnightblue" points="1602.28,-141.03 1592.47,-145.05 1602.64,-148.02 1602.28,-141.03"/>
</g>
<!-- Node16 -->
<g id="node16" class="node">
<title>Node16</title>
<g id="a_node16"><a xlink:href="../../dc/d18/vstringproperty_8cpp.html" target="_top" xlink:title=" ">
<polygon fill="white" stroke="black" points="2381,-67.5 2381,-97.5 2533,-97.5 2533,-67.5 2381,-67.5"/>
<text text-anchor="start" x="2389" y="-85.5" font-family="Helvetica,sans-Serif" font-size="10.00">src/libs/vpropertyexplorer</text>
<text text-anchor="middle" x="2457" y="-74.5" font-family="Helvetica,sans-Serif" font-size="10.00">/plugins/vstringproperty.cpp</text>
</a>
</g>
</g>
<!-- Node1&#45;&gt;Node16 -->
<g id="edge15" class="edge">
<title>Node1&#45;&gt;Node16</title>
<path fill="none" stroke="midnightblue" d="M1602.28,-146.64C1754,-142.52 2090.45,-130.27 2372,-98 2374.83,-97.68 2377.7,-97.32 2380.6,-96.94"/>
<polygon fill="midnightblue" stroke="midnightblue" points="1602.02,-143.15 1592.11,-146.91 1602.2,-150.15 1602.02,-143.15"/>
</g>
<!-- Node17 -->
<g id="node17" class="node">
<title>Node17</title>
<g id="a_node17"><a xlink:href="../../dc/de7/vfileproperty__p_8h.html" target="_top" xlink:title=" ">
<polygon fill="white" stroke="black" points="2551,-67.5 2551,-97.5 2693,-97.5 2693,-67.5 2551,-67.5"/>
<text text-anchor="start" x="2559" y="-85.5" font-family="Helvetica,sans-Serif" font-size="10.00">src/libs/vpropertyexplorer</text>
<text text-anchor="middle" x="2622" y="-74.5" font-family="Helvetica,sans-Serif" font-size="10.00">/vfileproperty_p.h</text>
</a>
</g>
</g>
<!-- Node1&#45;&gt;Node17 -->
<g id="edge16" class="edge">
<title>Node1&#45;&gt;Node17</title>
<path fill="none" stroke="midnightblue" d="M1602.18,-148.06C1775.41,-146.33 2193.88,-137.99 2542,-98 2544.94,-97.66 2547.94,-97.28 2550.97,-96.87"/>
<polygon fill="midnightblue" stroke="midnightblue" points="1602.09,-144.56 1592.12,-148.15 1602.16,-151.56 1602.09,-144.56"/>
</g>
<!-- Node18 -->
<g id="node18" class="node">
<title>Node18</title>
<g id="a_node18"><a xlink:href="../../d8/dd2/vproperty_8cpp.html" target="_top" xlink:title=" ">
<polygon fill="white" stroke="black" points="2711,-67.5 2711,-97.5 2853,-97.5 2853,-67.5 2711,-67.5"/>
<text text-anchor="start" x="2719" y="-85.5" font-family="Helvetica,sans-Serif" font-size="10.00">src/libs/vpropertyexplorer</text>
<text text-anchor="middle" x="2782" y="-74.5" font-family="Helvetica,sans-Serif" font-size="10.00">/vproperty.cpp</text>
</a>
</g>
</g>
<!-- Node1&#45;&gt;Node18 -->
<g id="edge18" class="edge">
<title>Node1&#45;&gt;Node18</title>
<path fill="none" stroke="midnightblue" d="M1602.15,-148.84C1794.03,-148.81 2290.48,-143.87 2702,-98 2704.95,-97.67 2707.95,-97.3 2710.97,-96.89"/>
<polygon fill="midnightblue" stroke="midnightblue" points="1602.15,-145.34 1592.15,-148.83 1602.14,-152.34 1602.15,-145.34"/>
</g>
<!-- Node19 -->
<g id="node19" class="node">
<title>Node19</title>
<g id="a_node19"><a xlink:href="../../d4/d5a/vwidgetproperty__p_8h.html" target="_top" xlink:title=" ">
<polygon fill="white" stroke="black" points="2871,-67.5 2871,-97.5 3013,-97.5 3013,-67.5 2871,-67.5"/>
<text text-anchor="start" x="2879" y="-85.5" font-family="Helvetica,sans-Serif" font-size="10.00">src/libs/vpropertyexplorer</text>
<text text-anchor="middle" x="2942" y="-74.5" font-family="Helvetica,sans-Serif" font-size="10.00">/vwidgetproperty_p.h</text>
</a>
</g>
</g>
<!-- Node1&#45;&gt;Node19 -->
<g id="edge19" class="edge">
<title>Node1&#45;&gt;Node19</title>
<path fill="none" stroke="midnightblue" d="M1602.49,-146.95C1854,-141.91 2615.85,-124.81 2862,-98 2864.95,-97.68 2867.95,-97.31 2870.98,-96.91"/>
<polygon fill="midnightblue" stroke="midnightblue" points="1602.26,-143.45 1592.33,-147.15 1602.4,-150.45 1602.26,-143.45"/>
</g>
<!-- Node17&#45;&gt;Node10 -->
<g id="edge17" class="edge">
<title>Node17&#45;&gt;Node10</title>
<path fill="none" stroke="midnightblue" d="M2540.62,-66.87C2383.46,-45.01 2211.05,-29.67 2116.4,-21.99"/>
<polygon fill="midnightblue" stroke="midnightblue" points="2540.56,-70.4 2550.95,-68.32 2541.53,-63.47 2540.56,-70.4"/>
</g>
<!-- Node20 -->
<g id="node20" class="node">
<title>Node20</title>
<g id="a_node20"><a xlink:href="../../dc/ddd/vwidgetproperty_8cpp.html" target="_top" xlink:title=" ">
<polygon fill="white" stroke="black" points="2863.5,-0.5 2863.5,-30.5 3020.5,-30.5 3020.5,-0.5 2863.5,-0.5"/>
<text text-anchor="start" x="2871.5" y="-18.5" font-family="Helvetica,sans-Serif" font-size="10.00">src/libs/vpropertyexplorer</text>
<text text-anchor="middle" x="2942" y="-7.5" font-family="Helvetica,sans-Serif" font-size="10.00">/plugins/vwidgetproperty.cpp</text>
</a>
</g>
</g>
<!-- Node19&#45;&gt;Node20 -->
<g id="edge20" class="edge">
<title>Node19&#45;&gt;Node20</title>
<path fill="none" stroke="midnightblue" d="M2942,-57.11C2942,-48.15 2942,-38.32 2942,-30.58"/>
<polygon fill="midnightblue" stroke="midnightblue" points="2938.5,-57.4 2942,-67.4 2945.5,-57.4 2938.5,-57.4"/>
</g>
</g>
</svg>
