<?xml version="1.0" encoding="UTF-8" standalone="no"?>
<!DOCTYPE svg PUBLIC "-//W3C//DTD SVG 1.1//EN"
 "http://www.w3.org/Graphics/SVG/1.1/DTD/svg11.dtd">
<!-- Generated by graphviz version 2.43.0 (0)
 -->
<!-- Title: src/libs/vpropertyexplorer/vproperty_p.h Pages: 1 -->
<svg width="3028pt" height="173pt"
 viewBox="0.00 0.00 3028.00 173.00" xmlns="http://www.w3.org/2000/svg" xmlns:xlink="http://www.w3.org/1999/xlink">
<g id="graph0" class="graph" transform="scale(1 1) rotate(0) translate(4 169)">
<title>src/libs/vpropertyexplorer/vproperty_p.h</title>
<polygon fill="white" stroke="transparent" points="-4,4 -4,-169 3024,-169 3024,4 -4,4"/>
<!-- Node1 -->
<g id="node1" class="node">
<title>Node1</title>
<g id="a_node1"><a xlink:title=" ">
<polygon fill="#bfbfbf" stroke="black" points="1450.5,-134.5 1450.5,-164.5 1592.5,-164.5 1592.5,-134.5 1450.5,-134.5"/>
<text text-anchor="start" x="1458.5" y="-152.5" font-family="Helvetica,sans-Serif" font-size="10.00">src/libs/vpropertyexplorer</text>
<text text-anchor="middle" x="1521.5" y="-141.5" font-family="Helvetica,sans-Serif" font-size="10.00">/vproperty_p.h</text>
</a>
</g>
</g>
<!-- Node2 -->
<g id="node2" class="node">
<title>Node2</title>
<g id="a_node2"><a xlink:href="../../da/d2f/plaintext__property_8cpp.html" target="_top" xlink:title=" ">
<polygon fill="white" stroke="black" points="0,-67.5 0,-97.5 167,-97.5 167,-67.5 0,-67.5"/>
<text text-anchor="start" x="8" y="-85.5" font-family="Helvetica,sans-Serif" font-size="10.00">src/libs/vpropertyexplorer</text>
<text text-anchor="middle" x="83.5" y="-74.5" font-family="Helvetica,sans-Serif" font-size="10.00">/plugins/plaintext_property.cpp</text>
</a>
</g>
</g>
<!-- Node1&#45;&gt;Node2 -->
<g id="edge1" class="edge">
<title>Node1&#45;&gt;Node2</title>
<path fill="none" stroke="midnightblue" d="M1440.14,-148.81C1230.21,-148.88 653.25,-144.44 175.5,-98 172.76,-97.73 169.99,-97.44 167.18,-97.12"/>
<polygon fill="midnightblue" stroke="midnightblue" points="1440.16,-152.31 1450.16,-148.8 1440.16,-145.31 1440.16,-152.31"/>
</g>
<!-- Node3 -->
<g id="node3" class="node">
<title>Node3</title>
<g id="a_node3"><a xlink:href="../../d8/d83/vboolproperty_8cpp.html" target="_top" xlink:title=" ">
<polygon fill="white" stroke="black" points="185,-67.5 185,-97.5 330,-97.5 330,-67.5 185,-67.5"/>
<text text-anchor="start" x="193" y="-85.5" font-family="Helvetica,sans-Serif" font-size="10.00">src/libs/vpropertyexplorer</text>
<text text-anchor="middle" x="257.5" y="-74.5" font-family="Helvetica,sans-Serif" font-size="10.00">/plugins/vboolproperty.cpp</text>
</a>
</g>
</g>
<!-- Node1&#45;&gt;Node3 -->
<g id="edge2" class="edge">
<title>Node1&#45;&gt;Node3</title>
<path fill="none" stroke="midnightblue" d="M1440.29,-148.72C1248.28,-148.45 751.46,-143.02 339.5,-98 336.48,-97.67 333.41,-97.3 330.31,-96.89"/>
<polygon fill="midnightblue" stroke="midnightblue" points="1440.3,-152.22 1450.31,-148.73 1440.31,-145.22 1440.3,-152.22"/>
</g>
<!-- Node4 -->
<g id="node4" class="node">
<title>Node4</title>
<g id="a_node4"><a xlink:href="../../d9/d33/lineweight__property_8cpp.html" target="_top" xlink:title=" ">
<polygon fill="white" stroke="black" points="348.5,-67.5 348.5,-97.5 522.5,-97.5 522.5,-67.5 348.5,-67.5"/>
<text text-anchor="start" x="356.5" y="-85.5" font-family="Helvetica,sans-Serif" font-size="10.00">src/libs/vpropertyexplorer</text>
<text text-anchor="middle" x="435.5" y="-74.5" font-family="Helvetica,sans-Serif" font-size="10.00">/plugins/lineweight_property.cpp</text>
</a>
</g>
</g>
<!-- Node1&#45;&gt;Node4 -->
<g id="edge3" class="edge">
<title>Node1&#45;&gt;Node4</title>
<path fill="none" stroke="midnightblue" d="M1440.41,-147.08C1271.13,-143.51 867.95,-131.91 531.5,-98 528.57,-97.7 525.58,-97.38 522.57,-97.04"/>
<polygon fill="midnightblue" stroke="midnightblue" points="1440.42,-150.58 1450.49,-147.29 1440.57,-143.58 1440.42,-150.58"/>
</g>
<!-- Node5 -->
<g id="node5" class="node">
<title>Node5</title>
<g id="a_node5"><a xlink:href="../../d0/d6b/vcolorproperty_8cpp.html" target="_top" xlink:title=" ">
<polygon fill="white" stroke="black" points="540.5,-67.5 540.5,-97.5 688.5,-97.5 688.5,-67.5 540.5,-67.5"/>
<text text-anchor="start" x="548.5" y="-85.5" font-family="Helvetica,sans-Serif" font-size="10.00">src/libs/vpropertyexplorer</text>
<text text-anchor="middle" x="614.5" y="-74.5" font-family="Helvetica,sans-Serif" font-size="10.00">/plugins/vcolorproperty.cpp</text>
</a>
</g>
</g>
<!-- Node1&#45;&gt;Node5 -->
<g id="edge4" class="edge">
<title>Node1&#45;&gt;Node5</title>
<path fill="none" stroke="midnightblue" d="M1440.08,-146.52C1291.89,-142.26 968.39,-129.86 697.5,-98 694.59,-97.66 691.64,-97.28 688.65,-96.88"/>
<polygon fill="midnightblue" stroke="midnightblue" points="1440.35,-150.03 1450.45,-146.82 1440.55,-143.04 1440.35,-150.03"/>
</g>
<!-- Node6 -->
<g id="node6" class="node">
<title>Node6</title>
<g id="a_node6"><a xlink:href="../../d2/d8f/vvector3dproperty_8cpp.html" target="_top" xlink:title=" ">
<polygon fill="white" stroke="black" points="706.5,-67.5 706.5,-97.5 918.5,-97.5 918.5,-67.5 706.5,-67.5"/>
<text text-anchor="start" x="714.5" y="-85.5" font-family="Helvetica,sans-Serif" font-size="10.00">src/libs/vpropertyexplorer</text>
<text text-anchor="middle" x="812.5" y="-74.5" font-family="Helvetica,sans-Serif" font-size="10.00">/plugins/Vector3d/vvector3dproperty.cpp</text>
</a>
</g>
</g>
<!-- Node1&#45;&gt;Node6 -->
<g id="edge5" class="edge">
<title>Node1&#45;&gt;Node6</title>
<path fill="none" stroke="midnightblue" d="M1440,-142.62C1325.44,-134.13 1110.34,-117.29 927.5,-98 924.6,-97.69 921.66,-97.38 918.69,-97.05"/>
<polygon fill="midnightblue" stroke="midnightblue" points="1439.86,-146.12 1450.09,-143.37 1440.38,-139.14 1439.86,-146.12"/>
</g>
<!-- Node7 -->
<g id="node7" class="node">
<title>Node7</title>
<g id="a_node7"><a xlink:href="../../d3/d60/venumproperty_8cpp.html" target="_top" xlink:title=" ">
<polygon fill="white" stroke="black" points="936.5,-67.5 936.5,-97.5 1088.5,-97.5 1088.5,-67.5 936.5,-67.5"/>
<text text-anchor="start" x="944.5" y="-85.5" font-family="Helvetica,sans-Serif" font-size="10.00">src/libs/vpropertyexplorer</text>
<text text-anchor="middle" x="1012.5" y="-74.5" font-family="Helvetica,sans-Serif" font-size="10.00">/plugins/venumproperty.cpp</text>
</a>
</g>
</g>
<!-- Node1&#45;&gt;Node7 -->
<g id="edge6" class="edge">
<title>Node1&#45;&gt;Node7</title>
<path fill="none" stroke="midnightblue" d="M1440.31,-140.06C1354.84,-130.89 1216.47,-115.22 1097.5,-98 1094.69,-97.59 1091.82,-97.17 1088.93,-96.72"/>
<polygon fill="midnightblue" stroke="midnightblue" points="1440.15,-143.56 1450.46,-141.15 1440.89,-136.6 1440.15,-143.56"/>
</g>
<!-- Node8 -->
<g id="node8" class="node">
<title>Node8</title>
<g id="a_node8"><a xlink:href="../../d6/ddf/vlabelproperty_8cpp.html" target="_top" xlink:title=" ">
<polygon fill="white" stroke="black" points="1106.5,-67.5 1106.5,-97.5 1254.5,-97.5 1254.5,-67.5 1106.5,-67.5"/>
<text text-anchor="start" x="1114.5" y="-85.5" font-family="Helvetica,sans-Serif" font-size="10.00">src/libs/vpropertyexplorer</text>
<text text-anchor="middle" x="1180.5" y="-74.5" font-family="Helvetica,sans-Serif" font-size="10.00">/plugins/vlabelproperty.cpp</text>
</a>
</g>
</g>
<!-- Node1&#45;&gt;Node8 -->
<g id="edge7" class="edge">
<title>Node1&#45;&gt;Node8</title>
<path fill="none" stroke="midnightblue" d="M1440.45,-133.05C1383.88,-122.27 1308.99,-107.99 1254.13,-97.53"/>
<polygon fill="midnightblue" stroke="midnightblue" points="1439.95,-136.52 1450.43,-134.95 1441.26,-129.64 1439.95,-136.52"/>
</g>
<!-- Node9 -->
<g id="node9" class="node">
<title>Node9</title>
<g id="a_node9"><a xlink:href="../../dd/d22/vlinecolorproperty_8cpp.html" target="_top" xlink:title=" ">
<polygon fill="white" stroke="black" points="1272.5,-67.5 1272.5,-97.5 1438.5,-97.5 1438.5,-67.5 1272.5,-67.5"/>
<text text-anchor="start" x="1280.5" y="-85.5" font-family="Helvetica,sans-Serif" font-size="10.00">src/libs/vpropertyexplorer</text>
<text text-anchor="middle" x="1355.5" y="-74.5" font-family="Helvetica,sans-Serif" font-size="10.00">/plugins/vlinecolorproperty.cpp</text>
</a>
</g>
</g>
<!-- Node1&#45;&gt;Node9 -->
<g id="edge8" class="edge">
<title>Node1&#45;&gt;Node9</title>
<path fill="none" stroke="midnightblue" d="M1475.99,-130.68C1449.37,-120.26 1416.23,-107.28 1391.45,-97.58"/>
<polygon fill="midnightblue" stroke="midnightblue" points="1474.89,-134.01 1485.48,-134.4 1477.45,-127.49 1474.89,-134.01"/>
</g>
<!-- Node10 -->
<g id="node10" class="node">
<title>Node10</title>
<g id="a_node10"><a xlink:href="../../d7/dd2/vfileproperty_8cpp.html" target="_top" xlink:title=" ">
<polygon fill="white" stroke="black" points="1888.5,-0.5 1888.5,-30.5 2030.5,-30.5 2030.5,-0.5 1888.5,-0.5"/>
<text text-anchor="start" x="1896.5" y="-18.5" font-family="Helvetica,sans-Serif" font-size="10.00">src/libs/vpropertyexplorer</text>
<text text-anchor="middle" x="1959.5" y="-7.5" font-family="Helvetica,sans-Serif" font-size="10.00">/plugins/vfileproperty.cpp</text>
</a>
</g>
</g>
<!-- Node1&#45;&gt;Node10 -->
<g id="edge9" class="edge">
<title>Node1&#45;&gt;Node10</title>
<path fill="none" stroke="midnightblue" d="M1499.86,-126.73C1484.84,-108.99 1470.07,-84.16 1485.5,-67 1511.92,-37.61 1762.77,-23.97 1888.45,-18.93"/>
<polygon fill="midnightblue" stroke="midnightblue" points="1497.39,-129.21 1506.67,-134.32 1502.6,-124.54 1497.39,-129.21"/>
</g>
<!-- Node11 -->
<g id="node11" class="node">
<title>Node11</title>
<g id="a_node11"><a xlink:href="../../dc/d32/vlinetypeproperty_8cpp.html" target="_top" xlink:title=" ">
<polygon fill="white" stroke="black" points="1494.5,-67.5 1494.5,-97.5 1658.5,-97.5 1658.5,-67.5 1494.5,-67.5"/>
<text text-anchor="start" x="1502.5" y="-85.5" font-family="Helvetica,sans-Serif" font-size="10.00">src/libs/vpropertyexplorer</text>
<text text-anchor="middle" x="1576.5" y="-74.5" font-family="Helvetica,sans-Serif" font-size="10.00">/plugins/vlinetypeproperty.cpp</text>
</a>
</g>
</g>
<!-- Node1&#45;&gt;Node11 -->
<g id="edge10" class="edge">
<title>Node1&#45;&gt;Node11</title>
<path fill="none" stroke="midnightblue" d="M1539.92,-126.74C1548.05,-117.12 1557.39,-106.09 1564.59,-97.58"/>
<polygon fill="midnightblue" stroke="midnightblue" points="1537.22,-124.5 1533.43,-134.4 1542.57,-129.02 1537.22,-124.5"/>
</g>
<!-- Node12 -->
<g id="node12" class="node">
<title>Node12</title>
<g id="a_node12"><a xlink:href="../../d7/dda/vnumberproperty_8cpp.html" target="_top" xlink:title=" ">
<polygon fill="white" stroke="black" points="1677,-67.5 1677,-97.5 1838,-97.5 1838,-67.5 1677,-67.5"/>
<text text-anchor="start" x="1685" y="-85.5" font-family="Helvetica,sans-Serif" font-size="10.00">src/libs/vpropertyexplorer</text>
<text text-anchor="middle" x="1757.5" y="-74.5" font-family="Helvetica,sans-Serif" font-size="10.00">/plugins/vnumberproperty.cpp</text>
</a>
</g>
</g>
<!-- Node1&#45;&gt;Node12 -->
<g id="edge11" class="edge">
<title>Node1&#45;&gt;Node12</title>
<path fill="none" stroke="midnightblue" d="M1582.44,-131.71C1620.85,-121.14 1669.87,-107.63 1706.27,-97.61"/>
<polygon fill="midnightblue" stroke="midnightblue" points="1581.13,-128.45 1572.42,-134.48 1582.99,-135.19 1581.13,-128.45"/>
</g>
<!-- Node13 -->
<g id="node13" class="node">
<title>Node13</title>
<g id="a_node13"><a xlink:href="../../d5/d66/vobjectproperty_8cpp.html" target="_top" xlink:title=" ">
<polygon fill="white" stroke="black" points="1856.5,-67.5 1856.5,-97.5 2010.5,-97.5 2010.5,-67.5 1856.5,-67.5"/>
<text text-anchor="start" x="1864.5" y="-85.5" font-family="Helvetica,sans-Serif" font-size="10.00">src/libs/vpropertyexplorer</text>
<text text-anchor="middle" x="1933.5" y="-74.5" font-family="Helvetica,sans-Serif" font-size="10.00">/plugins/vobjectproperty.cpp</text>
</a>
</g>
</g>
<!-- Node1&#45;&gt;Node13 -->
<g id="edge12" class="edge">
<title>Node1&#45;&gt;Node13</title>
<path fill="none" stroke="midnightblue" d="M1602.43,-136.18C1668.21,-126.1 1763.39,-111.38 1846.5,-98 1849.67,-97.49 1852.91,-96.96 1856.19,-96.43"/>
<polygon fill="midnightblue" stroke="midnightblue" points="1601.9,-132.72 1592.54,-137.69 1602.96,-139.64 1601.9,-132.72"/>
</g>
<!-- Node14 -->
<g id="node14" class="node">
<title>Node14</title>
<g id="a_node14"><a xlink:href="../../d2/dec/vpointfproperty_8cpp.html" target="_top" xlink:title=" ">
<polygon fill="white" stroke="black" points="2028.5,-67.5 2028.5,-97.5 2180.5,-97.5 2180.5,-67.5 2028.5,-67.5"/>
<text text-anchor="start" x="2036.5" y="-85.5" font-family="Helvetica,sans-Serif" font-size="10.00">src/libs/vpropertyexplorer</text>
<text text-anchor="middle" x="2104.5" y="-74.5" font-family="Helvetica,sans-Serif" font-size="10.00">/plugins/vpointfproperty.cpp</text>
</a>
</g>
</g>
<!-- Node1&#45;&gt;Node14 -->
<g id="edge13" class="edge">
<title>Node1&#45;&gt;Node14</title>
<path fill="none" stroke="midnightblue" d="M1602.81,-141.96C1701.57,-133.63 1873.12,-117.88 2019.5,-98 2022.32,-97.62 2025.19,-97.21 2028.08,-96.79"/>
<polygon fill="midnightblue" stroke="midnightblue" points="1602.27,-138.49 1592.6,-142.82 1602.86,-145.47 1602.27,-138.49"/>
</g>
<!-- Node15 -->
<g id="node15" class="node">
<title>Node15</title>
<g id="a_node15"><a xlink:href="../../de/d34/vshortcutproperty_8cpp.html" target="_top" xlink:title=" ">
<polygon fill="white" stroke="black" points="2198.5,-67.5 2198.5,-97.5 2362.5,-97.5 2362.5,-67.5 2198.5,-67.5"/>
<text text-anchor="start" x="2206.5" y="-85.5" font-family="Helvetica,sans-Serif" font-size="10.00">src/libs/vpropertyexplorer</text>
<text text-anchor="middle" x="2280.5" y="-74.5" font-family="Helvetica,sans-Serif" font-size="10.00">/plugins/vshortcutproperty.cpp</text>
</a>
</g>
</g>
<!-- Node1&#45;&gt;Node15 -->
<g id="edge14" class="edge">
<title>Node1&#45;&gt;Node15</title>
<path fill="none" stroke="midnightblue" d="M1603.21,-144.5C1729.31,-137.84 1978.84,-122.7 2189.5,-98 2192.36,-97.66 2195.27,-97.3 2198.2,-96.93"/>
<polygon fill="midnightblue" stroke="midnightblue" points="1602.67,-141.02 1592.87,-145.04 1603.04,-148.02 1602.67,-141.02"/>
</g>
<!-- Node16 -->
<g id="node16" class="node">
<title>Node16</title>
<g id="a_node16"><a xlink:href="../../dc/de7/vfileproperty__p_8h.html" target="_top" xlink:title=" ">
<polygon fill="white" stroke="black" points="2380.5,-67.5 2380.5,-97.5 2522.5,-97.5 2522.5,-67.5 2380.5,-67.5"/>
<text text-anchor="start" x="2388.5" y="-85.5" font-family="Helvetica,sans-Serif" font-size="10.00">src/libs/vpropertyexplorer</text>
<text text-anchor="middle" x="2451.5" y="-74.5" font-family="Helvetica,sans-Serif" font-size="10.00">/vfileproperty_p.h</text>
</a>
</g>
</g>
<!-- Node1&#45;&gt;Node16 -->
<g id="edge15" class="edge">
<title>Node1&#45;&gt;Node16</title>
<path fill="none" stroke="midnightblue" d="M1602.71,-146.91C1754.31,-143.24 2090.46,-131.7 2371.5,-98 2374.44,-97.65 2377.44,-97.25 2380.47,-96.83"/>
<polygon fill="midnightblue" stroke="midnightblue" points="1602.47,-143.42 1592.56,-147.16 1602.64,-150.42 1602.47,-143.42"/>
</g>
<!-- Node17 -->
<g id="node17" class="node">
<title>Node17</title>
<g id="a_node17"><a xlink:href="../../dc/d18/vstringproperty_8cpp.html" target="_top" xlink:title=" ">
<polygon fill="white" stroke="black" points="2540.5,-67.5 2540.5,-97.5 2692.5,-97.5 2692.5,-67.5 2540.5,-67.5"/>
<text text-anchor="start" x="2548.5" y="-85.5" font-family="Helvetica,sans-Serif" font-size="10.00">src/libs/vpropertyexplorer</text>
<text text-anchor="middle" x="2616.5" y="-74.5" font-family="Helvetica,sans-Serif" font-size="10.00">/plugins/vstringproperty.cpp</text>
</a>
</g>
</g>
<!-- Node1&#45;&gt;Node17 -->
<g id="edge17" class="edge">
<title>Node1&#45;&gt;Node17</title>
<path fill="none" stroke="midnightblue" d="M1602.99,-147.71C1775.03,-145.32 2187.75,-135.78 2531.5,-98 2534.33,-97.69 2537.2,-97.34 2540.1,-96.97"/>
<polygon fill="midnightblue" stroke="midnightblue" points="1602.71,-144.21 1592.75,-147.85 1602.8,-151.21 1602.71,-144.21"/>
</g>
<!-- Node18 -->
<g id="node18" class="node">
<title>Node18</title>
<g id="a_node18"><a xlink:href="../../d8/dd2/vproperty_8cpp.html" target="_top" xlink:title=" ">
<polygon fill="white" stroke="black" points="2710.5,-67.5 2710.5,-97.5 2852.5,-97.5 2852.5,-67.5 2710.5,-67.5"/>
<text text-anchor="start" x="2718.5" y="-85.5" font-family="Helvetica,sans-Serif" font-size="10.00">src/libs/vpropertyexplorer</text>
<text text-anchor="middle" x="2781.5" y="-74.5" font-family="Helvetica,sans-Serif" font-size="10.00">/vproperty.cpp</text>
</a>
</g>
</g>
<!-- Node1&#45;&gt;Node18 -->
<g id="edge18" class="edge">
<title>Node1&#45;&gt;Node18</title>
<path fill="none" stroke="midnightblue" d="M1602.87,-148.83C1794.79,-148.79 2290.54,-143.82 2701.5,-98 2704.45,-97.67 2707.45,-97.3 2710.47,-96.89"/>
<polygon fill="midnightblue" stroke="midnightblue" points="1602.59,-145.33 1592.59,-148.83 1602.58,-152.33 1602.59,-145.33"/>
</g>
<!-- Node19 -->
<g id="node19" class="node">
<title>Node19</title>
<g id="a_node19"><a xlink:href="../../d4/d5a/vwidgetproperty__p_8h.html" target="_top" xlink:title=" ">
<polygon fill="white" stroke="black" points="2870.5,-67.5 2870.5,-97.5 3012.5,-97.5 3012.5,-67.5 2870.5,-67.5"/>
<text text-anchor="start" x="2878.5" y="-85.5" font-family="Helvetica,sans-Serif" font-size="10.00">src/libs/vpropertyexplorer</text>
<text text-anchor="middle" x="2941.5" y="-74.5" font-family="Helvetica,sans-Serif" font-size="10.00">/vwidgetproperty_p.h</text>
</a>
</g>
</g>
<!-- Node1&#45;&gt;Node19 -->
<g id="edge19" class="edge">
<title>Node1&#45;&gt;Node19</title>
<path fill="none" stroke="midnightblue" d="M1602.93,-146.94C1854.25,-141.91 2615.54,-124.79 2861.5,-98 2864.45,-97.68 2867.45,-97.31 2870.48,-96.91"/>
<polygon fill="midnightblue" stroke="midnightblue" points="1602.71,-143.45 1592.78,-147.15 1602.85,-150.45 1602.71,-143.45"/>
</g>
<!-- Node16&#45;&gt;Node10 -->
<g id="edge16" class="edge">
<title>Node16&#45;&gt;Node10</title>
<path fill="none" stroke="midnightblue" d="M2370.28,-66.87C2245.03,-48.07 2110.86,-32.67 2030.75,-23.98"/>
<polygon fill="midnightblue" stroke="midnightblue" points="2370.02,-70.37 2380.44,-68.4 2371.07,-63.45 2370.02,-70.37"/>
</g>
<!-- Node20 -->
<g id="node20" class="node">
<title>Node20</title>
<g id="a_node20"><a xlink:href="../../dc/ddd/vwidgetproperty_8cpp.html" target="_top" xlink:title=" ">
<polygon fill="white" stroke="black" points="2863,-0.5 2863,-30.5 3020,-30.5 3020,-0.5 2863,-0.5"/>
<text text-anchor="start" x="2871" y="-18.5" font-family="Helvetica,sans-Serif" font-size="10.00">src/libs/vpropertyexplorer</text>
<text text-anchor="middle" x="2941.5" y="-7.5" font-family="Helvetica,sans-Serif" font-size="10.00">/plugins/vwidgetproperty.cpp</text>
</a>
</g>
</g>
<!-- Node19&#45;&gt;Node20 -->
<g id="edge20" class="edge">
<title>Node19&#45;&gt;Node20</title>
<path fill="none" stroke="midnightblue" d="M2941.5,-57.11C2941.5,-48.15 2941.5,-38.32 2941.5,-30.58"/>
<polygon fill="midnightblue" stroke="midnightblue" points="2938,-57.4 2941.5,-67.4 2945,-57.4 2938,-57.4"/>
</g>
</g>
</svg>
