<?xml version="1.0" encoding="UTF-8" standalone="no"?>
<!DOCTYPE svg PUBLIC "-//W3C//DTD SVG 1.1//EN"
 "http://www.w3.org/Graphics/SVG/1.1/DTD/svg11.dtd">
<!-- Generated by graphviz version 2.43.0 (0)
 -->
<!-- Title: src/libs/vtools/tools/drawTools/toolpoint/toolsinglepoint/toolcut/vtoolcutsplinepath.h Pages: 1 -->
<svg width="644pt" height="217pt"
 viewBox="0.00 0.00 643.50 217.00" xmlns="http://www.w3.org/2000/svg" xmlns:xlink="http://www.w3.org/1999/xlink">
<g id="graph0" class="graph" transform="scale(1 1) rotate(0) translate(4 213)">
<title>src/libs/vtools/tools/drawTools/toolpoint/toolsinglepoint/toolcut/vtoolcutsplinepath.h</title>
<polygon fill="white" stroke="transparent" points="-4,4 -4,-213 639.5,-213 639.5,4 -4,4"/>
<!-- Node1 -->
<g id="node1" class="node">
<title>Node1</title>
<g id="a_node1"><a xlink:title=" ">
<polygon fill="#bfbfbf" stroke="black" points="229,-156.5 229,-208.5 358,-208.5 358,-156.5 229,-156.5"/>
<text text-anchor="start" x="237" y="-196.5" font-family="Helvetica,sans-Serif" font-size="10.00">src/libs/vtools/tools</text>
<text text-anchor="start" x="237" y="-185.5" font-family="Helvetica,sans-Serif" font-size="10.00">/drawTools/toolpoint</text>
<text text-anchor="start" x="237" y="-174.5" font-family="Helvetica,sans-Serif" font-size="10.00">/toolsinglepoint/toolcut</text>
<text text-anchor="middle" x="293.5" y="-163.5" font-family="Helvetica,sans-Serif" font-size="10.00">/vtoolcutsplinepath.h</text>
</a>
</g>
</g>
<!-- Node2 -->
<g id="node2" class="node">
<title>Node2</title>
<g id="a_node2"><a xlink:href="../../d1/ddf/vtoolcutsplinepath_8cpp.html" target="_top" xlink:title=" ">
<polygon fill="white" stroke="black" points="0,-67.5 0,-119.5 131,-119.5 131,-67.5 0,-67.5"/>
<text text-anchor="start" x="8" y="-107.5" font-family="Helvetica,sans-Serif" font-size="10.00">src/libs/vtools/tools</text>
<text text-anchor="start" x="8" y="-96.5" font-family="Helvetica,sans-Serif" font-size="10.00">/drawTools/toolpoint</text>
<text text-anchor="start" x="8" y="-85.5" font-family="Helvetica,sans-Serif" font-size="10.00">/toolsinglepoint/toolcut</text>
<text text-anchor="middle" x="65.5" y="-74.5" font-family="Helvetica,sans-Serif" font-size="10.00">/vtoolcutsplinepath.cpp</text>
</a>
</g>
</g>
<!-- Node1&#45;&gt;Node2 -->
<g id="edge1" class="edge">
<title>Node1&#45;&gt;Node2</title>
<path fill="none" stroke="midnightblue" d="M219.3,-153.19C190.9,-142.35 158.73,-130.07 131.18,-119.56"/>
<polygon fill="midnightblue" stroke="midnightblue" points="218.18,-156.51 228.77,-156.8 220.68,-149.97 218.18,-156.51"/>
</g>
<!-- Node3 -->
<g id="node3" class="node">
<title>Node3</title>
<g id="a_node3"><a xlink:href="../../d4/d56/drawtools_8h.html" target="_top" xlink:title=" ">
<polygon fill="white" stroke="black" points="149.5,-78.5 149.5,-108.5 277.5,-108.5 277.5,-78.5 149.5,-78.5"/>
<text text-anchor="start" x="157.5" y="-96.5" font-family="Helvetica,sans-Serif" font-size="10.00">src/libs/vtools/tools</text>
<text text-anchor="middle" x="213.5" y="-85.5" font-family="Helvetica,sans-Serif" font-size="10.00">/drawTools/drawtools.h</text>
</a>
</g>
</g>
<!-- Node1&#45;&gt;Node3 -->
<g id="edge2" class="edge">
<title>Node1&#45;&gt;Node3</title>
<path fill="none" stroke="midnightblue" d="M263.48,-148.85C250.76,-135.02 236.61,-119.63 226.62,-108.77"/>
<polygon fill="midnightblue" stroke="midnightblue" points="261.02,-151.34 270.36,-156.34 266.17,-146.61 261.02,-151.34"/>
</g>
<!-- Node5 -->
<g id="node5" class="node">
<title>Node5</title>
<g id="a_node5"><a xlink:href="../../da/d99/vtoolcurveintersectaxis_8cpp.html" target="_top" xlink:title=" ">
<polygon fill="white" stroke="black" points="296,-67.5 296,-119.5 453,-119.5 453,-67.5 296,-67.5"/>
<text text-anchor="start" x="304" y="-107.5" font-family="Helvetica,sans-Serif" font-size="10.00">src/libs/vtools/tools</text>
<text text-anchor="start" x="304" y="-96.5" font-family="Helvetica,sans-Serif" font-size="10.00">/drawTools/toolpoint</text>
<text text-anchor="start" x="304" y="-85.5" font-family="Helvetica,sans-Serif" font-size="10.00">/toolsinglepoint/toollinepoint</text>
<text text-anchor="middle" x="374.5" y="-74.5" font-family="Helvetica,sans-Serif" font-size="10.00">/vtoolcurveintersectaxis.cpp</text>
</a>
</g>
</g>
<!-- Node1&#45;&gt;Node5 -->
<g id="edge4" class="edge">
<title>Node1&#45;&gt;Node5</title>
<path fill="none" stroke="midnightblue" d="M323.95,-148.79C332.95,-139.13 342.65,-128.71 351.12,-119.61"/>
<polygon fill="midnightblue" stroke="midnightblue" points="321.18,-146.63 316.93,-156.34 326.3,-151.4 321.18,-146.63"/>
</g>
<!-- Node6 -->
<g id="node6" class="node">
<title>Node6</title>
<g id="a_node6"><a xlink:href="../../d7/d3d/vistoolcutsplinepath_8cpp.html" target="_top" xlink:title=" ">
<polygon fill="white" stroke="black" points="471.5,-78.5 471.5,-108.5 635.5,-108.5 635.5,-78.5 471.5,-78.5"/>
<text text-anchor="start" x="479.5" y="-96.5" font-family="Helvetica,sans-Serif" font-size="10.00">src/libs/vtools/visualization</text>
<text text-anchor="middle" x="553.5" y="-85.5" font-family="Helvetica,sans-Serif" font-size="10.00">/path/vistoolcutsplinepath.cpp</text>
</a>
</g>
</g>
<!-- Node1&#45;&gt;Node6 -->
<g id="edge5" class="edge">
<title>Node1&#45;&gt;Node6</title>
<path fill="none" stroke="midnightblue" d="M367.86,-156.62C414.49,-141.02 472.88,-121.48 511.59,-108.52"/>
<polygon fill="midnightblue" stroke="midnightblue" points="366.48,-153.39 358.1,-159.88 368.7,-160.03 366.48,-153.39"/>
</g>
<!-- Node4 -->
<g id="node4" class="node">
<title>Node4</title>
<g id="a_node4"><a xlink:href="../../d5/da5/tools_8h.html" target="_top" xlink:title=" ">
<polygon fill="white" stroke="black" points="158,-0.5 158,-30.5 269,-30.5 269,-0.5 158,-0.5"/>
<text text-anchor="start" x="166" y="-18.5" font-family="Helvetica,sans-Serif" font-size="10.00">src/libs/vtools/tools</text>
<text text-anchor="middle" x="213.5" y="-7.5" font-family="Helvetica,sans-Serif" font-size="10.00">/tools.h</text>
</a>
</g>
</g>
<!-- Node3&#45;&gt;Node4 -->
<g id="edge3" class="edge">
<title>Node3&#45;&gt;Node4</title>
<path fill="none" stroke="midnightblue" d="M213.5,-68.09C213.5,-55.76 213.5,-41.22 213.5,-30.73"/>
<polygon fill="midnightblue" stroke="midnightblue" points="210,-68.2 213.5,-78.2 217,-68.21 210,-68.2"/>
</g>
</g>
</svg>
