<?xml version="1.0" encoding="UTF-8" standalone="no"?>
<!DOCTYPE svg PUBLIC "-//W3C//DTD SVG 1.1//EN"
 "http://www.w3.org/Graphics/SVG/1.1/DTD/svg11.dtd">
<!-- Generated by graphviz version 2.43.0 (0)
 -->
<!-- Title: src/libs/vpatterndb/variables/vincrement.h Pages: 1 -->
<svg width="6290pt" height="385pt"
 viewBox="0.00 0.00 6289.50 385.00" xmlns="http://www.w3.org/2000/svg" xmlns:xlink="http://www.w3.org/1999/xlink">
<g id="graph0" class="graph" transform="scale(1 1) rotate(0) translate(4 381)">
<title>src/libs/vpatterndb/variables/vincrement.h</title>
<polygon fill="white" stroke="transparent" points="-4,4 -4,-381 6285.5,-381 6285.5,4 -4,4"/>
<!-- Node1 -->
<g id="node1" class="node">
<title>Node1</title>
<g id="a_node1"><a xlink:title=" ">
<polygon fill="#bfbfbf" stroke="black" points="4964,-346.5 4964,-376.5 5096,-376.5 5096,-346.5 4964,-346.5"/>
<text text-anchor="start" x="4972" y="-364.5" font-family="Helvetica,sans-Serif" font-size="10.00">src/libs/vpatterndb</text>
<text text-anchor="middle" x="5030" y="-353.5" font-family="Helvetica,sans-Serif" font-size="10.00">/variables/vincrement.h</text>
</a>
</g>
</g>
<!-- Node2 -->
<g id="node2" class="node">
<title>Node2</title>
<g id="a_node2"><a xlink:href="../../d6/de6/vincrement_8cpp.html" target="_top" xlink:title=" ">
<polygon fill="white" stroke="black" points="5225.5,-67.5 5225.5,-97.5 5368.5,-97.5 5368.5,-67.5 5225.5,-67.5"/>
<text text-anchor="start" x="5233.5" y="-85.5" font-family="Helvetica,sans-Serif" font-size="10.00">src/libs/vpatterndb</text>
<text text-anchor="middle" x="5297" y="-74.5" font-family="Helvetica,sans-Serif" font-size="10.00">/variables/vincrement.cpp</text>
</a>
</g>
</g>
<!-- Node1&#45;&gt;Node2 -->
<g id="edge1" class="edge">
<title>Node1&#45;&gt;Node2</title>
<path fill="none" stroke="midnightblue" d="M5033.23,-336.42C5040.69,-290.25 5063.5,-189 5125,-134 5140.54,-120.1 5186.94,-106.92 5227.63,-97.51"/>
<polygon fill="midnightblue" stroke="midnightblue" points="5029.75,-336 5031.71,-346.41 5036.67,-337.04 5029.75,-336"/>
</g>
<!-- Node3 -->
<g id="node3" class="node">
<title>Node3</title>
<g id="a_node3"><a xlink:href="../../de/dca/variables_8h.html" target="_top" xlink:title=" ">
<polygon fill="white" stroke="black" points="5105.5,-279.5 5105.5,-309.5 5212.5,-309.5 5212.5,-279.5 5105.5,-279.5"/>
<text text-anchor="start" x="5113.5" y="-297.5" font-family="Helvetica,sans-Serif" font-size="10.00">src/libs/vpatterndb</text>
<text text-anchor="middle" x="5159" y="-286.5" font-family="Helvetica,sans-Serif" font-size="10.00">/variables.h</text>
</a>
</g>
</g>
<!-- Node1&#45;&gt;Node3 -->
<g id="edge2" class="edge">
<title>Node1&#45;&gt;Node3</title>
<path fill="none" stroke="midnightblue" d="M5067.01,-341.85C5087.4,-331.58 5112.31,-319.03 5131.06,-309.58"/>
<polygon fill="midnightblue" stroke="midnightblue" points="5065.35,-338.77 5057.99,-346.4 5068.5,-345.02 5065.35,-338.77"/>
</g>
<!-- Node39 -->
<g id="node34" class="node">
<title>Node39</title>
<g id="a_node34"><a xlink:href="../../d6/d46/vcontainer_8cpp.html" target="_top" xlink:title=" ">
<polygon fill="white" stroke="black" points="1320.5,-67.5 1320.5,-97.5 1427.5,-97.5 1427.5,-67.5 1320.5,-67.5"/>
<text text-anchor="start" x="1328.5" y="-85.5" font-family="Helvetica,sans-Serif" font-size="10.00">src/libs/vpatterndb</text>
<text text-anchor="middle" x="1374" y="-74.5" font-family="Helvetica,sans-Serif" font-size="10.00">/vcontainer.cpp</text>
</a>
</g>
</g>
<!-- Node1&#45;&gt;Node39 -->
<g id="edge62" class="edge">
<title>Node1&#45;&gt;Node39</title>
<path fill="none" stroke="midnightblue" d="M4953.71,-358.81C4517.56,-348.79 2336.3,-293.49 1676,-176 1577.47,-158.47 1465.94,-118.92 1410.02,-97.66"/>
<polygon fill="midnightblue" stroke="midnightblue" points="4953.91,-362.32 4963.99,-359.05 4954.07,-355.32 4953.91,-362.32"/>
</g>
<!-- Node4 -->
<g id="node4" class="node">
<title>Node4</title>
<g id="a_node4"><a xlink:href="../../d3/df7/vcontainer_8h.html" target="_top" xlink:title=" ">
<polygon fill="white" stroke="black" points="5152.5,-212.5 5152.5,-242.5 5259.5,-242.5 5259.5,-212.5 5152.5,-212.5"/>
<text text-anchor="start" x="5160.5" y="-230.5" font-family="Helvetica,sans-Serif" font-size="10.00">src/libs/vpatterndb</text>
<text text-anchor="middle" x="5206" y="-219.5" font-family="Helvetica,sans-Serif" font-size="10.00">/vcontainer.h</text>
</a>
</g>
</g>
<!-- Node3&#45;&gt;Node4 -->
<g id="edge3" class="edge">
<title>Node3&#45;&gt;Node4</title>
<path fill="none" stroke="midnightblue" d="M5175.16,-271.16C5182.01,-261.68 5189.79,-250.92 5195.82,-242.58"/>
<polygon fill="midnightblue" stroke="midnightblue" points="5172.22,-269.24 5169.2,-279.4 5177.89,-273.34 5172.22,-269.24"/>
</g>
<!-- Node5 -->
<g id="node5" class="node">
<title>Node5</title>
<g id="a_node5"><a xlink:href="../../d2/d47/image__dialog_8cpp.html" target="_top" xlink:title=" ">
<polygon fill="white" stroke="black" points="5095,-67.5 5095,-97.5 5207,-97.5 5207,-67.5 5095,-67.5"/>
<text text-anchor="start" x="5103" y="-85.5" font-family="Helvetica,sans-Serif" font-size="10.00">src/libs/tools/image</text>
<text text-anchor="middle" x="5151" y="-74.5" font-family="Helvetica,sans-Serif" font-size="10.00">_dialog.cpp</text>
</a>
</g>
</g>
<!-- Node4&#45;&gt;Node5 -->
<g id="edge4" class="edge">
<title>Node4&#45;&gt;Node5</title>
<path fill="none" stroke="midnightblue" d="M5158.24,-207.45C5145.11,-199.74 5132.45,-189.42 5125,-176 5110.83,-150.47 5128.19,-116.62 5140.58,-97.76"/>
<polygon fill="midnightblue" stroke="midnightblue" points="5156.88,-210.69 5167.34,-212.37 5160.21,-204.54 5156.88,-210.69"/>
</g>
<!-- Node6 -->
<g id="node6" class="node">
<title>Node6</title>
<g id="a_node6"><a xlink:href="../../dc/db7/measurements_8h.html" target="_top" xlink:title=" ">
<polygon fill="white" stroke="black" points="6102.5,-145.5 6102.5,-164.5 6281.5,-164.5 6281.5,-145.5 6102.5,-145.5"/>
<text text-anchor="middle" x="6192" y="-152.5" font-family="Helvetica,sans-Serif" font-size="10.00">src/libs/vformat/measurements.h</text>
</a>
</g>
</g>
<!-- Node4&#45;&gt;Node6 -->
<g id="edge5" class="edge">
<title>Node4&#45;&gt;Node6</title>
<path fill="none" stroke="midnightblue" d="M5269.76,-225.75C5415.32,-223.4 5783.11,-213.88 6088,-176 6110.08,-173.26 6134.52,-168.64 6154.16,-164.53"/>
<polygon fill="midnightblue" stroke="midnightblue" points="5269.61,-222.25 5259.66,-225.9 5269.72,-229.25 5269.61,-222.25"/>
</g>
<!-- Node7 -->
<g id="node7" class="node">
<title>Node7</title>
<g id="a_node7"><a xlink:href="../../d9/de3/measurements_8cpp.html" target="_top" xlink:title=" ">
<polygon fill="white" stroke="black" points="6038,-73 6038,-92 6228,-92 6228,-73 6038,-73"/>
<text text-anchor="middle" x="6133" y="-80" font-family="Helvetica,sans-Serif" font-size="10.00">src/libs/vformat/measurements.cpp</text>
</a>
</g>
</g>
<!-- Node4&#45;&gt;Node7 -->
<g id="edge7" class="edge">
<title>Node4&#45;&gt;Node7</title>
<path fill="none" stroke="midnightblue" d="M5269.64,-225.59C5454.95,-222.56 5985.45,-210.88 6055,-176 6059.86,-173.56 6107.86,-114.59 6126.06,-92.1"/>
<polygon fill="midnightblue" stroke="midnightblue" points="5269.45,-222.1 5259.51,-225.76 5269.56,-229.1 5269.45,-222.1"/>
</g>
<!-- Node8 -->
<g id="node8" class="node">
<title>Node8</title>
<g id="a_node8"><a xlink:href="../../d6/de0/vlayoutpiece_8h.html" target="_top" xlink:title=" ">
<polygon fill="white" stroke="black" points="547,-145.5 547,-164.5 713,-164.5 713,-145.5 547,-145.5"/>
<text text-anchor="middle" x="630" y="-152.5" font-family="Helvetica,sans-Serif" font-size="10.00">src/libs/vlayout/vlayoutpiece.h</text>
</a>
</g>
</g>
<!-- Node4&#45;&gt;Node8 -->
<g id="edge8" class="edge">
<title>Node4&#45;&gt;Node8</title>
<path fill="none" stroke="midnightblue" d="M5142.35,-225.57C4803.67,-220.64 3178.84,-196.89 1850,-176 1422.41,-169.28 910.54,-160.72 713.2,-157.4"/>
<polygon fill="midnightblue" stroke="midnightblue" points="5142.41,-229.08 5152.46,-225.72 5142.51,-222.08 5142.41,-229.08"/>
</g>
<!-- Node18 -->
<g id="node17" class="node">
<title>Node18</title>
<g id="a_node17"><a xlink:href="../../d8/d70/vtextmanager_8cpp.html" target="_top" xlink:title=" ">
<polygon fill="white" stroke="black" points="1446,-73 1446,-92 1628,-92 1628,-73 1446,-73"/>
<text text-anchor="middle" x="1537" y="-80" font-family="Helvetica,sans-Serif" font-size="10.00">src/libs/vlayout/vtextmanager.cpp</text>
</a>
</g>
</g>
<!-- Node4&#45;&gt;Node18 -->
<g id="edge19" class="edge">
<title>Node4&#45;&gt;Node18</title>
<path fill="none" stroke="midnightblue" d="M5142.09,-225.25C4722.44,-216.86 2355.97,-167.09 1637,-98 1621.37,-96.5 1604.45,-94.27 1589.05,-92.02"/>
<polygon fill="midnightblue" stroke="midnightblue" points="5142.15,-228.75 5152.22,-225.45 5142.29,-221.75 5142.15,-228.75"/>
</g>
<!-- Node19 -->
<g id="node18" class="node">
<title>Node19</title>
<g id="a_node18"><a xlink:href="../../d5/d74/vabstractapplication_8h.html" target="_top" xlink:title=" ">
<polygon fill="white" stroke="red" points="3283.5,-145.5 3283.5,-164.5 3478.5,-164.5 3478.5,-145.5 3283.5,-145.5"/>
<text text-anchor="middle" x="3381" y="-152.5" font-family="Helvetica,sans-Serif" font-size="10.00">src/libs/vmisc/vabstractapplication.h</text>
</a>
</g>
</g>
<!-- Node4&#45;&gt;Node19 -->
<g id="edge20" class="edge">
<title>Node4&#45;&gt;Node19</title>
<path fill="none" stroke="midnightblue" d="M5142.28,-224.04C4870.56,-213.54 3807.59,-172.48 3478.6,-159.77"/>
<polygon fill="midnightblue" stroke="midnightblue" points="5142.24,-227.54 5152.37,-224.43 5142.51,-220.54 5142.24,-227.54"/>
</g>
<!-- Node38 -->
<g id="node33" class="node">
<title>Node38</title>
<g id="a_node33"><a xlink:href="../../db/d11/vformula_8cpp.html" target="_top" xlink:title=" ">
<polygon fill="white" stroke="black" points="4844.5,-67.5 4844.5,-97.5 4951.5,-97.5 4951.5,-67.5 4844.5,-67.5"/>
<text text-anchor="start" x="4852.5" y="-85.5" font-family="Helvetica,sans-Serif" font-size="10.00">src/libs/vpatterndb</text>
<text text-anchor="middle" x="4898" y="-74.5" font-family="Helvetica,sans-Serif" font-size="10.00">/vformula.cpp</text>
</a>
</g>
</g>
<!-- Node4&#45;&gt;Node38 -->
<g id="edge54" class="edge">
<title>Node4&#45;&gt;Node38</title>
<path fill="none" stroke="midnightblue" d="M5152.39,-209.16C5126.26,-200.17 5094.59,-188.48 5067,-176 5013.06,-151.61 4952.92,-116.73 4920.94,-97.52"/>
<polygon fill="midnightblue" stroke="midnightblue" points="5151.52,-212.56 5162.12,-212.47 5153.78,-205.94 5151.52,-212.56"/>
</g>
<!-- Node4&#45;&gt;Node39 -->
<g id="edge56" class="edge">
<title>Node4&#45;&gt;Node39</title>
<path fill="none" stroke="midnightblue" d="M5142.27,-226.13C4765.15,-223.83 2822.06,-210.46 2226,-176 1874.21,-155.66 1784.74,-154.97 1437,-98 1433.9,-97.49 1430.72,-96.92 1427.52,-96.31"/>
<polygon fill="midnightblue" stroke="midnightblue" points="5142.43,-229.63 5152.45,-226.19 5142.47,-222.63 5142.43,-229.63"/>
</g>
<!-- Node40 -->
<g id="node35" class="node">
<title>Node40</title>
<g id="a_node35"><a xlink:href="../../df/d7a/vpiece_8cpp.html" target="_top" xlink:title=" ">
<polygon fill="white" stroke="black" points="4969.5,-67.5 4969.5,-97.5 5076.5,-97.5 5076.5,-67.5 4969.5,-67.5"/>
<text text-anchor="start" x="4977.5" y="-85.5" font-family="Helvetica,sans-Serif" font-size="10.00">src/libs/vpatterndb</text>
<text text-anchor="middle" x="5023" y="-74.5" font-family="Helvetica,sans-Serif" font-size="10.00">/vpiece.cpp</text>
</a>
</g>
</g>
<!-- Node4&#45;&gt;Node40 -->
<g id="edge57" class="edge">
<title>Node4&#45;&gt;Node40</title>
<path fill="none" stroke="midnightblue" d="M5167.07,-207.63C5150.67,-198.94 5131.77,-187.92 5116,-176 5083.84,-151.7 5051.69,-116.78 5034.92,-97.55"/>
<polygon fill="midnightblue" stroke="midnightblue" points="5165.9,-210.97 5176.39,-212.47 5169.12,-204.76 5165.9,-210.97"/>
</g>
<!-- Node42 -->
<g id="node37" class="node">
<title>Node42</title>
<g id="a_node37"><a xlink:href="../../d8/dba/vpiecenode_8cpp.html" target="_top" xlink:title=" ">
<polygon fill="white" stroke="black" points="5093.5,-0.5 5093.5,-30.5 5200.5,-30.5 5200.5,-0.5 5093.5,-0.5"/>
<text text-anchor="start" x="5101.5" y="-18.5" font-family="Helvetica,sans-Serif" font-size="10.00">src/libs/vpatterndb</text>
<text text-anchor="middle" x="5147" y="-7.5" font-family="Helvetica,sans-Serif" font-size="10.00">/vpiecenode.cpp</text>
</a>
</g>
</g>
<!-- Node4&#45;&gt;Node42 -->
<g id="edge58" class="edge">
<title>Node4&#45;&gt;Node42</title>
<path fill="none" stroke="midnightblue" d="M5240.76,-207.25C5255.33,-198.51 5272.08,-187.55 5286,-176 5305.6,-159.73 5305.75,-150.68 5325,-134 5346.24,-115.59 5363.95,-122.9 5377,-98 5383.39,-85.8 5385.63,-77.74 5377,-67 5355.29,-40 5261.5,-26.62 5200.59,-20.65"/>
<polygon fill="midnightblue" stroke="midnightblue" points="5238.86,-204.31 5232.02,-212.39 5242.41,-210.34 5238.86,-204.31"/>
</g>
<!-- Node59 -->
<g id="node45" class="node">
<title>Node59</title>
<g id="a_node45"><a xlink:href="../../d7/d8a/measurement__variable__p_8h.html" target="_top" xlink:title=" ">
<polygon fill="white" stroke="red" points="5334,-134.5 5334,-175.5 5470,-175.5 5470,-134.5 5334,-134.5"/>
<text text-anchor="start" x="5342" y="-163.5" font-family="Helvetica,sans-Serif" font-size="10.00">src/libs/vpatterndb</text>
<text text-anchor="start" x="5342" y="-152.5" font-family="Helvetica,sans-Serif" font-size="10.00">/variables/measurement</text>
<text text-anchor="middle" x="5402" y="-141.5" font-family="Helvetica,sans-Serif" font-size="10.00">_variable_p.h</text>
</a>
</g>
</g>
<!-- Node4&#45;&gt;Node59 -->
<g id="edge51" class="edge">
<title>Node4&#45;&gt;Node59</title>
<path fill="none" stroke="midnightblue" d="M5254.84,-208.93C5283.04,-198.79 5318.57,-186.01 5347.66,-175.55"/>
<polygon fill="midnightblue" stroke="midnightblue" points="5253.42,-205.72 5245.19,-212.4 5255.79,-212.31 5253.42,-205.72"/>
</g>
<!-- Node61 -->
<g id="node46" class="node">
<title>Node61</title>
<g id="a_node46"><a xlink:href="../../d1/de1/vincrement__p_8h.html" target="_top" xlink:title=" ">
<polygon fill="white" stroke="black" points="5134.5,-140 5134.5,-170 5277.5,-170 5277.5,-140 5134.5,-140"/>
<text text-anchor="start" x="5142.5" y="-158" font-family="Helvetica,sans-Serif" font-size="10.00">src/libs/vpatterndb</text>
<text text-anchor="middle" x="5206" y="-147" font-family="Helvetica,sans-Serif" font-size="10.00">/variables/vincrement_p.h</text>
</a>
</g>
</g>
<!-- Node4&#45;&gt;Node61 -->
<g id="edge52" class="edge">
<title>Node4&#45;&gt;Node61</title>
<path fill="none" stroke="midnightblue" d="M5206,-202.23C5206,-191.57 5206,-179.41 5206,-170.25"/>
<polygon fill="midnightblue" stroke="midnightblue" points="5202.5,-202.23 5206,-212.23 5209.5,-202.23 5202.5,-202.23"/>
</g>
<!-- Node62 -->
<g id="node47" class="node">
<title>Node62</title>
<g id="a_node47"><a xlink:href="../../d6/d91/vnodedetail_8cpp.html" target="_top" xlink:title=" ">
<polygon fill="white" stroke="black" points="5488.5,-140 5488.5,-170 5595.5,-170 5595.5,-140 5488.5,-140"/>
<text text-anchor="start" x="5496.5" y="-158" font-family="Helvetica,sans-Serif" font-size="10.00">src/libs/vpatterndb</text>
<text text-anchor="middle" x="5542" y="-147" font-family="Helvetica,sans-Serif" font-size="10.00">/vnodedetail.cpp</text>
</a>
</g>
</g>
<!-- Node4&#45;&gt;Node62 -->
<g id="edge55" class="edge">
<title>Node4&#45;&gt;Node62</title>
<path fill="none" stroke="midnightblue" d="M5269.59,-217.04C5325.23,-208.21 5408.02,-193.76 5479,-176 5485.9,-174.27 5493.16,-172.21 5500.19,-170.07"/>
<polygon fill="midnightblue" stroke="midnightblue" points="5268.86,-213.61 5259.52,-218.62 5269.95,-220.52 5268.86,-213.61"/>
</g>
<!-- Node63 -->
<g id="node48" class="node">
<title>Node63</title>
<g id="a_node48"><a xlink:href="../../da/de1/vpiecepath_8cpp.html" target="_top" xlink:title=" ">
<polygon fill="white" stroke="black" points="5613.5,-140 5613.5,-170 5720.5,-170 5720.5,-140 5613.5,-140"/>
<text text-anchor="start" x="5621.5" y="-158" font-family="Helvetica,sans-Serif" font-size="10.00">src/libs/vpatterndb</text>
<text text-anchor="middle" x="5667" y="-147" font-family="Helvetica,sans-Serif" font-size="10.00">/vpiecepath.cpp</text>
</a>
</g>
</g>
<!-- Node4&#45;&gt;Node63 -->
<g id="edge59" class="edge">
<title>Node4&#45;&gt;Node63</title>
<path fill="none" stroke="midnightblue" d="M5269.93,-221.98C5349.07,-215.56 5487.64,-201.63 5604,-176 5611.4,-174.37 5619.17,-172.25 5626.63,-170.01"/>
<polygon fill="midnightblue" stroke="midnightblue" points="5269.33,-218.51 5259.64,-222.8 5269.88,-225.49 5269.33,-218.51"/>
</g>
<!-- Node64 -->
<g id="node49" class="node">
<title>Node64</title>
<g id="a_node49"><a xlink:href="../../d1/d3a/abstracttest_8cpp.html" target="_top" xlink:title=" ">
<polygon fill="white" stroke="black" points="5738.5,-145.5 5738.5,-164.5 5899.5,-164.5 5899.5,-145.5 5738.5,-145.5"/>
<text text-anchor="middle" x="5819" y="-152.5" font-family="Helvetica,sans-Serif" font-size="10.00">src/libs/vtest/abstracttest.cpp</text>
</a>
</g>
</g>
<!-- Node4&#45;&gt;Node64 -->
<g id="edge60" class="edge">
<title>Node4&#45;&gt;Node64</title>
<path fill="none" stroke="midnightblue" d="M5269.85,-222.86C5368.71,-216.66 5564.55,-202.11 5729,-176 5747.65,-173.04 5768.23,-168.56 5785,-164.59"/>
<polygon fill="midnightblue" stroke="midnightblue" points="5269.49,-219.38 5259.73,-223.49 5269.93,-226.36 5269.49,-219.38"/>
</g>
<!-- Node65 -->
<g id="node50" class="node">
<title>Node65</title>
<g id="a_node50"><a xlink:href="../../da/db4/piece__tablewidgetitem_8cpp.html" target="_top" xlink:title=" ">
<polygon fill="white" stroke="black" points="5918,-140 5918,-170 6046,-170 6046,-140 5918,-140"/>
<text text-anchor="start" x="5926" y="-158" font-family="Helvetica,sans-Serif" font-size="10.00">src/libs/vwidgets/piece</text>
<text text-anchor="middle" x="5982" y="-147" font-family="Helvetica,sans-Serif" font-size="10.00">_tablewidgetitem.cpp</text>
</a>
</g>
</g>
<!-- Node4&#45;&gt;Node65 -->
<g id="edge61" class="edge">
<title>Node4&#45;&gt;Node65</title>
<path fill="none" stroke="midnightblue" d="M5269.77,-226C5393.64,-224.13 5675.11,-215.47 5908,-176 5916.92,-174.49 5926.33,-172.37 5935.33,-170.07"/>
<polygon fill="midnightblue" stroke="midnightblue" points="5269.65,-222.5 5259.7,-226.14 5269.75,-229.5 5269.65,-222.5"/>
</g>
<!-- Node6&#45;&gt;Node7 -->
<g id="edge6" class="edge">
<title>Node6&#45;&gt;Node7</title>
<path fill="none" stroke="midnightblue" d="M6178.11,-137.4C6166.26,-123.24 6149.7,-103.46 6140.29,-92.22"/>
<polygon fill="midnightblue" stroke="midnightblue" points="6175.66,-139.93 6184.77,-145.36 6181.03,-135.44 6175.66,-139.93"/>
</g>
<!-- Node9 -->
<g id="node9" class="node">
<title>Node9</title>
<g id="a_node9"><a xlink:href="../../dd/d66/vdxfengine_8cpp.html" target="_top" xlink:title=" ">
<polygon fill="white" stroke="black" points="953,-73 953,-92 1107,-92 1107,-73 953,-73"/>
<text text-anchor="middle" x="1030" y="-80" font-family="Helvetica,sans-Serif" font-size="10.00">src/libs/vdxf/vdxfengine.cpp</text>
</a>
</g>
</g>
<!-- Node8&#45;&gt;Node9 -->
<g id="edge9" class="edge">
<title>Node8&#45;&gt;Node9</title>
<path fill="none" stroke="midnightblue" d="M688.55,-143.68C767.84,-129.71 907.9,-105.02 981.58,-92.03"/>
<polygon fill="midnightblue" stroke="midnightblue" points="687.49,-140.31 678.25,-145.5 688.71,-147.21 687.49,-140.31"/>
</g>
<!-- Node10 -->
<g id="node10" class="node">
<title>Node10</title>
<g id="a_node10"><a xlink:href="../../de/da8/vbank_8cpp.html" target="_top" xlink:title=" ">
<polygon fill="white" stroke="black" points="0,-73 0,-92 144,-92 144,-73 0,-73"/>
<text text-anchor="middle" x="72" y="-80" font-family="Helvetica,sans-Serif" font-size="10.00">src/libs/vlayout/vbank.cpp</text>
</a>
</g>
</g>
<!-- Node8&#45;&gt;Node10 -->
<g id="edge10" class="edge">
<title>Node8&#45;&gt;Node10</title>
<path fill="none" stroke="midnightblue" d="M536.64,-144.72C440.32,-134.75 285.84,-117.67 153,-98 141.27,-96.26 128.63,-94.13 116.91,-92.04"/>
<polygon fill="midnightblue" stroke="midnightblue" points="536.34,-148.21 546.65,-145.75 537.06,-141.25 536.34,-148.21"/>
</g>
<!-- Node11 -->
<g id="node11" class="node">
<title>Node11</title>
<g id="a_node11"><a xlink:href="../../df/d5d/vcontour_8cpp.html" target="_top" xlink:title=" ">
<polygon fill="white" stroke="black" points="162,-73 162,-92 318,-92 318,-73 162,-73"/>
<text text-anchor="middle" x="240" y="-80" font-family="Helvetica,sans-Serif" font-size="10.00">src/libs/vlayout/vcontour.cpp</text>
</a>
</g>
</g>
<!-- Node8&#45;&gt;Node11 -->
<g id="edge11" class="edge">
<title>Node8&#45;&gt;Node11</title>
<path fill="none" stroke="midnightblue" d="M572.91,-143.68C495.6,-129.71 359.05,-105.02 287.21,-92.03"/>
<polygon fill="midnightblue" stroke="midnightblue" points="572.49,-147.16 582.96,-145.5 573.74,-140.27 572.49,-147.16"/>
</g>
<!-- Node12 -->
<g id="node12" class="node">
<title>Node12</title>
<g id="a_node12"><a xlink:href="../../d2/d2d/vlayoutpaper__p_8h.html" target="_top" xlink:title=" ">
<polygon fill="white" stroke="black" points="540.5,-73 540.5,-92 719.5,-92 719.5,-73 540.5,-73"/>
<text text-anchor="middle" x="630" y="-80" font-family="Helvetica,sans-Serif" font-size="10.00">src/libs/vlayout/vlayoutpaper_p.h</text>
</a>
</g>
</g>
<!-- Node8&#45;&gt;Node12 -->
<g id="edge12" class="edge">
<title>Node8&#45;&gt;Node12</title>
<path fill="none" stroke="midnightblue" d="M630,-134.94C630,-121.03 630,-102.82 630,-92.22"/>
<polygon fill="midnightblue" stroke="midnightblue" points="626.5,-135.36 630,-145.36 633.5,-135.36 626.5,-135.36"/>
</g>
<!-- Node13 -->
<g id="node13" class="node">
<title>Node13</title>
<g id="a_node13"><a xlink:href="../../d1/dd1/vlayoutpaper_8cpp.html" target="_top" xlink:title=" ">
<polygon fill="white" stroke="black" points="423,-6 423,-25 601,-25 601,-6 423,-6"/>
<text text-anchor="middle" x="512" y="-13" font-family="Helvetica,sans-Serif" font-size="10.00">src/libs/vlayout/vlayoutpaper.cpp</text>
</a>
</g>
</g>
<!-- Node8&#45;&gt;Node13 -->
<g id="edge14" class="edge">
<title>Node8&#45;&gt;Node13</title>
<path fill="none" stroke="midnightblue" d="M592.88,-141.61C571.7,-132.69 546.39,-118.56 531,-98 514.28,-75.67 511.95,-40.99 511.83,-25.05"/>
<polygon fill="midnightblue" stroke="midnightblue" points="591.68,-144.9 602.27,-145.34 594.27,-138.39 591.68,-144.9"/>
</g>
<!-- Node14 -->
<g id="node14" class="node">
<title>Node14</title>
<g id="a_node14"><a xlink:href="../../d3/d39/vlayoutgenerator_8cpp.html" target="_top" xlink:title=" ">
<polygon fill="white" stroke="black" points="737.5,-73 737.5,-92 934.5,-92 934.5,-73 737.5,-73"/>
<text text-anchor="middle" x="836" y="-80" font-family="Helvetica,sans-Serif" font-size="10.00">src/libs/vlayout/vlayoutgenerator.cpp</text>
</a>
</g>
</g>
<!-- Node8&#45;&gt;Node14 -->
<g id="edge15" class="edge">
<title>Node8&#45;&gt;Node14</title>
<path fill="none" stroke="midnightblue" d="M664.51,-142.19C705.95,-128.01 774.43,-104.57 811.06,-92.03"/>
<polygon fill="midnightblue" stroke="midnightblue" points="663.18,-138.95 654.85,-145.5 665.44,-145.57 663.18,-138.95"/>
</g>
<!-- Node15 -->
<g id="node15" class="node">
<title>Node15</title>
<g id="a_node15"><a xlink:href="../../db/d5c/vposition_8h.html" target="_top" xlink:title=" ">
<polygon fill="white" stroke="red" points="336,-73 336,-92 484,-92 484,-73 336,-73"/>
<text text-anchor="middle" x="410" y="-80" font-family="Helvetica,sans-Serif" font-size="10.00">src/libs/vlayout/vposition.h</text>
</a>
</g>
</g>
<!-- Node8&#45;&gt;Node15 -->
<g id="edge16" class="edge">
<title>Node8&#45;&gt;Node15</title>
<path fill="none" stroke="midnightblue" d="M593.7,-142.37C549.51,-128.21 475.92,-104.62 436.63,-92.03"/>
<polygon fill="midnightblue" stroke="midnightblue" points="592.87,-145.78 603.46,-145.5 595.01,-139.11 592.87,-145.78"/>
</g>
<!-- Node17 -->
<g id="node16" class="node">
<title>Node17</title>
<g id="a_node16"><a xlink:href="../../dd/d70/vlayoutpiece_8cpp.html" target="_top" xlink:title=" ">
<polygon fill="white" stroke="black" points="1125.5,-73 1125.5,-92 1302.5,-92 1302.5,-73 1125.5,-73"/>
<text text-anchor="middle" x="1214" y="-80" font-family="Helvetica,sans-Serif" font-size="10.00">src/libs/vlayout/vlayoutpiece.cpp</text>
</a>
</g>
</g>
<!-- Node8&#45;&gt;Node17 -->
<g id="edge18" class="edge">
<title>Node8&#45;&gt;Node17</title>
<path fill="none" stroke="midnightblue" d="M721.07,-144.39C818.81,-133.87 978.55,-116.08 1116,-98 1129.81,-96.18 1144.7,-94.06 1158.59,-92.02"/>
<polygon fill="midnightblue" stroke="midnightblue" points="720.5,-140.93 710.93,-145.48 721.25,-147.89 720.5,-140.93"/>
</g>
<!-- Node12&#45;&gt;Node13 -->
<g id="edge13" class="edge">
<title>Node12&#45;&gt;Node13</title>
<path fill="none" stroke="midnightblue" d="M605.11,-67.79C581.72,-54.9 547.44,-36.02 527.66,-25.13"/>
<polygon fill="midnightblue" stroke="midnightblue" points="603.64,-70.97 614.09,-72.73 607.02,-64.84 603.64,-70.97"/>
</g>
<!-- Node15&#45;&gt;Node13 -->
<g id="edge17" class="edge">
<title>Node15&#45;&gt;Node13</title>
<path fill="none" stroke="midnightblue" d="M432.33,-67.27C452.52,-54.4 481.59,-35.88 498.46,-25.13"/>
<polygon fill="midnightblue" stroke="midnightblue" points="430.31,-64.41 423.76,-72.73 434.07,-70.31 430.31,-64.41"/>
</g>
<!-- Node19&#45;&gt;Node5 -->
<g id="edge23" class="edge">
<title>Node19&#45;&gt;Node5</title>
<path fill="none" stroke="midnightblue" d="M3489.05,-153.04C3813.24,-149.75 4774.3,-136.9 5085,-98 5088.26,-97.59 5091.6,-97.1 5094.95,-96.55"/>
<polygon fill="midnightblue" stroke="midnightblue" points="3488.68,-149.54 3478.72,-153.14 3488.76,-156.54 3488.68,-149.54"/>
</g>
<!-- Node19&#45;&gt;Node17 -->
<g id="edge33" class="edge">
<title>Node19&#45;&gt;Node17</title>
<path fill="none" stroke="midnightblue" d="M3273.08,-152.81C2904.59,-148.48 1697.62,-132 1311,-98 1295.4,-96.63 1278.48,-94.37 1263.21,-92.04"/>
<polygon fill="midnightblue" stroke="midnightblue" points="3273.17,-156.31 3283.21,-152.93 3273.25,-149.31 3273.17,-156.31"/>
</g>
<!-- Node19&#45;&gt;Node18 -->
<g id="edge34" class="edge">
<title>Node19&#45;&gt;Node18</title>
<path fill="none" stroke="midnightblue" d="M3273.24,-150C3160.11,-145.84 2977.06,-139.22 2819,-134 2293.71,-116.65 2160.58,-143.78 1637,-98 1621.01,-96.6 1603.67,-94.35 1588,-92.03"/>
<polygon fill="midnightblue" stroke="midnightblue" points="3273.16,-153.5 3283.29,-150.37 3273.42,-146.51 3273.16,-153.5"/>
</g>
<!-- Node20 -->
<g id="node19" class="node">
<title>Node20</title>
<g id="a_node19"><a xlink:href="../../d4/d90/fvupdater_8cpp.html" target="_top" xlink:title=" ">
<polygon fill="white" stroke="black" points="3011.5,-73 3011.5,-92 3164.5,-92 3164.5,-73 3011.5,-73"/>
<text text-anchor="middle" x="3088" y="-80" font-family="Helvetica,sans-Serif" font-size="10.00">src/libs/fervor/fvupdater.cpp</text>
</a>
</g>
</g>
<!-- Node19&#45;&gt;Node20 -->
<g id="edge21" class="edge">
<title>Node19&#45;&gt;Node20</title>
<path fill="none" stroke="midnightblue" d="M3335.6,-143.08C3277.11,-129 3176.67,-104.83 3123.47,-92.03"/>
<polygon fill="midnightblue" stroke="midnightblue" points="3335.12,-146.56 3345.66,-145.5 3336.75,-139.75 3335.12,-146.56"/>
</g>
<!-- Node21 -->
<g id="node20" class="node">
<title>Node21</title>
<g id="a_node20"><a xlink:href="../../df/d1e/image__item_8cpp.html" target="_top" xlink:title=" ">
<polygon fill="white" stroke="black" points="3183,-67.5 3183,-97.5 3295,-97.5 3295,-67.5 3183,-67.5"/>
<text text-anchor="start" x="3191" y="-85.5" font-family="Helvetica,sans-Serif" font-size="10.00">src/libs/tools/image</text>
<text text-anchor="middle" x="3239" y="-74.5" font-family="Helvetica,sans-Serif" font-size="10.00">_item.cpp</text>
</a>
</g>
</g>
<!-- Node19&#45;&gt;Node21 -->
<g id="edge22" class="edge">
<title>Node19&#45;&gt;Node21</title>
<path fill="none" stroke="midnightblue" d="M3354.68,-140.93C3329.83,-128.59 3292.67,-110.14 3267.21,-97.51"/>
<polygon fill="midnightblue" stroke="midnightblue" points="3353.36,-144.18 3363.87,-145.5 3356.47,-137.91 3353.36,-144.18"/>
</g>
<!-- Node22 -->
<g id="node21" class="node">
<title>Node22</title>
<g id="a_node21"><a xlink:href="../../d9/dc8/dxiface_8cpp.html" target="_top" xlink:title=" ">
<polygon fill="white" stroke="black" points="3313.5,-73 3313.5,-92 3448.5,-92 3448.5,-73 3313.5,-73"/>
<text text-anchor="middle" x="3381" y="-80" font-family="Helvetica,sans-Serif" font-size="10.00">src/libs/vdxf/dxiface.cpp</text>
</a>
</g>
</g>
<!-- Node19&#45;&gt;Node22 -->
<g id="edge24" class="edge">
<title>Node19&#45;&gt;Node22</title>
<path fill="none" stroke="midnightblue" d="M3381,-134.94C3381,-121.03 3381,-102.82 3381,-92.22"/>
<polygon fill="midnightblue" stroke="midnightblue" points="3377.5,-135.36 3381,-145.36 3384.5,-135.36 3377.5,-135.36"/>
</g>
<!-- Node23 -->
<g id="node22" class="node">
<title>Node23</title>
<g id="a_node22"><a xlink:href="../../da/d75/vabstractarc__p_8h.html" target="_top" xlink:title=" ">
<polygon fill="white" stroke="red" points="3466.5,-67.5 3466.5,-97.5 3573.5,-97.5 3573.5,-67.5 3466.5,-67.5"/>
<text text-anchor="start" x="3474.5" y="-85.5" font-family="Helvetica,sans-Serif" font-size="10.00">src/libs/vgeometry</text>
<text text-anchor="middle" x="3520" y="-74.5" font-family="Helvetica,sans-Serif" font-size="10.00">/vabstractarc_p.h</text>
</a>
</g>
</g>
<!-- Node19&#45;&gt;Node23 -->
<g id="edge25" class="edge">
<title>Node19&#45;&gt;Node23</title>
<path fill="none" stroke="midnightblue" d="M3406.76,-140.93C3431.09,-128.59 3467.47,-110.14 3492.39,-97.51"/>
<polygon fill="midnightblue" stroke="midnightblue" points="3405.1,-137.85 3397.77,-145.5 3408.27,-144.09 3405.1,-137.85"/>
</g>
<!-- Node25 -->
<g id="node23" class="node">
<title>Node25</title>
<g id="a_node23"><a xlink:href="../../d5/d8e/vcubicbezier__p_8h.html" target="_top" xlink:title=" ">
<polygon fill="white" stroke="red" points="3591.5,-67.5 3591.5,-97.5 3698.5,-97.5 3698.5,-67.5 3591.5,-67.5"/>
<text text-anchor="start" x="3599.5" y="-85.5" font-family="Helvetica,sans-Serif" font-size="10.00">src/libs/vgeometry</text>
<text text-anchor="middle" x="3645" y="-74.5" font-family="Helvetica,sans-Serif" font-size="10.00">/vcubicbezier_p.h</text>
</a>
</g>
</g>
<!-- Node19&#45;&gt;Node25 -->
<g id="edge26" class="edge">
<title>Node19&#45;&gt;Node25</title>
<path fill="none" stroke="midnightblue" d="M3422.77,-142.85C3468.74,-130.57 3542.71,-110.82 3592.55,-97.51"/>
<polygon fill="midnightblue" stroke="midnightblue" points="3421.6,-139.53 3412.84,-145.5 3423.41,-146.3 3421.6,-139.53"/>
</g>
<!-- Node27 -->
<g id="node24" class="node">
<title>Node27</title>
<g id="a_node24"><a xlink:href="../../dc/da3/varc__p_8h.html" target="_top" xlink:title=" ">
<polygon fill="white" stroke="red" points="3716.5,-67.5 3716.5,-97.5 3823.5,-97.5 3823.5,-67.5 3716.5,-67.5"/>
<text text-anchor="start" x="3724.5" y="-85.5" font-family="Helvetica,sans-Serif" font-size="10.00">src/libs/vgeometry</text>
<text text-anchor="middle" x="3770" y="-74.5" font-family="Helvetica,sans-Serif" font-size="10.00">/varc_p.h</text>
</a>
</g>
</g>
<!-- Node19&#45;&gt;Node27 -->
<g id="edge27" class="edge">
<title>Node19&#45;&gt;Node27</title>
<path fill="none" stroke="midnightblue" d="M3446.51,-143.85C3512.48,-133.38 3617.08,-116.06 3707,-98 3710.08,-97.38 3713.24,-96.72 3716.43,-96.05"/>
<polygon fill="midnightblue" stroke="midnightblue" points="3445.59,-140.46 3436.26,-145.48 3446.68,-147.37 3445.59,-140.46"/>
</g>
<!-- Node29 -->
<g id="node25" class="node">
<title>Node29</title>
<g id="a_node25"><a xlink:href="../../df/dde/vellipticalarc__p_8h.html" target="_top" xlink:title=" ">
<polygon fill="white" stroke="black" points="4719.5,-67.5 4719.5,-97.5 4826.5,-97.5 4826.5,-67.5 4719.5,-67.5"/>
<text text-anchor="start" x="4727.5" y="-85.5" font-family="Helvetica,sans-Serif" font-size="10.00">src/libs/vgeometry</text>
<text text-anchor="middle" x="4773" y="-74.5" font-family="Helvetica,sans-Serif" font-size="10.00">/vellipticalarc_p.h</text>
</a>
</g>
</g>
<!-- Node19&#45;&gt;Node29 -->
<g id="edge28" class="edge">
<title>Node19&#45;&gt;Node29</title>
<path fill="none" stroke="midnightblue" d="M3488.91,-151.77C3761.14,-145.78 4470.79,-127.71 4705,-98 4709.67,-97.41 4714.5,-96.66 4719.32,-95.82"/>
<polygon fill="midnightblue" stroke="midnightblue" points="3488.55,-148.28 3478.63,-152 3488.7,-155.28 3488.55,-148.28"/>
</g>
<!-- Node30 -->
<g id="node26" class="node">
<title>Node30</title>
<g id="a_node26"><a xlink:href="../../d6/dfb/vellipticalarc_8cpp.html" target="_top" xlink:title=" ">
<polygon fill="white" stroke="black" points="4678.5,-0.5 4678.5,-30.5 4785.5,-30.5 4785.5,-0.5 4678.5,-0.5"/>
<text text-anchor="start" x="4686.5" y="-18.5" font-family="Helvetica,sans-Serif" font-size="10.00">src/libs/vgeometry</text>
<text text-anchor="middle" x="4732" y="-7.5" font-family="Helvetica,sans-Serif" font-size="10.00">/vellipticalarc.cpp</text>
</a>
</g>
</g>
<!-- Node19&#45;&gt;Node30 -->
<g id="edge30" class="edge">
<title>Node19&#45;&gt;Node30</title>
<path fill="none" stroke="midnightblue" d="M3488.88,-154.62C3780.41,-155.55 4569.01,-152.9 4672,-98 4699.44,-83.37 4717.62,-50.01 4726.23,-30.81"/>
<polygon fill="midnightblue" stroke="midnightblue" points="3488.74,-151.12 3478.72,-154.58 3488.71,-158.12 3488.74,-151.12"/>
</g>
<!-- Node31 -->
<g id="node27" class="node">
<title>Node31</title>
<g id="a_node27"><a xlink:href="../../d1/d76/vspline__p_8h.html" target="_top" xlink:title=" ">
<polygon fill="white" stroke="red" points="3841.5,-67.5 3841.5,-97.5 3948.5,-97.5 3948.5,-67.5 3841.5,-67.5"/>
<text text-anchor="start" x="3849.5" y="-85.5" font-family="Helvetica,sans-Serif" font-size="10.00">src/libs/vgeometry</text>
<text text-anchor="middle" x="3895" y="-74.5" font-family="Helvetica,sans-Serif" font-size="10.00">/vspline_p.h</text>
</a>
</g>
</g>
<!-- Node19&#45;&gt;Node31 -->
<g id="edge31" class="edge">
<title>Node19&#45;&gt;Node31</title>
<path fill="none" stroke="midnightblue" d="M3482.22,-144.43C3573.92,-135.06 3712.55,-119.1 3832,-98 3835.09,-97.45 3838.27,-96.85 3841.46,-96.22"/>
<polygon fill="midnightblue" stroke="midnightblue" points="3481.71,-140.97 3472.11,-145.46 3482.41,-147.93 3481.71,-140.97"/>
</g>
<!-- Node33 -->
<g id="node28" class="node">
<title>Node33</title>
<g id="a_node28"><a xlink:href="../../d9/d15/vabstractpiece_8cpp.html" target="_top" xlink:title=" ">
<polygon fill="white" stroke="black" points="3967,-73 3967,-92 4153,-92 4153,-73 3967,-73"/>
<text text-anchor="middle" x="4060" y="-80" font-family="Helvetica,sans-Serif" font-size="10.00">src/libs/vlayout/vabstractpiece.cpp</text>
</a>
</g>
</g>
<!-- Node19&#45;&gt;Node33 -->
<g id="edge32" class="edge">
<title>Node19&#45;&gt;Node33</title>
<path fill="none" stroke="midnightblue" d="M3489.01,-144.89C3604.87,-134.8 3794.18,-117.37 3957,-98 3971.79,-96.24 3987.75,-94.11 4002.58,-92.03"/>
<polygon fill="midnightblue" stroke="midnightblue" points="3488.38,-141.43 3478.72,-145.79 3488.99,-148.41 3488.38,-141.43"/>
</g>
<!-- Node34 -->
<g id="node29" class="node">
<title>Node34</title>
<g id="a_node29"><a xlink:href="../../db/d65/dialogexporttocsv_8cpp.html" target="_top" xlink:title=" ">
<polygon fill="white" stroke="black" points="4171.5,-67.5 4171.5,-97.5 4298.5,-97.5 4298.5,-67.5 4171.5,-67.5"/>
<text text-anchor="start" x="4179.5" y="-85.5" font-family="Helvetica,sans-Serif" font-size="10.00">src/libs/vmisc/dialogs</text>
<text text-anchor="middle" x="4235" y="-74.5" font-family="Helvetica,sans-Serif" font-size="10.00">/dialogexporttocsv.cpp</text>
</a>
</g>
</g>
<!-- Node19&#45;&gt;Node34 -->
<g id="edge35" class="edge">
<title>Node19&#45;&gt;Node34</title>
<path fill="none" stroke="midnightblue" d="M3489.01,-150.51C3640.13,-144.65 3922.97,-130.18 4162,-98 4165.07,-97.59 4168.21,-97.12 4171.38,-96.62"/>
<polygon fill="midnightblue" stroke="midnightblue" points="3488.66,-147.02 3478.81,-150.9 3488.93,-154.01 3488.66,-147.02"/>
</g>
<!-- Node35 -->
<g id="node30" class="node">
<title>Node35</title>
<g id="a_node30"><a xlink:href="../../d6/d0b/def_8cpp.html" target="_top" xlink:title=" ">
<polygon fill="white" stroke="black" points="4317,-73 4317,-92 4439,-92 4439,-73 4317,-73"/>
<text text-anchor="middle" x="4378" y="-80" font-family="Helvetica,sans-Serif" font-size="10.00">src/libs/vmisc/def.cpp</text>
</a>
</g>
</g>
<!-- Node19&#45;&gt;Node35 -->
<g id="edge36" class="edge">
<title>Node19&#45;&gt;Node35</title>
<path fill="none" stroke="midnightblue" d="M3488.89,-152.4C3662.11,-148.74 4012.67,-136.76 4307,-98 4318.23,-96.52 4330.33,-94.29 4341.32,-92.02"/>
<polygon fill="midnightblue" stroke="midnightblue" points="3488.68,-148.91 3478.75,-152.61 3488.82,-155.91 3488.68,-148.91"/>
</g>
<!-- Node36 -->
<g id="node31" class="node">
<title>Node36</title>
<g id="a_node31"><a xlink:href="../../d0/df6/vabstractapplication_8cpp.html" target="_top" xlink:title=" ">
<polygon fill="white" stroke="black" points="4457,-73 4457,-92 4663,-92 4663,-73 4457,-73"/>
<text text-anchor="middle" x="4560" y="-80" font-family="Helvetica,sans-Serif" font-size="10.00">src/libs/vmisc/vabstractapplication.cpp</text>
</a>
</g>
</g>
<!-- Node19&#45;&gt;Node36 -->
<g id="edge37" class="edge">
<title>Node19&#45;&gt;Node36</title>
<path fill="none" stroke="midnightblue" d="M3488.77,-151.06C3681.53,-145.2 4097.95,-129.8 4448,-98 4465.18,-96.44 4483.79,-94.24 4500.81,-92.02"/>
<polygon fill="midnightblue" stroke="midnightblue" points="3488.53,-147.57 3478.64,-151.37 3488.74,-154.57 3488.53,-147.57"/>
</g>
<!-- Node37 -->
<g id="node32" class="node">
<title>Node37</title>
<g id="a_node32"><a xlink:href="../../d4/d4f/pmsystems_8cpp.html" target="_top" xlink:title=" ">
<polygon fill="white" stroke="black" points="1646.5,-67.5 1646.5,-97.5 1753.5,-97.5 1753.5,-67.5 1646.5,-67.5"/>
<text text-anchor="start" x="1654.5" y="-85.5" font-family="Helvetica,sans-Serif" font-size="10.00">src/libs/vpatterndb</text>
<text text-anchor="middle" x="1700" y="-74.5" font-family="Helvetica,sans-Serif" font-size="10.00">/pmsystems.cpp</text>
</a>
</g>
</g>
<!-- Node19&#45;&gt;Node37 -->
<g id="edge38" class="edge">
<title>Node19&#45;&gt;Node37</title>
<path fill="none" stroke="midnightblue" d="M3273.23,-150.12C3160.1,-146.05 2977.05,-139.5 2819,-134 2349.23,-117.64 2227.97,-159.82 1762,-98 1759.26,-97.64 1756.46,-97.21 1753.65,-96.72"/>
<polygon fill="midnightblue" stroke="midnightblue" points="3273.16,-153.62 3283.28,-150.48 3273.42,-146.62 3273.16,-153.62"/>
</g>
<!-- Node19&#45;&gt;Node38 -->
<g id="edge39" class="edge">
<title>Node19&#45;&gt;Node38</title>
<path fill="none" stroke="midnightblue" d="M3488.87,-152.47C3779.59,-147.93 4574.92,-132.63 4835,-98 4838,-97.6 4841.07,-97.12 4844.17,-96.59"/>
<polygon fill="midnightblue" stroke="midnightblue" points="3488.69,-148.97 3478.74,-152.63 3488.8,-155.97 3488.69,-148.97"/>
</g>
<!-- Node19&#45;&gt;Node39 -->
<g id="edge40" class="edge">
<title>Node19&#45;&gt;Node39</title>
<path fill="none" stroke="midnightblue" d="M3272.97,-153.69C2919.01,-152.25 1796.3,-144.06 1437,-98 1433.99,-97.61 1430.92,-97.15 1427.83,-96.63"/>
<polygon fill="midnightblue" stroke="midnightblue" points="3273.21,-157.19 3283.22,-153.73 3273.23,-150.19 3273.21,-157.19"/>
</g>
<!-- Node19&#45;&gt;Node40 -->
<g id="edge41" class="edge">
<title>Node19&#45;&gt;Node40</title>
<path fill="none" stroke="midnightblue" d="M3488.82,-152.85C3796.49,-149.16 4674.71,-135.54 4960,-98 4963,-97.6 4966.08,-97.13 4969.17,-96.6"/>
<polygon fill="midnightblue" stroke="midnightblue" points="3488.52,-149.36 3478.56,-152.98 3488.6,-156.36 3488.52,-149.36"/>
</g>
<!-- Node41 -->
<g id="node36" class="node">
<title>Node41</title>
<g id="a_node36"><a xlink:href="../../df/dba/vpiecenode__p_8h.html" target="_top" xlink:title=" ">
<polygon fill="white" stroke="black" points="1771.5,-67.5 1771.5,-97.5 1878.5,-97.5 1878.5,-67.5 1771.5,-67.5"/>
<text text-anchor="start" x="1779.5" y="-85.5" font-family="Helvetica,sans-Serif" font-size="10.00">src/libs/vpatterndb</text>
<text text-anchor="middle" x="1825" y="-74.5" font-family="Helvetica,sans-Serif" font-size="10.00">/vpiecenode_p.h</text>
</a>
</g>
</g>
<!-- Node19&#45;&gt;Node41 -->
<g id="edge42" class="edge">
<title>Node19&#45;&gt;Node41</title>
<path fill="none" stroke="midnightblue" d="M3273.36,-150.1C2933.59,-137.76 1905.17,-100.28 1888,-98 1885,-97.6 1881.92,-97.13 1878.83,-96.59"/>
<polygon fill="midnightblue" stroke="midnightblue" points="3273.34,-153.6 3283.46,-150.46 3273.59,-146.6 3273.34,-153.6"/>
</g>
<!-- Node43 -->
<g id="node38" class="node">
<title>Node43</title>
<g id="a_node38"><a xlink:href="../../de/d3e/vtranslatevars_8cpp.html" target="_top" xlink:title=" ">
<polygon fill="white" stroke="black" points="1897,-67.5 1897,-97.5 2007,-97.5 2007,-67.5 1897,-67.5"/>
<text text-anchor="start" x="1905" y="-85.5" font-family="Helvetica,sans-Serif" font-size="10.00">src/libs/vpatterndb</text>
<text text-anchor="middle" x="1952" y="-74.5" font-family="Helvetica,sans-Serif" font-size="10.00">/vtranslatevars.cpp</text>
</a>
</g>
</g>
<!-- Node19&#45;&gt;Node43 -->
<g id="edge44" class="edge">
<title>Node19&#45;&gt;Node43</title>
<path fill="none" stroke="midnightblue" d="M3273.04,-150.11C2961.28,-138.79 2077.88,-106.21 2016,-98 2013.06,-97.61 2010.06,-97.15 2007.04,-96.64"/>
<polygon fill="midnightblue" stroke="midnightblue" points="3273.32,-153.62 3283.44,-150.48 3273.57,-146.62 3273.32,-153.62"/>
</g>
<!-- Node44 -->
<g id="node39" class="node">
<title>Node44</title>
<g id="a_node39"><a xlink:href="../../df/d40/export__format__combobox_8cpp.html" target="_top" xlink:title=" ">
<polygon fill="white" stroke="black" points="2025.5,-67.5 2025.5,-97.5 2158.5,-97.5 2158.5,-67.5 2025.5,-67.5"/>
<text text-anchor="start" x="2033.5" y="-85.5" font-family="Helvetica,sans-Serif" font-size="10.00">src/libs/vwidgets/export</text>
<text text-anchor="middle" x="2092" y="-74.5" font-family="Helvetica,sans-Serif" font-size="10.00">_format_combobox.cpp</text>
</a>
</g>
</g>
<!-- Node19&#45;&gt;Node44 -->
<g id="edge45" class="edge">
<title>Node19&#45;&gt;Node44</title>
<path fill="none" stroke="midnightblue" d="M3273.41,-149.91C2996.97,-139.28 2275.93,-110.72 2168,-98 2164.93,-97.64 2161.8,-97.22 2158.64,-96.77"/>
<polygon fill="midnightblue" stroke="midnightblue" points="3273.33,-153.41 3283.45,-150.3 3273.6,-146.42 3273.33,-153.41"/>
</g>
<!-- Node45 -->
<g id="node40" class="node">
<title>Node45</title>
<g id="a_node40"><a xlink:href="../../d3/d4f/mouse__coordinates_8cpp.html" target="_top" xlink:title=" ">
<polygon fill="white" stroke="black" points="2177,-67.5 2177,-97.5 2311,-97.5 2311,-67.5 2177,-67.5"/>
<text text-anchor="start" x="2185" y="-85.5" font-family="Helvetica,sans-Serif" font-size="10.00">src/libs/vwidgets/mouse</text>
<text text-anchor="middle" x="2244" y="-74.5" font-family="Helvetica,sans-Serif" font-size="10.00">_coordinates.cpp</text>
</a>
</g>
</g>
<!-- Node19&#45;&gt;Node45 -->
<g id="edge46" class="edge">
<title>Node19&#45;&gt;Node45</title>
<path fill="none" stroke="midnightblue" d="M3273,-150.17C3041.15,-141.63 2502.01,-120.06 2320,-98 2317.07,-97.64 2314.08,-97.24 2311.06,-96.81"/>
<polygon fill="midnightblue" stroke="midnightblue" points="3273.02,-153.67 3283.14,-150.54 3273.27,-146.67 3273.02,-153.67"/>
</g>
<!-- Node46 -->
<g id="node41" class="node">
<title>Node46</title>
<g id="a_node41"><a xlink:href="../../d2/d28/page__format__combobox_8cpp.html" target="_top" xlink:title=" ">
<polygon fill="white" stroke="black" points="2329.5,-67.5 2329.5,-97.5 2460.5,-97.5 2460.5,-67.5 2329.5,-67.5"/>
<text text-anchor="start" x="2337.5" y="-85.5" font-family="Helvetica,sans-Serif" font-size="10.00">src/libs/vwidgets/page</text>
<text text-anchor="middle" x="2395" y="-74.5" font-family="Helvetica,sans-Serif" font-size="10.00">_format_combobox.cpp</text>
</a>
</g>
</g>
<!-- Node19&#45;&gt;Node46 -->
<g id="edge47" class="edge">
<title>Node19&#45;&gt;Node46</title>
<path fill="none" stroke="midnightblue" d="M3273.41,-151.99C3102.39,-147.77 2758.26,-135.06 2469,-98 2466.27,-97.65 2463.5,-97.26 2460.69,-96.84"/>
<polygon fill="midnightblue" stroke="midnightblue" points="3273.34,-155.49 3283.42,-152.24 3273.51,-148.49 3273.34,-155.49"/>
</g>
<!-- Node47 -->
<g id="node42" class="node">
<title>Node47</title>
<g id="a_node42"><a xlink:href="../../d7/d1b/pen__toolbar_8cpp.html" target="_top" xlink:title=" ">
<polygon fill="white" stroke="black" points="2478.5,-67.5 2478.5,-97.5 2597.5,-97.5 2597.5,-67.5 2478.5,-67.5"/>
<text text-anchor="start" x="2486.5" y="-85.5" font-family="Helvetica,sans-Serif" font-size="10.00">src/libs/vwidgets/pen</text>
<text text-anchor="middle" x="2538" y="-74.5" font-family="Helvetica,sans-Serif" font-size="10.00">_toolbar.cpp</text>
</a>
</g>
</g>
<!-- Node19&#45;&gt;Node47 -->
<g id="edge48" class="edge">
<title>Node19&#45;&gt;Node47</title>
<path fill="none" stroke="midnightblue" d="M3273.29,-150.79C3123.31,-145.29 2843.38,-131.23 2607,-98 2603.97,-97.57 2600.87,-97.09 2597.75,-96.57"/>
<polygon fill="midnightblue" stroke="midnightblue" points="3273.3,-154.3 3283.42,-151.16 3273.55,-147.3 3273.3,-154.3"/>
</g>
<!-- Node48 -->
<g id="node43" class="node">
<title>Node48</title>
<g id="a_node43"><a xlink:href="../../d8/d76/scene__rect_8cpp.html" target="_top" xlink:title=" ">
<polygon fill="white" stroke="black" points="2616,-67.5 2616,-97.5 2746,-97.5 2746,-67.5 2616,-67.5"/>
<text text-anchor="start" x="2624" y="-85.5" font-family="Helvetica,sans-Serif" font-size="10.00">src/libs/vwidgets/scene</text>
<text text-anchor="middle" x="2681" y="-74.5" font-family="Helvetica,sans-Serif" font-size="10.00">_rect.cpp</text>
</a>
</g>
</g>
<!-- Node19&#45;&gt;Node48 -->
<g id="edge49" class="edge">
<title>Node19&#45;&gt;Node48</title>
<path fill="none" stroke="midnightblue" d="M3272.98,-147.77C3147.89,-139.76 2935.86,-123.74 2755,-98 2752.15,-97.59 2749.24,-97.15 2746.31,-96.68"/>
<polygon fill="midnightblue" stroke="midnightblue" points="3273.12,-151.29 3283.32,-148.43 3273.56,-144.3 3273.12,-151.29"/>
</g>
<!-- Node49 -->
<g id="node44" class="node">
<title>Node49</title>
<g id="a_node44"><a xlink:href="../../dd/df6/vabstractmainwindow_8cpp.html" target="_top" xlink:title=" ">
<polygon fill="white" stroke="black" points="2764.5,-73 2764.5,-92 2993.5,-92 2993.5,-73 2764.5,-73"/>
<text text-anchor="middle" x="2879" y="-80" font-family="Helvetica,sans-Serif" font-size="10.00">src/libs/vwidgets/vabstractmainwindow.cpp</text>
</a>
</g>
</g>
<!-- Node19&#45;&gt;Node49 -->
<g id="edge50" class="edge">
<title>Node19&#45;&gt;Node49</title>
<path fill="none" stroke="midnightblue" d="M3310.54,-144.1C3211.6,-130.21 3033.18,-105.15 2939.77,-92.03"/>
<polygon fill="midnightblue" stroke="midnightblue" points="3310.06,-147.57 3320.45,-145.5 3311.03,-140.64 3310.06,-147.57"/>
</g>
<!-- Node29&#45;&gt;Node30 -->
<g id="edge29" class="edge">
<title>Node29&#45;&gt;Node30</title>
<path fill="none" stroke="midnightblue" d="M4758.72,-58.87C4752.79,-49.46 4746.09,-38.83 4740.88,-30.58"/>
<polygon fill="midnightblue" stroke="midnightblue" points="4755.81,-60.81 4764.1,-67.4 4761.73,-57.07 4755.81,-60.81"/>
</g>
<!-- Node41&#45;&gt;Node42 -->
<g id="edge43" class="edge">
<title>Node41&#45;&gt;Node42</title>
<path fill="none" stroke="midnightblue" d="M1888.77,-67.19C2251.53,-28.78 4474.28,-39.55 4794,-31 4900.23,-28.16 5024.35,-22.52 5093.49,-19.18"/>
<polygon fill="midnightblue" stroke="midnightblue" points="1888.37,-63.72 1878.82,-68.32 1889.15,-70.67 1888.37,-63.72"/>
</g>
<!-- Node61&#45;&gt;Node2 -->
<g id="edge53" class="edge">
<title>Node61&#45;&gt;Node2</title>
<path fill="none" stroke="midnightblue" d="M5232.74,-133.29C5247.61,-121.77 5265.72,-107.73 5278.92,-97.5"/>
<polygon fill="midnightblue" stroke="midnightblue" points="5230.18,-130.84 5224.42,-139.73 5234.46,-136.38 5230.18,-130.84"/>
</g>
</g>
</svg>
