<?xml version="1.0" encoding="UTF-8" standalone="no"?>
<!DOCTYPE svg PUBLIC "-//W3C//DTD SVG 1.1//EN"
 "http://www.w3.org/Graphics/SVG/1.1/DTD/svg11.dtd">
<!-- Generated by graphviz version 2.43.0 (0)
 -->
<!-- Title: src/libs/vlayout/vbank.h Pages: 1 -->
<svg width="6109pt" height="330pt"
 viewBox="0.00 0.00 6108.50 330.00" xmlns="http://www.w3.org/2000/svg" xmlns:xlink="http://www.w3.org/1999/xlink">
<g id="graph0" class="graph" transform="scale(1 1) rotate(0) translate(4 326)">
<title>src/libs/vlayout/vbank.h</title>
<polygon fill="white" stroke="transparent" points="-4,4 -4,-326 6104.5,-326 6104.5,4 -4,4"/>
<!-- Node1 -->
<g id="node1" class="node">
<title>Node1</title>
<g id="a_node1"><a xlink:title=" ">
<polygon fill="#bfbfbf" stroke="black" points="1631,-302.5 1631,-321.5 1764,-321.5 1764,-302.5 1631,-302.5"/>
<text text-anchor="middle" x="1697.5" y="-309.5" font-family="Helvetica,sans-Serif" font-size="10.00">src/libs/vlayout/vbank.h</text>
</a>
</g>
</g>
<!-- Node2 -->
<g id="node2" class="node">
<title>Node2</title>
<g id="a_node2"><a xlink:href="../../de/da8/vbank_8cpp.html" target="_top" xlink:title=" ">
<polygon fill="white" stroke="black" points="1341.5,-246.5 1341.5,-265.5 1485.5,-265.5 1485.5,-246.5 1341.5,-246.5"/>
<text text-anchor="middle" x="1413.5" y="-253.5" font-family="Helvetica,sans-Serif" font-size="10.00">src/libs/vlayout/vbank.cpp</text>
</a>
</g>
</g>
<!-- Node1&#45;&gt;Node2 -->
<g id="edge1" class="edge">
<title>Node1&#45;&gt;Node2</title>
<path fill="none" stroke="midnightblue" d="M1642.47,-300.54C1588.8,-290.33 1508.16,-275 1458.29,-265.52"/>
<polygon fill="midnightblue" stroke="midnightblue" points="1642.02,-304.01 1652.5,-302.44 1643.33,-297.14 1642.02,-304.01"/>
</g>
<!-- Node3 -->
<g id="node3" class="node">
<title>Node3</title>
<g id="a_node3"><a xlink:href="../../dc/d3c/vlayoutgenerator_8h.html" target="_top" xlink:title=" ">
<polygon fill="white" stroke="black" points="1503.5,-246.5 1503.5,-265.5 1689.5,-265.5 1689.5,-246.5 1503.5,-246.5"/>
<text text-anchor="middle" x="1596.5" y="-253.5" font-family="Helvetica,sans-Serif" font-size="10.00">src/libs/vlayout/vlayoutgenerator.h</text>
</a>
</g>
</g>
<!-- Node1&#45;&gt;Node3 -->
<g id="edge2" class="edge">
<title>Node1&#45;&gt;Node3</title>
<path fill="none" stroke="midnightblue" d="M1672.42,-297.59C1653.74,-287.61 1628.8,-274.27 1612.69,-265.65"/>
<polygon fill="midnightblue" stroke="midnightblue" points="1670.8,-300.7 1681.27,-302.32 1674.1,-294.52 1670.8,-300.7"/>
</g>
<!-- Node5 -->
<g id="node5" class="node">
<title>Node5</title>
<g id="a_node5"><a xlink:href="../../d4/d5c/vcommonsettings_8h.html" target="_top" xlink:title=" ">
<polygon fill="white" stroke="black" points="1708,-246.5 1708,-265.5 1891,-265.5 1891,-246.5 1708,-246.5"/>
<text text-anchor="middle" x="1799.5" y="-253.5" font-family="Helvetica,sans-Serif" font-size="10.00">src/libs/vmisc/vcommonsettings.h</text>
</a>
</g>
</g>
<!-- Node1&#45;&gt;Node5 -->
<g id="edge4" class="edge">
<title>Node1&#45;&gt;Node5</title>
<path fill="none" stroke="midnightblue" d="M1722.83,-297.59C1741.69,-287.61 1766.88,-274.27 1783.15,-265.65"/>
<polygon fill="midnightblue" stroke="midnightblue" points="1721.09,-294.55 1713.89,-302.32 1724.36,-300.74 1721.09,-294.55"/>
</g>
<!-- Node51 -->
<g id="node48" class="node">
<title>Node51</title>
<g id="a_node48"><a xlink:href="../../dd/db2/vsettings_8h.html" target="_top" xlink:title=" ">
<polygon fill="white" stroke="black" points="3356.5,-190.5 3356.5,-209.5 3496.5,-209.5 3496.5,-190.5 3356.5,-190.5"/>
<text text-anchor="middle" x="3426.5" y="-197.5" font-family="Helvetica,sans-Serif" font-size="10.00">src/libs/vmisc/vsettings.h</text>
</a>
</g>
</g>
<!-- Node1&#45;&gt;Node51 -->
<g id="edge65" class="edge">
<title>Node1&#45;&gt;Node51</title>
<path fill="none" stroke="midnightblue" d="M1774.18,-307.42C2008.72,-296.23 2737.18,-259.66 3339.5,-210 3344.95,-209.55 3350.58,-209.05 3356.25,-208.52"/>
<polygon fill="midnightblue" stroke="midnightblue" points="1773.87,-303.93 1764.05,-307.9 1774.2,-310.92 1773.87,-303.93"/>
</g>
<!-- Node4 -->
<g id="node4" class="node">
<title>Node4</title>
<g id="a_node4"><a xlink:href="../../d3/d39/vlayoutgenerator_8cpp.html" target="_top" xlink:title=" ">
<polygon fill="white" stroke="black" points="1219,-190.5 1219,-209.5 1416,-209.5 1416,-190.5 1219,-190.5"/>
<text text-anchor="middle" x="1317.5" y="-197.5" font-family="Helvetica,sans-Serif" font-size="10.00">src/libs/vlayout/vlayoutgenerator.cpp</text>
</a>
</g>
</g>
<!-- Node3&#45;&gt;Node4 -->
<g id="edge3" class="edge">
<title>Node3&#45;&gt;Node4</title>
<path fill="none" stroke="midnightblue" d="M1542.44,-244.54C1489.71,-234.33 1410.5,-219 1361.5,-209.52"/>
<polygon fill="midnightblue" stroke="midnightblue" points="1541.81,-247.98 1552.29,-246.44 1543.14,-241.11 1541.81,-247.98"/>
</g>
<!-- Node6 -->
<g id="node6" class="node">
<title>Node6</title>
<g id="a_node6"><a xlink:href="../../d4/d90/fvupdater_8cpp.html" target="_top" xlink:title=" ">
<polygon fill="white" stroke="black" points="1106,-73 1106,-92 1259,-92 1259,-73 1106,-73"/>
<text text-anchor="middle" x="1182.5" y="-80" font-family="Helvetica,sans-Serif" font-size="10.00">src/libs/fervor/fvupdater.cpp</text>
</a>
</g>
</g>
<!-- Node5&#45;&gt;Node6 -->
<g id="edge5" class="edge">
<title>Node5&#45;&gt;Node6</title>
<path fill="none" stroke="midnightblue" d="M1756.12,-243.21C1735.74,-236.07 1712.12,-225.32 1694.5,-210 1664.7,-184.09 1681.94,-154.98 1648.5,-134 1576.46,-88.8 1351.81,-109.16 1267.5,-98 1254.89,-96.33 1241.28,-94.17 1228.73,-92.03"/>
<polygon fill="midnightblue" stroke="midnightblue" points="1755.23,-246.6 1765.82,-246.43 1757.43,-239.95 1755.23,-246.6"/>
</g>
<!-- Node7 -->
<g id="node7" class="node">
<title>Node7</title>
<g id="a_node7"><a xlink:href="../../df/d1e/image__item_8cpp.html" target="_top" xlink:title=" ">
<polygon fill="white" stroke="black" points="5303.5,-67.5 5303.5,-97.5 5415.5,-97.5 5415.5,-67.5 5303.5,-67.5"/>
<text text-anchor="start" x="5311.5" y="-85.5" font-family="Helvetica,sans-Serif" font-size="10.00">src/libs/tools/image</text>
<text text-anchor="middle" x="5359.5" y="-74.5" font-family="Helvetica,sans-Serif" font-size="10.00">_item.cpp</text>
</a>
</g>
</g>
<!-- Node5&#45;&gt;Node7 -->
<g id="edge6" class="edge">
<title>Node5&#45;&gt;Node7</title>
<path fill="none" stroke="midnightblue" d="M1901.2,-252.51C2179.53,-244.93 2949.17,-218.57 3193.5,-154 3213.49,-148.72 3215.37,-138.73 3235.5,-134 3458.24,-81.62 5067.29,-125.05 5294.5,-98 5297.37,-97.66 5300.3,-97.25 5303.25,-96.78"/>
<polygon fill="midnightblue" stroke="midnightblue" points="1901.01,-249.02 1891.11,-252.79 1901.2,-256.01 1901.01,-249.02"/>
</g>
<!-- Node8 -->
<g id="node8" class="node">
<title>Node8</title>
<g id="a_node8"><a xlink:href="../../dd/d70/vlayoutpiece_8cpp.html" target="_top" xlink:title=" ">
<polygon fill="white" stroke="black" points="5434,-73 5434,-92 5611,-92 5611,-73 5434,-73"/>
<text text-anchor="middle" x="5522.5" y="-80" font-family="Helvetica,sans-Serif" font-size="10.00">src/libs/vlayout/vlayoutpiece.cpp</text>
</a>
</g>
</g>
<!-- Node5&#45;&gt;Node8 -->
<g id="edge7" class="edge">
<title>Node5&#45;&gt;Node8</title>
<path fill="none" stroke="midnightblue" d="M1901.32,-254.84C2093.84,-253.64 2524.26,-246.66 2884.5,-210 3038.61,-194.32 3080.06,-198.26 3228.5,-154 3249.47,-147.75 3252.13,-138.72 3273.5,-134 3506.9,-82.42 5186.27,-117.53 5424.5,-98 5440.53,-96.69 5457.92,-94.4 5473.54,-92.02"/>
<polygon fill="midnightblue" stroke="midnightblue" points="1901.19,-251.34 1891.21,-254.9 1901.23,-258.34 1901.19,-251.34"/>
</g>
<!-- Node9 -->
<g id="node9" class="node">
<title>Node9</title>
<g id="a_node9"><a xlink:href="../../d5/d74/vabstractapplication_8h.html" target="_top" xlink:title=" ">
<polygon fill="white" stroke="black" points="2989,-134.5 2989,-153.5 3184,-153.5 3184,-134.5 2989,-134.5"/>
<text text-anchor="middle" x="3086.5" y="-141.5" font-family="Helvetica,sans-Serif" font-size="10.00">src/libs/vmisc/vabstractapplication.h</text>
</a>
</g>
</g>
<!-- Node5&#45;&gt;Node9 -->
<g id="edge8" class="edge">
<title>Node5&#45;&gt;Node9</title>
<path fill="none" stroke="midnightblue" d="M1830.45,-242.5C1851.52,-233.8 1879.92,-221.71 1904.5,-210 1921.73,-201.79 1924.07,-194.94 1942.5,-190 2041.97,-163.34 2730.17,-150.35 2988.67,-146.37"/>
<polygon fill="midnightblue" stroke="midnightblue" points="1828.96,-239.32 1821.04,-246.36 1831.62,-245.8 1828.96,-239.32"/>
</g>
<!-- Node28 -->
<g id="node25" class="node">
<title>Node28</title>
<g id="a_node25"><a xlink:href="../../db/d11/vformula_8cpp.html" target="_top" xlink:title=" ">
<polygon fill="white" stroke="black" points="5629,-67.5 5629,-97.5 5736,-97.5 5736,-67.5 5629,-67.5"/>
<text text-anchor="start" x="5637" y="-85.5" font-family="Helvetica,sans-Serif" font-size="10.00">src/libs/vpatterndb</text>
<text text-anchor="middle" x="5682.5" y="-74.5" font-family="Helvetica,sans-Serif" font-size="10.00">/vformula.cpp</text>
</a>
</g>
</g>
<!-- Node5&#45;&gt;Node28 -->
<g id="edge57" class="edge">
<title>Node5&#45;&gt;Node28</title>
<path fill="none" stroke="midnightblue" d="M1901.56,-253.33C2150.44,-248.92 2783.53,-235.47 2993.5,-210 3115.59,-195.19 3147.12,-190.7 3264.5,-154 3286.17,-147.23 3289.29,-138.71 3311.5,-134 3562.51,-80.77 5365.84,-129.4 5620.5,-98 5623.24,-97.66 5626.04,-97.25 5628.86,-96.79"/>
<polygon fill="midnightblue" stroke="midnightblue" points="1901.37,-249.84 1891.43,-253.51 1901.49,-256.83 1901.37,-249.84"/>
</g>
<!-- Node31 -->
<g id="node28" class="node">
<title>Node31</title>
<g id="a_node28"><a xlink:href="../../df/dba/vpiecenode__p_8h.html" target="_top" xlink:title=" ">
<polygon fill="white" stroke="black" points="0,-67.5 0,-97.5 107,-97.5 107,-67.5 0,-67.5"/>
<text text-anchor="start" x="8" y="-85.5" font-family="Helvetica,sans-Serif" font-size="10.00">src/libs/vpatterndb</text>
<text text-anchor="middle" x="53.5" y="-74.5" font-family="Helvetica,sans-Serif" font-size="10.00">/vpiecenode_p.h</text>
</a>
</g>
</g>
<!-- Node5&#45;&gt;Node31 -->
<g id="edge58" class="edge">
<title>Node5&#45;&gt;Node31</title>
<path fill="none" stroke="midnightblue" d="M1735.25,-244.89C1680.08,-236.08 1598.46,-222.76 1527.5,-210 1481.6,-201.75 1470.73,-196.09 1424.5,-190 846.28,-113.83 692.17,-185.13 115.5,-98 112.77,-97.59 109.98,-97.12 107.17,-96.6"/>
<polygon fill="midnightblue" stroke="midnightblue" points="1734.81,-248.36 1745.24,-246.48 1735.91,-241.45 1734.81,-248.36"/>
</g>
<!-- Node34 -->
<g id="node31" class="node">
<title>Node34</title>
<g id="a_node31"><a xlink:href="../../df/d40/export__format__combobox_8cpp.html" target="_top" xlink:title=" ">
<polygon fill="white" stroke="black" points="125,-67.5 125,-97.5 258,-97.5 258,-67.5 125,-67.5"/>
<text text-anchor="start" x="133" y="-85.5" font-family="Helvetica,sans-Serif" font-size="10.00">src/libs/vwidgets/export</text>
<text text-anchor="middle" x="191.5" y="-74.5" font-family="Helvetica,sans-Serif" font-size="10.00">_format_combobox.cpp</text>
</a>
</g>
</g>
<!-- Node5&#45;&gt;Node34 -->
<g id="edge59" class="edge">
<title>Node5&#45;&gt;Node34</title>
<path fill="none" stroke="midnightblue" d="M1697.88,-245.75C1654.83,-239.3 1604.92,-228.4 1562.5,-210 1509.98,-187.21 1512.65,-152.59 1458.5,-134 1333.17,-90.98 398.2,-112.62 266.5,-98 263.73,-97.69 260.91,-97.34 258.07,-96.95"/>
<polygon fill="midnightblue" stroke="midnightblue" points="1697.41,-249.22 1707.8,-247.17 1698.4,-242.29 1697.41,-249.22"/>
</g>
<!-- Node36 -->
<g id="node33" class="node">
<title>Node36</title>
<g id="a_node33"><a xlink:href="../../d2/d28/page__format__combobox_8cpp.html" target="_top" xlink:title=" ">
<polygon fill="white" stroke="black" points="276,-67.5 276,-97.5 407,-97.5 407,-67.5 276,-67.5"/>
<text text-anchor="start" x="284" y="-85.5" font-family="Helvetica,sans-Serif" font-size="10.00">src/libs/vwidgets/page</text>
<text text-anchor="middle" x="341.5" y="-74.5" font-family="Helvetica,sans-Serif" font-size="10.00">_format_combobox.cpp</text>
</a>
</g>
</g>
<!-- Node5&#45;&gt;Node36 -->
<g id="edge60" class="edge">
<title>Node5&#45;&gt;Node36</title>
<path fill="none" stroke="midnightblue" d="M1714.34,-244.75C1676.68,-238.08 1632.62,-227.29 1595.5,-210 1545.22,-186.58 1548.72,-152.71 1496.5,-134 1383.36,-93.47 534.91,-111.6 415.5,-98 412.77,-97.69 409.99,-97.33 407.18,-96.94"/>
<polygon fill="midnightblue" stroke="midnightblue" points="1713.83,-248.21 1724.27,-246.43 1715,-241.31 1713.83,-248.21"/>
</g>
<!-- Node41 -->
<g id="node38" class="node">
<title>Node41</title>
<g id="a_node38"><a xlink:href="../../d1/d90/vgrainlineitem_8cpp.html" target="_top" xlink:title=" ">
<polygon fill="white" stroke="black" points="425,-73 425,-92 618,-92 618,-73 425,-73"/>
<text text-anchor="middle" x="521.5" y="-80" font-family="Helvetica,sans-Serif" font-size="10.00">src/libs/vwidgets/vgrainlineitem.cpp</text>
</a>
</g>
</g>
<!-- Node5&#45;&gt;Node41 -->
<g id="edge61" class="edge">
<title>Node5&#45;&gt;Node41</title>
<path fill="none" stroke="midnightblue" d="M1731.53,-244.44C1698.59,-237.58 1659.18,-226.7 1626.5,-210 1579.27,-185.86 1584.04,-152.93 1534.5,-134 1440.29,-97.99 727.97,-106.84 627.5,-98 610.85,-96.53 592.8,-94.31 576.4,-92.03"/>
<polygon fill="midnightblue" stroke="midnightblue" points="1731.04,-247.91 1741.53,-246.45 1732.42,-241.05 1731.04,-247.91"/>
</g>
<!-- Node43 -->
<g id="node40" class="node">
<title>Node43</title>
<g id="a_node40"><a xlink:href="../../d1/d88/vmaingraphicsscene_8cpp.html" target="_top" xlink:title=" ">
<polygon fill="white" stroke="black" points="636.5,-73 636.5,-92 858.5,-92 858.5,-73 636.5,-73"/>
<text text-anchor="middle" x="747.5" y="-80" font-family="Helvetica,sans-Serif" font-size="10.00">src/libs/vwidgets/vmaingraphicsscene.cpp</text>
</a>
</g>
</g>
<!-- Node5&#45;&gt;Node43 -->
<g id="edge62" class="edge">
<title>Node5&#45;&gt;Node43</title>
<path fill="none" stroke="midnightblue" d="M1743.82,-244.14C1715.5,-237.09 1681.3,-226.15 1653.5,-210 1610.81,-185.2 1617.92,-153.33 1572.5,-134 1500.33,-103.29 945.65,-104.71 867.5,-98 849.21,-96.43 829.4,-94.24 811.25,-92.03"/>
<polygon fill="midnightblue" stroke="midnightblue" points="1743.02,-247.55 1753.56,-246.47 1744.65,-240.74 1743.02,-247.55"/>
</g>
<!-- Node47 -->
<g id="node44" class="node">
<title>Node47</title>
<g id="a_node44"><a xlink:href="../../d2/d31/vmaingraphicsview_8cpp.html" target="_top" xlink:title=" ">
<polygon fill="white" stroke="black" points="5754.5,-73 5754.5,-92 5970.5,-92 5970.5,-73 5754.5,-73"/>
<text text-anchor="middle" x="5862.5" y="-80" font-family="Helvetica,sans-Serif" font-size="10.00">src/libs/vwidgets/vmaingraphicsview.cpp</text>
</a>
</g>
</g>
<!-- Node5&#45;&gt;Node47 -->
<g id="edge63" class="edge">
<title>Node5&#45;&gt;Node47</title>
<path fill="none" stroke="midnightblue" d="M1901.58,-254.13C2162.6,-251.48 2849.66,-241.61 3075.5,-210 3177.98,-195.65 3203.91,-188.42 3301.5,-154 3321.38,-146.99 3323.95,-138.71 3344.5,-134 3604.57,-74.43 5479.33,-116.43 5745.5,-98 5764.59,-96.68 5785.34,-94.39 5804,-92.01"/>
<polygon fill="midnightblue" stroke="midnightblue" points="1901.31,-250.64 1891.35,-254.24 1901.38,-257.64 1901.31,-250.64"/>
</g>
<!-- Node48 -->
<g id="node45" class="node">
<title>Node48</title>
<g id="a_node45"><a xlink:href="../../df/df5/vtextgraphicsitem_8cpp.html" target="_top" xlink:title=" ">
<polygon fill="white" stroke="black" points="877,-73 877,-92 1088,-92 1088,-73 877,-73"/>
<text text-anchor="middle" x="982.5" y="-80" font-family="Helvetica,sans-Serif" font-size="10.00">src/libs/vwidgets/vtextgraphicsitem.cpp</text>
</a>
</g>
</g>
<!-- Node5&#45;&gt;Node48 -->
<g id="edge64" class="edge">
<title>Node5&#45;&gt;Node48</title>
<path fill="none" stroke="midnightblue" d="M1752.03,-243.73C1728.01,-236.57 1699.21,-225.65 1676.5,-210 1639.66,-184.62 1650.53,-153.97 1610.5,-134 1508.04,-82.88 1210.45,-109.23 1096.5,-98 1079.52,-96.33 1061.17,-94.15 1044.25,-92"/>
<polygon fill="midnightblue" stroke="midnightblue" points="1751.09,-247.1 1761.66,-246.48 1753.01,-240.37 1751.09,-247.1"/>
</g>
<!-- Node49 -->
<g id="node46" class="node">
<title>Node49</title>
<g id="a_node46"><a xlink:href="../../df/da4/vseamlymesettings_8h.html" target="_top" xlink:title=" ">
<polygon fill="white" stroke="black" points="1703.5,-190.5 1703.5,-209.5 1895.5,-209.5 1895.5,-190.5 1703.5,-190.5"/>
<text text-anchor="middle" x="1799.5" y="-197.5" font-family="Helvetica,sans-Serif" font-size="10.00">src/libs/vmisc/vseamlymesettings.h</text>
</a>
</g>
</g>
<!-- Node5&#45;&gt;Node49 -->
<g id="edge49" class="edge">
<title>Node5&#45;&gt;Node49</title>
<path fill="none" stroke="midnightblue" d="M1799.5,-235.8C1799.5,-226.91 1799.5,-216.78 1799.5,-209.75"/>
<polygon fill="midnightblue" stroke="midnightblue" points="1796,-236.08 1799.5,-246.08 1803,-236.08 1796,-236.08"/>
</g>
<!-- Node5&#45;&gt;Node51 -->
<g id="edge51" class="edge">
<title>Node5&#45;&gt;Node51</title>
<path fill="none" stroke="midnightblue" d="M1901.2,-254.62C2148.01,-253.14 2798.21,-245.86 3339.5,-210 3344.95,-209.64 3350.6,-209.2 3356.26,-208.72"/>
<polygon fill="midnightblue" stroke="midnightblue" points="1901.15,-251.12 1891.17,-254.68 1901.19,-258.12 1901.15,-251.12"/>
</g>
<!-- Node53 -->
<g id="node50" class="node">
<title>Node53</title>
<g id="a_node50"><a xlink:href="../../d4/d11/vcommonsettings_8cpp.html" target="_top" xlink:title=" ">
<polygon fill="white" stroke="black" points="1951.5,-190.5 1951.5,-209.5 2145.5,-209.5 2145.5,-190.5 1951.5,-190.5"/>
<text text-anchor="middle" x="2048.5" y="-197.5" font-family="Helvetica,sans-Serif" font-size="10.00">src/libs/vmisc/vcommonsettings.cpp</text>
</a>
</g>
</g>
<!-- Node5&#45;&gt;Node53 -->
<g id="edge56" class="edge">
<title>Node5&#45;&gt;Node53</title>
<path fill="none" stroke="midnightblue" d="M1848.92,-244.28C1895.98,-234.08 1965.87,-218.92 2009.23,-209.52"/>
<polygon fill="midnightblue" stroke="midnightblue" points="1847.99,-240.9 1838.95,-246.44 1849.47,-247.74 1847.99,-240.9"/>
</g>
<!-- Node9&#45;&gt;Node6 -->
<g id="edge9" class="edge">
<title>Node9&#45;&gt;Node6</title>
<path fill="none" stroke="midnightblue" d="M2978.87,-142.38C2640.77,-140.1 1602.6,-130.56 1267.5,-98 1253.64,-96.65 1238.64,-94.37 1225.14,-92.01"/>
<polygon fill="midnightblue" stroke="midnightblue" points="2978.89,-145.88 2988.91,-142.44 2978.93,-138.88 2978.89,-145.88"/>
</g>
<!-- Node9&#45;&gt;Node7 -->
<g id="edge10" class="edge">
<title>Node9&#45;&gt;Node7</title>
<path fill="none" stroke="midnightblue" d="M3194.22,-134.17C3195.32,-134.11 3196.41,-134.05 3197.5,-134 3663.01,-111.16 4831.69,-153.02 5294.5,-98 5297.37,-97.66 5300.3,-97.25 5303.25,-96.78"/>
<polygon fill="midnightblue" stroke="midnightblue" points="3194.02,-130.67 3184.23,-134.73 3194.42,-137.66 3194.02,-130.67"/>
</g>
<!-- Node9&#45;&gt;Node8 -->
<g id="edge22" class="edge">
<title>Node9&#45;&gt;Node8</title>
<path fill="none" stroke="midnightblue" d="M3194.3,-135.93C3208.16,-135.18 3222.16,-134.51 3235.5,-134 3721.65,-115.33 4939.61,-137.69 5424.5,-98 5440.53,-96.69 5457.92,-94.4 5473.54,-92.02"/>
<polygon fill="midnightblue" stroke="midnightblue" points="3194.04,-132.44 3184.25,-136.48 3194.43,-139.43 3194.04,-132.44"/>
</g>
<!-- Node10 -->
<g id="node10" class="node">
<title>Node10</title>
<g id="a_node10"><a xlink:href="../../d2/d47/image__dialog_8cpp.html" target="_top" xlink:title=" ">
<polygon fill="white" stroke="black" points="5988.5,-67.5 5988.5,-97.5 6100.5,-97.5 6100.5,-67.5 5988.5,-67.5"/>
<text text-anchor="start" x="5996.5" y="-85.5" font-family="Helvetica,sans-Serif" font-size="10.00">src/libs/tools/image</text>
<text text-anchor="middle" x="6044.5" y="-74.5" font-family="Helvetica,sans-Serif" font-size="10.00">_dialog.cpp</text>
</a>
</g>
</g>
<!-- Node9&#45;&gt;Node10 -->
<g id="edge11" class="edge">
<title>Node9&#45;&gt;Node10</title>
<path fill="none" stroke="midnightblue" d="M3194.23,-138.73C3240.48,-137.03 3295.14,-135.2 3344.5,-134 3637.22,-126.9 5688.68,-132.06 5979.5,-98 5982.37,-97.66 5985.3,-97.25 5988.25,-96.79"/>
<polygon fill="midnightblue" stroke="midnightblue" points="3194.05,-135.24 3184.19,-139.1 3194.31,-142.23 3194.05,-135.24"/>
</g>
<!-- Node11 -->
<g id="node11" class="node">
<title>Node11</title>
<g id="a_node11"><a xlink:href="../../d9/dc8/dxiface_8cpp.html" target="_top" xlink:title=" ">
<polygon fill="white" stroke="black" points="2382,-73 2382,-92 2517,-92 2517,-73 2382,-73"/>
<text text-anchor="middle" x="2449.5" y="-80" font-family="Helvetica,sans-Serif" font-size="10.00">src/libs/vdxf/dxiface.cpp</text>
</a>
</g>
</g>
<!-- Node9&#45;&gt;Node11 -->
<g id="edge12" class="edge">
<title>Node9&#45;&gt;Node11</title>
<path fill="none" stroke="midnightblue" d="M2978.75,-137.74C2865.73,-131.42 2683.1,-118.98 2526.5,-98 2514.77,-96.43 2502.12,-94.25 2490.53,-92.06"/>
<polygon fill="midnightblue" stroke="midnightblue" points="2978.62,-141.24 2988.8,-138.29 2979,-134.25 2978.62,-141.24"/>
</g>
<!-- Node12 -->
<g id="node12" class="node">
<title>Node12</title>
<g id="a_node12"><a xlink:href="../../da/d75/vabstractarc__p_8h.html" target="_top" xlink:title=" ">
<polygon fill="white" stroke="black" points="2535,-67.5 2535,-97.5 2642,-97.5 2642,-67.5 2535,-67.5"/>
<text text-anchor="start" x="2543" y="-85.5" font-family="Helvetica,sans-Serif" font-size="10.00">src/libs/vgeometry</text>
<text text-anchor="middle" x="2588.5" y="-74.5" font-family="Helvetica,sans-Serif" font-size="10.00">/vabstractarc_p.h</text>
</a>
</g>
</g>
<!-- Node9&#45;&gt;Node12 -->
<g id="edge13" class="edge">
<title>Node9&#45;&gt;Node12</title>
<path fill="none" stroke="midnightblue" d="M2978.83,-135.57C2890.49,-128.59 2762.38,-116.42 2651.5,-98 2648.4,-97.48 2645.22,-96.91 2642.03,-96.29"/>
<polygon fill="midnightblue" stroke="midnightblue" points="2978.62,-139.06 2988.86,-136.36 2979.16,-132.09 2978.62,-139.06"/>
</g>
<!-- Node14 -->
<g id="node14" class="node">
<title>Node14</title>
<g id="a_node14"><a xlink:href="../../d5/d8e/vcubicbezier__p_8h.html" target="_top" xlink:title=" ">
<polygon fill="white" stroke="red" points="2660,-67.5 2660,-97.5 2767,-97.5 2767,-67.5 2660,-67.5"/>
<text text-anchor="start" x="2668" y="-85.5" font-family="Helvetica,sans-Serif" font-size="10.00">src/libs/vgeometry</text>
<text text-anchor="middle" x="2713.5" y="-74.5" font-family="Helvetica,sans-Serif" font-size="10.00">/vcubicbezier_p.h</text>
</a>
</g>
</g>
<!-- Node9&#45;&gt;Node14 -->
<g id="edge15" class="edge">
<title>Node9&#45;&gt;Node14</title>
<path fill="none" stroke="midnightblue" d="M3006.13,-133.17C2943.37,-125.06 2854.1,-112.54 2776.5,-98 2773.41,-97.42 2770.24,-96.8 2767.05,-96.14"/>
<polygon fill="midnightblue" stroke="midnightblue" points="3005.99,-136.68 3016.36,-134.49 3006.89,-129.74 3005.99,-136.68"/>
</g>
<!-- Node16 -->
<g id="node15" class="node">
<title>Node16</title>
<g id="a_node15"><a xlink:href="../../dc/da3/varc__p_8h.html" target="_top" xlink:title=" ">
<polygon fill="white" stroke="red" points="2785,-67.5 2785,-97.5 2892,-97.5 2892,-67.5 2785,-67.5"/>
<text text-anchor="start" x="2793" y="-85.5" font-family="Helvetica,sans-Serif" font-size="10.00">src/libs/vgeometry</text>
<text text-anchor="middle" x="2838.5" y="-74.5" font-family="Helvetica,sans-Serif" font-size="10.00">/varc_p.h</text>
</a>
</g>
</g>
<!-- Node9&#45;&gt;Node16 -->
<g id="edge16" class="edge">
<title>Node9&#45;&gt;Node16</title>
<path fill="none" stroke="midnightblue" d="M3041.02,-132.09C2999.04,-122.02 2936.65,-107.05 2892.23,-96.39"/>
<polygon fill="midnightblue" stroke="midnightblue" points="3040.43,-135.55 3050.97,-134.48 3042.06,-128.74 3040.43,-135.55"/>
</g>
<!-- Node18 -->
<g id="node16" class="node">
<title>Node18</title>
<g id="a_node16"><a xlink:href="../../df/dde/vellipticalarc__p_8h.html" target="_top" xlink:title=" ">
<polygon fill="white" stroke="black" points="2910,-67.5 2910,-97.5 3017,-97.5 3017,-67.5 2910,-67.5"/>
<text text-anchor="start" x="2918" y="-85.5" font-family="Helvetica,sans-Serif" font-size="10.00">src/libs/vgeometry</text>
<text text-anchor="middle" x="2963.5" y="-74.5" font-family="Helvetica,sans-Serif" font-size="10.00">/vellipticalarc_p.h</text>
</a>
</g>
</g>
<!-- Node9&#45;&gt;Node18 -->
<g id="edge17" class="edge">
<title>Node9&#45;&gt;Node18</title>
<path fill="none" stroke="midnightblue" d="M3059.77,-130.07C3039.92,-120.47 3012.86,-107.38 2992.49,-97.52"/>
<polygon fill="midnightblue" stroke="midnightblue" points="3058.35,-133.27 3068.88,-134.48 3061.4,-126.97 3058.35,-133.27"/>
</g>
<!-- Node19 -->
<g id="node17" class="node">
<title>Node19</title>
<g id="a_node17"><a xlink:href="../../d6/dfb/vellipticalarc_8cpp.html" target="_top" xlink:title=" ">
<polygon fill="white" stroke="black" points="2951,-0.5 2951,-30.5 3058,-30.5 3058,-0.5 2951,-0.5"/>
<text text-anchor="start" x="2959" y="-18.5" font-family="Helvetica,sans-Serif" font-size="10.00">src/libs/vgeometry</text>
<text text-anchor="middle" x="3004.5" y="-7.5" font-family="Helvetica,sans-Serif" font-size="10.00">/vellipticalarc.cpp</text>
</a>
</g>
</g>
<!-- Node9&#45;&gt;Node19 -->
<g id="edge19" class="edge">
<title>Node9&#45;&gt;Node19</title>
<path fill="none" stroke="midnightblue" d="M3075.35,-125.8C3059.05,-100.66 3029.02,-54.33 3013.83,-30.89"/>
<polygon fill="midnightblue" stroke="midnightblue" points="3072.49,-127.82 3080.86,-134.31 3078.36,-124.01 3072.49,-127.82"/>
</g>
<!-- Node20 -->
<g id="node18" class="node">
<title>Node20</title>
<g id="a_node18"><a xlink:href="../../d1/d76/vspline__p_8h.html" target="_top" xlink:title=" ">
<polygon fill="white" stroke="red" points="3074,-67.5 3074,-97.5 3181,-97.5 3181,-67.5 3074,-67.5"/>
<text text-anchor="start" x="3082" y="-85.5" font-family="Helvetica,sans-Serif" font-size="10.00">src/libs/vgeometry</text>
<text text-anchor="middle" x="3127.5" y="-74.5" font-family="Helvetica,sans-Serif" font-size="10.00">/vspline_p.h</text>
</a>
</g>
</g>
<!-- Node9&#45;&gt;Node20 -->
<g id="edge20" class="edge">
<title>Node9&#45;&gt;Node20</title>
<path fill="none" stroke="midnightblue" d="M3098.24,-125.96C3104.45,-116.96 3111.97,-106.03 3117.84,-97.52"/>
<polygon fill="midnightblue" stroke="midnightblue" points="3095.17,-124.25 3092.37,-134.48 3100.93,-128.23 3095.17,-124.25"/>
</g>
<!-- Node22 -->
<g id="node19" class="node">
<title>Node22</title>
<g id="a_node19"><a xlink:href="../../d9/d15/vabstractpiece_8cpp.html" target="_top" xlink:title=" ">
<polygon fill="white" stroke="black" points="3199.5,-73 3199.5,-92 3385.5,-92 3385.5,-73 3199.5,-73"/>
<text text-anchor="middle" x="3292.5" y="-80" font-family="Helvetica,sans-Serif" font-size="10.00">src/libs/vlayout/vabstractpiece.cpp</text>
</a>
</g>
</g>
<!-- Node9&#45;&gt;Node22 -->
<g id="edge21" class="edge">
<title>Node9&#45;&gt;Node22</title>
<path fill="none" stroke="midnightblue" d="M3125.71,-131.68C3165.73,-120.11 3226.96,-102.43 3263.04,-92.01"/>
<polygon fill="midnightblue" stroke="midnightblue" points="3124.65,-128.34 3116.01,-134.48 3126.59,-135.06 3124.65,-128.34"/>
</g>
<!-- Node23 -->
<g id="node20" class="node">
<title>Node23</title>
<g id="a_node20"><a xlink:href="../../d8/d70/vtextmanager_8cpp.html" target="_top" xlink:title=" ">
<polygon fill="white" stroke="black" points="3403.5,-73 3403.5,-92 3585.5,-92 3585.5,-73 3403.5,-73"/>
<text text-anchor="middle" x="3494.5" y="-80" font-family="Helvetica,sans-Serif" font-size="10.00">src/libs/vlayout/vtextmanager.cpp</text>
</a>
</g>
</g>
<!-- Node9&#45;&gt;Node23 -->
<g id="edge23" class="edge">
<title>Node9&#45;&gt;Node23</title>
<path fill="none" stroke="midnightblue" d="M3155.27,-132.97C3234.11,-121.47 3361.98,-102.83 3436.15,-92.01"/>
<polygon fill="midnightblue" stroke="midnightblue" points="3154.35,-129.57 3144.96,-134.48 3155.36,-136.5 3154.35,-129.57"/>
</g>
<!-- Node24 -->
<g id="node21" class="node">
<title>Node24</title>
<g id="a_node21"><a xlink:href="../../db/d65/dialogexporttocsv_8cpp.html" target="_top" xlink:title=" ">
<polygon fill="white" stroke="black" points="3604,-67.5 3604,-97.5 3731,-97.5 3731,-67.5 3604,-67.5"/>
<text text-anchor="start" x="3612" y="-85.5" font-family="Helvetica,sans-Serif" font-size="10.00">src/libs/vmisc/dialogs</text>
<text text-anchor="middle" x="3667.5" y="-74.5" font-family="Helvetica,sans-Serif" font-size="10.00">/dialogexporttocsv.cpp</text>
</a>
</g>
</g>
<!-- Node9&#45;&gt;Node24 -->
<g id="edge24" class="edge">
<title>Node9&#45;&gt;Node24</title>
<path fill="none" stroke="midnightblue" d="M3194.23,-134.08C3331.61,-122.61 3556.05,-103.51 3594.5,-98 3597.57,-97.56 3600.71,-97.08 3603.87,-96.56"/>
<polygon fill="midnightblue" stroke="midnightblue" points="3193.76,-130.61 3184.09,-134.93 3194.35,-137.58 3193.76,-130.61"/>
</g>
<!-- Node25 -->
<g id="node22" class="node">
<title>Node25</title>
<g id="a_node22"><a xlink:href="../../d6/d0b/def_8cpp.html" target="_top" xlink:title=" ">
<polygon fill="white" stroke="black" points="3749.5,-73 3749.5,-92 3871.5,-92 3871.5,-73 3749.5,-73"/>
<text text-anchor="middle" x="3810.5" y="-80" font-family="Helvetica,sans-Serif" font-size="10.00">src/libs/vmisc/def.cpp</text>
</a>
</g>
</g>
<!-- Node9&#45;&gt;Node25 -->
<g id="edge25" class="edge">
<title>Node9&#45;&gt;Node25</title>
<path fill="none" stroke="midnightblue" d="M3194.23,-134.24C3195.32,-134.16 3196.42,-134.08 3197.5,-134 3438.71,-116.23 3500.84,-130.61 3740.5,-98 3751.44,-96.51 3763.24,-94.3 3773.97,-92.06"/>
<polygon fill="midnightblue" stroke="midnightblue" points="3193.96,-130.75 3184.25,-134.99 3194.49,-137.73 3193.96,-130.75"/>
</g>
<!-- Node26 -->
<g id="node23" class="node">
<title>Node26</title>
<g id="a_node23"><a xlink:href="../../d0/df6/vabstractapplication_8cpp.html" target="_top" xlink:title=" ">
<polygon fill="white" stroke="black" points="3889.5,-73 3889.5,-92 4095.5,-92 4095.5,-73 3889.5,-73"/>
<text text-anchor="middle" x="3992.5" y="-80" font-family="Helvetica,sans-Serif" font-size="10.00">src/libs/vmisc/vabstractapplication.cpp</text>
</a>
</g>
</g>
<!-- Node9&#45;&gt;Node26 -->
<g id="edge26" class="edge">
<title>Node9&#45;&gt;Node26</title>
<path fill="none" stroke="midnightblue" d="M3194.23,-134.22C3195.32,-134.15 3196.41,-134.07 3197.5,-134 3500.8,-113.71 3577.77,-125.53 3880.5,-98 3897.68,-96.44 3916.29,-94.24 3933.3,-92.02"/>
<polygon fill="midnightblue" stroke="midnightblue" points="3193.98,-130.73 3184.25,-134.92 3194.47,-137.71 3193.98,-130.73"/>
</g>
<!-- Node27 -->
<g id="node24" class="node">
<title>Node27</title>
<g id="a_node24"><a xlink:href="../../d4/d4f/pmsystems_8cpp.html" target="_top" xlink:title=" ">
<polygon fill="white" stroke="black" points="4114,-67.5 4114,-97.5 4221,-97.5 4221,-67.5 4114,-67.5"/>
<text text-anchor="start" x="4122" y="-85.5" font-family="Helvetica,sans-Serif" font-size="10.00">src/libs/vpatterndb</text>
<text text-anchor="middle" x="4167.5" y="-74.5" font-family="Helvetica,sans-Serif" font-size="10.00">/pmsystems.cpp</text>
</a>
</g>
</g>
<!-- Node9&#45;&gt;Node27 -->
<g id="edge27" class="edge">
<title>Node9&#45;&gt;Node27</title>
<path fill="none" stroke="midnightblue" d="M3194.23,-134.2C3195.32,-134.13 3196.41,-134.07 3197.5,-134 3600.2,-109.69 3704.63,-151.48 4104.5,-98 4107.5,-97.6 4110.57,-97.12 4113.66,-96.59"/>
<polygon fill="midnightblue" stroke="midnightblue" points="3193.99,-130.71 3184.24,-134.85 3194.45,-137.69 3193.99,-130.71"/>
</g>
<!-- Node9&#45;&gt;Node28 -->
<g id="edge28" class="edge">
<title>Node9&#45;&gt;Node28</title>
<path fill="none" stroke="midnightblue" d="M3194.25,-137.21C3220.19,-135.98 3247.83,-134.81 3273.5,-134 3794.85,-117.46 5102.79,-161.76 5620.5,-98 5623.24,-97.66 5626.04,-97.25 5628.86,-96.79"/>
<polygon fill="midnightblue" stroke="midnightblue" points="3193.84,-133.73 3184.02,-137.7 3194.17,-140.72 3193.84,-133.73"/>
</g>
<!-- Node29 -->
<g id="node26" class="node">
<title>Node29</title>
<g id="a_node26"><a xlink:href="../../d6/d46/vcontainer_8cpp.html" target="_top" xlink:title=" ">
<polygon fill="white" stroke="black" points="4239,-67.5 4239,-97.5 4346,-97.5 4346,-67.5 4239,-67.5"/>
<text text-anchor="start" x="4247" y="-85.5" font-family="Helvetica,sans-Serif" font-size="10.00">src/libs/vpatterndb</text>
<text text-anchor="middle" x="4292.5" y="-74.5" font-family="Helvetica,sans-Serif" font-size="10.00">/vcontainer.cpp</text>
</a>
</g>
</g>
<!-- Node9&#45;&gt;Node29 -->
<g id="edge29" class="edge">
<title>Node9&#45;&gt;Node29</title>
<path fill="none" stroke="midnightblue" d="M3194.23,-134.19C3195.32,-134.13 3196.41,-134.06 3197.5,-134 3656.12,-107.43 3775.12,-158.6 4230.5,-98 4233.24,-97.64 4236.04,-97.2 4238.85,-96.72"/>
<polygon fill="midnightblue" stroke="midnightblue" points="3194,-130.7 3184.24,-134.82 3194.44,-137.69 3194,-130.7"/>
</g>
<!-- Node30 -->
<g id="node27" class="node">
<title>Node30</title>
<g id="a_node27"><a xlink:href="../../df/d7a/vpiece_8cpp.html" target="_top" xlink:title=" ">
<polygon fill="white" stroke="black" points="4364,-67.5 4364,-97.5 4471,-97.5 4471,-67.5 4364,-67.5"/>
<text text-anchor="start" x="4372" y="-85.5" font-family="Helvetica,sans-Serif" font-size="10.00">src/libs/vpatterndb</text>
<text text-anchor="middle" x="4417.5" y="-74.5" font-family="Helvetica,sans-Serif" font-size="10.00">/vpiece.cpp</text>
</a>
</g>
</g>
<!-- Node9&#45;&gt;Node30 -->
<g id="edge30" class="edge">
<title>Node9&#45;&gt;Node30</title>
<path fill="none" stroke="midnightblue" d="M3194.23,-134.19C3195.32,-134.12 3196.41,-134.06 3197.5,-134 3711.61,-105.18 3844.96,-164.96 4355.5,-98 4358.24,-97.64 4361.04,-97.21 4363.85,-96.73"/>
<polygon fill="midnightblue" stroke="midnightblue" points="3194,-130.69 3184.24,-134.8 3194.43,-137.68 3194,-130.69"/>
</g>
<!-- Node9&#45;&gt;Node31 -->
<g id="edge31" class="edge">
<title>Node9&#45;&gt;Node31</title>
<path fill="none" stroke="midnightblue" d="M2978.77,-142.02C2462.46,-137.22 260.06,-115.79 115.5,-98 112.76,-97.66 109.96,-97.25 107.14,-96.79"/>
<polygon fill="midnightblue" stroke="midnightblue" points="2978.79,-145.52 2988.83,-142.11 2978.86,-138.52 2978.79,-145.52"/>
</g>
<!-- Node33 -->
<g id="node30" class="node">
<title>Node33</title>
<g id="a_node30"><a xlink:href="../../de/d3e/vtranslatevars_8cpp.html" target="_top" xlink:title=" ">
<polygon fill="white" stroke="black" points="4489.5,-67.5 4489.5,-97.5 4599.5,-97.5 4599.5,-67.5 4489.5,-67.5"/>
<text text-anchor="start" x="4497.5" y="-85.5" font-family="Helvetica,sans-Serif" font-size="10.00">src/libs/vpatterndb</text>
<text text-anchor="middle" x="4544.5" y="-74.5" font-family="Helvetica,sans-Serif" font-size="10.00">/vtranslatevars.cpp</text>
</a>
</g>
</g>
<!-- Node9&#45;&gt;Node33 -->
<g id="edge33" class="edge">
<title>Node9&#45;&gt;Node33</title>
<path fill="none" stroke="midnightblue" d="M3194.23,-134.18C3195.32,-134.12 3196.41,-134.06 3197.5,-134 3767.1,-102.94 3914.53,-169.36 4480.5,-98 4483.44,-97.63 4486.44,-97.18 4489.46,-96.68"/>
<polygon fill="midnightblue" stroke="midnightblue" points="3194.01,-130.69 3184.24,-134.79 3194.43,-137.68 3194.01,-130.69"/>
</g>
<!-- Node9&#45;&gt;Node34 -->
<g id="edge34" class="edge">
<title>Node9&#45;&gt;Node34</title>
<path fill="none" stroke="midnightblue" d="M2978.69,-142.4C2495.31,-139.54 539.34,-126.33 266.5,-98 263.73,-97.71 260.91,-97.37 258.07,-97"/>
<polygon fill="midnightblue" stroke="midnightblue" points="2978.79,-145.9 2988.81,-142.46 2978.83,-138.9 2978.79,-145.9"/>
</g>
<!-- Node35 -->
<g id="node32" class="node">
<title>Node35</title>
<g id="a_node32"><a xlink:href="../../d3/d4f/mouse__coordinates_8cpp.html" target="_top" xlink:title=" ">
<polygon fill="white" stroke="black" points="4617.5,-67.5 4617.5,-97.5 4751.5,-97.5 4751.5,-67.5 4617.5,-67.5"/>
<text text-anchor="start" x="4625.5" y="-85.5" font-family="Helvetica,sans-Serif" font-size="10.00">src/libs/vwidgets/mouse</text>
<text text-anchor="middle" x="4684.5" y="-74.5" font-family="Helvetica,sans-Serif" font-size="10.00">_coordinates.cpp</text>
</a>
</g>
</g>
<!-- Node9&#45;&gt;Node35 -->
<g id="edge35" class="edge">
<title>Node9&#45;&gt;Node35</title>
<path fill="none" stroke="midnightblue" d="M3194.23,-134.18C3195.32,-134.12 3196.41,-134.06 3197.5,-134 3823.93,-100.64 3984.77,-165 4608.5,-98 4611.44,-97.68 4614.43,-97.32 4617.45,-96.91"/>
<polygon fill="midnightblue" stroke="midnightblue" points="3194.01,-130.69 3184.24,-134.77 3194.43,-137.67 3194.01,-130.69"/>
</g>
<!-- Node9&#45;&gt;Node36 -->
<g id="edge36" class="edge">
<title>Node9&#45;&gt;Node36</title>
<path fill="none" stroke="midnightblue" d="M2978.65,-142.31C2511.29,-139.16 672.82,-125.16 415.5,-98 412.77,-97.71 409.98,-97.37 407.18,-96.99"/>
<polygon fill="midnightblue" stroke="midnightblue" points="2978.75,-145.81 2988.77,-142.38 2978.8,-138.81 2978.75,-145.81"/>
</g>
<!-- Node37 -->
<g id="node34" class="node">
<title>Node37</title>
<g id="a_node34"><a xlink:href="../../d7/d1b/pen__toolbar_8cpp.html" target="_top" xlink:title=" ">
<polygon fill="white" stroke="black" points="4770,-67.5 4770,-97.5 4889,-97.5 4889,-67.5 4770,-67.5"/>
<text text-anchor="start" x="4778" y="-85.5" font-family="Helvetica,sans-Serif" font-size="10.00">src/libs/vwidgets/pen</text>
<text text-anchor="middle" x="4829.5" y="-74.5" font-family="Helvetica,sans-Serif" font-size="10.00">_toolbar.cpp</text>
</a>
</g>
</g>
<!-- Node9&#45;&gt;Node37 -->
<g id="edge37" class="edge">
<title>Node9&#45;&gt;Node37</title>
<path fill="none" stroke="midnightblue" d="M3194.22,-134.17C3195.32,-134.11 3196.41,-134.06 3197.5,-134 3544.46,-115.95 4415.37,-137.89 4760.5,-98 4763.54,-97.65 4766.64,-97.23 4769.77,-96.75"/>
<polygon fill="midnightblue" stroke="midnightblue" points="3194.01,-130.68 3184.24,-134.76 3194.42,-137.67 3194.01,-130.68"/>
</g>
<!-- Node38 -->
<g id="node35" class="node">
<title>Node38</title>
<g id="a_node35"><a xlink:href="../../d8/d76/scene__rect_8cpp.html" target="_top" xlink:title=" ">
<polygon fill="white" stroke="black" points="4907.5,-67.5 4907.5,-97.5 5037.5,-97.5 5037.5,-67.5 4907.5,-67.5"/>
<text text-anchor="start" x="4915.5" y="-85.5" font-family="Helvetica,sans-Serif" font-size="10.00">src/libs/vwidgets/scene</text>
<text text-anchor="middle" x="4972.5" y="-74.5" font-family="Helvetica,sans-Serif" font-size="10.00">_rect.cpp</text>
</a>
</g>
</g>
<!-- Node9&#45;&gt;Node38 -->
<g id="edge38" class="edge">
<title>Node9&#45;&gt;Node38</title>
<path fill="none" stroke="midnightblue" d="M3194.22,-134.17C3195.32,-134.11 3196.41,-134.06 3197.5,-134 3575.09,-114.71 4522.59,-138.5 4898.5,-98 4901.36,-97.69 4904.28,-97.33 4907.22,-96.92"/>
<polygon fill="midnightblue" stroke="midnightblue" points="3194.02,-130.68 3184.24,-134.75 3194.42,-137.67 3194.02,-130.68"/>
</g>
<!-- Node39 -->
<g id="node36" class="node">
<title>Node39</title>
<g id="a_node36"><a xlink:href="../../dd/df6/vabstractmainwindow_8cpp.html" target="_top" xlink:title=" ">
<polygon fill="white" stroke="black" points="5056,-73 5056,-92 5285,-92 5285,-73 5056,-73"/>
<text text-anchor="middle" x="5170.5" y="-80" font-family="Helvetica,sans-Serif" font-size="10.00">src/libs/vwidgets/vabstractmainwindow.cpp</text>
</a>
</g>
</g>
<!-- Node9&#45;&gt;Node39 -->
<g id="edge39" class="edge">
<title>Node9&#45;&gt;Node39</title>
<path fill="none" stroke="midnightblue" d="M3194.22,-134.17C3195.32,-134.11 3196.41,-134.05 3197.5,-134 4018.4,-92.77 4226.46,-153.8 5046.5,-98 5066.5,-96.64 5088.24,-94.37 5107.85,-92.02"/>
<polygon fill="midnightblue" stroke="midnightblue" points="3194.02,-130.68 3184.23,-134.74 3194.42,-137.66 3194.02,-130.68"/>
</g>
<!-- Node40 -->
<g id="node37" class="node">
<title>Node40</title>
<g id="a_node37"><a xlink:href="../../de/d45/vcontrolpointspline_8cpp.html" target="_top" xlink:title=" ">
<polygon fill="white" stroke="black" points="1277,-73 1277,-92 1492,-92 1492,-73 1277,-73"/>
<text text-anchor="middle" x="1384.5" y="-80" font-family="Helvetica,sans-Serif" font-size="10.00">src/libs/vwidgets/vcontrolpointspline.cpp</text>
</a>
</g>
</g>
<!-- Node9&#45;&gt;Node40 -->
<g id="edge40" class="edge">
<title>Node9&#45;&gt;Node40</title>
<path fill="none" stroke="midnightblue" d="M2978.89,-143.46C2722.61,-143.8 2056.12,-140.14 1501.5,-98 1482.83,-96.58 1462.55,-94.32 1444.21,-92.01"/>
<polygon fill="midnightblue" stroke="midnightblue" points="2978.94,-146.96 2988.94,-143.45 2978.93,-139.96 2978.94,-146.96"/>
</g>
<!-- Node9&#45;&gt;Node41 -->
<g id="edge41" class="edge">
<title>Node9&#45;&gt;Node41</title>
<path fill="none" stroke="midnightblue" d="M2978.56,-141.77C2534.81,-136.63 863.44,-116.23 627.5,-98 610.28,-96.67 591.58,-94.39 574.75,-92.03"/>
<polygon fill="midnightblue" stroke="midnightblue" points="2978.77,-145.28 2988.81,-141.89 2978.85,-138.28 2978.77,-145.28"/>
</g>
<!-- Node42 -->
<g id="node39" class="node">
<title>Node42</title>
<g id="a_node39"><a xlink:href="../../de/dec/vgraphicssimpletextitem_8cpp.html" target="_top" xlink:title=" ">
<polygon fill="white" stroke="black" points="1510.5,-73 1510.5,-92 1754.5,-92 1754.5,-73 1510.5,-73"/>
<text text-anchor="middle" x="1632.5" y="-80" font-family="Helvetica,sans-Serif" font-size="10.00">src/libs/vwidgets/vgraphicssimpletextitem.cpp</text>
</a>
</g>
</g>
<!-- Node9&#45;&gt;Node42 -->
<g id="edge42" class="edge">
<title>Node9&#45;&gt;Node42</title>
<path fill="none" stroke="midnightblue" d="M2978.67,-142.11C2752.92,-139.65 2214.16,-130.56 1763.5,-98 1742.96,-96.52 1720.67,-94.28 1700.4,-92.01"/>
<polygon fill="midnightblue" stroke="midnightblue" points="2978.82,-145.62 2988.85,-142.22 2978.89,-138.62 2978.82,-145.62"/>
</g>
<!-- Node9&#45;&gt;Node43 -->
<g id="edge43" class="edge">
<title>Node9&#45;&gt;Node43</title>
<path fill="none" stroke="midnightblue" d="M2978.78,-142.24C2593.6,-139.32 1285.28,-127.4 867.5,-98 848.14,-96.64 827.1,-94.37 808.13,-92.02"/>
<polygon fill="midnightblue" stroke="midnightblue" points="2978.78,-145.74 2988.81,-142.32 2978.84,-138.74 2978.78,-145.74"/>
</g>
<!-- Node44 -->
<g id="node41" class="node">
<title>Node44</title>
<g id="a_node41"><a xlink:href="../../d0/d5d/vscenepoint_8cpp.html" target="_top" xlink:title=" ">
<polygon fill="white" stroke="black" points="1773,-73 1773,-92 1954,-92 1954,-73 1773,-73"/>
<text text-anchor="middle" x="1863.5" y="-80" font-family="Helvetica,sans-Serif" font-size="10.00">src/libs/vwidgets/vscenepoint.cpp</text>
</a>
</g>
</g>
<!-- Node9&#45;&gt;Node44 -->
<g id="edge44" class="edge">
<title>Node9&#45;&gt;Node44</title>
<path fill="none" stroke="midnightblue" d="M2978.4,-142.4C2777.89,-140.46 2334.95,-132.28 1963.5,-98 1947.69,-96.54 1930.56,-94.3 1915.02,-92.02"/>
<polygon fill="midnightblue" stroke="midnightblue" points="2978.6,-145.9 2988.64,-142.49 2978.67,-138.9 2978.6,-145.9"/>
</g>
<!-- Node45 -->
<g id="node42" class="node">
<title>Node45</title>
<g id="a_node42"><a xlink:href="../../de/d22/vsimplecurve_8cpp.html" target="_top" xlink:title=" ">
<polygon fill="white" stroke="black" points="1972.5,-73 1972.5,-92 2160.5,-92 2160.5,-73 1972.5,-73"/>
<text text-anchor="middle" x="2066.5" y="-80" font-family="Helvetica,sans-Serif" font-size="10.00">src/libs/vwidgets/vsimplecurve.cpp</text>
</a>
</g>
</g>
<!-- Node9&#45;&gt;Node45 -->
<g id="edge45" class="edge">
<title>Node9&#45;&gt;Node45</title>
<path fill="none" stroke="midnightblue" d="M2978.65,-140.82C2807.17,-136.66 2461.92,-125.42 2170.5,-98 2154.35,-96.48 2136.85,-94.26 2120.91,-92.02"/>
<polygon fill="midnightblue" stroke="midnightblue" points="2978.61,-144.32 2988.69,-141.07 2978.77,-137.33 2978.61,-144.32"/>
</g>
<!-- Node46 -->
<g id="node43" class="node">
<title>Node46</title>
<g id="a_node43"><a xlink:href="../../df/d38/vsimplepoint_8cpp.html" target="_top" xlink:title=" ">
<polygon fill="white" stroke="black" points="2179,-73 2179,-92 2364,-92 2364,-73 2179,-73"/>
<text text-anchor="middle" x="2271.5" y="-80" font-family="Helvetica,sans-Serif" font-size="10.00">src/libs/vwidgets/vsimplepoint.cpp</text>
</a>
</g>
</g>
<!-- Node9&#45;&gt;Node46 -->
<g id="edge46" class="edge">
<title>Node9&#45;&gt;Node46</title>
<path fill="none" stroke="midnightblue" d="M2978.56,-138.82C2838.71,-132.8 2587.46,-119.93 2373.5,-98 2357.93,-96.4 2341.09,-94.21 2325.66,-92"/>
<polygon fill="midnightblue" stroke="midnightblue" points="2978.71,-142.33 2988.85,-139.26 2979.01,-135.33 2978.71,-142.33"/>
</g>
<!-- Node9&#45;&gt;Node47 -->
<g id="edge47" class="edge">
<title>Node9&#45;&gt;Node47</title>
<path fill="none" stroke="midnightblue" d="M3194.54,-138.13C3231.62,-136.6 3273.37,-135.04 3311.5,-134 3852.25,-119.19 5205.84,-135.32 5745.5,-98 5764.59,-96.68 5785.35,-94.39 5804,-92.01"/>
<polygon fill="midnightblue" stroke="midnightblue" points="3194.07,-134.64 3184.22,-138.55 3194.36,-141.64 3194.07,-134.64"/>
</g>
<!-- Node9&#45;&gt;Node48 -->
<g id="edge48" class="edge">
<title>Node9&#45;&gt;Node48</title>
<path fill="none" stroke="midnightblue" d="M2978.83,-142.04C2620.07,-138.62 1467.17,-125.69 1096.5,-98 1078.1,-96.63 1058.11,-94.35 1040.08,-92.01"/>
<polygon fill="midnightblue" stroke="midnightblue" points="2978.92,-145.54 2988.95,-142.14 2978.98,-138.54 2978.92,-145.54"/>
</g>
<!-- Node13 -->
<g id="node13" class="node">
<title>Node13</title>
<g id="a_node13"><a xlink:href="../../d4/da1/vabstractarc_8cpp.html" target="_top" xlink:title=" ">
<polygon fill="white" stroke="black" points="2535,-0.5 2535,-30.5 2642,-30.5 2642,-0.5 2535,-0.5"/>
<text text-anchor="start" x="2543" y="-18.5" font-family="Helvetica,sans-Serif" font-size="10.00">src/libs/vgeometry</text>
<text text-anchor="middle" x="2588.5" y="-7.5" font-family="Helvetica,sans-Serif" font-size="10.00">/vabstractarc.cpp</text>
</a>
</g>
</g>
<!-- Node12&#45;&gt;Node13 -->
<g id="edge14" class="edge">
<title>Node12&#45;&gt;Node13</title>
<path fill="none" stroke="midnightblue" d="M2588.5,-57.11C2588.5,-48.15 2588.5,-38.32 2588.5,-30.58"/>
<polygon fill="midnightblue" stroke="midnightblue" points="2585,-57.4 2588.5,-67.4 2592,-57.4 2585,-57.4"/>
</g>
<!-- Node18&#45;&gt;Node19 -->
<g id="edge18" class="edge">
<title>Node18&#45;&gt;Node19</title>
<path fill="none" stroke="midnightblue" d="M2977.78,-58.87C2983.71,-49.46 2990.41,-38.83 2995.62,-30.58"/>
<polygon fill="midnightblue" stroke="midnightblue" points="2974.77,-57.07 2972.4,-67.4 2980.69,-60.81 2974.77,-57.07"/>
</g>
<!-- Node32 -->
<g id="node29" class="node">
<title>Node32</title>
<g id="a_node29"><a xlink:href="../../d8/dba/vpiecenode_8cpp.html" target="_top" xlink:title=" ">
<polygon fill="white" stroke="black" points="0,-0.5 0,-30.5 107,-30.5 107,-0.5 0,-0.5"/>
<text text-anchor="start" x="8" y="-18.5" font-family="Helvetica,sans-Serif" font-size="10.00">src/libs/vpatterndb</text>
<text text-anchor="middle" x="53.5" y="-7.5" font-family="Helvetica,sans-Serif" font-size="10.00">/vpiecenode.cpp</text>
</a>
</g>
</g>
<!-- Node31&#45;&gt;Node32 -->
<g id="edge32" class="edge">
<title>Node31&#45;&gt;Node32</title>
<path fill="none" stroke="midnightblue" d="M53.5,-57.11C53.5,-48.15 53.5,-38.32 53.5,-30.58"/>
<polygon fill="midnightblue" stroke="midnightblue" points="50,-57.4 53.5,-67.4 57,-57.4 50,-57.4"/>
</g>
<!-- Node50 -->
<g id="node47" class="node">
<title>Node50</title>
<g id="a_node47"><a xlink:href="../../df/dba/vseamlymesettings_8cpp.html" target="_top" xlink:title=" ">
<polygon fill="white" stroke="black" points="1701,-134.5 1701,-153.5 1904,-153.5 1904,-134.5 1701,-134.5"/>
<text text-anchor="middle" x="1802.5" y="-141.5" font-family="Helvetica,sans-Serif" font-size="10.00">src/libs/vmisc/vseamlymesettings.cpp</text>
</a>
</g>
</g>
<!-- Node49&#45;&gt;Node50 -->
<g id="edge50" class="edge">
<title>Node49&#45;&gt;Node50</title>
<path fill="none" stroke="midnightblue" d="M1800.57,-179.8C1801.06,-170.91 1801.62,-160.78 1802.01,-153.75"/>
<polygon fill="midnightblue" stroke="midnightblue" points="1797.06,-179.9 1800,-190.08 1804.04,-180.29 1797.06,-179.9"/>
</g>
<!-- Node51&#45;&gt;Node9 -->
<g id="edge53" class="edge">
<title>Node51&#45;&gt;Node9</title>
<path fill="none" stroke="midnightblue" d="M3362.62,-188.85C3298.38,-178.65 3200.45,-163.1 3140.12,-153.52"/>
<polygon fill="midnightblue" stroke="midnightblue" points="3362.2,-192.33 3372.63,-190.44 3363.3,-185.42 3362.2,-192.33"/>
</g>
<!-- Node51&#45;&gt;Node10 -->
<g id="edge52" class="edge">
<title>Node51&#45;&gt;Node10</title>
<path fill="none" stroke="midnightblue" d="M3506.78,-197.85C3747.19,-194.2 4482.42,-181.43 5091.5,-154 5486.55,-136.21 5587.99,-153.66 5979.5,-98 5982.36,-97.59 5985.28,-97.13 5988.23,-96.62"/>
<polygon fill="midnightblue" stroke="midnightblue" points="3506.67,-194.35 3496.73,-198.01 3506.78,-201.35 3506.67,-194.35"/>
</g>
<!-- Node51&#45;&gt;Node47 -->
<g id="edge55" class="edge">
<title>Node51&#45;&gt;Node47</title>
<path fill="none" stroke="midnightblue" d="M3507.09,-197.82C3804.78,-192.95 4870.38,-171.17 5745.5,-98 5763.65,-96.48 5783.33,-94.27 5801.27,-92.02"/>
<polygon fill="midnightblue" stroke="midnightblue" points="3506.77,-194.32 3496.83,-197.98 3506.89,-201.32 3506.77,-194.32"/>
</g>
<!-- Node52 -->
<g id="node49" class="node">
<title>Node52</title>
<g id="a_node49"><a xlink:href="../../db/d28/vsettings_8cpp.html" target="_top" xlink:title=" ">
<polygon fill="white" stroke="black" points="3353.5,-134.5 3353.5,-153.5 3505.5,-153.5 3505.5,-134.5 3353.5,-134.5"/>
<text text-anchor="middle" x="3429.5" y="-141.5" font-family="Helvetica,sans-Serif" font-size="10.00">src/libs/vmisc/vsettings.cpp</text>
</a>
</g>
</g>
<!-- Node51&#45;&gt;Node52 -->
<g id="edge54" class="edge">
<title>Node51&#45;&gt;Node52</title>
<path fill="none" stroke="midnightblue" d="M3427.57,-179.8C3428.06,-170.91 3428.62,-160.78 3429.01,-153.75"/>
<polygon fill="midnightblue" stroke="midnightblue" points="3424.06,-179.9 3427,-190.08 3431.04,-180.29 3424.06,-179.9"/>
</g>
</g>
</svg>
