<?xml version="1.0" encoding="UTF-8" standalone="no"?>
<!DOCTYPE svg PUBLIC "-//W3C//DTD SVG 1.1//EN"
 "http://www.w3.org/Graphics/SVG/1.1/DTD/svg11.dtd">
<!-- Generated by graphviz version 2.43.0 (0)
 -->
<!-- Title: src/libs/vlayout/vbank.h Pages: 1 -->
<svg width="6123pt" height="330pt"
 viewBox="0.00 0.00 6122.62 330.00" xmlns="http://www.w3.org/2000/svg" xmlns:xlink="http://www.w3.org/1999/xlink">
<g id="graph0" class="graph" transform="scale(1 1) rotate(0) translate(4 326)">
<title>src/libs/vlayout/vbank.h</title>
<polygon fill="white" stroke="transparent" points="-4,4 -4,-326 6118.62,-326 6118.62,4 -4,4"/>
<!-- Node1 -->
<g id="node1" class="node">
<title>Node1</title>
<g id="a_node1"><a xlink:title=" ">
<polygon fill="#bfbfbf" stroke="black" points="1635,-302.5 1635,-321.5 1768,-321.5 1768,-302.5 1635,-302.5"/>
<text text-anchor="middle" x="1701.5" y="-309.5" font-family="Helvetica,sans-Serif" font-size="10.00">src/libs/vlayout/vbank.h</text>
</a>
</g>
</g>
<!-- Node2 -->
<g id="node2" class="node">
<title>Node2</title>
<g id="a_node2"><a xlink:href="../../de/da8/vbank_8cpp.html" target="_top" xlink:title=" ">
<polygon fill="white" stroke="black" points="1345.5,-246.5 1345.5,-265.5 1489.5,-265.5 1489.5,-246.5 1345.5,-246.5"/>
<text text-anchor="middle" x="1417.5" y="-253.5" font-family="Helvetica,sans-Serif" font-size="10.00">src/libs/vlayout/vbank.cpp</text>
</a>
</g>
</g>
<!-- Node1&#45;&gt;Node2 -->
<g id="edge1" class="edge">
<title>Node1&#45;&gt;Node2</title>
<path fill="none" stroke="midnightblue" d="M1646.47,-300.54C1592.8,-290.33 1512.16,-275 1462.29,-265.52"/>
<polygon fill="midnightblue" stroke="midnightblue" points="1646.02,-304.01 1656.5,-302.44 1647.33,-297.14 1646.02,-304.01"/>
</g>
<!-- Node3 -->
<g id="node3" class="node">
<title>Node3</title>
<g id="a_node3"><a xlink:href="../../dc/d3c/vlayoutgenerator_8h.html" target="_top" xlink:title=" ">
<polygon fill="white" stroke="black" points="1507.5,-246.5 1507.5,-265.5 1693.5,-265.5 1693.5,-246.5 1507.5,-246.5"/>
<text text-anchor="middle" x="1600.5" y="-253.5" font-family="Helvetica,sans-Serif" font-size="10.00">src/libs/vlayout/vlayoutgenerator.h</text>
</a>
</g>
</g>
<!-- Node1&#45;&gt;Node3 -->
<g id="edge2" class="edge">
<title>Node1&#45;&gt;Node3</title>
<path fill="none" stroke="midnightblue" d="M1676.42,-297.59C1657.74,-287.61 1632.8,-274.27 1616.69,-265.65"/>
<polygon fill="midnightblue" stroke="midnightblue" points="1674.8,-300.7 1685.27,-302.32 1678.1,-294.52 1674.8,-300.7"/>
</g>
<!-- Node5 -->
<g id="node5" class="node">
<title>Node5</title>
<g id="a_node5"><a xlink:href="../../d4/d5c/vcommonsettings_8h.html" target="_top" xlink:title=" ">
<polygon fill="white" stroke="black" points="1712,-246.5 1712,-265.5 1895,-265.5 1895,-246.5 1712,-246.5"/>
<text text-anchor="middle" x="1803.5" y="-253.5" font-family="Helvetica,sans-Serif" font-size="10.00">src/libs/vmisc/vcommonsettings.h</text>
</a>
</g>
</g>
<!-- Node1&#45;&gt;Node5 -->
<g id="edge4" class="edge">
<title>Node1&#45;&gt;Node5</title>
<path fill="none" stroke="midnightblue" d="M1726.83,-297.59C1745.69,-287.61 1770.88,-274.27 1787.15,-265.65"/>
<polygon fill="midnightblue" stroke="midnightblue" points="1725.09,-294.55 1717.89,-302.32 1728.36,-300.74 1725.09,-294.55"/>
</g>
<!-- Node64 -->
<g id="node48" class="node">
<title>Node64</title>
<g id="a_node48"><a xlink:href="../../dd/db2/vsettings_8h.html" target="_top" xlink:title=" ">
<polygon fill="white" stroke="black" points="3399.5,-190.5 3399.5,-209.5 3539.5,-209.5 3539.5,-190.5 3399.5,-190.5"/>
<text text-anchor="middle" x="3469.5" y="-197.5" font-family="Helvetica,sans-Serif" font-size="10.00">src/libs/vmisc/vsettings.h</text>
</a>
</g>
</g>
<!-- Node1&#45;&gt;Node64 -->
<g id="edge65" class="edge">
<title>Node1&#45;&gt;Node64</title>
<path fill="none" stroke="midnightblue" d="M1778.48,-307.67C2017.24,-297.06 2766.45,-261.7 3385.5,-210 3390.03,-209.62 3394.7,-209.2 3399.4,-208.76"/>
<polygon fill="midnightblue" stroke="midnightblue" points="1778,-304.19 1768.17,-308.13 1778.31,-311.18 1778,-304.19"/>
</g>
<!-- Node4 -->
<g id="node4" class="node">
<title>Node4</title>
<g id="a_node4"><a xlink:href="../../d3/d39/vlayoutgenerator_8cpp.html" target="_top" xlink:title=" ">
<polygon fill="white" stroke="black" points="1223,-190.5 1223,-209.5 1420,-209.5 1420,-190.5 1223,-190.5"/>
<text text-anchor="middle" x="1321.5" y="-197.5" font-family="Helvetica,sans-Serif" font-size="10.00">src/libs/vlayout/vlayoutgenerator.cpp</text>
</a>
</g>
</g>
<!-- Node3&#45;&gt;Node4 -->
<g id="edge3" class="edge">
<title>Node3&#45;&gt;Node4</title>
<path fill="none" stroke="midnightblue" d="M1546.44,-244.54C1493.71,-234.33 1414.5,-219 1365.5,-209.52"/>
<polygon fill="midnightblue" stroke="midnightblue" points="1545.81,-247.98 1556.29,-246.44 1547.14,-241.11 1545.81,-247.98"/>
</g>
<!-- Node6 -->
<g id="node6" class="node">
<title>Node6</title>
<g id="a_node6"><a xlink:href="../../d4/d90/fvupdater_8cpp.html" target="_top" xlink:title=" ">
<polygon fill="white" stroke="black" points="1106,-73 1106,-92 1259,-92 1259,-73 1106,-73"/>
<text text-anchor="middle" x="1182.5" y="-80" font-family="Helvetica,sans-Serif" font-size="10.00">src/libs/fervor/fvupdater.cpp</text>
</a>
</g>
</g>
<!-- Node5&#45;&gt;Node6 -->
<g id="edge5" class="edge">
<title>Node5&#45;&gt;Node6</title>
<path fill="none" stroke="midnightblue" d="M1760.12,-243.21C1739.74,-236.07 1716.12,-225.32 1698.5,-210 1668.7,-184.09 1685.95,-154.97 1652.5,-134 1579.69,-88.36 1352.69,-109.23 1267.5,-98 1254.88,-96.34 1241.28,-94.18 1228.72,-92.04"/>
<polygon fill="midnightblue" stroke="midnightblue" points="1759.23,-246.6 1769.82,-246.43 1761.43,-239.95 1759.23,-246.6"/>
</g>
<!-- Node7 -->
<g id="node7" class="node">
<title>Node7</title>
<g id="a_node7"><a xlink:href="../../df/d1e/image__item_8cpp.html" target="_top" xlink:title=" ">
<polygon fill="white" stroke="black" points="4769.5,-0.5 4769.5,-30.5 4881.5,-30.5 4881.5,-0.5 4769.5,-0.5"/>
<text text-anchor="start" x="4777.5" y="-18.5" font-family="Helvetica,sans-Serif" font-size="10.00">src/libs/tools/image</text>
<text text-anchor="middle" x="4825.5" y="-7.5" font-family="Helvetica,sans-Serif" font-size="10.00">_item.cpp</text>
</a>
</g>
</g>
<!-- Node5&#45;&gt;Node7 -->
<g id="edge6" class="edge">
<title>Node5&#45;&gt;Node7</title>
<path fill="none" stroke="midnightblue" d="M1905.5,-255.3C2543.17,-256.65 5959.44,-256.5 6107.5,-98 6116.91,-87.93 6117.05,-76.93 6107.5,-67 6064.47,-22.24 5123.62,-17.14 4881.77,-16.57"/>
<polygon fill="midnightblue" stroke="midnightblue" points="1905.42,-251.8 1895.41,-255.27 1905.4,-258.8 1905.42,-251.8"/>
</g>
<!-- Node8 -->
<g id="node8" class="node">
<title>Node8</title>
<g id="a_node8"><a xlink:href="../../dd/d70/vlayoutpiece_8cpp.html" target="_top" xlink:title=" ">
<polygon fill="white" stroke="black" points="5432,-73 5432,-92 5609,-92 5609,-73 5432,-73"/>
<text text-anchor="middle" x="5520.5" y="-80" font-family="Helvetica,sans-Serif" font-size="10.00">src/libs/vlayout/vlayoutpiece.cpp</text>
</a>
</g>
</g>
<!-- Node5&#45;&gt;Node8 -->
<g id="edge7" class="edge">
<title>Node5&#45;&gt;Node8</title>
<path fill="none" stroke="midnightblue" d="M1905.44,-253.17C2199.94,-247.12 3047.91,-223.92 3315.5,-154 3335.5,-148.77 3337.37,-138.73 3357.5,-134 3581,-81.45 5194.7,-117.01 5423.5,-98 5439.28,-96.69 5456.4,-94.42 5471.8,-92.05"/>
<polygon fill="midnightblue" stroke="midnightblue" points="1905.13,-249.68 1895.2,-253.38 1905.27,-256.68 1905.13,-249.68"/>
</g>
<!-- Node9 -->
<g id="node9" class="node">
<title>Node9</title>
<g id="a_node9"><a xlink:href="../../d5/d74/vabstractapplication_8h.html" target="_top" xlink:title=" ">
<polygon fill="white" stroke="black" points="3111,-134.5 3111,-153.5 3306,-153.5 3306,-134.5 3111,-134.5"/>
<text text-anchor="middle" x="3208.5" y="-141.5" font-family="Helvetica,sans-Serif" font-size="10.00">src/libs/vmisc/vabstractapplication.h</text>
</a>
</g>
</g>
<!-- Node5&#45;&gt;Node9 -->
<g id="edge8" class="edge">
<title>Node5&#45;&gt;Node9</title>
<path fill="none" stroke="midnightblue" d="M1834.45,-242.5C1855.52,-233.8 1883.92,-221.71 1908.5,-210 1925.73,-201.79 1928.06,-194.91 1946.5,-190 2057.6,-160.44 2833.84,-149.11 3110.69,-145.98"/>
<polygon fill="midnightblue" stroke="midnightblue" points="1832.96,-239.32 1825.04,-246.36 1835.62,-245.8 1832.96,-239.32"/>
</g>
<!-- Node44 -->
<g id="node25" class="node">
<title>Node44</title>
<g id="a_node25"><a xlink:href="../../db/d11/vformula_8cpp.html" target="_top" xlink:title=" ">
<polygon fill="white" stroke="black" points="5627,-67.5 5627,-97.5 5734,-97.5 5734,-67.5 5627,-67.5"/>
<text text-anchor="start" x="5635" y="-85.5" font-family="Helvetica,sans-Serif" font-size="10.00">src/libs/vpatterndb</text>
<text text-anchor="middle" x="5680.5" y="-74.5" font-family="Helvetica,sans-Serif" font-size="10.00">/vformula.cpp</text>
</a>
</g>
</g>
<!-- Node5&#45;&gt;Node44 -->
<g id="edge57" class="edge">
<title>Node5&#45;&gt;Node44</title>
<path fill="none" stroke="midnightblue" d="M1905.65,-255.41C2113.34,-255.31 2599.6,-250.33 3005.5,-210 3008.78,-209.67 3471.21,-134.29 3474.5,-134 3949.14,-91.78 5145.6,-156.59 5618.5,-98 5621.24,-97.66 5624.04,-97.25 5626.86,-96.78"/>
<polygon fill="midnightblue" stroke="midnightblue" points="1905.37,-251.91 1895.37,-255.41 1905.37,-258.91 1905.37,-251.91"/>
</g>
<!-- Node46 -->
<g id="node27" class="node">
<title>Node46</title>
<g id="a_node27"><a xlink:href="../../df/dba/vpiecenode__p_8h.html" target="_top" xlink:title=" ">
<polygon fill="white" stroke="black" points="0,-67.5 0,-97.5 107,-97.5 107,-67.5 0,-67.5"/>
<text text-anchor="start" x="8" y="-85.5" font-family="Helvetica,sans-Serif" font-size="10.00">src/libs/vpatterndb</text>
<text text-anchor="middle" x="53.5" y="-74.5" font-family="Helvetica,sans-Serif" font-size="10.00">/vpiecenode_p.h</text>
</a>
</g>
</g>
<!-- Node5&#45;&gt;Node46 -->
<g id="edge58" class="edge">
<title>Node5&#45;&gt;Node46</title>
<path fill="none" stroke="midnightblue" d="M1739.25,-244.89C1684.08,-236.08 1602.46,-222.76 1531.5,-210 1485.6,-201.75 1474.73,-196.09 1428.5,-190 848.52,-113.66 693.93,-185.33 115.5,-98 112.77,-97.59 109.98,-97.12 107.17,-96.6"/>
<polygon fill="midnightblue" stroke="midnightblue" points="1738.81,-248.36 1749.24,-246.48 1739.91,-241.45 1738.81,-248.36"/>
</g>
<!-- Node23 -->
<g id="node32" class="node">
<title>Node23</title>
<g id="a_node32"><a xlink:href="../../df/d40/export__format__combobox_8cpp.html" target="_top" xlink:title=" ">
<polygon fill="white" stroke="black" points="125,-67.5 125,-97.5 258,-97.5 258,-67.5 125,-67.5"/>
<text text-anchor="start" x="133" y="-85.5" font-family="Helvetica,sans-Serif" font-size="10.00">src/libs/vwidgets/export</text>
<text text-anchor="middle" x="191.5" y="-74.5" font-family="Helvetica,sans-Serif" font-size="10.00">_format_combobox.cpp</text>
</a>
</g>
</g>
<!-- Node5&#45;&gt;Node23 -->
<g id="edge59" class="edge">
<title>Node5&#45;&gt;Node23</title>
<path fill="none" stroke="midnightblue" d="M1701.88,-245.75C1658.83,-239.3 1608.92,-228.4 1566.5,-210 1513.98,-187.21 1516.65,-152.58 1462.5,-134 1336.75,-90.85 398.64,-112.67 266.5,-98 263.73,-97.69 260.91,-97.34 258.07,-96.95"/>
<polygon fill="midnightblue" stroke="midnightblue" points="1701.41,-249.22 1711.8,-247.17 1702.4,-242.29 1701.41,-249.22"/>
</g>
<!-- Node26 -->
<g id="node33" class="node">
<title>Node26</title>
<g id="a_node33"><a xlink:href="../../d2/d28/page__format__combobox_8cpp.html" target="_top" xlink:title=" ">
<polygon fill="white" stroke="black" points="276,-67.5 276,-97.5 407,-97.5 407,-67.5 276,-67.5"/>
<text text-anchor="start" x="284" y="-85.5" font-family="Helvetica,sans-Serif" font-size="10.00">src/libs/vwidgets/page</text>
<text text-anchor="middle" x="341.5" y="-74.5" font-family="Helvetica,sans-Serif" font-size="10.00">_format_combobox.cpp</text>
</a>
</g>
</g>
<!-- Node5&#45;&gt;Node26 -->
<g id="edge60" class="edge">
<title>Node5&#45;&gt;Node26</title>
<path fill="none" stroke="midnightblue" d="M1718.34,-244.75C1680.68,-238.08 1636.62,-227.29 1599.5,-210 1549.22,-186.58 1552.72,-152.7 1500.5,-134 1386.94,-93.33 535.35,-111.64 415.5,-98 412.77,-97.69 409.99,-97.33 407.18,-96.94"/>
<polygon fill="midnightblue" stroke="midnightblue" points="1717.83,-248.21 1728.27,-246.43 1719,-241.31 1717.83,-248.21"/>
</g>
<!-- Node54 -->
<g id="node37" class="node">
<title>Node54</title>
<g id="a_node37"><a xlink:href="../../d1/d90/vgrainlineitem_8cpp.html" target="_top" xlink:title=" ">
<polygon fill="white" stroke="black" points="425,-73 425,-92 618,-92 618,-73 425,-73"/>
<text text-anchor="middle" x="521.5" y="-80" font-family="Helvetica,sans-Serif" font-size="10.00">src/libs/vwidgets/vgrainlineitem.cpp</text>
</a>
</g>
</g>
<!-- Node5&#45;&gt;Node54 -->
<g id="edge61" class="edge">
<title>Node5&#45;&gt;Node54</title>
<path fill="none" stroke="midnightblue" d="M1735.53,-244.44C1702.59,-237.58 1663.18,-226.7 1630.5,-210 1583.27,-185.86 1588.04,-152.93 1538.5,-134 1443.87,-97.84 728.41,-106.88 627.5,-98 610.85,-96.54 592.8,-94.31 576.4,-92.04"/>
<polygon fill="midnightblue" stroke="midnightblue" points="1735.04,-247.91 1745.53,-246.45 1736.42,-241.05 1735.04,-247.91"/>
</g>
<!-- Node57 -->
<g id="node40" class="node">
<title>Node57</title>
<g id="a_node40"><a xlink:href="../../d2/d31/vmaingraphicsview_8cpp.html" target="_top" xlink:title=" ">
<polygon fill="white" stroke="black" points="5882.5,-73 5882.5,-92 6098.5,-92 6098.5,-73 5882.5,-73"/>
<text text-anchor="middle" x="5990.5" y="-80" font-family="Helvetica,sans-Serif" font-size="10.00">src/libs/vwidgets/vmaingraphicsview.cpp</text>
</a>
</g>
</g>
<!-- Node5&#45;&gt;Node57 -->
<g id="edge62" class="edge">
<title>Node5&#45;&gt;Node57</title>
<path fill="none" stroke="midnightblue" d="M1905.41,-253.17C2174.15,-248.16 2924.34,-233.08 3548.5,-210 4582.33,-171.77 4842.77,-186.57 5873.5,-98 5891.55,-96.45 5911.1,-94.24 5928.96,-92.01"/>
<polygon fill="midnightblue" stroke="midnightblue" points="1905.22,-249.67 1895.28,-253.36 1905.35,-256.67 1905.22,-249.67"/>
</g>
<!-- Node58 -->
<g id="node41" class="node">
<title>Node58</title>
<g id="a_node41"><a xlink:href="../../d1/d88/vmaingraphicsscene_8cpp.html" target="_top" xlink:title=" ">
<polygon fill="white" stroke="black" points="636.5,-73 636.5,-92 858.5,-92 858.5,-73 636.5,-73"/>
<text text-anchor="middle" x="747.5" y="-80" font-family="Helvetica,sans-Serif" font-size="10.00">src/libs/vwidgets/vmaingraphicsscene.cpp</text>
</a>
</g>
</g>
<!-- Node5&#45;&gt;Node58 -->
<g id="edge63" class="edge">
<title>Node5&#45;&gt;Node58</title>
<path fill="none" stroke="midnightblue" d="M1747.82,-244.14C1719.5,-237.09 1685.3,-226.15 1657.5,-210 1614.81,-185.2 1621.93,-153.32 1576.5,-134 1503.91,-103.13 946.09,-104.74 867.5,-98 849.1,-96.42 829.17,-94.22 810.94,-92"/>
<polygon fill="midnightblue" stroke="midnightblue" points="1747.02,-247.55 1757.56,-246.47 1748.65,-240.74 1747.02,-247.55"/>
</g>
<!-- Node61 -->
<g id="node45" class="node">
<title>Node61</title>
<g id="a_node45"><a xlink:href="../../df/df5/vtextgraphicsitem_8cpp.html" target="_top" xlink:title=" ">
<polygon fill="white" stroke="black" points="877,-73 877,-92 1088,-92 1088,-73 877,-73"/>
<text text-anchor="middle" x="982.5" y="-80" font-family="Helvetica,sans-Serif" font-size="10.00">src/libs/vwidgets/vtextgraphicsitem.cpp</text>
</a>
</g>
</g>
<!-- Node5&#45;&gt;Node61 -->
<g id="edge64" class="edge">
<title>Node5&#45;&gt;Node61</title>
<path fill="none" stroke="midnightblue" d="M1756.03,-243.73C1732.01,-236.57 1703.21,-225.65 1680.5,-210 1643.66,-184.62 1654.54,-153.96 1614.5,-134 1511.24,-82.51 1211.34,-109.28 1096.5,-98 1079.52,-96.33 1061.17,-94.16 1044.25,-92.01"/>
<polygon fill="midnightblue" stroke="midnightblue" points="1755.09,-247.1 1765.66,-246.48 1757.01,-240.37 1755.09,-247.1"/>
</g>
<!-- Node62 -->
<g id="node46" class="node">
<title>Node62</title>
<g id="a_node46"><a xlink:href="../../df/da4/vseamlymesettings_8h.html" target="_top" xlink:title=" ">
<polygon fill="white" stroke="black" points="1707.5,-190.5 1707.5,-209.5 1899.5,-209.5 1899.5,-190.5 1707.5,-190.5"/>
<text text-anchor="middle" x="1803.5" y="-197.5" font-family="Helvetica,sans-Serif" font-size="10.00">src/libs/vmisc/vseamlymesettings.h</text>
</a>
</g>
</g>
<!-- Node5&#45;&gt;Node62 -->
<g id="edge49" class="edge">
<title>Node5&#45;&gt;Node62</title>
<path fill="none" stroke="midnightblue" d="M1803.5,-235.8C1803.5,-226.91 1803.5,-216.78 1803.5,-209.75"/>
<polygon fill="midnightblue" stroke="midnightblue" points="1800,-236.08 1803.5,-246.08 1807,-236.08 1800,-236.08"/>
</g>
<!-- Node5&#45;&gt;Node64 -->
<g id="edge51" class="edge">
<title>Node5&#45;&gt;Node64</title>
<path fill="none" stroke="midnightblue" d="M1905.23,-254.86C2156.67,-253.93 2827.49,-247.77 3385.5,-210 3390.04,-209.69 3394.71,-209.33 3399.41,-208.92"/>
<polygon fill="midnightblue" stroke="midnightblue" points="1905,-251.36 1895.02,-254.9 1905.03,-258.36 1905,-251.36"/>
</g>
<!-- Node66 -->
<g id="node50" class="node">
<title>Node66</title>
<g id="a_node50"><a xlink:href="../../d4/d11/vcommonsettings_8cpp.html" target="_top" xlink:title=" ">
<polygon fill="white" stroke="black" points="1955.5,-190.5 1955.5,-209.5 2149.5,-209.5 2149.5,-190.5 1955.5,-190.5"/>
<text text-anchor="middle" x="2052.5" y="-197.5" font-family="Helvetica,sans-Serif" font-size="10.00">src/libs/vmisc/vcommonsettings.cpp</text>
</a>
</g>
</g>
<!-- Node5&#45;&gt;Node66 -->
<g id="edge56" class="edge">
<title>Node5&#45;&gt;Node66</title>
<path fill="none" stroke="midnightblue" d="M1852.92,-244.28C1899.98,-234.08 1969.87,-218.92 2013.23,-209.52"/>
<polygon fill="midnightblue" stroke="midnightblue" points="1851.99,-240.9 1842.95,-246.44 1853.47,-247.74 1851.99,-240.9"/>
</g>
<!-- Node9&#45;&gt;Node6 -->
<g id="edge9" class="edge">
<title>Node9&#45;&gt;Node6</title>
<path fill="none" stroke="midnightblue" d="M3100.73,-142.57C2747.61,-140.84 1627.46,-132.69 1267.5,-98 1253.64,-96.66 1238.63,-94.39 1225.14,-92.03"/>
<polygon fill="midnightblue" stroke="midnightblue" points="3100.94,-146.07 3110.96,-142.62 3100.97,-139.07 3100.94,-146.07"/>
</g>
<!-- Node9&#45;&gt;Node8 -->
<g id="edge22" class="edge">
<title>Node9&#45;&gt;Node8</title>
<path fill="none" stroke="midnightblue" d="M3316.22,-134.17C3317.32,-134.11 3318.41,-134.05 3319.5,-134 4253.63,-88.19 4491.45,-175.3 5423.5,-98 5439.28,-96.69 5456.4,-94.42 5471.8,-92.06"/>
<polygon fill="midnightblue" stroke="midnightblue" points="3316.02,-130.67 3306.23,-134.73 3316.42,-137.66 3316.02,-130.67"/>
</g>
<!-- Node10 -->
<g id="node10" class="node">
<title>Node10</title>
<g id="a_node10"><a xlink:href="../../d1/d8d/image__item_8h.html" target="_top" xlink:title=" ">
<polygon fill="white" stroke="red" points="3468.5,-67.5 3468.5,-97.5 3580.5,-97.5 3580.5,-67.5 3468.5,-67.5"/>
<text text-anchor="start" x="3476.5" y="-85.5" font-family="Helvetica,sans-Serif" font-size="10.00">src/libs/tools/image</text>
<text text-anchor="middle" x="3524.5" y="-74.5" font-family="Helvetica,sans-Serif" font-size="10.00">_item.h</text>
</a>
</g>
</g>
<!-- Node9&#45;&gt;Node10 -->
<g id="edge10" class="edge">
<title>Node9&#45;&gt;Node10</title>
<path fill="none" stroke="midnightblue" d="M3269.44,-132.81C3320.35,-124.13 3394.8,-111.01 3459.5,-98 3462.33,-97.43 3465.23,-96.83 3468.16,-96.22"/>
<polygon fill="midnightblue" stroke="midnightblue" points="3268.85,-129.36 3259.58,-134.49 3270.02,-136.26 3268.85,-129.36"/>
</g>
<!-- Node13 -->
<g id="node11" class="node">
<title>Node13</title>
<g id="a_node11"><a xlink:href="../../d2/d47/image__dialog_8cpp.html" target="_top" xlink:title=" ">
<polygon fill="white" stroke="black" points="5752.5,-67.5 5752.5,-97.5 5864.5,-97.5 5864.5,-67.5 5752.5,-67.5"/>
<text text-anchor="start" x="5760.5" y="-85.5" font-family="Helvetica,sans-Serif" font-size="10.00">src/libs/tools/image</text>
<text text-anchor="middle" x="5808.5" y="-74.5" font-family="Helvetica,sans-Serif" font-size="10.00">_dialog.cpp</text>
</a>
</g>
</g>
<!-- Node9&#45;&gt;Node13 -->
<g id="edge12" class="edge">
<title>Node9&#45;&gt;Node13</title>
<path fill="none" stroke="midnightblue" d="M3316.41,-138.58C3359.65,-136.94 3409.93,-135.19 3455.5,-134 3963.83,-120.74 5238.51,-157.67 5743.5,-98 5746.37,-97.66 5749.3,-97.25 5752.25,-96.78"/>
<polygon fill="midnightblue" stroke="midnightblue" points="3316.01,-135.1 3306.15,-138.98 3316.28,-142.09 3316.01,-135.1"/>
</g>
<!-- Node28 -->
<g id="node12" class="node">
<title>Node28</title>
<g id="a_node12"><a xlink:href="../../d9/dc8/dxiface_8cpp.html" target="_top" xlink:title=" ">
<polygon fill="white" stroke="black" points="2815,-73 2815,-92 2950,-92 2950,-73 2815,-73"/>
<text text-anchor="middle" x="2882.5" y="-80" font-family="Helvetica,sans-Serif" font-size="10.00">src/libs/vdxf/dxiface.cpp</text>
</a>
</g>
</g>
<!-- Node9&#45;&gt;Node28 -->
<g id="edge13" class="edge">
<title>Node9&#45;&gt;Node28</title>
<path fill="none" stroke="midnightblue" d="M3150.68,-132.67C3100.2,-123.63 3024.97,-110.08 2959.5,-98 2949.2,-96.1 2938.13,-94.03 2927.68,-92.07"/>
<polygon fill="midnightblue" stroke="midnightblue" points="3150.29,-136.16 3160.75,-134.48 3151.52,-129.27 3150.29,-136.16"/>
</g>
<!-- Node29 -->
<g id="node13" class="node">
<title>Node29</title>
<g id="a_node13"><a xlink:href="../../da/d75/vabstractarc__p_8h.html" target="_top" xlink:title=" ">
<polygon fill="white" stroke="red" points="2968,-67.5 2968,-97.5 3075,-97.5 3075,-67.5 2968,-67.5"/>
<text text-anchor="start" x="2976" y="-85.5" font-family="Helvetica,sans-Serif" font-size="10.00">src/libs/vgeometry</text>
<text text-anchor="middle" x="3021.5" y="-74.5" font-family="Helvetica,sans-Serif" font-size="10.00">/vabstractarc_p.h</text>
</a>
</g>
</g>
<!-- Node9&#45;&gt;Node29 -->
<g id="edge14" class="edge">
<title>Node9&#45;&gt;Node29</title>
<path fill="none" stroke="midnightblue" d="M3171.91,-131.36C3141.44,-121.66 3097.95,-107.83 3065.57,-97.52"/>
<polygon fill="midnightblue" stroke="midnightblue" points="3171.12,-134.78 3181.71,-134.48 3173.24,-128.11 3171.12,-134.78"/>
</g>
<!-- Node31 -->
<g id="node14" class="node">
<title>Node31</title>
<g id="a_node14"><a xlink:href="../../dc/da3/varc__p_8h.html" target="_top" xlink:title=" ">
<polygon fill="white" stroke="red" points="3093,-67.5 3093,-97.5 3200,-97.5 3200,-67.5 3093,-67.5"/>
<text text-anchor="start" x="3101" y="-85.5" font-family="Helvetica,sans-Serif" font-size="10.00">src/libs/vgeometry</text>
<text text-anchor="middle" x="3146.5" y="-74.5" font-family="Helvetica,sans-Serif" font-size="10.00">/varc_p.h</text>
</a>
</g>
</g>
<!-- Node9&#45;&gt;Node31 -->
<g id="edge15" class="edge">
<title>Node9&#45;&gt;Node31</title>
<path fill="none" stroke="midnightblue" d="M3192.21,-127.37C3182.57,-118.11 3170.45,-106.48 3161.11,-97.52"/>
<polygon fill="midnightblue" stroke="midnightblue" points="3189.98,-130.08 3199.62,-134.48 3194.83,-125.03 3189.98,-130.08"/>
</g>
<!-- Node33 -->
<g id="node15" class="node">
<title>Node33</title>
<g id="a_node15"><a xlink:href="../../d5/d8e/vcubicbezier__p_8h.html" target="_top" xlink:title=" ">
<polygon fill="white" stroke="red" points="3218,-67.5 3218,-97.5 3325,-97.5 3325,-67.5 3218,-67.5"/>
<text text-anchor="start" x="3226" y="-85.5" font-family="Helvetica,sans-Serif" font-size="10.00">src/libs/vgeometry</text>
<text text-anchor="middle" x="3271.5" y="-74.5" font-family="Helvetica,sans-Serif" font-size="10.00">/vcubicbezier_p.h</text>
</a>
</g>
</g>
<!-- Node9&#45;&gt;Node33 -->
<g id="edge16" class="edge">
<title>Node9&#45;&gt;Node33</title>
<path fill="none" stroke="midnightblue" d="M3225.05,-127.37C3234.85,-118.11 3247.17,-106.48 3256.65,-97.52"/>
<polygon fill="midnightblue" stroke="midnightblue" points="3222.39,-125.06 3217.53,-134.48 3227.2,-130.15 3222.39,-125.06"/>
</g>
<!-- Node35 -->
<g id="node16" class="node">
<title>Node35</title>
<g id="a_node16"><a xlink:href="../../df/dde/vellipticalarc__p_8h.html" target="_top" xlink:title=" ">
<polygon fill="white" stroke="black" points="3343,-67.5 3343,-97.5 3450,-97.5 3450,-67.5 3343,-67.5"/>
<text text-anchor="start" x="3351" y="-85.5" font-family="Helvetica,sans-Serif" font-size="10.00">src/libs/vgeometry</text>
<text text-anchor="middle" x="3396.5" y="-74.5" font-family="Helvetica,sans-Serif" font-size="10.00">/vellipticalarc_p.h</text>
</a>
</g>
</g>
<!-- Node9&#45;&gt;Node35 -->
<g id="edge17" class="edge">
<title>Node9&#45;&gt;Node35</title>
<path fill="none" stroke="midnightblue" d="M3245.29,-131.36C3275.92,-121.66 3319.64,-107.83 3352.19,-97.52"/>
<polygon fill="midnightblue" stroke="midnightblue" points="3243.91,-128.12 3235.44,-134.48 3246.03,-134.79 3243.91,-128.12"/>
</g>
<!-- Node36 -->
<g id="node17" class="node">
<title>Node36</title>
<g id="a_node17"><a xlink:href="../../d6/dfb/vellipticalarc_8cpp.html" target="_top" xlink:title=" ">
<polygon fill="white" stroke="black" points="3038,-0.5 3038,-30.5 3145,-30.5 3145,-0.5 3038,-0.5"/>
<text text-anchor="start" x="3046" y="-18.5" font-family="Helvetica,sans-Serif" font-size="10.00">src/libs/vgeometry</text>
<text text-anchor="middle" x="3091.5" y="-7.5" font-family="Helvetica,sans-Serif" font-size="10.00">/vellipticalarc.cpp</text>
</a>
</g>
</g>
<!-- Node9&#45;&gt;Node36 -->
<g id="edge19" class="edge">
<title>Node9&#45;&gt;Node36</title>
<path fill="none" stroke="midnightblue" d="M3100.57,-138.23C2988.22,-132.12 2825.87,-119.66 2806.5,-98 2797.32,-87.73 2797.65,-77.56 2806.5,-67 2835.43,-32.49 2963.58,-21.55 3037.81,-18.09"/>
<polygon fill="midnightblue" stroke="midnightblue" points="3100.43,-141.72 3110.61,-138.76 3100.81,-134.73 3100.43,-141.72"/>
</g>
<!-- Node37 -->
<g id="node18" class="node">
<title>Node37</title>
<g id="a_node18"><a xlink:href="../../d1/d76/vspline__p_8h.html" target="_top" xlink:title=" ">
<polygon fill="white" stroke="red" points="3599,-67.5 3599,-97.5 3706,-97.5 3706,-67.5 3599,-67.5"/>
<text text-anchor="start" x="3607" y="-85.5" font-family="Helvetica,sans-Serif" font-size="10.00">src/libs/vgeometry</text>
<text text-anchor="middle" x="3652.5" y="-74.5" font-family="Helvetica,sans-Serif" font-size="10.00">/vspline_p.h</text>
</a>
</g>
</g>
<!-- Node9&#45;&gt;Node37 -->
<g id="edge20" class="edge">
<title>Node9&#45;&gt;Node37</title>
<path fill="none" stroke="midnightblue" d="M3315.75,-133.47C3392.34,-125.91 3497.65,-113.95 3589.5,-98 3592.6,-97.46 3595.77,-96.87 3598.96,-96.24"/>
<polygon fill="midnightblue" stroke="midnightblue" points="3315.23,-130.01 3305.62,-134.47 3315.91,-136.98 3315.23,-130.01"/>
</g>
<!-- Node39 -->
<g id="node19" class="node">
<title>Node39</title>
<g id="a_node19"><a xlink:href="../../d9/d15/vabstractpiece_8cpp.html" target="_top" xlink:title=" ">
<polygon fill="white" stroke="black" points="3724.5,-73 3724.5,-92 3910.5,-92 3910.5,-73 3724.5,-73"/>
<text text-anchor="middle" x="3817.5" y="-80" font-family="Helvetica,sans-Serif" font-size="10.00">src/libs/vlayout/vabstractpiece.cpp</text>
</a>
</g>
</g>
<!-- Node9&#45;&gt;Node39 -->
<g id="edge21" class="edge">
<title>Node9&#45;&gt;Node39</title>
<path fill="none" stroke="midnightblue" d="M3316.13,-134.12C3441.46,-123.66 3640.82,-106.62 3715.5,-98 3730.43,-96.28 3746.54,-94.12 3761.45,-92.01"/>
<polygon fill="midnightblue" stroke="midnightblue" points="3315.79,-130.63 3306.12,-134.95 3316.37,-137.61 3315.79,-130.63"/>
</g>
<!-- Node21 -->
<g id="node20" class="node">
<title>Node21</title>
<g id="a_node20"><a xlink:href="../../d8/d70/vtextmanager_8cpp.html" target="_top" xlink:title=" ">
<polygon fill="white" stroke="black" points="3928.5,-73 3928.5,-92 4110.5,-92 4110.5,-73 3928.5,-73"/>
<text text-anchor="middle" x="4019.5" y="-80" font-family="Helvetica,sans-Serif" font-size="10.00">src/libs/vlayout/vtextmanager.cpp</text>
</a>
</g>
</g>
<!-- Node9&#45;&gt;Node21 -->
<g id="edge23" class="edge">
<title>Node9&#45;&gt;Node21</title>
<path fill="none" stroke="midnightblue" d="M3316.23,-134.23C3317.32,-134.15 3318.42,-134.08 3319.5,-134 3585.98,-115.2 3653.74,-125.19 3919.5,-98 3934.86,-96.43 3951.47,-94.22 3966.67,-92.01"/>
<polygon fill="midnightblue" stroke="midnightblue" points="3315.97,-130.74 3306.25,-134.96 3316.48,-137.72 3315.97,-130.74"/>
</g>
<!-- Node40 -->
<g id="node21" class="node">
<title>Node40</title>
<g id="a_node21"><a xlink:href="../../d6/d0b/def_8cpp.html" target="_top" xlink:title=" ">
<polygon fill="white" stroke="black" points="4128.5,-73 4128.5,-92 4250.5,-92 4250.5,-73 4128.5,-73"/>
<text text-anchor="middle" x="4189.5" y="-80" font-family="Helvetica,sans-Serif" font-size="10.00">src/libs/vmisc/def.cpp</text>
</a>
</g>
</g>
<!-- Node9&#45;&gt;Node40 -->
<g id="edge24" class="edge">
<title>Node9&#45;&gt;Node40</title>
<path fill="none" stroke="midnightblue" d="M3316.23,-134.21C3317.32,-134.14 3318.41,-134.07 3319.5,-134 3674.71,-111.61 3766.34,-142.24 4119.5,-98 4130.71,-96.6 4142.79,-94.36 4153.71,-92.06"/>
<polygon fill="midnightblue" stroke="midnightblue" points="3315.99,-130.72 3306.24,-134.88 3316.45,-137.7 3315.99,-130.72"/>
</g>
<!-- Node41 -->
<g id="node22" class="node">
<title>Node41</title>
<g id="a_node22"><a xlink:href="../../db/d65/dialogexporttocsv_8cpp.html" target="_top" xlink:title=" ">
<polygon fill="white" stroke="black" points="4269,-67.5 4269,-97.5 4396,-97.5 4396,-67.5 4269,-67.5"/>
<text text-anchor="start" x="4277" y="-85.5" font-family="Helvetica,sans-Serif" font-size="10.00">src/libs/vmisc/dialogs</text>
<text text-anchor="middle" x="4332.5" y="-74.5" font-family="Helvetica,sans-Serif" font-size="10.00">/dialogexporttocsv.cpp</text>
</a>
</g>
</g>
<!-- Node9&#45;&gt;Node41 -->
<g id="edge25" class="edge">
<title>Node9&#45;&gt;Node41</title>
<path fill="none" stroke="midnightblue" d="M3316.23,-134.2C3317.32,-134.13 3318.41,-134.06 3319.5,-134 3736.84,-109.1 3844.28,-146.88 4259.5,-98 4262.58,-97.64 4265.72,-97.22 4268.89,-96.75"/>
<polygon fill="midnightblue" stroke="midnightblue" points="3315.99,-130.71 3306.24,-134.84 3316.44,-137.69 3315.99,-130.71"/>
</g>
<!-- Node42 -->
<g id="node23" class="node">
<title>Node42</title>
<g id="a_node23"><a xlink:href="../../d0/df6/vabstractapplication_8cpp.html" target="_top" xlink:title=" ">
<polygon fill="white" stroke="black" points="4414.5,-73 4414.5,-92 4620.5,-92 4620.5,-73 4414.5,-73"/>
<text text-anchor="middle" x="4517.5" y="-80" font-family="Helvetica,sans-Serif" font-size="10.00">src/libs/vmisc/vabstractapplication.cpp</text>
</a>
</g>
</g>
<!-- Node9&#45;&gt;Node42 -->
<g id="edge26" class="edge">
<title>Node9&#45;&gt;Node42</title>
<path fill="none" stroke="midnightblue" d="M3316.23,-134.19C3317.32,-134.13 3318.41,-134.06 3319.5,-134 3801.65,-106.48 3924.15,-137.05 4405.5,-98 4423.28,-96.56 4442.58,-94.31 4460.06,-92.01"/>
<polygon fill="midnightblue" stroke="midnightblue" points="3316,-130.7 3306.24,-134.82 3316.44,-137.68 3316,-130.7"/>
</g>
<!-- Node43 -->
<g id="node24" class="node">
<title>Node43</title>
<g id="a_node24"><a xlink:href="../../d4/d4f/pmsystems_8cpp.html" target="_top" xlink:title=" ">
<polygon fill="white" stroke="black" points="4639,-67.5 4639,-97.5 4746,-97.5 4746,-67.5 4639,-67.5"/>
<text text-anchor="start" x="4647" y="-85.5" font-family="Helvetica,sans-Serif" font-size="10.00">src/libs/vpatterndb</text>
<text text-anchor="middle" x="4692.5" y="-74.5" font-family="Helvetica,sans-Serif" font-size="10.00">/pmsystems.cpp</text>
</a>
</g>
</g>
<!-- Node9&#45;&gt;Node43 -->
<g id="edge27" class="edge">
<title>Node9&#45;&gt;Node43</title>
<path fill="none" stroke="midnightblue" d="M3316.23,-134.18C3317.32,-134.12 3318.41,-134.06 3319.5,-134 3901.09,-102.45 4051.74,-171.68 4629.5,-98 4632.51,-97.62 4635.58,-97.15 4638.67,-96.63"/>
<polygon fill="midnightblue" stroke="midnightblue" points="3316.01,-130.69 3306.24,-134.78 3316.43,-137.68 3316.01,-130.69"/>
</g>
<!-- Node9&#45;&gt;Node44 -->
<g id="edge28" class="edge">
<title>Node9&#45;&gt;Node44</title>
<path fill="none" stroke="midnightblue" d="M3316.3,-135.92C3330.16,-135.18 3344.16,-134.51 3357.5,-134 3859.64,-114.85 5119.78,-159.57 5618.5,-98 5621.24,-97.66 5624.04,-97.25 5626.86,-96.79"/>
<polygon fill="midnightblue" stroke="midnightblue" points="3316.04,-132.43 3306.25,-136.47 3316.43,-139.42 3316.04,-132.43"/>
</g>
<!-- Node45 -->
<g id="node26" class="node">
<title>Node45</title>
<g id="a_node26"><a xlink:href="../../d6/d46/vcontainer_8cpp.html" target="_top" xlink:title=" ">
<polygon fill="white" stroke="black" points="4764,-67.5 4764,-97.5 4871,-97.5 4871,-67.5 4764,-67.5"/>
<text text-anchor="start" x="4772" y="-85.5" font-family="Helvetica,sans-Serif" font-size="10.00">src/libs/vpatterndb</text>
<text text-anchor="middle" x="4817.5" y="-74.5" font-family="Helvetica,sans-Serif" font-size="10.00">/vcontainer.cpp</text>
</a>
</g>
</g>
<!-- Node9&#45;&gt;Node45 -->
<g id="edge29" class="edge">
<title>Node9&#45;&gt;Node45</title>
<path fill="none" stroke="midnightblue" d="M3316.23,-134.18C3317.32,-134.12 3318.41,-134.06 3319.5,-134 3638.26,-117.09 4438.88,-138.56 4755.5,-98 4758.24,-97.65 4761.04,-97.23 4763.85,-96.75"/>
<polygon fill="midnightblue" stroke="midnightblue" points="3316.01,-130.68 3306.24,-134.77 3316.43,-137.67 3316.01,-130.68"/>
</g>
<!-- Node9&#45;&gt;Node46 -->
<g id="edge30" class="edge">
<title>Node9&#45;&gt;Node46</title>
<path fill="none" stroke="midnightblue" d="M3100.31,-142.08C2570.19,-137.48 266.37,-116.52 115.5,-98 112.76,-97.66 109.96,-97.25 107.14,-96.79"/>
<polygon fill="midnightblue" stroke="midnightblue" points="3100.59,-145.58 3110.62,-142.17 3100.65,-138.58 3100.59,-145.58"/>
</g>
<!-- Node48 -->
<g id="node29" class="node">
<title>Node48</title>
<g id="a_node29"><a xlink:href="../../df/d7a/vpiece_8cpp.html" target="_top" xlink:title=" ">
<polygon fill="white" stroke="black" points="4889,-67.5 4889,-97.5 4996,-97.5 4996,-67.5 4889,-67.5"/>
<text text-anchor="start" x="4897" y="-85.5" font-family="Helvetica,sans-Serif" font-size="10.00">src/libs/vpatterndb</text>
<text text-anchor="middle" x="4942.5" y="-74.5" font-family="Helvetica,sans-Serif" font-size="10.00">/vpiece.cpp</text>
</a>
</g>
</g>
<!-- Node9&#45;&gt;Node48 -->
<g id="edge32" class="edge">
<title>Node9&#45;&gt;Node48</title>
<path fill="none" stroke="midnightblue" d="M3316.22,-134.17C3317.32,-134.11 3318.41,-134.06 3319.5,-134 3666.01,-115.97 4536.29,-141.74 4880.5,-98 4883.24,-97.65 4886.04,-97.23 4888.86,-96.76"/>
<polygon fill="midnightblue" stroke="midnightblue" points="3316.01,-130.68 3306.24,-134.76 3316.42,-137.67 3316.01,-130.68"/>
</g>
<!-- Node49 -->
<g id="node30" class="node">
<title>Node49</title>
<g id="a_node30"><a xlink:href="../../de/d3e/vtranslatevars_8cpp.html" target="_top" xlink:title=" ">
<polygon fill="white" stroke="black" points="5014.5,-67.5 5014.5,-97.5 5124.5,-97.5 5124.5,-67.5 5014.5,-67.5"/>
<text text-anchor="start" x="5022.5" y="-85.5" font-family="Helvetica,sans-Serif" font-size="10.00">src/libs/vpatterndb</text>
<text text-anchor="middle" x="5069.5" y="-74.5" font-family="Helvetica,sans-Serif" font-size="10.00">/vtranslatevars.cpp</text>
</a>
</g>
</g>
<!-- Node9&#45;&gt;Node49 -->
<g id="edge33" class="edge">
<title>Node9&#45;&gt;Node49</title>
<path fill="none" stroke="midnightblue" d="M3316.22,-134.17C3317.32,-134.11 3318.41,-134.06 3319.5,-134 3693.76,-114.85 4633.54,-143.63 5005.5,-98 5008.44,-97.64 5011.44,-97.2 5014.47,-96.71"/>
<polygon fill="midnightblue" stroke="midnightblue" points="3316.02,-130.68 3306.24,-134.75 3316.42,-137.67 3316.02,-130.68"/>
</g>
<!-- Node50 -->
<g id="node31" class="node">
<title>Node50</title>
<g id="a_node31"><a xlink:href="../../d3/d4f/mouse__coordinates_8cpp.html" target="_top" xlink:title=" ">
<polygon fill="white" stroke="black" points="5142.5,-67.5 5142.5,-97.5 5276.5,-97.5 5276.5,-67.5 5142.5,-67.5"/>
<text text-anchor="start" x="5150.5" y="-85.5" font-family="Helvetica,sans-Serif" font-size="10.00">src/libs/vwidgets/mouse</text>
<text text-anchor="middle" x="5209.5" y="-74.5" font-family="Helvetica,sans-Serif" font-size="10.00">_coordinates.cpp</text>
</a>
</g>
</g>
<!-- Node9&#45;&gt;Node50 -->
<g id="edge34" class="edge">
<title>Node9&#45;&gt;Node50</title>
<path fill="none" stroke="midnightblue" d="M3316.22,-134.17C3317.32,-134.11 3318.41,-134.05 3319.5,-134 3722.18,-113.7 4732.5,-139.93 5133.5,-98 5136.44,-97.69 5139.43,-97.33 5142.45,-96.93"/>
<polygon fill="midnightblue" stroke="midnightblue" points="3316.02,-130.68 3306.23,-134.74 3316.42,-137.66 3316.02,-130.68"/>
</g>
<!-- Node9&#45;&gt;Node23 -->
<g id="edge35" class="edge">
<title>Node9&#45;&gt;Node23</title>
<path fill="none" stroke="midnightblue" d="M3100.96,-142.48C2605.19,-139.91 552.09,-127.56 266.5,-98 263.73,-97.71 260.91,-97.38 258.07,-97"/>
<polygon fill="midnightblue" stroke="midnightblue" points="3100.96,-145.98 3110.98,-142.53 3100.99,-138.98 3100.96,-145.98"/>
</g>
<!-- Node9&#45;&gt;Node26 -->
<g id="edge36" class="edge">
<title>Node9&#45;&gt;Node26</title>
<path fill="none" stroke="midnightblue" d="M3100.93,-142.4C2620.82,-139.55 685.55,-126.41 415.5,-98 412.77,-97.71 409.98,-97.37 407.18,-97"/>
<polygon fill="midnightblue" stroke="midnightblue" points="3100.95,-145.9 3110.97,-142.46 3100.99,-138.9 3100.95,-145.9"/>
</g>
<!-- Node51 -->
<g id="node34" class="node">
<title>Node51</title>
<g id="a_node34"><a xlink:href="../../d7/d1b/pen__toolbar_8cpp.html" target="_top" xlink:title=" ">
<polygon fill="white" stroke="black" points="5295,-67.5 5295,-97.5 5414,-97.5 5414,-67.5 5295,-67.5"/>
<text text-anchor="start" x="5303" y="-85.5" font-family="Helvetica,sans-Serif" font-size="10.00">src/libs/vwidgets/pen</text>
<text text-anchor="middle" x="5354.5" y="-74.5" font-family="Helvetica,sans-Serif" font-size="10.00">_toolbar.cpp</text>
</a>
</g>
</g>
<!-- Node9&#45;&gt;Node51 -->
<g id="edge37" class="edge">
<title>Node9&#45;&gt;Node51</title>
<path fill="none" stroke="midnightblue" d="M3316.22,-134.17C3317.32,-134.11 3318.41,-134.05 3319.5,-134 3755.92,-112.33 4851.31,-147.15 5285.5,-98 5288.54,-97.66 5291.65,-97.24 5294.77,-96.77"/>
<polygon fill="midnightblue" stroke="midnightblue" points="3316.02,-130.67 3306.23,-134.73 3316.42,-137.66 3316.02,-130.67"/>
</g>
<!-- Node52 -->
<g id="node35" class="node">
<title>Node52</title>
<g id="a_node35"><a xlink:href="../../dd/df6/vabstractmainwindow_8cpp.html" target="_top" xlink:title=" ">
<polygon fill="white" stroke="black" points="1277,-73 1277,-92 1506,-92 1506,-73 1277,-73"/>
<text text-anchor="middle" x="1391.5" y="-80" font-family="Helvetica,sans-Serif" font-size="10.00">src/libs/vwidgets/vabstractmainwindow.cpp</text>
</a>
</g>
</g>
<!-- Node9&#45;&gt;Node52 -->
<g id="edge38" class="edge">
<title>Node9&#45;&gt;Node52</title>
<path fill="none" stroke="midnightblue" d="M3100.41,-143.49C2831.9,-143.97 2113.07,-140.79 1515.5,-98 1495.72,-96.58 1474.24,-94.33 1454.8,-92.01"/>
<polygon fill="midnightblue" stroke="midnightblue" points="3100.55,-146.99 3110.54,-143.47 3100.53,-139.99 3100.55,-146.99"/>
</g>
<!-- Node53 -->
<g id="node36" class="node">
<title>Node53</title>
<g id="a_node36"><a xlink:href="../../d8/d76/scene__rect_8cpp.html" target="_top" xlink:title=" ">
<polygon fill="white" stroke="black" points="1524.5,-67.5 1524.5,-97.5 1654.5,-97.5 1654.5,-67.5 1524.5,-67.5"/>
<text text-anchor="start" x="1532.5" y="-85.5" font-family="Helvetica,sans-Serif" font-size="10.00">src/libs/vwidgets/scene</text>
<text text-anchor="middle" x="1589.5" y="-74.5" font-family="Helvetica,sans-Serif" font-size="10.00">_rect.cpp</text>
</a>
</g>
</g>
<!-- Node9&#45;&gt;Node53 -->
<g id="edge39" class="edge">
<title>Node9&#45;&gt;Node53</title>
<path fill="none" stroke="midnightblue" d="M3100.65,-142.17C2797.63,-139.45 1942.51,-129.18 1663.5,-98 1660.64,-97.68 1657.72,-97.31 1654.78,-96.9"/>
<polygon fill="midnightblue" stroke="midnightblue" points="3100.73,-145.67 3110.76,-142.26 3100.79,-138.67 3100.73,-145.67"/>
</g>
<!-- Node9&#45;&gt;Node54 -->
<g id="edge40" class="edge">
<title>Node9&#45;&gt;Node54</title>
<path fill="none" stroke="midnightblue" d="M3100.57,-141.87C2643.09,-137 876.11,-117.1 627.5,-98 610.18,-96.67 591.38,-94.38 574.48,-92"/>
<polygon fill="midnightblue" stroke="midnightblue" points="3100.77,-145.38 3110.81,-141.98 3100.84,-138.38 3100.77,-145.38"/>
</g>
<!-- Node55 -->
<g id="node38" class="node">
<title>Node55</title>
<g id="a_node38"><a xlink:href="../../de/dec/vgraphicssimpletextitem_8cpp.html" target="_top" xlink:title=" ">
<polygon fill="white" stroke="black" points="1672.5,-73 1672.5,-92 1916.5,-92 1916.5,-73 1672.5,-73"/>
<text text-anchor="middle" x="1794.5" y="-80" font-family="Helvetica,sans-Serif" font-size="10.00">src/libs/vwidgets/vgraphicssimpletextitem.cpp</text>
</a>
</g>
</g>
<!-- Node9&#45;&gt;Node55 -->
<g id="edge41" class="edge">
<title>Node9&#45;&gt;Node55</title>
<path fill="none" stroke="midnightblue" d="M3100.7,-141.95C2879.91,-139.21 2360.4,-129.65 1925.5,-98 1905.07,-96.51 1882.92,-94.29 1862.74,-92.04"/>
<polygon fill="midnightblue" stroke="midnightblue" points="3100.95,-145.46 3110.99,-142.08 3101.03,-138.46 3100.95,-145.46"/>
</g>
<!-- Node56 -->
<g id="node39" class="node">
<title>Node56</title>
<g id="a_node39"><a xlink:href="../../de/d45/vcontrolpointspline_8cpp.html" target="_top" xlink:title=" ">
<polygon fill="white" stroke="black" points="1935,-73 1935,-92 2150,-92 2150,-73 1935,-73"/>
<text text-anchor="middle" x="2042.5" y="-80" font-family="Helvetica,sans-Serif" font-size="10.00">src/libs/vwidgets/vcontrolpointspline.cpp</text>
</a>
</g>
</g>
<!-- Node9&#45;&gt;Node56 -->
<g id="edge42" class="edge">
<title>Node9&#45;&gt;Node56</title>
<path fill="none" stroke="midnightblue" d="M3100.71,-141.23C2910.42,-137.48 2502.6,-126.57 2159.5,-98 2141.35,-96.49 2121.67,-94.28 2103.73,-92.03"/>
<polygon fill="midnightblue" stroke="midnightblue" points="3100.65,-144.73 3110.72,-141.43 3100.79,-137.73 3100.65,-144.73"/>
</g>
<!-- Node9&#45;&gt;Node57 -->
<g id="edge43" class="edge">
<title>Node9&#45;&gt;Node57</title>
<path fill="none" stroke="midnightblue" d="M3316.25,-139.18C3369.58,-137.4 3434.92,-135.37 3493.5,-134 4022.31,-121.65 5345.82,-134.58 5873.5,-98 5892.59,-96.68 5913.34,-94.39 5932,-92.01"/>
<polygon fill="midnightblue" stroke="midnightblue" points="3315.97,-135.69 3306.1,-139.52 3316.21,-142.68 3315.97,-135.69"/>
</g>
<!-- Node9&#45;&gt;Node58 -->
<g id="edge44" class="edge">
<title>Node9&#45;&gt;Node58</title>
<path fill="none" stroke="midnightblue" d="M3100.65,-142.38C2701.79,-139.84 1310.38,-128.93 867.5,-98 848.14,-96.65 827.1,-94.38 808.13,-92.03"/>
<polygon fill="midnightblue" stroke="midnightblue" points="3100.72,-145.88 3110.74,-142.44 3100.77,-138.88 3100.72,-145.88"/>
</g>
<!-- Node59 -->
<g id="node42" class="node">
<title>Node59</title>
<g id="a_node42"><a xlink:href="../../d0/d5d/vscenepoint_8cpp.html" target="_top" xlink:title=" ">
<polygon fill="white" stroke="black" points="2168,-73 2168,-92 2349,-92 2349,-73 2168,-73"/>
<text text-anchor="middle" x="2258.5" y="-80" font-family="Helvetica,sans-Serif" font-size="10.00">src/libs/vwidgets/vscenepoint.cpp</text>
</a>
</g>
</g>
<!-- Node9&#45;&gt;Node59 -->
<g id="edge45" class="edge">
<title>Node9&#45;&gt;Node59</title>
<path fill="none" stroke="midnightblue" d="M3100.33,-140.43C2938.61,-135.87 2624.36,-124.26 2358.5,-98 2342.96,-96.47 2326.14,-94.25 2310.81,-92"/>
<polygon fill="midnightblue" stroke="midnightblue" points="3100.67,-143.94 3110.76,-140.72 3100.86,-136.94 3100.67,-143.94"/>
</g>
<!-- Node27 -->
<g id="node43" class="node">
<title>Node27</title>
<g id="a_node43"><a xlink:href="../../de/d22/vsimplecurve_8cpp.html" target="_top" xlink:title=" ">
<polygon fill="white" stroke="black" points="2367.5,-73 2367.5,-92 2555.5,-92 2555.5,-73 2367.5,-73"/>
<text text-anchor="middle" x="2461.5" y="-80" font-family="Helvetica,sans-Serif" font-size="10.00">src/libs/vwidgets/vsimplecurve.cpp</text>
</a>
</g>
</g>
<!-- Node9&#45;&gt;Node27 -->
<g id="edge46" class="edge">
<title>Node9&#45;&gt;Node27</title>
<path fill="none" stroke="midnightblue" d="M3100.64,-137.72C2972.74,-130.93 2753.24,-117.63 2565.5,-98 2549.91,-96.37 2533.05,-94.2 2517.55,-92.03"/>
<polygon fill="midnightblue" stroke="midnightblue" points="3100.65,-141.22 3110.82,-138.26 3101.02,-134.23 3100.65,-141.22"/>
</g>
<!-- Node60 -->
<g id="node44" class="node">
<title>Node60</title>
<g id="a_node44"><a xlink:href="../../df/d38/vsimplepoint_8cpp.html" target="_top" xlink:title=" ">
<polygon fill="white" stroke="black" points="2574,-73 2574,-92 2759,-92 2759,-73 2574,-73"/>
<text text-anchor="middle" x="2666.5" y="-80" font-family="Helvetica,sans-Serif" font-size="10.00">src/libs/vwidgets/vsimplepoint.cpp</text>
</a>
</g>
</g>
<!-- Node9&#45;&gt;Node60 -->
<g id="edge47" class="edge">
<title>Node9&#45;&gt;Node60</title>
<path fill="none" stroke="midnightblue" d="M3107.35,-133.52C3018.92,-125 2887.08,-111.75 2772.5,-98 2757.47,-96.2 2741.27,-94.07 2726.16,-92.01"/>
<polygon fill="midnightblue" stroke="midnightblue" points="3107.09,-137.01 3117.38,-134.48 3107.76,-130.04 3107.09,-137.01"/>
</g>
<!-- Node9&#45;&gt;Node61 -->
<g id="edge48" class="edge">
<title>Node9&#45;&gt;Node61</title>
<path fill="none" stroke="midnightblue" d="M3100.67,-142.2C2727.49,-139.21 1492.15,-127.3 1096.5,-98 1078.1,-96.64 1058.11,-94.37 1040.08,-92.02"/>
<polygon fill="midnightblue" stroke="midnightblue" points="3100.9,-145.71 3110.93,-142.29 3100.95,-138.71 3100.9,-145.71"/>
</g>
<!-- Node10&#45;&gt;Node7 -->
<g id="edge11" class="edge">
<title>Node10&#45;&gt;Node7</title>
<path fill="none" stroke="midnightblue" d="M3590.19,-67.04C3590.3,-67.03 3590.4,-67.01 3590.5,-67 3823.27,-36.91 4559.98,-21.37 4769.45,-17.49"/>
<polygon fill="midnightblue" stroke="midnightblue" points="3589.92,-63.54 3580.55,-68.48 3590.96,-70.46 3589.92,-63.54"/>
</g>
<!-- Node35&#45;&gt;Node36 -->
<g id="edge18" class="edge">
<title>Node35&#45;&gt;Node36</title>
<path fill="none" stroke="midnightblue" d="M3332.87,-66.67C3262.8,-51.27 3192.23,-36.78 3145.15,-27.25"/>
<polygon fill="midnightblue" stroke="midnightblue" points="3332.23,-70.11 3342.75,-68.84 3333.74,-63.27 3332.23,-70.11"/>
</g>
<!-- Node47 -->
<g id="node28" class="node">
<title>Node47</title>
<g id="a_node28"><a xlink:href="../../d8/dba/vpiecenode_8cpp.html" target="_top" xlink:title=" ">
<polygon fill="white" stroke="black" points="0,-0.5 0,-30.5 107,-30.5 107,-0.5 0,-0.5"/>
<text text-anchor="start" x="8" y="-18.5" font-family="Helvetica,sans-Serif" font-size="10.00">src/libs/vpatterndb</text>
<text text-anchor="middle" x="53.5" y="-7.5" font-family="Helvetica,sans-Serif" font-size="10.00">/vpiecenode.cpp</text>
</a>
</g>
</g>
<!-- Node46&#45;&gt;Node47 -->
<g id="edge31" class="edge">
<title>Node46&#45;&gt;Node47</title>
<path fill="none" stroke="midnightblue" d="M53.5,-57.11C53.5,-48.15 53.5,-38.32 53.5,-30.58"/>
<polygon fill="midnightblue" stroke="midnightblue" points="50,-57.4 53.5,-67.4 57,-57.4 50,-57.4"/>
</g>
<!-- Node63 -->
<g id="node47" class="node">
<title>Node63</title>
<g id="a_node47"><a xlink:href="../../df/dba/vseamlymesettings_8cpp.html" target="_top" xlink:title=" ">
<polygon fill="white" stroke="black" points="1705,-134.5 1705,-153.5 1908,-153.5 1908,-134.5 1705,-134.5"/>
<text text-anchor="middle" x="1806.5" y="-141.5" font-family="Helvetica,sans-Serif" font-size="10.00">src/libs/vmisc/vseamlymesettings.cpp</text>
</a>
</g>
</g>
<!-- Node62&#45;&gt;Node63 -->
<g id="edge50" class="edge">
<title>Node62&#45;&gt;Node63</title>
<path fill="none" stroke="midnightblue" d="M1804.57,-179.8C1805.06,-170.91 1805.62,-160.78 1806.01,-153.75"/>
<polygon fill="midnightblue" stroke="midnightblue" points="1801.06,-179.9 1804,-190.08 1808.04,-180.29 1801.06,-179.9"/>
</g>
<!-- Node64&#45;&gt;Node9 -->
<g id="edge53" class="edge">
<title>Node64&#45;&gt;Node9</title>
<path fill="none" stroke="midnightblue" d="M3418.31,-188.41C3368.99,-178.2 3295.31,-162.96 3249.66,-153.52"/>
<polygon fill="midnightblue" stroke="midnightblue" points="3417.64,-191.84 3428.14,-190.44 3419.06,-184.99 3417.64,-191.84"/>
</g>
<!-- Node64&#45;&gt;Node13 -->
<g id="edge52" class="edge">
<title>Node64&#45;&gt;Node13</title>
<path fill="none" stroke="midnightblue" d="M3470.87,-180.11C3473.08,-164.9 3478.8,-144.42 3493.5,-134 3544.5,-97.86 5681.42,-105.34 5743.5,-98 5746.37,-97.66 5749.3,-97.25 5752.25,-96.78"/>
<polygon fill="midnightblue" stroke="midnightblue" points="3467.35,-180.13 3469.77,-190.45 3474.31,-180.87 3467.35,-180.13"/>
</g>
<!-- Node64&#45;&gt;Node57 -->
<g id="edge55" class="edge">
<title>Node64&#45;&gt;Node57</title>
<path fill="none" stroke="midnightblue" d="M3479.13,-181.4C3488.8,-165.73 3505.29,-143.81 3526.5,-134 3644.86,-79.27 5743.41,-107.03 5873.5,-98 5892.59,-96.67 5913.34,-94.38 5932,-92.01"/>
<polygon fill="midnightblue" stroke="midnightblue" points="3476.02,-179.78 3474.01,-190.18 3482.07,-183.31 3476.02,-179.78"/>
</g>
<!-- Node65 -->
<g id="node49" class="node">
<title>Node65</title>
<g id="a_node49"><a xlink:href="../../db/d28/vsettings_8cpp.html" target="_top" xlink:title=" ">
<polygon fill="white" stroke="black" points="3535.5,-134.5 3535.5,-153.5 3687.5,-153.5 3687.5,-134.5 3535.5,-134.5"/>
<text text-anchor="middle" x="3611.5" y="-141.5" font-family="Helvetica,sans-Serif" font-size="10.00">src/libs/vmisc/vsettings.cpp</text>
</a>
</g>
</g>
<!-- Node64&#45;&gt;Node65 -->
<g id="edge54" class="edge">
<title>Node64&#45;&gt;Node65</title>
<path fill="none" stroke="midnightblue" d="M3501.66,-186.77C3528.33,-176.63 3565.57,-162.47 3589.1,-153.52"/>
<polygon fill="midnightblue" stroke="midnightblue" points="3500.1,-183.62 3492,-190.44 3502.59,-190.16 3500.1,-183.62"/>
</g>
</g>
</svg>
