<?xml version="1.0" encoding="UTF-8" standalone="no"?>
<!DOCTYPE svg PUBLIC "-//W3C//DTD SVG 1.1//EN"
 "http://www.w3.org/Graphics/SVG/1.1/DTD/svg11.dtd">
<!-- Generated by graphviz version 2.43.0 (0)
 -->
<!-- Title: VCommonSettings Pages: 1 -->
<!--zoomable 943 -->

<svg id="main" version="1.1" xmlns="http://www.w3.org/2000/svg" xmlns:xlink="http://www.w3.org/1999/xlink" xml:space="preserve" onload="init(evt)">
<style type="text/css"><![CDATA[
.node, .edge {opacity: 0.7;}
.node.selected, .edge.selected {opacity: 1;}
.edge:hover path { stroke: red; }
.edge:hover polygon { stroke: red; fill: red; }
]]></style>

<defs>
  <circle id="rim" cx="0" cy="0" r="7"/>
  <circle id="rim2" cx="0" cy="0" r="3.5"/>
  <g id="zoomPlus">
    <use xlink:href="#rim" fill="#404040"><set attributeName="fill" to="#808080" begin="zoomplus.mouseover" end="zoomplus.mouseout"/></use>
    <path d="M-4,0h8M0,-4v8" fill="none" stroke="white" stroke-width="1.5" pointer-events="none"/>
  </g>
  <g id="zoomMin">
    <use xlink:href="#rim" fill="#404040"><set attributeName="fill" to="#808080" begin="zoomminus.mouseover" end="zoomminus.mouseout"/></use>
    <path d="M-4,0h8" fill="none" stroke="white" stroke-width="1.5" pointer-events="none"/>
  </g>
  <g id="arrowUp" transform="translate(30 24)">
    <use xlink:href="#rim"/>
    <path pointer-events="none" fill="none" stroke="white" stroke-width="1.5" d="M0,-3.0v7 M-2.5,-0.5L0,-3.0L2.5,-0.5"/>
  </g>
  <g id="arrowRight" transform="rotate(90) translate(36 -43)">
    <use xlink:href="#rim"/>
    <path pointer-events="none" fill="none" stroke="white" stroke-width="1.5" d="M0,-3.0v7 M-2.5,-0.5L0,-3.0L2.5,-0.5"/>
  </g>
  <g id="arrowDown" transform="rotate(180) translate(-30 -48)">
    <use xlink:href="#rim"/>
    <path pointer-events="none" fill="none" stroke="white" stroke-width="1.5" d="M0,-3.0v7 M-2.5,-0.5L0,-3.0L2.5,-0.5"/>
  </g>
  <g id="arrowLeft" transform="rotate(270) translate(-36 17)">
    <use xlink:href="#rim"/>
    <path pointer-events="none" fill="none" stroke="white" stroke-width="1.5" d="M0,-3.0v7 M-2.5,-0.5L0,-3.0L2.5,-0.5"/>
  </g>
  <g id="resetDef">
    <use xlink:href="#rim2" fill="#404040"><set attributeName="fill" to="#808080" begin="reset.mouseover" end="reset.mouseout"/></use>
  </g>
</defs>
<script type="application/ecmascript">
var viewWidth = 346;
var viewHeight = 943;
var sectionId = 'dynsection-0';
</script>
<script type="application/ecmascript" xlink:href="../../svg.min.js"/>
<svg id="graph" class="graph">
<g id="viewport">
<title>VCommonSettings</title>
<!-- Node1 -->
<g id="Node000001" class="node">
<title>Node1</title>
<g id="a_Node000001"><a xlink:title=" ">
<polygon fill="#999999" stroke="transparent" points="246,-850 73,-850 73,-445 246,-445 246,-850"/>
<text text-anchor="start" x="114.5" y="-837.5" font-family="Helvetica,sans-Serif" font-size="10.00">VCommonSettings</text>
<text text-anchor="start" x="77.5" y="-822.5" font-family="Helvetica,sans-Serif" font-size="10.00">+</text>
<text text-anchor="start" x="90.5" y="-822.5" font-family="Helvetica,sans-Serif" font-size="10.00">unixStandardSharePath</text>
<text text-anchor="start" x="77.5" y="-807.5" font-family="Helvetica,sans-Serif" font-size="10.00">+</text>
<text text-anchor="start" x="90.5" y="-807.5" font-family="Helvetica,sans-Serif" font-size="10.00">VCommonSettings()</text>
<text text-anchor="start" x="77.5" y="-792.5" font-family="Helvetica,sans-Serif" font-size="10.00">+</text>
<text text-anchor="start" x="90.5" y="-792.5" font-family="Helvetica,sans-Serif" font-size="10.00">getIndividualSizePath()</text>
<text text-anchor="start" x="77.5" y="-777.5" font-family="Helvetica,sans-Serif" font-size="10.00">+</text>
<text text-anchor="start" x="90.5" y="-777.5" font-family="Helvetica,sans-Serif" font-size="10.00">setIndividualSizePath()</text>
<text text-anchor="start" x="77.5" y="-762.5" font-family="Helvetica,sans-Serif" font-size="10.00">+</text>
<text text-anchor="start" x="90.5" y="-762.5" font-family="Helvetica,sans-Serif" font-size="10.00">getMultisizePath()</text>
<text text-anchor="start" x="77.5" y="-747.5" font-family="Helvetica,sans-Serif" font-size="10.00">+</text>
<text text-anchor="start" x="90.5" y="-747.5" font-family="Helvetica,sans-Serif" font-size="10.00">setMultisizePath()</text>
<text text-anchor="start" x="77.5" y="-732.5" font-family="Helvetica,sans-Serif" font-size="10.00">+</text>
<text text-anchor="start" x="90.5" y="-732.5" font-family="Helvetica,sans-Serif" font-size="10.00">getBodyScansPath()</text>
<text text-anchor="start" x="77.5" y="-717.5" font-family="Helvetica,sans-Serif" font-size="10.00">+</text>
<text text-anchor="start" x="90.5" y="-717.5" font-family="Helvetica,sans-Serif" font-size="10.00">setBodyScansPath()</text>
<text text-anchor="start" x="77.5" y="-702.5" font-family="Helvetica,sans-Serif" font-size="10.00">+</text>
<text text-anchor="start" x="90.5" y="-702.5" font-family="Helvetica,sans-Serif" font-size="10.00">getTemplatePath()</text>
<text text-anchor="start" x="77.5" y="-687.5" font-family="Helvetica,sans-Serif" font-size="10.00">+</text>
<text text-anchor="start" x="90.5" y="-687.5" font-family="Helvetica,sans-Serif" font-size="10.00">setTemplatePath()</text>
<text text-anchor="start" x="77.5" y="-672.5" font-family="Helvetica,sans-Serif" font-size="10.00">+</text>
<text text-anchor="start" x="90.5" y="-672.5" font-family="Helvetica,sans-Serif" font-size="10.00">getLabelTemplatePath()</text>
<text text-anchor="start" x="90.5" y="-657.5" font-family="Helvetica,sans-Serif" font-size="10.00">and 263 more...</text>
<text text-anchor="start" x="77.5" y="-642.5" font-family="Helvetica,sans-Serif" font-size="10.00">+</text>
<text text-anchor="start" x="90.5" y="-642.5" font-family="Helvetica,sans-Serif" font-size="10.00">SharePath()</text>
<text text-anchor="start" x="77.5" y="-627.5" font-family="Helvetica,sans-Serif" font-size="10.00">+</text>
<text text-anchor="start" x="90.5" y="-627.5" font-family="Helvetica,sans-Serif" font-size="10.00">MultisizeTablesPath()</text>
<text text-anchor="start" x="77.5" y="-612.5" font-family="Helvetica,sans-Serif" font-size="10.00">+</text>
<text text-anchor="start" x="90.5" y="-612.5" font-family="Helvetica,sans-Serif" font-size="10.00">StandardTemplatesPath()</text>
<text text-anchor="start" x="77.5" y="-597.5" font-family="Helvetica,sans-Serif" font-size="10.00">+</text>
<text text-anchor="start" x="90.5" y="-597.5" font-family="Helvetica,sans-Serif" font-size="10.00">PrepareStandardTemplates()</text>
<text text-anchor="start" x="77.5" y="-582.5" font-family="Helvetica,sans-Serif" font-size="10.00">+</text>
<text text-anchor="start" x="90.5" y="-582.5" font-family="Helvetica,sans-Serif" font-size="10.00">prepareMultisizeTables()</text>
<text text-anchor="start" x="77.5" y="-567.5" font-family="Helvetica,sans-Serif" font-size="10.00">+</text>
<text text-anchor="start" x="90.5" y="-567.5" font-family="Helvetica,sans-Serif" font-size="10.00">getDefaultIndividualSize</text>
<text text-anchor="start" x="90.5" y="-556.5" font-family="Helvetica,sans-Serif" font-size="10.00">Path()</text>
<text text-anchor="start" x="77.5" y="-541.5" font-family="Helvetica,sans-Serif" font-size="10.00">+</text>
<text text-anchor="start" x="90.5" y="-541.5" font-family="Helvetica,sans-Serif" font-size="10.00">getDefaultMultisizePath()</text>
<text text-anchor="start" x="77.5" y="-526.5" font-family="Helvetica,sans-Serif" font-size="10.00">+</text>
<text text-anchor="start" x="90.5" y="-526.5" font-family="Helvetica,sans-Serif" font-size="10.00">getDefaultBodyScansPath()</text>
<text text-anchor="start" x="77.5" y="-511.5" font-family="Helvetica,sans-Serif" font-size="10.00">+</text>
<text text-anchor="start" x="90.5" y="-511.5" font-family="Helvetica,sans-Serif" font-size="10.00">getDefaultTemplatePath()</text>
<text text-anchor="start" x="77.5" y="-496.5" font-family="Helvetica,sans-Serif" font-size="10.00">+</text>
<text text-anchor="start" x="90.5" y="-496.5" font-family="Helvetica,sans-Serif" font-size="10.00">getDefaultLabelTemplatePath()</text>
<text text-anchor="start" x="77.5" y="-481.5" font-family="Helvetica,sans-Serif" font-size="10.00">+</text>
<text text-anchor="start" x="90.5" y="-481.5" font-family="Helvetica,sans-Serif" font-size="10.00">getDefaultImageFilePath()</text>
<text text-anchor="start" x="77.5" y="-466.5" font-family="Helvetica,sans-Serif" font-size="10.00">+</text>
<text text-anchor="start" x="90.5" y="-466.5" font-family="Helvetica,sans-Serif" font-size="10.00">PredefinedDateFormats()</text>
<text text-anchor="start" x="77.5" y="-451.5" font-family="Helvetica,sans-Serif" font-size="10.00">+</text>
<text text-anchor="start" x="90.5" y="-451.5" font-family="Helvetica,sans-Serif" font-size="10.00">PredefinedTimeFormats()</text>
<polygon fill="#666666" stroke="#666666" points="73.5,-832.5 73.5,-832.5 246.5,-832.5 246.5,-832.5 73.5,-832.5"/>
<polygon fill="#666666" stroke="#666666" points="73.5,-817.5 73.5,-817.5 88.5,-817.5 88.5,-817.5 73.5,-817.5"/>
<polygon fill="#666666" stroke="#666666" points="88.5,-817.5 88.5,-817.5 246.5,-817.5 246.5,-817.5 88.5,-817.5"/>
<polygon fill="none" stroke="#666666" points="73,-445 73,-850 246,-850 246,-445 73,-445"/>
</a>
</g>
</g>
<!-- Node3 -->
<g id="Node000003" class="node">
<title>Node3</title>
<g id="a_Node000003"><a xlink:href="../../dd/d44/classVSeamlyMeSettings.html" target="_top" xlink:title=" ">
<polygon fill="white" stroke="transparent" points="141,-274 0,-274 0,-135 141,-135 141,-274"/>
<text text-anchor="start" x="21.5" y="-261.5" font-family="Helvetica,sans-Serif" font-size="10.00">VSeamlyMeSettings</text>
<text text-anchor="start" x="69" y="-246.5" font-family="Helvetica,sans-Serif" font-size="10.00"> </text>
<text text-anchor="start" x="4.5" y="-231.5" font-family="Helvetica,sans-Serif" font-size="10.00">+</text>
<text text-anchor="start" x="17.5" y="-231.5" font-family="Helvetica,sans-Serif" font-size="10.00">VSeamlyMeSettings()</text>
<text text-anchor="start" x="4.5" y="-216.5" font-family="Helvetica,sans-Serif" font-size="10.00">+</text>
<text text-anchor="start" x="17.5" y="-216.5" font-family="Helvetica,sans-Serif" font-size="10.00">getDataBaseGeometry()</text>
<text text-anchor="start" x="4.5" y="-201.5" font-family="Helvetica,sans-Serif" font-size="10.00">+</text>
<text text-anchor="start" x="17.5" y="-201.5" font-family="Helvetica,sans-Serif" font-size="10.00">setDataBaseGeometry()</text>
<text text-anchor="start" x="4.5" y="-186.5" font-family="Helvetica,sans-Serif" font-size="10.00">+</text>
<text text-anchor="start" x="17.5" y="-186.5" font-family="Helvetica,sans-Serif" font-size="10.00">SetDefHeight()</text>
<text text-anchor="start" x="4.5" y="-171.5" font-family="Helvetica,sans-Serif" font-size="10.00">+</text>
<text text-anchor="start" x="17.5" y="-171.5" font-family="Helvetica,sans-Serif" font-size="10.00">GetDefHeight()</text>
<text text-anchor="start" x="4.5" y="-156.5" font-family="Helvetica,sans-Serif" font-size="10.00">+</text>
<text text-anchor="start" x="17.5" y="-156.5" font-family="Helvetica,sans-Serif" font-size="10.00">SetDefSize()</text>
<text text-anchor="start" x="4.5" y="-141.5" font-family="Helvetica,sans-Serif" font-size="10.00">+</text>
<text text-anchor="start" x="17.5" y="-141.5" font-family="Helvetica,sans-Serif" font-size="10.00">GetDefSize()</text>
<polygon fill="#666666" stroke="#666666" points="0.5,-256.5 0.5,-256.5 141.5,-256.5 141.5,-256.5 0.5,-256.5"/>
<polygon fill="#666666" stroke="#666666" points="0.5,-241.5 0.5,-241.5 141.5,-241.5 141.5,-241.5 0.5,-241.5"/>
<polygon fill="none" stroke="#666666" points="0,-135 0,-274 141,-274 141,-135 0,-135"/>
</a>
</g>
</g>
<!-- Node1&#45;&gt;Node3 -->
<g id="edge2_Node000001_Node000003" class="edge">
<title>Node1&#45;&gt;Node3</title>
<g id="a_edge2_Node000001_Node000003"><a xlink:title=" ">
<path fill="none" stroke="#63b8ff" d="M116.74,-434.63C105.01,-376.49 93.11,-317.55 84.33,-274.01"/>
<polygon fill="none" stroke="#63b8ff" points="113.37,-435.6 118.78,-444.71 120.23,-434.22 113.37,-435.6"/>
</a>
</g>
</g>
<!-- Node4 -->
<g id="Node000004" class="node">
<title>Node4</title>
<g id="a_Node000004"><a xlink:href="../../d4/d80/classVSettings.html" target="_top" xlink:title=" ">
<polygon fill="white" stroke="transparent" points="338,-409 159,-409 159,0 338,0 338,-409"/>
<text text-anchor="start" x="225.5" y="-396.5" font-family="Helvetica,sans-Serif" font-size="10.00">VSettings</text>
<text text-anchor="start" x="247" y="-381.5" font-family="Helvetica,sans-Serif" font-size="10.00"> </text>
<text text-anchor="start" x="163.5" y="-366.5" font-family="Helvetica,sans-Serif" font-size="10.00">+</text>
<text text-anchor="start" x="176.5" y="-366.5" font-family="Helvetica,sans-Serif" font-size="10.00">VSettings()</text>
<text text-anchor="start" x="163.5" y="-351.5" font-family="Helvetica,sans-Serif" font-size="10.00">+</text>
<text text-anchor="start" x="176.5" y="-351.5" font-family="Helvetica,sans-Serif" font-size="10.00">getPointNameLanguage()</text>
<text text-anchor="start" x="163.5" y="-336.5" font-family="Helvetica,sans-Serif" font-size="10.00">+</text>
<text text-anchor="start" x="176.5" y="-336.5" font-family="Helvetica,sans-Serif" font-size="10.00">setPointNameLanguage()</text>
<text text-anchor="start" x="163.5" y="-321.5" font-family="Helvetica,sans-Serif" font-size="10.00">+</text>
<text text-anchor="start" x="176.5" y="-321.5" font-family="Helvetica,sans-Serif" font-size="10.00">getPatternPath()</text>
<text text-anchor="start" x="163.5" y="-306.5" font-family="Helvetica,sans-Serif" font-size="10.00">+</text>
<text text-anchor="start" x="176.5" y="-306.5" font-family="Helvetica,sans-Serif" font-size="10.00">SetPathPattern()</text>
<text text-anchor="start" x="163.5" y="-291.5" font-family="Helvetica,sans-Serif" font-size="10.00">+</text>
<text text-anchor="start" x="176.5" y="-291.5" font-family="Helvetica,sans-Serif" font-size="10.00">getLayoutPath()</text>
<text text-anchor="start" x="163.5" y="-276.5" font-family="Helvetica,sans-Serif" font-size="10.00">+</text>
<text text-anchor="start" x="176.5" y="-276.5" font-family="Helvetica,sans-Serif" font-size="10.00">SetPathLayout()</text>
<text text-anchor="start" x="163.5" y="-261.5" font-family="Helvetica,sans-Serif" font-size="10.00">+</text>
<text text-anchor="start" x="176.5" y="-261.5" font-family="Helvetica,sans-Serif" font-size="10.00">GetGraphicalOutput()</text>
<text text-anchor="start" x="163.5" y="-246.5" font-family="Helvetica,sans-Serif" font-size="10.00">+</text>
<text text-anchor="start" x="176.5" y="-246.5" font-family="Helvetica,sans-Serif" font-size="10.00">SetGraphicalOutput()</text>
<text text-anchor="start" x="163.5" y="-231.5" font-family="Helvetica,sans-Serif" font-size="10.00">+</text>
<text text-anchor="start" x="176.5" y="-231.5" font-family="Helvetica,sans-Serif" font-size="10.00">GetServer()</text>
<text text-anchor="start" x="176.5" y="-216.5" font-family="Helvetica,sans-Serif" font-size="10.00">and 57 more...</text>
<text text-anchor="start" x="163.5" y="-201.5" font-family="Helvetica,sans-Serif" font-size="10.00">+</text>
<text text-anchor="start" x="176.5" y="-201.5" font-family="Helvetica,sans-Serif" font-size="10.00">getDefaultPatternPath()</text>
<text text-anchor="start" x="163.5" y="-186.5" font-family="Helvetica,sans-Serif" font-size="10.00">+</text>
<text text-anchor="start" x="176.5" y="-186.5" font-family="Helvetica,sans-Serif" font-size="10.00">getDefaultLayoutPath()</text>
<text text-anchor="start" x="163.5" y="-171.5" font-family="Helvetica,sans-Serif" font-size="10.00">+</text>
<text text-anchor="start" x="176.5" y="-171.5" font-family="Helvetica,sans-Serif" font-size="10.00">GetDefLayoutShift()</text>
<text text-anchor="start" x="163.5" y="-156.5" font-family="Helvetica,sans-Serif" font-size="10.00">+</text>
<text text-anchor="start" x="176.5" y="-156.5" font-family="Helvetica,sans-Serif" font-size="10.00">GetDefLayoutWidth()</text>
<text text-anchor="start" x="163.5" y="-141.5" font-family="Helvetica,sans-Serif" font-size="10.00">+</text>
<text text-anchor="start" x="176.5" y="-141.5" font-family="Helvetica,sans-Serif" font-size="10.00">GetDefLayoutGroup()</text>
<text text-anchor="start" x="163.5" y="-126.5" font-family="Helvetica,sans-Serif" font-size="10.00">+</text>
<text text-anchor="start" x="176.5" y="-126.5" font-family="Helvetica,sans-Serif" font-size="10.00">GetDefLayoutRotate()</text>
<text text-anchor="start" x="163.5" y="-111.5" font-family="Helvetica,sans-Serif" font-size="10.00">+</text>
<text text-anchor="start" x="176.5" y="-111.5" font-family="Helvetica,sans-Serif" font-size="10.00">GetDefLayoutRotationIncrease()</text>
<text text-anchor="start" x="163.5" y="-96.5" font-family="Helvetica,sans-Serif" font-size="10.00">+</text>
<text text-anchor="start" x="176.5" y="-96.5" font-family="Helvetica,sans-Serif" font-size="10.00">GetDefLayoutAutoCrop()</text>
<text text-anchor="start" x="163.5" y="-81.5" font-family="Helvetica,sans-Serif" font-size="10.00">+</text>
<text text-anchor="start" x="176.5" y="-81.5" font-family="Helvetica,sans-Serif" font-size="10.00">GetDefLayoutSaveLength()</text>
<text text-anchor="start" x="163.5" y="-66.5" font-family="Helvetica,sans-Serif" font-size="10.00">+</text>
<text text-anchor="start" x="176.5" y="-66.5" font-family="Helvetica,sans-Serif" font-size="10.00">GetDefLayoutUnitePages()</text>
<text text-anchor="start" x="163.5" y="-51.5" font-family="Helvetica,sans-Serif" font-size="10.00">+</text>
<text text-anchor="start" x="176.5" y="-51.5" font-family="Helvetica,sans-Serif" font-size="10.00">GetDefIgnoreAllFields()</text>
<text text-anchor="start" x="163.5" y="-36.5" font-family="Helvetica,sans-Serif" font-size="10.00">+</text>
<text text-anchor="start" x="176.5" y="-36.5" font-family="Helvetica,sans-Serif" font-size="10.00">GetDefStripOptimization()</text>
<text text-anchor="start" x="163.5" y="-21.5" font-family="Helvetica,sans-Serif" font-size="10.00">+</text>
<text text-anchor="start" x="176.5" y="-21.5" font-family="Helvetica,sans-Serif" font-size="10.00">GetDefMultiplier()</text>
<text text-anchor="start" x="163.5" y="-6.5" font-family="Helvetica,sans-Serif" font-size="10.00">+</text>
<text text-anchor="start" x="176.5" y="-6.5" font-family="Helvetica,sans-Serif" font-size="10.00">GetDefTextAsPaths()</text>
<polygon fill="#666666" stroke="#666666" points="159.5,-391.5 159.5,-391.5 338.5,-391.5 338.5,-391.5 159.5,-391.5"/>
<polygon fill="#666666" stroke="#666666" points="159.5,-376.5 159.5,-376.5 338.5,-376.5 338.5,-376.5 159.5,-376.5"/>
<polygon fill="none" stroke="#666666" points="159,0 159,-409 338,-409 338,0 159,0"/>
</a>
</g>
</g>
<!-- Node1&#45;&gt;Node4 -->
<g id="edge3_Node000001_Node000004" class="edge">
<title>Node1&#45;&gt;Node4</title>
<g id="a_edge3_Node000001_Node000004"><a xlink:title=" ">
<path fill="none" stroke="#63b8ff" d="M202.23,-434.75C203.95,-426.25 205.67,-417.74 207.38,-409.25"/>
<polygon fill="none" stroke="#63b8ff" points="198.77,-434.22 200.22,-444.71 205.63,-435.6 198.77,-434.22"/>
</a>
</g>
</g>
<!-- Node2 -->
<g id="Node000002" class="node">
<title>Node2</title>
<g id="a_Node000002"><a xlink:title=" ">
<polygon fill="white" stroke="transparent" points="188.5,-935 130.5,-935 130.5,-886 188.5,-886 188.5,-935"/>
<text text-anchor="start" x="135.5" y="-922.5" font-family="Helvetica,sans-Serif" font-size="10.00">QSettings</text>
<text text-anchor="start" x="157.5" y="-907.5" font-family="Helvetica,sans-Serif" font-size="10.00"> </text>
<text text-anchor="start" x="157.5" y="-892.5" font-family="Helvetica,sans-Serif" font-size="10.00"> </text>
<polygon fill="#666666" stroke="#666666" points="130.5,-917.5 130.5,-917.5 188.5,-917.5 188.5,-917.5 130.5,-917.5"/>
<polygon fill="#666666" stroke="#666666" points="130.5,-902.5 130.5,-902.5 188.5,-902.5 188.5,-902.5 130.5,-902.5"/>
<polygon fill="none" stroke="#666666" points="130.5,-886 130.5,-935 188.5,-935 188.5,-886 130.5,-886"/>
</a>
</g>
</g>
<!-- Node2&#45;&gt;Node1 -->
<g id="edge1_Node000001_Node000002" class="edge">
<title>Node2&#45;&gt;Node1</title>
<g id="a_edge1_Node000001_Node000002"><a xlink:title=" ">
<path fill="none" stroke="#63b8ff" d="M159.5,-875.8C159.5,-868.17 159.5,-859.53 159.5,-850.2"/>
<polygon fill="none" stroke="#63b8ff" points="156,-875.88 159.5,-885.88 163,-875.88 156,-875.88"/>
</a>
</g>
</g>
</g>
</svg>

<g id="navigator" transform="translate(0 0)" fill="#404254">
  <rect fill="#f2f5e9" fill-opacity="0.5" stroke="#606060" stroke-width=".5" x="0" y="0" width="60" height="60"/>
  <use id="zoomplus" xlink:href="#zoomPlus" x="17" y="9" onmousedown="handleZoom(evt,'in')"/>
  <use id="zoomminus" xlink:href="#zoomMin" x="42" y="9" onmousedown="handleZoom(evt,'out')"/>
  <use id="reset" xlink:href="#resetDef" x="30" y="36" onmousedown="handleReset()"/>
   <use id="arrowup" xlink:href="#arrowUp" x="0" y="0" onmousedown="handlePan(0,-1)"/>
  <use id="arrowright" xlink:href="#arrowRight" x="0" y="0" onmousedown="handlePan(1,0)"/>
  <use id="arrowdown" xlink:href="#arrowDown" x="0" y="0" onmousedown="handlePan(0,1)"/>
  <use id="arrowleft" xlink:href="#arrowLeft" x="0" y="0" onmousedown="handlePan(-1,0)"/>
</g>
<svg viewBox="0 0 15 15" width="100%" height="30px" preserveAspectRatio="xMaxYMin meet">
 <g id="arrow_out" transform="scale(0.3 0.3)">
  <a xlink:href="classVCommonSettings__inherit__graph_org.svg" target="_base">
   <rect id="button" ry="5" rx="5" y="6" x="6" height="38" width="38"
        fill="#f2f5e9" fill-opacity="0.5" stroke="#606060" stroke-width="1.0"/>
   <path id="arrow"
     d="M 11.500037,31.436501 C 11.940474,20.09759 22.043105,11.32322 32.158766,21.979434 L 37.068811,17.246167 C 37.068811,17.246167 37.088388,32 37.088388,32 L 22.160133,31.978069 C 22.160133,31.978069 26.997745,27.140456 26.997745,27.140456 C 18.528582,18.264221 13.291696,25.230495 11.500037,31.436501 z"
     style="fill:#404040;"/>
  </a>
 </g>
</svg>

<style type='text/css'>
<![CDATA[
[data-mouse-over-selected='false'] { opacity: 0.7; }
[data-mouse-over-selected='true']  { opacity: 1.0; }
]]>
</style>
<script type="application/ecmascript"><![CDATA[
document.addEventListener('DOMContentLoaded', (event) => {
  highlightEdges();
  highlightAdjacentNodes();
});
]]></script>
</svg>
