<?xml version="1.0" encoding="UTF-8" standalone="no"?>
<!DOCTYPE svg PUBLIC "-//W3C//DTD SVG 1.1//EN"
 "http://www.w3.org/Graphics/SVG/1.1/DTD/svg11.dtd">
<!-- Generated by graphviz version 2.43.0 (0)
 -->
<!-- Title: src/libs/vpatterndb/vpiece.h Pages: 1 -->
<svg width="4358pt" height="318pt"
 viewBox="0.00 0.00 4357.50 318.00" xmlns="http://www.w3.org/2000/svg" xmlns:xlink="http://www.w3.org/1999/xlink">
<g id="graph0" class="graph" transform="scale(1 1) rotate(0) translate(4 314)">
<title>src/libs/vpatterndb/vpiece.h</title>
<polygon fill="white" stroke="transparent" points="-4,4 -4,-314 4353.5,-314 4353.5,4 -4,4"/>
<!-- Node1 -->
<g id="node1" class="node">
<title>Node1</title>
<g id="a_node1"><a xlink:title=" ">
<polygon fill="#bfbfbf" stroke="black" points="3227.5,-279.5 3227.5,-309.5 3334.5,-309.5 3334.5,-279.5 3227.5,-279.5"/>
<text text-anchor="start" x="3235.5" y="-297.5" font-family="Helvetica,sans-Serif" font-size="10.00">src/libs/vpatterndb</text>
<text text-anchor="middle" x="3281" y="-286.5" font-family="Helvetica,sans-Serif" font-size="10.00">/vpiece.h</text>
</a>
</g>
</g>
<!-- Node2 -->
<g id="node2" class="node">
<title>Node2</title>
<g id="a_node2"><a xlink:href="../../d3/df7/vcontainer_8h.html" target="_top" xlink:title=" ">
<polygon fill="white" stroke="black" points="1567.5,-212.5 1567.5,-242.5 1674.5,-242.5 1674.5,-212.5 1567.5,-212.5"/>
<text text-anchor="start" x="1575.5" y="-230.5" font-family="Helvetica,sans-Serif" font-size="10.00">src/libs/vpatterndb</text>
<text text-anchor="middle" x="1621" y="-219.5" font-family="Helvetica,sans-Serif" font-size="10.00">/vcontainer.h</text>
</a>
</g>
</g>
<!-- Node1&#45;&gt;Node2 -->
<g id="edge1" class="edge">
<title>Node1&#45;&gt;Node2</title>
<path fill="none" stroke="midnightblue" d="M3216.85,-290.99C2948.86,-280.49 1921.29,-240.26 1674.51,-230.6"/>
<polygon fill="midnightblue" stroke="midnightblue" points="3217.05,-294.5 3227.18,-291.39 3217.33,-287.5 3217.05,-294.5"/>
</g>
<!-- Node47 -->
<g id="node33" class="node">
<title>Node47</title>
<g id="a_node33"><a xlink:href="../../df/d7a/vpiece_8cpp.html" target="_top" xlink:title=" ">
<polygon fill="white" stroke="black" points="4229.5,-67.5 4229.5,-97.5 4336.5,-97.5 4336.5,-67.5 4229.5,-67.5"/>
<text text-anchor="start" x="4237.5" y="-85.5" font-family="Helvetica,sans-Serif" font-size="10.00">src/libs/vpatterndb</text>
<text text-anchor="middle" x="4283" y="-74.5" font-family="Helvetica,sans-Serif" font-size="10.00">/vpiece.cpp</text>
</a>
</g>
</g>
<!-- Node1&#45;&gt;Node47 -->
<g id="edge52" class="edge">
<title>Node1&#45;&gt;Node47</title>
<path fill="none" stroke="midnightblue" d="M3275.42,-269.42C3268.79,-233.98 3262.87,-168.29 3300,-134 3337.62,-99.26 4170.26,-104.86 4221,-98 4223.74,-97.63 4226.53,-97.19 4229.35,-96.71"/>
<polygon fill="midnightblue" stroke="midnightblue" points="3272.02,-270.28 3277.45,-279.37 3278.88,-268.88 3272.02,-270.28"/>
</g>
<!-- Node69 -->
<g id="node40" class="node">
<title>Node69</title>
<g id="a_node40"><a xlink:href="../../d1/d3a/abstracttest_8cpp.html" target="_top" xlink:title=" ">
<polygon fill="white" stroke="black" points="2945.5,-145.5 2945.5,-164.5 3106.5,-164.5 3106.5,-145.5 2945.5,-145.5"/>
<text text-anchor="middle" x="3026" y="-152.5" font-family="Helvetica,sans-Serif" font-size="10.00">src/libs/vtest/abstracttest.cpp</text>
</a>
</g>
</g>
<!-- Node1&#45;&gt;Node69 -->
<g id="edge53" class="edge">
<title>Node1&#45;&gt;Node69</title>
<path fill="none" stroke="midnightblue" d="M3245.8,-274.52C3189.68,-244.26 3082.18,-186.29 3041.83,-164.53"/>
<polygon fill="midnightblue" stroke="midnightblue" points="3244.21,-277.64 3254.67,-279.3 3247.53,-271.48 3244.21,-277.64"/>
</g>
<!-- Node70 -->
<g id="node41" class="node">
<title>Node70</title>
<g id="a_node41"><a xlink:href="../../da/db4/piece__tablewidgetitem_8cpp.html" target="_top" xlink:title=" ">
<polygon fill="white" stroke="black" points="3125,-140 3125,-170 3253,-170 3253,-140 3125,-140"/>
<text text-anchor="start" x="3133" y="-158" font-family="Helvetica,sans-Serif" font-size="10.00">src/libs/vwidgets/piece</text>
<text text-anchor="middle" x="3189" y="-147" font-family="Helvetica,sans-Serif" font-size="10.00">_tablewidgetitem.cpp</text>
</a>
</g>
</g>
<!-- Node1&#45;&gt;Node70 -->
<g id="edge65" class="edge">
<title>Node1&#45;&gt;Node70</title>
<path fill="none" stroke="midnightblue" d="M3265.8,-270.79C3246.72,-242.26 3214.55,-194.19 3198.59,-170.33"/>
<polygon fill="midnightblue" stroke="midnightblue" points="3263.03,-272.94 3271.5,-279.3 3268.85,-269.05 3263.03,-272.94"/>
</g>
<!-- Node71 -->
<g id="node42" class="node">
<title>Node71</title>
<g id="a_node42"><a xlink:href="../../d2/de0/addpiece_8h.html" target="_top" xlink:title=" ">
<polygon fill="white" stroke="black" points="3309.5,-212.5 3309.5,-242.5 3474.5,-242.5 3474.5,-212.5 3309.5,-212.5"/>
<text text-anchor="start" x="3317.5" y="-230.5" font-family="Helvetica,sans-Serif" font-size="10.00">src/libs/vtools/undocommands</text>
<text text-anchor="middle" x="3392" y="-219.5" font-family="Helvetica,sans-Serif" font-size="10.00">/addpiece.h</text>
</a>
</g>
</g>
<!-- Node1&#45;&gt;Node71 -->
<g id="edge54" class="edge">
<title>Node1&#45;&gt;Node71</title>
<path fill="none" stroke="midnightblue" d="M3313.8,-274.3C3331.16,-264.12 3352.12,-251.85 3367.96,-242.58"/>
<polygon fill="midnightblue" stroke="midnightblue" points="3311.95,-271.32 3305.09,-279.4 3315.48,-277.36 3311.95,-271.32"/>
</g>
<!-- Node74 -->
<g id="node45" class="node">
<title>Node74</title>
<g id="a_node45"><a xlink:href="../../da/d10/deletepiece_8h.html" target="_top" xlink:title=" ">
<polygon fill="white" stroke="black" points="3492.5,-212.5 3492.5,-242.5 3657.5,-242.5 3657.5,-212.5 3492.5,-212.5"/>
<text text-anchor="start" x="3500.5" y="-230.5" font-family="Helvetica,sans-Serif" font-size="10.00">src/libs/vtools/undocommands</text>
<text text-anchor="middle" x="3575" y="-219.5" font-family="Helvetica,sans-Serif" font-size="10.00">/deletepiece.h</text>
</a>
</g>
</g>
<!-- Node1&#45;&gt;Node74 -->
<g id="edge57" class="edge">
<title>Node1&#45;&gt;Node74</title>
<path fill="none" stroke="midnightblue" d="M3344.51,-279.46C3393.93,-268.53 3462.17,-253.45 3511.56,-242.53"/>
<polygon fill="midnightblue" stroke="midnightblue" points="3343.59,-276.08 3334.58,-281.65 3345.1,-282.91 3343.59,-276.08"/>
</g>
<!-- Node76 -->
<g id="node47" class="node">
<title>Node76</title>
<g id="a_node47"><a xlink:href="../../d2/d6b/savepieceoptions_8h.html" target="_top" xlink:title=" ">
<polygon fill="white" stroke="black" points="3824.5,-212.5 3824.5,-242.5 3989.5,-242.5 3989.5,-212.5 3824.5,-212.5"/>
<text text-anchor="start" x="3832.5" y="-230.5" font-family="Helvetica,sans-Serif" font-size="10.00">src/libs/vtools/undocommands</text>
<text text-anchor="middle" x="3907" y="-219.5" font-family="Helvetica,sans-Serif" font-size="10.00">/savepieceoptions.h</text>
</a>
</g>
</g>
<!-- Node1&#45;&gt;Node76 -->
<g id="edge60" class="edge">
<title>Node1&#45;&gt;Node76</title>
<path fill="none" stroke="midnightblue" d="M3344.62,-286.89C3458.67,-275.05 3697.8,-250.22 3824.36,-237.08"/>
<polygon fill="midnightblue" stroke="midnightblue" points="3344.23,-283.42 3334.64,-287.93 3344.95,-290.38 3344.23,-283.42"/>
</g>
<!-- Node3 -->
<g id="node3" class="node">
<title>Node3</title>
<g id="a_node3"><a xlink:href="../../dc/db7/measurements_8h.html" target="_top" xlink:title=" ">
<polygon fill="white" stroke="black" points="163.5,-145.5 163.5,-164.5 342.5,-164.5 342.5,-145.5 163.5,-145.5"/>
<text text-anchor="middle" x="253" y="-152.5" font-family="Helvetica,sans-Serif" font-size="10.00">src/libs/vformat/measurements.h</text>
</a>
</g>
</g>
<!-- Node2&#45;&gt;Node3 -->
<g id="edge2" class="edge">
<title>Node2&#45;&gt;Node3</title>
<path fill="none" stroke="midnightblue" d="M1557.41,-224.34C1387.29,-218.4 907.61,-200.62 509,-176 453.71,-172.59 391.79,-167.77 342.69,-163.73"/>
<polygon fill="midnightblue" stroke="midnightblue" points="1557.33,-227.84 1567.44,-224.69 1557.57,-220.84 1557.33,-227.84"/>
</g>
<!-- Node4 -->
<g id="node4" class="node">
<title>Node4</title>
<g id="a_node4"><a xlink:href="../../d9/de3/measurements_8cpp.html" target="_top" xlink:title=" ">
<polygon fill="white" stroke="black" points="0,-73 0,-92 190,-92 190,-73 0,-73"/>
<text text-anchor="middle" x="95" y="-80" font-family="Helvetica,sans-Serif" font-size="10.00">src/libs/vformat/measurements.cpp</text>
</a>
</g>
</g>
<!-- Node2&#45;&gt;Node4 -->
<g id="edge5" class="edge">
<title>Node2&#45;&gt;Node4</title>
<path fill="none" stroke="midnightblue" d="M1556.79,-225.3C1443.08,-222.27 1211.56,-211.77 1140,-176 1117.21,-164.61 1124.14,-144.65 1101,-134 1009.88,-92.08 298.9,-106.94 199,-98 182.57,-96.53 164.76,-94.29 148.59,-92"/>
<polygon fill="midnightblue" stroke="midnightblue" points="1557,-228.81 1567.09,-225.56 1557.18,-221.81 1557,-228.81"/>
</g>
<!-- Node5 -->
<g id="node5" class="node">
<title>Node5</title>
<g id="a_node5"><a xlink:href="../../d2/d47/image__dialog_8cpp.html" target="_top" xlink:title=" ">
<polygon fill="white" stroke="black" points="1565,-67.5 1565,-97.5 1677,-97.5 1677,-67.5 1565,-67.5"/>
<text text-anchor="start" x="1573" y="-85.5" font-family="Helvetica,sans-Serif" font-size="10.00">src/libs/tools/image</text>
<text text-anchor="middle" x="1621" y="-74.5" font-family="Helvetica,sans-Serif" font-size="10.00">_dialog.cpp</text>
</a>
</g>
</g>
<!-- Node2&#45;&gt;Node5 -->
<g id="edge4" class="edge">
<title>Node2&#45;&gt;Node5</title>
<path fill="none" stroke="midnightblue" d="M1621,-202.19C1621,-172.16 1621,-122.05 1621,-97.68"/>
<polygon fill="midnightblue" stroke="midnightblue" points="1617.5,-202.27 1621,-212.27 1624.5,-202.27 1617.5,-202.27"/>
</g>
<!-- Node6 -->
<g id="node6" class="node">
<title>Node6</title>
<g id="a_node6"><a xlink:href="../../d6/de0/vlayoutpiece_8h.html" target="_top" xlink:title=" ">
<polygon fill="white" stroke="black" points="1149,-145.5 1149,-164.5 1315,-164.5 1315,-145.5 1149,-145.5"/>
<text text-anchor="middle" x="1232" y="-152.5" font-family="Helvetica,sans-Serif" font-size="10.00">src/libs/vlayout/vlayoutpiece.h</text>
</a>
</g>
</g>
<!-- Node2&#45;&gt;Node6 -->
<g id="edge6" class="edge">
<title>Node2&#45;&gt;Node6</title>
<path fill="none" stroke="midnightblue" d="M1557.4,-216.11C1498.18,-206.28 1407.48,-190.87 1329,-176 1310.25,-172.45 1289.52,-168.21 1272.06,-164.56"/>
<polygon fill="midnightblue" stroke="midnightblue" points="1556.92,-219.57 1567.36,-217.75 1558.06,-212.67 1556.92,-219.57"/>
</g>
<!-- Node16 -->
<g id="node15" class="node">
<title>Node16</title>
<g id="a_node15"><a xlink:href="../../d8/d70/vtextmanager_8cpp.html" target="_top" xlink:title=" ">
<polygon fill="white" stroke="black" points="1695,-73 1695,-92 1877,-92 1877,-73 1695,-73"/>
<text text-anchor="middle" x="1786" y="-80" font-family="Helvetica,sans-Serif" font-size="10.00">src/libs/vlayout/vtextmanager.cpp</text>
</a>
</g>
</g>
<!-- Node2&#45;&gt;Node16 -->
<g id="edge17" class="edge">
<title>Node2&#45;&gt;Node16</title>
<path fill="none" stroke="midnightblue" d="M1645.18,-205.54C1681.9,-173.72 1750.17,-114.56 1775.87,-92.28"/>
<polygon fill="midnightblue" stroke="midnightblue" points="1642.69,-203.07 1637.42,-212.27 1647.27,-208.36 1642.69,-203.07"/>
</g>
<!-- Node17 -->
<g id="node16" class="node">
<title>Node17</title>
<g id="a_node16"><a xlink:href="../../d5/d74/vabstractapplication_8h.html" target="_top" xlink:title=" ">
<polygon fill="white" stroke="red" points="2618.5,-145.5 2618.5,-164.5 2813.5,-164.5 2813.5,-145.5 2618.5,-145.5"/>
<text text-anchor="middle" x="2716" y="-152.5" font-family="Helvetica,sans-Serif" font-size="10.00">src/libs/vmisc/vabstractapplication.h</text>
</a>
</g>
</g>
<!-- Node2&#45;&gt;Node17 -->
<g id="edge18" class="edge">
<title>Node2&#45;&gt;Node17</title>
<path fill="none" stroke="midnightblue" d="M1684.57,-222.41C1867.87,-210.61 2398.29,-176.46 2618.44,-162.28"/>
<polygon fill="midnightblue" stroke="midnightblue" points="1684.31,-218.92 1674.56,-223.05 1684.76,-225.9 1684.31,-218.92"/>
</g>
<!-- Node45 -->
<g id="node31" class="node">
<title>Node45</title>
<g id="a_node31"><a xlink:href="../../d6/d46/vcontainer_8cpp.html" target="_top" xlink:title=" ">
<polygon fill="white" stroke="black" points="3979.5,-67.5 3979.5,-97.5 4086.5,-97.5 4086.5,-67.5 3979.5,-67.5"/>
<text text-anchor="start" x="3987.5" y="-85.5" font-family="Helvetica,sans-Serif" font-size="10.00">src/libs/vpatterndb</text>
<text text-anchor="middle" x="4033" y="-74.5" font-family="Helvetica,sans-Serif" font-size="10.00">/vcontainer.cpp</text>
</a>
</g>
</g>
<!-- Node2&#45;&gt;Node45 -->
<g id="edge44" class="edge">
<title>Node2&#45;&gt;Node45</title>
<path fill="none" stroke="midnightblue" d="M1684.81,-226.48C1918.22,-226.02 2717.47,-221.16 2822,-176 2846.52,-165.4 2840.43,-144.49 2865,-134 2975.73,-86.73 3828.21,-110.15 3948,-98 3958.13,-96.97 3968.87,-95.47 3979.19,-93.81"/>
<polygon fill="midnightblue" stroke="midnightblue" points="1684.77,-222.98 1674.78,-226.49 1684.78,-229.98 1684.77,-222.98"/>
</g>
<!-- Node46 -->
<g id="node32" class="node">
<title>Node46</title>
<g id="a_node32"><a xlink:href="../../db/d11/vformula_8cpp.html" target="_top" xlink:title=" ">
<polygon fill="white" stroke="black" points="4104.5,-67.5 4104.5,-97.5 4211.5,-97.5 4211.5,-67.5 4104.5,-67.5"/>
<text text-anchor="start" x="4112.5" y="-85.5" font-family="Helvetica,sans-Serif" font-size="10.00">src/libs/vpatterndb</text>
<text text-anchor="middle" x="4158" y="-74.5" font-family="Helvetica,sans-Serif" font-size="10.00">/vformula.cpp</text>
</a>
</g>
</g>
<!-- Node2&#45;&gt;Node46 -->
<g id="edge46" class="edge">
<title>Node2&#45;&gt;Node46</title>
<path fill="none" stroke="midnightblue" d="M1685.07,-226.48C1923.25,-226.06 2749.55,-221.32 2858,-176 2883.24,-165.45 2877.7,-144.41 2903,-134 3025.63,-83.51 3964.5,-115.19 4096,-98 4098.74,-97.64 4101.54,-97.22 4104.35,-96.74"/>
<polygon fill="midnightblue" stroke="midnightblue" points="1684.83,-222.98 1674.84,-226.5 1684.84,-229.98 1684.83,-222.98"/>
</g>
<!-- Node2&#45;&gt;Node47 -->
<g id="edge47" class="edge">
<title>Node2&#45;&gt;Node47</title>
<path fill="none" stroke="midnightblue" d="M1684.63,-226.72C1926.96,-227.2 2784.03,-225.36 2895,-176 2918.83,-165.4 2912.1,-144.46 2936,-134 3066.84,-76.71 4079.35,-116.36 4221,-98 4223.74,-97.64 4226.54,-97.22 4229.35,-96.74"/>
<polygon fill="midnightblue" stroke="midnightblue" points="1684.58,-223.22 1674.58,-226.7 1684.57,-230.22 1684.58,-223.22"/>
</g>
<!-- Node49 -->
<g id="node35" class="node">
<title>Node49</title>
<g id="a_node35"><a xlink:href="../../d8/dba/vpiecenode_8cpp.html" target="_top" xlink:title=" ">
<polygon fill="white" stroke="black" points="2007.5,-0.5 2007.5,-30.5 2114.5,-30.5 2114.5,-0.5 2007.5,-0.5"/>
<text text-anchor="start" x="2015.5" y="-18.5" font-family="Helvetica,sans-Serif" font-size="10.00">src/libs/vpatterndb</text>
<text text-anchor="middle" x="2061" y="-7.5" font-family="Helvetica,sans-Serif" font-size="10.00">/vpiecenode.cpp</text>
</a>
</g>
</g>
<!-- Node2&#45;&gt;Node49 -->
<g id="edge49" class="edge">
<title>Node2&#45;&gt;Node49</title>
<path fill="none" stroke="midnightblue" d="M1557.38,-213.21C1460.55,-190.32 1294.11,-138.89 1361,-67 1404.76,-19.97 1851.4,-16.16 2007.5,-16.27"/>
<polygon fill="midnightblue" stroke="midnightblue" points="1556.86,-216.68 1567.39,-215.54 1558.44,-209.86 1556.86,-216.68"/>
</g>
<!-- Node63 -->
<g id="node36" class="node">
<title>Node63</title>
<g id="a_node36"><a xlink:href="../../d3/d02/custom__variable__p_8h.html" target="_top" xlink:title=" ">
<polygon fill="white" stroke="red" points="518.5,-140 518.5,-170 687.5,-170 687.5,-140 518.5,-140"/>
<text text-anchor="start" x="526.5" y="-158" font-family="Helvetica,sans-Serif" font-size="10.00">src/libs/vpatterndb</text>
<text text-anchor="middle" x="603" y="-147" font-family="Helvetica,sans-Serif" font-size="10.00">/variables/custom_variable_p.h</text>
</a>
</g>
</g>
<!-- Node2&#45;&gt;Node63 -->
<g id="edge42" class="edge">
<title>Node2&#45;&gt;Node63</title>
<path fill="none" stroke="midnightblue" d="M1556.91,-226.41C1406.24,-225.45 1017.96,-218.65 697,-176 685.67,-174.49 673.67,-172.36 662.18,-170.05"/>
<polygon fill="midnightblue" stroke="midnightblue" points="1557.33,-229.91 1567.35,-226.47 1557.37,-222.91 1557.33,-229.91"/>
</g>
<!-- Node65 -->
<g id="node37" class="node">
<title>Node65</title>
<g id="a_node37"><a xlink:href="../../d7/d8a/measurement__variable__p_8h.html" target="_top" xlink:title=" ">
<polygon fill="white" stroke="red" points="706,-134.5 706,-175.5 842,-175.5 842,-134.5 706,-134.5"/>
<text text-anchor="start" x="714" y="-163.5" font-family="Helvetica,sans-Serif" font-size="10.00">src/libs/vpatterndb</text>
<text text-anchor="start" x="714" y="-152.5" font-family="Helvetica,sans-Serif" font-size="10.00">/variables/measurement</text>
<text text-anchor="middle" x="774" y="-141.5" font-family="Helvetica,sans-Serif" font-size="10.00">_variable_p.h</text>
</a>
</g>
</g>
<!-- Node2&#45;&gt;Node65 -->
<g id="edge43" class="edge">
<title>Node2&#45;&gt;Node65</title>
<path fill="none" stroke="midnightblue" d="M1557.03,-226.37C1424.47,-225.2 1110.48,-217.82 851,-176 848.14,-175.54 845.22,-175.02 842.29,-174.45"/>
<polygon fill="midnightblue" stroke="midnightblue" points="1557.37,-229.87 1567.4,-226.45 1557.43,-222.87 1557.37,-229.87"/>
</g>
<!-- Node67 -->
<g id="node38" class="node">
<title>Node67</title>
<g id="a_node38"><a xlink:href="../../d6/d91/vnodedetail_8cpp.html" target="_top" xlink:title=" ">
<polygon fill="white" stroke="black" points="860.5,-140 860.5,-170 967.5,-170 967.5,-140 860.5,-140"/>
<text text-anchor="start" x="868.5" y="-158" font-family="Helvetica,sans-Serif" font-size="10.00">src/libs/vpatterndb</text>
<text text-anchor="middle" x="914" y="-147" font-family="Helvetica,sans-Serif" font-size="10.00">/vnodedetail.cpp</text>
</a>
</g>
</g>
<!-- Node2&#45;&gt;Node67 -->
<g id="edge45" class="edge">
<title>Node2&#45;&gt;Node67</title>
<path fill="none" stroke="midnightblue" d="M1557.16,-226.42C1440.58,-225.19 1185.91,-217.48 976,-176 968.34,-174.49 960.31,-172.34 952.66,-170"/>
<polygon fill="midnightblue" stroke="midnightblue" points="1557.3,-229.92 1567.33,-226.51 1557.37,-222.92 1557.3,-229.92"/>
</g>
<!-- Node68 -->
<g id="node39" class="node">
<title>Node68</title>
<g id="a_node39"><a xlink:href="../../da/de1/vpiecepath_8cpp.html" target="_top" xlink:title=" ">
<polygon fill="white" stroke="black" points="985.5,-140 985.5,-170 1092.5,-170 1092.5,-140 985.5,-140"/>
<text text-anchor="start" x="993.5" y="-158" font-family="Helvetica,sans-Serif" font-size="10.00">src/libs/vpatterndb</text>
<text text-anchor="middle" x="1039" y="-147" font-family="Helvetica,sans-Serif" font-size="10.00">/vpiecepath.cpp</text>
</a>
</g>
</g>
<!-- Node2&#45;&gt;Node68 -->
<g id="edge48" class="edge">
<title>Node2&#45;&gt;Node68</title>
<path fill="none" stroke="midnightblue" d="M1557.23,-224.09C1459.52,-219.53 1267.24,-207.15 1107,-176 1098.91,-174.43 1090.39,-172.31 1082.23,-170.03"/>
<polygon fill="midnightblue" stroke="midnightblue" points="1557.1,-227.59 1567.24,-224.55 1557.41,-220.6 1557.1,-227.59"/>
</g>
<!-- Node2&#45;&gt;Node69 -->
<g id="edge50" class="edge">
<title>Node2&#45;&gt;Node69</title>
<path fill="none" stroke="midnightblue" d="M1684.98,-225.47C1913.04,-221.56 2685.6,-206.34 2931,-176 2951.57,-173.46 2974.31,-168.74 2992.38,-164.53"/>
<polygon fill="midnightblue" stroke="midnightblue" points="1684.79,-221.97 1674.86,-225.64 1684.91,-228.97 1684.79,-221.97"/>
</g>
<!-- Node2&#45;&gt;Node70 -->
<g id="edge51" class="edge">
<title>Node2&#45;&gt;Node70</title>
<path fill="none" stroke="midnightblue" d="M1685.11,-226.29C1933.53,-225.19 2832.88,-218.31 3115,-176 3124.34,-174.6 3134.2,-172.44 3143.56,-170.04"/>
<polygon fill="midnightblue" stroke="midnightblue" points="1684.8,-222.8 1674.81,-226.34 1684.83,-229.8 1684.8,-222.8"/>
</g>
<!-- Node3&#45;&gt;Node4 -->
<g id="edge3" class="edge">
<title>Node3&#45;&gt;Node4</title>
<path fill="none" stroke="midnightblue" d="M224.69,-141.37C192.76,-127.12 141.69,-104.33 114.13,-92.03"/>
<polygon fill="midnightblue" stroke="midnightblue" points="223.38,-144.62 233.94,-145.5 226.24,-138.22 223.38,-144.62"/>
</g>
<!-- Node7 -->
<g id="node7" class="node">
<title>Node7</title>
<g id="a_node7"><a xlink:href="../../dd/d66/vdxfengine_8cpp.html" target="_top" xlink:title=" ">
<polygon fill="white" stroke="black" points="1161,-73 1161,-92 1315,-92 1315,-73 1161,-73"/>
<text text-anchor="middle" x="1238" y="-80" font-family="Helvetica,sans-Serif" font-size="10.00">src/libs/vdxf/vdxfengine.cpp</text>
</a>
</g>
</g>
<!-- Node6&#45;&gt;Node7 -->
<g id="edge7" class="edge">
<title>Node6&#45;&gt;Node7</title>
<path fill="none" stroke="midnightblue" d="M1233.59,-135.36C1234.77,-121.4 1236.35,-102.93 1237.26,-92.22"/>
<polygon fill="midnightblue" stroke="midnightblue" points="1230.1,-135.09 1232.74,-145.36 1237.07,-135.69 1230.1,-135.09"/>
</g>
<!-- Node8 -->
<g id="node8" class="node">
<title>Node8</title>
<g id="a_node8"><a xlink:href="../../de/da8/vbank_8cpp.html" target="_top" xlink:title=" ">
<polygon fill="white" stroke="black" points="374,-73 374,-92 518,-92 518,-73 374,-73"/>
<text text-anchor="middle" x="446" y="-80" font-family="Helvetica,sans-Serif" font-size="10.00">src/libs/vlayout/vbank.cpp</text>
</a>
</g>
</g>
<!-- Node6&#45;&gt;Node8 -->
<g id="edge8" class="edge">
<title>Node6&#45;&gt;Node8</title>
<path fill="none" stroke="midnightblue" d="M1186.93,-143.3C1170.65,-139.81 1152.08,-136.25 1135,-134 866.63,-98.58 795.81,-129.91 527,-98 514.37,-96.5 500.74,-94.29 488.32,-92.05"/>
<polygon fill="midnightblue" stroke="midnightblue" points="1186.22,-146.73 1196.73,-145.45 1187.72,-139.89 1186.22,-146.73"/>
</g>
<!-- Node9 -->
<g id="node9" class="node">
<title>Node9</title>
<g id="a_node9"><a xlink:href="../../df/d5d/vcontour_8cpp.html" target="_top" xlink:title=" ">
<polygon fill="white" stroke="black" points="536,-73 536,-92 692,-92 692,-73 536,-73"/>
<text text-anchor="middle" x="614" y="-80" font-family="Helvetica,sans-Serif" font-size="10.00">src/libs/vlayout/vcontour.cpp</text>
</a>
</g>
</g>
<!-- Node6&#45;&gt;Node9 -->
<g id="edge9" class="edge">
<title>Node6&#45;&gt;Node9</title>
<path fill="none" stroke="midnightblue" d="M1185.63,-143.25C1169.66,-139.87 1151.61,-136.39 1135,-134 943.43,-106.41 893.07,-121.93 701,-98 687.93,-96.37 673.83,-94.2 660.85,-92.04"/>
<polygon fill="midnightblue" stroke="midnightblue" points="1185.28,-146.76 1195.79,-145.45 1186.76,-139.92 1185.28,-146.76"/>
</g>
<!-- Node10 -->
<g id="node10" class="node">
<title>Node10</title>
<g id="a_node10"><a xlink:href="../../d3/d39/vlayoutgenerator_8cpp.html" target="_top" xlink:title=" ">
<polygon fill="white" stroke="black" points="710.5,-73 710.5,-92 907.5,-92 907.5,-73 710.5,-73"/>
<text text-anchor="middle" x="809" y="-80" font-family="Helvetica,sans-Serif" font-size="10.00">src/libs/vlayout/vlayoutgenerator.cpp</text>
</a>
</g>
</g>
<!-- Node6&#45;&gt;Node10 -->
<g id="edge10" class="edge">
<title>Node6&#45;&gt;Node10</title>
<path fill="none" stroke="midnightblue" d="M1183.09,-143.42C1167.73,-140.23 1150.69,-136.83 1135,-134 1042.85,-117.37 935.43,-101.39 869.83,-92"/>
<polygon fill="midnightblue" stroke="midnightblue" points="1182.41,-146.86 1192.91,-145.48 1183.84,-140 1182.41,-146.86"/>
</g>
<!-- Node11 -->
<g id="node11" class="node">
<title>Node11</title>
<g id="a_node11"><a xlink:href="../../d2/d2d/vlayoutpaper__p_8h.html" target="_top" xlink:title=" ">
<polygon fill="white" stroke="black" points="925.5,-73 925.5,-92 1104.5,-92 1104.5,-73 925.5,-73"/>
<text text-anchor="middle" x="1015" y="-80" font-family="Helvetica,sans-Serif" font-size="10.00">src/libs/vlayout/vlayoutpaper_p.h</text>
</a>
</g>
</g>
<!-- Node6&#45;&gt;Node11 -->
<g id="edge11" class="edge">
<title>Node6&#45;&gt;Node11</title>
<path fill="none" stroke="midnightblue" d="M1196.2,-142.37C1152.6,-128.21 1080.02,-104.62 1041.27,-92.03"/>
<polygon fill="midnightblue" stroke="midnightblue" points="1195.23,-145.73 1205.82,-145.5 1197.4,-139.08 1195.23,-145.73"/>
</g>
<!-- Node12 -->
<g id="node12" class="node">
<title>Node12</title>
<g id="a_node12"><a xlink:href="../../d1/dd1/vlayoutpaper_8cpp.html" target="_top" xlink:title=" ">
<polygon fill="white" stroke="black" points="926,-6 926,-25 1104,-25 1104,-6 926,-6"/>
<text text-anchor="middle" x="1015" y="-13" font-family="Helvetica,sans-Serif" font-size="10.00">src/libs/vlayout/vlayoutpaper.cpp</text>
</a>
</g>
</g>
<!-- Node6&#45;&gt;Node12 -->
<g id="edge13" class="edge">
<title>Node6&#45;&gt;Node12</title>
<path fill="none" stroke="midnightblue" d="M1210.79,-139.67C1194.52,-128.56 1171.6,-112.63 1152,-98 1134.26,-84.76 1131.6,-79.02 1113,-67 1086.96,-50.17 1054.63,-34.42 1034.4,-25.12"/>
<polygon fill="midnightblue" stroke="midnightblue" points="1208.85,-142.58 1219.08,-145.31 1212.78,-136.79 1208.85,-142.58"/>
</g>
<!-- Node13 -->
<g id="node13" class="node">
<title>Node13</title>
<g id="a_node13"><a xlink:href="../../db/d5c/vposition_8h.html" target="_top" xlink:title=" ">
<polygon fill="white" stroke="red" points="208,-73 208,-92 356,-92 356,-73 208,-73"/>
<text text-anchor="middle" x="282" y="-80" font-family="Helvetica,sans-Serif" font-size="10.00">src/libs/vlayout/vposition.h</text>
</a>
</g>
</g>
<!-- Node6&#45;&gt;Node13 -->
<g id="edge14" class="edge">
<title>Node6&#45;&gt;Node13</title>
<path fill="none" stroke="midnightblue" d="M1187.35,-143.27C1170.98,-139.74 1152.24,-136.17 1135,-134 795.08,-91.28 705.53,-135.55 365,-98 351.91,-96.56 337.77,-94.34 324.93,-92.06"/>
<polygon fill="midnightblue" stroke="midnightblue" points="1186.68,-146.7 1197.2,-145.45 1188.19,-139.87 1186.68,-146.7"/>
</g>
<!-- Node15 -->
<g id="node14" class="node">
<title>Node15</title>
<g id="a_node14"><a xlink:href="../../dd/d70/vlayoutpiece_8cpp.html" target="_top" xlink:title=" ">
<polygon fill="white" stroke="black" points="1370.5,-73 1370.5,-92 1547.5,-92 1547.5,-73 1370.5,-73"/>
<text text-anchor="middle" x="1459" y="-80" font-family="Helvetica,sans-Serif" font-size="10.00">src/libs/vlayout/vlayoutpiece.cpp</text>
</a>
</g>
</g>
<!-- Node6&#45;&gt;Node15 -->
<g id="edge16" class="edge">
<title>Node6&#45;&gt;Node15</title>
<path fill="none" stroke="midnightblue" d="M1269.17,-142.46C1314.74,-128.3 1390.9,-104.65 1431.52,-92.03"/>
<polygon fill="midnightblue" stroke="midnightblue" points="1267.89,-139.19 1259.38,-145.5 1269.97,-145.87 1267.89,-139.19"/>
</g>
<!-- Node11&#45;&gt;Node12 -->
<g id="edge12" class="edge">
<title>Node11&#45;&gt;Node12</title>
<path fill="none" stroke="midnightblue" d="M1015,-62.54C1015,-50.17 1015,-34.62 1015,-25.13"/>
<polygon fill="midnightblue" stroke="midnightblue" points="1011.5,-62.73 1015,-72.73 1018.5,-62.73 1011.5,-62.73"/>
</g>
<!-- Node13&#45;&gt;Node12 -->
<g id="edge15" class="edge">
<title>Node13&#45;&gt;Node12</title>
<path fill="none" stroke="midnightblue" d="M336.41,-71.23C345.91,-69.66 355.73,-68.17 365,-67 564.61,-41.87 800.4,-27.29 925.89,-20.73"/>
<polygon fill="midnightblue" stroke="midnightblue" points="335.52,-67.83 326.25,-72.96 336.7,-74.73 335.52,-67.83"/>
</g>
<!-- Node17&#45;&gt;Node5 -->
<g id="edge22" class="edge">
<title>Node17&#45;&gt;Node5</title>
<path fill="none" stroke="midnightblue" d="M2608.04,-153.98C2419.89,-152.64 2020.03,-144.02 1686,-98 1683.14,-97.61 1680.21,-97.15 1677.27,-96.65"/>
<polygon fill="midnightblue" stroke="midnightblue" points="2608.19,-157.48 2618.21,-154.04 2608.24,-150.48 2608.19,-157.48"/>
</g>
<!-- Node17&#45;&gt;Node15 -->
<g id="edge31" class="edge">
<title>Node17&#45;&gt;Node15</title>
<path fill="none" stroke="midnightblue" d="M2608.19,-152.4C2402.93,-148.55 1942,-136.07 1556,-98 1540.83,-96.5 1524.42,-94.28 1509.48,-92.02"/>
<polygon fill="midnightblue" stroke="midnightblue" points="2608.31,-155.9 2618.37,-152.58 2608.44,-148.9 2608.31,-155.9"/>
</g>
<!-- Node17&#45;&gt;Node16 -->
<g id="edge32" class="edge">
<title>Node17&#45;&gt;Node16</title>
<path fill="none" stroke="midnightblue" d="M2608.13,-149.37C2449.58,-141.95 2144.41,-125.41 1886,-98 1870.82,-96.39 1854.41,-94.2 1839.36,-92.01"/>
<polygon fill="midnightblue" stroke="midnightblue" points="2608.21,-152.87 2618.36,-149.84 2608.53,-145.88 2608.21,-152.87"/>
</g>
<!-- Node18 -->
<g id="node17" class="node">
<title>Node18</title>
<g id="a_node17"><a xlink:href="../../d4/d90/fvupdater_8cpp.html" target="_top" xlink:title=" ">
<polygon fill="white" stroke="black" points="1895.5,-73 1895.5,-92 2048.5,-92 2048.5,-73 1895.5,-73"/>
<text text-anchor="middle" x="1972" y="-80" font-family="Helvetica,sans-Serif" font-size="10.00">src/libs/fervor/fvupdater.cpp</text>
</a>
</g>
</g>
<!-- Node17&#45;&gt;Node18 -->
<g id="edge19" class="edge">
<title>Node17&#45;&gt;Node18</title>
<path fill="none" stroke="midnightblue" d="M2608.46,-147.57C2477.94,-139.14 2251.3,-122.48 2058,-98 2045.08,-96.36 2031.14,-94.19 2018.31,-92.03"/>
<polygon fill="midnightblue" stroke="midnightblue" points="2608.26,-151.06 2618.46,-148.21 2608.71,-144.08 2608.26,-151.06"/>
</g>
<!-- Node19 -->
<g id="node18" class="node">
<title>Node19</title>
<g id="a_node18"><a xlink:href="../../d1/d8d/image__item_8h.html" target="_top" xlink:title=" ">
<polygon fill="white" stroke="red" points="2067,-67.5 2067,-97.5 2179,-97.5 2179,-67.5 2067,-67.5"/>
<text text-anchor="start" x="2075" y="-85.5" font-family="Helvetica,sans-Serif" font-size="10.00">src/libs/tools/image</text>
<text text-anchor="middle" x="2123" y="-74.5" font-family="Helvetica,sans-Serif" font-size="10.00">_item.h</text>
</a>
</g>
</g>
<!-- Node17&#45;&gt;Node19 -->
<g id="edge20" class="edge">
<title>Node17&#45;&gt;Node19</title>
<path fill="none" stroke="midnightblue" d="M2608.07,-146.17C2501.02,-137.56 2332.52,-121.7 2188,-98 2185.15,-97.53 2182.23,-97.02 2179.29,-96.47"/>
<polygon fill="midnightblue" stroke="midnightblue" points="2607.99,-149.68 2618.24,-146.98 2608.55,-142.7 2607.99,-149.68"/>
</g>
<!-- Node29 -->
<g id="node19" class="node">
<title>Node29</title>
<g id="a_node19"><a xlink:href="../../d9/dc8/dxiface_8cpp.html" target="_top" xlink:title=" ">
<polygon fill="white" stroke="black" points="2197.5,-73 2197.5,-92 2332.5,-92 2332.5,-73 2197.5,-73"/>
<text text-anchor="middle" x="2265" y="-80" font-family="Helvetica,sans-Serif" font-size="10.00">src/libs/vdxf/dxiface.cpp</text>
</a>
</g>
</g>
<!-- Node17&#45;&gt;Node29 -->
<g id="edge21" class="edge">
<title>Node17&#45;&gt;Node29</title>
<path fill="none" stroke="midnightblue" d="M2643.48,-144.05C2567.84,-133.47 2445.9,-115.83 2341,-98 2330.27,-96.18 2318.73,-94.06 2307.95,-92.01"/>
<polygon fill="midnightblue" stroke="midnightblue" points="2643.45,-147.58 2653.84,-145.5 2644.42,-140.65 2643.45,-147.58"/>
</g>
<!-- Node30 -->
<g id="node20" class="node">
<title>Node30</title>
<g id="a_node20"><a xlink:href="../../da/d75/vabstractarc__p_8h.html" target="_top" xlink:title=" ">
<polygon fill="white" stroke="red" points="2350.5,-67.5 2350.5,-97.5 2457.5,-97.5 2457.5,-67.5 2350.5,-67.5"/>
<text text-anchor="start" x="2358.5" y="-85.5" font-family="Helvetica,sans-Serif" font-size="10.00">src/libs/vgeometry</text>
<text text-anchor="middle" x="2404" y="-74.5" font-family="Helvetica,sans-Serif" font-size="10.00">/vabstractarc_p.h</text>
</a>
</g>
</g>
<!-- Node17&#45;&gt;Node30 -->
<g id="edge23" class="edge">
<title>Node17&#45;&gt;Node30</title>
<path fill="none" stroke="midnightblue" d="M2667.47,-143.27C2617.07,-132.1 2535.97,-114.02 2466,-98 2463.31,-97.38 2460.55,-96.75 2457.76,-96.11"/>
<polygon fill="midnightblue" stroke="midnightblue" points="2666.91,-146.73 2677.43,-145.48 2668.42,-139.9 2666.91,-146.73"/>
</g>
<!-- Node32 -->
<g id="node21" class="node">
<title>Node32</title>
<g id="a_node21"><a xlink:href="../../dc/da3/varc__p_8h.html" target="_top" xlink:title=" ">
<polygon fill="white" stroke="red" points="2475.5,-67.5 2475.5,-97.5 2582.5,-97.5 2582.5,-67.5 2475.5,-67.5"/>
<text text-anchor="start" x="2483.5" y="-85.5" font-family="Helvetica,sans-Serif" font-size="10.00">src/libs/vgeometry</text>
<text text-anchor="middle" x="2529" y="-74.5" font-family="Helvetica,sans-Serif" font-size="10.00">/varc_p.h</text>
</a>
</g>
</g>
<!-- Node17&#45;&gt;Node32 -->
<g id="edge24" class="edge">
<title>Node17&#45;&gt;Node32</title>
<path fill="none" stroke="midnightblue" d="M2683.91,-141.9C2651.22,-129.58 2600.56,-110.48 2566.15,-97.51"/>
<polygon fill="midnightblue" stroke="midnightblue" points="2682.85,-145.24 2693.44,-145.5 2685.32,-138.69 2682.85,-145.24"/>
</g>
<!-- Node34 -->
<g id="node22" class="node">
<title>Node34</title>
<g id="a_node22"><a xlink:href="../../d5/d8e/vcubicbezier__p_8h.html" target="_top" xlink:title=" ">
<polygon fill="white" stroke="red" points="2600.5,-67.5 2600.5,-97.5 2707.5,-97.5 2707.5,-67.5 2600.5,-67.5"/>
<text text-anchor="start" x="2608.5" y="-85.5" font-family="Helvetica,sans-Serif" font-size="10.00">src/libs/vgeometry</text>
<text text-anchor="middle" x="2654" y="-74.5" font-family="Helvetica,sans-Serif" font-size="10.00">/vcubicbezier_p.h</text>
</a>
</g>
</g>
<!-- Node17&#45;&gt;Node34 -->
<g id="edge25" class="edge">
<title>Node17&#45;&gt;Node34</title>
<path fill="none" stroke="midnightblue" d="M2701.7,-137.74C2691.02,-125.6 2676.57,-109.16 2666.38,-97.58"/>
<polygon fill="midnightblue" stroke="midnightblue" points="2699.17,-140.16 2708.4,-145.36 2704.42,-135.53 2699.17,-140.16"/>
</g>
<!-- Node36 -->
<g id="node23" class="node">
<title>Node36</title>
<g id="a_node23"><a xlink:href="../../df/dde/vellipticalarc__p_8h.html" target="_top" xlink:title=" ">
<polygon fill="white" stroke="black" points="2850.5,-67.5 2850.5,-97.5 2957.5,-97.5 2957.5,-67.5 2850.5,-67.5"/>
<text text-anchor="start" x="2858.5" y="-85.5" font-family="Helvetica,sans-Serif" font-size="10.00">src/libs/vgeometry</text>
<text text-anchor="middle" x="2904" y="-74.5" font-family="Helvetica,sans-Serif" font-size="10.00">/vellipticalarc_p.h</text>
</a>
</g>
</g>
<!-- Node17&#45;&gt;Node36 -->
<g id="edge26" class="edge">
<title>Node17&#45;&gt;Node36</title>
<path fill="none" stroke="midnightblue" d="M2748.26,-141.9C2781.13,-129.58 2832.05,-110.48 2866.65,-97.51"/>
<polygon fill="midnightblue" stroke="midnightblue" points="2746.81,-138.71 2738.68,-145.5 2749.27,-145.26 2746.81,-138.71"/>
</g>
<!-- Node37 -->
<g id="node24" class="node">
<title>Node37</title>
<g id="a_node24"><a xlink:href="../../d6/dfb/vellipticalarc_8cpp.html" target="_top" xlink:title=" ">
<polygon fill="white" stroke="black" points="3373.5,-0.5 3373.5,-30.5 3480.5,-30.5 3480.5,-0.5 3373.5,-0.5"/>
<text text-anchor="start" x="3381.5" y="-18.5" font-family="Helvetica,sans-Serif" font-size="10.00">src/libs/vgeometry</text>
<text text-anchor="middle" x="3427" y="-7.5" font-family="Helvetica,sans-Serif" font-size="10.00">/vellipticalarc.cpp</text>
</a>
</g>
</g>
<!-- Node17&#45;&gt;Node37 -->
<g id="edge28" class="edge">
<title>Node17&#45;&gt;Node37</title>
<path fill="none" stroke="midnightblue" d="M2765.36,-143.51C2784.52,-139.86 2806.7,-136.15 2827,-134 2888.03,-127.54 3888.32,-142.09 3931,-98 3940.58,-88.1 3940.24,-77.22 3931,-67 3901.2,-34.07 3604.63,-21.67 3480.84,-17.9"/>
<polygon fill="midnightblue" stroke="midnightblue" points="2764.5,-140.12 2755.36,-145.47 2765.84,-146.99 2764.5,-140.12"/>
</g>
<!-- Node38 -->
<g id="node25" class="node">
<title>Node38</title>
<g id="a_node25"><a xlink:href="../../d1/d76/vspline__p_8h.html" target="_top" xlink:title=" ">
<polygon fill="white" stroke="red" points="2975.5,-67.5 2975.5,-97.5 3082.5,-97.5 3082.5,-67.5 2975.5,-67.5"/>
<text text-anchor="start" x="2983.5" y="-85.5" font-family="Helvetica,sans-Serif" font-size="10.00">src/libs/vgeometry</text>
<text text-anchor="middle" x="3029" y="-74.5" font-family="Helvetica,sans-Serif" font-size="10.00">/vspline_p.h</text>
</a>
</g>
</g>
<!-- Node17&#45;&gt;Node38 -->
<g id="edge29" class="edge">
<title>Node17&#45;&gt;Node38</title>
<path fill="none" stroke="midnightblue" d="M2764.52,-143.22C2814.91,-132 2896,-113.89 2966,-98 2969.06,-97.3 2972.21,-96.59 2975.39,-95.86"/>
<polygon fill="midnightblue" stroke="midnightblue" points="2763.56,-139.85 2754.56,-145.44 2765.08,-146.68 2763.56,-139.85"/>
</g>
<!-- Node40 -->
<g id="node26" class="node">
<title>Node40</title>
<g id="a_node26"><a xlink:href="../../d9/d15/vabstractpiece_8cpp.html" target="_top" xlink:title=" ">
<polygon fill="white" stroke="black" points="3101,-73 3101,-92 3287,-92 3287,-73 3101,-73"/>
<text text-anchor="middle" x="3194" y="-80" font-family="Helvetica,sans-Serif" font-size="10.00">src/libs/vlayout/vabstractpiece.cpp</text>
</a>
</g>
</g>
<!-- Node17&#45;&gt;Node40 -->
<g id="edge30" class="edge">
<title>Node17&#45;&gt;Node40</title>
<path fill="none" stroke="midnightblue" d="M2770.74,-143.66C2788.64,-140.4 2808.65,-136.9 2827,-134 2943.96,-115.5 2973.7,-114.25 3091,-98 3104.86,-96.08 3119.77,-93.99 3133.82,-92.02"/>
<polygon fill="midnightblue" stroke="midnightblue" points="2769.96,-140.24 2760.75,-145.49 2771.22,-147.13 2769.96,-140.24"/>
</g>
<!-- Node41 -->
<g id="node27" class="node">
<title>Node41</title>
<g id="a_node27"><a xlink:href="../../db/d65/dialogexporttocsv_8cpp.html" target="_top" xlink:title=" ">
<polygon fill="white" stroke="black" points="3305.5,-67.5 3305.5,-97.5 3432.5,-97.5 3432.5,-67.5 3305.5,-67.5"/>
<text text-anchor="start" x="3313.5" y="-85.5" font-family="Helvetica,sans-Serif" font-size="10.00">src/libs/vmisc/dialogs</text>
<text text-anchor="middle" x="3369" y="-74.5" font-family="Helvetica,sans-Serif" font-size="10.00">/dialogexporttocsv.cpp</text>
</a>
</g>
</g>
<!-- Node17&#45;&gt;Node41 -->
<g id="edge33" class="edge">
<title>Node17&#45;&gt;Node41</title>
<path fill="none" stroke="midnightblue" d="M2767.56,-143.59C2786.22,-140.11 2807.5,-136.5 2827,-134 3034.36,-107.43 3088.88,-126.42 3296,-98 3299.07,-97.58 3302.21,-97.11 3305.37,-96.6"/>
<polygon fill="midnightblue" stroke="midnightblue" points="2766.66,-140.19 2757.49,-145.49 2767.96,-147.07 2766.66,-140.19"/>
</g>
<!-- Node42 -->
<g id="node28" class="node">
<title>Node42</title>
<g id="a_node28"><a xlink:href="../../d6/d0b/def_8cpp.html" target="_top" xlink:title=" ">
<polygon fill="white" stroke="black" points="3451,-73 3451,-92 3573,-92 3573,-73 3451,-73"/>
<text text-anchor="middle" x="3512" y="-80" font-family="Helvetica,sans-Serif" font-size="10.00">src/libs/vmisc/def.cpp</text>
</a>
</g>
</g>
<!-- Node17&#45;&gt;Node42 -->
<g id="edge34" class="edge">
<title>Node17&#45;&gt;Node42</title>
<path fill="none" stroke="midnightblue" d="M2766.57,-143.57C2785.46,-140.02 2807.14,-136.36 2827,-134 3098.44,-101.71 3169.95,-133.44 3441,-98 3452.23,-96.53 3464.34,-94.3 3475.32,-92.03"/>
<polygon fill="midnightblue" stroke="midnightblue" points="2765.84,-140.15 2756.68,-145.46 2767.16,-147.02 2765.84,-140.15"/>
</g>
<!-- Node43 -->
<g id="node29" class="node">
<title>Node43</title>
<g id="a_node29"><a xlink:href="../../d0/df6/vabstractapplication_8cpp.html" target="_top" xlink:title=" ">
<polygon fill="white" stroke="black" points="3591,-73 3591,-92 3797,-92 3797,-73 3591,-73"/>
<text text-anchor="middle" x="3694" y="-80" font-family="Helvetica,sans-Serif" font-size="10.00">src/libs/vmisc/vabstractapplication.cpp</text>
</a>
</g>
</g>
<!-- Node17&#45;&gt;Node43 -->
<g id="edge35" class="edge">
<title>Node17&#45;&gt;Node43</title>
<path fill="none" stroke="midnightblue" d="M2766.08,-143.54C2785.08,-139.95 2806.96,-136.27 2827,-134 3160.8,-96.13 3247.37,-127.59 3582,-98 3599.28,-96.47 3618,-94.27 3635.1,-92.04"/>
<polygon fill="midnightblue" stroke="midnightblue" points="2765.3,-140.13 2756.15,-145.46 2766.63,-147 2765.3,-140.13"/>
</g>
<!-- Node44 -->
<g id="node30" class="node">
<title>Node44</title>
<g id="a_node30"><a xlink:href="../../d4/d4f/pmsystems_8cpp.html" target="_top" xlink:title=" ">
<polygon fill="white" stroke="black" points="3815.5,-67.5 3815.5,-97.5 3922.5,-97.5 3922.5,-67.5 3815.5,-67.5"/>
<text text-anchor="start" x="3823.5" y="-85.5" font-family="Helvetica,sans-Serif" font-size="10.00">src/libs/vpatterndb</text>
<text text-anchor="middle" x="3869" y="-74.5" font-family="Helvetica,sans-Serif" font-size="10.00">/pmsystems.cpp</text>
</a>
</g>
</g>
<!-- Node17&#45;&gt;Node44 -->
<g id="edge36" class="edge">
<title>Node17&#45;&gt;Node44</title>
<path fill="none" stroke="midnightblue" d="M2765.6,-143.51C2784.71,-139.88 2806.78,-136.18 2827,-134 3259.89,-87.28 3374.35,-155.09 3806,-98 3809,-97.6 3812.08,-97.13 3815.17,-96.6"/>
<polygon fill="midnightblue" stroke="midnightblue" points="2764.77,-140.11 2755.62,-145.46 2766.1,-146.98 2764.77,-140.11"/>
</g>
<!-- Node17&#45;&gt;Node45 -->
<g id="edge37" class="edge">
<title>Node17&#45;&gt;Node45</title>
<path fill="none" stroke="midnightblue" d="M2765.36,-143.5C2784.52,-139.85 2806.7,-136.14 2827,-134 3330.25,-80.99 3462.66,-159.01 3965,-98 3969.67,-97.43 3974.5,-96.7 3979.33,-95.87"/>
<polygon fill="midnightblue" stroke="midnightblue" points="2764.5,-140.11 2755.36,-145.46 2765.84,-146.98 2764.5,-140.11"/>
</g>
<!-- Node17&#45;&gt;Node46 -->
<g id="edge38" class="edge">
<title>Node17&#45;&gt;Node46</title>
<path fill="none" stroke="midnightblue" d="M2779.54,-143.99C2805.91,-140.22 2836.87,-136.29 2865,-134 3410.54,-89.53 3553.24,-168.68 4096,-98 4098.74,-97.64 4101.54,-97.22 4104.35,-96.74"/>
<polygon fill="midnightblue" stroke="midnightblue" points="2778.69,-140.57 2769.3,-145.48 2779.7,-147.5 2778.69,-140.57"/>
</g>
<!-- Node17&#45;&gt;Node47 -->
<g id="edge39" class="edge">
<title>Node17&#45;&gt;Node47</title>
<path fill="none" stroke="midnightblue" d="M2793.61,-144.31C2827.19,-140.47 2866.98,-136.41 2903,-134 3487.68,-94.81 3639.84,-173.11 4221,-98 4223.74,-97.65 4226.54,-97.22 4229.35,-96.75"/>
<polygon fill="midnightblue" stroke="midnightblue" points="2792.93,-140.86 2783.4,-145.49 2793.74,-147.82 2792.93,-140.86"/>
</g>
<!-- Node48 -->
<g id="node34" class="node">
<title>Node48</title>
<g id="a_node34"><a xlink:href="../../df/dba/vpiecenode__p_8h.html" target="_top" xlink:title=" ">
<polygon fill="white" stroke="black" points="2725.5,-67.5 2725.5,-97.5 2832.5,-97.5 2832.5,-67.5 2725.5,-67.5"/>
<text text-anchor="start" x="2733.5" y="-85.5" font-family="Helvetica,sans-Serif" font-size="10.00">src/libs/vpatterndb</text>
<text text-anchor="middle" x="2779" y="-74.5" font-family="Helvetica,sans-Serif" font-size="10.00">/vpiecenode_p.h</text>
</a>
</g>
</g>
<!-- Node17&#45;&gt;Node48 -->
<g id="edge40" class="edge">
<title>Node17&#45;&gt;Node48</title>
<path fill="none" stroke="midnightblue" d="M2730.53,-137.74C2741.38,-125.6 2756.07,-109.16 2766.42,-97.58"/>
<polygon fill="midnightblue" stroke="midnightblue" points="2727.78,-135.57 2723.73,-145.36 2733,-140.23 2727.78,-135.57"/>
</g>
<!-- Node36&#45;&gt;Node37 -->
<g id="edge27" class="edge">
<title>Node36&#45;&gt;Node37</title>
<path fill="none" stroke="midnightblue" d="M2967.69,-66.83C3119.89,-41.3 3289.09,-26.64 3373.47,-20.26"/>
<polygon fill="midnightblue" stroke="midnightblue" points="2966.96,-63.4 2957.69,-68.53 2968.13,-70.3 2966.96,-63.4"/>
</g>
<!-- Node48&#45;&gt;Node49 -->
<g id="edge41" class="edge">
<title>Node48&#45;&gt;Node49</title>
<path fill="none" stroke="midnightblue" d="M2715.31,-67.07C2486.66,-32.82 2225.46,-21.46 2114.8,-17.93"/>
<polygon fill="midnightblue" stroke="midnightblue" points="2715.08,-70.57 2725.49,-68.61 2716.13,-63.65 2715.08,-70.57"/>
</g>
<!-- Node72 -->
<g id="node43" class="node">
<title>Node72</title>
<g id="a_node43"><a xlink:href="../../d8/dea/pattern__piece__tool_8cpp.html" target="_top" xlink:title=" ">
<polygon fill="white" stroke="black" points="3675.5,-140 3675.5,-170 3806.5,-170 3806.5,-140 3675.5,-140"/>
<text text-anchor="start" x="3683.5" y="-158" font-family="Helvetica,sans-Serif" font-size="10.00">src/libs/vtools/tools</text>
<text text-anchor="middle" x="3741" y="-147" font-family="Helvetica,sans-Serif" font-size="10.00">/pattern_piece_tool.cpp</text>
</a>
</g>
</g>
<!-- Node71&#45;&gt;Node72 -->
<g id="edge55" class="edge">
<title>Node71&#45;&gt;Node72</title>
<path fill="none" stroke="midnightblue" d="M3484.88,-211.24C3538.1,-202.04 3606.04,-189.5 3666,-176 3673.89,-174.22 3682.2,-172.18 3690.3,-170.1"/>
<polygon fill="midnightblue" stroke="midnightblue" points="3484.04,-207.84 3474.77,-212.98 3485.22,-214.74 3484.04,-207.84"/>
</g>
<!-- Node73 -->
<g id="node44" class="node">
<title>Node73</title>
<g id="a_node44"><a xlink:href="../../dd/d33/addpiece_8cpp.html" target="_top" xlink:title=" ">
<polygon fill="white" stroke="black" points="3309.5,-140 3309.5,-170 3474.5,-170 3474.5,-140 3309.5,-140"/>
<text text-anchor="start" x="3317.5" y="-158" font-family="Helvetica,sans-Serif" font-size="10.00">src/libs/vtools/undocommands</text>
<text text-anchor="middle" x="3392" y="-147" font-family="Helvetica,sans-Serif" font-size="10.00">/addpiece.cpp</text>
</a>
</g>
</g>
<!-- Node71&#45;&gt;Node73 -->
<g id="edge56" class="edge">
<title>Node71&#45;&gt;Node73</title>
<path fill="none" stroke="midnightblue" d="M3392,-202.23C3392,-191.57 3392,-179.41 3392,-170.25"/>
<polygon fill="midnightblue" stroke="midnightblue" points="3388.5,-202.23 3392,-212.23 3395.5,-202.23 3388.5,-202.23"/>
</g>
<!-- Node74&#45;&gt;Node72 -->
<g id="edge58" class="edge">
<title>Node74&#45;&gt;Node72</title>
<path fill="none" stroke="midnightblue" d="M3617.75,-208.34C3645.82,-196.42 3681.98,-181.07 3707.86,-170.07"/>
<polygon fill="midnightblue" stroke="midnightblue" points="3616.03,-205.27 3608.19,-212.4 3618.77,-211.72 3616.03,-205.27"/>
</g>
<!-- Node75 -->
<g id="node46" class="node">
<title>Node75</title>
<g id="a_node46"><a xlink:href="../../da/d5c/deletepiece_8cpp.html" target="_top" xlink:title=" ">
<polygon fill="white" stroke="black" points="3492.5,-140 3492.5,-170 3657.5,-170 3657.5,-140 3492.5,-140"/>
<text text-anchor="start" x="3500.5" y="-158" font-family="Helvetica,sans-Serif" font-size="10.00">src/libs/vtools/undocommands</text>
<text text-anchor="middle" x="3575" y="-147" font-family="Helvetica,sans-Serif" font-size="10.00">/deletepiece.cpp</text>
</a>
</g>
</g>
<!-- Node74&#45;&gt;Node75 -->
<g id="edge59" class="edge">
<title>Node74&#45;&gt;Node75</title>
<path fill="none" stroke="midnightblue" d="M3575,-202.23C3575,-191.57 3575,-179.41 3575,-170.25"/>
<polygon fill="midnightblue" stroke="midnightblue" points="3571.5,-202.23 3575,-212.23 3578.5,-202.23 3571.5,-202.23"/>
</g>
<!-- Node76&#45;&gt;Node72 -->
<g id="edge63" class="edge">
<title>Node76&#45;&gt;Node72</title>
<path fill="none" stroke="midnightblue" d="M3864.25,-208.34C3836.18,-196.42 3800.02,-181.07 3774.14,-170.07"/>
<polygon fill="midnightblue" stroke="midnightblue" points="3863.23,-211.72 3873.81,-212.4 3865.97,-205.27 3863.23,-211.72"/>
</g>
<!-- Node77 -->
<g id="node48" class="node">
<title>Node77</title>
<g id="a_node48"><a xlink:href="../../d9/d3a/anchorpoint__tool_8cpp.html" target="_top" xlink:title=" ">
<polygon fill="white" stroke="black" points="4007.5,-134.5 4007.5,-175.5 4146.5,-175.5 4146.5,-134.5 4007.5,-134.5"/>
<text text-anchor="start" x="4015.5" y="-163.5" font-family="Helvetica,sans-Serif" font-size="10.00">src/libs/vtools/tools</text>
<text text-anchor="start" x="4015.5" y="-152.5" font-family="Helvetica,sans-Serif" font-size="10.00">/nodeDetails/anchorpoint</text>
<text text-anchor="middle" x="4077" y="-141.5" font-family="Helvetica,sans-Serif" font-size="10.00">_tool.cpp</text>
</a>
</g>
</g>
<!-- Node76&#45;&gt;Node77 -->
<g id="edge61" class="edge">
<title>Node76&#45;&gt;Node77</title>
<path fill="none" stroke="midnightblue" d="M3950.33,-208.53C3974.63,-198.45 4004.97,-185.87 4029.87,-175.55"/>
<polygon fill="midnightblue" stroke="midnightblue" points="3948.89,-205.34 3940.99,-212.4 3951.57,-211.8 3948.89,-205.34"/>
</g>
<!-- Node78 -->
<g id="node49" class="node">
<title>Node78</title>
<g id="a_node49"><a xlink:href="../../d3/dd9/vtoolinternalpath_8cpp.html" target="_top" xlink:title=" ">
<polygon fill="white" stroke="black" points="4164.5,-140 4164.5,-170 4349.5,-170 4349.5,-140 4164.5,-140"/>
<text text-anchor="start" x="4172.5" y="-158" font-family="Helvetica,sans-Serif" font-size="10.00">src/libs/vtools/tools</text>
<text text-anchor="middle" x="4257" y="-147" font-family="Helvetica,sans-Serif" font-size="10.00">/nodeDetails/vtoolinternalpath.cpp</text>
</a>
</g>
</g>
<!-- Node76&#45;&gt;Node78 -->
<g id="edge62" class="edge">
<title>Node76&#45;&gt;Node78</title>
<path fill="none" stroke="midnightblue" d="M3986.45,-210.5C4046.92,-198.32 4129.34,-181.71 4187.27,-170.05"/>
<polygon fill="midnightblue" stroke="midnightblue" points="3985.68,-207.08 3976.57,-212.49 3987.06,-213.94 3985.68,-207.08"/>
</g>
<!-- Node79 -->
<g id="node50" class="node">
<title>Node79</title>
<g id="a_node50"><a xlink:href="../../d1/d05/savepieceoptions_8cpp.html" target="_top" xlink:title=" ">
<polygon fill="white" stroke="black" points="3824.5,-140 3824.5,-170 3989.5,-170 3989.5,-140 3824.5,-140"/>
<text text-anchor="start" x="3832.5" y="-158" font-family="Helvetica,sans-Serif" font-size="10.00">src/libs/vtools/undocommands</text>
<text text-anchor="middle" x="3907" y="-147" font-family="Helvetica,sans-Serif" font-size="10.00">/savepieceoptions.cpp</text>
</a>
</g>
</g>
<!-- Node76&#45;&gt;Node79 -->
<g id="edge64" class="edge">
<title>Node76&#45;&gt;Node79</title>
<path fill="none" stroke="midnightblue" d="M3907,-202.23C3907,-191.57 3907,-179.41 3907,-170.25"/>
<polygon fill="midnightblue" stroke="midnightblue" points="3903.5,-202.23 3907,-212.23 3910.5,-202.23 3903.5,-202.23"/>
</g>
</g>
</svg>
